<svg width="187" height="69" viewBox="0 0 187 69" fill="none" xmlns="http://www.w3.org/2000/svg">
<path d="M23.5049 24.1182C23.5049 23.5485 23.6107 23.0114 23.8223 22.5068C24.0501 22.0023 24.3512 21.5628 24.7256 21.1885C25.0999 20.8141 25.5394 20.5212 26.0439 20.3096C26.5485 20.0817 27.0856 19.9678 27.6553 19.9678C28.2249 19.9678 28.762 20.0817 29.2666 20.3096C29.7712 20.5212 30.2106 20.8141 30.585 21.1885C30.9593 21.5628 31.2523 22.0023 31.4639 22.5068C31.6917 23.0114 31.8057 23.5485 31.8057 24.1182C31.8057 24.6878 31.6917 25.2249 31.4639 25.7295C31.2523 26.234 30.9593 26.6735 30.585 27.0479C30.2106 27.4222 29.7712 27.7233 29.2666 27.9512C28.762 28.1628 28.2249 28.2686 27.6553 28.2686C27.0856 28.2686 26.5485 28.1628 26.0439 27.9512C25.5394 27.7233 25.0999 27.4222 24.7256 27.0479C24.3512 26.6735 24.0501 26.234 23.8223 25.7295C23.6107 25.2249 23.5049 24.6878 23.5049 24.1182ZM32.709 24.2402C32.709 23.6706 32.8148 23.1335 33.0264 22.6289C33.2542 22.1243 33.5553 21.6849 33.9297 21.3105C34.304 20.9362 34.7435 20.6432 35.248 20.4316C35.7526 20.2038 36.2897 20.0898 36.8594 20.0898C37.429 20.0898 37.9661 20.2038 38.4707 20.4316C38.9753 20.6432 39.4147 20.9362 39.7891 21.3105C40.1634 21.6849 40.4564 22.1243 40.668 22.6289C40.8958 23.1335 41.0098 23.6706 41.0098 24.2402C41.0098 24.8099 40.8958 25.347 40.668 25.8516C40.4564 26.3561 40.1634 26.7956 39.7891 27.1699C39.4147 27.5443 38.9753 27.8454 38.4707 28.0732C37.9661 28.2848 37.429 28.3906 36.8594 28.3906C36.2897 28.3906 35.7526 28.2848 35.248 28.0732C34.7435 27.8454 34.304 27.5443 33.9297 27.1699C33.5553 26.7956 33.2542 26.3561 33.0264 25.8516C32.8148 25.347 32.709 24.8099 32.709 24.2402ZM28.2656 15.3779C28.2656 14.8083 28.3714 14.2712 28.583 13.7666C28.8109 13.262 29.112 12.8226 29.4863 12.4482C29.8607 12.0739 30.3001 11.7809 30.8047 11.5693C31.3092 11.3415 31.8464 11.2275 32.416 11.2275C32.9857 11.2275 33.5228 11.3415 34.0273 11.5693C34.5319 11.7809 34.9714 12.0739 35.3457 12.4482C35.7201 12.8226 36.013 13.262 36.2246 13.7666C36.4525 14.2712 36.5664 14.8083 36.5664 15.3779C36.5664 15.9476 36.4525 16.4847 36.2246 16.9893C36.013 17.4938 35.7201 17.9333 35.3457 18.3076C34.9714 18.682 34.5319 18.9831 34.0273 19.2109C33.5228 19.4225 32.9857 19.5283 32.416 19.5283C31.8464 19.5283 31.3092 19.4225 30.8047 19.2109C30.3001 18.9831 29.8607 18.682 29.4863 18.3076C29.112 17.9333 28.8109 17.4938 28.583 16.9893C28.3714 16.4847 28.2656 15.9476 28.2656 15.3779ZM34.1982 39.1816C34.9469 37.7982 35.7689 36.6833 36.6641 35.8369C37.5755 34.9743 38.487 34.3558 39.3984 33.9814C40.3099 33.5908 41.1888 33.4199 42.0352 33.4688C42.8815 33.5176 43.6302 33.7536 44.2812 34.1768C44.9486 34.5837 45.4775 35.1615 45.8682 35.9102C46.2588 36.6426 46.446 37.5133 46.4297 38.5225C46.4134 39.5316 46.1611 40.6546 45.6729 41.8916C45.2008 43.1286 44.4196 44.4469 43.3291 45.8467C41.7178 47.9137 39.9681 49.6797 38.0801 51.1445C36.1921 52.5931 34.2389 53.7731 32.2207 54.6846C30.2025 55.6123 28.1517 56.2796 26.0684 56.6865C23.985 57.0934 21.9424 57.2725 19.9404 57.2236C17.9385 57.1911 16.0098 56.9469 14.1543 56.4912C12.3151 56.0355 10.6143 55.4007 9.05176 54.5869C7.50553 53.7894 6.13021 52.8291 4.92578 51.7061C3.73763 50.5667 2.80176 49.2972 2.11816 47.8975C1.27181 46.1559 0.816081 44.4307 0.750977 42.7217C0.702148 41.0127 0.954427 39.3932 1.50781 37.8633C2.0612 36.3171 2.85872 34.8929 3.90039 33.5908C4.95833 32.2887 6.1709 31.182 7.53809 30.2705C8.92155 29.3428 10.4108 28.651 12.0059 28.1953C13.6172 27.7233 15.2367 27.5524 16.8643 27.6826C18.4919 27.8128 20.0951 28.2767 21.6738 29.0742C23.2526 29.8717 24.7093 31.0762 26.0439 32.6875C26.7764 33.5664 27.167 34.5267 27.2158 35.5684C27.2646 36.5938 27.0693 37.5785 26.6299 38.5225C26.2067 39.4502 25.5801 40.264 24.75 40.9639C23.9362 41.6475 23.0085 42.0869 21.9668 42.2822C21.3158 42.4124 20.6729 42.4368 20.0381 42.3555C19.4033 42.2741 18.8011 42.1113 18.2314 41.8672C17.6618 41.6068 17.141 41.265 16.6689 40.8418C16.1969 40.4023 15.79 39.8978 15.4482 39.3281C14.8623 38.3353 14.2113 37.5947 13.4951 37.1064C12.779 36.6019 12.0628 36.3252 11.3467 36.2764C10.6468 36.2113 9.97135 36.3496 9.32031 36.6914C8.66927 37.0332 8.12402 37.5459 7.68457 38.2295C7.26139 38.9131 6.96842 39.7594 6.80566 40.7686C6.65918 41.7614 6.71615 42.8763 6.97656 44.1133C7.5625 45.7409 8.46582 47.0674 9.68652 48.0928C10.9072 49.1019 12.3232 49.8018 13.9346 50.1924C15.5459 50.583 17.2712 50.6562 19.1104 50.4121C20.9658 50.168 22.805 49.5902 24.6279 48.6787C26.4508 47.7673 28.1924 46.5221 29.8525 44.9434C31.5127 43.3646 32.9613 41.444 34.1982 39.1816ZM77.5576 21.9209C77.5576 21.3512 77.6634 20.8141 77.875 20.3096C78.1029 19.805 78.404 19.3656 78.7783 18.9912C79.1527 18.6169 79.5921 18.3239 80.0967 18.1123C80.6012 17.8844 81.1383 17.7705 81.708 17.7705C82.2777 17.7705 82.8148 17.8844 83.3193 18.1123C83.8239 18.3239 84.2633 18.6169 84.6377 18.9912C85.012 19.3656 85.305 19.805 85.5166 20.3096C85.7445 20.8141 85.8584 21.3512 85.8584 21.9209C85.8584 22.4906 85.7445 23.0277 85.5166 23.5322C85.305 24.0368 85.012 24.4762 84.6377 24.8506C84.2633 25.2249 83.8239 25.526 83.3193 25.7539C82.8148 25.9655 82.2777 26.0713 81.708 26.0713C81.1383 26.0713 80.6012 25.9655 80.0967 25.7539C79.5921 25.526 79.1527 25.2249 78.7783 24.8506C78.404 24.4762 78.1029 24.0368 77.875 23.5322C77.6634 23.0277 77.5576 22.4906 77.5576 21.9209ZM86.7617 22.043C86.7617 21.4733 86.8675 20.9362 87.0791 20.4316C87.307 19.9271 87.6081 19.4876 87.9824 19.1133C88.3568 18.7389 88.7962 18.446 89.3008 18.2344C89.8053 18.0065 90.3424 17.8926 90.9121 17.8926C91.4818 17.8926 92.0189 18.0065 92.5234 18.2344C93.028 18.446 93.4674 18.7389 93.8418 19.1133C94.2161 19.4876 94.5091 19.9271 94.7207 20.4316C94.9486 20.9362 95.0625 21.4733 95.0625 22.043C95.0625 22.6126 94.9486 23.1497 94.7207 23.6543C94.5091 24.1589 94.2161 24.5983 93.8418 24.9727C93.4674 25.347 93.028 25.6481 92.5234 25.876C92.0189 26.0876 91.4818 26.1934 90.9121 26.1934C90.3424 26.1934 89.8053 26.0876 89.3008 25.876C88.7962 25.6481 88.3568 25.347 87.9824 24.9727C87.6081 24.5983 87.307 24.1589 87.0791 23.6543C86.8675 23.1497 86.7617 22.6126 86.7617 22.043ZM91.4248 39.1816C92.1735 37.7982 92.9954 36.6833 93.8906 35.8369C94.8021 34.9743 95.7135 34.3558 96.625 33.9814C97.5365 33.5908 98.4154 33.4199 99.2617 33.4688C100.108 33.5176 100.857 33.7536 101.508 34.1768C102.175 34.5837 102.704 35.1615 103.095 35.9102C103.485 36.6426 103.673 37.5133 103.656 38.5225C103.64 39.5316 103.388 40.6546 102.899 41.8916C102.427 43.1286 101.646 44.4469 100.556 45.8467C98.9443 47.9137 97.1947 49.6797 95.3066 51.1445C93.4186 52.5931 91.4655 53.7731 89.4473 54.6846C87.429 55.6123 85.3783 56.2796 83.2949 56.6865C81.2116 57.0934 79.1689 57.2725 77.167 57.2236C75.165 57.1911 73.2363 56.9469 71.3809 56.4912C69.5417 56.0355 67.8408 55.4007 66.2783 54.5869C64.7321 53.7894 63.3568 52.8291 62.1523 51.7061C60.9642 50.5667 60.0283 49.2972 59.3447 47.8975C58.4984 46.1559 58.0426 44.4307 57.9775 42.7217C57.9287 41.0127 58.181 39.3932 58.7344 37.8633C59.2878 36.3171 60.0853 34.8929 61.127 33.5908C62.1849 32.2887 63.3975 31.182 64.7646 30.2705C66.1481 29.3428 67.6374 28.651 69.2324 28.1953C70.8438 27.7233 72.4632 27.5524 74.0908 27.6826C75.7184 27.8128 77.3216 28.2767 78.9004 29.0742C80.4792 29.8717 81.9359 31.0762 83.2705 32.6875C84.0029 33.5664 84.3936 34.5267 84.4424 35.5684C84.4912 36.5938 84.2959 37.5785 83.8564 38.5225C83.4333 39.4502 82.8066 40.264 81.9766 40.9639C81.1628 41.6475 80.235 42.0869 79.1934 42.2822C78.5423 42.4124 77.8994 42.4368 77.2646 42.3555C76.6299 42.2741 76.0277 42.1113 75.458 41.8672C74.8883 41.6068 74.3675 41.265 73.8955 40.8418C73.4235 40.4023 73.0166 39.8978 72.6748 39.3281C72.0889 38.3353 71.4378 37.5947 70.7217 37.1064C70.0055 36.6019 69.2894 36.3252 68.5732 36.2764C67.8734 36.2113 67.1979 36.3496 66.5469 36.6914C65.8958 37.0332 65.3506 37.5459 64.9111 38.2295C64.488 38.9131 64.195 39.7594 64.0322 40.7686C63.8857 41.7614 63.9427 42.8763 64.2031 44.1133C64.7891 45.7409 65.6924 47.0674 66.9131 48.0928C68.1338 49.1019 69.5498 49.8018 71.1611 50.1924C72.7725 50.583 74.4977 50.6562 76.3369 50.4121C78.1924 50.168 80.0316 49.5902 81.8545 48.6787C83.6774 47.7673 85.4189 46.5221 87.0791 44.9434C88.7393 43.3646 90.1878 41.444 91.4248 39.1816ZM129.438 64.5967C129.438 64.027 129.543 63.4899 129.755 62.9854C129.983 62.4808 130.284 62.0413 130.658 61.667C131.033 61.2926 131.472 60.9915 131.977 60.7637C132.481 60.5521 133.018 60.4463 133.588 60.4463C134.158 60.4463 134.695 60.5521 135.199 60.7637C135.704 60.9915 136.143 61.2926 136.518 61.667C136.892 62.0413 137.185 62.4808 137.396 62.9854C137.624 63.4899 137.738 64.027 137.738 64.5967C137.738 65.1663 137.624 65.7035 137.396 66.208C137.185 66.7126 136.892 67.152 136.518 67.5264C136.143 67.9007 135.704 68.1937 135.199 68.4053C134.695 68.6331 134.158 68.7471 133.588 68.7471C133.018 68.7471 132.481 68.6331 131.977 68.4053C131.472 68.1937 131.033 67.9007 130.658 67.5264C130.284 67.152 129.983 66.7126 129.755 66.208C129.543 65.7035 129.438 65.1663 129.438 64.5967ZM148.31 39.1816C149.058 37.7982 149.88 36.6833 150.775 35.8369C151.687 34.9743 152.598 34.3558 153.51 33.9814C154.421 33.5908 155.3 33.4199 156.146 33.4688C156.993 33.5176 157.742 33.7536 158.393 34.1768C159.06 34.5837 159.589 35.1615 159.979 35.9102C160.37 36.6426 160.557 37.5133 160.541 38.5225C160.525 39.5316 160.272 40.6546 159.784 41.8916C159.312 43.1286 158.531 44.4469 157.44 45.8467C155.829 47.9137 154.079 49.6797 152.191 51.1445C150.303 52.5931 148.35 53.7731 146.332 54.6846C144.314 55.6123 142.263 56.2796 140.18 56.6865C138.096 57.0934 136.054 57.2725 134.052 57.2236C132.05 57.1911 130.121 56.9469 128.266 56.4912C126.426 56.0355 124.726 55.4007 123.163 54.5869C121.617 53.7894 120.242 52.8291 119.037 51.7061C117.849 50.5667 116.913 49.2972 116.229 47.8975C115.383 46.1559 114.927 44.4307 114.862 42.7217C114.813 41.0127 115.066 39.3932 115.619 37.8633C116.173 36.3171 116.97 34.8929 118.012 33.5908C119.07 32.2887 120.282 31.182 121.649 30.2705C123.033 29.3428 124.522 28.651 126.117 28.1953C127.729 27.7233 129.348 27.5524 130.976 27.6826C132.603 27.8128 134.206 28.2767 135.785 29.0742C137.364 29.8717 138.821 31.0762 140.155 32.6875C140.888 33.5664 141.278 34.5267 141.327 35.5684C141.376 36.5938 141.181 37.5785 140.741 38.5225C140.318 39.4502 139.691 40.264 138.861 40.9639C138.048 41.6475 137.12 42.0869 136.078 42.2822C135.427 42.4124 134.784 42.4368 134.149 42.3555C133.515 42.2741 132.912 42.1113 132.343 41.8672C131.773 41.6068 131.252 41.265 130.78 40.8418C130.308 40.4023 129.901 39.8978 129.56 39.3281C128.974 38.3353 128.323 37.5947 127.606 37.1064C126.89 36.6019 126.174 36.3252 125.458 36.2764C124.758 36.2113 124.083 36.3496 123.432 36.6914C122.781 37.0332 122.235 37.5459 121.796 38.2295C121.373 38.9131 121.08 39.7594 120.917 40.7686C120.771 41.7614 120.827 42.8763 121.088 44.1133C121.674 45.7409 122.577 47.0674 123.798 48.0928C125.019 49.1019 126.435 49.8018 128.046 50.1924C129.657 50.583 131.382 50.6562 133.222 50.4121C135.077 50.168 136.916 49.5902 138.739 48.6787C140.562 47.7673 142.304 46.5221 143.964 44.9434C145.624 43.3646 147.073 41.444 148.31 39.1816ZM179.877 0.973633C180.268 1.34798 180.504 1.73047 180.585 2.12109C180.666 2.51172 180.642 2.89421 180.512 3.26855C180.382 3.62663 180.17 3.96029 179.877 4.26953C179.6 4.57878 179.299 4.84733 178.974 5.0752C178.664 5.28678 178.355 5.44141 178.046 5.53906C177.737 5.62044 177.493 5.62044 177.313 5.53906C177.118 4.95312 176.817 4.58691 176.41 4.44043C176.02 4.29395 175.621 4.28581 175.214 4.41602C174.807 4.54622 174.465 4.78223 174.188 5.12402C173.912 5.44954 173.798 5.81576 173.847 6.22266C173.912 6.64583 174.091 7.00391 174.384 7.29688C174.693 7.57357 175.076 7.73633 175.531 7.78516C176.003 7.83398 176.524 7.76074 177.094 7.56543C177.68 7.35384 178.29 6.97135 178.925 6.41797C179.592 5.83203 180.194 5.49023 180.731 5.39258C181.285 5.27865 181.757 5.3112 182.147 5.49023C182.538 5.66927 182.847 5.9541 183.075 6.34473C183.303 6.71908 183.417 7.10156 183.417 7.49219C183.433 7.88281 183.336 8.23275 183.124 8.54199C182.912 8.85124 182.571 9.02214 182.099 9.05469C180.959 9.15234 179.991 9.32324 179.193 9.56738C178.412 9.81152 177.737 10.0964 177.167 10.4219C176.597 10.7311 176.109 11.0648 175.702 11.4229C175.295 11.7646 174.913 12.0983 174.555 12.4238C174.213 12.7331 173.863 13.0016 173.505 13.2295C173.163 13.4574 172.756 13.612 172.284 13.6934C171.731 13.7747 171.267 13.6527 170.893 13.3271C170.518 13.0016 170.331 12.5866 170.331 12.082C170.315 11.5775 170.526 11.0485 170.966 10.4951C171.405 9.92546 172.162 9.44531 173.236 9.05469C172.309 8.9082 171.617 8.63965 171.161 8.24902C170.689 7.8584 170.412 7.40267 170.331 6.88184C170.233 6.361 170.307 5.80762 170.551 5.22168C170.779 4.61947 171.12 4.04167 171.576 3.48828C172.048 2.91862 172.61 2.39779 173.261 1.92578C173.912 1.45378 174.604 1.08757 175.336 0.827148C176.085 0.566732 176.85 0.436523 177.631 0.436523C178.412 0.420247 179.161 0.599284 179.877 0.973633ZM186.151 46.75C186.558 47.7428 186.729 48.6624 186.664 49.5088C186.615 50.3551 186.396 51.1038 186.005 51.7549C185.614 52.4059 185.085 52.9349 184.418 53.3418C183.751 53.765 183.018 54.0335 182.221 54.1475C181.439 54.2777 180.618 54.237 179.755 54.0254C178.909 53.8301 178.087 53.4395 177.289 52.8535C176.508 52.2676 175.792 51.4701 175.141 50.4609C174.506 49.4518 174.009 48.2067 173.651 46.7256C173.31 45.5537 173.017 44.1947 172.772 42.6484C172.528 41.0859 172.357 39.4258 172.26 37.668C172.162 35.9102 172.146 34.0791 172.211 32.1748C172.276 30.2542 172.431 28.3499 172.675 26.4619C172.935 24.5576 173.293 22.694 173.749 20.8711C174.205 19.0482 174.783 17.3473 175.482 15.7686C175.775 14.8245 176.142 14.0514 176.581 13.4492C177.021 12.847 177.468 12.4157 177.924 12.1553C178.38 11.8949 178.811 11.7972 179.218 11.8623C179.625 11.9274 179.95 12.1553 180.194 12.5459C180.438 12.9365 180.561 13.498 180.561 14.2305C180.561 14.9629 180.382 15.8499 180.023 16.8916C177.663 27.7965 179.706 37.7493 186.151 46.75Z" fill="#F1E6E0"/>
</svg>
