<svg width="34" height="109" viewBox="0 0 34 109" fill="none" xmlns="http://www.w3.org/2000/svg">
<path d="M19.4492 1.94727C20.2305 2.69596 20.7025 3.46094 20.8652 4.24219C21.028 5.02344 20.9792 5.78841 20.7188 6.53711C20.4583 7.25326 20.0352 7.92057 19.4492 8.53906C18.8958 9.15755 18.2936 9.69466 17.6426 10.1504C17.0241 10.5736 16.4056 10.8828 15.7871 11.0781C15.1686 11.2409 14.6803 11.2409 14.3223 11.0781C13.9316 9.90625 13.3294 9.17383 12.5156 8.88086C11.7344 8.58789 10.9368 8.57161 10.123 8.83203C9.30924 9.09245 8.62565 9.56445 8.07227 10.248C7.51888 10.8991 7.29102 11.6315 7.38867 12.4453C7.51888 13.2917 7.87695 14.0078 8.46289 14.5938C9.08138 15.1471 9.84635 15.4727 10.7578 15.5703C11.7018 15.668 12.7435 15.5215 13.8828 15.1309C15.0547 14.7077 16.2754 13.9427 17.5449 12.8359C18.8796 11.6641 20.084 10.9805 21.1582 10.7852C22.265 10.5573 23.209 10.6224 23.9902 10.9805C24.7715 11.3385 25.39 11.9082 25.8457 12.6895C26.3014 13.4382 26.5293 14.2031 26.5293 14.9844C26.5618 15.7656 26.3665 16.4655 25.9434 17.084C25.5202 17.7025 24.8366 18.0443 23.8926 18.1094C21.6139 18.3047 19.6771 18.6465 18.082 19.1348C16.5195 19.623 15.1686 20.1927 14.0293 20.8438C12.89 21.4622 11.9134 22.1296 11.0996 22.8457C10.2858 23.5293 9.52083 24.1966 8.80469 24.8477C8.12109 25.4661 7.42122 26.0033 6.70508 26.459C6.02148 26.9147 5.20768 27.224 4.26367 27.3867C3.1569 27.5495 2.22917 27.3053 1.48047 26.6543C0.731771 26.0033 0.357422 25.1732 0.357422 24.1641C0.32487 23.1549 0.748047 22.097 1.62695 20.9902C2.50586 19.8509 4.01953 18.8906 6.16797 18.1094C4.3125 17.8164 2.92904 17.2793 2.01758 16.498C1.07357 15.7168 0.520182 14.8053 0.357422 13.7637C0.162109 12.722 0.308594 11.6152 0.796875 10.4434C1.2526 9.23893 1.9362 8.08333 2.84766 6.97656C3.79167 5.83724 4.91471 4.79557 6.2168 3.85156C7.51888 2.90755 8.90234 2.17513 10.3672 1.6543C11.8646 1.13346 13.3945 0.873047 14.957 0.873047C16.5195 0.840495 18.0169 1.19857 19.4492 1.94727ZM31.998 93.5C32.8118 95.4857 33.1536 97.3249 33.0234 99.0176C32.9258 100.71 32.4863 102.208 31.7051 103.51C30.9238 104.812 29.8659 105.87 28.5312 106.684C27.1966 107.53 25.7318 108.067 24.1367 108.295C22.5742 108.555 20.9303 108.474 19.2051 108.051C17.5124 107.66 15.8685 106.879 14.2734 105.707C12.7109 104.535 11.2786 102.94 9.97656 100.922C8.70703 98.9036 7.71419 96.4134 6.99805 93.4512C6.31445 91.1074 5.72852 88.3893 5.24023 85.2969C4.75195 82.1719 4.41016 78.8516 4.21484 75.3359C4.01953 71.8203 3.98698 68.1582 4.11719 64.3496C4.2474 60.5085 4.55664 56.6999 5.04492 52.9238C5.56576 49.1152 6.2819 45.388 7.19336 41.7422C8.10482 38.0964 9.26042 34.6947 10.6602 31.5371C11.2461 29.6491 11.9785 28.1029 12.8574 26.8984C13.7363 25.694 14.6315 24.8314 15.543 24.3105C16.4544 23.7897 17.3171 23.5944 18.1309 23.7246C18.9447 23.8548 19.5957 24.3105 20.084 25.0918C20.5723 25.873 20.8164 26.9961 20.8164 28.4609C20.8164 29.9258 20.4583 31.6999 19.7422 33.7832C15.0221 55.5931 19.1074 75.4987 31.998 93.5Z" fill="#3AA6D9"/>
</svg>
