<svg width="93" height="84" viewBox="0 0 93 84" fill="none" xmlns="http://www.w3.org/2000/svg">
<path d="M29.9609 75.1934C29.9609 74.054 30.1725 72.9798 30.5957 71.9707C31.0514 70.9616 31.6536 70.0827 32.4023 69.334C33.151 68.5853 34.0299 67.9831 35.0391 67.5273C36.0482 67.1042 37.1224 66.8926 38.2617 66.8926C39.401 66.8926 40.4753 67.1042 41.4844 67.5273C42.4935 67.9831 43.3724 68.5853 44.1211 69.334C44.8698 70.0827 45.4557 70.9616 45.8789 71.9707C46.3346 72.9798 46.5625 74.054 46.5625 75.1934C46.5625 76.3327 46.3346 77.4069 45.8789 78.416C45.4557 79.4251 44.8698 80.304 44.1211 81.0527C43.3724 81.8014 42.4935 82.3874 41.4844 82.8105C40.4753 83.2663 39.401 83.4941 38.2617 83.4941C37.1224 83.4941 36.0482 83.2663 35.0391 82.8105C34.0299 82.3874 33.151 81.8014 32.4023 81.0527C31.6536 80.304 31.0514 79.4251 30.5957 78.416C30.1725 77.4069 29.9609 76.3327 29.9609 75.1934ZM67.7051 24.3633C69.2025 21.5964 70.8464 19.3665 72.6367 17.6738C74.4596 15.9486 76.2826 14.7116 78.1055 13.9629C79.9284 13.1816 81.6862 12.8398 83.3789 12.9375C85.0716 13.0352 86.569 13.5072 87.8711 14.3535C89.2057 15.1673 90.2637 16.3229 91.0449 17.8203C91.8262 19.2852 92.2005 21.0267 92.168 23.0449C92.1354 25.0632 91.6309 27.3092 90.6543 29.7832C89.7103 32.2572 88.1478 34.8939 85.9668 37.6934C82.7441 41.8275 79.2448 45.3594 75.4688 48.2891C71.6927 51.1862 67.7865 53.5462 63.75 55.3691C59.7135 57.2246 55.612 58.5592 51.4453 59.373C47.2786 60.1868 43.1934 60.5449 39.1895 60.4473C35.1855 60.3822 31.3281 59.8939 27.6172 58.9824C23.9388 58.071 20.5371 56.8014 17.4121 55.1738C14.3197 53.5788 11.569 51.6582 9.16016 49.4121C6.78385 47.1335 4.91211 44.5944 3.54492 41.7949C1.85221 38.3118 0.940755 34.8613 0.810547 31.4434C0.712891 28.0254 1.21745 24.7865 2.32422 21.7266C3.43099 18.6341 5.02604 15.7858 7.10938 13.1816C9.22526 10.5775 11.6504 8.36393 14.3848 6.54102C17.1517 4.68555 20.1302 3.30208 23.3203 2.39062C26.543 1.44661 29.7819 1.10482 33.0371 1.36523C36.2923 1.62565 39.4987 2.55339 42.6562 4.14844C45.8138 5.74349 48.7272 8.15234 51.3965 11.375C52.8613 13.1328 53.6426 15.0534 53.7402 17.1367C53.8379 19.1875 53.4473 21.1569 52.5684 23.0449C51.722 24.9004 50.4688 26.528 48.8086 27.9277C47.181 29.2949 45.3255 30.1738 43.2422 30.5645C41.9401 30.8249 40.6543 30.8737 39.3848 30.7109C38.1152 30.5482 36.9108 30.2227 35.7715 29.7344C34.6322 29.2135 33.5905 28.5299 32.6465 27.6836C31.7025 26.8047 30.8887 25.7956 30.2051 24.6562C29.0332 22.6706 27.7311 21.1895 26.2988 20.2129C24.8665 19.2038 23.4342 18.6504 22.002 18.5527C20.6022 18.4225 19.2513 18.6992 17.9492 19.3828C16.6471 20.0664 15.5566 21.0918 14.6777 22.459C13.8314 23.8262 13.2454 25.5189 12.9199 27.5371C12.627 29.5228 12.7409 31.7526 13.2617 34.2266C14.4336 37.4818 16.2402 40.1348 18.6816 42.1855C21.123 44.2038 23.9551 45.6035 27.1777 46.3848C30.4004 47.166 33.8509 47.3125 37.5293 46.8242C41.2402 46.3359 44.9186 45.1803 48.5645 43.3574C52.2103 41.5345 55.6934 39.0443 59.0137 35.8867C62.334 32.7292 65.2311 28.888 67.7051 24.3633Z" fill="#5ABFA2"/>
</svg>
