<svg width="93" height="80" viewBox="0 0 93 80" fill="none" xmlns="http://www.w3.org/2000/svg">
<path d="M40.2402 8.8418C40.2402 7.70247 40.4518 6.62826 40.875 5.61914C41.3307 4.61003 41.9329 3.73112 42.6816 2.98242C43.4303 2.23372 44.3092 1.64779 45.3184 1.22461C46.3275 0.76888 47.4017 0.541016 48.541 0.541016C49.6803 0.541016 50.7546 0.76888 51.7637 1.22461C52.7728 1.64779 53.6517 2.23372 54.4004 2.98242C55.1491 3.73112 55.735 4.61003 56.1582 5.61914C56.6139 6.62826 56.8418 7.70247 56.8418 8.8418C56.8418 9.98112 56.6139 11.0553 56.1582 12.0645C55.735 13.0736 55.1491 13.9525 54.4004 14.7012C53.6517 15.4499 52.7728 16.0521 51.7637 16.5078C50.7546 16.931 49.6803 17.1426 48.541 17.1426C47.4017 17.1426 46.3275 16.931 45.3184 16.5078C44.3092 16.0521 43.4303 15.4499 42.6816 14.7012C41.9329 13.9525 41.3307 13.0736 40.875 12.0645C40.4518 11.0553 40.2402 9.98112 40.2402 8.8418ZM58.6484 9.08594C58.6484 7.94661 58.86 6.8724 59.2832 5.86328C59.7389 4.85417 60.3411 3.97526 61.0898 3.22656C61.8385 2.47786 62.7174 1.89193 63.7266 1.46875C64.7357 1.01302 65.8099 0.785156 66.9492 0.785156C68.0885 0.785156 69.1628 1.01302 70.1719 1.46875C71.181 1.89193 72.0599 2.47786 72.8086 3.22656C73.5573 3.97526 74.1432 4.85417 74.5664 5.86328C75.0221 6.8724 75.25 7.94661 75.25 9.08594C75.25 10.2253 75.0221 11.2995 74.5664 12.3086C74.1432 13.3177 73.5573 14.1966 72.8086 14.9453C72.0599 15.694 71.181 16.2962 70.1719 16.752C69.1628 17.1751 68.0885 17.3867 66.9492 17.3867C65.8099 17.3867 64.7357 17.1751 63.7266 16.752C62.7174 16.2962 61.8385 15.694 61.0898 14.9453C60.3411 14.1966 59.7389 13.3177 59.2832 12.3086C58.86 11.2995 58.6484 10.2253 58.6484 9.08594ZM67.9746 43.3633C69.472 40.5964 71.1159 38.3665 72.9062 36.6738C74.7292 34.9486 76.5521 33.7116 78.375 32.9629C80.1979 32.1816 81.9557 31.8398 83.6484 31.9375C85.3411 32.0352 86.8385 32.5072 88.1406 33.3535C89.4753 34.1673 90.5332 35.3229 91.3145 36.8203C92.0957 38.2852 92.4701 40.0267 92.4375 42.0449C92.4049 44.0632 91.9004 46.3092 90.9238 48.7832C89.9798 51.2572 88.4173 53.8939 86.2363 56.6934C83.0137 60.8275 79.5143 64.3594 75.7383 67.2891C71.9622 70.1862 68.056 72.5462 64.0195 74.3691C59.9831 76.2246 55.8815 77.5592 51.7148 78.373C47.5482 79.1868 43.4629 79.5449 39.459 79.4473C35.4551 79.3822 31.5977 78.8939 27.8867 77.9824C24.2083 77.071 20.8066 75.8014 17.6816 74.1738C14.5892 72.5788 11.8385 70.6582 9.42969 68.4121C7.05339 66.1335 5.18164 63.5944 3.81445 60.7949C2.12174 57.3118 1.21029 53.8613 1.08008 50.4434C0.982422 47.0254 1.48698 43.7865 2.59375 40.7266C3.70052 37.6341 5.29557 34.7858 7.37891 32.1816C9.49479 29.5775 11.9199 27.3639 14.6543 25.541C17.4212 23.6855 20.3997 22.3021 23.5898 21.3906C26.8125 20.4466 30.0514 20.1048 33.3066 20.3652C36.5618 20.6257 39.7682 21.5534 42.9258 23.1484C46.0833 24.7435 48.9967 27.1523 51.666 30.375C53.1309 32.1328 53.9121 34.0534 54.0098 36.1367C54.1074 38.1875 53.7168 40.1569 52.8379 42.0449C51.9915 43.9004 50.7383 45.528 49.0781 46.9277C47.4505 48.2949 45.5951 49.1738 43.5117 49.5645C42.2096 49.8249 40.9238 49.8737 39.6543 49.7109C38.3848 49.5482 37.1803 49.2227 36.041 48.7344C34.9017 48.2135 33.86 47.5299 32.916 46.6836C31.972 45.8047 31.1582 44.7956 30.4746 43.6562C29.3027 41.6706 28.0007 40.1895 26.5684 39.2129C25.1361 38.2038 23.7038 37.6504 22.2715 37.5527C20.8717 37.4225 19.5208 37.6992 18.2188 38.3828C16.9167 39.0664 15.8262 40.0918 14.9473 41.459C14.1009 42.8262 13.515 44.5189 13.1895 46.5371C12.8965 48.5228 13.0104 50.7526 13.5312 53.2266C14.7031 56.4818 16.5098 59.1348 18.9512 61.1855C21.3926 63.2038 24.2246 64.6035 27.4473 65.3848C30.6699 66.166 34.1204 66.3125 37.7988 65.8242C41.5098 65.3359 45.1882 64.1803 48.834 62.3574C52.4798 60.5345 55.9629 58.0443 59.2832 54.8867C62.6035 51.7292 65.5007 47.888 67.9746 43.3633Z" fill="#5ABFA2"/>
</svg>
