<svg width="92" height="93" viewBox="0 0 92 93" fill="none" xmlns="http://www.w3.org/2000/svg">
<path d="M45.9043 26.2363C45.9043 25.097 46.1159 24.0228 46.5391 23.0137C46.9948 22.0046 47.597 21.1257 48.3457 20.377C49.0944 19.6283 49.9733 19.0423 50.9824 18.6191C51.9915 18.1634 53.0658 17.9355 54.2051 17.9355C55.3444 17.9355 56.4186 18.1634 57.4277 18.6191C58.4368 19.0423 59.3158 19.6283 60.0645 20.377C60.8132 21.1257 61.3991 22.0046 61.8223 23.0137C62.278 24.0228 62.5059 25.097 62.5059 26.2363C62.5059 27.3757 62.278 28.4499 61.8223 29.459C61.3991 30.4681 60.8132 31.347 60.0645 32.0957C59.3158 32.8444 58.4368 33.4466 57.4277 33.9023C56.4186 34.3255 55.3444 34.5371 54.2051 34.5371C53.0658 34.5371 51.9915 34.3255 50.9824 33.9023C49.9733 33.4466 49.0944 32.8444 48.3457 32.0957C47.597 31.347 46.9948 30.4681 46.5391 29.459C46.1159 28.4499 45.9043 27.3757 45.9043 26.2363ZM64.3125 26.4805C64.3125 25.3411 64.5241 24.2669 64.9473 23.2578C65.403 22.2487 66.0052 21.3698 66.7539 20.6211C67.5026 19.8724 68.3815 19.2865 69.3906 18.8633C70.3997 18.4076 71.474 18.1797 72.6133 18.1797C73.7526 18.1797 74.8268 18.4076 75.8359 18.8633C76.8451 19.2865 77.724 19.8724 78.4727 20.6211C79.2214 21.3698 79.8073 22.2487 80.2305 23.2578C80.6862 24.2669 80.9141 25.3411 80.9141 26.4805C80.9141 27.6198 80.6862 28.694 80.2305 29.7031C79.8073 30.7122 79.2214 31.5911 78.4727 32.3398C77.724 33.0885 76.8451 33.6908 75.8359 34.1465C74.8268 34.5697 73.7526 34.7812 72.6133 34.7812C71.474 34.7812 70.3997 34.5697 69.3906 34.1465C68.3815 33.6908 67.5026 33.0885 66.7539 32.3398C66.0052 31.5911 65.403 30.7122 64.9473 29.7031C64.5241 28.694 64.3125 27.6198 64.3125 26.4805ZM55.4258 8.75586C55.4258 7.61654 55.6374 6.54232 56.0605 5.5332C56.5163 4.52409 57.1185 3.64518 57.8672 2.89648C58.6159 2.14779 59.4948 1.56185 60.5039 1.13867C61.513 0.682943 62.5872 0.455078 63.7266 0.455078C64.8659 0.455078 65.9401 0.682943 66.9492 1.13867C67.9583 1.56185 68.8372 2.14779 69.5859 2.89648C70.3346 3.64518 70.9206 4.52409 71.3438 5.5332C71.7995 6.54232 72.0273 7.61654 72.0273 8.75586C72.0273 9.89518 71.7995 10.9694 71.3438 11.9785C70.9206 12.9876 70.3346 13.8665 69.5859 14.6152C68.8372 15.3639 67.9583 15.9661 66.9492 16.4219C65.9401 16.8451 64.8659 17.0566 63.7266 17.0566C62.5872 17.0566 61.513 16.8451 60.5039 16.4219C59.4948 15.9661 58.6159 15.3639 57.8672 14.6152C57.1185 13.8665 56.5163 12.9876 56.0605 11.9785C55.6374 10.9694 55.4258 9.89518 55.4258 8.75586ZM67.291 56.3633C68.7884 53.5964 70.4323 51.3665 72.2227 49.6738C74.0456 47.9486 75.8685 46.7116 77.6914 45.9629C79.5143 45.1816 81.2721 44.8398 82.9648 44.9375C84.6576 45.0352 86.1549 45.5072 87.457 46.3535C88.7917 47.1673 89.8496 48.3229 90.6309 49.8203C91.4121 51.2852 91.7865 53.0267 91.7539 55.0449C91.7214 57.0632 91.2168 59.3092 90.2402 61.7832C89.2962 64.2572 87.7337 66.8939 85.5527 69.6934C82.3301 73.8275 78.8307 77.3594 75.0547 80.2891C71.2786 83.1862 67.3724 85.5462 63.3359 87.3691C59.2995 89.2246 55.1979 90.5592 51.0312 91.373C46.8646 92.1868 42.7793 92.5449 38.7754 92.4473C34.7715 92.3822 30.9141 91.8939 27.2031 90.9824C23.5247 90.071 20.123 88.8014 16.998 87.1738C13.9056 85.5788 11.1549 83.6582 8.74609 81.4121C6.36979 79.1335 4.49805 76.5944 3.13086 73.7949C1.43815 70.3118 0.526693 66.8613 0.396484 63.4434C0.298828 60.0254 0.803385 56.7865 1.91016 53.7266C3.01693 50.6341 4.61198 47.7858 6.69531 45.1816C8.8112 42.5775 11.2363 40.3639 13.9707 38.541C16.7376 36.6855 19.7161 35.3021 22.9062 34.3906C26.1289 33.4466 29.3678 33.1048 32.623 33.3652C35.8783 33.6257 39.0846 34.5534 42.2422 36.1484C45.3997 37.7435 48.3132 40.1523 50.9824 43.375C52.4473 45.1328 53.2285 47.0534 53.3262 49.1367C53.4238 51.1875 53.0332 53.1569 52.1543 55.0449C51.3079 56.9004 50.0547 58.528 48.3945 59.9277C46.7669 61.2949 44.9115 62.1738 42.8281 62.5645C41.526 62.8249 40.2402 62.8737 38.9707 62.7109C37.7012 62.5482 36.4967 62.2227 35.3574 61.7344C34.2181 61.2135 33.1764 60.5299 32.2324 59.6836C31.2884 58.8047 30.4746 57.7956 29.791 56.6562C28.6191 54.6706 27.3171 53.1895 25.8848 52.2129C24.4525 51.2038 23.0202 50.6504 21.5879 50.5527C20.1882 50.4225 18.8372 50.6992 17.5352 51.3828C16.2331 52.0664 15.1426 53.0918 14.2637 54.459C13.4173 55.8262 12.8314 57.5189 12.5059 59.5371C12.2129 61.5228 12.3268 63.7526 12.8477 66.2266C14.0195 69.4818 15.8262 72.1348 18.2676 74.1855C20.709 76.2038 23.541 77.6035 26.7637 78.3848C29.9863 79.166 33.4368 79.3125 37.1152 78.8242C40.8262 78.3359 44.5046 77.1803 48.1504 75.3574C51.7962 73.5345 55.2793 71.0443 58.5996 67.8867C61.9199 64.7292 64.8171 60.888 67.291 56.3633Z" fill="#5ABFA2"/>
</svg>
