<svg width="68" height="70" viewBox="0 0 68 70" fill="none" xmlns="http://www.w3.org/2000/svg">
<path opacity="0.251" d="M33.0586 69.4608C43.5294 69.4608 52.0177 68.1864 52.0177 66.6144C52.0177 65.0424 43.5294 63.7681 33.0586 63.7681C22.5879 63.7681 14.0996 65.0424 14.0996 66.6144C14.0996 68.1864 22.5879 69.4608 33.0586 69.4608Z" fill="#566E94"/>
<path d="M40.3935 0.0583221C40.8348 -0.734516 46.3525 6.77344 42.9828 9.37783C41.0073 9.81407 38.8235 9.07949 37.2971 7.73916C37.5794 5.00302 39.0517 2.46875 40.3935 0.0583221Z" fill="#565158"/>
<path d="M40.3549 0.0415114C41.2766 -0.51652 42.5389 6.02015 38.295 7.48666C36.5496 8.08978 34.8835 6.76556 34.8835 5.76968C34.8834 4.15809 37.0859 2.02053 40.3549 0.0415114Z" fill="#68676D"/>
<path d="M40.9322 0.50101C41.2798 1.11101 41.3562 1.8125 41.3848 2.48559C41.419 4.07142 40.9569 6.16477 39.394 7.13722C39.0661 7.33207 38.6909 7.46586 38.3066 7.50305C38.2928 7.5048 38.2891 7.48533 38.3028 7.48314C38.673 7.40833 39.021 7.2577 39.3194 7.05246C40.9648 5.89936 41.349 3.22412 41.1543 1.48327C41.1131 1.152 41.0483 0.819697 40.9107 0.508915C40.9049 0.497496 40.9269 0.488859 40.9322 0.50101Z" fill="#221E29"/>
<path d="M26.1075 0.0583221C25.6662 -0.734516 20.1485 6.77344 23.5182 9.37783C25.4937 9.81407 27.6775 9.07949 29.2039 7.73916C28.9215 5.00302 27.4493 2.46875 26.1075 0.0583221Z" fill="#565158"/>
<path d="M26.1462 0.0415114C25.2243 -0.51652 23.9622 6.02015 28.206 7.48666C29.9514 8.08978 31.6175 6.76556 31.6175 5.76968C31.6175 4.15809 29.4151 2.02053 26.1462 0.0415114Z" fill="#68676D"/>
<path d="M25.5904 0.508087C25.1739 2.46691 25.3433 5.64675 27.2124 7.00391C27.4995 7.21222 27.8354 7.37135 28.1993 7.48334C28.2125 7.48656 28.2065 7.50617 28.193 7.5028C27.8166 7.42815 27.4571 7.28747 27.1421 7.09145C25.5672 6.06557 25.1936 4.12168 25.2211 2.50043C25.2426 1.82543 25.34 1.14839 25.5684 0.501791C25.5702 0.496521 25.5767 0.493447 25.5829 0.495058C25.589 0.497107 25.592 0.502671 25.5904 0.508087Z" fill="#221E29"/>
<path d="M27.9795 49.563C25.5328 48.9756 23.2689 48.0778 22.9516 44.7813C22.425 39.3094 27.6016 38.185 28.1231 33.3593C28.6592 28.3968 22.4707 25.5343 16.6897 29.3079C9.71632 33.8597 10.2473 40.76 12.0549 44.4147C12.0994 44.5049 10.967 43.9163 11.1132 45.0269C11.7985 50.2285 22.9988 56.6229 28.3726 53.9377C31.2835 52.4833 29.6876 49.9732 27.9795 49.563Z" fill="#A8999C"/>
<mask id="mask0_417_483" style="mask-type:luminance" maskUnits="userSpaceOnUse" x="10" y="27" width="20" height="28">
<path d="M27.9798 49.5632C25.533 48.9758 23.2691 48.078 22.9519 44.7814C22.4253 39.3096 27.6018 38.1852 28.1233 33.3595C28.6594 28.397 22.2824 25.2216 16.364 29.4179C8.28888 35.1433 11.2691 42.9721 12.0551 44.4149C12.2218 44.7208 10.8525 42.7076 11.1134 45.0271C11.6995 50.2379 22.9991 56.6231 28.3729 53.9379C31.2837 52.4835 29.6878 49.9734 27.9798 49.5632Z" fill="white"/>
</mask>
<g mask="url(#mask0_417_483)">
<path d="M23.5745 56.1227C18.4566 54.6938 20.6466 47.9617 26.2393 46.1016C28.7654 46.4794 30.5333 46.601 31.2441 48.7629C31.955 50.9248 31.1414 53.4151 29.2337 54.9174C27.3259 56.4194 25.7486 56.7298 23.5745 56.1227Z" fill="#565158"/>
</g>
<mask id="mask1_417_483" style="mask-type:luminance" maskUnits="userSpaceOnUse" x="10" y="27" width="20" height="28">
<path d="M27.9798 49.5632C25.533 48.9758 23.2691 48.078 22.9519 44.7814C22.4253 39.3096 27.6018 38.1852 28.1233 33.3595C28.6594 28.397 22.2824 25.2216 16.364 29.4179C8.28888 35.1433 11.2691 42.9721 12.0551 44.4149C12.2218 44.7208 10.8525 42.7076 11.1134 45.0271C11.6995 50.2379 22.9991 56.6231 28.3729 53.9379C31.2837 52.4835 29.6878 49.9734 27.9798 49.5632Z" fill="white"/>
</mask>
<g mask="url(#mask1_417_483)">
<path d="M23.9396 46.4709C20.9598 43.2938 12.9966 48.8528 16.7688 52.1654C11.8263 51.8435 9.82851 48.7316 9.41591 45.1676C9.29071 44.0864 11.4346 42.8535 12.0492 44.2913C14.1202 39.2964 23.2264 38.9805 24.9079 42.5477C24.3241 43.2204 23.828 45.7817 23.9396 46.4709Z" fill="#565158"/>
</g>
<mask id="mask2_417_483" style="mask-type:luminance" maskUnits="userSpaceOnUse" x="10" y="27" width="20" height="28">
<path d="M27.9798 49.5632C25.533 48.9758 23.2691 48.078 22.9519 44.7814C22.4253 39.3096 27.6018 38.1852 28.1233 33.3595C28.6594 28.397 22.2824 25.2216 16.364 29.4179C8.28888 35.1433 11.2691 42.9721 12.0551 44.4149C12.2218 44.7208 10.8525 42.7076 11.1134 45.0271C11.6995 50.2379 22.9991 56.6231 28.3729 53.9379C31.2837 52.4835 29.6878 49.9734 27.9798 49.5632Z" fill="white"/>
</mask>
<g mask="url(#mask2_417_483)">
<path d="M26.5497 38.5061C25.4566 35.7086 22.4105 33.5813 19.0604 33.2759C15.7102 32.9706 12.2316 34.5029 10.5073 37.0437C11.2347 34.4005 12.5241 31.822 14.6511 29.8458C16.7782 27.8695 19.8166 26.5547 22.9088 26.701C26.001 26.8474 29.0321 28.6303 29.9535 31.2263C30.8749 33.8224 29.2691 37.0195 26.5497 38.5061Z" fill="#565158"/>
</g>
<path d="M14.8688 48.5937C14.6756 48.3632 14.2845 47.9192 14.1065 47.6975C13.9078 47.4387 13.6529 47.101 13.456 46.8442C12.5393 45.5565 11.7691 44.1472 11.2668 42.6887C10.2409 39.6108 10.4829 36.3747 12.2394 33.5365C13.1049 32.0969 14.3392 30.8294 15.7547 29.7842C16.2957 29.398 16.8955 29.0187 17.49 28.7002C17.8264 28.5199 18.2541 28.3162 18.6071 28.161C18.6199 28.1546 18.6311 28.1732 18.6179 28.1789C14.6499 30.0475 11.5842 33.525 11.0019 37.4911C10.4804 40.7109 11.621 43.964 13.4868 46.7195C13.6769 47.0048 13.9598 47.3805 14.1607 47.6658C14.348 47.9101 14.7005 48.3424 14.8873 48.5817C14.8963 48.5915 14.8772 48.6044 14.8688 48.5937Z" fill="#221E29"/>
<path d="M24.2656 54.5254C21.8882 54.2887 19.5971 53.5226 17.5645 52.4252C14.9259 50.9648 12.5053 48.9385 11.3787 46.3338C11.2728 46.0491 11.1695 45.7345 11.1169 45.4385L11.0714 45.1777L11.0503 44.9143C11.0369 44.8228 11.0458 44.7395 11.0468 44.6511L11.0523 44.5196C11.0536 44.4978 11.0531 44.4759 11.0559 44.4542L11.0663 44.3889L11.1073 44.1294C11.1081 44.1238 11.1139 44.1198 11.1203 44.1207C11.1266 44.1215 11.1309 44.1267 11.1301 44.1323C11.0611 44.6026 11.1109 45.0892 11.2326 45.5502C12.2574 48.9225 16.2768 51.8235 19.7587 53.2622C20.4498 53.548 21.2354 53.8208 21.9652 54.0201C22.7192 54.2281 23.4891 54.3918 24.2691 54.5054C24.2836 54.5068 24.2804 54.5279 24.2656 54.5254Z" fill="#221E29"/>
<path d="M35.3929 66.6949C35.6525 62.5766 35.3589 61.0158 35.3229 60.0829C35.2714 58.7436 38.4805 59.7349 38.098 60.3061C37.8221 61.5109 38.7637 66.4108 39.3027 67.0341C37.9255 67.0243 36.3228 66.8371 35.3929 66.6949Z" fill="#68676D"/>
<path d="M42.953 66.719C42.9205 66.0156 42.6148 64.902 42.2348 64.5102C41.7321 63.9917 37.6714 64.6762 37.2033 65.1186C36.9429 65.5699 37.0056 66.5442 37.2446 66.8714C38.7222 67.1093 42.7381 67.1598 42.953 66.719Z" fill="#68676D"/>
<path d="M40.9889 64.7969C41.5206 65.294 42.0442 66.5872 41.2258 67.0407C41.215 67.0478 41.1995 67.0377 41.2088 67.027C41.6439 66.5535 41.3732 65.8769 41.1972 65.3552C41.125 65.1705 41.0473 64.9872 40.9676 64.8045C40.9631 64.7953 40.9786 64.7859 40.9864 64.7943L40.9889 64.7969Z" fill="#221E29"/>
<path d="M39.5305 65.1168C39.9302 65.5813 40.1876 66.5954 39.649 67.0386C39.6403 67.0469 39.6228 67.0413 39.6286 67.0289C39.7833 66.7336 39.7468 66.3933 39.7058 66.0784C39.6647 65.7565 39.5835 65.4394 39.5081 65.1216C39.5054 65.1121 39.5213 65.1052 39.528 65.1137L39.5305 65.1168Z" fill="#221E29"/>
<path d="M38.5475 64.6611C38.2096 64.6984 37.8745 64.772 37.5644 64.9043C37.2492 65.0342 36.9708 65.2245 36.6992 65.4157C36.8241 65.3072 36.9483 65.198 37.0813 65.0957C37.4817 64.7787 37.9819 64.5665 38.507 64.4609L38.5475 64.6611Z" fill="#221E29"/>
<path d="M31.4962 66.7291C31.2365 62.6108 31.5302 61.05 31.5662 60.1171C31.6177 58.7777 28.4086 59.7691 28.791 60.3403C29.0671 61.5451 28.1254 66.445 27.5864 67.0683C28.9634 67.0585 30.5663 66.8713 31.4962 66.7291Z" fill="#68676D"/>
<path d="M23.936 66.7528C23.9684 66.0493 24.2743 64.9359 24.6542 64.5438C25.157 64.0253 29.2175 64.71 29.6857 65.1522C29.9461 65.6035 29.8835 66.5779 29.6444 66.9051C28.1667 67.143 24.1509 67.1935 23.936 66.7528Z" fill="#68676D"/>
<path d="M25.9215 64.8383C25.9013 65.2372 25.7845 65.6074 25.6963 65.986C25.6134 66.3574 25.5166 66.686 25.6801 67.0606L25.6818 67.0646C25.6864 67.0739 25.6706 67.0829 25.6631 67.0744C25.199 66.6089 25.4646 65.9006 25.6554 65.3779C25.7288 65.1925 25.8118 65.0104 25.9 64.8304C25.9043 64.821 25.9225 64.8238 25.9215 64.8346V64.8383Z" fill="#221E29"/>
<path d="M27.3813 65.1554C27.5121 65.8123 27.2536 66.4136 27.2609 67.0674C27.2619 67.0771 27.2452 67.0815 27.2402 67.0724C27.065 66.777 27.1022 66.4274 27.1375 66.1073C27.1872 65.7839 27.2638 65.4649 27.3586 65.1506C27.3611 65.1411 27.3786 65.1411 27.3803 65.1513L27.3813 65.1554Z" fill="#221E29"/>
<path d="M28.3884 64.5039C29.0767 64.6777 29.6534 65.0477 30.1835 65.4548C29.8936 65.2897 29.6093 65.1124 29.2976 64.9817C28.9902 64.8485 28.6638 64.758 28.332 64.7009L28.3884 64.5039Z" fill="#221E29"/>
<path d="M35.4012 60.3533C35.6676 61.2533 37.3662 61.9274 39.7449 61.7159C44.0052 61.3371 47.0543 56.1107 47.8077 53.1755C48.8524 49.1043 47.4546 45.8717 47.0066 40.9746C40.0081 55.7507 34.2332 56.4088 35.4012 60.3533Z" fill="#BBA8A5"/>
<path d="M31.496 60.3533C31.0874 61.2112 29.531 61.9274 27.1523 61.7159C22.8919 61.3371 19.8428 56.1107 19.0895 53.1755C18.0447 49.1043 19.0513 43.809 19.8905 40.9746C26.889 55.7507 33.4901 56.1662 31.496 60.3533Z" fill="#BBA8A5"/>
<path d="M19.4435 45.3415C21.562 26.4331 20.1739 14.3838 33.1043 14.3838C45.695 14.3838 45.7781 27.8465 47.3824 45.206C48.9572 62.2474 17.5372 62.3569 19.4435 45.3415Z" fill="#BBA8A5"/>
<path d="M26.5557 55.6948C27.4687 56.4114 28.5365 57.0217 29.6742 57.4178C29.8885 57.4912 30.3212 57.6247 30.5403 57.6853L30.9816 57.7943L31.4278 57.8845C33.9796 58.3689 36.7103 57.8685 38.8978 56.6336L39.2832 56.4066L39.6563 56.1625L40.0207 55.9062C40.0256 55.9023 40.0336 55.9025 40.0377 55.9072C36.3908 59.1184 29.9977 59.0048 26.5557 55.6948Z" fill="#221E29"/>
<path d="M49.7877 12.6054C49.7853 12.7213 49.6908 14.7525 49.6815 14.8683C49.6777 14.9178 49.673 14.9672 49.6676 15.0167C49.6668 15.0283 49.6661 15.0397 49.6646 15.0513C49.6615 15.0838 49.6576 15.1163 49.653 15.1489C49.6491 15.1827 49.6445 15.2167 49.6398 15.2506C49.6383 15.2648 49.636 15.2785 49.6336 15.2927C49.6266 15.3442 49.6181 15.3957 49.609 15.4472C49.6081 15.454 49.6066 15.4601 49.606 15.4669C49.5975 15.5163 49.5881 15.5651 49.5781 15.6146C49.5743 15.6355 49.5696 15.6573 49.5649 15.679C49.5579 15.7143 49.5503 15.7495 49.5418 15.7847C49.5364 15.8117 49.5303 15.8396 49.5233 15.8666C49.5156 15.8999 49.5078 15.9331 49.4986 15.9656C49.4924 15.9921 49.4854 16.0192 49.4778 16.0463C49.4701 16.0761 49.4616 16.1066 49.4531 16.1364C49.4439 16.1697 49.4346 16.2029 49.4246 16.2361C49.4176 16.2585 49.4108 16.2815 49.4038 16.3046C49.3929 16.3392 49.3821 16.373 49.3714 16.407C49.3344 16.5195 49.2951 16.632 49.2526 16.7438C49.2387 16.7804 49.2247 16.817 49.2094 16.8536C49.1985 16.8814 49.1877 16.9098 49.1754 16.9384C49.1484 17.0041 49.1205 17.0692 49.0912 17.1342C49.0695 17.1837 49.0472 17.2332 49.0231 17.2827C48.946 17.4473 48.8618 17.6107 48.7716 17.772C48.7438 17.8228 48.7144 17.8723 48.6852 17.9225C48.6852 17.9238 48.6844 17.9252 48.6829 17.9266C48.6589 17.9679 48.6342 18.0093 48.6087 18.0506C48.5972 18.0696 48.5849 18.0893 48.5732 18.1081C48.5494 18.1461 48.5254 18.184 48.5007 18.222C48.493 18.2336 48.4854 18.2457 48.4775 18.2579C48.4537 18.2945 48.4297 18.3304 48.405 18.367C48.3903 18.388 48.3765 18.4097 48.3618 18.4306C48.3378 18.4652 48.314 18.4991 48.2893 18.5337C48.2406 18.6028 48.1905 18.6713 48.1381 18.7391C48.1103 18.777 48.0809 18.8143 48.0518 18.8516C47.76 19.2243 47.4336 19.5769 47.077 19.9021C47.0407 19.9354 47.0045 19.9686 46.9675 20.0011C46.7391 20.2031 46.4997 20.3934 46.249 20.5717C46.2073 20.6016 46.1648 20.6313 46.1216 20.6604C46.0121 20.7349 45.9009 20.8075 45.7882 20.8774C45.7512 20.9003 45.7142 20.9235 45.6764 20.9459C45.6408 20.967 45.6053 20.9879 45.569 21.009C45.522 21.0355 45.4748 21.0625 45.4278 21.0889C45.4225 21.0915 45.4163 21.095 45.41 21.0984C45.3845 21.112 45.3598 21.1255 45.3343 21.1391C45.2764 21.1703 45.2186 21.2007 45.1599 21.2306C45.1106 21.255 45.0604 21.2801 45.0102 21.3038C44.9554 21.3309 44.8998 21.3566 44.8435 21.3817C44.788 21.4074 44.7316 21.4319 44.6753 21.4562C44.6189 21.4806 44.5618 21.5043 44.5048 21.5267C44.4514 21.5484 44.3974 21.5695 44.3434 21.5897C44.3372 21.5925 44.3302 21.5944 44.3249 21.5964C44.2747 21.6154 44.2245 21.6338 44.1743 21.6506C44.1635 21.6547 44.1526 21.6586 44.1426 21.6621C44.0971 21.6777 44.0516 21.6933 44.0061 21.7083C43.9923 21.7129 43.9776 21.7178 43.9629 21.7219C43.9104 21.7394 43.8573 21.7558 43.8039 21.7714C43.7939 21.7747 43.7839 21.7775 43.7746 21.7801C43.7244 21.7951 43.6742 21.8093 43.624 21.8229C43.577 21.8358 43.5298 21.8486 43.4828 21.8602C43.4643 21.8649 43.4465 21.8697 43.4288 21.8738C43.381 21.8854 43.334 21.8968 43.2861 21.9078C43.2714 21.9112 43.2568 21.9145 43.2421 21.9173C43.1911 21.9289 43.1394 21.9397 43.0877 21.9498C43.0784 21.9519 43.0699 21.9539 43.0614 21.9552C42.9704 21.9728 42.8785 21.9898 42.7858 22.004C42.6846 22.0202 42.5836 22.0344 42.4809 22.0467C42.4277 22.0534 42.3737 22.0596 42.3197 22.0643C42.2602 22.0704 42.2009 22.0758 42.1413 22.0798C42.0827 22.0845 42.0233 22.0886 41.9638 22.0914C41.9445 22.0927 41.9245 22.0934 41.9051 22.094C41.8503 22.0968 41.7948 22.0988 41.7392 22.1001C41.6744 22.1022 41.6089 22.1029 41.5432 22.1029C38.9384 22.1029 36.1908 19.7999 33.2272 19.7715C30.2673 19.7431 27.0922 21.9674 24.0305 21.9674H23.9873C22.6428 21.9674 20.8369 21.228 19.3659 19.9226C19.3644 19.9219 19.3629 19.9206 19.3612 19.9193C19.1082 19.6943 18.8649 19.453 18.6366 19.1961C18.6319 19.1914 18.6274 19.186 18.6227 19.1806C17.8285 18.2847 15.9869 17.011 15.7028 15.77C15.5978 15.3105 15.495 13.8342 16.5154 12.5817C16.909 12.5288 17.2957 12.4333 17.6638 12.2984C17.2802 12.2572 16.9055 12.2602 16.521 12.2182C16.521 12.2182 16.5787 11.5779 16.5912 11.4396C22.2069 11.8666 22.5618 9.19779 23.7003 8.10998C25.0386 6.83113 28.023 5.45801 32.7741 5.45801C38.2701 5.45801 41.1411 6.65005 42.8754 8.31331C44.1565 9.54268 44.2515 11.7679 49.73 11.5074C50.0084 11.4564 50.0101 11.7902 49.7825 12.2049C49.727 12.215 49.673 12.2239 49.6196 12.232C49.5201 12.2475 49.4251 12.2598 49.3349 12.2699C49.3117 12.2727 49.2894 12.2753 49.267 12.2774C49.2447 12.2801 49.2222 12.2822 49.2007 12.2841C49.1575 12.2888 49.1158 12.2929 49.0748 12.2962C49.034 12.3003 48.9945 12.3037 48.956 12.3071C48.9275 12.3098 48.8996 12.3118 48.8726 12.3145C48.7884 12.322 48.7112 12.3295 48.6402 12.3375C49.012 12.4577 49.3962 12.5477 49.7877 12.6054Z" fill="#BBA8A5"/>
<path d="M22.543 20.8916C22.543 29.849 33.2187 37.2989 33.2187 37.2989C33.2187 37.2989 43.8131 29.8791 43.8131 20.9216C43.8131 11.9641 22.543 11.9341 22.543 20.8916Z" fill="#E7E1D5"/>
<path d="M49.7877 12.6056C49.7854 12.7216 49.6909 14.7527 49.6815 14.8685C49.6777 14.918 49.673 14.9675 49.6677 15.0169C49.6668 15.0285 49.6662 15.0399 49.6647 15.0515C49.6615 15.084 49.6577 15.1165 49.653 15.1491C49.6492 15.183 49.6445 15.2169 49.6398 15.2509C49.6383 15.2651 49.636 15.2787 49.6337 15.2929C49.6267 15.3444 49.6182 15.3959 49.609 15.4475C49.6082 15.4542 49.6067 15.4604 49.606 15.4671C49.5975 15.5166 49.5882 15.5653 49.5782 15.6148C49.5743 15.6357 49.5696 15.6575 49.565 15.6792C49.558 15.7145 49.5503 15.7498 49.5418 15.7849C49.5365 15.812 49.5303 15.8398 49.5233 15.8669C49.5156 15.9001 49.5078 15.9333 49.4986 15.9658C49.4925 15.9923 49.4855 16.0194 49.4778 16.0465C49.4701 16.0764 49.4616 16.1068 49.4531 16.1367C49.444 16.1699 49.4346 16.2031 49.4246 16.2364C49.4176 16.2588 49.4108 16.2817 49.4038 16.3049C49.3929 16.3394 49.3821 16.3732 49.3714 16.4072C49.3344 16.5198 49.2951 16.6322 49.2526 16.744C49.2387 16.7806 49.2247 16.8172 49.2094 16.8538C49.1986 16.8816 49.1877 16.91 49.1754 16.9386C49.1484 17.0043 49.1205 17.0695 49.0912 17.1344C49.0695 17.1839 49.0472 17.2334 49.0232 17.2829C48.946 17.4476 48.8618 17.6109 48.7716 17.7723C48.7438 17.8231 48.7144 17.8725 48.6853 17.9227C48.6853 17.9241 48.6844 17.9254 48.6829 17.9268C48.6589 17.9681 48.6343 18.0096 48.6087 18.0508C48.5972 18.0699 48.5849 18.0895 48.5732 18.1084C48.5494 18.1463 48.5254 18.1842 48.5007 18.2223C48.4931 18.2338 48.4854 18.246 48.4776 18.2581C48.4537 18.2947 48.4297 18.3306 48.405 18.3672C48.3904 18.3883 48.3765 18.4099 48.3619 18.4309C48.3379 18.4654 48.314 18.4994 48.2893 18.5339C48.2407 18.603 48.1905 18.6715 48.1381 18.7393C48.1103 18.7772 48.081 18.8145 48.0518 18.8519C47.7601 19.2246 47.4336 19.5771 47.0771 19.9024C47.0407 19.9356 47.0045 19.9688 46.9675 20.0013C46.7391 20.2033 46.4997 20.3936 46.249 20.5719C46.2073 20.6018 46.1648 20.6315 46.1217 20.6606C46.0121 20.7352 45.9009 20.8078 45.7883 20.8776C45.7512 20.9006 45.7142 20.9237 45.6764 20.9461C45.6409 20.9672 45.6054 20.9881 45.569 21.0092C45.522 21.0357 45.4748 21.0628 45.4278 21.0891C45.4225 21.0918 45.4163 21.0953 45.41 21.0986C45.3845 21.1123 45.3598 21.1257 45.3343 21.1393C45.2765 21.1705 45.2186 21.201 45.1599 21.2308C45.1106 21.2553 45.0604 21.2803 45.0102 21.304C44.9554 21.3311 44.8999 21.3569 44.8435 21.3819C44.788 21.4077 44.7317 21.4321 44.6753 21.4564C44.619 21.4809 44.5618 21.5046 44.5048 21.527C44.4514 21.5486 44.3974 21.5697 44.3434 21.5899C44.3372 21.5927 44.3302 21.5946 44.3249 21.5967C44.2747 21.6157 44.2245 21.634 44.1744 21.6508C44.1635 21.6549 44.1527 21.6589 44.1427 21.6624C44.0972 21.6779 44.0517 21.6936 44.0061 21.7085C43.9923 21.7132 43.9776 21.718 43.963 21.7221C43.9105 21.7397 43.8573 21.7561 43.8039 21.7716C43.7939 21.775 43.7839 21.7777 43.7746 21.7804C43.7244 21.7953 43.6742 21.8095 43.6241 21.8231C43.577 21.836 43.5299 21.8489 43.4829 21.8604C43.4644 21.8651 43.4465 21.87 43.4289 21.8741C43.381 21.8856 43.334 21.897 43.2861 21.908C43.2715 21.9114 43.2568 21.9148 43.2421 21.9175C43.1911 21.9291 43.1394 21.9399 43.0878 21.95C43.0784 21.9521 43.0699 21.9541 43.0614 21.9555C42.9704 21.973 42.8786 21.99 42.7859 22.0042C42.6847 22.0204 42.5836 22.0346 42.481 22.0469C42.4278 22.0537 42.3738 22.0598 42.3197 22.0645C42.2602 22.0707 42.2009 22.0761 42.1414 22.08C42.0827 22.0847 42.0233 22.0888 41.9638 22.0916C41.9445 22.0929 41.9245 22.0936 41.9052 22.0942C41.8503 22.097 41.7948 22.0991 41.7393 22.1004C41.6744 22.1024 41.6089 22.1032 41.5432 22.1032C36.3366 22.1032 30.1562 22.0103 24.0305 21.9676H23.9874C22.6429 21.9676 20.8369 21.2282 19.3659 19.9229C19.3644 19.9221 19.3629 19.9208 19.3613 19.9195C19.1082 19.6945 18.865 19.4532 18.6366 19.1963C18.6319 19.1916 18.6274 19.1862 18.6227 19.1808C17.8286 18.2849 15.9869 17.0112 15.7029 15.7703C15.5978 15.3107 15.552 13.8492 16.5154 12.5819C16.909 12.5291 17.3149 12.4675 17.6832 12.3325C17.2996 12.2912 16.9062 12.2531 16.5217 12.2111C16.5217 12.2111 16.5336 12.0393 16.5581 11.8087C22.6904 12.2805 22.8112 10.274 23.8508 9.11238C26.0242 6.68336 32.7024 3.60658 31.3958 12.5682C31.2684 13.4437 32.7256 13.2893 33.2272 13.2859C33.7335 13.2833 35.1875 13.4207 35.1003 12.6096C34.1016 3.2753 41.0238 6.89841 42.8437 9.1803C43.932 10.546 44.0513 12.5405 49.9176 11.8858C49.8851 12.0059 49.8072 12.1668 49.7787 12.2192C49.721 12.2297 49.5195 12.2485 49.3348 12.2701C49.3116 12.2729 49.2892 12.2755 49.2669 12.2776C49.2446 12.2804 49.2221 12.2824 49.2006 12.2843C49.1574 12.289 49.1157 12.2931 49.0747 12.2965C49.0339 12.3006 48.9943 12.3039 48.9558 12.3073C48.9273 12.3101 48.8995 12.312 48.8725 12.3148C48.7883 12.3222 48.7111 12.3297 48.6401 12.3378C49.012 12.4579 49.3963 12.548 49.7877 12.6056Z" fill="#E7E1D5"/>
<path d="M49.7874 12.6055C50.4002 13.3908 52.1358 16.0128 48.1867 18.8148C46.3462 18.9603 44.3324 19.7346 43.2525 19.463C37.2417 17.9517 35.9129 13.8811 35.64 12.2524C34.3264 4.39821 40.9383 7.85604 42.2188 9.34906C43.5703 10.9261 43.1577 12.7356 49.619 12.2314C49.2216 12.2925 48.8905 12.3073 48.6396 12.3371C49.0117 12.4578 49.396 12.5478 49.7874 12.6055Z" fill="#68676D"/>
<path d="M30.7971 12.2526C30.4752 14.174 28.6847 19.4934 19.4704 20.0011C19.4372 19.978 19.4025 19.9516 19.3653 19.9225C19.3638 19.9217 19.3623 19.9204 19.3607 19.9191C19.1593 19.7591 18.9052 19.5132 18.636 19.196C18.6313 19.1913 18.6268 19.1859 18.6222 19.1804C17.9832 18.4255 16.0389 17.0922 15.7023 15.7699C15.5849 15.3091 15.5323 13.6992 16.4925 12.5843C16.4995 12.5836 16.5072 12.583 16.5148 12.5816C16.9084 12.5287 17.2952 12.4331 17.6633 12.2983C17.1688 12.245 19.259 12.5903 21.5004 11.8063C22.6825 11.3927 23.3053 10.6765 24.2192 9.34945C25.3206 7.74986 32.1116 4.39845 30.7971 12.2526Z" fill="#68676D"/>
<path d="M41.9689 10.0101C41.5835 9.22298 39.5032 7.47891 37.656 8.20719C36.5793 8.63172 36.0472 10.4455 36.4688 11.7592L41.9689 10.0101Z" fill="#565158"/>
<path d="M36.4597 12.0335C36.6266 12.9088 37.0803 11.2718 40.0747 11.0836C42.0785 10.9577 43.5522 10.7784 41.9692 10.01C39.7 8.90884 36.2341 10.8505 36.4597 12.0335Z" fill="#221E29"/>
<path d="M37.5205 11.7712C38.0494 11.4805 38.8536 11.2036 40.0744 11.0839C41.68 10.9264 40.511 9.57347 39.3734 9.8055C36.8808 10.3136 36.7566 12.191 37.5205 11.7712Z" fill="#3B3445"/>
<path d="M24.6025 10.0101C24.988 9.22298 27.0683 7.47891 28.9154 8.20719C29.9922 8.63172 30.5243 10.4455 30.1027 11.7592L24.6025 10.0101Z" fill="#565158"/>
<path d="M30.1192 12.0335C29.9523 12.9088 29.4985 11.2718 26.5042 11.0836C24.5004 10.9577 23.0267 10.7784 24.6097 10.01C26.8789 8.90884 30.3446 10.8505 30.1192 12.0335Z" fill="#221E29"/>
<path d="M29.0578 11.7712C28.5288 11.4805 27.7246 11.2036 26.5038 11.0839C24.8983 10.9264 26.0672 9.57347 27.2048 9.8055C29.6974 10.3136 29.8214 12.191 29.0578 11.7712Z" fill="#3B3445"/>
<path d="M29.8999 13.9431C29.8999 16.9206 31.3858 19.3344 33.2185 19.3344C35.0515 19.3344 36.5372 16.9206 36.5372 13.9431C36.5372 10.9656 29.8999 10.9656 29.8999 13.9431Z" fill="#E7E1D5"/>
<path d="M35.1421 12.6593C35.4452 13.1852 34.1434 14.3189 33.2584 14.3189C32.2666 14.3189 30.9843 13.3599 31.3224 12.6593C31.612 12.0595 34.8644 12.1774 35.1421 12.6593Z" fill="#221E29"/>
<path d="M34.3343 12.6071C34.5212 12.828 33.7812 13.2761 33.264 13.2635C32.6844 13.2493 31.917 12.8362 32.1018 12.5525C32.2598 12.3096 34.1631 12.4046 34.3343 12.6071Z" fill="#3B3445"/>
<path d="M35.5036 15.4969C35.1921 17.7299 34.1867 18.4953 33.1683 18.4966C32.159 18.4978 31.0728 17.8047 31.0728 15.4969C31.2961 15.7173 31.7486 15.6822 32.0495 15.551C32.3504 15.4199 32.5984 15.2067 32.9034 15.0826C33.2081 14.9584 33.624 14.9532 33.8269 15.1884C34.2007 15.622 34.9527 15.7609 35.5036 15.4969Z" fill="#B46570"/>
<path d="M31.603 17.5915C32.0333 17.1161 32.5304 16.9953 33.1389 16.9785C33.7474 16.9618 34.3599 17.1698 34.7995 17.5312C34.5254 18.071 33.8694 18.4432 33.1964 18.4409C32.5234 18.4387 31.9518 18.0948 31.603 17.5915Z" fill="#CD8F94"/>
<path d="M35.0398 15.5973C35.0638 15.9088 34.7957 16.241 34.2711 16.1836C34.2398 16.1802 34.4858 15.8479 33.9297 15.1909C34.0237 15.3609 34.5755 15.7268 35.0398 15.5973Z" fill="#FFFAF5"/>
<path d="M31.4751 15.5973C31.4511 15.9088 31.719 16.241 32.2438 16.1836C32.275 16.1802 32.0291 15.8479 32.5852 15.1909C32.4912 15.3609 31.9392 15.7268 31.4751 15.5973Z" fill="#FFFAF5"/>
<path d="M30.5482 14.9725C30.6316 15.4566 31.5123 15.599 31.9661 15.5206C32.1391 15.472 32.2213 15.3661 32.3743 15.2394C32.6479 14.9918 33.0887 14.868 33.4786 14.9191C33.7233 14.9413 33.9831 15.0808 34.1238 15.2332C34.2213 15.3295 34.2958 15.4102 34.3812 15.4601C34.5672 15.5744 34.8253 15.5636 35.0545 15.5395C35.4284 15.5033 35.8392 15.3399 35.8889 14.9725H35.912C35.9172 15.5747 35.0191 15.7801 34.4667 15.6848C34.1148 15.6113 33.9676 15.2689 33.6433 15.1603C33.2622 15.0425 32.8098 15.1341 32.5204 15.3815C32.3707 15.5005 32.219 15.6482 32.0091 15.6873C31.4911 15.7554 30.5354 15.532 30.5249 14.9725H30.5482Z" fill="#221E29"/>
<path d="M31.0846 15.4969C31.1428 16.1513 31.2428 16.8222 31.5824 17.4058C31.9926 18.1066 32.7987 18.5674 33.7007 18.3085C34.5661 18.0271 34.9802 17.2097 35.2278 16.4708C35.3419 16.1546 35.41 15.8257 35.4923 15.4956L35.5153 15.4974C35.4061 16.4673 35.1839 17.5932 34.2797 18.2458C33.2418 18.9571 31.916 18.4717 31.417 17.474C31.0951 16.8563 31.0363 16.1656 31.0613 15.496L31.0846 15.4969Z" fill="#221E29"/>
<path d="M31.5942 17.5849C32.0422 16.8462 33.312 16.7332 34.1197 17.0371C34.4094 17.146 34.6725 17.3287 34.8187 17.5672L34.802 17.5812C34.5986 17.3975 34.3392 17.2665 34.0625 17.1888C33.5082 17.0406 32.8951 17.0437 32.3421 17.1962C32.0669 17.2763 31.805 17.4061 31.6116 17.5983L31.5942 17.5849Z" fill="#221E29"/>
<path d="M31.6104 19.8984C32.4314 20.2139 33.9728 20.2101 34.8028 19.9115L34.8173 19.9273C34.1533 20.3814 33.1481 20.4036 32.3569 20.2423C32.082 20.1807 31.8098 20.082 31.5952 19.9137L31.6104 19.8984Z" fill="#221E29"/>
<path d="M31.4596 15.5396C31.5271 15.8792 31.8423 16.1317 32.2293 16.0825C32.1784 16.085 32.1266 16.1345 32.1309 16.1808C32.0167 15.8452 32.2836 15.4188 32.6063 15.2036C32.4491 15.5116 32.2568 15.8215 32.3603 16.1575C32.3643 16.1762 32.3623 16.202 32.3526 16.221C32.3434 16.2496 32.2906 16.2844 32.2566 16.2843C31.7745 16.3533 31.3255 15.9522 31.4596 15.5396Z" fill="#221E29"/>
<path d="M35.0553 15.5399C35.189 15.953 34.7404 16.3535 34.2584 16.2847C34.2239 16.2844 34.1717 16.2505 34.1624 16.2215C34.1527 16.2023 34.1508 16.1767 34.1548 16.158C34.2583 15.8219 34.0659 15.5122 33.9087 15.2041C34.2273 15.4279 34.4918 15.8071 34.3853 16.1805L34.3831 16.1891C34.3841 16.1867 34.384 16.1747 34.3836 16.171C34.3828 16.1293 34.3316 16.0846 34.2856 16.0829C34.6724 16.1321 34.9876 15.8795 35.0553 15.5399Z" fill="#221E29"/>
<path d="M49.7829 12.2178C49.3798 12.3063 48.9617 12.3388 48.5496 12.376L48.5711 12.2705C48.9624 12.4107 49.3768 12.4719 49.7971 12.4947C49.8286 12.4962 49.8561 12.5119 49.8715 12.5337L50.0717 12.8212C50.5264 13.4931 50.7768 14.2958 50.7615 15.0785C50.742 15.9641 50.4552 16.8908 49.7876 17.5674C50.0715 17.2014 50.2494 16.7871 50.3747 16.3667C50.7183 15.2117 50.5531 13.9535 49.8894 12.9115L49.7061 12.629L49.7804 12.6679C49.348 12.6293 48.9111 12.5429 48.5203 12.3715C48.4588 12.3511 48.4751 12.2659 48.5418 12.2659C48.9097 12.2589 49.4217 12.2528 49.7829 12.2178Z" fill="#221E29"/>
<path d="M16.5207 12.2178C16.8802 12.2525 17.3964 12.2579 17.762 12.2658C17.8284 12.2671 17.8456 12.3503 17.7835 12.3713C17.3928 12.5428 16.9558 12.6291 16.5234 12.6678L16.5978 12.6288L16.4144 12.9114C15.7506 13.9535 15.5855 15.2116 15.9291 16.3666C16.0543 16.7871 16.2323 17.2013 16.5162 17.5672C15.8486 16.8906 15.5618 15.9638 15.5422 15.0783C15.5268 14.2952 15.7771 13.4934 16.232 12.821L16.4322 12.5335C16.4489 12.5097 16.4771 12.4961 16.5066 12.4946C16.9267 12.4716 17.3413 12.4106 17.7325 12.2703L17.754 12.3759C17.3419 12.3388 16.924 12.3063 16.5207 12.2178Z" fill="#221E29"/>
<path d="M41.6048 0.978121C42.8153 2.42736 43.7926 4.07423 44.1492 5.86046C44.3489 6.94578 44.3278 8.16475 43.5586 9.09198L43.5876 8.92612C43.6146 8.98423 43.6851 9.14014 43.711 9.19679C43.7435 9.25359 43.8298 9.39793 43.8635 9.45604C44.3906 10.2653 45.3022 10.8103 46.2943 11.124C46.8007 11.2805 47.3343 11.369 47.8651 11.4365C48.4799 11.5046 49.1028 11.5069 49.7284 11.4968C49.7351 11.4963 49.7411 11.5008 49.7413 11.5068C49.1321 11.5784 48.4789 11.5681 47.8556 11.5329C46.0047 11.4078 44.0252 10.6271 43.3752 8.99126C43.3727 8.98511 43.3741 8.97852 43.3782 8.97369C43.6185 8.68707 43.779 8.35491 43.8807 8.01163C44.1766 6.96803 43.9997 5.86807 43.6766 4.84438C43.4557 4.15708 43.1528 3.49117 42.7971 2.84881C42.442 2.20573 42.0307 1.58753 41.5856 0.989392C41.577 0.979145 41.597 0.966849 41.6048 0.978121Z" fill="#221E29"/>
<path d="M24.8759 1.03857C23.633 2.8046 22.5392 4.79211 22.501 6.90083C22.5055 7.57231 22.6416 8.26868 23.0953 8.8191C23.1342 8.86609 23.14 8.92567 23.1168 8.97588L23.0231 9.17702L22.976 9.27744L22.9188 9.37362C22.7668 9.64766 22.5529 9.9012 22.326 10.1293C21.3417 11.0681 19.8836 11.4664 18.4716 11.5367C17.8412 11.5491 17.1821 11.5428 16.5791 11.4378C17.1926 11.4517 17.8381 11.4961 18.4619 11.44C20.2987 11.3114 22.2635 10.5351 22.9039 8.91059L22.9071 8.92831C22.6647 8.64022 22.5057 8.30513 22.4075 7.95922C21.8177 5.71202 23.3806 2.75058 24.8759 1.03857Z" fill="#221E29"/>
<path d="M43.8131 21.7681C46.1162 17.5193 51.0725 17.1532 59.2205 9.99832C60.1825 9.15351 61.2655 11.1457 60.9284 11.71C54.0831 23.1724 46.8842 28.1982 46.8842 39.5746C44.3419 36.9431 41.9482 25.2088 43.8131 21.7681Z" fill="#BBA8A5"/>
<path d="M43.1547 26.4563C43.01 25.1501 42.955 23.8071 43.3871 22.5279C43.8977 20.907 45.1624 19.5307 46.7238 18.585C48.1223 17.6943 49.8363 16.611 51.2572 15.7287C51.5412 15.5593 52.3616 15.0654 52.644 14.9012L53.1134 14.6343C53.1249 14.6266 53.1395 14.6435 53.127 14.6509C51.9212 15.417 50.7352 16.2071 49.5448 16.9919L47.7563 18.1659C47.163 18.559 46.5407 18.9204 45.9819 19.352C44.252 20.6592 43.2833 22.5033 43.1699 24.4972C43.1464 24.8229 43.1417 25.1497 43.1481 25.4761C43.1537 25.8027 43.1754 26.1289 43.1781 26.4563C43.1781 26.4619 43.1729 26.4664 43.1666 26.4666C43.1601 26.4666 43.1547 26.462 43.1547 26.4563Z" fill="#221E29"/>
<path d="M66.787 6.59395C65.8995 7.21068 65.7803 7.13266 64.9853 7.68498C64.9838 7.68366 65.0093 8.23965 62.9221 9.37796C62.2261 10.0477 61.9701 10.453 60.5456 12.3444C59.8371 12.5511 58.4647 11.3264 58.7843 10.421C59.4535 9.71538 59.9859 9.07845 60.2145 8.35939C60.2145 8.35866 60.2145 8.35866 60.2145 8.35807C60.436 6.90092 59.6997 5.13139 59.2451 4.78649C58.5166 4.23286 59.8949 4.20372 60.2438 4.7357C60.5587 5.21614 60.6823 5.3233 61.2039 5.63511C61.4408 5.77681 61.6406 5.91837 61.7982 6.06812V6.06886C61.8152 6.0892 61.819 6.08789 61.799 6.06812C61.7999 6.06739 61.7999 6.06739 61.8005 6.06681C63.0115 5.00139 64.616 2.17742 64.9903 2.28575C65.2897 2.37314 65.2535 2.93835 65.0666 3.28748C64.5534 4.24647 64.0687 5.00622 63.5995 5.80858C64.9208 4.71681 66.6403 2.92283 66.9576 3.08751C67.1651 3.19452 67.1143 3.53751 66.9599 3.83029C66.9646 3.83161 66.9684 3.83365 66.9723 3.8357C67.2423 3.97799 67.0671 4.52358 66.7979 4.82792C66.0724 5.64857 65.421 6.28844 64.7766 6.9668C65.7821 6.44156 66.8449 5.82073 67.0294 5.95028C67.2216 6.08437 67.0271 6.42721 66.787 6.59395Z" fill="#68676D"/>
<path d="M62.2826 8.15298C62.4118 7.39278 62.4878 6.47625 61.6468 6.02113C61.3249 5.86156 60.9781 5.75016 60.6932 5.50584C60.5342 5.37204 60.4022 5.21204 60.3083 5.03725C60.2505 4.93463 60.2265 4.8203 60.1734 4.7253C59.9527 4.43355 59.4373 4.29126 59.0627 4.46107L59.0483 4.44511C59.4348 4.18278 60.1523 4.3362 60.3631 4.72061C60.5447 5.20926 60.9796 5.53029 61.5068 5.72645C61.7456 5.82833 61.9737 5.96242 62.1434 6.14585C62.4953 6.51197 62.5525 7.02037 62.4813 7.47871C62.447 7.71001 62.3838 7.9372 62.3046 8.15927L62.2826 8.15298Z" fill="#221E29"/>
<path d="M60.522 12.3615C60.8952 11.7638 61.2998 11.1852 61.7269 10.6178C62.0737 10.1712 62.4039 9.70627 62.8434 9.31907C63.2993 9.0446 63.7806 8.78607 64.2005 8.47222C64.4814 8.26039 64.7918 8.03818 64.932 7.73442C64.9455 7.6949 64.9719 7.65376 65.0025 7.62492C65.2128 7.44999 65.6254 7.25002 65.8653 7.10305L66.8343 6.54443L66.849 6.56024C66.5504 6.77529 66.247 6.98506 65.9384 7.18913C65.6764 7.37753 65.3461 7.53577 65.1166 7.74891C64.9895 8.11079 64.653 8.37238 64.3422 8.61744C63.9376 8.92075 63.5012 9.19069 63.0469 9.43311L62.9921 9.46927C62.5681 9.84241 62.2336 10.2893 61.8755 10.7114C61.4247 11.2614 60.9832 11.8175 60.5411 12.3732L60.522 12.3615Z" fill="#221E29"/>
<path d="M64.9641 7.49652C64.72 7.02412 64.4001 6.63063 63.9917 6.26993C63.6631 5.99194 63.3287 5.76899 62.9199 5.5642L62.9249 5.54443C63.7108 5.6977 64.3836 6.20172 64.7497 6.82416C64.872 7.0332 64.9569 7.2604 64.9869 7.49403L64.9641 7.49652Z" fill="#221E29"/>
<path d="M64.2476 6.40221C64.8075 5.93421 65.3723 5.47323 65.9026 4.98298C66.2942 4.61364 66.6895 4.23552 66.958 3.78611C67.0427 3.63621 67.1126 3.47357 67.1076 3.30273C67.1224 3.47328 67.0612 3.64177 66.9842 3.79694C66.7393 4.26231 66.3617 4.66195 65.9886 5.05105C65.4835 5.56751 64.9429 6.05483 64.4114 6.54596L64.2476 6.40221Z" fill="#221E29"/>
<path d="M65.5155 4.10205C64.9258 4.73518 64.1825 5.33551 63.5146 5.90614C63.8136 5.4251 64.1466 4.86297 64.4227 4.37448C64.6111 4.04744 64.7943 3.71719 64.9618 3.38196C65.0658 3.15697 65.189 2.93299 65.2115 2.6875C65.2489 2.93534 65.1614 3.18522 65.0845 3.42149C64.9176 3.89564 64.6877 4.34813 64.4392 4.79241C64.3168 5.01507 64.1823 5.23099 64.0469 5.44867L63.8746 5.32995C64.3883 4.92943 64.9815 4.47988 65.5155 4.10205Z" fill="#221E29"/>
<path d="M23.2638 21.7681C21.0142 17.9032 13.9827 15.7314 7.8564 9.99837C6.92535 9.12721 5.81141 11.1458 6.14849 11.7101C12.9938 23.1724 20.1927 27.4894 20.1927 39.5746C22.735 36.9432 25.2387 25.1613 23.2638 21.7681Z" fill="#BBA8A5"/>
<path d="M23.8992 26.4564C23.8699 25.8121 23.8944 25.1331 23.8169 24.4926C23.6247 22.155 22.4281 20.1366 20.2559 18.7575C18.3568 17.5502 16.2452 16.2251 14.3895 14.9583L13.9502 14.6509C15.1315 15.3194 16.4146 16.1735 17.6366 16.8965L19.4744 18.026C20.0828 18.4075 20.7108 18.7717 21.2574 19.2224C23.3006 20.8564 24.0473 23.0994 23.9549 25.4719C23.9481 25.8002 23.9261 26.1284 23.9224 26.4562C23.9224 26.4618 23.9171 26.4663 23.9107 26.4663C23.9044 26.4665 23.8994 26.4619 23.8992 26.4564Z" fill="#221E29"/>
<path d="M17.6468 28.6255C18.5033 30.2334 19.1661 31.9488 19.6111 33.6797C19.8425 34.5201 20.0087 35.4603 20.1287 36.3214C20.2354 37.1567 20.3099 37.9987 20.2924 38.8403C20.2852 39.0132 20.2751 39.1922 20.2346 39.3642C20.1895 39.5762 20.0598 40.13 20.009 40.3473C19.4007 42.8844 18.8256 45.4703 18.6824 48.063C18.6622 48.5307 18.6528 49.092 18.6543 49.5607C18.6547 49.5666 18.6493 49.5716 18.6427 49.5714C18.6365 49.5714 18.6315 49.5672 18.6312 49.5617C18.4436 46.452 19.0824 43.3439 19.7924 40.309C19.868 39.9218 20.028 39.385 20.0523 38.9994C20.1299 36.7815 19.7019 34.5611 19.0896 32.415C18.9511 31.9878 18.8275 31.5567 18.6673 31.1353C18.3753 30.2843 18.0072 29.4558 17.6256 28.6332C17.6194 28.6219 17.6413 28.6135 17.6468 28.6255Z" fill="#221E29"/>
<path d="M0.32155 6.59395C1.2091 7.21068 1.32829 7.13266 2.12331 7.68498C2.12481 7.68366 2.0993 8.23965 4.18647 9.37796C4.88247 10.0477 5.13854 10.453 6.56304 12.3444C7.27155 12.5511 8.64386 11.3264 8.32429 10.421C7.65513 9.71538 7.12267 9.07845 6.89412 8.35939C6.89412 8.35866 6.89412 8.35866 6.89412 8.35807C6.67256 6.90092 7.40891 5.13139 7.86352 4.78649C8.59202 4.23286 7.2137 4.20372 6.86478 4.7357C6.54987 5.21614 6.42634 5.3233 5.90471 5.63511C5.66782 5.77681 5.46794 5.91837 5.3104 6.06812V6.06886C5.2934 6.0892 5.28956 6.08789 5.30957 6.06812C5.30874 6.06739 5.30874 6.06739 5.30807 6.06681C4.09712 5.00139 2.49256 2.17742 2.11831 2.28575C1.8189 2.37314 1.85507 2.93835 2.04195 3.28748C2.55524 4.24647 3.03986 5.00622 3.50914 5.80858C2.18782 4.71681 0.468246 2.92283 0.15117 3.08751C-0.0563795 3.19452 -0.00553018 3.53751 0.14884 3.83029C0.144172 3.83161 0.140332 3.83365 0.136498 3.8357C-0.133567 3.97799 0.0414785 4.52358 0.310876 4.82792C1.03638 5.64857 1.68771 6.28844 2.33219 6.9668C1.32662 6.44156 0.263869 5.82073 0.0793247 5.95028C-0.113055 6.08437 0.0814924 6.42721 0.32155 6.59395Z" fill="#68676D"/>
<path d="M4.92 8.29441C4.48507 7.54651 4.37788 6.47685 5.24558 5.92424C5.34327 5.85573 5.45913 5.79849 5.56782 5.74521C6.02543 5.55593 6.40286 5.26022 6.61958 4.86088C6.64409 4.81286 6.68026 4.74172 6.70777 4.69502C6.93015 4.37326 7.49145 4.23185 7.88454 4.34764C7.95122 4.36784 8.01074 4.40473 8.06025 4.44484L8.04609 4.46094C7.70117 4.26742 7.1602 4.43635 6.90947 4.69136C6.84996 4.75957 6.82312 4.84009 6.78778 4.92177C6.59157 5.35713 6.18831 5.70187 5.71453 5.9074C4.91434 6.22931 4.65694 6.88425 4.77297 7.61634C4.80531 7.84397 4.86583 8.06853 4.94201 8.28841L4.92 8.29441Z" fill="#221E29"/>
<path d="M6.56743 12.3724C6.10815 11.819 5.66988 11.2582 5.21477 10.7121C4.86385 10.313 4.52626 9.86622 4.09716 9.54212C3.61438 9.28096 3.1586 8.98892 2.73483 8.6531C2.42643 8.39517 2.07385 8.08761 1.96832 7.72852C1.96999 7.73306 1.97466 7.73847 1.97699 7.74023C1.97483 7.73862 1.97349 7.73657 1.97249 7.73423C1.87313 7.64786 1.75494 7.58564 1.64074 7.50981C1.16546 7.21221 0.69618 6.90289 0.260742 6.56049L0.274255 6.54395C0.59033 6.74128 0.910905 6.9329 1.23548 7.11881C1.47121 7.25861 1.8708 7.45931 2.08535 7.61507C2.12652 7.64215 2.14537 7.69031 2.15754 7.73101C2.29941 8.04559 2.59964 8.28523 2.87921 8.51008C3.31414 8.85175 3.80176 9.13062 4.28287 9.41754C4.70981 9.76975 5.03323 10.2025 5.36581 10.6219C5.79891 11.1878 6.20051 11.7715 6.58743 12.362L6.56743 12.3724Z" fill="#221E29"/>
<path d="M2.27593 7.56181C2.11189 6.54324 3.26549 5.71673 4.33608 5.61279L4.34509 5.63153C3.63525 5.91084 2.92891 6.30023 2.54516 6.91345C2.42079 7.11517 2.33677 7.33637 2.29893 7.56444L2.27593 7.56181Z" fill="#221E29"/>
<path d="M2.69741 6.54562C1.99758 5.86111 -0.0545688 4.19346 0.00111123 3.30225C-0.00388997 3.47308 0.0659516 3.63572 0.150805 3.78562C0.419369 4.23518 0.814463 4.61315 1.20622 4.98249C1.73635 5.47274 2.30132 5.93372 2.86112 6.40172L2.69741 6.54562Z" fill="#221E29"/>
<path d="M1.59375 4.10205C2.12721 4.47958 2.72118 4.92973 3.23497 5.32995L3.0626 5.44867C2.92723 5.23099 2.79254 5.01507 2.67034 4.79241C2.42178 4.34813 2.19189 3.89564 2.02502 3.42149C1.94816 3.18537 1.86065 2.93534 1.89799 2.6875C1.9205 2.93285 2.04353 3.15697 2.14755 3.38196C2.31509 3.71719 2.49829 4.04744 2.68667 4.37448C2.96207 4.86209 3.29649 5.42613 3.59456 5.90614C2.92607 5.33493 2.18389 4.73562 1.59375 4.10205Z" fill="#221E29"/>
<path d="M36.7081 4.37488C36.6911 4.62169 37.059 5.17636 38.0307 5.37823C38.9396 5.56707 39.0725 4.95634 38.2553 4.45378C37.4273 3.9445 36.7326 4.01887 36.7081 4.37488Z" fill="#221E29"/>
<path d="M30.0888 4.34065C30.1164 4.58673 29.7727 5.15325 28.8103 5.38718C27.9102 5.60603 27.7512 5.00027 28.546 4.47079C29.3516 3.93442 30.0489 3.98566 30.0888 4.34065Z" fill="#221E29"/>
<mask id="mask3_417_483" style="mask-type:luminance" maskUnits="userSpaceOnUse" x="0" y="0" width="68" height="68">
<path d="M66.7874 6.59401C65.8999 7.21074 65.7802 7.13286 64.9854 7.68519C64.9838 7.68519 65.007 8.24088 62.9224 9.37817C62.2262 10.0477 61.9708 10.4529 60.546 12.3446C53.8167 23.3623 46.8845 28.4107 46.8845 39.5748L46.8837 39.5741C46.9245 40.037 46.9655 40.5039 47.0064 40.9749C47.0072 40.9782 47.0072 40.981 47.0072 40.9844C47.4557 45.8755 48.8518 49.1069 47.8076 53.1753C47.0542 56.1105 44.005 61.3372 39.7446 61.716C39.145 61.7696 38.5892 61.7662 38.0884 61.7181C38.1648 62.5971 38.3408 63.6902 38.5483 64.6615C39.9307 64.3592 41.8948 64.16 42.2344 64.5104C42.6148 64.9022 42.9206 66.0156 42.9529 66.7191C42.8079 67.016 40.9339 67.0898 39.2762 67.0336H39.2647C37.897 67.0214 36.3141 66.8364 35.3926 66.6954C35.6527 62.5769 35.3586 61.0161 35.3231 60.0835C35.3222 60.0699 35.3222 60.0564 35.3222 60.0435C35.1555 59.2554 35.2836 58.5905 35.6541 57.8905C34.3367 58.0592 32.9915 58.0904 31.667 57.984C31.9409 58.6807 31.9294 59.3706 31.5613 60.2103C31.5613 60.211 31.5613 60.211 31.5613 60.211C31.512 61.1551 31.2449 62.7457 31.4965 66.7294C30.5749 66.8703 28.9921 67.0554 27.6244 67.0675H27.6129C25.955 67.1237 24.0812 67.05 23.936 66.7531C23.9684 66.0497 24.2741 64.9361 24.6545 64.5444C24.9941 64.1939 26.9582 64.3933 28.3406 64.6955C28.5513 63.7087 28.7295 62.5965 28.8028 61.71C28.3097 61.7636 27.7571 61.7696 27.152 61.7162C22.8918 61.3373 19.8424 56.1107 19.089 53.1754C19.0712 53.1069 19.0543 53.0386 19.038 52.9701C15.0301 51.0941 11.4892 47.881 11.1133 45.0272C10.9666 43.9164 12.0989 44.5053 12.0548 44.4151C10.2472 40.7601 9.71628 33.8603 16.6894 29.308C17.0197 29.0925 17.3516 28.898 17.6835 28.7253C15.0386 23.4926 10.6703 19.1632 6.40382 12.1339C6.40382 12.1332 6.40298 12.1319 6.40232 12.1313C5.11734 10.4215 4.85495 10.0223 4.18579 9.37846C2.10113 8.24117 2.1243 7.68548 2.1228 7.68548C1.32794 7.13316 1.20891 7.21104 0.321364 6.5943C0.0813063 6.42757 -0.113237 6.08473 0.0789758 5.95049C0.26352 5.82108 1.32627 6.44177 2.33184 6.96701C1.68736 6.28865 1.03603 5.64878 0.310527 4.82813C0.0411296 4.52379 -0.134072 3.9782 0.136159 3.83591C0.139993 3.83386 0.143823 3.83181 0.148491 3.8305C-0.00587913 3.53772 -0.0568952 3.19473 0.150821 3.08772C0.468064 2.92303 2.18748 4.71702 3.50879 5.80878C3.03951 5.00643 2.5549 4.24668 2.04161 3.28769C1.8549 2.9387 1.81856 2.37349 2.11797 2.28595C2.49222 2.17748 4.09677 5.0016 5.30773 6.06701C5.30856 6.06775 5.30855 6.06774 5.30922 6.06833C5.28922 6.08795 5.29305 6.08941 5.31006 6.06906V6.06833C5.46759 5.91857 5.66747 5.77687 5.90437 5.63531C6.42616 5.32351 6.54952 5.2165 6.86443 4.73591C7.21335 4.20393 8.59167 4.23306 7.86317 4.7867C7.40856 5.13159 6.67238 6.90113 6.89377 8.35828C6.89377 8.35901 6.89377 8.35901 6.89377 8.3596C7.12216 9.07866 7.65479 9.71574 8.32395 10.4212C8.32478 10.4238 8.32628 10.4273 8.32712 10.43C10.7845 12.6434 13.363 14.3126 15.7024 15.7698C15.7001 15.761 15.6977 15.7522 15.6962 15.7427C15.6815 15.6695 15.6669 15.5754 15.6554 15.4641C15.6507 15.42 15.6469 15.3719 15.6445 15.3218C15.6437 15.3043 15.643 15.286 15.6422 15.2677C15.6345 15.0602 15.6422 14.8143 15.6754 14.5479C15.6784 14.5228 15.6824 14.4977 15.6862 14.4726C15.7749 13.8898 16.0041 13.208 16.5144 12.5817C16.6703 12.5606 16.8246 12.533 16.9775 12.499C17.064 12.48 17.1497 12.4583 17.2352 12.4353C17.2376 12.4346 17.2391 12.434 17.2414 12.4333C17.2893 12.4204 17.3363 12.4068 17.3834 12.392C17.4745 12.3642 17.564 12.3345 17.6528 12.3018C17.6558 12.3011 17.6598 12.2998 17.6628 12.2985C17.6235 12.2944 17.6012 12.2923 17.5927 12.2923C17.2337 12.257 16.881 12.257 16.5206 12.2178C16.5206 12.2178 16.5784 11.5774 16.5908 11.4392C21.0702 11.7801 22.2024 10.1508 23.0553 8.92553C20.7916 6.09541 25.3807 -0.271154 26.0537 0.0094719C26.0845 0.0128388 26.1154 0.0236716 26.1455 0.0419701C29.2266 1.9071 31.3598 3.91306 31.5952 5.48673C31.9749 5.4677 32.3677 5.4576 32.7736 5.4576C33.5308 5.4576 34.2385 5.48 34.9 5.52333C35.1069 3.94424 37.25 1.9213 40.3543 0.0419701C40.3845 0.0236716 40.4153 0.0128388 40.4461 0.0094719C41.1215 -0.27174 45.7422 6.14284 43.419 8.95671C44.3204 10.1834 45.1163 11.7265 49.7292 11.5069C50.0078 11.4561 50.0094 11.7902 49.7817 12.2043C49.7262 12.2144 49.6722 12.2234 49.6188 12.2314C49.2214 12.2925 48.8903 12.3074 48.6394 12.3371C49.0114 12.4577 49.3958 12.5479 49.787 12.6054C50.2108 13.149 51.1724 14.5708 50.4175 16.3234C52.7368 14.9368 55.5839 13.1598 58.9991 10.1921C58.9999 10.1914 58.9999 10.1914 59.0006 10.1908C59.567 9.57476 60.0117 8.99931 60.2145 8.3596C60.2145 8.35887 60.2145 8.35887 60.2145 8.35828C60.4361 6.90113 59.6998 5.13159 59.2451 4.7867C58.5166 4.23306 59.895 4.20393 60.2439 4.73591C60.5588 5.21635 60.6823 5.32351 61.2039 5.63531C61.4408 5.77702 61.6407 5.91857 61.7982 6.06833V6.06906C61.8153 6.08941 61.8191 6.08809 61.7991 6.06833C61.7999 6.0676 61.7999 6.0676 61.8006 6.06701C63.0115 5.0016 64.6161 2.17763 64.9903 2.28595C65.2897 2.37335 65.2536 2.93855 65.0667 3.28769C64.5534 4.24668 64.0688 5.00643 63.5995 5.80878C64.9208 4.71702 66.6404 2.92303 66.9576 3.08772C67.1652 3.19473 67.1144 3.53772 66.96 3.8305C66.9647 3.83181 66.9685 3.83386 66.9723 3.83591C67.2424 3.9782 67.0672 4.52379 66.7979 4.82813C66.0724 5.64878 65.4211 6.28865 64.7766 6.96701C65.7822 6.44177 66.845 5.82093 67.0295 5.95049C67.222 6.08443 67.0275 6.42727 66.7874 6.59401Z" fill="white"/>
</mask>
<g mask="url(#mask3_417_483)">
<g opacity="0.251">
<path d="M31.6296 20.0584C31.8505 19.8342 32.0295 20.2549 33.3145 20.2549C34.4978 20.2549 34.5958 19.7898 34.8734 20.0277C35.309 20.4008 34.6885 20.8748 33.2255 20.8748C31.7038 20.8748 31.24 20.4543 31.6296 20.0584Z" fill="url(#paint0_linear_417_483)"/>
<path d="M23.6744 66.2051C25.3203 67.2309 31.5137 66.8374 30.1029 65.4033C29.8235 65.1194 28.9256 64.6237 27.8112 64.4735C27.9709 63.7975 28.2463 62.9351 28.406 62.2591C24.099 62.0129 19.8628 61.6167 19.8628 55.272C22.2924 61.0449 28.6742 60.7549 26.5476 55.7016C28.2661 57.2107 30.6029 57.9964 33.0064 58.3717C32.9868 61.368 32.9671 64.3643 32.9474 67.3606C29.8372 67.9537 26.5736 67.9173 23.4815 67.2549C23.4325 66.7686 23.6147 66.5534 23.6744 66.2051Z" fill="url(#paint1_linear_417_483)"/>
<path d="M43.052 66.3184C41.4061 67.3443 35.2126 66.9506 36.6234 65.5166C36.9028 65.2326 37.8007 64.737 38.9151 64.5868C38.7554 63.9108 38.48 63.0484 38.3203 62.3724C42.6274 62.1261 46.8635 61.73 46.8635 55.3853C44.4339 61.1582 38.0521 60.8682 40.1786 55.8149C38.46 57.324 36.1233 58.1097 33.7197 58.485C33.7394 61.4813 33.7591 64.4776 33.7787 67.4738C36.889 68.067 40.1526 68.0304 43.2447 67.368C43.294 66.8818 43.1118 66.6667 43.052 66.3184Z" fill="url(#paint2_linear_417_483)"/>
<path d="M10.5879 39.8444C10.95 41.1229 11.7664 44.4345 13.8492 45.157C17.82 46.5342 20.2427 32.412 14.0998 30.6455C14.3817 30.4375 16.6761 27.5864 16.958 27.3784C20.0132 33.1468 21.338 36.9362 19.1668 43.2807C18.2839 45.8607 18.3755 51.1396 19.5022 54.4327C16.2945 54.8092 13.0178 52.9208 11.2746 50.5265C9.53151 48.1323 9.52617 43.359 10.5879 39.8444Z" fill="url(#paint3_linear_417_483)"/>
<path d="M23.911 26.4563C25.4486 20.2448 21.5313 16.3468 17.3467 15.6948C16.4321 14.792 16.3621 13.5777 16.5153 12.5812C16.9954 12.499 17.3558 12.4464 17.8358 12.3641C17.4375 11.837 17.0391 11.3099 16.6408 10.7827C15.7123 12.072 14.7835 13.361 13.855 14.6503C16.7542 16.3395 18.864 17.7509 20.6643 19.0238C23.4218 20.9738 24.0441 22.8883 23.911 26.4563Z" fill="url(#paint4_linear_417_483)"/>
<path d="M43.1663 26.456C41.0172 20.2823 43.9426 18.1969 49.1134 15.7622C50.0279 14.8594 50.0979 13.6451 49.9447 12.6486C49.4646 12.5664 49.1043 12.5138 48.6242 12.4315C49.0225 11.9044 49.4209 11.3772 49.8192 10.8501C50.7477 12.1393 52.1916 13.353 53.1201 14.6423C49.8185 16.7135 47.6288 18.0512 45.8285 19.3241C43.0711 21.274 43.1663 23.8195 43.1663 26.456Z" fill="url(#paint5_linear_417_483)"/>
<path d="M31.5153 15.8099C31.7262 15.8997 31.9759 15.9166 32.2 15.8562C32.228 15.6937 32.2805 15.5344 32.3557 15.3838C32.2575 15.5038 32.1025 15.5832 31.9381 15.6149C31.7737 15.6467 31.6008 15.6334 31.439 15.5931C31.4811 15.6745 31.5237 15.7559 31.5153 15.8099Z" fill="url(#paint6_linear_417_483)"/>
<path d="M34.327 15.9051C34.5461 15.9269 34.7715 15.8973 34.9708 15.8147C35.0035 15.7609 35.0238 15.701 35.03 15.6402C34.7526 15.6464 34.4739 15.6029 34.2158 15.5132C34.2888 15.635 34.3357 15.7689 34.327 15.9051Z" fill="url(#paint7_linear_417_483)"/>
<path d="M32.2701 18.2238C31.781 17.5759 32.2918 17.1599 33.1516 17.1599C34.5195 17.1599 34.4559 17.7681 34.0368 18.2453C34.513 17.9431 34.8435 17.4901 35.0591 17.0101C35.2748 16.5301 35.3847 16.0195 35.4934 15.5124C35.3447 15.5376 35.196 15.5628 35.0473 15.588C35.0451 15.7569 34.9564 15.9235 34.8102 16.0333C34.664 16.1431 34.4628 16.1942 34.2724 16.1697C34.3032 15.89 34.2492 15.4966 34.044 15.281C33.8388 15.0654 33.4819 15.0336 33.1621 15.0443C32.8422 15.0548 32.5302 15.2148 32.3764 15.4613C32.2324 15.6923 32.2321 15.9712 32.2682 16.2327C32.0655 16.2517 31.8545 16.1861 31.7105 16.0593C31.5664 15.9326 31.4922 15.7472 31.5144 15.5692C31.381 15.6366 31.1205 15.5012 31.0813 15.5209C31.0416 15.5408 31.0626 17.6642 32.2701 18.2238Z" fill="url(#paint8_linear_417_483)"/>
<path d="M37.9932 8.07576C39.0616 8.12992 39.8619 9.03182 40.0318 9.70242C40.7295 9.67798 41.6035 9.7093 42.0373 10.0789C41.5387 9.32577 40.9495 8.8137 40.1969 8.45359C39.4442 8.09347 38.6823 7.95294 37.9932 8.07576Z" fill="url(#paint9_linear_417_483)"/>
<path d="M36.8115 12.2167C38.0958 11.5036 39.2684 11.3862 40.788 11.3862C42.1503 11.3862 42.5032 10.8954 42.5871 10.6611C42.2173 10.9219 41.7057 10.9743 41.1194 11.0047C40.0376 11.0608 39.2143 11.1783 38.5528 11.3593C37.8911 11.5402 37.2438 11.8735 36.8115 12.2167Z" fill="url(#paint10_linear_417_483)"/>
<path d="M28.571 8.07576C27.5026 8.12992 26.7022 9.03182 26.5323 9.70242C25.8347 9.67798 24.9606 9.7093 24.5269 10.0789C25.0255 9.32577 25.6146 8.8137 26.3673 8.45359C27.12 8.09347 27.8818 7.95294 28.571 8.07576Z" fill="url(#paint11_linear_417_483)"/>
<path d="M29.7526 12.2167C28.4683 11.5036 27.2957 11.3862 25.7761 11.3862C24.4138 11.3862 24.0609 10.8954 23.9771 10.6611C24.3468 10.9219 24.8584 10.9743 25.4447 11.0047C26.5265 11.0608 27.3499 11.1783 28.0114 11.3593C28.673 11.5402 29.3203 11.8735 29.7526 12.2167Z" fill="url(#paint12_linear_417_483)"/>
<path d="M26.054 0.00919977C25.2486 0.967896 25.6032 4.85772 27.0255 5.43303C28.389 5.98447 31.3319 5.64002 31.0935 3.58327C31.1082 3.75439 31.7405 5.32119 31.7397 5.47972C27.7385 5.82828 25.5578 6.59725 24.228 7.66618C23.6426 8.13682 22.822 9.00797 22.6216 9.68238C22.1844 8.64039 21.7824 7.57893 21.6047 6.47956C21.427 5.38003 21.4827 4.23308 21.9392 3.19739C22.6692 1.54159 24.3444 0.33506 26.1403 -0.480469C26.1208 -0.299094 26.2183 -0.186668 26.054 0.00919977Z" fill="url(#paint13_linear_417_483)"/>
<path d="M40.3942 0.00919977C41.1996 0.967896 40.845 4.85772 39.4226 5.43303C38.059 5.98447 35.1163 5.64002 35.3547 3.58327C35.34 3.75439 34.7077 5.32119 34.7085 5.47972C38.7096 5.82828 40.8903 6.59725 42.2201 7.66618C42.8056 8.13682 43.6261 9.00797 43.8265 9.68238C44.2638 8.64039 44.6657 7.57893 44.8434 6.47956C45.0211 5.38018 44.9655 4.23308 44.509 3.19739C43.779 1.54159 42.1038 0.33506 40.3077 -0.480469C40.3273 -0.299094 40.2297 -0.186668 40.3942 0.00919977Z" fill="url(#paint14_linear_417_483)"/>
<path d="M18.8668 45.0637C20.2023 41.0793 22.0305 38.0022 21.5533 35.0447C21.1142 32.3241 18.529 28.8033 14.9233 24.1938C19.1815 30.13 19.5229 36.755 18.8668 45.0637Z" fill="url(#paint15_linear_417_483)"/>
<path d="M47.8605 46.6851C46.525 42.7007 44.9983 38.731 45.4756 35.7735C45.9147 33.0529 47.651 30.413 51.2565 25.8037C46.9983 31.7399 47.2044 38.3763 47.8605 46.6851Z" fill="url(#paint16_linear_417_483)"/>
<path d="M12.0579 20.2379C10.3303 17.2649 8.60275 14.2918 6.87517 11.3188C6.33971 10.3973 5.85992 8.99048 4.74982 8.64442C4.36823 8.52555 2.74952 7.9782 2.93673 7.32736C3.12394 6.67637 3.33366 6.34671 4.1852 5.68211C3.60289 4.99042 3.06559 4.56912 2.67166 3.7817C2.27773 2.99413 2.08736 2.0997 2.33125 1.2666C1.16813 1.28783 0.0932086 1.91056 -0.588621 2.73824C-1.27045 3.56592 -1.60386 4.57746 -1.78557 5.58652C-1.90377 6.24351 -1.95928 6.93475 -1.69288 7.55734C-1.34513 8.37023 -0.515931 8.93134 0.216411 9.51484C2.43178 11.2803 4.01065 13.5673 5.99163 15.5358C7.74188 17.275 9.79537 18.7552 12.0579 20.2379Z" fill="url(#paint17_linear_417_483)"/>
<path d="M4.57663 5.25508C4.62814 5.51536 4.88471 5.73625 4.85787 5.99946C4.8422 6.15302 4.73167 6.28404 4.64598 6.41872C4.4476 6.73038 4.37158 7.10088 4.43376 7.45368C4.49595 7.80662 4.69582 8.13951 4.99223 8.38398C4.75584 8.01156 4.81819 7.53244 5.05774 7.16149C5.2973 6.79054 5.69024 6.51387 6.10634 6.29399C6.28704 6.1984 6.48359 6.1034 6.58411 5.94061C6.66813 5.80462 6.67113 5.64315 6.70347 5.49105C6.76849 5.18671 6.96287 4.90492 7.2401 4.71344C7.51733 4.52196 7.87476 4.42227 8.22701 4.43838C7.76273 4.12599 7.08807 4.1172 6.56611 4.34923C6.04432 4.58111 5.6694 5.02232 5.46852 5.50481C5.21429 5.39956 4.96006 5.29446 4.57663 5.25508Z" fill="url(#paint18_linear_417_483)"/>
<path d="M55.2417 20.1324C56.9693 17.1595 58.6969 14.1863 60.4243 11.2133C60.9597 10.2918 61.4395 8.88501 62.5496 8.53895C62.9312 8.41993 64.5499 7.87273 64.3627 7.22189C64.1755 6.57091 63.9658 6.24124 63.1142 5.57664C63.6966 4.88495 64.2339 4.46365 64.6278 3.67623C65.0217 2.88866 65.2121 1.99423 64.9682 1.16113C66.1312 1.18236 67.2062 1.80509 67.8881 2.63277C68.5699 3.46045 68.9033 4.47214 69.0849 5.48105C69.203 6.13804 69.2586 6.82928 68.9922 7.45187C68.6444 8.26476 67.8152 8.82587 67.0829 9.40937C64.8675 11.1748 63.2886 13.4618 61.3077 15.4303C59.5576 17.1696 57.5041 18.6495 55.2417 20.1324Z" fill="url(#paint19_linear_417_483)"/>
<path d="M62.8754 4.86046C62.7034 5.25043 62.4415 5.73308 62.4415 5.89381C62.4415 5.94066 62.6642 6.21235 62.7499 6.34688C63.1091 6.91106 63.0406 7.49998 62.2936 8.15595C62.5617 6.99319 61.7983 6.43354 61.174 6.10359C60.9933 6.00799 60.4495 5.74362 60.3488 5.58069C60.2563 5.43079 60.1331 4.80439 59.905 4.65859C59.62 4.47619 59.4077 4.43681 59.0557 4.45291C59.5199 4.14052 60.2115 4.01155 60.7334 4.24358C61.2552 4.47546 61.6301 4.91667 61.831 5.39917C62.0849 5.29391 62.4297 5.16011 62.8754 4.86046Z" fill="url(#paint20_linear_417_483)"/>
</g>
</g>
<defs>
<linearGradient id="paint0_linear_417_483" x1="33.2544" y1="20.744" x2="33.2544" y2="19.9742" gradientUnits="userSpaceOnUse">
<stop stop-color="#564E82"/>
<stop offset="1" stop-color="#59396E"/>
</linearGradient>
<linearGradient id="paint1_linear_417_483" x1="26.4347" y1="65.9906" x2="26.4347" y2="55.4665" gradientUnits="userSpaceOnUse">
<stop stop-color="#564E82"/>
<stop offset="1" stop-color="#59396E"/>
</linearGradient>
<linearGradient id="paint2_linear_417_483" x1="40.2916" y1="66.1038" x2="40.2916" y2="55.5798" gradientUnits="userSpaceOnUse">
<stop stop-color="#564E82"/>
<stop offset="1" stop-color="#59396E"/>
</linearGradient>
<linearGradient id="paint3_linear_417_483" x1="15.0508" y1="50.6034" x2="15.0508" y2="27.7998" gradientUnits="userSpaceOnUse">
<stop stop-color="#564E82"/>
<stop offset="1" stop-color="#59396E"/>
</linearGradient>
<linearGradient id="paint4_linear_417_483" x1="19.0536" y1="24.2141" x2="19.0536" y2="11.0265" gradientUnits="userSpaceOnUse">
<stop stop-color="#564E82"/>
<stop offset="1" stop-color="#59396E"/>
</linearGradient>
<linearGradient id="paint5_linear_417_483" x1="47.787" y1="24.2234" x2="47.787" y2="11.0929" gradientUnits="userSpaceOnUse">
<stop stop-color="#564E82"/>
<stop offset="1" stop-color="#59396E"/>
</linearGradient>
<linearGradient id="paint6_linear_417_483" x1="31.8972" y1="15.8192" x2="31.8972" y2="15.3917" gradientUnits="userSpaceOnUse">
<stop stop-color="#564E82"/>
<stop offset="1" stop-color="#59396E"/>
</linearGradient>
<linearGradient id="paint7_linear_417_483" x1="34.6229" y1="15.8549" x2="34.6229" y2="15.5193" gradientUnits="userSpaceOnUse">
<stop stop-color="#564E82"/>
<stop offset="1" stop-color="#59396E"/>
</linearGradient>
<linearGradient id="paint8_linear_417_483" x1="33.2824" y1="17.7872" x2="33.2824" y2="15.0924" gradientUnits="userSpaceOnUse">
<stop stop-color="#564E82"/>
<stop offset="1" stop-color="#59396E"/>
</linearGradient>
<linearGradient id="paint9_linear_417_483" x1="40.0152" y1="9.78616" x2="40.0152" y2="8.06408" gradientUnits="userSpaceOnUse">
<stop stop-color="#564E82"/>
<stop offset="1" stop-color="#59396E"/>
</linearGradient>
<linearGradient id="paint10_linear_417_483" x1="39.6993" y1="11.9941" x2="39.6993" y2="10.6853" gradientUnits="userSpaceOnUse">
<stop stop-color="#564E82"/>
<stop offset="1" stop-color="#59396E"/>
</linearGradient>
<linearGradient id="paint11_linear_417_483" x1="26.5489" y1="9.78616" x2="26.5489" y2="8.06408" gradientUnits="userSpaceOnUse">
<stop stop-color="#564E82"/>
<stop offset="1" stop-color="#59396E"/>
</linearGradient>
<linearGradient id="paint12_linear_417_483" x1="26.8648" y1="11.9941" x2="26.8648" y2="10.6853" gradientUnits="userSpaceOnUse">
<stop stop-color="#564E82"/>
<stop offset="1" stop-color="#59396E"/>
</linearGradient>
<linearGradient id="paint13_linear_417_483" x1="26.6253" y1="8.22859" x2="26.6253" y2="-0.322399" gradientUnits="userSpaceOnUse">
<stop stop-color="#564E82"/>
<stop offset="1" stop-color="#59396E"/>
</linearGradient>
<linearGradient id="paint14_linear_417_483" x1="39.8229" y1="8.22859" x2="39.8229" y2="-0.322399" gradientUnits="userSpaceOnUse">
<stop stop-color="#564E82"/>
<stop offset="1" stop-color="#59396E"/>
</linearGradient>
<linearGradient id="paint15_linear_417_483" x1="18.277" y1="42.078" x2="18.277" y2="24.5184" gradientUnits="userSpaceOnUse">
<stop stop-color="#564E82"/>
<stop offset="1" stop-color="#59396E"/>
</linearGradient>
<linearGradient id="paint16_linear_417_483" x1="48.3215" y1="43.6977" x2="48.3215" y2="26.1284" gradientUnits="userSpaceOnUse">
<stop stop-color="#564E82"/>
<stop offset="1" stop-color="#59396E"/>
</linearGradient>
<linearGradient id="paint17_linear_417_483" x1="5.08709" y1="17.5239" x2="5.08709" y2="1.56153" gradientUnits="userSpaceOnUse">
<stop stop-color="#564E82"/>
<stop offset="1" stop-color="#59396E"/>
</linearGradient>
<linearGradient id="paint18_linear_417_483" x1="6.31967" y1="7.78365" x2="6.31967" y2="4.25323" gradientUnits="userSpaceOnUse">
<stop stop-color="#564E82"/>
<stop offset="1" stop-color="#59396E"/>
</linearGradient>
<linearGradient id="paint19_linear_417_483" x1="62.2124" y1="17.4183" x2="62.2124" y2="1.456" gradientUnits="userSpaceOnUse">
<stop stop-color="#564E82"/>
<stop offset="1" stop-color="#59396E"/>
</linearGradient>
<linearGradient id="paint20_linear_417_483" x1="61.0079" y1="7.57918" x2="61.0079" y2="4.18761" gradientUnits="userSpaceOnUse">
<stop stop-color="#564E82"/>
<stop offset="1" stop-color="#59396E"/>
</linearGradient>
</defs>
</svg>
