<svg width="146" height="478" viewBox="0 0 146 478" fill="none" xmlns="http://www.w3.org/2000/svg">
<path d="M47 3L3 47" stroke="#667BC6" stroke-width="6" stroke-linecap="round"/>
<path d="M71.6907 172.999C71.6594 172.564 71.7865 172.131 72.0486 171.782L99.1315 135.671C100.132 134.338 102.25 134.947 102.388 136.608L116.36 303.79L116.361 303.801L116.363 303.827C116.366 303.859 116.369 303.886 116.372 303.914L118.173 303.711L116.372 303.914C116.502 305.07 122.491 358.46 120.944 392.742C120.875 394.268 120.811 395.739 120.748 397.163C120.048 413.089 119.602 423.236 116.391 439.847C114.134 451.527 109.036 468.082 107.056 474.333C106.825 475.06 106.149 475.558 105.356 475.558H95.0616C94.1107 475.558 93.3214 474.824 93.2534 473.875L71.6907 172.999Z" fill="#3AA6D9" stroke="#3AA6D9" stroke-width="3.62565"/>
<path d="M141.253 83.1764L132.935 107.77C132.696 108.475 132.064 108.97 131.309 109.032C123.955 109.632 100.99 111.909 86.5526 118.039C72.7135 123.916 56.5022 137.66 48.942 144.462C47.863 145.432 46.2914 144.876 45.9937 143.65C45.1218 140.06 44.0946 135.296 43.5167 130.768C42.973 126.507 42.8725 122.759 43.4745 120.373C43.5854 120.304 43.7106 120.225 43.849 120.138C44.4583 119.755 45.325 119.207 46.3571 118.542C48.4193 117.214 51.1507 115.417 53.8115 113.552C56.4572 111.698 59.0911 109.736 60.926 108.083C61.8243 107.273 62.6388 106.444 63.1485 105.673C63.3949 105.301 63.6797 104.782 63.7656 104.178C63.8675 103.462 63.675 102.622 62.9625 102.023C61.3053 100.628 60.2252 99.9746 58.175 98.7348C57.0824 98.0741 55.7144 97.2468 53.8368 96.052C48.397 92.5903 41.9975 86.8897 40.4434 78.0483C38.8388 68.9201 40.1023 60.2088 46.4844 49.4471C52.8187 38.7659 62.1247 32.9596 68.5002 30.2031C74.8479 27.4586 85.4492 25.4417 93.3902 25.4417C99.822 25.4417 109.429 26.2344 115.132 27.5532C117.208 28.0332 118.862 29.1675 119.582 30.7656C121.142 34.2273 120.959 39.0148 119.918 43.9337C118.917 48.6656 117.193 53.1951 115.934 56.1385C115.918 56.1345 115.904 56.1294 115.892 56.1237C115.887 56.1214 115.883 56.1194 115.88 56.1178C113.173 52.222 107.157 46.7095 95.1627 46.7095C86.3518 46.7095 78.6338 48.9098 73.1921 52.7786C67.7131 56.6739 64.5068 62.3143 65.0823 68.9326C65.6552 75.5213 70.1871 81.5839 76.5987 85.7357C83.0456 89.9104 91.5999 92.3073 100.672 91.4628C112.62 90.3507 129.242 84.4487 138.69 80.7801C140.225 80.1842 141.754 81.6973 141.253 83.1764Z" fill="#3AA6D9" stroke="#3AA6D9" stroke-width="3.62565"/>
</svg>
