<svg width="62" height="78" viewBox="0 0 62 78" fill="none" xmlns="http://www.w3.org/2000/svg">
<g filter="url(#filter0_di_420_488)">
<path fill-rule="evenodd" clip-rule="evenodd" d="M32.0268 62.0508C43.4799 61.7759 52.5448 58.1646 52.5448 53.7501C52.5448 49.1565 42.7292 45.4326 30.6212 45.4326C18.5131 45.4326 8.69751 49.1565 8.69751 53.7501C8.69751 58.0112 17.1433 61.5239 28.0304 62.0101L30.0173 58.4229L32.0268 62.0508Z" fill="url(#paint0_radial_420_488)"/>
</g>
<g filter="url(#filter1_ii_420_488)">
<path d="M13.9322 44.1345C13.0854 42.6362 13.8853 40.8916 15.4726 40.2264C17.3609 39.4351 19.5151 40.4807 20.0615 42.4539L22.5985 51.6147C22.646 51.786 22.6476 51.9668 22.6033 52.139C22.3998 52.9291 21.3929 53.1729 20.849 52.5647C19.9664 51.5778 18.6429 50.1082 16.9328 48.2385C15.5539 46.7309 14.5892 45.2969 13.9322 44.1345Z" fill="#357A56"/>
<path d="M17.9425 54.494C17.5727 53.7544 19.1972 52.4689 20.0557 51.9186C21.5455 50.73 22.6971 51.9186 23.3574 53.1072C24.0178 54.2959 24.2159 55.0223 23.3574 55.2864C22.6707 55.4977 22.1468 54.45 21.9707 53.8997C19.9896 57.0033 18.9331 57.0033 18.867 56.1449C18.8142 55.4581 19.9896 53.8336 20.584 53.1072C19.8576 53.8777 18.3123 55.2336 17.9425 54.494Z" fill="#357A56"/>
</g>
<g filter="url(#filter2_ii_420_488)">
<path d="M47.568 43.5524C48.4018 41.953 47.5992 40.075 46.0196 39.3576C44.1619 38.5139 42.0593 39.6062 41.5264 41.6918L39.0024 51.5693C38.9562 51.7503 38.9547 51.9418 38.9982 52.1248C39.1987 52.9688 40.1916 53.238 40.7234 52.5935C41.5955 51.5365 42.9065 49.9588 44.6019 47.9498C45.9653 46.3342 46.9189 44.7977 47.568 43.5524Z" fill="#357A56"/>
<path d="M43.604 54.6497C43.9694 53.8576 42.3642 52.4809 41.5159 51.8915C40.0438 50.6186 38.9058 51.8915 38.2533 53.1645C37.6008 54.4375 37.405 55.2154 38.2533 55.4983C38.9319 55.7246 39.4496 54.6025 39.6236 54.0132C41.5812 57.3371 42.6252 57.3371 42.6905 56.4177C42.7427 55.6822 41.5812 53.9425 40.9939 53.1645C41.7117 53.9896 43.2386 55.4417 43.604 54.6497Z" fill="#357A56"/>
</g>
<g filter="url(#filter3_dii_420_488)">
<path d="M43.4025 43.8784C43.4412 44.609 43.3156 45.3367 43.0585 46.0217C40.8942 51.789 37.7426 55.7336 30.7372 55.7336C24.133 55.7336 20.4566 51.2338 18.7504 46.6667C18.3387 45.5648 18.1859 44.3845 18.2795 43.2119C18.9118 35.2936 23.6298 25.3574 30.7372 25.3574C38.0455 25.3574 42.9779 35.8634 43.4025 43.8784Z" fill="url(#paint1_linear_420_488)"/>
</g>
<g filter="url(#filter4_ii_420_488)">
<path d="M40.9223 46.1032C40.9223 53.3723 36.6961 55.7338 30.7529 55.7338C24.8098 55.7338 20.7156 53.3723 20.7156 46.1032C20.7156 38.8341 24.6259 28.5273 30.7529 28.5273C36.8799 28.5273 40.9223 38.8341 40.9223 46.1032Z" fill="#D5E690"/>
</g>
<mask id="mask0_420_488" style="mask-type:alpha" maskUnits="userSpaceOnUse" x="18" y="25" width="26" height="31">
<path d="M43.0618 43.8826C43.1001 44.6133 42.976 45.3409 42.7221 46.026C40.585 51.7937 37.4729 55.7385 30.5554 55.7385C24.0341 55.7385 20.4038 51.2385 18.719 46.6711C18.3125 45.5691 18.1616 44.3887 18.254 43.216C18.8784 35.2972 23.5372 25.3604 30.5554 25.3604C37.772 25.3604 42.6426 35.867 43.0618 43.8826Z" fill="url(#paint2_linear_420_488)"/>
</mask>
<g mask="url(#mask0_420_488)">
<g filter="url(#filter5_di_420_488)">
<path fill-rule="evenodd" clip-rule="evenodd" d="M21.4153 37.5372C21.1803 38.0648 20.8779 38.7421 20.6429 39.2697C20.3478 39.932 19.5716 40.2298 18.9093 39.9347C18.2469 39.6396 17.9492 38.8634 18.2443 38.2011C18.4793 37.6735 18.7817 36.9962 19.0167 36.4687C19.3118 35.8063 20.088 35.5086 20.7503 35.8036C21.4127 36.0987 21.7104 36.8749 21.4153 37.5372Z" fill="#D6CC48"/>
</g>
<g filter="url(#filter6_di_420_488)">
<path fill-rule="evenodd" clip-rule="evenodd" d="M40.5298 31.1205C40.0549 30.5726 39.2257 30.5134 38.6778 30.9883C38.1298 31.4633 38.0707 32.2925 38.5456 32.8404C38.9239 33.2769 39.4096 33.8368 39.7879 34.2733C40.2629 34.8213 41.0921 34.8805 41.64 34.4055C42.1879 33.9306 42.2471 33.1014 41.7722 32.5535C41.3938 32.117 40.9082 31.557 40.5298 31.1205Z" fill="#D6CC48"/>
</g>
</g>
<mask id="mask1_420_488" style="mask-type:alpha" maskUnits="userSpaceOnUse" x="5" y="0" width="51" height="35">
<path d="M9.95263 7.06575C7.04709 10.8958 5 14.5659 5 18.754C5 27.215 16.2938 34.0741 30.2254 34.0741C44.157 34.0741 55.4508 27.215 55.4508 18.754C55.4508 14.3078 53.3377 11.5879 49.2435 6.73558C45.6776 2.50933 44.6318 0 40.6589 0C38.0431 0 35.7756 1.49115 34.6599 3.66978C33.2203 3.51472 31.7384 3.43382 30.2254 3.43382C28.4049 3.43382 26.6294 3.55095 24.9183 3.77346C22.8295 1.71691 21.5245 0 18.8674 0C14.6935 0 12.462 3.10365 9.95263 7.06575Z" fill="url(#paint3_radial_420_488)"/>
</mask>
<g mask="url(#mask1_420_488)">
<g filter="url(#filter7_ii_420_488)">
<path d="M9.95263 7.06575C7.04709 10.8958 5 14.5659 5 18.754C5 27.215 16.2938 34.0741 30.2254 34.0741C44.157 34.0741 55.4508 27.215 55.4508 18.754C55.4508 14.3078 53.3377 11.5879 49.2435 6.73558C45.6776 2.50933 44.6318 0 40.6589 0C38.0431 0 35.7756 1.49115 34.6599 3.66978C33.2203 3.51472 31.7384 3.43382 30.2254 3.43382C28.4049 3.43382 26.6294 3.55095 24.9183 3.77346C22.8295 1.71691 21.5245 0 18.8674 0C14.6935 0 12.462 3.10365 9.95263 7.06575Z" fill="url(#paint4_radial_420_488)"/>
</g>
<g filter="url(#filter8_di_420_488)">
<circle cx="18.9998" cy="9.37671" r="6.47144" fill="#F1EEEC"/>
</g>
<circle cx="19.0002" cy="9.3771" r="4.49038" fill="#174C34"/>
<g filter="url(#filter9_f_420_488)">
<circle cx="18.9998" cy="9.37671" r="3.16968" fill="#2C8251"/>
</g>
<circle cx="17.2829" cy="6.33949" r="1.45277" fill="#F1EEEC"/>
<g filter="url(#filter10_di_420_488)">
<circle cx="41.3193" cy="9.37665" r="6.47144" transform="rotate(67.2282 41.3193 9.37665)" fill="#F1EEEC"/>
</g>
<circle cx="41.3186" cy="9.37697" r="4.49038" transform="rotate(67.2282 41.3186 9.37697)" fill="#174C34"/>
<g filter="url(#filter11_f_420_488)">
<circle cx="41.3189" cy="9.37702" r="3.16968" transform="rotate(67.2282 41.3189 9.37702)" fill="#2C8251"/>
</g>
<circle cx="43.455" cy="6.61767" r="1.45277" transform="rotate(67.2282 43.455 6.61767)" fill="#F1EEEC"/>
<g filter="url(#filter12_di_420_488)">
<path d="M26.2632 13.2729C27.5839 14.6597 30.9913 16.6011 34.0553 13.2729" stroke="#174C34" stroke-width="5" stroke-linecap="round"/>
</g>
<g filter="url(#filter13_di_420_488)">
<path fill-rule="evenodd" clip-rule="evenodd" d="M37.5717 27.9498C37.0452 28.1873 36.3701 28.4919 35.8436 28.7295C35.1827 29.0277 34.4051 28.7337 34.1069 28.0727C33.8087 27.4118 34.1027 26.6342 34.7636 26.336C35.2901 26.0984 35.9652 25.7938 36.4917 25.5563C37.1526 25.2581 37.9302 25.5521 38.2284 26.213C38.5267 26.874 38.2326 27.6515 37.5717 27.9498Z" fill="#D6CC48"/>
</g>
<g filter="url(#filter14_di_420_488)">
<path fill-rule="evenodd" clip-rule="evenodd" d="M16.0972 32.0861C15.0925 31.961 13.8037 31.8005 12.799 31.6754C11.5379 31.5184 10.6428 30.3688 10.7997 29.1077C10.9567 27.8466 12.1063 26.9515 13.3675 27.1085C14.3722 27.2335 15.6609 27.3941 16.6656 27.5192C17.9268 27.6761 18.8219 28.8257 18.6649 30.0869C18.5079 31.348 17.3583 32.2431 16.0972 32.0861Z" fill="#D6CC48"/>
</g>
<g filter="url(#filter15_di_420_488)">
<circle cx="42.6401" cy="23.7729" r="0.792421" fill="#D6CC48"/>
</g>
<g filter="url(#filter16_di_420_488)">
<path d="M10.8106 21.7791C10.8106 22.5154 10.2193 23.1122 9.48989 23.1122C8.76049 23.1122 8.16919 22.5154 8.16919 21.7791C8.16919 21.0428 8.76049 18.7539 9.48989 18.7539C10.2193 18.7539 10.8106 21.0428 10.8106 21.7791Z" fill="#D6CC48"/>
</g>
</g>
<defs>
<filter id="filter0_di_420_488" x="4.69751" y="45.4326" width="51.8472" height="24.6182" filterUnits="userSpaceOnUse" color-interpolation-filters="sRGB">
<feFlood flood-opacity="0" result="BackgroundImageFix"/>
<feColorMatrix in="SourceAlpha" type="matrix" values="0 0 0 0 0 0 0 0 0 0 0 0 0 0 0 0 0 0 127 0" result="hardAlpha"/>
<feOffset dy="4"/>
<feGaussianBlur stdDeviation="2"/>
<feColorMatrix type="matrix" values="0 0 0 0 1 0 0 0 0 1 0 0 0 0 1 0 0 0 0.25 0"/>
<feBlend mode="normal" in2="BackgroundImageFix" result="effect1_dropShadow_420_488"/>
<feBlend mode="normal" in="SourceGraphic" in2="effect1_dropShadow_420_488" result="shape"/>
<feColorMatrix in="SourceAlpha" type="matrix" values="0 0 0 0 0 0 0 0 0 0 0 0 0 0 0 0 0 0 127 0" result="hardAlpha"/>
<feOffset dy="4"/>
<feGaussianBlur stdDeviation="6"/>
<feComposite in2="hardAlpha" operator="arithmetic" k2="-1" k3="1"/>
<feColorMatrix type="matrix" values="0 0 0 0 0.262396 0 0 0 0 0.954167 0 0 0 0 0.58061 0 0 0 0.25 0"/>
<feBlend mode="normal" in2="shape" result="effect2_innerShadow_420_488"/>
</filter>
<filter id="filter1_ii_420_488" x="13.5894" y="37.9609" width="16.3401" height="23.6738" filterUnits="userSpaceOnUse" color-interpolation-filters="sRGB">
<feFlood flood-opacity="0" result="BackgroundImageFix"/>
<feBlend mode="normal" in="SourceGraphic" in2="BackgroundImageFix" result="shape"/>
<feColorMatrix in="SourceAlpha" type="matrix" values="0 0 0 0 0 0 0 0 0 0 0 0 0 0 0 0 0 0 127 0" result="hardAlpha"/>
<feOffset dy="-2"/>
<feGaussianBlur stdDeviation="11.5"/>
<feComposite in2="hardAlpha" operator="arithmetic" k2="-1" k3="1"/>
<feColorMatrix type="matrix" values="0 0 0 0 1 0 0 0 0 1 0 0 0 0 1 0 0 0 0.25 0"/>
<feBlend mode="normal" in2="shape" result="effect1_innerShadow_420_488"/>
<feColorMatrix in="SourceAlpha" type="matrix" values="0 0 0 0 0 0 0 0 0 0 0 0 0 0 0 0 0 0 127 0" result="hardAlpha"/>
<feOffset dx="6" dy="5"/>
<feGaussianBlur stdDeviation="4.5"/>
<feComposite in2="hardAlpha" operator="arithmetic" k2="-1" k3="1"/>
<feColorMatrix type="matrix" values="0 0 0 0 1 0 0 0 0 1 0 0 0 0 1 0 0 0 0.25 0"/>
<feBlend mode="normal" in2="effect1_innerShadow_420_488" result="effect2_innerShadow_420_488"/>
</filter>
<filter id="filter2_ii_420_488" x="31.6882" y="37.0713" width="16.2144" height="24.8711" filterUnits="userSpaceOnUse" color-interpolation-filters="sRGB">
<feFlood flood-opacity="0" result="BackgroundImageFix"/>
<feBlend mode="normal" in="SourceGraphic" in2="BackgroundImageFix" result="shape"/>
<feColorMatrix in="SourceAlpha" type="matrix" values="0 0 0 0 0 0 0 0 0 0 0 0 0 0 0 0 0 0 127 0" result="hardAlpha"/>
<feOffset dy="-2"/>
<feGaussianBlur stdDeviation="11.5"/>
<feComposite in2="hardAlpha" operator="arithmetic" k2="-1" k3="1"/>
<feColorMatrix type="matrix" values="0 0 0 0 1 0 0 0 0 1 0 0 0 0 1 0 0 0 0.25 0"/>
<feBlend mode="normal" in2="shape" result="effect1_innerShadow_420_488"/>
<feColorMatrix in="SourceAlpha" type="matrix" values="0 0 0 0 0 0 0 0 0 0 0 0 0 0 0 0 0 0 127 0" result="hardAlpha"/>
<feOffset dx="-6" dy="5"/>
<feGaussianBlur stdDeviation="4.5"/>
<feComposite in2="hardAlpha" operator="arithmetic" k2="-1" k3="1"/>
<feColorMatrix type="matrix" values="0 0 0 0 1 0 0 0 0 1 0 0 0 0 1 0 0 0 0.25 0"/>
<feBlend mode="normal" in2="effect1_innerShadow_420_488" result="effect2_innerShadow_420_488"/>
</filter>
<filter id="filter3_dii_420_488" x="0.25293" y="8.35742" width="61.1565" height="69.376" filterUnits="userSpaceOnUse" color-interpolation-filters="sRGB">
<feFlood flood-opacity="0" result="BackgroundImageFix"/>
<feColorMatrix in="SourceAlpha" type="matrix" values="0 0 0 0 0 0 0 0 0 0 0 0 0 0 0 0 0 0 127 0" result="hardAlpha"/>
<feOffset dy="4"/>
<feGaussianBlur stdDeviation="9"/>
<feColorMatrix type="matrix" values="0 0 0 0 1 0 0 0 0 1 0 0 0 0 1 0 0 0 0.25 0"/>
<feBlend mode="normal" in2="BackgroundImageFix" result="effect1_dropShadow_420_488"/>
<feBlend mode="normal" in="SourceGraphic" in2="effect1_dropShadow_420_488" result="shape"/>
<feColorMatrix in="SourceAlpha" type="matrix" values="0 0 0 0 0 0 0 0 0 0 0 0 0 0 0 0 0 0 127 0" result="hardAlpha"/>
<feOffset dy="7"/>
<feGaussianBlur stdDeviation="2"/>
<feComposite in2="hardAlpha" operator="arithmetic" k2="-1" k3="1"/>
<feColorMatrix type="matrix" values="0 0 0 0 1 0 0 0 0 1 0 0 0 0 1 0 0 0 0.25 0"/>
<feBlend mode="normal" in2="shape" result="effect2_innerShadow_420_488"/>
<feColorMatrix in="SourceAlpha" type="matrix" values="0 0 0 0 0 0 0 0 0 0 0 0 0 0 0 0 0 0 127 0" result="hardAlpha"/>
<feOffset dx="-1" dy="-17"/>
<feGaussianBlur stdDeviation="10"/>
<feComposite in2="hardAlpha" operator="arithmetic" k2="-1" k3="1"/>
<feColorMatrix type="matrix" values="0 0 0 0 1 0 0 0 0 1 0 0 0 0 1 0 0 0 0.25 0"/>
<feBlend mode="normal" in2="effect2_innerShadow_420_488" result="effect3_innerShadow_420_488"/>
</filter>
<filter id="filter4_ii_420_488" x="20.7156" y="26.5273" width="20.2068" height="33.2065" filterUnits="userSpaceOnUse" color-interpolation-filters="sRGB">
<feFlood flood-opacity="0" result="BackgroundImageFix"/>
<feBlend mode="normal" in="SourceGraphic" in2="BackgroundImageFix" result="shape"/>
<feColorMatrix in="SourceAlpha" type="matrix" values="0 0 0 0 0 0 0 0 0 0 0 0 0 0 0 0 0 0 127 0" result="hardAlpha"/>
<feOffset dy="4"/>
<feGaussianBlur stdDeviation="2"/>
<feComposite in2="hardAlpha" operator="arithmetic" k2="-1" k3="1"/>
<feColorMatrix type="matrix" values="0 0 0 0 1 0 0 0 0 1 0 0 0 0 1 0 0 0 0.25 0"/>
<feBlend mode="normal" in2="shape" result="effect1_innerShadow_420_488"/>
<feColorMatrix in="SourceAlpha" type="matrix" values="0 0 0 0 0 0 0 0 0 0 0 0 0 0 0 0 0 0 127 0" result="hardAlpha"/>
<feOffset dy="-2"/>
<feGaussianBlur stdDeviation="11.5"/>
<feComposite in2="hardAlpha" operator="arithmetic" k2="-1" k3="1"/>
<feColorMatrix type="matrix" values="0 0 0 0 1 0 0 0 0 1 0 0 0 0 1 0 0 0 0.25 0"/>
<feBlend mode="normal" in2="effect1_innerShadow_420_488" result="effect2_innerShadow_420_488"/>
</filter>
<filter id="filter5_di_420_488" x="14.1304" y="31.6895" width="11.3989" height="12.3594" filterUnits="userSpaceOnUse" color-interpolation-filters="sRGB">
<feFlood flood-opacity="0" result="BackgroundImageFix"/>
<feColorMatrix in="SourceAlpha" type="matrix" values="0 0 0 0 0 0 0 0 0 0 0 0 0 0 0 0 0 0 127 0" result="hardAlpha"/>
<feOffset/>
<feGaussianBlur stdDeviation="2"/>
<feColorMatrix type="matrix" values="0 0 0 0 1 0 0 0 0 1 0 0 0 0 1 0 0 0 0.25 0"/>
<feBlend mode="normal" in2="BackgroundImageFix" result="effect1_dropShadow_420_488"/>
<feBlend mode="normal" in="SourceGraphic" in2="effect1_dropShadow_420_488" result="shape"/>
<feColorMatrix in="SourceAlpha" type="matrix" values="0 0 0 0 0 0 0 0 0 0 0 0 0 0 0 0 0 0 127 0" result="hardAlpha"/>
<feOffset dy="3"/>
<feGaussianBlur stdDeviation="2.5"/>
<feComposite in2="hardAlpha" operator="arithmetic" k2="-1" k3="1"/>
<feColorMatrix type="matrix" values="0 0 0 0 1 0 0 0 0 1 0 0 0 0 1 0 0 0 0.25 0"/>
<feBlend mode="normal" in2="shape" result="effect2_innerShadow_420_488"/>
</filter>
<filter id="filter6_di_420_488" x="34.2249" y="26.6675" width="11.8682" height="12.0591" filterUnits="userSpaceOnUse" color-interpolation-filters="sRGB">
<feFlood flood-opacity="0" result="BackgroundImageFix"/>
<feColorMatrix in="SourceAlpha" type="matrix" values="0 0 0 0 0 0 0 0 0 0 0 0 0 0 0 0 0 0 127 0" result="hardAlpha"/>
<feOffset/>
<feGaussianBlur stdDeviation="2"/>
<feColorMatrix type="matrix" values="0 0 0 0 1 0 0 0 0 1 0 0 0 0 1 0 0 0 0.25 0"/>
<feBlend mode="normal" in2="BackgroundImageFix" result="effect1_dropShadow_420_488"/>
<feBlend mode="normal" in="SourceGraphic" in2="effect1_dropShadow_420_488" result="shape"/>
<feColorMatrix in="SourceAlpha" type="matrix" values="0 0 0 0 0 0 0 0 0 0 0 0 0 0 0 0 0 0 127 0" result="hardAlpha"/>
<feOffset dy="3"/>
<feGaussianBlur stdDeviation="2.5"/>
<feComposite in2="hardAlpha" operator="arithmetic" k2="-1" k3="1"/>
<feColorMatrix type="matrix" values="0 0 0 0 1 0 0 0 0 1 0 0 0 0 1 0 0 0 0.25 0"/>
<feBlend mode="normal" in2="shape" result="effect2_innerShadow_420_488"/>
</filter>
<filter id="filter7_ii_420_488" x="-1" y="-7" width="61.4507" height="45.0742" filterUnits="userSpaceOnUse" color-interpolation-filters="sRGB">
<feFlood flood-opacity="0" result="BackgroundImageFix"/>
<feBlend mode="normal" in="SourceGraphic" in2="BackgroundImageFix" result="shape"/>
<feColorMatrix in="SourceAlpha" type="matrix" values="0 0 0 0 0 0 0 0 0 0 0 0 0 0 0 0 0 0 127 0" result="hardAlpha"/>
<feOffset dx="5" dy="4"/>
<feGaussianBlur stdDeviation="7.5"/>
<feComposite in2="hardAlpha" operator="arithmetic" k2="-1" k3="1"/>
<feColorMatrix type="matrix" values="0 0 0 0 1 0 0 0 0 1 0 0 0 0 1 0 0 0 0.25 0"/>
<feBlend mode="normal" in2="shape" result="effect1_innerShadow_420_488"/>
<feColorMatrix in="SourceAlpha" type="matrix" values="0 0 0 0 0 0 0 0 0 0 0 0 0 0 0 0 0 0 127 0" result="hardAlpha"/>
<feOffset dx="-6" dy="-7"/>
<feGaussianBlur stdDeviation="7.5"/>
<feComposite in2="hardAlpha" operator="arithmetic" k2="-1" k3="1"/>
<feColorMatrix type="matrix" values="0 0 0 0 0.991667 0 0 0 0 0.991667 0 0 0 0 0.991667 0 0 0 0.25 0"/>
<feBlend mode="normal" in2="effect1_innerShadow_420_488" result="effect2_innerShadow_420_488"/>
</filter>
<filter id="filter8_di_420_488" x="3.52832" y="-3.09473" width="32.9429" height="32.9429" filterUnits="userSpaceOnUse" color-interpolation-filters="sRGB">
<feFlood flood-opacity="0" result="BackgroundImageFix"/>
<feColorMatrix in="SourceAlpha" type="matrix" values="0 0 0 0 0 0 0 0 0 0 0 0 0 0 0 0 0 0 127 0" result="hardAlpha"/>
<feOffset dx="1" dy="4"/>
<feGaussianBlur stdDeviation="5"/>
<feColorMatrix type="matrix" values="0 0 0 0 1 0 0 0 0 1 0 0 0 0 1 0 0 0 0.25 0"/>
<feBlend mode="normal" in2="BackgroundImageFix" result="effect1_dropShadow_420_488"/>
<feBlend mode="normal" in="SourceGraphic" in2="effect1_dropShadow_420_488" result="shape"/>
<feColorMatrix in="SourceAlpha" type="matrix" values="0 0 0 0 0 0 0 0 0 0 0 0 0 0 0 0 0 0 127 0" result="hardAlpha"/>
<feOffset dx="7" dy="4"/>
<feGaussianBlur stdDeviation="4"/>
<feComposite in2="hardAlpha" operator="arithmetic" k2="-1" k3="1"/>
<feColorMatrix type="matrix" values="0 0 0 0 0 0 0 0 0 0 0 0 0 0 0 0 0 0 0.25 0"/>
<feBlend mode="normal" in2="shape" result="effect2_innerShadow_420_488"/>
</filter>
<filter id="filter9_f_420_488" x="3.83008" y="-5.79297" width="30.3394" height="30.3394" filterUnits="userSpaceOnUse" color-interpolation-filters="sRGB">
<feFlood flood-opacity="0" result="BackgroundImageFix"/>
<feBlend mode="normal" in="SourceGraphic" in2="BackgroundImageFix" result="shape"/>
<feGaussianBlur stdDeviation="6" result="effect1_foregroundBlur_420_488"/>
</filter>
<filter id="filter10_di_420_488" x="24.8462" y="-3.09668" width="32.9463" height="32.9463" filterUnits="userSpaceOnUse" color-interpolation-filters="sRGB">
<feFlood flood-opacity="0" result="BackgroundImageFix"/>
<feColorMatrix in="SourceAlpha" type="matrix" values="0 0 0 0 0 0 0 0 0 0 0 0 0 0 0 0 0 0 127 0" result="hardAlpha"/>
<feOffset dy="4"/>
<feGaussianBlur stdDeviation="5"/>
<feColorMatrix type="matrix" values="0 0 0 0 1 0 0 0 0 1 0 0 0 0 1 0 0 0 0.25 0"/>
<feBlend mode="normal" in2="BackgroundImageFix" result="effect1_dropShadow_420_488"/>
<feBlend mode="normal" in="SourceGraphic" in2="effect1_dropShadow_420_488" result="shape"/>
<feColorMatrix in="SourceAlpha" type="matrix" values="0 0 0 0 0 0 0 0 0 0 0 0 0 0 0 0 0 0 127 0" result="hardAlpha"/>
<feOffset dx="-6" dy="3"/>
<feGaussianBlur stdDeviation="2.5"/>
<feComposite in2="hardAlpha" operator="arithmetic" k2="-1" k3="1"/>
<feColorMatrix type="matrix" values="0 0 0 0 0.0458333 0 0 0 0 0.0458333 0 0 0 0 0.0458333 0 0 0 0.25 0"/>
<feBlend mode="normal" in2="shape" result="effect2_innerShadow_420_488"/>
</filter>
<filter id="filter11_f_420_488" x="26.1484" y="-5.79346" width="30.3411" height="30.3408" filterUnits="userSpaceOnUse" color-interpolation-filters="sRGB">
<feFlood flood-opacity="0" result="BackgroundImageFix"/>
<feBlend mode="normal" in="SourceGraphic" in2="BackgroundImageFix" result="shape"/>
<feGaussianBlur stdDeviation="6" result="effect1_foregroundBlur_420_488"/>
</filter>
<filter id="filter12_di_420_488" x="19.7632" y="10.7729" width="20.7922" height="14.8374" filterUnits="userSpaceOnUse" color-interpolation-filters="sRGB">
<feFlood flood-opacity="0" result="BackgroundImageFix"/>
<feColorMatrix in="SourceAlpha" type="matrix" values="0 0 0 0 0 0 0 0 0 0 0 0 0 0 0 0 0 0 127 0" result="hardAlpha"/>
<feOffset dy="4"/>
<feGaussianBlur stdDeviation="2"/>
<feColorMatrix type="matrix" values="0 0 0 0 1 0 0 0 0 1 0 0 0 0 1 0 0 0 0.25 0"/>
<feBlend mode="normal" in2="BackgroundImageFix" result="effect1_dropShadow_420_488"/>
<feBlend mode="normal" in="SourceGraphic" in2="effect1_dropShadow_420_488" result="shape"/>
<feColorMatrix in="SourceAlpha" type="matrix" values="0 0 0 0 0 0 0 0 0 0 0 0 0 0 0 0 0 0 127 0" result="hardAlpha"/>
<feOffset dy="4"/>
<feGaussianBlur stdDeviation="2"/>
<feComposite in2="hardAlpha" operator="arithmetic" k2="-1" k3="1"/>
<feColorMatrix type="matrix" values="0 0 0 0 1 0 0 0 0 1 0 0 0 0 1 0 0 0 0.25 0"/>
<feBlend mode="normal" in2="shape" result="effect2_innerShadow_420_488"/>
</filter>
<filter id="filter13_di_420_488" x="29.9905" y="21.4399" width="12.3545" height="11.4062" filterUnits="userSpaceOnUse" color-interpolation-filters="sRGB">
<feFlood flood-opacity="0" result="BackgroundImageFix"/>
<feColorMatrix in="SourceAlpha" type="matrix" values="0 0 0 0 0 0 0 0 0 0 0 0 0 0 0 0 0 0 127 0" result="hardAlpha"/>
<feOffset/>
<feGaussianBlur stdDeviation="2"/>
<feColorMatrix type="matrix" values="0 0 0 0 1 0 0 0 0 1 0 0 0 0 1 0 0 0 0.25 0"/>
<feBlend mode="normal" in2="BackgroundImageFix" result="effect1_dropShadow_420_488"/>
<feBlend mode="normal" in="SourceGraphic" in2="effect1_dropShadow_420_488" result="shape"/>
<feColorMatrix in="SourceAlpha" type="matrix" values="0 0 0 0 0 0 0 0 0 0 0 0 0 0 0 0 0 0 127 0" result="hardAlpha"/>
<feOffset dy="3"/>
<feGaussianBlur stdDeviation="2.5"/>
<feComposite in2="hardAlpha" operator="arithmetic" k2="-1" k3="1"/>
<feColorMatrix type="matrix" values="0 0 0 0 1 0 0 0 0 1 0 0 0 0 1 0 0 0 0.25 0"/>
<feBlend mode="normal" in2="shape" result="effect2_innerShadow_420_488"/>
</filter>
<filter id="filter14_di_420_488" x="6.78198" y="23.0908" width="15.9009" height="13.0132" filterUnits="userSpaceOnUse" color-interpolation-filters="sRGB">
<feFlood flood-opacity="0" result="BackgroundImageFix"/>
<feColorMatrix in="SourceAlpha" type="matrix" values="0 0 0 0 0 0 0 0 0 0 0 0 0 0 0 0 0 0 127 0" result="hardAlpha"/>
<feOffset/>
<feGaussianBlur stdDeviation="2"/>
<feColorMatrix type="matrix" values="0 0 0 0 1 0 0 0 0 1 0 0 0 0 1 0 0 0 0.25 0"/>
<feBlend mode="normal" in2="BackgroundImageFix" result="effect1_dropShadow_420_488"/>
<feBlend mode="normal" in="SourceGraphic" in2="effect1_dropShadow_420_488" result="shape"/>
<feColorMatrix in="SourceAlpha" type="matrix" values="0 0 0 0 0 0 0 0 0 0 0 0 0 0 0 0 0 0 127 0" result="hardAlpha"/>
<feOffset dy="3"/>
<feGaussianBlur stdDeviation="2.5"/>
<feComposite in2="hardAlpha" operator="arithmetic" k2="-1" k3="1"/>
<feColorMatrix type="matrix" values="0 0 0 0 1 0 0 0 0 1 0 0 0 0 1 0 0 0 0.25 0"/>
<feBlend mode="normal" in2="shape" result="effect2_innerShadow_420_488"/>
</filter>
<filter id="filter15_di_420_488" x="37.8477" y="18.9805" width="9.58496" height="9.58496" filterUnits="userSpaceOnUse" color-interpolation-filters="sRGB">
<feFlood flood-opacity="0" result="BackgroundImageFix"/>
<feColorMatrix in="SourceAlpha" type="matrix" values="0 0 0 0 0 0 0 0 0 0 0 0 0 0 0 0 0 0 127 0" result="hardAlpha"/>
<feOffset/>
<feGaussianBlur stdDeviation="2"/>
<feColorMatrix type="matrix" values="0 0 0 0 1 0 0 0 0 1 0 0 0 0 1 0 0 0 0.25 0"/>
<feBlend mode="normal" in2="BackgroundImageFix" result="effect1_dropShadow_420_488"/>
<feBlend mode="normal" in="SourceGraphic" in2="effect1_dropShadow_420_488" result="shape"/>
<feColorMatrix in="SourceAlpha" type="matrix" values="0 0 0 0 0 0 0 0 0 0 0 0 0 0 0 0 0 0 127 0" result="hardAlpha"/>
<feOffset dy="3"/>
<feGaussianBlur stdDeviation="2.5"/>
<feComposite in2="hardAlpha" operator="arithmetic" k2="-1" k3="1"/>
<feColorMatrix type="matrix" values="0 0 0 0 1 0 0 0 0 1 0 0 0 0 1 0 0 0 0.25 0"/>
<feBlend mode="normal" in2="shape" result="effect2_innerShadow_420_488"/>
</filter>
<filter id="filter16_di_420_488" x="4.16919" y="14.7539" width="10.6414" height="12.3584" filterUnits="userSpaceOnUse" color-interpolation-filters="sRGB">
<feFlood flood-opacity="0" result="BackgroundImageFix"/>
<feColorMatrix in="SourceAlpha" type="matrix" values="0 0 0 0 0 0 0 0 0 0 0 0 0 0 0 0 0 0 127 0" result="hardAlpha"/>
<feOffset/>
<feGaussianBlur stdDeviation="2"/>
<feColorMatrix type="matrix" values="0 0 0 0 1 0 0 0 0 1 0 0 0 0 1 0 0 0 0.25 0"/>
<feBlend mode="normal" in2="BackgroundImageFix" result="effect1_dropShadow_420_488"/>
<feBlend mode="normal" in="SourceGraphic" in2="effect1_dropShadow_420_488" result="shape"/>
<feColorMatrix in="SourceAlpha" type="matrix" values="0 0 0 0 0 0 0 0 0 0 0 0 0 0 0 0 0 0 127 0" result="hardAlpha"/>
<feOffset dy="3"/>
<feGaussianBlur stdDeviation="2.5"/>
<feComposite in2="hardAlpha" operator="arithmetic" k2="-1" k3="1"/>
<feColorMatrix type="matrix" values="0 0 0 0 1 0 0 0 0 1 0 0 0 0 1 0 0 0 0.25 0"/>
<feBlend mode="normal" in2="shape" result="effect2_innerShadow_420_488"/>
</filter>
<radialGradient id="paint0_radial_420_488" cx="0" cy="0" r="1" gradientUnits="userSpaceOnUse" gradientTransform="translate(30.6212 61.9742) rotate(-90) scale(20.8872 48.1566)">
<stop offset="0.372988" stop-color="#87CC4D"/>
<stop offset="1" stop-color="#98CD6D"/>
</radialGradient>
<linearGradient id="paint1_linear_420_488" x1="32.4044" y1="55.7336" x2="32.2724" y2="25.3574" gradientUnits="userSpaceOnUse">
<stop offset="0.223424" stop-color="#388062"/>
<stop offset="0.896628" stop-color="#8DC76D"/>
</linearGradient>
<linearGradient id="paint2_linear_420_488" x1="32.2017" y1="55.7385" x2="32.068" y2="25.3604" gradientUnits="userSpaceOnUse">
<stop offset="0.223424" stop-color="#388062"/>
<stop offset="0.896628" stop-color="#8DC76D"/>
</linearGradient>
<radialGradient id="paint3_radial_420_488" cx="0" cy="0" r="1" gradientUnits="userSpaceOnUse" gradientTransform="translate(30.2254 11.0939) rotate(90) scale(21.7916 32.265)">
<stop offset="0.578196" stop-color="#97CD6D"/>
<stop offset="1" stop-color="#4B9F65"/>
</radialGradient>
<radialGradient id="paint4_radial_420_488" cx="0" cy="0" r="1" gradientUnits="userSpaceOnUse" gradientTransform="translate(30.2254 11.0939) rotate(90) scale(21.7916 32.265)">
<stop offset="0.578196" stop-color="#97CD6D"/>
<stop offset="1" stop-color="#4B9F65"/>
</radialGradient>
</defs>
</svg>
