<svg width="54" height="86" viewBox="0 0 54 86" fill="none" xmlns="http://www.w3.org/2000/svg">
<path d="M34.7069 73.1027C20.0378 71.9244 0.841614 73.8846 0.0403237 78.1496C-0.900791 83.1591 14.9438 83.609 14.9438 83.609C16.8694 87.2599 49.4568 87.1123 45.168 80.4805C53.0073 79.8683 49.8605 74.3196 34.7069 73.1027Z" fill="#86CA26"/>
<path d="M7.3538 77.164C13.2478 72.7968 46.8883 74.207 42.0978 79.5838C37.307 84.9607 -0.016408 82.6246 7.3538 77.164Z" fill="#70AD2D"/>
<path d="M9.35331 74.0894C8.53633 74.414 7.39014 73.2243 7.39014 73.2243C8.3955 72.6283 9.44428 72.9445 9.56938 73.8768C9.37339 72.2571 10.624 71.6338 11.2078 71.5448C11.7658 72.686 10.7783 73.9155 9.82663 73.9559" fill="#86CA26"/>
<path d="M31.8202 73.1069C32.678 73.3012 33.6253 71.9488 33.6253 71.9488C32.5394 71.5152 31.5524 71.9895 31.5739 72.93C31.5157 71.2997 30.1832 70.877 29.5925 70.8794C29.2187 72.0934 30.3855 73.1552 31.332 73.048" fill="#86CA26"/>
<path d="M34.6993 82.2148C32.3696 81.8952 34.1891 78.521 35.2736 81.9543C36.0612 78.704 38.5346 80.1287 36.619 81.9543" fill="#86CA26"/>
<path d="M34.2798 85.4352C38.2351 83.1562 34.7874 81.3409 34.4498 84.7121C35.0443 80.8634 31.6453 81.7302 33.6607 84.7525C31.0364 83.5356 31.564 86.0789 33.9396 85.4923" fill="#A2D728"/>
<path d="M15.8977 13.6584C15.8356 11.0594 12.617 8.21248 10.5337 9.29564C8.45036 10.3785 10.7156 13.5656 12.2672 14.0609C9.37364 13.9371 10.8087 18.0835 14.4703 15.8698" fill="#AFDB2E"/>
<path d="M15.0375 12.0811C13.022 9.81169 10.3944 9.68494 10.2913 11.3796C9.36039 8.63603 13.1019 8.65652 15.0375 12.0811Z" fill="#F36379"/>
<path d="M15.0376 14.1457C15.783 13.5839 12.6017 9.96935 11.2636 10.9462C9.92554 11.9231 13.4377 15.3512 15.0376 14.1457Z" fill="#F36379"/>
<path d="M16.0911 13.3812C17.5621 9.8987 19.9853 8.84599 20.359 10.3554C20.8648 12.3976 18.7406 14.1063 17.374 14.1725C19.0264 14.443 17.1146 17.6977 15.3818 15.8031" fill="#95D221"/>
<path d="M17.0132 12.0811C18.8351 9.25489 20.5106 9.57018 20.2417 11.4443C19.8694 10.1211 18.2116 11.0081 17.0132 12.0811Z" fill="#F14357"/>
<path d="M16.38 13.8618C16.1609 13.6273 18.7188 10.369 19.367 11.6299C19.9785 12.8193 17.2412 14.7842 16.38 13.8618Z" fill="#F14357"/>
<path d="M15.603 13.9831C15.8739 14.8133 17.9088 14.4986 17.3744 15.3859C16.9309 16.1222 15.7228 15.9825 15.603 13.9831Z" fill="#F14357"/>
<path d="M16.2304 13.3129C15.1626 13.7315 13.6457 16.7321 14.2395 16.786C15.1392 16.8677 16.735 14.9868 16.4049 13.3378" fill="#EAA81B"/>
<path d="M15.9043 11.9478C17.0498 11.367 18.9551 13.0193 16.9849 14.1545C15.1628 15.204 14.3536 12.7335 15.9043 11.9478Z" fill="#FBD039"/>
<path d="M16.1166 11.998C16.8288 11.5917 18.2919 12.7887 17.1853 13.5985C16.0785 14.4079 14.9184 12.6819 16.1166 11.998Z" fill="#F9F151"/>
<path d="M17.0795 13.0093C17.2115 13.0128 17.5198 13.3524 17.2124 13.4555C16.873 13.5696 16.8891 13.0049 17.0795 13.0093Z" fill="#482014"/>
<path d="M16.0192 13.3009C16.1215 13.3323 16.4363 13.6947 16.0681 13.7506C15.7004 13.8056 15.8293 13.2447 16.0192 13.3009Z" fill="#482014"/>
<path d="M16.5933 14.1813C16.7087 14.1968 16.8262 14.1728 16.9204 14.1312C17.1076 14.0493 17.2255 13.8991 17.2211 13.748C17.2203 13.7208 17.1971 13.6988 17.1706 13.7003C17.1431 13.7012 17.1216 13.7237 17.1227 13.7512C17.1258 13.8601 17.0286 13.9764 16.8808 14.0411C16.7396 14.1031 16.5388 14.1201 16.3983 13.9831C16.379 13.9641 16.3476 13.9641 16.3284 13.984C16.3094 14.0033 16.3099 14.0343 16.3292 14.0534C16.4079 14.1298 16.5001 14.1687 16.5933 14.1813Z" fill="#D8303D"/>
<path d="M17.1222 13.2785C17.1889 13.2876 17.2476 13.3728 17.157 13.3871C17.0664 13.4012 17.0846 13.2738 17.1222 13.2785Z" fill="white"/>
<path d="M16.0795 13.5771C16.146 13.5862 16.2045 13.6711 16.1141 13.6854C16.0234 13.6997 16.0415 13.5721 16.0795 13.5771Z" fill="white"/>
<path d="M16.4095 12.4414C16.3593 12.4414 16.312 12.411 16.2933 12.3612C16.1892 12.0854 16.1083 11.5708 16.1622 11.0418C16.2062 10.6094 16.3546 10.0236 16.8114 9.69019C17.0965 9.48204 17.4061 9.45862 17.6606 9.62578C17.9122 9.79089 18.0489 10.11 17.9858 10.3843C17.9318 10.6188 17.7675 10.7833 17.5462 10.8237C17.3596 10.8577 17.1699 10.793 17.0849 10.6659C17.0168 10.564 17.0213 10.4387 17.0973 10.3222C17.1346 10.2648 17.2115 10.2485 17.269 10.2856C17.3265 10.3228 17.3428 10.3995 17.3055 10.4569C17.2749 10.5037 17.287 10.5219 17.2915 10.5286C17.3173 10.5673 17.4049 10.598 17.5014 10.5801C17.5734 10.567 17.7006 10.5169 17.7438 10.329C17.784 10.1545 17.6895 9.94107 17.5241 9.83246C17.3586 9.72385 17.1576 9.74435 16.9581 9.89013C16.2822 10.3834 16.3178 11.7236 16.5256 12.274C16.5498 12.3381 16.5173 12.4092 16.4532 12.4335C16.4388 12.4388 16.424 12.4414 16.4095 12.4414Z" fill="#744428"/>
<path d="M16.0661 12.5615C16.0166 12.5615 15.9699 12.532 15.9506 12.4834C15.7436 11.9617 14.9138 11.0351 14.0656 11.1244C13.8195 11.1505 13.6568 11.2702 13.6075 11.4617C13.5584 11.6528 13.6323 11.8739 13.7794 11.976C13.9383 12.0864 14.0663 12.0384 14.1285 11.9997C14.2119 11.9482 14.2561 11.8668 14.2492 11.8209C14.248 11.813 14.2447 11.7916 14.1905 11.7773C14.1242 11.7597 14.0846 11.6921 14.1021 11.6259C14.1196 11.5597 14.1874 11.5205 14.2538 11.5378C14.3887 11.5732 14.4765 11.6631 14.4947 11.7843C14.5173 11.9353 14.4206 12.1104 14.2595 12.2102C14.0683 12.3285 13.8358 12.3168 13.6376 12.1792C13.4061 12.0188 13.2923 11.6912 13.3671 11.4002C13.4428 11.1057 13.6879 10.9154 14.0395 10.8785C15.0244 10.7743 15.9436 11.7931 16.1814 12.3923C16.2067 12.4558 16.1754 12.5276 16.1117 12.5527C16.0967 12.5589 16.0813 12.5615 16.0661 12.5615Z" fill="#744428"/>
<path d="M15.6243 15.1753C15.1712 14.8559 14.2151 16.4236 14.5821 16.5219C14.9493 16.6203 16.0341 15.4639 15.6243 15.1753Z" fill="#FBD039"/>
<path d="M14.7965 14.5777C13.9941 15.2575 11.7177 14.044 11.5323 15.2575C11.3842 16.2273 13.638 16.405 14.7965 14.5777Z" fill="#F36379"/>
<path d="M26.2737 21.338C28.1416 19.9109 28.5125 16.0563 26.6128 15.1172C24.7131 14.1777 23.5865 17.5197 24.0491 18.9114C22.6013 16.7413 20.3317 19.9893 23.8976 21.4756" fill="#DD4EAF"/>
<path d="M25.4612 20.9714C26.2683 21.2146 27.2203 16.9795 25.7944 16.5257C24.3686 16.072 23.7287 20.4488 25.4612 20.9714Z" fill="#FBD039"/>
<path d="M26.5806 21.3313C29.9097 20.5496 31.9679 21.7522 31.0625 22.8263C29.8377 24.2801 27.4588 23.6439 26.6839 22.6849C27.3645 24.0307 23.9677 24.3705 24.432 22.1032" fill="#CC33A1"/>
<path d="M26.3822 21.797C26.4373 21.513 30.18 21.6409 29.6026 22.7826C29.0579 23.8599 26.1655 22.9138 26.3822 21.797Z" fill="#EAA81B"/>
<path d="M25.8807 21.2957C25.4176 21.9342 26.7297 23.2469 25.7966 23.33C25.0224 23.3988 24.4821 22.4459 25.8807 21.2957Z" fill="#EAA81B"/>
<path d="M26.7041 21.3962C25.8302 20.8423 22.829 21.3344 23.1053 21.7949C23.524 22.4928 25.748 22.6532 26.7787 21.5364" fill="#7AAE2B"/>
<path d="M29.8571 21.8076C29.6434 21.8076 29.4675 21.6996 29.3856 21.5172C29.3157 21.3612 29.3323 21.1814 29.4258 21.0801C29.501 20.9988 29.6119 20.9759 29.7308 21.0172C29.7893 21.0377 29.8201 21.1015 29.7995 21.1598C29.779 21.218 29.7153 21.2485 29.6569 21.2283C29.6087 21.2116 29.5958 21.2259 29.5908 21.2312C29.5623 21.2622 29.5541 21.3454 29.5902 21.4259C29.6172 21.4862 29.688 21.5851 29.8629 21.5843C30.025 21.5819 30.1926 21.454 30.2525 21.2862C30.313 21.1182 30.2519 20.9469 30.0811 20.8035C29.5027 20.3175 28.332 20.6352 27.8925 20.9347C27.8414 20.9695 27.7717 20.9563 27.7368 20.9054C27.7019 20.8544 27.7151 20.7848 27.7661 20.7499C27.9862 20.6 28.4217 20.4194 28.8983 20.3536C29.288 20.2994 29.8348 20.3044 30.2255 20.6325C30.4695 20.8375 30.5564 21.103 30.4636 21.3615C30.372 21.6165 30.1207 21.8041 29.8659 21.8076C29.8629 21.8076 29.86 21.8076 29.8571 21.8076Z" fill="#744428"/>
<path d="M27.6506 20.6787C27.6155 20.6787 27.5808 20.6623 27.559 20.6313C27.5233 20.5809 27.5353 20.5113 27.5858 20.4755C28.0003 20.1834 28.6377 19.2598 28.378 18.5373C28.3027 18.3277 28.1626 18.2109 27.9837 18.2088C27.982 18.2088 27.9803 18.2088 27.9785 18.2088C27.8016 18.2088 27.6258 18.3198 27.5681 18.4688C27.505 18.6313 27.5747 18.7331 27.6218 18.7791C27.6849 18.8411 27.766 18.8622 27.8049 18.8464C27.8117 18.8438 27.8298 18.8365 27.8308 18.7858C27.832 18.7241 27.8827 18.6755 27.945 18.6763C28.0069 18.6775 28.056 18.7284 28.0548 18.7902C28.0524 18.9158 27.9922 19.0115 27.8896 19.0534C27.7616 19.1055 27.5869 19.0584 27.4649 18.9386C27.32 18.7967 27.2804 18.5909 27.3591 18.3883C27.4509 18.1514 27.7152 17.9814 27.9864 17.9855C28.2617 17.9887 28.4813 18.1626 28.5889 18.4618C28.8905 19.3011 28.1914 20.3221 27.7152 20.6582C27.6955 20.672 27.673 20.6787 27.6506 20.6787Z" fill="#744428"/>
<path d="M27.8991 20.6798C28.4986 21.623 27.0959 23.3163 26.0595 21.7817C25.0351 20.265 27.1841 19.5551 27.8991 20.6798Z" fill="#8DC525"/>
<path d="M27.8122 20.7314C28.3042 21.2486 27.5896 22.7308 26.6738 21.9635C25.7584 21.1957 26.9847 19.8607 27.8122 20.7314Z" fill="#AFDB35"/>
<path d="M27.3941 21.5886C27.4193 21.7051 27.1864 22.047 27.0304 21.8002C26.8574 21.5277 27.3572 21.4214 27.3941 21.5886Z" fill="#482014"/>
<path d="M26.9113 20.724C26.9059 20.8204 26.6541 21.1728 26.5262 20.8628C26.3995 20.5531 26.9204 20.5458 26.9113 20.724Z" fill="#482014"/>
<path d="M26.2597 21.4141C26.2707 21.5183 26.317 21.6158 26.3735 21.6893C26.4855 21.836 26.6428 21.9068 26.7749 21.8705C26.7986 21.8641 26.8129 21.8392 26.806 21.8163C26.7992 21.7923 26.7748 21.7783 26.7511 21.7853C26.6558 21.8111 26.5329 21.7511 26.4444 21.6357C26.3598 21.5254 26.3018 21.3535 26.3925 21.2013C26.4049 21.1805 26.3982 21.153 26.3769 21.1404C26.3558 21.1278 26.3284 21.1348 26.3159 21.1559C26.2656 21.2411 26.251 21.3301 26.2597 21.4141Z" fill="#D8303D"/>
<path d="M27.1668 21.6838C27.1732 21.7438 27.1107 21.8132 27.0787 21.737C27.047 21.6609 27.1631 21.6498 27.1668 21.6838Z" fill="white"/>
<path d="M26.6812 20.8356C26.6875 20.8956 26.6254 20.965 26.5935 20.8889C26.5614 20.8128 26.6775 20.8014 26.6812 20.8356Z" fill="white"/>
<path d="M25.3529 21.8976C25.3456 21.3981 23.3579 21.5843 23.4811 21.9037C23.6044 22.2231 25.3595 22.349 25.3529 21.8976Z" fill="#99CD33"/>
<path d="M25.0167 21.0259C24.0929 20.8037 23.7702 18.503 22.784 19.0132C21.996 19.4213 23.0643 21.155 25.0167 21.0259Z" fill="#FBD039"/>
<path d="M26.1478 15.3172C26.5003 15.5145 26.2313 16.3825 25.648 16.0889C25.0647 15.7952 25.6353 15.0303 26.1478 15.3172Z" fill="#FBD039"/>
<path d="M30.6876 22.2938C30.9982 22.4676 30.7613 23.232 30.2476 22.9735C29.7338 22.7147 30.2364 22.0411 30.6876 22.2938Z" fill="#EAA81B"/>
<path d="M6.69785 28.7593C6.15205 26.5561 2.86971 24.7376 1.29993 26.0529C-0.269735 27.3688 2.26482 29.6572 3.68062 29.7866C1.19172 30.2265 3.20071 33.4889 5.90104 30.9124" fill="#F14687"/>
<path d="M6.05742 29.3362C6.58594 28.7168 3.18988 26.237 2.23496 27.3219C1.28021 28.4065 4.92286 30.665 6.05742 29.3362Z" fill="#AFDB35"/>
<path d="M6.81012 28.4857C7.40311 25.2412 9.26817 23.8873 9.87275 25.1027C10.6911 26.7477 9.20525 28.6043 8.05319 28.9181C9.51248 28.837 8.50077 31.9708 6.66504 30.6833" fill="#F03884"/>
<path d="M7.1471 28.8416C6.91603 28.683 8.47762 25.4244 9.26892 26.3764C10.0156 27.2746 8.05582 29.4652 7.1471 28.8416Z" fill="#A4D221"/>
<path d="M6.5083 29.091C6.89661 29.7473 8.57079 29.0954 8.28364 29.9522C8.04547 30.663 6.98955 30.7722 6.5083 29.091Z" fill="#A4D221"/>
<path d="M6.91651 28.4017C6.08612 28.9597 5.3627 31.8025 5.87874 31.7367C6.66099 31.6365 7.66397 29.7328 7.06984 28.39" fill="#EAA81B"/>
<path d="M6.85886 27.3008C6.80789 27.3008 6.76245 27.2648 6.75258 27.213C6.66022 26.7285 6.77278 25.4015 7.59954 24.9939C7.87596 24.8575 8.14567 24.8836 8.33948 25.0654C8.53089 25.2451 8.60041 25.5396 8.50476 25.7662C8.42321 25.96 8.25731 26.0765 8.061 26.0783C7.89543 26.0797 7.74198 25.9957 7.68799 25.8736C7.64469 25.7759 7.66735 25.6687 7.7502 25.58C7.79091 25.5361 7.85943 25.5338 7.90332 25.5742C7.94715 25.6149 7.94971 25.6831 7.90899 25.727C7.87567 25.7627 7.8833 25.78 7.88618 25.7864C7.90241 25.8233 7.97199 25.8622 8.05657 25.8622C8.05739 25.8622 8.05818 25.8622 8.05903 25.8622C8.12286 25.8617 8.23973 25.8376 8.30505 25.6825C8.36587 25.5385 8.31685 25.3409 8.19099 25.2229C8.06505 25.1046 7.88909 25.0923 7.69556 25.1878C7.03999 25.5109 6.86937 26.6685 6.96545 27.1726C6.97661 27.2314 6.938 27.2879 6.87923 27.299C6.87239 27.3002 6.86558 27.3008 6.85886 27.3008Z" fill="#744428"/>
<path d="M6.54443 27.3525C6.49414 27.3525 6.44905 27.3174 6.43842 27.2665C6.33884 26.787 5.76456 25.8663 5.022 25.8165C4.80661 25.8016 4.6487 25.8806 4.57753 26.0378C4.50646 26.1947 4.5367 26.3958 4.64784 26.5056C4.76791 26.6245 4.88531 26.6022 4.94456 26.5782C5.024 26.5463 5.07417 26.4831 5.07517 26.4427C5.07534 26.4354 5.07578 26.4166 5.03131 26.3961C4.97694 26.3713 4.95313 26.3071 4.97811 26.253C5.00309 26.1985 5.06742 26.1748 5.12179 26.2C5.23237 26.2506 5.29432 26.3408 5.29176 26.4477C5.28859 26.5809 5.17909 26.717 5.02552 26.7788C4.84333 26.8519 4.64517 26.8072 4.49539 26.6593C4.32048 26.4866 4.2719 26.1877 4.38002 25.9488C4.48949 25.707 4.72878 25.5806 5.03659 25.6008C5.89899 25.6587 6.53621 26.6719 6.65062 27.2226C6.66274 27.2811 6.62508 27.3382 6.56648 27.3502C6.55911 27.352 6.55171 27.3525 6.54443 27.3525Z" fill="#744428"/>
<path d="M6.74174 27.0683C7.81192 26.9035 8.77425 28.7982 7.00944 29.1205C5.26498 29.4393 5.46546 27.2651 6.74174 27.0683Z" fill="#FBD039"/>
<path d="M6.75407 27.1647C7.40416 26.9302 8.44505 28.1351 7.40871 28.6474C6.37231 29.1597 5.66011 27.5593 6.75407 27.1647Z" fill="#F9F151"/>
<path d="M7.35402 27.866C7.46723 27.8889 7.68112 28.2267 7.40132 28.2691C7.09236 28.3169 7.19109 27.8338 7.35402 27.866Z" fill="#482014"/>
<path d="M6.39808 27.9584C6.48151 28.0006 6.69744 28.3595 6.37254 28.3524C6.04814 28.3448 6.24319 27.8817 6.39808 27.9584Z" fill="#482014"/>
<path d="M6.75988 28.8013C6.85673 28.832 6.9613 28.8285 7.04852 28.8071C7.22191 28.765 7.34579 28.6531 7.36482 28.5226C7.36808 28.4991 7.35149 28.4769 7.32847 28.474C7.30466 28.4707 7.28279 28.4868 7.27971 28.5106C7.26591 28.6048 7.16495 28.69 7.02821 28.7237C6.89739 28.7559 6.72207 28.7407 6.62196 28.6016C6.60831 28.5826 6.58127 28.5779 6.56178 28.5919C6.54252 28.6057 6.53821 28.6326 6.55204 28.6517C6.60817 28.7289 6.68162 28.7764 6.75988 28.8013Z" fill="#D8303D"/>
<path d="M7.35042 28.1043C7.40635 28.1218 7.44398 28.2038 7.36393 28.2026C7.28387 28.2012 7.31886 28.0943 7.35042 28.1043Z" fill="white"/>
<path d="M6.40908 28.2048C6.46498 28.2227 6.50253 28.3044 6.4227 28.3032C6.34256 28.302 6.37723 28.1949 6.40908 28.2048Z" fill="white"/>
<path d="M6.83834 29.79C6.39161 29.6033 5.78841 31.432 6.11985 31.4467C6.45135 31.4613 7.24218 29.9589 6.83834 29.79Z" fill="#FBD039"/>
<path d="M5.93393 29.7497C5.37914 30.4804 3.20936 29.8756 3.28154 30.9444C3.33929 31.7987 5.29336 31.5252 5.93393 29.7497Z" fill="#AFDB35"/>
<path d="M1.29759 26.5422C1.60931 26.3068 2.27663 26.8803 1.78995 27.2822C1.30333 27.6842 0.844282 26.8841 1.29759 26.5422Z" fill="#AFDB35"/>
<path d="M9.25443 25.2284C9.52892 25.0212 10.1169 25.5262 9.68818 25.8804C9.25948 26.2343 8.8552 25.5297 9.25443 25.2284Z" fill="#A4D221"/>
<path d="M24.5645 5.32448C24.9783 1.4582 23.3977 -0.538906 21.5422 0.125918C19.6614 0.799525 20.7989 4.2346 21.5963 4.90323C18.8381 2.84523 18.2103 7.66615 22.1269 7.07832" fill="#55C5A9"/>
<path d="M26.1995 3.85254C26.1887 3.85254 26.1778 3.85107 26.1669 3.84785C26.1077 3.82999 26.0743 3.76735 26.0923 3.70851C26.1972 3.36365 26.5041 2.80334 26.9532 2.3285C27.3184 1.94267 27.8971 1.4854 28.5842 1.5018C29.0038 1.51146 29.312 1.71111 29.4298 2.0501C29.5463 2.38588 29.4448 2.78314 29.1878 2.9948C28.9701 3.17396 28.7011 3.20996 28.4681 3.09081C28.2731 2.99128 28.1451 2.801 28.1567 2.62828C28.1658 2.4942 28.255 2.38764 28.4015 2.33612C28.4599 2.31563 28.5238 2.34607 28.5445 2.40433C28.5651 2.46229 28.5345 2.52611 28.4762 2.5469C28.3846 2.5791 28.3814 2.6274 28.3803 2.6432C28.3755 2.71522 28.4452 2.82793 28.5703 2.89204C28.6603 2.938 28.8417 2.99011 29.0451 2.82237C29.2295 2.67073 29.3038 2.37008 29.218 2.123C29.1314 1.87387 28.9045 1.73248 28.579 1.72516C27.5197 1.70086 26.5221 3.06534 26.3067 3.7732C26.292 3.8215 26.2476 3.85254 26.1995 3.85254Z" fill="#744428"/>
<path d="M25.7238 3.85742C25.6819 3.85742 25.6418 3.83401 25.6226 3.79361C25.4669 3.46837 25.3146 2.84833 25.3252 2.1958C25.3338 1.66535 25.4528 0.938462 25.9704 0.488806C26.2868 0.213625 26.6496 0.153905 26.9656 0.324869C27.279 0.494661 27.4725 0.856495 27.4258 1.18525C27.3863 1.46394 27.2118 1.6715 26.9592 1.74C26.7478 1.79767 26.5247 1.74322 26.4166 1.60797C26.3327 1.50287 26.3265 1.36441 26.3998 1.2277C26.4289 1.17325 26.4968 1.15275 26.5514 1.18173C26.6059 1.21101 26.6265 1.27863 26.5974 1.33308C26.5516 1.41827 26.5818 1.45633 26.5918 1.46862C26.6369 1.52512 26.7646 1.56142 26.9003 1.52453C26.9978 1.49819 27.167 1.41476 27.204 1.15392C27.2375 0.917968 27.0891 0.646009 26.8588 0.521299C26.6263 0.395419 26.363 0.443723 26.1176 0.657134C25.3189 1.35123 25.5052 3.02983 25.8248 3.69758C25.8514 3.75321 25.8278 3.81995 25.7719 3.8463C25.7563 3.85391 25.7399 3.85742 25.7238 3.85742Z" fill="#744428"/>
<path d="M24.895 5.32114C26.5086 3.45928 28.9333 3.54476 29.3516 4.5802C29.9165 5.97835 26.8603 7.43388 25.189 6.84751C27.0093 7.69384 23.9634 10.1787 23.0479 7.75385" fill="#55C5A9"/>
<path d="M27.6748 5.36842C27.5489 4.45184 25.298 5.52973 25.1855 6.04144C25.0729 6.55375 27.8531 6.66587 27.6748 5.36842Z" fill="#568DD1"/>
<path d="M24.91 5.14647C23.6726 5.1977 21.063 7.72468 21.6496 7.98874C22.5384 8.38863 24.8323 7.03175 25.0794 5.23342" fill="#EAA81B"/>
<path d="M25.5988 5.68124C27.5156 6.02229 27.4329 3.66217 25.9991 3.36299C24.3473 3.01813 23.0727 5.23158 25.5988 5.68124Z" fill="#FBD039"/>
<path d="M25.7058 5.38115C27.2494 5.65574 27.1828 3.75524 26.0282 3.51431C24.698 3.2365 23.6716 5.01902 25.7058 5.38115Z" fill="#F9F151"/>
<path d="M23.3882 5.38644C24.1087 5.16981 24.048 1.76723 22.4132 1.98269C20.6138 2.2201 22.6647 5.60395 23.3882 5.38644Z" fill="#568DD1"/>
<path d="M22.2717 6.23359C22.6451 5.64634 20.7659 4.55849 20.5009 5.64341C20.2357 6.72861 22.0221 6.62616 22.2717 6.23359Z" fill="#568DD1"/>
<path d="M21.9171 0.472438C21.2638 0.597147 21.1079 1.81673 22.0771 1.67914C23.0464 1.54184 22.4103 0.378759 21.9171 0.472438Z" fill="#568DD1"/>
<path d="M23.392 1.18486C23.0732 1.25512 23.054 1.71971 23.4176 1.66438C23.7814 1.60905 23.7109 1.11431 23.392 1.18486Z" fill="#568DD1"/>
<path d="M27.5698 4.25988C27.29 4.32165 27.2732 4.72915 27.5922 4.68056C27.9113 4.63196 27.8495 4.19782 27.5698 4.25988Z" fill="#568DD1"/>
<path d="M29.0284 4.95679C28.8794 4.42282 27.8909 4.54138 27.9803 5.263C28.0697 5.98462 29.2611 5.79023 29.0284 4.95679Z" fill="#568DD1"/>
<path d="M24.4614 6.01724C24.0355 5.71893 21.9423 7.64226 22.165 7.84601C22.6134 8.25615 24.9517 6.36092 24.4614 6.01724Z" fill="#FBD039"/>
<path d="M26.525 4.38621C26.4048 4.35283 26.1866 4.80132 26.4956 4.87129C26.8049 4.94096 26.7198 4.44066 26.525 4.38621Z" fill="#311E17"/>
<path d="M25.5872 4.08043C25.6984 4.13722 25.5527 4.61411 25.2784 4.45573C25.0041 4.29736 25.4075 3.98821 25.5872 4.08043Z" fill="#311E17"/>
<path d="M25.789 5.35498C25.7004 5.35498 25.6148 5.33332 25.5419 5.29409C25.343 5.18724 25.2699 4.97822 25.3558 4.76159L25.46 4.80257C25.3827 4.99754 25.4791 5.13337 25.595 5.19573C25.7591 5.28384 26.0055 5.25867 26.1591 5.04028L26.2508 5.10439C26.1268 5.28062 25.9528 5.35498 25.789 5.35498Z" fill="#99253F"/>
<path d="M25.4428 4.31858C25.3673 4.32092 25.3484 4.39469 25.4304 4.41431C25.5125 4.43392 25.5323 4.31565 25.4428 4.31858Z" fill="white"/>
<path d="M26.4512 4.65428C26.3756 4.65691 26.3567 4.73069 26.4387 4.7503C26.5209 4.76962 26.5408 4.65164 26.4512 4.65428Z" fill="white"/>
<path d="M24.1992 7.23538C24.4878 7.05066 25.605 7.61009 24.8785 8.19295C24.2676 8.683 23.7132 7.54686 24.1992 7.23538Z" fill="#568DD1"/>
<path d="M45.9894 15.962C45.9307 13.5334 47.4983 10.5012 49.0358 10.7948C50.7306 11.1189 49.3837 14.5961 47.0551 16.6465" fill="#EA431E"/>
<path d="M45.6714 15.1419C46.8436 15.5506 48.6092 18.7342 47.9692 18.817C46.9995 18.9426 45.1949 16.9736 45.4835 15.1762" fill="#7AAE2B"/>
<path d="M45.742 15.7875C46.2445 15.647 47.5313 18.2641 47.2524 18.3824C46.6914 18.621 45.1633 15.9488 45.742 15.7875Z" fill="#99CD33"/>
<path d="M46.807 15.9997C46.9538 15.2971 49.012 11.2599 51.1019 12.461C53.1038 13.6115 51.1618 16.6019 51.1618 16.6019C51.1618 16.6019 53.8618 16.7714 53.2218 18.6813C52.5821 20.5914 48.857 19.0414 48.047 18.3607C47.1132 17.5261 46.6687 16.6649 46.807 15.9997Z" fill="#F2531B"/>
<path d="M47.9171 17.43C47.0255 16.2705 49.1239 13.6375 50.3669 14.574C51.6096 15.5105 48.8089 18.5896 47.9171 17.43Z" fill="#F9AD22"/>
<path d="M48.6987 17.9486C49.3575 17.1884 51.5217 17.4422 51.165 18.6322C50.8083 19.8228 48.0628 18.682 48.6987 17.9486Z" fill="#F9AD22"/>
<path d="M51.0163 13.1745C50.5166 12.8121 49.6723 14.048 50.3763 14.3788C50.9144 14.6318 51.6134 13.6075 51.0163 13.1745Z" fill="#F9AD22"/>
<path d="M49.4169 13.458C49.2046 13.3567 48.7631 13.8945 49.1189 14.0853C49.4744 14.2765 49.6077 13.5487 49.4169 13.458Z" fill="#F9AD22"/>
<path d="M50.3677 15.6549C50.2312 15.4503 49.7688 15.6157 49.9241 15.8303C50.0797 16.0446 50.5558 15.9366 50.3677 15.6549Z" fill="#F9AD22"/>
<path d="M45.6484 13.2918C44.4903 13.3521 43.7464 15.5003 45.7999 15.5029C47.6993 15.5053 47.2161 13.2096 45.6484 13.2918Z" fill="#8DC525"/>
<path d="M45.5046 13.4272C44.7639 13.4289 44.1606 15.0223 45.3919 15.1585C46.6234 15.2943 46.7505 13.4237 45.5046 13.4272Z" fill="#AFDB35"/>
<path d="M44.9635 14.3754C44.8485 14.407 44.6603 14.8089 44.9521 14.8321C45.2741 14.8581 45.1288 14.33 44.9635 14.3754Z" fill="#482014"/>
<path d="M45.9754 14.3678C45.892 14.4176 45.6844 14.8728 46.0191 14.8417C46.3535 14.8098 46.1289 14.277 45.9754 14.3678Z" fill="#482014"/>
<path d="M45.653 15.3335C45.5553 15.3725 45.4472 15.3769 45.3554 15.3611C45.1736 15.33 45.0374 15.2241 45.0084 15.0909C45.0031 15.0669 45.0186 15.0426 45.0424 15.0382C45.0662 15.0329 45.09 15.0481 45.0953 15.0718C45.1164 15.1681 45.2268 15.2489 45.3703 15.2735C45.5074 15.297 45.6871 15.268 45.7802 15.1175C45.7928 15.0967 45.8204 15.09 45.8418 15.1032C45.8626 15.116 45.8688 15.1433 45.8562 15.1643C45.8042 15.2481 45.732 15.3022 45.653 15.3335Z" fill="#D8303D"/>
<path d="M44.992 14.6579C44.9357 14.6801 44.9028 14.7674 44.9853 14.7603C45.0678 14.753 45.0237 14.6453 44.992 14.6579Z" fill="white"/>
<path d="M45.971 14.6925C45.9146 14.7148 45.8817 14.802 45.9645 14.795C46.047 14.7877 46.003 14.68 45.971 14.6925Z" fill="white"/>
<path d="M45.4478 13.5244C45.4026 13.5244 45.3597 13.4969 45.343 13.4521C45.0823 12.7592 43.9987 11.4614 42.9431 11.5534C42.619 11.5818 42.4017 11.7375 42.3313 11.9916C42.2614 12.2434 42.355 12.5387 42.5488 12.6787C42.7628 12.8327 42.9401 12.7691 43.027 12.7176C43.1477 12.6459 43.2102 12.5288 43.2008 12.4571C43.1985 12.4413 43.1923 12.3933 43.0989 12.3669C43.0394 12.3499 43.0047 12.2882 43.0214 12.229C43.0385 12.1696 43.1004 12.1351 43.1597 12.1517C43.3094 12.1939 43.4051 12.2946 43.4228 12.4278C43.4457 12.5993 43.33 12.7975 43.1418 12.9094C42.9169 13.0431 42.646 13.0244 42.4176 12.8596C42.1475 12.6649 42.0204 12.275 42.1152 11.9319C42.2109 11.5864 42.5056 11.3675 42.9237 11.3309C43.6074 11.2712 44.2154 11.6898 44.6047 12.0516C45.0832 12.4966 45.4258 13.0361 45.5526 13.3737C45.5746 13.4313 45.5453 13.4957 45.4871 13.5174C45.4742 13.5224 45.461 13.5244 45.4478 13.5244Z" fill="#703A20"/>
<path d="M45.9232 13.499C45.9095 13.499 45.8954 13.4964 45.8819 13.4908C45.8243 13.468 45.7964 13.4027 45.8193 13.3456C46.0953 12.6588 46.1734 10.9718 45.3314 10.3301C45.0725 10.133 44.8068 10.1017 44.5828 10.2422C44.3612 10.3813 44.2305 10.6623 44.2792 10.8956C44.3327 11.1536 44.5071 11.2259 44.606 11.2461C44.7437 11.2742 44.869 11.2297 44.9104 11.1705C44.9195 11.1574 44.9471 11.1178 44.896 11.0356C44.8635 10.9832 44.8796 10.9141 44.9322 10.8816C44.9847 10.8491 45.0537 10.8652 45.0866 10.9179C45.1682 11.0493 45.1711 11.1881 45.0942 11.2982C44.995 11.4402 44.7757 11.5089 44.5611 11.465C44.3045 11.4126 44.1172 11.2168 44.0597 10.941C43.9921 10.6158 44.1618 10.2422 44.4636 10.0531C44.768 9.86225 45.1338 9.89855 45.4673 10.1527C46.0131 10.5684 46.1784 11.2862 46.2212 11.8152C46.2738 12.4656 46.1619 13.0942 46.0275 13.4288C46.0099 13.4724 45.9679 13.499 45.9232 13.499Z" fill="#703A20"/>
<path d="M51.1953 17.2636C53.5756 17.5634 53.2952 19.4454 51.5094 19.4536C52.7007 19.0095 52.3323 17.722 51.1953 17.2636Z" fill="#F9AD22"/>
<path d="M33.0331 18.9985C33.0123 18.9985 32.9914 18.998 32.9703 18.9962C32.638 18.9704 32.3256 18.7037 32.2273 18.3618C32.1283 18.0173 32.2651 17.6771 32.603 17.4285C33.1555 17.0219 33.893 17.0635 34.4144 17.1698C35.0555 17.3006 35.6298 17.5831 35.9142 17.805C35.963 17.8431 35.9718 17.9133 35.9336 17.9619C35.8954 18.0105 35.825 18.019 35.7763 17.981C35.1918 17.5254 33.5889 16.9806 32.736 17.6083C32.4742 17.8009 32.3699 18.0468 32.4427 18.3003C32.515 18.5515 32.7492 18.755 32.9876 18.7734C33.2512 18.7936 33.369 18.6472 33.4162 18.558C33.4817 18.4341 33.4735 18.3018 33.428 18.2456C33.418 18.2333 33.3875 18.1955 33.2941 18.2216C33.2342 18.2383 33.1726 18.2037 33.1558 18.1443C33.1391 18.0849 33.174 18.0231 33.2336 18.0064C33.3834 17.9649 33.5178 18.0006 33.6024 18.1051C33.7116 18.2397 33.7163 18.469 33.6144 18.6622C33.5017 18.8759 33.2874 18.9985 33.0331 18.9985Z" fill="#744428"/>
<path d="M39.1492 17.469C39.0473 15.11 37.3302 12.5854 35.4088 13.6521C33.4874 14.7186 35.5735 18.1795 38.73 18.0533" fill="#39AF8D"/>
<path d="M36.2379 17.7358C36.1841 17.7358 36.1369 17.6972 36.1275 17.6427C36.0039 16.9132 35.1883 15.4331 34.1347 15.323C33.8106 15.2894 33.5675 15.4009 33.4498 15.6371C33.3336 15.8711 33.3688 16.1787 33.5323 16.3526C33.7129 16.5447 33.8993 16.516 33.9944 16.4817C34.1268 16.4343 34.2102 16.3312 34.2146 16.2592C34.2155 16.2431 34.2184 16.1948 34.1318 16.1512C34.0766 16.1234 34.0543 16.0564 34.0822 16.0013C34.1101 15.9463 34.1773 15.924 34.2328 15.9518C34.3713 16.0215 34.4465 16.1386 34.4383 16.2727C34.4277 16.4454 34.2765 16.6178 34.0704 16.6919C33.8241 16.7806 33.562 16.7109 33.3688 16.5054C33.141 16.263 33.0908 15.8561 33.2493 15.5379C33.4093 15.2165 33.7405 15.0572 34.1579 15.1008C34.8408 15.1723 35.3572 15.6986 35.6704 16.1278C36.0553 16.6556 36.2884 17.2502 36.3485 17.6056C36.3588 17.6665 36.3177 17.7241 36.2567 17.7344C36.2505 17.7353 36.244 17.7358 36.2379 17.7358Z" fill="#744428"/>
<path d="M37.6566 18.1014C38.6741 17.4492 42.182 18.0069 41.862 18.5464C41.3773 19.3638 38.7804 19.564 37.5703 18.2657" fill="#EAA81B"/>
<path d="M41.7621 18.436C46.6321 17.1034 43.9292 13.255 41.8085 16.4031C42.3753 15.4819 42.1687 11.6194 39.6842 12.151C37.3253 12.6557 36.9102 15.0167 38.8572 17.8847C39.2785 18.2799 40.8811 18.6769 41.7621 18.436Z" fill="#55C5A9"/>
<path d="M35.8952 17.666C35.5065 18.7556 37.2098 20.2653 38.0007 18.3756C38.7326 16.6276 36.4213 16.1911 35.8952 17.666Z" fill="#FBD039"/>
<path d="M35.9655 17.8498C35.6828 18.5322 36.9261 19.6999 37.5253 18.6185C38.1242 17.5371 36.4408 16.7013 35.9655 17.8498Z" fill="#F9F151"/>
<path d="M36.3565 18.6159C36.3415 18.7339 36.6413 19.0615 36.7748 18.8018C36.9228 18.5152 36.3779 18.4461 36.3565 18.6159Z" fill="#482014"/>
<path d="M36.7381 17.682C36.7522 17.7774 37.0942 18.1436 37.1937 17.8234C37.2927 17.5034 36.7129 17.5057 36.7381 17.682Z" fill="#482014"/>
<path d="M37.5079 18.3486C37.5064 18.4537 37.4688 18.5547 37.4192 18.6329C37.3206 18.7886 37.17 18.8732 37.0355 18.8489C37.0112 18.8445 36.9947 18.8211 37 18.7974C37.0038 18.7731 37.0276 18.7573 37.0517 18.7617C37.1486 18.7789 37.2657 18.7084 37.3438 18.5857C37.4181 18.4683 37.4606 18.2918 37.357 18.1484C37.3423 18.1288 37.3467 18.1007 37.367 18.0863C37.3869 18.072 37.4145 18.0766 37.4292 18.0963C37.487 18.1765 37.5091 18.2637 37.5079 18.3486Z" fill="#D8303D"/>
<path d="M36.6289 18.698C36.6277 18.7584 36.6959 18.8225 36.7211 18.7437C36.7458 18.665 36.6292 18.6638 36.6289 18.698Z" fill="white"/>
<path d="M37.0366 17.8098C37.0355 17.8704 37.1036 17.9342 37.1288 17.8555C37.1538 17.7767 37.0369 17.7758 37.0366 17.8098Z" fill="white"/>
<path d="M38.3615 18.5562C38.5317 18.0807 41.0136 18.5687 41.215 18.7221C41.0899 19.2989 38.1656 19.1033 38.3615 18.5562Z" fill="#FBD039"/>
<path d="M39.542 14.3889C37.8748 14.7226 39.2238 18.271 40.2768 18.1047C41.5606 17.9021 41.9904 13.8994 39.542 14.3889Z" fill="#568DD1"/>
<path d="M38.0695 15.0576C37.8381 11.5239 41.7382 11.5584 41.7027 14.632C40.7254 12.8172 38.4951 13.1384 38.0695 15.0576Z" fill="#568DD1"/>
<path d="M40.7422 18.1535C41.6364 17.8242 42.5908 15.6108 43.3262 16.1529C44.1133 16.7331 42.5873 18.4589 40.7422 18.1535Z" fill="#568DD1"/>
<path d="M15.0673 53.4893C16.2717 51.6008 15.0644 50.184 13.981 49.5906C14.0458 50.0048 13.981 50.4782 13.981 50.4782C13.4731 49.472 12.6675 49.3848 11.701 48.174C10.9462 49.2662 10.5298 50.8622 10.8151 52.0719C10.4915 51.667 10.295 51.3634 10.347 50.595C9.25328 52.7507 10.3379 56.1059 13.8816 55.4496" fill="#EF6119"/>
<path d="M13.3742 55.1452C12.1295 55.6482 9.87857 54.7009 10.2332 51.5708C10.4409 52.3677 11.342 52.9312 11.342 52.9312C10.7346 51.4836 10.7631 50.6253 11.342 49.2953C11.3293 51.245 12.0947 52.6619 12.8526 52.9877C12.5742 53.2251 11.7853 52.7509 11.7853 52.7509C11.6844 53.2553 12.6622 54.2579 13.9351 54.1681" fill="#FCE79D"/>
<path d="M24.8462 31.5522C24.3923 29.3397 24.9253 27.1523 19.7705 25.9693C14.6167 24.791 11.5365 21.9537 14.5581 16.4604C15.2684 15.0988 17.7561 15.5731 16.987 17.3462C16.217 19.1161 14.676 21.9625 18.7641 23.6124C17.9926 22.2479 17.9926 19.8275 19.0004 18.9405C19.6667 18.3535 20.9847 18.7318 20.5797 20.122C20.1758 21.5123 20.4812 24.0808 22.4374 24.6707C22.0228 23.3706 23.7239 21.341 24.5699 21.6589C25.991 22.1876 24.2833 23.5823 24.3328 24.6707C24.3923 25.9661 27.0313 28.1564 26.8078 31.0508" fill="#753419"/>
<path d="M35.1855 31.5522C35.6394 29.3397 35.1063 27.1523 40.2614 25.9693C45.4142 24.791 48.4952 21.9537 45.4743 16.4604C44.7633 15.0988 42.2747 15.5731 43.0447 17.3462C43.8154 19.1161 45.8349 22.1016 40.4094 23.75C41.1794 22.3855 41.5866 19.9862 40.2209 19.0432C39.4905 18.5394 38.2372 18.8345 38.6429 20.2251C39.0463 21.615 39.5492 24.0808 37.5949 24.6707C38.0091 23.3706 36.3085 21.341 35.4609 21.6589C34.0397 22.1876 35.7477 23.5823 35.699 24.6707C35.6394 25.9661 33.0002 28.1564 33.2239 31.0508" fill="#753419"/>
<path d="M22.0759 74.9655C23.0065 75.2176 23.6694 77.2244 22.6455 77.8444C22.3627 77.9091 21.963 77.0774 21.963 77.0774C21.963 77.0774 22.2331 78.0654 22.0535 78.1541C21.1279 78.612 17.4745 77.3016 19.0605 74.5027" fill="#761E19"/>
<path d="M22.572 62.9137C22.5398 63.8447 19.72 65.8473 19.7793 67.03C19.8375 68.2127 21.6129 74.1912 22.1686 74.9309C22.7255 75.6698 19.5805 75.9157 18.8364 74.9309C18.0894 73.9447 18.7761 73.7588 18.588 72.5263C18.4004 71.2936 17.4421 68.03 16.7624 67.3512C16.0828 66.6726 16.0828 65.3172 17.1329 64.208C18.1841 63.0982 18.4312 60.5088 18.4312 60.5088" fill="#EF6119"/>
<path d="M36.7687 76.3794C37.7254 76.5023 38.6528 78.4014 37.721 79.1567C37.4492 79.2556 36.9401 78.4871 36.9401 78.4871C36.9401 78.4871 37.399 79.4271 37.1744 79.541C36.119 80.0759 32.5228 79.31 33.7179 76.322" fill="#761E19"/>
<path d="M28.4802 61.4037C28.0691 62.5507 29.7573 67.1711 30.8083 68.0271C31.8599 68.8795 30.8685 69.3872 31.5446 70.2276C32.2201 71.0699 32.979 74.8182 32.8208 75.4938C32.6622 76.1724 34.5109 78.5202 36.6977 76.947C37.1506 76.6229 36.5177 76.0855 35.676 74.0228C34.8347 71.9601 34.1997 70.492 34.2754 69.6723C34.3511 68.8523 34.0916 68.3283 33.6249 67.6453C33.1581 66.9609 34.1459 64.5905 33.4114 61.4769" fill="#EF6119"/>
<path d="M32.4116 59.69C33.4711 60.3618 33.8231 64.9734 33.262 67.544C32.9688 68.7455 32.443 68.0566 31.7939 67.1661C31.0195 66.1028 28.7217 61.4058 30.085 60.1739" fill="#F68A2E"/>
<path d="M14.9077 60.5091C18.4929 59.4625 21.211 65.6251 28.2567 64.7638C34.4333 64.0039 35.3005 59.2157 34.6218 55.6422C34.0434 52.602 33.3858 48.5569 34.4365 45.7208H27.3291C28.6278 46.5838 29.6777 53.7962 26.7728 54.4115C23.8689 55.0266 20.3332 49.2472 15.0333 52.5979C12.8565 53.9712 12.6635 56.0523 12.9617 58.0196C13.3246 60.416 14.9077 60.5091 14.9077 60.5091Z" fill="#EF6119"/>
<path d="M29.1756 51.3782C29.0675 53.8378 27.7706 55.7495 25.2719 54.6028C22.7732 53.4561 19.6698 50.9803 16.5219 52.1124C13.3741 53.2441 17.0906 56.9764 21.8882 59.0112C26.6859 61.0473 30.5608 60.0569 31.0475 56.2053C31.5345 52.3536 29.1756 51.3782 29.1756 51.3782Z" fill="#F68A2E"/>
<path d="M29.5769 45.899C30.6416 49.9761 31.6671 59.9765 28.4955 61.6736C25.1251 63.4751 20.9254 59.6328 18.2744 59.6328C15.6239 59.6328 17.3822 61.1212 18.8879 61.6463C20.394 62.1733 23.9073 65.7948 29.299 64.7026C34.6894 63.6127 34.8561 60.0447 34.7781 56.179C34.7129 52.9518 33.2089 49.1476 34.6004 45.1906" fill="#E8C670"/>
<path d="M29.1554 78.642C30.0471 79.0094 30.456 81.0814 29.3625 81.5706C29.0735 81.6007 28.7806 80.7225 28.7806 80.7225C28.7806 80.7225 29.0432 81.7421 28.7346 81.8033C27.1902 82.1113 24.2979 80.3876 26.2221 77.8056" fill="#761E19"/>
<path d="M23.8679 60.9379C23.268 62.0008 24.1441 67.5495 25.0347 68.5703C25.9242 69.5867 24.8624 69.9202 25.3846 70.864C25.9072 71.8066 25.8936 76.165 25.5676 76.7792C25.2409 77.3913 26.4236 80.1326 28.9405 79.1765C29.4639 78.9754 28.9886 78.2953 28.7059 76.0854C28.4242 73.8757 27.9569 71.5724 28.1706 70.7782C28.3835 69.9843 28.2187 69.4228 27.8749 68.6725C27.5316 67.9201 29.8429 63.298 28.1405 60.2534" fill="#EF6119"/>
<path d="M22.3915 33.5597C21.6399 35.6706 21.6709 39.0267 21.057 40.9846C19.8964 44.6846 23.2626 47.2411 26.8286 48.0134C28.6563 48.4095 29.9924 49.0166 31.0839 49.0166C32.2881 49.0166 33.7307 48.2754 35.6213 47.7104C38.8465 46.7478 41.5206 44.234 40.3502 40.9846C39.3943 38.3273 39.9776 36.5773 38.803 33.5597C36.1906 26.8508 24.8844 26.5674 22.3915 33.5597Z" fill="#EF6119"/>
<path d="M30.4823 29.0742C25.3784 29.0818 23.8471 32.0848 23.2519 35.2657C22.6565 38.4464 23.8657 40.4687 22.7928 41.8364C21.1255 43.9617 24.4471 47.6889 30.8883 47.7311C37.3293 47.7735 40.7743 43.9617 38.8603 41.5817C37.3425 39.6949 38.5018 36.4156 37.253 33.2786C36.16 30.5314 34.0677 29.0686 30.4823 29.0742Z" fill="#F68A2E"/>
<path d="M33.7623 48.6702C36.5656 47.4518 36.5104 43.4558 30.9023 43.4558C25.295 43.4558 25.5702 47.4518 28.3736 48.6702C30.1969 49.4644 31.9049 49.4794 33.7623 48.6702Z" fill="#FAD483"/>
<path d="M29.7553 43.7256C28.2651 43.9381 26.8853 46.1718 29.0275 47.3544C31.1695 48.5368 33.8278 47.8395 34.3559 46.2066C34.8843 44.5742 32.8008 43.2914 29.7553 43.7256Z" fill="#FCE79D"/>
<path d="M32.5171 29.7697C33.2102 26.4851 29.3824 25.8153 28.02 26.0196C28.7013 26.0196 29.3823 27.0387 29.3823 27.0387C27.8845 26.4262 25.9765 26.6034 25.1596 27.7041C27.2034 27.2401 28.3376 27.7041 28.3376 27.7041C26.2509 28.0387 24.8872 29.6148 25.1596 30.7378C25.7731 29.9588 28.2249 29.4831 29.2471 29.8236" fill="#EF6119"/>
<path d="M29.3886 43.2109C28.4199 43.7993 29.5627 44.7627 30.9454 44.7627C32.3281 44.7627 33.5978 43.811 32.6561 43.2109C31.9048 42.7316 30.218 42.7094 29.3886 43.2109Z" fill="#761E19"/>
<path d="M14.4143 76.6709C15.3204 77.0008 15.8144 79.0544 14.7432 79.589C14.4549 79.6279 14.1244 78.7667 14.1244 78.7667C14.1244 78.7667 14.3752 79.7526 14.1244 79.8446C13.3379 80.1326 9.63377 78.6165 11.4462 75.9592" fill="#761E19"/>
<path d="M19.7749 58.7913C19.7793 64.6655 17.0558 65.1324 15.573 66.6998C14.0909 68.2674 14.2287 74.1446 14.7233 77.0398C14.2911 77.717 12.3757 77.2246 11.9418 76.7307C11.51 76.2401 11.0146 75.5 11.6332 74.3902C12.2514 73.2816 12.5598 67.4129 12.1284 66.1172C11.6943 64.8236 12.714 64.4252 13.5489 63.2606C14.1045 62.4813 12.3757 59.2778 12.9144 56.3354" fill="#EF6119"/>
<path d="M19.4123 59.935C19.3159 61.5884 18.8115 64.1654 16.7053 65.6148C15.4356 66.4887 14.4999 65.4889 15.1178 64.907C16.4172 63.6824 11.7538 55.2997 15.5051 52.8555C17.8078 51.3558 19.642 55.9911 19.4123 59.935Z" fill="#F68A2E"/>
<path d="M20.2045 52.4506C18.9209 51.991 18.9895 52.6095 20.2309 53.3812C21.472 54.1546 21.4872 52.9114 20.2045 52.4506Z" fill="#FCE79D"/>
<path d="M23.8227 54.8413C22.9766 54.4259 21.8008 55.2515 23.5772 55.9693C25.3545 56.6851 25.3875 55.6148 23.8227 54.8413Z" fill="#FCE79D"/>
<path d="M20.5905 54.935C19.8522 54.5462 19.3449 55.1797 20.3003 55.7579C21.2539 56.3372 22.307 55.8434 20.5905 54.935Z" fill="#FCE79D"/>
<path d="M17.8349 52.5647C16.9362 52.1531 16.4416 52.8381 17.6588 53.4561C18.8774 54.0747 18.9853 53.0914 17.8349 52.5647Z" fill="#FCE79D"/>
<path d="M26.3174 54.9157C25.7258 54.6016 25.216 55.2441 26.142 55.6376C27.0671 56.031 27.3388 55.4561 26.3174 54.9157Z" fill="#FCE79D"/>
<path d="M23.4705 56.8101C23.0505 56.672 22.3708 56.9606 23.2838 57.3986C24.1992 57.8365 24.1729 57.0353 23.4705 56.8101Z" fill="#FCE79D"/>
<path d="M33.6135 42.7559C32.8599 41.9251 32.7407 36.2971 34.6143 35.012C36.4876 33.7274 39.5809 37.4558 39.3258 40.1731C39.0707 42.8906 35.1838 44.4887 33.6135 42.7559Z" fill="#FCE79D"/>
<path d="M34.1385 42.49C33.6911 41.8688 33.739 38.2247 35.156 37.9141C37.6678 37.3625 38.3213 40.3582 38.1666 40.9996C37.7653 42.6691 34.4838 42.9692 34.1385 42.49Z" fill="#F9A7B6"/>
<path d="M34.2095 42.4012C33.8146 41.8531 33.8046 38.5852 34.9983 38.3136C37.1458 37.8247 37.9202 40.4486 37.7843 41.015C37.4293 42.489 34.5145 42.8245 34.2095 42.4012Z" fill="white"/>
<path d="M34.4983 41.0023C34.2274 40.9587 34.0794 41.5105 34.4343 41.5246C34.7895 41.5389 34.7056 41.0354 34.4983 41.0023Z" fill="white"/>
<path d="M37.6437 38.9284C38.2417 40.1732 38.6057 41.7309 35.9756 42.5107C38.2998 42.1653 38.7049 40.4466 38.0059 38.7803" fill="#83371B"/>
<path d="M35.7771 37.8766C37.424 37.746 37.8045 40.7572 35.8305 41.364C34.0022 41.9267 33.8592 40.4094 34.1296 39.4796C34.535 38.0876 35.7771 37.8766 35.7771 37.8766Z" fill="#41ADC1"/>
<path d="M35.7774 37.8772C37.3395 37.9773 36.5034 40.4955 35.0458 40.1006C33.4024 39.6553 34.6023 37.802 35.7774 37.8772Z" fill="#1A3E51"/>
<path d="M34.3985 39.7706C34.7023 39.7217 34.8679 40.34 34.4704 40.3561C34.0726 40.3719 34.1666 39.8078 34.3985 39.7706Z" fill="white"/>
<path d="M33.9312 40.2573C34.3926 38.0831 35.7859 37.2025 37.6533 38.9283C38.5681 38.959 38.741 37.7066 38.741 37.7066C38.4513 38.4886 37.9002 38.2465 37.9002 38.2465C36.5348 36.9031 34.225 37.1812 33.9312 40.2573Z" fill="#512214"/>
<path d="M37.3849 40.9399C37.5878 40.5269 36.594 39.699 36.4161 40.098C36.2388 40.4967 37.1815 41.353 37.3849 40.9399Z" fill="white"/>
<path d="M28.0794 42.7559C28.8329 41.9251 28.9521 36.2971 27.0785 35.012C25.2048 33.7274 22.1118 37.4558 22.3669 40.1731C22.6219 42.8906 26.5088 44.4887 28.0794 42.7559Z" fill="#FCE79D"/>
<path d="M27.5539 42.49C28.0013 41.8688 27.9537 38.2247 26.5366 37.9141C24.0246 37.3625 23.3713 40.3582 23.5257 40.9996C23.9273 42.6691 27.2086 42.9692 27.5539 42.49Z" fill="#F9A7B6"/>
<path d="M27.4828 42.4012C27.8778 41.8531 27.8876 38.5852 26.6939 38.3136C24.5462 37.8247 23.7719 40.4486 23.9082 41.015C24.2629 42.489 27.1779 42.8245 27.4828 42.4012Z" fill="white"/>
<path d="M24.0493 38.9284C23.4512 40.1732 23.0872 41.7309 25.7175 42.5107C23.3932 42.1653 22.9882 40.4466 23.6873 38.7803" fill="#83371B"/>
<path d="M25.8483 37.8475C24.3607 37.6663 23.8826 40.7536 25.8593 41.3456C27.6901 41.8939 27.8315 40.3936 27.5613 39.4679C27.1572 38.0829 25.8483 37.8475 25.8483 37.8475Z" fill="#41ADC1"/>
<path d="M26.0629 37.8498C24.6965 37.6838 24.9233 40.1388 26.4261 40.0395C27.9231 39.9406 27.6594 38.0433 26.0629 37.8498Z" fill="#1A3E51"/>
<path d="M27.2943 39.7706C26.9907 39.7217 26.8251 40.34 27.2228 40.3561C27.6205 40.3719 27.5265 39.8078 27.2943 39.7706Z" fill="white"/>
<path d="M27.7616 40.2573C27.3001 38.0831 25.9068 37.2025 24.0393 38.9283C23.1244 38.959 22.9517 37.7066 22.9517 37.7066C23.2415 38.4886 23.7924 38.2465 23.7924 38.2465C25.1577 36.9031 27.4676 37.1812 27.7616 40.2573Z" fill="#512214"/>
<path d="M24.3085 40.9399C24.1054 40.5269 25.0992 39.699 25.277 40.098C25.4545 40.4967 24.5119 41.353 24.3085 40.9399Z" fill="white"/>
<path d="M32.1507 30.0498C33.1075 28.428 31.5128 26.6466 29.8541 26.5512C31.0983 26.901 31.1467 28.9552 31.1467 28.9552C30.0135 27.6326 28.1019 27.8677 26.4263 29.277C28.4186 28.5231 29.4713 29.2866 29.8221 30.0498" fill="#F68A2E"/>
<path d="M27.3235 59.6902C28.272 60.5107 28.3392 66.642 27.4035 69.1016C26.9356 70.2469 26.0228 68.1151 25.6553 66.8534C25.2877 65.5916 23.8361 60.7081 25.3672 59.6902" fill="#F68A2E"/>
<path d="M27.0786 68.7381C26.0807 68.8742 26.0618 70.6245 26.9692 70.6245C27.8766 70.6245 28.4171 68.5557 27.0786 68.7381Z" fill="#F68A2E"/>
<path d="M27.3237 71.8618C26.5626 71.7107 26.8558 76.8662 27.3237 78.8171C28.2159 79.3581 28.8972 78.5202 28.8972 78.5202C28.8947 77.2647 27.7489 71.9467 27.3237 71.8618Z" fill="#F68A2E"/>
<path d="M32.8324 67.5848C31.8636 67.8609 32.1449 69.7101 33.0423 69.5761C33.9401 69.4426 34.1206 67.218 32.8324 67.5848Z" fill="#F68A2E"/>
<path d="M33.5335 70.1157C32.7584 70.0782 33.8118 75.1336 34.5636 76.9946C35.5259 77.398 36.3694 76.571 36.3694 76.571C35.8694 75.2551 33.9665 70.137 33.5335 70.1157Z" fill="#F68A2E"/>
<path d="M19.2704 67.8927C18.4211 67.8992 19.1045 71.8922 20.221 75.3331C20.9227 75.4344 21.6711 75.363 21.8476 75.0211C21.1141 73.3671 19.7233 67.8892 19.2704 67.8927Z" fill="#F68A2E"/>
<path d="M14.2668 68.3844C13.472 68.0861 12.6357 72.958 12.438 76.5693C12.9711 77.1088 14.3094 77.2268 14.4992 76.8518C13.8216 73.4735 14.6909 68.5437 14.2668 68.3844Z" fill="#F68A2E"/>
<path d="M30.6853 51.0432C31.1137 52.9373 31.0047 57.1511 30.2946 59.3993C30.1672 61.4775 33.4854 62.6591 34.2267 60.8663C34.8159 59.44 35.3792 57.4447 34.0946 52.4399C33.4481 51.675 30.6853 51.0432 30.6853 51.0432Z" fill="#FCE79D"/>
<path d="M14.862 52.0883C15.6686 51.9428 15.4002 50.4998 14.3976 49.9263C14.3197 50.6887 14.1569 52.215 14.862 52.0883Z" fill="#F68A2E"/>
<path d="M14.1928 52.4398C14.7989 51.8025 14.0971 50.5955 13.1083 49.9266C12.1194 49.2577 11.7368 48.5577 11.7368 48.5577C11.3558 49.772 11.6635 53.3631 14.0126 52.4398" fill="#F68A2E"/>
<path d="M31.5976 43.1353C31.1264 43.0241 31.0078 43.501 31.4863 43.6125C31.9646 43.7235 32.6201 43.3763 31.5976 43.1353Z" fill="#EA5939"/>
<path d="M44.431 16.0191C43.3424 16.1742 44.0162 17.6415 44.8775 19.0089C45.7388 20.3769 45.2283 21.5537 45.0689 22.1263C44.9095 22.6986 45.5515 23.1758 46.2673 21.6172C46.9827 20.0587 45.836 15.8191 44.431 16.0191Z" fill="#AD511E"/>
<path d="M16.459 16.2102C15.2811 15.4391 14.3201 18.1476 14.1608 19.6916C14.0012 21.2355 15.3163 22.802 15.8833 22.3488C16.4501 21.8953 14.8624 21.0446 15.4684 19.518C16.0746 17.991 17.577 16.9415 16.459 16.2102Z" fill="#AD511E"/>
<path d="M39.6345 19.1115C38.9117 19.2032 39.5071 22.0697 40.145 22.1013C40.783 22.1332 41.3889 18.8887 39.6345 19.1115Z" fill="#AD511E"/>
<path d="M19.463 19.2513C18.722 19.0236 17.7332 21.2352 18.9135 21.6489C20.0936 22.0623 20.4592 19.5575 19.463 19.2513Z" fill="#AD511E"/>
<path d="M38.7412 34.749C39.715 31.3279 42.7082 30.3967 45.7006 31.1049C46.416 31.3183 47.0951 31.1851 47.4162 31.4117C47.738 31.6359 46.498 39.7221 39.2106 37.4592" fill="#EF6119"/>
<path d="M40.1899 36.0425C41.0078 33.0752 43.5957 32.3688 46.2854 32.4602C45.594 34.9836 43.5381 38.1971 40.1899 36.0425Z" fill="#F1475D"/>
<path d="M45.703 31.4359C43.1982 30.3276 39.4705 31.3899 40.3042 34.0557C42.4276 31.8238 45.703 31.4359 45.703 31.4359Z" fill="#F68A2E"/>
<path d="M45.9956 32.8795C45.9404 33.4527 44.3977 36.9926 41.9558 35.8356C41.8627 34.3564 43.559 32.3707 45.9956 32.8795Z" fill="#F4697F"/>
<path d="M22.6099 34.749C21.6361 31.3279 18.6426 30.3967 15.6504 31.1049C14.935 31.3183 14.2561 31.1851 13.9348 31.4117C13.6131 31.6359 14.853 39.7221 22.1403 37.4592" fill="#EF6119"/>
<path d="M21.1602 36.0425C20.3424 33.0752 17.7545 32.3688 15.0649 32.4602C15.7563 34.9836 17.812 38.1971 21.1602 36.0425Z" fill="#F1475D"/>
<path d="M15.6479 31.4359C18.1525 30.3276 21.8805 31.3899 21.0468 34.0557C18.9234 31.8238 15.6479 31.4359 15.6479 31.4359Z" fill="#F68A2E"/>
<path d="M15.355 32.8795C15.4104 33.4527 16.953 36.9926 19.3948 35.8356C19.488 34.3564 17.7917 32.3707 15.355 32.8795Z" fill="#F4697F"/>
<path d="M36.4568 77.3911C35.611 77.7395 35.5497 79.1438 35.8987 79.4734C36.522 79.6933 36.9858 79.3996 37.0944 79.2448C37.2668 78.9995 36.8232 78.2126 36.8232 78.2126C36.8232 78.2126 37.5618 78.9523 37.7638 78.8993C37.9678 78.7576 38.0788 78.3065 38.0054 78.0106C37.9317 77.7146 37.4696 76.974 36.4568 77.3911Z" fill="#954026"/>
<path d="M28.5158 79.5179C27.6166 79.686 27.2674 81.0472 27.5413 81.4418C28.106 81.7843 28.6205 81.5923 28.7586 81.4629C28.9777 81.2577 28.7053 80.397 28.7053 80.397C28.7053 80.397 29.276 81.2712 29.485 81.2615C29.7134 81.1649 29.9151 80.7457 29.9042 80.4415C29.893 80.1365 29.5933 79.3168 28.5158 79.5179Z" fill="#954026"/>
<path d="M13.8159 77.5574C12.9168 77.7252 12.5677 79.0867 12.8416 79.481C13.4062 79.8233 13.9208 79.6315 14.059 79.5018C14.278 79.2966 14.0057 78.4365 14.0057 78.4365C14.0057 78.4365 14.5763 79.311 14.7851 79.3004C15.0138 79.2038 15.2154 78.7849 15.2043 78.4804C15.1932 78.1757 14.8934 77.3563 13.8159 77.5574Z" fill="#954026"/>
<path d="M21.6866 75.853C20.7875 76.0211 20.4383 77.3829 20.7121 77.7769C21.2769 78.1192 21.7913 77.9274 21.9296 77.7977C22.1487 77.5928 21.8763 76.7321 21.8763 76.7321C21.8763 76.7321 22.4469 77.6069 22.6556 77.5966C22.8844 77.4997 23.086 77.0808 23.075 76.7766C23.0639 76.4716 22.7639 75.6519 21.6866 75.853Z" fill="#954026"/>
<path d="M27.4161 35.3125C26.2864 34.6067 24.2613 35.5572 23.8335 36.3491C24.9517 34.2106 26.2896 33.9688 27.4161 35.3125Z" fill="#512214"/>
<path d="M34.3428 35.3125C35.4721 34.6067 37.4975 35.5572 37.9249 36.3491C36.8067 34.2106 35.4689 33.9688 34.3428 35.3125Z" fill="#512214"/>
<path d="M28.708 45.1278C29.2687 45.7168 32.3487 45.92 33.4604 45.1278C33.6721 45.326 32.7984 45.7221 32.6135 45.8011C32.4279 45.8805 32.2433 47.5439 31.2366 47.5728C30.1877 47.6033 29.9047 45.9299 29.5022 45.8011C28.8165 45.5822 28.6534 45.2358 28.708 45.1278Z" fill="#761E19"/>
<path d="M30.1719 46.4333C30.4948 46.2456 30.9986 46.4333 31.1371 46.5677C31.4774 46.3396 31.945 46.2571 32.1235 46.4611C31.9362 47.7972 30.5218 47.7755 30.1719 46.4333Z" fill="#DF3351"/>
<path d="M13.8625 80.9546C12.0378 79.6829 7.40447 78.6545 7.45153 82.2216C8.06066 80.9297 13.7228 81.4411 13.7228 81.4411C10.9973 81.8834 7.9523 82.4511 9.16158 85.6994C10.77 85.7942 13.0461 82.1018 14.1123 81.5149" fill="#B4DD2A"/>
<path d="M15.0737 81.131C16.7929 81.1878 17.5294 82.8371 17.0408 83.1588C16.2963 83.6492 15.4809 81.6658 14.6779 81.5517C15.545 82.2481 15.7177 83.9645 14.422 83.7426C13.1266 83.5207 14.1035 81.5364 14.1035 81.5364C13.4449 81.9334 12.6779 83.2393 11.7476 82.7364C10.9638 82.3131 11.3597 81.1667 14.0082 81.1497C12.8433 80.7194 10.5375 81.068 10.9031 80.2931C11.2685 79.518 12.9268 79.5783 14.2342 80.8625C13.9443 79.4641 15.674 79.4954 16.1546 80.28C16.3903 80.6655 15.1667 80.8889 15.0737 81.131Z" fill="#F7F67E"/>
<path d="M14.5956 80.9155C14.1745 80.7226 13.8376 81.148 14.4052 81.4009C14.9729 81.6535 15.025 81.1122 14.5956 80.9155Z" fill="#F3691F"/>
<path d="M16.4296 78.1242C16.0248 78.1242 16.0248 78.6924 16.4296 78.6924C16.8344 78.6924 16.8344 78.1242 16.4296 78.1242Z" fill="#F7F67E"/>
<path d="M17.3194 80.1344C16.5316 80.1344 16.5316 81.2422 17.3194 81.2422C18.1071 81.2422 18.1071 80.1344 17.3194 80.1344Z" fill="#F7F67E"/>
<path d="M6.39358 77.0256C5.60578 77.0256 5.60578 78.1333 6.39358 78.1333C7.18126 78.1333 7.18126 77.0256 6.39358 77.0256Z" fill="#F7F67E"/>
<path d="M40.0864 74.1699C41.4169 73.9849 42.191 75.3213 41.8546 75.6682C41.3438 76.1978 40.446 74.4337 39.8137 74.443C40.5685 74.9325 40.9166 76.4047 39.8918 76.388C38.8672 76.3725 39.3698 74.5086 39.3698 74.5086C38.7583 74.9662 38.2398 76.0037 37.5787 75.7589C36.9173 75.5142 37.2787 74.6354 39.248 74.1846C38.2977 73.9688 36.5671 74.5885 36.7509 73.8625C36.9349 73.1365 38.2184 72.9629 39.3859 73.9032C39.1267 73.138 40.5021 73.4436 40.732 73.7472C40.9615 74.0511 40.1278 73.9457 40.0864 74.1699Z" fill="#F7F67E"/>
<path d="M39.6929 73.9384C40.0981 74.0063 40.1415 74.5467 39.5993 74.4492C39.0568 74.3517 39.2802 73.8696 39.6929 73.9384Z" fill="#F3691F"/>
<path d="M39.2834 71.999C39.8638 71.9135 39.9707 72.8383 39.3903 72.9241C38.8093 73.0099 38.7025 72.0848 39.2834 71.999Z" fill="#F7F67E"/>
<path d="M40.7134 72.8535C40.9459 72.819 40.9885 73.1896 40.7562 73.2238C40.5237 73.2581 40.4812 72.8878 40.7134 72.8535Z" fill="#F7F67E"/>
<path d="M22.5074 82.5109C23.8377 82.3259 24.612 83.6623 24.2757 84.0095C23.7648 84.5388 22.8669 82.7747 22.2347 82.7844C22.9895 83.2735 23.3377 84.7457 22.3127 84.7294C21.2882 84.7135 21.7907 82.8496 21.7907 82.8496C21.1792 83.3072 20.6609 84.3447 19.9997 84.1C19.3385 83.8555 19.6997 82.9767 21.6691 82.5256C20.7186 82.3101 18.988 82.9296 19.1717 82.2035C19.3559 81.4775 20.6394 81.3039 21.8069 82.2445C21.5477 81.479 22.9231 81.7846 23.1531 82.0882C23.3826 82.3924 22.5488 82.287 22.5074 82.5109Z" fill="#F7F67E"/>
<path d="M22.1138 82.2797C22.5188 82.3474 22.5625 82.8878 22.0201 82.7906C21.4778 82.6931 21.701 82.2107 22.1138 82.2797Z" fill="#F3691F"/>
<path d="M21.7038 80.3401C22.2841 80.2543 22.391 81.1794 21.8107 81.2649C21.2298 81.3509 21.1228 80.4256 21.7038 80.3401Z" fill="#F7F67E"/>
<path d="M23.1344 81.1943C23.3667 81.1601 23.4095 81.5304 23.1772 81.5647C22.9447 81.5989 22.9019 81.2286 23.1344 81.1943Z" fill="#F7F67E"/>
<path d="M43.205 82.1282C43.1601 80.4236 45.4761 77.7848 46.8415 78.6167C44.0282 76.3383 42.0812 79.7119 42.3413 82.0006C42.4914 80.3486 41.1486 77.4314 38.9095 78.4528C36.6707 79.4751 41.5208 80.8164 41.7451 82.3276C40.1404 81.5723 37.1557 80.9924 36.708 83.7852C37.3427 83.3317 40.867 83.5363 42.1558 82.272" fill="#B4DD2A"/>
<path d="M41.7453 82.3276C39.6744 82.3428 38.7247 84.3036 39.3016 84.7055C40.1779 85.3188 41.2412 82.7556 42.2115 82.6426C41.1417 83.4544 40.869 85.5132 42.4363 85.2864C44.0031 85.0607 42.9031 82.6426 42.9031 82.6426C43.9209 83.1385 44.8985 84.4371 45.8682 83.9746C46.8382 83.512 46.1289 82.3964 43.032 82.18C44.45 81.6991 47.211 82.1909 46.8012 81.2468C46.3905 80.3021 44.3933 80.3234 42.7713 81.8276C43.0329 80.7415 40.9799 81.4289 40.6814 81.8852C40.3834 82.3419 41.6422 82.0331 41.7453 82.3276Z" fill="#F7F67E"/>
<path d="M42.3066 81.9363C41.6983 82.1087 41.7268 82.8476 42.5406 82.6079C43.354 82.3678 42.9269 81.7607 42.3066 81.9363Z" fill="#F3691F"/>
<path d="M42.894 79.1939C41.9898 79.1939 41.9898 80.4653 42.894 80.4653C43.7993 80.4653 43.7993 79.1939 42.894 79.1939Z" fill="#F7F67E"/>
<path d="M41.3175 76.9047C40.7744 76.9047 40.7744 77.667 41.3175 77.667C41.8594 77.667 41.8594 76.9047 41.3175 76.9047Z" fill="#F7F67E"/>
<path d="M39.6211 80.7946C39.2591 80.7946 39.2591 81.3037 39.6211 81.3037C39.9831 81.3037 39.9831 80.7946 39.6211 80.7946Z" fill="#F7F67E"/>
<path d="M5.01025 78.9394C4.64828 78.9394 4.64828 79.4487 5.01025 79.4487C5.37243 79.4487 5.37243 78.9394 5.01025 78.9394Z" fill="#F7F67E"/>
<path d="M8.24741 79.5489C7.58136 79.9195 8.26764 80.637 8.79299 80.4154C9.31833 80.1938 9.11627 79.0653 8.24741 79.5489Z" fill="#F7F67E"/>
</svg>
