<svg width="88" height="62" viewBox="0 0 88 62" fill="none" xmlns="http://www.w3.org/2000/svg">
<path d="M24.5571 36.3152C18.0589 37.0176 11.751 35.0273 10.302 35.2322C9.60521 35.3307 10.0971 36.1108 10.9461 36.6814C8.60435 36.0225 3.33554 35.7883 3.01345 36.5494C2.6916 37.3104 5.91133 38.5398 8.04826 39.0959C4.91616 38.5983 0.756332 38.9722 0.144936 39.7985C-0.938099 41.2619 10.0386 44.8037 20.9277 44.5112C24.4986 42.111 26.1915 36.1386 24.5571 36.3152Z" fill="#3D4648"/>
<path d="M10.359 36.5383C10.5696 36.5836 10.7665 36.6317 10.9463 36.6822C10.0972 36.1115 9.60536 35.3315 10.3021 35.2329C10.5072 35.2038 10.8097 35.2188 11.1962 35.2639C10.7762 35.4903 10.9156 35.7853 11.1379 35.9729C12.76 37.0186 14.1137 37.4072 16.1377 37.7962C14.2366 37.9592 12.1638 37.1709 10.359 36.5383Z" fill="#2E3232"/>
<path d="M6.00385 37.2063C8.18858 38.6399 10.9151 39.3235 14.502 40.168C11.7809 40.1721 9.23088 39.2962 6.31707 38.9119C6.90934 38.9477 7.49456 39.0082 8.04791 39.0961C5.91098 38.54 2.69125 37.3106 3.01311 36.5497C3.20659 36.0921 5.18714 35.9942 7.24485 36.1322C6.13906 36.1524 5.5263 36.7887 6.00385 37.2063Z" fill="#2E3232"/>
<path d="M0.145275 39.7985C0.496498 39.3239 2.01885 38.9989 3.84439 38.9021C2.52599 39.1757 2.6414 40.0685 2.99149 40.3018C5.84361 42.1717 18.4009 44.1409 22.8628 42.6834C22.3037 43.3859 21.6548 44.0225 20.9278 44.5112C10.0389 44.8037 -0.937757 41.2619 0.145275 39.7985Z" fill="#2E3232"/>
<path d="M20.9051 44.4403C20.4901 44.4514 20.0654 44.4569 19.6422 44.4569C9.82119 44.4569 0.906763 41.6098 0.18861 40.1848C0.122828 40.0546 0.127611 39.9422 0.202499 39.8409C0.58741 39.3208 2.60165 38.9434 4.99192 38.9434C6.06539 38.9434 7.11838 39.0206 8.03707 39.1665L8.06643 39.0269C5.93269 38.4715 3.42656 37.4595 3.09764 36.7923C3.05803 36.712 3.05211 36.6417 3.07943 36.5772C3.16775 36.3685 3.87975 36.1457 5.61379 36.1457C7.44752 36.1457 9.68188 36.3999 10.927 36.7502L11.3563 36.8709L10.9862 36.6221C10.3923 36.2231 9.98872 35.7291 10.0477 35.473C10.0684 35.382 10.1574 35.3249 10.3122 35.3028C10.3789 35.2934 10.4594 35.2887 10.5519 35.2887C11.09 35.2887 12.0137 35.4473 13.183 35.6479C15.3706 36.0232 18.3666 36.5374 21.6394 36.5374C22.6523 36.5374 23.6366 36.4866 24.565 36.3863C24.8038 36.3601 24.9663 36.4848 25.0494 36.7575C25.4566 38.0932 23.7952 42.485 20.9051 44.4403ZM19.6422 44.5996C20.0738 44.5996 20.507 44.5939 20.9297 44.5825L20.9504 44.5821L20.9677 44.5705C23.9709 42.5517 25.6151 38.1235 25.186 36.7159C25.066 36.3225 24.8157 36.2401 24.6265 36.2401C24.6017 36.2401 24.5762 36.2415 24.5498 36.2442C23.6263 36.3442 22.6473 36.3947 21.6394 36.3947C18.3787 36.3947 15.3898 35.8816 13.2073 35.5072C11.8161 35.2686 10.7715 35.0938 10.2924 35.1614C10.0192 35.2001 9.93272 35.3349 9.90837 35.4409C9.83826 35.7462 10.1861 36.1757 10.6099 36.521C9.30653 36.2117 7.32461 36.0027 5.61379 36.0027C4.49775 36.0027 3.12928 36.0929 2.94786 36.5215C2.90416 36.625 2.91145 36.7375 2.96972 36.8556C3.31229 37.5508 5.41394 38.385 7.1095 38.9036C6.43597 38.8357 5.7185 38.8007 4.99192 38.8007C2.9704 38.8007 0.573521 39.0995 0.0877724 39.756C-0.0194397 39.9008 -0.0285454 40.0713 0.0609093 40.249C0.887184 41.8882 10.3809 44.5996 19.6422 44.5996Z" fill="#151514"/>
<path d="M14.9033 37.7949C14.8862 37.7936 13.1527 37.6472 10.9768 36.6163L10.9156 36.7454C13.1169 37.7881 14.9033 37.7949 14.9033 37.7949Z" fill="#151514"/>
<path d="M12.1992 40.0122C12.179 40.0079 10.1331 39.574 7.79607 38.9872L7.76124 39.1256C10.101 39.7131 12.1992 40.0122 12.1992 40.0122Z" fill="#151514"/>
<path d="M49.4084 47.7903C53.4769 45.8585 57.5457 45.273 59.3899 45.9463C61.2339 46.6194 61.8487 48.9612 59.9753 49.9272C58.2484 49.3418 54.5602 48.8442 49.1448 49.0782C48.9108 48.7855 49.4084 47.7903 49.4084 47.7903Z" fill="#8D9AAA"/>
<path d="M59.5687 46.3782C57.8087 45.7356 53.3051 46.169 49.3609 47.8892C49.3891 47.8272 49.4078 47.7899 49.4078 47.7899C53.4763 45.8581 57.5451 45.2726 59.3893 45.9459C60.2782 46.2703 60.8802 46.9828 61.0566 47.7417C60.8076 47.1562 60.2916 46.642 59.5687 46.3782Z" fill="#C1CAD7"/>
<path d="M49.408 47.7903C49.7567 47.6248 50.1052 47.4698 50.4526 47.3239C50.3857 48.345 53.7142 47.8798 55.3574 47.6653C56.3694 47.5306 57.5105 47.5438 58.561 47.6653C59.3736 47.7596 61.0403 48.1978 60.9786 47.4807C61.3043 48.3657 61.0498 49.373 59.975 49.9272C58.248 49.3418 54.5598 48.8442 49.1444 49.0782C48.9104 48.7855 49.408 47.7903 49.408 47.7903Z" fill="#6E7C8B"/>
<path d="M57.4964 45.7482C58.2564 45.7482 58.8851 45.837 59.3651 46.0123C60.3089 46.3569 60.9806 47.1884 61.037 48.0816C61.0837 48.8214 60.6947 49.464 59.969 49.8489C59.1325 49.5696 56.7138 48.9468 51.8017 48.9468C50.9583 48.9468 50.0772 48.9661 49.1824 49.0042C49.0745 48.7909 49.2869 48.1984 49.461 47.8433C52.2316 46.5312 55.2338 45.7482 57.4964 45.7482ZM59.9809 50.0034L60.0077 49.9895C60.8033 49.5794 61.2303 48.8806 61.1795 48.0727C61.1197 47.1238 60.4102 46.2419 59.4141 45.8782C58.9185 45.6972 58.2732 45.6055 57.4964 45.6055C55.2076 45.6055 52.1725 46.3979 49.3775 47.7249L49.3554 47.7354L49.3442 47.7575C49.2912 47.8635 48.8337 48.8027 49.0888 49.1218L49.1116 49.1501L49.1478 49.1487C50.0547 49.1095 50.9476 49.0895 51.8017 49.0895C56.7504 49.0895 59.15 49.7218 59.9522 49.9939L59.9809 50.0034Z" fill="#2D3134"/>
<path d="M56.5713 48.499L56.704 48.4467C56.2604 47.3186 56.5722 46.1559 57.4297 45.7423L57.3678 45.6137C56.4423 46.06 56.0999 47.3004 56.5713 48.499Z" fill="#2D3134"/>
<path d="M53.4724 48.6621L53.5983 48.595C53.1066 47.6704 53.4635 46.5632 54.1113 46.191L54.0403 46.0672C53.2593 46.5158 52.9887 47.7528 53.4724 48.6621Z" fill="#2D3134"/>
<path d="M45.1629 38.2867C45.5922 40.5893 50.1586 48.1218 51.0172 48.3558C51.876 48.59 57.1056 47.263 60.111 48.1999C63.116 49.1366 63.0771 52.9222 59.0962 52.2586C60.2671 53.7808 58.745 56.6299 54.2176 53.6638C49.6904 50.6976 46.451 51.685 44.0694 51.6343C41.6197 51.5822 40.8649 49.4668 42.2311 48.3424C43.5971 47.2179 47.0754 47.8484 47.6609 48.1607C46.2168 46.7948 42.6261 43.4774 41.8066 40.4331C42.2359 38.2086 45.1629 38.2867 45.1629 38.2867Z" fill="#8D9AAA"/>
<path d="M59.4669 53.5259C59.1147 52.406 55.7862 50.2297 50.941 49.7596C54.2497 49.2559 59.809 51.3282 59.4669 53.5259Z" fill="#C1CAD7"/>
<path d="M60.2092 48.7913C57.2042 47.8546 51.6888 49.0779 50.8462 48.7913C49.1358 48.2095 44.8752 40.8311 44.2972 38.3643C44.793 38.2774 45.1631 38.2867 45.1631 38.2867C45.5924 40.5893 50.1588 48.1219 51.0173 48.3558C51.8762 48.5901 57.1058 47.263 60.1111 48.1999C61.5242 48.6404 62.264 49.7107 62.2376 50.6523C62.0453 49.8987 61.3567 49.1489 60.2092 48.7913Z" fill="#C1CAD7"/>
<path d="M51.0818 49.7517C52.3553 49.3094 55.0763 49.5373 57.0064 50.1808C58.6883 50.7414 61.2422 51.6551 62.2383 50.6508C62.2098 51.6865 61.254 52.5663 59.2471 52.2811C57.0856 50.135 54.0459 49.8298 51.0818 49.7517Z" fill="#6E7C8B"/>
<path d="M42.2324 48.3425C43.5983 47.2181 47.0767 47.8486 47.6621 48.1609C46.2181 46.7949 42.6273 43.4775 41.8079 40.4333C42.0505 39.1754 43.0917 38.654 43.9507 38.4382C43.7982 39.6086 43.3115 41.4792 43.97 42.577C45.4177 44.9093 47.4333 46.7442 48.7499 48.6264C47.7848 48.3047 46.3278 49.0584 47.1069 49.9177C47.7714 50.6504 50.2866 50.7972 51.8984 51.3508C55.4505 52.5704 55.5458 53.4117 57.4306 53.9478C58.3338 54.189 59.2798 53.9623 59.4733 53.3045C59.567 54.4035 58.5796 54.8555 57.9821 54.9359C57.1155 55.0524 55.8663 54.7433 54.2188 53.6639C49.6916 50.6977 46.4523 51.6852 44.0707 51.6344C41.621 51.5823 40.8662 49.467 42.2324 48.3425Z" fill="#6E7C8B"/>
<path d="M58.9297 52.1579L59.0403 52.3017C59.4323 52.8111 59.5151 53.4867 59.2513 54.0226C58.9768 54.58 58.3991 54.8871 57.6245 54.8871C56.7035 54.8871 55.5392 54.4432 54.2575 53.6035C51.3362 51.6894 48.99 51.444 47.2724 51.444C46.6681 51.444 46.1115 51.4775 45.5732 51.5098C45.0378 51.5421 44.5373 51.5726 44.0716 51.5622C42.6744 51.5326 41.9378 50.8333 41.7143 50.1887C41.4933 49.5513 41.709 48.8646 42.2772 48.3968C42.9052 47.8799 43.975 47.7713 44.7619 47.7713C46.0874 47.7713 47.3323 48.0654 47.6279 48.2232L48.0957 48.4726L47.5688 47.9744C46.1042 46.5911 42.6776 43.3552 41.8807 40.43C42.2738 38.4597 44.7251 38.3605 45.105 38.357C45.5989 40.7296 50.122 48.1849 50.9993 48.4241C51.2888 48.5031 52.0636 48.4114 53.1394 48.2764C54.3629 48.1228 55.8857 47.9316 57.3518 47.9316C58.4699 47.9316 59.3656 48.0415 60.0903 48.2673C61.6268 48.7462 62.2892 49.9271 62.1492 50.8463C62.014 51.7343 61.2011 52.2642 59.9749 52.2642C59.705 52.2642 59.4136 52.2384 59.1086 52.1877L58.9297 52.1579ZM57.6245 55.0298C58.4442 55.0298 59.084 54.6856 59.3792 54.0856C59.6435 53.5493 59.5905 52.8865 59.2513 52.3538C59.504 52.3891 59.7466 52.4071 59.9749 52.4071C61.5093 52.4071 62.177 51.612 62.2903 50.8679C62.4394 49.8885 61.7463 48.6338 60.1329 48.131C59.394 47.9008 58.4844 47.7889 57.3518 47.7889C55.8768 47.7889 54.3492 47.9807 53.1216 48.1348C52.3322 48.2339 51.7088 48.3122 51.3209 48.3122C51.195 48.3122 51.0994 48.3035 51.0368 48.2864C50.2201 48.0636 45.6481 40.4942 45.234 38.2728L45.2233 38.2161L45.1275 38.2141C44.8241 38.2141 42.1509 38.276 41.7373 40.4191L41.7341 40.4352L41.7384 40.4509C42.5173 43.3438 45.8204 46.5183 47.3543 47.9682C46.791 47.7998 45.7701 47.6286 44.7619 47.6286C43.9516 47.6286 42.8472 47.7426 42.1864 48.2867C41.5709 48.7934 41.3382 49.5402 41.5795 50.2353C41.8185 50.9255 42.5981 51.6737 44.0686 51.7051C44.54 51.7147 45.0433 51.6846 45.5818 51.6523C46.1179 51.6202 46.6724 51.5868 47.2724 51.5868C48.9702 51.5868 51.2895 51.8296 54.1792 53.723C55.4841 54.5777 56.6755 55.0298 57.6245 55.0298Z" fill="#2D3134"/>
<path d="M59.0442 52.3071L59.1489 52.2099C57.9719 50.9391 56.2404 50.2845 54.6618 49.9501C52.6398 49.5217 50.8464 49.7637 50.8464 49.7637C50.9012 49.7602 56.4054 49.458 59.0442 52.3071Z" fill="#2D3134"/>
<path d="M57.5279 51.1084L57.6626 51.0615C57.4423 50.4276 57.5108 49.6302 57.8375 49.0306C58.1152 48.5208 58.5563 48.1798 59.1133 48.0444L59.0796 47.9055C58.4825 48.0507 58.0095 48.4163 57.712 48.9624C57.3672 49.5956 57.2948 50.438 57.5279 51.1084Z" fill="#2D3134"/>
<path d="M54.2163 49.9648L54.3511 49.9177C54.332 49.8626 53.8929 48.5613 55.0005 48.0396L54.9397 47.9105C53.7151 48.4873 54.2113 49.95 54.2163 49.9648Z" fill="#2D3134"/>
<path d="M55.473 53.5259C55.469 53.517 55.0645 52.6407 55.4027 51.8314C55.6121 51.33 56.0608 50.9549 56.7368 50.7163L56.6892 50.5818C55.9731 50.8345 55.4958 51.2367 55.2705 51.7775C54.9083 52.6461 55.473 53.5259 55.473 53.5259Z" fill="#2D3134"/>
<path d="M51.8298 51.9385L51.9659 51.8952C51.9636 51.8882 51.7439 51.1757 52.094 50.5919C52.3187 50.217 52.7286 49.972 53.3125 49.8637L53.223 49.7485C52.5964 49.8648 52.2174 50.1075 51.9709 50.5195C51.588 51.1595 51.8197 51.9071 51.8298 51.9385Z" fill="#2D3134"/>
<path d="M44.6755 49.918C44.655 49.8597 44.2366 48.4025 45.5195 47.7922L45.4537 47.6654C44.0104 48.4143 44.6755 49.918 44.6755 49.918Z" fill="#2D3134"/>
<path d="M67.6445 5.05396C67.1762 1.48277 63.7222 -0.449074 57.5167 0.19487C51.311 0.838818 42.8225 7.68847 37.4365 19.2797C32.0507 30.8712 23.4253 40.082 24.7524 41.565C26.0792 43.0482 27.7966 45.624 38.6463 43.5164C49.4964 41.4089 54.005 33.6813 56.4342 29.3102C58.8631 24.9389 60.1121 17.8357 67.4494 17.6796C64.7174 15.338 65.498 6.24443 67.6445 5.05396Z" fill="#3D4648"/>
<path d="M62.1004 1.09466C58.5199 0.268384 54.856 0.889569 51.9909 2.10394C53.9308 1.01863 55.8102 0.37127 57.5167 0.194179C63.7222 -0.449768 67.1762 1.48208 67.6445 5.05326C67.4736 5.14795 67.1051 6.16133 66.9526 6.34912C66.2699 3.40003 64.5576 1.60453 62.1004 1.09466Z" fill="#5E6869"/>
<path d="M59.8586 11.9322C61.5574 11.536 64.2461 11.5168 65.7373 10.5852C65.5559 13.4004 66.0249 16.4579 67.4497 17.6791C62.156 17.7917 60.0316 21.5207 58.3465 25.2305C59.2254 21.563 59.9007 19.5274 61.3165 16.6249C62.1207 14.9763 60.7937 13.1987 59.8586 11.9322Z" fill="#2E3232"/>
<path d="M37.4365 19.2797C41.8014 9.88594 48.204 3.60695 53.7778 1.22077C49.8757 3.22659 47.7178 5.86201 45.9751 8.34471C43.0973 12.4451 41.9136 16.2956 39.8227 20.7994C38.2946 23.8554 41.1907 27.0274 40.6269 30.6917C40.2515 33.1311 44.1739 33.1441 45.9433 33.305C46.6118 38.7609 49.4691 38.2863 52.0522 35.8193C49.1914 39.111 45.01 42.2804 38.6463 43.5164C27.7966 45.624 26.0792 43.0482 24.7524 41.565C23.4254 40.082 32.0507 30.8712 37.4365 19.2797Z" fill="#2E3232"/>
<path d="M67.2715 17.613C61.5419 17.8242 59.5493 22.3264 57.7891 26.3034C57.3176 27.368 56.8726 28.3737 56.3719 29.2748C54.2031 33.1774 49.6907 41.2979 38.6329 43.4458C35.9162 43.9736 33.5785 44.2411 31.6845 44.2411C27.2008 44.2411 25.9131 42.7759 24.9725 41.706C24.9159 41.6414 24.8603 41.5781 24.8055 41.5169C24.1879 40.8267 26.0096 38.1344 28.5308 34.4084C31.1641 30.5167 34.7704 25.1872 37.5014 19.3095C43.192 7.06194 51.8697 0.852142 57.5241 0.265331C58.3058 0.184296 59.0594 0.143093 59.7635 0.143093C64.3612 0.143093 67.1303 1.87303 67.5675 5.0156C66.6793 5.55393 65.9735 7.42591 65.7195 9.92749C65.4322 12.7582 65.8071 16.1835 67.2715 17.613ZM31.6845 44.3838C33.5877 44.3838 35.9347 44.1154 38.66 43.586C49.7831 41.4254 54.3176 33.2655 56.4966 29.3442C57.0006 28.4374 57.4469 27.4288 57.9195 26.3612C59.6806 22.3828 61.6766 17.8734 67.451 17.7505L67.6378 17.7466L67.4959 17.625C65.9617 16.3098 65.5696 12.8185 65.8616 9.94184C66.111 7.48418 66.8245 5.5899 67.6792 5.11576L67.7217 5.09232L67.7154 5.04406C67.2889 1.79154 64.4648 0.00037384 59.7635 0.00037384C59.0544 0.00037384 58.296 0.0418015 57.5093 0.123291C54.3214 0.454258 50.6321 2.39156 47.1212 5.57875C43.2771 9.06821 39.9058 13.7955 37.3719 19.2491C34.6456 25.1166 31.043 30.4407 28.4126 34.3283C25.7599 38.2489 24.0074 40.8388 24.6992 41.612C24.7538 41.673 24.8089 41.7358 24.8653 41.8003C25.8239 42.8906 27.1361 44.3838 31.6845 44.3838Z" fill="#151514"/>
<path d="M52.6786 6.69595C52.6786 8.8973 54.1907 10.6816 56.0561 10.6816C57.9215 10.6816 59.4336 8.8973 59.4336 6.69595C59.4336 4.4946 57.9215 2.71026 56.0561 2.71026C54.1907 2.71026 52.6786 4.4946 52.6786 6.69595Z" fill="#100F0D"/>
<path d="M52.7196 6.84208C52.7196 8.96263 54.2138 10.6816 56.0566 10.6816C57.8997 10.6816 59.3936 8.96263 59.3936 6.84208C59.3936 4.72177 57.8997 3.00276 56.0566 3.00276C54.2138 3.00276 52.7196 4.72177 52.7196 6.84208Z" fill="white"/>
<path d="M54.6505 3.36035C53.8117 4.02979 53.2654 5.11852 53.2654 6.34905C53.2654 8.38446 54.7593 10.0347 56.6024 10.0347C57.374 10.0347 58.0842 9.74452 58.6494 9.25854C58.0376 10.1265 57.1038 10.6816 56.0568 10.6816C54.2139 10.6816 52.7198 8.96263 52.7198 6.84208C52.7198 5.29993 53.5106 3.97084 54.6505 3.36035Z" fill="#C7C8BE"/>
<path d="M56.0559 3.0748C57.8567 3.0748 59.3214 4.76535 59.3214 6.84288C59.3214 8.92062 57.8567 10.611 56.0559 10.611C54.2554 10.611 52.7904 8.92062 52.7904 6.84288C52.7904 4.76535 54.2554 3.0748 56.0559 3.0748ZM56.0559 10.7539C57.9354 10.7539 59.4644 8.99938 59.4644 6.84288C59.4644 4.6866 57.9354 2.93208 56.0559 2.93208C54.1767 2.93208 52.6477 4.6866 52.6477 6.84288C52.6477 8.99938 54.1767 10.7539 56.0559 10.7539Z" fill="#100F0D"/>
<path d="M58.1206 6.93462C58.1256 8.27191 57.1898 9.35107 56.0308 9.3447C54.8719 9.33855 53.9284 8.24914 53.9237 6.91186C53.9189 5.57457 54.8544 4.49563 56.0135 4.50178C57.1723 4.50815 58.1158 5.59733 58.1206 6.93462Z" fill="#4D1F1A"/>
<path d="M58.1206 6.93462C58.1256 8.27191 57.1898 9.35107 56.0308 9.3447C54.8719 9.33855 53.9284 8.24914 53.9237 6.91186C55.1997 8.72328 56.9592 8.9673 58.1206 6.93462Z" fill="#A53F3E"/>
<path d="M57.4048 7.11447C57.4082 8.00494 56.785 8.72332 56.0133 8.71922C55.2417 8.71512 54.6134 7.98968 54.6102 7.09922C54.607 6.20876 55.2301 5.49038 56.0017 5.49447C56.7733 5.49857 57.4016 6.22401 57.4048 7.11447Z" fill="#100F0D"/>
<path d="M57.2349 6.1549C57.2358 6.40779 57.0589 6.61197 56.8395 6.61084C56.6203 6.6097 56.4418 6.40347 56.4409 6.15058C56.44 5.89746 56.6171 5.69351 56.8363 5.69465C57.0555 5.69579 57.2339 5.90179 57.2349 6.1549Z" fill="white"/>
<path d="M55.5894 8.16217C55.5898 8.26346 55.519 8.34518 55.4312 8.34472C55.3433 8.34427 55.2718 8.26164 55.2716 8.16035C55.2711 8.05906 55.3419 7.97734 55.4298 7.9778C55.5177 7.97825 55.5891 8.06088 55.5894 8.16217Z" fill="white"/>
<path d="M53.9889 6.91185C53.9936 8.23662 54.8905 9.27868 56.0304 9.28414H56.04C56.5241 9.28414 56.9917 9.08224 57.357 8.71577C57.8029 8.26826 58.0572 7.61908 58.0547 6.93416C58.0499 5.64558 57.1779 4.60398 56.0691 4.56323C56.0507 4.56255 56.0318 4.56209 56.0131 4.56187H56.0036C55.4671 4.56187 54.9629 4.80292 54.5832 5.24064C54.1978 5.68519 53.9866 6.2786 53.9889 6.91185ZM54.4803 5.16507C54.885 4.69821 55.4254 4.44123 56.0024 4.44123H56.0131C57.2266 4.44851 58.181 5.5436 58.186 6.93461C58.1885 7.64844 57.9217 8.32744 57.4535 8.79703C57.0631 9.189 56.5615 9.40479 56.0411 9.40479C56.0411 9.40479 56.0411 9.40479 56.0409 9.40479H56.0306C56.0104 9.40479 55.9901 9.40433 55.9699 9.40365C54.7903 9.35994 53.8623 8.2653 53.8575 6.91162C53.8552 6.25106 54.0763 5.63079 54.4803 5.16507Z" fill="#201312"/>
<path d="M41.3885 52.2579C44.9303 50.0137 52.0431 51.0676 53.9164 52.6776C55.79 54.2874 54.0043 55.6875 50.9309 55.2803C48.3843 54.2289 45.327 53.4971 41.5576 53.3507C41.0079 53.1458 41.3885 52.2579 41.3885 52.2579Z" fill="#8D9AAA"/>
<path d="M54.0637 53.1306C52.3535 51.661 45.6719 50.4933 41.8259 52.0077C45.4859 50.0993 52.117 51.1318 53.9162 52.6781C54.3976 53.0917 54.6368 53.4911 54.6753 53.8501C54.5515 53.6191 54.3507 53.3773 54.0637 53.1306Z" fill="#C1CAD7"/>
<path d="M41.3878 52.2578C41.8087 51.9913 42.2806 51.7716 42.7877 51.5934C42.9789 52.6466 46.7224 52.2895 49.0007 53.0488C49.7246 53.2901 51.3398 53.6313 52.3818 54.12C53.2413 54.3898 54.4129 54.4945 54.5438 53.4283C55.1839 54.6895 53.5115 55.6224 50.9303 55.2802C48.3836 54.2288 45.3264 53.497 41.557 53.3507C41.0073 53.1458 41.3878 52.2578 41.3878 52.2578Z" fill="#6E7C8B"/>
<path d="M46.9406 51.0441C49.7706 51.0441 52.7493 51.77 53.8694 52.7326C54.4799 53.2571 54.7244 53.7934 54.558 54.2422C54.3242 54.8732 53.3077 55.2809 51.9683 55.2809C51.6426 55.2809 51.2998 55.2577 50.9488 55.2115C48.1299 54.049 45.062 53.4176 41.5716 53.2808C41.4774 53.243 41.4125 53.1804 41.3734 53.0893C41.2582 52.8207 41.408 52.4026 41.4455 52.307C43.1067 51.2636 45.349 51.0441 46.9406 51.0441ZM51.9683 55.4238C53.3896 55.4238 54.433 54.99 54.6919 54.2919C54.8806 53.7829 54.6215 53.1906 53.9625 52.6243C52.8194 51.6421 49.8007 50.9014 46.9406 50.9014C45.324 50.9014 43.0418 51.1263 41.3497 52.1986L41.331 52.2105L41.3222 52.2307C41.3126 52.2533 41.0879 52.7854 41.242 53.1453C41.298 53.2757 41.3954 53.3677 41.532 53.4185L41.5541 53.423C45.0363 53.5582 48.0942 54.1876 50.9031 55.3471L50.9208 55.3519C51.2811 55.3995 51.6335 55.4238 51.9683 55.4238Z" fill="#2D3134"/>
<path d="M49.6625 54.5435L49.7984 54.4998C49.6234 53.9551 49.6111 53.0689 49.9983 52.4106C50.2637 51.9595 50.6789 51.6747 51.2329 51.5645L51.2049 51.4246C50.6094 51.5431 50.1622 51.8504 49.8754 52.3382C49.4659 53.0345 49.4779 53.9694 49.6625 54.5435Z" fill="#2D3134"/>
<path d="M46.1772 53.5728L46.3163 53.5402C46.3115 53.5195 45.8499 51.4763 47.1191 51.0414L47.0727 50.9061C45.6817 51.3832 46.1722 53.5509 46.1772 53.5728Z" fill="#2D3134"/>
<path d="M37.8457 42.17C38.3139 44.9215 42.1191 52.1806 43.5242 52.6491C44.9294 53.1175 52.2764 53.293 53.9974 56.4349C55.7178 59.5752 51.6324 59.9961 50.1103 58.7082C51.3397 61.2842 48.5645 63.2169 46.6263 60.7866C45.2023 59.0009 44.295 57.5666 41.7973 56.747C39.2993 55.9275 37.6327 56.3762 35.9528 56.3762C33.8539 56.3762 32.7913 54.6396 34.0988 53.5564C35.3266 52.5396 38.5482 52.4993 40.0703 52.8833C38.6456 50.9123 37.4749 48.8243 36.304 47.2826C35.1331 45.7411 33.3768 44.336 35.055 42.17C36.7333 40.082 37.8457 42.17 37.8457 42.17Z" fill="#8D9AAA"/>
<path d="M50.3477 60.3711C49.9958 59.2512 47.6904 55.6099 42.6549 54.32C46.5125 54.7788 50.7356 57.6043 50.3477 60.3711Z" fill="#C1CAD7"/>
<path d="M43.1957 53.0307C41.7908 52.5622 37.8582 45.2457 37.3897 42.4942C37.3897 42.4942 36.7339 40.6587 35.0557 42.7467C34.6482 43.2725 34.4438 43.7534 34.3837 44.2025C34.3022 43.5925 34.4686 42.9281 35.0557 42.1703C36.7339 40.0823 37.8463 42.1703 37.8463 42.1703C38.3146 44.9218 42.12 52.1812 43.5249 52.6494C44.93 53.1179 52.277 53.2934 53.9981 56.4353C54.2799 56.9497 54.4051 57.3908 54.4121 57.7637C54.3479 57.5818 54.2614 57.3883 54.1483 57.1819C52.4272 54.04 44.6008 53.4989 43.1957 53.0307Z" fill="#C1CAD7"/>
<path d="M42.6549 54.319C44.6655 54.2386 46.4048 54.6961 48.2802 55.743C49.902 56.6482 50.0552 57.4244 51.5909 58.0408C52.5426 58.5771 54.1645 58.8796 54.388 57.4936C54.7287 59.6533 51.4407 59.8329 50.1105 58.7073C50.1863 58.8662 50.2452 59.0221 50.2914 59.1751C50.2867 59.1703 50.2819 59.1655 50.2773 59.161C49.1515 55.8636 45.1346 54.7881 42.6549 54.319Z" fill="#6E7C8B"/>
<path d="M34.0992 53.5566C35.327 52.5398 38.5485 52.4995 40.0706 52.8835C38.646 50.9125 37.4753 48.8245 36.3044 47.2828C35.1335 45.7413 33.3771 44.3362 35.0554 42.1702C35.5801 41.5176 36.0492 41.2729 36.4464 41.2449C36.0276 42.1465 36.2561 43.1269 36.2837 44.1227C36.3372 46.068 39.4201 50.5506 41.1091 53.5263C40.3852 53.5263 39.1788 53.2106 38.6965 53.7737C38.2943 54.2561 38.3478 55.2904 39.3666 55.2904C42.3692 55.6771 44.889 57.0711 47.1409 59.6446C47.8729 60.523 49.8487 61.9015 50.4077 60.1237C50.2812 61.8751 48.1841 62.7396 46.6267 60.7866C45.2026 59.0011 44.2953 57.5668 41.7976 56.7472C39.2997 55.9277 37.633 56.3764 35.9532 56.3764C33.8542 56.3764 32.7917 54.6396 34.0992 53.5566Z" fill="#6E7C8B"/>
<path d="M49.9026 58.4385L50.0458 58.7383C50.4412 59.5671 50.4412 60.402 50.0456 61.0293C49.7296 61.5303 49.1904 61.8294 48.6029 61.8294C47.9237 61.8294 47.2415 61.4429 46.682 60.7414C46.5336 60.5552 46.3906 60.3729 46.2511 60.1947C45.0365 58.6441 44.0771 57.4195 41.8195 56.6786C40.7861 56.3396 39.7939 56.1817 38.6967 56.1817C38.1837 56.1817 37.702 56.2144 37.2363 56.2458C36.794 56.2759 36.3761 56.3043 35.9527 56.3043C34.6869 56.3043 33.8941 55.6763 33.6699 55.0542C33.4846 54.54 33.6576 54.014 34.1442 53.6109C34.8103 53.0593 36.2143 52.73 37.9003 52.73C38.7092 52.73 39.4939 52.8108 40.0527 52.9519L40.243 52.9999L40.128 52.8408C39.4397 51.8887 38.8153 50.9163 38.2117 49.9757C37.5714 48.9785 36.9668 48.0368 36.3608 47.2388C36.1883 47.0116 36.0005 46.7842 35.8189 46.5643C34.7365 45.2541 33.7143 44.0163 35.1114 42.2131C35.5915 41.616 36.067 41.3128 36.5243 41.3128C37.2556 41.3128 37.7229 42.0972 37.7773 42.1933C38.2515 44.9355 42.0266 52.2244 43.5016 52.7161C43.8349 52.8274 44.4884 52.9209 45.316 53.0398C48.0521 53.4324 52.6316 54.0896 53.9348 56.4685C54.3818 57.2845 54.4603 57.9819 54.1622 58.4857C53.8535 59.0065 53.1342 59.3176 52.2381 59.3176C51.4384 59.3176 50.6408 59.0629 50.1562 58.6532L49.9026 58.4385ZM48.6029 61.9722C49.2396 61.9722 49.8241 61.6483 50.1662 61.1056C50.5489 60.4992 50.5873 59.716 50.2816 58.9245C50.794 59.2632 51.504 59.4603 52.2381 59.4603C53.1852 59.4603 53.9502 59.1232 54.2848 58.5583C54.6103 58.009 54.5325 57.2626 54.0599 56.3999C52.7224 53.9585 48.0987 53.2949 45.3363 52.8986C44.5159 52.7807 43.8679 52.6879 43.5467 52.5809C42.2474 52.1477 38.406 45.0363 37.916 42.1573L37.9085 42.1357C37.8875 42.0963 37.3842 41.1699 36.5243 41.1699C36.0217 41.1699 35.5086 41.4911 34.9994 42.1245C33.5315 44.0193 34.6384 45.3593 35.7087 46.6554C35.8894 46.8741 36.0763 47.1004 36.247 47.3253C36.8496 48.1185 37.453 49.0582 38.0915 50.0529C38.6639 50.9443 39.2546 51.8645 39.9015 52.7703C39.3507 52.6535 38.6348 52.5872 37.9003 52.5872C36.1819 52.5872 34.744 52.9287 34.0534 53.5009C33.5174 53.9448 33.3287 54.5286 33.5356 55.1025C33.7769 55.7717 34.6177 56.4471 35.9527 56.4471C36.3809 56.4471 36.8011 56.4186 37.2461 56.3883C37.7093 56.3569 38.1884 56.3244 38.6967 56.3244C39.7784 56.3244 40.7563 56.4801 41.7749 56.8142C43.9915 57.5417 44.9391 58.7513 46.1386 60.2827C46.2784 60.4612 46.4216 60.644 46.5704 60.8304C47.1575 61.5665 47.8793 61.9722 48.6029 61.9722Z" fill="#2D3134"/>
<path d="M50.0451 58.7368L50.1758 58.679C49.4399 57.0201 47.7573 55.9291 46.1719 55.2376C44.3778 54.4548 42.6549 54.3196 42.6549 54.3196C42.7131 54.3287 48.5084 55.2717 50.0451 58.7368Z" fill="#2D3134"/>
<path d="M49.0005 56.7573C49.0146 56.6579 49.375 54.3261 51.4828 54.4959L51.4941 54.3534C50.3196 54.2596 49.6716 54.9186 49.3397 55.5721C49.0376 56.1666 49.0005 56.7573 49.0005 56.7573Z" fill="#2D3134"/>
<path d="M46.0945 55.0513C46.0949 55.0358 46.1505 53.5198 47.228 53.3307L47.2034 53.19C46.0107 53.3994 46.0945 55.0513 46.0945 55.0513Z" fill="#2D3134"/>
<path d="M45.917 59.1978C45.9193 59.185 46.1494 57.9185 47.0724 57.3292C47.575 57.0082 48.1939 56.9429 48.9114 57.135L48.9482 56.9973C48.19 56.794 47.5327 56.8655 46.9948 57.2095C46.0185 57.8334 45.917 59.1978 45.917 59.1978Z" fill="#2D3134"/>
<path d="M43.323 57.0405C43.3239 56.9647 43.366 55.1852 45.21 55.0104L45.1963 54.8683C43.2233 55.0552 43.323 57.0405 43.323 57.0405Z" fill="#2D3134"/>
<path d="M36.8857 55.29C36.8291 55.2579 35.5082 54.4843 36.4032 52.7962L36.2771 52.7293C35.3158 54.5423 36.8857 55.29 36.8857 55.29Z" fill="#2D3134"/>
<path d="M43.9378 31.5199C43.9378 31.5199 46.731 32.867 46.5302 36.1008C46.2962 39.873 42.12 43.1259 38.0221 44.3128C35.889 44.9306 32.9094 44.7261 33.807 40.6672C34.7047 36.6082 40.5981 31.4564 40.5981 31.4564L43.9378 31.5199Z" fill="#3D4648"/>
<path d="M45.7205 35.9732C45.874 33.5049 44.5599 32.0645 43.9291 31.5207H43.9378C43.9378 31.5207 46.731 32.8678 46.5302 36.1016C46.3604 38.8388 44.1147 41.3023 41.3295 42.9019C43.6981 41.133 45.5701 38.3972 45.7205 35.9732Z" fill="#5E6869"/>
<path d="M33.8066 40.6672C34.2639 38.5997 36.0169 36.2494 37.6273 34.4401C37.3705 35.6822 36.7241 36.8952 36.6802 38.0791C36.3688 39.804 36.0747 41.999 38.1335 42.5136C39.4446 42.8712 40.7753 42.8357 42.0093 42.4859C40.7715 43.2871 39.3925 43.9158 38.0218 44.3128C35.8887 44.9306 32.9091 44.7261 33.8066 40.6672Z" fill="#2E3232"/>
<path d="M36.319 44.645C36.8484 44.645 37.4314 44.5581 38.0421 44.3812C42.1136 43.2021 46.3613 39.9806 46.6019 36.105C46.6736 34.9501 46.3679 34.0218 45.9436 33.3046C45.1765 32.0085 43.938 31.5198 43.938 31.5198C43.9651 31.5337 46.6547 32.9486 46.4594 36.0962C46.2229 39.9059 42.0259 43.0787 38.0025 44.2439C36.4596 44.6908 35.1085 44.5542 34.3883 43.8788C33.7188 43.2511 33.5467 42.1755 33.877 40.6823C34.7593 36.6925 40.5864 31.5614 40.6452 31.51L40.5512 31.4026C40.492 31.4542 34.63 36.6165 33.7375 40.6516C33.3956 42.1974 33.5818 43.3182 34.2906 43.9829C34.7572 44.4206 35.469 44.645 36.319 44.645Z" fill="#151514"/>
<path d="M27.2891 26.6564C24.5961 29.2713 19.2881 36.0286 21.708 37.7041C23.3863 37.1551 32.5968 29.3494 27.2891 26.6564Z" fill="#3D4648"/>
<path d="M22.0544 33.45C21.8698 33.967 21.7412 34.6219 22.0079 34.8124C22.4236 34.9947 23.3618 34.1368 23.6031 33.8955C25.3984 32.2225 26.9881 30.8321 28.8867 29.4769C28.4233 32.83 22.9617 37.2937 21.7075 37.7041C20.6656 36.9828 21.0567 35.3193 22.0544 33.45Z" fill="#2E3232"/>
<path d="M27.3024 26.7427C28.4063 27.3184 28.9233 28.1669 28.8388 29.2652C28.585 32.5685 23.0504 37.1415 21.7197 37.624C21.3939 37.3857 21.2093 37.0318 21.1713 36.5708C20.9628 34.0499 25.0405 28.9513 27.3024 26.7427ZM21.6967 37.7822L21.7304 37.7713C23.0158 37.3509 28.7211 32.6593 28.9813 29.2762C29.0715 28.0998 28.5131 27.1968 27.3215 26.5922L27.2762 26.5693L27.2395 26.6045C24.9685 28.8098 20.8155 34.0005 21.0291 36.5827C21.0719 37.1016 21.2867 37.4984 21.6675 37.7622L21.6967 37.7822Z" fill="#151514"/>
<path d="M29.3574 29.4073C24.791 33.3297 14.2632 43.0479 20.2832 43.5161C25.7862 40.9988 35.5628 31.2222 29.3574 29.4073Z" fill="#3D4648"/>
<path d="M19.4245 39.6886C19.1839 40.2222 19.1878 40.5727 19.3676 40.7043C19.7161 40.9588 20.5606 40.3021 21.0919 39.7997C23.0858 37.9138 24.2199 36.5622 26.2305 34.7929C27.8277 33.3327 29.4509 31.9763 31.1587 30.7526C32.6592 34.0552 24.9407 41.3856 20.2831 43.5161C17.9534 43.3349 18.1022 41.7684 19.4245 39.6886Z" fill="#2E3232"/>
<path d="M29.3748 29.4874C30.5625 29.845 31.201 30.5229 31.2718 31.5032C31.3856 33.0761 30.0048 35.4611 27.4837 38.0467C25.2457 40.3414 22.4168 42.4581 20.2707 43.4441C19.3397 43.3683 18.7791 43.0594 18.6047 42.5261C17.7109 39.7921 26.5809 31.8893 29.3748 29.4874ZM20.2964 43.5894L20.3133 43.5816C24.6805 41.584 31.6758 35.1074 31.4143 31.493C31.3378 30.4368 30.6526 29.7123 29.3777 29.3394L29.3406 29.3287L29.3112 29.3538C25.7517 32.4114 17.5697 39.8199 18.4691 42.5705C18.6641 43.1673 19.2728 43.5097 20.278 43.588L20.2964 43.5894Z" fill="#151514"/>
<path d="M29.0842 33.0173C22.5664 38.2864 11.9896 50.3556 18.3904 49.5897C23.425 46.7553 36.5775 35.9446 29.0842 33.0173Z" fill="#3D4648"/>
<path d="M18.2281 44.4959C17.9736 45.3286 17.9602 45.6771 18.4002 45.8512C19.2738 46.0524 20.7761 44.5997 22.0351 43.3715C24.9683 40.5098 28.0535 37.8181 31.3367 35.6691C31.5338 40.0354 22.3947 47.3355 18.3904 49.5897C15.4727 49.9389 16.083 47.621 18.2281 44.4959Z" fill="#2E3232"/>
<path d="M18.368 49.52C17.3501 49.6391 16.7341 49.4283 16.5454 48.8943C15.6607 46.3925 23.5376 37.6024 29.097 33.0986C30.455 33.6394 31.1834 34.4805 31.262 35.599C31.5736 40.0322 22.0555 47.4398 18.368 49.52ZM17.8511 49.6953C18.0188 49.6953 18.2032 49.6835 18.3992 49.6603L18.4256 49.6514C22.1258 47.5684 31.7209 40.0896 31.4045 35.589C31.3209 34.4001 30.5491 33.5124 29.1105 32.9504L29.0718 32.9354L29.0395 32.9616C23.4474 37.4819 15.505 46.3809 16.4107 48.9419C16.5875 49.442 17.0721 49.6953 17.8511 49.6953Z" fill="#151514"/>
<path d="M30.6834 36.8423C26.8976 40.1986 14.8105 49.9509 16.4059 51.4949C18.2333 53.2635 32.2674 43.2549 33.6416 39.8729C32.7129 38.4033 30.6834 36.8423 30.6834 36.8423Z" fill="#3D4648"/>
<path d="M18.0683 48.2863C18.0867 48.3876 18.1302 48.4741 18.2021 48.5435C19.6746 49.9686 29.075 43.7452 33.3883 39.5052C33.4788 39.6279 33.5642 39.7506 33.6416 39.8729C32.2674 43.2549 18.2333 53.2635 16.4059 51.4949C15.9275 51.0321 16.6793 49.8312 18.0683 48.2863Z" fill="#2E3232"/>
<path d="M33.5624 39.8799C32.1939 43.1006 20.2337 51.6312 17.0683 51.6312C16.7911 51.6312 16.5853 51.5682 16.4567 51.4436C16.37 51.3597 16.3299 51.2472 16.3345 51.0999C16.3934 49.1799 23.8015 42.8436 28.2274 39.0577C29.2068 38.2198 30.0559 37.4937 30.6873 36.9349C30.9923 37.1757 32.7211 38.5695 33.5624 39.8799ZM17.0683 51.7739C18.905 51.7739 23.1209 49.2088 26.1731 47.0123C29.2018 44.8325 32.9929 41.6617 33.7088 39.8997L33.7227 39.8658L33.7031 39.8346C32.7782 38.3714 30.7483 36.8013 30.728 36.7856L30.6811 36.7496L30.6372 36.7888C30.0021 37.3517 29.1367 38.0919 28.1345 38.9492C23.4031 42.9963 16.2528 49.1123 16.1918 51.0954C16.1861 51.2827 16.2418 51.4343 16.3575 51.5461C16.5136 51.6974 16.7529 51.7739 17.0683 51.7739Z" fill="#151514"/>
<path d="M41.2998 9.44434C34.782 10.6822 27.718 23.5531 26.4886 25.7779C25.2592 28.0025 24.6737 31.1833 27.6399 30.1686C25.8373 32.5648 25.3177 35.818 27.191 35.6422C25.3468 38.5107 26.4592 40.9695 28.9185 39.8731C28.3034 41.7892 29.3864 43.5162 32.2841 41.9941C35.39 40.3627 47.31 26.7135 48.7151 20.2815C50.3153 12.957 45.4806 8.65039 41.2998 9.44434Z" fill="#3D4648"/>
<path d="M47.7787 20.9735C49.4897 13.674 44.66 9.39951 40.0231 10.5101C38.4131 10.8957 36.7817 11.9446 35.2211 13.3358C37.1707 11.3555 39.2619 9.83108 41.2998 9.44411C45.4806 8.65017 50.3153 12.9568 48.7151 20.2813C47.3717 26.4314 36.4155 39.1788 32.7425 41.7104C36.993 38.2733 46.1487 27.9272 47.7787 20.9735Z" fill="#5E6869"/>
<path d="M35.895 33.8046C35.168 34.7829 33.7936 35.0172 33.1137 34.2867C32.4338 33.5565 32.4413 32.0198 33.0167 30.9944C30.8252 32.1757 29.5584 31.0734 30.1616 28.3792C29.7089 28.3708 27.3015 28.0432 28.9778 25.1449C28.3049 27.2991 29.7961 28.2394 31.2071 26.5694C29.6288 29.8269 31.9678 31.7772 33.8883 29.3282C32.5314 32.7958 33.8708 35.1216 35.895 33.8046Z" fill="#2E3232"/>
<path d="M26.4897 25.7779C27.206 24.4814 29.9045 19.5693 33.3213 15.4509C30.2425 19.5939 26.151 27.1259 26.7007 28.6674C27.1295 29.3282 27.7596 29.15 29.2473 28.1714C28.0409 30.1749 26.9151 32.0585 27.277 32.9433C27.9003 33.9888 29.6204 31.9937 30.4248 31.1091C28.8253 33.3084 27.6599 36.0032 28.4281 36.7498C29.1804 37.313 31.1758 34.8542 32.5481 33.5793C32.0655 34.4641 30.6547 38.5631 31.8611 39.0288C34.8637 40.4228 42.9157 30.4171 43.4492 29.92C39.3782 35.5063 34.1843 40.9966 32.2852 41.9941C29.3875 43.5162 28.3045 41.7892 28.9196 39.8731C26.4603 40.9695 25.3479 38.5107 27.1921 35.6422C25.3188 35.818 25.8384 32.5648 27.641 30.1686C24.6748 31.1833 25.2603 28.0025 26.4897 25.7779Z" fill="#2E3232"/>
<path d="M42.3014 9.42245C44.1149 9.42245 45.8751 10.3172 47.1309 11.8769C48.8292 13.9863 49.3673 16.9659 48.6462 20.2667C48.0368 23.056 45.2801 27.6583 41.0825 32.8939C37.6092 37.2262 33.8126 41.1115 32.2518 41.9314C31.5261 42.3125 30.884 42.5057 30.3434 42.5057C29.8153 42.5057 29.3974 42.3152 29.1343 41.9546C28.7831 41.4728 28.728 40.7029 28.9872 39.8953L29.0359 39.7433L28.89 39.8084C28.5026 39.9811 28.1393 40.0688 27.8104 40.0686C27.2641 40.0686 26.8262 39.8177 26.5776 39.3622C26.0982 38.4843 26.3566 37.0737 27.2518 35.6813L27.331 35.558L27.1849 35.5716C27.1387 35.5759 27.0939 35.5782 27.0506 35.5782C27.0504 35.5782 27.0504 35.5782 27.0504 35.5782C26.6748 35.578 26.4042 35.4168 26.2455 35.0991C25.7563 34.1189 26.4078 31.9265 27.6975 30.212L27.8373 30.0263L27.6174 30.1014C26.6782 30.4228 26.037 30.3345 25.745 29.8396C25.2419 28.9862 25.8105 27.1541 26.5517 25.8127L26.5819 25.7579C29.6813 20.1478 35.7165 10.5779 41.3137 9.51486C41.6367 9.45363 41.9691 9.42245 42.3014 9.42245ZM30.3434 42.6484C30.9075 42.6484 31.5719 42.4497 32.318 42.0578C35.3716 40.4539 47.3469 26.8835 48.7857 20.2972C49.5162 16.9531 48.968 13.931 47.2422 11.7875C45.9591 10.1939 44.1583 9.27972 42.3014 9.27972C41.9602 9.27972 41.619 9.3116 41.2871 9.37465C35.6325 10.4486 29.5684 20.057 26.457 25.6889L26.4267 25.7437C25.6664 27.1195 25.0903 29.0106 25.622 29.912C25.9277 30.4305 26.5482 30.5673 27.4537 30.303C26.2218 32.0289 25.6239 34.1733 26.1178 35.1628C26.2999 35.5279 26.6222 35.7209 27.0504 35.7209C27.0524 35.7209 27.0554 35.7209 27.0581 35.7209C26.1947 37.1195 25.9617 38.5319 26.4522 39.4305C26.7272 39.934 27.2095 40.2113 27.8104 40.2115C28.1186 40.2115 28.4535 40.1398 28.8072 39.9982C28.5821 40.8051 28.657 41.5422 29.0191 42.0389C29.31 42.4377 29.7678 42.6484 30.3434 42.6484Z" fill="#151514"/>
<path d="M27.5859 30.3413C28.325 29.3898 29.3714 28.1985 29.3818 28.1866L29.2746 28.0924C29.2639 28.1042 28.215 29.2988 27.473 30.2537L27.5859 30.3413Z" fill="#151514"/>
<path d="M27.1933 35.7729C28.463 33.6426 30.795 30.7104 30.5271 31.1219L30.4153 31.0329C30.6833 30.6214 28.3453 33.5611 27.0706 35.6999L27.1933 35.7729Z" fill="#151514"/>
<path d="M28.9877 39.8936C29.6418 37.7213 32.7598 33.5315 32.791 33.4898L32.6767 33.404C32.6453 33.4459 29.5123 37.6567 28.8511 39.8526L28.9877 39.8936Z" fill="#151514"/>
<path d="M34.1282 34.8125C35.0524 34.8125 35.895 33.8053 35.895 33.8053C34.9772 34.6636 34.0358 34.8992 33.377 34.4362C32.7222 33.9755 32.3411 32.7275 33.0529 31.0756L33.1292 30.8983L32.9559 30.9832C31.9073 31.4972 31.0837 31.5224 30.5748 31.0567C29.9452 30.4808 29.9122 29.2435 30.2438 28.3799L30.2789 28.2888L30.1814 28.2831C29.3561 28.2344 28.8168 27.9626 28.5787 27.4755C28.2009 26.7027 28.6844 25.5721 28.9778 25.1456C28.9778 25.1456 27.9286 26.4029 28.4504 27.5383C28.7033 28.0555 29.2505 28.3516 30.0776 28.4188C29.7681 29.3095 29.8015 30.543 30.4785 31.1621C30.8502 31.5024 31.5606 31.7733 32.8515 31.1901C32.2979 32.6084 32.4716 33.9739 33.2951 34.5528C33.5428 34.7271 33.825 34.8125 34.1282 34.8125Z" fill="#151514"/>
<path d="M30.1988 28.5068C30.6106 27.3826 31.4002 26.2843 31.4082 26.2734C31.4082 26.2734 30.4836 27.3145 30.0648 28.4577L30.1988 28.5068Z" fill="#151514"/>
<path d="M32.9513 31.3271C33.4284 30.2104 34.0867 29.0348 34.0933 29.0229C34.0933 29.0229 33.3 30.1474 32.8199 31.2712L32.9513 31.3271Z" fill="#151514"/>
<path d="M66.5906 10.6154C70.8057 11.962 78.8553 19.7481 78.4748 20.2751C78.3203 20.4888 76.2528 19.505 71.7716 18.6357C68.3762 17.9772 65.5643 18.1659 65.154 17.994C63.7512 17.4063 62.3463 13.3376 60.6974 12.0594C61.7122 11.7082 66.5906 10.6154 66.5906 10.6154Z" fill="#8D9AAA"/>
<path d="M66.2568 10.6902C66.7786 13.279 67.0247 16.161 69.9014 16.9385C72.9413 17.8153 75.726 18.9903 78.4722 20.2766C78.3025 20.4799 76.2342 19.5009 71.7717 18.6352C68.3762 17.9767 65.5644 18.1654 65.1541 17.9935C63.7513 17.4058 62.3464 13.3371 60.6975 12.0589C61.5511 11.7635 65.1395 10.9431 66.2568 10.6902Z" fill="#6E7C8B"/>
<path d="M78.4152 20.2309C78.4104 20.2309 78.3991 20.2328 78.3802 20.2328H78.3801C78.2205 20.2328 77.8307 20.1146 77.2407 19.9357C76.1705 19.6114 74.3794 19.0685 71.7855 18.5654C69.5772 18.137 67.5878 18.0651 66.3992 18.0223C65.7692 17.9996 65.314 17.9832 65.1819 17.9279C64.4742 17.6313 63.7538 16.4005 62.991 15.0974C62.31 13.9337 61.6066 12.7321 60.8443 12.0861C62.0241 11.716 66.2665 10.7611 66.5876 10.689C70.5292 11.9618 77.6993 18.7516 78.3716 20.0941C78.4157 20.1822 78.4175 20.2198 78.4166 20.2312C78.4162 20.2309 78.4157 20.2309 78.4152 20.2309ZM78.3801 20.3755C78.3802 20.3755 78.3802 20.3755 78.3802 20.3755C78.4074 20.3755 78.4902 20.3755 78.533 20.3163C78.5653 20.2715 78.5681 20.2107 78.5416 20.1301C78.1816 19.0368 70.7547 11.8701 66.6127 10.5472L66.5942 10.5412L66.5754 10.5453C66.376 10.59 61.6813 11.6429 60.6743 11.9917L60.5498 12.0347L60.654 12.1155C61.4341 12.7203 62.1629 13.9654 62.8679 15.1695C63.6429 16.4938 64.375 17.7446 65.1267 18.0594C65.2829 18.1247 65.7011 18.14 66.394 18.165C67.5785 18.2076 69.5609 18.2793 71.7583 18.7054C74.345 19.2071 76.1317 19.7488 77.1992 20.0723C77.8228 20.2615 78.1993 20.3755 78.3801 20.3755Z" fill="#2D3134"/>
<path d="M78.4748 20.2747C78.4728 20.2774 78.4692 20.279 78.4666 20.2812C74.6478 16.9848 66.1692 13.1812 60.9325 11.9844C62.3065 11.5746 66.5906 10.615 66.5906 10.615C70.8057 11.9616 78.8553 19.7477 78.4748 20.2747Z" fill="#751D22"/>
<path d="M70.3948 12.8749C71.8449 13.9149 72.5645 15.3617 72.8149 16.625C69.4007 14.8243 65.4415 13.2161 62.2777 12.3288C65.3517 10.9608 68.2639 11.3464 70.3948 12.8749Z" fill="#F3B5C1"/>
<path d="M62.2775 12.3288C64.3584 11.4029 66.3646 11.2811 68.1049 11.7725C68.4405 13.5107 70.0151 14.8104 71.5902 15.4104C71.8975 15.5333 72.2226 15.6353 72.5578 15.7161C72.671 16.0241 72.7564 16.3295 72.8149 16.625C69.4007 14.8243 65.4415 13.2161 62.2775 12.3288Z" fill="#DC879B"/>
<path d="M66.0272 11.5589C67.6045 11.5589 69.1004 12.0339 70.3532 12.9326C71.9428 14.0728 72.5112 15.5958 72.7136 16.4908C69.4085 14.7595 65.614 13.2098 62.4894 12.3144C63.6737 11.8129 64.8631 11.5589 66.0272 11.5589ZM72.9141 16.7578L72.8849 16.611C72.7091 15.7235 72.1572 14.0507 70.4364 12.8165C69.1592 11.9003 67.6345 11.4162 66.0272 11.4162C64.7831 11.4162 63.5117 11.7012 62.2486 12.2634L62.0676 12.3437L62.2584 12.3972C65.4518 13.2927 69.3857 14.8965 72.7816 16.6879L72.9141 16.7578Z" fill="#B74658"/>
<path d="M66.5876 10.6891C70.5292 11.9619 77.6993 18.7517 78.3716 20.0942C78.3752 20.1013 78.3786 20.1084 78.3816 20.115C74.5145 16.8547 66.2807 13.1966 61.2158 11.9776C62.7295 11.5572 66.2944 10.7548 66.5876 10.6891ZM78.4684 20.377L78.5329 20.3164C78.5653 20.2716 78.5681 20.2108 78.5416 20.1302C78.1817 19.0369 70.7547 11.8702 66.6127 10.5473L66.5942 10.5413L66.5754 10.5454C66.5325 10.555 62.2731 11.5103 60.9124 11.9162L60.6524 11.9938L60.9169 12.0541C65.9952 13.2148 74.5597 17.0029 78.4203 20.3355L78.4684 20.377Z" fill="#2D3134"/>
<path d="M67.0208 3.13885C76.3783 1.10253 87.0405 8.34961 87.3444 10.6151C87.4615 11.4879 83.8889 10.067 75.9188 10.6151C69.1084 11.0836 63.4882 14.04 59.8586 11.9324C62.4346 11.308 63.5907 9.53098 64.5226 8.11744C65.6543 6.40002 65.8885 3.38514 67.0208 3.13885Z" fill="#8D9AAA"/>
<path d="M66.2689 3.8559C66.4778 3.47099 66.7163 3.20512 67.0196 3.13934C76.3771 1.10302 87.0392 8.3501 87.3431 10.6156C87.3465 10.6407 87.3464 10.6637 87.3437 10.6851C85.6797 7.99705 74.8338 1.70417 66.2689 3.8559Z" fill="#C1CAD7"/>
<path d="M64.5226 8.11743C64.976 7.42933 65.2853 6.53317 65.5661 5.68983C65.398 8.99675 68.2388 9.37869 69.6061 9.45905C73.1448 9.61998 76.4355 9.21982 80.1157 9.49934C84.8808 9.86126 86.7708 10.6151 87.2874 10.3934C87.3158 10.4717 87.3351 10.5459 87.3444 10.6151C87.4615 11.4879 83.8889 10.067 75.9188 10.6151C69.1083 11.0836 63.4882 14.04 59.8586 11.9324C62.4346 11.308 63.5907 9.53098 64.5226 8.11743Z" fill="#6E7C8B"/>
<path d="M79.6197 10.4144C78.4141 10.4144 77.1671 10.4583 75.9134 10.5444C73.3701 10.7194 70.9561 11.2484 68.8263 11.7153C66.7243 12.176 64.7389 12.6112 63.0449 12.6112C61.8577 12.6112 60.8755 12.3972 60.0494 11.9577C62.5139 11.2948 63.6477 9.57446 64.5627 8.18573L64.5816 8.15705C65.0646 7.4241 65.3908 6.44281 65.6785 5.57693C66.0769 4.37804 66.421 3.34258 67.0354 3.20896C68.1181 2.97337 69.2672 2.85387 70.451 2.85387C78.9521 2.85387 87.0252 8.77755 87.2731 10.6252C87.2816 10.6885 87.2631 10.7178 87.2485 10.7347C87.1891 10.8025 87.0245 10.8355 86.7451 10.8355C86.4009 10.8355 85.8903 10.7854 85.244 10.7219C83.9963 10.5995 82.1108 10.4144 79.6197 10.4144ZM63.0449 12.7539C64.7544 12.7539 66.7471 12.3171 68.8568 11.8548C70.9818 11.3888 73.3904 10.861 75.9232 10.6869C77.1737 10.6008 78.4174 10.5573 79.6197 10.5573C82.1038 10.5573 83.9852 10.7419 85.2301 10.8639C85.8803 10.9279 86.3938 10.9782 86.7451 10.9782C87.0815 10.9782 87.2642 10.9334 87.3559 10.8287C87.4068 10.7704 87.4266 10.6955 87.4146 10.6063C87.1261 8.45615 78.6211 2.71115 70.451 2.71115C69.257 2.71115 68.0976 2.83157 67.005 3.06943C66.3112 3.22058 65.9552 4.29154 65.543 5.53186C65.2581 6.38932 64.9351 7.36128 64.4624 8.07852L64.4435 8.10697C63.5207 9.50731 62.3725 11.2498 59.8411 11.8634L59.6684 11.9053L59.8223 11.9946C60.702 12.5056 61.7564 12.7539 63.0449 12.7539Z" fill="#2D3134"/>
<path d="M67.7934 5.45233C67.8303 5.79922 68.5944 6.00203 69.4999 5.90575C70.4055 5.80947 71.1097 5.45028 71.0728 5.10338C71.0359 4.75671 70.2719 4.55367 69.3663 4.65018C68.4607 4.74646 67.7565 5.10565 67.7934 5.45233Z" fill="#4B596B"/>
<path d="M69.3672 4.64991C70.007 4.58162 70.5747 4.66357 70.8667 4.83952C70.8527 5.17458 70.1685 5.51214 69.2947 5.60501C68.6549 5.67307 68.0872 5.59136 67.7952 5.41541C67.8093 5.08034 68.4934 4.74278 69.3672 4.64991Z" fill="#2C3845"/>
<path d="M70.1103 4.70981C70.623 4.7542 70.9815 4.91535 71.0023 5.11088C71.0303 5.37424 70.4173 5.73616 69.4928 5.8345C69.2361 5.86181 68.9885 5.86545 68.7569 5.84542C68.2442 5.80103 67.8857 5.6401 67.8649 5.44458C67.8506 5.31028 67.9944 5.15595 68.2593 5.02074C68.5489 4.87301 68.9448 4.76648 69.3744 4.72073C69.6312 4.69342 69.8788 4.68978 70.1103 4.70981ZM68.7446 5.98768C68.9852 6.00863 69.2421 6.00476 69.508 5.97653C70.4672 5.87433 71.1859 5.4876 71.1443 5.09563C71.1147 4.81793 70.7327 4.62058 70.1226 4.56754C69.882 4.54683 69.6251 4.55047 69.3593 4.57893C68.9128 4.62627 68.4991 4.73803 68.1945 4.8935C67.8692 5.05944 67.7017 5.26043 67.7229 5.45983C67.7525 5.73753 68.1344 5.93488 68.7446 5.98768Z" fill="#2D3134"/>
</svg>
