<svg width="311" height="337" viewBox="0 0 311 337" fill="none" xmlns="http://www.w3.org/2000/svg">
<circle cx="205" cy="231" r="104" stroke="#667BC6" stroke-width="4" stroke-dasharray="8 8"/>
<path d="M69.9 123.2L66.3 104C84.4333 102.667 99.1 99.8667 110.3 95.6C121.767 91.3333 130.033 86.2667 135.1 80.4C140.433 74.2667 143.1 68.1333 143.1 62C143.1 57.2 142.033 53.2 139.9 50C137.767 46.8 134.567 45.2 130.3 45.2C126.3 45.2 122.967 46.6667 120.3 49.6C117.633 52.2667 116.3 55.6 116.3 59.6C116.3 64.6666 118.433 69.4666 122.7 74C126.967 78.2667 132.3 81.4667 138.7 83.6L126.3 96.4C117.767 93.2 110.433 88.5333 104.3 82.4C98.4333 76.2667 95.5 68.6667 95.5 59.6C95.5 50.2667 98.7 42.1333 105.1 35.2C111.767 28.2666 120.433 24.8 131.1 24.8C141.767 24.8 149.767 28.5333 155.1 36C160.7 43.2 163.5 51.4666 163.5 60.8C163.5 72.5333 159.633 82.9333 151.9 92C144.167 101.067 133.233 108.267 119.1 113.6C105.233 118.933 88.8333 122.133 69.9 123.2Z" fill="#3AA6D9"/>
</svg>
