<svg width="239" height="498" viewBox="0 0 239 498" fill="none" xmlns="http://www.w3.org/2000/svg">
<path d="M66 76.5L63.75 64.5C75.0833 63.6667 84.25 61.9167 91.25 59.25C98.4167 56.5833 103.583 53.4167 106.75 49.75C110.083 45.9167 111.75 42.0833 111.75 38.25C111.75 35.25 111.083 32.75 109.75 30.75C108.417 28.75 106.417 27.75 103.75 27.75C101.25 27.75 99.1667 28.6667 97.5 30.5C95.8333 32.1667 95 34.25 95 36.75C95 39.9167 96.3333 42.9167 99 45.75C101.667 48.4167 105 50.4167 109 51.75L101.25 59.75C95.9167 57.75 91.3333 54.8333 87.5 51C83.8333 47.1667 82 42.4167 82 36.75C82 30.9167 84 25.8333 88 21.5C92.1667 17.1667 97.5833 15 104.25 15C110.917 15 115.917 17.3333 119.25 22C122.75 26.5 124.5 31.6667 124.5 37.5C124.5 44.8333 122.083 51.3333 117.25 57C112.417 62.6667 105.583 67.1667 96.75 70.5C88.0833 73.8333 77.8333 75.8333 66 76.5Z" fill="#667BC6"/>
<path d="M164.691 192.999C164.659 192.564 164.787 192.131 165.049 191.782L192.132 155.671C193.132 154.338 195.25 154.947 195.388 156.608L209.36 323.79L209.361 323.801L209.363 323.827C209.366 323.859 209.369 323.886 209.372 323.914L211.173 323.711L209.372 323.914C209.502 325.07 215.491 378.46 213.944 412.742C213.875 414.268 213.811 415.739 213.748 417.163C213.048 433.089 212.602 443.236 209.391 459.847C207.134 471.527 202.036 488.082 200.056 494.333C199.825 495.06 199.149 495.558 198.356 495.558H188.062C187.111 495.558 186.321 494.824 186.253 493.875L164.691 192.999Z" fill="#3AA6D9" stroke="#3AA6D9" stroke-width="3.62565"/>
<path d="M234.253 103.176L225.935 127.77C225.696 128.475 225.064 128.97 224.309 129.032C216.955 129.632 193.99 131.909 179.553 138.039C165.714 143.916 149.502 157.66 141.942 164.462C140.863 165.432 139.291 164.876 138.994 163.65C138.122 160.06 137.095 155.296 136.517 150.768C135.973 146.507 135.873 142.759 136.475 140.373C136.585 140.304 136.711 140.225 136.849 140.138C137.458 139.755 138.325 139.207 139.357 138.542C141.419 137.214 144.151 135.417 146.811 133.552C149.457 131.698 152.091 129.736 153.926 128.083C154.824 127.273 155.639 126.444 156.149 125.673C156.395 125.301 156.68 124.782 156.766 124.178C156.868 123.462 156.675 122.622 155.962 122.023C154.305 120.628 153.225 119.975 151.175 118.735C150.082 118.074 148.714 117.247 146.837 116.052C141.397 112.59 134.998 106.89 133.443 98.0483C131.839 88.9201 133.102 80.2088 139.484 69.4471C145.819 58.7659 155.125 52.9596 161.5 50.2031C167.848 47.4586 178.449 45.4417 186.39 45.4417C192.822 45.4417 202.429 46.2344 208.132 47.5532C210.208 48.0332 211.862 49.1675 212.582 50.7656C214.142 54.2273 213.959 59.0148 212.918 63.9337C211.917 68.6656 210.193 73.1951 208.934 76.1385C208.918 76.1345 208.904 76.1294 208.892 76.1237C208.887 76.1214 208.883 76.1194 208.88 76.1178C206.173 72.222 200.157 66.7095 188.163 66.7095C179.352 66.7095 171.634 68.9098 166.192 72.7786C160.713 76.6739 157.507 82.3143 158.082 88.9326C158.655 95.5213 163.187 101.584 169.599 105.736C176.046 109.91 184.6 112.307 193.672 111.463C205.62 110.351 222.242 104.449 231.69 100.78C233.225 100.184 234.754 101.697 234.253 103.176Z" fill="#3AA6D9" stroke="#3AA6D9" stroke-width="3.62565"/>
</svg>
