<svg width="258" height="194" viewBox="0 0 258 194" fill="none" xmlns="http://www.w3.org/2000/svg">
<path d="M195.968 194.001C221.73 194.001 242.614 189.982 242.614 185.024C242.614 180.067 221.73 176.048 195.968 176.048C170.206 176.048 149.322 180.067 149.322 185.024C149.322 189.982 170.206 194.001 195.968 194.001Z" fill="#EFBAB4"/>
<path d="M214.916 160.614C216.552 161.384 218.189 162.152 219.823 162.921C221.488 162.465 223.062 161.889 224.458 160.877C224.204 159.796 223.755 158.774 222.809 158.189L221.615 158.541C224.557 157.644 227.264 155.98 229.388 153.751C231.598 151.434 233.182 148.556 233.903 145.436C232.616 143.206 231.204 141.047 229.674 138.972C228.018 136.722 226.225 134.571 224.308 132.537C221.382 136.266 218.589 140.018 215.662 143.746L215.128 155.811L214.916 160.614Z" fill="#F6E2D7"/>
<path d="M215.661 143.746L215.127 155.811C217.333 154.46 219.352 152.763 221.135 150.889C224.511 147.341 227.142 143.171 229.673 138.972C228.018 136.722 226.224 134.571 224.307 132.537C221.381 136.266 218.588 140.018 215.661 143.746Z" fill="#EFCAB9"/>
<path d="M219.824 163.531C219.735 163.531 219.647 163.512 219.565 163.473L214.657 161.166C214.435 161.062 214.297 160.834 214.308 160.588L215.053 143.72C215.059 143.593 215.104 143.471 215.183 143.37C216.644 141.509 218.097 139.609 219.502 137.771C220.909 135.931 222.364 134.029 223.83 132.162C223.939 132.023 224.104 131.938 224.281 131.93C224.456 131.919 224.631 131.991 224.752 132.12C228.468 136.063 231.724 140.441 234.43 145.133C234.507 145.267 234.531 145.425 234.496 145.575C233.757 148.774 232.143 151.747 229.83 154.172C228.146 155.939 226.133 157.351 223.916 158.334C224.437 158.92 224.812 159.716 225.052 160.739C225.108 160.978 225.015 161.228 224.816 161.372C223.213 162.532 221.392 163.124 219.985 163.51C219.932 163.524 219.878 163.531 219.824 163.531ZM215.543 160.236L219.879 162.274C221.107 161.929 222.489 161.457 223.761 160.62C223.52 159.801 223.176 159.229 222.702 158.857L221.814 159.118C221.685 159.157 221.555 159.195 221.424 159.232C221.102 159.323 220.767 159.136 220.674 158.814C220.581 158.492 220.766 158.155 221.088 158.061L221.464 157.95C224.31 157.079 226.891 155.488 228.948 153.331C231.055 151.122 232.54 148.43 233.253 145.532C230.737 141.205 227.745 137.153 224.349 133.475C223.037 135.155 221.734 136.858 220.47 138.511C219.102 140.301 217.687 142.151 216.262 143.969L215.543 160.236Z" fill="#1F404D"/>
<path d="M197.155 184.291C202.59 186.291 215.248 187.041 216.461 185.618C217.535 182.3 212.669 181.254 209.767 180.668C210.984 178.711 212.195 176.469 213.268 174.124C214.533 171.367 215.609 168.463 216.266 165.724C211.575 166.084 203.926 166.127 199.254 166.487C199.321 169.273 198.943 172.957 198.492 176.231C197.892 180.612 197.155 184.291 197.155 184.291Z" fill="#F6E2D7"/>
<path d="M197.84 181.95C197.911 181.91 197.992 181.876 198.086 181.853C199.932 181.401 201.821 181.12 203.726 180.912C205.572 180.711 207.623 180.318 209.471 180.625C210.29 180.761 211.053 181.066 211.814 181.365C212.587 181.669 213.395 181.879 214.164 182.18C215.571 182.731 216.409 184.028 216.289 185.463C216.229 186.184 215.386 186.411 214.893 186.14C214.847 186.152 214.799 186.162 214.748 186.168C211.444 186.55 207.996 185.959 204.72 185.56C203.096 185.362 201.473 185.139 199.858 184.852C199.233 184.741 198.4 184.716 197.857 184.364C197.62 184.21 197.443 183.992 197.352 183.732C197.315 183.625 197.348 183.209 197.286 183.133C196.839 182.587 197.279 182.052 197.84 181.95Z" fill="#666666"/>
<path d="M198.492 176.231C203.479 176.384 208.493 175.662 213.268 174.124C214.533 171.367 215.609 168.463 216.266 165.724C211.575 166.084 203.925 166.127 199.254 166.487C199.321 169.273 198.943 172.957 198.492 176.231Z" fill="#EFCAB9"/>
<path d="M211.727 186.965C210.521 186.965 209.315 186.908 208.352 186.846C204.819 186.616 199.967 185.975 196.944 184.863C196.663 184.759 196.498 184.466 196.557 184.172C196.58 184.06 198.797 172.888 198.644 166.502C198.636 166.178 198.884 165.905 199.207 165.88C201.555 165.699 204.694 165.596 207.729 165.497C210.756 165.398 213.886 165.296 216.219 165.116C216.415 165.101 216.603 165.18 216.729 165.328C216.856 165.477 216.903 165.676 216.858 165.866C215.801 170.265 213.533 175.582 210.738 180.245C212.887 180.704 215.786 181.483 216.826 183.261C217.269 184.019 217.341 184.875 217.039 185.806C217.015 185.882 216.975 185.952 216.924 186.013C216.286 186.762 214.006 186.965 211.727 186.965ZM197.854 183.889C200.314 184.696 204.255 185.352 208.337 185.623C212.788 185.919 215.368 185.611 215.926 185.275C216.065 184.747 216.015 184.288 215.774 183.876C214.865 182.32 211.47 181.633 209.646 181.264C209.451 181.225 209.287 181.092 209.208 180.909C209.129 180.726 209.144 180.515 209.25 180.346C212.014 175.895 214.303 170.745 215.467 166.391C213.23 166.536 210.459 166.627 207.769 166.715C204.988 166.805 202.119 166.899 199.87 167.053C199.891 172.872 198.284 181.646 197.854 183.889Z" fill="#1F404D"/>
<path d="M197.607 182.453C197.336 182.453 197.088 182.271 197.017 181.996C196.933 181.671 197.128 181.338 197.454 181.254C201.526 180.198 205.743 179.671 209.999 179.684C210.335 179.685 210.607 179.959 210.606 180.295C210.605 180.631 210.332 180.903 209.997 180.903C209.941 180.906 209.89 180.902 209.837 180.902C205.743 180.902 201.681 181.417 197.76 182.434C197.709 182.447 197.657 182.453 197.607 182.453Z" fill="#1F404D"/>
<path d="M189.452 182.04C189.381 182 189.3 181.967 189.206 181.945C187.351 181.5 185.455 181.224 183.542 181.02C181.688 180.822 179.625 180.435 177.774 180.737C176.954 180.871 176.193 181.171 175.434 181.465C174.662 181.764 173.855 181.97 173.089 182.266C171.688 182.807 170.869 184.079 171.013 185.484C171.085 186.188 171.932 186.41 172.42 186.146C172.467 186.157 172.515 186.167 172.566 186.173C175.875 186.545 179.316 185.968 182.589 185.578C184.212 185.384 185.834 185.166 187.449 184.886C188.073 184.777 188.907 184.752 189.449 184.407C189.686 184.256 189.861 184.043 189.951 183.788C189.987 183.684 189.952 183.275 190.014 183.201C190.46 182.666 190.016 182.14 189.452 182.04Z" fill="#666666"/>
<path d="M190.645 182.838C190.59 182.838 190.535 182.83 190.479 182.815C187.431 181.957 182.823 181.436 177.504 181.349C177.167 181.343 176.899 181.066 176.904 180.729C176.91 180.396 177.182 180.13 177.513 180.13C177.517 180.13 177.52 180.13 177.524 180.13C182.945 180.219 187.663 180.756 190.809 181.642C191.133 181.733 191.322 182.069 191.231 182.393C191.155 182.662 190.911 182.838 190.645 182.838Z" fill="#1F404D"/>
<path d="M240.591 80.0424C242.158 78.2035 244.517 77.0635 246.932 76.9779C249.347 76.8922 251.78 77.8624 253.474 79.5859C256.018 82.1757 256.708 86.1402 256.214 89.7372C255.617 94.0824 253.442 98.1935 250.185 101.131C246.928 104.069 242.615 105.81 238.231 105.957C235.281 105.027 233.363 102.451 232.761 99.4172C232.159 96.3834 232.808 93.2268 233.876 90.3242C235.246 86.6036 238.02 83.0598 240.591 80.0424Z" fill="#F6E2D7"/>
<path d="M238.232 106.625C238.164 106.625 238.096 106.614 238.031 106.594C235.008 105.64 232.793 103.006 232.107 99.5471C231.556 96.772 231.93 93.6796 233.25 90.0932C234.659 86.2672 237.495 82.6462 240.083 79.6088C241.766 77.6351 244.317 76.4019 246.909 76.3101C249.505 76.2196 252.133 77.2678 253.951 79.1175C256.403 81.6125 257.469 85.5165 256.877 89.8279C256.262 94.302 253.986 98.6028 250.633 101.627C247.279 104.652 242.768 106.473 238.254 106.625C238.247 106.625 238.239 106.625 238.232 106.625ZM241.101 80.4757C238.588 83.4233 235.84 86.9259 234.504 90.5549C233.272 93.9039 232.916 96.7601 233.418 99.287C233.999 102.218 235.83 104.451 238.325 105.285C242.49 105.117 246.644 103.426 249.738 100.635C252.861 97.8182 254.98 93.8129 255.553 89.6462C256.081 85.8053 255.125 82.2196 252.998 80.0544C251.438 78.4674 249.183 77.5685 246.956 77.6458C244.733 77.7243 242.544 78.7824 241.101 80.4757Z" fill="#1F404D"/>
<path d="M230.963 97.1496C230.728 97.0556 230.511 96.9052 230.334 96.7002C229.742 96.016 229.817 94.9814 230.501 94.3895C235.606 89.9746 242.131 87.3845 248.873 87.0963C249.777 87.0575 250.541 87.7589 250.58 88.663C250.619 89.5669 249.917 90.331 249.013 90.3697C243.006 90.6266 237.193 92.9343 232.644 96.8675C232.165 97.282 231.514 97.3697 230.963 97.1496Z" fill="#1F404D"/>
<path d="M232.546 113.649C235.65 110.545 235.65 105.513 232.546 102.41C229.443 99.3062 224.411 99.3062 221.307 102.41C218.203 105.513 218.203 110.545 221.307 113.649C224.411 116.752 229.443 116.752 232.546 113.649Z" fill="#F9CCC5"/>
<path d="M200.155 96.8816C200.096 97.5189 201.819 98.1999 204.004 98.4025C206.19 98.605 208.009 98.2526 208.068 97.6153C208.127 96.978 206.404 96.297 204.219 96.0944C202.033 95.8917 200.214 96.2441 200.155 96.8816Z" fill="#F9CCC5"/>
<path d="M222.468 93.4767C222.769 90.2262 221.205 87.4236 218.974 87.2168C216.744 87.01 214.691 89.4774 214.39 92.7278C214.088 95.9783 215.653 98.7809 217.883 98.9877C220.114 99.1945 222.167 96.7271 222.468 93.4767Z" fill="#1F404D"/>
<path d="M219.182 91.3085C219.295 90.3661 219.805 89.6074 220.394 89.6619C220.944 89.713 221.396 90.5638 221.283 91.5033C221.17 92.4457 220.66 93.2044 220.071 93.1498C219.521 93.0988 219.069 92.248 219.182 91.3085Z" fill="white"/>
<path d="M223.591 82.7352C223.807 82.7313 224.021 82.6433 224.18 82.4729C224.492 82.1389 224.475 81.6152 224.141 81.303C222.192 79.4808 219.215 78.9128 216.733 79.8904C216.307 80.0578 216.098 80.5385 216.266 80.9639C216.433 81.3895 216.916 81.5981 217.339 81.4309C219.21 80.6947 221.542 81.1393 223.01 82.5122C223.174 82.6652 223.383 82.739 223.591 82.7352Z" fill="#1F404D"/>
<path d="M170.846 185.634C172.081 187.024 184.728 186.292 190.153 184.336C190.153 184.336 191.692 180.887 192.711 176.595C192.741 176.471 192.772 176.347 192.806 176.22C193.778 172.599 196.588 167.825 196.724 165.103C191.977 164.739 186.384 163.393 181.593 163.024C180.885 167.053 179.108 168.896 178.581 173.313C178.568 173.421 178.555 173.528 178.545 173.639C178.287 176.157 177.891 177.452 177.48 180.779C174.576 181.355 169.713 182.383 170.846 185.634Z" fill="#F6E2D7"/>
<path d="M178.581 173.313C180.114 173.899 181.673 174.396 183.253 174.807C186.375 175.62 189.583 176.095 192.805 176.22C193.778 172.599 196.587 167.825 196.723 165.103C191.977 164.739 186.383 163.393 181.592 163.024C180.885 167.053 179.108 168.896 178.581 173.313Z" fill="#EFCAB9"/>
<path d="M175.588 186.965C173.313 186.965 171.037 186.768 170.39 186.039C170.337 185.98 170.296 185.91 170.27 185.835C169.953 184.924 170.008 184.083 170.435 183.337C171.437 181.586 174.237 180.822 176.901 180.274C177.291 175.116 179.234 167.731 180.923 162.918C181.015 162.658 181.268 162.491 181.545 162.513C183.97 162.699 186.623 163.138 189.19 163.561C191.716 163.979 194.329 164.41 196.672 164.59C196.864 164.605 197.038 164.71 197.14 164.872C197.243 165.035 197.263 165.237 197.194 165.417C194.285 172.957 190.77 184.4 190.735 184.515C190.679 184.698 190.54 184.844 190.359 184.909C187.343 185.997 182.496 186.624 178.966 186.848C178.003 186.909 176.795 186.965 175.588 186.965ZM171.373 185.282C171.929 185.611 174.516 185.916 178.975 185.626C183.172 185.353 187.22 184.683 189.661 183.862C190.214 182.075 193.171 172.595 195.767 165.734C193.595 165.524 191.259 165.138 188.991 164.764C186.617 164.372 184.166 163.967 181.919 163.767C180.243 168.654 178.372 175.912 178.087 180.814C178.071 181.091 177.87 181.322 177.597 181.376C175.769 181.74 172.366 182.417 171.493 183.942C171.268 184.336 171.228 184.776 171.373 185.282Z" fill="#1F404D"/>
<path d="M196.444 170.424C197.746 167.117 198.563 164.954 199.719 161.545C198.874 165.898 198.881 167.639 198.359 170.773C204.183 172.019 211.354 171.434 216.103 169.38C216.6 167.167 216.922 165.257 217.103 163.399C217.434 159.994 217.294 156.761 216.901 152.144L184.807 151.447C182.262 157.356 181.624 159.066 179.373 164.327C179.183 164.766 178.985 165.231 178.772 165.724C182.963 170.022 190.531 170.304 196.444 170.424Z" fill="#4D8791"/>
<path d="M196.444 170.424C197.746 167.116 198.563 164.953 199.719 161.544C198.874 165.897 198.881 167.638 198.359 170.772C204.183 172.018 211.354 171.434 216.103 169.379C216.6 167.166 216.922 165.256 217.103 163.399C215.036 165.686 212.67 167.706 210.083 169.386C210.17 167.084 209.288 164.595 208.346 162.493C208.076 164.727 207.306 166.807 206.026 168.656C203.385 164.985 200.734 161.233 200.098 156.755C197.389 159.022 195.922 162.984 195.051 166.407C193.812 165.164 191.733 164.02 190.826 162.518C190.845 164.013 191.223 165.786 191.243 167.281C186.842 168.26 182.676 167.044 179.373 164.327C179.183 164.765 178.985 165.23 178.772 165.723C182.963 170.022 190.531 170.304 196.444 170.424Z" fill="#40797F"/>
<path d="M204.871 172.026C202.599 172.026 200.331 171.808 198.233 171.359C197.919 171.292 197.713 170.99 197.766 170.673C197.959 169.514 198.079 168.554 198.198 167.561C197.832 168.522 197.445 169.517 197.001 170.644C196.909 170.877 196.69 171.027 196.431 171.024C191.016 170.915 182.833 170.749 178.342 166.142C178.172 165.968 178.124 165.709 178.22 165.486C179.597 162.29 180.429 160.291 181.233 158.358C182.04 156.42 182.874 154.416 184.255 151.209C184.35 150.989 184.567 150.847 184.806 150.847C184.81 150.847 184.815 150.847 184.819 150.847L216.914 151.543C217.22 151.55 217.473 151.787 217.499 152.092C218.101 159.148 218.121 163.128 216.689 169.511C216.646 169.698 216.517 169.854 216.341 169.93C213.173 171.301 209.015 172.026 204.871 172.026ZM199.042 170.298C204.521 171.347 211.049 170.817 215.584 168.947C216.862 163.139 216.909 159.511 216.348 152.732L185.198 152.056C183.914 155.041 183.115 156.96 182.342 158.819C181.568 160.678 180.769 162.599 179.485 165.584C183.586 169.459 190.943 169.71 196.037 169.815C197.235 166.764 198.032 164.645 199.149 161.352C199.251 161.053 199.566 160.884 199.871 160.965C200.177 161.046 200.367 161.349 200.307 161.659C199.806 164.239 199.608 165.884 199.417 167.476C199.306 168.398 199.201 169.278 199.042 170.298Z" fill="#1F404D"/>
<path d="M195.046 122.596C195.013 123.375 195.045 124.152 195.175 124.926C195.568 127.27 197.084 129.588 199.381 130.202C201.994 130.901 204.764 129.159 206.136 126.828C206.617 126.011 206.965 125.139 207.225 124.235C207.71 122.556 207.896 120.765 208.069 119.015C204.004 118.825 199.688 119.048 195.793 117.866C195.455 119.423 195.115 121.012 195.046 122.596Z" fill="#F6E2D7"/>
<g opacity="0.5">
<path d="M195.047 122.597C196.288 123.653 197.919 124.505 199.844 124.919C202.467 125.485 205.109 125.122 207.226 124.236C207.711 122.557 207.897 120.766 208.069 119.016C204.004 118.826 199.689 119.049 195.793 117.867C195.455 119.424 195.115 121.013 195.047 122.597Z" fill="#E2B8A3"/>
</g>
<path d="M200.581 131.027C200.127 131.027 199.668 130.97 199.209 130.847C196.844 130.215 195.002 127.934 194.516 125.037C194.386 124.26 194.341 123.453 194.379 122.567C194.452 120.89 194.818 119.208 195.141 117.724C195.18 117.542 195.294 117.385 195.455 117.29C195.616 117.196 195.809 117.173 195.987 117.227C198.904 118.112 202.136 118.187 205.262 118.26C206.196 118.282 207.162 118.304 208.1 118.348C208.283 118.357 208.454 118.44 208.574 118.579C208.694 118.717 208.752 118.899 208.734 119.081C208.57 120.745 208.384 122.631 207.867 124.421C207.57 125.454 207.192 126.352 206.712 127.167C205.493 129.238 203.121 131.027 200.581 131.027ZM196.296 118.702C196.03 119.952 195.771 121.31 195.714 122.625C195.68 123.416 195.719 124.132 195.834 124.816C196.162 126.767 197.439 128.99 199.554 129.556C201.937 130.194 204.379 128.496 205.56 126.489C205.983 125.772 206.317 124.974 206.583 124.05C206.997 122.618 207.188 121.076 207.334 119.654C206.634 119.628 205.923 119.612 205.231 119.596C202.256 119.527 199.187 119.455 196.296 118.702Z" fill="#1F404D"/>
<path d="M147.844 136.939C151.359 135.659 155.623 135.965 159.031 137.509C160.361 141.507 162.912 145.024 165.896 147.999C168.88 150.972 173.641 154.408 178.042 154.056C179.39 153.947 180.665 153.132 181.809 151.988C183.563 150.234 185.013 147.707 185.964 145.783L174.486 141.267C174.154 140.959 173.826 140.646 173.5 140.331C173.375 140.132 173.198 139.949 172.963 139.794C172.754 139.585 172.541 139.375 172.335 139.16C171.964 138.773 171.543 138.62 171.136 138.627C170.427 138.189 169.8 137.799 169.214 137.44C166.949 136.051 165.28 135.097 161.669 133.446C161.4 133.263 161.141 133.066 160.884 132.869C160.462 131.709 159.557 130.095 158.842 129.213C158.613 128.931 158.356 128.653 158.018 128.517C157.682 128.38 157.247 128.428 157.024 128.713C156.751 129.063 156.899 129.568 157.059 129.982C157.242 130.455 157.425 130.929 157.608 131.403C155.628 131.38 153.621 131.587 151.66 131.83C151.12 131.897 150.625 132.119 150.298 132.49C149.738 132.885 149.264 133.448 148.872 134.003L149.123 133.937C149.083 134.004 149.044 134.073 149.011 134.143C148.698 134.332 148.396 134.541 148.117 134.779L148.846 134.634C148.84 134.663 148.833 134.689 148.828 134.717C148.824 134.737 148.826 134.756 148.823 134.775C148.423 134.92 148.045 135.117 147.768 135.435C147.376 135.888 147.399 136.536 147.844 136.939Z" fill="#F6E2D7"/>
<path d="M169.214 137.44C170.046 140.748 171.661 143.862 173.923 146.416C176.076 148.847 178.804 150.755 181.809 151.988C183.562 150.234 185.013 147.707 185.963 145.783L174.486 141.267C174.153 140.959 173.826 140.646 173.5 140.331C173.375 140.132 173.197 139.949 172.963 139.794C172.754 139.584 172.541 139.375 172.335 139.16C171.963 138.773 171.543 138.62 171.136 138.627C170.427 138.189 169.8 137.8 169.214 137.44Z" fill="#EFCAB9"/>
<path d="M172.76 140.238C172.651 140.238 172.54 140.209 172.44 140.149C171.501 139.578 170.701 139.084 169.983 138.64C166.919 136.747 165.381 135.796 160.72 133.693C160.561 133.621 160.44 133.485 160.387 133.318C160.047 132.248 159.101 130.511 158.363 129.602C158.186 129.385 157.994 129.172 157.787 129.089C157.659 129.037 157.529 129.066 157.509 129.093C157.488 129.12 157.435 129.247 157.633 129.761L158.285 131.449C158.407 131.766 158.249 132.123 157.932 132.245C157.614 132.368 157.258 132.21 157.135 131.892L156.484 130.206C156.344 129.845 156.018 129.001 156.537 128.335C156.914 127.851 157.618 127.692 158.249 127.946C158.716 128.135 159.052 128.497 159.319 128.825C160.091 129.777 161.033 131.474 161.471 132.681C166.019 134.742 167.672 135.764 170.631 137.592C171.347 138.035 172.143 138.527 173.08 139.096C173.371 139.272 173.463 139.651 173.287 139.942C173.171 140.133 172.968 140.238 172.76 140.238Z" fill="#1F404D"/>
<path d="M177.397 154.699C172.312 154.699 167.395 150.365 165.46 148.436C162.122 145.108 159.793 141.587 158.534 137.965C155.216 136.538 151.226 136.364 148.053 137.518C147.84 137.596 147.599 137.55 147.429 137.396C146.745 136.777 146.689 135.739 147.302 135.033C147.795 134.465 148.491 134.21 149.169 134.019C151.429 133.383 153.759 133.174 156.097 133.397C156.435 133.429 156.684 133.73 156.651 134.069C156.619 134.408 156.315 134.654 155.98 134.624C153.795 134.414 151.616 134.61 149.503 135.205C148.932 135.365 148.498 135.535 148.233 135.84C148.137 135.95 148.096 136.077 148.108 136.198C151.566 135.094 155.799 135.37 159.284 136.949C159.44 137.019 159.56 137.152 159.614 137.315C160.79 140.845 163.049 144.293 166.329 147.563C167.814 149.042 173.039 153.838 177.992 153.443C181.164 153.189 184.001 148.364 185.41 145.511C185.561 145.206 185.93 145.08 186.235 145.231C186.54 145.382 186.666 145.751 186.515 146.056C184.653 149.828 181.68 154.384 178.09 154.671C177.859 154.69 177.628 154.699 177.397 154.699Z" fill="#1F404D"/>
<path d="M148.116 135.396C147.942 135.396 147.769 135.323 147.647 135.18C147.426 134.921 147.457 134.532 147.716 134.311C148.914 133.29 150.558 132.615 152.47 132.359C154.14 132.136 155.817 132.233 157.438 132.326C157.778 132.346 158.037 132.637 158.018 132.977C157.998 133.317 157.705 133.577 157.367 133.556C155.803 133.466 154.186 133.373 152.634 133.581C150.957 133.805 149.533 134.382 148.515 135.249C148.399 135.348 148.257 135.396 148.116 135.396Z" fill="#1F404D"/>
<path d="M148.871 134.62C148.748 134.62 148.624 134.583 148.516 134.507C148.238 134.31 148.172 133.926 148.369 133.648C148.947 132.831 149.87 131.711 151.203 131.414C153.369 130.932 155.583 130.825 157.785 131.096C158.122 131.138 158.362 131.446 158.321 131.783C158.279 132.121 157.972 132.361 157.634 132.319C155.572 132.065 153.499 132.165 151.471 132.617C150.782 132.77 150.096 133.34 149.375 134.36C149.254 134.53 149.064 134.62 148.871 134.62Z" fill="#1F404D"/>
<path d="M185.652 147.045C185.29 148.932 185.073 149.435 184.341 151.708C193.743 155.538 207.671 154.667 217.421 153.1C217.417 153.076 217.414 153.053 217.412 153.029C217.094 150.674 217.101 149.923 216.857 148.22C216.853 148.205 216.852 148.191 216.85 148.175C216.803 147.851 216.747 147.493 216.678 147.082H216.69L216.705 147.083C218.957 145.691 221.098 144.259 222.996 142.696C225.217 140.873 227.108 138.871 228.463 136.556C228.36 136.371 228.254 136.19 228.146 136.009C228.062 135.868 227.975 135.727 227.886 135.588C227.702 135.293 227.508 135.004 227.31 134.719C227.225 134.597 227.139 134.475 227.05 134.357C227.042 134.343 227.031 134.329 227.021 134.315C226.946 134.211 226.869 134.108 226.789 134.005C226.735 133.93 226.68 133.857 226.62 133.784C226.579 133.73 226.537 133.674 226.491 133.62C226.437 133.549 226.38 133.477 226.323 133.408C226.243 133.307 226.161 133.208 226.077 133.108C226.051 133.077 226.025 133.046 225.997 133.014C225.917 132.919 225.835 132.823 225.75 132.727C225.712 132.68 225.67 132.635 225.628 132.588C225.539 132.487 225.449 132.386 225.358 132.287C225.255 132.175 225.151 132.064 225.047 131.952C224.919 131.818 224.792 131.688 224.662 131.557C224.568 131.461 224.474 131.369 224.378 131.275C224.035 130.939 223.682 130.612 223.319 130.295C223.199 130.189 223.079 130.084 222.956 129.981C222.813 129.86 222.667 129.738 222.52 129.619C222.505 129.605 222.489 129.591 222.471 129.579C222.332 129.466 222.189 129.353 222.047 129.242C221.897 129.125 221.747 129.01 221.594 128.895C221.58 128.885 221.568 128.874 221.554 128.866C221.43 128.773 221.305 128.681 221.18 128.59C221.129 128.552 221.081 128.517 221.03 128.482C220.894 128.385 220.758 128.289 220.621 128.195C220.499 128.11 220.375 128.026 220.252 127.944C220.181 127.894 220.109 127.847 220.036 127.8C219.902 127.711 219.766 127.624 219.63 127.537C219.463 127.431 219.294 127.325 219.124 127.222C218.784 127.013 218.439 126.811 218.089 126.613C217.717 126.402 217.339 126.198 216.956 126.002C216.801 125.921 216.646 125.841 216.491 125.765C216.31 125.674 216.129 125.585 215.946 125.498C215.767 125.411 215.586 125.326 215.405 125.242C215.398 125.239 215.391 125.235 215.384 125.234C215.203 125.15 215.022 125.07 214.84 124.99C214.68 124.918 214.52 124.849 214.358 124.781C214.332 124.769 214.306 124.758 214.28 124.748C214.189 124.709 214.099 124.671 214.008 124.635C213.888 124.584 213.768 124.535 213.646 124.487C213.456 124.41 213.265 124.335 213.072 124.262C212.936 124.21 212.8 124.159 212.664 124.109C212.529 124.058 212.393 124.008 212.255 123.959C212.119 123.91 211.982 123.862 211.844 123.815C211.707 123.766 211.569 123.719 211.432 123.674C211.294 123.628 211.156 123.583 211.017 123.538C210.893 123.498 210.772 123.46 210.648 123.42C210.615 123.409 210.584 123.399 210.551 123.39C210.441 123.355 210.331 123.322 210.22 123.289C209.953 123.209 209.687 123.131 209.419 123.056C209.285 123.017 209.149 122.981 209.015 122.944C208.74 122.868 208.465 122.796 208.19 122.728C208.059 122.697 207.93 122.666 207.8 122.634C207.53 122.568 207.258 122.507 206.986 122.448C206.851 122.418 206.713 122.389 206.577 122.361C206.442 122.331 206.306 122.305 206.168 122.277C206.032 122.249 205.896 122.223 205.759 122.197C205.621 122.171 205.485 122.145 205.35 122.122C205.214 122.098 205.076 122.074 204.94 122.051C204.803 122.028 204.667 122.006 204.529 121.983C203.638 121.84 202.747 121.726 201.857 121.64C201.692 121.625 201.528 121.609 201.363 121.597C201.326 121.591 201.288 121.588 201.249 121.586C201.091 121.572 200.932 121.56 200.774 121.55C200.647 121.541 200.518 121.532 200.391 121.525C200.299 121.518 200.206 121.513 200.114 121.508C199.759 121.489 199.404 121.473 199.05 121.463C198.918 121.459 198.786 121.456 198.655 121.452C198.436 121.449 198.218 121.445 198 121.445H197.87C197.523 121.445 197.18 121.451 196.839 121.461C196.813 121.463 196.785 121.463 196.759 121.464C196.588 121.47 196.419 121.477 196.249 121.485C196.04 121.496 195.833 121.508 195.627 121.522C195.497 121.531 195.365 121.541 195.234 121.551C194.668 121.597 194.107 121.658 193.554 121.734C193.402 121.755 193.251 121.776 193.1 121.8C192.99 121.816 192.88 121.833 192.77 121.852C192.715 121.861 192.659 121.87 192.603 121.88C192.478 121.901 192.353 121.924 192.227 121.948C192.137 121.962 192.046 121.98 191.955 121.999C191.881 122.013 191.806 122.027 191.731 122.042C191.633 122.063 191.537 122.082 191.442 122.103C191.153 122.164 190.866 122.23 190.58 122.298C190.578 122.3 190.578 122.3 190.576 122.3C190.291 122.371 190.005 122.444 189.723 122.524C189.608 122.556 189.494 122.589 189.38 122.622C189.332 122.634 189.285 122.648 189.239 122.664C189.119 122.699 189.001 122.735 188.883 122.774C188.743 122.817 188.604 122.862 188.466 122.908C188.329 122.953 188.191 123 188.054 123.049C187.942 123.085 187.833 123.124 187.723 123.165C187.613 123.205 187.504 123.247 187.396 123.287C187.286 123.329 187.178 123.371 187.07 123.412C186.311 123.71 185.568 124.041 184.842 124.405C184.634 124.508 184.429 124.614 184.225 124.723C184.13 124.774 184.036 124.826 183.942 124.877C183.923 124.885 183.903 124.896 183.884 124.908C183.698 125.012 183.512 125.117 183.327 125.225C183.32 125.226 183.313 125.23 183.306 125.235C183.221 125.288 183.134 125.338 183.049 125.388C183.024 125.402 183 125.416 182.975 125.434C182.888 125.486 182.803 125.538 182.716 125.592C182.518 125.712 182.322 125.838 182.128 125.966C181.934 126.092 181.741 126.222 181.549 126.355C181.452 126.419 181.356 126.487 181.26 126.557C181.165 126.624 181.069 126.692 180.975 126.762C180.665 126.987 180.358 127.218 180.057 127.458C179.989 127.512 179.923 127.566 179.855 127.62C179.606 127.82 179.361 128.026 179.117 128.237C179.035 128.306 178.954 128.378 178.873 128.451C178.84 128.478 178.806 128.508 178.773 128.54C178.715 128.59 178.658 128.64 178.602 128.693C177.998 129.236 177.411 129.812 176.844 130.416C176.743 130.523 176.642 130.631 176.544 130.738C176.3 131.003 176.06 131.275 175.823 131.55C175.712 131.679 175.604 131.809 175.494 131.94C175.493 131.942 175.493 131.942 175.491 131.943C175.38 132.079 175.268 132.215 175.157 132.353C175.051 132.485 174.944 132.617 174.842 132.751C174.725 132.899 174.61 133.049 174.495 133.201C174.391 133.338 174.288 133.478 174.185 133.619C173.992 133.88 173.802 134.146 173.616 134.416C173.563 134.492 173.51 134.569 173.457 134.646C173.381 134.759 173.304 134.872 173.228 134.987C173.125 135.14 173.024 135.293 172.925 135.45C172.723 135.762 172.524 136.079 172.329 136.401C172.232 136.561 172.134 136.723 172.038 136.887C171.951 137.035 171.866 137.183 171.781 137.332C171.769 137.351 171.756 137.372 171.746 137.393C171.675 137.518 171.603 137.644 171.534 137.771C171.485 137.858 171.436 137.945 171.389 138.034C171.323 138.151 171.26 138.271 171.196 138.389C175.728 142.543 181.2 145.195 185.733 145.76L185.881 145.767C185.797 146.26 185.722 146.68 185.652 147.045Z" fill="#FBB03B"/>
<path d="M185.653 147.045C185.693 147.052 185.732 147.059 185.772 147.066C192.732 148.251 199.824 148.805 206.413 146.519C208.6 145.76 210.717 144.672 212.354 143.032C213.393 141.991 214.222 140.707 214.677 139.315C214.875 140.388 215.061 141.465 215.344 142.518C215.789 144.168 216.236 145.822 216.746 147.455C216.781 147.693 216.815 147.932 216.851 148.175C216.852 148.19 216.854 148.204 216.858 148.22C217.068 149.698 217.272 151.272 217.509 153.013C217.477 153.018 217.446 153.024 217.413 153.029C217.415 153.053 217.418 153.076 217.422 153.1C207.672 154.667 193.744 155.537 184.342 151.707C185.074 149.435 185.291 148.932 185.653 147.045Z" fill="#F7931E"/>
<path d="M188.056 123.049C188.158 123.977 188.28 124.901 188.496 125.809C190.011 132.146 196.58 136.216 202.912 135.325C205.868 134.909 208.713 133.446 210.734 131.237C212.43 129.379 213.496 127.111 214.281 124.748C213.215 124.299 212.125 123.895 211.018 123.538C210.292 125.779 209.291 127.929 207.505 129.534C203.93 132.75 198.277 132.776 194.691 129.56C192.601 127.687 191.792 125.324 191.498 122.598C191.48 122.433 191.461 122.267 191.444 122.104C190.282 122.349 189.152 122.664 188.056 123.049Z" fill="white"/>
<path d="M216.705 147.693C216.501 147.693 216.302 147.591 216.187 147.404C216.01 147.118 216.098 146.743 216.384 146.566C219.04 144.923 220.959 143.584 222.608 142.226C224.863 140.375 226.551 138.515 227.756 136.549C227.712 136.473 227.667 136.397 227.622 136.321C227.541 136.184 227.457 136.049 227.372 135.915C227.202 135.645 227.019 135.369 226.809 135.067C226.729 134.952 226.648 134.836 226.563 134.723C226.553 134.709 226.543 134.695 226.534 134.681C226.455 134.572 226.383 134.476 226.308 134.38C226.304 134.374 226.299 134.368 226.295 134.362C226.247 134.296 226.199 134.232 226.147 134.168L226.107 134.116C226.08 134.081 226.053 134.046 226.025 134.012C226.018 134.004 226.012 133.996 226.005 133.988C225.956 133.923 225.905 133.859 225.853 133.796C225.769 133.69 225.691 133.596 225.611 133.501C225.587 133.472 225.565 133.446 225.541 133.419C225.453 133.314 225.375 133.223 225.294 133.132C225.288 133.125 225.282 133.118 225.277 133.111C225.253 133.083 225.228 133.055 225.203 133.027L225.172 132.993C225.084 132.892 224.996 132.794 224.908 132.697C224.821 132.603 224.73 132.507 224.64 132.41L224.601 132.369C224.482 132.245 224.358 132.116 224.231 131.988C224.135 131.889 224.045 131.801 223.955 131.714C223.617 131.383 223.269 131.061 222.918 130.754C222.799 130.649 222.681 130.547 222.563 130.448C222.419 130.323 222.278 130.207 222.137 130.093C222.13 130.087 222.122 130.081 222.115 130.075C222.111 130.071 222.116 130.074 222.123 130.079C222.109 130.07 222.096 130.06 222.084 130.049C221.95 129.939 221.812 129.83 221.675 129.725C221.524 129.605 221.38 129.494 221.232 129.385C221.228 129.383 221.215 129.373 221.209 129.368C221.201 129.362 221.193 129.356 221.185 129.35C221.067 129.261 220.947 129.172 220.827 129.087C220.822 129.084 220.816 129.08 220.811 129.076C220.768 129.043 220.727 129.014 220.684 128.984C220.541 128.88 220.412 128.789 220.281 128.701C220.155 128.613 220.038 128.532 219.92 128.456C219.913 128.451 219.906 128.446 219.9 128.442C219.836 128.396 219.772 128.354 219.706 128.312C219.57 128.222 219.438 128.136 219.306 128.053C219.138 127.944 218.975 127.843 218.809 127.744C218.488 127.545 218.158 127.35 217.791 127.144C217.425 126.937 217.051 126.735 216.677 126.543C216.522 126.46 216.373 126.385 216.224 126.312C216.04 126.218 215.864 126.132 215.689 126.05C215.505 125.959 215.332 125.88 215.159 125.8C215.148 125.795 215.137 125.791 215.126 125.786C214.952 125.705 214.777 125.626 214.6 125.55C214.437 125.477 214.28 125.409 214.123 125.343C214.115 125.339 214.107 125.336 214.1 125.333C214.085 125.325 214.069 125.32 214.054 125.314C214.05 125.312 214.035 125.306 214.031 125.304C213.947 125.269 213.864 125.233 213.78 125.199C213.656 125.147 213.539 125.1 213.42 125.052C213.232 124.977 213.045 124.903 212.856 124.832C212.722 124.78 212.592 124.73 212.461 124.683C212.315 124.627 212.184 124.58 212.052 124.533C211.912 124.482 211.78 124.436 211.647 124.391C211.508 124.342 211.374 124.296 211.241 124.252C211.102 124.204 210.967 124.161 210.833 124.118C210.703 124.075 210.587 124.038 210.468 124.001L210.443 123.993C210.427 123.988 210.412 123.983 210.395 123.978C210.385 123.976 210.376 123.973 210.366 123.97C210.263 123.937 210.16 123.904 210.055 123.875C209.756 123.783 209.5 123.709 209.259 123.643C209.118 123.601 208.989 123.566 208.862 123.533C208.599 123.46 208.335 123.391 208.044 123.319L207.937 123.293C207.847 123.271 207.756 123.248 207.665 123.228C207.39 123.161 207.123 123.101 206.857 123.043C206.719 123.011 206.589 122.984 206.457 122.957C206.317 122.927 206.184 122.9 206.053 122.875L206.011 122.866C205.89 122.842 205.771 122.818 205.651 122.796L205.608 122.788C205.488 122.765 205.369 122.743 205.25 122.723C205.115 122.697 204.992 122.677 204.871 122.656L204.841 122.651C204.702 122.627 204.569 122.605 204.438 122.585C203.552 122.443 202.665 122.329 201.8 122.246L201.768 122.243C201.618 122.229 201.469 122.215 201.319 122.204C201.305 122.203 201.292 122.201 201.278 122.2C201.26 122.197 201.241 122.195 201.223 122.194C201.214 122.194 201.206 122.194 201.197 122.193C201.043 122.179 200.889 122.167 200.735 122.157C200.609 122.149 200.483 122.14 200.358 122.133C200.261 122.126 200.177 122.122 200.092 122.117C199.703 122.096 199.36 122.081 199.033 122.071L198.64 122.061C198.43 122.058 198.216 122.054 198.001 122.054H197.871C197.534 122.054 197.197 122.059 196.867 122.069C196.852 122.07 196.836 122.071 196.821 122.071L196.802 122.072C196.796 122.072 196.784 122.073 196.778 122.073C196.612 122.078 196.447 122.085 196.28 122.093C196.075 122.104 195.871 122.116 195.67 122.13C195.54 122.138 195.411 122.148 195.283 122.159C194.73 122.203 194.176 122.263 193.638 122.337C193.491 122.358 193.344 122.378 193.197 122.402C193.083 122.418 192.979 122.435 192.876 122.453C192.816 122.462 192.766 122.47 192.717 122.479C192.584 122.501 192.464 122.523 192.344 122.546C192.336 122.548 192.328 122.549 192.32 122.55C192.241 122.562 192.162 122.578 192.083 122.595C191.997 122.611 191.927 122.624 191.856 122.639C191.759 122.658 191.671 122.675 191.583 122.696C191.318 122.751 191.05 122.811 190.748 122.884C190.739 122.887 190.73 122.889 190.721 122.892L190.721 122.892C190.448 122.958 190.169 123.031 189.891 123.11C189.771 123.143 189.665 123.172 189.561 123.204C189.55 123.207 189.54 123.21 189.529 123.213C189.498 123.221 189.468 123.229 189.44 123.239C189.43 123.243 189.42 123.246 189.41 123.248C189.297 123.282 189.184 123.316 189.072 123.353C188.927 123.396 188.795 123.439 188.665 123.484C188.52 123.529 188.393 123.573 188.267 123.619C188.26 123.622 188.253 123.624 188.245 123.627C188.143 123.661 188.042 123.696 187.941 123.734C187.825 123.775 187.724 123.812 187.625 123.852C187.619 123.854 187.612 123.857 187.606 123.859C187.505 123.896 187.406 123.932 187.307 123.974C186.553 124.268 185.821 124.594 185.117 124.949C184.912 125.05 184.713 125.153 184.515 125.26C184.414 125.311 184.326 125.36 184.239 125.409C184.225 125.417 184.211 125.424 184.196 125.43C184.185 125.437 184.189 125.436 184.177 125.442C183.996 125.541 183.818 125.642 183.639 125.748C183.626 125.756 183.612 125.764 183.598 125.771L183.547 125.801C183.487 125.836 183.427 125.871 183.368 125.908C183.363 125.911 183.357 125.914 183.352 125.917L183.328 125.931C183.312 125.943 183.299 125.951 183.282 125.961C183.204 126.006 183.126 126.052 183.05 126.102C183.044 126.106 183.038 126.11 183.032 126.113C182.863 126.216 182.682 126.331 182.464 126.475C182.272 126.598 182.089 126.721 181.9 126.854C181.797 126.922 181.708 126.985 181.62 127.049C181.517 127.12 181.427 127.186 181.339 127.251C181.019 127.483 180.717 127.712 180.438 127.935L180.383 127.978C180.338 128.014 180.293 128.049 180.249 128.086C180.003 128.284 179.76 128.487 179.516 128.698C179.436 128.766 179.36 128.833 179.285 128.901C179.279 128.906 179.273 128.911 179.267 128.917C179.243 128.937 179.217 128.959 179.193 128.982C179.184 128.99 179.176 128.997 179.167 129.004C179.117 129.047 179.069 129.09 179.02 129.137C178.428 129.669 177.849 130.237 177.288 130.834C177.189 130.939 177.091 131.043 176.997 131.147C176.768 131.396 176.537 131.656 176.286 131.947C176.204 132.042 176.125 132.136 176.046 132.231L175.962 132.332C175.958 132.336 175.954 132.341 175.95 132.345C175.844 132.475 175.737 132.605 175.63 132.736C175.529 132.863 175.426 132.991 175.326 133.122C175.206 133.274 175.093 133.42 174.981 133.569C174.879 133.703 174.778 133.839 174.678 133.977C174.492 134.229 174.304 134.491 174.118 134.762L173.96 134.99C173.887 135.099 173.811 135.211 173.734 135.325C173.634 135.475 173.536 135.624 173.44 135.776C173.241 136.083 173.044 136.397 172.851 136.716C172.754 136.874 172.659 137.033 172.564 137.194C172.478 137.341 172.394 137.486 172.311 137.633C172.306 137.642 172.301 137.65 172.295 137.659C172.291 137.668 172.281 137.685 172.276 137.694L172.263 137.717C172.198 137.832 172.132 137.947 172.068 138.063C172.03 138.132 171.995 138.195 171.961 138.258C176.2 142.03 181.346 144.598 185.809 145.156C186.143 145.197 186.38 145.502 186.339 145.836C186.297 146.17 185.994 146.407 185.659 146.365C180.829 145.762 175.269 142.948 170.784 138.838C170.578 138.649 170.527 138.343 170.661 138.097L170.727 137.976C170.77 137.895 170.814 137.813 170.86 137.733C170.9 137.657 170.95 137.568 171 137.478C171.067 137.356 171.135 137.235 171.204 137.115L171.211 137.102C171.226 137.074 171.242 137.046 171.258 137.019C171.343 136.871 171.428 136.724 171.514 136.577C171.611 136.412 171.71 136.247 171.809 136.084C172.008 135.756 172.212 135.431 172.414 135.119C172.513 134.963 172.616 134.805 172.722 134.648C172.799 134.533 172.876 134.419 172.953 134.304L173.113 134.072C173.309 133.788 173.505 133.515 173.696 133.256C173.798 133.115 173.903 132.973 174.01 132.832C174.127 132.678 174.245 132.525 174.364 132.374C174.464 132.243 174.573 132.107 174.682 131.971C174.796 131.83 174.908 131.694 175.02 131.557C175.027 131.549 175.033 131.542 175.04 131.535L175.112 131.449C175.195 131.349 175.278 131.25 175.363 131.151C175.622 130.851 175.862 130.58 176.097 130.326C176.194 130.218 176.298 130.107 176.403 129.997C176.984 129.378 177.588 128.786 178.196 128.24C178.248 128.191 178.307 128.137 178.367 128.085C178.402 128.053 178.438 128.022 178.473 127.992C178.555 127.917 178.639 127.844 178.723 127.773C178.974 127.556 179.228 127.343 179.474 127.146C179.518 127.109 179.573 127.065 179.629 127.021L179.679 126.981C179.972 126.748 180.288 126.508 180.618 126.269C180.712 126.199 180.814 126.125 180.915 126.055C181.006 125.989 181.109 125.916 181.214 125.846C181.404 125.713 181.599 125.582 181.799 125.454C182.021 125.307 182.212 125.186 182.392 125.076C182.477 125.021 182.564 124.969 182.65 124.918C182.68 124.899 182.709 124.881 182.739 124.864C182.802 124.826 182.865 124.788 182.929 124.751L182.983 124.719C183.005 124.705 183.027 124.692 183.05 124.681C183.225 124.578 183.401 124.479 183.579 124.381C183.607 124.364 183.635 124.349 183.663 124.335C183.758 124.282 183.853 124.23 183.95 124.181C184.148 124.074 184.359 123.965 184.572 123.859C185.306 123.489 186.074 123.147 186.85 122.845C186.95 122.803 187.063 122.76 187.179 122.718C187.292 122.673 187.408 122.63 187.523 122.59C187.622 122.552 187.737 122.512 187.854 122.473C187.996 122.421 188.14 122.372 188.286 122.326C188.415 122.281 188.562 122.234 188.709 122.19C188.816 122.155 188.935 122.118 189.057 122.083C189.108 122.065 189.162 122.049 189.217 122.035C189.329 122.001 189.443 121.97 189.556 121.939C189.842 121.858 190.127 121.782 190.406 121.714C190.416 121.711 190.426 121.709 190.436 121.706C190.762 121.627 191.052 121.561 191.32 121.506C191.405 121.486 191.509 121.465 191.614 121.444C191.686 121.429 191.765 121.414 191.845 121.4C191.928 121.382 192.025 121.363 192.123 121.348C192.25 121.323 192.377 121.301 192.504 121.279C192.553 121.27 192.615 121.26 192.677 121.251C192.782 121.232 192.898 121.214 193.014 121.197C193.159 121.174 193.315 121.152 193.471 121.131C194.032 121.053 194.609 120.99 195.186 120.944C195.319 120.933 195.454 120.923 195.588 120.914C195.796 120.9 196.006 120.887 196.219 120.877C196.391 120.868 196.56 120.861 196.732 120.856C196.748 120.855 196.764 120.854 196.781 120.854L196.8 120.853C196.806 120.853 196.815 120.852 196.821 120.852C197.166 120.841 197.519 120.836 197.871 120.836H198.001C198.222 120.836 198.443 120.839 198.666 120.843L199.067 120.853C199.406 120.863 199.758 120.879 200.147 120.899C200.253 120.905 200.345 120.911 200.438 120.918C200.555 120.924 200.687 120.933 200.816 120.942C200.974 120.952 201.133 120.964 201.292 120.978C201.337 120.98 201.382 120.985 201.427 120.99C201.579 121.001 201.73 121.016 201.882 121.03L201.915 121.033C202.807 121.119 203.719 121.236 204.626 121.381C204.763 121.402 204.905 121.426 205.047 121.451L205.071 121.455C205.202 121.477 205.335 121.499 205.465 121.524C205.578 121.543 205.706 121.567 205.835 121.591L205.873 121.599C205.995 121.621 206.123 121.646 206.252 121.673L206.289 121.68C206.424 121.706 206.567 121.735 206.707 121.766C206.841 121.793 206.982 121.822 207.124 121.854C207.393 121.913 207.669 121.975 207.944 122.042C208.033 122.062 208.13 122.086 208.228 122.11L208.333 122.136C208.638 122.212 208.914 122.284 209.178 122.357C209.309 122.391 209.452 122.43 209.593 122.472C209.833 122.537 210.101 122.615 210.398 122.706C210.499 122.735 210.61 122.77 210.722 122.805C210.753 122.814 210.783 122.823 210.813 122.833L210.831 122.838C210.956 122.877 211.083 122.917 211.212 122.961C211.342 123.002 211.486 123.049 211.628 123.097C211.763 123.142 211.905 123.19 212.047 123.24C212.183 123.287 212.323 123.335 212.464 123.387C212.6 123.435 212.741 123.486 212.882 123.54C213.01 123.585 213.152 123.64 213.292 123.694C213.484 123.767 213.68 123.843 213.874 123.922C213.997 123.971 214.12 124.021 214.243 124.073C214.326 124.106 214.415 124.144 214.505 124.182C214.538 124.195 214.57 124.208 214.603 124.223C214.766 124.292 214.926 124.362 215.087 124.433C215.26 124.507 215.439 124.588 215.616 124.67C215.637 124.679 215.655 124.687 215.666 124.693C215.855 124.78 216.036 124.864 216.215 124.952C216.392 125.035 216.582 125.127 216.769 125.223C216.921 125.297 217.082 125.379 217.242 125.464C217.621 125.659 218.01 125.868 218.388 126.082C218.769 126.296 219.115 126.5 219.444 126.704C219.612 126.806 219.787 126.914 219.959 127.025C220.093 127.109 220.233 127.201 220.371 127.292C220.442 127.338 220.517 127.387 220.592 127.44C220.719 127.522 220.845 127.609 220.969 127.696C221.104 127.786 221.246 127.887 221.388 127.991C221.431 128.02 221.484 128.057 221.539 128.099C221.663 128.187 221.786 128.278 221.909 128.37C221.924 128.381 221.939 128.393 221.954 128.405C222.113 128.522 222.268 128.641 222.424 128.763C222.561 128.869 222.705 128.983 222.845 129.099C222.869 129.116 222.891 129.135 222.913 129.154C223.061 129.274 223.209 129.396 223.353 129.521C223.472 129.621 223.598 129.729 223.722 129.838C224.088 130.159 224.453 130.496 224.803 130.84C224.901 130.934 225.002 131.033 225.1 131.135C225.225 131.259 225.355 131.395 225.485 131.53L225.529 131.577C225.621 131.676 225.714 131.775 225.805 131.874C225.9 131.978 225.993 132.082 226.085 132.186L226.109 132.213C226.145 132.252 226.179 132.292 226.212 132.331C226.299 132.429 226.382 132.526 226.464 132.624C226.484 132.646 226.514 132.682 226.544 132.718C226.63 132.82 226.715 132.923 226.799 133.029C226.852 133.093 226.911 133.167 226.968 133.241C227.004 133.285 227.038 133.329 227.072 133.373L227.101 133.411C227.157 133.48 227.217 133.559 227.276 133.64C227.358 133.746 227.438 133.852 227.515 133.96C227.524 133.972 227.536 133.988 227.548 134.006C227.637 134.125 227.722 134.247 227.808 134.37C228.03 134.689 228.223 134.981 228.401 135.264C228.491 135.405 228.582 135.552 228.669 135.699C228.779 135.883 228.888 136.069 228.994 136.259C229.098 136.448 229.096 136.677 228.987 136.863C227.697 139.068 225.864 141.13 223.381 143.167C221.69 144.561 219.729 145.929 217.025 147.602C216.926 147.664 216.815 147.693 216.705 147.693ZM221.223 129.377C221.225 129.378 221.227 129.38 221.228 129.381C221.226 129.38 221.225 129.378 221.223 129.377ZM215.134 125.789C215.135 125.789 215.135 125.789 215.135 125.789C215.135 125.789 215.135 125.789 215.134 125.789Z" fill="#1F404D"/>
<path d="M201.758 154.951C195.842 154.951 189.402 154.306 184.198 152.185C183.903 152.065 183.75 151.738 183.848 151.435L183.859 151.4C184.413 149.675 184.85 148.313 185.177 146.927C185.851 144.056 186.068 141.019 186.068 134.43C186.068 134.093 186.341 133.821 186.677 133.821C187.014 133.821 187.286 134.093 187.286 134.43C187.286 141.126 187.062 144.23 186.363 147.206C186.059 148.497 185.668 149.748 185.182 151.264C195.815 155.324 211.479 153.358 216.824 152.507C216.768 152.098 216.715 151.697 216.662 151.305C216.522 150.259 216.39 149.27 216.255 148.323C216.25 148.297 216.247 148.273 216.244 148.245L216.207 147.997C216.167 147.719 216.127 147.444 216.086 147.173C215.574 143.799 215.047 141.401 214.265 138.898C213.525 136.532 212.565 134.114 211.243 131.29C211.1 130.985 211.232 130.622 211.537 130.479C211.841 130.337 212.204 130.468 212.347 130.773C213.692 133.648 214.671 136.114 215.429 138.534C216.23 141.101 216.769 143.551 217.292 146.99C217.333 147.265 217.373 147.541 217.413 147.822L217.452 148.087C217.452 148.09 217.454 148.099 217.454 148.105C217.456 148.115 217.458 148.125 217.459 148.135C217.596 149.092 217.729 150.089 217.87 151.144C217.948 151.721 218.027 152.316 218.111 152.932C218.155 153.258 217.933 153.56 217.608 153.615L217.507 153.631C214.837 154.073 208.654 154.951 201.758 154.951ZM217.451 148.089C217.451 148.09 217.451 148.09 217.451 148.09C217.451 148.09 217.451 148.09 217.451 148.089Z" fill="#1F404D"/>
<path d="M171.714 71.3319C170.654 69.1606 168.653 67.4694 166.336 66.7853C164.018 66.1013 161.42 66.4351 159.35 67.6827C156.241 69.5574 154.586 73.2253 154.169 76.8322C153.666 81.1894 154.749 85.7126 157.172 89.3684C159.596 93.0245 163.339 95.7844 167.548 97.018C170.637 96.8514 173.135 94.8341 174.474 92.0457C175.812 89.2573 175.97 86.0386 175.657 82.9614C175.257 79.017 173.453 74.8944 171.714 71.3319Z" fill="#F6E2D7"/>
<path d="M167.549 97.6857C167.485 97.6857 167.422 97.6768 167.361 97.6587C163.027 96.3886 159.111 93.5013 156.616 89.7371C154.121 85.9729 152.987 81.241 153.505 76.755C154.005 72.4318 156.01 68.9164 159.006 67.1101C161.227 65.7711 164.038 65.4101 166.525 66.144C169.012 66.8781 171.177 68.7077 172.315 71.0381C174.066 74.6245 175.911 78.8376 176.322 82.8935C176.708 86.6957 176.301 89.7838 175.076 92.3343C173.551 95.5137 170.75 97.5139 167.585 97.6846C167.573 97.6855 167.561 97.6857 167.549 97.6857ZM163.895 67.1054C162.425 67.1054 160.951 67.4981 159.696 68.2547C157.096 69.8222 155.278 73.0572 154.833 76.9086C154.35 81.0864 155.406 85.4933 157.729 88.9989C160.032 92.4723 163.634 95.144 167.625 96.3433C170.25 96.1577 172.579 94.4504 173.872 91.7562C174.986 89.4338 175.353 86.5789 174.993 83.0285C174.602 79.1814 172.813 75.1048 171.113 71.6246C170.137 69.6252 168.28 68.0557 166.147 67.4258C165.418 67.211 164.657 67.1054 163.895 67.1054Z" fill="#1F404D"/>
<path d="M176.781 90.2974C177.032 90.265 177.279 90.1732 177.503 90.0189C178.246 89.5035 178.431 88.4829 177.916 87.7393C174.07 82.1926 168.396 78.0598 161.937 76.1021C161.072 75.8398 160.157 76.3287 159.895 77.1946C159.632 78.0603 160.121 78.975 160.987 79.2375C166.741 80.9817 171.797 84.664 175.223 89.6057C175.584 90.1267 176.193 90.3735 176.781 90.2974Z" fill="#1F404D"/>
<path d="M163.576 97.0191C164.682 106.671 171.313 113.588 179.926 117.499C184.556 119.598 189.516 120.862 194.485 121.944C207.948 124.87 229.22 127.788 237.627 113.489C241.378 107.112 242.656 99.634 242.389 92.2766C242.356 91.3138 242.295 90.3528 242.21 89.3951C242.125 88.448 242.017 87.5077 241.886 86.5729C240.249 74.8507 235.529 62.6808 226.774 54.7277C223.551 51.8012 219.782 49.4473 215.419 47.8925C213.558 47.2327 211.637 46.7469 209.689 46.437C204.068 45.5403 198.211 46.0974 192.852 48.0195C192.834 48.0247 192.817 48.0316 192.8 48.0368C191.14 48.6357 189.53 49.3635 187.989 50.2235C187.977 50.2287 187.965 50.2356 187.953 50.2443C187.385 50.5577 186.829 50.8921 186.281 51.2438C180.901 54.6996 176.666 59.4945 173.29 64.8813C171.965 66.995 170.729 69.1677 169.599 71.3944C168.549 73.4627 167.56 75.6164 166.695 77.8292C166.188 79.1244 165.722 80.4407 165.311 81.7726C163.777 86.728 162.99 91.8971 163.576 97.0191Z" fill="#F6E2D7"/>
<path d="M165.31 81.7728C172.325 80.1067 178.796 75.1744 181.907 68.7186C182.919 71.6506 185.91 73.7816 189.012 73.7781C192.115 73.7764 194.949 70.9263 195.956 67.9908C196.877 71.2779 199.688 73.9626 203.015 74.7304C206.341 75.4982 209.936 73.8077 212.205 71.2553C212.903 73.0103 214.151 74.5736 215.807 75.4809C217.462 76.3879 219.531 76.5864 221.267 75.8413C223.001 75.0979 224.502 73.3377 224.583 71.4521C227.336 80.434 234 88.091 242.389 92.2766C242.356 91.3138 242.295 90.3528 242.21 89.395C242.124 88.4479 242.016 87.5077 241.886 86.5729C240.249 74.8506 235.529 62.6808 226.774 54.7277C223.551 51.8012 219.782 49.4473 215.419 47.8925C213.558 47.2327 211.637 46.7469 209.689 46.437C204.067 45.5403 198.21 46.0974 192.851 48.0195C192.834 48.0247 192.817 48.0316 192.799 48.0368C191.14 48.6357 189.53 49.3635 187.989 50.2235C187.977 50.2287 187.964 50.2356 187.952 50.2443C187.385 50.5577 186.829 50.8921 186.281 51.2438C180.901 54.6996 176.665 59.4945 173.289 64.8813C171.964 66.995 170.728 69.1677 169.598 71.3944C168.548 73.4627 167.56 75.6164 166.694 77.8292C166.188 79.1246 165.721 80.4409 165.31 81.7728Z" fill="#EFCAB9"/>
<path d="M213.618 125.022C206.454 125.022 199.369 123.689 194.341 122.596C189.556 121.555 184.464 120.291 179.649 118.106C169.901 113.681 163.957 106.218 162.912 97.0938C162.238 91.2213 163.3 84.6579 166.071 77.5851C166.882 75.5101 167.868 73.3253 169.001 71.0913C170.112 68.9014 171.364 66.6924 172.721 64.5253C176.459 58.5627 180.899 53.9052 185.918 50.6817C186.485 50.3182 187.054 49.9777 187.609 49.6692C187.631 49.6554 187.654 49.6428 187.677 49.6312C189.225 48.7685 190.872 48.0206 192.572 47.4084C192.589 47.4019 192.612 47.3933 192.637 47.3853C198.127 45.4183 204.06 44.8626 209.794 45.7769C211.79 46.0932 213.758 46.5933 215.642 47.263C219.904 48.7808 223.799 51.1255 227.221 54.2321C235.215 61.4939 240.657 72.9464 242.546 86.4796C242.676 87.4079 242.786 88.3684 242.873 89.334C243.713 98.7327 242.098 107.202 238.202 113.828C234.389 120.312 227.595 124.017 218.007 124.841C216.553 124.966 215.083 125.022 213.618 125.022ZM188.3 50.8135C188.292 50.8183 188.284 50.8232 188.276 50.8276C187.739 51.1251 187.189 51.4543 186.64 51.8062C181.788 54.9223 177.486 59.4403 173.854 65.2346C172.517 67.3675 171.286 69.5413 170.194 71.6956C169.08 73.8914 168.111 76.0364 167.315 78.0719C164.625 84.9397 163.59 91.2881 164.24 96.9413C165.229 105.581 170.898 112.665 180.201 116.889C184.903 119.022 189.912 120.265 194.625 121.29C200.597 122.588 209.506 124.23 217.893 123.509C227.025 122.724 233.47 119.239 237.05 113.15C240.804 106.766 242.358 98.5718 241.542 89.4529C241.457 88.5097 241.35 87.5714 241.222 86.6643C239.377 73.4398 234.086 62.273 226.323 55.2211C223.033 52.234 219.289 49.9799 215.194 48.5218C213.388 47.8796 211.5 47.4002 209.584 47.0966C204.066 46.2163 198.358 46.7525 193.076 48.6475C193.065 48.6515 193.053 48.6553 193.041 48.6588C191.388 49.2551 189.802 49.9755 188.313 50.8066C188.308 50.809 188.304 50.8114 188.3 50.8135ZM188.265 50.831C188.264 50.831 188.264 50.8312 188.264 50.8315C188.264 50.8313 188.264 50.831 188.265 50.831Z" fill="#1F404D"/>
<path d="M186.655 108.23C189.759 105.126 189.759 100.094 186.655 96.9908C183.552 93.8872 178.52 93.8872 175.416 96.9908C172.313 100.094 172.313 105.126 175.416 108.23C178.52 111.333 183.552 111.333 186.655 108.23Z" fill="#F9CCC5"/>
<path d="M196.612 90.7452C196.914 87.4948 195.35 84.6922 193.119 84.4854C190.888 84.2786 188.836 86.746 188.534 89.9964C188.233 93.2468 189.797 96.0495 192.028 96.2563C194.259 96.463 196.311 93.9957 196.612 90.7452Z" fill="#1F404D"/>
<path d="M192.173 88.4717C192.235 87.5244 191.873 86.6851 191.284 86.6304C190.734 86.5794 190.134 87.3326 190.072 88.277C190.01 89.2242 190.372 90.0635 190.961 90.1183C191.51 90.1693 192.111 89.4158 192.173 88.4717Z" fill="white"/>
<path d="M195.818 79.186C196.088 79.181 196.351 79.0439 196.505 78.7978C196.748 78.4104 196.63 77.8995 196.243 77.6567C193.982 76.2401 190.951 76.2509 188.701 77.6833C188.315 77.9289 188.202 78.4407 188.447 78.8263C188.693 79.2121 189.205 79.3251 189.59 79.0801C191.287 78.0002 193.66 77.992 195.364 79.0598C195.505 79.1482 195.663 79.1888 195.818 79.186Z" fill="#1F404D"/>
<path d="M189.588 98.2441C189.234 101.622 190.029 104.867 191.669 107.577C193.96 111.371 197.902 114.117 202.639 114.716C207.747 115.362 212.579 113.36 215.758 109.781C217.637 107.668 218.937 105.004 219.38 102.012L189.588 98.2441Z" fill="#96312C"/>
<path d="M191.669 107.577C193.96 111.371 197.902 114.117 202.639 114.716C207.747 115.362 212.579 113.36 215.758 109.781C212.132 107.834 208.238 106.433 204.165 105.926C199.959 105.402 195.549 105.922 191.669 107.577Z" fill="#EA978F"/>
<path d="M191.064 98.4307C192.471 100.13 194.291 101.53 196.268 102.522C200.032 104.411 204.324 104.992 208.537 105.08C210.846 105.129 213.224 105.026 215.338 104.094C216.456 103.6 217.489 102.828 218.243 101.868L191.064 98.4307Z" fill="white"/>
<path d="M204.568 115.275C203.909 115.275 203.248 115.234 202.585 115.15C198.51 114.634 194.862 112.577 192.315 109.356C189.771 106.139 188.606 102.124 189.035 98.0497C189.052 97.8967 189.129 97.7565 189.249 97.6608C189.37 97.5653 189.524 97.5227 189.677 97.5415L219.47 101.309C219.622 101.329 219.761 101.409 219.854 101.531C219.947 101.654 219.987 101.809 219.964 101.961C219.365 106.014 217.238 109.613 213.974 112.095C211.237 114.176 207.955 115.275 204.568 115.275ZM190.125 98.7529C189.642 106.281 195.184 113.059 202.728 114.013C210.273 114.969 217.328 109.782 218.734 102.371L190.125 98.7529Z" fill="#1F404D"/>
<path d="M160.315 66.3658C160.531 69.1706 162.042 76.57 164.112 77.43C167.881 78.9952 180.892 63.4618 181.512 59.7412C181.811 61.8826 182.128 64.0781 183.115 65.9706C184.103 67.8648 185.917 69.4283 187.983 69.4352C190.064 69.444 191.932 67.8771 192.973 65.9723C194.013 64.0693 195.181 60.9493 195.532 58.7939C195.546 60.7143 195.616 62.6555 196.103 64.5011C196.589 66.3448 197.533 68.1085 199.009 69.2245C200.959 70.6973 203.759 70.8228 205.853 69.5292C207.733 68.3697 209.511 65.5265 209.669 63.1362C209.689 64.1808 210.738 66.1812 211.581 67.2677C212.573 68.5492 213.669 69.6564 214.678 70.4102C215.688 71.1659 217.13 71.359 218.199 70.6714C219.322 69.9472 219.783 68.5073 220.161 67.1841C220.537 65.8697 220.878 64.2488 221.254 62.9342C225.304 74.0281 237.756 88.0815 240.299 88.2191C242.975 88.3654 245.85 82.3779 247.159 78.6748C247.864 76.683 249.126 71.54 248.719 65.3646C248.263 58.4718 245.724 50.2942 238.006 43.7742C222.522 30.6973 193.795 26.4702 176.841 36.1259C169.01 40.5847 163.849 47.8569 161.572 55.4391C160.471 59.1041 160.045 62.8403 160.315 66.3658Z" fill="#EF9289"/>
<path d="M161.572 55.4399C163.028 58.5389 164.927 61.41 167.267 63.8316C173.721 60.7708 179.104 55.957 182.673 49.7676C183.258 51.2127 183.897 52.6595 184.867 53.8799C185.835 55.1003 187.181 56.0893 188.72 56.3366C190.498 56.6203 192.331 55.87 193.666 54.6634C194.611 53.8105 195.345 52.637 195.938 51.4359C196.864 54.3182 198.592 57.0455 201.685 57.7973C204.068 58.3766 206.669 57.8141 208.5 56.1677C209.48 55.2873 210.183 54.1493 210.64 52.9125C211.421 54.7019 212.585 56.255 214.381 57.1593C216.621 58.2876 219.299 58.1474 221.269 56.5468C221.925 56.0132 222.444 55.3651 222.85 54.6496C227.043 62.4954 233.991 68.7846 242.26 72.0928C244.774 70.237 246.959 67.9457 248.719 65.3656C249.126 71.541 247.864 76.684 247.159 78.6758C245.85 82.3789 242.975 88.3663 240.299 88.2201C237.756 88.0825 225.304 74.0291 221.254 62.9352C220.878 64.2496 220.537 65.8705 220.161 67.1851C219.783 68.5083 219.322 69.9482 218.199 70.6724C217.13 71.3602 215.688 71.1669 214.678 70.4112C213.669 69.6574 212.573 68.5502 211.581 67.2687C210.738 66.1823 209.689 64.1818 209.669 63.1372C209.511 65.5275 207.733 68.3707 205.853 69.5302C203.759 70.8238 200.959 70.6985 199.009 69.2255C197.533 68.1095 196.589 66.3458 196.103 64.5021C195.616 62.6566 195.546 60.7153 195.532 58.7949C195.181 60.9503 194.012 64.0703 192.973 65.9733C191.932 67.8779 190.064 69.4448 187.983 69.4362C185.917 69.4293 184.103 67.8658 183.115 65.9716C182.128 64.0791 181.811 61.8836 181.512 59.7422C180.892 63.4628 167.881 78.9962 164.112 77.431C162.042 76.5708 160.531 69.1715 160.315 66.3668C160.045 62.841 160.471 59.1047 161.572 55.4399Z" fill="#E2726D"/>
<path d="M240.395 88.8909C240.351 88.8909 240.307 88.8897 240.263 88.8871C238.403 88.7857 234.014 84.0917 230.82 80.1028C226.725 74.9882 223.369 69.6255 221.392 65.0732C221.38 65.1216 221.368 65.17 221.356 65.2182C221.179 65.946 220.995 66.6988 220.803 67.369C220.375 68.8692 219.848 70.4034 218.56 71.2335C217.308 72.0403 215.587 71.925 214.278 70.9464C213.219 70.1544 212.073 68.9938 211.053 67.6782C210.655 67.1648 210.161 66.3837 209.757 65.5662C209.019 67.4118 207.674 69.1921 206.204 70.099C203.888 71.5283 200.763 71.3879 198.606 69.7581C196.74 68.3487 195.863 66.2138 195.457 64.6711C195.296 64.0636 195.18 63.4449 195.095 62.8266C194.61 64.1472 194.051 65.3944 193.559 66.294C192.551 68.1376 190.562 70.1038 188 70.104C187.994 70.104 187.988 70.104 187.981 70.1038C185.422 70.0941 183.483 68.1223 182.522 66.2802C181.849 64.9894 181.472 63.5622 181.212 62.1578C178.614 66.8129 171.485 75.016 167.128 77.4315C165.757 78.1909 164.686 78.3927 163.855 78.0475C161.252 76.9666 159.822 68.6687 159.649 66.4174C159.219 60.8214 160.522 54.7639 163.318 49.3605C166.341 43.5158 170.903 38.7388 176.509 35.546C184.736 30.8606 195.942 29.1619 208.062 30.763C219.794 32.3128 230.865 36.8693 238.437 43.2644C244.815 48.6516 248.468 55.7004 249.294 64.2149C250.066 72.1698 248.025 78.2322 247.79 78.8975C247.194 80.5813 244.065 88.8903 240.395 88.8909ZM221.254 62.2658C221.534 62.2658 221.785 62.4404 221.882 62.7048C226.024 74.0553 238.418 87.4482 240.335 87.5528C242.224 87.6561 244.941 82.9409 246.53 78.4517C246.755 77.8154 248.708 72.0121 247.964 64.3441C247.173 56.1885 243.677 49.4399 237.574 44.2855C221.76 30.9291 193.534 27.3881 177.171 36.7072C164.951 43.6662 160.235 56.5921 160.981 66.3152C161.228 69.53 162.828 76.1738 164.367 76.8134C164.606 76.9122 165.199 76.9727 166.48 76.2628C171.562 73.4457 180.392 62.3991 180.853 59.6312C180.907 59.3057 181.182 59.0687 181.52 59.0726C181.85 59.0769 182.128 59.3214 182.174 59.6481C182.462 61.713 182.761 63.8481 183.707 65.6623C184.688 67.5425 186.368 68.7614 187.986 68.7676C187.99 68.7676 187.995 68.7676 187.999 68.7676C189.63 68.7676 191.351 67.5464 192.386 65.653C193.332 63.9223 194.521 60.8432 194.872 58.6865C194.928 58.3441 195.235 58.1026 195.583 58.1278C195.929 58.1544 196.197 58.4417 196.2 58.7889C196.213 60.5137 196.268 62.5065 196.749 64.3304C197.248 66.2229 198.193 67.7717 199.411 68.6918C201.139 69.9971 203.644 70.1081 205.502 68.9618C207.26 67.8769 208.863 65.1888 209.002 63.0917C209.026 62.7342 209.328 62.4613 209.686 62.468C210.044 62.4767 210.331 62.7663 210.337 63.1243C210.352 63.9599 211.302 65.8183 212.109 66.8594C213.058 68.0826 214.112 69.1539 215.078 69.8761C215.929 70.5117 217.063 70.608 217.836 70.1099C218.735 69.5309 219.145 68.3092 219.518 67.0017C219.703 66.3562 219.883 65.6165 220.058 64.901C220.236 64.1732 220.42 63.4205 220.611 62.7502C220.691 62.4719 220.941 62.2764 221.23 62.266C221.238 62.266 221.246 62.2658 221.254 62.2658Z" fill="#1F404D"/>
<path d="M21 1H154.195C161.254 1 166.976 6.72197 166.976 13.7804V91.6981C166.976 92.5597 167.399 93.3663 168.108 93.8557C170.757 95.6836 168.418 99.7542 165.505 98.386L154.92 93.4145C154.443 93.1903 153.922 93.0741 153.395 93.0741H21C9.95431 93.0741 1 84.1198 1 73.0741V21C1 9.95431 9.95432 1 21 1Z" fill="#EBF3FF" stroke="#EB9F4A" stroke-width="2"/>
<path d="M47.3329 11.8645C47.6703 11.8645 47.9856 11.9892 48.2789 12.2385C48.5429 12.4879 48.6749 12.7812 48.6749 13.1185C48.6749 13.4999 48.5429 13.8079 48.2789 14.0425C48.0003 14.3065 47.6849 14.4385 47.3329 14.4385C46.9369 14.4385 46.6216 14.3065 46.3869 14.0425C46.1229 13.8079 45.9909 13.4999 45.9909 13.1185C45.9909 12.7812 46.1229 12.4659 46.3869 12.1725C46.6656 11.9672 46.9809 11.8645 47.3329 11.8645ZM43.1529 11.8645C43.4903 11.8645 43.8056 11.9892 44.0989 12.2385C44.3629 12.4879 44.4949 12.7812 44.4949 13.1185C44.4949 13.4999 44.3629 13.8079 44.0989 14.0425C43.8203 14.3065 43.5049 14.4385 43.1529 14.4385C42.7569 14.4385 42.4416 14.3065 42.2069 14.0425C41.9429 13.8079 41.8109 13.4999 41.8109 13.1185C41.8109 12.7812 41.9429 12.4659 42.2069 12.1725C42.4856 11.9672 42.8009 11.8645 43.1529 11.8645ZM51.1829 15.3625L51.2709 15.5385V21.4345C51.2709 22.6959 52.0629 23.3999 53.6469 23.5465C53.8816 23.5465 53.9989 23.6052 53.9989 23.7225V26.0105C53.9989 26.1279 53.9403 26.1865 53.8229 26.1865H53.7349C52.1216 26.1865 50.7723 25.5999 49.6869 24.4265C48.6016 25.5999 47.2229 26.1865 45.5509 26.1865C42.9549 26.1865 41.1656 24.8372 40.1829 22.1385C40.0656 21.5812 40.0069 21.1412 40.0069 20.8185C40.0069 18.4132 41.4736 16.7119 44.4069 15.7145C44.4949 15.7145 44.9056 15.6852 45.6389 15.6265C46.8856 15.6265 48.0589 16.0372 49.1589 16.8585C50.2443 15.8612 50.9189 15.3625 51.1829 15.3625ZM42.9109 20.6425V21.1705C43.2923 22.7545 44.0843 23.5465 45.2869 23.5465H45.9029C47.4869 23.1652 48.2789 22.3732 48.2789 21.1705V20.6425C47.8976 19.0585 47.1056 18.2665 45.9029 18.2665H45.2869C43.7029 18.6479 42.9109 19.4399 42.9109 20.6425ZM60.7804 15.2745C63.0684 15.2745 64.7991 16.3892 65.9724 18.6185C66.3244 19.3372 66.5004 20.1292 66.5004 20.9945C66.5004 21.6105 66.2951 22.4612 65.8844 23.5465H68.2604C68.3778 23.5612 68.4364 23.6199 68.4364 23.7225V26.0105C68.4364 26.1279 68.3778 26.1865 68.2604 26.1865H63.1564C61.8511 26.4212 61.0298 26.5385 60.6924 26.5385C60.4431 26.5385 59.6511 26.4212 58.3164 26.1865H53.3004C53.1831 26.1865 53.1244 26.1279 53.1244 26.0105V23.7225C53.1391 23.6052 53.1978 23.5465 53.3004 23.5465H55.5884C55.1778 22.5199 54.9724 21.6105 54.9724 20.8185C54.9724 18.3692 56.3804 16.5799 59.1964 15.4505C59.9004 15.3332 60.4284 15.2745 60.7804 15.2745ZM57.5244 20.8185C57.8618 22.9305 58.8884 23.9865 60.6044 23.9865H60.8684C62.5111 23.9865 63.5378 22.9892 63.9484 20.9945C63.6111 18.8825 62.5844 17.8265 60.8684 17.8265H60.6044C58.9618 17.8265 57.9351 18.8239 57.5244 20.8185ZM72.5779 15.4505L72.6659 15.6265V18.2665C74.2206 16.6239 76.0979 15.8025 78.2979 15.8025H78.7379C81.6126 15.8025 83.6366 17.4159 84.8099 20.6425C85.0446 21.5079 85.1619 22.4759 85.1619 23.5465H87.0979C87.2153 23.5612 87.2739 23.6199 87.2739 23.7225V26.0105C87.2739 26.1279 87.2153 26.1865 87.0979 26.1865H67.7379C67.6206 26.1865 67.5619 26.1279 67.5619 26.0105V23.7225C67.5766 23.6052 67.6353 23.5465 67.7379 23.5465H70.0259V18.4425C70.0259 17.3572 70.8766 16.3599 72.5779 15.4505ZM72.6659 23.5465H82.2579C82.2579 21.0972 81.5833 19.5132 80.2339 18.7945C79.5886 18.5012 79.0019 18.3545 78.4739 18.3545C76.5379 18.3545 75.2179 18.9119 74.5139 20.0265C73.7073 20.8479 73.0913 22.0212 72.6659 23.5465ZM75.1079 11.8645C75.4453 11.8645 75.7606 11.9892 76.0539 12.2385C76.3179 12.4879 76.4499 12.7812 76.4499 13.1185C76.4499 13.4999 76.3179 13.8079 76.0539 14.0425C75.7753 14.3065 75.4599 14.4385 75.1079 14.4385C74.7119 14.4385 74.3966 14.3065 74.1619 14.0425C73.8979 13.8079 73.7659 13.4999 73.7659 13.1185C73.7659 12.7812 73.8979 12.4659 74.1619 12.1725C74.4406 11.9672 74.7559 11.8645 75.1079 11.8645ZM92.3877 11.0505L92.4757 11.2265V21.0825C92.4757 23.6639 91.1851 25.3359 88.6037 26.0985C88.1051 26.1572 87.6944 26.1865 87.3717 26.1865H86.5797C86.4624 26.1865 86.4037 26.1279 86.4037 26.0105V23.7225C86.4184 23.6052 86.4771 23.5465 86.5797 23.5465H87.7237C89.1317 23.2825 89.8357 22.5785 89.8357 21.4345V14.0425C89.8357 12.9572 90.6864 11.9599 92.3877 11.0505ZM96.7855 11.1385L96.8735 11.3145V26.0105C96.8735 26.1279 96.8148 26.1865 96.6975 26.1865H94.4095C94.2922 26.1865 94.2335 26.1279 94.2335 26.0105V14.1305C94.2335 13.0452 95.0842 12.0479 96.7855 11.1385ZM112.155 15.4505C114.707 15.4505 116.496 16.7999 117.523 19.4985C117.64 20.1145 117.699 20.5839 117.699 20.9065C117.699 23.1799 116.408 24.8519 113.827 25.9225C113.152 26.0985 112.565 26.1865 112.067 26.1865C109.867 26.1865 108.195 25.1305 107.051 23.0185C106.699 22.2705 106.523 21.5079 106.523 20.7305C106.523 18.3545 107.901 16.6532 110.659 15.6265C111.392 15.5092 111.891 15.4505 112.155 15.4505ZM109.427 20.9065C109.427 22.4465 110.336 23.3265 112.155 23.5465C113.915 23.2825 114.795 22.4025 114.795 20.9065V20.7305C114.795 19.1905 113.885 18.3105 112.067 18.0905C110.732 18.0905 109.852 18.8532 109.427 20.3785V20.9065ZM121.48 15.2745H124.472C127.097 15.2745 128.916 16.5359 129.928 19.0585C130.104 19.7625 130.368 21.2585 130.72 23.5465H132.568C132.685 23.5612 132.744 23.6199 132.744 23.7225V26.0105C132.744 26.1279 132.685 26.1865 132.568 26.1865H119.456V26.0985C119.647 24.3972 119.823 23.5465 119.984 23.5465H127.728V23.4585C127.464 19.9972 127.053 18.2665 126.496 18.2665C126.496 17.9585 125.44 17.6652 123.328 17.3865C122.36 16.7999 121.685 16.1252 121.304 15.3625L121.48 15.2745ZM122.822 11.8645C123.159 11.8645 123.475 11.9892 123.768 12.2385C124.032 12.4879 124.164 12.7812 124.164 13.1185C124.164 13.4999 124.032 13.8079 123.768 14.0425C123.489 14.3065 123.174 14.4385 122.822 14.4385C122.426 14.4385 122.111 14.3065 121.876 14.0425C121.612 13.8079 121.48 13.4999 121.48 13.1185C121.48 12.7812 121.612 12.4659 121.876 12.1725C122.155 11.9672 122.47 11.8645 122.822 11.8645ZM138.993 15.2745H141.985C144.61 15.2745 146.429 16.5359 147.441 19.0585C147.617 19.6305 147.998 21.9772 148.585 26.0985L148.409 26.1865H132.041C131.923 26.1865 131.865 26.1279 131.865 26.0105V23.7225C131.879 23.6052 131.938 23.5465 132.041 23.5465H134.153C134.27 23.5465 134.475 22.4025 134.769 20.1145C135.531 18.1785 136.881 17.2105 138.817 17.2105C139.785 17.2105 140.753 17.7679 141.721 18.8825C142.19 19.6012 142.425 20.1879 142.425 20.6425V21.1705C142.425 21.6252 142.366 22.4172 142.249 23.5465H145.241V23.4585C144.977 19.9972 144.566 18.2665 144.009 18.2665C144.009 17.9585 142.953 17.6652 140.841 17.3865C139.873 16.7999 139.198 16.1252 138.817 15.3625L138.993 15.2745ZM136.969 23.5465H139.521C139.697 22.0945 139.814 21.2732 139.873 21.0825C139.873 20.4959 139.433 20.0852 138.553 19.8505C137.614 19.8505 137.145 20.7599 137.145 22.5785C137.071 22.5785 137.013 22.9012 136.969 23.5465ZM38.9281 42.3625L39.0161 42.5385V46.4985C39.0161 48.4785 40.0721 49.7985 42.1841 50.4585C42.4187 50.5172 42.6534 50.5465 42.8881 50.5465H44.3841V50.4585C43.9147 49.5345 43.6801 48.6252 43.6801 47.7305C43.6801 45.2372 45.0294 43.5065 47.7281 42.5385C48.2267 42.4212 48.6667 42.3625 49.0481 42.3625C51.4534 42.3625 53.1547 43.7119 54.1521 46.4105C54.2694 47.0265 54.3281 47.4959 54.3281 47.8185C54.3281 50.3119 52.9787 52.0425 50.2801 53.0105C49.8107 53.1279 49.3121 53.1865 48.7841 53.1865H43.4161C41.3187 53.1865 39.6761 52.5999 38.4881 51.4265C37.0801 50.0772 36.3761 48.4639 36.3761 46.5865V45.3545C36.3761 44.2692 37.2267 43.2719 38.9281 42.3625ZM46.3201 47.8185C46.5547 49.5785 47.4347 50.4585 48.9601 50.4585H49.0481C50.6027 50.4585 51.4827 49.5492 51.6881 47.7305C51.4534 45.9705 50.5734 45.0905 49.0481 45.0905H48.6961C47.5081 45.0905 46.7161 45.9119 46.3201 47.5545V47.8185ZM50.7421 38.8645C51.0794 38.8645 51.3947 38.9892 51.6881 39.2385C51.9521 39.4879 52.0841 39.7812 52.0841 40.1185C52.0841 40.4999 51.9521 40.8079 51.6881 41.0425C51.4094 41.3065 51.0941 41.4385 50.7421 41.4385C50.3461 41.4385 50.0307 41.3065 49.7961 41.0425C49.5321 40.8079 49.4001 40.4999 49.4001 40.1185C49.4001 39.7812 49.5321 39.4659 49.7961 39.1725C50.0747 38.9672 50.3901 38.8645 50.7421 38.8645ZM46.5621 38.8645C46.8994 38.8645 47.2147 38.9892 47.5081 39.2385C47.7721 39.4879 47.9041 39.7812 47.9041 40.1185C47.9041 40.4999 47.7721 40.8079 47.5081 41.0425C47.2294 41.3065 46.9141 41.4385 46.5621 41.4385C46.1661 41.4385 45.8507 41.3065 45.6161 41.0425C45.3521 40.8079 45.2201 40.4999 45.2201 40.1185C45.2201 39.7812 45.3521 39.4659 45.6161 39.1725C45.8947 38.9672 46.2101 38.8645 46.5621 38.8645ZM61.9947 42.3185C64.8987 42.3185 66.8054 43.8512 67.7147 46.9165C67.7734 47.2245 67.8027 47.5179 67.8027 47.7965V50.5465H69.1227C69.2401 50.5612 69.2987 50.6199 69.2987 50.7225V53.0105C69.2987 53.1279 69.2401 53.1865 69.1227 53.1865H67.3627C67.2307 53.8759 66.5854 54.8219 65.4267 56.0245C64.0774 56.9632 62.9041 57.4325 61.9067 57.4325L61.7307 57.3445C61.7307 55.9805 62.5227 54.7412 64.1067 53.6265L64.3707 53.2745V53.1865H61.3787C59.1201 53.1865 57.4187 51.8592 56.2747 49.2045C56.1574 48.4712 56.0987 47.9725 56.0987 47.7085C56.0987 45.3032 57.5361 43.5652 60.4107 42.4945C61.1147 42.3772 61.6427 42.3185 61.9947 42.3185ZM58.7387 47.8845C58.7387 49.1459 59.5307 50.0332 61.1147 50.5465H65.1627V47.8845C65.1627 46.2272 64.1654 45.2592 62.1707 44.9805H61.7307C59.7361 45.2592 58.7387 46.2272 58.7387 47.8845ZM75.9893 42.3625C78.3946 42.3625 80.096 43.7119 81.0933 46.4105C81.2106 47.0265 81.2693 47.4959 81.2693 47.8185C81.2693 50.3119 79.92 52.0425 77.2213 53.0105C76.752 53.1279 76.2533 53.1865 75.7253 53.1865H68.5973C68.48 53.1865 68.4213 53.1279 68.4213 53.0105V50.7225C68.436 50.6052 68.4946 50.5465 68.5973 50.5465H71.3253V50.4585C70.856 49.5345 70.6213 48.6252 70.6213 47.7305C70.6213 45.2372 71.9706 43.5065 74.6693 42.5385C75.168 42.4212 75.608 42.3625 75.9893 42.3625ZM73.2613 47.8185C73.496 49.5785 74.376 50.4585 75.9013 50.4585H75.9893C77.544 50.4585 78.424 49.5492 78.6293 47.7305C78.3946 45.9705 77.5146 45.0905 75.9893 45.0905H75.6373C74.4493 45.0905 73.6573 45.9119 73.2613 47.5545V47.8185ZM75.9673 38.8645C76.3046 38.8645 76.62 38.9892 76.9133 39.2385C77.1773 39.4879 77.3093 39.7812 77.3093 40.1185C77.3093 40.4999 77.1773 40.8079 76.9133 41.0425C76.6346 41.3065 76.3193 41.4385 75.9673 41.4385C75.5713 41.4385 75.256 41.3065 75.0213 41.0425C74.7573 40.8079 74.6253 40.4999 74.6253 40.1185C74.6253 39.7812 74.7573 39.4659 75.0213 39.1725C75.3 38.9672 75.6153 38.8645 75.9673 38.8645ZM93.4554 42.3625L93.5434 42.5385V48.4345C93.8074 49.8425 94.5114 50.5465 95.6554 50.5465H101.551C102.959 50.2825 103.663 49.5785 103.663 48.4345V45.3545C103.663 44.2692 104.514 43.2719 106.215 42.3625L106.303 42.5385V48.0825C106.303 48.9919 106.127 49.8132 105.775 50.5465H107.887C108.005 50.5612 108.063 50.6199 108.063 50.7225V53.0105C108.063 53.1279 108.005 53.1865 107.887 53.1865H96.0074C93.4261 53.1865 91.7541 51.8959 90.9914 49.3145C90.9327 48.8159 90.9034 48.4052 90.9034 48.0825V45.3545C90.9034 44.2692 91.7541 43.2719 93.4554 42.3625ZM99.1974 54.0225C99.5347 54.0225 99.8501 54.1472 100.143 54.3965C100.407 54.6459 100.539 54.9392 100.539 55.2765C100.539 55.6579 100.407 55.9659 100.143 56.2005C99.8647 56.4645 99.5494 56.5965 99.1974 56.5965C98.8014 56.5965 98.4861 56.4645 98.2514 56.2005C97.9874 55.9659 97.8554 55.6579 97.8554 55.2765C97.8554 54.9392 97.9874 54.6239 98.2514 54.3305C98.5301 54.1252 98.8454 54.0225 99.1974 54.0225ZM113.383 42.4505L113.471 42.6265V48.0825C113.471 48.9919 113.295 49.8132 112.943 50.5465H115.099C115.216 50.5612 115.275 50.6199 115.275 50.7225V53.0105C115.275 53.1279 115.216 53.1865 115.099 53.1865H107.355C107.238 53.1865 107.179 53.1279 107.179 53.0105V50.7225C107.194 50.6052 107.252 50.5465 107.355 50.5465H108.719C110.127 50.2825 110.831 49.5785 110.831 48.4345V45.4425C110.831 44.3572 111.682 43.3599 113.383 42.4505ZM112.745 38.8645C113.082 38.8645 113.398 38.9892 113.691 39.2385C113.955 39.4879 114.087 39.7812 114.087 40.1185C114.087 40.4999 113.955 40.8079 113.691 41.0425C113.412 41.3065 113.097 41.4385 112.745 41.4385C112.349 41.4385 112.034 41.3065 111.799 41.0425C111.535 40.8079 111.403 40.4999 111.403 40.1185C111.403 39.7812 111.535 39.4659 111.799 39.1725C112.078 38.9672 112.393 38.8645 112.745 38.8645ZM109.225 38.8645C109.562 38.8645 109.878 38.9892 110.171 39.2385C110.435 39.4879 110.567 39.7812 110.567 40.1185C110.567 40.4999 110.435 40.8079 110.171 41.0425C109.892 41.3065 109.577 41.4385 109.225 41.4385C108.829 41.4385 108.514 41.3065 108.279 41.0425C108.015 40.8079 107.883 40.4999 107.883 40.1185C107.883 39.7812 108.015 39.4659 108.279 39.1725C108.558 38.9672 108.873 38.8645 109.225 38.8645ZM114.398 50.5465H123.902V50.4585C123.609 47.2905 123.345 45.7065 123.11 45.7065C122.553 44.9439 121.761 44.5625 120.734 44.5625H117.302L117.126 44.4745C118.886 41.1305 119.883 39.3412 120.118 39.1065C121.101 38.4025 122.186 38.0505 123.374 38.0505V38.1385C123.374 38.2559 122.699 39.6345 121.35 42.2745C122.303 42.2745 123.506 42.8612 124.958 44.0345C125.955 45.2079 126.454 46.5865 126.454 48.1705C126.718 49.7545 126.894 50.5465 126.982 50.5465H128.918C129.035 50.5612 129.094 50.6199 129.094 50.7225V53.0105C129.094 53.1279 129.035 53.1865 128.918 53.1865H114.398V50.5465ZM133.778 38.8645C134.116 38.8645 134.431 38.9892 134.724 39.2385C134.988 39.4879 135.12 39.7812 135.12 40.1185C135.12 40.4999 134.988 40.8079 134.724 41.0425C134.446 41.3065 134.13 41.4385 133.778 41.4385C133.382 41.4385 133.067 41.3065 132.832 41.0425C132.568 40.8079 132.436 40.4999 132.436 40.1185C132.436 39.7812 132.568 39.4659 132.832 39.1725C133.111 38.9672 133.426 38.8645 133.778 38.8645ZM133.932 42.3625L134.02 42.5385V48.0825C134.02 50.6639 132.73 52.3359 130.148 53.0985C129.65 53.1572 129.239 53.1865 128.916 53.1865H128.388C128.271 53.1865 128.212 53.1279 128.212 53.0105V50.7225C128.227 50.6052 128.286 50.5465 128.388 50.5465H129.268C130.676 50.2825 131.38 49.5785 131.38 48.4345V45.3545C131.38 44.2692 132.231 43.2719 133.932 42.3625ZM130.258 38.8645C130.596 38.8645 130.911 38.9892 131.204 39.2385C131.468 39.4879 131.6 39.7812 131.6 40.1185C131.6 40.4999 131.468 40.8079 131.204 41.0425C130.926 41.3065 130.61 41.4385 130.258 41.4385C129.862 41.4385 129.547 41.3065 129.312 41.0425C129.048 40.8079 128.916 40.4999 128.916 40.1185C128.916 39.7812 129.048 39.4659 129.312 39.1725C129.591 38.9672 129.906 38.8645 130.258 38.8645ZM142.776 42.3185C145.68 42.3185 147.587 43.8439 148.496 46.8945C148.555 47.2025 148.584 47.4959 148.584 47.7745V50.5025C148.584 54.0225 146.795 56.3105 143.216 57.3665H142.688L142.512 57.2785C142.512 55.9292 143.304 54.6972 144.888 53.5825L145.152 53.2305V53.1425H142.16C139.901 53.1425 138.2 51.8225 137.056 49.1825C136.939 48.4492 136.88 47.9505 136.88 47.6865C136.88 45.2812 138.317 43.5505 141.192 42.4945C141.896 42.3772 142.424 42.3185 142.776 42.3185ZM139.52 47.8625C139.52 49.1239 140.312 50.0039 141.896 50.5025H145.944V47.8625C145.944 46.2052 144.947 45.2372 142.952 44.9585H142.512C140.517 45.2372 139.52 46.2052 139.52 47.8625ZM100.782 69.3625L100.87 69.5385V73.4985C100.87 75.4785 101.926 76.7985 104.038 77.4585C104.272 77.5172 104.507 77.5465 104.742 77.5465H106.238V77.4585C105.768 76.5345 105.534 75.6252 105.534 74.7305C105.534 72.2372 106.883 70.5065 109.582 69.5385C110.08 69.4212 110.52 69.3625 110.902 69.3625C113.307 69.3625 115.008 70.7119 116.006 73.4105C116.123 74.0265 116.182 74.4959 116.182 74.8185C116.182 77.3119 114.832 79.0425 112.134 80.0105C111.664 80.1279 111.166 80.1865 110.638 80.1865H105.27C103.172 80.1865 101.53 79.5999 100.342 78.4265C98.9336 77.0772 98.2296 75.4639 98.2296 73.5865V72.3545C98.2296 71.2692 99.0802 70.2719 100.782 69.3625ZM108.174 74.8185C108.408 76.5785 109.288 77.4585 110.814 77.4585H110.902C112.456 77.4585 113.336 76.5492 113.542 74.7305C113.307 72.9705 112.427 72.0905 110.902 72.0905H110.55C109.362 72.0905 108.57 72.9119 108.174 74.5545V74.8185ZM111.056 65.8645C111.393 65.8645 111.708 65.9892 112.002 66.2385C112.266 66.4879 112.398 66.7812 112.398 67.1185C112.398 67.4999 112.266 67.8079 112.002 68.0425C111.723 68.3065 111.408 68.4385 111.056 68.4385C110.66 68.4385 110.344 68.3065 110.11 68.0425C109.846 67.8079 109.714 67.4999 109.714 67.1185C109.714 66.7812 109.846 66.4659 110.11 66.1725C110.388 65.9672 110.704 65.8645 111.056 65.8645ZM124.464 80.1865H122.704C122.279 81.5652 121.34 82.7459 119.888 83.7285C118.774 84.2565 117.894 84.5205 117.248 84.5205L117.072 84.4325C117.072 83.0685 117.864 81.8292 119.448 80.7145C120.152 79.9079 120.504 78.9985 120.504 77.9865V72.3325C120.504 71.2472 121.355 70.2499 123.056 69.3405L123.144 69.5165V77.5465H124.464V80.1865ZM130.721 69.4505C132.555 69.4505 134.109 70.4772 135.385 72.5305C135.781 73.3079 136.28 74.9799 136.881 77.5465H138.817C138.935 77.5612 138.993 77.6199 138.993 77.7225V80.0105C138.993 80.1279 138.935 80.1865 138.817 80.1865H123.769C123.652 80.1865 123.593 80.1279 123.593 80.0105V77.7225C123.608 77.6052 123.667 77.5465 123.769 77.5465H134.065V77.4585C133.567 74.8625 132.951 73.3079 132.217 72.7945C131.411 72.2079 130.531 71.9145 129.577 71.9145C128.58 71.9145 127.612 72.2372 126.673 72.8825H126.585L126.409 72.7945C126.409 71.3425 127.348 70.2865 129.225 69.6265C129.988 69.5092 130.487 69.4505 130.721 69.4505ZM144.101 65.0505L144.189 65.2265V75.0825C144.189 77.6639 142.898 79.3359 140.317 80.0985C139.818 80.1572 139.407 80.1865 139.085 80.1865H138.293C138.175 80.1865 138.117 80.1279 138.117 80.0105V77.7225C138.131 77.6052 138.19 77.5465 138.293 77.5465H139.437C140.845 77.2825 141.549 76.5785 141.549 75.4345V68.0425C141.549 66.9572 142.399 65.9599 144.101 65.0505ZM148.498 65.1385L148.586 65.3145V80.0105C148.586 80.1279 148.528 80.1865 148.41 80.1865H146.122C146.005 80.1865 145.946 80.1279 145.946 80.0105V68.1305C145.946 67.0452 146.797 66.0479 148.498 65.1385Z" fill="#3AA6D9"/>
</svg>
