<svg width="53" height="65" viewBox="0 0 53 65" fill="none" xmlns="http://www.w3.org/2000/svg">
<path d="M8.04555 52.4471L7.90746 52.7751C6.9081 55.0043 5.3861 56.2349 3.83832 56.0658C2.68842 55.9584 1.77477 55.0865 1.51078 53.8442C1.34259 53.0799 1.42998 52.4258 1.77014 51.9002C2.44404 50.8985 3.55277 50.8097 4.42833 50.6373C3.95288 50.5517 2.42513 50.0607 1.20058 50.9297C0.582145 51.3626 0.18974 52.0631 0.0342907 53.0119C-0.245799 54.7703 1.22453 56.9663 3.18095 57.7116C3.55697 57.8527 4.07094 57.9858 4.67075 57.9858C5.00336 57.9858 5.36243 57.9448 5.73873 57.8415C6.95166 57.5081 8.08826 56.6103 9.11703 55.1728L9.11717 55.1726C9.22332 55.021 9.33326 54.8641 9.44236 54.6771L9.5107 54.5575L8.04555 52.4471Z" fill="#2A2C37"/>
<path d="M0.394254 53.061C-0.0629924 55.8353 4.88283 60.8573 9.05308 54.5737L8.11156 53.2154C5.85011 57.8692 1.79162 56.968 1.11955 53.91C0.82167 52.4955 1.29782 51.4633 2.33877 50.8384C1.75689 50.9611 0.702772 51.3121 0.394254 53.061Z" fill="#969AB2"/>
<path d="M17.172 36.1912L18.5921 35.4966L46.7915 42.1182C46.7915 42.1182 45.6802 46.5171 45.3869 47.4123C45.0937 48.323 45.6956 51.4716 45.6956 51.4716L46.0197 61.6432L44.1984 62.6773L41.5127 63.1558L37.9474 62.6157L36.4193 63.4954C36.4193 63.4954 34.0423 64.1437 33.9806 64.1437C33.9188 64.1437 31.3258 64.1437 31.3258 64.1437L28.563 63.0633L28.5784 60.6091C28.5784 60.6091 27.4207 63.1558 27.4207 63.3102C27.4053 63.4491 26.8496 63.8041 26.8496 63.8041C26.8496 63.8041 23.9943 63.9738 23.8862 63.9894C23.7782 63.9894 17.3109 63.619 17.3109 63.619L14.9494 62.9553L11.9705 61.8285C11.9705 61.8285 10.4732 60.7172 10.3653 60.7172C10.2417 60.7172 8.17357 58.5255 8.17357 58.5255C8.17357 58.5255 7.40178 57.0747 7.40178 57.0283C7.40178 56.982 6.59918 53.679 6.59918 53.679L6.49121 51.1477L6.86163 48.4467C6.86163 48.4467 7.71058 46.0235 7.74139 45.9617C7.78775 45.8999 9.05333 43.3532 9.05333 43.3532L11.1833 40.6676C11.1833 40.6676 14.3474 38.0283 14.3937 37.9666C14.4246 37.9353 17.172 36.1912 17.172 36.1912Z" fill="#BCBECD"/>
<path d="M19.0706 38.7682C19.0706 38.7682 20.3208 37.765 21.2006 36.7155L18.5767 35.6196L17.1566 36.3142C17.1566 36.3142 14.4092 38.043 14.3629 38.1047C14.3165 38.1511 11.1525 40.8058 11.1525 40.8058L9.02257 43.4914C9.02257 43.4914 7.74144 46.0381 7.71063 46.0999C7.66427 46.1616 6.83087 48.5848 6.83087 48.5848L6.46045 51.2859L6.56842 53.8172C6.56842 53.8172 7.37102 57.1203 7.37102 57.1665C7.37102 57.2128 8.14281 58.6637 8.14281 58.6637C8.14281 58.6637 10.2111 60.8554 10.3345 60.8554C10.458 60.8554 11.9397 61.9667 11.9397 61.9667L14.9186 63.0935L17.2802 63.7571C17.2802 63.7571 21.1388 63.9732 22.9447 64.0812C22.8521 64.0658 22.744 64.0504 22.636 64.0194C14.008 62.5222 7.5717 57.0892 9.20771 49.5107C10.8747 41.917 19.0706 38.7682 19.0706 38.7682Z" fill="#969AB2"/>
<path d="M21.0614 47.3037C21.0614 47.3037 22.6049 50.6684 21.8794 52.0423C21.154 53.416 19.7031 53.2307 19.7031 53.2307L23.0216 54.203C23.0216 54.203 23.4538 53.6937 23.5927 52.8293C23.7316 51.965 23.5927 50.7456 23.5927 50.7456C23.5927 50.7456 23.176 49.7115 23.1914 49.6343C23.2068 49.5572 22.5277 48.7546 22.5277 48.7546C22.5277 48.7392 21.9412 48.0445 21.9412 48.0445C21.9412 48.0445 21.1849 47.3347 21.0614 47.3037Z" fill="#969AB2"/>
<path d="M40.664 56.0713C40.664 56.0713 39.5681 60.285 40.6022 63.0324H38.9198L37.8857 62.6619V58.1395L40.664 56.0713Z" fill="#969AB2"/>
<path d="M43.8896 50.9154C43.8896 50.9154 41.9294 48.9243 39.9074 50.7611C37.8855 52.5978 37.623 54.1104 37.623 56.0706C37.623 58.0462 37.5767 58.2777 37.5767 58.2777C37.5767 58.2777 43.056 55.1292 43.8896 50.9154Z" fill="#EDEEF2"/>
<path d="M28.2387 55.4383C27.7757 55.4383 26.865 56.8737 26.3403 59.3587C25.8001 61.9208 26.1088 63.6341 26.5563 63.7267C26.7416 63.7575 27.0965 63.526 27.5133 62.7388C27.9146 61.9826 28.2541 60.9483 28.5011 59.8061C28.7326 58.6639 28.8252 57.5681 28.7636 56.7191C28.7018 55.824 28.4703 55.4689 28.2851 55.438C28.2696 55.4383 28.2542 55.4383 28.2387 55.4383Z" fill="#969AB2"/>
<path d="M47.1853 41.9153L46.7733 41.8467L46.7706 41.8684C46.7674 41.8937 46.3409 44.5365 45.1881 47.7614H45.1807V47.782C45.0712 48.0876 44.9556 48.3981 44.8329 48.7125C43.5934 51.8852 41.4034 55.9973 37.9461 57.8578C37.8813 55.3621 37.8296 52.8669 37.8296 52.8295L37.7876 52.8271C37.7846 52.8554 37.4798 55.6834 37.5561 58.2787C37.6059 60.3736 37.666 62.1036 37.7096 62.6976C37.4826 62.8576 36.3885 63.5823 34.7423 63.9394C32.7194 64.3783 30.7309 64.0895 28.8312 63.0811V60.0474H28.8256C28.8373 59.9939 28.8501 59.9417 28.8614 59.8876C29.1041 58.7345 29.2028 57.6032 29.1395 56.702C29.0608 55.7093 28.7956 55.1578 28.3511 55.0624C28.3313 55.0585 28.3116 55.0583 28.2918 55.0565L28.2924 55.049L28.272 55.0466C27.1886 54.9287 25.1932 54.5035 23.3941 54.0891C23.9827 52.6624 23.9992 51.2896 23.4408 50.0052C22.6986 48.298 21.1907 47.3549 21.0751 47.2877C21.0744 47.2871 21.0738 47.2868 21.0737 47.2867V47.2868C21.0704 47.285 21.0686 47.2839 21.0682 47.2839L20.9347 47.2394L21.0494 47.321C21.0588 47.3277 22.0041 48.0082 22.7035 49.1874C23.3315 50.246 23.8802 51.9296 22.9986 53.9975C21.3858 53.6216 20.0054 53.2742 19.7065 53.1985L19.5277 53.1537L19.678 53.234C19.6916 53.2414 21.0574 53.9651 22.6773 54.3472C23.7012 54.5909 26.037 55.1312 27.6128 55.3746C26.9366 56.042 26.2994 57.6496 25.9647 59.2769C25.5898 61.0517 25.5337 62.9902 26.0335 63.766C20.814 64.1649 13.9957 63.8408 9.99332 60.2998C7.89363 58.4317 6.77439 55.835 6.66642 52.5821C6.47512 46.8023 9.57473 42.6207 12.2087 40.1305C15.1181 37.3799 18.0949 36.0352 18.121 36.0256L18.1424 36.0174L17.969 35.6533L17.9337 35.6705C17.3881 35.9274 14.5271 37.3438 11.766 40.0032C10.0918 41.616 8.77549 43.3772 7.85372 45.2381C6.70885 47.5494 6.17066 50.026 6.25399 52.5989C6.36196 55.9616 7.52755 58.6513 9.71841 60.5936C11.2281 61.9324 13.2396 62.9232 15.6966 63.5386C17.7227 64.046 20.0677 64.3032 22.6668 64.3032C23.9021 64.3032 25.1953 64.2426 26.6198 64.118L26.6407 64.1162V64.1157C27.0436 64.0918 27.4472 63.69 27.8405 62.9185C28.0472 62.5359 28.2425 62.067 28.4183 61.54V63.3228L28.5219 63.3746C29.9241 64.1444 31.4022 64.5347 32.9154 64.5347C35.5604 64.5347 37.4999 63.349 38.0314 62.9856C38.0415 62.9787 38.0476 62.9745 38.0528 62.9711L38.0867 62.9441C39.2094 63.2812 40.3092 63.4543 41.3583 63.4543C43.9339 63.4543 45.5483 62.4323 46.1229 61.9928C46.1387 61.9806 46.1492 61.9725 46.1561 61.9679L46.2428 61.8984L46.2255 61.7949C46.1131 60.6869 45.593 47.8624 45.5928 47.7823L45.5927 47.7613H45.5848C46.7415 44.5487 47.1794 41.9597 47.1823 41.935L47.1853 41.9153ZM45.2188 48.7353C45.3379 51.6608 45.7014 60.4015 45.7973 61.7256C45.5678 61.9001 44.7607 62.4579 43.4408 62.7916C41.7863 63.2101 39.9909 63.1227 38.1038 62.5342C38.0591 61.8155 38.0058 60.1058 37.9581 58.3172C39.5037 57.5011 40.9344 56.1914 42.2151 54.4186C43.3055 52.9092 44.2903 51.0626 45.1422 48.9303C45.1682 48.865 45.1933 48.8004 45.2188 48.7353ZM28.4183 60.0474V60.0735C28.1708 61.1368 27.8539 62.0519 27.4947 62.7289C27.088 63.4972 26.7371 63.734 26.5606 63.7061C26.4951 63.6924 26.4322 63.6401 26.3737 63.5508C26.037 63.0363 25.9244 61.4325 26.3609 59.363C26.8914 56.8503 27.8074 55.4605 28.2382 55.4593L28.2579 55.4614L28.2581 55.4591L28.2818 55.459C28.4563 55.488 28.6816 55.8357 28.7426 56.7208C28.8044 57.5698 28.7114 58.6639 28.4808 59.8018C28.4627 59.8853 28.4432 59.9658 28.4243 60.0476L28.4183 60.0474Z" fill="#2A2C37"/>
<path d="M34.8272 44.0082C34.8289 44.0081 34.8307 44.0079 34.8324 44.0079C34.8341 44.0078 34.8359 44.0078 34.8376 44.0077V44.0078C39.8632 43.8836 45.8195 42.0112 51.0774 38.0635C50.2177 39.4082 49.5524 40.1914 48.2884 41.1477C47.9451 41.3565 47.4864 41.7901 47.4864 41.7901C45.1024 43.5681 42.7789 44.589 39.9285 45.2996C39.926 45.3024 39.922 45.3013 39.919 45.3017C38.4303 45.7341 36.6098 45.9082 34.9306 45.9612C33.2545 46.0768 31.4258 46.0862 29.9013 45.8053C29.8982 45.8051 29.8943 45.8067 29.8916 45.8042C26.9843 45.383 24.5701 44.6002 22.0198 43.0703C22.0198 43.0703 21.52 42.6849 21.1574 42.5116C19.8041 41.687 19.0635 40.9743 18.0732 39.7226C23.7005 43.1231 29.8144 44.3886 34.8272 44.0082Z" fill="#969AB2"/>
<path d="M46.1148 0.42041C46.0633 0.425452 46.0118 0.430353 45.96 0.439035C46.0135 0.430213 46.0649 0.424331 46.1148 0.42041Z" fill="#BCBECD"/>
<path d="M21.4462 42.5565C21.4477 42.5564 21.7572 42.815 21.7572 42.815C24.3073 44.3443 26.9772 45.3827 29.8921 45.804C29.8949 45.8065 29.8987 45.805 29.9018 45.8051C31.4264 46.086 33.255 46.0768 34.9311 45.9611C36.6103 45.9082 38.4306 45.7341 39.9195 45.3017C39.9225 45.3012 39.9265 45.3024 39.929 45.2996C42.787 44.588 45.3393 43.2871 47.7232 41.5098C47.7232 41.5098 48.0051 41.2215 48.0066 41.2215C53.6193 37.2435 53.757 31.5469 50.2284 27.6564C49.4529 26.51 48.7264 26.3098 48.2562 25.0824C47.2781 23.0372 46.8724 14.0795 44.7177 12.781C53.7242 12.6156 50.536 -0.0106434 46.1153 0.420974C49.0491 0.198443 45.897 8.64734 41.75 10.1769C38.9904 9.55721 36.561 8.92085 33.0795 9.0221V9.02168C33.0777 9.02182 33.076 9.02196 33.0744 9.0221C33.0725 9.0221 33.0709 9.0221 33.0692 9.02224V9.02266C29.5949 9.2711 27.2418 10.1479 24.5582 11.0411C20.2787 9.93505 16.2952 1.84481 19.2365 1.77213C14.7949 1.78613 12.8889 14.6684 21.8667 13.9298C19.853 15.438 20.3476 24.391 19.5796 26.524C19.2349 27.7924 18.5322 28.0645 17.8754 29.2829C14.7545 33.5072 15.4629 39.1615 21.4462 42.5565ZM39.9608 45.2899C39.9865 45.2797 40.012 45.2731 40.0368 45.2668C40.0052 45.2762 39.9798 45.284 39.9608 45.2899ZM29.7816 45.7823C29.807 45.7861 29.8329 45.79 29.8596 45.7977C29.84 45.7936 29.8141 45.7886 29.7816 45.7823Z" fill="#BCBECD"/>
<path d="M19.3918 1.77443C19.3393 1.77107 19.2877 1.77135 19.2358 1.77149C19.286 1.77037 19.3377 1.77107 19.3918 1.77443Z" fill="#BCBECD"/>
<path d="M25.9111 31.9213C26.1904 31.6118 26.4913 31.3088 26.7903 31.0388C26.8041 31.0236 26.8041 31.0236 26.8041 31.0236C29.0693 28.942 31.2326 27.847 34.0073 27.6995V27.6992C34.0091 27.6991 34.0108 27.6992 34.0124 27.6991C34.0143 27.699 34.0159 27.6988 34.0176 27.6987V27.699C36.7932 27.5675 39.0553 28.4401 41.518 30.284C41.518 30.284 41.518 30.284 41.5331 30.2978C41.8577 30.5364 42.1876 30.8077 42.4965 31.0876L42.015 31.1119C41.598 30.7208 40.3866 29.8292 37.9631 29.6662C38.2429 30.2763 38.4591 30.7427 38.6829 31.2793C38.6121 31.2841 34.4452 31.4847 34.2033 31.4966C33.9615 31.509 29.7954 31.7274 29.7246 31.7297C29.8934 31.1733 30.0618 30.6878 30.279 30.0526C27.8841 30.4577 26.7682 31.4664 26.3925 31.8972L25.9111 31.9213Z" fill="#969AB2"/>
<path d="M40.9956 32.0298C42.7746 29.6278 45.7138 31.5848 43.9791 33.9834C44.8432 31.1431 42.6577 30.5866 40.9956 32.0298Z" fill="#2A2C37"/>
<path d="M42.9829 33.1097C42.1221 33.8857 41.4542 33.1352 42.3489 32.374C43.2148 31.6116 43.876 32.3428 42.9829 33.1097Z" fill="#2A2C37"/>
<path d="M42.2212 32.5135C42.5286 32.1133 43.1406 31.7028 43.6352 32.0193C43.1075 31.9157 42.6482 32.2637 42.2212 32.5135Z" fill="#2A2C37"/>
<path d="M41.5337 30.2973C40.8231 29.8432 39.4211 29.3407 37.6451 29.2847L37.6353 29.6547C40.0772 29.7055 41.7055 30.6853 42.1953 31.3016L42.4972 31.0875C42.4963 31.0655 42.1675 30.6668 41.5337 30.2973Z" fill="#2A2C37"/>
<path d="M48.4737 35.4488C44.8914 35.6118 44.6763 31.3363 48.2569 31.1388C51.8391 30.9758 52.0544 35.2514 48.4737 35.4488Z" fill="#DDA8BE"/>
<path d="M38.4367 30.8931L38.3843 31.2653C40.4648 31.6164 40.0439 34.6692 39.0999 35.3228C40.7097 34.6533 40.7313 31.2556 38.4367 30.8931Z" fill="#2A2C37"/>
<path d="M38.1945 17.5158C36.3052 17.9841 38.8743 19.797 40.7376 19.3648C42.5732 18.9097 40.2135 17.1401 38.1945 17.5158Z" fill="#ACB0C6"/>
<path d="M39.188 19.6009C37.9886 19.3105 37.1703 18.5716 37.328 17.9247C37.4077 17.5933 37.7213 17.3483 38.2004 17.2321C38.6458 17.1287 39.1929 17.1479 39.7453 17.2807C40.2978 17.4134 40.7918 17.6536 41.1356 17.9442C41.5245 18.2713 41.6848 18.6254 41.6051 18.9569C41.4745 19.5007 40.646 19.9244 39.188 19.6009ZM38.2806 17.5787C37.9501 17.6606 37.7255 17.817 37.6755 18.006C37.5753 18.384 38.2121 18.9927 39.269 19.2536C40.2754 19.5092 41.1493 19.2857 41.2577 18.8759C41.2917 18.6855 41.1703 18.4318 40.9004 18.2128C40.5855 17.9572 40.1526 17.755 39.6481 17.6269C38.8993 17.4521 38.4174 17.5531 38.2806 17.5787Z" fill="#2A2C37"/>
<path d="M29.9556 34.3329C31.0174 34.2788 33.2384 34.161 34.3296 34.105C34.3313 34.1049 34.3332 34.1049 34.3348 34.1047C34.3365 34.1046 34.3384 34.1046 34.34 34.1045C35.4313 34.0508 37.653 33.9452 38.7148 33.8926C38.7178 33.8922 38.3667 37.0091 34.4943 37.1747C34.4925 37.1748 34.4908 37.1748 34.4891 37.1749C34.4873 37.1749 34.4857 37.1752 34.4839 37.1754C30.6146 37.399 29.9526 34.3326 29.9556 34.3329Z" fill="#969AB2"/>
<path d="M24.3731 10.9225C24.4602 10.9599 24.6015 10.991 24.7025 11.0132C26.2535 10.4564 28.5424 9.51936 33.065 8.94671V8.94588C33.0668 8.94588 33.0685 8.94601 33.0702 8.94601C33.072 8.94573 33.0737 8.94559 33.0754 8.94531V8.94616C37.6327 9.0624 40.0039 9.76514 41.603 10.1636C41.7011 10.1312 41.8387 10.0863 41.9216 10.0403C42.305 10.3 42.7144 10.5289 43.0967 10.7884C43.0772 10.7862 43.0577 10.7824 43.0383 10.7802C43.0383 10.7802 43.0384 10.7817 43.0367 10.7803C42.976 10.7714 42.9153 10.7638 42.8569 10.7555C39.351 10.2847 36.3663 10.1336 33.1353 10.2435C29.9095 10.4582 26.9551 10.9078 23.5141 11.7279C23.4568 11.7419 23.3971 11.7555 23.3376 11.7706C23.3361 11.7723 23.3361 11.7707 23.3361 11.7707C23.317 11.7749 23.298 11.7807 23.2788 11.7849C23.6334 11.4882 24.0177 11.2194 24.3731 10.9225Z" fill="#DFE1EA"/>
<path d="M33.7043 21.6597L33.7037 21.6483C33.7065 21.6401 33.7079 21.6369 33.7079 21.6369C33.7081 21.6373 33.7084 21.638 33.7084 21.6384C33.7085 21.638 33.7086 21.6373 33.7086 21.6367C33.7086 21.6367 33.7104 21.6398 33.714 21.6478L33.7145 21.6591C33.9862 22.5448 38.6591 30.2234 38.8058 32.8501L38.8043 32.8502C38.7707 33.2152 38.6539 33.5703 38.5 33.9034L38.4984 33.9035C37.868 35.2297 36.5335 36.0903 35.0082 36.3011C35.0067 36.3028 35.0035 36.3029 35.0018 36.3014C34.8258 36.3271 34.6406 36.3439 34.4532 36.3529C34.4514 36.353 34.4497 36.353 34.4481 36.3532C34.4462 36.3533 34.4446 36.3535 34.4429 36.3536V36.3535C34.2556 36.3634 34.0697 36.3651 33.8919 36.3572C33.8904 36.3589 33.8872 36.3591 33.8855 36.3575C32.3468 36.3008 30.9327 35.5783 30.1724 34.322L30.1708 34.3221C29.9843 34.0062 29.8326 33.6646 29.7624 33.3048L29.7609 33.305C29.6436 30.6767 33.5228 22.568 33.7043 21.6597Z" fill="white"/>
<path d="M24.7269 34.9515C22.7605 32.7389 25.4886 30.4971 27.4995 32.7086C25.701 31.4392 23.5823 32.2122 24.7269 34.9515Z" fill="#2A2C37"/>
<path d="M26.1873 33.1865C27.1537 33.8541 26.5646 34.6677 25.6302 33.9819C24.6647 33.3086 25.2493 32.5147 26.1873 33.1865Z" fill="#2A2C37"/>
<path d="M24.8696 32.9826C25.3199 32.6057 25.9791 32.9349 26.3351 33.2926C25.8796 33.0992 25.3797 32.8128 24.8696 32.9826Z" fill="#2A2C37"/>
<path d="M25.9106 31.921L26.2325 32.1037C26.6581 31.4413 28.1798 30.3033 30.6044 30.0078L30.5575 29.6406C28.7961 29.8744 27.4516 30.5151 26.7901 31.0381C26.1968 31.4693 25.9095 31.8993 25.9106 31.921Z" fill="#2A2C37"/>
<path d="M20.1857 32.5495C23.7682 32.3867 23.9829 36.6624 20.4022 36.8595C16.8199 37.0222 16.6052 32.7465 20.1857 32.5495Z" fill="#DDA8BE"/>
<path d="M29.7154 35.7948C28.7106 35.2391 27.9859 32.244 30.0206 31.6859L29.9312 31.3208C27.6845 31.9121 28.0466 35.2904 29.7154 35.7948Z" fill="#2A2C37"/>
<path d="M29.7623 33.3052C31.0573 34.2771 32.5943 34.6016 34.3559 34.524C36.1164 34.4245 37.613 33.9476 38.8041 32.8507L38.8057 32.8506C38.766 33.2155 38.6558 33.5707 38.4998 33.9039L38.4983 33.904C37.8672 35.2319 36.534 36.0937 35.0081 36.3016C35.0065 36.3032 35.0033 36.3034 35.0016 36.3018C34.8256 36.3276 34.6405 36.3444 34.4531 36.3534V36.3535C34.4513 36.3537 34.4496 36.3535 34.4479 36.3537C34.4461 36.3538 34.4444 36.3539 34.4427 36.3541C34.2555 36.364 34.0695 36.3656 33.8918 36.3577C33.8902 36.3594 33.887 36.3595 33.8853 36.358C32.3461 36.3042 30.9333 35.5805 30.1722 34.3224L30.1707 34.3226C29.982 34.0068 29.8366 33.6645 29.7607 33.3053L29.7623 33.3052Z" fill="#E9ECFF"/>
<path d="M34.4518 36.5378V36.5383C34.4536 36.5382 34.4553 36.5379 34.4569 36.5378C34.4588 36.5378 34.4604 36.5379 34.4621 36.5378V36.5372C38.032 36.2173 39.8716 33.5978 38.5164 30.9082C37.399 28.2949 34.055 21.9133 33.687 21.2003C33.6867 21.1998 33.6863 21.1973 33.6863 21.1973C33.6861 21.1975 33.686 21.198 33.6858 21.1982C33.6857 21.198 33.6854 21.1974 33.6854 21.1974C33.6851 21.1975 33.6851 21.1999 33.685 21.2005C33.3904 21.9468 30.703 28.6315 29.8534 31.3438C28.7746 34.1556 30.8677 36.5775 34.4518 36.5378ZM30.1066 31.711C30.8187 29.3966 33.0936 23.6203 33.7167 22.0906C33.7202 22.0968 33.7237 22.104 33.7273 22.1108C33.7277 22.1224 33.728 22.1309 33.7276 22.1319C33.7291 22.1279 33.7307 22.1244 33.7322 22.1203C33.7342 22.1241 33.7361 22.1276 33.7379 22.1314C33.7375 22.1305 33.7368 22.122 33.7361 22.1104C33.7389 22.1032 33.7417 22.0958 33.7447 22.0892C34.518 23.5488 37.3606 29.0678 38.3013 31.2991C39.3456 33.7177 37.5868 35.8947 34.4384 36.1689C31.2783 36.2117 29.31 34.222 30.1066 31.711Z" fill="#2A2C37"/>
<path d="M28.4527 17.9612C26.5196 18.0339 24.6914 19.8409 26.4699 20.0959C27.9681 20.2879 29.8027 19.0471 29.5478 18.3687C29.4191 18.026 28.8252 17.9353 28.4527 17.9612Z" fill="#ACB0C6"/>
<path d="M26.5195 20.3641C26.0312 20.2965 25.6946 20.0842 25.5822 19.7624C25.4697 19.4405 25.5938 19.0722 25.9478 18.7077C26.2608 18.384 26.7282 18.0955 27.2645 17.908C28.6374 17.4281 29.5505 17.7806 29.7342 18.3065C29.9561 18.9343 29.2161 19.7514 28.0519 20.1608C27.4782 20.35 26.8683 20.4218 26.5195 20.3641ZM27.3959 18.2424C26.9069 18.4206 26.4964 18.6651 26.2087 18.9511C25.9621 19.1962 25.8668 19.4606 25.9198 19.6467C25.9886 19.8297 26.2278 19.9628 26.5649 20.0111C26.9681 20.0628 27.4474 20.0011 27.9365 19.823C28.9619 19.4573 29.5344 18.7878 29.3969 18.4218C29.2498 18.0304 28.3969 17.8999 27.3959 18.2424Z" fill="#2A2C37"/>
<path d="M41.7954 10.2687C41.9129 10.3134 42.0567 10.3777 42.1655 10.4389L42.3605 10.5347C43.6864 10.9118 48.099 9.63519 48.162 4.48154C48.0718 2.28732 47.5896 0.663223 45.7725 0.262695C46.291 2.04658 47.1404 7.6135 41.9546 10.1893L41.7954 10.2687Z" fill="#969AB2"/>
<path d="M47.8475 2.08952C47.8558 2.10674 48.1933 3.45873 48.2031 3.49514C48.2057 3.45915 48.0908 5.70127 48.0891 5.74665C48.0996 5.70687 47.7322 7.18966 47.7231 7.22901C47.7455 7.20114 46.2999 9.11052 46.2707 9.15001C46.3085 9.12873 44.9137 9.96507 44.8774 9.98776C44.9133 9.97488 42.6573 10.6107 42.6567 10.6107C44.8808 12.2338 47.881 12.0687 47.881 12.0687C47.881 12.0687 53.148 9.40181 51.6468 4.70149C50.1455 0.00116989 46.6514 0.333214 46.6514 0.333214C46.6514 0.333214 47.8055 1.98588 47.8475 2.08952Z" fill="#DDA8BE"/>
<path d="M24.355 11.0743C18.9371 9.03151 19.2239 3.40745 19.5609 1.58057C17.7931 2.16133 17.4762 3.82563 17.6065 6.01775C18.186 11.1392 22.7043 11.9668 23.9857 11.4586L24.17 11.3438C24.2721 11.2721 24.4088 11.1937 24.5213 11.1374L24.355 11.0743Z" fill="#969AB2"/>
<path d="M18.6938 1.73877C18.6938 1.73877 15.184 1.7588 14.1617 6.586C13.1394 11.4132 18.6473 13.5384 18.6473 13.5384C18.6473 13.5384 21.6489 13.4017 23.699 11.5637C23.6985 11.5639 21.39 11.1575 21.4271 11.1667C21.3888 11.1477 19.917 10.4554 19.9569 10.4729C19.924 10.4365 18.294 8.68177 18.3191 8.7074C18.306 8.66916 17.7918 7.23076 17.8064 7.26927C17.8001 7.22418 17.4609 5.00503 17.4672 5.04046C17.4733 5.00335 17.6736 3.62419 17.68 3.60626C17.7113 3.49885 18.6938 1.73877 18.6938 1.73877Z" fill="#DDA8BE"/>
<path d="M18.4656 28.1257C16.1466 31.294 15.4492 34.3084 16.3912 37.0866C17.8033 41.2514 22.6392 44.0058 26.694 45.1947C29.4316 46.056 32.2422 46.4213 35.047 46.2803C36.7311 46.1957 38.4112 45.9296 40.0409 45.4896C44.2946 44.3408 46.9693 42.32 47.2603 42.0934L47.2809 42.0774C49.5052 40.5189 52.2309 37.9294 52.6334 34.4226C52.9307 31.8334 51.8853 29.1902 49.5261 26.5661C48.2289 25.3149 47.8419 22.7406 47.4323 20.0151C47.0106 17.2095 46.5745 14.3095 45.0564 12.9371C48.0374 12.7824 50.266 11.4477 51.3367 9.17349C52.4021 6.91079 52.1253 4.07153 50.6481 2.10838C49.4096 0.462436 47.5653 -0.256695 45.4561 0.0817933L45.4219 0.0872552L45.4348 0.119463C46.1779 1.9766 46.0863 4.4736 45.2019 6.48072C44.6714 7.68426 43.6044 9.28259 41.5328 10.0666C41.4563 10.0356 38.4084 8.67493 33.3865 8.89452C32.0499 8.95292 27.9067 9.25556 24.7637 10.9096C22.6239 10.3374 21.4019 8.85433 20.7535 7.70989C19.6722 5.8015 19.3308 3.32635 19.8837 1.40395L19.8932 1.37063L19.8586 1.36866C17.727 1.24248 15.9633 2.14367 14.896 3.90571C13.6231 6.00708 13.6325 8.85979 14.9195 11.0043C16.2127 13.1594 18.5642 14.264 21.5454 14.119C20.1727 15.6368 20.0297 18.566 19.8915 21.3997C19.7565 24.1521 19.6296 26.7523 18.4656 28.1257ZM49.1701 26.8048C51.4636 29.3209 52.4788 31.8656 52.1862 34.3673C51.7699 37.9271 48.8551 40.6036 46.4831 42.2221C45.4051 42.9387 43.12 44.2697 39.9293 45.1293C35.8829 46.2194 29.5832 46.7541 22.5503 43.1123C20.2084 41.752 17.2711 39.4233 16.5785 36.0569C16.0784 33.6257 16.8404 31.0254 18.8433 28.3281C20.0471 26.8777 20.1782 24.2303 20.317 21.4274C20.4565 18.6121 20.6 15.715 21.9142 14.0861C22.1371 13.8098 22.6638 13.3246 22.6638 13.3246C22.5015 13.3918 22.3464 13.4691 22.1925 13.5668L22.1658 13.5766C20.6142 14.1472 18.4471 13.6643 16.7734 12.3749C14.3586 10.6322 14.0385 7.91589 14.5436 5.9547C15.1111 3.75194 16.7061 2.11146 18.5331 1.83557C17.5872 2.57613 17.1608 4.10023 17.3613 6.04293C17.5416 8.03563 18.4643 9.63522 20.0297 10.6688C21.2963 11.5048 22.6724 11.7677 23.3452 11.7957C23.2518 11.8705 23.1789 11.9336 23.1282 11.9838C24.406 11.4366 26.7777 9.59517 33.3986 9.3057C39.295 9.04788 42.6551 10.7798 43.266 10.9715C43.2106 10.9269 43.1318 10.8713 43.0314 10.8061C43.698 10.7108 45.0407 10.3112 46.2171 9.35234C47.6711 8.16714 48.4287 6.48295 48.4081 4.482C48.4127 2.52935 47.8356 1.05552 46.8203 0.413699C48.6658 0.505008 50.4172 1.9773 51.2029 4.11186C51.9022 6.0124 51.856 8.7472 49.6289 10.7228C48.0925 12.1739 45.9849 12.8719 44.3835 12.4598L44.3563 12.4528C44.195 12.3718 44.0286 12.3087 43.8628 12.2588C43.8628 12.2588 44.4604 12.7078 44.7184 12.9754C46.1626 14.4736 46.5926 17.3193 47.0105 20.0854C47.43 22.8602 47.826 25.4813 49.1701 26.8048ZM42.0946 10.3039C44.3325 9.20053 45.7064 7.41258 46.1785 4.9891C46.6041 2.8037 46.1226 0.907914 46.0174 0.535956C47.2939 0.857358 47.9236 2.11006 47.9972 4.47234C48.0224 6.55802 47.1516 8.18926 45.4092 9.32054C44.0715 10.189 42.6698 10.4434 42.4757 10.4755C42.3474 10.4167 42.2205 10.3594 42.0946 10.3039ZM19.3451 1.87689C19.2777 2.25753 18.9888 4.19196 19.6315 6.32372C20.344 8.68768 21.8904 10.3287 24.2277 11.2022C24.1081 11.27 23.9877 11.3397 23.8658 11.4111C23.6695 11.3988 22.2493 11.2862 20.8312 10.5562C18.984 9.60539 17.9541 8.06952 17.77 5.9914C17.6065 3.63403 18.1071 2.32433 19.3451 1.87689Z" fill="#2A2C37"/>
<path d="M24.8959 26.5987C26.1694 26.0071 27.6527 26.1964 29.0053 26.2525C27.8705 24.6651 25.827 24.1318 24.1792 25.3005C25.2245 25.1083 26.3696 25.0508 27.2967 25.5937C27.0035 25.624 26.7265 25.6689 26.4356 25.7457C25.8684 25.8826 25.2448 26.1311 24.8959 26.5987Z" fill="#2A2C37"/>
<path d="M41.3558 24.9957C41.0586 24.9487 40.7786 24.9317 40.4838 24.931C41.3518 24.2979 42.4969 24.2403 43.5562 24.3267C41.7995 23.329 39.8197 24.0647 38.8499 25.7578C40.1899 25.5664 41.6468 25.2294 42.9732 25.6902C42.5792 25.2601 41.9338 25.0753 41.3558 24.9957Z" fill="#2A2C37"/>
<path d="M30.4003 37.3534C31.0557 38.0763 32.8 38.3882 34.5485 38.3547C36.2915 38.2127 37.9957 37.7275 38.5753 36.9425C39.451 35.7384 40.4498 39.1167 38.2189 41.2254C38.1354 41.2943 38.0538 41.3632 37.9703 41.4322C37.2419 42.0332 36.2105 42.4959 34.7987 42.6796C34.7878 42.6802 34.777 42.6803 34.7661 42.6797C34.7553 42.6814 34.7444 42.6824 34.7336 42.683C33.3105 42.6417 32.2379 42.2848 31.4529 41.7599C31.3629 41.6997 31.2748 41.6394 31.1847 41.5791C28.7534 39.7046 29.4083 36.2432 30.4003 37.3534Z" fill="#2A2C37"/>
<path d="M37.962 41.2652C37.2334 41.866 36.2021 42.3273 34.7907 42.5116C33.3592 42.5681 32.2441 42.2569 31.4404 41.7845C31.673 41.5984 31.9758 41.3824 32.3756 41.1886C33.6312 40.58 34.4879 41.2965 34.4977 41.3605C34.4823 41.3816 34.4515 41.4238 34.4361 41.4449L34.1273 41.9797C34.1273 41.9797 35.0715 41.0832 35.3281 40.9307C36.6068 40.1706 37.948 41.2652 37.962 41.2652Z" fill="#E65244"/>
<path d="M34.7839 41.2781L34.554 41.4826C34.4639 41.3845 34.2948 41.2614 34.171 41.1873C33.3165 40.6294 32.0804 41.2163 31.4401 41.7846C31.3374 41.726 31.2529 41.6643 31.1685 41.6029C32.1079 40.5571 34.1937 40.3794 34.7839 41.2781Z" fill="#2A2C37"/>
<path d="M38.2099 41.0147C38.1273 41.0838 38.0445 41.1529 37.9619 41.222C36.4707 40.1841 35.0917 40.8123 34.1328 41.973C34.7569 40.2289 36.7159 39.9586 38.2099 41.0147Z" fill="#2A2C37"/>
<path d="M37.3498 41.4175C37.3334 41.551 36.9865 41.6054 36.5677 41.5591C36.1488 41.5126 35.8099 41.3789 35.8263 41.2453C35.8426 41.1118 36.1895 41.0573 36.6084 41.1037C37.0301 41.1686 37.3691 41.3022 37.3498 41.4175Z" fill="#F26A64"/>
<path d="M31.1044 41.6863C32.0925 42.5077 34.2451 43.2997 36.5696 42.4122C37.442 42.079 38.0229 41.6149 38.3086 41.3242C39.7432 39.9754 39.8656 38.1411 39.5952 37.25C39.4562 36.8407 39.2494 36.5921 38.9969 36.5382C38.8629 36.5228 38.6445 36.5578 38.4116 36.8562C38.1759 37.1775 37.7141 37.4629 37.0872 37.6902C34.8728 38.4928 32.7322 38.1415 31.9743 37.9527C31.3183 37.7893 30.8234 37.55 30.5542 37.2511C30.2925 36.9775 30.0716 36.9646 29.94 36.9933C29.6942 37.0723 29.5134 37.3403 29.4161 37.7616C29.2361 38.6754 29.5418 40.4883 31.1044 41.6863ZM29.7071 37.8507C29.7821 37.5028 29.9017 37.3431 29.9956 37.3311C30.1069 37.2996 30.2311 37.4174 30.2813 37.4944C30.595 37.8449 31.1488 38.1169 31.8796 38.2967C34.4837 38.9307 36.6918 38.2078 37.1975 38.0292C37.9064 37.7771 38.4303 37.451 38.7073 37.0707C38.7495 36.9891 38.8614 36.8594 38.9752 36.8796C39.0698 36.8822 39.2048 37.029 39.3143 37.3676C39.5554 38.19 39.443 39.8554 38.1074 41.1123C38.0402 41.1851 37.4642 41.7275 36.4607 42.1091C33.6923 43.1614 31.5268 41.6706 31.2836 41.4553C29.8285 40.3388 29.5497 38.6932 29.7071 37.8507Z" fill="#2A2C37"/>
</svg>
