<svg width="50" height="47" viewBox="0 0 50 47" fill="none" xmlns="http://www.w3.org/2000/svg">
<path d="M29.3154 20.2349C29.0628 19.8752 28.7925 19.5241 28.4877 19.2069C28.2412 18.9504 27.9534 18.6816 27.5789 18.669C27.5133 18.6668 27.4352 18.7218 27.4103 18.7813C27.3897 18.8304 27.3769 18.8794 27.3963 18.9318C27.3973 18.9346 27.3984 18.9374 27.3994 18.9403C27.4239 19.0068 27.4812 19.0629 27.553 19.0748C27.7063 19.1003 27.8464 19.2286 27.9589 19.3279C28.1421 19.4895 28.305 19.6734 28.4588 19.8627C28.744 20.2142 29.0074 20.5858 29.2502 20.9679C29.2755 21.0077 29.3003 21.0478 29.3245 21.088C29.4626 21.0276 29.6008 20.9673 29.7391 20.907C29.6095 20.6784 29.4693 20.4542 29.3154 20.2349Z" fill="#56424F"/>
<path d="M30.9513 19.8711C30.6034 19.2129 30.1449 18.6285 29.51 18.2278C29.2122 18.0398 28.8893 17.8976 28.566 17.7601C28.2203 17.6131 27.8795 17.4535 27.5251 17.329C27.3531 17.2686 27.1599 17.4795 27.3289 17.6176C27.9272 18.1066 28.7334 18.2493 29.3711 18.683C29.999 19.11 30.4218 19.7795 30.7308 20.4654C30.8697 20.4013 31.0081 20.3357 31.1459 20.2688C31.0849 20.1347 31.0204 20.0018 30.9513 19.8711Z" fill="#56424F"/>
<path d="M23.1646 12.8496C22.447 12.072 21.6605 11.3731 20.8948 10.6448C19.3517 9.177 18.0557 7.47818 16.5776 5.9486C15.1515 4.47298 13.4579 3.33858 11.7203 2.2643C10.8081 1.70028 9.8976 1.13958 8.90713 0.7206C8.07562 0.368893 7.15324 0.0267647 6.24033 0.00104478C5.73763 -0.0131768 5.22979 0.116633 4.85226 0.461482C4.51256 0.771734 4.33111 1.21856 4.25455 1.66467C4.06564 2.76468 4.35713 3.94941 4.75029 4.97356C4.94435 5.47919 5.17956 5.97623 5.47378 6.43173C5.84313 7.00352 6.33554 7.49512 6.85932 7.9256C8.2022 9.02954 9.79704 9.79811 11.3694 10.5146C13.1154 11.3101 14.8488 12.1337 16.5981 12.9217C17.6079 13.3767 18.621 13.8357 19.6529 14.2388C20.5425 14.5863 21.4543 14.8814 22.3175 15.2934C22.4423 15.3529 22.5656 15.4152 22.6875 15.4804C22.1774 15.331 21.6769 15.0873 21.1787 14.9703C20.642 14.8443 20.0956 14.7661 19.5548 14.6605C19.0147 14.555 18.484 14.4071 17.946 14.2914C15.793 13.8285 13.5998 13.6414 11.4195 13.3571C9.243 13.0733 7.07224 12.742 4.88847 12.5158C3.9438 12.418 2.95524 12.2623 2.00441 12.3395C1.40882 12.388 0.736876 12.551 0.333628 13.0278C-0.108149 13.5503 -0.0519686 14.2646 0.162162 14.8723C0.450528 15.6906 0.920042 16.484 1.43736 17.1769C2.53001 18.6404 4.03114 19.6309 5.82911 19.991C7.7227 20.3702 9.67046 20.074 11.5434 19.7202C12.4939 19.5407 13.4408 19.3404 14.3968 19.1909C15.3918 19.0354 16.3711 18.8539 17.3434 18.5867C18.3161 18.3192 19.2697 17.9933 20.228 17.6796C20.718 17.5192 21.2204 17.397 21.7147 17.251C22.3512 17.0631 22.9876 16.8567 23.5879 16.5712C24.8135 16.036 25.1289 14.7149 23.1646 12.8496Z" fill="#B1E5E2"/>
<path d="M49.167 15.1603C48.982 14.6443 48.4811 14.3332 48.0227 14.0874C46.1576 13.0876 43.9516 13.0549 41.8899 13.1682C39.6424 13.2918 37.4108 13.5484 35.1747 13.7966C34.0422 13.9223 32.9093 14.0232 31.772 14.0947C31.3105 14.1237 30.8486 14.1518 30.3872 14.1847C31.0298 14.0466 31.6748 13.9179 32.3181 13.7851C34.0668 13.4243 35.772 12.9909 37.4317 12.3255C38.8181 11.7698 40.2312 11.2785 41.5806 10.6344C42.9089 10.0003 44.2323 9.22271 45.186 8.07782C45.7311 7.42353 46.1035 6.65758 46.3753 5.85472C46.5212 5.42373 46.6383 4.98377 46.7354 4.53937C46.8074 4.20955 46.8657 3.86601 46.8227 3.52782C46.7578 3.01625 46.4626 2.60281 45.9702 2.42791C45.3772 2.21731 44.7243 2.33119 44.1282 2.46614C42.4512 2.84589 40.863 3.56342 39.3607 4.38676C37.8345 5.22332 36.385 6.1923 34.9652 7.19689C33.3587 8.33361 31.7559 9.4781 30.1838 10.662C29.5235 11.1592 28.8503 11.6448 28.2598 12.2253C25.8192 13.6409 26.3736 16.1428 27.0443 16.4501C29.0125 17.3519 31.1287 17.807 33.2144 18.3428C35.2172 18.8572 37.1913 19.5069 39.2408 19.8188C40.6548 20.0339 42.1294 20.126 43.5063 19.6819C44.5884 19.333 45.641 18.856 46.6299 18.2961C47.5065 17.7997 48.518 17.1803 49.0258 16.275C49.2152 15.9373 49.3008 15.5337 49.167 15.1603Z" fill="#B1E5E2"/>
<path d="M45.2497 3.41315C45.0967 3.27487 44.8836 3.27165 44.71 3.3716C44.5719 3.45108 44.4529 3.60732 44.4669 3.77394C44.4678 3.78342 44.4691 3.7927 44.4709 3.80198C44.4704 3.81307 44.4701 3.82407 44.47 3.83496C44.4692 3.90698 44.5258 3.98887 44.5912 4.01712C44.6003 4.02105 44.61 4.02458 44.6196 4.02822C44.6673 4.06785 44.7206 4.10002 44.7719 4.12272C44.8917 4.17587 45.0302 4.17981 45.1401 4.10013C45.1687 4.07935 45.1931 4.05404 45.2135 4.0261C45.26 4.003 45.3013 3.97284 45.334 3.9334C45.4675 3.77233 45.3919 3.54165 45.2497 3.41315Z" fill="#987B8B"/>
<path d="M47.3805 15.0564C47.3515 15.0227 47.3128 14.9987 47.2665 14.9945C47.2467 14.9927 47.2264 14.9918 47.2058 14.9912C47.1836 14.9892 47.1618 14.9891 47.1405 14.9918C46.9459 15.0011 46.7491 15.0783 46.7136 15.297C46.686 15.4671 46.8015 15.6371 46.9337 15.7331C47.0076 15.7869 47.0909 15.8312 47.1858 15.8243C47.3188 15.8145 47.4118 15.6951 47.4675 15.5846C47.5539 15.414 47.542 15.1741 47.3805 15.0564Z" fill="#987B8B"/>
<path d="M7.27437 1.53548C7.22847 1.3737 7.12378 1.22563 6.98761 1.1277C6.82714 1.01231 6.55794 0.931419 6.38426 1.06466C6.37034 1.07535 6.35854 1.08745 6.34784 1.10026C6.29983 1.12921 6.25596 1.16532 6.21824 1.20698C6.04869 1.39428 5.98847 1.69736 6.06906 1.9358C6.17194 2.2401 6.47866 2.36235 6.77943 2.30637C7.15464 2.23658 7.38068 1.90978 7.27437 1.53548Z" fill="#987B8B"/>
<path d="M1.93198 13.4193C1.89012 13.4103 1.84585 13.416 1.8055 13.4319C1.57513 13.4594 1.35787 13.6724 1.29443 13.8822C1.21384 14.1488 1.32812 14.4579 1.5945 14.5668C1.91514 14.698 2.39282 14.5387 2.46595 14.1714C2.53252 13.8372 2.25293 13.4878 1.93198 13.4193Z" fill="#987B8B"/>
<path d="M45.9027 2.98074C45.827 2.79788 45.6708 2.65979 45.4897 2.58455C45.0759 2.41278 44.5879 2.51516 44.1735 2.63065C43.7148 2.75844 43.2749 2.94614 42.8399 3.13758C42.2969 3.37652 41.76 3.6072 41.247 3.90928C40.5279 4.3328 39.8142 4.73101 39.0599 5.08987C38.2608 5.47013 37.5387 5.93207 36.811 6.43326C35.3264 7.4558 33.8989 8.55712 32.428 9.59882C31.6216 10.1699 30.8134 10.7386 30.0211 11.3292C29.2548 11.9006 28.4156 12.4833 27.7964 13.2186C27.789 13.2272 27.7996 13.2395 27.8094 13.2335C28.5072 12.804 29.1433 12.2608 29.8086 11.7821C30.4935 11.2893 31.1907 10.8142 31.8906 10.3432C33.2883 9.40265 34.677 8.4502 36.0672 7.49867C36.7869 7.00615 37.4934 6.47975 38.2424 6.03243C38.9267 5.62374 39.6727 5.33426 40.3738 4.95724C41.0563 4.5902 41.6899 4.12976 42.4047 3.82405C42.7687 3.66842 43.1314 3.50734 43.4982 3.35817C43.9616 3.16955 44.4623 2.97166 44.9689 2.95855C45.1263 2.95451 45.3035 2.97216 45.4245 3.08281C45.5689 3.21484 45.6877 3.45772 45.7291 3.6424C45.7437 3.70695 45.8266 3.68244 45.8427 3.63483C45.9168 3.41455 45.9962 3.20617 45.9027 2.98074Z" fill="#E9FFFD"/>
<path d="M48.2934 14.8355C48.1389 14.48 47.7733 14.2641 47.4292 14.1232C46.6613 13.8086 45.807 13.7081 44.9851 13.6484C43.224 13.5204 41.4538 13.4623 39.6883 13.5012C37.7525 13.544 35.8368 13.7915 33.907 13.9213C32.8428 13.9929 31.7704 14.0357 30.7132 14.1824C30.2066 14.2527 29.7047 14.3464 29.2047 14.4538C28.7217 14.5576 28.2088 14.6302 27.7491 14.8133C27.7133 14.8275 27.7156 14.8796 27.754 14.8885C28.1426 14.978 28.5643 14.9419 28.9578 14.8943C29.3865 14.8424 29.8126 14.7784 30.2391 14.7112C31.1238 14.572 32.0178 14.5113 32.9108 14.4509C33.821 14.3894 34.7319 14.336 35.6401 14.2493C36.5591 14.1615 37.4743 14.0609 38.3966 14.0117C40.2014 13.9153 42.0107 13.9407 43.815 14.0356C44.723 14.0834 45.6409 14.1249 46.5307 14.3274C46.9254 14.4172 47.3768 14.5312 47.6936 14.7982C47.9623 15.0246 47.9739 15.4207 47.8466 15.7432C47.8299 15.7855 47.8776 15.8461 47.9213 15.8094C48.2311 15.5506 48.4749 15.2529 48.2934 14.8355Z" fill="#E9FFFD"/>
<path d="M21.307 12.4056C20.8188 11.9018 20.3615 11.3827 19.9147 10.8414C18.9365 9.6568 17.8391 8.56809 16.7309 7.50581C15.6106 6.43183 14.4529 5.39728 13.2703 4.39229C12.1174 3.41241 10.9612 2.41347 9.69498 1.58075C8.99913 1.12324 8.23046 0.662805 7.42467 0.431931C7.07044 0.330464 6.71893 0.318764 6.36087 0.401169C6.03357 0.476412 5.71424 0.601074 5.38362 0.656649C5.34721 0.662802 5.32582 0.718482 5.36778 0.735528C5.59462 0.827514 5.8146 0.792918 6.05375 0.773653C6.36592 0.748538 6.66174 0.724331 6.9721 0.782327C7.69558 0.917382 8.38901 1.32204 9.01396 1.69624C10.2905 2.46067 11.4276 3.44448 12.5634 4.39884C13.7191 5.36985 14.8526 6.36758 15.9524 7.40152C17.048 8.43153 18.1455 9.48584 19.1328 10.6218C19.6564 11.2241 20.135 11.8657 20.6944 12.4365C20.9278 12.6747 21.1708 12.9063 21.3787 13.1677C21.575 13.4144 21.7157 13.678 21.9449 13.896C21.9926 13.9414 22.0614 13.9072 22.0778 13.8517C22.242 13.2905 21.661 12.7709 21.307 12.4056Z" fill="#E9FFFD"/>
<path d="M22.4879 15.4475C22.4729 15.3939 22.4508 15.345 22.4321 15.2927C22.4052 15.2175 22.32 15.2117 22.2663 15.2594C22.0765 15.428 21.5923 15.3489 21.3572 15.321C21.0176 15.2808 20.6829 15.2091 20.3478 15.142C19.5479 14.9818 18.7326 14.909 17.9242 14.8042C16.1676 14.5765 14.4129 14.3174 12.6592 14.0674C11.7698 13.9406 10.8815 13.8065 9.99611 13.6539C9.1305 13.5047 8.27206 13.317 7.40596 13.1712C5.98622 12.9322 4.54338 12.7647 3.10579 12.6773C2.26783 12.6264 0.725239 12.5977 0.438891 13.627C0.415087 13.7128 0.546814 13.7552 0.58504 13.6775C0.774863 13.2916 1.27423 13.1788 1.66558 13.1305C2.14901 13.0707 2.64052 13.0969 3.12496 13.1299C4.54016 13.2262 5.96141 13.395 7.35946 13.6323C8.21054 13.7767 9.05425 13.9608 9.90513 14.1073C10.7604 14.2547 11.6185 14.385 12.4776 14.508C14.1883 14.7529 15.9004 14.9965 17.6129 15.2285C18.494 15.3479 19.3843 15.4209 20.2567 15.5955C20.6262 15.6694 20.9956 15.7493 21.3712 15.7858C21.6979 15.8176 22.1106 15.8601 22.4061 15.6893C22.4891 15.6412 22.512 15.5331 22.4879 15.4475Z" fill="#E9FFFD"/>
<path d="M29.3332 12.8077C29.3765 11.0855 29.4506 6.72833 27.2784 5.64699C26.6034 5.33674 25.8121 5.32543 25.0901 5.44102C23.3173 5.72495 21.7254 6.84271 21.0175 8.51844C20.6322 9.43054 20.4865 10.4183 20.4047 11.3986C20.2927 12.7404 20.1324 14.076 19.9433 15.409C19.7486 16.782 19.5315 18.1517 19.3387 19.5249C19.1773 20.6747 18.9997 21.8338 18.949 22.995C18.9086 23.923 18.9641 24.8996 19.3107 25.7721C19.2487 26.1014 19.1762 26.4288 19.0918 26.7533C18.8016 27.8685 18.3662 28.9385 17.8268 29.9558C17.295 30.9589 16.6699 31.9121 16.1143 32.9025C15.073 34.7587 14.0864 36.6629 12.788 38.3577C12.1407 39.2024 11.4157 39.9963 10.5847 40.664C10.0385 41.1029 9.4476 41.3873 8.81509 41.6803C8.11036 42.0067 7.39384 42.3355 6.75649 42.7839C6.23745 43.1491 5.70913 43.6375 5.58043 44.2879C5.44669 44.9637 5.79214 45.7021 6.38067 46.0506C7.03366 46.4374 7.8697 46.3499 8.57665 46.1912C10.2748 45.81 11.7292 44.8261 13.0838 43.7757C14.9035 42.3645 16.5692 40.738 18.0237 38.9529C19.3757 37.2937 20.4329 35.4485 21.506 33.6037C22.5894 31.7413 23.6582 29.8279 24.3259 27.7704C24.3266 27.7684 24.3271 27.7664 24.3278 27.7644C24.4285 27.6748 24.5255 27.5814 24.6184 27.4852C25.4664 26.6069 26.069 25.4821 26.6049 24.3947C27.4012 22.779 27.9347 21.0161 28.374 19.2744C28.9068 17.1623 29.2784 14.9888 29.3332 12.8077Z" fill="#987B8B"/>
<path d="M21.8394 26.446C20.9858 25.5063 20.8655 24.145 20.9184 22.9335C20.9761 21.6122 21.2648 20.3141 21.4998 19.0168C21.8185 17.2572 22.0659 15.4922 22.47 13.748C22.9012 11.8862 23.4116 9.97484 24.248 8.24858C24.4754 7.77907 23.4707 6.84034 23.1858 7.1751C22.8248 7.59923 22.5125 8.06613 22.2201 8.53927C21.5483 9.62657 21.0116 10.7646 20.6985 12.0106C20.216 13.9306 20.1877 15.9226 20.0231 17.885C19.8629 19.7958 19.4727 21.6789 19.4487 23.6014C19.4405 24.2594 19.4851 24.876 19.7823 25.4668C19.8491 25.5997 19.9278 25.7555 20.0206 25.9079C19.5235 26.6009 19.278 27.426 18.9978 28.2268C18.6435 29.2391 18.2398 30.2265 17.8168 31.2119C16.9718 33.18 15.9931 35.0897 14.7808 36.8589C13.6786 38.4675 12.3632 39.996 10.7008 41.0454C9.7152 41.6675 8.60592 42.0624 7.61061 42.6725C6.81006 43.1633 5.15027 44.3474 6.31433 45.3387C6.47046 45.4716 6.70648 45.3517 6.69881 45.1495C6.67098 44.4149 7.17034 44.0236 7.74829 43.6748C8.49003 43.2271 9.1998 42.7357 9.9134 42.2452C11.2942 41.2958 12.6678 40.3326 13.9089 39.2019C16.2413 37.0769 17.7441 34.3048 18.946 31.425C19.3119 30.5488 19.71 29.6898 20.0947 28.822C20.407 28.1178 20.6911 27.3951 20.8641 26.6441C21.1181 26.7684 21.4034 26.8322 21.7022 26.8494C21.9245 26.8622 21.9548 26.5731 21.8394 26.446Z" fill="#725767"/>
<path d="M33.2816 11.4875C34.54 9.86096 34.2415 7.52225 32.615 6.26384C30.9885 5.00543 28.6498 5.30385 27.3913 6.93038C26.1329 8.55692 26.4314 10.8956 28.0579 12.154C29.6844 13.4125 32.0231 13.114 33.2816 11.4875Z" fill="#EFBFA6"/>
<path d="M26.6258 8.71857C26.5706 10.7746 33.9822 10.9733 34.0373 8.91737C34.0923 6.8615 32.4938 5.53839 30.4378 5.48321C28.3819 5.42814 26.681 6.66269 26.6258 8.71857Z" fill="#D09084"/>
<path d="M27.3917 9.54192C27.803 9.84249 28.5541 10.0588 29.0466 10.1736C29.4601 10.27 30.2487 10.3128 30.3125 10.3118C30.8001 10.3048 31.2851 10.2399 31.753 10.1298C31.9871 10.0748 32.978 9.72569 33.0229 9.67466C33.0806 9.6452 33.382 9.51167 33.5316 9.41212C33.8724 9.18528 34.0343 8.63477 34.0343 8.63477C34.0343 8.63477 34.3441 9.33031 33.189 10.0195C33.6005 10.3413 34.9452 10.4922 34.9452 10.4922C34.9452 10.4922 34.1105 10.6282 33.9346 10.6202C33.7785 10.6132 33.592 10.5902 33.4389 10.5517C33.194 10.49 33.0419 10.406 32.8329 10.2852C32.7917 10.2023 32.5425 10.3022 32.4781 10.3249C32.4214 10.345 32.1064 10.4067 32.0861 10.452C32.0397 10.5559 32.2147 10.7499 32.2832 10.8114C32.5797 11.0777 33.0298 11.2943 33.3954 11.408C33.5307 11.45 34.0159 11.5315 34.0159 11.5315C34.0159 11.5315 33.7414 11.6883 33.4181 11.6547C32.8178 11.5924 31.6977 11.387 31.6089 10.5768C31.1394 10.6829 30.6552 10.7439 30.1665 10.7435C30.3026 10.9714 30.4282 11.1897 30.6413 11.3506C30.7471 11.4305 30.8762 11.4939 30.9901 11.5616C31.0591 11.6025 31.3524 11.7316 31.3524 11.7316C31.3524 11.7316 30.8577 11.7585 30.6823 11.6802C30.4095 11.5586 30.2702 11.4856 30.0547 11.2793C29.9559 11.1847 29.8637 11.0828 29.7865 10.9708C29.7251 10.8818 29.6856 10.753 29.5994 10.714C29.5015 10.6697 29.3322 10.6802 29.2248 10.6607C29.085 10.6354 28.946 10.6041 28.8084 10.5662C28.8628 10.8811 29.0098 11.2321 29.2504 11.4348C29.4035 11.5639 29.9185 11.9502 29.9185 11.9502C29.9185 11.9502 28.8517 11.7104 28.406 10.7542C28.3318 10.5949 28.3568 10.4507 28.2836 10.386C28.1585 10.2754 27.8252 10.1487 27.675 10.0618C27.3797 9.89081 27.1357 9.68152 26.8989 9.43753C26.6259 9.15633 26.6348 8.82479 26.6348 8.82479C26.6348 8.82479 27.1732 9.38226 27.3917 9.54192Z" fill="#56424F"/>
<path d="M21.2508 12.4327C23.3075 12.4327 24.9747 10.7655 24.9747 8.7088C24.9747 6.65213 23.3075 4.98486 21.2508 4.98486C19.1941 4.98486 17.5269 6.65213 17.5269 8.7088C17.5269 10.7655 19.1941 12.4327 21.2508 12.4327Z" fill="#EFBFA6"/>
<path d="M17.5384 8.22005C17.4832 10.276 24.8948 10.4748 24.9499 8.41885C25.005 6.36287 23.4064 5.03986 21.3504 4.98468C19.2944 4.92951 17.5935 6.16417 17.5384 8.22005Z" fill="#D09084"/>
<path d="M18.3048 9.04339C18.7161 9.34396 19.4672 9.56021 19.9597 9.67509C20.3731 9.77151 21.1618 9.81428 21.2256 9.81327C21.7132 9.80631 22.1981 9.74135 22.666 9.63131C22.9001 9.57624 23.8911 9.22716 23.936 9.17612C23.9937 9.14667 24.2951 9.01312 24.4447 8.91357C24.7855 8.68673 24.9473 8.13623 24.9473 8.13623C24.9473 8.13623 25.2572 8.83178 24.1021 9.52097C24.5135 9.84272 25.8582 9.99371 25.8582 9.99371C25.8582 9.99371 25.0236 10.1298 24.8477 10.1217C24.6916 10.1146 24.5051 10.0916 24.352 10.0531C24.1071 9.99149 23.955 9.90747 23.746 9.78664C23.7048 9.70373 23.4556 9.80369 23.3911 9.82638C23.3345 9.84645 23.0195 9.90818 22.9992 9.95346C22.9528 10.0574 23.1278 10.2514 23.1963 10.3128C23.4928 10.5791 23.9429 10.7958 24.3085 10.9094C24.4437 10.9515 24.929 11.033 24.929 11.033C24.929 11.033 24.6544 11.1897 24.3312 11.1561C23.7308 11.0938 22.6108 10.8885 22.522 10.0782C22.0525 10.1843 21.5683 10.2454 21.0796 10.245C21.2155 10.4729 21.3413 10.6912 21.5543 10.8521C21.6601 10.9319 21.7892 10.9954 21.9032 11.0631C21.9722 11.104 22.2655 11.2331 22.2655 11.2331C22.2655 11.2331 21.7708 11.2599 21.5954 11.1817C21.3226 11.06 21.1834 10.987 20.9678 10.7807C20.869 10.6861 20.7768 10.5843 20.6996 10.4723C20.6382 10.3832 20.5987 10.2544 20.5125 10.2155C20.4146 10.1711 20.2452 10.1816 20.1379 10.1622C19.9981 10.1368 19.859 10.1056 19.7215 10.0676C19.7759 10.3825 19.9229 10.7335 20.1634 10.9363C20.3167 11.0654 20.8316 11.4517 20.8316 11.4517C20.8316 11.4517 19.7647 11.2118 19.3191 10.2557C19.2449 10.0964 19.2699 9.95215 19.1967 9.8875C19.0716 9.77686 18.7383 9.65018 18.5881 9.56323C18.2928 9.39227 18.0488 9.18298 17.8119 8.93899C17.539 8.65779 17.5479 8.32625 17.5479 8.32625C17.5479 8.32625 18.0863 8.88372 18.3048 9.04339Z" fill="#56424F"/>
<path d="M24.7807 4.66712C24.6668 4.14839 24.372 3.69552 23.9342 3.39273C23.6264 3.17991 23.2155 2.92614 22.8252 2.98797C22.4376 3.04939 22.1756 3.61815 22.5396 3.87687C22.818 4.07486 23.3811 3.97743 23.633 3.74434C23.9906 3.9859 24.2325 4.3373 24.3334 4.75881C24.3831 4.96669 24.397 5.18626 24.3878 5.39948C24.3784 5.61614 24.2836 5.84973 24.3835 6.05035C24.4258 6.13518 24.5708 6.15989 24.6421 6.1023C24.831 5.94989 24.8251 5.65245 24.838 5.4253C24.8525 5.16992 24.8356 4.91716 24.7807 4.66712Z" fill="#56424F"/>
<path d="M29.4264 3.57824C29.21 3.46224 28.9598 3.50562 28.7441 3.59891C28.2601 3.80831 27.8667 4.20076 27.6058 4.65212C27.4497 4.92193 27.3335 5.21221 27.2101 5.49775C27.1149 5.71803 26.9397 5.9475 27.0082 6.19108C27.0231 6.24423 27.0882 6.28851 27.1437 6.28074C27.353 6.25139 27.4287 6.10252 27.5145 5.9239C27.6161 5.71249 27.7041 5.49493 27.8031 5.28231C27.99 4.88047 28.2052 4.5209 28.5567 4.25038C28.5703 4.25462 28.5842 4.25745 28.5984 4.25916C28.9087 4.49135 29.4672 4.52756 29.654 4.13258C29.756 3.91663 29.6231 3.68374 29.4264 3.57824Z" fill="#56424F"/>
<path d="M24.4633 15.1814C24.6602 15.6391 24.9227 16.2712 25.4447 16.4322C25.683 16.5057 26.7245 16.5594 26.7766 15.6391C26.7993 15.2372 26.6904 14.8398 26.6125 14.4477C26.5207 13.9856 26.5987 13.5488 26.6722 13.0879C26.7456 12.6268 26.8596 12.0304 26.5624 11.6202C26.0408 10.9 24.9893 11.6629 24.57 12.106C23.7521 12.9704 24.043 14.2043 24.4633 15.1814Z" fill="#56424F"/>
<path d="M29.0695 25.4842C29.1621 24.8169 29.1139 24.1699 28.9634 23.5161C28.847 23.0104 28.229 21.983 28.2261 21.9821C28.2056 21.9444 27.4949 20.8961 27.1613 20.637C26.4686 20.0992 25.0481 19.3479 23.8053 19.7223C23.4546 19.8279 23.1581 20.0592 22.8907 20.3022C22.2834 20.8544 21.8367 21.5551 21.2716 22.1468C21.0073 22.4237 20.7245 22.6536 20.3621 22.7871C19.8196 22.9868 19.2328 23.0231 18.66 22.9828C17.5202 22.9025 16.4177 22.5466 15.2749 22.4947C14.9141 22.4782 14.5438 22.492 14.1839 22.5539C13.6738 22.5821 13.1703 22.6855 12.696 22.8958C11.9433 23.2297 11.3265 23.7891 10.9127 24.5005C9.87841 26.2784 10.3025 28.4858 11.1452 30.249C11.9886 32.0135 13.4588 33.7263 15.3832 34.3137C16.3917 34.6216 17.4614 34.6248 18.4259 34.1749C18.8896 33.9585 19.3514 33.6884 19.7367 33.3498C20.1287 33.0052 20.4299 32.573 20.6806 32.1179C20.8814 31.7532 21.0608 31.3723 21.2256 30.9879C21.4005 30.698 21.5861 30.4157 21.814 30.1564C22.2191 29.6954 22.7174 29.3002 23.3045 29.1021C23.8836 28.9067 24.5222 28.952 25.1249 28.9046C25.7273 28.8573 26.3421 28.7677 26.9017 28.5291C28.148 27.9976 28.8873 26.7971 29.0695 25.4842Z" fill="#EFBFA6"/>
<path d="M41.1203 14.4358C40.9538 14.3504 38.6424 15.6184 38.6072 15.6478C38.4907 15.7086 38.3759 15.7721 38.2642 15.8407C38.026 15.9871 37.7534 16.1145 37.5622 16.3246C37.3783 16.5266 37.356 16.7652 37.4258 17.0014C35.5397 17.926 33.6848 18.911 31.838 19.9147C31.61 20.0387 28.1186 21.6219 27.5353 21.9304C27.1871 22.1146 26.8429 22.3062 26.4849 22.4711C26.1964 22.604 25.8906 22.7235 25.6207 22.8924C25.4974 22.9695 25.3098 23.1744 25.4284 23.4335C25.4557 23.5522 25.9408 24.7803 26.0509 24.9087C26.3777 25.29 26.9765 24.9509 27.3344 24.802C28.3429 24.3823 33.0706 21.914 33.6546 21.6146C33.9093 21.4751 38.0473 19.3676 38.6996 19.0126C38.7029 19.0196 38.7065 19.0262 38.7097 19.0331C38.7649 19.1518 38.8722 19.2129 39.0035 19.1767C39.7691 18.9655 40.5255 18.7244 41.2831 18.4869C41.4173 18.4747 42.2062 18.2016 42.3671 18.1537C42.4625 18.1252 42.5311 18.0174 42.5221 17.9192C42.4206 16.8104 41.2771 14.516 41.1203 14.4358Z" fill="#D09084"/>
<path d="M17.7819 29.7036C17.2096 28.5519 16.7501 27.3492 16.2245 26.1762C16.1792 26.0748 16.1004 26.0215 15.9894 26.0205C15.0852 26.0126 15.9523 27.8205 16.1292 28.2128C16.2503 28.4811 16.9592 30.5263 17.7175 30.024C17.8321 29.9481 17.8431 29.8271 17.7819 29.7036Z" fill="#D09084"/>
<path d="M41.5094 17.18C41.5099 17.1793 41.5103 17.1786 41.5108 17.1779C41.0372 17.3944 40.5561 17.5929 40.0675 17.7728C39.8266 17.8614 39.5838 17.9446 39.3383 18.0197C39.1566 18.0753 38.8742 18.1252 38.7992 18.3271C38.7823 18.3727 38.786 18.4197 38.8234 18.4542C38.9808 18.5991 39.2277 18.5213 39.41 18.4707C39.6692 18.3988 39.9251 18.3127 40.1786 18.2229C40.6821 18.0447 41.1755 17.8374 41.6611 17.6153C41.9786 17.4701 41.7335 17.0985 41.5094 17.18Z" fill="#725767"/>
<path d="M40.8093 15.4947C40.8097 15.4939 40.81 15.4932 40.8104 15.4924C40.3673 15.7659 39.9146 16.0225 39.4519 16.2614C39.2239 16.3792 38.9933 16.4919 38.759 16.5968C38.5855 16.6745 38.3115 16.759 38.2621 16.9687C38.2509 17.016 38.2605 17.0622 38.3019 17.0918C38.476 17.2162 38.7114 17.1083 38.8861 17.0355C39.1344 16.9321 39.3777 16.8149 39.618 16.6944C40.0956 16.4552 40.5595 16.1884 41.0139 15.9079C41.3109 15.7244 41.0216 15.386 40.8093 15.4947Z" fill="#725767"/>
<path d="M23.4815 26.0588C23.6556 25.1916 23.1268 24.3541 22.3004 24.1883C21.4741 24.0224 20.6631 24.5909 20.489 25.4581C20.3149 26.3253 20.8437 27.1628 21.6701 27.3287C22.4964 27.4945 23.3074 26.926 23.4815 26.0588Z" fill="#56424F"/>
<path d="M42.1029 18.414C42.1711 18.6159 42.1242 18.8141 41.9981 18.8566C41.872 18.8992 41.7147 18.7699 41.6465 18.568C41.5783 18.366 41.6253 18.1678 41.7513 18.1253C41.8774 18.0827 42.0348 18.212 42.1029 18.414Z" fill="#725767"/>
<path d="M40.9374 18.8251C41.0056 19.027 40.9587 19.2253 40.8326 19.2678C40.7065 19.3104 40.5492 19.181 40.481 18.9791C40.4128 18.7772 40.4597 18.579 40.5858 18.5364C40.7118 18.4939 40.8692 18.6231 40.9374 18.8251Z" fill="#725767"/>
<path d="M39.8705 19.1258C39.9387 19.3278 39.8918 19.526 39.7657 19.5685C39.6396 19.6111 39.4823 19.4818 39.4141 19.2799C39.3459 19.0779 39.3928 18.8797 39.5189 18.8372C39.6449 18.7947 39.8023 18.9239 39.8705 19.1258Z" fill="#725767"/>
<path d="M38.2089 15.6371C38.2771 15.839 38.2302 16.0372 38.1041 16.0798C37.978 16.1223 37.8207 15.993 37.7525 15.7911C37.6843 15.5892 37.7312 15.391 37.8573 15.3484C37.9833 15.3059 38.1407 15.4351 38.2089 15.6371Z" fill="#725767"/>
<path d="M39.2807 14.9286C39.3489 15.1305 39.302 15.3287 39.1759 15.3713C39.0498 15.4139 38.8925 15.2846 38.8243 15.0826C38.7561 14.8807 38.803 14.6824 38.9291 14.6399C39.055 14.5974 39.2125 14.7266 39.2807 14.9286Z" fill="#725767"/>
<path d="M40.434 14.4618C40.5022 14.6637 40.4553 14.8619 40.3292 14.9045C40.2031 14.9471 40.0458 14.8178 39.9776 14.6158C39.9094 14.4139 39.9563 14.2156 40.0824 14.1731C40.2084 14.1306 40.3658 14.2599 40.434 14.4618Z" fill="#725767"/>
<path d="M21.0877 15.1711C20.858 15.3754 20.5764 15.5209 20.3234 15.6925C20.0642 15.8684 19.7914 16.0231 19.5259 16.1894C18.9843 16.5285 18.5516 16.9444 18.1852 17.4687C17.3871 18.6102 16.8937 19.9513 16.5225 21.2848C16.1123 22.7585 15.942 24.3002 16.1652 25.8203C16.2376 26.3137 16.3306 26.8569 16.619 27.2765C16.8707 27.6428 17.3642 27.827 17.7649 27.5614C18.1182 27.3271 17.9459 26.8736 17.6362 26.6947C17.3372 26.522 17.0554 26.6284 16.9074 26.8711C16.7757 26.6192 16.7148 26.3102 16.6686 26.0479C16.5574 25.4174 16.5116 24.7754 16.529 24.1355C16.5632 22.8743 16.8611 21.6321 17.2654 20.442C17.6183 19.4029 18.0598 18.3522 18.7466 17.4857C19.1119 17.0247 19.5489 16.7104 20.0455 16.4043C20.5298 16.1059 21.0088 15.8163 21.2276 15.2662C21.2644 15.1736 21.1601 15.1066 21.0877 15.1711Z" fill="#56424F"/>
<path d="M20.1105 27.4381C19.9968 27.3801 19.8833 27.3624 19.7752 27.3741C19.7698 27.373 19.7642 27.3732 19.7591 27.3754C19.5821 27.3996 19.4216 27.505 19.3021 27.6505C19.1994 27.4753 19.1241 27.2791 19.0579 27.0959C18.9088 26.6834 18.8118 26.2546 18.7545 25.82C18.5109 23.9746 18.8651 22.0325 19.6201 20.341C19.855 19.8146 20.1289 19.3176 20.4481 18.838C20.7702 18.354 21.0991 17.9068 21.1697 17.3149C21.1781 17.2436 21.0819 17.1748 21.0303 17.2454C20.6604 17.7503 20.2914 18.2526 19.943 18.7737C19.5767 19.3214 19.2861 19.9182 19.0408 20.5288C18.6063 21.6101 18.3373 22.7547 18.253 23.9173C18.1738 25.0093 18.2365 26.1378 18.5975 27.1796C18.731 27.5651 18.9042 27.9778 19.2 28.2681C19.505 28.5674 19.9535 28.5823 20.2534 28.2618C20.498 28.0002 20.4306 27.6013 20.1105 27.4381Z" fill="#56424F"/>
<path d="M36.7251 20.0608C36.7251 20.056 36.7254 20.0514 36.7254 20.0466C36.7251 20.0467 36.7249 20.0469 36.7246 20.047C36.7175 19.6675 36.6296 19.2757 36.3869 18.9847C36.2522 18.823 36.0291 18.7507 35.8634 18.9163C35.7497 19.0298 35.7205 19.2097 35.7192 19.3636C35.7166 19.6769 35.9506 20.0345 36.2564 19.9013C36.262 19.9519 36.2658 20.0029 36.2668 20.054C36.2684 20.1303 36.2623 20.229 36.257 20.3054C36.2575 20.3051 36.2581 20.3048 36.2586 20.3046C36.2207 20.8016 36.0517 21.2981 35.9024 21.7655C35.7313 22.3013 35.5209 22.8508 35.1553 23.2866C34.7825 23.7308 34.2278 24.0496 33.6424 24.0862C33.5932 24.0893 33.545 24.0889 33.4971 24.087C33.6518 23.848 33.7751 23.5884 33.8664 23.3273C34.0881 22.6929 34.1226 22.0423 34.114 21.3795C34.1135 21.3798 34.113 21.38 34.1124 21.3803C34.1121 21.3265 34.1121 21.2588 34.1112 21.2174C34.1062 20.9933 34.064 20.7927 33.951 20.6129C33.9118 20.4907 33.835 20.3911 33.7255 20.3529C33.6232 20.2624 33.5005 20.1893 33.3668 20.2005C32.8184 20.2469 33.0613 21.3684 33.5954 21.3128C33.617 21.3105 33.6374 21.3064 33.6572 21.3015C33.6561 21.3818 33.6522 21.4616 33.6539 21.5361C33.6544 21.5595 33.6544 21.6229 33.6546 21.6549C33.6572 22.4396 33.5092 23.3429 33.0235 23.983C32.7405 23.8664 32.4964 23.6603 32.3112 23.3979C32.1215 23.1288 32.0007 22.8257 31.9026 22.5131C31.7635 22.5844 31.6244 22.6557 31.4853 22.727C31.5024 22.7785 31.5197 22.8298 31.5377 22.8811C31.7436 23.4693 32.1179 24.0432 32.6823 24.3382C32.593 24.4112 32.4966 24.4778 32.3918 24.5361C32.0359 24.7339 31.6169 24.7488 31.3134 24.4505C31.1179 24.2584 31.0199 24.0019 30.9234 23.7515C30.8444 23.5468 30.7704 23.3402 30.6973 23.1332C30.5577 23.2061 30.4183 23.2796 30.2788 23.3531C30.4587 23.9116 30.6552 24.5363 31.1161 24.888C31.577 25.2398 32.161 25.195 32.647 24.9194C32.8403 24.8098 33.0132 24.6694 33.1666 24.5086C33.6935 24.6132 34.2456 24.4845 34.7245 24.2278C35.3314 23.9025 35.7536 23.3427 36.0323 22.7245C36.3135 22.1009 36.5316 21.4079 36.6596 20.7358C36.7 20.5234 36.7269 20.2928 36.7251 20.0626L36.7252 20.0625C36.7251 20.062 36.7251 20.0614 36.7251 20.0608Z" fill="#56424F"/>
</svg>
