<svg width="246" height="149" viewBox="0 0 246 149" fill="none" xmlns="http://www.w3.org/2000/svg">
<path d="M144.116 129.396C143.942 129.396 143.769 129.323 143.647 129.18C143.426 128.921 143.457 128.532 143.716 128.311C144.914 127.29 146.558 126.615 148.47 126.359C150.14 126.136 151.817 126.233 153.438 126.326C153.778 126.346 154.037 126.637 154.018 126.977C153.998 127.317 153.705 127.577 153.367 127.556C151.803 127.466 150.186 127.373 148.634 127.581C146.957 127.805 145.533 128.382 144.515 129.249C144.399 129.348 144.257 129.396 144.116 129.396Z" fill="#1F404D"/>
<path d="M144.871 128.62C144.748 128.62 144.624 128.583 144.516 128.506C144.238 128.31 144.172 127.925 144.369 127.648C144.947 126.831 145.87 125.71 147.203 125.413C149.369 124.931 151.583 124.825 153.785 125.096C154.122 125.138 154.362 125.445 154.321 125.783C154.279 126.12 153.972 126.361 153.634 126.319C151.572 126.065 149.499 126.165 147.471 126.616C146.782 126.77 146.096 127.34 145.375 128.36C145.254 128.529 145.064 128.62 144.871 128.62Z" fill="#1F404D"/>
<path d="M143.844 130.939C147.359 129.659 151.623 129.966 155.031 131.51C156.361 135.507 158.912 139.024 161.896 141.999C164.88 144.972 169.641 148.409 174.042 148.056C175.39 147.947 176.665 147.132 177.809 145.988C179.563 144.235 181.013 141.707 181.964 139.783L170.486 135.268C170.154 134.96 169.826 134.647 169.5 134.331C169.375 134.132 169.198 133.949 168.963 133.795C168.754 133.585 168.541 133.376 168.335 133.161C167.964 132.774 167.543 132.62 167.136 132.627C166.427 132.189 165.8 131.8 165.214 131.441C162.949 130.052 161.28 129.098 157.669 127.447C157.4 127.264 157.141 127.067 156.884 126.869C156.462 125.709 155.557 124.095 154.842 123.213C154.613 122.931 154.356 122.653 154.018 122.518C153.682 122.381 153.247 122.428 153.024 122.713C152.751 123.064 152.899 123.569 153.059 123.982C153.242 124.456 153.425 124.93 153.608 125.403C151.628 125.38 149.621 125.588 147.66 125.831C147.12 125.898 146.625 126.12 146.298 126.491C145.738 126.885 145.264 127.448 144.872 128.003L145.123 127.938C145.083 128.005 145.044 128.073 145.011 128.144C144.698 128.332 144.396 128.542 144.117 128.779L144.846 128.635C144.84 128.663 144.833 128.689 144.828 128.718C144.824 128.737 144.826 128.756 144.823 128.776C144.423 128.92 144.045 129.117 143.768 129.436C143.376 129.888 143.399 130.536 143.844 130.939Z" fill="#F6E2D7"/>
<path d="M168.76 134.238C168.651 134.238 168.54 134.209 168.44 134.149C167.501 133.578 166.701 133.084 165.983 132.64C162.919 130.747 161.381 129.796 156.72 127.693C156.561 127.621 156.44 127.485 156.387 127.318C156.047 126.248 155.101 124.511 154.363 123.602C154.186 123.385 153.994 123.172 153.787 123.089C153.659 123.037 153.529 123.066 153.509 123.093C153.488 123.12 153.435 123.247 153.633 123.761L154.285 125.449C154.407 125.766 154.249 126.123 153.932 126.245C153.614 126.368 153.258 126.21 153.135 125.892L152.484 124.206C152.344 123.845 152.018 123.001 152.537 122.335C152.914 121.851 153.618 121.692 154.249 121.946C154.716 122.135 155.052 122.497 155.319 122.825C156.091 123.777 157.033 125.474 157.471 126.681C162.019 128.742 163.672 129.764 166.631 131.592C167.347 132.035 168.143 132.527 169.08 133.096C169.371 133.272 169.463 133.651 169.287 133.942C169.171 134.133 168.968 134.238 168.76 134.238Z" fill="#1F404D"/>
<path d="M173.397 148.698C168.312 148.698 163.395 144.364 161.46 142.435C158.122 139.108 155.793 135.587 154.534 131.964C151.216 130.538 147.226 130.363 144.053 131.518C143.84 131.596 143.599 131.549 143.429 131.396C142.745 130.777 142.689 129.738 143.302 129.032C143.795 128.464 144.491 128.209 145.169 128.018C147.429 127.382 149.759 127.173 152.097 127.397C152.435 127.429 152.684 127.73 152.651 128.068C152.619 128.407 152.315 128.654 151.98 128.623C149.795 128.414 147.616 128.61 145.503 129.204C144.932 129.365 144.498 129.534 144.233 129.84C144.137 129.949 144.096 130.076 144.108 130.197C147.566 129.093 151.799 129.369 155.284 130.948C155.44 131.019 155.56 131.152 155.614 131.315C156.79 134.845 159.049 138.292 162.329 141.562C163.814 143.041 169.039 147.838 173.992 147.442C177.164 147.188 180.001 142.364 181.41 139.51C181.561 139.205 181.93 139.08 182.235 139.23C182.54 139.381 182.666 139.751 182.515 140.056C180.653 143.827 177.68 148.383 174.09 148.671C173.859 148.689 173.628 148.698 173.397 148.698Z" fill="#1F404D"/>
<path d="M197.758 148.951C191.842 148.951 185.402 148.306 180.198 146.185C179.903 146.065 179.75 145.738 179.848 145.435L179.859 145.4C180.413 143.675 180.85 142.313 181.177 140.927C181.851 138.056 182.068 135.019 182.068 128.43C182.068 128.093 182.341 127.821 182.677 127.821C183.014 127.821 183.286 128.093 183.286 128.43C183.286 135.126 183.062 138.23 182.363 141.206C182.059 142.497 181.668 143.748 181.182 145.264C191.815 149.324 207.479 147.358 212.824 146.507C212.768 146.098 212.715 145.697 212.662 145.305C212.522 144.259 212.39 143.27 212.255 142.323C212.25 142.297 212.247 142.273 212.244 142.245L212.207 141.997C212.167 141.719 212.127 141.444 212.086 141.173C211.574 137.799 211.047 135.401 210.265 132.898C209.525 130.532 208.565 128.114 207.243 125.29C207.1 124.985 207.232 124.622 207.537 124.479C207.841 124.337 208.204 124.468 208.347 124.773C209.692 127.648 210.671 130.114 211.429 132.534C212.23 135.101 212.769 137.551 213.292 140.99C213.333 141.265 213.373 141.541 213.413 141.822L213.452 142.087C213.452 142.09 213.454 142.099 213.454 142.105C213.456 142.115 213.458 142.125 213.459 142.135C213.596 143.092 213.729 144.089 213.87 145.144C213.948 145.721 214.027 146.316 214.111 146.932C214.155 147.258 213.933 147.56 213.608 147.615L213.507 147.631C210.837 148.073 204.654 148.951 197.758 148.951ZM213.451 142.089C213.451 142.09 213.451 142.09 213.451 142.09C213.451 142.09 213.451 142.09 213.451 142.089Z" fill="#1F404D"/>
<path d="M191.818 73.1865C192.089 73.1815 192.351 73.0444 192.505 72.7983C192.748 72.4109 192.631 71.9 192.244 71.6572C189.983 70.2406 186.952 70.2514 184.702 71.6838C184.316 71.9294 184.203 72.4412 184.448 72.8268C184.694 73.2126 185.206 73.3256 185.591 73.0806C187.287 72.0007 189.66 71.9925 191.364 73.0603C191.505 73.1487 191.663 73.1893 191.818 73.1865Z" fill="#1F404D"/>
<path d="M184.056 117.049C184.158 117.977 184.28 118.901 184.496 119.809C186.011 126.146 192.58 130.216 198.912 129.325C201.868 128.909 204.713 127.446 206.734 125.237C208.43 123.379 209.496 121.111 210.281 118.748C209.215 118.299 208.125 117.895 207.018 117.538C206.292 119.779 205.291 121.929 203.505 123.534C199.93 126.75 194.277 126.776 190.691 123.56C188.601 121.687 187.792 119.324 187.498 116.598C187.48 116.433 187.461 116.267 187.444 116.104C186.282 116.349 185.152 116.664 184.056 117.049Z" fill="white"/>
<path d="M191.046 116.595C191.013 117.374 191.045 118.152 191.175 118.926C191.568 121.269 193.084 123.587 195.381 124.201C197.994 124.901 200.764 123.159 202.136 120.827C202.617 120.011 202.965 119.138 203.225 118.234C203.71 116.555 203.896 114.764 204.069 113.015C200.004 112.824 195.688 113.048 191.793 111.866C191.455 113.423 191.115 115.011 191.046 116.595Z" fill="#F6E2D7"/>
<g opacity="0.5">
<path d="M191.047 116.596C192.288 117.653 193.919 118.504 195.844 118.918C198.467 119.484 201.109 119.121 203.226 118.235C203.711 116.556 203.897 114.765 204.069 113.016C200.004 112.825 195.689 113.048 191.793 111.866C191.455 113.423 191.115 115.012 191.047 116.596Z" fill="#E2B8A3"/>
</g>
<path d="M196.581 125.027C196.127 125.027 195.668 124.97 195.209 124.847C192.844 124.215 191.002 121.934 190.516 119.037C190.386 118.26 190.341 117.453 190.379 116.567C190.452 114.89 190.818 113.208 191.141 111.724C191.18 111.542 191.294 111.385 191.455 111.29C191.616 111.196 191.809 111.173 191.987 111.227C194.904 112.112 198.136 112.187 201.262 112.26C202.196 112.282 203.162 112.304 204.1 112.348C204.283 112.357 204.454 112.44 204.574 112.579C204.694 112.717 204.752 112.899 204.734 113.081C204.57 114.745 204.384 116.631 203.867 118.421C203.57 119.454 203.192 120.352 202.712 121.167C201.493 123.238 199.121 125.027 196.581 125.027ZM192.296 112.702C192.03 113.952 191.771 115.31 191.714 116.625C191.68 117.416 191.719 118.132 191.834 118.816C192.162 120.767 193.439 122.99 195.554 123.556C197.937 124.194 200.379 122.496 201.56 120.489C201.983 119.772 202.317 118.974 202.583 118.05C202.997 116.618 203.188 115.076 203.334 113.654C202.634 113.628 201.923 113.612 201.231 113.596C198.256 113.527 195.187 113.455 192.296 112.702Z" fill="#1F404D"/>
<path d="M167.714 65.3314C166.654 63.1601 164.653 61.4689 162.336 60.7849C160.018 60.1008 157.42 60.4347 155.35 61.6822C152.241 63.5569 150.586 67.2248 150.169 70.8317C149.666 75.1889 150.749 79.7121 153.172 83.3679C155.596 87.024 159.339 89.7839 163.548 91.0175C166.637 90.8509 169.135 88.8336 170.474 86.0452C171.812 83.2568 171.97 80.0381 171.657 76.9609C171.257 73.0165 169.453 68.8939 167.714 65.3314Z" fill="#F6E2D7"/>
<path d="M163.549 91.6857C163.485 91.6857 163.422 91.6768 163.361 91.6587C159.027 90.3886 155.111 87.5013 152.616 83.7371C150.121 79.9729 148.987 75.241 149.505 70.755C150.005 66.4318 152.01 62.9164 155.006 61.1101C157.227 59.7711 160.038 59.4101 162.525 60.144C165.012 60.8781 167.177 62.7077 168.315 65.0381C170.066 68.6245 171.911 72.8376 172.322 76.8935C172.708 80.6957 172.301 83.7838 171.076 86.3343C169.551 89.5137 166.75 91.5139 163.585 91.6846C163.573 91.6855 163.561 91.6857 163.549 91.6857ZM159.895 61.1054C158.425 61.1054 156.951 61.4981 155.696 62.2547C153.096 63.8222 151.278 67.0572 150.833 70.9086C150.35 75.0864 151.406 79.4933 153.729 82.9989C156.032 86.4723 159.634 89.144 163.625 90.3433C166.25 90.1577 168.579 88.4504 169.872 85.7562C170.986 83.4338 171.353 80.5789 170.993 77.0285C170.602 73.1814 168.813 69.1048 167.113 65.6246C166.137 63.6252 164.28 62.0557 162.147 61.4258C161.418 61.211 160.657 61.1054 159.895 61.1054Z" fill="#1F404D"/>
<path d="M172.781 84.2974C173.032 84.265 173.279 84.1732 173.503 84.0189C174.246 83.5035 174.431 82.4829 173.916 81.7393C170.07 76.1926 164.396 72.0598 157.937 70.1021C157.072 69.8398 156.157 70.3287 155.895 71.1946C155.632 72.0603 156.121 72.975 156.987 73.2375C162.741 74.9817 167.797 78.664 171.223 83.6057C171.584 84.1267 172.193 84.3735 172.781 84.2974Z" fill="#1F404D"/>
<path d="M196.154 90.8811C196.095 91.5184 197.818 92.1994 200.003 92.402C202.189 92.6046 204.008 92.2521 204.067 91.6148C204.126 90.9775 202.403 90.2965 200.218 90.0939C198.032 89.8912 196.213 90.2436 196.154 90.8811Z" fill="#F9CCC5"/>
<path d="M182.655 102.23C185.759 99.1263 185.759 94.0944 182.655 90.9908C179.552 87.8872 174.52 87.8872 171.416 90.9908C168.313 94.0944 168.313 99.1263 171.416 102.23C174.52 105.333 179.552 105.333 182.655 102.23Z" fill="#F9CCC5"/>
<path d="M192.612 84.7457C192.913 81.4953 191.349 78.6926 189.118 78.4859C186.888 78.2791 184.835 80.7465 184.534 83.9969C184.233 87.2473 185.797 90.05 188.027 90.2567C190.258 90.4635 192.311 87.9961 192.612 84.7457Z" fill="#1F404D"/>
<path d="M188.172 82.4712C188.234 81.5239 187.872 80.6846 187.284 80.6299C186.734 80.5789 186.133 81.3322 186.071 82.2765C186.009 83.2237 186.371 84.0631 186.96 84.1178C187.51 84.1688 188.111 83.4153 188.172 82.4712Z" fill="white"/>
<path d="M187.669 101.578C189.96 105.372 193.902 108.117 198.639 108.716C203.747 109.362 208.579 107.361 211.758 103.782C208.132 101.834 204.238 100.434 200.165 99.9268C195.959 99.4029 191.549 99.9225 187.669 101.578Z" fill="#EA978F"/>
<path d="M181.652 141.045C181.29 142.932 181.073 143.435 180.341 145.708C189.743 149.538 203.671 148.667 213.421 147.1C213.417 147.076 213.414 147.053 213.412 147.029C213.094 144.674 213.101 143.923 212.857 142.22C212.853 142.205 212.852 142.191 212.85 142.175C212.803 141.851 212.747 141.493 212.678 141.082H212.69L212.705 141.083C214.957 139.691 217.098 138.259 218.996 136.696C221.217 134.873 223.108 132.871 224.463 130.556C224.36 130.371 224.254 130.19 224.146 130.009C224.062 129.868 223.975 129.727 223.886 129.588C223.702 129.293 223.508 129.004 223.31 128.719C223.225 128.597 223.139 128.475 223.05 128.357C223.042 128.343 223.031 128.329 223.021 128.315C222.946 128.211 222.869 128.108 222.789 128.005C222.735 127.93 222.68 127.857 222.62 127.784C222.579 127.73 222.537 127.674 222.491 127.62C222.437 127.549 222.38 127.477 222.323 127.408C222.243 127.307 222.161 127.208 222.077 127.108C222.051 127.077 222.025 127.046 221.997 127.014C221.917 126.919 221.835 126.823 221.75 126.727C221.712 126.68 221.67 126.635 221.628 126.588C221.539 126.487 221.449 126.386 221.358 126.287C221.255 126.175 221.151 126.064 221.047 125.952C220.919 125.818 220.792 125.688 220.662 125.557C220.568 125.461 220.474 125.369 220.378 125.275C220.035 124.939 219.682 124.612 219.319 124.295C219.199 124.189 219.079 124.084 218.956 123.981C218.813 123.86 218.667 123.738 218.52 123.619C218.505 123.605 218.489 123.591 218.471 123.579C218.332 123.466 218.189 123.353 218.047 123.242C217.897 123.125 217.747 123.01 217.594 122.895C217.58 122.885 217.568 122.874 217.554 122.866C217.43 122.773 217.305 122.681 217.18 122.59C217.129 122.552 217.081 122.517 217.03 122.482C216.894 122.385 216.758 122.289 216.621 122.195C216.499 122.11 216.375 122.026 216.252 121.944C216.181 121.894 216.109 121.847 216.036 121.8C215.902 121.711 215.766 121.624 215.63 121.537C215.463 121.431 215.294 121.325 215.124 121.222C214.784 121.013 214.439 120.811 214.089 120.613C213.717 120.402 213.339 120.198 212.956 120.002C212.801 119.921 212.646 119.841 212.491 119.765C212.31 119.674 212.129 119.585 211.946 119.498C211.767 119.411 211.586 119.326 211.405 119.242C211.398 119.239 211.391 119.235 211.384 119.234C211.203 119.15 211.022 119.07 210.84 118.99C210.68 118.918 210.52 118.849 210.358 118.781C210.332 118.769 210.306 118.758 210.28 118.748C210.189 118.709 210.099 118.671 210.008 118.635C209.888 118.584 209.768 118.535 209.646 118.487C209.456 118.41 209.265 118.335 209.072 118.262C208.936 118.21 208.8 118.159 208.664 118.109C208.529 118.058 208.393 118.008 208.255 117.959C208.119 117.91 207.982 117.862 207.844 117.815C207.707 117.766 207.569 117.719 207.432 117.674C207.294 117.628 207.156 117.583 207.017 117.538C206.893 117.498 206.772 117.46 206.648 117.42C206.615 117.409 206.584 117.399 206.551 117.39C206.441 117.355 206.331 117.322 206.22 117.289C205.953 117.209 205.687 117.131 205.419 117.056C205.285 117.017 205.149 116.981 205.015 116.944C204.74 116.868 204.465 116.796 204.19 116.728C204.059 116.697 203.93 116.666 203.8 116.634C203.53 116.568 203.258 116.507 202.986 116.448C202.851 116.418 202.713 116.389 202.577 116.361C202.442 116.331 202.306 116.305 202.168 116.277C202.032 116.249 201.896 116.223 201.759 116.197C201.621 116.171 201.485 116.145 201.35 116.122C201.214 116.098 201.076 116.074 200.94 116.051C200.803 116.028 200.667 116.006 200.529 115.983C199.638 115.84 198.747 115.726 197.857 115.64C197.692 115.625 197.528 115.609 197.363 115.597C197.326 115.591 197.288 115.588 197.249 115.586C197.091 115.572 196.932 115.56 196.774 115.55C196.647 115.541 196.518 115.532 196.391 115.525C196.299 115.518 196.206 115.513 196.114 115.508C195.759 115.489 195.404 115.473 195.05 115.463C194.918 115.459 194.786 115.456 194.655 115.452C194.436 115.449 194.218 115.445 194 115.445H193.87C193.523 115.445 193.18 115.451 192.839 115.461C192.813 115.463 192.785 115.463 192.759 115.464C192.588 115.47 192.419 115.477 192.249 115.485C192.04 115.496 191.833 115.508 191.627 115.522C191.497 115.531 191.365 115.541 191.234 115.551C190.668 115.597 190.107 115.658 189.554 115.734C189.402 115.755 189.251 115.776 189.1 115.8C188.99 115.816 188.88 115.833 188.77 115.852C188.715 115.861 188.659 115.87 188.603 115.88C188.478 115.901 188.353 115.924 188.227 115.948C188.137 115.962 188.046 115.98 187.955 115.999C187.881 116.013 187.806 116.027 187.731 116.042C187.633 116.063 187.537 116.082 187.442 116.103C187.153 116.164 186.866 116.23 186.58 116.298C186.578 116.3 186.578 116.3 186.576 116.3C186.291 116.371 186.005 116.444 185.723 116.524C185.608 116.556 185.494 116.589 185.38 116.622C185.332 116.634 185.285 116.648 185.239 116.664C185.119 116.699 185.001 116.735 184.883 116.774C184.743 116.817 184.604 116.862 184.466 116.908C184.329 116.953 184.191 117 184.054 117.049C183.942 117.085 183.833 117.124 183.723 117.165C183.613 117.205 183.504 117.247 183.396 117.287C183.286 117.329 183.178 117.371 183.07 117.412C182.311 117.71 181.568 118.041 180.842 118.405C180.634 118.508 180.429 118.614 180.225 118.723C180.13 118.774 180.036 118.826 179.942 118.877C179.923 118.885 179.903 118.896 179.884 118.908C179.698 119.012 179.512 119.117 179.327 119.225C179.32 119.226 179.313 119.23 179.306 119.235C179.221 119.288 179.134 119.338 179.049 119.388C179.024 119.402 179 119.416 178.975 119.434C178.888 119.486 178.803 119.538 178.716 119.592C178.518 119.712 178.322 119.838 178.128 119.966C177.934 120.092 177.741 120.222 177.549 120.355C177.452 120.419 177.356 120.487 177.26 120.557C177.165 120.624 177.069 120.692 176.975 120.762C176.665 120.987 176.358 121.218 176.057 121.458C175.989 121.512 175.923 121.566 175.855 121.62C175.606 121.82 175.361 122.026 175.117 122.237C175.035 122.306 174.954 122.378 174.873 122.451C174.84 122.478 174.806 122.508 174.773 122.54C174.715 122.59 174.658 122.64 174.602 122.693C173.998 123.236 173.411 123.812 172.844 124.416C172.743 124.523 172.642 124.631 172.544 124.738C172.3 125.003 172.06 125.275 171.823 125.55C171.712 125.679 171.604 125.809 171.494 125.94C171.493 125.942 171.493 125.942 171.491 125.943C171.38 126.079 171.268 126.215 171.157 126.353C171.051 126.485 170.944 126.617 170.842 126.751C170.725 126.899 170.61 127.049 170.495 127.201C170.391 127.338 170.288 127.478 170.185 127.619C169.992 127.88 169.802 128.146 169.616 128.416C169.563 128.492 169.51 128.569 169.457 128.646C169.381 128.759 169.304 128.872 169.228 128.987C169.125 129.14 169.024 129.293 168.925 129.45C168.723 129.762 168.524 130.079 168.329 130.401C168.232 130.561 168.134 130.723 168.038 130.887C167.951 131.035 167.866 131.183 167.781 131.332C167.769 131.351 167.756 131.372 167.746 131.393C167.675 131.518 167.603 131.644 167.534 131.771C167.485 131.858 167.436 131.945 167.389 132.034C167.323 132.151 167.26 132.271 167.196 132.389C171.728 136.543 177.2 139.195 181.733 139.76L181.881 139.767C181.797 140.26 181.722 140.68 181.652 141.045Z" fill="#FBB03B"/>
<path d="M212.705 141.693C212.501 141.693 212.302 141.591 212.187 141.404C212.01 141.118 212.098 140.743 212.384 140.566C215.04 138.923 216.959 137.584 218.608 136.226C220.863 134.375 222.551 132.515 223.756 130.549C223.712 130.473 223.667 130.397 223.622 130.321C223.541 130.184 223.457 130.049 223.372 129.915C223.202 129.645 223.019 129.369 222.809 129.067C222.729 128.952 222.648 128.836 222.563 128.723C222.553 128.709 222.543 128.695 222.534 128.681C222.455 128.572 222.383 128.476 222.308 128.38C222.304 128.374 222.299 128.368 222.295 128.362C222.247 128.296 222.199 128.232 222.147 128.168L222.107 128.116C222.08 128.081 222.053 128.046 222.025 128.012C222.018 128.004 222.012 127.996 222.005 127.988C221.956 127.923 221.905 127.859 221.853 127.796C221.769 127.69 221.691 127.596 221.611 127.501C221.587 127.472 221.565 127.446 221.541 127.419C221.453 127.314 221.375 127.223 221.294 127.132C221.288 127.125 221.282 127.118 221.277 127.111C221.253 127.083 221.228 127.055 221.203 127.027L221.172 126.993C221.084 126.892 220.996 126.794 220.908 126.697C220.821 126.603 220.73 126.507 220.64 126.41L220.601 126.369C220.482 126.245 220.358 126.116 220.231 125.988C220.135 125.889 220.045 125.801 219.955 125.714C219.617 125.383 219.269 125.061 218.918 124.754C218.799 124.649 218.681 124.547 218.563 124.448C218.419 124.323 218.278 124.207 218.137 124.093C218.13 124.087 218.122 124.081 218.115 124.075C218.111 124.071 218.116 124.074 218.123 124.079C218.109 124.07 218.096 124.06 218.084 124.049C217.95 123.939 217.812 123.83 217.675 123.725C217.524 123.605 217.38 123.494 217.232 123.385C217.228 123.383 217.215 123.373 217.209 123.368C217.201 123.362 217.193 123.356 217.185 123.35C217.067 123.261 216.947 123.172 216.827 123.087C216.822 123.084 216.816 123.08 216.811 123.076C216.768 123.043 216.727 123.014 216.684 122.984C216.541 122.88 216.412 122.789 216.281 122.701C216.155 122.613 216.038 122.532 215.92 122.456C215.913 122.451 215.906 122.446 215.9 122.442C215.836 122.396 215.772 122.354 215.706 122.312C215.57 122.222 215.438 122.136 215.306 122.053C215.138 121.944 214.975 121.843 214.809 121.744C214.488 121.545 214.158 121.35 213.791 121.144C213.425 120.937 213.051 120.735 212.677 120.543C212.522 120.46 212.373 120.385 212.224 120.312C212.04 120.218 211.864 120.132 211.689 120.05C211.505 119.959 211.332 119.88 211.159 119.8C211.148 119.795 211.137 119.791 211.126 119.786C210.952 119.705 210.777 119.626 210.6 119.55C210.437 119.477 210.28 119.409 210.123 119.343C210.115 119.339 210.107 119.336 210.1 119.333C210.085 119.325 210.069 119.32 210.054 119.314C210.05 119.312 210.035 119.306 210.031 119.304C209.947 119.269 209.864 119.233 209.78 119.199C209.656 119.147 209.539 119.1 209.42 119.052C209.232 118.977 209.045 118.903 208.856 118.832C208.722 118.78 208.592 118.73 208.461 118.683C208.315 118.627 208.184 118.58 208.052 118.533C207.912 118.482 207.78 118.436 207.647 118.391C207.508 118.342 207.374 118.296 207.241 118.252C207.102 118.204 206.967 118.161 206.833 118.118C206.703 118.075 206.587 118.038 206.468 118.001L206.443 117.993C206.427 117.988 206.412 117.983 206.395 117.978C206.385 117.976 206.376 117.973 206.366 117.97C206.263 117.937 206.16 117.904 206.055 117.875C205.756 117.783 205.5 117.709 205.259 117.643C205.118 117.601 204.989 117.566 204.862 117.533C204.599 117.46 204.335 117.391 204.044 117.319L203.937 117.293C203.847 117.271 203.756 117.248 203.665 117.228C203.39 117.161 203.123 117.101 202.857 117.043C202.719 117.011 202.589 116.984 202.457 116.957C202.317 116.927 202.184 116.9 202.053 116.875L202.011 116.866C201.89 116.842 201.771 116.818 201.651 116.796L201.608 116.788C201.488 116.765 201.369 116.743 201.25 116.723C201.115 116.697 200.992 116.677 200.871 116.656L200.841 116.651C200.702 116.627 200.569 116.605 200.438 116.585C199.552 116.443 198.665 116.329 197.8 116.246L197.768 116.243C197.618 116.229 197.469 116.215 197.319 116.204C197.305 116.203 197.292 116.201 197.278 116.2C197.26 116.197 197.241 116.195 197.223 116.194C197.214 116.194 197.206 116.194 197.197 116.193C197.043 116.179 196.889 116.167 196.735 116.157C196.609 116.149 196.483 116.14 196.358 116.133C196.261 116.126 196.177 116.122 196.092 116.117C195.703 116.096 195.36 116.081 195.033 116.071L194.64 116.061C194.43 116.058 194.216 116.054 194.001 116.054H193.871C193.534 116.054 193.197 116.059 192.867 116.069C192.852 116.07 192.836 116.071 192.821 116.071L192.802 116.072C192.796 116.072 192.784 116.073 192.778 116.073C192.612 116.078 192.447 116.085 192.28 116.093C192.075 116.104 191.871 116.116 191.67 116.13C191.54 116.138 191.411 116.148 191.283 116.159C190.73 116.203 190.176 116.263 189.638 116.337C189.491 116.358 189.344 116.378 189.197 116.402C189.083 116.418 188.979 116.435 188.876 116.453C188.816 116.462 188.766 116.47 188.717 116.479C188.584 116.501 188.464 116.523 188.344 116.546C188.336 116.548 188.328 116.549 188.32 116.55C188.241 116.562 188.162 116.578 188.083 116.595C187.997 116.611 187.927 116.624 187.856 116.639C187.759 116.658 187.671 116.675 187.583 116.696C187.318 116.751 187.05 116.811 186.748 116.884C186.739 116.887 186.73 116.889 186.721 116.892L186.721 116.892C186.448 116.958 186.169 117.031 185.891 117.11C185.771 117.143 185.665 117.172 185.561 117.204C185.55 117.207 185.54 117.21 185.529 117.213C185.498 117.221 185.468 117.229 185.44 117.239C185.43 117.243 185.42 117.246 185.41 117.248C185.297 117.282 185.184 117.316 185.072 117.353C184.927 117.396 184.795 117.439 184.665 117.484C184.52 117.529 184.393 117.573 184.267 117.619C184.26 117.622 184.253 117.624 184.245 117.627C184.143 117.661 184.042 117.696 183.941 117.734C183.825 117.775 183.724 117.812 183.625 117.852C183.619 117.854 183.612 117.857 183.606 117.859C183.505 117.896 183.406 117.932 183.307 117.974C182.553 118.268 181.821 118.594 181.117 118.949C180.912 119.05 180.713 119.153 180.515 119.26C180.414 119.311 180.326 119.36 180.239 119.409C180.225 119.417 180.211 119.424 180.196 119.43C180.185 119.437 180.189 119.436 180.177 119.442C179.996 119.541 179.818 119.642 179.639 119.748C179.626 119.756 179.612 119.764 179.598 119.771L179.547 119.801C179.487 119.836 179.427 119.871 179.368 119.908C179.363 119.911 179.357 119.914 179.352 119.917L179.328 119.931C179.312 119.943 179.299 119.951 179.282 119.961C179.204 120.006 179.126 120.052 179.05 120.102C179.044 120.106 179.038 120.11 179.032 120.113C178.863 120.216 178.682 120.331 178.464 120.475C178.272 120.598 178.089 120.721 177.9 120.854C177.797 120.922 177.708 120.985 177.62 121.049C177.517 121.12 177.427 121.186 177.339 121.251C177.019 121.483 176.717 121.712 176.438 121.935L176.383 121.978C176.338 122.014 176.293 122.049 176.249 122.086C176.003 122.284 175.76 122.487 175.516 122.698C175.436 122.766 175.36 122.833 175.285 122.901C175.279 122.906 175.273 122.911 175.267 122.917C175.243 122.937 175.217 122.959 175.193 122.982C175.184 122.99 175.176 122.997 175.167 123.004C175.117 123.047 175.069 123.09 175.02 123.137C174.428 123.669 173.849 124.237 173.288 124.834C173.189 124.939 173.091 125.043 172.997 125.147C172.768 125.396 172.537 125.656 172.286 125.947C172.204 126.042 172.125 126.136 172.046 126.231L171.962 126.332C171.958 126.336 171.954 126.341 171.95 126.345C171.844 126.475 171.737 126.605 171.63 126.736C171.529 126.863 171.426 126.991 171.326 127.122C171.206 127.274 171.093 127.42 170.981 127.569C170.879 127.703 170.778 127.839 170.678 127.977C170.492 128.229 170.304 128.491 170.118 128.762L169.96 128.99C169.887 129.099 169.811 129.211 169.734 129.325C169.634 129.475 169.536 129.624 169.44 129.776C169.241 130.083 169.044 130.397 168.851 130.716C168.754 130.874 168.659 131.033 168.564 131.194C168.478 131.341 168.394 131.486 168.311 131.633C168.306 131.642 168.301 131.65 168.295 131.659C168.291 131.668 168.281 131.685 168.276 131.694L168.263 131.717C168.198 131.832 168.132 131.947 168.068 132.063C168.03 132.132 167.995 132.195 167.961 132.258C172.2 136.03 177.346 138.598 181.809 139.156C182.143 139.197 182.38 139.502 182.339 139.836C182.297 140.17 181.994 140.407 181.659 140.365C176.829 139.762 171.269 136.948 166.784 132.838C166.578 132.649 166.527 132.343 166.661 132.097L166.727 131.976C166.77 131.895 166.814 131.813 166.86 131.733C166.9 131.657 166.95 131.568 167 131.478C167.067 131.356 167.135 131.235 167.204 131.115L167.211 131.102C167.226 131.074 167.242 131.046 167.258 131.019C167.343 130.871 167.428 130.724 167.514 130.577C167.611 130.412 167.71 130.247 167.809 130.084C168.008 129.756 168.212 129.431 168.414 129.119C168.513 128.963 168.616 128.805 168.722 128.648C168.799 128.533 168.876 128.419 168.953 128.304L169.113 128.072C169.309 127.788 169.505 127.515 169.696 127.256C169.798 127.115 169.903 126.973 170.01 126.832C170.127 126.678 170.245 126.525 170.364 126.374C170.464 126.243 170.573 126.107 170.682 125.971C170.796 125.83 170.908 125.694 171.02 125.557C171.027 125.549 171.033 125.542 171.04 125.535L171.112 125.449C171.195 125.349 171.278 125.25 171.363 125.151C171.622 124.851 171.862 124.58 172.097 124.326C172.194 124.218 172.298 124.107 172.403 123.997C172.984 123.378 173.588 122.786 174.196 122.24C174.248 122.191 174.307 122.137 174.367 122.085C174.402 122.053 174.438 122.022 174.473 121.992C174.555 121.917 174.639 121.844 174.723 121.773C174.974 121.556 175.228 121.343 175.474 121.146C175.518 121.109 175.573 121.065 175.629 121.021L175.679 120.981C175.972 120.748 176.288 120.508 176.618 120.269C176.712 120.199 176.814 120.125 176.915 120.055C177.006 119.989 177.109 119.916 177.214 119.846C177.404 119.713 177.599 119.582 177.799 119.454C178.021 119.307 178.212 119.186 178.392 119.076C178.477 119.021 178.564 118.969 178.65 118.918C178.68 118.899 178.709 118.881 178.739 118.864C178.802 118.826 178.865 118.788 178.929 118.751L178.983 118.719C179.005 118.705 179.027 118.692 179.05 118.681C179.225 118.578 179.401 118.479 179.579 118.381C179.607 118.364 179.635 118.349 179.663 118.335C179.758 118.282 179.853 118.23 179.95 118.181C180.148 118.074 180.359 117.965 180.572 117.859C181.306 117.489 182.074 117.147 182.85 116.845C182.95 116.803 183.063 116.76 183.179 116.718C183.292 116.673 183.408 116.63 183.523 116.59C183.622 116.552 183.737 116.512 183.854 116.473C183.996 116.421 184.14 116.372 184.286 116.326C184.415 116.281 184.562 116.234 184.709 116.19C184.816 116.155 184.935 116.118 185.057 116.083C185.108 116.065 185.162 116.049 185.217 116.035C185.329 116.001 185.443 115.97 185.556 115.939C185.842 115.858 186.127 115.782 186.406 115.714C186.416 115.711 186.426 115.709 186.436 115.706C186.762 115.627 187.052 115.561 187.32 115.506C187.405 115.486 187.509 115.465 187.614 115.444C187.686 115.429 187.765 115.414 187.845 115.4C187.928 115.382 188.025 115.363 188.123 115.348C188.25 115.323 188.377 115.301 188.504 115.279C188.553 115.27 188.615 115.26 188.677 115.251C188.782 115.232 188.898 115.214 189.014 115.197C189.159 115.174 189.315 115.152 189.471 115.131C190.032 115.053 190.609 114.99 191.186 114.944C191.319 114.933 191.454 114.923 191.588 114.914C191.796 114.9 192.006 114.887 192.219 114.877C192.391 114.868 192.56 114.861 192.732 114.856C192.748 114.855 192.764 114.854 192.781 114.854L192.8 114.853C192.806 114.853 192.815 114.852 192.821 114.852C193.166 114.841 193.519 114.836 193.871 114.836H194.001C194.222 114.836 194.443 114.839 194.666 114.843L195.067 114.853C195.406 114.863 195.758 114.879 196.147 114.899C196.253 114.905 196.345 114.911 196.438 114.918C196.555 114.924 196.687 114.933 196.816 114.942C196.974 114.952 197.133 114.964 197.292 114.978C197.337 114.98 197.382 114.985 197.427 114.99C197.579 115.001 197.73 115.016 197.882 115.03L197.915 115.033C198.807 115.119 199.719 115.236 200.626 115.381C200.763 115.402 200.905 115.426 201.047 115.451L201.071 115.455C201.202 115.477 201.335 115.499 201.465 115.524C201.578 115.543 201.706 115.567 201.835 115.591L201.873 115.599C201.995 115.621 202.123 115.646 202.252 115.673L202.289 115.68C202.424 115.706 202.567 115.735 202.707 115.766C202.841 115.793 202.982 115.822 203.124 115.854C203.393 115.913 203.669 115.975 203.944 116.042C204.033 116.062 204.13 116.086 204.228 116.11L204.333 116.136C204.638 116.212 204.914 116.284 205.178 116.357C205.309 116.391 205.452 116.43 205.593 116.472C205.833 116.537 206.101 116.615 206.398 116.706C206.499 116.735 206.61 116.77 206.722 116.805C206.753 116.814 206.783 116.823 206.813 116.833L206.831 116.838C206.956 116.877 207.083 116.917 207.212 116.961C207.342 117.002 207.486 117.049 207.628 117.097C207.763 117.142 207.905 117.19 208.047 117.24C208.183 117.287 208.323 117.335 208.464 117.387C208.6 117.435 208.741 117.486 208.882 117.54C209.01 117.585 209.152 117.64 209.292 117.694C209.484 117.767 209.68 117.843 209.874 117.922C209.997 117.971 210.12 118.021 210.243 118.073C210.326 118.106 210.415 118.144 210.505 118.182C210.538 118.195 210.57 118.208 210.603 118.223C210.766 118.292 210.926 118.362 211.087 118.433C211.26 118.507 211.439 118.588 211.616 118.67C211.637 118.679 211.655 118.687 211.666 118.693C211.855 118.78 212.036 118.864 212.215 118.952C212.392 119.035 212.582 119.127 212.769 119.223C212.921 119.297 213.082 119.379 213.242 119.464C213.621 119.659 214.01 119.868 214.388 120.082C214.769 120.296 215.115 120.5 215.444 120.704C215.612 120.806 215.787 120.914 215.959 121.025C216.093 121.109 216.233 121.201 216.371 121.292C216.442 121.338 216.517 121.387 216.592 121.44C216.719 121.522 216.845 121.609 216.969 121.696C217.104 121.786 217.246 121.887 217.388 121.991C217.431 122.02 217.484 122.057 217.539 122.099C217.663 122.187 217.786 122.278 217.909 122.37C217.924 122.381 217.939 122.393 217.954 122.405C218.113 122.522 218.268 122.641 218.424 122.763C218.561 122.869 218.705 122.983 218.845 123.099C218.869 123.116 218.891 123.135 218.913 123.154C219.061 123.274 219.209 123.396 219.353 123.521C219.472 123.621 219.598 123.729 219.722 123.838C220.088 124.159 220.453 124.496 220.803 124.84C220.901 124.934 221.002 125.033 221.1 125.135C221.225 125.259 221.355 125.395 221.485 125.53L221.529 125.577C221.621 125.676 221.714 125.775 221.805 125.874C221.9 125.978 221.993 126.082 222.085 126.186L222.109 126.213C222.145 126.252 222.179 126.292 222.212 126.331C222.299 126.429 222.382 126.526 222.464 126.624C222.484 126.646 222.514 126.682 222.544 126.718C222.63 126.82 222.715 126.923 222.799 127.029C222.852 127.093 222.911 127.167 222.968 127.241C223.004 127.285 223.038 127.329 223.072 127.373L223.101 127.411C223.157 127.48 223.217 127.559 223.276 127.64C223.358 127.746 223.438 127.852 223.515 127.96C223.524 127.972 223.536 127.988 223.548 128.006C223.637 128.125 223.722 128.247 223.808 128.37C224.03 128.689 224.223 128.981 224.401 129.264C224.491 129.405 224.582 129.552 224.669 129.699C224.779 129.883 224.888 130.069 224.994 130.259C225.098 130.448 225.096 130.677 224.987 130.863C223.697 133.068 221.864 135.13 219.381 137.167C217.69 138.561 215.729 139.929 213.025 141.602C212.926 141.664 212.815 141.693 212.705 141.693ZM217.223 123.377C217.225 123.378 217.227 123.38 217.228 123.381C217.226 123.38 217.225 123.378 217.223 123.377ZM211.134 119.789C211.135 119.789 211.135 119.789 211.135 119.789C211.135 119.789 211.135 119.789 211.134 119.789Z" fill="#1F404D"/>
<path d="M159.576 91.0191C160.682 100.671 167.313 107.588 175.926 111.499C180.556 113.598 185.516 114.862 190.485 115.944C203.948 118.87 225.22 121.788 233.627 107.489C237.378 101.112 238.656 93.634 238.389 86.2766C238.356 85.3138 238.295 84.3528 238.21 83.3951C238.125 82.448 238.017 81.5077 237.886 80.5729C236.249 68.8507 231.529 56.6808 222.774 48.7277C219.551 45.8012 215.782 43.4473 211.419 41.8925C209.558 41.2327 207.637 40.7469 205.689 40.437C200.068 39.5403 194.211 40.0974 188.852 42.0195C188.834 42.0247 188.817 42.0316 188.8 42.0368C187.14 42.6357 185.53 43.3635 183.989 44.2235C183.977 44.2287 183.965 44.2356 183.953 44.2443C183.385 44.5577 182.829 44.8921 182.281 45.2438C176.901 48.6996 172.666 53.4945 169.29 58.8813C167.965 60.995 166.729 63.1677 165.599 65.3944C164.549 67.4627 163.56 69.6164 162.695 71.8292C162.188 73.1244 161.722 74.4407 161.311 75.7726C159.777 80.728 158.99 85.8971 159.576 91.0191Z" fill="#F6E2D7"/>
<path d="M161.31 75.7728C168.325 74.1067 174.796 69.1744 177.907 62.7186C178.919 65.6506 181.91 67.7816 185.012 67.7781C188.115 67.7764 190.949 64.9263 191.956 61.9908C192.877 65.2779 195.688 67.9626 199.015 68.7304C202.341 69.4982 205.936 67.8077 208.205 65.2553C208.903 67.0103 210.151 68.5736 211.807 69.4809C213.462 70.3879 215.531 70.5864 217.267 69.8413C219.001 69.0979 220.502 67.3377 220.583 65.4521C223.336 74.434 230 82.091 238.389 86.2766C238.356 85.3138 238.295 84.3528 238.21 83.395C238.124 82.4479 238.016 81.5077 237.886 80.5729C236.249 68.8506 231.529 56.6808 222.774 48.7277C219.551 45.8012 215.782 43.4473 211.419 41.8925C209.558 41.2327 207.637 40.7469 205.689 40.437C200.067 39.5403 194.21 40.0974 188.851 42.0195C188.834 42.0247 188.817 42.0316 188.799 42.0368C187.14 42.6357 185.53 43.3635 183.989 44.2235C183.977 44.2287 183.964 44.2356 183.952 44.2443C183.385 44.5577 182.829 44.8921 182.281 45.2438C176.901 48.6996 172.665 53.4945 169.289 58.8813C167.964 60.995 166.728 63.1677 165.598 65.3944C164.548 67.4627 163.56 69.6164 162.694 71.8292C162.188 73.1246 161.721 74.4409 161.31 75.7728Z" fill="#EFCAB9"/>
<path d="M209.618 119.022C202.454 119.022 195.369 117.689 190.341 116.596C185.556 115.555 180.464 114.291 175.649 112.106C165.901 107.681 159.957 100.218 158.912 91.0938C158.238 85.2213 159.3 78.6579 162.071 71.5851C162.882 69.5101 163.868 67.3253 165.001 65.0913C166.112 62.9014 167.364 60.6924 168.721 58.5253C172.459 52.5627 176.899 47.9052 181.918 44.6817C182.485 44.3182 183.054 43.9777 183.609 43.6692C183.631 43.6554 183.654 43.6428 183.677 43.6312C185.225 42.7685 186.872 42.0206 188.572 41.4084C188.589 41.4019 188.612 41.3933 188.637 41.3853C194.127 39.4183 200.06 38.8626 205.794 39.7769C207.79 40.0932 209.758 40.5933 211.642 41.263C215.904 42.7808 219.799 45.1255 223.221 48.2321C231.215 55.4939 236.657 66.9464 238.546 80.4796C238.676 81.4079 238.786 82.3684 238.873 83.334C239.713 92.7327 238.098 101.202 234.202 107.828C230.389 114.312 223.595 118.017 214.007 118.841C212.553 118.966 211.083 119.022 209.618 119.022ZM184.3 44.8135C184.292 44.8183 184.284 44.8232 184.276 44.8276C183.739 45.1251 183.189 45.4543 182.64 45.8062C177.788 48.9223 173.486 53.4403 169.854 59.2346C168.517 61.3675 167.286 63.5413 166.194 65.6956C165.08 67.8914 164.111 70.0364 163.315 72.0719C160.625 78.9397 159.59 85.2881 160.24 90.9413C161.229 99.5812 166.898 106.665 176.201 110.889C180.903 113.022 185.912 114.265 190.625 115.29C196.597 116.588 205.506 118.23 213.893 117.509C223.025 116.724 229.47 113.239 233.05 107.15C236.804 100.766 238.358 92.5718 237.542 83.4529C237.457 82.5097 237.35 81.5714 237.222 80.6643C235.377 67.4398 230.086 56.273 222.323 49.2211C219.033 46.234 215.289 43.9799 211.194 42.5218C209.388 41.8796 207.5 41.4002 205.584 41.0966C200.066 40.2163 194.358 40.7525 189.076 42.6475C189.065 42.6515 189.053 42.6553 189.041 42.6588C187.388 43.2551 185.802 43.9755 184.313 44.8066C184.308 44.809 184.304 44.8114 184.3 44.8135ZM184.265 44.831C184.264 44.831 184.264 44.8312 184.264 44.8315C184.264 44.8313 184.264 44.831 184.265 44.831Z" fill="#1F404D"/>
<path d="M185.588 92.2446C185.234 95.6223 186.029 98.8671 187.669 101.578C189.96 105.371 193.902 108.117 198.639 108.716C203.747 109.362 208.579 107.361 211.758 103.781C213.637 101.669 214.937 99.0048 215.38 96.0124L185.588 92.2446Z" fill="#96312C"/>
<path d="M187.064 92.4312C188.472 94.1308 190.291 95.5307 192.268 96.5225C196.033 98.4111 200.325 98.9921 204.538 99.0804C206.847 99.1297 209.224 99.0268 211.338 98.0942C212.456 97.6001 213.489 96.8282 214.243 95.8682L187.064 92.4312Z" fill="white"/>
<path d="M200.568 109.276C199.909 109.276 199.248 109.234 198.585 109.15C194.51 108.635 190.862 106.577 188.315 103.356C185.771 100.14 184.606 96.125 185.035 92.0502C185.052 91.8972 185.129 91.757 185.249 91.6613C185.37 91.5658 185.524 91.5231 185.677 91.5419L215.47 95.3097C215.622 95.329 215.761 95.4091 215.854 95.5316C215.947 95.6543 215.987 95.8092 215.964 95.9617C215.365 100.015 213.238 103.613 209.974 106.095C207.237 108.176 203.955 109.276 200.568 109.276ZM186.125 92.7534C185.642 100.281 191.184 107.06 198.728 108.014C206.273 108.969 213.328 103.783 214.734 96.3715L186.125 92.7534Z" fill="#1F404D"/>
<path d="M156.315 60.3663C156.531 63.1711 158.042 70.5705 160.112 71.4305C163.881 72.9957 176.892 57.4623 177.512 53.7417C177.811 55.8831 178.128 58.0785 179.115 59.9711C180.103 61.8653 181.917 63.4288 183.983 63.4357C186.064 63.4444 187.932 61.8776 188.973 59.9727C190.013 58.0698 191.181 54.9498 191.532 52.7944C191.546 54.7148 191.616 56.6559 192.103 58.5015C192.589 60.3453 193.533 62.109 195.009 63.2249C196.959 64.6978 199.759 64.8233 201.853 63.5297C203.733 62.3702 205.511 59.527 205.669 57.1367C205.689 58.1813 206.738 60.1816 207.581 61.2682C208.573 62.5497 209.669 63.6569 210.678 64.4107C211.688 65.1664 213.13 65.3595 214.199 64.6719C215.322 63.9477 215.783 62.5078 216.161 61.1846C216.537 59.8702 216.878 58.2493 217.254 56.9347C221.304 68.0286 233.756 82.082 236.299 82.2196C238.975 82.3659 241.85 76.3784 243.159 72.6753C243.864 70.6835 245.126 65.5405 244.719 59.3651C244.263 52.4723 241.724 44.2947 234.006 37.7747C218.522 24.6978 189.795 20.4707 172.841 30.1264C165.01 34.5852 159.849 41.8574 157.572 49.4396C156.471 53.1046 156.045 56.8408 156.315 60.3663Z" fill="#EF9289"/>
<path d="M157.572 49.4399C159.028 52.5389 160.927 55.41 163.267 57.8316C169.721 54.7708 175.104 49.957 178.673 43.7676C179.258 45.2127 179.897 46.6595 180.867 47.8799C181.835 49.1003 183.181 50.0893 184.72 50.3366C186.498 50.6203 188.331 49.87 189.666 48.6634C190.611 47.8105 191.345 46.637 191.938 45.4359C192.864 48.3182 194.592 51.0455 197.685 51.7973C200.068 52.3766 202.669 51.8141 204.5 50.1677C205.48 49.2873 206.183 48.1493 206.64 46.9125C207.421 48.7019 208.585 50.255 210.381 51.1593C212.621 52.2876 215.299 52.1474 217.269 50.5468C217.925 50.0132 218.444 49.3651 218.85 48.6496C223.043 56.4954 229.991 62.7846 238.26 66.0928C240.774 64.237 242.959 61.9457 244.719 59.3656C245.126 65.541 243.864 70.684 243.159 72.6758C241.85 76.3789 238.975 82.3663 236.299 82.2201C233.756 82.0825 221.304 68.0291 217.254 56.9352C216.878 58.2496 216.537 59.8705 216.161 61.1851C215.783 62.5083 215.322 63.9482 214.199 64.6724C213.13 65.3602 211.688 65.1669 210.678 64.4112C209.669 63.6574 208.573 62.5502 207.581 61.2687C206.738 60.1823 205.689 58.1818 205.669 57.1372C205.511 59.5275 203.733 62.3707 201.853 63.5302C199.759 64.8238 196.959 64.6985 195.009 63.2255C193.533 62.1095 192.589 60.3458 192.103 58.5021C191.616 56.6566 191.546 54.7153 191.532 52.7949C191.181 54.9503 190.012 58.0703 188.973 59.9733C187.932 61.8779 186.064 63.4448 183.983 63.4362C181.917 63.4293 180.103 61.8658 179.115 59.9716C178.128 58.0791 177.811 55.8836 177.512 53.7422C176.892 57.4628 163.881 72.9962 160.112 71.431C158.042 70.5708 156.531 63.1715 156.315 60.3668C156.045 56.841 156.471 53.1047 157.572 49.4399Z" fill="#E2726D"/>
<path d="M236.395 82.8909C236.351 82.8909 236.307 82.8897 236.263 82.8871C234.403 82.7857 230.014 78.0917 226.82 74.1028C222.725 68.9882 219.369 63.6255 217.392 59.0732C217.38 59.1216 217.368 59.17 217.356 59.2182C217.179 59.946 216.995 60.6988 216.803 61.369C216.375 62.8692 215.848 64.4034 214.56 65.2335C213.308 66.0403 211.587 65.925 210.278 64.9464C209.219 64.1544 208.073 62.9938 207.053 61.6782C206.655 61.1648 206.161 60.3837 205.757 59.5662C205.019 61.4118 203.674 63.1921 202.204 64.099C199.888 65.5283 196.763 65.3879 194.606 63.7581C192.74 62.3487 191.863 60.2138 191.457 58.6711C191.296 58.0636 191.18 57.4449 191.095 56.8266C190.61 58.1472 190.051 59.3944 189.559 60.294C188.551 62.1376 186.562 64.1038 184 64.104C183.994 64.104 183.988 64.104 183.981 64.1038C181.422 64.0941 179.483 62.1223 178.522 60.2802C177.849 58.9894 177.472 57.5622 177.212 56.1578C174.614 60.8129 167.485 69.016 163.128 71.4315C161.757 72.1909 160.686 72.3927 159.855 72.0475C157.252 70.9666 155.822 62.6687 155.649 60.4174C155.219 54.8214 156.522 48.7639 159.318 43.3605C162.341 37.5158 166.903 32.7388 172.509 29.546C180.736 24.8606 191.942 23.1619 204.062 24.763C215.794 26.3128 226.865 30.8693 234.437 37.2644C240.815 42.6516 244.468 49.7004 245.294 58.2149C246.066 66.1698 244.025 72.2322 243.79 72.8975C243.194 74.5813 240.065 82.8903 236.395 82.8909ZM217.254 56.2658C217.534 56.2658 217.785 56.4404 217.882 56.7048C222.024 68.0553 234.418 81.4482 236.335 81.5528C238.224 81.6561 240.941 76.9409 242.53 72.4517C242.755 71.8154 244.708 66.0121 243.964 58.3441C243.173 50.1885 239.677 43.4399 233.574 38.2855C217.76 24.9291 189.534 21.3881 173.171 30.7072C160.951 37.6662 156.235 50.5921 156.981 60.3152C157.228 63.53 158.828 70.1738 160.367 70.8134C160.606 70.9122 161.199 70.9727 162.48 70.2628C167.562 67.4457 176.392 56.3991 176.853 53.6312C176.907 53.3057 177.182 53.0687 177.52 53.0726C177.85 53.0769 178.128 53.3214 178.174 53.6481C178.462 55.713 178.761 57.8481 179.707 59.6623C180.688 61.5425 182.368 62.7614 183.986 62.7676C183.99 62.7676 183.995 62.7676 183.999 62.7676C185.63 62.7676 187.351 61.5464 188.386 59.653C189.332 57.9223 190.521 54.8432 190.872 52.6865C190.928 52.3441 191.235 52.1026 191.583 52.1278C191.929 52.1544 192.197 52.4417 192.2 52.7889C192.213 54.5137 192.268 56.5065 192.749 58.3304C193.248 60.2229 194.193 61.7717 195.411 62.6918C197.139 63.9971 199.644 64.1081 201.502 62.9618C203.26 61.8769 204.863 59.1888 205.002 57.0917C205.026 56.7342 205.328 56.4613 205.686 56.468C206.044 56.4767 206.331 56.7663 206.337 57.1243C206.352 57.9599 207.302 59.8183 208.109 60.8594C209.058 62.0826 210.112 63.1539 211.078 63.8761C211.929 64.5117 213.063 64.608 213.836 64.1099C214.735 63.5309 215.145 62.3092 215.518 61.0017C215.703 60.3562 215.883 59.6165 216.058 58.901C216.236 58.1732 216.42 57.4205 216.611 56.7502C216.691 56.4719 216.941 56.2764 217.23 56.266C217.238 56.266 217.246 56.2658 217.254 56.2658Z" fill="#1F404D"/>
<path d="M21 1H154.195C161.254 1 166.976 6.72197 166.976 13.7804V91.6981C166.976 92.5597 167.399 93.3663 168.108 93.8557C170.757 95.6836 168.418 99.7542 165.505 98.386L154.92 93.4145C154.443 93.1903 153.922 93.0741 153.395 93.0741H21C9.95431 93.0741 1 84.1198 1 73.0741V21C1 9.95431 9.95432 1 21 1Z" fill="#EBF3FF" stroke="#EB9F4A" stroke-width="2"/>
<path d="M44.4325 11.8645C44.7699 11.8645 45.0852 11.9892 45.3785 12.2385C45.6425 12.4879 45.7745 12.7812 45.7745 13.1185C45.7745 13.4999 45.6425 13.8079 45.3785 14.0425C45.0999 14.3065 44.7845 14.4385 44.4325 14.4385C44.0365 14.4385 43.7212 14.3065 43.4865 14.0425C43.2225 13.8079 43.0905 13.4999 43.0905 13.1185C43.0905 12.7812 43.2225 12.4659 43.4865 12.1725C43.7652 11.9672 44.0805 11.8645 44.4325 11.8645ZM40.2525 11.8645C40.5899 11.8645 40.9052 11.9892 41.1985 12.2385C41.4625 12.4879 41.5945 12.7812 41.5945 13.1185C41.5945 13.4999 41.4625 13.8079 41.1985 14.0425C40.9199 14.3065 40.6045 14.4385 40.2525 14.4385C39.8565 14.4385 39.5412 14.3065 39.3065 14.0425C39.0425 13.8079 38.9105 13.4999 38.9105 13.1185C38.9105 12.7812 39.0425 12.4659 39.3065 12.1725C39.5852 11.9672 39.9005 11.8645 40.2525 11.8645ZM48.2825 15.3625L48.3705 15.5385V21.4345C48.3705 22.6959 49.1625 23.3999 50.7465 23.5465C50.9812 23.5465 51.0985 23.6052 51.0985 23.7225V26.0105C51.0985 26.1279 51.0399 26.1865 50.9225 26.1865H50.8345C49.2212 26.1865 47.8719 25.5999 46.7865 24.4265C45.7012 25.5999 44.3225 26.1865 42.6505 26.1865C40.0545 26.1865 38.2652 24.8372 37.2825 22.1385C37.1652 21.5812 37.1065 21.1412 37.1065 20.8185C37.1065 18.4132 38.5732 16.7119 41.5065 15.7145C41.5945 15.7145 42.0052 15.6852 42.7385 15.6265C43.9852 15.6265 45.1585 16.0372 46.2585 16.8585C47.3439 15.8612 48.0185 15.3625 48.2825 15.3625ZM40.0105 20.6425V21.1705C40.3919 22.7545 41.1839 23.5465 42.3865 23.5465H43.0025C44.5865 23.1652 45.3785 22.3732 45.3785 21.1705V20.6425C44.9972 19.0585 44.2052 18.2665 43.0025 18.2665H42.3865C40.8025 18.6479 40.0105 19.4399 40.0105 20.6425ZM57.352 15.4505C59.1854 15.4505 60.74 16.4772 62.016 18.5305C62.412 19.3079 62.9107 20.9799 63.512 23.5465H65.448C65.5654 23.5612 65.624 23.6199 65.624 23.7225V26.0105C65.624 26.1279 65.5654 26.1865 65.448 26.1865H50.4C50.2827 26.1865 50.224 26.1279 50.224 26.0105V23.7225C50.2387 23.6052 50.2974 23.5465 50.4 23.5465H60.696V23.4585C60.1974 20.8625 59.5814 19.3079 58.848 18.7945C58.0414 18.2079 57.1614 17.9145 56.208 17.9145C55.2107 17.9145 54.2427 18.2372 53.304 18.8825H53.216L53.04 18.7945C53.04 17.3425 53.9787 16.2865 55.856 15.6265C56.6187 15.5092 57.1174 15.4505 57.352 15.4505ZM70.9515 15.4505L71.0395 15.6265V21.0825C71.0395 21.9919 70.8635 22.8132 70.5115 23.5465H72.6675C72.7848 23.5612 72.8435 23.6199 72.8435 23.7225V26.0105C72.8435 26.1279 72.7848 26.1865 72.6675 26.1865H64.9235C64.8061 26.1865 64.7475 26.1279 64.7475 26.0105V23.7225C64.7621 23.6052 64.8208 23.5465 64.9235 23.5465H66.2875C67.6955 23.2825 68.3995 22.5785 68.3995 21.4345V18.4425C68.3995 17.3572 69.2501 16.3599 70.9515 15.4505ZM70.3135 11.8645C70.6508 11.8645 70.9661 11.9892 71.2595 12.2385C71.5235 12.4879 71.6555 12.7812 71.6555 13.1185C71.6555 13.4999 71.5235 13.8079 71.2595 14.0425C70.9808 14.3065 70.6655 14.4385 70.3135 14.4385C69.9175 14.4385 69.6021 14.3065 69.3675 14.0425C69.1035 13.8079 68.9715 13.4999 68.9715 13.1185C68.9715 12.7812 69.1035 12.4659 69.3675 12.1725C69.6461 11.9672 69.9615 11.8645 70.3135 11.8645ZM66.7935 11.8645C67.1308 11.8645 67.4461 11.9892 67.7395 12.2385C68.0035 12.4879 68.1355 12.7812 68.1355 13.1185C68.1355 13.4999 68.0035 13.8079 67.7395 14.0425C67.4608 14.3065 67.1455 14.4385 66.7935 14.4385C66.3975 14.4385 66.0821 14.3065 65.8475 14.0425C65.5835 13.8079 65.4515 13.4999 65.4515 13.1185C65.4515 12.7812 65.5835 12.4659 65.8475 12.1725C66.1261 11.9672 66.4415 11.8645 66.7935 11.8645ZM79.5342 15.3625C81.9396 15.3625 83.6409 16.7119 84.6382 19.4105C84.7556 20.0265 84.8142 20.4959 84.8142 20.8185C84.8142 21.5519 84.5796 22.4612 84.1102 23.5465H87.1022C87.2196 23.5612 87.2782 23.6199 87.2782 23.7225V26.0105C87.2782 26.1279 87.2196 26.1865 87.1022 26.1865H72.1422C72.0249 26.1865 71.9662 26.1279 71.9662 26.0105V23.7225C71.9809 23.6052 72.0396 23.5465 72.1422 23.5465H74.8702V23.4585C74.4009 22.5345 74.1662 21.6252 74.1662 20.7305C74.1662 18.2372 75.5156 16.5065 78.2142 15.5385C78.7129 15.4212 79.1529 15.3625 79.5342 15.3625ZM76.8062 20.8185C77.0409 22.5785 77.9209 23.4585 79.4462 23.4585H79.5342C81.0889 23.4585 81.9689 22.5492 82.1742 20.7305C81.9396 18.9705 81.0596 18.0905 79.5342 18.0905H79.1822C77.9942 18.0905 77.2022 18.9119 76.8062 20.5545V20.8185ZM79.9522 11.8645C80.2896 11.8645 80.6049 11.9892 80.8982 12.2385C81.1622 12.4879 81.2942 12.7812 81.2942 13.1185C81.2942 13.4999 81.1622 13.8079 80.8982 14.0425C80.6196 14.3065 80.3042 14.4385 79.9522 14.4385C79.5562 14.4385 79.2409 14.3065 79.0062 14.0425C78.7422 13.8079 78.6102 13.4999 78.6102 13.1185C78.6102 12.7812 78.7422 12.4659 79.0062 12.1725C79.2849 11.9672 79.6002 11.8645 79.9522 11.8645ZM92.3877 11.0505L92.4757 11.2265V21.0825C92.4757 23.6639 91.1851 25.3359 88.6037 26.0985C88.1051 26.1572 87.6944 26.1865 87.3717 26.1865H86.5797C86.4624 26.1865 86.4037 26.1279 86.4037 26.0105V23.7225C86.4184 23.6052 86.4771 23.5465 86.5797 23.5465H87.7237C89.1317 23.2825 89.8357 22.5785 89.8357 21.4345V14.0425C89.8357 12.9572 90.6864 11.9599 92.3877 11.0505ZM96.7855 11.1385L96.8735 11.3145V26.0105C96.8735 26.1279 96.8148 26.1865 96.6975 26.1865H94.4095C94.2922 26.1865 94.2335 26.1279 94.2335 26.0105V14.1305C94.2335 13.0452 95.0842 12.0479 96.7855 11.1385ZM112.155 15.4505C114.707 15.4505 116.496 16.7999 117.523 19.4985C117.64 20.1145 117.699 20.5839 117.699 20.9065C117.699 23.1799 116.408 24.8519 113.827 25.9225C113.152 26.0985 112.565 26.1865 112.067 26.1865C109.867 26.1865 108.195 25.1305 107.051 23.0185C106.699 22.2705 106.523 21.5079 106.523 20.7305C106.523 18.3545 107.901 16.6532 110.659 15.6265C111.392 15.5092 111.891 15.4505 112.155 15.4505ZM109.427 20.9065C109.427 22.4465 110.336 23.3265 112.155 23.5465C113.915 23.2825 114.795 22.4025 114.795 20.9065V20.7305C114.795 19.1905 113.885 18.3105 112.067 18.0905C110.732 18.0905 109.852 18.8532 109.427 20.3785V20.9065ZM121.48 15.2745H124.472C127.097 15.2745 128.916 16.5359 129.928 19.0585C130.104 19.7625 130.368 21.2585 130.72 23.5465H132.568C132.685 23.5612 132.744 23.6199 132.744 23.7225V26.0105C132.744 26.1279 132.685 26.1865 132.568 26.1865H119.456V26.0985C119.647 24.3972 119.823 23.5465 119.984 23.5465H127.728V23.4585C127.464 19.9972 127.053 18.2665 126.496 18.2665C126.496 17.9585 125.44 17.6652 123.328 17.3865C122.36 16.7999 121.685 16.1252 121.304 15.3625L121.48 15.2745ZM122.822 11.8645C123.159 11.8645 123.475 11.9892 123.768 12.2385C124.032 12.4879 124.164 12.7812 124.164 13.1185C124.164 13.4999 124.032 13.8079 123.768 14.0425C123.489 14.3065 123.174 14.4385 122.822 14.4385C122.426 14.4385 122.111 14.3065 121.876 14.0425C121.612 13.8079 121.48 13.4999 121.48 13.1185C121.48 12.7812 121.612 12.4659 121.876 12.1725C122.155 11.9672 122.47 11.8645 122.822 11.8645ZM138.993 15.2745H141.985C144.61 15.2745 146.429 16.5359 147.441 19.0585C147.617 19.6305 147.998 21.9772 148.585 26.0985L148.409 26.1865H132.041C131.923 26.1865 131.865 26.1279 131.865 26.0105V23.7225C131.879 23.6052 131.938 23.5465 132.041 23.5465H134.153C134.27 23.5465 134.475 22.4025 134.769 20.1145C135.531 18.1785 136.881 17.2105 138.817 17.2105C139.785 17.2105 140.753 17.7679 141.721 18.8825C142.19 19.6012 142.425 20.1879 142.425 20.6425V21.1705C142.425 21.6252 142.366 22.4172 142.249 23.5465H145.241V23.4585C144.977 19.9972 144.566 18.2665 144.009 18.2665C144.009 17.9585 142.953 17.6652 140.841 17.3865C139.873 16.7999 139.198 16.1252 138.817 15.3625L138.993 15.2745ZM136.969 23.5465H139.521C139.697 22.0945 139.814 21.2732 139.873 21.0825C139.873 20.4959 139.433 20.0852 138.553 19.8505C137.614 19.8505 137.145 20.7599 137.145 22.5785C137.071 22.5785 137.013 22.9012 136.969 23.5465ZM46.1038 42.3625L46.1918 42.5385V48.4345C46.4558 49.8425 47.1598 50.5465 48.3038 50.5465H54.1998C55.6078 50.2825 56.3118 49.5785 56.3118 48.4345V45.3545C56.3118 44.2692 57.1625 43.2719 58.8638 42.3625L58.9518 42.5385V48.0825C58.9518 48.9919 58.7758 49.8132 58.4238 50.5465H60.5358C60.6532 50.5612 60.7118 50.6199 60.7118 50.7225V53.0105C60.7118 53.1279 60.6532 53.1865 60.5358 53.1865H48.6558C46.0745 53.1865 44.4025 51.8959 43.6398 49.3145C43.5812 48.8159 43.5518 48.4052 43.5518 48.0825V45.3545C43.5518 44.2692 44.4025 43.2719 46.1038 42.3625ZM53.5178 38.8645C53.8552 38.8645 54.1705 38.9892 54.4638 39.2385C54.7278 39.4879 54.8598 39.7812 54.8598 40.1185C54.8598 40.4999 54.7278 40.8079 54.4638 41.0425C54.1852 41.3065 53.8698 41.4385 53.5178 41.4385C53.1218 41.4385 52.8065 41.3065 52.5718 41.0425C52.3078 40.8079 52.1758 40.4999 52.1758 40.1185C52.1758 39.7812 52.3078 39.4659 52.5718 39.1725C52.8505 38.9672 53.1658 38.8645 53.5178 38.8645ZM49.3378 38.8645C49.6752 38.8645 49.9905 38.9892 50.2838 39.2385C50.5478 39.4879 50.6798 39.7812 50.6798 40.1185C50.6798 40.4999 50.5478 40.8079 50.2838 41.0425C50.0052 41.3065 49.6898 41.4385 49.3378 41.4385C48.9418 41.4385 48.6265 41.3065 48.3918 41.0425C48.1278 40.8079 47.9958 40.4999 47.9958 40.1185C47.9958 39.7812 48.1278 39.4659 48.3918 39.1725C48.6705 38.9672 48.9858 38.8645 49.3378 38.8645ZM66.9555 42.4505C68.7889 42.4505 70.3435 43.4772 71.6195 45.5305C72.0155 46.3079 72.5142 47.9799 73.1155 50.5465H75.0515C75.1689 50.5612 75.2275 50.6199 75.2275 50.7225V53.0105C75.2275 53.1279 75.1689 53.1865 75.0515 53.1865H60.0035C59.8862 53.1865 59.8275 53.1279 59.8275 53.0105V50.7225C59.8422 50.6052 59.9009 50.5465 60.0035 50.5465H70.2995V50.4585C69.8009 47.8625 69.1849 46.3079 68.4515 45.7945C67.6449 45.2079 66.7649 44.9145 65.8115 44.9145C64.8142 44.9145 63.8462 45.2372 62.9075 45.8825H62.8195L62.6435 45.7945C62.6435 44.3425 63.5822 43.2865 65.4595 42.6265C66.2222 42.5092 66.7209 42.4505 66.9555 42.4505ZM79.917 38.8645C80.2543 38.8645 80.5697 38.9892 80.863 39.2385C81.127 39.4879 81.259 39.7812 81.259 40.1185C81.259 40.4999 81.127 40.8079 80.863 41.0425C80.5843 41.3065 80.269 41.4385 79.917 41.4385C79.521 41.4385 79.2057 41.3065 78.971 41.0425C78.707 40.8079 78.575 40.4999 78.575 40.1185C78.575 39.7812 78.707 39.4659 78.971 39.1725C79.2497 38.9672 79.565 38.8645 79.917 38.8645ZM80.071 42.3625L80.159 42.5385V48.0825C80.159 50.6639 78.8683 52.3359 76.287 53.0985C75.7883 53.1572 75.3777 53.1865 75.055 53.1865H74.527C74.4097 53.1865 74.351 53.1279 74.351 53.0105V50.7225C74.3657 50.6052 74.4243 50.5465 74.527 50.5465H75.407C76.815 50.2825 77.519 49.5785 77.519 48.4345V45.3545C77.519 44.2692 78.3697 43.2719 80.071 42.3625ZM76.397 38.8645C76.7343 38.8645 77.0497 38.9892 77.343 39.2385C77.607 39.4879 77.739 39.7812 77.739 40.1185C77.739 40.4999 77.607 40.8079 77.343 41.0425C77.0643 41.3065 76.749 41.4385 76.397 41.4385C76.001 41.4385 75.6857 41.3065 75.451 41.0425C75.187 40.8079 75.055 40.4999 75.055 40.1185C75.055 39.7812 75.187 39.4659 75.451 39.1725C75.7297 38.9672 76.045 38.8645 76.397 38.8645ZM93.4554 42.3625L93.5434 42.5385V48.4345C93.8074 49.8425 94.5114 50.5465 95.6554 50.5465H101.551C102.959 50.2825 103.663 49.5785 103.663 48.4345V45.3545C103.663 44.2692 104.514 43.2719 106.215 42.3625L106.303 42.5385V48.0825C106.303 48.9919 106.127 49.8132 105.775 50.5465H107.887C108.005 50.5612 108.063 50.6199 108.063 50.7225V53.0105C108.063 53.1279 108.005 53.1865 107.887 53.1865H96.0074C93.4261 53.1865 91.7541 51.8959 90.9914 49.3145C90.9327 48.8159 90.9034 48.4052 90.9034 48.0825V45.3545C90.9034 44.2692 91.7541 43.2719 93.4554 42.3625ZM99.1974 54.0225C99.5347 54.0225 99.8501 54.1472 100.143 54.3965C100.407 54.6459 100.539 54.9392 100.539 55.2765C100.539 55.6579 100.407 55.9659 100.143 56.2005C99.8647 56.4645 99.5494 56.5965 99.1974 56.5965C98.8014 56.5965 98.4861 56.4645 98.2514 56.2005C97.9874 55.9659 97.8554 55.6579 97.8554 55.2765C97.8554 54.9392 97.9874 54.6239 98.2514 54.3305C98.5301 54.1252 98.8454 54.0225 99.1974 54.0225ZM113.383 42.4505L113.471 42.6265V48.0825C113.471 48.9919 113.295 49.8132 112.943 50.5465H115.099C115.216 50.5612 115.275 50.6199 115.275 50.7225V53.0105C115.275 53.1279 115.216 53.1865 115.099 53.1865H107.355C107.238 53.1865 107.179 53.1279 107.179 53.0105V50.7225C107.194 50.6052 107.252 50.5465 107.355 50.5465H108.719C110.127 50.2825 110.831 49.5785 110.831 48.4345V45.4425C110.831 44.3572 111.682 43.3599 113.383 42.4505ZM112.745 38.8645C113.082 38.8645 113.398 38.9892 113.691 39.2385C113.955 39.4879 114.087 39.7812 114.087 40.1185C114.087 40.4999 113.955 40.8079 113.691 41.0425C113.412 41.3065 113.097 41.4385 112.745 41.4385C112.349 41.4385 112.034 41.3065 111.799 41.0425C111.535 40.8079 111.403 40.4999 111.403 40.1185C111.403 39.7812 111.535 39.4659 111.799 39.1725C112.078 38.9672 112.393 38.8645 112.745 38.8645ZM109.225 38.8645C109.562 38.8645 109.878 38.9892 110.171 39.2385C110.435 39.4879 110.567 39.7812 110.567 40.1185C110.567 40.4999 110.435 40.8079 110.171 41.0425C109.892 41.3065 109.577 41.4385 109.225 41.4385C108.829 41.4385 108.514 41.3065 108.279 41.0425C108.015 40.8079 107.883 40.4999 107.883 40.1185C107.883 39.7812 108.015 39.4659 108.279 39.1725C108.558 38.9672 108.873 38.8645 109.225 38.8645ZM114.398 50.5465H123.902V50.4585C123.609 47.2905 123.345 45.7065 123.11 45.7065C122.553 44.9439 121.761 44.5625 120.734 44.5625H117.302L117.126 44.4745C118.886 41.1305 119.883 39.3412 120.118 39.1065C121.101 38.4025 122.186 38.0505 123.374 38.0505V38.1385C123.374 38.2559 122.699 39.6345 121.35 42.2745C122.303 42.2745 123.506 42.8612 124.958 44.0345C125.955 45.2079 126.454 46.5865 126.454 48.1705C126.718 49.7545 126.894 50.5465 126.982 50.5465H128.918C129.035 50.5612 129.094 50.6199 129.094 50.7225V53.0105C129.094 53.1279 129.035 53.1865 128.918 53.1865H114.398V50.5465ZM133.778 38.8645C134.116 38.8645 134.431 38.9892 134.724 39.2385C134.988 39.4879 135.12 39.7812 135.12 40.1185C135.12 40.4999 134.988 40.8079 134.724 41.0425C134.446 41.3065 134.13 41.4385 133.778 41.4385C133.382 41.4385 133.067 41.3065 132.832 41.0425C132.568 40.8079 132.436 40.4999 132.436 40.1185C132.436 39.7812 132.568 39.4659 132.832 39.1725C133.111 38.9672 133.426 38.8645 133.778 38.8645ZM133.932 42.3625L134.02 42.5385V48.0825C134.02 50.6639 132.73 52.3359 130.148 53.0985C129.65 53.1572 129.239 53.1865 128.916 53.1865H128.388C128.271 53.1865 128.212 53.1279 128.212 53.0105V50.7225C128.227 50.6052 128.286 50.5465 128.388 50.5465H129.268C130.676 50.2825 131.38 49.5785 131.38 48.4345V45.3545C131.38 44.2692 132.231 43.2719 133.932 42.3625ZM130.258 38.8645C130.596 38.8645 130.911 38.9892 131.204 39.2385C131.468 39.4879 131.6 39.7812 131.6 40.1185C131.6 40.4999 131.468 40.8079 131.204 41.0425C130.926 41.3065 130.61 41.4385 130.258 41.4385C129.862 41.4385 129.547 41.3065 129.312 41.0425C129.048 40.8079 128.916 40.4999 128.916 40.1185C128.916 39.7812 129.048 39.4659 129.312 39.1725C129.591 38.9672 129.906 38.8645 130.258 38.8645ZM142.776 42.3185C145.68 42.3185 147.587 43.8439 148.496 46.8945C148.555 47.2025 148.584 47.4959 148.584 47.7745V50.5025C148.584 54.0225 146.795 56.3105 143.216 57.3665H142.688L142.512 57.2785C142.512 55.9292 143.304 54.6972 144.888 53.5825L145.152 53.2305V53.1425H142.16C139.901 53.1425 138.2 51.8225 137.056 49.1825C136.939 48.4492 136.88 47.9505 136.88 47.6865C136.88 45.2812 138.317 43.5505 141.192 42.4945C141.896 42.3772 142.424 42.3185 142.776 42.3185ZM139.52 47.8625C139.52 49.1239 140.312 50.0039 141.896 50.5025H145.944V47.8625C145.944 46.2052 144.947 45.2372 142.952 44.9585H142.512C140.517 45.2372 139.52 46.2052 139.52 47.8625ZM100.782 69.3625L100.87 69.5385V73.4985C100.87 75.4785 101.926 76.7985 104.038 77.4585C104.272 77.5172 104.507 77.5465 104.742 77.5465H106.238V77.4585C105.768 76.5345 105.534 75.6252 105.534 74.7305C105.534 72.2372 106.883 70.5065 109.582 69.5385C110.08 69.4212 110.52 69.3625 110.902 69.3625C113.307 69.3625 115.008 70.7119 116.006 73.4105C116.123 74.0265 116.182 74.4959 116.182 74.8185C116.182 77.3119 114.832 79.0425 112.134 80.0105C111.664 80.1279 111.166 80.1865 110.638 80.1865H105.27C103.172 80.1865 101.53 79.5999 100.342 78.4265C98.9336 77.0772 98.2296 75.4639 98.2296 73.5865V72.3545C98.2296 71.2692 99.0802 70.2719 100.782 69.3625ZM108.174 74.8185C108.408 76.5785 109.288 77.4585 110.814 77.4585H110.902C112.456 77.4585 113.336 76.5492 113.542 74.7305C113.307 72.9705 112.427 72.0905 110.902 72.0905H110.55C109.362 72.0905 108.57 72.9119 108.174 74.5545V74.8185ZM111.056 65.8645C111.393 65.8645 111.708 65.9892 112.002 66.2385C112.266 66.4879 112.398 66.7812 112.398 67.1185C112.398 67.4999 112.266 67.8079 112.002 68.0425C111.723 68.3065 111.408 68.4385 111.056 68.4385C110.66 68.4385 110.344 68.3065 110.11 68.0425C109.846 67.8079 109.714 67.4999 109.714 67.1185C109.714 66.7812 109.846 66.4659 110.11 66.1725C110.388 65.9672 110.704 65.8645 111.056 65.8645ZM124.464 80.1865H122.704C122.279 81.5652 121.34 82.7459 119.888 83.7285C118.774 84.2565 117.894 84.5205 117.248 84.5205L117.072 84.4325C117.072 83.0685 117.864 81.8292 119.448 80.7145C120.152 79.9079 120.504 78.9985 120.504 77.9865V72.3325C120.504 71.2472 121.355 70.2499 123.056 69.3405L123.144 69.5165V77.5465H124.464V80.1865ZM130.721 69.4505C132.555 69.4505 134.109 70.4772 135.385 72.5305C135.781 73.3079 136.28 74.9799 136.881 77.5465H138.817C138.935 77.5612 138.993 77.6199 138.993 77.7225V80.0105C138.993 80.1279 138.935 80.1865 138.817 80.1865H123.769C123.652 80.1865 123.593 80.1279 123.593 80.0105V77.7225C123.608 77.6052 123.667 77.5465 123.769 77.5465H134.065V77.4585C133.567 74.8625 132.951 73.3079 132.217 72.7945C131.411 72.2079 130.531 71.9145 129.577 71.9145C128.58 71.9145 127.612 72.2372 126.673 72.8825H126.585L126.409 72.7945C126.409 71.3425 127.348 70.2865 129.225 69.6265C129.988 69.5092 130.487 69.4505 130.721 69.4505ZM144.101 65.0505L144.189 65.2265V75.0825C144.189 77.6639 142.898 79.3359 140.317 80.0985C139.818 80.1572 139.407 80.1865 139.085 80.1865H138.293C138.175 80.1865 138.117 80.1279 138.117 80.0105V77.7225C138.131 77.6052 138.19 77.5465 138.293 77.5465H139.437C140.845 77.2825 141.549 76.5785 141.549 75.4345V68.0425C141.549 66.9572 142.399 65.9599 144.101 65.0505ZM148.498 65.1385L148.586 65.3145V80.0105C148.586 80.1279 148.528 80.1865 148.41 80.1865H146.122C146.005 80.1865 145.946 80.1279 145.946 80.0105V68.1305C145.946 67.0452 146.797 66.0479 148.498 65.1385Z" fill="#3AA6D9"/>
</svg>
