<svg width="37" height="73" viewBox="0 0 37 73" fill="none" xmlns="http://www.w3.org/2000/svg">
<path d="M12.2988 58.0544V51.5263C9.86169 52.9514 4.52964 57.01 2.13593 59.1927C0.995682 60.2296 0.241211 60.9434 0.241211 60.9434L2.20825 63.4805L4.14384 62.4385L12.2988 58.0544Z" fill="#F49004"/>
<path d="M0.565829 60.9692L2.27331 63.1719L12.0575 57.9106V51.9527C9.42942 53.5721 4.48577 57.3765 2.29807 59.3713C1.47299 60.1216 0.845166 60.7073 0.565829 60.9692ZM2.2081 63.7222C2.13564 63.7222 2.06442 63.6894 2.01757 63.6289L0.0506786 61.0918C-0.025377 60.9937 -0.0148051 60.854 0.0755098 60.7687C0.0829755 60.7617 0.844675 60.0415 1.97359 59.0147C4.28284 56.9093 9.64576 52.799 12.177 51.3185C12.2519 51.2753 12.3437 51.2742 12.4186 51.3176C12.4936 51.3605 12.5397 51.4403 12.5397 51.5268V58.0549C12.5397 58.1439 12.491 58.2255 12.4128 58.2675L2.32219 63.6936C2.28601 63.7126 2.24677 63.7222 2.2081 63.7222Z" fill="#C75314"/>
<path d="M4.14384 62.4385L2.13593 59.1927C0.995682 60.2296 0.241211 60.9434 0.241211 60.9434L2.20825 63.4805L4.14384 62.4385Z" fill="#9E3F10"/>
<path d="M0.565829 60.9692L2.27331 63.1719L3.80389 62.3479L2.08329 59.5668C1.36449 60.2228 0.820262 60.7304 0.565829 60.9692ZM2.2081 63.7222C2.13564 63.7222 2.06442 63.6894 2.01757 63.6289L0.0506786 61.0918C-0.025377 60.9937 -0.0148051 60.854 0.0755098 60.7687C0.0829755 60.7617 0.844675 60.0415 1.97359 59.0147C2.0266 58.9664 2.09819 58.9433 2.16943 58.9544C2.24016 58.9642 2.3031 59.0053 2.3407 59.0663L4.34883 62.3123C4.38389 62.3688 4.39382 62.4373 4.37678 62.5017C4.35947 62.566 4.31684 62.6202 4.25822 62.6518L2.32234 63.6936C2.28601 63.7126 2.24677 63.7222 2.2081 63.7222Z" fill="#6B240A"/>
<path d="M23.8501 58.0544V51.5263C26.2874 52.9514 31.6193 57.01 34.0131 59.1927C35.1534 60.2296 35.9078 60.9434 35.9078 60.9434L33.9408 63.4805L32.0053 62.4385L23.8501 58.0544Z" fill="#F49004"/>
<path d="M24.0908 57.9106L33.8748 63.1721L35.5825 60.9692C35.3033 60.7075 34.6755 60.1218 33.8503 59.3716C31.6628 57.3769 26.719 53.5723 24.0906 51.9529V57.9106H24.0908ZM33.9402 63.7222C33.9017 63.7222 33.8625 63.7126 33.8263 63.6934L23.736 58.2673C23.6576 58.2253 23.6089 58.1437 23.6089 58.0547V51.5266C23.6089 51.4401 23.655 51.3601 23.73 51.3174C23.8049 51.2742 23.8968 51.2751 23.9716 51.3183C26.5032 52.799 31.8662 56.9093 34.1753 59.0147C35.304 60.0413 36.0657 60.7615 36.0735 60.7686C36.1632 60.8538 36.1741 60.9935 36.098 61.0917L34.131 63.6287C34.0837 63.6892 34.0127 63.7222 33.9402 63.7222Z" fill="#C75314"/>
<path d="M32.0054 62.4385L34.0133 59.1927C35.1537 60.2296 35.9081 60.9434 35.9081 60.9434L33.941 63.4805L32.0054 62.4385Z" fill="#9E3F10"/>
<path d="M32.3447 62.3479L33.8752 63.1719L35.5829 60.9692C35.3284 60.7304 34.7842 60.2228 34.0652 59.5668L32.3447 62.3479ZM33.9406 63.7222C33.9021 63.7222 33.8629 63.7126 33.8267 63.6934L31.8909 62.6516C31.8322 62.62 31.7896 62.5658 31.7723 62.5015C31.7552 62.4372 31.7652 62.3687 31.8001 62.3122L33.8082 59.0662C33.8458 59.0051 33.9088 58.9642 33.9799 58.9542C34.05 58.9433 34.1223 58.9664 34.1755 59.0146C35.3044 60.0413 36.0661 60.7615 36.0739 60.7686C36.164 60.8538 36.1747 60.9935 36.0986 61.0917L34.1315 63.6287C34.0841 63.6892 34.0131 63.7222 33.9406 63.7222Z" fill="#6B240A"/>
<path d="M28.0082 62.0189C28.0273 63.0077 27.8876 63.8952 27.6175 64.6837C26.7545 67.2084 24.5513 68.7423 21.9357 69.4442C20.8269 69.7407 19.6433 69.888 18.4572 69.8976C18.4116 69.8999 18.368 69.8999 18.3222 69.8999C16.6758 69.8999 15.0293 69.6346 13.5734 69.0751H13.5712C12.3128 68.5879 11.1992 67.8813 10.3458 66.9311C9.25376 65.7108 8.59814 64.0878 8.63901 62.0187C8.651 61.4038 8.70401 60.8008 8.79581 60.2122C8.99833 58.8402 9.38397 57.5379 9.85405 56.3224C10.3915 54.9189 11.0401 53.6263 11.6379 52.466C12.1514 51.4702 12.6309 50.5706 12.9709 49.7821C13.0288 49.6495 13.0842 49.5217 13.1326 49.3963C13.7304 47.8698 14.0221 45.8029 14.1665 43.799C14.2075 43.201 14.2388 42.6075 14.258 42.0385C14.2942 40.975 14.3016 39.9863 14.3016 39.176H22.3455C22.3455 39.8367 22.3479 40.6158 22.3699 41.455C22.3746 41.5996 22.3771 41.7468 22.3842 41.896C22.4276 43.2033 22.517 44.6286 22.7026 45.9814C22.8425 46.987 23.035 47.9516 23.3052 48.7932C23.3678 49.0033 23.4403 49.2033 23.515 49.3963C24.0886 50.865 25.2482 52.7677 26.2437 55.0031C26.5354 55.6542 26.8102 56.3344 27.0536 57.0411C27.4781 58.2614 27.8056 59.5611 27.941 60.9262C27.9768 61.2858 28.0009 61.65 28.0082 62.0189Z" fill="#FFBF4D"/>
<path d="M18.3226 66.5962C22.5283 66.5962 24.0552 63.4805 23.6586 61.2598C23.0211 57.6886 21.0433 52.1874 18.3239 52.1881H18.3215C15.6019 52.1874 13.5015 58.5507 12.9865 61.2598C12.5655 63.4758 14.1169 66.5962 18.3226 66.5962Z" fill="#FFD894"/>
<path d="M18.3238 52.4298C15.911 52.4289 13.8117 58.2103 13.2235 61.3054C13.007 62.4434 13.345 63.6873 14.127 64.6326C14.7773 65.4186 16.033 66.3556 18.3225 66.3556C20.5922 66.3556 21.8414 65.4321 22.4895 64.6573C23.2795 63.7135 23.6277 62.4594 23.4212 61.3027C22.8086 57.8723 20.8828 52.4297 18.3245 52.4297L18.3238 52.4298ZM18.3225 66.8379C15.8459 66.8379 14.4721 65.8059 13.7555 64.9401C12.8831 63.885 12.5069 62.4928 12.7496 61.2153C13.1218 59.2576 15.1578 51.9474 18.3209 51.9474H18.3218C21.1972 51.9474 23.2301 57.4912 23.8958 61.2178C24.1272 62.5132 23.7399 63.9147 22.8593 64.9668C22.1451 65.8206 20.7782 66.8379 18.3225 66.8379Z" fill="#F49004"/>
<path d="M22.7027 45.982C22.158 46.0061 21.5987 45.8493 21.1938 45.4849C20.4561 44.8171 20.4318 43.5921 20.9453 42.7384C21.2779 42.1814 21.7914 41.7616 22.3701 41.4554C22.4086 42.8781 22.4955 44.4747 22.7027 45.982Z" fill="#F49004"/>
<path d="M22.1414 41.8693C21.7109 42.1495 21.3792 42.4826 21.1523 42.8622C20.7194 43.5819 20.6775 44.6926 21.3557 45.3068C21.6304 45.5541 22.0113 45.7051 22.4273 45.7371C22.2845 44.6157 22.1906 43.344 22.1414 41.8693ZM22.5944 46.2256C21.9962 46.2256 21.4326 46.0242 21.0326 45.6648C20.1698 44.8834 20.2061 43.5003 20.739 42.614C21.0682 42.0632 21.5792 41.6011 22.2576 41.2423C22.3312 41.2036 22.4196 41.2051 22.4919 41.2472C22.5637 41.2892 22.6091 41.3654 22.6111 41.4488C22.659 43.2068 22.7671 44.6787 22.9417 45.9488C22.9508 46.0162 22.9313 46.084 22.8877 46.1362C22.8443 46.1881 22.7809 46.2194 22.7134 46.2227C22.6736 46.2249 22.634 46.2256 22.5944 46.2256Z" fill="#F07800"/>
<path d="M26.2606 55.0425C25.6771 54.9723 25.1131 54.8302 24.6043 54.6109C22.9241 53.8874 21.9577 52.3946 22.2732 51.008C22.4204 50.3569 22.8518 49.7443 23.4616 49.25C23.4786 49.3005 23.4953 49.3489 23.5146 49.397C24.0882 50.8657 25.2479 52.7684 26.2433 55.004L26.2606 55.0425Z" fill="#F49004"/>
<path d="M23.3609 49.6602C22.9175 50.0858 22.6187 50.5741 22.5088 51.0613C22.2175 52.3401 23.1186 53.7086 24.7 54.3894C25.055 54.5429 25.4431 54.6592 25.8586 54.7374C25.4292 53.8046 24.9701 52.9174 24.5591 52.1244C24.0792 51.1976 23.6599 50.3876 23.3609 49.6602ZM26.2609 55.2837L26.232 55.2822C25.6064 55.207 25.027 55.0558 24.5091 54.8324C22.711 54.0583 21.6949 52.4635 22.0385 50.9546C22.1942 50.2655 22.6338 49.6111 23.3101 49.0627C23.3716 49.0127 23.4536 48.9958 23.5295 49.0183C23.6054 49.0405 23.6655 49.0985 23.6908 49.1735C23.706 49.2199 23.7213 49.2635 23.7389 49.3075C24.0321 50.0578 24.4748 50.9125 24.9872 51.9023C25.4531 52.8017 25.9812 53.8211 26.464 54.9057L26.4843 54.9526C26.5161 55.0316 26.504 55.1216 26.452 55.1891C26.406 55.2493 26.3352 55.2837 26.2609 55.2837Z" fill="#F07800"/>
<path d="M17.7631 47.3903C17.4641 48.1621 16.8641 48.7938 16.1552 49.2181C15.2079 49.7825 14.0557 49.9682 12.9707 49.7825C13.0286 49.6497 13.0841 49.5221 13.1324 49.3967C13.7302 47.87 14.0219 45.8035 14.1663 43.7994C14.4628 43.7344 14.769 43.698 15.0751 43.7006C16.0658 43.7055 17.0879 44.1563 17.6038 45.0028C18.0332 45.7093 18.0621 46.6207 17.7631 47.3903Z" fill="#F49004"/>
<path d="M13.317 49.5864C14.2708 49.6829 15.2457 49.4797 16.0325 49.0108C16.7416 48.5862 17.2769 47.9796 17.5389 47.303L17.539 47.3028C17.8231 46.5717 17.7692 45.7384 17.3986 45.1281C16.9625 44.4125 16.0503 43.9465 15.0748 43.9416C14.8543 43.9409 14.626 43.9596 14.394 44.0003C14.2125 46.3726 13.873 48.168 13.3575 49.4848C13.3446 49.5184 13.3308 49.5522 13.317 49.5864ZM13.7822 50.0923C13.4978 50.0923 13.2127 50.0685 12.9308 50.0203C12.8578 50.0078 12.7946 49.9625 12.7594 49.8973C12.7243 49.8321 12.7209 49.7543 12.7506 49.6863C12.807 49.5567 12.8609 49.4324 12.9081 49.31C13.4126 48.0223 13.755 46.1629 13.9268 43.7817C13.9348 43.6752 14.0113 43.5867 14.1157 43.5638C14.4429 43.4921 14.7646 43.4572 15.0781 43.4593C16.2335 43.4652 17.2809 44.0083 17.8106 44.8773C18.2647 45.6246 18.3308 46.5966 17.9886 47.4776C17.6878 48.254 17.0809 48.9454 16.2799 49.4254C15.5466 49.8615 14.669 50.0923 13.7822 50.0923Z" fill="#F07800"/>
<path d="M12.3711 55.5973C11.8385 56.1688 11.0358 56.4317 10.2572 56.4341C10.1127 56.4341 9.968 56.4266 9.82324 56.4099C9.83291 56.3811 9.84248 56.3522 9.85469 56.323C10.3802 54.9532 11.0094 53.6895 11.595 52.5537C12.0724 52.6935 12.5014 52.9975 12.7354 53.4364C13.0992 54.1262 12.9016 55.0281 12.3711 55.5973Z" fill="#F49004"/>
<path d="M10.1643 56.1914C10.1946 56.1923 10.2256 56.1925 10.2571 56.1925C11.0403 56.1901 11.7467 55.9132 12.1949 55.4326C12.6836 54.9081 12.8213 54.1158 12.522 53.5488C12.3599 53.2448 12.0711 52.9965 11.7136 52.8502C11.1813 53.8868 10.6336 55.0024 10.1643 56.1914ZM10.2576 56.6748C10.0932 56.6748 9.94209 56.6663 9.79501 56.6492C9.72292 56.6407 9.65856 56.6001 9.6196 56.5391C9.5808 56.4778 9.57142 56.4024 9.59442 56.3334C9.60675 56.2965 9.61803 56.263 9.63209 56.2298C10.1528 54.8719 10.7804 53.6067 11.3806 52.443C11.4333 52.3401 11.5515 52.2889 11.6626 52.322C12.2292 52.4881 12.6976 52.8528 12.9477 53.3229C13.3401 54.0663 13.1715 55.0916 12.5474 55.7613C12.0089 56.3392 11.1744 56.6719 10.2576 56.6748Z" fill="#F07800"/>
<path d="M10.939 65.699C10.7172 66.0608 10.428 66.3743 10.0952 66.6323C9.15507 65.4505 8.60061 63.924 8.63909 62.0188C8.65108 61.4425 8.69712 60.8806 8.78135 60.3283C9.74081 60.584 10.5893 61.2422 11.0568 62.1225C11.6404 63.2248 11.5945 64.6379 10.939 65.699Z" fill="#F49004"/>
<path d="M8.98097 60.6429C8.9235 61.0885 8.89066 61.543 8.88065 62.024C8.84701 63.675 9.26892 65.1076 10.1345 66.2865C10.3724 66.0743 10.5732 65.8353 10.7339 65.5733L10.7344 65.5727C11.3483 64.5789 11.3916 63.2692 10.8444 62.2359C10.4571 61.5066 9.77255 60.9258 8.98097 60.6429ZM10.0957 66.8735C10.0248 66.8735 9.95456 66.8424 9.90695 66.7827C8.8683 65.4772 8.36083 63.8729 8.39843 62.014C8.41091 61.4196 8.45959 60.8403 8.54333 60.292C8.55354 60.2244 8.59243 60.1641 8.64961 60.1267C8.70681 60.0892 8.77698 60.0779 8.84361 60.0954C9.87155 60.3692 10.7787 61.085 11.2698 62.0095C11.8956 63.1912 11.8463 64.6888 11.1444 65.8254C10.9129 66.2028 10.6096 66.5384 10.2429 66.8224C10.1992 66.8571 10.1473 66.8735 10.0957 66.8735Z" fill="#F07800"/>
<path d="M18.0745 69.8979C16.5098 69.8738 14.9575 69.6061 13.5739 69.0756H13.5717C13.5426 69.0637 13.5137 69.0541 13.4849 69.0395C13.6872 68.7669 13.9428 68.5354 14.2367 68.3642C15.1793 67.8192 16.4593 67.9373 17.2838 68.6465C17.6646 68.9719 17.9347 69.4157 18.0745 69.8979Z" fill="#F49004"/>
<path d="M13.8908 68.936C15.0512 69.3499 16.366 69.5935 17.7276 69.6471C17.5864 69.3267 17.3825 69.048 17.1271 68.83C16.3779 68.1855 15.2134 68.0775 14.3573 68.5731C14.1889 68.6712 14.0311 68.7943 13.8908 68.936ZM18.0745 70.1392H18.0709C16.4437 70.1143 14.8646 69.8265 13.5036 69.3071L13.4776 69.2978L13.4529 69.288C13.4278 69.2782 13.4027 69.268 13.3775 69.2555C13.3136 69.2239 13.2669 69.1653 13.2503 69.0957C13.2336 69.0261 13.2485 68.953 13.2914 68.8955C13.517 68.5916 13.7946 68.3426 14.1155 68.1555C15.1438 67.5607 16.5423 67.6903 17.4408 68.4635C17.8484 68.8115 18.1476 69.2845 18.3061 69.8306C18.3272 69.904 18.3125 69.9833 18.266 70.044C18.2204 70.1041 18.1496 70.1392 18.0745 70.1392Z" fill="#F07800"/>
<path d="M27.936 60.8857L27.9191 60.8833C27.2056 60.7483 26.509 60.3456 26.1957 59.692C25.8652 58.9998 26.0436 58.1148 26.5715 57.5578C26.7233 57.3986 26.8995 57.2636 27.0924 57.1575C27.4948 58.3317 27.8034 59.5786 27.936 60.8857Z" fill="#F49004"/>
<path d="M26.9625 57.5292C26.8857 57.5887 26.8134 57.6535 26.7462 57.724C26.2754 58.2211 26.1353 59.0052 26.4132 59.5882C26.6289 60.0374 27.0826 60.3918 27.6577 60.5702C27.5336 59.5805 27.3049 58.5798 26.9625 57.5292ZM27.936 61.1265L27.8904 61.1225L27.8746 61.1198C27.0061 60.9558 26.2972 60.4608 25.9784 59.7959C25.6116 59.0274 25.7837 58.0386 26.3969 57.3915C26.5658 57.214 26.7606 57.0644 26.9762 56.9457C27.0385 56.9112 27.1131 56.9066 27.1792 56.9321C27.2456 56.9577 27.2975 57.0116 27.3204 57.0788C27.7714 58.3939 28.0513 59.6313 28.1759 60.861C28.183 60.9288 28.1607 60.9964 28.1151 61.047C28.0693 61.0976 28.0041 61.1265 27.936 61.1265Z" fill="#F07800"/>
<path d="M27.4975 65.0048C26.6174 67.2066 24.6769 68.6053 22.3604 69.3213C22.3676 68.0336 22.91 66.741 23.8985 65.9138C24.8842 65.0917 26.2389 64.7902 27.4975 65.0048Z" fill="#F49004"/>
<path d="M26.7052 65.179C25.7212 65.179 24.767 65.5033 24.0526 66.0994C23.2321 66.7861 22.7088 67.8463 22.6163 68.9846C24.2212 68.4331 26.1715 67.342 27.1509 65.2011C27.0022 65.1862 26.8534 65.179 26.7052 65.179ZM22.3604 69.5625C22.3095 69.5625 22.2588 69.5465 22.2167 69.5151C22.1551 69.4694 22.1188 69.397 22.1191 69.3201C22.1273 67.9159 22.7342 66.5737 23.7436 65.729C24.7465 64.8924 26.1653 64.5331 27.5377 64.767C27.6094 64.7792 27.6721 64.8233 27.7075 64.8866C27.7433 64.9502 27.7482 65.0265 27.721 65.0941C26.8792 67.2006 25.05 68.7424 22.4314 69.5518C22.4081 69.559 22.3843 69.5625 22.3604 69.5625Z" fill="#F07800"/>
<path d="M27.516 64.7632C27.2855 64.725 27.0539 64.7034 26.8232 64.6981C26.9313 64.1408 26.9765 63.5623 26.965 62.969C26.9494 62.1763 26.8631 61.4016 26.7242 60.6485C27.049 60.8745 27.4419 61.0382 27.8744 61.1198L27.8871 61.122C27.9121 61.418 27.9281 61.7168 27.9339 62.0189C27.9532 62.9985 27.8164 63.9189 27.516 64.7632ZM26.0032 57.969C25.6272 56.8883 25.1764 55.8672 24.7173 54.9166C25.1805 55.094 25.689 55.2163 26.2317 55.2817L26.2606 55.2832C26.2715 55.2832 26.2824 55.2824 26.2931 55.281C26.528 55.8213 26.7522 56.3811 26.9547 56.9576C26.7476 57.0744 26.5601 57.22 26.3967 57.3916C26.2339 57.5634 26.102 57.7596 26.0032 57.969ZM22.3826 50.1069C21.9623 48.9264 21.7044 47.4881 21.5469 46.0009C21.8617 46.147 22.2211 46.2253 22.5941 46.2253C22.6171 46.2253 22.6404 46.2249 22.6635 46.2244C22.8004 47.1488 22.9842 48.024 23.2311 48.7936C23.2569 48.8797 23.2854 48.9677 23.3161 49.0571C23.3141 49.0587 23.3119 49.0606 23.3098 49.0622C22.9185 49.3795 22.6064 49.7324 22.3826 50.1069Z" fill="#FFD486"/>
<path d="M22.4274 45.7368C22.0755 45.7099 21.7489 45.5976 21.4903 45.4141C21.4063 44.4658 21.3593 43.5094 21.3335 42.5972C21.3982 42.5138 21.4686 42.4327 21.5448 42.3546C21.7502 42.2604 21.9513 42.1563 22.1475 42.0418C22.1981 43.4435 22.2902 44.6596 22.4274 45.7368Z" fill="#F8B455"/>
<path d="M22.5941 46.2256C22.2212 46.2256 21.8617 46.1473 21.5469 46.0012C21.5262 45.8063 21.5073 45.6104 21.4899 45.4144C21.7485 45.5979 22.0751 45.7102 22.427 45.7371C22.2898 44.6598 22.1977 43.4437 22.1471 42.0421C22.2025 42.0098 22.2577 41.9765 22.3122 41.9425C22.3594 43.3522 22.4589 44.8434 22.6635 46.2247C22.6404 46.2252 22.6172 46.2256 22.5941 46.2256ZM21.3331 42.5975C21.3316 42.5478 21.3304 42.4984 21.3291 42.449C21.4012 42.4188 21.4731 42.3874 21.5444 42.3549C21.4682 42.433 21.3978 42.514 21.3331 42.5975Z" fill="#F5A352"/>
<path d="M25.8586 54.7373C25.4432 54.6592 25.055 54.5429 24.7 54.3893C24.5914 54.3426 24.4861 54.2926 24.384 54.2396C23.7092 52.8937 23.0512 51.7056 22.6211 50.7087C22.7717 50.3418 23.0247 49.9828 23.3609 49.6601C23.6599 50.3875 24.0792 51.1975 24.5591 52.1243C24.9702 52.9173 25.4292 53.8045 25.8586 54.7373Z" fill="#F8B455"/>
<path d="M26.2608 55.2837L26.2319 55.2822C25.6892 55.2168 25.1807 55.0945 24.7175 54.9171C24.6064 54.6871 24.495 54.4614 24.3838 54.2396C24.4859 54.2927 24.5913 54.3427 24.6999 54.3894C25.0548 54.5429 25.443 54.6592 25.8584 54.7374C25.429 53.8046 24.97 52.9174 24.5589 52.1244C24.079 51.1976 23.6598 50.3876 23.3608 49.6602C23.0246 49.9829 22.7715 50.3418 22.621 50.7087C22.5677 50.5854 22.5178 50.4649 22.472 50.3473C22.4415 50.2686 22.4119 50.1886 22.3828 50.1074C22.6066 49.7329 22.9187 49.38 23.3099 49.0627C23.3121 49.061 23.3143 49.0592 23.3163 49.0576C23.8669 50.6546 25.1998 52.7655 26.2933 55.2815C26.2826 55.2829 26.2717 55.2837 26.2608 55.2837Z" fill="#F5A352"/>
<path d="M27.6577 60.5703C27.1832 60.4232 26.7912 60.1562 26.5476 59.8149C26.4662 59.4744 26.3751 59.1389 26.2759 58.8083C26.3044 58.4138 26.4673 58.0186 26.7462 57.7241C26.8134 57.6536 26.8857 57.5887 26.9625 57.5293C27.3049 58.5798 27.5336 59.5806 27.6577 60.5703Z" fill="#F8B455"/>
<path d="M27.8873 61.1221L27.8746 61.1199C27.4421 61.0383 27.0492 60.8746 26.7244 60.6487C26.6724 60.3674 26.6134 60.0899 26.5476 59.8149C26.7912 60.1562 27.1832 60.4232 27.6577 60.5704C27.5336 59.5807 27.3049 58.5799 26.9625 57.5294C26.8857 57.5888 26.8134 57.6537 26.7462 57.7242C26.4673 58.0186 26.3044 58.4139 26.2759 58.8084C26.1907 58.525 26.0993 58.2449 26.0034 57.9692C26.1022 57.7597 26.2341 57.5635 26.3969 57.3917C26.5603 57.2201 26.7478 57.0745 26.9549 56.9577C27.4128 58.2605 27.7625 59.6529 27.8873 61.1221Z" fill="#F5A352"/>
<path d="M25.9497 66.9565C26.2948 66.4001 26.5462 65.8044 26.7128 65.1789C26.8585 65.179 27.0047 65.1863 27.1508 65.201C26.8361 65.8889 26.4211 66.4684 25.9497 66.9565Z" fill="#F8B455"/>
<path d="M25.4058 67.7075C25.6081 67.4662 25.7892 67.2156 25.9502 66.9563C26.4215 66.4681 26.8366 65.8887 27.1512 65.2008C27.0052 65.1861 26.8589 65.1788 26.7133 65.1786C26.7554 65.0203 26.7923 64.8598 26.8237 64.6979C27.0544 64.7033 27.286 64.7248 27.5165 64.763C27.1136 65.8959 26.4161 66.8915 25.4058 67.7075Z" fill="#F5A352"/>
<path d="M18.3196 43.0332C16.9133 43.0332 15.4966 42.6852 14.2583 42.039C14.2765 41.5049 14.2874 40.9899 14.2937 40.5067C15.4995 40.8292 16.708 40.9759 17.8353 40.9759C18.9399 40.9759 20.1219 40.8352 21.3033 40.5263C21.3046 40.9623 21.3082 41.4235 21.3169 41.902C21.0855 42.1189 20.8922 42.3566 20.7387 42.6138C20.726 42.6347 20.7137 42.6559 20.7015 42.6776C19.9353 42.9178 19.129 43.0332 18.3196 43.0332Z" fill="#EA7D1A"/>
<path d="M20.7017 42.6777C20.7138 42.6561 20.7262 42.6348 20.7389 42.614C20.8924 42.3568 21.0857 42.1191 21.3171 41.9021C21.3203 42.082 21.3243 42.2647 21.3292 42.4489C21.1236 42.5351 20.9142 42.6112 20.7017 42.6777Z" fill="#E56601"/>
<path d="M22.3645 41.2144C22.3567 40.8655 22.3522 40.5282 22.3496 40.2072C22.35 40.2072 22.3494 40.2074 22.3498 40.2072C22.3523 40.5282 22.3569 40.8655 22.3647 41.2144C22.3645 41.2144 22.3645 41.2144 22.3645 41.2144Z" fill="#EA9253"/>
<path d="M22.2927 41.2271C22.285 40.8878 22.2799 40.5551 22.2769 40.2324C22.301 40.224 22.3254 40.2157 22.3495 40.2072C22.3521 40.5282 22.3566 40.8655 22.3644 41.2143C22.3401 41.2149 22.3159 41.2192 22.2927 41.2271Z" fill="#EA7D1A"/>
<path d="M22.3123 41.9424C22.3043 41.7011 22.2977 41.4627 22.2925 41.2272C22.3157 41.2194 22.3399 41.215 22.3643 41.2145C22.3643 41.2145 22.3643 41.2145 22.3644 41.2145C22.3661 41.2942 22.3681 41.3746 22.3702 41.4556C22.3748 41.6001 22.3773 41.7472 22.3844 41.8968C22.3604 41.9122 22.3365 41.9273 22.3123 41.9424Z" fill="#E56601"/>
<path d="M21.3173 41.9019C21.3086 41.4234 21.305 40.9622 21.3037 40.5262C21.6285 40.4412 21.9538 40.3432 22.277 40.2322C22.2801 40.5549 22.2851 40.8877 22.2928 41.2269C22.2808 41.2309 22.269 41.236 22.2577 41.242C21.8959 41.4334 21.5816 41.654 21.3173 41.9019Z" fill="#EA842C"/>
<path d="M21.5444 42.355C21.7154 42.1791 21.9146 42.017 22.1411 41.8694C22.1431 41.9272 22.1451 41.985 22.1471 42.0422C21.951 42.1567 21.7499 42.2608 21.5444 42.355Z" fill="#E87A1D"/>
<path d="M21.3296 42.4487C21.3246 42.2645 21.3207 42.0818 21.3174 41.9019C21.5817 41.654 21.8959 41.4334 22.2578 41.2421C22.269 41.2361 22.2808 41.231 22.2928 41.227C22.2981 41.4625 22.3046 41.7009 22.3126 41.9423C22.2581 41.9762 22.2029 42.0095 22.1475 42.0418C22.1455 41.9846 22.1435 41.9268 22.1415 41.869C21.915 42.0166 21.7157 42.1787 21.5448 42.3546C21.4736 42.3871 21.4017 42.4186 21.3296 42.4487Z" fill="#E7741C"/>
<path d="M13.6424 68.8443L13.6604 68.8506C15.0375 69.3798 16.6497 69.6593 18.3227 69.6593C18.8662 69.662 20.3083 69.6306 21.8739 69.2116C24.6724 68.4605 26.6316 66.825 27.3898 64.6059C27.8668 63.2128 27.7942 61.8731 27.701 60.9511C27.4886 58.8029 26.7764 56.7827 26.0238 55.1025C25.5465 54.0305 25.0219 53.0175 24.5592 52.124C23.8272 50.7098 23.3404 49.7527 23.0746 48.863C22.6412 47.5124 22.261 45.4344 22.1437 41.9049C22.1364 41.7552 22.107 40.9261 22.1053 39.4176H14.5428C14.5417 40.0928 14.5343 41.0285 14.4996 42.0474C14.3715 45.826 13.9047 48.0881 13.3574 49.485C13.047 50.2915 12.3703 51.5777 12.1034 52.0927C11.44 53.375 10.6876 54.8221 10.0797 56.4091C9.55903 57.7553 9.21737 59.0106 9.0348 60.2483C8.77758 61.9001 8.57657 64.5925 10.5259 66.7708C11.3147 67.6491 12.3631 68.3469 13.6424 68.8443ZM18.3229 70.1416C16.598 70.1416 14.9321 69.8532 13.5042 69.307L13.4849 69.3006C12.1268 68.7747 11.0104 68.032 10.1672 67.0926C8.43409 65.1564 8.15588 62.7643 8.55819 60.1759C8.7458 58.9047 9.09639 57.6152 9.62991 56.2358C10.2475 54.6236 11.007 53.1631 11.6754 51.871C11.8946 51.4478 12.6037 50.1016 12.908 49.3104C13.5812 47.5914 13.9183 44.9711 14.0177 42.031C14.0566 40.8922 14.0609 39.8565 14.0609 39.1767C14.0609 39.0433 14.1688 38.9355 14.3021 38.9355H22.346C22.4792 38.9355 22.5871 39.0435 22.5871 39.1767C22.5871 41.0661 22.6243 41.8582 22.6254 41.8853C22.7402 45.3464 23.1086 47.3906 23.5349 48.7205C23.7912 49.5762 24.2666 50.5103 24.9872 51.9025C25.4531 52.8018 25.981 53.8213 26.464 54.9058C27.2394 56.6375 27.9631 58.7026 28.1807 60.9033C28.2784 61.8741 28.3524 63.2837 27.8459 64.7624C27.0338 67.1379 24.9574 68.8837 21.9985 69.6775C21.2785 69.8703 20.0059 70.1416 18.3229 70.1416Z" fill="#C75314"/>
<path d="M0.45776 5.53026C0.469821 6.2368 0.816876 6.89756 1.23161 7.47162C1.67756 8.08658 2.20306 8.6243 2.78391 9.10187L2.78633 9.10678C3.90239 10.0352 5.22089 10.7443 6.55167 11.3447C7.62686 11.8343 8.7767 12.2731 9.94811 12.2635C10.0784 12.2635 10.2037 12.2562 10.3338 12.2443L10.4229 11.4219C10.2036 8.87036 9.02242 6.41308 7.16876 4.64781C6.47213 3.9847 5.66947 3.40827 4.75571 3.10678C3.84208 2.8053 2.80555 2.80058 1.94485 3.22981C1.08444 3.66123 0.443283 4.56567 0.45776 5.53026Z" fill="#F49004"/>
<path d="M2.96681 8.9429C3.91123 9.72341 5.08307 10.4174 6.65085 11.1249C7.67608 11.5917 8.77917 12.0226 9.90977 12.0226C9.97731 12.0231 10.0451 12.0217 10.116 12.018L10.181 11.4191C9.96207 8.94127 8.80441 6.53796 7.00271 4.8223C6.22312 4.08032 5.46338 3.59384 4.68032 3.33525C3.75961 3.03195 2.80191 3.07156 2.05269 3.44519C1.23088 3.85752 0.686648 4.69382 0.698637 5.52594C0.708137 6.07474 0.946131 6.6648 1.42664 7.3301C1.83478 7.89271 2.3402 8.42408 2.92863 8.90874L2.96681 8.9429ZM9.90919 12.5049C8.68415 12.5049 7.475 12.0299 6.45174 11.5641C4.82947 10.8321 3.61556 10.1101 2.63225 9.29217L2.60884 9.27C1.99443 8.76227 1.4656 8.2051 1.03625 7.61322C0.495701 6.86506 0.227844 6.18505 0.216564 5.53466V5.53393C0.201523 4.52028 0.852673 3.50788 1.83698 3.01414C2.69944 2.58363 3.7904 2.53366 4.83111 2.87748C5.68358 3.15879 6.50248 3.68052 7.335 4.47302C9.22618 6.27446 10.4395 8.79952 10.663 11.4011L10.6625 11.4478L10.5733 12.2703C10.5609 12.3844 10.47 12.474 10.3559 12.4845C10.1904 12.4998 10.0503 12.5049 9.90919 12.5049Z" fill="#F07800"/>
<path d="M2.24174 8.33972C2.39118 8.61703 2.5792 8.86545 2.78413 9.10187L2.78648 9.10678C3.90253 10.0352 5.22111 10.7443 6.55182 11.3447C7.62701 11.8343 8.77685 12.2731 9.94825 12.2635C9.28056 10.1582 7.94269 8.26994 6.17574 6.94117C5.54417 6.46614 4.83311 6.05363 4.04729 5.96695C3.44217 5.89916 2.64675 6.08271 2.19598 6.52412C1.72348 6.98442 1.95728 7.81399 2.24174 8.33972Z" fill="#FFBF4D"/>
<path d="M2.96702 8.9429C3.91144 9.72341 5.08328 10.4174 6.65106 11.1249C7.58547 11.5501 8.58452 11.9459 9.6099 12.0128C8.92682 10.0856 7.6655 8.36284 6.03104 7.13383C5.28124 6.56994 4.64257 6.27537 4.02099 6.20667C3.50564 6.14852 2.77089 6.29881 2.36468 6.69661C2.00798 7.04425 2.18999 7.73734 2.45408 8.22509L2.45423 8.22564C2.57613 8.45188 2.73527 8.67631 2.95488 8.93073L2.96702 8.9429ZM9.9114 12.5049C8.68436 12.5049 7.47521 12.0299 6.45195 11.5641C4.82968 10.8321 3.61577 10.1101 2.63246 9.29217C2.61515 9.278 2.60053 9.26146 2.58812 9.24366C2.3458 8.96271 2.16814 8.71139 2.02963 8.45425C1.66895 7.78768 1.47937 6.8856 2.0277 6.35115C2.56483 5.82542 3.46513 5.66041 4.07399 5.72711C4.78498 5.80579 5.49887 6.13035 6.32082 6.74821C8.12565 8.1057 9.49567 10.0385 10.1781 12.1905C10.2013 12.2636 10.1883 12.343 10.1436 12.4051C10.0987 12.4671 10.0269 12.504 9.95049 12.5047L9.9114 12.5049Z" fill="#F07800"/>
<path d="M2.96681 8.9429C3.91123 9.72341 5.08307 10.4174 6.65085 11.1249C7.67608 11.5917 8.77917 12.0226 9.90977 12.0226C9.97731 12.0231 10.0451 12.0217 10.116 12.018L10.181 11.4191C9.96207 8.94127 8.80441 6.53796 7.00271 4.8223C6.22312 4.08032 5.46338 3.59384 4.68032 3.33525C3.75961 3.03195 2.80191 3.07156 2.05269 3.44519C1.23088 3.85752 0.686648 4.69382 0.698637 5.52594C0.708137 6.07474 0.946131 6.6648 1.42664 7.3301C1.83478 7.89271 2.3402 8.42408 2.92863 8.90874L2.96681 8.9429ZM9.90919 12.5049C8.68415 12.5049 7.475 12.0299 6.45174 11.5641C4.82947 10.8321 3.61556 10.1101 2.63225 9.29217L2.60884 9.27C1.99443 8.76227 1.4656 8.2051 1.03625 7.61322C0.495701 6.86506 0.227844 6.18505 0.216564 5.53466V5.53393C0.201523 4.52028 0.852673 3.50788 1.83698 3.01414C2.69944 2.58363 3.7904 2.53366 4.83111 2.87748C5.68358 3.15879 6.50248 3.68052 7.335 4.47302C9.22618 6.27446 10.4395 8.79952 10.663 11.4011L10.6625 11.4478L10.5733 12.2703C10.5609 12.3844 10.47 12.474 10.3559 12.4845C10.1904 12.4998 10.0503 12.5049 9.90919 12.5049Z" fill="#C75314"/>
<path d="M22.5904 10.4014C22.1737 10.3627 21.867 9.98527 21.9045 9.55622C22.0825 7.51327 22.4647 5.48032 23.0398 3.5137C23.1609 3.09955 23.5852 2.86313 23.9883 2.98525C24.3912 3.10755 24.6194 3.54278 24.4982 3.95711C23.9527 5.82233 23.5905 7.75061 23.4216 9.68852C23.384 10.119 23.0138 10.4383 22.5949 10.402L22.5904 10.4014Z" fill="#9E3F10"/>
<path d="M22.6132 10.1615L22.6322 10.1637C22.9009 10.187 23.1559 9.96471 23.1819 9.66741C23.3523 7.71369 23.7178 5.76979 24.2674 3.8893C24.3515 3.60199 24.1951 3.29979 23.9188 3.21601C23.7901 3.17676 23.6518 3.19148 23.5318 3.25635C23.4053 3.32468 23.3131 3.44026 23.2716 3.58182C22.7013 5.533 22.3222 7.55014 22.1452 9.57764C22.1198 9.87312 22.3296 10.1352 22.6135 10.1615H22.6132ZM22.6598 10.646C22.6317 10.646 22.6032 10.6449 22.5745 10.6422L22.5683 10.6416C22.0215 10.5906 21.6159 10.0941 21.6646 9.53548C21.8444 7.47636 22.2292 5.42778 22.8088 3.44607C22.8864 3.18039 23.0617 2.96232 23.302 2.83184C23.5363 2.70518 23.8046 2.67738 24.0585 2.75425C24.5869 2.91489 24.8879 3.48478 24.7301 4.0245C24.189 5.87446 23.8297 7.78693 23.662 9.70921C23.6157 10.242 23.1746 10.646 22.6598 10.646Z" fill="#6B240A"/>
<path d="M23.4066 0.345579C24.4549 -0.00387669 25.5876 0.562739 25.9369 1.61147C26.2864 2.66002 25.7199 3.79344 24.6718 4.14289C23.6235 4.49235 22.4907 3.92555 22.1412 2.87718C21.7919 1.82845 22.3585 0.695036 23.4066 0.345579Z" fill="#9E3F10"/>
<path d="M24.0386 0.482688C23.0682 0.482688 22.2791 1.27228 22.2791 2.24269C22.2791 3.21346 23.0682 4.00306 24.0386 4.00306C25.0086 4.00306 25.7976 3.21346 25.7976 2.24269C25.7976 1.27228 25.0086 0.482688 24.0386 0.482688ZM24.0386 4.48535C22.8025 4.48535 21.7969 3.47933 21.7969 2.24269C21.7969 1.00642 22.8025 0.000395298 24.0386 0.000395298C25.2743 0.000395298 26.2799 1.00642 26.2799 2.24269C26.2799 3.47933 25.2743 4.48535 24.0386 4.48535Z" fill="#6B240A"/>
<path d="M13.4746 10.4014C13.8913 10.3627 14.1979 9.98527 14.1605 9.55622C13.9823 7.51327 13.6003 5.48032 13.0252 3.5137C12.904 3.09955 12.4795 2.86313 12.0765 2.98525C11.6738 3.10755 11.4455 3.54278 11.5667 3.95711C12.1121 5.82233 12.4744 7.75061 12.6434 9.68852C12.681 10.119 13.051 10.4383 13.47 10.402L13.4746 10.4014Z" fill="#9E3F10"/>
<path d="M12.2919 3.19455C12.243 3.19455 12.194 3.20182 12.1458 3.21618C11.87 3.29995 11.7137 3.60216 11.7976 3.88983C12.3474 5.76995 12.7126 7.71422 12.8832 9.66776C12.9094 9.96525 13.1651 10.1844 13.4487 10.1621L13.4518 10.1619V10.1617C13.7357 10.1353 13.9458 9.87347 13.9202 9.5778C13.7429 7.5503 13.3642 5.53316 12.7935 3.58181C12.7521 3.44042 12.6598 3.32485 12.5335 3.25652C12.4578 3.21545 12.3753 3.19455 12.2919 3.19455ZM13.4154 10.6445C12.8885 10.6445 12.4494 10.2413 12.4031 9.70956C12.2354 7.78764 11.8761 5.87499 11.335 4.02522C11.1771 3.48513 11.4783 2.91524 12.0061 2.7546C12.2605 2.67791 12.529 2.70535 12.7631 2.83238C13.0036 2.96267 13.1786 3.18074 13.2561 3.44624C13.8356 5.42831 14.2205 7.47689 14.4003 9.53601C14.4488 10.0948 14.0434 10.5911 13.4965 10.6422L13.4741 10.6431C13.4547 10.644 13.4351 10.6445 13.4154 10.6445Z" fill="#6B240A"/>
<path d="M10.0259 2.24263C10.0259 3.34788 10.9216 4.24414 12.0263 4.24414C13.131 4.24414 14.0267 3.34788 14.0267 2.24263C14.0267 1.13756 13.131 0.241482 12.0263 0.241482C10.9213 0.241482 10.0259 1.1372 10.0259 2.24263Z" fill="#9E3F10"/>
<path d="M12.0266 0.482688C11.0565 0.482688 10.2672 1.27228 10.2672 2.24269C10.2672 3.21346 11.0565 4.00306 12.0266 4.00306C12.9969 4.00306 13.7858 3.21346 13.7858 2.24269C13.7858 1.27228 12.9969 0.482688 12.0266 0.482688ZM12.0266 4.48535C10.7907 4.48535 9.78516 3.47933 9.78516 2.24269C9.78516 1.00642 10.7907 0.000395298 12.0266 0.000395298C13.2625 0.000395298 14.2681 1.00642 14.2681 2.24269C14.2681 3.47933 13.2625 4.48535 12.0266 4.48535Z" fill="#6B240A"/>
<path d="M35.361 5.53057C35.3385 6.84698 34.0528 8.26516 33.0349 9.10218L33.0323 9.10709C31.9163 10.0355 30.5979 10.7446 29.2669 11.345C28.0655 11.892 26.7953 12.3658 25.4847 12.2446L25.3955 11.4223C25.7572 7.2177 28.6744 3.89523 31.0629 3.10709C31.9764 2.80561 33.0129 2.80089 33.8737 3.23012C34.7343 3.66153 35.3754 4.56597 35.361 5.53057Z" fill="#F49004"/>
<path d="M25.7029 12.0182C25.7735 12.0215 25.8408 12.0229 25.9072 12.0228C27.0396 12.0228 28.1426 11.5917 29.1671 11.1252C30.7358 10.4176 31.9074 9.72377 32.8521 8.9429L32.8905 8.90838C33.479 8.42353 33.9844 7.89271 34.392 7.3301C34.8724 6.66517 35.1104 6.07529 35.12 5.52684C35.1324 4.69455 34.588 3.85807 33.7655 3.44519C33.0164 3.07193 32.0585 3.03231 31.1383 3.33561C30.3552 3.5942 29.5956 4.0805 28.8159 4.82266C27.0142 6.53832 25.8567 8.94163 25.6377 11.4193L25.7029 12.0182ZM25.9076 12.5049C25.7692 12.5049 25.6288 12.4996 25.4627 12.4844C25.3487 12.4738 25.2578 12.3842 25.2453 12.2701L25.1561 11.4476L25.1558 11.4009C25.3792 8.79934 26.5924 6.2741 28.4837 4.47284C29.3162 3.68052 30.1353 3.15879 30.9874 2.8773C32.028 2.53366 33.1192 2.58363 33.9813 3.01378C34.9662 3.5077 35.6174 4.52027 35.6021 5.53375V5.53429C35.591 6.18505 35.3229 6.8647 34.7829 7.61286C34.3536 8.20474 33.8241 8.76245 33.2094 9.27055L33.1867 9.29181C32.2031 10.1101 30.9894 10.8323 29.3663 11.5641C28.344 12.0299 27.1348 12.5049 25.9076 12.5049Z" fill="#F07800"/>
<path d="M33.5775 8.33972C33.428 8.61703 33.24 8.86545 33.0352 9.10187L33.0327 9.10678C31.9167 10.0352 30.5983 10.7443 29.2673 11.3447C28.1922 11.8343 27.0424 12.2731 25.8711 12.2635C26.5386 10.1582 27.8765 8.26994 29.6437 6.94117C30.2753 6.46614 30.9863 6.05363 31.7721 5.96695C32.3771 5.89916 33.1726 6.08271 33.6234 6.52412C34.0957 6.98442 33.8619 7.81399 33.5775 8.33972Z" fill="#FFBF4D"/>
<path d="M32.0215 6.19432C31.9443 6.19432 31.8697 6.1985 31.7988 6.20649C31.1769 6.27537 30.5382 6.56994 29.7885 7.13365C28.1537 8.36265 26.8927 10.0854 26.2094 12.0126C27.2348 11.9457 28.2338 11.5503 29.1673 11.1249C30.736 10.4172 31.9076 9.72341 32.8524 8.94272L32.8651 8.92945C33.0845 8.67504 33.2436 8.45079 33.3653 8.22509V8.22491C33.6295 7.73698 33.8113 7.04388 33.4547 6.69679C33.1041 6.35333 32.5091 6.19432 32.0215 6.19432ZM25.9078 12.5049L25.8688 12.5047C25.7925 12.504 25.7205 12.4671 25.6757 12.4051C25.6308 12.343 25.6181 12.2636 25.6412 12.1905C26.3238 10.0383 27.6938 8.1057 29.4986 6.74821C30.3208 6.13017 31.0346 5.80579 31.7454 5.72711C32.3556 5.6595 33.2545 5.8256 33.7918 6.3517C34.3399 6.88578 34.1501 7.78804 33.7897 8.45425C33.6512 8.71193 33.4731 8.96344 33.23 9.24511C33.2178 9.26256 33.2035 9.27836 33.1868 9.29218C32.2032 10.1103 30.9894 10.8325 29.3664 11.5643C28.3443 12.0299 27.135 12.5049 25.9078 12.5049Z" fill="#F07800"/>
<path d="M25.7029 12.0182C25.7735 12.0215 25.8408 12.0229 25.9072 12.0228C27.0396 12.0228 28.1426 11.5917 29.1671 11.1252C30.7358 10.4176 31.9074 9.72377 32.8521 8.9429L32.8905 8.90838C33.479 8.42353 33.9844 7.89271 34.392 7.3301C34.8724 6.66517 35.1104 6.07529 35.12 5.52684C35.1324 4.69455 34.588 3.85807 33.7655 3.44519C33.0164 3.07193 32.0585 3.03231 31.1383 3.33561C30.3552 3.5942 29.5956 4.0805 28.8159 4.82266C27.0142 6.53832 25.8567 8.94163 25.6377 11.4193L25.7029 12.0182ZM25.9076 12.5049C25.7692 12.5049 25.6288 12.4996 25.4627 12.4844C25.3487 12.4738 25.2578 12.3842 25.2453 12.2701L25.1561 11.4476L25.1558 11.4009C25.3792 8.79934 26.5924 6.2741 28.4837 4.47284C29.3162 3.68052 30.1353 3.15879 30.9874 2.8773C32.028 2.53366 33.1192 2.58363 33.9813 3.01378C34.9662 3.5077 35.6174 4.52027 35.6021 5.53375V5.53429C35.591 6.18505 35.3229 6.8647 34.7829 7.61286C34.3536 8.20474 33.8241 8.76245 33.2094 9.27055L33.1867 9.29181C32.2031 10.1101 30.9894 10.8323 29.3663 11.5641C28.344 12.0299 27.1348 12.5049 25.9076 12.5049Z" fill="#C75314"/>
<path d="M29.7464 31.6408C28.2613 37.923 22.8182 40.7349 17.8356 40.7349C12.8505 40.7349 7.41004 37.9205 5.92273 31.6408C5.44066 29.6006 5.37567 27.1938 5.87937 24.3964C6.34216 21.8208 6.74703 19.6406 7.15212 17.7958C7.81753 14.7692 8.48276 12.6495 9.41092 11.1832C10.8982 8.83186 13.058 8.14694 16.9752 8.06734C17.2524 8.06007 17.5392 8.05753 17.8358 8.05753C20.9938 8.05753 23.1007 8.36155 24.6263 9.42991C25.8486 10.2813 26.6971 11.627 27.413 13.6961C27.8444 14.938 28.2302 16.4428 28.6158 18.2588C28.9895 20.0025 29.3655 22.0331 29.7922 24.3964C30.2959 27.1913 30.231 29.6006 29.7464 31.6408Z" fill="#FFBF4D"/>
<path d="M20.1752 17.2144C20.1061 17.5544 20.6189 17.9449 21.3201 18.087C22.0212 18.2289 22.6456 18.0685 22.7144 17.7286C22.7831 17.3886 22.2703 16.9981 21.5691 16.8558C20.8682 16.7139 20.2438 16.8744 20.1752 17.2144Z" fill="#E06716"/>
<path d="M20.4112 17.2622C20.3823 17.4058 20.7506 17.7258 21.3677 17.8505C21.9951 17.9771 22.4498 17.8199 22.4779 17.6807C22.5048 17.547 22.1624 17.2222 21.5212 17.0925C20.8905 16.9647 20.4391 17.125 20.4112 17.2622ZM21.2723 18.3233C20.4695 18.1607 19.8333 17.6856 19.9387 17.1663C20.0446 16.6435 20.8206 16.4579 21.6169 16.6193C22.4754 16.7934 23.0487 17.2904 22.9502 17.7761C22.8429 18.3095 22.0487 18.4807 21.2723 18.3233Z" fill="#AD4A07"/>
<path d="M15.4937 17.2144C15.5624 17.5544 15.0496 17.9449 14.3484 18.087C13.6475 18.2289 13.0231 18.0685 12.9545 17.7286C12.8854 17.3886 13.3982 16.9981 14.0994 16.8558C14.8005 16.7139 15.4247 16.8744 15.4937 17.2144Z" fill="#E06716"/>
<path d="M14.1472 17.0923C13.5061 17.222 13.1636 17.5468 13.1904 17.6805C13.2195 17.8225 13.6787 17.9758 14.3007 17.8503C14.9199 17.7252 15.2861 17.4039 15.2572 17.262C15.2334 17.1446 14.8253 16.9542 14.1472 17.0923ZM12.718 17.7763C12.6197 17.2907 13.1932 16.7935 14.0518 16.6194C14.848 16.4573 15.624 16.6441 15.7297 17.1664C15.8352 17.6863 15.198 18.161 14.3964 18.3235C13.6217 18.4805 12.8259 18.3097 12.718 17.7763Z" fill="#AD4A07"/>
<path d="M29.7465 31.6408C28.2614 37.923 22.8183 40.7349 17.8358 40.7349C12.8506 40.7349 7.41016 37.9205 5.92285 31.6408C8.42738 29.0483 12.8267 27.3289 17.8358 27.3289C22.8448 27.3289 27.2443 29.0483 29.7465 31.6408Z" fill="#FFD894"/>
<path d="M6.18814 31.7141C7.78884 38.1915 13.4503 40.4938 17.8352 40.4938C22.2213 40.4938 27.8825 38.1915 29.4803 31.7141C26.9063 29.1169 22.5664 27.5701 17.8352 27.5701C13.1052 27.5701 8.76419 29.1169 6.18814 31.7141ZM17.8352 40.9761C13.2456 40.9761 7.30996 38.5459 5.68761 31.6961C5.66874 31.6165 5.69181 31.5322 5.74892 31.473C8.40189 28.7269 12.9202 27.0876 17.8352 27.0876C22.7513 27.0876 27.2689 28.7269 29.9193 31.4732C29.9762 31.5322 29.9992 31.6162 29.9805 31.6961C28.3615 38.5457 22.4262 40.9761 17.8352 40.9761Z" fill="#F49004"/>
<path d="M11.9851 14.9859C10.7702 16.4497 9.02494 17.4627 7.15186 17.7954C7.81721 14.7688 8.48242 12.6492 9.4106 11.1828C9.53597 11.1417 9.66361 11.1056 9.79382 11.0743C10.8641 10.821 12.1948 11.0478 12.7034 12.0246C13.2001 12.9795 12.672 14.1564 11.9851 14.9859Z" fill="#F49004"/>
<path d="M9.56824 11.3862C8.7734 12.673 8.13764 14.5175 7.46823 17.4854C9.14356 17.1033 10.7062 16.1496 11.7997 14.8325C12.1011 14.4683 13.042 13.1978 12.4898 12.1362C12.0276 11.2483 10.7975 11.0849 9.84959 11.3094C9.75501 11.3321 9.66084 11.3579 9.56824 11.3862ZM7.15213 18.0366C7.08707 18.0366 7.02405 18.0105 6.97828 17.9627C6.92258 17.9047 6.89946 17.8225 6.91677 17.7439C7.64187 14.4456 8.32688 12.445 9.20728 11.054C9.23709 11.0066 9.28265 10.9714 9.33607 10.9539C9.46464 10.9117 9.59968 10.8736 9.73733 10.8401C10.8623 10.5741 12.3361 10.7965 12.9177 11.9134C13.3828 12.8079 13.1036 14.0141 12.1713 15.1401L12.171 15.1403C10.9282 16.6377 9.11426 17.6921 7.19442 18.033L7.15213 18.0366Z" fill="#F07800"/>
<path d="M24.6261 9.43016C24.4021 10.2597 23.9729 11.0266 23.3606 11.6247C22.3119 12.6447 20.7211 13.1077 19.3156 12.7027C17.913 12.295 16.7869 10.9855 16.7001 9.52666C16.6714 9.02746 16.7724 8.5259 16.9749 8.06759C17.2521 8.06032 17.539 8.05778 17.8356 8.05778C20.9937 8.05778 23.1004 8.3618 24.6261 9.43016Z" fill="#F49004"/>
<path d="M17.1377 8.30468C16.9859 8.69938 16.9181 9.11371 16.941 9.51242C17.0198 10.8383 18.0467 12.0827 19.3829 12.4709C20.6773 12.8434 22.1726 12.444 23.1926 11.4516C23.7204 10.936 24.1172 10.2749 24.346 9.5315C22.9929 8.6465 21.1405 8.29886 17.8356 8.29886C17.5968 8.29886 17.3642 8.3005 17.1377 8.30468ZM20.3714 13.0898C19.9912 13.0898 19.6132 13.039 19.249 12.9339C17.7234 12.4907 16.5505 11.0636 16.4598 9.5404C16.4295 9.01777 16.5314 8.47495 16.7546 7.96957C16.7922 7.88435 16.8758 7.82856 16.9688 7.82601C17.2482 7.81875 17.5372 7.81638 17.8358 7.81638C20.781 7.81638 23.0865 8.05698 24.7645 9.2322C24.8477 9.29035 24.8855 9.39466 24.859 9.49261C24.6176 10.3863 24.1577 11.183 23.5292 11.7969C22.6722 12.6306 21.5127 13.0898 20.3714 13.0898Z" fill="#F07800"/>
<path d="M17.1377 8.30468C16.9859 8.69938 16.9181 9.11371 16.941 9.51242C17.0198 10.8383 18.0467 12.0827 19.3829 12.4709C20.6773 12.8434 22.1726 12.444 23.1926 11.4516C23.7204 10.936 24.1172 10.2749 24.346 9.5315C22.9929 8.6465 21.1405 8.29886 17.8356 8.29886C17.5968 8.29886 17.3642 8.3005 17.1377 8.30468ZM20.3714 13.0898C19.9912 13.0898 19.6132 13.039 19.249 12.9339C17.7234 12.4907 16.5505 11.0636 16.4598 9.5404C16.4295 9.01777 16.5314 8.47495 16.7546 7.96957C16.7922 7.88435 16.8758 7.82856 16.9688 7.82601C17.2482 7.81875 17.5372 7.81638 17.8358 7.81638C20.781 7.81638 23.0865 8.05698 24.7645 9.2322C24.8477 9.29035 24.8855 9.39466 24.859 9.49261C24.6176 10.3863 24.1577 11.183 23.5292 11.7969C22.6722 12.6306 21.5127 13.0898 20.3714 13.0898Z" fill="#F07800"/>
<path d="M28.6154 18.2588C27.8948 18.2443 27.1811 18.0538 26.6171 17.6173C25.8819 17.0456 25.4792 15.999 25.8313 15.1382C26.0627 14.5667 26.5713 14.1544 27.1064 13.8552C27.2076 13.7998 27.3091 13.7468 27.4125 13.696C27.8441 14.9381 28.2297 16.443 28.6154 18.2588Z" fill="#F49004"/>
<path d="M27.2745 14.0385C27.2569 14.0479 27.2396 14.0574 27.2222 14.067C26.6251 14.4005 26.2317 14.7919 26.0548 15.2288C25.7636 15.9411 26.0691 16.8859 26.7652 17.4271C27.1773 17.746 27.7081 17.9417 28.3135 18.0001C27.9601 16.3689 27.626 15.0952 27.2745 14.0385ZM28.6154 18.5H28.6107C27.7731 18.4831 27.0329 18.2439 26.4695 17.8084C25.5945 17.128 25.2321 15.9668 25.6079 15.0471C25.8268 14.5066 26.2914 14.0347 26.9886 13.6447C27.0951 13.5867 27.1995 13.5318 27.3067 13.4793C27.3686 13.449 27.4402 13.447 27.5043 13.4731C27.5679 13.4995 27.6175 13.5518 27.64 13.6171C28.0538 14.8074 28.4383 16.2662 28.8509 18.2087C28.8661 18.2808 28.8478 18.3557 28.8009 18.4124C28.7555 18.4678 28.6872 18.5 28.6154 18.5Z" fill="#F07800"/>
<path d="M27.2745 14.0385C27.2569 14.0479 27.2396 14.0574 27.2222 14.067C26.6251 14.4005 26.2317 14.7919 26.0548 15.2288C25.7636 15.9411 26.0691 16.8859 26.7652 17.4271C27.1773 17.746 27.7081 17.9417 28.3135 18.0001C27.9601 16.3689 27.626 15.0952 27.2745 14.0385ZM28.6154 18.5H28.6107C27.7731 18.4831 27.0329 18.2439 26.4695 17.8084C25.5945 17.128 25.2321 15.9668 25.6079 15.0471C25.8268 14.5066 26.2914 14.0347 26.9886 13.6447C27.0951 13.5867 27.1995 13.5318 27.3067 13.4793C27.3686 13.449 27.4402 13.447 27.5043 13.4731C27.5679 13.4995 27.6175 13.5518 27.64 13.6171C28.0538 14.8074 28.4383 16.2662 28.8509 18.2087C28.8661 18.2808 28.8478 18.3557 28.8009 18.4124C28.7555 18.4678 28.6872 18.5 28.6154 18.5Z" fill="#F07800"/>
<path d="M29.8812 24.9238C29.8538 24.7494 29.824 24.5738 29.792 24.3965C29.3844 22.1389 29.0231 20.185 28.666 18.4948C28.6689 18.4941 28.672 18.4935 28.6749 18.4926C29.0288 20.1894 29.3859 22.1453 29.7922 24.3963C29.824 24.5718 29.8536 24.7481 29.8812 24.9238Z" fill="white"/>
<path d="M29.809 31.3599C29.4795 31.0288 29.1224 30.7138 28.7405 30.4167C28.825 28.8864 28.6997 27.3167 28.4205 25.768C28.0445 23.6847 27.515 20.6763 26.8921 18.0805C27.3838 18.3431 27.9687 18.4867 28.6108 18.4996H28.6156C28.6326 18.4996 28.6495 18.4978 28.6661 18.4943C29.0232 20.1845 29.3845 22.1384 29.7921 24.396C29.8241 24.5734 29.8538 24.7489 29.8813 24.9234C30.2255 27.1204 30.2431 29.316 29.809 31.3599Z" fill="#FFD486"/>
<path d="M26.7544 36.8394C27.9079 35.0855 28.5075 33.0877 28.698 31.0009C28.9741 31.2288 29.2355 31.4669 29.4807 31.7142C28.9521 33.8569 27.9791 35.5426 26.7544 36.8394Z" fill="#FFE5B6"/>
<path d="M25.981 37.8774C26.2623 37.5425 26.5197 37.196 26.754 36.8394C27.9787 35.5426 28.9518 33.857 29.4804 31.7143C29.2352 31.4669 28.9738 31.2289 28.6977 31.001C28.7155 30.8071 28.7296 30.6126 28.7404 30.4173C29.1222 30.7144 29.4793 31.0293 29.8088 31.3604C29.2797 33.8515 28.0792 36.1162 25.981 37.8774Z" fill="#F8B455"/>
<path d="M27.3329 13.4683C27.1966 13.0901 27.0554 12.7373 26.9077 12.4082C26.9104 12.4077 26.9132 12.4071 26.9157 12.4066C27.0658 12.7358 27.2084 13.0881 27.3454 13.4643C27.3413 13.4654 27.3371 13.4668 27.3329 13.4683Z" fill="white"/>
<path d="M26.6941 11.9575C26.6067 11.7836 26.5171 11.6172 26.4248 11.4577C26.4248 11.4575 26.4248 11.4573 26.425 11.4571C26.5191 11.6168 26.6103 11.7833 26.699 11.9568C26.6974 11.957 26.6957 11.9573 26.6941 11.9575Z" fill="#FFD486"/>
<path d="M26.6937 11.9575V11.9573C26.6953 11.9572 26.697 11.9568 26.6986 11.9566C26.6971 11.957 26.6953 11.9572 26.6937 11.9575ZM26.4245 11.4574C26.414 11.4394 26.4036 11.4216 26.3931 11.4036C26.4036 11.4213 26.4141 11.4391 26.4247 11.4569C26.4245 11.4571 26.4245 11.4572 26.4245 11.4574Z" fill="#F5A352"/>
<path d="M26.9077 12.4082C26.8379 12.2527 26.7667 12.1026 26.6938 11.9576C26.6955 11.9572 26.6973 11.957 26.6988 11.9567C26.7727 12.1017 26.8452 12.2518 26.9157 12.4066C26.9132 12.4071 26.9104 12.4077 26.9077 12.4082Z" fill="#D98A60"/>
<path d="M25.8667 14.585C25.3307 13.1666 24.7147 12.1195 23.9268 11.3561C24.3316 10.8469 24.6392 10.249 24.8295 9.59681C25.4366 10.0655 25.947 10.6592 26.393 11.4035C26.4035 11.4215 26.4139 11.4393 26.4244 11.4573C26.5167 11.6169 26.6062 11.7833 26.6936 11.9572V11.9574C26.7664 12.1024 26.8377 12.2525 26.9074 12.4081C27.0551 12.7372 27.1962 13.0901 27.3325 13.4683C27.3237 13.4714 27.3152 13.475 27.3067 13.479C27.1995 13.5315 27.095 13.5864 26.9886 13.6444C26.498 13.9189 26.1223 14.2339 25.8667 14.585Z" fill="#FFD486"/>
<path d="M9.6665 10.8042C9.73421 10.7106 9.80334 10.6198 9.87383 10.5322C9.80342 10.6198 9.7345 10.7103 9.66692 10.8038C9.66678 10.804 9.66663 10.804 9.6665 10.8042ZM9.87893 10.5258C9.87915 10.5257 9.87915 10.5257 9.87928 10.5253C9.87922 10.5255 9.87901 10.5257 9.87893 10.5258Z" fill="#F8B455"/>
<path d="M14.2642 8.26953V8.26935C14.9924 8.15941 15.8031 8.0989 16.7108 8.07345C15.8031 8.0989 14.9924 8.15959 14.2642 8.26953Z" fill="white"/>
<path d="M12.8525 8.57715C12.8544 8.5766 12.8564 8.57606 12.8582 8.57551C12.8564 8.57587 12.8544 8.5766 12.8525 8.57715ZM12.862 8.57424C13.1544 8.48701 13.4623 8.41305 13.7884 8.35054C13.4627 8.41305 13.1541 8.48719 12.862 8.57424Z" fill="#BD7D5D"/>
<path d="M13.7886 8.35059C13.943 8.32096 14.1016 8.29388 14.2641 8.26935V8.26953C14.1016 8.29407 13.9432 8.32096 13.7886 8.35059Z" fill="#9B6A59"/>
<path d="M9.6665 10.8042C9.73406 10.7106 9.80296 10.6201 9.87334 10.5325C9.87503 10.5303 9.87674 10.5282 9.87845 10.5262C9.87852 10.526 9.87874 10.5258 9.87879 10.5256C10.6554 9.56193 11.6076 8.95043 12.8523 8.57753C12.8541 8.57698 12.8561 8.57626 12.8579 8.57589C12.859 8.57553 12.8606 8.57498 12.8617 8.57462C13.1538 8.48757 13.4624 8.41343 13.7881 8.35092C13.9427 8.3213 14.1011 8.2944 14.2637 8.26987C14.9919 8.15992 15.8026 8.09923 16.7103 8.07379C16.5412 8.49139 16.4538 8.93135 16.4543 9.36221C16.4543 9.38493 16.4545 9.40746 16.4551 9.43C14.151 9.43036 11.4706 9.54031 9.6665 10.8042Z" fill="#FFD486"/>
<path d="M23.5655 11.0361C23.4646 10.9544 23.361 10.8766 23.2546 10.8024C21.8063 9.78841 19.8345 9.46312 16.9376 9.43259C16.9369 9.40933 16.9365 9.38607 16.9365 9.36281C16.9362 9.01099 17.0046 8.65045 17.1376 8.30518C17.3641 8.301 17.5966 8.29936 17.8355 8.29936C21.1404 8.29936 22.9928 8.647 24.3459 9.532C24.1746 10.0883 23.9094 10.5985 23.5655 11.0361Z" fill="#F8B455"/>
<path d="M23.9268 11.3564C23.8102 11.2434 23.6898 11.1367 23.5655 11.0359C23.9094 10.5983 24.1746 10.088 24.3459 9.53175C22.9928 8.64675 21.1404 8.29911 17.8355 8.29911C17.5966 8.29911 17.3641 8.30075 17.1376 8.30493C17.0046 8.65021 16.9361 9.01075 16.9365 9.36257C16.9365 9.38583 16.9369 9.40908 16.9376 9.43234C16.7823 9.43089 16.6246 9.42998 16.464 9.42998C16.4611 9.42998 16.4582 9.42998 16.4553 9.42998C16.4548 9.40745 16.4546 9.38492 16.4546 9.3622C16.454 8.93133 16.5414 8.49138 16.7105 8.07378C16.7979 8.07141 16.8862 8.06923 16.9752 8.06741C17.377 8.05687 17.7632 8.05142 18.1346 8.05142C21.2617 8.05142 23.337 8.44504 24.8296 9.59717C24.6392 10.2494 24.3317 10.8473 23.9268 11.3564Z" fill="#F5A352"/>
<path d="M28.3133 18C27.7079 17.9417 27.1771 17.7459 26.765 17.427C26.7505 17.4156 26.7359 17.4041 26.7216 17.3923C26.5156 16.5829 26.3002 15.8286 26.0776 15.1747C26.2644 14.7595 26.6496 14.3866 27.222 14.0669C27.2395 14.0573 27.2567 14.0479 27.2743 14.0384C27.6258 15.0951 27.9599 16.3688 28.3133 18Z" fill="#F8B455"/>
<path d="M28.6154 18.5H28.6107C27.9685 18.4871 27.3836 18.3435 26.8919 18.0809C26.836 17.8478 26.7791 17.6179 26.7217 17.3924C26.7361 17.4042 26.7506 17.4156 26.7651 17.4271C27.1773 17.746 27.7081 17.9417 28.3135 18.0001C27.96 16.3689 27.626 15.0952 27.2745 14.0385C27.2568 14.0479 27.2396 14.0574 27.2221 14.067C26.6498 14.3867 26.2645 14.7596 26.0778 15.1748C26.0656 15.139 26.0534 15.1036 26.0411 15.0683C25.9839 14.9026 25.9257 14.7418 25.8667 14.5853C26.1223 14.2342 26.4979 13.9193 26.9886 13.6447C27.095 13.5867 27.1994 13.5318 27.3066 13.4793C27.3191 13.4733 27.3319 13.4684 27.3449 13.4646C27.8352 14.8112 28.2525 16.4669 28.6748 18.4925C28.6719 18.4935 28.6688 18.494 28.6659 18.4947C28.6493 18.4982 28.6325 18.5 28.6154 18.5Z" fill="#F5A352"/>
<path d="M17.8356 8.2991C17.5415 8.2991 17.2565 8.30147 16.9815 8.30873C12.8919 8.39178 10.9646 9.17774 9.61449 11.3125C8.76585 12.6532 8.09973 14.6075 7.3874 17.8478C6.99154 19.652 6.59319 21.7876 6.11673 24.4391C5.64367 27.0656 5.65742 29.4698 6.15731 31.5855C7.71464 38.1608 13.4217 40.494 17.8357 40.494C22.2505 40.494 27.9575 38.1608 29.5116 31.5855V31.5853C30.0137 29.4709 30.0284 27.0671 29.5549 24.4395C29.0969 21.9025 28.7406 19.9918 28.3802 18.3098C27.9716 16.3869 27.5922 14.9466 27.1851 13.7756C26.4698 11.7075 25.638 10.4289 24.4886 9.62823C23.1224 8.67164 21.2574 8.2991 17.8356 8.2991ZM17.8356 40.9761C13.2459 40.9761 7.31028 38.5459 5.68793 31.6963C5.17266 29.5158 5.15718 27.0453 5.64181 24.3534C6.11935 21.6966 6.51882 19.5557 6.91647 17.7439C7.64164 14.4456 8.32665 12.445 9.207 11.054C10.8524 8.45284 13.2995 7.90076 16.9702 7.82626C17.2479 7.81899 17.5369 7.81662 17.8356 7.81662C20.781 7.81662 23.0862 8.05722 24.7643 9.23244C26.0026 10.0945 26.8898 11.4471 27.6405 13.6171C28.0541 14.807 28.4388 16.2661 28.8514 18.2085C29.2132 19.8966 29.5703 21.8114 30.0293 24.3534C30.5145 27.0467 30.498 29.5171 29.9808 31.6963C28.3618 38.5457 22.4265 40.9761 17.8356 40.9761Z" fill="#C75314"/>
<path d="M19.1576 29.9292C19.0887 30.2692 19.6013 30.6595 20.3025 30.8018C21.0038 30.9438 21.628 30.7833 21.6968 30.4435C21.7655 30.1035 21.2527 29.7128 20.5515 29.5708C19.8504 29.4287 19.2262 29.5892 19.1576 29.9292Z" fill="#FFBF4D"/>
<path d="M20.0524 29.7605C19.9154 29.7605 19.7873 29.7747 19.6776 29.8029C19.4965 29.8494 19.4048 29.9239 19.3939 29.9771C19.3832 30.0304 19.4388 30.1347 19.5875 30.2479C19.7726 30.3889 20.0509 30.5049 20.3504 30.5654C20.6502 30.6261 20.9515 30.6281 21.1769 30.5695C21.358 30.523 21.45 30.4487 21.4607 30.3955C21.4877 30.2617 21.145 29.937 20.5041 29.8072C20.3503 29.7763 20.1962 29.7605 20.0524 29.7605ZM20.8015 31.0947C20.626 31.0947 20.4409 31.076 20.2551 31.0382C19.8807 30.9624 19.5399 30.8181 19.2954 30.6317C19.0019 30.4078 18.8688 30.1414 18.9214 29.8815C18.9741 29.6215 19.1999 29.4278 19.5576 29.3358C19.8555 29.2589 20.2257 29.2586 20.5997 29.3344C21.4583 29.5085 22.0316 30.0055 21.9333 30.4912C21.8808 30.7513 21.655 30.9448 21.2972 31.0369C21.1471 31.0756 20.9789 31.0947 20.8015 31.0947Z" fill="#F49004"/>
<path d="M16.5132 29.9292C16.5821 30.2692 16.0694 30.6595 15.3681 30.8018C14.667 30.9438 14.0428 30.7833 13.974 30.4435C13.9051 30.1035 14.4179 29.7128 15.1193 29.5708C15.8202 29.4287 16.4444 29.5892 16.5132 29.9292Z" fill="#FFBF4D"/>
<path d="M15.616 29.7603C15.4818 29.7603 15.3312 29.7741 15.167 29.8073C14.526 29.9371 14.1834 30.2618 14.2103 30.3956C14.2377 30.5291 14.6793 30.6954 15.3205 30.5653C15.9615 30.4356 16.3043 30.1108 16.2774 29.9771C16.2569 29.8777 16.0068 29.7603 15.616 29.7603ZM14.8698 31.0952C14.268 31.0952 13.8143 30.8691 13.738 30.4912C13.6397 30.0056 14.2128 29.5084 15.0715 29.3343C15.9303 29.1606 16.6514 29.3957 16.7497 29.8815C16.848 30.367 16.2747 30.8641 15.4161 31.0382C15.2257 31.0769 15.0415 31.0952 14.8698 31.0952Z" fill="#F49004"/>
<path d="M21.4468 24.3208C21.3304 24.3208 21.2279 24.2365 21.2089 24.118C20.8888 22.1281 21.6387 20.5684 23.2152 19.9452C24.1365 19.5809 25.0536 19.6737 25.8667 20.2129C26.9326 20.9202 27.6713 22.338 27.704 23.7413C27.7071 23.8743 27.6019 23.9848 27.4688 23.9881C27.3373 23.9864 27.2254 23.8856 27.2223 23.7525C27.1927 22.4999 26.5409 21.2388 25.6002 20.6149C24.9248 20.1664 24.1612 20.0904 23.3925 20.3937C22.0419 20.9276 21.4034 22.2909 21.6853 24.0409C21.7064 24.1725 21.617 24.2963 21.4855 24.3173L21.4468 24.3208Z" fill="black"/>
<path d="M14.2225 24.3208L14.1838 24.3177C14.0527 24.2965 13.963 24.1729 13.9844 24.0413C14.2659 22.2913 13.6276 20.928 12.2769 20.3941C11.5082 20.0908 10.7448 20.1668 10.0693 20.6153C9.12845 21.2391 8.47658 22.5003 8.44713 23.7529C8.44408 23.8859 8.32799 23.987 8.20064 23.9884C8.06745 23.9852 7.96215 23.8747 7.96541 23.7416C7.99834 22.3386 8.73684 20.9206 9.80296 20.2133C10.6158 19.6737 11.533 19.5812 12.4542 19.9456C14.0307 20.5687 14.7805 22.1285 14.4605 24.1184C14.441 24.2365 14.3386 24.3208 14.2225 24.3208Z" fill="black"/>
<path d="M18.0738 34.7876C16.7806 34.7876 15.4837 34.3071 14.5044 33.4626C14.4038 33.3756 14.3925 33.2233 14.4792 33.1223C14.5662 33.0212 14.7186 33.0107 14.819 33.097C15.73 33.8826 16.951 34.328 18.1448 34.3048C19.3475 34.2864 20.546 33.8096 21.4324 32.9967C21.5307 32.9066 21.6831 32.9135 21.773 33.0116C21.8631 33.1097 21.8564 33.2624 21.7581 33.3523C20.7856 34.2439 19.4714 34.7667 18.1519 34.7871C18.1261 34.7876 18.0999 34.7876 18.0738 34.7876Z" fill="black"/>
<path d="M7.18951 70.0257C4.84939 69.4258 6.94706 64.2875 10.2022 65.2162C12.6196 65.9058 19.9458 68.6324 19.9458 68.6324L21.6264 69.3611L21.2244 71.979C21.2244 71.979 20.3696 71.9325 19.1019 71.8391C16.4351 71.6437 9.63437 70.6528 7.18951 70.0257Z" fill="#F49004"/>
<path d="M7.24912 69.7924C9.67 70.413 16.391 71.3988 19.1195 71.5987C20.0008 71.6635 20.6877 71.7061 21.0195 71.7258L21.3601 69.5086L19.8499 68.8538C19.7883 68.8313 12.5166 66.1274 10.1357 65.4483C8.87615 65.0883 7.95734 65.7559 7.52181 66.1853C6.71128 66.9849 6.26773 68.2091 6.49018 69.0327C6.5988 69.4357 6.85425 69.6912 7.24912 69.7924ZM21.2242 72.2202L21.211 72.2197C21.2024 72.2191 20.3394 72.1719 19.0839 72.0796C16.3383 71.8784 9.5698 70.8851 7.12934 70.2597H7.12921C6.56972 70.1163 6.1774 69.725 6.02442 69.1584C5.75614 68.1638 6.24332 66.7689 7.1832 65.8419C8.06399 64.9723 9.15932 64.6674 10.2679 64.9842C12.6668 65.6686 19.9563 68.3788 20.0295 68.4061L21.7221 69.1396C21.8226 69.1834 21.8811 69.2892 21.8644 69.3975L21.4622 72.0156C21.4442 72.1339 21.3427 72.2202 21.2242 72.2202Z" fill="#C75314"/>
<path d="M19.9455 68.6324L21.6261 69.3611L21.2241 71.979C21.2241 71.979 20.3693 71.9325 19.1016 71.8391L19.9455 68.6324Z" fill="#9E3F10"/>
<path d="M19.4084 71.6198C20.1502 71.6729 20.7244 71.7083 21.0191 71.7258L21.3597 69.5086L20.107 68.9656L19.4084 71.6198ZM21.224 72.2202L21.2107 72.2197C21.2022 72.2191 20.3392 72.1719 19.0836 72.0796C19.0122 72.0743 18.9468 72.0376 18.9051 71.9791C18.8635 71.9209 18.8502 71.8472 18.8682 71.7778L19.7121 68.5709C19.7301 68.5031 19.7768 68.446 19.84 68.4155C19.903 68.3844 19.9766 68.383 20.0413 68.411L21.7222 69.1396C21.8225 69.1836 21.8812 69.2894 21.8643 69.3979L21.4621 72.0158C21.4439 72.1339 21.3424 72.2202 21.224 72.2202Z" fill="#6B240A"/>
<path d="M29.0805 70.8054C31.4207 70.2056 29.323 65.0673 26.0679 65.9959C23.6503 66.6856 16.3242 69.4119 16.3242 69.4119L14.6436 70.1408L15.0455 72.7588C15.0455 72.7588 15.9004 72.7123 17.1681 72.6189C19.835 72.4235 26.6355 71.4326 29.0805 70.8054Z" fill="#F49004"/>
<path d="M14.9099 70.288L15.2505 72.5055C15.582 72.4859 16.2688 72.4434 17.1502 72.3783C19.8787 72.1786 26.5996 71.1928 29.0206 70.572C29.4155 70.4708 29.6709 70.2151 29.7797 69.8126C30.0019 68.989 29.5583 67.7648 28.7478 66.9651C28.3122 66.5354 27.3938 65.8684 26.1339 66.2281C23.7529 66.9073 16.4814 69.611 16.408 69.6385L14.9099 70.288ZM15.0453 73C14.927 73 14.8253 72.9135 14.8071 72.7953L14.4051 70.1771C14.3886 70.069 14.4469 69.9632 14.5477 69.9194L16.2283 69.1907C16.3133 69.1587 23.6026 66.4485 26.0017 65.7637C27.1099 65.4477 28.2056 65.7522 29.0864 66.6215C30.026 67.5486 30.5136 68.9434 30.2453 69.9382C30.0922 70.5048 29.7 70.8956 29.1403 71.0392C26.6997 71.6649 19.9312 72.6583 17.1856 72.8592C15.9301 72.9517 15.067 72.9991 15.0587 72.9994L15.0453 73Z" fill="#C75314"/>
<path d="M16.3242 69.4119L14.6436 70.1408L15.0455 72.7588C15.0455 72.7588 15.9004 72.7123 17.1681 72.6189L16.3242 69.4119Z" fill="#9E3F10"/>
<path d="M14.9099 70.288L15.2505 72.5055C15.545 72.488 16.1191 72.4525 16.861 72.3992L16.1624 69.7451L14.9099 70.288ZM15.0453 73C14.927 73 14.8253 72.9135 14.8071 72.7953L14.4051 70.1771C14.3886 70.069 14.4469 69.9632 14.5477 69.9194L16.2283 69.1907C16.2926 69.1627 16.366 69.164 16.4292 69.1952C16.4926 69.2259 16.5391 69.2828 16.5571 69.3506L17.4012 72.5573C17.4192 72.6268 17.4058 72.7005 17.364 72.7589C17.3224 72.8172 17.2572 72.8541 17.1858 72.8592C15.9299 72.9517 15.0669 72.9991 15.0587 72.9994L15.0453 73Z" fill="#6B240A"/>
</svg>
