<svg width="74" height="151" viewBox="0 0 74 151" fill="none" xmlns="http://www.w3.org/2000/svg">
<path opacity="0.2" d="M29.856 150.297C13.4825 150.297 0.20911 147.058 0.20911 143.063C0.20911 139.068 13.4825 135.829 29.856 135.829C46.2296 135.829 59.5029 139.068 59.5029 143.063C59.5029 147.058 46.2296 150.297 29.856 150.297Z" fill="black"/>
<path fill-rule="evenodd" clip-rule="evenodd" d="M7.76929 112.903C3.89548 112.852 0.785366 109.05 0.846123 104.439C0.906879 99.8284 4.11621 96.1099 7.99002 96.1607C11.8638 96.2122 14.9739 100.014 14.9132 104.624C14.8524 109.235 11.6431 112.954 7.76929 112.903Z" fill="white"/>
<path opacity="0.15" fill-rule="evenodd" clip-rule="evenodd" d="M8.5968 113.738C5.96658 113.637 3.51323 110.14 2.90336 105.492C2.29041 100.822 4.5115 96.4443 8.45145 96.4966C12.3922 96.5489 15.9245 100.628 15.863 105.318C15.8015 110.007 12.5352 113.888 8.5968 113.738Z" fill="black"/>
<path fill-rule="evenodd" clip-rule="evenodd" d="M33.9109 76.1094C42.8067 80.9714 48.7908 101.339 46.1145 112.391C43.4381 123.443 33.9931 127.238 22.2202 124.387C10.4473 121.536 3.51718 114.512 6.19355 103.461C8.86992 92.4083 25.5172 77.2191 33.9109 76.1094Z" fill="white"/>
<path fill-rule="evenodd" clip-rule="evenodd" d="M52.8043 97.6961C54.4701 98.6105 56.1782 99.5803 58.2317 99.9795C62.9045 100.888 64.8103 103.38 63.1622 106.116C62.1985 107.716 60.5535 108.432 55.4822 105.38C54.0925 104.543 51.8614 103.437 49.7819 101.5C47.4254 99.3043 50.1826 96.2564 52.8043 97.6961Z" fill="white"/>
<path fill-rule="evenodd" clip-rule="evenodd" d="M57.3927 99.7815C59.8114 99.7992 62.5769 98.4494 63.043 99.9553C63.3222 100.857 60.9381 101.163 59.0362 101.56C54.5909 102.486 54.9732 99.7638 57.3927 99.7815Z" fill="white"/>
<path fill-rule="evenodd" clip-rule="evenodd" d="M40.726 83.3586C42.8448 85.8757 50.7831 95.8552 57.5679 98.7715C56.3366 100.713 55.1368 103.608 53.6264 104.884C47.9845 101.812 38.9825 95.8544 33.6959 90.4409C28.6854 85.3105 36.6115 78.4688 40.726 83.3586Z" fill="#E87AB6"/>
<mask id="mask0_372_5218" style="mask-type:luminance" maskUnits="userSpaceOnUse" x="32" y="81" width="26" height="24">
<path d="M40.726 83.3586C42.8448 85.8757 50.7831 95.8552 57.5679 98.7715C56.3366 100.713 55.1368 103.608 53.6264 104.884C47.9845 101.812 38.9825 95.8544 33.6959 90.4409C28.6854 85.3105 36.6115 78.4688 40.726 83.3586Z" fill="white"/>
</mask>
<g mask="url(#mask0_372_5218)">
<path opacity="0.7" d="M39.3915 117.642C47.4375 108.232 55.3374 97.548 63.4072 80.5415" stroke="white" stroke-width="2.3998" stroke-miterlimit="22.9256"/>
<path opacity="0.7" d="M33.8524 114.224C41.8984 104.814 49.7983 94.13 57.8682 77.1235" stroke="white" stroke-width="2.3998" stroke-miterlimit="22.9256"/>
<path opacity="0.7" d="M28.3138 110.806C36.3598 101.395 44.259 90.7113 52.3296 73.7056" stroke="white" stroke-width="2.3998" stroke-miterlimit="22.9256"/>
<path opacity="0.7" d="M22.7757 107.388C30.8217 97.9772 38.7216 87.2933 46.7915 70.2876" stroke="white" stroke-width="2.3998" stroke-miterlimit="22.9256"/>
</g>
<path fill-rule="evenodd" clip-rule="evenodd" d="M59.1937 83.9295C53.218 80.6863 44.3852 85.4038 40.1415 93.2222C35.8977 101.041 37.8496 109 43.8253 112.244C49.801 115.487 57.5386 112.787 61.7824 104.968C66.0261 97.1498 65.1693 87.1734 59.1937 83.9295Z" fill="#FEDC78"/>
<path fill-rule="evenodd" clip-rule="evenodd" d="M33.9104 76.1094C42.8062 80.9714 50.1116 102.395 47.4353 113.446C47.4206 113.506 47.4045 113.566 47.3891 113.625C32.9506 112.393 18.7874 108.721 4.76182 103.303C4.77567 103.243 4.78795 103.183 4.80256 103.123C7.4797 92.0714 25.5167 77.2191 33.9104 76.1094Z" fill="#E87AB6"/>
<mask id="mask1_372_5218" style="mask-type:luminance" maskUnits="userSpaceOnUse" x="4" y="76" width="44" height="38">
<path d="M33.9104 76.1094C42.8062 80.9714 50.1116 102.395 47.4353 113.446C47.4206 113.506 47.4045 113.566 47.3891 113.625C32.9506 112.393 18.7874 108.721 4.76182 103.303C4.77567 103.243 4.78795 103.183 4.80256 103.123C7.4797 92.0714 25.5167 77.2191 33.9104 76.1094Z" fill="white"/>
</mask>
<g mask="url(#mask1_372_5218)">
<path opacity="0.7" d="M5.99722 97.5142C17.4387 102.245 30.0461 106.441 48.7168 108.839" stroke="white" stroke-width="2.3998" stroke-miterlimit="22.9256"/>
<path opacity="0.7" d="M7.52945 91.188C18.9709 95.9185 31.5783 100.115 50.249 102.513" stroke="white" stroke-width="2.3998" stroke-miterlimit="22.9256"/>
<path opacity="0.7" d="M9.06021 84.8623C20.5017 89.5929 33.1091 93.7889 51.7798 96.1869" stroke="white" stroke-width="2.3998" stroke-miterlimit="22.9256"/>
<path opacity="0.7" d="M10.5924 78.5376C22.0339 83.2682 34.6413 87.4642 53.312 89.8621" stroke="white" stroke-width="2.3998" stroke-miterlimit="22.9256"/>
</g>
<path fill-rule="evenodd" clip-rule="evenodd" d="M17.8925 88.1506C15.6637 88.709 11.613 89.245 5.90339 91.2776C0.674482 93.1396 -1.90344 87.0685 1.62429 85.1481C8.2383 81.5481 16.2605 78.0358 21.4594 77.7858C29.5685 77.3959 27.9011 85.6427 17.8925 88.1506Z" fill="#E87AB6"/>
<mask id="mask2_372_5218" style="mask-type:luminance" maskUnits="userSpaceOnUse" x="0" y="77" width="27" height="15">
<path d="M17.8925 88.1506C15.6637 88.709 11.613 89.245 5.90339 91.2776C0.674482 93.1396 -1.90344 87.0685 1.62429 85.1481C8.2383 81.5481 16.2605 78.0358 21.4594 77.7858C29.5685 77.3959 27.9011 85.6427 17.8925 88.1506Z" fill="white"/>
</mask>
<g mask="url(#mask2_372_5218)">
<path opacity="0.7" d="M12.2197 107.977C6.3048 97.1005 0.796704 85.0076 -3.5647 66.6968" stroke="white" stroke-width="2.3998" stroke-miterlimit="22.9256"/>
<path opacity="0.7" d="M18.3477 105.783C12.432 94.9071 6.92388 82.8142 2.56248 64.5034" stroke="white" stroke-width="2.3998" stroke-miterlimit="22.9256"/>
<path opacity="0.7" d="M24.4756 103.591C18.5599 92.7139 13.0526 80.6226 8.69116 62.311" stroke="white" stroke-width="2.3998" stroke-miterlimit="22.9256"/>
<path opacity="0.7" d="M30.6035 101.397C24.6878 90.5212 19.1797 78.429 14.8191 60.1167" stroke="white" stroke-width="2.3998" stroke-miterlimit="22.9256"/>
</g>
<path fill-rule="evenodd" clip-rule="evenodd" d="M27.2113 83.9919C22.0301 79.589 12.4159 82.39 6.65556 89.1686C0.89522 95.9472 1.16825 104.138 6.34949 108.541C11.5307 112.944 19.6575 111.892 25.4186 105.113C31.1797 98.3336 32.3925 88.3949 27.2113 83.9919Z" fill="#14DBDE"/>
<path fill-rule="evenodd" clip-rule="evenodd" d="M8.12542 91.0636C9.08599 92.7033 10.0542 94.4122 11.6116 95.808C15.1563 98.9858 15.5131 102.103 12.6945 103.605C11.0464 104.483 9.26673 104.254 6.48115 99.032C5.71746 97.6015 4.37081 95.5058 3.57944 92.7764C2.68347 89.6839 6.61343 88.4834 8.12542 91.0636Z" fill="white"/>
<path fill-rule="evenodd" clip-rule="evenodd" d="M10.9922 95.2075C13.0594 96.4641 16.125 96.7248 15.7527 98.256C15.5297 99.1728 13.3263 98.213 11.4905 97.577C7.20066 96.0911 8.92491 93.9508 10.9922 95.2075Z" fill="white"/>
<path fill-rule="evenodd" clip-rule="evenodd" d="M6.65028 86.8442C9.22436 89.9112 9.98496 91.9123 11.3662 94.5464C9.38816 95.6531 7.35935 97.3635 5.22057 98.3072C3.58091 95.5301 1.32522 93.099 0.214684 88.6392C-0.820486 84.4846 4.23309 83.9632 6.65028 86.8442Z" fill="#E87AB6"/>
<mask id="mask3_372_5218" style="mask-type:luminance" maskUnits="userSpaceOnUse" x="0" y="85" width="12" height="14">
<path d="M6.65028 86.8442C9.22436 89.9112 9.98496 91.9123 11.3662 94.5464C9.38816 95.6531 7.35935 97.3635 5.22057 98.3072C3.58091 95.5301 1.32522 93.099 0.214684 88.6392C-0.820486 84.4846 4.23309 83.9632 6.65028 86.8442Z" fill="white"/>
</mask>
<g mask="url(#mask3_372_5218)">
<path opacity="0.7" d="M-17.8277 103.711C-6.24316 99.3425 5.82741 93.7875 21.0942 82.7744" stroke="white" stroke-width="2.3998" stroke-miterlimit="22.9256"/>
<path opacity="0.7" d="M-21.9111 95.7251C-10.0943 93.2971 4.68264 90.1247 19.2065 78.2603" stroke="white" stroke-width="2.3998" stroke-miterlimit="22.9256"/>
<path opacity="0.7" d="M-22.706 88.4286C-9.31265 86.2621 4.33603 83.5703 16.4812 75.0244" stroke="white" stroke-width="2.3998" stroke-miterlimit="22.9256"/>
</g>
<path fill-rule="evenodd" clip-rule="evenodd" d="M22.7722 123.626C19.1199 120.824 9.12351 125.345 9.93488 128.56C10.4763 130.703 16.9434 134.566 15.586 138.148C13.6095 143.364 4.8021 136.695 2.40107 133.445C0.489923 130.858 -0.607538 128.635 0.763716 127.448C7.80071 121.347 17.601 117.529 15.9529 113.781C20.4427 110.696 23.4859 118.472 22.7722 123.626Z" fill="white"/>
<path fill-rule="evenodd" clip-rule="evenodd" d="M40.7236 0.301397C54.9706 4.88198 35.8184 32.0033 33.8019 43.2202C32.7175 49.2505 28.2892 47.3709 25.9236 40.7799C21.0446 27.1843 29.3528 -3.354 40.7236 0.301397Z" fill="white"/>
<path fill-rule="evenodd" clip-rule="evenodd" d="M39.1898 8.41788C47.2889 11.1812 34.2946 31.913 32.8288 42.3324C32.3581 45.6794 29.531 44.8395 29.0311 41.5479C27.353 30.5018 31.256 5.71152 39.1898 8.41788Z" fill="#FCDBED"/>
<path fill-rule="evenodd" clip-rule="evenodd" d="M70.8899 10.4338C81.6869 20.7963 52.5821 36.7753 45.852 45.9733C42.2343 50.9177 39.0772 47.2869 39.8417 40.326C41.4168 25.9675 62.2732 2.16323 70.8899 10.4338Z" fill="white"/>
<path fill-rule="evenodd" clip-rule="evenodd" d="M65.9532 17.0564C72.0212 23.0913 51.2532 36.027 45.3675 44.7483C43.4763 47.55 41.3045 45.5558 42.2981 42.3788C45.6321 31.7156 60.0091 11.1453 65.9532 17.0564Z" fill="#FCDBED"/>
<path fill-rule="evenodd" clip-rule="evenodd" d="M37.8968 40.1732C51.2494 41.8967 59.593 56.2314 59.0908 66.4093C58.5886 76.5872 48.9999 83.2843 35.4581 82.2068C20.8995 81.0486 8.76898 72.0504 11.2415 60.2329C13.7141 48.4161 24.5434 38.4497 37.8968 40.1732Z" fill="white"/>
<path fill-rule="evenodd" clip-rule="evenodd" d="M45.6812 63.0528C45.4305 64.9939 43.2971 65.7522 42.1042 65.5984C40.9114 65.4438 38.8964 64.1502 39.1472 62.2091C39.4025 60.228 45.9365 61.0732 45.6812 63.0528Z" fill="#424B54"/>
<path fill-rule="evenodd" clip-rule="evenodd" d="M53.6339 63.5691C56.208 64.6304 57.8115 66.6608 57.217 68.1036C56.6217 69.5463 54.053 69.8563 51.479 68.795C48.9049 67.7337 47.3014 65.7033 47.8959 64.2605C48.4911 62.8177 51.0598 62.5078 53.6339 63.5691Z" fill="#FCDBED"/>
<path fill-rule="evenodd" clip-rule="evenodd" d="M31.3233 60.6891C28.5639 61.0621 26.4974 62.6187 26.7066 64.1653C26.9158 65.7119 29.3222 66.664 32.0808 66.291C34.8403 65.918 36.9068 64.3614 36.6976 62.8148C36.4876 61.2682 34.082 60.3168 31.3233 60.6891Z" fill="#FCDBED"/>
<path fill-rule="evenodd" clip-rule="evenodd" d="M49.6147 57.8132C50.4607 57.9224 51.0582 58.6968 50.949 59.5428C50.8398 60.3888 50.0654 60.9864 49.2194 60.8772C48.3734 60.7679 47.7758 59.9935 47.8851 59.1475C47.9935 58.3015 48.7679 57.704 49.6147 57.8132Z" fill="#424B54"/>
<path fill-rule="evenodd" clip-rule="evenodd" d="M34.2338 56.0667C35.0282 56.169 35.5889 56.8958 35.4858 57.6902C35.3835 58.4847 34.656 59.0454 33.8623 58.9423C33.0679 58.84 32.5072 58.1125 32.6103 57.3188C32.7126 56.5251 33.4393 55.9644 34.2338 56.0667Z" fill="#424B54"/>
<path fill-rule="evenodd" clip-rule="evenodd" d="M51.4472 52.354C52.6423 52.8469 53.3876 53.7898 53.1107 54.4597C52.8346 55.1296 51.8725 54.9011 50.6774 54.4082C49.4822 53.9152 48.5063 53.3445 48.7824 52.6747C49.0592 52.0056 50.252 51.8618 51.4472 52.354Z" fill="#FCDBED"/>
<path fill-rule="evenodd" clip-rule="evenodd" d="M36.2864 50.3979C35.0052 50.5709 34.0454 51.2938 34.1423 52.0121C34.2392 52.7304 35.2282 52.7535 36.5095 52.5805C37.7908 52.4074 38.879 52.1037 38.7821 51.3846C38.6844 50.667 37.5677 50.2248 36.2864 50.3979Z" fill="#FCDBED"/>
<path fill-rule="evenodd" clip-rule="evenodd" d="M36.3654 119.907C31.5403 123.46 31.8325 133.079 34.5119 135.195C36.2985 136.605 43.7569 135.902 44.9975 139.593C46.804 144.969 35.7479 144.791 31.8187 143.586C28.6916 142.628 26.4244 141.482 26.7243 139.714C28.2586 130.634 28.3686 123.877 24.564 123.952C26.0591 118.811 33.6244 115.327 36.3654 119.907Z" fill="white"/>
<path d="M42.3188 63.3677L41.5113 69.6248" stroke="#424B54" stroke-width="1.1999" stroke-miterlimit="22.9256" stroke-linecap="round" stroke-linejoin="round"/>
<path d="M47.4736 68.6819C44.1766 70.8468 38.1363 69.8101 35.4123 66.5039" stroke="#424B54" stroke-width="1.1999" stroke-miterlimit="22.9256" stroke-linecap="round" stroke-linejoin="round"/>
</svg>
