<svg width="108" height="455" viewBox="0 0 108 455" fill="none" xmlns="http://www.w3.org/2000/svg">
<path d="M33.6907 149.999C33.6594 149.563 33.7865 149.131 34.0486 148.782L61.1315 112.671C62.1316 111.338 64.2495 111.947 64.3883 113.608L78.3603 280.79L78.3612 280.801L78.3632 280.826C78.3659 280.858 78.3688 280.886 78.3719 280.913L80.1733 280.71L78.3719 280.913C78.5023 282.07 84.4911 335.459 82.9442 369.742C82.8753 371.267 82.8107 372.738 82.7481 374.163C82.048 390.089 81.602 400.236 78.3914 416.846C76.1338 428.526 71.0362 445.082 69.0555 451.332C68.825 452.06 68.1489 452.558 67.3564 452.558H57.0616C56.1107 452.558 55.3214 451.823 55.2534 450.875L33.6907 149.999Z" fill="#3AA6D9" stroke="#3AA6D9" stroke-width="3.62565"/>
<path d="M103.253 60.1764L94.935 84.7699C94.6965 85.475 94.0636 85.9702 93.3095 86.0317C85.9548 86.6317 62.9902 88.9087 48.5526 95.0392C34.7135 100.916 18.5022 114.66 10.942 121.462C9.86295 122.432 8.2914 121.876 7.9937 120.65C7.12185 117.06 6.09462 112.296 5.51675 107.768C4.97297 103.507 4.87251 99.7585 5.47454 97.3733C5.58538 97.3039 5.71056 97.2255 5.849 97.1384C6.45832 96.7555 7.32503 96.2067 8.35713 95.5421C10.4193 94.214 13.1507 92.4174 15.8115 90.5525C18.4572 88.6981 21.0911 86.7361 22.926 85.0827C23.8243 84.2734 24.6388 83.4436 25.1485 82.6729C25.3949 82.3005 25.6797 81.782 25.7656 81.1779C25.8675 80.4617 25.675 79.6223 24.9625 79.0226C23.3053 77.6277 22.2252 76.9746 20.175 75.7348C19.0824 75.0741 17.7144 74.2468 15.8368 73.052C10.397 69.5903 3.99754 63.8897 2.44339 55.0483C0.838841 45.9201 2.10228 37.2088 8.48437 26.4471C14.8187 15.7659 24.1247 9.95957 30.5002 7.20307C36.8479 4.45862 47.4492 2.44172 55.3902 2.44173C61.822 2.44174 71.429 3.23444 77.132 4.55324C79.2076 5.03321 80.8617 6.16751 81.5819 7.7656C83.1419 11.2273 82.9595 16.0148 81.9185 20.9337C80.917 25.6656 79.1934 30.1951 77.9336 33.1385C77.9182 33.1345 77.9039 33.1294 77.8916 33.1237C77.8867 33.1214 77.8829 33.1194 77.8801 33.1178C75.1734 29.222 69.1567 23.7095 57.1627 23.7095C48.3518 23.7095 40.6338 25.9098 35.1921 29.7786C29.7131 33.6739 26.5068 39.3143 27.0823 45.9326C27.6552 52.5213 32.1871 58.5839 38.5987 62.7357C45.0456 66.9104 53.5999 69.3073 62.6716 68.4628C74.6196 67.3507 91.2418 61.4487 100.69 57.7801C102.225 57.1842 103.754 58.6973 103.253 60.1764Z" fill="#3AA6D9" stroke="#3AA6D9" stroke-width="3.62565"/>
</svg>
