<svg width="136" height="259" viewBox="0 0 136 259" fill="none" xmlns="http://www.w3.org/2000/svg">
<path d="M68.0408 258.656C39.6551 258.656 16.6426 253.041 16.6426 246.114C16.6426 239.188 39.6551 233.573 68.0408 233.573C96.4275 233.573 119.44 239.188 119.44 246.114C119.44 253.041 96.4275 258.656 68.0408 258.656Z" fill="#2F758A"/>
<path fill-rule="evenodd" clip-rule="evenodd" d="M67.9981 127.452C84.9728 132.015 103.366 163.892 103.366 183.607C103.366 203.32 88.9981 213.568 67.9981 213.568C46.9981 213.568 32.4551 204.56 32.4551 184.847C32.4551 165.132 54.3088 132.748 67.9981 127.452Z" fill="white"/>
<path fill-rule="evenodd" clip-rule="evenodd" d="M21.7051 1.35957C-0.920486 14.0569 40.978 53.5289 48.2742 71.8915C52.1968 81.7635 59.0729 77.0422 60.8182 65.0275C64.4155 40.2449 39.7628 -8.77376 21.7051 1.35957Z" fill="white"/>
<path fill-rule="evenodd" clip-rule="evenodd" d="M27.1117 14.6218C14.3039 22.1124 43.5352 52.8511 49.6199 70.0484C51.5759 75.5724 56.0879 73.1698 55.8012 67.4058C54.8425 48.0591 39.6576 7.28578 27.1117 14.6218Z" fill="#F7C8E7"/>
<path fill-rule="evenodd" clip-rule="evenodd" d="M115.553 3.37614C138.178 16.0735 96.2811 55.5442 88.9837 73.9082C85.0624 83.7788 78.185 79.0575 76.441 67.0428C72.8437 42.2602 97.4944 -6.75852 115.553 3.37614Z" fill="white"/>
<path fill-rule="evenodd" clip-rule="evenodd" d="M110.147 16.6364C122.954 24.1257 93.7231 54.8657 87.6377 72.0631C85.6831 77.5871 81.1697 75.1844 81.4564 69.4204C82.4151 50.0737 97.6017 9.30041 110.147 16.6364Z" fill="#F7C8E7"/>
<path fill-rule="evenodd" clip-rule="evenodd" d="M67.7753 64.7732C91.118 64.7732 108.005 85.1838 110.041 105.181C112.075 125.177 91.118 137.944 67.7753 137.944C44.4331 137.944 22.8945 126.049 25.5112 105.181C28.1273 84.3118 44.4331 64.7732 67.7753 64.7732Z" fill="white"/>
<path fill-rule="evenodd" clip-rule="evenodd" d="M73.4871 102.972C73.4871 106.365 69.9871 108.141 67.9018 108.141C65.8165 108.141 62.0645 106.365 62.0645 102.972C62.0645 99.5078 73.4871 99.5104 73.4871 102.972Z" fill="#36404B"/>
<path fill-rule="evenodd" clip-rule="evenodd" d="M87.2753 102.093C91.9367 103.347 95.1447 106.481 94.442 109.095C93.7393 111.708 89.3913 112.811 84.73 111.557C80.0687 110.304 76.8607 107.168 77.5633 104.556C78.2673 101.943 82.614 100.84 87.2753 102.093Z" fill="#F7C8E7"/>
<path fill-rule="evenodd" clip-rule="evenodd" d="M48.2738 102.093C43.6136 103.347 40.4053 106.481 41.1084 109.095C41.811 111.708 46.1592 112.811 50.8205 111.557C55.4805 110.304 58.6898 107.168 57.9872 104.556C57.2832 101.943 52.9365 100.84 48.2738 102.093Z" fill="#F7C8E7"/>
<path fill-rule="evenodd" clip-rule="evenodd" d="M81.0262 83.2962C83.1916 83.8789 84.6823 85.3349 84.3556 86.5482C84.0289 87.7615 82.3236 87.5829 80.1596 87.0002C77.9942 86.4175 76.1902 85.6536 76.5169 84.4402C76.8436 83.2269 78.8622 82.7149 81.0262 83.2962Z" fill="#F7C8E7"/>
<path fill-rule="evenodd" clip-rule="evenodd" d="M54.524 83.2962C52.36 83.8789 50.8706 85.3349 51.1973 86.5482C51.5226 87.7615 53.2279 87.5829 55.3919 87.0002C57.5573 86.4175 59.3613 85.6536 59.0346 84.4402C58.7093 83.2269 56.6893 82.7149 54.524 83.2962Z" fill="#F7C8E7"/>
<path fill-rule="evenodd" clip-rule="evenodd" d="M48.7795 206.387C57.1448 212.545 56.6381 229.223 51.9928 232.889C48.8955 235.335 35.9639 234.115 33.8139 240.516C30.6811 249.836 49.8501 249.527 56.6608 247.439C62.0821 245.777 66.0128 243.791 65.4928 240.724C62.8341 224.984 63.1061 213.26 69.7008 213.389C67.1101 204.476 53.5328 198.445 48.7795 206.387Z" fill="white"/>
<path fill-rule="evenodd" clip-rule="evenodd" d="M87.0407 206.387C78.6767 212.545 79.182 229.223 83.8274 232.889C86.9247 235.335 99.8554 234.115 102.007 240.516C105.139 249.836 85.97 249.527 79.1594 247.439C73.738 245.777 69.8074 243.791 70.326 240.724C72.9874 224.984 73.178 213.269 66.582 213.397C69.1727 204.485 82.2887 198.445 87.0407 206.387Z" fill="white"/>
<path d="M56.6996 112.408C59.5129 115.068 63.7863 116.344 68.1196 116.349C72.4143 116.345 76.8049 115.088 79.9423 112.437C80.2796 112.152 80.321 111.648 80.0356 111.31C79.7503 110.973 79.2449 110.932 78.9076 111.217C76.1609 113.553 72.1036 114.753 68.1196 114.749C64.097 114.754 60.1863 113.525 57.801 111.248C57.481 110.942 56.9743 110.956 56.6703 111.276C56.3663 111.597 56.3783 112.102 56.6996 112.408Z" fill="#36404B"/>
<path d="M66.9756 104.257V115.545C66.9756 115.988 67.3343 116.345 67.7756 116.345C68.2183 116.345 68.5756 115.988 68.5756 115.545V104.257C68.5756 103.816 68.2183 103.457 67.7756 103.457C67.3343 103.457 66.9756 103.816 66.9756 104.257Z" fill="#36404B"/>
<path d="M85.4178 95.1144C84.3525 93.937 82.9045 93.2864 81.4525 93.285C80.0192 93.2784 78.5752 93.9477 77.6272 95.2957C77.3725 95.6557 77.4578 96.1557 77.8178 96.4104C78.1778 96.6664 78.6778 96.581 78.9325 96.221C79.6005 95.289 80.4925 94.8917 81.4525 94.885C82.4218 94.8837 83.4538 95.3264 84.2325 96.1877C84.5285 96.5157 85.0338 96.5411 85.3618 96.2451C85.6898 95.9477 85.7152 95.4424 85.4178 95.1144Z" fill="#36404B"/>
<path d="M52.1355 96.7117C52.9128 95.7931 53.9755 95.3157 54.9755 95.317C55.8968 95.3224 56.7608 95.6944 57.4328 96.5717C57.6995 96.9237 58.2008 96.9917 58.5528 96.7251C58.9048 96.4584 58.9742 95.9557 58.7075 95.6037C57.7528 94.3371 56.3568 93.7104 54.9755 93.717C53.4702 93.7184 51.9782 94.4224 50.9142 95.6771C50.6288 96.0144 50.6702 96.5197 51.0075 96.8051C51.3448 97.0904 51.8488 97.0491 52.1355 96.7117Z" fill="#36404B"/>
<path fill-rule="evenodd" clip-rule="evenodd" d="M23.019 142.193C19.7785 141.601 16.419 141.036 13.2228 139.328C5.94463 135.436 2.3581 135.48 1.5821 140.961C1.1285 144.167 0.8529 148.156 11.0118 149.597C13.7936 149.993 18.0066 150.945 22.9222 150.616C28.4936 150.243 28.1196 143.127 23.019 142.193Z" fill="white"/>
<path fill-rule="evenodd" clip-rule="evenodd" d="M14.5676 139.978C11.2957 137.357 9.64825 132.814 7.37425 134.329C6.01332 135.236 8.28892 137.958 10.4128 140.572C15.3764 146.68 17.84 142.601 14.5676 139.978Z" fill="white"/>
<path fill-rule="evenodd" clip-rule="evenodd" d="M54.9482 136.125C49.3669 137.297 27.54 142.215 15.2237 138.713C14.5925 142.592 13.2081 147.177 12.9395 151.221C23.8884 153.261 43.6972 155.393 56.6549 153.341C72.9616 150.759 68.3402 133.313 54.9482 136.125Z" fill="white"/>
<mask id="mask0_68_13838" style="mask-type:luminance" maskUnits="userSpaceOnUse" x="0" y="136" width="6" height="11">
<path d="M3.30938 146.97C3.05885 146.966 2.81205 146.925 2.57245 146.844C0.710985 146.212 -0.0146151 143.396 0.950585 140.554C1.78538 138.1 3.61045 136.429 5.29219 136.429C5.45579 136.429 5.61726 136.445 5.77712 136.477C5.77086 136.52 5.76405 136.564 5.75779 136.606C5.66979 136.602 5.58339 136.601 5.49845 136.601C3.26245 136.601 2.00472 137.973 1.58179 140.961C1.30365 142.925 1.09272 145.184 3.30938 146.97Z" fill="white"/>
</mask>
<g mask="url(#mask0_68_13838)">
<path d="M-0.0146484 146.97H5.77702V136.429H-0.0146484V146.97Z" fill="#2F758A"/>
</g>
<path d="M3.34988 146.972C3.33628 146.972 3.32334 146.971 3.30974 146.971C1.09307 145.184 1.30401 142.925 1.58215 140.961C2.00508 137.973 3.26281 136.601 5.49881 136.601C5.58375 136.601 5.67015 136.603 5.75815 136.607C5.26281 139.928 4.35454 143.562 3.35974 146.972C3.35667 146.972 3.35294 146.972 3.34988 146.972Z" fill="#C2C4C2"/>
<path d="M3.35938 146.972C4.35417 143.562 5.26245 139.928 5.75778 136.607C5.76405 136.564 5.77085 136.52 5.77712 136.478C5.87552 136.498 5.97298 136.523 6.06925 136.556C7.92965 137.189 8.65578 140.004 7.69018 142.846C6.85778 145.296 5.03804 146.964 3.35938 146.972Z" fill="#52C2B6"/>
<path d="M130.027 136.667C130.009 136.548 129.992 136.428 129.975 136.309C130.312 136.345 130.652 136.444 130.987 136.601C130.967 136.601 130.947 136.601 130.927 136.601C130.643 136.601 130.343 136.624 130.027 136.667Z" fill="#2F758A"/>
<path fill-rule="evenodd" clip-rule="evenodd" d="M113.406 142.193C116.646 141.601 120.005 141.036 123.202 139.328C130.479 135.436 134.066 135.48 134.842 140.961C135.297 144.167 135.573 148.156 125.413 149.597C122.631 149.993 118.418 150.945 113.502 150.616C107.931 150.243 108.305 143.127 113.406 142.193Z" fill="white"/>
<path fill-rule="evenodd" clip-rule="evenodd" d="M121.857 139.978C125.129 137.357 126.776 132.814 129.05 134.329C130.41 135.236 128.136 137.958 126.012 140.572C121.049 146.68 118.585 142.601 121.857 139.978Z" fill="white"/>
<path fill-rule="evenodd" clip-rule="evenodd" d="M81.4763 136.125C87.0589 137.297 108.886 142.215 121.2 138.713C121.832 142.592 123.216 147.177 123.486 151.221C112.538 153.261 92.727 155.393 79.7696 153.341C63.463 150.759 68.0843 133.313 81.4763 136.125Z" fill="white"/>
<path d="M132.348 146.733C131.385 143.413 130.513 139.894 130.026 136.666C130.342 136.624 130.642 136.601 130.926 136.601C130.946 136.601 130.966 136.601 130.986 136.601C132.242 137.19 133.418 138.586 134.041 140.42C135.008 143.261 134.281 146.077 132.421 146.709C132.396 146.718 132.372 146.725 132.348 146.733Z" fill="#C2C4C2"/>
<path d="M131.644 146.837C129.961 146.837 128.137 145.167 127.302 142.711C126.337 139.871 127.062 137.055 128.924 136.421C129.176 136.336 129.437 136.295 129.701 136.295C129.792 136.295 129.882 136.3 129.974 136.309C129.992 136.428 130.009 136.548 130.026 136.667C130.513 139.895 131.385 143.413 132.348 146.733C132.117 146.803 131.882 146.837 131.644 146.837Z" fill="#52C2B6"/>
</svg>
