<svg width="81" height="79" viewBox="0 0 81 79" fill="none" xmlns="http://www.w3.org/2000/svg">
<path d="M15.35 66.2939C14.8203 66.3992 8.03223 69.5731 8.03223 69.5731L9.33549 70.7468L20.1213 68.6051L15.35 66.2939Z" fill="#F25A29"/>
<path d="M0.0958322 58.7393C-0.0296144 58.3625 -0.11253 57.6906 0.384208 57.5884C1.37371 57.3846 2.18238 59.5192 3.15184 59.2351C3.81028 59.0422 3.68804 58.216 3.70058 57.53C3.71527 56.7279 3.65714 55.5986 4.38733 55.4844C4.84062 55.4084 5.63094 56.4446 5.87755 56.9047C6.12416 57.3648 6.92441 57.9469 7.4262 57.8031C8.04272 57.6262 7.86603 55.5007 8.50734 55.4846C9.47159 55.4606 10.2605 58.9018 10.2605 63.4616C10.2605 64.9811 11.5462 72.841 7.60152 70.2991C6.24195 69.4229 3.73485 65.5191 2.86269 64.1955C1.73811 62.4886 0.743106 60.6844 0.0958322 58.7393Z" fill="#F25A29"/>
<path d="M65.1565 65.9043C65.6881 66.0005 72.5292 69.0579 72.5292 69.0579L71.2461 70.2538L60.4253 68.2968L65.1565 65.9043Z" fill="#F25A29"/>
<path d="M80.2797 58.0899C80.3988 57.711 80.47 57.0378 79.9716 56.9441C78.9788 56.7573 78.2068 58.9053 77.2325 58.6379C76.5708 58.4562 76.6788 57.6281 76.6546 56.9424C76.6263 56.1407 76.665 55.0105 75.933 54.9089C75.4785 54.8408 74.7059 55.8903 74.4673 56.3546C74.2286 56.8188 73.4385 57.4145 72.9342 57.2792C72.3146 57.1131 72.4551 54.9846 71.8136 54.9796C70.8491 54.9721 70.1192 58.4263 70.1972 62.9854C70.2232 64.5045 69.0721 72.3855 72.9728 69.7763C74.317 68.8771 76.7571 64.931 77.6065 63.5926C78.7017 61.8668 79.6657 60.0458 80.2797 58.0899Z" fill="#F25A29"/>
<path d="M27.2102 32.9477C27.2102 32.9477 28.2652 36.9953 27.2102 39.6609C26.1551 42.3265 21.4359 47.7914 20.5701 56.6206C19.9522 62.9229 25.022 70.9161 40.3272 70.9161C52.9156 70.9161 60.5344 65.0149 61.0279 58.8133C61.8363 48.6568 54.4589 43.48 52.9156 39.5058C51.1595 34.9832 51.575 30.9731 51.575 30.9731L27.2102 32.9477Z" fill="#FAC042"/>
<path d="M33.0184 34.106C32.1802 35.8523 29.0786 44.051 28.8968 50.9446C28.7056 58.1995 34.9738 62.3331 40.8051 61.8062C48.1056 61.1467 52.3524 57.3544 51.5103 50.1821C50.5645 42.1275 46.5392 34.106 46.5392 34.106H33.0184Z" fill="#F7CD48"/>
<path d="M44.8648 38.1674C46.809 38.4135 52.6714 38.8408 52.6714 38.8408C52.6714 38.8408 51.8738 36.9241 51.6244 33.9895C49.769 33.7726 48.2433 34.0012 46.3896 34.2311C43.2147 34.6252 40.012 34.793 36.8133 34.7355C35.214 34.7067 33.6156 34.6215 32.0223 34.48C30.9895 34.3882 28.8881 33.6934 28.0698 34.4581C31.5162 37.0402 42.7925 37.9049 44.8648 38.1674Z" fill="#E9B13F"/>
<path d="M38.6248 5.12768C31.8235 5.03987 18.3442 9.70648 18.3442 21.0834C18.3442 36.1976 39.2432 37.0326 39.2432 37.0326C50.4965 37.28 61.9291 31.715 61.8734 21.5356C61.8191 11.6206 51.2761 5.29122 38.6248 5.12768Z" fill="#FAC042"/>
<path d="M36.3247 6.03888C37.2359 5.22026 37.9928 4.14509 38.1137 2.92627C38.2346 1.70745 37.5645 0.364101 36.3951 0C38.0225 0.298012 39.4395 1.54697 39.9394 3.12408C40.3597 2.25054 41.0721 1.52081 41.9352 1.07991C41.8421 1.95972 41.7487 2.83953 41.6554 3.71934C42.1448 2.94646 43.0474 2.45309 43.9621 2.4586C43.0139 3.83974 43.1755 5.87641 44.3297 7.09079L36.3247 6.03888Z" fill="#FAC042"/>
<path d="M18.9045 18.0693C17.0609 19.6448 15.1388 21.3326 14.3521 23.6265C14.9011 23.2039 15.5872 22.9625 16.2799 22.9481C16.0693 23.9572 15.9761 24.9906 16.0029 26.021C18.1002 25.443 20.4856 26.0696 22.0282 27.6036C22.0764 27.6516 22.1382 27.7047 22.2039 27.6868C22.2696 27.6689 22.2584 27.5378 22.194 27.5601L18.9045 18.0693Z" fill="#FAC042"/>
<path d="M59.9393 16.9536C61.1055 17.7742 62.2716 18.5948 63.4378 19.4156C63.0933 19.6871 62.7488 19.9587 62.4043 20.2301C63.5278 21.3421 64.489 22.6963 65.2307 24.2115C62.9893 23.7065 60.7193 23.3846 58.4414 23.2487L59.9393 16.9536Z" fill="#FAC042"/>
<path d="M27.0684 25.6202C27.1144 27.5993 30.1663 32.7709 40.1088 32.5245C50.4857 32.2673 52.4477 26.587 52.4477 26.587C52.5048 24.2309 27.0684 25.6202 27.0684 25.6202Z" fill="#D52F28"/>
<path d="M25.7059 24.9515C25.3544 27.1806 33.8037 29.7458 41.2887 29.2815C48.4199 28.8391 54.2616 27.0888 54.281 24.9475C54.3004 22.806 51.0656 22.5091 47.6135 21.2083C44.1614 19.9076 43.5721 17.4007 39.5961 17.8146C35.62 18.2286 36.1397 20.2882 32.4267 21.1402C28.7136 21.9925 26.1713 22.0004 25.7059 24.9515Z" fill="#F25A29"/>
<path d="M30.8573 22.5925C30.467 22.6659 30.0671 22.7429 29.7284 22.9503C29.3899 23.1576 29.1208 23.5271 29.1484 23.9231C29.1928 24.5568 29.9008 24.8984 30.5118 25.0719C31.25 25.2815 32.0037 25.4368 32.7648 25.5359C33.1736 25.5891 33.5937 25.6257 33.9945 25.529C34.811 25.332 35.3932 24.6321 35.9102 23.9701C36.2995 23.4715 36.7081 22.9009 36.6398 22.2718C36.6255 22.1415 36.5873 22.0076 36.4964 21.9131C36.3524 21.7632 36.1208 21.75 35.9131 21.75C34.2154 21.7511 32.5234 22.2793 30.8573 22.5925Z" fill="#F77E41"/>
<path d="M29.7193 16.6958C30.6011 16.6958 31.3159 15.981 31.3159 15.0991C31.3159 14.2173 30.6011 13.5024 29.7193 13.5024C28.8374 13.5024 28.1226 14.2173 28.1226 15.0991C28.1226 15.981 28.8374 16.6958 29.7193 16.6958Z" fill="#231F20"/>
<path d="M29.9104 14.5995C29.9104 14.9885 29.595 15.304 29.206 15.304C28.8169 15.304 28.5015 14.9885 28.5015 14.5995C28.5015 14.2105 28.8168 13.895 29.206 13.895C29.5951 13.895 29.9104 14.2105 29.9104 14.5995Z" fill="white"/>
<path d="M51.3192 18.0691C52.2009 18.0691 52.9157 17.3543 52.9157 16.4725C52.9157 15.5908 52.2009 14.876 51.3192 14.876C50.4375 14.876 49.7227 15.5908 49.7227 16.4725C49.7227 17.3543 50.4375 18.0691 51.3192 18.0691Z" fill="#231F20"/>
<path d="M50.8056 16.677C51.1946 16.677 51.5101 16.3616 51.5101 15.9726C51.5101 15.5835 51.1946 15.2681 50.8056 15.2681C50.4165 15.2681 50.1011 15.5835 50.1011 15.9726C50.1011 16.3616 50.4165 16.677 50.8056 16.677Z" fill="white"/>
<path d="M29.2491 12.5522C29.7449 12.4349 30.2929 12.5874 30.7595 12.3826C30.834 12.3498 30.9068 12.3065 30.9544 12.2407C31.0766 12.0715 30.9781 11.8159 30.8032 11.7021C30.1352 11.2675 28.3241 11.7281 27.6925 12.1646C27.4134 12.3573 27.2788 12.5326 27.5565 12.7956C28.0273 13.2419 28.7672 12.6663 29.2491 12.5522Z" fill="#231F20"/>
<path d="M52.0209 13.414C52.5014 13.5835 52.8796 14.0085 53.3829 14.0885C53.4632 14.1012 53.5478 14.1045 53.6235 14.0746C53.8178 13.9984 53.8732 13.7303 53.7878 13.5398C53.4612 12.8128 51.6889 12.2203 50.9217 12.2454C50.5827 12.2566 50.3746 12.3312 50.4658 12.7025C50.6203 13.3328 51.5538 13.2493 52.0209 13.414Z" fill="#231F20"/>
<path d="M30.8755 8.4152C31.1277 8.4152 31.1282 8.02295 30.8755 8.02295C30.623 8.02295 30.6227 8.4152 30.8755 8.4152Z" fill="#F7CD48"/>
<path d="M30.8752 8.40956C31.6261 8.38509 32.3742 8.74429 32.8076 9.36235C32.8683 9.44893 32.9791 9.48932 33.0759 9.43272C33.1616 9.38254 33.2073 9.25158 33.1463 9.16438C32.6341 8.43419 31.7705 7.98825 30.8752 8.01747C30.6234 8.02557 30.6225 8.41783 30.8752 8.40956Z" fill="#F7CD48"/>
<path d="M33.7947 10.5744C34.3673 11.0462 34.6846 11.7654 34.6409 12.5066C34.626 12.7587 35.0183 12.7578 35.033 12.5066C35.0821 11.6734 34.7166 10.8281 34.0719 10.297C33.9902 10.2297 33.8746 10.217 33.7946 10.297C33.7254 10.3665 33.7126 10.5068 33.7947 10.5744Z" fill="#F7CD48"/>
<path d="M36.2533 12.4287C36.5106 12.9685 36.6098 13.5905 36.5264 14.1835C36.5115 14.2883 36.5519 14.3941 36.6633 14.4247C36.7551 14.45 36.8896 14.3934 36.9046 14.2878C37.0038 13.5813 36.8992 12.8756 36.592 12.2309C36.5464 12.1353 36.4097 12.1104 36.3238 12.1606C36.2259 12.2176 36.2076 12.3328 36.2533 12.4287Z" fill="#F7CD48"/>
<path d="M38.2916 14.6467C38.3629 15.2252 38.4342 15.8037 38.5053 16.3821C38.5181 16.4872 38.5861 16.5782 38.7014 16.5782C38.7973 16.5782 38.9105 16.488 38.8975 16.3821C38.8263 15.8037 38.755 15.2252 38.6838 14.6467C38.6708 14.5416 38.6029 14.4507 38.4877 14.4507C38.3916 14.4507 38.2784 14.5409 38.2916 14.6467Z" fill="#F7CD48"/>
<path d="M41.3645 16.2161C41.3922 15.5662 41.6279 14.9454 42.024 14.4309C42.0887 14.3469 42.037 14.2113 41.9538 14.1626C41.8525 14.1034 41.7503 14.1488 41.6854 14.233C41.2481 14.801 41.0027 15.5009 40.9724 16.216C40.9617 16.4684 41.3538 16.4679 41.3645 16.2161Z" fill="#F7CD48"/>
<path d="M43.4685 16.2497C43.7879 15.4875 44.1075 14.7252 44.4271 13.9631C44.4681 13.8653 44.3829 13.7474 44.29 13.7218C44.1769 13.6908 44.0899 13.7607 44.0488 13.8587C43.7293 14.6209 43.4097 15.3832 43.0902 16.1454C43.0492 16.2431 43.1344 16.3611 43.2272 16.3866C43.3403 16.4177 43.4273 16.3478 43.4685 16.2497Z" fill="#F7CD48"/>
<path d="M46.2844 12.9282C46.8752 11.9045 47.7867 11.0999 48.8709 10.6304C48.9688 10.588 48.989 10.4462 48.9411 10.3622C48.8837 10.2613 48.7695 10.2501 48.6728 10.2919C47.5317 10.786 46.5669 11.6539 45.9457 12.7303C45.8195 12.9493 46.1582 13.1472 46.2844 12.9282Z" fill="#F7CD48"/>
<path d="M49.6323 9.65963C50.1586 9.24474 50.7532 8.91063 51.3802 8.67427C51.4791 8.63694 51.5471 8.54194 51.5171 8.43316C51.4911 8.33816 51.3756 8.25861 51.2758 8.29609C50.5807 8.55815 49.9381 8.92256 49.3549 9.38243C49.2717 9.44806 49.2863 9.5911 49.3549 9.65979C49.4373 9.74194 49.5489 9.72542 49.6323 9.65963Z" fill="#F7CD48"/>
<path d="M46.1649 10.0713C46.8867 9.34833 47.6823 8.70595 48.5426 8.1546C48.7543 8.01875 48.5579 7.67928 48.3446 7.81604C47.4575 8.38484 46.6323 9.04833 45.8877 9.79412C45.7092 9.97281 45.9864 10.2503 46.1649 10.0713Z" fill="#F7CD48"/>
<path d="M44.7014 12.2536C44.7614 11.657 44.9485 11.0761 45.2404 10.553C45.3634 10.3324 45.0248 10.1345 44.9018 10.3551C44.5743 10.9419 44.3765 11.5855 44.3093 12.2536C44.2988 12.3592 44.4071 12.4497 44.5054 12.4497C44.6202 12.4496 44.6907 12.3595 44.7014 12.2536Z" fill="#F7CD48"/>
<path d="M41.5339 13.1353C41.7468 12.2896 41.7765 11.4148 41.6299 10.5557C41.612 10.4512 41.4835 10.3927 41.3887 10.4188C41.2781 10.4492 41.2339 10.5552 41.2518 10.66C41.3861 11.4474 41.3504 12.257 41.1557 13.0311C41.094 13.2759 41.4721 13.3804 41.5339 13.1353Z" fill="#F7CD48"/>
<path d="M39.1951 12.344C39.2388 11.4192 39.0032 10.4929 38.5258 9.69998C38.3957 9.48397 38.0566 9.68101 38.1871 9.89794C38.6312 10.6355 38.8437 11.4844 38.8028 12.344C38.7909 12.5963 39.1832 12.5957 39.1951 12.344Z" fill="#F7CD48"/>
<path d="M36.8936 10.1541C36.6106 9.34815 36.1298 8.62041 35.49 8.05315C35.3017 7.88624 35.0234 8.16253 35.2126 8.33051C35.8014 8.85264 36.2546 9.51521 36.5156 10.2586C36.5506 10.3585 36.6496 10.4249 36.7568 10.3955C36.8535 10.3687 36.9289 10.2544 36.8936 10.1541Z" fill="#F7CD48"/>
<path d="M34.0933 7.29697C33.9059 6.90962 33.6226 6.5807 33.28 6.32247C33.1979 6.26051 33.0573 6.30656 33.0118 6.39284C32.9574 6.49595 32.9944 6.59493 33.0822 6.66102C33.1119 6.68336 33.0652 6.64725 33.084 6.66224C33.0938 6.67005 33.1036 6.67769 33.1133 6.6855C33.1307 6.69957 33.148 6.71395 33.165 6.72848C33.2009 6.75923 33.2361 6.79106 33.2702 6.82395C33.3403 6.89126 33.4065 6.96286 33.4682 7.03782C33.4746 7.04547 33.4807 7.05327 33.487 7.06107C33.5006 7.07805 33.5045 7.08249 33.4887 7.0626C33.5041 7.08218 33.5188 7.10238 33.5334 7.12257C33.5611 7.16097 33.5875 7.20029 33.6131 7.24022C33.6652 7.32237 33.7123 7.40743 33.7547 7.49493C33.7995 7.58749 33.9388 7.61946 34.0229 7.56531C34.1179 7.50396 34.141 7.39595 34.0933 7.29697Z" fill="#F7CD48"/>
<path d="M38.0385 8.046C37.6917 7.46267 37.3447 6.8795 36.9979 6.29617C36.8691 6.07939 36.5298 6.27643 36.6594 6.49413C37.0062 7.07746 37.3531 7.66063 37.7 8.24396C37.8288 8.46074 38.1679 8.26369 38.0385 8.046Z" fill="#F7CD48"/>
<path d="M40.7764 8.91553C40.532 8.24975 40.6254 7.50655 41.0284 6.92277C41.0885 6.83557 41.0446 6.70507 40.958 6.65443C40.8607 6.59752 40.7501 6.63745 40.6898 6.72481C40.2338 7.38539 40.1215 8.26612 40.3984 9.01971C40.435 9.11915 40.5315 9.18647 40.6397 9.15663C40.7351 9.13047 40.8131 9.01543 40.7764 8.91553Z" fill="#F7CD48"/>
<path d="M43.0696 8.72451C43.4634 8.00839 44.0409 7.40808 44.7432 6.98967C44.9599 6.86071 44.7628 6.52139 44.5453 6.65112C43.7877 7.10242 43.156 7.75367 42.731 8.52655C42.6094 8.74776 42.9478 8.94588 43.0696 8.72451Z" fill="#F7CD48"/>
<path d="M45.9624 8.33302C46.2147 8.33302 46.2151 7.94092 45.9624 7.94092C45.71 7.94092 45.7097 8.33302 45.9624 8.33302Z" fill="#F7CD48"/>
<path d="M46.0722 8.24048C46.6192 7.80631 47.2491 7.47893 47.9155 7.27271C48.1559 7.19836 48.0534 6.81957 47.8112 6.89453C47.0761 7.12202 46.397 7.4852 45.7949 7.96312C45.7118 8.02906 45.726 8.17164 45.7949 8.24048C45.8769 8.32248 45.989 8.30657 46.0722 8.24048Z" fill="#F7CD48"/>
<path opacity="0.53" d="M28.9006 22.0678C33.0607 22.0678 36.4331 18.6954 36.4331 14.5354C36.4331 10.3753 33.0607 7.00293 28.9006 7.00293C24.7406 7.00293 21.3682 10.3753 21.3682 14.5354C21.3682 18.6954 24.7406 22.0678 28.9006 22.0678Z" fill="#8C7D81"/>
<path d="M28.9003 23.227C24.1079 23.227 20.209 19.3281 20.209 14.5355C20.209 9.74318 24.1079 5.84424 28.9003 5.84424C33.6927 5.84424 37.5918 9.74318 37.5918 14.5355C37.5916 19.3279 33.6927 23.227 28.9003 23.227ZM28.9003 7.93537C25.261 7.93537 22.3001 10.8962 22.3001 14.5355C22.3001 18.1749 25.261 21.1357 28.9003 21.1357C32.5398 21.1357 35.5006 18.1749 35.5006 14.5355C35.5005 10.8962 32.5396 7.93537 28.9003 7.93537Z" fill="#231F20"/>
<path d="M23.5699 12.7534C23.4753 13.379 23.6519 14.1632 24.2557 14.352C24.8234 14.5294 25.3936 14.0592 25.6988 13.5486C26.0041 13.0383 26.1948 12.4354 26.6508 12.0537C26.999 11.7623 27.4555 11.6416 27.8551 11.4258C28.2547 11.2101 28.6307 10.8214 28.5836 10.3698C28.46 9.18647 26.6632 9.52181 25.9507 9.8313C24.7517 10.3522 23.7683 11.441 23.5699 12.7534Z" fill="white"/>
<path opacity="0.53" d="M51.6159 22.5869C55.776 22.5869 59.1484 19.2145 59.1484 15.0544C59.1484 10.8944 55.776 7.52197 51.6159 7.52197C47.4559 7.52197 44.0835 10.8944 44.0835 15.0544C44.0835 19.2145 47.4559 22.5869 51.6159 22.5869Z" fill="#8C7D81"/>
<path d="M51.6161 23.7454C46.8237 23.7454 42.9248 19.8465 42.9248 15.0541C42.9248 10.2617 46.8237 6.36279 51.6161 6.36279C56.4086 6.36279 60.3074 10.2617 60.3074 15.0541C60.3074 19.8465 56.4085 23.7454 51.6161 23.7454ZM51.6161 8.45393C47.9766 8.45393 45.0159 11.4148 45.0159 15.0543C45.0159 18.6936 47.9768 21.6544 51.6161 21.6544C55.2556 21.6544 58.2164 18.6936 58.2164 15.0543C58.2163 11.4148 55.2554 8.45393 51.6161 8.45393Z" fill="#231F20"/>
<path d="M46.2857 13.2718C46.191 13.8974 46.3677 14.6817 46.9716 14.8704C47.5391 15.0478 48.1095 14.5776 48.4147 14.067C48.7199 13.5565 48.9106 12.9538 49.3668 12.5721C49.715 12.2807 50.1715 12.16 50.5711 11.9442C50.9707 11.7287 51.3469 11.3398 51.2996 10.8884C51.176 9.70503 49.3792 10.0404 48.6666 10.3499C47.4674 10.8708 46.4841 11.9595 46.2857 13.2718Z" fill="white"/>
<path d="M44.1481 13.7144C43.9546 13.1671 43.4327 12.8062 42.9076 12.5592C41.4248 11.8617 39.6593 11.7909 38.1253 12.3673C37.5768 12.5734 37.0256 12.8912 36.7718 13.4193L36.7339 14.2042C36.709 14.6179 36.7477 15.0352 36.8482 15.4371C36.8993 15.6413 36.9932 15.8694 37.1948 15.9299C37.4182 15.997 37.6336 15.8226 37.8134 15.6742C39.1342 14.5833 41.4603 14.7747 43.0056 15.5142C43.3943 15.7001 43.5039 15.5078 43.8593 15.2641C44.0481 15.1345 44.1356 14.9014 44.1827 14.6772C44.2495 14.3589 44.2564 14.0209 44.1481 13.7144Z" fill="#231F20"/>
<path d="M12.1836 43.508L15.74 40.3756C15.74 40.3756 22.1133 39.3046 28.4866 41.5004C34.8599 43.6963 39.6383 47.9789 39.6383 47.9789C39.6383 47.9789 46.0874 43.6047 50.4442 41.6612C56.7649 38.8414 64.2094 39.7865 64.2094 39.7865L67.2626 42.8407L43.7763 52.8545L33.8961 53.2295L12.1836 43.508Z" fill="#E5E5D1"/>
<path d="M35.7703 49.4559C37.7555 48.7569 39.9393 48.912 42.0093 49.2911C42.7967 49.4353 43.6432 49.6494 44.1386 50.2783C44.4092 50.6221 44.5443 51.0933 44.4092 51.5096C44.201 52.1518 43.4715 52.447 42.8159 52.6084C40.8387 53.0951 38.7448 53.1006 36.7651 52.6244C36.1866 52.4853 35.6031 52.2982 35.1372 51.9283C33.9359 50.9744 34.5137 49.8983 35.7703 49.4559Z" fill="#365625"/>
<path d="M10.2773 42.9634L35.5007 49.8022L37.5918 76.9033L14.0264 71.7007L10.2773 42.9634Z" fill="#63A345"/>
<path d="M68.8367 42.375L43.7763 49.7891L42.3057 76.931L65.746 71.1906L68.8367 42.375Z" fill="#63A345"/>
<path d="M39.7579 51.7295C36.5151 51.7295 35.5005 49.8294 35.5005 49.8294V50.0691L37.5916 76.9305C37.5916 76.9305 38.2071 78.5876 40.2541 78.4805C42.3011 78.3734 42.3055 76.9305 42.3055 76.9305L43.7761 49.7886C43.7761 49.7886 43.0007 51.7295 39.7579 51.7295Z" fill="#63A345"/>
<path d="M38.9819 77.5315L36.9223 51.0754C35.9008 50.5249 35.5249 49.8237 35.5249 49.8237V50.0635L37.616 76.9248C37.616 76.9248 38.1054 78.2385 39.6587 78.4502C39.1642 78.0206 38.9819 77.5315 38.9819 77.5315Z" fill="#75BA50"/>
<path d="M35.9956 56.4292C35.9956 56.4292 37.5917 57.7277 40.2541 57.5423C42.3092 57.3991 43.4329 56.1211 43.4329 56.1211L43.3631 57.41C43.3631 57.41 42.8142 58.5263 40.2541 58.6871C37.6939 58.8477 36.0917 57.3261 36.0917 57.3261L35.9956 56.4292Z" fill="#F7CD48"/>
<path d="M36.3086 60.2986C36.3086 60.2986 38.1274 61.9486 39.7351 61.8508C42.7304 61.6688 43.1617 60.0845 43.1617 60.0845L43.1413 61.5098C43.1413 61.5098 42.5887 63.0568 40.0284 63.2176C37.4682 63.3782 36.3996 61.6161 36.3996 61.6161L36.3086 60.2986Z" fill="#F7CD48"/>
<path d="M16.9328 50.6453C16.9328 50.6453 15.9545 54.848 17.9651 54.9944C19.3738 55.0971 19.5014 50.3892 19.5014 50.3892L18.5673 50.6301C18.5673 50.6301 18.6676 53.8357 17.859 53.7602C17.3174 53.7097 17.7023 50.6026 17.7023 50.6026L16.9328 50.6453Z" fill="#F7CD48"/>
<path d="M17.0861 57.081C17.0861 57.081 16.0809 60.2876 17.6337 60.5189C18.7217 60.6809 19.0959 57.0322 19.0959 57.0322L18.3565 57.1647C18.3565 57.1647 18.2471 59.66 17.6234 59.5542C17.2059 59.4833 17.6865 57.093 17.6865 57.093L17.0861 57.081Z" fill="#F7CD48"/>
<path d="M22.8416 52.7894C22.8416 52.7894 23.3884 51.4866 22.2305 51.2614C21.0724 51.0362 20.4935 51.9049 20.1397 52.9664C19.7858 54.028 19.7697 55.0733 20.6222 55.3629C22.4552 55.9854 22.5684 53.9314 22.5684 53.9314L21.5806 53.7384L21.3166 54.1428L21.7321 54.2853C21.7321 54.2853 21.5713 54.9769 20.9286 54.7162C20.4397 54.518 20.3489 53.9798 20.6867 53.1755C21.0286 52.3612 21.4524 51.7597 21.893 51.8733C22.3273 51.9853 22.1826 52.4784 22.1826 52.4784L22.8416 52.7894Z" fill="#F7CD48"/>
<path d="M33.6158 62.2799C33.6158 62.2799 34.4273 61.013 33.338 60.7369C32.3155 60.4776 31.8597 61.2274 31.5369 61.9834C31.214 62.7395 31.3117 63.5624 31.933 63.822C33.2687 64.3801 33.4664 62.8849 33.4664 62.8849L32.7386 62.6884L32.5189 62.9692L32.8217 63.0967C32.8217 63.0967 32.6982 63.5232 32.2322 63.2966C31.8778 63.1242 31.9429 62.8155 32.2396 62.2465C32.54 61.6706 32.6686 61.4249 32.9915 61.5327C33.31 61.639 33.096 62.0484 33.096 62.0484L33.6158 62.2799Z" fill="#F7CD48"/>
<path d="M24.1586 51.7651C24.1586 51.7651 23.585 55.9915 23.6218 56.0205C23.6587 56.0496 25.9082 56.2639 25.9082 56.2639V55.4069L24.7641 55.2284L25.0155 51.9441L24.1586 51.7651Z" fill="#F7CD48"/>
<path d="M26.4634 52.0957L27.0704 54.2737L26.7669 56.5588L27.8915 56.8803L28.32 54.4879L29.6768 52.7742L28.57 52.5599L27.8202 53.736L27.5346 52.0957H26.4634Z" fill="#F7CD48"/>
<path d="M21.7468 59.081C21.7468 59.081 21.8432 57.7993 20.8121 57.5974C20.1494 57.4677 19.4675 57.889 19.2406 59.001C19.0577 59.8981 19.1429 60.7415 19.9355 60.9493C21.2698 61.299 21.5632 60.0161 21.5632 60.0161L20.8401 59.8721C20.8401 59.8721 20.7208 60.4539 20.1223 60.2847C19.7932 60.1917 19.772 59.7919 19.9909 59.2623C20.2098 58.7325 20.3668 58.5844 20.599 58.5743C20.8312 58.5644 20.8231 59.0959 20.8231 59.0959L21.7468 59.081Z" fill="#F7CD48"/>
<path d="M22.6741 57.3366C22.6741 57.3366 21.6759 61.8398 21.8187 61.8195C21.9614 61.7993 22.5335 62.011 22.5335 62.011L22.6894 60.8321C22.6894 60.8321 23.069 61.9731 23.1762 62.0082C23.2835 62.0434 23.8189 62.0055 23.8189 62.0055L23.1693 60.4373L24.2728 59.6745L23.8429 59.3549L23.0341 59.68L23.3239 57.334L22.6741 57.3366Z" fill="#F7CD48"/>
<path d="M25.5206 58.2744C25.4725 58.4393 24.4123 62.2982 24.5992 62.3123C24.7862 62.3263 26.0901 62.6035 26.0901 62.6035L26.3521 61.6566L25.4959 61.5204L26.4049 58.42L25.5206 58.2744Z" fill="#F7CD48"/>
<path d="M27.2249 59.8931C27.181 60.0005 26.6596 62.6468 26.8377 62.6601C27.0156 62.6734 27.8818 62.7387 27.8818 62.7387L28.0835 60.0603L27.2249 59.8931Z" fill="#F7CD48"/>
<path d="M28.4619 62.7818C28.4677 62.5317 28.6712 60.0015 28.6712 60.0015L29.2634 60.046C29.2634 60.046 30.0254 62.2922 30.0032 62.111C29.9812 61.9295 30.4028 60.1318 30.4028 60.1318L30.9647 60.2767L30.5335 63.1526L29.5935 63.0818C29.5935 63.0818 29.1643 61.3633 29.1588 61.4361C29.1532 61.509 29.0898 62.8291 29.0898 62.8291L28.4619 62.7818Z" fill="#F7CD48"/>
<path d="M14.3312 56.1338L14.0767 59.5161C14.0767 59.5161 16.1014 60.2056 16.4303 58.6906C16.7592 57.1759 14.3312 56.1338 14.3312 56.1338ZM15.692 58.5112C15.5666 59.1106 14.7013 58.8292 14.6693 58.7784C14.6373 58.7275 14.785 57.2422 14.785 57.2422C14.785 57.2422 15.8877 57.5758 15.692 58.5112Z" fill="#F7CD48"/>
<path d="M9.06238 53.2642C8.62408 52.049 8.58507 50.7633 8.53535 49.4726C8.45381 47.3523 9.77559 46.5555 10.145 46.4836C10.5534 46.4042 10.9156 46.7359 11.1996 47.04C11.7338 47.6123 12.2853 48.214 12.5044 48.9656C12.7236 49.7172 12.4947 50.6617 11.7905 51.0041C12.7432 52.418 13.3256 54.0793 13.4639 55.7784C13.5971 57.4135 12.5515 58.4431 11.2612 57.1027C10.2303 56.0318 9.56187 54.649 9.06238 53.2642Z" fill="#E9B13F"/>
<path d="M69.679 51.925C70.0024 50.6744 69.9216 49.3907 69.8509 48.1009C69.7349 45.9821 68.3446 45.3117 67.9701 45.2747C67.5561 45.2335 67.2263 45.5975 66.9721 45.9267C66.4934 46.5463 66.0003 47.1966 65.8521 47.9654C65.7038 48.7341 66.0194 49.6534 66.7524 49.9286C65.9353 51.4251 65.5101 53.1331 65.5305 54.838C65.5501 56.4784 66.6869 57.4063 67.847 55.9516C68.7738 54.7892 69.3106 53.3502 69.679 51.925Z" fill="#E9B13F"/>
<path d="M43.7763 49.7891L42.3057 76.931L45.071 76.2537L45.0158 49.4224L43.7763 49.7891Z" fill="#5B913F"/>
<path d="M16.4612 41.1851C16.4612 41.1851 19.1279 40.8699 23.6206 41.6075C31.6689 42.9289 38.5813 49.0795 37.2702 48.9692C37.2702 48.9692 30.965 44.5171 23.9346 42.964C19.8981 42.0722 14.665 42.339 14.665 42.339L16.4612 41.1851Z" fill="white"/>
<path d="M40.4785 49.0626C40.5905 48.7837 45.8513 44.3528 49.7223 42.9634C57.0861 40.3202 62.7096 40.268 62.8703 40.3216C63.0309 40.3751 63.8344 41.1177 63.8344 41.1177C63.8344 41.1177 53.8996 42.568 50.3378 43.6422C45.6904 45.044 40.4785 49.0626 40.4785 49.0626Z" fill="white"/>
</svg>
