<svg width="170" height="253" viewBox="0 0 170 253" fill="none" xmlns="http://www.w3.org/2000/svg">
<path d="M1.48998 164.672C6.9119 162.698 13.4879 163.17 18.7444 165.551C20.7971 171.717 24.7312 177.142 29.3333 181.731C33.9354 186.316 41.2798 191.616 48.0675 191.073C50.1472 190.905 52.1131 189.648 53.878 187.883C56.5822 185.179 58.8195 181.28 60.2855 178.312L42.583 171.348C42.0699 170.873 41.565 170.39 41.0625 169.904C40.8698 169.597 40.5955 169.314 40.2343 169.076C39.9112 168.753 39.5827 168.429 39.2651 168.098C38.6922 167.501 38.0432 167.264 37.4161 167.275C36.322 166.599 35.3554 165.999 34.4511 165.445C30.9569 163.303 28.3828 161.832 22.8141 159.285C22.3986 159.002 21.9997 158.698 21.6032 158.394C20.9516 156.605 19.556 154.115 18.4536 152.755C18.1006 152.32 17.7043 151.891 17.1828 151.682C16.6642 151.471 15.9937 151.544 15.6488 151.984C15.2281 152.524 15.4562 153.303 15.7031 153.941C15.9854 154.672 16.268 155.402 16.5503 156.133C13.4957 156.097 10.4007 156.418 7.37598 156.792C6.54234 156.896 5.7796 157.238 5.27448 157.81C4.41099 158.419 3.68074 159.287 3.0754 160.143L3.46366 160.042C3.40135 160.145 3.34162 160.251 3.28993 160.36C2.80664 160.65 2.3423 160.974 1.9107 161.34L3.03495 161.117C3.02662 161.161 3.01593 161.202 3.00789 161.245C3.00243 161.275 3.00507 161.305 2.99962 161.335C2.38336 161.557 1.79954 161.861 1.37339 162.353C0.76776 163.051 0.803083 164.05 1.48998 164.672Z" fill="#F6E2D7"/>
<path d="M34.4512 165.445C35.7354 170.547 38.2251 175.349 41.7141 179.289C45.0346 183.038 49.2433 185.982 53.8778 187.882C56.582 185.178 58.8193 181.279 60.2853 178.312L42.5828 171.347C42.0696 170.872 41.5648 170.389 41.0622 169.903C40.8695 169.596 40.5953 169.314 40.234 169.075C39.911 168.752 39.5825 168.429 39.2649 168.097C38.692 167.5 38.043 167.264 37.4158 167.275C36.322 166.599 35.3554 165.999 34.4512 165.445Z" fill="#EFCAB9"/>
<path d="M39.9217 169.76C39.7537 169.76 39.5834 169.715 39.4292 169.622C37.9799 168.742 36.7471 167.98 35.6395 167.296C30.9134 164.375 28.5412 162.909 21.3526 159.665C21.1068 159.554 20.9193 159.344 20.8377 159.087C20.3137 157.435 18.8546 154.757 17.7157 153.354C17.4437 153.02 17.148 152.692 16.8287 152.563C16.6311 152.483 16.4304 152.528 16.3985 152.569C16.3663 152.611 16.2847 152.808 16.5909 153.601L17.5956 156.203C17.7846 156.693 17.5411 157.243 17.0515 157.432C16.561 157.621 16.0116 157.377 15.8227 156.888L14.8179 154.286C14.6031 153.729 14.1 152.427 14.8995 151.401C15.4816 150.655 16.5668 150.408 17.5403 150.801C18.2613 151.092 18.779 151.65 19.1908 152.157C20.3823 153.624 21.835 156.242 22.5099 158.103C29.5247 161.283 32.0744 162.859 36.6386 165.679C37.7424 166.361 38.9709 167.121 40.4156 167.998C40.8642 168.27 41.0072 168.855 40.7347 169.303C40.5561 169.597 40.2428 169.76 39.9217 169.76Z" fill="#1F404D"/>
<path d="M47.0737 192.063C39.2304 192.063 31.6476 185.378 28.6623 182.402C23.5134 177.271 19.9213 171.839 17.9795 166.252C12.8628 164.052 6.70746 163.783 1.81449 165.564C1.48483 165.684 1.1133 165.612 0.851694 165.375C-0.203343 164.421 -0.289242 162.819 0.655812 161.73C1.41593 160.854 2.48909 160.46 3.53522 160.166C7.02081 159.185 10.6155 158.863 14.2205 159.207C14.7429 159.257 15.126 159.721 15.076 160.243C15.026 160.766 14.5573 161.146 14.0399 161.099C10.67 160.776 7.30882 161.079 4.0501 161.995C3.16994 162.243 2.49998 162.504 2.09135 162.975C1.94403 163.145 1.88025 163.341 1.89806 163.527C7.23297 161.824 13.7613 162.25 19.1365 164.685C19.3777 164.794 19.5624 164.999 19.6459 165.25C21.4588 170.695 24.9435 176.013 30.0033 181.056C32.2928 183.338 40.3515 190.735 47.9915 190.125C52.8842 189.734 57.26 182.292 59.4332 177.891C59.6652 177.421 60.2347 177.227 60.7059 177.46C61.1766 177.692 61.3698 178.262 61.1372 178.732C58.2653 184.55 53.6793 191.577 48.1431 192.02C47.787 192.049 47.4298 192.063 47.0737 192.063Z" fill="#1F404D"/>
<path d="M1.91055 162.292C1.64148 162.292 1.37471 162.178 1.18662 161.958C0.846043 161.558 0.893949 160.959 1.29339 160.618C3.14186 159.043 5.67755 158.002 8.62642 157.607C11.2014 157.262 13.7876 157.412 16.2885 157.556C16.8125 157.586 17.2129 158.036 17.1824 158.56C17.1523 159.084 16.7 159.486 16.1791 159.454C13.7669 159.315 11.2729 159.171 8.87881 159.491C6.29234 159.837 4.09581 160.727 2.52617 162.065C2.34727 162.217 2.12851 162.292 1.91055 162.292Z" fill="#1F404D"/>
<path d="M3.07399 161.094C2.88417 161.094 2.69258 161.037 2.52574 160.919C2.09758 160.616 1.99598 160.023 2.29922 159.594C3.19115 158.334 4.61485 156.606 6.67151 156.148C10.0118 155.405 13.4265 155.24 16.8222 155.659C17.3428 155.723 17.7132 156.197 17.6489 156.718C17.5846 157.239 17.1108 157.609 16.5896 157.545C13.4098 157.153 10.2119 157.307 7.08501 158.003C6.02194 158.24 4.96404 159.12 3.85071 160.693C3.66492 160.954 3.37177 161.094 3.07399 161.094Z" fill="#1F404D"/>
<path d="M75.7161 252.682C115.451 252.682 147.662 246.483 147.662 238.836C147.662 231.19 115.451 224.991 75.7161 224.991C35.9814 224.991 3.77002 231.19 3.77002 238.836C3.77002 246.483 35.9814 252.682 75.7161 252.682Z" fill="#EFBAB4"/>
<path d="M104.94 201.188C107.465 202.375 109.989 203.559 112.51 204.746C115.078 204.043 117.505 203.154 119.659 201.593C119.267 199.926 118.574 198.35 117.116 197.447L115.273 197.99C119.811 196.607 123.987 194.04 127.263 190.603C130.671 187.028 133.115 182.59 134.226 177.777C132.242 174.337 130.064 171.007 127.704 167.807C125.15 164.337 122.384 161.018 119.428 157.882C114.914 163.634 110.606 169.421 106.092 175.17L105.268 193.78L104.94 201.188Z" fill="#F6E2D7"/>
<path d="M106.092 175.17L105.268 193.78C108.67 191.696 111.785 189.077 114.535 186.188C119.741 180.715 123.799 174.284 127.704 167.807C125.15 164.337 122.384 161.018 119.427 157.882C114.913 163.634 110.606 169.421 106.092 175.17Z" fill="#EFCAB9"/>
<path d="M112.511 205.687C112.374 205.687 112.237 205.657 112.111 205.597L104.541 202.039C104.198 201.878 103.985 201.526 104.002 201.147L105.152 175.13C105.161 174.933 105.231 174.745 105.352 174.591C107.606 171.719 109.847 168.789 112.014 165.954C114.184 163.117 116.428 160.182 118.689 157.303C118.858 157.088 119.112 156.957 119.386 156.944C119.655 156.929 119.924 157.039 120.112 157.238C125.843 163.319 130.866 170.072 135.039 177.309C135.158 177.516 135.194 177.759 135.141 177.991C134.001 182.924 131.512 187.51 127.944 191.251C125.346 193.976 122.242 196.154 118.822 197.67C119.625 198.575 120.204 199.802 120.574 201.38C120.661 201.749 120.517 202.134 120.21 202.356C117.737 204.146 114.929 205.058 112.759 205.653C112.678 205.675 112.594 205.687 112.511 205.687ZM105.908 200.604L112.595 203.748C114.489 203.215 116.622 202.487 118.583 201.196C118.211 199.932 117.681 199.051 116.95 198.477L115.58 198.879C115.381 198.94 115.18 198.999 114.979 199.055C114.482 199.196 113.964 198.907 113.821 198.41C113.678 197.914 113.964 197.394 114.46 197.249L115.04 197.078C119.431 195.735 123.411 193.281 126.584 189.954C129.833 186.547 132.124 182.395 133.224 177.925C129.343 171.251 124.728 165.001 119.49 159.327C117.466 161.919 115.457 164.546 113.508 167.096C111.396 169.857 109.215 172.709 107.016 175.513L105.908 200.604Z" fill="#1F404D"/>
<path d="M77.5469 237.706C85.9297 240.791 105.454 241.946 107.324 239.753C108.981 234.635 101.475 233.021 96.9996 232.118C98.8759 229.098 100.744 225.641 102.399 222.024C104.35 217.772 106.009 213.293 107.024 209.067C99.7885 209.624 87.9892 209.689 80.7846 210.244C80.8871 214.542 80.3048 220.224 79.6084 225.274C78.6829 232.032 77.5469 237.706 77.5469 237.706Z" fill="#F6E2D7"/>
<path d="M78.6041 234.096C78.7132 234.033 78.8381 233.982 78.9826 233.946C81.8301 233.248 84.7433 232.815 87.6816 232.495C90.5288 232.184 93.6931 231.578 96.5432 232.052C97.8064 232.262 98.9832 232.732 100.156 233.193C101.349 233.662 102.596 233.986 103.781 234.45C105.951 235.3 107.245 237.301 107.06 239.515C106.967 240.626 105.666 240.976 104.906 240.559C104.835 240.577 104.761 240.593 104.682 240.602C99.5862 241.19 94.2683 240.279 89.2148 239.663C86.7104 239.358 84.2072 239.015 81.7155 238.572C80.7527 238.401 79.4676 238.362 78.6296 237.818C78.2635 237.581 77.991 237.245 77.8514 236.844C77.7943 236.679 77.8451 236.037 77.7492 235.92C77.0589 235.078 77.7383 234.253 78.6041 234.096Z" fill="#666666"/>
<path d="M79.6079 225.274C87.3001 225.51 95.0332 224.397 102.399 222.024C104.349 217.772 106.009 213.293 107.023 209.067C99.788 209.624 87.9887 209.689 80.7841 210.244C80.8869 214.542 80.3043 220.224 79.6079 225.274Z" fill="#EFCAB9"/>
<path d="M100.022 241.83C98.1616 241.83 96.3018 241.743 94.8166 241.646C89.3677 241.292 81.884 240.303 77.2219 238.588C76.7871 238.428 76.5339 237.976 76.6249 237.522C76.6594 237.349 80.0786 220.118 79.8434 210.268C79.8316 209.768 80.2127 209.347 80.7109 209.308C84.3326 209.029 89.1742 208.871 93.8561 208.718C98.5248 208.565 103.352 208.408 106.95 208.131C107.253 208.107 107.543 208.23 107.738 208.458C107.933 208.687 108.007 208.995 107.936 209.287C106.305 216.072 102.808 224.273 98.4972 231.466C101.812 232.173 106.284 233.375 107.887 236.118C108.57 237.287 108.681 238.607 108.216 240.042C108.178 240.159 108.117 240.268 108.038 240.362C107.054 241.518 103.538 241.83 100.022 241.83ZM78.6249 237.085C82.4189 238.331 88.4982 239.342 94.7931 239.761C101.659 240.218 105.639 239.741 106.499 239.223C106.713 238.409 106.636 237.701 106.264 237.066C104.862 234.667 99.6264 233.607 96.8133 233.038C96.5118 232.977 96.2591 232.772 96.137 232.489C96.015 232.207 96.0391 231.882 96.2016 231.621C100.465 224.755 103.995 216.813 105.792 210.097C102.341 210.321 98.0671 210.461 93.9178 210.596C89.6279 210.736 85.2036 210.881 81.7349 211.118C81.7665 220.094 79.2886 233.626 78.6249 237.085Z" fill="#1F404D"/>
<path d="M78.2447 234.872C77.8266 234.872 77.4452 234.591 77.3355 234.167C77.2051 233.665 77.507 233.152 78.0095 233.022C84.2904 231.394 90.794 230.58 97.3583 230.6C97.8775 230.602 98.2967 231.024 98.295 231.544C98.2935 232.062 97.8729 232.48 97.3554 232.48C97.2689 232.485 97.1911 232.48 97.1093 232.48C90.7943 232.48 84.529 233.274 78.4816 234.842C78.4021 234.862 78.3228 234.872 78.2447 234.872Z" fill="#1F404D"/>
<path d="M36.9673 239.778C38.8732 241.922 58.3797 240.793 66.747 237.775C66.747 237.775 69.1201 232.456 70.6917 225.836C70.738 225.645 70.7869 225.454 70.8388 225.257C72.3384 219.673 76.672 212.309 76.8819 208.111C69.5604 207.549 60.9331 205.474 53.5436 204.905C52.4518 211.118 49.7117 213.96 48.8984 220.774C48.8786 220.94 48.8591 221.105 48.8424 221.277C48.445 225.161 47.8348 227.157 47.1996 232.289C42.7215 233.178 35.2208 234.763 36.9673 239.778Z" fill="#F6E2D7"/>
<path d="M48.8979 220.774C51.263 221.678 53.6671 222.445 56.1043 223.078C60.9194 224.332 65.8681 225.065 70.8384 225.257C72.3379 219.673 76.6715 212.309 76.8814 208.111C69.5599 207.549 60.9327 205.474 53.5431 204.905C52.4516 211.118 49.7115 213.961 48.8979 220.774Z" fill="#EFCAB9"/>
<path d="M65.6664 234.234C65.5567 234.173 65.4312 234.122 65.2862 234.087C62.4263 233.402 59.501 232.976 56.5504 232.661C53.6909 232.355 50.5088 231.759 47.6544 232.225C46.3895 232.432 45.2152 232.894 44.0448 233.347C42.8547 233.808 41.6096 234.126 40.4282 234.582C38.2667 235.417 37.0038 237.379 37.2258 239.546C37.337 240.632 38.6435 240.974 39.3967 240.567C39.4685 240.585 39.5426 240.6 39.6213 240.609C44.7259 241.183 50.033 240.293 55.0813 239.691C57.5842 239.392 60.0862 239.056 62.5765 238.623C63.5391 238.456 64.8253 238.418 65.6613 237.885C66.0265 237.652 66.2976 237.324 66.4351 236.931C66.4917 236.769 66.4372 236.139 66.5328 236.025C67.2205 235.199 66.5356 234.388 65.6664 234.234Z" fill="#666666"/>
<path d="M44.2814 241.83C40.7725 241.83 37.2625 241.526 36.2647 240.403C36.1831 240.311 36.1202 240.204 36.0797 240.087C35.5901 238.682 35.676 237.386 36.3345 236.235C37.8797 233.534 42.1981 232.355 46.3076 231.51C46.9084 223.555 49.9055 212.164 52.5112 204.741C52.6522 204.339 53.0436 204.082 53.4703 204.115C57.21 204.403 61.303 205.079 65.2612 205.733C69.1583 206.376 73.1884 207.042 76.8015 207.319C77.0975 207.342 77.3658 207.504 77.5243 207.755C77.6831 208.006 77.7132 208.317 77.6064 208.595C73.1203 220.224 67.699 237.874 67.6447 238.051C67.558 238.334 67.3432 238.559 67.0649 238.66C62.4132 240.337 54.9374 241.304 49.4925 241.65C48.0065 241.744 46.1439 241.83 44.2814 241.83ZM37.7806 239.235C38.6389 239.742 42.6291 240.212 49.5066 239.765C55.9801 239.345 62.2236 238.31 65.9878 237.044C66.8406 234.289 71.402 219.666 75.4067 209.084C72.0558 208.76 68.4525 208.165 64.9552 207.587C61.2924 206.982 57.513 206.358 54.0472 206.049C51.4616 213.588 48.5762 224.783 48.1363 232.343C48.1113 232.77 47.8012 233.127 47.3814 233.211C44.5614 233.772 39.312 234.815 37.9664 237.168C37.6186 237.776 37.5572 238.454 37.7806 239.235Z" fill="#1F404D"/>
<path d="M67.5063 235.465C67.4219 235.465 67.3363 235.453 67.251 235.43C62.5493 234.107 55.4417 233.303 47.2375 233.168C46.7183 233.159 46.3045 232.732 46.3131 232.212C46.3214 231.699 46.7407 231.288 47.2524 231.288C47.2579 231.288 47.263 231.288 47.2682 231.288C55.6298 231.426 62.9073 232.254 67.7601 233.62C68.2598 233.76 68.551 234.279 68.4103 234.779C68.2937 235.194 67.9164 235.465 67.5063 235.465Z" fill="#1F404D"/>
<path d="M76.449 216.318C78.4577 211.216 79.7169 207.88 81.5002 202.622C80.1979 209.336 80.2085 212.021 79.403 216.855C88.3855 218.777 99.4464 217.875 106.772 214.706C107.537 211.293 108.034 208.347 108.313 205.482C108.824 200.23 108.609 195.243 108.002 188.121L58.5001 187.047C54.5743 196.161 53.5914 198.798 50.1193 206.914C49.8267 207.59 49.5205 208.307 49.1929 209.067C55.6563 215.697 67.3295 216.132 76.449 216.318Z" fill="#4D8791"/>
<path d="M76.449 216.318C78.4577 211.215 79.7169 207.88 81.5002 202.622C80.1979 209.335 80.2085 212.021 79.403 216.854C88.3855 218.777 99.4464 217.875 106.772 214.706C107.537 211.293 108.034 208.347 108.313 205.482C105.126 209.011 101.477 212.126 97.4862 214.717C97.6206 211.167 96.2592 207.327 94.8061 204.086C94.39 207.531 93.2029 210.74 91.2292 213.592C87.1555 207.928 83.0657 202.141 82.0856 195.235C77.9071 198.731 75.6435 204.843 74.301 210.123C72.389 208.205 69.1826 206.441 67.7835 204.123C67.8131 206.43 68.3958 209.164 68.428 211.47C61.6394 212.98 55.2133 211.105 50.1193 206.913C49.8267 207.59 49.5205 208.307 49.1929 209.067C55.6563 215.697 67.3295 216.132 76.449 216.318Z" fill="#40797F"/>
<path d="M89.4482 218.789C85.9431 218.789 82.4457 218.452 79.2088 217.76C78.7249 217.656 78.4082 217.191 78.4894 216.702C78.7872 214.914 78.9713 213.434 79.1557 211.901C78.5917 213.384 77.9935 214.919 77.3098 216.656C77.1679 217.017 76.8302 217.248 76.4297 217.243C68.0778 217.074 55.4561 216.819 48.5295 209.713C48.2679 209.445 48.1938 209.045 48.3422 208.701C50.4661 203.772 51.7485 200.689 52.9893 197.707C54.233 194.718 55.5193 191.626 57.6497 186.681C57.7965 186.341 58.1311 186.122 58.5001 186.122C58.5067 186.122 58.5132 186.122 58.5201 186.122L108.023 187.196C108.495 187.206 108.885 187.571 108.925 188.043C109.853 198.926 109.885 205.065 107.675 214.909C107.61 215.198 107.411 215.438 107.14 215.556C102.252 217.67 95.839 218.789 89.4482 218.789ZM80.4576 216.124C88.9077 217.741 98.9768 216.924 105.972 214.039C107.943 205.081 108.015 199.485 107.15 189.029L59.1037 187.986C57.1234 192.59 55.8912 195.551 54.6986 198.418C53.5054 201.286 52.2729 204.248 50.2929 208.852C56.6185 214.829 67.9649 215.215 75.8226 215.379C77.6705 210.673 78.8995 207.404 80.6225 202.325C80.779 201.864 81.2658 201.603 81.7367 201.727C82.2074 201.852 82.5008 202.32 82.4081 202.799C81.6362 206.777 81.3309 209.316 81.0363 211.771C80.8652 213.193 80.7023 214.549 80.4576 216.124Z" fill="#1F404D"/>
<path d="M59.8077 180.258C59.2491 183.169 58.9134 183.945 57.7855 187.45C72.2863 193.358 93.769 192.015 108.807 189.598C108.802 189.56 108.796 189.525 108.794 189.488C108.302 185.855 108.313 184.697 107.937 182.071C107.932 182.047 107.929 182.026 107.926 182.001C107.854 181.502 107.768 180.949 107.66 180.315H107.679L107.704 180.318C111.176 178.169 114.479 175.962 117.406 173.551C120.832 170.739 123.749 167.651 125.838 164.079C125.679 163.795 125.515 163.515 125.349 163.236C125.22 163.019 125.086 162.801 124.949 162.586C124.664 162.133 124.366 161.687 124.06 161.246C123.928 161.058 123.796 160.871 123.659 160.688C123.646 160.666 123.63 160.645 123.614 160.624C123.498 160.462 123.38 160.304 123.257 160.145C123.173 160.03 123.087 159.917 122.996 159.804C122.932 159.721 122.867 159.635 122.797 159.552C122.714 159.442 122.625 159.332 122.537 159.224C122.414 159.069 122.287 158.916 122.158 158.762C122.118 158.714 122.078 158.666 122.035 158.617C121.912 158.47 121.785 158.322 121.654 158.174C121.594 158.102 121.53 158.032 121.466 157.96C121.329 157.804 121.189 157.648 121.049 157.495C120.891 157.323 120.73 157.151 120.569 156.979C120.373 156.773 120.177 156.571 119.975 156.37C119.83 156.222 119.685 156.08 119.538 155.935C119.009 155.416 118.464 154.912 117.905 154.423C117.72 154.259 117.534 154.098 117.344 153.94C117.123 153.752 116.898 153.564 116.672 153.381C116.648 153.36 116.624 153.338 116.597 153.319C116.382 153.145 116.162 152.97 115.942 152.798C115.711 152.618 115.48 152.441 115.244 152.264C115.222 152.248 115.203 152.232 115.182 152.218C114.991 152.076 114.798 151.934 114.605 151.794C114.527 151.735 114.452 151.681 114.374 151.627C114.164 151.477 113.955 151.329 113.743 151.184C113.555 151.053 113.364 150.924 113.173 150.798C113.063 150.72 112.953 150.647 112.84 150.575C112.634 150.438 112.424 150.304 112.215 150.169C111.957 150.006 111.696 149.842 111.433 149.683C110.909 149.361 110.378 149.049 109.838 148.743C109.263 148.418 108.681 148.104 108.09 147.801C107.851 147.677 107.612 147.554 107.373 147.436C107.094 147.296 106.814 147.159 106.532 147.025C106.256 146.891 105.976 146.759 105.697 146.63C105.686 146.624 105.676 146.619 105.665 146.616C105.386 146.487 105.106 146.364 104.827 146.24C104.58 146.13 104.333 146.023 104.083 145.918C104.043 145.9 104.003 145.883 103.962 145.867C103.823 145.808 103.683 145.749 103.543 145.693C103.358 145.615 103.173 145.539 102.985 145.464C102.692 145.346 102.397 145.231 102.099 145.118C101.889 145.038 101.68 144.959 101.47 144.882C101.261 144.804 101.052 144.726 100.839 144.651C100.63 144.575 100.418 144.5 100.205 144.428C99.9932 144.353 99.7813 144.28 99.5691 144.21C99.3569 144.141 99.1447 144.071 98.9299 144.001C98.7392 143.939 98.5511 143.88 98.3607 143.818C98.3096 143.802 98.2614 143.786 98.2102 143.773C98.0411 143.719 97.8719 143.668 97.6999 143.617C97.289 143.494 96.8781 143.373 96.4645 143.257C96.2578 143.198 96.0485 143.142 95.8417 143.086C95.4173 142.968 94.9932 142.857 94.5688 142.753C94.3675 142.704 94.1687 142.656 93.9671 142.608C93.551 142.506 93.132 142.411 92.7131 142.32C92.5037 142.274 92.2915 142.229 92.0819 142.186C91.8725 142.14 91.6629 142.1 91.4507 142.057C91.2413 142.014 91.0317 141.973 90.8195 141.933C90.6073 141.893 90.398 141.853 90.1883 141.818C89.979 141.78 89.7668 141.743 89.5571 141.708C89.3449 141.673 89.1356 141.638 88.9234 141.603C87.5484 141.383 86.1735 141.206 84.8014 141.074C84.5464 141.05 84.294 141.026 84.0387 141.007C83.9824 140.999 83.9233 140.993 83.8641 140.991C83.6198 140.969 83.3754 140.951 83.131 140.935C82.9349 140.921 82.7361 140.908 82.54 140.897C82.3976 140.886 82.2555 140.878 82.1131 140.87C81.5652 140.84 81.0175 140.816 80.4722 140.8C80.268 140.795 80.0641 140.79 79.8625 140.784C79.5242 140.779 79.1886 140.773 78.8529 140.773H78.6515C78.1171 140.773 77.5882 140.781 77.0618 140.798C77.0216 140.8 76.9786 140.8 76.9384 140.803C76.675 140.811 76.4146 140.822 76.1516 140.835C75.8294 140.851 75.5097 140.87 75.193 140.891C74.9917 140.905 74.7875 140.921 74.5859 140.937C73.7132 141.007 72.8486 141.101 71.9946 141.219C71.7611 141.251 71.5274 141.283 71.2939 141.321C71.1248 141.345 70.9556 141.372 70.7862 141.401C70.7003 141.415 70.6145 141.428 70.5283 141.445C70.3351 141.477 70.1418 141.512 69.9482 141.549C69.8087 141.571 69.6691 141.598 69.5293 141.627C69.4138 141.649 69.2984 141.67 69.1827 141.694C69.0325 141.727 68.8846 141.756 68.737 141.788C68.2913 141.882 67.8482 141.984 67.4077 142.089C67.4049 142.092 67.4049 142.092 67.4023 142.092C66.9618 142.201 66.5215 142.314 66.0865 142.438C65.9093 142.486 65.7321 142.537 65.5575 142.588C65.4823 142.607 65.4099 142.629 65.3401 142.653C65.1546 142.707 64.9723 142.763 64.7896 142.822C64.5748 142.889 64.3601 142.959 64.1478 143.029C63.9356 143.099 63.7234 143.171 63.5115 143.246C63.3395 143.303 63.1703 143.362 63.0012 143.426C62.832 143.488 62.6629 143.553 62.4964 143.614C62.3272 143.679 62.1607 143.743 61.9941 143.808C60.8234 144.267 59.6767 144.777 58.5571 145.338C58.2375 145.497 57.9207 145.66 57.6065 145.83C57.4589 145.907 57.3139 145.988 57.1689 146.066C57.1394 146.079 57.1098 146.095 57.0802 146.114C56.793 146.275 56.5056 146.436 56.221 146.603C56.2104 146.605 56.1997 146.611 56.1888 146.619C56.0573 146.7 55.9229 146.777 55.7914 146.855C55.7538 146.877 55.7161 146.898 55.6785 146.925C55.5441 147.006 55.4126 147.086 55.2785 147.169C54.9724 147.355 54.6714 147.548 54.3708 147.747C54.0727 147.94 53.7746 148.141 53.4791 148.345C53.3287 148.445 53.1811 148.55 53.0335 148.657C52.8859 148.762 52.738 148.866 52.593 148.974C52.1151 149.32 51.6422 149.677 51.1778 150.048C51.073 150.131 50.9711 150.214 50.8663 150.298C50.4823 150.606 50.1035 150.923 49.7277 151.248C49.6016 151.356 49.4752 151.466 49.3517 151.579C49.3006 151.621 49.2469 151.667 49.1961 151.715C49.1074 151.793 49.0189 151.871 48.933 151.952C48.0012 152.79 47.0964 153.679 46.2208 154.61C46.0652 154.774 45.9092 154.941 45.759 155.107C45.3831 155.515 45.0125 155.934 44.6475 156.359C44.4755 156.557 44.3092 156.759 44.14 156.96C44.1372 156.963 44.1371 156.963 44.1346 156.966C43.9628 157.175 43.7909 157.385 43.6191 157.597C43.4554 157.801 43.2914 158.005 43.1329 158.212C42.9532 158.44 42.7757 158.671 42.5986 158.905C42.4375 159.117 42.2789 159.332 42.1204 159.549C41.8224 159.952 41.5297 160.363 41.2423 160.779C41.1616 160.897 41.0786 161.016 40.9979 161.134C40.8799 161.308 40.7616 161.483 40.6435 161.66C40.485 161.896 40.3294 162.133 40.1763 162.374C39.865 162.855 39.5586 163.344 39.258 163.841C39.1075 164.088 38.9573 164.337 38.8094 164.59C38.675 164.818 38.5435 165.046 38.412 165.277C38.3933 165.307 38.3744 165.339 38.3583 165.371C38.2483 165.564 38.1381 165.758 38.0307 165.954C37.9554 166.088 37.8802 166.222 37.8078 166.359C37.7059 166.539 37.6091 166.725 37.5098 166.907C44.4996 173.314 52.9395 177.404 59.9322 178.277L60.1606 178.288C60.0305 179.047 59.9151 179.695 59.8077 180.258Z" fill="#FBB03B"/>
<path d="M59.8078 180.259C59.8696 180.269 59.9287 180.28 59.9905 180.291C70.7264 182.12 81.6638 182.974 91.8279 179.448C95.2006 178.277 98.466 176.599 100.99 174.069C102.594 172.463 103.872 170.483 104.574 168.337C104.879 169.992 105.166 171.652 105.603 173.276C106.288 175.822 106.978 178.373 107.765 180.891C107.818 181.258 107.872 181.627 107.927 182.002C107.929 182.026 107.932 182.047 107.937 182.071C108.262 184.351 108.576 186.779 108.941 189.464C108.893 189.472 108.845 189.48 108.794 189.488C108.797 189.526 108.802 189.561 108.807 189.598C93.7695 192.015 72.2865 193.358 57.7856 187.45C58.9136 183.946 59.2493 183.17 59.8078 180.259Z" fill="#F7931E"/>
<path d="M63.5137 143.247C63.6722 144.678 63.86 146.104 64.1931 147.503C66.5294 157.278 76.6611 163.556 86.4278 162.181C90.9877 161.539 95.3756 159.284 98.4933 155.876C101.109 153.011 102.752 149.512 103.963 145.868C102.32 145.175 100.639 144.552 98.9309 144.001C97.8113 147.457 96.2672 150.774 93.5118 153.25C87.9989 158.21 79.2795 158.25 73.7476 153.29C70.525 150.401 69.2765 146.756 68.8228 142.551C68.7958 142.296 68.7665 142.041 68.7395 141.789C66.9481 142.167 65.2053 142.654 63.5137 143.247Z" fill="white"/>
<path d="M107.705 181.258C107.39 181.258 107.082 181.1 106.905 180.813C106.631 180.371 106.768 179.792 107.21 179.519C111.306 176.985 114.266 174.92 116.808 172.826C120.287 169.971 122.89 167.102 124.749 164.069C124.681 163.951 124.612 163.835 124.542 163.718C124.417 163.507 124.288 163.298 124.156 163.092C123.895 162.675 123.612 162.249 123.289 161.783C123.165 161.606 123.04 161.427 122.909 161.253C122.893 161.232 122.878 161.21 122.864 161.188C122.743 161.02 122.632 160.872 122.516 160.723C122.509 160.714 122.502 160.705 122.495 160.695C122.422 160.594 122.347 160.495 122.267 160.396L122.205 160.317C122.164 160.263 122.123 160.209 122.079 160.156C122.068 160.144 122.059 160.132 122.049 160.119C121.973 160.02 121.893 159.92 121.813 159.823C121.684 159.66 121.563 159.514 121.44 159.368C121.403 159.324 121.369 159.282 121.333 159.241C121.197 159.08 121.077 158.94 120.952 158.799C120.943 158.789 120.934 158.778 120.925 158.767C120.889 158.723 120.85 158.68 120.811 158.637L120.764 158.584C120.627 158.428 120.492 158.277 120.356 158.128C120.222 157.983 120.082 157.834 119.943 157.686L119.883 157.622C119.7 157.431 119.508 157.232 119.312 157.035C119.164 156.882 119.025 156.746 118.886 156.611C118.365 156.101 117.829 155.605 117.287 155.13C117.104 154.969 116.922 154.812 116.739 154.659C116.517 154.466 116.3 154.288 116.082 154.112C116.071 154.103 116.06 154.093 116.048 154.083C116.042 154.078 116.05 154.083 116.06 154.09C116.039 154.076 116.019 154.06 116 154.044C115.793 153.874 115.582 153.706 115.37 153.543C115.137 153.359 114.915 153.188 114.686 153.02C114.681 153.016 114.661 153 114.651 152.993C114.638 152.984 114.626 152.975 114.614 152.966C114.432 152.828 114.247 152.692 114.062 152.561C114.054 152.555 114.045 152.548 114.037 152.542C113.971 152.492 113.908 152.447 113.841 152.401C113.621 152.24 113.422 152.1 113.22 151.965C113.026 151.829 112.844 151.704 112.663 151.586C112.652 151.579 112.642 151.572 112.631 151.564C112.533 151.495 112.434 151.43 112.333 151.365C112.122 151.226 111.919 151.093 111.716 150.965C111.457 150.798 111.205 150.641 110.95 150.488C110.455 150.181 109.945 149.881 109.378 149.562C108.815 149.244 108.238 148.933 107.661 148.636C107.422 148.508 107.193 148.393 106.961 148.28C106.679 148.134 106.408 148.003 106.136 147.876C105.853 147.736 105.586 147.613 105.319 147.49C105.302 147.483 105.285 147.476 105.269 147.468C105.001 147.343 104.731 147.221 104.458 147.104C104.205 146.991 103.964 146.887 103.721 146.785C103.709 146.78 103.697 146.775 103.686 146.769C103.662 146.758 103.639 146.749 103.615 146.74C103.609 146.737 103.586 146.727 103.58 146.725C103.451 146.671 103.322 146.616 103.192 146.564C103.001 146.483 102.82 146.41 102.637 146.337C102.348 146.22 102.059 146.107 101.767 145.997C101.561 145.916 101.361 145.839 101.158 145.767C100.932 145.681 100.731 145.609 100.527 145.536C100.311 145.457 100.108 145.387 99.903 145.317C99.6876 145.24 99.4819 145.17 99.2766 145.103C99.0612 145.029 98.8531 144.962 98.6478 144.896C98.4473 144.829 98.267 144.772 98.0841 144.716L98.0453 144.703C98.0209 144.695 97.997 144.687 97.9718 144.681C97.9568 144.676 97.9419 144.672 97.9272 144.668C97.7679 144.617 97.6088 144.566 97.4469 144.521C96.986 144.379 96.5914 144.264 96.2192 144.163C96.0015 144.098 95.8032 144.045 95.607 143.994C95.2013 143.881 94.7938 143.775 94.3449 143.664L94.1801 143.623C94.0411 143.589 93.9006 143.554 93.7608 143.523C93.3367 143.419 92.9255 143.327 92.5145 143.237C92.3023 143.188 92.1013 143.147 91.8974 143.106C91.6812 143.059 91.4767 143.017 91.2748 142.979L91.2091 142.965C91.0233 142.928 90.8392 142.89 90.6551 142.857L90.5888 142.845C90.4033 142.809 90.2198 142.775 90.036 142.744C89.827 142.704 89.6383 142.673 89.4519 142.641L89.4051 142.634C89.1906 142.596 88.9853 142.562 88.7828 142.531C87.4162 142.312 86.049 142.136 84.7143 142.008L84.665 142.004C84.4335 141.982 84.2043 141.96 83.9723 141.943C83.9513 141.942 83.9304 141.94 83.9091 141.937C83.8818 141.933 83.8531 141.93 83.8244 141.929C83.8109 141.928 83.7977 141.927 83.7845 141.926C83.5467 141.906 83.3092 141.887 83.0715 141.871C82.8771 141.858 82.6829 141.845 82.4911 141.835C82.3412 141.824 82.2108 141.816 82.0801 141.809C81.4803 141.776 80.9511 141.754 80.4471 141.739L79.8403 141.723C79.5167 141.718 79.1861 141.713 78.8553 141.713H78.654C78.1354 141.713 77.6148 141.72 77.1063 141.736C77.0827 141.737 77.0589 141.738 77.0347 141.739L77.0057 141.74C76.996 141.741 76.9787 141.741 76.9693 141.742C76.712 141.749 76.4584 141.76 76.2011 141.773C75.8841 141.789 75.5705 141.807 75.2592 141.829C75.0599 141.842 74.8603 141.858 74.6636 141.874C73.8099 141.942 72.9562 142.035 72.126 142.149C71.8988 142.181 71.6722 142.212 71.4454 142.249C71.2691 142.274 71.1094 142.299 70.9498 142.327C70.8573 142.342 70.7806 142.353 70.7045 142.368C70.5001 142.402 70.3154 142.435 70.1299 142.471C70.1178 142.474 70.1055 142.476 70.0934 142.478C69.9711 142.496 69.8488 142.52 69.7267 142.546C69.5952 142.571 69.4864 142.591 69.3775 142.614C69.2282 142.643 69.0924 142.67 68.9562 142.702C68.5468 142.787 68.1339 142.88 67.6684 142.993C67.6543 142.997 67.6402 143.001 67.6264 143.004L67.6267 143.004C67.206 143.106 66.7752 143.22 66.3459 143.341C66.1613 143.392 65.9979 143.437 65.8371 143.486C65.821 143.491 65.8049 143.495 65.7886 143.499C65.7406 143.511 65.6944 143.525 65.6499 143.54C65.6349 143.546 65.62 143.55 65.6051 143.555C65.4293 143.606 65.2556 143.659 65.0824 143.715C64.8593 143.783 64.656 143.849 64.455 143.917C64.2324 143.987 64.0357 144.054 63.8416 144.126C63.8304 144.131 63.8192 144.134 63.808 144.138C63.6498 144.19 63.4944 144.244 63.339 144.304C63.159 144.367 63.0036 144.423 62.8514 144.485C62.8417 144.489 62.8319 144.493 62.8216 144.496C62.6662 144.553 62.5135 144.61 62.3607 144.674C61.1971 145.128 60.0683 145.63 58.9825 146.177C58.6669 146.333 58.3597 146.493 58.0547 146.656C57.8985 146.736 57.7629 146.812 57.628 146.887C57.6064 146.899 57.5849 146.91 57.5622 146.92C57.5453 146.93 57.551 146.929 57.5335 146.938C57.2535 147.091 56.9787 147.247 56.7039 147.41C56.6832 147.422 56.662 147.434 56.6407 147.445L56.5606 147.492C56.469 147.546 56.3762 147.6 56.2852 147.656C56.2769 147.661 56.2683 147.666 56.2599 147.671L56.2229 147.693C56.1982 147.71 56.1784 147.723 56.1523 147.738C56.0325 147.807 55.9124 147.879 55.795 147.956C55.7861 147.962 55.7769 147.968 55.7674 147.973C55.5061 148.132 55.2276 148.309 54.891 148.531C54.5952 148.721 54.3132 148.91 54.0203 149.115C53.8615 149.221 53.7254 149.318 53.5893 149.417C53.4305 149.526 53.2918 149.627 53.1554 149.729C52.6615 150.086 52.1971 150.439 51.7664 150.782L51.6811 150.85C51.6113 150.905 51.5421 150.959 51.4741 151.016C51.0956 151.321 50.7208 151.634 50.3446 151.959C50.2209 152.065 50.1029 152.167 49.9872 152.273C49.9783 152.281 49.969 152.289 49.9598 152.297C49.9222 152.329 49.8823 152.362 49.845 152.398C49.8323 152.41 49.8194 152.421 49.8062 152.432C49.7292 152.498 49.6552 152.565 49.5782 152.637C48.6662 153.458 47.7728 154.333 46.9076 155.254C46.7542 155.416 46.6035 155.576 46.4585 155.737C46.1056 156.121 45.7486 156.522 45.3618 156.972C45.236 157.118 45.1143 157.263 44.9925 157.409L44.8615 157.565C44.8558 157.571 44.8503 157.578 44.8443 157.585C44.6798 157.785 44.5152 157.986 44.351 158.188C44.1942 158.383 44.0348 158.582 43.8809 158.783C43.6959 159.017 43.5225 159.243 43.349 159.472C43.1914 159.68 43.0366 159.89 42.8818 160.102C42.5947 160.49 42.3052 160.895 42.0178 161.312L41.7751 161.664C41.6611 161.833 41.544 162.006 41.4265 162.181C41.2717 162.413 41.1204 162.642 40.9717 162.877C40.665 163.35 40.3608 163.835 40.0633 164.327C39.9146 164.571 39.7673 164.816 39.6219 165.064C39.489 165.29 39.3595 165.515 39.2303 165.742C39.2231 165.755 39.2151 165.768 39.207 165.781C39.2002 165.795 39.1846 165.822 39.1772 165.835L39.1571 165.871C39.056 166.048 38.9552 166.225 38.8567 166.405C38.7976 166.511 38.743 166.609 38.6904 166.705C45.2297 172.523 53.1669 176.485 60.0508 177.344C60.5659 177.408 60.9312 177.878 60.8672 178.393C60.8026 178.908 60.3356 179.274 59.8181 179.209C52.3697 178.279 43.7933 173.939 36.8764 167.6C36.5583 167.308 36.4795 166.836 36.6866 166.457L36.7871 166.271C36.8546 166.145 36.9223 166.019 36.9924 165.895C37.0541 165.778 37.1312 165.64 37.2084 165.502C37.3118 165.313 37.4177 165.127 37.5234 164.942L37.534 164.923C37.557 164.879 37.582 164.836 37.6072 164.795C37.7379 164.566 37.8683 164.339 38.0015 164.113C38.1511 163.858 38.3042 163.603 38.4572 163.352C38.7636 162.846 39.0778 162.344 39.39 161.863C39.5422 161.623 39.7021 161.379 39.8649 161.136C39.9833 160.959 40.1024 160.783 40.2216 160.607L40.4685 160.249C40.7703 159.811 41.0719 159.389 41.3671 158.99C41.525 158.773 41.687 158.554 41.8518 158.337C42.0327 158.098 42.2136 157.862 42.3971 157.63C42.5516 157.428 42.7199 157.218 42.8879 157.008C43.0636 156.791 43.2371 156.581 43.41 156.369C43.4194 156.358 43.4292 156.347 43.4395 156.335L43.5507 156.203C43.6793 156.049 43.8077 155.896 43.9389 155.744C44.3384 155.28 44.7088 154.863 45.0701 154.47C45.2194 154.305 45.3805 154.133 45.5419 153.963C46.4393 153.008 47.3708 152.095 48.3072 151.253C48.3876 151.177 48.4787 151.095 48.5723 151.014C48.6263 150.965 48.6814 150.917 48.7348 150.871C48.862 150.756 48.9918 150.643 49.1213 150.533C49.5087 150.198 49.9004 149.871 50.2797 149.565C50.3472 149.508 50.4322 149.441 50.5181 149.374L50.5959 149.312C51.0476 148.952 51.5352 148.582 52.0438 148.213C52.1891 148.106 52.3459 147.992 52.5024 147.884C52.6416 147.782 52.801 147.669 52.963 147.562C53.2559 147.356 53.5574 147.154 53.8647 146.956C54.2073 146.73 54.5016 146.543 54.7805 146.374C54.9114 146.289 55.0449 146.208 55.1785 146.13C55.2238 146.1 55.2692 146.073 55.3149 146.047C55.4117 145.987 55.5102 145.929 55.6078 145.872L55.6916 145.823C55.725 145.801 55.7594 145.782 55.7947 145.765C56.0649 145.605 56.3355 145.452 56.6106 145.301C56.6539 145.275 56.6973 145.251 56.7403 145.23C56.8868 145.149 57.0335 145.068 57.1826 144.992C57.4875 144.828 57.8132 144.659 58.1426 144.496C59.2751 143.926 60.4591 143.399 61.6554 142.932C61.8096 142.867 61.9845 142.802 62.1628 142.737C62.338 142.666 62.5161 142.601 62.6944 142.539C62.8472 142.48 63.0238 142.419 63.2038 142.359C63.4232 142.278 63.6455 142.202 63.8703 142.132C64.0699 142.063 64.2962 141.99 64.5225 141.922C64.6879 141.868 64.8725 141.811 65.0594 141.756C65.1393 141.729 65.2217 141.705 65.3067 141.683C65.4796 141.63 65.6547 141.582 65.8299 141.534C66.2704 141.409 66.7106 141.293 67.1414 141.188C67.1566 141.184 67.1718 141.18 67.1876 141.176C67.6905 141.053 68.1364 140.952 68.5511 140.867C68.682 140.836 68.8417 140.804 69.0036 140.772C69.1153 140.748 69.2374 140.726 69.3594 140.703C69.4881 140.675 69.6382 140.647 69.7887 140.623C69.9848 140.585 70.1802 140.55 70.376 140.518C70.4524 140.503 70.5474 140.488 70.6431 140.473C70.8056 140.445 70.9842 140.416 71.1637 140.391C71.3871 140.354 71.6278 140.321 71.8684 140.288C72.7339 140.168 73.6238 140.072 74.5134 140C74.7191 139.984 74.9272 139.968 75.1331 139.954C75.4536 139.932 75.7786 139.913 76.1066 139.896C76.3711 139.883 76.633 139.872 76.8978 139.864C76.9224 139.863 76.9477 139.862 76.9733 139.861L77.0023 139.86C77.0115 139.859 77.0261 139.858 77.0353 139.858C77.5674 139.842 78.1119 139.833 78.654 139.833H78.8553C79.1962 139.833 79.5368 139.839 79.8802 139.844L80.4991 139.86C81.0214 139.876 81.5656 139.899 82.1657 139.931C82.3291 139.941 82.471 139.949 82.6135 139.96C82.7944 139.969 82.9974 139.983 83.1975 139.997C83.4405 140.013 83.6851 140.031 83.9306 140.053C84.0007 140.056 84.0705 140.063 84.1386 140.071C84.3738 140.089 84.607 140.111 84.8416 140.133L84.8921 140.138C86.2676 140.27 87.6741 140.451 89.0741 140.675C89.2848 140.707 89.5042 140.744 89.7233 140.782L89.7601 140.788C89.9622 140.822 90.1664 140.856 90.3677 140.895C90.542 140.924 90.7393 140.961 90.9389 140.999L90.9963 141.01C91.1852 141.044 91.3825 141.084 91.5818 141.124L91.6387 141.135C91.8472 141.176 92.0666 141.22 92.2837 141.268C92.4902 141.309 92.7081 141.354 92.9257 141.404C93.341 141.495 93.7677 141.591 94.1918 141.694C94.3276 141.725 94.4784 141.762 94.6286 141.799L94.7917 141.839C95.2615 141.955 95.6865 142.066 96.094 142.18C96.2962 142.232 96.5167 142.292 96.7341 142.357C97.1039 142.457 97.5175 142.578 97.9764 142.719C98.1312 142.762 98.3035 142.816 98.4761 142.871C98.5232 142.884 98.5694 142.899 98.6162 142.914L98.644 142.922C98.8373 142.982 99.0331 143.044 99.2315 143.111C99.4326 143.174 99.6543 143.246 99.8731 143.321C100.082 143.39 100.3 143.464 100.519 143.542C100.729 143.613 100.944 143.688 101.163 143.768C101.373 143.843 101.591 143.921 101.808 144.005C102.006 144.074 102.224 144.158 102.44 144.242C102.736 144.354 103.038 144.472 103.337 144.593C103.527 144.669 103.717 144.746 103.907 144.826C104.034 144.877 104.172 144.936 104.31 144.994C104.361 145.014 104.411 145.035 104.461 145.058C104.713 145.164 104.961 145.272 105.209 145.382C105.476 145.496 105.751 145.62 106.024 145.748C106.057 145.761 106.084 145.773 106.102 145.782C106.393 145.916 106.672 146.046 106.949 146.183C107.222 146.31 107.514 146.452 107.802 146.6C108.037 146.714 108.286 146.84 108.532 146.972C109.117 147.272 109.716 147.595 110.3 147.925C110.888 148.256 111.421 148.57 111.928 148.885C112.188 149.041 112.457 149.208 112.724 149.38C112.93 149.509 113.145 149.65 113.359 149.791C113.468 149.862 113.583 149.938 113.699 150.019C113.894 150.146 114.089 150.28 114.281 150.415C114.488 150.553 114.708 150.708 114.928 150.869C114.993 150.913 115.074 150.972 115.16 151.036C115.351 151.171 115.542 151.312 115.73 151.455C115.754 151.471 115.777 151.489 115.801 151.507C116.046 151.688 116.285 151.872 116.524 152.061C116.736 152.224 116.958 152.399 117.175 152.578C117.211 152.605 117.245 152.634 117.279 152.663C117.507 152.848 117.736 153.036 117.958 153.229C118.142 153.384 118.336 153.55 118.527 153.719C119.092 154.213 119.654 154.734 120.195 155.263C120.345 155.409 120.501 155.562 120.652 155.718C120.845 155.911 121.046 156.119 121.246 156.328L121.314 156.4C121.457 156.553 121.599 156.705 121.74 156.858C121.887 157.019 122.03 157.179 122.171 157.339L122.209 157.381C122.263 157.442 122.317 157.503 122.368 157.564C122.502 157.714 122.63 157.864 122.756 158.015C122.787 158.049 122.833 158.105 122.88 158.16C123.012 158.317 123.144 158.477 123.273 158.64C123.354 158.739 123.446 158.852 123.533 158.967C123.589 159.034 123.642 159.103 123.694 159.171L123.738 159.228C123.826 159.336 123.918 159.457 124.008 159.582C124.135 159.746 124.258 159.91 124.377 160.076C124.391 160.095 124.409 160.12 124.428 160.147C124.565 160.33 124.697 160.519 124.829 160.708C125.171 161.2 125.47 161.65 125.744 162.087C125.883 162.305 126.023 162.531 126.157 162.758C126.327 163.042 126.495 163.329 126.658 163.622C126.82 163.913 126.816 164.267 126.648 164.554C124.659 167.955 121.83 171.135 118.001 174.277C115.392 176.427 112.368 178.536 108.197 181.117C108.044 181.213 107.873 181.258 107.705 181.258ZM114.672 153.008C114.675 153.009 114.678 153.011 114.681 153.013C114.678 153.011 114.675 153.009 114.672 153.008ZM105.281 147.473C105.282 147.473 105.282 147.473 105.283 147.473C105.282 147.473 105.282 147.473 105.281 147.473Z" fill="#1F404D"/>
<path d="M84.6497 192.453C75.5256 192.453 65.5923 191.458 57.5653 188.187C57.1104 188.001 56.875 187.497 57.0252 187.029L57.0423 186.976C57.8969 184.315 58.5718 182.214 59.0758 180.076C60.1159 175.648 60.4495 170.964 60.4495 160.801C60.4495 160.282 60.8706 159.861 61.3895 159.861C61.9084 159.861 62.3291 160.282 62.3291 160.801C62.3291 171.129 61.9833 175.917 60.9053 180.506C60.4355 182.499 59.833 184.428 59.0838 186.765C75.4834 193.028 99.6441 189.996 107.887 188.684C107.802 188.052 107.719 187.435 107.638 186.83C107.422 185.216 107.218 183.691 107.01 182.23C107.003 182.19 106.997 182.152 106.992 182.11L106.936 181.727C106.874 181.298 106.813 180.875 106.75 180.456C105.96 175.252 105.146 171.554 103.941 167.693C102.799 164.043 101.318 160.314 99.2794 155.958C99.0594 155.488 99.2622 154.928 99.7323 154.708C100.202 154.488 100.762 154.69 100.982 155.161C103.057 159.595 104.568 163.399 105.735 167.132C106.971 171.091 107.804 174.869 108.609 180.174C108.673 180.597 108.735 181.024 108.797 181.457L108.857 181.866C108.857 181.87 108.859 181.884 108.86 181.894C108.863 181.909 108.866 181.924 108.868 181.939C109.078 183.416 109.284 184.953 109.502 186.58C109.621 187.47 109.744 188.388 109.873 189.338C109.941 189.841 109.598 190.308 109.097 190.391L108.942 190.417C104.822 191.099 95.2865 192.453 84.6497 192.453ZM108.855 181.869C108.855 181.87 108.855 181.87 108.855 181.87C108.855 181.87 108.855 181.87 108.855 181.869Z" fill="#1F404D"/>
<path d="M74.2953 142.548C74.2439 143.749 74.2933 144.948 74.4928 146.142C75.0999 149.757 77.4383 153.331 80.981 154.278C85.011 155.357 89.2835 152.671 91.3996 149.075C92.1413 147.816 92.678 146.47 93.0798 145.075C93.8281 142.485 94.115 139.723 94.3806 137.025C88.1107 136.731 81.4545 137.076 75.4468 135.252C74.9247 137.654 74.401 140.104 74.2953 142.548Z" fill="#F6E2D7"/>
<g opacity="0.5">
<path d="M74.2949 142.547C76.2089 144.177 78.7241 145.49 81.6946 146.129C85.7392 147.001 89.8144 146.443 93.0794 145.075C93.8278 142.485 94.1147 139.723 94.3803 137.025C88.1104 136.731 81.4542 137.076 75.4464 135.252C74.9244 137.654 74.4006 140.104 74.2949 142.547Z" fill="#E2B8A3"/>
</g>
<path d="M82.8316 155.552C82.1312 155.552 81.4227 155.464 80.7146 155.274C77.0679 154.299 74.2267 150.782 73.4766 146.313C73.2762 145.115 73.2073 143.87 73.2656 142.504C73.3776 139.917 73.9418 137.323 74.44 135.034C74.5012 134.753 74.677 134.51 74.9251 134.365C75.1732 134.219 75.4713 134.184 75.7461 134.267C80.2442 135.632 85.2296 135.748 90.0511 135.86C91.4918 135.894 92.9816 135.928 94.4286 135.996C94.7109 136.009 94.9751 136.138 95.16 136.352C95.3449 136.565 95.4337 136.846 95.4062 137.127C95.1535 139.693 94.8671 142.603 94.0697 145.362C93.6105 146.956 93.0276 148.342 92.2875 149.599C90.4078 152.793 86.7488 155.552 82.8316 155.552ZM76.2228 136.542C75.8118 138.47 75.4127 140.564 75.3248 142.592C75.2725 143.812 75.3329 144.918 75.5095 145.972C76.0149 148.982 77.9851 152.411 81.247 153.283C84.9232 154.267 88.6897 151.648 90.5111 148.552C91.1627 147.446 91.6785 146.216 92.0891 144.79C92.7275 142.582 93.0219 140.204 93.2464 138.01C92.167 137.971 91.0714 137.945 90.0031 137.921C85.4143 137.814 80.681 137.704 76.2228 136.542Z" fill="#1F404D"/>
<path d="M38.3076 63.4788C36.6725 60.1299 33.5867 57.5213 30.0123 56.4662C26.438 55.4112 22.4301 55.9261 19.2385 57.8504C14.4426 60.7418 11.8895 66.3992 11.2468 71.9624C10.4704 78.6829 12.1416 85.6595 15.879 91.2982C19.6165 96.9373 25.391 101.194 31.8829 103.097C36.6464 102.84 40.5004 99.7285 42.5645 95.4277C44.6286 91.1268 44.8716 86.1623 44.39 81.4161C43.7732 75.3323 40.9909 68.9736 38.3076 63.4788Z" fill="#F6E2D7"/>
<path d="M31.8827 104.127C31.7848 104.127 31.687 104.113 31.5928 104.085C24.9088 102.126 18.868 97.6731 15.0197 91.8673C11.1717 86.0614 9.42315 78.7629 10.2226 71.8437C10.9931 65.1758 14.085 59.7536 18.706 56.9675C22.1318 54.9022 26.4678 54.3454 30.3037 55.4774C34.1402 56.6097 37.4784 59.4317 39.2339 63.0261C41.9343 68.5577 44.7807 75.0559 45.4153 81.3117C46.0103 87.1762 45.3817 91.9394 43.4936 95.8732C41.1403 100.777 36.8205 103.862 31.9385 104.125C31.9198 104.127 31.9011 104.127 31.8827 104.127ZM26.2478 56.9603C23.9804 56.9603 21.7063 57.566 19.7705 58.733C15.7603 61.1506 12.9564 66.1404 12.2704 72.0806C11.5258 78.5245 13.154 85.3217 16.7378 90.7287C20.2888 96.086 25.8446 100.207 32.0011 102.057C36.0489 101.77 39.6411 99.1371 41.6354 94.9816C43.3547 91.3995 43.9204 86.9961 43.3647 81.5199C42.7625 75.5863 40.002 69.2986 37.3811 63.9306C35.8755 60.8468 33.0114 58.426 29.7202 57.4545C28.5968 57.1231 27.4231 56.9603 26.2478 56.9603Z" fill="#1F404D"/>
<path d="M46.1228 92.7315C46.5102 92.6816 46.8919 92.54 47.2359 92.3019C48.3828 91.5071 48.6682 89.9328 47.8731 88.7859C41.9423 80.2308 33.1901 73.8563 23.2285 70.8368C21.894 70.4322 20.4823 71.1863 20.0777 72.5219C19.6725 73.8572 20.4272 75.268 21.7625 75.6729C30.6376 78.3631 38.4352 84.0426 43.7199 91.6647C44.277 92.4682 45.2154 92.849 46.1228 92.7315Z" fill="#1F404D"/>
<path d="M144.544 76.913C146.961 74.0767 150.599 72.3184 154.324 72.1863C158.048 72.0542 161.802 73.5506 164.413 76.2089C168.338 80.2033 169.403 86.3182 168.641 91.8661C167.72 98.5682 164.364 104.909 159.341 109.44C154.317 113.971 147.665 116.657 140.903 116.883C136.354 115.449 133.396 111.476 132.467 106.797C131.538 102.117 132.539 97.2484 134.187 92.7716C136.299 87.0329 140.577 81.567 144.544 76.913Z" fill="#F6E2D7"/>
<path d="M140.904 117.914C140.799 117.914 140.694 117.898 140.594 117.866C135.931 116.396 132.515 112.333 131.457 106.997C130.607 102.717 131.184 97.9474 133.22 92.4158C135.393 86.5146 139.767 80.9295 143.76 76.2447C146.354 73.2005 150.29 71.2984 154.288 71.1568C158.291 71.0172 162.346 72.634 165.149 75.4869C168.931 79.3352 170.576 85.3567 169.662 92.0065C168.714 98.9074 165.204 105.541 160.031 110.206C154.859 114.871 147.9 117.68 140.938 117.914C140.927 117.914 140.915 117.914 140.904 117.914ZM145.329 77.5818C141.454 82.1281 137.215 87.5305 135.155 93.1279C133.253 98.2934 132.705 102.699 133.479 106.596C134.376 111.117 137.199 114.562 141.048 115.847C147.471 115.588 153.878 112.98 158.651 108.675C163.468 104.331 166.737 98.153 167.62 91.7263C168.434 85.8021 166.96 80.2716 163.679 76.9319C161.273 74.4841 157.795 73.0977 154.36 73.2169C150.931 73.3381 147.555 74.97 145.329 77.5818Z" fill="#1F404D"/>
<path d="M129.693 103.3C129.33 103.155 128.995 102.923 128.722 102.607C127.809 101.552 127.924 99.9558 128.98 99.0429C136.854 92.2334 146.917 88.2384 157.317 87.7939C158.71 87.7341 159.89 88.8159 159.949 90.2103C160.009 91.6045 158.927 92.783 157.533 92.8428C148.267 93.239 139.301 96.7984 132.286 102.865C131.546 103.504 130.542 103.64 129.693 103.3Z" fill="#1F404D"/>
<path d="M25.7546 103.098C27.4598 117.986 37.6882 128.655 50.9726 134.686C58.1129 137.925 65.7636 139.874 73.4277 141.542C94.1936 146.056 127.003 150.556 139.971 128.502C145.755 118.665 147.726 107.132 147.315 95.7835C147.264 94.2986 147.17 92.8163 147.038 91.3391C146.907 89.8783 146.74 88.4281 146.539 86.9863C144.015 68.9059 136.734 50.1352 123.23 37.8685C118.26 33.3546 112.446 29.724 105.716 27.3259C102.846 26.3082 99.8837 25.559 96.8788 25.0808C88.2079 23.6979 79.1744 24.5571 70.9089 27.5217C70.882 27.5298 70.8552 27.5404 70.8283 27.5484C68.2691 28.4722 65.7851 29.5948 63.4086 30.9212C63.3899 30.9292 63.3709 30.9398 63.3523 30.9533C62.4767 31.4366 61.6201 31.9524 60.7744 32.4948C52.4765 37.8251 45.9433 45.2207 40.7364 53.5292C38.693 56.7894 36.7862 60.1406 35.0434 63.5751C33.4241 66.7651 31.899 70.087 30.5643 73.5C29.7829 75.4978 29.0633 77.528 28.4295 79.5824C26.0636 87.2255 24.8497 95.1983 25.7546 103.098Z" fill="#F6E2D7"/>
<path d="M28.4292 79.5827C39.2486 77.0128 49.2298 69.4053 54.0286 59.4479C55.5888 63.9702 60.2024 67.257 64.9877 67.2516C69.7729 67.249 74.1447 62.8531 75.6968 58.3254C77.1174 63.3953 81.4541 67.5362 86.5857 68.7204C91.7148 69.9047 97.2601 67.2972 100.759 63.3605C101.836 66.0673 103.761 68.4786 106.315 69.878C108.869 71.277 112.059 71.5832 114.736 70.4339C117.411 69.2873 119.726 66.5724 119.852 63.6641C124.097 77.5177 134.377 89.3278 147.315 95.7835C147.264 94.2986 147.17 92.8163 147.038 91.3391C146.907 89.8783 146.74 88.4281 146.539 86.9863C144.015 68.9059 136.734 50.1352 123.23 37.8685C118.259 33.3546 112.446 29.724 105.716 27.3259C102.846 26.3082 99.8837 25.559 96.8788 25.0808C88.2079 23.6979 79.1743 24.5571 70.9089 27.5217C70.8819 27.5298 70.8552 27.5404 70.8282 27.5484C68.269 28.4722 65.7851 29.5948 63.4085 30.9212C63.3899 30.9292 63.3709 30.9398 63.3522 30.9533C62.4767 31.4366 61.6201 31.9524 60.7744 32.4948C52.4765 37.8251 45.9432 45.2207 40.7364 53.5292C38.693 56.7894 36.7862 60.1406 35.0434 63.575C33.4241 66.7651 31.899 70.087 30.5643 73.5C29.7826 75.498 29.063 77.5283 28.4292 79.5827Z" fill="#EFCAB9"/>
<path d="M102.94 146.29C91.8912 146.29 80.9633 144.234 73.2076 142.549C65.8272 140.943 57.9739 138.993 50.5464 135.623C35.5111 128.798 26.3434 117.288 24.7316 103.214C23.6921 94.1565 25.3312 84.0331 29.6042 73.1241C30.8554 69.9236 32.3765 66.5538 34.1244 63.1081C35.8376 59.7305 37.7679 56.3233 39.8616 52.9807C45.6267 43.7841 52.4753 36.6004 60.2169 31.6285C61.0908 31.0679 61.968 30.5427 62.8249 30.0669C62.8591 30.0456 62.8938 30.0261 62.9288 30.0083C65.3172 28.6776 67.8577 27.524 70.4801 26.5798C70.5062 26.5698 70.5418 26.5566 70.5797 26.5442C79.0473 23.5104 88.198 22.6532 97.0418 24.0634C100.121 24.5513 103.156 25.3226 106.062 26.3556C112.636 28.6965 118.644 32.3131 123.921 37.1047C136.252 48.3052 144.646 65.9694 147.559 86.843C147.759 88.2748 147.929 89.7563 148.063 91.2455C149.359 105.742 146.868 118.805 140.859 129.024C134.978 139.025 124.499 144.741 109.711 146.012C107.467 146.204 105.2 146.29 102.94 146.29ZM63.8903 31.8318C63.878 31.8392 63.8656 31.8467 63.8529 31.8536C63.025 32.3125 62.1765 32.8202 61.3302 33.3629C53.8465 38.1692 47.211 45.1377 41.6085 54.0748C39.5475 57.3646 37.6482 60.7175 35.9631 64.0402C34.245 67.427 32.7512 70.7355 31.5238 73.875C27.3749 84.4679 25.7786 94.2596 26.7796 102.979C28.3056 116.305 37.0489 127.232 51.3981 133.746C58.6505 137.036 66.3765 138.953 73.6455 140.534C82.8565 142.536 96.5982 145.069 109.535 143.957C123.619 142.747 133.56 137.371 139.082 127.979C144.872 118.133 147.268 105.494 146.011 91.429C145.88 89.9742 145.714 88.5269 145.518 87.1279C142.672 66.7304 134.51 49.5069 122.536 38.6301C117.462 34.0228 111.687 30.5461 105.372 28.2971C102.585 27.3067 99.6739 26.5672 96.7187 26.0988C88.2081 24.7411 79.404 25.5682 71.2575 28.4909C71.2397 28.4972 71.2219 28.503 71.2035 28.5084C68.6532 29.4282 66.2077 30.5392 63.9098 31.8211C63.9032 31.8249 63.8966 31.8286 63.8903 31.8318ZM63.8357 31.8588C63.8354 31.8588 63.8349 31.859 63.8343 31.8596C63.8349 31.8593 63.8354 31.8588 63.8357 31.8588Z" fill="#1F404D"/>
<path d="M132.132 128.747C136.919 123.96 136.919 116.199 132.132 111.412C127.346 106.625 119.584 106.625 114.797 111.412C110.01 116.199 110.01 123.96 114.797 128.747C119.584 133.534 127.346 133.534 132.132 128.747Z" fill="#F9CCC5"/>
<path d="M82.1737 102.886C82.0826 103.868 84.7409 104.919 88.1113 105.231C91.4818 105.544 94.2882 105 94.3792 104.017C94.4702 103.034 91.812 101.984 88.4415 101.671C85.0711 101.359 82.265 101.902 82.1737 102.886Z" fill="#F9CCC5"/>
<path d="M61.3531 120.39C66.1401 115.603 66.1401 107.842 61.3531 103.055C56.5662 98.2677 48.805 98.2677 44.0181 103.055C39.2312 107.842 39.2312 115.603 44.0181 120.39C48.805 125.177 56.5662 125.177 61.3531 120.39Z" fill="#F9CCC5"/>
<path d="M116.588 97.634C117.053 92.6205 114.641 88.2978 111.2 87.9788C107.759 87.6599 104.593 91.4655 104.129 96.479C103.664 101.492 106.076 105.815 109.517 106.134C112.958 106.453 116.123 102.647 116.588 97.634Z" fill="#1F404D"/>
<path d="M111.521 94.2895C111.695 92.8359 112.482 91.6657 113.391 91.7499C114.238 91.8286 114.936 93.1409 114.762 94.5899C114.587 96.0435 113.8 97.2137 112.892 97.1296C112.044 97.0509 111.347 95.7386 111.521 94.2895Z" fill="white"/>
<path d="M118.322 81.0658C118.655 81.0598 118.986 80.924 119.231 80.6612C119.713 80.146 119.686 79.3382 119.171 78.8567C116.165 76.0462 111.574 75.1701 107.745 76.678C107.088 76.9361 106.766 77.6776 107.024 78.3337C107.283 78.9902 108.026 79.3118 108.68 79.0539C111.565 77.9185 115.162 78.6043 117.426 80.7218C117.679 80.9578 118.002 81.0716 118.322 81.0658Z" fill="#1F404D"/>
<path d="M76.7108 93.4221C77.1755 88.4086 74.7631 84.0858 71.3224 83.7669C67.8818 83.448 64.7159 87.2536 64.2512 92.2671C63.7864 97.2805 66.1988 101.603 69.6395 101.922C73.0801 102.241 76.246 98.4355 76.7108 93.4221Z" fill="#1F404D"/>
<path d="M69.863 89.9146C69.9587 88.4535 69.4004 87.159 68.4921 87.0746C67.6444 86.9959 66.7178 88.1578 66.6224 89.6142C66.5268 91.0753 67.085 92.3699 67.9933 92.4543C68.841 92.533 69.7677 91.3708 69.863 89.9146Z" fill="white"/>
<path d="M75.4842 75.5936C75.9011 75.5859 76.306 75.3745 76.5435 74.9949C76.9183 74.3973 76.7373 73.6093 76.1398 73.2349C72.6524 71.0499 67.978 71.0665 64.5073 73.2759C63.912 73.6547 63.7374 74.4441 64.1159 75.0388C64.495 75.6338 65.2849 75.8082 65.8785 75.4302C68.4949 73.7647 72.1556 73.7521 74.7834 75.3989C75.0014 75.5353 75.245 75.598 75.4842 75.5936Z" fill="#1F404D"/>
<path d="M65.8757 104.989C65.3304 110.198 66.5566 115.203 69.0856 119.384C72.6189 125.235 78.6996 129.47 86.0064 130.394C93.8847 131.391 101.337 128.304 106.241 122.783C109.139 119.524 111.143 115.416 111.828 110.8L65.8757 104.989Z" fill="#96312C"/>
<path d="M69.0854 119.384C72.6187 125.235 78.6993 129.47 86.0062 130.394C93.8845 131.39 101.337 128.304 106.241 122.783C100.648 119.779 94.6415 117.619 88.3598 116.837C81.8713 116.029 75.0696 116.831 69.0854 119.384Z" fill="#EA978F"/>
<path d="M68.1528 105.276C70.3238 107.898 73.1296 110.057 76.179 111.587C81.9852 114.5 88.6057 115.396 95.1036 115.532C98.665 115.608 102.332 115.449 105.593 114.011C107.317 113.249 108.91 112.058 110.073 110.578L68.1528 105.276Z" fill="white"/>
<path d="M88.9799 131.257C87.9647 131.257 86.9442 131.193 85.9216 131.064C79.6359 130.269 74.0103 127.095 70.0808 122.127C66.1576 117.167 64.3614 110.974 65.0231 104.689C65.0481 104.453 65.1669 104.237 65.353 104.089C65.5388 103.942 65.7765 103.876 66.0123 103.905L111.965 109.716C112.2 109.746 112.414 109.87 112.557 110.059C112.701 110.248 112.762 110.487 112.728 110.722C111.804 116.974 108.523 122.524 103.488 126.352C99.2661 129.562 94.2042 131.257 88.9799 131.257ZM66.7038 105.774C65.9583 117.385 74.5063 127.84 86.143 129.311C97.7794 130.785 108.661 122.785 110.83 111.354L66.7038 105.774Z" fill="#1F404D"/>
<path d="M20.7247 55.8198C21.0578 60.1459 23.3887 71.5587 26.5814 72.8851C32.3953 75.2992 52.4628 51.3407 53.4188 45.602C53.8808 48.9049 54.3693 52.2912 55.8921 55.2102C57.4147 58.1318 60.2128 60.5434 63.4003 60.554C66.6094 60.5675 69.4908 58.1507 71.0966 55.2128C72.6998 52.2777 74.5017 47.4654 75.0439 44.1409C75.0654 47.103 75.1728 50.097 75.9246 52.9436C76.6738 55.7874 78.1292 58.5077 80.4064 60.2289C83.4138 62.5007 87.7319 62.6942 90.9625 60.699C93.8625 58.9106 96.6044 54.5253 96.8488 50.8384C96.8783 52.4497 98.4977 55.535 99.7974 57.2108C101.328 59.1874 103.017 60.8951 104.575 62.0579C106.132 63.2235 108.356 63.5213 110.004 62.4608C111.736 61.3437 112.448 59.1228 113.031 57.0819C113.611 55.0545 114.137 52.5545 114.717 50.5268C120.963 67.638 140.169 89.3139 144.092 89.5262C148.22 89.7519 152.653 80.5167 154.673 74.805C155.76 71.733 157.707 63.8004 157.079 54.2755C156.375 43.6441 152.46 31.0311 140.556 20.9746C116.672 0.804864 72.3638 -5.71489 46.2139 9.17796C34.1352 16.0552 26.1756 27.2718 22.6633 38.9665C20.9662 44.6193 20.3086 50.3821 20.7247 55.8198Z" fill="#EF9289"/>
<path d="M22.6636 38.9668C24.9087 43.7466 27.8383 48.1749 31.4474 51.9101C41.4019 47.1891 49.7049 39.7642 55.2101 30.2178C56.1124 32.4467 57.0979 34.6783 58.5938 36.5606C60.0867 38.443 62.1627 39.9684 64.5363 40.3497C67.2782 40.7874 70.1058 39.6301 72.1654 37.769C73.6233 36.4535 74.7542 34.6435 75.6699 32.791C77.098 37.2366 79.7626 41.4433 84.5338 42.6028C88.2089 43.4962 92.2211 42.6287 95.0457 40.0893C96.5561 38.7313 97.6413 36.9762 98.346 35.0685C99.5501 37.8285 101.346 40.224 104.115 41.6187C107.571 43.3589 111.702 43.1427 114.739 40.674C115.752 39.8509 116.552 38.8513 117.178 37.7478C123.646 49.8491 134.362 59.5495 147.116 64.6521C150.994 61.7896 154.364 58.2555 157.079 54.276C157.707 63.8009 155.76 71.7335 154.673 74.8056C152.653 80.5172 148.22 89.7521 144.092 89.5267C140.169 89.3145 120.963 67.6386 114.717 50.5274C114.137 52.5548 113.611 55.0548 113.031 57.0825C112.448 59.1233 111.736 61.3442 110.004 62.4613C108.355 63.5221 106.132 63.224 104.575 62.0584C103.017 60.8957 101.328 59.1879 99.7974 57.2114C98.4977 55.5358 96.8783 52.4502 96.8488 50.839C96.6044 54.5258 93.8625 58.9111 90.9625 60.6995C87.7319 62.6948 83.4141 62.5015 80.4064 60.2295C78.1292 58.5082 76.6738 55.7879 75.9246 52.9441C75.1728 50.0978 75.0654 47.1035 75.0439 44.1414C74.5014 47.4659 72.6995 52.2782 71.0966 55.2133C69.4908 58.151 66.6094 60.5677 63.4003 60.5545C60.2128 60.5439 57.4147 58.1323 55.8921 55.2107C54.3696 52.2917 53.8808 48.9055 53.4188 45.6025C52.4628 51.3412 32.3953 75.2998 26.5814 72.8856C23.3884 71.5589 21.0575 60.1462 20.7247 55.8204C20.3086 50.3821 20.9662 44.6193 22.6636 38.9668Z" fill="#E2726D"/>
<path d="M144.24 90.5618C144.172 90.5618 144.104 90.56 144.036 90.556C141.168 90.3995 134.398 83.1596 129.471 77.0071C123.155 69.1184 117.98 60.847 114.93 53.8256C114.912 53.9002 114.893 53.9749 114.875 54.0493C114.601 55.1718 114.318 56.3328 114.022 57.3666C113.361 59.6805 112.549 62.0468 110.562 63.3272C108.63 64.5715 105.976 64.3937 103.958 62.8844C102.324 61.6628 100.557 59.8726 98.984 57.8436C98.3695 57.0516 97.607 55.8469 96.9845 54.586C95.8461 57.4326 93.7714 60.1785 91.504 61.5772C87.9319 63.7818 83.1127 63.5653 79.7848 61.0514C76.9069 58.8776 75.5549 55.5847 74.9274 53.2053C74.6805 52.2683 74.501 51.314 74.3701 50.3604C73.6217 52.3972 72.7591 54.3209 72.0007 55.7085C70.4463 58.552 67.3788 61.5847 63.4272 61.585C63.4174 61.585 63.4076 61.585 63.3976 61.5847C59.45 61.5698 56.46 58.5284 54.978 55.6872C53.9399 53.6963 53.3578 51.495 52.956 49.3289C48.949 56.5088 37.9544 69.1612 31.2333 72.8869C29.1192 74.0582 27.4678 74.3695 26.1859 73.8371C22.1708 72.1698 19.9642 59.3713 19.6977 55.8989C19.0349 47.2676 21.0448 37.9245 25.3566 29.5904C30.0204 20.5755 37.0562 13.2075 45.7032 8.28296C58.3924 1.05621 75.6758 -1.56386 94.3696 0.90574C112.465 3.29608 129.541 10.3241 141.22 20.1879C151.058 28.4969 156.693 39.3689 157.967 52.5018C159.157 64.7714 156.009 74.122 155.646 75.148C154.726 77.7451 149.901 90.5609 144.24 90.5618ZM114.717 49.4954C115.149 49.4954 115.537 49.7648 115.685 50.1726C122.075 67.6795 141.191 88.3365 144.148 88.4979C147.061 88.6573 151.252 81.3846 153.702 74.4605C154.049 73.479 157.063 64.5281 155.915 52.701C154.694 40.1219 149.303 29.7128 139.89 21.7627C115.498 1.16189 71.962 -4.29966 46.7232 10.074C27.8764 20.8076 20.6017 40.7444 21.7527 55.7412C22.1331 60.6997 24.6007 70.9471 26.9759 71.9335C27.344 72.086 28.2577 72.1793 30.234 71.0844C38.0721 66.7393 51.692 49.701 52.4024 45.4318C52.486 44.9298 52.9104 44.5643 53.4322 44.5703C53.9411 44.5769 54.3692 44.954 54.4398 45.4579C54.8855 48.6428 55.3464 51.936 56.8057 54.7341C58.3182 57.6342 60.9088 59.5143 63.4054 59.5237C63.4114 59.5237 63.4183 59.5237 63.4243 59.5237C65.941 59.5237 68.5952 57.6402 70.1916 54.7198C71.6509 52.0503 73.4845 47.3012 74.0263 43.9747C74.1125 43.4466 74.5858 43.0742 75.1225 43.113C75.6563 43.154 76.0698 43.5971 76.0738 44.1327C76.0945 46.7929 76.1787 49.8667 76.9204 52.6798C77.69 55.5988 79.1482 57.9877 81.0269 59.4069C83.6923 61.4202 87.5555 61.5913 90.4211 59.8232C93.1325 58.15 95.6055 54.0039 95.8206 50.7693C95.8573 50.2179 96.3231 49.797 96.8742 49.8073C97.4264 49.8208 97.8698 50.2673 97.8795 50.8195C97.9019 52.1083 99.3673 54.9748 100.612 56.5806C102.076 58.4673 103.702 60.1196 105.192 61.2335C106.503 62.2139 108.252 62.3624 109.445 61.5942C110.832 60.7011 111.464 58.8167 112.04 56.8C112.324 55.8044 112.603 54.6635 112.873 53.5599C113.147 52.4374 113.43 51.2764 113.726 50.2426C113.849 49.8133 114.234 49.5118 114.68 49.4957C114.693 49.4957 114.705 49.4954 114.717 49.4954Z" fill="#1F404D"/>
</svg>
