<svg width="216" height="261" viewBox="0 0 216 261" fill="none" xmlns="http://www.w3.org/2000/svg">
<path d="M107.922 260.124C167.526 260.124 215.844 252.771 215.844 243.701C215.844 234.631 167.526 227.278 107.922 227.278C48.3184 227.278 0 234.631 0 243.701C0 252.771 48.3184 260.124 107.922 260.124Z" fill="#EFBAB4"/>
<path d="M77.8523 234.03C75.6761 235.112 72.2395 236.612 68.2253 238.262C56.6127 243.041 40.1854 249.09 35.6183 249.944C33.052 248.821 30.6486 247.332 28.503 245.532C26.0066 243.439 23.83 240.87 22.6684 237.826C21.5093 234.785 21.4602 231.227 23.0091 228.361C24.5582 225.498 28.1855 223.342 31.3298 224.189C33.6042 224.801 36.6068 226.892 37.8978 229.732C43.2936 223.415 48.5859 218.76 55.3861 214.492C56.1838 213.994 56.9996 213.498 57.8413 213.008C66.2064 218.179 73.0066 225.472 77.8523 234.03Z" fill="#F6E2D7"/>
<path d="M77.8523 234.03C75.676 235.112 72.2395 236.612 68.2252 238.262C67.6158 235.342 66.8389 232.453 65.9069 229.618C64.8149 226.308 63.4905 223.04 61.5026 220.18C59.902 217.874 57.8341 215.835 55.3867 214.492C56.1845 213.994 57.0003 213.498 57.8419 213.008C66.2063 218.179 73.0065 225.472 77.8523 234.03Z" fill="#EFCAB9"/>
<path d="M45.2554 239.085C44.5616 237.061 43.5911 235.151 42.5338 233.295C41.7139 231.855 41.2653 229.434 39.9635 228.442C39.5581 228.596 38.6306 229.609 38.2379 229.192C37.0791 227.963 35.9601 226.986 34.5646 226.033C33.0209 224.979 31.6005 224.431 29.7808 224.017C29.5748 223.97 29.4065 223.888 29.2723 223.783C28.6067 224.059 28.17 224.609 27.9619 225.245C31.6086 227.2 34.1194 230.582 36.2473 234.061C36.7241 234.766 37.1761 235.491 37.6217 236.216C37.606 236.257 37.5941 236.299 37.5801 236.341C38.7004 238.406 39.5609 240.597 40.1655 242.872C40.6161 244.568 39.7475 246.448 39.7049 248.063C38.6139 248.614 41.187 248.039 41.4023 248.131C42.6861 247.746 43.9406 247.253 45.2197 246.845C45.8536 246.644 46.4895 246.448 47.1258 246.254C47.1295 246.24 47.1312 246.225 47.1346 246.211C46.7078 243.764 46.0297 241.345 45.2554 239.085Z" fill="#666666"/>
<path d="M39.608 243.623C39.4584 242.861 39.2408 242.102 38.9877 241.351C38.6314 238.111 36.7948 235.188 35.0426 232.374C33.5796 230.024 31.2964 226.53 28.3793 225.547C28.2028 225.449 28.0128 225.37 27.807 225.32C27.7842 225.314 27.7611 225.309 27.7382 225.303C27.2689 225.189 26.8315 225.198 26.437 225.296C26.141 225.32 25.8403 225.368 25.534 225.452C23.2106 226.085 21.9231 228.228 21.9074 230.549C21.9067 230.638 21.9091 230.73 21.9105 230.821C20.7251 234.364 23.5438 239.583 25.5031 242.052C26.8519 243.753 28.3684 245.424 30.0156 246.837C31.7862 248.358 34.1662 250.234 36.6582 249.609C39.347 248.935 40.0739 245.998 39.608 243.623Z" fill="#B3B3B3"/>
<path d="M35.6177 250.935C35.4818 250.935 35.3466 250.907 35.2209 250.852C32.5623 249.69 30.0874 248.156 27.8651 246.291C24.9099 243.812 22.8498 241.083 21.7427 238.18C20.4041 234.671 20.5516 230.825 22.1375 227.891C23.8086 224.8 27.799 222.211 31.5868 223.233C33.6823 223.797 36.4114 225.49 38.0743 228.014C43.8966 221.391 49.7271 216.6 57.3414 212.154C57.6578 211.969 58.0502 211.974 58.3619 212.166C66.6622 217.297 73.6999 224.689 78.7139 233.542C78.8481 233.779 78.8787 234.06 78.7994 234.32C78.7197 234.581 78.5367 234.796 78.2932 234.918C69.812 239.137 42.1274 249.734 35.8 250.918C35.7397 250.93 35.6787 250.935 35.6177 250.935ZM29.8636 224.989C27.4216 224.989 24.9759 226.809 23.8808 228.834C22.5657 231.267 22.4587 234.497 23.5944 237.474C24.5795 240.058 26.4451 242.513 29.1387 244.773C31.1368 246.45 33.3539 247.841 35.7318 248.911C42.1073 247.561 67.4239 237.89 76.4606 233.604C71.7549 225.623 65.3379 218.929 57.8247 214.168C50.2629 218.649 44.5026 223.522 38.6503 230.376C38.4303 230.634 38.0934 230.761 37.7582 230.714C37.4227 230.666 37.1345 230.451 36.9945 230.143C35.8507 227.626 33.0889 225.69 31.0707 225.146C30.6732 225.039 30.2682 224.989 29.8636 224.989Z" fill="#1F404D"/>
<path d="M37.8987 250.345C37.5267 250.345 37.1701 250.134 37.0011 249.775C36.7685 249.28 36.981 248.69 37.4763 248.457C38.552 247.952 39.1133 246.469 39.2799 245.251C39.4815 243.778 39.081 242.219 38.7093 241.025C37.1309 235.954 34.1858 231.424 30.1927 227.924C28.9235 226.812 27.1485 225.919 26.4748 226.058C25.9373 226.164 25.4161 225.817 25.3085 225.281C25.2012 224.744 25.549 224.222 26.0855 224.115C27.869 223.759 30.4059 225.476 31.499 226.434C35.767 230.175 38.9147 235.017 40.6015 240.436C41.0341 241.826 41.498 243.66 41.2436 245.52C40.9363 247.766 39.8429 249.535 38.319 250.251C38.1834 250.314 38.04 250.345 37.8987 250.345Z" fill="#1F404D"/>
<path d="M47.7639 246.963C47.2741 246.963 46.8483 246.6 46.7829 246.101C45.9447 239.707 43.1638 233.495 38.9523 228.611C38.595 228.196 38.6413 227.571 39.0559 227.213C39.4704 226.856 40.0961 226.903 40.4534 227.317C44.9143 232.49 47.86 239.07 48.748 245.844C48.8192 246.386 48.437 246.884 47.8944 246.955C47.8501 246.961 47.8065 246.963 47.7639 246.963Z" fill="#1F404D"/>
<path d="M132.642 231.708C134.818 232.79 138.254 234.289 142.269 235.939C153.881 240.718 170.309 246.767 174.876 247.621C177.442 246.498 179.845 245.009 181.991 243.209C184.487 241.115 186.664 238.547 187.825 235.503C188.985 232.462 189.034 228.904 187.485 226.038C185.936 223.175 182.308 221.02 179.164 221.866C176.89 222.478 173.887 224.57 172.596 227.409C167.2 221.092 161.908 216.437 155.108 212.17C154.31 211.671 153.494 211.176 152.653 210.685C144.288 215.856 137.488 223.15 132.642 231.708Z" fill="#F6E2D7"/>
<path d="M132.642 231.708C134.818 232.79 138.254 234.29 142.269 235.939C142.878 233.019 143.655 230.13 144.587 227.296C145.679 223.986 147.003 220.717 148.991 217.857C150.592 215.552 152.66 213.512 155.107 212.169C154.309 211.671 153.494 211.176 152.652 210.685C144.288 215.856 137.488 223.15 132.642 231.708Z" fill="#EFCAB9"/>
<path d="M165.239 236.761C165.932 234.737 166.903 232.827 167.96 230.971C168.78 229.531 169.229 227.111 170.531 226.119C170.936 226.272 171.863 227.285 172.256 226.869C173.415 225.64 174.534 224.663 175.929 223.71C177.473 222.655 178.894 222.107 180.713 221.693C180.919 221.646 181.088 221.564 181.222 221.459C181.887 221.735 182.324 222.285 182.532 222.922C178.885 224.876 176.375 228.258 174.247 231.737C173.77 232.443 173.318 233.167 172.872 233.892C172.888 233.933 172.9 233.975 172.914 234.017C171.794 236.082 170.933 238.273 170.329 240.548C169.878 242.244 170.747 244.124 170.789 245.739C171.88 246.29 169.307 245.715 169.092 245.807C167.808 245.422 166.553 244.928 165.274 244.521C164.64 244.32 164.005 244.124 163.368 243.93C163.364 243.916 163.363 243.901 163.359 243.887C163.786 241.441 164.464 239.021 165.239 236.761Z" fill="#666666"/>
<path d="M170.885 241.299C171.035 240.536 171.252 239.778 171.505 239.026C171.862 235.786 173.698 232.864 175.45 230.049C176.913 227.699 179.197 224.205 182.114 223.222C182.29 223.124 182.48 223.045 182.686 222.995C182.709 222.99 182.732 222.984 182.755 222.978C183.224 222.864 183.662 222.874 184.056 222.972C184.352 222.995 184.653 223.044 184.959 223.127C187.283 223.76 188.57 225.903 188.586 228.224C188.587 228.313 188.584 228.405 188.583 228.497C189.769 232.039 186.95 237.258 184.99 239.728C183.641 241.428 182.125 243.099 180.478 244.513C178.707 246.033 176.327 247.909 173.835 247.285C171.146 246.611 170.419 243.673 170.885 241.299Z" fill="#B3B3B3"/>
<path d="M174.875 248.611C174.814 248.611 174.753 248.605 174.693 248.594C168.366 247.411 140.681 236.813 132.2 232.594C131.956 232.473 131.773 232.257 131.694 231.997C131.614 231.736 131.645 231.455 131.779 231.218C136.793 222.365 143.831 214.973 152.131 209.843C152.443 209.65 152.835 209.644 153.152 209.83C160.766 214.276 166.596 219.067 172.419 225.691C174.082 223.167 176.811 221.474 178.906 220.909C182.693 219.889 186.685 222.477 188.356 225.568C189.941 228.501 190.089 232.347 188.75 235.857C187.643 238.759 185.583 241.488 182.628 243.968C180.406 245.833 177.931 247.367 175.272 248.528C175.146 248.583 175.011 248.611 174.875 248.611ZM134.032 231.28C143.069 235.566 168.385 245.237 174.761 246.587C177.138 245.517 179.355 244.126 181.354 242.45C184.048 240.19 185.913 237.735 186.898 235.151C188.034 232.173 187.927 228.943 186.612 226.511C185.336 224.149 182.224 222.068 179.422 222.823C177.404 223.367 174.642 225.303 173.498 227.82C173.357 228.128 173.07 228.343 172.734 228.391C172.4 228.437 172.062 228.311 171.842 228.053C165.989 221.199 160.229 216.325 152.668 211.845C145.155 216.605 138.737 223.3 134.032 231.28Z" fill="#1F404D"/>
<path d="M172.593 248.021C172.452 248.022 172.309 247.991 172.173 247.927C170.649 247.211 169.556 245.442 169.248 243.197C168.994 241.336 169.457 239.502 169.89 238.112C171.577 232.693 174.725 227.851 178.993 224.11C180.086 223.152 182.625 221.435 184.406 221.79C184.943 221.898 185.291 222.42 185.183 222.956C185.076 223.493 184.554 223.841 184.017 223.734C183.34 223.596 181.568 224.488 180.299 225.6C176.306 229.1 173.361 233.63 171.782 238.701C171.411 239.895 171.01 241.454 171.212 242.927C171.379 244.146 171.94 245.628 173.015 246.133C173.511 246.366 173.723 246.956 173.491 247.451C173.322 247.81 172.965 248.021 172.593 248.021Z" fill="#1F404D"/>
<path d="M162.729 244.64C162.686 244.64 162.643 244.638 162.599 244.632C162.057 244.561 161.675 244.063 161.746 243.521C162.634 236.748 165.579 230.168 170.04 224.994C170.398 224.579 171.024 224.533 171.438 224.89C171.852 225.247 171.899 225.873 171.542 226.288C167.33 231.172 164.549 237.384 163.711 243.778C163.645 244.277 163.219 244.64 162.729 244.64Z" fill="#1F404D"/>
<path d="M154.752 210.925C150.773 213.796 147.146 217.367 144.242 221.42C141.606 225.099 139.564 229.17 138.399 233.471C135.549 233.381 132.709 232.986 129.942 232.302C122 231.711 114.038 231.016 106.081 230.887C101.607 230.812 97.1333 231.024 92.7082 231.705C89.1119 232.261 85.5517 233.017 82.0021 233.812L82.0123 233.838C79.6293 234.93 77.1485 235.648 74.4971 236.094C72.4421 231.85 69.8602 227.944 66.783 224.495C63.0419 220.289 58.5756 216.76 53.4639 214.132C58.3355 210.386 63.765 207.371 69.5144 205.21C69.9947 204.639 70.6916 204.26 71.4533 204.309C79.4126 204.825 87.3308 203.263 95.2619 204.546C95.4193 204.569 95.5691 204.618 95.7085 204.678C101.961 204.397 123.957 200.883 127.74 201.077C131.713 201.28 150.201 205.982 154.752 210.925Z" fill="#4D8791"/>
<path d="M144.24 221.42C141.604 225.099 138.971 230.338 137.806 234.639C134.767 235.043 132.35 233.918 129.94 232.302C121.999 231.711 114.036 231.017 106.08 230.887C101.606 230.813 97.1316 231.024 92.7065 231.706C89.1102 232.261 85.55 233.017 82.0004 233.813L82.0106 233.839C79.6276 234.931 77.1468 235.648 74.4954 236.095C72.4404 231.851 69.8585 227.944 66.7813 224.495C69.3809 226.096 71.9782 227.702 74.5782 229.305C72.3525 223.87 69.3915 219.497 65.2246 215.358C71.5524 218.495 76.9741 222.646 81.5719 228.006C84.8429 226.653 87.8455 225.554 91.3539 226.036C91.8676 220.617 93.3316 214.858 96.2538 210.265C96.0913 216.061 97.3537 221.893 99.9019 227.105C101.038 223.953 101.856 219.783 102.995 216.631C103.423 219.866 103.854 223.104 104.283 226.338C109.31 221.681 112.271 215.098 112.428 208.249C115.312 214.199 117.904 220.292 120.189 226.496C122.528 226.793 124.888 226.584 127.23 226.881C131.771 220.489 136.508 215.513 143.337 211.659C138.602 215.441 135.7 221.418 135.651 227.477C138 224.895 140.977 222.817 144.24 221.42Z" fill="#40797F"/>
<path d="M74.4954 236.998C74.1544 236.998 73.8352 236.804 73.6823 236.488C69.0709 226.96 61.9362 219.507 53.049 214.936C52.7737 214.794 52.5901 214.522 52.5622 214.214C52.5346 213.905 52.6661 213.604 52.9114 213.416C58.1764 209.368 64.0188 206.189 70.2767 203.968C70.7471 203.801 71.2635 204.047 71.4304 204.518C71.5973 204.988 71.3514 205.504 70.881 205.671C65.245 207.672 59.9555 210.472 55.1387 214.003C63.594 218.689 70.43 225.935 74.9954 235.064C76.5922 234.7 78.0157 234.217 79.5117 233.71C80.2328 233.465 80.9788 233.212 81.7428 232.975C85.3977 231.841 96.3764 230.4 96.842 230.34C96.874 230.336 96.9061 230.333 96.9384 230.333C98.8735 230.289 100.846 230.209 102.753 230.131C106.578 229.974 110.534 229.813 114.442 229.935C118.052 230.048 125.421 230.851 129.319 231.555C131.018 231.862 132.843 232.553 134.608 233.22C135.575 233.586 136.503 233.937 137.311 234.182C139.874 225.649 146.348 216.281 153.491 210.74C149.747 207.926 145.062 205.982 138.497 204.496C134.936 203.69 127.245 202.106 127.168 202.091C126.679 201.99 126.364 201.512 126.465 201.024C126.566 200.534 127.043 200.22 127.532 200.321C127.61 200.337 135.318 201.923 138.896 202.733C146.293 204.407 151.428 206.667 155.549 210.061C155.765 210.239 155.887 210.507 155.878 210.787C155.869 211.067 155.731 211.327 155.503 211.491C148.049 216.868 141.184 226.75 138.808 235.52C138.681 235.987 138.211 236.271 137.739 236.166C136.647 235.923 135.346 235.431 133.969 234.91C132.28 234.272 130.533 233.611 128.997 233.333C125.579 232.716 118.166 231.86 114.385 231.741C110.543 231.622 106.62 231.781 102.826 231.936C100.927 232.014 98.9634 232.094 97.028 232.138C96.2255 232.244 85.6685 233.649 82.2786 234.701C81.5371 234.931 80.8024 235.18 80.0918 235.421C78.4081 235.992 76.6665 236.583 74.6718 236.98C74.6132 236.992 74.5539 236.998 74.4954 236.998Z" fill="#1F404D"/>
<path d="M102.852 237.795C102.821 238.278 102.439 238.688 101.993 238.879C101.546 239.07 101.045 239.078 100.56 239.044C99.4006 238.967 98.2567 238.678 97.2035 238.19C98.0503 239.912 97.2216 242.462 96.4576 244.223C96.3077 244.572 96.1193 244.915 95.8278 245.158C95.5358 245.4 95.123 245.524 94.7691 245.387C94.2578 245.191 94.0722 244.579 93.9506 244.047C93.6924 242.909 93.4318 241.773 93.1736 240.637C93.3647 242.274 93.1014 244.022 92.7294 245.628C92.5952 246.208 92.4144 246.797 92.0271 247.249C91.6398 247.698 90.9943 247.974 90.4367 247.776C90.0235 247.628 89.7268 247.249 89.5821 246.838C89.4349 246.425 89.4196 245.981 89.422 245.542C89.4373 244.215 89.6284 242.888 89.9874 241.608C89.2646 243.317 87.5063 244.752 86.0219 245.821C85.7017 246.051 85.361 246.26 84.9761 246.351C84.594 246.441 84.1655 246.395 83.8558 246.152C83.5203 245.886 83.3807 245.429 83.4065 245.003C83.4348 244.574 83.6027 244.171 83.7887 243.787C84.4134 242.491 85.2551 241.301 86.2671 240.278C85.0047 241.538 82.9004 242.173 81.1193 242.127C80.8147 242.119 80.5024 242.088 80.2312 241.954C79.9601 241.817 79.7356 241.554 79.7176 241.252C79.6842 240.73 80.221 240.376 80.6856 240.136C81.9919 239.468 83.1899 238.017 84.4962 237.348C80.3396 232.202 72.6902 218.403 69.757 200.435C68.8639 194.97 68.4068 189.117 68.6187 183.003C70.426 183.261 88.2397 180.163 88.756 181.712C90.1141 186.919 91.3301 192.225 92.3857 197.528C94.952 210.366 96.5993 223.179 97.1463 234.508C98.4914 235.032 99.8028 235.559 101.148 236.085C101.551 236.24 101.961 236.403 102.294 236.677C102.63 236.951 102.881 237.364 102.852 237.795Z" fill="#F6E2D7"/>
<path d="M88.756 181.713C90.1141 186.92 91.3301 192.226 92.3857 197.529C84.8137 198.257 77.2671 199.225 69.757 200.435C68.8639 194.97 68.4068 189.117 68.6187 183.004C70.426 183.262 88.2397 180.164 88.756 181.713Z" fill="#EFCAB9"/>
<path d="M90.8248 248.745C90.5881 248.745 90.3534 248.706 90.1299 248.626C89.495 248.398 88.9844 247.857 88.7296 247.142C88.5358 246.598 88.514 246.048 88.5191 245.535C88.5212 245.347 88.5266 245.159 88.5351 244.971C87.8815 245.568 87.1873 246.097 86.5493 246.555C86.2083 246.801 85.7447 247.1 85.1841 247.231C84.4895 247.394 83.8011 247.26 83.2967 246.862C82.7541 246.434 82.4584 245.719 82.5057 244.948C82.5418 244.364 82.7524 243.856 82.9744 243.395C83.0702 243.196 83.1703 243 83.2749 242.807C82.563 242.971 81.8214 243.048 81.0956 243.032C80.7382 243.023 80.2706 242.984 79.826 242.761C79.2378 242.465 78.8502 241.907 78.8141 241.306C78.7664 240.517 79.2572 239.853 80.2736 239.333C80.834 239.046 81.4038 238.564 82.0071 238.053C82.3848 237.733 82.7704 237.407 83.172 237.115C78.0248 230.224 66.8036 209.417 67.7155 182.972C67.7243 182.716 67.8419 182.475 68.0384 182.311C68.2349 182.146 68.4921 182.073 68.7462 182.109C69.2694 182.182 72.2901 181.807 74.9561 181.476C86.6753 180.018 89.1404 180.01 89.6129 181.427C89.6193 181.446 89.6251 181.465 89.6299 181.485C94.2106 199.044 97.1843 217.623 98.0195 233.88C98.51 234.073 98.9971 234.266 99.4842 234.458C100.145 234.72 100.806 234.981 101.477 235.243C101.919 235.416 102.42 235.611 102.869 235.98C103.467 236.471 103.798 237.172 103.754 237.853C103.703 238.638 103.151 239.367 102.348 239.71C101.701 239.985 101.021 239.982 100.5 239.946C99.804 239.9 99.1197 239.785 98.4528 239.604C98.5199 240.969 98.1309 242.635 97.2868 244.583C97.1175 244.973 96.8644 245.471 96.4056 245.852C95.8317 246.331 95.0789 246.476 94.4429 246.231C94.1009 246.099 93.8455 245.884 93.653 245.639C93.6387 245.703 93.6241 245.767 93.6091 245.832C93.4585 246.483 93.2344 247.231 92.7119 247.838C92.2108 248.421 91.5091 248.745 90.8248 248.745ZM89.9869 240.706C90.086 240.706 90.1868 240.722 90.2853 240.757C90.7352 240.914 90.9856 241.394 90.8572 241.853C90.5176 243.067 90.3387 244.312 90.3261 245.554C90.322 245.953 90.3384 246.273 90.4317 246.535C90.5002 246.727 90.6238 246.883 90.74 246.925C90.8957 246.98 91.1709 246.859 91.3422 246.66C91.6079 246.352 91.7425 245.885 91.848 245.427C92.2898 243.513 92.4257 242.025 92.2759 240.743C92.22 240.266 92.547 239.828 93.0201 239.747C93.4943 239.665 93.9477 239.969 94.0543 240.437L94.8309 243.847C94.9603 244.416 95.0669 244.527 95.0966 244.548C95.1027 244.544 95.1787 244.524 95.2488 244.465C95.4164 244.325 95.5455 244.056 95.628 243.865C96.657 241.49 96.9206 239.666 96.3906 238.59C96.2213 238.247 96.2871 237.834 96.5545 237.56C96.8215 237.286 97.2323 237.21 97.5801 237.37C98.5406 237.814 99.5632 238.074 100.619 238.144C100.939 238.165 101.344 238.174 101.637 238.049C101.817 237.972 101.943 237.826 101.949 237.737C101.954 237.658 101.876 237.504 101.72 237.376C101.494 237.191 101.151 237.057 100.819 236.928C100.146 236.665 99.4821 236.402 98.8183 236.14C98.154 235.877 97.4898 235.614 96.8167 235.352C96.4846 235.222 96.2598 234.909 96.2424 234.553C95.4713 218.613 92.4557 199.573 87.9632 182.261C86.3793 181.878 79.1434 182.777 75.1782 183.27C72.4318 183.611 70.5944 183.835 69.4949 183.901C68.8443 210.495 80.5717 231.054 85.1977 236.781C85.3687 236.993 85.4351 237.27 85.3789 237.537C85.3224 237.803 85.149 238.029 84.9068 238.154C84.3465 238.44 83.777 238.923 83.1737 239.433C82.5187 239.988 81.8415 240.561 81.0962 240.943C80.9051 241.041 80.7859 241.119 80.7127 241.176C80.8394 241.214 81.0121 241.223 81.1405 241.226C82.8331 241.283 84.6336 240.632 85.6279 239.64C85.9804 239.289 86.5513 239.289 86.9042 239.64C87.2571 239.992 87.2585 240.563 86.908 240.916C85.9607 241.871 85.1847 242.969 84.6016 244.18C84.4592 244.475 84.3254 244.786 84.3087 245.059C84.2974 245.239 84.3536 245.396 84.4143 245.444C84.4677 245.485 84.6105 245.509 84.7695 245.473C85.0192 245.414 85.2869 245.237 85.4923 245.089C86.752 244.183 88.5018 242.8 89.1537 241.258C89.2998 240.915 89.6333 240.706 89.9869 240.706Z" fill="#1F404D"/>
<path d="M153.294 154.426C166.196 140.212 172.296 124.583 173.636 117.839C174.986 118.413 176.87 118.403 178.219 118.979C178.701 119.185 179.316 119.37 179.697 119.009C179.916 118.802 179.974 118.459 179.904 118.164C179.835 117.869 179.66 117.61 179.471 117.369C178.364 115.972 176.529 114.765 174.754 114.602C176.187 114.726 177.641 114.609 179.035 114.258C179.449 114.155 179.868 114.024 180.212 113.772C180.556 113.519 180.821 113.12 180.807 112.693C180.798 112.3 180.558 111.939 180.243 111.702C179.929 111.466 179.548 111.339 179.167 111.24C177.396 110.785 175.168 110.356 173.392 110.895C174.606 110.349 175.746 109.647 176.777 108.807C177.114 108.532 177.447 108.233 177.669 107.857C177.889 107.48 177.991 107.009 177.841 106.601C177.636 106.042 177.01 105.724 176.417 105.715C175.823 105.706 175.255 105.946 174.724 106.214C173.252 106.959 171.74 107.872 170.606 109.07C171.311 108.142 172.019 107.216 172.727 106.289C173.058 105.855 173.41 105.319 173.233 104.801C173.11 104.443 172.751 104.204 172.376 104.135C172.005 104.067 171.62 104.144 171.256 104.25C169.415 104.792 166.927 105.789 166.146 107.543C165.843 106.422 165.335 105.355 164.653 104.417C164.366 104.023 164.038 103.643 163.604 103.423C163.174 103.203 162.615 103.171 162.223 103.456C161.875 103.713 161.719 104.168 161.722 104.6C161.725 105.034 161.864 105.453 162.003 105.861C162.46 107.231 162.895 108.576 163.354 109.944C154.793 117.818 145.771 127.579 137.378 138.066C134.204 142.031 131.121 146.098 128.186 150.206C127.327 151.594 141.117 163.291 142.077 164.843C146.28 161.575 150.008 158.047 153.294 154.426Z" fill="#F6E2D7"/>
<path d="M153.295 154.425C147.815 149.144 142.507 143.685 137.378 138.065C134.204 142.03 131.121 146.097 128.186 150.205C127.327 151.593 141.117 163.29 142.077 164.843C146.28 161.574 150.009 158.046 153.295 154.425Z" fill="#EFCAB9"/>
<path d="M142.075 165.746C142.021 165.746 141.968 165.741 141.914 165.731C141.662 165.686 141.44 165.535 141.306 165.317C141.029 164.869 138.804 162.789 136.842 160.954C128.216 152.888 126.63 151 127.416 149.73C127.427 149.713 127.438 149.696 127.45 149.68C138 134.914 150.362 120.73 162.311 109.676C162.146 109.18 161.984 108.686 161.821 108.193C161.597 107.513 161.373 106.834 161.144 106.148C160.993 105.698 160.822 105.187 160.818 104.608C160.812 103.833 161.138 103.13 161.69 102.728C162.326 102.264 163.238 102.221 164.016 102.618C164.642 102.938 165.074 103.463 165.381 103.885C165.792 104.449 166.142 105.048 166.43 105.676C167.435 104.75 168.964 103.982 171 103.383C171.409 103.263 171.953 103.139 172.539 103.246C173.275 103.381 173.868 103.866 174.087 104.512C174.205 104.859 174.203 105.192 174.138 105.497C174.197 105.467 174.256 105.437 174.315 105.407C174.912 105.105 175.637 104.791 176.43 104.811C177.463 104.827 178.371 105.421 178.688 106.29C178.92 106.923 178.832 107.662 178.446 108.316C178.152 108.814 177.744 109.182 177.347 109.506C177.201 109.626 177.053 109.742 176.904 109.856C177.781 109.975 178.631 110.17 179.393 110.366C179.799 110.47 180.326 110.635 180.786 110.981C181.356 111.41 181.693 112.024 181.711 112.666C181.73 113.358 181.37 114.043 180.748 114.5C180.275 114.848 179.751 115.011 179.255 115.135C179.041 115.189 178.826 115.237 178.611 115.281C179.193 115.722 179.728 116.239 180.18 116.81C180.402 117.091 180.672 117.476 180.785 117.959C180.934 118.6 180.755 119.254 180.316 119.668C179.741 120.21 178.916 120.257 177.867 119.811L177.866 119.811C177.287 119.564 176.552 119.436 175.773 119.299C175.285 119.214 174.788 119.127 174.306 119.006C172.312 127.372 163.521 149.317 142.63 165.556C142.47 165.68 142.274 165.746 142.075 165.746ZM129.112 150.462C129.832 151.926 135.157 156.905 138.076 159.634C140.097 161.525 141.447 162.792 142.201 163.594C163.04 147.059 171.316 124.884 172.751 117.663C172.804 117.396 172.974 117.167 173.215 117.04C173.455 116.913 173.741 116.901 173.991 117.008C174.57 117.254 175.305 117.383 176.084 117.519C176.929 117.667 177.802 117.819 178.573 118.147C178.771 118.232 178.907 118.273 178.998 118.293C178.946 118.171 178.842 118.032 178.762 117.931C177.714 116.606 176.069 115.63 174.67 115.501C174.174 115.456 173.809 115.017 173.853 114.521C173.897 114.026 174.337 113.661 174.831 113.702C176.171 113.817 177.51 113.71 178.814 113.382C179.132 113.302 179.456 113.206 179.677 113.043C179.822 112.937 179.907 112.793 179.904 112.716C179.903 112.649 179.83 112.523 179.699 112.425C179.494 112.271 179.186 112.178 178.942 112.116C177.439 111.729 175.256 111.271 173.654 111.758C173.199 111.897 172.713 111.656 172.546 111.21C172.378 110.764 172.587 110.264 173.021 110.069C174.171 109.552 175.242 108.892 176.203 108.106C176.513 107.854 176.747 107.636 176.889 107.396C176.992 107.221 177.033 107.026 176.991 106.91C176.934 106.755 176.664 106.621 176.402 106.617C175.986 106.618 175.55 106.807 175.13 107.019C173.378 107.906 172.148 108.755 171.26 109.691C170.929 110.039 170.384 110.069 170.019 109.757C169.653 109.446 169.594 108.903 169.886 108.521L172.007 105.74C172.361 105.277 172.378 105.123 172.375 105.087C172.367 105.085 172.303 105.04 172.213 105.023C172 104.984 171.709 105.058 171.51 105.116C169.027 105.847 167.457 106.813 166.97 107.91C166.815 108.259 166.456 108.476 166.074 108.443C165.693 108.414 165.371 108.147 165.272 107.777C164.997 106.755 164.542 105.803 163.92 104.947C163.731 104.688 163.478 104.372 163.194 104.227C163.02 104.138 162.826 104.134 162.755 104.187C162.691 104.234 162.624 104.392 162.625 104.594C162.627 104.886 162.739 105.22 162.857 105.574C163.088 106.262 163.313 106.944 163.537 107.626C163.76 108.3 163.982 108.975 164.21 109.656C164.323 109.994 164.227 110.367 163.965 110.608C152.218 121.411 139.529 135.923 129.112 150.462Z" fill="#1F404D"/>
<path d="M169.214 119.801C169.191 119.801 169.167 119.8 169.143 119.798C168.646 119.759 168.274 119.324 168.313 118.827C168.601 115.141 167.55 111.289 165.432 108.259C165.146 107.85 165.245 107.287 165.655 107.001C166.063 106.715 166.627 106.815 166.913 107.224C169.302 110.641 170.439 114.811 170.114 118.968C170.077 119.441 169.681 119.801 169.214 119.801Z" fill="#1F404D"/>
<path d="M129.872 173.769C129.792 174.012 129.686 174.239 129.557 174.448C129.67 179.712 129.012 187.147 128.452 193.057C128.126 196.488 127.832 199.4 127.739 201.075C119.736 201.592 101.351 204.178 94.3575 204.881C93.4228 201.163 92.9943 196.839 91.9979 192.837C91.8998 192.672 91.8045 192.504 91.706 192.339C86.5064 193.965 81.0874 195.114 75.542 194.998C72.5551 194.939 69.5293 194.507 66.4828 193.586C66.0127 187.281 67.1436 179.417 71.0836 174.473C74.1094 170.676 77.9741 167.629 82.1927 165.195C83.4629 164.459 84.7665 163.78 86.0885 163.15C86.3364 163.031 86.5687 162.92 86.7881 162.814C87.6839 162.378 88.3683 162.024 89.0495 161.714C89.2069 161.621 89.3775 161.549 89.5529 161.492C90.2448 161.201 90.9856 160.94 91.9823 160.671L91.8222 161.701C92.1863 161.906 92.4959 162.2 92.7051 162.587C93.7712 164.565 94.7757 166.279 96.9002 167.232C98.7692 168.073 101.193 168.925 103.202 168.163C103.579 168.021 103.969 167.854 104.359 167.66C104.764 167.441 105.17 167.216 105.572 166.989C108.262 165.323 110.627 162.602 109.734 159.414C109.473 158.479 109.711 157.702 110.199 157.15L109.796 156.799C111.508 156.107 113.235 155.234 114.939 154.263C116.836 153.181 118.703 151.978 120.477 150.773C127.194 146.198 132.572 141.551 133.289 143.116C135.515 147.964 145.201 157.963 150.587 162.737C144.265 168.048 137.196 172.615 129.872 173.769Z" fill="#FBB03B"/>
<path d="M117.671 195.115C109.144 195.82 100.448 194.387 92.5997 190.979C92.5926 190.976 92.5854 190.973 92.5779 190.97C92.4601 191.611 92.2492 192.219 91.9805 192.808C91.9866 192.818 91.9924 192.828 91.9982 192.838C92.9948 196.84 93.4234 201.164 94.3577 204.882C101.352 204.179 119.736 201.593 127.739 201.076C127.832 199.401 128.127 196.489 128.452 193.058C124.943 194.118 121.324 194.813 117.671 195.115Z" fill="#F7931E"/>
<path d="M120.478 150.774C120.139 154.559 119.602 158.328 119.052 162.085C118.399 166.551 116.698 170.483 113.032 173.276C111.219 174.655 109.12 175.502 106.936 176.101C104.639 176.733 102.279 177.288 99.8881 176.992C95.4811 176.447 90.914 174.681 87.5606 171.746C85.4307 169.884 83.7269 167.584 82.1934 165.196C83.4635 164.46 84.7671 163.781 86.0891 163.151C86.3371 163.032 86.5694 162.921 86.7887 162.815C88.1672 164.94 89.7191 166.964 91.7121 168.519C93.0031 169.523 94.4616 170.191 96.0081 170.695C97.8566 171.296 99.8084 172.04 101.781 171.926C103.621 171.823 105.638 171.196 107.36 170.566C108.829 170.026 110.117 169.172 111.191 168.036C113.799 165.273 113.995 161.344 114.488 157.768C114.648 156.601 114.8 155.434 114.94 154.265C116.837 153.183 118.704 151.98 120.478 150.774Z" fill="white"/>
<path d="M129.416 174.743C128.972 174.743 128.585 174.415 128.522 173.963C128.454 173.468 128.799 173.012 129.294 172.944C135.307 172.114 141.829 168.764 149.206 162.711C144.138 158.096 135.039 148.759 132.581 143.729C131.571 143.95 128.649 146.06 126.052 147.936C121.481 151.238 115.79 155.349 110.135 157.637C109.673 157.824 109.146 157.602 108.959 157.139C108.772 156.677 108.995 156.15 109.458 155.962C114.91 153.755 120.501 149.716 124.994 146.47C129.686 143.082 131.818 141.599 133.183 141.958C133.601 142.068 133.93 142.346 134.111 142.74C136.198 147.284 145.532 157.049 151.187 162.062C151.384 162.236 151.495 162.487 151.491 162.75C151.488 163.013 151.37 163.261 151.169 163.43C143.193 170.13 136.119 173.827 129.541 174.735C129.499 174.74 129.457 174.743 129.416 174.743Z" fill="#1F404D"/>
<path d="M76.3736 195.92C73.1105 195.92 69.7032 195.503 66.223 194.451C65.8654 194.343 65.6113 194.025 65.5833 193.653C65.13 187.588 66.1515 179.217 70.3773 173.912C74.0291 169.327 79.1852 165.432 85.7023 162.335C86.2834 162.059 86.777 161.814 87.2232 161.593C88.7468 160.837 89.7534 160.338 91.7481 159.8C92.23 159.669 92.726 159.955 92.8558 160.437C92.9859 160.918 92.7005 161.414 92.2188 161.545C90.3965 162.036 89.5044 162.479 88.0264 163.212C87.572 163.437 87.0693 163.686 86.4779 163.967C80.2115 166.946 75.27 170.67 71.7909 175.038C68.0297 179.759 67.0279 187.237 67.3447 192.896C74.4287 194.893 81.9241 194.45 91.4555 191.47C90.8079 186.849 90.0627 182.797 88.5329 177.443C88.396 176.964 88.6736 176.463 89.1535 176.326C89.6338 176.19 90.1339 176.467 90.2708 176.947C91.9123 182.693 92.666 186.959 93.35 191.979C93.4093 192.413 93.1487 192.826 92.7321 192.961C88.1112 194.451 82.4977 195.92 76.3736 195.92Z" fill="#1F404D"/>
<path d="M94.3575 205.872C93.9079 205.872 93.5086 205.567 93.3973 205.122C92.9275 203.251 92.5937 201.289 92.2402 199.213C91.8774 197.08 91.5017 194.876 90.9689 192.804C90.8327 192.274 91.1519 191.733 91.6819 191.597C92.2119 191.461 92.7521 191.78 92.8884 192.31C93.4419 194.462 93.8241 196.708 94.194 198.88C94.4879 200.606 94.7679 202.251 95.1208 203.805C97.7528 203.523 101.628 203.038 105.705 202.528C113.203 201.591 121.646 200.535 126.809 200.148C126.912 198.758 127.094 196.855 127.3 194.715C127.906 188.396 128.737 179.743 128.557 173.999C128.54 173.452 128.97 172.995 129.517 172.978C130.07 172.955 130.521 173.39 130.538 173.937C130.721 179.806 129.884 188.533 129.272 194.904C129.021 197.515 128.805 199.77 128.73 201.131C128.702 201.632 128.304 202.033 127.804 202.065C122.82 202.386 113.858 203.506 105.951 204.495C101.192 205.09 97.0821 205.604 94.458 205.867C94.4239 205.87 94.3905 205.872 94.3575 205.872Z" fill="#1F404D"/>
<path d="M110.363 154.457C110.516 155.762 110.559 157.072 110.438 158.388C110.07 162.374 107.813 166.457 104.032 167.775C99.7299 169.277 94.859 166.697 92.2631 162.952C91.3533 161.641 90.6598 160.219 90.1093 158.733C89.0844 155.973 88.5479 152.988 88.04 150.071C94.8447 149.242 102.122 149.079 108.517 146.606C109.281 149.179 110.049 151.805 110.363 154.457Z" fill="#F6E2D7"/>
<g opacity="0.5">
<path d="M110.363 154.457C108.41 156.388 105.777 158.021 102.594 158.958C98.2594 160.235 93.7762 159.957 90.1093 158.733C89.0844 155.973 88.5479 152.988 88.04 150.071C94.8447 149.242 102.122 149.079 108.517 146.606C109.281 149.179 110.049 151.805 110.363 154.457Z" fill="#E2B8A3"/>
</g>
<path d="M101.433 169.338C97.4066 169.338 93.5207 166.744 91.3373 163.595C90.4296 162.286 89.6826 160.824 89.0531 159.125C87.9611 156.184 87.4137 153.039 86.9307 150.265C86.8779 149.961 86.9521 149.648 87.1357 149.401C87.3197 149.153 87.5973 148.992 87.9035 148.954C89.4745 148.763 91.0948 148.604 92.6617 148.451C97.9032 147.938 103.323 147.408 108.111 145.557C108.403 145.443 108.731 145.458 109.013 145.596C109.295 145.735 109.506 145.985 109.595 146.286C110.323 148.739 111.149 151.52 111.48 154.326C111.654 155.809 111.68 157.171 111.559 158.491C111.104 163.42 108.294 167.482 104.402 168.839C103.419 169.182 102.422 169.338 101.433 169.338ZM89.3539 151.052C89.7763 153.423 90.2896 155.988 91.1636 158.342C91.7267 159.862 92.3885 161.16 93.1869 162.311C95.4218 165.535 99.7371 168.083 103.66 166.713C107.142 165.499 109.01 161.605 109.317 158.285C109.423 157.123 109.399 155.914 109.244 154.589C108.984 152.389 108.379 150.141 107.776 148.073C103.015 149.7 97.8695 150.203 92.8807 150.691C91.7185 150.805 90.527 150.922 89.3539 151.052Z" fill="#1F404D"/>
<path d="M143.146 65.4287C144.656 61.6492 147.805 58.558 151.612 57.1192C155.42 55.6807 159.826 55.9168 163.458 57.7538C168.916 60.5142 172.154 66.4687 173.305 72.4752C174.696 79.7312 173.441 87.4651 169.827 93.909C166.214 100.353 160.27 105.457 153.354 108.056C148.145 108.161 143.696 105.085 141.099 100.569C138.503 96.0519 137.836 90.6646 137.976 85.4568C138.154 78.7812 140.669 71.6308 143.146 65.4287Z" fill="#F6E2D7"/>
<path d="M153.099 109.184C147.867 109.184 143.034 106.19 140.125 101.129C137.75 96.9979 136.679 91.8613 136.852 85.4262C137.037 78.5609 139.61 71.2535 142.103 65.0106C143.723 60.9537 147.13 57.6098 151.216 56.0658C155.303 54.5217 160.07 54.7772 163.967 56.7487C169.226 59.4086 173.033 65.063 174.412 72.2628C175.844 79.7341 174.531 87.8242 170.811 94.4589C167.09 101.094 160.872 106.434 153.751 109.109C153.631 109.153 153.505 109.178 153.378 109.18C153.285 109.183 153.192 109.184 153.099 109.184ZM144.193 65.8457C141.774 71.9041 139.277 78.9751 139.102 85.4869C138.941 91.4958 139.913 96.2454 142.076 100.008C144.577 104.358 148.685 106.932 153.101 106.932C153.115 106.932 153.128 106.932 153.142 106.932C159.698 104.419 165.414 99.4807 168.847 93.358C172.312 87.1787 173.535 79.6444 172.202 72.6865C170.973 66.2725 167.515 61.0654 162.952 58.757C159.607 57.0655 155.518 56.8468 152.012 58.1711C148.506 59.4968 145.584 62.3656 144.193 65.8457Z" fill="#1F404D"/>
<path d="M137.006 97.922C136.58 97.8989 136.153 97.7759 135.759 97.5443C134.445 96.7714 134.007 95.0802 134.78 93.7668C140.546 83.9687 149.561 76.3173 160.166 72.2216C161.586 71.6729 163.185 72.3796 163.734 73.8014C164.284 75.2228 163.576 76.8207 162.155 77.3698C152.707 81.0189 144.675 87.8362 139.537 96.5657C138.995 97.4857 138.004 97.9765 137.006 97.922Z" fill="#1F404D"/>
<path d="M28.536 88.669C25.6734 85.7758 21.5689 84.1558 17.5018 84.3138C13.4351 84.4719 9.46821 86.4056 6.83893 89.5124C2.88769 94.1807 2.22415 100.926 3.50388 106.907C5.04963 114.132 9.21819 120.765 15.0565 125.293C20.8948 129.821 28.3575 132.206 35.7395 131.905C40.5781 129.974 43.4779 125.407 44.1101 120.236C44.7422 115.065 43.2578 109.843 41.1003 105.101C38.3348 99.0226 33.2329 93.4163 28.536 88.669Z" fill="#F6E2D7"/>
<path d="M34.5171 133.055C27.3227 133.055 20.045 130.585 14.3678 126.182C8.35642 121.52 3.99609 114.58 2.40402 107.142C0.870185 99.9737 2.17375 93.2828 5.98057 88.7848C8.80265 85.4504 13.0938 83.3583 17.4589 83.1887C21.8268 83.0136 26.2641 84.7716 29.3368 87.8771C34.0647 92.6557 39.2817 98.384 42.1256 104.635C44.7913 110.494 45.806 115.642 45.2277 120.372C44.5069 126.269 41.116 130.97 36.1575 132.95C36.039 132.998 35.9136 133.024 35.7862 133.029C35.3639 133.047 34.9401 133.055 34.5171 133.055ZM18.0455 85.4287C17.8789 85.4287 17.7127 85.4321 17.5465 85.4382C13.8013 85.584 10.1202 87.3784 7.69902 90.2393C4.39531 94.1425 3.23888 100.285 4.60513 106.671C6.08753 113.599 10.1485 120.062 15.747 124.403C21.2937 128.705 28.4819 131.033 35.4987 130.788C39.5866 129.076 42.3824 125.096 42.9932 120.099C43.5194 115.792 42.5653 111.039 40.0764 105.567C37.379 99.6385 32.3248 94.0982 27.7363 89.4606C25.2177 86.9148 21.6271 85.4287 18.0455 85.4287Z" fill="#1F404D"/>
<path d="M46.8501 116.203C47.2333 116.016 47.579 115.736 47.8515 115.37C48.7603 114.146 48.5052 112.417 47.2813 111.509C38.1543 104.731 26.8707 101.195 15.5082 101.554C13.9859 101.602 12.789 102.876 12.8374 104.399C12.8847 105.922 14.159 107.118 15.6822 107.07C25.8053 106.751 35.8585 109.901 43.9909 115.939C44.8482 116.576 45.9522 116.642 46.8501 116.203Z" fill="#1F404D"/>
<path d="M160.029 107.562C159.379 123.914 149.103 136.362 135.124 144.007C127.61 148.113 119.436 150.856 111.224 153.293C88.9743 159.892 53.6066 167.452 37.6964 144.484C30.5998 134.24 27.5185 121.838 27.0464 109.446C26.9817 107.824 26.964 106.202 26.9875 104.583C27.0123 102.981 27.076 101.388 27.1786 99.8015C28.4627 79.9056 34.8702 58.8731 48.5837 44.4193C53.6314 39.1005 59.669 34.6751 66.8034 31.5182C69.8472 30.1771 73.0123 29.1212 76.2462 28.3572C85.5776 26.1483 95.4853 26.3523 104.727 28.9111C104.757 28.9175 104.787 28.9271 104.817 28.9339C107.679 29.7327 110.476 30.7538 113.171 32.006C113.192 32.0131 113.214 32.0234 113.235 32.0366C114.228 32.4921 115.202 32.9842 116.168 33.5064C125.637 38.6393 133.352 46.164 139.695 54.791C142.185 58.1758 144.533 61.6713 146.709 65.2707C148.731 68.6139 150.662 72.108 152.392 75.717C153.405 77.8295 154.353 79.9822 155.21 82.168C158.406 90.2994 160.375 98.8842 160.029 107.562Z" fill="#F6E2D7"/>
<path d="M155.211 82.1674C143.219 80.2452 131.732 72.7689 125.699 62.3134C124.366 67.3648 119.608 71.3185 114.396 71.7003C109.184 72.0852 104.067 67.652 102.01 62.8468C100.873 68.4835 96.4858 73.3445 90.9928 75.0503C85.503 76.7558 79.2522 74.3653 75.1225 70.3613C74.1691 73.3966 72.2674 76.1788 69.5996 77.9096C66.9318 79.6403 63.482 80.2319 60.4732 79.1975C57.4676 78.1654 54.7266 75.3961 54.3532 72.2392C50.852 87.6712 40.6138 101.366 27.0464 109.446C26.9817 107.824 26.964 106.202 26.9875 104.583C27.0123 102.981 27.076 101.388 27.1786 99.8015C28.4627 79.9056 34.8702 58.8731 48.5837 44.4194C53.6315 39.1005 59.669 34.6751 66.8034 31.5182C69.8472 30.1772 73.0123 29.1212 76.2462 28.3572C85.5776 26.1483 95.4853 26.3523 104.728 28.9111C104.757 28.9175 104.787 28.9271 104.817 28.9339C107.679 29.7327 110.476 30.7539 113.171 32.006C113.192 32.0132 113.214 32.0234 113.235 32.0366C114.228 32.4921 115.202 32.9842 116.168 33.5064C125.637 38.6393 133.352 46.164 139.695 54.791C142.185 58.1758 144.533 61.6713 146.709 65.2707C148.731 68.6139 150.662 72.108 152.392 75.717C153.406 77.8288 154.354 79.9816 155.211 82.1674Z" fill="#EFCAB9"/>
<path d="M72.9639 161.106C72.6655 161.106 72.3681 161.104 72.0701 161.101C55.8618 160.915 43.9853 155.539 36.7708 145.124C29.3984 134.482 25.6266 120.456 25.863 104.565C25.8886 102.932 25.9536 101.305 26.0565 99.7273C27.5368 76.759 35.2476 56.841 47.7689 43.6435C53.1279 37.9973 59.3784 33.5719 66.3476 30.4899C69.4299 29.1291 72.673 28.0432 75.9876 27.2622C85.5043 25.0096 95.5391 25.2014 105.007 27.8201C105.048 27.83 105.09 27.8416 105.131 27.8545C108.05 28.6666 110.909 29.7167 113.618 30.9719C113.659 30.989 113.699 31.008 113.739 31.0291C114.71 31.4771 115.707 31.9778 116.704 32.517C125.539 37.3055 133.58 44.5741 140.603 54.1225C143.154 57.5924 145.532 61.1468 147.672 64.6876C149.855 68.2982 151.784 71.8455 153.407 75.2299C158.944 86.7645 161.55 97.6573 161.152 107.606C160.537 123.064 151.485 136.342 135.664 144.994C127.847 149.266 119.452 152.026 111.545 154.373C101.742 157.279 87.1669 161.106 72.9639 161.106ZM89.3888 27.954C85.056 27.954 80.7284 28.453 76.5053 29.4528C73.3242 30.2021 70.213 31.2437 67.2577 32.5483C60.5628 35.509 54.5552 39.7634 49.4022 45.1923C37.2429 58.0086 29.7499 77.428 28.3032 99.8724C28.2028 101.414 28.1391 103.004 28.1145 104.598C27.8849 120.017 31.5184 133.587 38.6218 143.842C45.3971 153.623 56.6599 158.672 72.0966 158.85C86.2734 159.007 101.036 155.14 110.906 152.214C118.694 149.903 126.953 147.189 134.585 143.018C149.685 134.761 158.322 122.152 158.904 107.515C159.287 97.9383 156.755 87.4028 151.379 76.2028C149.787 72.8827 147.892 69.3998 145.747 65.8512C143.642 62.368 141.301 58.8704 138.791 55.455C131.965 46.1764 124.174 39.1244 115.633 34.4957C114.668 33.9732 113.702 33.4888 112.764 33.0566C112.75 33.0497 112.735 33.0429 112.721 33.0354C112.714 33.0324 112.707 33.029 112.699 33.0259C110.093 31.816 107.34 30.8043 104.515 30.0185C104.507 30.0161 104.489 30.011 104.481 30.0086C104.46 30.0039 104.448 30.0001 104.427 29.9943C99.519 28.6356 94.4508 27.954 89.3888 27.954Z" fill="#1F404D"/>
<path d="M56.5949 151.543C63.9883 151.543 69.9818 145.549 69.9818 138.156C69.9818 130.763 63.9883 124.769 56.5949 124.769C49.2015 124.769 43.208 130.763 43.208 138.156C43.208 145.549 49.2015 151.543 56.5949 151.543Z" fill="#F9CCC5"/>
<path d="M98.5667 111.901C98.7456 112.964 95.9354 114.323 92.2901 114.937C88.6447 115.55 85.5443 115.185 85.3655 114.122C85.1867 113.059 87.9968 111.7 91.6422 111.086C95.2876 110.473 98.3876 110.838 98.5667 111.901Z" fill="#F9CCC5"/>
<path d="M141.862 126.366C149.229 125.746 154.699 119.27 154.079 111.903C153.458 104.535 146.983 99.0656 139.615 99.6859C132.248 100.306 126.778 106.782 127.399 114.149C128.019 121.517 134.494 126.986 141.862 126.366Z" fill="#F9CCC5"/>
<path d="M158.481 56.196C158.469 60.9345 156.855 73.5529 153.485 75.2564C147.349 78.3567 123.552 53.8897 122.046 47.7172C121.811 51.352 121.553 55.0795 120.131 58.3819C118.71 61.6873 115.858 64.5403 112.387 64.8101C108.894 65.0847 105.559 62.6863 103.573 59.617C101.589 56.5503 99.2365 51.4556 98.3764 47.8787C98.593 51.1064 98.7187 54.3758 98.1304 57.5368C97.5449 60.6947 96.1804 63.7749 93.8396 65.8344C90.7481 68.5522 86.0611 69.1129 82.381 67.2016C79.0776 65.489 75.7361 60.9352 75.1713 56.9397C75.2698 58.6969 73.7561 62.1883 72.4767 64.1186C70.9697 66.395 69.2687 68.3921 67.6667 69.7846C66.0648 71.1801 63.6674 71.6849 61.7858 70.6634C59.8088 69.587 58.8541 67.2262 58.0539 65.0506C57.2579 62.8897 56.482 60.2093 55.6863 58.0484C50.2703 77.1898 31.1102 102.353 26.8544 102.903C22.3776 103.483 16.8009 93.7843 14.1386 87.7273C12.7053 84.4696 9.94211 75.9884 9.85457 65.5639C9.75919 53.9285 13.0013 39.8744 25.151 27.9573C49.5278 4.05531 97.255 -6.63587 126.941 7.46496C140.653 13.976 150.231 25.547 155.004 37.9989C157.31 44.0174 158.494 50.2399 158.481 56.196Z" fill="#EF9289"/>
<path d="M155.004 37.9982C152.946 43.3859 150.115 48.4459 146.487 52.8066C135.263 48.4718 125.618 41.0581 118.85 31.1074C118.047 33.6079 117.155 36.118 115.679 38.2895C114.205 40.4606 112.068 42.2901 109.514 42.8978C106.563 43.5968 103.39 42.5653 100.996 40.7055C99.3011 39.3907 97.9229 37.5115 96.7753 35.5679C95.5804 40.525 93.0193 45.3227 87.9171 46.972C83.9869 48.2425 79.5469 47.6233 76.265 45.0863C74.5101 43.7299 73.1861 41.9062 72.264 39.8857C71.1761 42.9891 69.4147 45.7434 66.5115 47.487C62.8893 49.6623 58.373 49.7617 54.8646 47.3191C53.6949 46.5047 52.7428 45.4811 51.971 44.3298C45.9075 58.0331 35.0232 69.4662 21.5464 76.0569C17.0914 73.2536 13.1347 69.678 9.85547 65.5636C9.94301 75.9881 12.7062 84.4693 14.1395 87.727C16.8015 93.784 22.3785 103.482 26.8554 102.902C31.1111 102.353 50.2709 77.1898 55.6872 58.0481C56.4832 60.209 57.2592 62.8894 58.0549 65.0503C58.855 67.2259 59.8098 69.5867 61.7867 70.6631C63.6684 71.6846 66.0657 71.1798 67.6676 69.7843C69.2696 68.3918 70.9707 66.3947 72.4776 64.1183C73.7573 62.188 75.2707 58.6967 75.1723 56.9394C75.737 60.9349 79.0785 65.4887 82.3819 67.2013C86.062 69.1126 90.749 68.5519 93.8405 65.8341C96.181 63.775 97.5458 60.6944 98.1314 57.5365C98.7196 54.3755 98.5939 51.1058 98.3773 47.8784C99.2374 51.455 101.59 56.55 103.574 59.6167C105.56 62.686 108.894 65.0847 112.388 64.8098C115.859 64.5397 118.711 61.687 120.132 58.3816C121.554 55.0792 121.812 51.3517 122.047 47.7169C123.554 53.8894 147.35 78.3561 153.486 75.2561C156.856 73.5526 158.47 60.9342 158.482 56.1958C158.494 50.2396 157.31 44.0171 155.004 37.9982Z" fill="#E2726D"/>
<path d="M26.4692 104.053C20.4024 104.054 14.297 90.8877 13.1062 88.179C12.628 87.0914 8.44068 77.1626 8.74315 63.7038C9.06708 49.2978 14.3222 37.0002 24.3635 27.1538C36.2833 15.4653 54.3115 6.42712 73.8252 2.35768C93.9844 -1.84733 113.02 -0.393878 127.425 6.44859C137.241 11.1111 145.501 18.5653 151.311 28.0053C156.682 36.7325 159.628 46.7451 159.606 56.1992C159.597 60.0026 158.231 74.1201 153.993 76.2613C152.64 76.9453 150.816 76.7405 148.42 75.6356C140.798 72.1227 127.798 59.2341 122.852 51.7394C122.59 54.1306 122.135 56.5752 121.165 58.8281C119.782 62.0423 116.772 65.5967 112.474 65.9329C108.156 66.2711 104.556 63.2082 102.628 60.2301C101.689 58.7804 100.594 56.7547 99.6136 54.5975C99.5485 55.6467 99.43 56.7006 99.2369 57.7412C98.7464 60.3834 97.5409 64.0788 94.5829 66.6802C91.162 69.6879 85.931 70.313 81.8623 68.2024C79.2793 66.8621 76.7975 64.0403 75.3271 61.0323C74.7511 62.4564 74.0184 63.8299 73.4134 64.7424C71.8643 67.0794 70.0855 69.1722 68.4045 70.6352C66.3284 72.4425 63.4526 72.8516 61.2484 71.6526C58.9802 70.4192 57.9041 67.9078 56.9967 65.441C56.5913 64.3394 56.188 63.0978 55.7987 61.8978C55.7728 61.8184 55.7469 61.7384 55.7211 61.6587C52.9681 69.5527 48.0025 78.9805 41.7629 88.0837C36.8964 95.1833 30.1095 103.617 26.9979 104.02C26.8221 104.042 26.6454 104.053 26.4692 104.053ZM95.5244 2.23747C70.6493 2.23747 43.0699 11.9626 25.9392 28.7609C16.3319 38.1819 11.3036 49.9556 10.9933 63.7539C10.7017 76.7276 14.7085 86.2313 15.1663 87.2726C18.3958 94.6151 23.5409 102.194 26.7084 101.786C29.9153 101.371 49.0615 77.3247 54.6021 57.7402C54.7349 57.2708 55.1546 56.9404 55.642 56.922C56.1278 56.8995 56.5733 57.2003 56.7416 57.6577C57.1469 58.7596 57.5499 60.0012 57.9395 61.2013C58.3224 62.3815 58.7186 63.6013 59.1089 64.6624C59.8998 66.8124 60.7408 68.8135 62.3234 69.6736C63.6848 70.4141 65.5774 70.1103 66.9266 68.9362C68.459 67.6019 70.0964 65.6706 71.5369 63.4974C72.7632 61.6478 74.1264 58.4075 74.0467 57.002C74.0126 56.3995 74.4592 55.8773 75.0597 55.818C75.6619 55.7587 76.2004 56.1828 76.2852 56.7803C76.7815 60.2853 79.8104 64.6003 82.8991 66.2026C86.1633 67.8966 90.3568 67.3965 93.0968 64.9887C95.0278 63.2907 96.4226 60.5704 97.0238 57.3297C97.6036 54.2058 97.4462 50.8511 97.2534 47.9523C97.2146 47.3688 97.6291 46.8524 98.2068 46.7649C98.7845 46.6777 99.3339 47.0462 99.4709 47.6147C100.331 51.1937 102.712 56.2172 104.518 59.0059C106.498 62.0647 109.552 63.9014 112.298 63.6882C115.016 63.4753 117.685 61.2179 119.097 57.9371C120.46 54.771 120.695 51.147 120.922 47.6427C120.958 47.0882 121.394 46.6426 121.947 46.5942C122.503 46.5445 123.007 46.909 123.139 47.4489C124.259 52.0408 140.473 69.4941 149.361 73.5904C151.602 74.6232 152.59 74.4482 152.978 74.2513C155.485 72.9845 157.342 61.624 157.355 56.1927C157.393 39.7668 147.855 18.6436 126.459 8.48077C117.523 4.23693 106.799 2.23747 95.5244 2.23747Z" fill="#1F404D"/>
<path d="M66.8685 86.5748C62.1488 85.4524 56.9356 87.2397 53.8955 91.0199C53.3747 91.6678 53.4779 92.6154 54.1258 93.1362C54.4558 93.4023 54.8642 93.5055 55.2539 93.4571C55.6286 93.4108 55.9866 93.2241 56.2421 92.9063C58.5328 90.058 62.6158 88.6591 66.173 89.5035C66.9785 89.6956 67.793 89.1962 67.9854 88.3872C68.1772 87.5783 67.6775 86.7669 66.8685 86.5748Z" fill="#1F404D"/>
<path d="M116.765 75.4059C112.347 73.4054 106.889 74.1639 103.182 77.2946C102.547 77.8314 102.467 78.7811 103.004 79.416C103.345 79.8197 103.853 79.9989 104.34 79.9386C104.62 79.9038 104.894 79.79 105.125 79.5945C107.918 77.2347 112.193 76.6403 115.524 78.1486C116.28 78.4909 117.172 78.1557 117.516 77.3982C117.858 76.641 117.523 75.7489 116.765 75.4059Z" fill="#1F404D"/>
<path d="M121.248 98.5567C119.427 97.7321 117.43 97.3836 115.451 97.4694C116.595 97.0283 117.811 96.7902 119.025 96.811C119.854 96.8253 120.541 96.1635 120.555 95.3317C120.57 94.5006 119.908 93.8149 119.076 93.8006C114.368 93.7202 109.799 96.4207 107.56 100.554C107.03 101.103 106.984 101.971 107.487 102.567C107.788 102.923 108.22 103.094 108.652 103.089C108.94 103.1 109.224 103.037 109.47 102.892C109.624 102.802 109.76 102.68 109.876 102.536C112.669 100.356 116.779 99.8375 120.007 101.299C120.763 101.641 121.655 101.306 121.999 100.549C122.342 99.7918 122.006 98.8997 121.248 98.5567Z" fill="#1F404D"/>
<path d="M61.625 115.425C62.8199 113.823 64.3997 112.551 66.1733 111.669C64.9583 111.837 63.7791 112.216 62.7269 112.822C62.0078 113.236 61.0868 112.989 60.6716 112.268C60.257 111.547 60.5046 110.627 61.2257 110.212C65.3078 107.864 70.613 108.018 74.5718 110.552C75.3014 110.776 75.7612 111.514 75.6086 112.278C75.5177 112.736 75.2227 113.093 74.8419 113.299C74.5949 113.447 74.3156 113.53 74.0305 113.522C73.852 113.517 73.6739 113.477 73.5036 113.407C70.0043 112.85 66.1563 114.384 64.0383 117.225C63.5423 117.89 62.5988 118.028 61.9319 117.532C61.2656 117.035 61.128 116.092 61.625 115.425Z" fill="#1F404D"/>
<path d="M121.329 111.123C122.709 116.993 122.036 122.886 119.757 128.028C116.573 135.224 110.245 140.943 102.036 143.061C93.1848 145.345 84.2261 142.903 77.8234 137.313C74.0404 134.012 71.1543 129.613 69.7012 124.442L121.329 111.123Z" fill="#96312C"/>
<path d="M119.757 128.028C116.573 135.223 110.245 140.943 102.036 143.061C93.1847 145.344 84.226 142.903 77.8232 137.312C83.7729 133.069 90.3173 129.729 97.3768 127.923C104.669 126.056 112.552 125.982 119.757 128.028Z" fill="#EA978F"/>
<path d="M118.77 111.783C116.672 115.092 113.782 117.966 110.522 120.156C104.316 124.327 96.8863 126.313 89.4859 127.413C85.4304 128.018 81.2199 128.37 77.2874 127.202C75.2079 126.582 73.2152 125.454 71.6719 123.933L118.77 111.783Z" fill="white"/>
<path d="M95.2758 144.884C90.4458 144.884 85.6791 143.619 81.393 141.146C75.0455 137.483 70.4614 131.583 68.484 124.533C68.3968 124.222 68.4387 123.889 68.5995 123.609C68.7606 123.329 69.0277 123.126 69.34 123.046L120.968 109.727C121.28 109.647 121.612 109.695 121.889 109.862C122.165 110.029 122.363 110.3 122.437 110.615C124.117 117.741 122.959 125.123 119.175 131.399C115.386 137.685 109.384 142.157 102.275 143.991C99.9594 144.588 97.6098 144.884 95.2758 144.884ZM71.1566 125.057C75.3367 137.59 88.759 144.998 101.675 141.666C114.592 138.334 122.756 125.358 120.352 112.367L71.1566 125.057Z" fill="#1F404D"/>
</svg>
