<svg width="396" height="299" viewBox="0 0 396 299" fill="none" xmlns="http://www.w3.org/2000/svg">
<path d="M227.49 210.672C232.912 208.698 239.488 209.17 244.744 211.551C246.797 217.717 250.731 223.142 255.333 227.731C259.935 232.316 267.28 237.616 274.068 237.073C276.147 236.905 278.113 235.648 279.878 233.883C282.582 231.179 284.82 227.28 286.285 224.312L268.583 217.348C268.07 216.873 267.565 216.39 267.062 215.904C266.87 215.597 266.596 215.314 266.234 215.076C265.911 214.753 265.583 214.429 265.265 214.098C264.692 213.501 264.043 213.264 263.416 213.275C262.322 212.599 261.355 211.999 260.451 211.445C256.957 209.303 254.383 207.832 248.814 205.285C248.399 205.002 248 204.698 247.603 204.394C246.952 202.605 245.556 200.115 244.454 198.755C244.101 198.32 243.704 197.891 243.183 197.682C242.664 197.471 241.994 197.544 241.649 197.984C241.228 198.524 241.456 199.303 241.703 199.941C241.985 200.672 242.268 201.402 242.55 202.133C239.496 202.097 236.401 202.418 233.376 202.792C232.542 202.896 231.78 203.238 231.274 203.81C230.411 204.419 229.681 205.287 229.075 206.143L229.464 206.042C229.401 206.145 229.342 206.251 229.29 206.36C228.807 206.65 228.342 206.974 227.911 207.34L229.035 207.117C229.027 207.161 229.016 207.202 229.008 207.245C229.002 207.275 229.005 207.305 229 207.335C228.383 207.557 227.8 207.861 227.373 208.353C226.768 209.051 226.803 210.05 227.49 210.672Z" fill="#F6E2D7"/>
<path d="M260.451 211.445C261.735 216.547 264.225 221.349 267.714 225.289C271.035 229.038 275.243 231.982 279.878 233.882C282.582 231.178 284.819 227.279 286.285 224.312L268.583 217.347C268.07 216.872 267.565 216.389 267.062 215.903C266.87 215.596 266.595 215.314 266.234 215.075C265.911 214.752 265.582 214.429 265.265 214.097C264.692 213.5 264.043 213.264 263.416 213.275C262.322 212.599 261.355 211.999 260.451 211.445Z" fill="#EFCAB9"/>
<path d="M265.922 215.76C265.754 215.76 265.583 215.715 265.429 215.622C263.98 214.742 262.747 213.98 261.64 213.296C256.913 210.375 254.541 208.909 247.353 205.665C247.107 205.554 246.919 205.344 246.838 205.087C246.314 203.435 244.855 200.757 243.716 199.354C243.444 199.02 243.148 198.692 242.829 198.563C242.631 198.483 242.43 198.528 242.398 198.569C242.366 198.611 242.285 198.808 242.591 199.601L243.596 202.203C243.785 202.693 243.541 203.243 243.051 203.432C242.561 203.621 242.012 203.377 241.823 202.888L240.818 200.286C240.603 199.729 240.1 198.427 240.899 197.401C241.482 196.655 242.567 196.408 243.54 196.801C244.261 197.092 244.779 197.65 245.191 198.157C246.382 199.624 247.835 202.242 248.51 204.103C255.525 207.283 258.074 208.859 262.639 211.679C263.742 212.361 264.971 213.121 266.416 213.998C266.864 214.27 267.007 214.855 266.735 215.303C266.556 215.597 266.243 215.76 265.922 215.76Z" fill="#1F404D"/>
<path d="M273.074 238.063C265.23 238.063 257.648 231.378 254.662 228.402C249.513 223.271 245.921 217.839 243.979 212.252C238.863 210.052 232.707 209.783 227.814 211.564C227.485 211.684 227.113 211.612 226.852 211.375C225.797 210.421 225.711 208.819 226.656 207.73C227.416 206.854 228.489 206.46 229.535 206.166C233.021 205.185 236.616 204.863 240.221 205.207C240.743 205.257 241.126 205.721 241.076 206.243C241.026 206.766 240.557 207.146 240.04 207.099C236.67 206.776 233.309 207.079 230.05 207.995C229.17 208.243 228.5 208.504 228.091 208.975C227.944 209.145 227.88 209.341 227.898 209.527C233.233 207.824 239.761 208.25 245.136 210.685C245.378 210.794 245.562 210.999 245.646 211.25C247.459 216.695 250.943 222.013 256.003 227.056C258.293 229.338 266.352 236.735 273.992 236.125C278.884 235.734 283.26 228.292 285.433 223.891C285.665 223.421 286.235 223.227 286.706 223.46C287.177 223.692 287.37 224.262 287.137 224.732C284.265 230.55 279.679 237.577 274.143 238.02C273.787 238.049 273.43 238.063 273.074 238.063Z" fill="#1F404D"/>
<path d="M227.911 208.292C227.641 208.292 227.375 208.178 227.187 207.958C226.846 207.558 226.894 206.959 227.293 206.618C229.142 205.043 231.678 204.002 234.626 203.607C237.201 203.262 239.788 203.412 242.288 203.556C242.813 203.586 243.213 204.036 243.182 204.56C243.152 205.084 242.7 205.486 242.179 205.454C239.767 205.315 237.273 205.171 234.879 205.491C232.292 205.837 230.096 206.727 228.526 208.065C228.347 208.217 228.129 208.292 227.911 208.292Z" fill="#1F404D"/>
<path d="M229.074 207.094C228.884 207.094 228.693 207.037 228.526 206.919C228.098 206.616 227.996 206.023 228.299 205.594C229.191 204.334 230.615 202.606 232.672 202.148C236.012 201.405 239.426 201.24 242.822 201.659C243.343 201.723 243.713 202.197 243.649 202.718C243.585 203.239 243.111 203.609 242.59 203.545C239.41 203.153 236.212 203.307 233.085 204.003C232.022 204.24 230.964 205.12 229.851 206.693C229.665 206.954 229.372 207.094 229.074 207.094Z" fill="#1F404D"/>
<path d="M301.716 298.682C341.451 298.682 373.662 292.483 373.662 284.836C373.662 277.19 341.451 270.991 301.716 270.991C261.981 270.991 229.77 277.19 229.77 284.836C229.77 292.483 261.981 298.682 301.716 298.682Z" fill="#EFBAB4"/>
<path d="M330.94 247.188C333.465 248.375 335.989 249.559 338.51 250.746C341.078 250.043 343.505 249.154 345.659 247.593C345.267 245.926 344.574 244.35 343.116 243.447L341.273 243.99C345.811 242.607 349.987 240.04 353.263 236.603C356.671 233.028 359.115 228.59 360.226 223.777C358.242 220.337 356.064 217.007 353.704 213.807C351.15 210.337 348.384 207.018 345.428 203.882C340.914 209.634 336.606 215.421 332.092 221.17L331.268 239.78L330.94 247.188Z" fill="#F6E2D7"/>
<path d="M332.092 221.17L331.268 239.78C334.67 237.696 337.785 235.077 340.535 232.188C345.741 226.715 349.799 220.284 353.704 213.807C351.15 210.337 348.384 207.018 345.427 203.882C340.913 209.634 336.606 215.421 332.092 221.17Z" fill="#EFCAB9"/>
<path d="M338.511 251.687C338.374 251.687 338.237 251.657 338.111 251.597L330.541 248.039C330.198 247.878 329.985 247.526 330.002 247.147L331.152 221.13C331.161 220.933 331.231 220.745 331.352 220.591C333.606 217.719 335.847 214.789 338.014 211.954C340.184 209.117 342.428 206.182 344.689 203.303C344.858 203.088 345.112 202.957 345.386 202.944C345.655 202.929 345.924 203.039 346.112 203.238C351.843 209.319 356.866 216.072 361.039 223.309C361.158 223.516 361.194 223.759 361.141 223.991C360.001 228.924 357.512 233.51 353.944 237.251C351.346 239.976 348.242 242.154 344.822 243.67C345.625 244.575 346.204 245.802 346.574 247.38C346.661 247.749 346.517 248.134 346.21 248.356C343.737 250.146 340.929 251.058 338.759 251.653C338.678 251.675 338.594 251.687 338.511 251.687ZM331.908 246.604L338.595 249.748C340.489 249.215 342.622 248.487 344.583 247.196C344.211 245.932 343.681 245.051 342.95 244.477L341.58 244.879C341.381 244.94 341.18 244.999 340.979 245.055C340.482 245.196 339.964 244.907 339.821 244.41C339.678 243.914 339.964 243.394 340.46 243.249L341.04 243.078C345.431 241.735 349.411 239.281 352.584 235.954C355.833 232.547 358.124 228.395 359.224 223.925C355.343 217.251 350.728 211.001 345.49 205.327C343.466 207.919 341.457 210.546 339.508 213.096C337.396 215.857 335.215 218.709 333.016 221.513L331.908 246.604Z" fill="#1F404D"/>
<path d="M303.547 283.706C311.93 286.791 331.454 287.946 333.324 285.753C334.981 280.635 327.475 279.021 323 278.118C324.876 275.098 326.744 271.641 328.399 268.024C330.35 263.772 332.009 259.293 333.024 255.067C325.788 255.624 313.989 255.689 306.785 256.244C306.887 260.542 306.305 266.224 305.608 271.274C304.683 278.032 303.547 283.706 303.547 283.706Z" fill="#F6E2D7"/>
<path d="M304.604 280.096C304.713 280.033 304.838 279.982 304.983 279.946C307.83 279.248 310.743 278.815 313.682 278.495C316.529 278.184 319.693 277.578 322.543 278.052C323.806 278.262 324.983 278.732 326.156 279.193C327.349 279.662 328.596 279.986 329.781 280.45C331.951 281.3 333.245 283.301 333.06 285.515C332.967 286.626 331.666 286.976 330.906 286.559C330.835 286.577 330.761 286.593 330.682 286.602C325.586 287.19 320.268 286.279 315.215 285.663C312.71 285.358 310.207 285.015 307.716 284.572C306.753 284.401 305.468 284.362 304.63 283.818C304.263 283.581 303.991 283.245 303.851 282.844C303.794 282.679 303.845 282.037 303.749 281.92C303.059 281.078 303.738 280.253 304.604 280.096Z" fill="#666666"/>
<path d="M305.608 271.274C313.3 271.51 321.033 270.397 328.399 268.024C330.349 263.772 332.009 259.293 333.023 255.067C325.788 255.624 313.989 255.689 306.784 256.244C306.887 260.542 306.304 266.224 305.608 271.274Z" fill="#EFCAB9"/>
<path d="M326.022 287.83C324.162 287.83 322.302 287.743 320.817 287.646C315.368 287.292 307.884 286.303 303.222 284.588C302.787 284.428 302.534 283.976 302.625 283.522C302.659 283.349 306.079 266.118 305.843 256.268C305.832 255.768 306.213 255.347 306.711 255.308C310.333 255.029 315.174 254.871 319.856 254.718C324.525 254.565 329.352 254.408 332.95 254.131C333.253 254.107 333.543 254.23 333.738 254.458C333.933 254.687 334.007 254.995 333.936 255.287C332.305 262.072 328.808 270.273 324.497 277.466C327.812 278.173 332.284 279.375 333.887 282.118C334.57 283.287 334.681 284.607 334.216 286.042C334.178 286.159 334.117 286.268 334.038 286.362C333.054 287.518 329.538 287.83 326.022 287.83ZM304.625 283.085C308.419 284.331 314.498 285.342 320.793 285.761C327.659 286.218 331.639 285.741 332.499 285.223C332.713 284.409 332.636 283.701 332.264 283.066C330.862 280.667 325.626 279.607 322.813 279.038C322.512 278.977 322.259 278.772 322.137 278.489C322.015 278.207 322.039 277.882 322.202 277.621C326.465 270.755 329.995 262.813 331.792 256.097C328.341 256.321 324.067 256.461 319.918 256.596C315.628 256.736 311.204 256.881 307.735 257.118C307.767 266.094 305.289 279.626 304.625 283.085Z" fill="#1F404D"/>
<path d="M304.245 280.872C303.827 280.872 303.445 280.591 303.336 280.167C303.205 279.665 303.507 279.152 304.01 279.022C310.29 277.394 316.794 276.58 323.358 276.6C323.877 276.602 324.297 277.024 324.295 277.544C324.294 278.062 323.873 278.48 323.355 278.48C323.269 278.485 323.191 278.48 323.109 278.48C316.794 278.48 310.529 279.274 304.482 280.842C304.402 280.862 304.323 280.872 304.245 280.872Z" fill="#1F404D"/>
<path d="M262.967 285.778C264.873 287.922 284.38 286.793 292.747 283.775C292.747 283.775 295.12 278.456 296.692 271.836C296.738 271.645 296.787 271.454 296.839 271.257C298.338 265.673 302.672 258.309 302.882 254.111C295.56 253.549 286.933 251.474 279.544 250.905C278.452 257.118 275.712 259.96 274.898 266.774C274.879 266.94 274.859 267.105 274.842 267.277C274.445 271.161 273.835 273.157 273.2 278.289C268.722 279.178 261.221 280.763 262.967 285.778Z" fill="#F6E2D7"/>
<path d="M274.898 266.774C277.263 267.678 279.667 268.445 282.104 269.078C286.919 270.332 291.868 271.065 296.838 271.257C298.338 265.673 302.671 258.309 302.881 254.111C295.56 253.549 286.933 251.474 279.543 250.905C278.452 257.118 275.711 259.961 274.898 266.774Z" fill="#EFCAB9"/>
<path d="M291.666 280.234C291.557 280.173 291.431 280.122 291.286 280.087C288.426 279.402 285.501 278.976 282.55 278.661C279.691 278.355 276.509 277.759 273.654 278.225C272.389 278.432 271.215 278.894 270.045 279.347C268.855 279.808 267.61 280.126 266.428 280.582C264.267 281.417 263.004 283.379 263.226 285.546C263.337 286.632 264.643 286.974 265.397 286.567C265.469 286.585 265.543 286.6 265.621 286.609C270.726 287.183 276.033 286.293 281.081 285.691C283.584 285.392 286.086 285.056 288.577 284.623C289.539 284.456 290.825 284.418 291.661 283.885C292.027 283.652 292.298 283.324 292.435 282.931C292.492 282.769 292.437 282.139 292.533 282.025C293.221 281.199 292.536 280.388 291.666 280.234Z" fill="#666666"/>
<path d="M270.281 287.83C266.773 287.83 263.263 287.526 262.265 286.403C262.183 286.311 262.12 286.204 262.08 286.087C261.59 284.682 261.676 283.386 262.334 282.235C263.88 279.534 268.198 278.355 272.308 277.51C272.908 269.555 275.906 258.164 278.511 250.741C278.652 250.339 279.044 250.082 279.47 250.115C283.21 250.403 287.303 251.079 291.261 251.733C295.158 252.376 299.188 253.042 302.801 253.319C303.098 253.342 303.366 253.504 303.524 253.755C303.683 254.006 303.713 254.317 303.606 254.595C299.12 266.224 293.699 283.874 293.645 284.051C293.558 284.334 293.343 284.559 293.065 284.66C288.413 286.337 280.937 287.304 275.493 287.65C274.006 287.744 272.144 287.83 270.281 287.83ZM263.781 285.235C264.639 285.742 268.629 286.212 275.507 285.765C281.98 285.345 288.224 284.31 291.988 283.044C292.841 280.289 297.402 265.666 301.407 255.084C298.056 254.76 294.453 254.165 290.955 253.587C287.292 252.982 283.513 252.358 280.047 252.049C277.462 259.588 274.576 270.783 274.136 278.343C274.111 278.77 273.801 279.127 273.381 279.211C270.561 279.772 265.312 280.815 263.966 283.168C263.619 283.776 263.557 284.454 263.781 285.235Z" fill="#1F404D"/>
<path d="M293.506 281.465C293.422 281.465 293.336 281.453 293.251 281.43C288.549 280.107 281.442 279.303 273.237 279.168C272.718 279.159 272.305 278.732 272.313 278.212C272.321 277.699 272.741 277.288 273.252 277.288C273.258 277.288 273.263 277.288 273.268 277.288C281.63 277.426 288.907 278.254 293.76 279.62C294.26 279.76 294.551 280.279 294.41 280.779C294.294 281.194 293.916 281.465 293.506 281.465Z" fill="#1F404D"/>
<path d="M302.449 262.318C304.458 257.216 305.717 253.88 307.5 248.622C306.198 255.336 306.209 258.021 305.403 262.855C314.385 264.777 325.446 263.875 332.772 260.706C333.537 257.293 334.034 254.347 334.313 251.482C334.824 246.23 334.609 241.243 334.002 234.121L284.5 233.047C280.574 242.161 279.591 244.798 276.119 252.914C275.827 253.59 275.521 254.307 275.193 255.067C281.656 261.697 293.33 262.132 302.449 262.318Z" fill="#4D8791"/>
<path d="M302.449 262.318C304.458 257.215 305.717 253.88 307.5 248.622C306.198 255.335 306.209 258.021 305.403 262.854C314.385 264.777 325.446 263.875 332.772 260.706C333.537 257.293 334.034 254.347 334.313 251.482C331.126 255.011 327.477 258.126 323.486 260.717C323.621 257.167 322.259 253.327 320.806 250.086C320.39 253.531 319.203 256.74 317.229 259.592C313.156 253.928 309.066 248.141 308.086 241.235C303.907 244.731 301.643 250.843 300.301 256.123C298.389 254.205 295.183 252.441 293.784 250.123C293.813 252.43 294.396 255.164 294.428 257.47C287.639 258.98 281.213 257.105 276.119 252.913C275.827 253.59 275.521 254.307 275.193 255.067C281.656 261.697 293.33 262.132 302.449 262.318Z" fill="#40797F"/>
<path d="M315.448 264.789C311.943 264.789 308.446 264.452 305.209 263.76C304.725 263.656 304.408 263.191 304.489 262.702C304.787 260.914 304.971 259.434 305.156 257.901C304.592 259.384 303.994 260.919 303.31 262.656C303.168 263.017 302.83 263.248 302.43 263.243C294.078 263.074 281.456 262.819 274.529 255.713C274.268 255.445 274.194 255.045 274.342 254.701C276.466 249.772 277.749 246.689 278.989 243.707C280.233 240.718 281.519 237.626 283.65 232.681C283.796 232.341 284.131 232.122 284.5 232.122C284.507 232.122 284.513 232.122 284.52 232.122L334.023 233.196C334.495 233.206 334.885 233.571 334.925 234.043C335.853 244.926 335.885 251.065 333.675 260.909C333.61 261.198 333.411 261.438 333.14 261.556C328.252 263.67 321.839 264.789 315.448 264.789ZM306.458 262.124C314.908 263.741 324.977 262.924 331.972 260.039C333.943 251.081 334.015 245.485 333.15 235.029L285.104 233.986C283.123 238.59 281.891 241.551 280.699 244.418C279.505 247.286 278.273 250.248 276.293 254.852C282.619 260.829 293.965 261.215 301.823 261.379C303.67 256.673 304.899 253.404 306.622 248.325C306.779 247.864 307.266 247.603 307.737 247.727C308.207 247.852 308.501 248.32 308.408 248.799C307.636 252.777 307.331 255.316 307.036 257.771C306.865 259.193 306.702 260.549 306.458 262.124Z" fill="#1F404D"/>
<path d="M285.808 226.258C285.249 229.169 284.913 229.945 283.785 233.45C298.286 239.358 319.769 238.015 334.807 235.598C334.802 235.56 334.796 235.525 334.794 235.488C334.302 231.855 334.313 230.697 333.937 228.071C333.932 228.047 333.929 228.026 333.926 228.001C333.854 227.502 333.768 226.949 333.66 226.315H333.679L333.704 226.318C337.176 224.169 340.479 221.962 343.406 219.551C346.832 216.739 349.749 213.651 351.838 210.079C351.679 209.795 351.515 209.515 351.349 209.236C351.22 209.019 351.086 208.801 350.949 208.586C350.664 208.133 350.366 207.687 350.06 207.246C349.928 207.058 349.796 206.871 349.659 206.688C349.646 206.666 349.63 206.645 349.614 206.624C349.498 206.462 349.38 206.304 349.257 206.145C349.173 206.03 349.087 205.917 348.996 205.804C348.932 205.721 348.867 205.635 348.797 205.552C348.714 205.442 348.625 205.332 348.537 205.224C348.414 205.069 348.287 204.916 348.158 204.762C348.118 204.714 348.078 204.666 348.035 204.617C347.912 204.47 347.785 204.322 347.654 204.174C347.594 204.102 347.53 204.032 347.466 203.96C347.329 203.804 347.189 203.648 347.049 203.495C346.891 203.323 346.73 203.151 346.569 202.979C346.373 202.773 346.177 202.571 345.975 202.37C345.83 202.222 345.685 202.08 345.538 201.935C345.009 201.416 344.464 200.912 343.905 200.423C343.72 200.259 343.534 200.098 343.344 199.94C343.123 199.752 342.898 199.564 342.672 199.381C342.648 199.36 342.624 199.338 342.597 199.319C342.382 199.145 342.162 198.97 341.942 198.798C341.711 198.618 341.48 198.441 341.244 198.264C341.222 198.248 341.203 198.232 341.182 198.218C340.991 198.076 340.798 197.934 340.605 197.794C340.527 197.735 340.452 197.681 340.374 197.627C340.164 197.477 339.955 197.329 339.743 197.184C339.555 197.053 339.364 196.924 339.173 196.798C339.063 196.72 338.953 196.647 338.84 196.575C338.634 196.438 338.424 196.304 338.215 196.169C337.957 196.006 337.696 195.842 337.433 195.683C336.909 195.361 336.378 195.049 335.838 194.743C335.263 194.418 334.681 194.104 334.09 193.801C333.851 193.677 333.612 193.554 333.373 193.436C333.094 193.296 332.814 193.159 332.532 193.025C332.256 192.891 331.976 192.759 331.697 192.63C331.686 192.624 331.676 192.619 331.665 192.616C331.386 192.487 331.106 192.364 330.827 192.24C330.58 192.13 330.333 192.023 330.083 191.918C330.043 191.9 330.003 191.883 329.962 191.867C329.823 191.808 329.683 191.749 329.543 191.693C329.358 191.615 329.173 191.539 328.985 191.464C328.692 191.346 328.397 191.231 328.099 191.118C327.889 191.038 327.68 190.959 327.47 190.882C327.261 190.804 327.052 190.726 326.839 190.651C326.63 190.575 326.418 190.5 326.205 190.428C325.993 190.353 325.781 190.28 325.569 190.21C325.357 190.141 325.145 190.071 324.93 190.001C324.739 189.939 324.551 189.88 324.361 189.818C324.31 189.802 324.261 189.786 324.21 189.773C324.041 189.719 323.872 189.668 323.7 189.617C323.289 189.494 322.878 189.373 322.465 189.257C322.258 189.198 322.048 189.142 321.842 189.086C321.417 188.968 320.993 188.857 320.569 188.753C320.367 188.704 320.169 188.656 319.967 188.608C319.551 188.506 319.132 188.411 318.713 188.32C318.504 188.274 318.292 188.229 318.082 188.186C317.873 188.14 317.663 188.1 317.451 188.057C317.241 188.014 317.032 187.973 316.82 187.933C316.607 187.893 316.398 187.853 316.188 187.818C315.979 187.78 315.767 187.743 315.557 187.708C315.345 187.673 315.136 187.638 314.923 187.603C313.548 187.383 312.173 187.206 310.801 187.074C310.546 187.05 310.294 187.026 310.039 187.007C309.982 186.999 309.923 186.993 309.864 186.991C309.62 186.969 309.375 186.951 309.131 186.935C308.935 186.921 308.736 186.908 308.54 186.897C308.398 186.886 308.255 186.878 308.113 186.87C307.565 186.84 307.017 186.816 306.472 186.8C306.268 186.795 306.064 186.79 305.863 186.784C305.524 186.779 305.189 186.773 304.853 186.773H304.652C304.117 186.773 303.588 186.781 303.062 186.798C303.022 186.8 302.979 186.8 302.938 186.803C302.675 186.811 302.415 186.822 302.152 186.835C301.829 186.851 301.51 186.87 301.193 186.891C300.992 186.905 300.787 186.921 300.586 186.937C299.713 187.007 298.849 187.101 297.995 187.219C297.761 187.251 297.527 187.283 297.294 187.321C297.125 187.345 296.956 187.372 296.786 187.401C296.7 187.415 296.614 187.428 296.528 187.445C296.335 187.477 296.142 187.512 295.948 187.549C295.809 187.571 295.669 187.598 295.529 187.627C295.414 187.649 295.298 187.67 295.183 187.694C295.032 187.727 294.885 187.756 294.737 187.788C294.291 187.882 293.848 187.984 293.408 188.089C293.405 188.092 293.405 188.092 293.402 188.092C292.962 188.201 292.522 188.314 292.086 188.438C291.909 188.486 291.732 188.537 291.558 188.588C291.482 188.607 291.41 188.629 291.34 188.653C291.155 188.707 290.972 188.763 290.79 188.822C290.575 188.889 290.36 188.959 290.148 189.029C289.936 189.099 289.723 189.171 289.511 189.246C289.339 189.303 289.17 189.362 289.001 189.426C288.832 189.488 288.663 189.553 288.496 189.614C288.327 189.679 288.161 189.743 287.994 189.808C286.823 190.267 285.677 190.777 284.557 191.338C284.237 191.497 283.921 191.66 283.607 191.83C283.459 191.907 283.314 191.988 283.169 192.066C283.139 192.079 283.11 192.095 283.08 192.114C282.793 192.275 282.506 192.436 282.221 192.603C282.21 192.605 282.2 192.611 282.189 192.619C282.057 192.7 281.923 192.777 281.791 192.855C281.754 192.877 281.716 192.898 281.679 192.925C281.544 193.006 281.413 193.086 281.279 193.169C280.972 193.355 280.671 193.548 280.371 193.747C280.073 193.94 279.775 194.141 279.479 194.345C279.329 194.445 279.181 194.55 279.033 194.657C278.886 194.762 278.738 194.866 278.593 194.974C278.115 195.32 277.642 195.677 277.178 196.048C277.073 196.131 276.971 196.214 276.866 196.298C276.482 196.606 276.104 196.923 275.728 197.248C275.602 197.356 275.475 197.466 275.352 197.579C275.301 197.621 275.247 197.667 275.196 197.715C275.107 197.793 275.019 197.871 274.933 197.952C274.001 198.79 273.096 199.679 272.221 200.61C272.065 200.774 271.909 200.941 271.759 201.107C271.383 201.515 271.012 201.934 270.647 202.359C270.475 202.557 270.309 202.759 270.14 202.96C270.137 202.963 270.137 202.963 270.135 202.966C269.963 203.175 269.791 203.385 269.619 203.597C269.455 203.801 269.291 204.005 269.133 204.212C268.953 204.44 268.776 204.671 268.599 204.905C268.437 205.117 268.279 205.332 268.12 205.549C267.822 205.952 267.53 206.363 267.242 206.779C267.162 206.897 267.079 207.016 266.998 207.134C266.88 207.308 266.762 207.483 266.644 207.66C266.485 207.896 266.329 208.133 266.176 208.374C265.865 208.855 265.559 209.344 265.258 209.841C265.108 210.088 264.957 210.337 264.809 210.59C264.675 210.818 264.544 211.046 264.412 211.277C264.393 211.307 264.374 211.339 264.358 211.371C264.248 211.564 264.138 211.758 264.031 211.954C263.955 212.088 263.88 212.222 263.808 212.359C263.706 212.539 263.609 212.725 263.51 212.907C270.5 219.314 278.94 223.404 285.932 224.277L286.161 224.288C286.031 225.047 285.915 225.695 285.808 226.258Z" fill="#FBB03B"/>
<path d="M285.808 226.259C285.87 226.269 285.929 226.28 285.99 226.291C296.726 228.12 307.664 228.974 317.828 225.448C321.201 224.277 324.466 222.599 326.99 220.069C328.594 218.463 329.872 216.483 330.574 214.337C330.879 215.992 331.166 217.652 331.603 219.276C332.288 221.822 332.978 224.373 333.765 226.891C333.818 227.258 333.872 227.627 333.927 228.002C333.929 228.026 333.932 228.047 333.937 228.071C334.262 230.351 334.576 232.779 334.941 235.464C334.893 235.472 334.845 235.48 334.794 235.488C334.797 235.526 334.802 235.561 334.807 235.598C319.769 238.015 298.287 239.358 283.786 233.45C284.914 229.946 285.249 229.17 285.808 226.259Z" fill="#F7931E"/>
<path d="M289.514 189.247C289.672 190.678 289.86 192.104 290.193 193.503C292.529 203.278 302.661 209.556 312.428 208.181C316.988 207.539 321.376 205.284 324.493 201.876C327.109 199.011 328.752 195.512 329.963 191.868C328.32 191.175 326.639 190.552 324.931 190.001C323.811 193.457 322.267 196.774 319.512 199.25C313.999 204.21 305.279 204.25 299.748 199.29C296.525 196.401 295.276 192.756 294.823 188.551C294.796 188.296 294.766 188.041 294.739 187.789C292.948 188.167 291.205 188.654 289.514 189.247Z" fill="white"/>
<path d="M333.705 227.258C333.39 227.258 333.082 227.1 332.905 226.813C332.631 226.371 332.768 225.792 333.21 225.519C337.306 222.985 340.266 220.92 342.808 218.826C346.287 215.971 348.89 213.102 350.749 210.069C350.681 209.951 350.612 209.835 350.542 209.718C350.417 209.507 350.288 209.298 350.156 209.092C349.895 208.675 349.612 208.249 349.289 207.783C349.165 207.606 349.04 207.427 348.909 207.253C348.893 207.232 348.878 207.21 348.864 207.188C348.743 207.02 348.632 206.872 348.516 206.723C348.509 206.714 348.502 206.705 348.495 206.695C348.422 206.594 348.347 206.495 348.267 206.396L348.205 206.317C348.164 206.263 348.123 206.209 348.079 206.156C348.068 206.144 348.059 206.132 348.049 206.119C347.973 206.02 347.893 205.92 347.813 205.823C347.684 205.66 347.563 205.514 347.44 205.368C347.403 205.324 347.369 205.282 347.333 205.241C347.197 205.08 347.077 204.94 346.952 204.799C346.943 204.789 346.934 204.778 346.925 204.767C346.889 204.723 346.85 204.68 346.811 204.637L346.764 204.584C346.627 204.428 346.492 204.277 346.356 204.128C346.222 203.983 346.082 203.834 345.943 203.686L345.883 203.622C345.7 203.431 345.508 203.232 345.312 203.035C345.164 202.882 345.025 202.746 344.886 202.611C344.365 202.101 343.829 201.605 343.287 201.13C343.104 200.969 342.922 200.812 342.739 200.659C342.517 200.466 342.3 200.288 342.082 200.112C342.071 200.103 342.06 200.093 342.048 200.083C342.042 200.078 342.05 200.083 342.06 200.09C342.039 200.076 342.019 200.06 342 200.044C341.793 199.874 341.582 199.706 341.37 199.543C341.137 199.359 340.915 199.188 340.686 199.02C340.681 199.016 340.661 199 340.651 198.993C340.638 198.984 340.626 198.975 340.614 198.966C340.432 198.828 340.247 198.692 340.062 198.561C340.054 198.555 340.045 198.548 340.037 198.542C339.971 198.492 339.908 198.447 339.841 198.401C339.621 198.24 339.422 198.1 339.22 197.965C339.026 197.829 338.844 197.704 338.663 197.586C338.652 197.579 338.642 197.572 338.631 197.564C338.533 197.495 338.434 197.43 338.333 197.365C338.122 197.226 337.919 197.093 337.716 196.965C337.457 196.798 337.205 196.641 336.95 196.488C336.455 196.181 335.945 195.881 335.378 195.562C334.815 195.244 334.238 194.933 333.661 194.636C333.422 194.508 333.193 194.393 332.961 194.28C332.679 194.134 332.408 194.003 332.136 193.876C331.853 193.736 331.586 193.613 331.319 193.49C331.302 193.483 331.285 193.476 331.269 193.468C331.001 193.343 330.731 193.221 330.458 193.104C330.205 192.991 329.964 192.887 329.721 192.785C329.709 192.78 329.697 192.775 329.686 192.769C329.662 192.758 329.639 192.749 329.615 192.74C329.609 192.737 329.586 192.727 329.58 192.725C329.451 192.671 329.322 192.616 329.192 192.564C329.001 192.483 328.82 192.41 328.637 192.337C328.348 192.22 328.059 192.107 327.767 191.997C327.561 191.916 327.361 191.839 327.158 191.767C326.932 191.681 326.731 191.609 326.527 191.536C326.311 191.457 326.108 191.387 325.903 191.317C325.688 191.24 325.482 191.17 325.277 191.103C325.061 191.029 324.853 190.962 324.648 190.896C324.447 190.829 324.267 190.772 324.084 190.716L324.045 190.703C324.021 190.695 323.997 190.687 323.972 190.681C323.957 190.676 323.942 190.672 323.927 190.668C323.768 190.617 323.609 190.566 323.447 190.521C322.986 190.379 322.591 190.264 322.219 190.163C322.002 190.098 321.803 190.045 321.607 189.994C321.201 189.881 320.794 189.775 320.345 189.664L320.18 189.623C320.041 189.589 319.901 189.554 319.761 189.523C319.337 189.419 318.925 189.327 318.515 189.237C318.302 189.188 318.101 189.147 317.897 189.106C317.681 189.059 317.477 189.017 317.275 188.979L317.209 188.965C317.023 188.928 316.839 188.89 316.655 188.857L316.589 188.845C316.403 188.809 316.22 188.775 316.036 188.744C315.827 188.704 315.638 188.673 315.452 188.641L315.405 188.634C315.191 188.596 314.985 188.562 314.783 188.531C313.416 188.312 312.049 188.136 310.714 188.008L310.665 188.004C310.434 187.982 310.204 187.96 309.972 187.943C309.951 187.942 309.93 187.94 309.909 187.937C309.882 187.933 309.853 187.93 309.824 187.929C309.811 187.928 309.798 187.927 309.784 187.926C309.547 187.906 309.309 187.887 309.071 187.871C308.877 187.858 308.683 187.845 308.491 187.835C308.341 187.824 308.211 187.816 308.08 187.809C307.48 187.776 306.951 187.754 306.447 187.739L305.84 187.723C305.517 187.718 305.186 187.713 304.855 187.713H304.654C304.135 187.713 303.615 187.72 303.106 187.736C303.083 187.737 303.059 187.738 303.035 187.739L303.006 187.74C302.996 187.741 302.979 187.741 302.969 187.742C302.712 187.749 302.458 187.76 302.201 187.773C301.884 187.789 301.57 187.807 301.259 187.829C301.06 187.842 300.86 187.858 300.664 187.874C299.81 187.942 298.956 188.035 298.126 188.149C297.899 188.181 297.672 188.212 297.445 188.249C297.269 188.274 297.109 188.299 296.95 188.327C296.857 188.342 296.781 188.353 296.705 188.368C296.5 188.402 296.315 188.435 296.13 188.471C296.118 188.474 296.105 188.476 296.093 188.478C295.971 188.496 295.849 188.52 295.727 188.546C295.595 188.571 295.486 188.591 295.378 188.614C295.228 188.643 295.092 188.67 294.956 188.702C294.547 188.787 294.134 188.88 293.668 188.993C293.654 188.997 293.64 189.001 293.626 189.004L293.627 189.004C293.206 189.106 292.775 189.22 292.346 189.341C292.161 189.392 291.998 189.437 291.837 189.486C291.821 189.491 291.805 189.495 291.789 189.499C291.741 189.511 291.694 189.525 291.65 189.54C291.635 189.546 291.62 189.55 291.605 189.555C291.429 189.606 291.256 189.659 291.082 189.715C290.859 189.783 290.656 189.849 290.455 189.917C290.232 189.987 290.036 190.054 289.842 190.126C289.83 190.131 289.819 190.134 289.808 190.138C289.65 190.19 289.494 190.244 289.339 190.304C289.159 190.367 289.004 190.423 288.851 190.485C288.842 190.489 288.832 190.493 288.822 190.496C288.666 190.553 288.513 190.61 288.361 190.674C287.197 191.128 286.068 191.63 284.983 192.177C284.667 192.333 284.36 192.493 284.055 192.656C283.898 192.736 283.763 192.812 283.628 192.887C283.606 192.899 283.585 192.91 283.562 192.92C283.545 192.93 283.551 192.929 283.533 192.938C283.253 193.091 282.979 193.247 282.704 193.41C282.683 193.422 282.662 193.434 282.641 193.445L282.561 193.492C282.469 193.546 282.376 193.6 282.285 193.656C282.277 193.661 282.268 193.666 282.26 193.671L282.223 193.693C282.198 193.71 282.178 193.723 282.152 193.738C282.033 193.807 281.912 193.879 281.795 193.956C281.786 193.962 281.777 193.968 281.767 193.973C281.506 194.132 281.228 194.309 280.891 194.531C280.595 194.721 280.313 194.91 280.02 195.115C279.862 195.221 279.725 195.318 279.589 195.417C279.431 195.526 279.292 195.627 279.155 195.729C278.661 196.086 278.197 196.439 277.766 196.782L277.681 196.85C277.611 196.905 277.542 196.959 277.474 197.016C277.096 197.321 276.721 197.634 276.345 197.959C276.221 198.065 276.103 198.167 275.987 198.273C275.978 198.281 275.969 198.289 275.96 198.297C275.922 198.329 275.882 198.362 275.845 198.398C275.832 198.41 275.819 198.421 275.806 198.432C275.729 198.498 275.655 198.565 275.578 198.637C274.666 199.458 273.773 200.333 272.908 201.254C272.754 201.416 272.603 201.576 272.458 201.737C272.106 202.121 271.749 202.522 271.362 202.972C271.236 203.118 271.114 203.263 270.993 203.409L270.862 203.565C270.856 203.571 270.85 203.578 270.844 203.585C270.68 203.785 270.515 203.986 270.351 204.188C270.194 204.383 270.035 204.582 269.881 204.783C269.696 205.017 269.522 205.243 269.349 205.472C269.191 205.68 269.037 205.89 268.882 206.102C268.595 206.49 268.305 206.895 268.018 207.312L267.775 207.664C267.661 207.833 267.544 208.006 267.427 208.181C267.272 208.413 267.12 208.642 266.972 208.877C266.665 209.35 266.361 209.835 266.063 210.327C265.915 210.571 265.767 210.816 265.622 211.064C265.489 211.29 265.36 211.515 265.23 211.742C265.223 211.755 265.215 211.768 265.207 211.781C265.2 211.795 265.185 211.822 265.177 211.835L265.157 211.871C265.056 212.048 264.955 212.225 264.857 212.405C264.798 212.511 264.743 212.609 264.69 212.705C271.23 218.523 279.167 222.485 286.051 223.344C286.566 223.408 286.931 223.878 286.867 224.393C286.803 224.908 286.336 225.274 285.818 225.209C278.37 224.279 269.793 219.939 262.876 213.6C262.558 213.308 262.48 212.836 262.687 212.457L262.787 212.271C262.855 212.145 262.922 212.019 262.992 211.895C263.054 211.778 263.131 211.64 263.208 211.502C263.312 211.313 263.418 211.127 263.523 210.942L263.534 210.923C263.557 210.879 263.582 210.836 263.607 210.795C263.738 210.566 263.868 210.339 264.002 210.113C264.151 209.858 264.304 209.603 264.457 209.352C264.764 208.846 265.078 208.344 265.39 207.863C265.542 207.623 265.702 207.379 265.865 207.136C265.983 206.959 266.102 206.783 266.222 206.607L266.469 206.249C266.77 205.811 267.072 205.389 267.367 204.99C267.525 204.773 267.687 204.554 267.852 204.337C268.033 204.098 268.214 203.862 268.397 203.63C268.552 203.428 268.72 203.218 268.888 203.008C269.064 202.791 269.237 202.581 269.41 202.369C269.419 202.358 269.429 202.347 269.44 202.335L269.551 202.203C269.679 202.049 269.808 201.896 269.939 201.744C270.338 201.28 270.709 200.863 271.07 200.47C271.219 200.305 271.38 200.133 271.542 199.963C272.439 199.008 273.371 198.095 274.307 197.253C274.388 197.177 274.479 197.095 274.572 197.014C274.626 196.965 274.681 196.917 274.735 196.871C274.862 196.756 274.992 196.643 275.121 196.533C275.509 196.198 275.9 195.871 276.28 195.565C276.347 195.508 276.432 195.441 276.518 195.374L276.596 195.312C277.048 194.952 277.535 194.582 278.044 194.213C278.189 194.106 278.346 193.992 278.502 193.884C278.642 193.782 278.801 193.669 278.963 193.562C279.256 193.356 279.557 193.154 279.865 192.956C280.207 192.73 280.502 192.543 280.78 192.374C280.911 192.289 281.045 192.208 281.178 192.13C281.224 192.1 281.269 192.073 281.315 192.047C281.412 191.987 281.51 191.929 281.608 191.872L281.692 191.823C281.725 191.801 281.759 191.782 281.795 191.765C282.065 191.605 282.335 191.452 282.611 191.301C282.654 191.275 282.697 191.251 282.74 191.23C282.887 191.149 283.034 191.068 283.183 190.992C283.488 190.828 283.813 190.659 284.143 190.496C285.275 189.926 286.459 189.399 287.655 188.932C287.81 188.867 287.985 188.802 288.163 188.737C288.338 188.666 288.516 188.601 288.694 188.539C288.847 188.48 289.024 188.419 289.204 188.359C289.423 188.278 289.645 188.202 289.87 188.132C290.07 188.063 290.296 187.99 290.522 187.922C290.688 187.868 290.872 187.811 291.059 187.756C291.139 187.729 291.222 187.705 291.307 187.683C291.48 187.63 291.655 187.582 291.83 187.534C292.27 187.409 292.711 187.293 293.141 187.188C293.157 187.184 293.172 187.18 293.188 187.176C293.69 187.053 294.136 186.952 294.551 186.867C294.682 186.836 294.842 186.804 295.004 186.772C295.115 186.748 295.237 186.726 295.359 186.703C295.488 186.675 295.638 186.647 295.789 186.623C295.985 186.585 296.18 186.55 296.376 186.518C296.452 186.503 296.547 186.488 296.643 186.473C296.806 186.445 296.984 186.416 297.164 186.391C297.387 186.354 297.628 186.321 297.868 186.288C298.734 186.168 299.624 186.072 300.513 186C300.719 185.984 300.927 185.968 301.133 185.954C301.454 185.932 301.779 185.913 302.107 185.896C302.371 185.883 302.633 185.872 302.898 185.864C302.922 185.863 302.948 185.862 302.973 185.861L303.002 185.86C303.011 185.859 303.026 185.858 303.035 185.858C303.567 185.842 304.112 185.833 304.654 185.833H304.855C305.196 185.833 305.537 185.839 305.88 185.844L306.499 185.86C307.021 185.876 307.566 185.899 308.166 185.931C308.329 185.941 308.471 185.949 308.613 185.96C308.794 185.969 308.997 185.983 309.198 185.997C309.44 186.013 309.685 186.031 309.931 186.053C310.001 186.056 310.071 186.063 310.139 186.071C310.374 186.089 310.607 186.111 310.842 186.133L310.892 186.138C312.268 186.27 313.674 186.451 315.074 186.675C315.285 186.707 315.504 186.744 315.723 186.782L315.76 186.788C315.962 186.822 316.166 186.856 316.368 186.895C316.542 186.924 316.739 186.961 316.939 186.999L316.996 187.01C317.185 187.044 317.383 187.084 317.582 187.124L317.639 187.135C317.847 187.176 318.067 187.22 318.284 187.268C318.49 187.309 318.708 187.354 318.926 187.404C319.341 187.495 319.768 187.591 320.192 187.694C320.328 187.725 320.478 187.762 320.629 187.799L320.792 187.839C321.262 187.955 321.687 188.066 322.094 188.18C322.296 188.232 322.517 188.292 322.734 188.357C323.104 188.457 323.518 188.578 323.976 188.719C324.131 188.762 324.303 188.816 324.476 188.871C324.523 188.884 324.569 188.899 324.616 188.914L324.644 188.922C324.837 188.982 325.033 189.044 325.232 189.111C325.433 189.174 325.654 189.246 325.873 189.321C326.082 189.39 326.3 189.464 326.519 189.542C326.729 189.613 326.944 189.688 327.163 189.768C327.373 189.843 327.591 189.921 327.808 190.005C328.006 190.074 328.224 190.158 328.44 190.242C328.736 190.354 329.038 190.472 329.337 190.593C329.527 190.669 329.717 190.746 329.907 190.826C330.034 190.877 330.172 190.936 330.31 190.994C330.361 191.014 330.411 191.035 330.461 191.058C330.713 191.164 330.961 191.272 331.209 191.382C331.476 191.496 331.751 191.62 332.024 191.748C332.057 191.761 332.084 191.773 332.102 191.782C332.393 191.916 332.672 192.046 332.949 192.183C333.222 192.31 333.514 192.452 333.802 192.6C334.037 192.714 334.286 192.84 334.532 192.972C335.117 193.272 335.716 193.595 336.3 193.925C336.888 194.256 337.421 194.57 337.928 194.885C338.188 195.041 338.457 195.208 338.724 195.38C338.93 195.509 339.145 195.65 339.359 195.791C339.468 195.862 339.583 195.938 339.699 196.019C339.894 196.146 340.089 196.28 340.281 196.415C340.488 196.553 340.708 196.708 340.928 196.869C340.993 196.913 341.074 196.972 341.16 197.036C341.351 197.171 341.542 197.312 341.73 197.455C341.754 197.471 341.777 197.489 341.801 197.507C342.046 197.688 342.285 197.872 342.524 198.061C342.736 198.224 342.958 198.399 343.175 198.578C343.211 198.605 343.245 198.634 343.279 198.663C343.507 198.848 343.736 199.036 343.958 199.229C344.142 199.384 344.336 199.55 344.527 199.719C345.092 200.213 345.654 200.734 346.195 201.263C346.345 201.409 346.501 201.562 346.652 201.718C346.845 201.911 347.046 202.119 347.246 202.328L347.314 202.4C347.457 202.553 347.599 202.705 347.74 202.858C347.887 203.019 348.03 203.179 348.171 203.339L348.209 203.381C348.263 203.442 348.317 203.503 348.368 203.564C348.502 203.714 348.63 203.864 348.756 204.015C348.787 204.049 348.833 204.105 348.88 204.16C349.012 204.317 349.144 204.477 349.273 204.64C349.354 204.739 349.446 204.852 349.533 204.967C349.589 205.034 349.642 205.103 349.694 205.171L349.738 205.228C349.826 205.336 349.918 205.457 350.008 205.582C350.135 205.746 350.258 205.91 350.377 206.076C350.391 206.095 350.409 206.12 350.428 206.147C350.565 206.33 350.697 206.519 350.829 206.708C351.171 207.2 351.47 207.65 351.744 208.087C351.883 208.305 352.023 208.531 352.157 208.758C352.327 209.042 352.495 209.329 352.658 209.622C352.82 209.913 352.816 210.267 352.648 210.554C350.659 213.955 347.83 217.135 344.001 220.277C341.392 222.427 338.368 224.536 334.197 227.117C334.044 227.213 333.873 227.258 333.705 227.258ZM340.672 199.008C340.675 199.009 340.678 199.011 340.681 199.013C340.678 199.011 340.675 199.009 340.672 199.008ZM331.281 193.473C331.282 193.473 331.282 193.473 331.283 193.473C331.282 193.473 331.282 193.473 331.281 193.473Z" fill="#1F404D"/>
<path d="M310.65 238.453C301.526 238.453 291.592 237.458 283.565 234.187C283.11 234.001 282.875 233.497 283.025 233.029L283.042 232.976C283.897 230.315 284.572 228.214 285.076 226.076C286.116 221.648 286.45 216.964 286.45 206.801C286.45 206.282 286.871 205.861 287.389 205.861C287.908 205.861 288.329 206.282 288.329 206.801C288.329 217.129 287.983 221.917 286.905 226.506C286.435 228.499 285.833 230.428 285.084 232.765C301.483 239.028 325.644 235.996 333.887 234.684C333.802 234.052 333.719 233.435 333.638 232.83C333.422 231.216 333.218 229.691 333.01 228.23C333.003 228.19 332.997 228.152 332.992 228.11L332.936 227.727C332.874 227.298 332.813 226.875 332.75 226.456C331.96 221.252 331.146 217.554 329.941 213.693C328.799 210.043 327.318 206.314 325.279 201.958C325.059 201.488 325.262 200.928 325.732 200.708C326.202 200.488 326.762 200.69 326.982 201.161C329.057 205.595 330.568 209.399 331.735 213.132C332.971 217.091 333.804 220.869 334.609 226.174C334.673 226.597 334.735 227.024 334.797 227.457L334.857 227.866C334.857 227.87 334.859 227.884 334.86 227.894C334.863 227.909 334.866 227.924 334.868 227.939C335.078 229.416 335.284 230.953 335.502 232.58C335.621 233.47 335.744 234.388 335.873 235.338C335.941 235.841 335.598 236.308 335.097 236.391L334.942 236.417C330.822 237.099 321.286 238.453 310.65 238.453ZM334.855 227.869C334.855 227.87 334.855 227.87 334.855 227.87C334.855 227.87 334.855 227.87 334.855 227.869Z" fill="#1F404D"/>
<path d="M300.295 188.548C300.244 189.749 300.293 190.948 300.493 192.142C301.1 195.757 303.438 199.331 306.981 200.278C311.011 201.357 315.283 198.671 317.4 195.075C318.141 193.816 318.678 192.47 319.08 191.075C319.828 188.485 320.115 185.723 320.381 183.025C314.111 182.731 307.455 183.076 301.447 181.252C300.925 183.654 300.401 186.104 300.295 188.548Z" fill="#F6E2D7"/>
<g opacity="0.5">
<path d="M300.295 188.547C302.209 190.177 304.724 191.49 307.695 192.129C311.739 193.001 315.814 192.443 319.079 191.075C319.828 188.485 320.115 185.723 320.38 183.025C314.11 182.731 307.454 183.076 301.446 181.252C300.924 183.654 300.401 186.104 300.295 188.547Z" fill="#E2B8A3"/>
</g>
<path d="M308.832 201.552C308.131 201.552 307.423 201.464 306.715 201.274C303.068 200.299 300.227 196.782 299.477 192.313C299.276 191.115 299.207 189.87 299.266 188.504C299.378 185.917 299.942 183.323 300.44 181.034C300.501 180.753 300.677 180.51 300.925 180.365C301.173 180.219 301.471 180.184 301.746 180.267C306.244 181.632 311.23 181.748 316.051 181.86C317.492 181.894 318.982 181.928 320.429 181.996C320.711 182.009 320.975 182.138 321.16 182.352C321.345 182.565 321.434 182.846 321.406 183.127C321.153 185.693 320.867 188.603 320.07 191.362C319.611 192.956 319.028 194.342 318.288 195.599C316.408 198.793 312.749 201.552 308.832 201.552ZM302.223 182.542C301.812 184.47 301.413 186.564 301.325 188.592C301.273 189.812 301.333 190.918 301.509 191.972C302.015 194.982 303.985 198.411 307.247 199.283C310.923 200.267 314.69 197.648 316.511 194.552C317.163 193.446 317.678 192.216 318.089 190.79C318.728 188.582 319.022 186.204 319.246 184.01C318.167 183.971 317.071 183.945 316.003 183.921C311.414 183.814 306.681 183.704 302.223 182.542Z" fill="#1F404D"/>
<path d="M264.308 109.479C262.672 106.13 259.587 103.521 256.012 102.466C252.438 101.411 248.43 101.926 245.239 103.85C240.443 106.742 237.89 112.399 237.247 117.962C236.47 124.683 238.142 131.66 241.879 137.298C245.616 142.937 251.391 147.194 257.883 149.097C262.646 148.84 266.5 145.728 268.565 141.428C270.629 137.127 270.872 132.162 270.39 127.416C269.773 121.332 266.991 114.974 264.308 109.479Z" fill="#F6E2D7"/>
<path d="M257.883 150.127C257.785 150.127 257.687 150.113 257.593 150.085C250.909 148.126 244.868 143.673 241.02 137.867C237.172 132.061 235.423 124.763 236.223 117.844C236.993 111.176 240.085 105.754 244.706 102.968C248.132 100.902 252.468 100.345 256.304 101.477C260.14 102.61 263.478 105.432 265.234 109.026C267.934 114.558 270.781 121.056 271.415 127.312C272.01 133.176 271.382 137.939 269.494 141.873C267.14 146.777 262.821 149.862 257.938 150.125C257.92 150.127 257.901 150.127 257.883 150.127ZM252.248 102.96C249.98 102.96 247.706 103.566 245.77 104.733C241.76 107.151 238.956 112.14 238.27 118.081C237.526 124.525 239.154 131.322 242.738 136.729C246.289 142.086 251.845 146.207 258.001 148.057C262.049 147.77 265.641 145.137 267.635 140.982C269.355 137.399 269.92 132.996 269.365 127.52C268.763 121.586 266.002 115.299 263.381 109.931C261.876 106.847 259.011 104.426 255.72 103.455C254.597 103.123 253.423 102.96 252.248 102.96Z" fill="#1F404D"/>
<path d="M272.123 138.732C272.51 138.682 272.892 138.54 273.236 138.302C274.383 137.507 274.668 135.933 273.873 134.786C267.942 126.231 259.19 119.856 249.228 116.837C247.894 116.432 246.482 117.186 246.078 118.522C245.673 119.857 246.427 121.268 247.763 121.673C256.638 124.363 264.435 130.043 269.72 137.665C270.277 138.468 271.215 138.849 272.123 138.732Z" fill="#1F404D"/>
<path d="M370.544 122.913C372.961 120.077 376.599 118.318 380.324 118.186C384.048 118.054 387.802 119.551 390.413 122.209C394.338 126.203 395.403 132.318 394.641 137.866C393.72 144.568 390.364 150.909 385.341 155.44C380.317 159.971 373.665 162.657 366.903 162.883C362.354 161.449 359.396 157.476 358.467 152.797C357.538 148.117 358.539 143.248 360.187 138.772C362.299 133.033 366.577 127.567 370.544 122.913Z" fill="#F6E2D7"/>
<path d="M366.904 163.914C366.799 163.914 366.694 163.898 366.594 163.866C361.931 162.396 358.515 158.333 357.457 152.997C356.607 148.717 357.184 143.947 359.22 138.416C361.393 132.515 365.767 126.93 369.76 122.245C372.354 119.201 376.29 117.298 380.288 117.157C384.291 117.017 388.346 118.634 391.149 121.487C394.931 125.335 396.576 131.357 395.662 138.007C394.714 144.907 391.204 151.541 386.031 156.206C380.859 160.871 373.9 163.68 366.938 163.914C366.927 163.914 366.915 163.914 366.904 163.914ZM371.329 123.582C367.454 128.128 363.215 133.531 361.155 139.128C359.253 144.293 358.705 148.699 359.479 152.596C360.376 157.117 363.199 160.562 367.048 161.847C373.471 161.588 379.878 158.98 384.651 154.675C389.468 150.331 392.737 144.153 393.62 137.726C394.434 131.802 392.96 126.272 389.679 122.932C387.273 120.484 383.795 119.098 380.36 119.217C376.931 119.338 373.555 120.97 371.329 123.582Z" fill="#1F404D"/>
<path d="M355.693 149.3C355.33 149.155 354.995 148.923 354.722 148.607C353.809 147.552 353.924 145.956 354.98 145.043C362.854 138.233 372.917 134.238 383.317 133.794C384.71 133.734 385.89 134.816 385.949 136.21C386.009 137.605 384.927 138.783 383.533 138.843C374.267 139.239 365.301 142.798 358.286 148.865C357.546 149.504 356.542 149.64 355.693 149.3Z" fill="#1F404D"/>
<path d="M251.755 149.098C253.46 163.986 263.688 174.655 276.973 180.686C284.113 183.925 291.764 185.874 299.428 187.542C320.194 192.056 353.003 196.556 365.971 174.502C371.755 164.665 373.726 153.132 373.315 141.784C373.264 140.299 373.17 138.816 373.038 137.339C372.907 135.878 372.74 134.428 372.539 132.986C370.015 114.906 362.734 96.1352 349.23 83.8685C344.26 79.3546 338.446 75.724 331.716 73.3259C328.846 72.3082 325.884 71.559 322.879 71.0808C314.208 69.6979 305.174 70.5571 296.909 73.5217C296.882 73.5298 296.855 73.5404 296.828 73.5484C294.269 74.4722 291.785 75.5948 289.409 76.9212C289.39 76.9292 289.371 76.9398 289.352 76.9533C288.477 77.4366 287.62 77.9524 286.774 78.4948C278.477 83.8251 271.943 91.2207 266.736 99.5292C264.693 102.789 262.786 106.141 261.043 109.575C259.424 112.765 257.899 116.087 256.564 119.5C255.783 121.498 255.063 123.528 254.43 125.582C252.064 133.226 250.85 141.198 251.755 149.098Z" fill="#F6E2D7"/>
<path d="M254.429 125.583C265.249 123.013 275.23 115.405 280.029 105.448C281.589 109.97 286.202 113.257 290.988 113.252C295.773 113.249 300.145 108.853 301.697 104.325C303.117 109.395 307.454 113.536 312.586 114.72C317.715 115.905 323.26 113.297 326.759 109.361C327.836 112.067 329.761 114.479 332.315 115.878C334.869 117.277 338.059 117.583 340.736 116.434C343.411 115.287 345.726 112.572 345.852 109.664C350.097 123.518 360.377 135.328 373.315 141.784C373.264 140.299 373.17 138.816 373.038 137.339C372.907 135.878 372.74 134.428 372.539 132.986C370.015 114.906 362.734 96.1352 349.23 83.8685C344.259 79.3546 338.446 75.724 331.716 73.3259C328.846 72.3082 325.884 71.559 322.879 71.0808C314.208 69.6979 305.174 70.5571 296.909 73.5217C296.882 73.5298 296.855 73.5404 296.828 73.5484C294.269 74.4722 291.785 75.5948 289.409 76.9212C289.39 76.9292 289.371 76.9398 289.352 76.9533C288.477 77.4366 287.62 77.9524 286.774 78.4948C278.477 83.8251 271.943 91.2207 266.736 99.5292C264.693 102.789 262.786 106.141 261.043 109.575C259.424 112.765 257.899 116.087 256.564 119.5C255.783 121.498 255.063 123.528 254.429 125.583Z" fill="#EFCAB9"/>
<path d="M328.94 192.29C317.891 192.29 306.963 190.234 299.208 188.549C291.827 186.943 283.974 184.993 276.546 181.623C261.511 174.798 252.343 163.288 250.732 149.214C249.692 140.156 251.331 130.033 255.604 119.124C256.855 115.924 258.376 112.554 260.124 109.108C261.838 105.731 263.768 102.323 265.862 98.9807C271.627 89.7841 278.475 82.6004 286.217 77.6285C287.091 77.0679 287.968 76.5427 288.825 76.0669C288.859 76.0456 288.894 76.0261 288.929 76.0083C291.317 74.6776 293.858 73.524 296.48 72.5798C296.506 72.5698 296.542 72.5566 296.58 72.5442C305.047 69.5104 314.198 68.6532 323.042 70.0634C326.121 70.5513 329.156 71.3226 332.062 72.3556C338.636 74.6965 344.644 78.3131 349.921 83.1047C362.252 94.3052 370.646 111.969 373.559 132.843C373.759 134.275 373.929 135.756 374.063 137.245C375.359 151.742 372.868 164.805 366.859 175.024C360.978 185.025 350.499 190.741 335.711 192.012C333.467 192.204 331.2 192.29 328.94 192.29ZM289.89 77.8318C289.878 77.8392 289.866 77.8467 289.853 77.8536C289.025 78.3125 288.177 78.8202 287.33 79.3629C279.846 84.1692 273.211 91.1377 267.608 100.075C265.547 103.365 263.648 106.717 261.963 110.04C260.245 113.427 258.751 116.735 257.524 119.875C253.375 130.468 251.779 140.26 252.78 148.979C254.306 162.305 263.049 173.232 277.398 179.746C284.65 183.036 292.377 184.953 299.646 186.534C308.857 188.536 322.598 191.069 335.535 189.957C349.619 188.747 359.56 183.371 365.082 173.979C370.872 164.133 373.268 151.494 372.011 137.429C371.88 135.974 371.714 134.527 371.518 133.128C368.672 112.73 360.51 95.5069 348.536 84.6301C343.462 80.0228 337.687 76.5461 331.372 74.2971C328.585 73.3067 325.674 72.5672 322.719 72.0988C314.208 70.7411 305.404 71.5682 297.257 74.4909C297.24 74.4972 297.222 74.503 297.203 74.5084C294.653 75.4282 292.208 76.5392 289.91 77.8211C289.903 77.8249 289.897 77.8286 289.89 77.8318ZM289.836 77.8588C289.835 77.8588 289.835 77.859 289.834 77.8596C289.835 77.8593 289.835 77.8588 289.836 77.8588Z" fill="#1F404D"/>
<path d="M358.132 174.747C362.919 169.96 362.919 162.199 358.132 157.412C353.346 152.625 345.584 152.625 340.797 157.412C336.01 162.199 336.01 169.96 340.797 174.747C345.584 179.534 353.346 179.534 358.132 174.747Z" fill="#F9CCC5"/>
<path d="M308.174 148.886C308.083 149.868 310.741 150.919 314.111 151.231C317.482 151.544 320.288 151 320.379 150.017C320.47 149.034 317.812 147.984 314.442 147.671C311.071 147.359 308.265 147.902 308.174 148.886Z" fill="#F9CCC5"/>
<path d="M287.353 166.39C292.14 161.603 292.14 153.842 287.353 149.055C282.566 144.268 274.805 144.268 270.018 149.055C265.231 153.842 265.231 161.603 270.018 166.39C274.805 171.177 282.566 171.177 287.353 166.39Z" fill="#F9CCC5"/>
<path d="M342.588 143.634C343.053 138.621 340.641 134.298 337.2 133.979C333.759 133.66 330.593 137.466 330.129 142.479C329.664 147.492 332.076 151.815 335.517 152.134C338.958 152.453 342.123 148.647 342.588 143.634Z" fill="#1F404D"/>
<path d="M337.521 140.29C337.695 138.836 338.482 137.666 339.391 137.75C340.238 137.829 340.936 139.141 340.762 140.59C340.587 142.044 339.8 143.214 338.892 143.13C338.044 143.051 337.347 141.739 337.521 140.29Z" fill="white"/>
<path d="M344.322 127.066C344.655 127.06 344.986 126.924 345.231 126.661C345.713 126.146 345.686 125.338 345.171 124.857C342.165 122.046 337.574 121.17 333.745 122.678C333.088 122.936 332.766 123.678 333.024 124.334C333.283 124.99 334.026 125.312 334.68 125.054C337.565 123.919 341.162 124.604 343.426 126.722C343.679 126.958 344.002 127.072 344.322 127.066Z" fill="#1F404D"/>
<path d="M302.711 139.422C303.175 134.409 300.763 130.086 297.322 129.767C293.882 129.448 290.716 133.254 290.251 138.267C289.786 143.281 292.199 147.603 295.639 147.922C299.08 148.241 302.246 144.435 302.711 139.422Z" fill="#1F404D"/>
<path d="M295.863 135.915C295.959 134.454 295.4 133.159 294.492 133.075C293.644 132.996 292.718 134.158 292.622 135.614C292.527 137.075 293.085 138.37 293.993 138.454C294.841 138.533 295.768 137.371 295.863 135.915Z" fill="white"/>
<path d="M301.484 121.594C301.901 121.586 302.306 121.375 302.544 120.995C302.918 120.397 302.737 119.609 302.14 119.235C298.652 117.05 293.978 117.067 290.507 119.276C289.912 119.655 289.737 120.444 290.116 121.039C290.495 121.634 291.285 121.808 291.879 121.43C294.495 119.765 298.156 119.752 300.783 121.399C301.001 121.535 301.245 121.598 301.484 121.594Z" fill="#1F404D"/>
<path d="M291.876 150.989C291.33 156.198 292.557 161.203 295.086 165.384C298.619 171.235 304.7 175.47 312.006 176.394C319.885 177.391 327.337 174.304 332.241 168.783C335.139 165.524 337.143 161.416 337.828 156.8L291.876 150.989Z" fill="#96312C"/>
<path d="M295.085 165.384C298.619 171.235 304.699 175.47 312.006 176.394C319.885 177.39 327.337 174.304 332.241 168.783C326.648 165.779 320.641 163.619 314.36 162.837C307.871 162.029 301.07 162.831 295.085 165.384Z" fill="#EA978F"/>
<path d="M294.153 151.276C296.324 153.898 299.13 156.057 302.179 157.587C307.985 160.5 314.606 161.396 321.104 161.532C324.665 161.608 328.332 161.449 331.593 160.011C333.317 159.249 334.91 158.058 336.073 156.578L294.153 151.276Z" fill="white"/>
<path d="M314.98 177.257C313.965 177.257 312.944 177.193 311.922 177.064C305.636 176.269 300.01 173.095 296.081 168.127C292.158 163.167 290.361 156.974 291.023 150.689C291.048 150.453 291.167 150.237 291.353 150.089C291.539 149.942 291.777 149.876 292.012 149.905L337.965 155.716C338.2 155.746 338.414 155.87 338.557 156.059C338.701 156.248 338.762 156.487 338.728 156.722C337.804 162.974 334.523 168.524 329.488 172.352C325.266 175.562 320.204 177.257 314.98 177.257ZM292.704 151.774C291.958 163.385 300.506 173.84 312.143 175.311C323.779 176.785 334.661 168.785 336.83 157.354L292.704 151.774Z" fill="#1F404D"/>
<path d="M246.725 101.82C247.058 106.146 249.389 117.559 252.581 118.885C258.395 121.299 278.463 97.3407 279.419 91.602C279.881 94.9049 280.369 98.2912 281.892 101.21C283.415 104.132 286.213 106.543 289.4 106.554C292.609 106.567 295.491 104.151 297.097 101.213C298.7 98.2777 300.502 93.4654 301.044 90.1409C301.065 93.103 301.173 96.097 301.925 98.9436C302.674 101.787 304.129 104.508 306.406 106.229C309.414 108.501 313.732 108.694 316.962 106.699C319.863 104.911 322.604 100.525 322.849 96.8384C322.878 98.4497 324.498 101.535 325.797 103.211C327.328 105.187 329.017 106.895 330.575 108.058C332.132 109.223 334.356 109.521 336.004 108.461C337.736 107.344 338.448 105.123 339.031 103.082C339.611 101.055 340.137 98.5545 340.717 96.5268C346.963 113.638 366.169 135.314 370.092 135.526C374.22 135.752 378.653 126.517 380.673 120.805C381.76 117.733 383.707 109.8 383.079 100.275C382.375 89.6441 378.46 77.0311 366.556 66.9746C342.672 46.8049 298.364 40.2851 272.214 55.178C260.135 62.0552 252.176 73.2718 248.663 84.9665C246.966 90.6193 246.309 96.3821 246.725 101.82Z" fill="#EF9289"/>
<path d="M248.664 84.9668C250.909 89.7466 253.838 94.1749 257.447 97.9101C267.402 93.1891 275.705 85.7642 281.21 76.2178C282.112 78.4467 283.098 80.6783 284.594 82.5606C286.087 84.443 288.163 85.9684 290.536 86.3497C293.278 86.7874 296.106 85.6301 298.165 83.769C299.623 82.4535 300.754 80.6435 301.67 78.791C303.098 83.2366 305.763 87.4433 310.534 88.6028C314.209 89.4962 318.221 88.6287 321.046 86.0893C322.556 84.7313 323.641 82.9762 324.346 81.0685C325.55 83.8285 327.346 86.224 330.115 87.6187C333.571 89.3589 337.702 89.1427 340.739 86.674C341.752 85.8509 342.552 84.8513 343.178 83.7478C349.646 95.8491 360.362 105.549 373.116 110.652C376.994 107.79 380.364 104.256 383.079 100.276C383.707 109.801 381.76 117.734 380.673 120.806C378.653 126.517 374.22 135.752 370.092 135.527C366.169 135.314 346.963 113.639 340.717 96.5274C340.137 98.5548 339.611 101.055 339.031 103.082C338.448 105.123 337.736 107.344 336.004 108.461C334.355 109.522 332.132 109.224 330.575 108.058C329.017 106.896 327.328 105.188 325.797 103.211C324.498 101.536 322.878 98.4502 322.849 96.839C322.604 100.526 319.863 104.911 316.962 106.7C313.732 108.695 309.414 108.501 306.406 106.229C304.129 104.508 302.674 101.788 301.925 98.9441C301.173 96.0978 301.065 93.1035 301.044 90.1414C300.501 93.4659 298.7 98.2782 297.097 101.213C295.491 104.151 292.609 106.568 289.4 106.555C286.213 106.544 283.415 104.132 281.892 101.211C280.37 98.2917 279.881 94.9055 279.419 91.6025C278.463 97.3412 258.395 121.3 252.581 118.886C249.388 117.559 247.058 106.146 246.725 101.82C246.309 96.3821 246.966 90.6193 248.664 84.9668Z" fill="#E2726D"/>
<path d="M370.24 136.562C370.172 136.562 370.104 136.56 370.036 136.556C367.168 136.399 360.398 129.16 355.471 123.007C349.155 115.118 343.98 106.847 340.93 99.8256C340.912 99.9002 340.893 99.9749 340.875 100.049C340.601 101.172 340.318 102.333 340.022 103.367C339.361 105.681 338.549 108.047 336.562 109.327C334.63 110.571 331.976 110.394 329.958 108.884C328.324 107.663 326.557 105.873 324.984 103.844C324.369 103.052 323.607 101.847 322.984 100.586C321.846 103.433 319.771 106.178 317.504 107.577C313.932 109.782 309.113 109.565 305.785 107.051C302.907 104.878 301.555 101.585 300.927 99.2053C300.68 98.2683 300.501 97.314 300.37 96.3604C299.622 98.3972 298.759 100.321 298.001 101.708C296.446 104.552 293.379 107.585 289.427 107.585C289.417 107.585 289.408 107.585 289.398 107.585C285.45 107.57 282.46 104.528 280.978 101.687C279.94 99.6963 279.358 97.495 278.956 95.3289C274.949 102.509 263.954 115.161 257.233 118.887C255.119 120.058 253.468 120.369 252.186 119.837C248.171 118.17 245.964 105.371 245.698 101.899C245.035 93.2676 247.045 83.9245 251.357 75.5904C256.02 66.5755 263.056 59.2075 271.703 54.283C284.392 47.0562 301.676 44.4361 320.37 46.9057C338.465 49.2961 355.541 56.3241 367.22 66.1879C377.058 74.4969 382.693 85.3689 383.967 98.5018C385.157 110.771 382.009 120.122 381.646 121.148C380.726 123.745 375.901 136.561 370.24 136.562ZM340.717 95.4954C341.149 95.4954 341.537 95.7648 341.685 96.1726C348.075 113.679 367.191 134.337 370.148 134.498C373.061 134.657 377.252 127.385 379.702 120.461C380.049 119.479 383.063 110.528 381.915 98.701C380.694 86.1219 375.303 75.7128 365.89 67.7627C341.498 47.1619 297.962 41.7003 272.723 56.074C253.876 66.8076 246.602 86.7444 247.753 101.741C248.133 106.7 250.601 116.947 252.976 117.933C253.344 118.086 254.258 118.179 256.234 117.084C264.072 112.739 277.692 95.701 278.402 91.4318C278.486 90.9298 278.91 90.5643 279.432 90.5703C279.941 90.5769 280.369 90.954 280.44 91.4579C280.885 94.6428 281.346 97.936 282.806 100.734C284.318 103.634 286.909 105.514 289.405 105.524C289.411 105.524 289.418 105.524 289.424 105.524C291.941 105.524 294.595 103.64 296.192 100.72C297.651 98.0503 299.484 93.3012 300.026 89.9747C300.112 89.4466 300.586 89.0742 301.122 89.113C301.656 89.154 302.07 89.5971 302.074 90.1327C302.095 92.7929 302.179 95.8667 302.92 98.6798C303.69 101.599 305.148 103.988 307.027 105.407C309.692 107.42 313.555 107.591 316.421 105.823C319.132 104.15 321.605 100.004 321.821 96.7693C321.857 96.2179 322.323 95.797 322.874 95.8073C323.426 95.8208 323.87 96.2673 323.88 96.8195C323.902 98.1083 325.367 100.975 326.612 102.581C328.076 104.467 329.702 106.12 331.192 107.234C332.503 108.214 334.252 108.362 335.445 107.594C336.832 106.701 337.464 104.817 338.04 102.8C338.324 101.804 338.603 100.664 338.873 99.5599C339.147 98.4374 339.43 97.2764 339.726 96.2426C339.849 95.8133 340.234 95.5118 340.68 95.4957C340.693 95.4957 340.705 95.4954 340.717 95.4954Z" fill="#1F404D"/>
<path d="M21 1H237.288C248.174 1 257 9.82552 257 20.7124V140.892C257 142.221 257.653 143.465 258.747 144.22C262.832 147.039 259.224 153.318 254.731 151.208L238.405 143.54C237.669 143.194 236.866 143.014 236.053 143.014H21C9.9543 143.014 1 134.06 1 123.014V21C1 9.95431 9.9543 1 21 1Z" fill="#EBF3FF" stroke="#EB9F4A" stroke-width="2"/>
<path d="M35.8846 19.192L35.9806 19.384V23.8C35.9806 25.864 37.1006 27.272 39.3406 28.024C39.6766 28.088 39.9966 28.12 40.3006 28.12H41.8366V28.024C41.3246 27.016 41.0686 26.024 41.0686 25.048C41.0686 22.328 42.5406 20.44 45.4846 19.384C46.0286 19.256 46.5086 19.192 46.9246 19.192C49.5486 19.192 51.4046 20.664 52.4926 23.608C52.6206 24.28 52.6846 24.792 52.6846 25.144C52.6846 25.944 52.4286 26.936 51.9166 28.12H54.5086C54.6366 28.136 54.7006 28.2 54.7006 28.312V30.808C54.7006 30.936 54.6366 31 54.5086 31H40.5886C36.8766 31 34.4446 29.112 33.2926 25.336C33.1646 24.824 33.1006 24.28 33.1006 23.704V22.456C33.1006 21.272 34.0286 20.184 35.8846 19.192ZM43.9486 25.144C44.2046 27.064 45.1646 28.024 46.8286 28.024H46.9246C48.6206 28.024 49.5806 27.032 49.8046 25.048C49.5486 23.128 48.5886 22.168 46.9246 22.168H46.5406C45.2446 22.168 44.3806 23.064 43.9486 24.856V25.144ZM48.7726 15.376C49.1406 15.376 49.4846 15.512 49.8046 15.784C50.0926 16.056 50.2366 16.376 50.2366 16.744C50.2366 17.16 50.0926 17.496 49.8046 17.752C49.5006 18.04 49.1566 18.184 48.7726 18.184C48.3406 18.184 47.9966 18.04 47.7406 17.752C47.4526 17.496 47.3086 17.16 47.3086 16.744C47.3086 16.376 47.4526 16.032 47.7406 15.712C48.0446 15.488 48.3886 15.376 48.7726 15.376ZM44.2126 15.376C44.5806 15.376 44.9246 15.512 45.2446 15.784C45.5326 16.056 45.6766 16.376 45.6766 16.744C45.6766 17.16 45.5326 17.496 45.2446 17.752C44.9406 18.04 44.5966 18.184 44.2126 18.184C43.7806 18.184 43.4366 18.04 43.1806 17.752C42.8926 17.496 42.7486 17.16 42.7486 16.744C42.7486 16.376 42.8926 16.032 43.1806 15.712C43.4846 15.488 43.8286 15.376 44.2126 15.376ZM60.5068 19.288L60.6028 19.48V25.432C60.6028 26.424 60.4108 27.32 60.0268 28.12H62.3788C62.5068 28.136 62.5708 28.2 62.5708 28.312V30.808C62.5708 30.936 62.5068 31 62.3788 31H53.9307C53.8027 31 53.7387 30.936 53.7387 30.808V28.312C53.7547 28.184 53.8187 28.12 53.9307 28.12H55.4188C56.9548 27.832 57.7228 27.064 57.7228 25.816V22.552C57.7228 21.368 58.6508 20.28 60.5068 19.288ZM59.9068 31.912C60.2748 31.912 60.6188 32.048 60.9388 32.32C61.2268 32.592 61.3708 32.912 61.3708 33.28C61.3708 33.696 61.2268 34.032 60.9388 34.288C60.6348 34.576 60.2908 34.72 59.9068 34.72C59.4748 34.72 59.1308 34.576 58.8748 34.288C58.5868 34.032 58.4428 33.696 58.4428 33.28C58.4428 32.912 58.5868 32.568 58.8748 32.248C59.1788 32.024 59.5228 31.912 59.9068 31.912ZM56.0668 31.912C56.4348 31.912 56.7788 32.048 57.0988 32.32C57.3868 32.592 57.5308 32.912 57.5308 33.28C57.5308 33.696 57.3868 34.032 57.0988 34.288C56.7948 34.576 56.4508 34.72 56.0668 34.72C55.6348 34.72 55.2908 34.576 55.0348 34.288C54.7468 34.032 54.6028 33.696 54.6028 33.28C54.6028 32.912 54.7468 32.568 55.0348 32.248C55.3388 32.024 55.6828 31.912 56.0668 31.912ZM68.3818 19.288L68.4778 19.48V25.432C68.4778 26.424 68.2858 27.32 67.9018 28.12H70.2538C70.3818 28.136 70.4458 28.2 70.4458 28.312V30.808C70.4458 30.936 70.3818 31 70.2538 31H61.8057C61.6777 31 61.6137 30.936 61.6137 30.808V28.312C61.6297 28.184 61.6937 28.12 61.8057 28.12H63.2938C64.8298 27.832 65.5978 27.064 65.5978 25.816V22.552C65.5978 21.368 66.5258 20.28 68.3818 19.288ZM66.3418 31.912C66.7098 31.912 67.0538 32.048 67.3738 32.32C67.6618 32.592 67.8058 32.912 67.8058 33.28C67.8058 33.696 67.6618 34.032 67.3738 34.288C67.0698 34.576 66.7258 34.72 66.3418 34.72C65.9098 34.72 65.5658 34.576 65.3098 34.288C65.0218 34.032 64.8778 33.696 64.8778 33.28C64.8778 32.912 65.0218 32.568 65.3098 32.248C65.6138 32.024 65.9578 31.912 66.3418 31.912ZM74.9608 14.392L75.0568 14.584V22.36C76.7528 20.568 78.8008 19.672 81.2008 19.672H81.6808C84.8168 19.672 87.0248 21.432 88.3048 24.952C88.5608 25.896 88.6888 26.952 88.6888 28.12H91.2808C91.4088 28.136 91.4728 28.2 91.4728 28.312V30.808C91.4728 30.936 91.4088 31 91.2808 31H69.6807C69.5527 31 69.4887 30.936 69.4887 30.808V28.312C69.5047 28.184 69.5687 28.12 69.6807 28.12H72.1768V17.656C72.1768 16.472 73.1048 15.384 74.9608 14.392ZM75.0568 28.12H85.5208C85.5208 25.448 84.7848 23.72 83.3128 22.936C82.6088 22.616 81.9688 22.456 81.3928 22.456C79.2808 22.456 77.8408 23.064 77.0728 24.28C76.1928 25.176 75.5208 26.456 75.0568 28.12ZM96.5842 15.376C96.9522 15.376 97.2962 15.512 97.6162 15.784C97.9042 16.056 98.0482 16.376 98.0482 16.744C98.0482 17.16 97.9042 17.496 97.6162 17.752C97.3122 18.04 96.9682 18.184 96.5842 18.184C96.1522 18.184 95.8082 18.04 95.5522 17.752C95.2642 17.496 95.1202 17.16 95.1202 16.744C95.1202 16.376 95.2642 16.032 95.5522 15.712C95.8562 15.488 96.2002 15.376 96.5842 15.376ZM96.7522 19.192L96.8482 19.384V25.432C96.8482 28.248 95.4402 30.072 92.6242 30.904C92.0802 30.968 91.6322 31 91.2802 31H90.7042C90.5762 31 90.5122 30.936 90.5122 30.808V28.312C90.5282 28.184 90.5922 28.12 90.7042 28.12H91.6642C93.2002 27.832 93.9682 27.064 93.9682 25.816V22.456C93.9682 21.272 94.8962 20.184 96.7522 19.192ZM92.7442 15.376C93.1122 15.376 93.4562 15.512 93.7762 15.784C94.0642 16.056 94.2082 16.376 94.2082 16.744C94.2082 17.16 94.0642 17.496 93.7762 17.752C93.4722 18.04 93.1282 18.184 92.7442 18.184C92.3122 18.184 91.9682 18.04 91.7122 17.752C91.4242 17.496 91.2802 17.16 91.2802 16.744C91.2802 16.376 91.4242 16.032 91.7122 15.712C92.0162 15.488 92.3602 15.376 92.7442 15.376ZM116.561 15.376C116.929 15.376 117.273 15.512 117.593 15.784C117.881 16.056 118.025 16.376 118.025 16.744C118.025 17.16 117.881 17.496 117.593 17.752C117.289 18.04 116.945 18.184 116.561 18.184C116.129 18.184 115.785 18.04 115.529 17.752C115.241 17.496 115.097 17.16 115.097 16.744C115.097 16.376 115.241 16.032 115.529 15.712C115.833 15.488 116.177 15.376 116.561 15.376ZM112.001 15.376C112.369 15.376 112.713 15.512 113.033 15.784C113.321 16.056 113.465 16.376 113.465 16.744C113.465 17.16 113.321 17.496 113.033 17.752C112.729 18.04 112.385 18.184 112.001 18.184C111.569 18.184 111.225 18.04 110.969 17.752C110.681 17.496 110.537 17.16 110.537 16.744C110.537 16.376 110.681 16.032 110.969 15.712C111.273 15.488 111.617 15.376 112.001 15.376ZM120.761 19.192L120.857 19.384V25.816C120.857 27.192 121.721 27.96 123.449 28.12C123.705 28.12 123.833 28.184 123.833 28.312V30.808C123.833 30.936 123.769 31 123.641 31H123.545C121.785 31 120.313 30.36 119.129 29.08C117.945 30.36 116.441 31 114.617 31C111.785 31 109.833 29.528 108.761 26.584C108.633 25.976 108.569 25.496 108.569 25.144C108.569 22.52 110.169 20.664 113.369 19.576C113.465 19.576 113.913 19.544 114.713 19.48C116.073 19.48 117.353 19.928 118.553 20.824C119.737 19.736 120.473 19.192 120.761 19.192ZM111.737 24.952V25.528C112.153 27.256 113.017 28.12 114.329 28.12H115.001C116.729 27.704 117.593 26.84 117.593 25.528V24.952C117.177 23.224 116.313 22.36 115.001 22.36H114.329C112.601 22.776 111.737 23.64 111.737 24.952ZM131.135 19.288C133.343 19.288 135.167 20.632 136.607 23.32L138.527 30.904L138.335 31H123.071C122.943 31 122.879 30.936 122.879 30.808V28.312C122.895 28.184 122.959 28.12 123.071 28.12H134.783V28.024C134.239 25.192 133.567 23.496 132.767 22.936C131.887 22.296 130.927 21.976 129.887 21.976C128.799 21.976 127.743 22.328 126.719 23.032H126.623L126.431 22.936C126.431 21.352 127.455 20.2 129.503 19.48C130.335 19.352 130.879 19.288 131.135 19.288ZM147.548 31H145.628C145.164 32.504 144.14 33.792 142.556 34.864C141.34 35.44 140.38 35.728 139.676 35.728L139.484 35.632C139.484 34.144 140.348 32.792 142.076 31.576C142.844 30.696 143.228 29.704 143.228 28.6V22.432C143.228 21.248 144.156 20.16 146.012 19.168L146.108 19.36V28.12H147.548V31ZM154.47 19.648C157.254 19.648 159.206 21.12 160.326 24.064C160.454 24.736 160.518 25.256 160.518 25.624C160.518 28.104 159.11 29.928 156.294 31.096C155.558 31.288 154.918 31.384 154.374 31.384C153.958 31.384 153.19 31.256 152.07 31H146.79C146.662 31 146.598 30.936 146.598 30.808V28.312C146.614 28.184 146.678 28.12 146.79 28.12H148.902C148.518 27 148.326 26.096 148.326 25.408C148.326 22.816 149.83 20.96 152.838 19.84C153.638 19.712 154.182 19.648 154.47 19.648ZM151.494 25.624C151.494 27.288 152.486 28.248 154.47 28.504C156.39 28.216 157.35 27.256 157.35 25.624V25.408C157.35 23.744 156.358 22.784 154.374 22.528C152.918 22.528 151.958 23.36 151.494 25.024V25.624ZM173.814 19.192L173.91 19.384V23.704C173.91 25.864 175.062 27.304 177.366 28.024C177.622 28.088 177.878 28.12 178.134 28.12H179.766V28.024C179.254 27.016 178.998 26.024 178.998 25.048C178.998 22.328 180.47 20.44 183.414 19.384C183.958 19.256 184.438 19.192 184.854 19.192C187.478 19.192 189.334 20.664 190.422 23.608C190.55 24.28 190.614 24.792 190.614 25.144C190.614 27.864 189.142 29.752 186.198 30.808C185.686 30.936 185.142 31 184.566 31H178.71C176.422 31 174.63 30.36 173.334 29.08C171.798 27.608 171.03 25.848 171.03 23.8V22.456C171.03 21.272 171.958 20.184 173.814 19.192ZM181.878 25.144C182.134 27.064 183.094 28.024 184.758 28.024H184.854C186.55 28.024 187.51 27.032 187.734 25.048C187.478 23.128 186.518 22.168 184.854 22.168H184.47C183.174 22.168 182.31 23.064 181.878 24.856V25.144ZM185.022 15.376C185.39 15.376 185.734 15.512 186.054 15.784C186.342 16.056 186.486 16.376 186.486 16.744C186.486 17.16 186.342 17.496 186.054 17.752C185.75 18.04 185.406 18.184 185.022 18.184C184.59 18.184 184.246 18.04 183.99 17.752C183.702 17.496 183.558 17.16 183.558 16.744C183.558 16.376 183.702 16.032 183.99 15.712C184.294 15.488 184.638 15.376 185.022 15.376ZM198.978 19.144C202.146 19.144 204.226 20.808 205.218 24.136C205.282 24.472 205.314 24.792 205.314 25.096V28.072C205.314 31.912 203.362 34.408 199.458 35.56H198.882L198.69 35.464C198.69 33.992 199.554 32.648 201.282 31.432L201.57 31.048V30.952H198.306C195.842 30.952 193.986 29.512 192.738 26.632C192.61 25.832 192.546 25.288 192.546 25C192.546 22.376 194.114 20.488 197.25 19.336C198.018 19.208 198.594 19.144 198.978 19.144ZM195.426 25.192C195.426 26.568 196.29 27.528 198.018 28.072H202.434V25.192C202.434 23.384 201.346 22.328 199.17 22.024H198.69C196.514 22.328 195.426 23.384 195.426 25.192ZM214.345 31H212.425C211.961 32.504 210.937 33.792 209.353 34.864C208.137 35.44 207.177 35.728 206.473 35.728L206.281 35.632C206.281 34.144 207.145 32.792 208.873 31.576C209.641 30.696 210.025 29.704 210.025 28.6V22.432C210.025 21.248 210.953 20.16 212.809 19.168L212.905 19.36V28.12H214.345V31ZM221.651 19.288C223.859 19.288 225.683 20.632 227.123 23.32L229.043 30.904L228.851 31H213.587C213.459 31 213.395 30.936 213.395 30.808V28.312C213.411 28.184 213.475 28.12 213.587 28.12H225.299V28.024C224.755 25.192 224.083 23.496 223.283 22.936C222.403 22.296 221.443 21.976 220.403 21.976C219.315 21.976 218.259 22.328 217.235 23.032H217.139L216.947 22.936C216.947 21.352 217.971 20.2 220.019 19.48C220.851 19.352 221.395 19.288 221.651 19.288ZM93.1477 49.192C94.5877 49.192 95.6437 49.992 96.3157 51.592C96.4437 51.88 96.5077 52.296 96.5077 52.84V58.12H97.8517C97.9797 58.136 98.0437 58.2 98.0437 58.312V60.808C98.0437 60.936 97.9797 61 97.8517 61H93.8197C93.6917 61 93.6277 60.936 93.6277 60.808V52.456C93.6277 52.36 93.4997 52.232 93.2437 52.072C92.7957 52.072 92.5717 52.296 92.5717 52.744V60.808C92.5717 60.936 92.5077 61 92.3797 61H85.7077C82.8917 61 81.0677 59.592 80.2357 56.776C80.1717 56.232 80.1397 55.784 80.1397 55.432V53.8C80.1397 52.616 81.0677 51.528 82.9237 50.536L83.0197 50.728V55.816C83.3077 57.352 84.0757 58.12 85.3237 58.12H89.6917V52.84C89.9637 50.408 91.1157 49.192 93.1477 49.192ZM90.3877 61.912C90.7557 61.912 91.0997 62.048 91.4197 62.32C91.7077 62.592 91.8517 62.912 91.8517 63.28C91.8517 63.696 91.7077 64.032 91.4197 64.288C91.1157 64.576 90.7717 64.72 90.3877 64.72C89.9557 64.72 89.6117 64.576 89.3557 64.288C89.0677 64.032 88.9237 63.696 88.9237 63.28C88.9237 62.912 89.0677 62.568 89.3557 62.248C89.6597 62.024 90.0037 61.912 90.3877 61.912ZM86.5477 61.912C86.9157 61.912 87.2597 62.048 87.5797 62.32C87.8677 62.592 88.0117 62.912 88.0117 63.28C88.0117 63.696 87.8677 64.032 87.5797 64.288C87.2757 64.576 86.9317 64.72 86.5477 64.72C86.1157 64.72 85.7717 64.576 85.5157 64.288C85.2277 64.032 85.0837 63.696 85.0837 63.28C85.0837 62.912 85.2277 62.568 85.5157 62.248C85.8197 62.024 86.1637 61.912 86.5477 61.912ZM104.827 61H97.0747V58.12H98.1307C99.6667 57.832 100.435 57.064 100.435 55.816V47.848C100.435 46.664 101.363 45.576 103.219 44.584L103.315 44.776V55.432C103.315 56.424 103.123 57.32 102.739 58.12H104.827V61ZM112.896 49.192H117.312C117.44 49.208 117.504 49.272 117.504 49.384C116.448 51.176 115.36 52.072 114.24 52.072H112.512C110.336 52.376 109.248 53.432 109.248 55.24C109.248 56.584 110.048 57.512 111.648 58.024C111.728 58.088 111.952 58.12 112.32 58.12H117.12C117.248 58.136 117.312 58.2 117.312 58.312V60.808C117.312 60.936 117.248 61 117.12 61H104.064C103.936 61 103.872 60.936 103.872 60.808V58.312C103.888 58.184 103.952 58.12 104.064 58.12H107.232C106.656 57.096 106.368 56.072 106.368 55.048C106.368 52.424 107.936 50.536 111.072 49.384C111.84 49.256 112.448 49.192 112.896 49.192ZM122.205 44.488L122.301 44.68V55.816C122.589 57.352 123.357 58.12 124.605 58.12H125.853C125.981 58.136 126.045 58.2 126.045 58.312V60.808C126.045 60.936 125.981 61 125.853 61H124.989C122.173 61 120.349 59.592 119.517 56.776C119.453 56.232 119.421 55.784 119.421 55.432V47.752C119.421 46.568 120.349 45.48 122.205 44.488ZM133.339 49.192C135.963 49.192 137.819 50.664 138.907 53.608C139.035 54.28 139.099 54.792 139.099 55.144C139.099 55.944 138.843 56.936 138.331 58.12H141.595C141.723 58.136 141.787 58.2 141.787 58.312V60.808C141.787 60.936 141.723 61 141.595 61H125.274C125.146 61 125.082 60.936 125.082 60.808V58.312C125.098 58.184 125.162 58.12 125.274 58.12H128.251V58.024C127.739 57.016 127.483 56.024 127.483 55.048C127.483 52.328 128.955 50.44 131.898 49.384C132.443 49.256 132.923 49.192 133.339 49.192ZM130.363 55.144C130.619 57.064 131.579 58.024 133.243 58.024H133.339C135.035 58.024 135.995 57.032 136.219 55.048C135.963 53.128 135.003 52.168 133.339 52.168H132.955C131.659 52.168 130.795 53.064 130.363 54.856V55.144ZM133.795 45.376C134.163 45.376 134.507 45.512 134.827 45.784C135.115 46.056 135.259 46.376 135.259 46.744C135.259 47.16 135.115 47.496 134.827 47.752C134.523 48.04 134.179 48.184 133.795 48.184C133.363 48.184 133.019 48.04 132.763 47.752C132.475 47.496 132.331 47.16 132.331 46.744C132.331 46.376 132.475 46.032 132.763 45.712C133.067 45.488 133.411 45.376 133.795 45.376ZM146.905 45.376C147.273 45.376 147.617 45.512 147.937 45.784C148.225 46.056 148.368 46.376 148.368 46.744C148.368 47.16 148.225 47.496 147.937 47.752C147.633 48.04 147.289 48.184 146.905 48.184C146.473 48.184 146.129 48.04 145.873 47.752C145.585 47.496 145.441 47.16 145.441 46.744C145.441 46.376 145.585 46.032 145.873 45.712C146.177 45.488 146.521 45.376 146.905 45.376ZM147.073 49.192L147.169 49.384V55.432C147.169 58.248 145.761 60.072 142.945 60.904C142.401 60.968 141.953 61 141.601 61H141.024C140.896 61 140.832 60.936 140.832 60.808V58.312C140.848 58.184 140.912 58.12 141.024 58.12H141.985C143.521 57.832 144.289 57.064 144.289 55.816V52.456C144.289 51.272 145.217 50.184 147.073 49.192ZM143.065 45.376C143.433 45.376 143.777 45.512 144.097 45.784C144.385 46.056 144.529 46.376 144.529 46.744C144.529 47.16 144.385 47.496 144.097 47.752C143.793 48.04 143.449 48.184 143.065 48.184C142.633 48.184 142.289 48.04 142.033 47.752C141.745 47.496 141.601 47.16 141.601 46.744C141.601 46.376 141.745 46.032 142.033 45.712C142.337 45.488 142.681 45.376 143.065 45.376ZM171.898 49.192C173.338 49.192 174.394 49.992 175.066 51.592C175.194 51.88 175.258 52.296 175.258 52.84V58.12H176.602C176.73 58.136 176.794 58.2 176.794 58.312V60.808C176.794 60.936 176.73 61 176.602 61H172.57C172.442 61 172.378 60.936 172.378 60.808V52.456C172.378 52.36 172.25 52.232 171.994 52.072C171.546 52.072 171.322 52.296 171.322 52.744V60.808C171.322 60.936 171.258 61 171.13 61H164.458C161.642 61 159.818 59.592 158.986 56.776C158.922 56.232 158.89 55.784 158.89 55.432V53.8C158.89 52.616 159.818 51.528 161.674 50.536L161.77 50.728V55.816C162.058 57.352 162.826 58.12 164.074 58.12H168.442V52.84C168.714 50.408 169.866 49.192 171.898 49.192ZM169.138 61.912C169.506 61.912 169.85 62.048 170.17 62.32C170.458 62.592 170.602 62.912 170.602 63.28C170.602 63.696 170.458 64.032 170.17 64.288C169.866 64.576 169.522 64.72 169.138 64.72C168.706 64.72 168.362 64.576 168.106 64.288C167.818 64.032 167.674 63.696 167.674 63.28C167.674 62.912 167.818 62.568 168.106 62.248C168.41 62.024 168.754 61.912 169.138 61.912ZM165.298 61.912C165.666 61.912 166.01 62.048 166.33 62.32C166.618 62.592 166.762 62.912 166.762 63.28C166.762 63.696 166.618 64.032 166.33 64.288C166.026 64.576 165.682 64.72 165.298 64.72C164.866 64.72 164.522 64.576 164.266 64.288C163.978 64.032 163.834 63.696 163.834 63.28C163.834 62.912 163.978 62.568 164.266 62.248C164.57 62.024 164.914 61.912 165.298 61.912ZM184.177 49.096C186.673 49.096 188.561 50.312 189.841 52.744C190.225 53.528 190.417 54.392 190.417 55.336C190.417 56.008 190.193 56.936 189.745 58.12H192.337C192.465 58.136 192.529 58.2 192.529 58.312V60.808C192.529 60.936 192.465 61 192.337 61H186.769C185.345 61.256 184.449 61.384 184.081 61.384C183.809 61.384 182.945 61.256 181.489 61H176.017C175.889 61 175.825 60.936 175.825 60.808V58.312C175.841 58.184 175.905 58.12 176.017 58.12H178.513C178.065 57 177.841 56.008 177.841 55.144C177.841 52.472 179.377 50.52 182.449 49.288C183.217 49.16 183.793 49.096 184.177 49.096ZM180.625 55.144C180.993 57.448 182.113 58.6 183.985 58.6H184.273C186.065 58.6 187.185 57.512 187.633 55.336C187.265 53.032 186.145 51.88 184.273 51.88H183.985C182.193 51.88 181.073 52.968 180.625 55.144ZM198.343 49.288L198.439 49.48V55.432C198.439 56.424 198.247 57.32 197.863 58.12H200.215C200.343 58.136 200.407 58.2 200.407 58.312V60.808C200.407 60.936 200.343 61 200.215 61H191.767C191.639 61 191.575 60.936 191.575 60.808V58.312C191.591 58.184 191.655 58.12 191.767 58.12H193.255C194.791 57.832 195.559 57.064 195.559 55.816V52.552C195.559 51.368 196.487 50.28 198.343 49.288ZM197.743 61.912C198.111 61.912 198.455 62.048 198.775 62.32C199.063 62.592 199.207 62.912 199.207 63.28C199.207 63.696 199.063 64.032 198.775 64.288C198.471 64.576 198.127 64.72 197.743 64.72C197.311 64.72 196.967 64.576 196.711 64.288C196.423 64.032 196.279 63.696 196.279 63.28C196.279 62.912 196.423 62.568 196.711 62.248C197.015 62.024 197.359 61.912 197.743 61.912ZM193.903 61.912C194.271 61.912 194.615 62.048 194.935 62.32C195.223 62.592 195.367 62.912 195.367 63.28C195.367 63.696 195.223 64.032 194.935 64.288C194.631 64.576 194.287 64.72 193.903 64.72C193.471 64.72 193.127 64.576 192.871 64.288C192.583 64.032 192.439 63.696 192.439 63.28C192.439 62.912 192.583 62.568 192.871 62.248C193.175 62.024 193.519 61.912 193.903 61.912ZM207.202 61H199.45V58.12H200.506C202.042 57.832 202.81 57.064 202.81 55.816V47.848C202.81 46.664 203.738 45.576 205.594 44.584L205.69 44.776V55.432C205.69 56.424 205.498 57.32 205.114 58.12H207.202V61ZM207.783 49.672H221.319V49.768C220.567 55.08 219.895 57.736 219.303 57.736C219.303 57.832 219.239 57.96 219.111 58.12H222.279C222.407 58.136 222.471 58.2 222.471 58.312V60.808C222.471 60.936 222.407 61 222.279 61H206.439C206.311 61 206.247 60.936 206.247 60.808V58.312C206.263 58.184 206.327 58.12 206.439 58.12H209.799C209.079 57.448 208.535 55.912 208.167 53.512C208.167 53.304 207.975 52.056 207.591 49.768L207.783 49.672ZM210.951 52.552C211.271 54.856 211.751 56.328 212.391 56.968L214.407 58.312C216.519 57.304 217.575 55.96 217.575 54.28C217.655 54.28 217.751 53.704 217.863 52.552L217.671 52.456H211.143L210.951 52.552ZM227.576 45.376C227.944 45.376 228.288 45.512 228.608 45.784C228.896 46.056 229.04 46.376 229.04 46.744C229.04 47.16 228.896 47.496 228.608 47.752C228.304 48.04 227.96 48.184 227.576 48.184C227.144 48.184 226.8 48.04 226.544 47.752C226.256 47.496 226.112 47.16 226.112 46.744C226.112 46.376 226.256 46.032 226.544 45.712C226.848 45.488 227.192 45.376 227.576 45.376ZM227.744 49.192L227.84 49.384V55.432C227.84 58.248 226.432 60.072 223.616 60.904C223.072 60.968 222.624 61 222.272 61H221.696C221.568 61 221.504 60.936 221.504 60.808V58.312C221.52 58.184 221.584 58.12 221.696 58.12H222.656C224.192 57.832 224.96 57.064 224.96 55.816V52.456C224.96 51.272 225.888 50.184 227.744 49.192ZM223.736 45.376C224.104 45.376 224.448 45.512 224.768 45.784C225.056 46.056 225.2 46.376 225.2 46.744C225.2 47.16 225.056 47.496 224.768 47.752C224.464 48.04 224.12 48.184 223.736 48.184C223.304 48.184 222.96 48.04 222.704 47.752C222.416 47.496 222.272 47.16 222.272 46.744C222.272 46.376 222.416 46.032 222.704 45.712C223.008 45.488 223.352 45.376 223.736 45.376ZM49.1653 79.672C51.9493 79.672 53.9013 81.144 55.0213 84.088C55.1493 84.76 55.2133 85.272 55.2133 85.624C55.2133 86.136 55.0213 86.968 54.6373 88.12H56.4613C56.5893 88.136 56.6533 88.2 56.6533 88.312V90.808C56.6533 90.936 56.5893 91 56.4613 91H51.4693C50.3813 91.256 49.5813 91.384 49.0693 91.384C46.3973 91.384 44.4773 90.008 43.3093 87.256L43.2133 86.872H42.9253C41.3893 87.16 40.6213 87.928 40.6213 89.176V92.536C40.6213 93.72 39.6933 94.808 37.8373 95.8L37.7413 95.608V89.56C37.7413 86.744 39.1493 84.92 41.9653 84.088C42.5093 84.024 42.9573 83.992 43.3093 83.992C43.3093 83.016 44.1733 81.864 45.9013 80.536C47.0373 79.96 48.1253 79.672 49.1653 79.672ZM46.1893 85.624C46.1893 87.304 47.1813 88.264 49.1653 88.504C51.0853 88.216 52.0453 87.256 52.0453 85.624V85.432C52.0453 83.752 51.0533 82.792 49.0693 82.552C47.6133 82.552 46.6533 83.384 46.1893 85.048V85.624ZM63.4361 91H55.6841V88.12H56.7401C58.2761 87.832 59.0441 87.064 59.0441 85.816V77.848C59.0441 76.664 59.9721 75.576 61.8281 74.584L61.9241 74.776V85.432C61.9241 86.424 61.7321 87.32 61.3481 88.12H63.4361V91ZM64.0169 79.672H77.5529V79.768C76.8009 85.08 76.1289 87.736 75.5369 87.736C75.5369 87.832 75.4729 87.96 75.3449 88.12H78.5129C78.6409 88.136 78.7049 88.2 78.7049 88.312V90.808C78.7049 90.936 78.6409 91 78.5129 91H62.6729C62.5449 91 62.4809 90.936 62.4809 90.808V88.312C62.4969 88.184 62.5609 88.12 62.6729 88.12H66.0329C65.3129 87.448 64.7689 85.912 64.4009 83.512C64.4009 83.304 64.2089 82.056 63.8249 79.768L64.0169 79.672ZM67.1849 82.552C67.5049 84.856 67.9849 86.328 68.6249 86.968L70.6409 88.312C72.7529 87.304 73.8089 85.96 73.8089 84.28C73.8889 84.28 73.9849 83.704 74.0969 82.552L73.9049 82.456H67.3769L67.1849 82.552ZM84.5068 79.288L84.6028 79.48V85.432C84.6028 86.424 84.4108 87.32 84.0268 88.12H86.3788C86.5068 88.136 86.5708 88.2 86.5708 88.312V90.808C86.5708 90.936 86.5068 91 86.3788 91H77.9307C77.8027 91 77.7387 90.936 77.7387 90.808V88.312C77.7547 88.184 77.8187 88.12 77.9307 88.12H79.4188C80.9548 87.832 81.7228 87.064 81.7228 85.816V82.552C81.7228 81.368 82.6508 80.28 84.5068 79.288ZM83.8108 75.376C84.1788 75.376 84.5228 75.512 84.8428 75.784C85.1308 76.056 85.2747 76.376 85.2747 76.744C85.2747 77.16 85.1308 77.496 84.8428 77.752C84.5388 78.04 84.1948 78.184 83.8108 78.184C83.3788 78.184 83.0348 78.04 82.7788 77.752C82.4908 77.496 82.3468 77.16 82.3468 76.744C82.3468 76.376 82.4908 76.032 82.7788 75.712C83.0828 75.488 83.4268 75.376 83.8108 75.376ZM79.9708 75.376C80.3388 75.376 80.6828 75.512 81.0028 75.784C81.2908 76.056 81.4348 76.376 81.4348 76.744C81.4348 77.16 81.2908 77.496 81.0028 77.752C80.6988 78.04 80.3548 78.184 79.9708 78.184C79.5388 78.184 79.1948 78.04 78.9388 77.752C78.6508 77.496 78.5068 77.16 78.5068 76.744C78.5068 76.376 78.6508 76.032 78.9388 75.712C79.2428 75.488 79.5868 75.376 79.9708 75.376ZM92.1418 74.488L92.2378 74.68V85.432C92.2378 88.248 90.8298 90.072 88.0138 90.904C87.4698 90.968 87.0218 91 86.6698 91H85.8057C85.6777 91 85.6137 90.936 85.6137 90.808V88.312C85.6297 88.184 85.6937 88.12 85.8057 88.12H87.0538C88.5898 87.832 89.3578 87.064 89.3578 85.816V77.752C89.3578 76.568 90.2858 75.48 92.1418 74.488ZM96.9393 74.584L97.0353 74.776V90.808C97.0353 90.936 96.9713 91 96.8433 91H94.3473C94.2193 91 94.1553 90.936 94.1553 90.808V77.848C94.1553 76.664 95.0833 75.576 96.9393 74.584ZM121.65 91H111.402C110.762 91.128 110.442 91.448 110.442 91.96C110.57 92.6 110.89 92.92 111.402 92.92H112.938C114.122 92.92 115.21 93.848 116.202 95.704L116.01 95.8H111.594C109.562 95.8 108.25 94.776 107.658 92.728C107.594 92.376 107.562 92.088 107.562 91.864C107.562 90.104 108.586 88.888 110.634 88.216C110.97 88.152 111.29 88.12 111.594 88.12H116.586V88.024C116.042 85.192 115.37 83.496 114.57 82.936C113.69 82.296 112.73 81.976 111.69 81.976C110.602 81.976 109.546 82.328 108.522 83.032H108.426L108.234 82.936C108.234 81.352 109.258 80.2 111.306 79.48C112.138 79.352 112.682 79.288 112.938 79.288C114.938 79.288 116.634 80.408 118.026 82.648C118.458 83.496 119.002 85.32 119.658 88.12H121.65V91ZM118.53 91.912C118.898 91.912 119.242 92.048 119.562 92.32C119.85 92.592 119.994 92.912 119.994 93.28C119.994 93.696 119.85 94.032 119.562 94.288C119.258 94.576 118.914 94.72 118.53 94.72C118.098 94.72 117.754 94.576 117.498 94.288C117.21 94.032 117.066 93.696 117.066 93.28C117.066 92.912 117.21 92.568 117.498 92.248C117.802 92.024 118.146 91.912 118.53 91.912ZM128.572 79.648C131.356 79.648 133.308 81.12 134.428 84.064C134.556 84.736 134.62 85.256 134.62 85.624C134.62 88.104 133.212 89.928 130.396 91.096C129.66 91.288 129.02 91.384 128.476 91.384C128.06 91.384 127.292 91.256 126.172 91H120.892C120.764 91 120.7 90.936 120.7 90.808V88.312C120.716 88.184 120.78 88.12 120.892 88.12H123.004C122.62 87 122.428 86.096 122.428 85.408C122.428 82.816 123.932 80.96 126.94 79.84C127.74 79.712 128.284 79.648 128.572 79.648ZM125.596 85.624C125.596 87.288 126.588 88.248 128.572 88.504C130.492 88.216 131.452 87.256 131.452 85.624V85.408C131.452 83.744 130.46 82.784 128.476 82.528C127.02 82.528 126.06 83.36 125.596 85.024V85.624ZM138.738 79.096H142.002C144.866 79.096 146.85 80.472 147.954 83.224C148.146 83.992 148.434 85.624 148.818 88.12H150.834C150.962 88.136 151.026 88.2 151.026 88.312V90.808C151.026 90.936 150.962 91 150.834 91H136.53V90.904C136.738 89.048 136.93 88.12 137.106 88.12H145.554V88.024C145.266 84.248 144.818 82.36 144.21 82.36C144.21 82.024 143.058 81.704 140.754 81.4C139.698 80.76 138.962 80.024 138.546 79.192L138.738 79.096ZM156.595 74.488L156.691 74.68V85.432C156.691 88.248 155.283 90.072 152.467 90.904C151.923 90.968 151.475 91 151.123 91H150.259C150.131 91 150.067 90.936 150.067 90.808V88.312C150.083 88.184 150.147 88.12 150.259 88.12H151.507C153.043 87.832 153.811 87.064 153.811 85.816V77.752C153.811 76.568 154.739 75.48 156.595 74.488ZM169.994 79.192L170.09 79.384V83.704C170.09 85.864 171.242 87.304 173.546 88.024C173.802 88.088 174.058 88.12 174.314 88.12H175.946V88.024C175.434 87.016 175.178 86.024 175.178 85.048C175.178 82.328 176.65 80.44 179.594 79.384C180.138 79.256 180.618 79.192 181.034 79.192C183.658 79.192 185.514 80.664 186.602 83.608C186.73 84.28 186.794 84.792 186.794 85.144C186.794 87.864 185.322 89.752 182.378 90.808C181.866 90.936 181.322 91 180.746 91H174.89C172.602 91 170.81 90.36 169.514 89.08C167.978 87.608 167.21 85.848 167.21 83.8V82.456C167.21 81.272 168.138 80.184 169.994 79.192ZM178.058 85.144C178.314 87.064 179.274 88.024 180.938 88.024H181.034C182.73 88.024 183.69 87.032 183.914 85.048C183.658 83.128 182.698 82.168 181.034 82.168H180.65C179.354 82.168 178.49 83.064 178.058 84.856V85.144ZM181.202 75.376C181.57 75.376 181.914 75.512 182.234 75.784C182.522 76.056 182.666 76.376 182.666 76.744C182.666 77.16 182.522 77.496 182.234 77.752C181.93 78.04 181.586 78.184 181.202 78.184C180.77 78.184 180.426 78.04 180.17 77.752C179.882 77.496 179.738 77.16 179.738 76.744C179.738 76.376 179.882 76.032 180.17 75.712C180.474 75.488 180.818 75.376 181.202 75.376ZM190.934 79.096H194.198C197.062 79.096 199.046 80.472 200.15 83.224C200.342 83.992 200.63 85.624 201.014 88.12H203.03C203.158 88.136 203.222 88.2 203.222 88.312V90.808C203.222 90.936 203.158 91 203.03 91H188.726V90.904C188.934 89.048 189.126 88.12 189.302 88.12H197.75V88.024C197.462 84.248 197.014 82.36 196.406 82.36C196.406 82.024 195.254 81.704 192.95 81.4C191.894 80.76 191.158 80.024 190.742 79.192L190.934 79.096ZM210.038 79.096H213.302C216.166 79.096 218.15 80.472 219.254 83.224C219.446 83.992 219.734 85.624 220.118 88.12H222.422C222.55 88.136 222.614 88.2 222.614 88.312V90.808C222.614 90.936 222.55 91 222.422 91H202.454C202.326 91 202.262 90.936 202.262 90.808V88.312C202.278 88.184 202.342 88.12 202.454 88.12H204.758C204.886 88.12 205.11 86.872 205.43 84.376C206.262 82.264 207.734 81.208 209.846 81.208C210.902 81.208 211.958 81.816 213.014 83.032C213.526 83.816 213.782 84.456 213.782 84.952V85.528C213.782 86.024 213.718 86.888 213.59 88.12H216.854V88.024C216.566 84.248 216.118 82.36 215.51 82.36C215.51 82.024 214.358 81.704 212.054 81.4C210.998 80.76 210.262 80.024 209.846 79.192L210.038 79.096ZM207.83 88.12H210.614C210.806 86.536 210.934 85.64 210.998 85.432C210.998 84.792 210.518 84.344 209.558 84.088C208.534 84.088 208.022 85.08 208.022 87.064C207.942 87.064 207.878 87.416 207.83 88.12ZM227.885 79.192L227.981 79.384V85.432C227.981 88.248 226.573 90.072 223.757 90.904C223.213 90.968 222.765 91 222.413 91H221.837C221.709 91 221.645 90.936 221.645 90.808V88.312C221.661 88.184 221.725 88.12 221.837 88.12H222.797C224.333 87.832 225.101 87.064 225.101 85.816V82.456C225.101 81.272 226.029 80.184 227.885 79.192ZM227.573 91.912C227.941 91.912 228.285 92.048 228.605 92.32C228.893 92.592 229.037 92.912 229.037 93.28C229.037 93.696 228.893 94.032 228.605 94.288C228.301 94.576 227.957 94.72 227.573 94.72C227.141 94.72 226.797 94.576 226.541 94.288C226.253 94.032 226.109 93.696 226.109 93.28C226.109 92.912 226.253 92.568 226.541 92.248C226.845 92.024 227.189 91.912 227.573 91.912ZM223.733 91.912C224.101 91.912 224.445 92.048 224.765 92.32C225.053 92.592 225.197 92.912 225.197 93.28C225.197 93.696 225.053 94.032 224.765 94.288C224.461 94.576 224.117 94.72 223.733 94.72C223.301 94.72 222.957 94.576 222.701 94.288C222.413 94.032 222.269 93.696 222.269 93.28C222.269 92.912 222.413 92.568 222.701 92.248C223.005 92.024 223.349 91.912 223.733 91.912ZM168.55 109.192L168.646 109.384V115.816C168.646 117.192 169.51 117.96 171.238 118.12C171.494 118.12 171.622 118.184 171.622 118.312V120.808C171.622 120.936 171.558 121 171.43 121H171.334C169.574 121 168.102 120.36 166.918 119.08C165.734 120.36 164.23 121 162.406 121C159.574 121 157.622 119.528 156.55 116.584C156.422 115.976 156.358 115.496 156.358 115.144C156.358 112.52 157.958 110.664 161.158 109.576C161.254 109.576 161.702 109.544 162.502 109.48C163.862 109.48 165.142 109.928 166.342 110.824C167.526 109.736 168.262 109.192 168.55 109.192ZM159.526 114.952V115.528C159.942 117.256 160.806 118.12 162.118 118.12H162.79C164.518 117.704 165.382 116.84 165.382 115.528V114.952C164.966 113.224 164.102 112.36 162.79 112.36H162.118C160.39 112.776 159.526 113.64 159.526 114.952ZM177.436 109.288L177.532 109.48V115.432C177.532 116.424 177.34 117.32 176.956 118.12H179.308C179.436 118.136 179.5 118.2 179.5 118.312V120.808C179.5 120.936 179.436 121 179.308 121H170.86C170.732 121 170.668 120.936 170.668 120.808V118.312C170.684 118.184 170.748 118.12 170.86 118.12H172.348C173.884 117.832 174.652 117.064 174.652 115.816V112.552C174.652 111.368 175.58 110.28 177.436 109.288ZM176.836 121.912C177.204 121.912 177.548 122.048 177.868 122.32C178.156 122.592 178.3 122.912 178.3 123.28C178.3 123.696 178.156 124.032 177.868 124.288C177.564 124.576 177.22 124.72 176.836 124.72C176.404 124.72 176.06 124.576 175.804 124.288C175.516 124.032 175.372 123.696 175.372 123.28C175.372 122.912 175.516 122.568 175.804 122.248C176.108 122.024 176.452 121.912 176.836 121.912ZM172.996 121.912C173.364 121.912 173.708 122.048 174.028 122.32C174.316 122.592 174.46 122.912 174.46 123.28C174.46 123.696 174.316 124.032 174.028 124.288C173.724 124.576 173.38 124.72 172.996 124.72C172.564 124.72 172.22 124.576 171.964 124.288C171.676 124.032 171.532 123.696 171.532 123.28C171.532 122.912 171.676 122.568 171.964 122.248C172.268 122.024 172.612 121.912 172.996 121.912ZM186.799 109.192C189.423 109.192 191.279 110.664 192.367 113.608C192.495 114.28 192.559 114.792 192.559 115.144C192.559 117.864 191.087 119.752 188.143 120.808C187.631 120.936 187.087 121 186.511 121H178.735C178.607 121 178.543 120.936 178.543 120.808V118.312C178.559 118.184 178.623 118.12 178.735 118.12H181.711V118.024C181.199 117.016 180.943 116.024 180.943 115.048C180.943 112.328 182.415 110.44 185.359 109.384C185.903 109.256 186.383 109.192 186.799 109.192ZM183.823 115.144C184.079 117.064 185.039 118.024 186.703 118.024H186.799C188.495 118.024 189.455 117.032 189.679 115.048C189.423 113.128 188.463 112.168 186.799 112.168H186.415C185.119 112.168 184.255 113.064 183.823 114.856V115.144ZM186.775 105.376C187.143 105.376 187.487 105.512 187.807 105.784C188.095 106.056 188.239 106.376 188.239 106.744C188.239 107.16 188.095 107.496 187.807 107.752C187.503 108.04 187.159 108.184 186.775 108.184C186.343 108.184 185.999 108.04 185.743 107.752C185.455 107.496 185.311 107.16 185.311 106.744C185.311 106.376 185.455 106.032 185.743 105.712C186.047 105.488 186.391 105.376 186.775 105.376ZM201.572 121H199.652C199.188 122.504 198.164 123.792 196.58 124.864C195.364 125.44 194.404 125.728 193.7 125.728L193.508 125.632C193.508 124.144 194.372 122.792 196.1 121.576C196.868 120.696 197.252 119.704 197.252 118.6V112.432C197.252 111.248 198.18 110.16 200.036 109.168L200.132 109.36V118.12H201.572V121ZM207.39 109.288L207.486 109.48V115.432C207.486 116.424 207.294 117.32 206.91 118.12H209.262C209.39 118.136 209.454 118.2 209.454 118.312V120.808C209.454 120.936 209.39 121 209.262 121H200.814C200.686 121 200.622 120.936 200.622 120.808V118.312C200.638 118.184 200.702 118.12 200.814 118.12H202.302C203.838 117.832 204.606 117.064 204.606 115.816V112.552C204.606 111.368 205.534 110.28 207.39 109.288ZM206.694 105.376C207.062 105.376 207.406 105.512 207.726 105.784C208.014 106.056 208.158 106.376 208.158 106.744C208.158 107.16 208.014 107.496 207.726 107.752C207.422 108.04 207.078 108.184 206.694 108.184C206.262 108.184 205.918 108.04 205.662 107.752C205.374 107.496 205.23 107.16 205.23 106.744C205.23 106.376 205.374 106.032 205.662 105.712C205.966 105.488 206.31 105.376 206.694 105.376ZM202.854 105.376C203.222 105.376 203.566 105.512 203.886 105.784C204.174 106.056 204.318 106.376 204.318 106.744C204.318 107.16 204.174 107.496 203.886 107.752C203.582 108.04 203.238 108.184 202.854 108.184C202.422 108.184 202.078 108.04 201.822 107.752C201.534 107.496 201.39 107.16 201.39 106.744C201.39 106.376 201.534 106.032 201.822 105.712C202.126 105.488 202.47 105.376 202.854 105.376ZM215.025 104.488L215.121 104.68V115.432C215.121 118.248 213.713 120.072 210.897 120.904C210.353 120.968 209.905 121 209.553 121H208.689C208.561 121 208.497 120.936 208.497 120.808V118.312C208.513 118.184 208.577 118.12 208.689 118.12H209.937C211.473 117.832 212.241 117.064 212.241 115.816V107.752C212.241 106.568 213.169 105.48 215.025 104.488ZM219.822 104.488L219.918 104.68V115.816C220.206 117.352 220.974 118.12 222.222 118.12H223.47C223.598 118.136 223.662 118.2 223.662 118.312V120.808C223.662 120.936 223.598 121 223.47 121H222.606C219.79 121 217.966 119.592 217.134 116.776C217.07 116.232 217.038 115.784 217.038 115.432V107.752C217.038 106.568 217.966 105.48 219.822 104.488ZM226.468 121.912C226.836 121.912 227.18 122.048 227.5 122.32C227.788 122.592 227.932 122.912 227.932 123.28C227.932 123.696 227.788 124.032 227.5 124.288C227.196 124.576 226.852 124.72 226.468 124.72C226.036 124.72 225.692 124.576 225.436 124.288C225.148 124.032 225.004 123.696 225.004 123.28C225.004 122.912 225.148 122.568 225.436 122.248C225.74 122.024 226.084 121.912 226.468 121.912ZM228.94 109.192L229.036 109.384V115.432C229.036 118.248 227.628 120.072 224.812 120.904C224.268 120.968 223.82 121 223.468 121H222.892C222.764 121 222.7 120.936 222.7 120.808V118.312C222.716 118.184 222.78 118.12 222.892 118.12H223.852C225.388 117.832 226.156 117.064 226.156 115.816V112.456C226.156 111.272 227.084 110.184 228.94 109.192Z" fill="#5ABFA2"/>
</svg>
