<svg width="70" height="53" viewBox="0 0 70 53" fill="none" xmlns="http://www.w3.org/2000/svg">
<path d="M54.2179 14.0827C40.8707 0.251681 35.8958 -0.31789 32.4582 0.498666C29.0206 1.31018 19.1967 8.50292 21.7573 27.6214C8.45551 16.1342 3.61163 17.9941 1.52991 21.0083C-0.551804 24.0225 -1.3482 34.0934 11.5453 38.6399C8.45551 46.5887 13.1583 53.6907 18.8036 49.4769C24.4489 45.263 26.082 39.1842 26.082 39.1842C26.082 39.1842 30.6638 45.3386 33.8746 45.7671C34.2778 49.4718 36.0571 52.8943 39.1217 52.5011C42.1863 52.113 45.2408 47.7681 45.2408 47.7681L49.3589 47.7581C49.3589 47.7581 50.5081 55.5405 55.9568 51.5434C59.1172 47.1078 59.1172 45.4546 59.1172 45.4546C59.1172 45.4546 66.1537 42.395 67.6104 37.914C69.0671 33.4331 67.6104 22.1424 63.2151 17.5354C60.337 14.4154 54.2179 14.0827 54.2179 14.0827Z" fill="url(#paint0_linear_417_485)"/>
<path opacity="0.7" d="M54.3995 14.0928C55.4227 14.1734 60.6295 14.7279 63.2254 17.5354C67.6206 22.1424 69.0773 33.433 67.6206 37.914C66.4109 41.6288 61.3755 44.3608 59.6869 45.1924C51.6726 46.6088 43.4768 43.8416 41.7832 36.1801C40.1148 28.6647 42.6703 14.4456 54.3995 14.0928Z" fill="#25BDEF"/>
<path opacity="0.7" d="M1.52977 21.0081C3.61148 17.9939 8.45537 16.1339 21.7572 27.6211C19.1966 8.50266 29.0205 1.30992 32.4581 0.498405C35.8805 -0.313109 40.8252 0.251422 54.0161 13.8758C48.2851 14.1732 43.0733 15.5391 38.6024 18.0997C39.2828 24.8287 34.2121 33.8713 26.7976 31.1646C26.1776 32.465 25.6181 33.8411 25.1191 35.3028C25.1191 35.3028 23.486 35.6355 26.3893 39.5822C26.1928 39.3352 26.0819 39.189 26.0819 39.189C26.0819 39.189 24.4488 45.2628 18.8034 49.4816C13.1581 53.6955 8.45536 46.5934 11.5452 38.6446C-1.34834 34.0981 -0.551941 24.0273 1.52977 21.0081ZM35.2706 20.3326C33.0579 22.0665 31.087 24.1634 29.3834 26.6433L35.2706 20.3326Z" fill="#25BDEF"/>
<path opacity="0.7" d="M47.4082 43.6144C45.7852 42.5508 44.646 41.6284 44.646 41.6284C44.646 41.6284 38.0329 43.1859 34.0258 41.8401C33.8796 50.54 35.3061 53.4483 39.9433 52.3898C44.5805 51.3263 47.4082 43.6144 47.4082 43.6144Z" fill="#25BDEF"/>
<path opacity="0.3" d="M0.350502 26.1644C4.39799 35.2625 16.0768 35.8925 21.8682 35.6103C11.626 32.0618 9.16123 23.1704 9.16123 23.1704C9.16123 23.1704 16.8227 30.2674 24.0205 35.449C24.7715 35.3683 25.2101 35.2978 25.2101 35.2978C25.2101 35.2978 24.9228 36.1748 28.0781 29.0426C29.439 36.2353 34.1519 40.4038 39.9131 42.425C37.902 42.7677 35.0037 42.1629 34.0258 41.8302C33.8797 49.6278 41.3244 50.8678 47.1714 43.8766C55.8863 44.5016 64.8382 41.6185 67.7012 37.6365C67.676 37.7273 67.6508 37.823 67.6205 37.9087C66.1638 42.3897 59.1273 45.4493 59.1273 45.4493C59.1273 45.4493 59.1273 47.1025 55.967 51.5381C50.5182 55.5352 49.369 47.7527 49.369 47.7527L45.2509 47.7628C45.2509 47.7628 42.1964 52.1077 39.1318 52.4958C36.0672 52.8839 34.2879 49.4665 33.8847 45.7618C30.679 45.3283 26.0921 39.1789 26.0921 39.1789C26.0921 39.1789 24.459 45.2527 18.8137 49.4715C13.1684 53.6854 8.46565 46.5834 11.5555 38.6346C3.12276 35.6708 0.542046 30.343 0.350502 26.1644Z" fill="#002169"/>
<path opacity="0.4" d="M21.7574 27.6212C20.6031 18.9919 21.9741 12.8022 24.1365 8.51783C24.0357 8.49263 23.9802 8.48255 23.9802 8.48255L24.5649 7.7164C25.578 5.90687 26.7273 4.47538 27.8614 3.37656L28.3352 2.75658C28.3352 2.75658 28.3755 2.78178 28.4511 2.83219C30.0136 1.46118 31.4955 0.725273 32.4633 0.498452C35.8051 -0.292901 40.5986 0.226267 53.104 12.9383C43.4011 4.3292 39.1066 2.33318 35.5229 3.74451C34.7466 4.05198 33.7184 4.71228 32.6044 5.74558C35.6186 7.9785 39.5855 11.1893 42.2872 14.4051C38.8496 12.6661 33.3454 10.9776 29.2677 9.85355C28.4763 11.1137 27.7202 12.5704 27.0599 14.2337C29.4743 14.4454 33.3303 14.9646 36.6923 16.1995C32.8514 16.5473 28.1991 17.7318 25.7292 18.4173C25.3764 19.8387 25.0992 21.371 24.9077 23.0142C26.2031 22.2733 28.6729 20.9728 30.9159 20.4436C29.0812 21.7994 26.0518 24.3902 24.6909 25.5596C24.5296 28.4881 24.6405 31.7241 25.1345 35.3029C23.9399 34.0075 22.836 32.4348 21.7574 27.6212Z" fill="#0033A1"/>
<path d="M63.9963 28.8311C64.4399 31.5176 64.1727 34.809 63.5023 34.7788C62.8319 34.7435 61.5113 30.3281 61.3803 28.8915C63.2251 28.947 63.9963 28.8311 63.9963 28.8311Z" fill="#1C4772"/>
<path opacity="0.2" d="M56.3352 51.2158C56.441 47.8186 51.8744 47.5464 50.3269 50.0364C49.3693 47.7631 49.3693 47.7631 49.3693 47.7631C49.3693 47.7631 57.1719 46.9919 59.1226 45.4546C59.1226 48.0857 56.3352 51.2158 56.3352 51.2158Z" fill="#002E6D"/>
<path opacity="0.4" d="M34.021 41.8354C34.021 41.8354 34.777 42.1127 36.0926 42.3093C36.1027 42.647 36.1228 42.9696 36.148 43.277C37.2065 43.5946 39.4647 44.0633 42.9678 43.7508C39.8074 45.1672 37.3073 45.0311 36.3497 44.9001C36.4555 45.4999 36.5866 46.0291 36.7327 46.5029C38.0886 46.4777 40.881 46.2559 44.7773 45.0714C42.7359 47.2943 38.8699 48.257 37.6199 48.5191C38.3356 49.6835 39.0312 50.0262 39.0312 50.0262C39.0312 50.0262 43.7339 50.1623 46.5112 45.5402L45.241 47.7681C45.241 47.7681 42.1865 52.113 39.1219 52.5011C36.0573 52.8892 34.278 49.4718 33.8748 45.767L34.021 41.8354Z" fill="#0033A1"/>
<path opacity="0.3" d="M54.2178 14.0825C54.2178 14.0825 60.337 14.4151 63.2252 17.5352C64.9036 19.2943 66.1486 22.0262 66.9702 24.985C62.3985 14.6319 48.139 15.0402 42.277 16.1944C46.2539 14.6823 53.371 13.2004 54.2178 14.0825Z" fill="white"/>
<path opacity="0.3" d="M51.8287 17.6209C55.2915 18.135 54.8328 20.4838 51.7984 20.4183C48.7691 20.3528 46.2186 16.7892 51.8287 17.6209Z" fill="white"/>
<path opacity="0.3" d="M0.526886 24.4609C0.501682 24.2795 0.491602 24.1081 0.471439 23.9367C0.668018 22.7018 1.07126 21.6786 1.52994 21.0082C3.61165 17.994 8.45554 16.1341 21.7573 27.6213C21.7573 27.6213 5.36573 16.0938 0.526886 24.4609Z" fill="white"/>
<path opacity="0.7" d="M36.0925 32.9693C37.9221 32.2434 37.5592 29.1184 35.4523 30.3281C33.3454 31.5428 32.5793 34.3705 36.0925 32.9693Z" fill="#25BDEF"/>
<path opacity="0.3" d="M55.871 28.7856C58.24 30.0407 55.745 35.0207 53.1996 33.2565C50.6541 31.4873 52.625 27.0668 55.871 28.7856Z" fill="#002169"/>
<path opacity="0.25" d="M48.3405 43.6144C48.6782 45.8674 48.0028 47.8181 48.0028 47.8181L45.2457 47.7778L47.403 43.3926L48.3405 43.6144Z" fill="#002169"/>
<path d="M47.2569 48.0805C51.8084 48.0805 55.8307 47.2791 59.228 45.6863C69.4299 40.913 68.82 35.3231 68.331 30.8371L68.3109 30.6657C67.0709 19.2793 62.6303 13.9263 54.3337 13.8306C47.4686 5.76581 37.7505 -1.46725 32.3774 0.256587C27.1404 1.9401 18.6724 11.4615 21.369 26.9408C14.6299 20.9527 9.16608 18.2006 5.13875 18.7652C2.78485 19.0978 1.45417 20.5092 0.758583 21.6382C-0.25959 23.2764 -0.405762 26.8803 1.27271 30.5951C2.48746 33.2817 5.64279 37.9794 13.0775 39.2194C13.2136 39.2446 13.3446 39.1488 13.3698 39.0127C13.395 38.8766 13.2993 38.7456 13.1632 38.7204C5.9553 37.5157 2.91086 32.9793 1.73139 30.3834C0.138603 26.8652 0.259575 23.3873 1.18702 21.9003C1.8322 20.862 3.05199 19.5666 5.20931 19.2591C9.13583 18.7047 14.8013 21.6584 21.5858 27.8027C21.6664 27.8733 21.7824 27.8884 21.8781 27.838C21.9739 27.7826 22.0243 27.6767 22.0041 27.5709C18.9698 11.9706 27.3672 2.39374 32.5387 0.73543C37.7153 -0.927923 47.272 6.26986 54.0312 14.2439C54.0766 14.2993 54.1472 14.3346 54.2228 14.3346C62.3934 14.38 66.587 19.4356 67.8169 30.7211L67.8371 30.8875C68.3361 35.4441 68.9006 40.6055 59.0213 45.2276C55.2006 47.017 50.5735 47.7882 45.2659 47.521C45.1298 47.5109 45.0088 47.6218 45.0038 47.7579C44.9987 47.899 45.1046 48.015 45.2407 48.02C45.9211 48.0603 46.5966 48.0805 47.2569 48.0805Z" fill="#002856"/>
<path d="M38.2797 52.8537C38.572 52.8537 38.8745 52.8234 39.192 52.7579C42.4633 52.0926 46.0521 48.2064 47.539 43.7153C47.5844 43.5842 47.5088 43.4431 47.3777 43.3977C47.2467 43.3524 47.1005 43.423 47.0602 43.559C45.6488 47.8182 42.1508 51.6439 39.0912 52.2639C37.8512 52.5159 36.7928 52.1984 36.0417 51.3415C33.5568 48.5189 34.1566 43.4482 34.3431 42.2636C35.4974 42.4955 40.2606 43.302 44.7264 41.8705C44.8575 41.8302 44.9331 41.684 44.8877 41.5529C44.8474 41.4219 44.7012 41.3463 44.5702 41.3916C39.6003 42.9895 34.2473 41.7344 34.1969 41.7193C34.1314 41.7042 34.0608 41.7142 34.0003 41.7546C33.9449 41.7898 33.9046 41.8503 33.8894 41.9159C33.839 42.1729 32.6848 48.292 35.6637 51.6792C36.3492 52.4504 37.2414 52.8537 38.2797 52.8537Z" fill="#002856"/>
<path d="M52.9175 53.0001C52.9578 53.0001 52.9981 53.0001 53.0384 52.9951C56.0678 52.8237 58.3763 50.0968 59.3743 45.51C59.4045 45.3739 59.3189 45.2378 59.1828 45.2126C59.0467 45.1824 58.9106 45.2681 58.8854 45.4041C57.9428 49.7541 55.8057 52.3398 53.0132 52.4961C50.7047 52.6019 49.6311 47.7631 49.621 47.7127C49.5908 47.5766 49.4547 47.4909 49.3236 47.5211C49.1875 47.5514 49.1018 47.6824 49.1321 47.8185C49.1674 48.0302 50.2662 53.0001 52.9175 53.0001Z" fill="#002856"/>
<path d="M24.6756 37.2892C24.7915 37.2892 24.8923 37.2136 24.9225 37.0976C24.9477 37.0019 27.3268 27.3695 35.689 20.0961C35.7948 20.0054 35.8049 19.8441 35.7142 19.7383C35.6234 19.6324 35.4621 19.6223 35.3563 19.7131C26.8732 27.0974 24.4538 36.8809 24.4336 36.9817C24.4034 37.1178 24.484 37.2539 24.6201 37.2841C24.6352 37.2892 24.6554 37.2892 24.6756 37.2892Z" fill="#002856"/>
<path d="M33.8797 46.0242C33.9856 46.0242 34.0813 45.9586 34.1166 45.8528C34.162 45.7217 34.0914 45.5756 33.9604 45.5302C30.2808 44.255 27.2969 40.525 25.8503 38.4131C25.7696 38.2971 25.6133 38.2669 25.4974 38.3475C25.3815 38.4282 25.3512 38.5844 25.4319 38.7004C26.9138 40.8627 29.9734 44.6834 33.794 46.009C33.8243 46.0191 33.8495 46.0242 33.8797 46.0242Z" fill="#002856"/>
<path d="M24.9174 36.4319C24.9527 36.4319 24.983 36.4269 25.0182 36.4117C25.1442 36.3563 25.2047 36.2051 25.1493 36.0791C25.1493 36.0791 24.7914 35.2575 24.1664 33.9066C24.1563 33.8865 23.0827 31.4267 21.999 27.5557C21.9587 27.4196 21.8226 27.344 21.6865 27.3792C21.5504 27.4145 21.4748 27.5557 21.5101 27.6917C22.6089 31.5981 23.6926 34.0881 23.7027 34.1133C24.3227 35.4641 24.6805 36.2807 24.6805 36.2857C24.7309 36.3765 24.8217 36.4319 24.9174 36.4319Z" fill="#002856"/>
<path d="M15.4416 50.7871C15.608 50.7871 15.7793 50.777 15.9507 50.7619C20.0234 50.3486 24.4842 45.4039 26.329 39.2596C26.3693 39.1285 26.2937 38.9874 26.1576 38.9471C26.0266 38.9067 25.8855 38.9823 25.8451 39.1184C23.8088 45.9079 19.2018 49.9252 15.9003 50.2629C14.1966 50.4343 12.8407 49.6782 11.9687 48.0653C9.84669 44.1236 11.7621 38.7858 11.7822 38.7354C11.8326 38.6043 11.7621 38.4581 11.631 38.4128C11.5 38.3674 11.3538 38.4329 11.3084 38.564C11.2227 38.7908 9.29225 44.169 11.5252 48.3072C12.3972 49.9202 13.7783 50.7871 15.4416 50.7871Z" fill="#002856"/>
<path d="M42.2822 16.4464C42.3074 16.4464 42.3377 16.4413 42.3629 16.4313C42.4284 16.4111 48.7844 14.2639 54.218 14.3344C54.218 14.3344 54.218 14.3344 54.2231 14.3344C54.3592 14.3344 54.4751 14.2235 54.4751 14.0874C54.4751 13.9463 54.3642 13.8354 54.2281 13.8304C48.7088 13.7396 42.2671 15.9323 42.2066 15.9575C42.0756 16.0028 42.005 16.144 42.0504 16.275C42.0806 16.3809 42.1764 16.4464 42.2822 16.4464Z" fill="#002856"/>
<path d="M63.5176 35.0865C63.5327 35.0865 63.5428 35.0865 63.5579 35.0865C63.6234 35.0814 63.6839 35.0512 63.7293 35.0008C64.6467 33.9776 64.4249 29.6881 64.3997 29.1992C64.3946 29.1236 64.3593 29.0581 64.3039 29.0127C64.6013 28.9321 64.9037 28.8161 65.1961 28.67C65.3221 28.6044 65.3674 28.4532 65.307 28.3323C65.2414 28.2062 65.0902 28.1609 64.9692 28.2214C63.4067 29.0228 61.451 28.6095 61.4308 28.6044C61.3502 28.5843 61.2645 28.6095 61.204 28.6649C61.1435 28.7204 61.1133 28.801 61.1234 28.8817C61.3149 30.3484 62.0508 35.0865 63.5176 35.0865ZM63.9208 29.1085C63.9007 29.1438 63.8956 29.1891 63.8956 29.2345C63.9662 30.4492 64.0116 33.6752 63.4269 34.5724C62.7716 34.3607 62.0357 31.7295 61.6677 29.1589C62.1315 29.2244 62.9984 29.2899 63.9208 29.1085Z" fill="#002856"/>
<path d="M48.5776 43.8668C48.7137 43.8668 48.8296 43.7559 48.8296 43.6198C48.8296 43.4787 48.7187 43.3678 48.5826 43.3627C46.6319 43.3325 44.4746 41.2558 44.1621 40.3838C44.1168 40.2528 43.9706 40.1872 43.8395 40.2326C43.7085 40.278 43.6379 40.4241 43.6883 40.5552C44.0865 41.6641 46.4202 43.8315 48.5776 43.8668Z" fill="#002856"/>
<path d="M52.5346 30.8926C52.6707 32.1376 53.7292 33.0449 54.8986 32.9189C56.068 32.7929 56.9097 31.6789 56.7737 30.4339C56.6376 29.189 55.5791 28.2817 54.4097 28.4077C53.2352 28.5337 52.3985 29.6476 52.5346 30.8926Z" fill="#002856"/>
<path d="M67.6205 26.6987C68.6387 26.7693 69.5056 27.606 69.6266 28.725C69.7425 29.7835 69.1528 30.7361 68.2556 31.0789C68.1195 29.4911 67.9028 28.0345 67.6205 26.6987Z" fill="#002856"/>
<path d="M54.4702 28.8815C55.4279 28.5841 56.2193 29.7383 55.8866 30.0962C55.5489 30.4541 53.4974 29.1839 54.4702 28.8815Z" fill="white"/>
<path opacity="0.45" d="M56.2894 31.0742C56.5767 31.5127 55.4729 32.6669 54.2682 32.3948C53.2046 32.1579 52.7006 31.0439 53.0837 30.1417C53.4668 29.2394 53.7994 31.0137 54.6664 31.059C55.5333 31.1044 55.987 30.6205 56.2894 31.0742Z" fill="#25BDEF"/>
<defs>
<linearGradient id="paint0_linear_417_485" x1="32.5607" y1="59.3059" x2="35.7866" y2="2.85251" gradientUnits="userSpaceOnUse">
<stop offset="0.00558659" stop-color="#0BD4FC"/>
<stop offset="1" stop-color="#1072FB"/>
</linearGradient>
</defs>
</svg>
