<svg width="60" height="49" viewBox="0 0 60 49" fill="none" xmlns="http://www.w3.org/2000/svg">
<path fill-rule="evenodd" clip-rule="evenodd" d="M50.8936 17.11C51.3413 15.3166 51.3531 13.3877 50.8408 11.4757C49.2308 5.46707 43.0547 1.90128 37.046 3.51129C33.638 4.42446 31.0159 6.80652 29.6783 9.79379C27.3556 8.37616 24.479 7.87557 21.6431 8.63544C17.4667 9.75451 14.5805 13.2854 14.0816 17.328C13.3261 17.357 12.5621 17.4702 11.801 17.6741C6.30498 19.1468 3.04342 24.7959 4.51606 30.2919C5.9887 35.7879 11.6379 39.0495 17.1339 37.5768C19.2619 37.0066 21.055 35.8102 22.368 34.239C24.8626 36.3801 28.3369 37.293 31.752 36.3779C33.8225 35.8231 35.5758 34.6756 36.8784 33.1669C39.441 36.9233 44.1843 38.8388 48.8254 37.5952C54.6987 36.0214 58.1842 29.9844 56.6105 24.111C55.7615 20.9427 53.6138 18.4693 50.8936 17.11Z" fill="white"/>
<rect x="15" y="30" width="30" height="8" fill="white"/>
</svg>
