<svg width="92" height="69" viewBox="0 0 92 69" fill="none" xmlns="http://www.w3.org/2000/svg">
<path d="M30.9179 64.6986C30.6611 65.6388 30.4476 66.5887 30.3555 67.5591H57.0588C56.8185 66.0836 56.5486 64.6111 56.2001 63.1573C56.1678 63.0232 56.1313 62.8819 56.0345 62.7838C55.9102 62.6582 55.7192 62.634 55.543 62.6166C54.6864 62.5325 53.8294 62.4485 52.972 62.3729C48.7986 62.0053 44.607 61.8423 40.4175 61.8839C38.344 61.9043 36.2713 61.9752 34.2012 62.0957C34.0462 62.1047 33.8548 62.1017 33.6468 62.0983C32.9681 62.0877 32.1098 62.0771 31.7558 62.4913C31.325 62.9952 31.0885 64.075 30.9179 64.6986Z" fill="#EAF3EF"/>
<path d="M23.3792 36.9129C23.2327 37.8536 23.1491 38.8239 23.3681 39.7505C23.6789 41.0668 24.5736 42.1742 25.5873 43.0699C27.2864 44.5712 29.3587 45.5933 31.4882 46.3722C38.0437 48.7688 45.3556 48.9504 52.0805 47.0807C53.6362 46.6481 55.1829 46.0984 56.5128 45.1824C57.5417 44.4731 58.4165 43.5601 59.1984 42.5851C59.9943 41.5936 60.704 40.5281 61.2524 39.3808C62.3522 37.0798 62.7775 34.4612 62.4634 31.9305C62.3798 31.2594 62.2431 30.5867 61.9477 29.9784C61.5733 29.2063 60.9633 28.5772 60.364 27.9626C58.4857 26.0364 56.607 24.1105 54.7287 22.1843C53.9184 21.3532 52.7257 20.4571 51.721 21.0382C51.4145 21.2152 51.1891 21.5094 50.8814 21.683C50.2374 22.0468 49.4369 21.8014 48.7314 21.5803C43.5397 19.9529 36.2109 19.5021 31.6937 22.9814C27.3085 26.3594 24.2332 31.4343 23.3792 36.9129Z" fill="#EAF3EF"/>
<path d="M24.8114 54.539C25.6293 55.8324 26.6438 56.9886 27.6532 58.1385C29.2093 59.9111 30.7994 61.7121 32.8177 62.932C35.4384 64.5157 38.5676 64.9932 41.6174 65.2687C45.9474 65.6597 50.4735 65.6779 54.4402 63.8994C56.1873 63.1158 57.7748 62.0024 59.1963 60.7193C63.2891 57.0247 66.0328 51.7732 66.3588 46.2687C66.6059 42.0987 65.5056 37.9639 64.1057 34.0278C63.6032 32.6143 63.0386 31.1784 62.0246 30.0726C61.1395 29.1078 59.9608 28.4537 58.7345 27.9953C55.9254 26.9451 52.8497 26.8619 49.855 27.0266C43.0911 27.3981 36.3981 28.9839 30.1796 31.6686C28.6074 32.3469 27.0653 33.0957 25.5606 33.9132C24.6034 34.4328 23.4654 34.9489 23.0771 36.0475C22.7141 37.0734 22.7477 38.3727 22.5886 39.4449C22.3493 41.0575 22.2032 42.6857 22.1993 44.3161C22.191 47.8757 22.8874 51.4964 24.8114 54.539Z" fill="#EAF3EF"/>
<path d="M34.2392 37.3894C33.6849 37.4522 33.1157 37.6224 32.7243 38.0202C32.3516 38.3984 32.1874 38.9323 32.0829 39.4523C31.8096 40.8132 31.8614 42.2377 32.2328 43.5748C32.5291 44.6423 33.069 45.7009 33.999 46.3024C35.0067 46.9544 36.3387 46.9603 37.4622 46.5376C37.7483 46.4297 38.0285 46.2939 38.2581 46.0919C38.4852 45.8919 38.6546 45.636 38.8137 45.3788C40.2425 43.0722 39.8507 40.915 39.5735 40.1591C39.2463 39.266 38.3409 38.2995 37.441 37.9747C36.3977 37.5978 35.3654 37.2616 34.2392 37.3894Z" fill="white"/>
<path d="M55.1535 37.3275C55.7078 37.3908 56.277 37.561 56.6684 37.9583C57.0406 38.3365 57.2053 38.8705 57.3098 39.3909C57.5831 40.7513 57.5313 42.1763 57.1599 43.5133C56.8636 44.5804 56.3237 45.6391 55.3933 46.241C54.3856 46.8929 53.054 46.8989 51.9305 46.4757C51.644 46.3683 51.3638 46.2325 51.1342 46.0304C50.9075 45.8305 50.7381 45.5741 50.5785 45.3169C49.1502 43.0108 49.5416 40.8532 49.8187 40.0972C50.1464 39.2041 51.0518 38.238 51.9517 37.9129C52.9946 37.536 54.0269 37.1998 55.1535 37.3275Z" fill="white"/>
<path d="M40.3303 47.3973C39.6003 48.0043 38.9041 48.7093 38.0004 49.001C37.421 49.1877 36.6799 49.2756 36.4605 49.8435C36.2894 50.288 36.5589 50.7702 36.8183 51.17C37.3026 51.9175 37.7874 52.665 38.2721 53.4125C38.5005 53.7648 38.7314 54.1201 39.0285 54.4163C39.6109 54.9983 40.4021 55.312 41.1691 55.6099C42.139 55.9873 43.1272 56.3689 44.1654 56.4398C44.7257 56.478 45.2894 56.4241 45.8425 56.3281C48.2645 55.9071 50.5936 54.584 51.881 52.4901C52.2117 51.9527 52.4752 51.3563 52.513 50.7269C52.5512 50.0969 52.3348 49.4293 51.8453 49.0311C51.3479 48.6262 50.6623 48.5536 50.0876 48.2688C49.5647 48.009 49.1487 47.5815 48.7038 47.2038C47.6176 46.2805 45.9478 45.2788 44.4787 45.2058C43.1051 45.1374 41.3291 46.5671 40.3303 47.3973Z" fill="#FBD132"/>
<path d="M39.6476 59.5882C39.7809 60.6133 40.6094 61.5853 41.6422 61.6307C41.705 61.6337 41.7695 61.6337 41.834 61.6337C42.0734 61.6333 42.3171 61.6332 42.5 61.7771C42.6308 61.8799 42.7029 62.0378 42.7861 62.1812C43.1788 62.8578 43.9364 63.3069 44.7183 63.3265C45.4998 63.3464 46.2791 62.9355 46.7052 62.2797C47.3356 61.309 47.1531 60.0419 46.9472 58.9026C46.8245 58.226 46.7023 57.549 46.58 56.8728C46.5499 56.7064 46.5079 56.5214 46.3661 56.4297C46.2438 56.3507 46.0859 56.3673 45.9412 56.383C45.1279 56.4726 44.304 56.4552 43.495 56.3342C42.7025 56.2153 41.885 55.7136 41.2003 56.1988C40.148 56.9446 39.4787 58.2859 39.6476 59.5882Z" fill="#F2547B"/>
<path d="M52.2241 19.0273C51.8106 20.5311 51.3866 22.0597 50.5563 23.3802C49.7261 24.7007 48.4153 25.8073 46.869 26.0102C45.843 26.1447 44.809 25.8782 43.8247 25.5594C43.0908 25.3221 42.3475 25.0432 41.7715 24.5305C41.4133 24.2117 41.1353 23.8161 40.8394 23.4392C40.0898 22.4833 39.1895 21.6161 38.0922 21.094C36.9954 20.5723 35.6804 20.428 34.5598 20.8987C33.9125 21.1704 33.2452 21.6466 32.5767 21.431C32.134 21.2884 31.8407 20.875 31.6055 20.4734C31.2171 19.8096 30.8899 19.0714 30.9238 18.3031C30.9578 17.5344 31.4472 16.7423 32.1985 16.5776C31.2799 14.6548 31.2014 12.3482 31.9871 10.3668C32.0775 10.1389 32.1866 9.90585 32.3819 9.75728C32.6162 9.57985 32.9315 9.55735 33.2253 9.5739C34.5131 9.64648 35.7462 10.3766 36.4292 11.4709C36.7293 11.9514 36.9856 12.5452 37.526 12.7146C37.6423 11.3991 38.3367 10.1452 39.3898 9.34894C40.4434 8.55221 41.839 8.22579 43.1366 8.47198C43.9176 8.62054 44.6469 8.96183 45.3604 9.31244C47.1508 10.1936 48.9561 11.2013 50.1658 12.788C50.6854 13.4697 51.078 14.2375 51.4677 15.0007C52.0607 16.1617 52.5785 17.7381 52.2241 19.0273Z" fill="#F2547B"/>
<path d="M39.8273 3.44192C40.7153 2.38202 41.8334 1.48426 43.1369 1.02286C44.4405 0.561462 45.941 0.571239 47.1638 1.2177C47.7199 1.51144 48.2046 1.92529 48.6461 2.37353C50.3482 4.10197 51.4425 6.37075 51.9926 8.73377C52.5423 11.0964 52.5703 13.5557 52.339 15.971C52.2621 16.7724 52.1526 17.5882 51.7965 18.3102C51.4408 19.0322 50.796 19.6553 50.0023 19.7886C49.3193 19.9037 48.6363 19.652 47.9589 19.5076C47.1583 19.3374 46.3234 19.3141 45.5521 19.0399C44.7856 18.7674 44.1268 18.2627 43.4824 17.7656C42.1997 16.777 40.9169 15.788 39.6342 14.7994C37.8009 13.3859 37.1829 11.8625 37.354 9.581C37.5212 7.3466 38.3858 5.16144 39.8273 3.44192Z" fill="#F2547B"/>
<path d="M29.6776 45.3544C29.4472 45.3421 29.2078 45.3569 29.0027 45.4626C28.7977 45.5687 28.636 45.7835 28.6508 46.0136C28.6695 46.3073 28.9446 46.5089 29.1954 46.6634C29.5732 46.8965 29.9646 47.124 30.398 47.2191C30.8313 47.3141 31.3199 47.2581 31.6586 46.9716C32.4974 46.2627 30.0945 45.3764 29.6776 45.3544Z" fill="#F57AA1"/>
<path d="M59.3151 44.9385C59.5456 44.9262 59.7854 44.941 59.9905 45.0467C60.195 45.1524 60.3572 45.3676 60.3423 45.5977C60.3237 45.891 60.0482 46.0931 59.7977 46.2476C59.42 46.4802 59.0286 46.7077 58.5948 46.8028C58.1614 46.8983 57.6733 46.8422 57.3346 46.5557C56.4958 45.8469 58.8987 44.9606 59.3151 44.9385Z" fill="#F57AA1"/>
<path d="M16.922 62.731C14.1291 62.1011 11.3488 61.4147 8.5838 60.6723C7.11841 60.2788 5.60522 59.8658 4.10451 60.087C2.60347 60.3077 1.10836 61.3481 0.872396 62.8469C0.706429 63.9025 1.19342 64.9764 1.91599 65.7634C2.63878 66.5499 3.61553 67.0355 4.54074 67.5695H43.316C43.3746 67.6837 43.3228 67.8458 43.2176 67.9193C42.9858 68.081 40.4984 66.6683 40.1423 66.507C38.9941 65.9875 37.8421 65.4747 36.6875 64.9696C34.9816 64.223 32.588 62.5514 30.7136 63.1368C26.1556 64.56 21.4902 63.7616 16.922 62.731Z" fill="#EAF3EF"/>
<path d="M70.2938 44.8229C70.335 43.3708 70.2038 41.9119 70.3626 40.4678C70.6185 38.1426 71.616 35.96 72.8134 33.9505C74.2554 31.5311 76.0318 29.2729 78.2844 27.5827C80.5371 25.8924 83.2991 24.7981 86.115 24.8419C87.5026 24.8631 89.0349 25.2587 89.7739 26.4332C90.0541 26.878 90.1933 27.3972 90.2752 27.9163C90.6891 30.5387 89.7005 33.2319 88.1283 35.3712C86.556 37.511 84.4401 39.1804 82.3164 40.7739C83.7397 40.9517 85.1867 41.1359 86.4987 41.7162C87.8108 42.296 88.9921 43.3402 89.386 44.7197C89.7536 46.008 89.3902 47.407 88.7633 48.5909C87.3952 51.1738 84.7232 53.0219 81.8236 53.3904C83.3029 53.9014 84.5899 54.9503 85.3892 56.2958C85.6727 56.773 85.8994 57.2976 85.9444 57.8511C86.0068 58.6211 85.7096 59.3843 85.2792 60.0261C84.3501 61.412 82.7991 62.3186 81.1623 62.6434C79.5256 62.9681 77.812 62.7461 76.2334 62.2049C76.7105 63.5695 76.396 65.1804 75.4409 66.2658C74.4854 67.3511 72.959 67.5659 71.5137 67.5659H50.4974C50.4096 66.7569 50.7899 65.9118 51.4117 65.3863C51.8056 65.0535 52.29 64.8519 52.7526 64.6235C54.9 63.5649 56.9056 62.28 59.0776 61.2507C61.2106 60.24 63.1585 58.9577 64.8228 57.2747C68.0806 53.9804 70.1618 49.4768 70.2938 44.8229Z" fill="#EAF3EF"/>
<path d="M22.2812 42.2579C21.9685 42.2172 21.6444 42.1807 21.3423 42.2719C20.8618 42.4167 20.5323 42.8513 20.2699 43.2792C20.1563 43.4638 20.0463 43.6587 20.0162 43.8735C19.9521 44.3259 20.3141 44.7945 20.7681 44.8472C20.9016 44.8629 21.0859 44.8901 21.0878 45.0242C21.089 45.0934 21.033 45.1481 20.987 45.1995C20.7147 45.5034 20.684 45.9483 20.6847 46.3566C20.6852 46.7085 20.7072 47.0858 20.9208 47.366C21.1935 47.7234 21.6897 47.8112 22.1385 47.8367C22.4696 47.8554 22.8095 47.8537 23.1227 47.7446C23.8235 47.5001 24.2327 46.7917 24.5811 46.1367C24.6911 45.9304 24.8027 45.7186 24.8367 45.4873C24.8744 45.2309 24.8138 44.9711 24.7535 44.719C24.6342 44.2202 24.5115 43.713 24.253 43.2703C23.7929 42.4846 23.1125 42.3666 22.2812 42.2579Z" fill="#EAF3EF"/>
<path d="M68.2717 43.3988C68.3604 43.7379 68.197 44.1042 67.9432 44.3462C67.6893 44.5881 67.3578 44.7291 67.031 44.8551C67.4788 45.1824 67.6749 45.7911 67.5739 46.3365C67.4729 46.8815 67.1065 47.3561 66.6439 47.6621C66.5136 47.7483 66.3714 47.8239 66.2164 47.8459C66.0322 47.8714 65.8463 47.8192 65.6701 47.7593C64.8445 47.48 64.0321 46.9766 63.6845 46.1769C63.5079 45.7711 63.465 45.3208 63.4447 44.8789C63.4234 44.4086 63.4264 43.9315 63.5474 43.4769C63.805 42.5091 64.769 41.8113 65.789 41.9386C66.2474 41.9959 66.6889 42.254 67.1014 42.4446C67.5378 42.6462 68.1363 42.8813 68.2717 43.3988Z" fill="#EAF3EF"/>
<path d="M21.5425 48.7848C23.1705 56.5564 31.5661 65.682 39.9167 65.8514C40.6073 65.8658 40.5725 64.8739 39.9167 64.8008C32.0534 63.926 24.2941 56.0394 22.7268 48.4584C22.5672 47.6854 21.3807 48.0123 21.5425 48.7848Z" fill="#602915"/>
<path d="M34.1053 20.8255C26.6971 24.8091 22.7971 33.6292 21.5069 41.5854C21.3814 42.3579 22.5616 42.692 22.6911 41.9118C23.9733 34.1839 27.6339 25.8525 34.6151 21.6973C35.175 21.3641 34.6779 20.5173 34.1053 20.8255Z" fill="#602915"/>
<path d="M41.4418 65.9828C41.8811 65.9913 42.6409 66.1721 42.9525 65.7922C43.0365 65.6895 43.079 65.5418 43.0005 65.4204C42.7055 64.9633 41.9287 65.0706 41.4418 65.0278C40.8369 64.9739 40.8204 65.9709 41.4418 65.9828Z" fill="#602915"/>
<path d="M66.8412 41.7486C65.7669 32.4846 60.4593 24.3942 52.0272 20.2123C51.3948 19.8987 50.854 20.796 51.4695 21.1666C59.2211 25.8374 64.4969 32.5945 65.5585 41.7486C65.6523 42.5589 66.9363 42.5683 66.8412 41.7486Z" fill="#602915"/>
<path d="M46.9136 65.9575C57.5758 66.0785 64.8775 58.5765 66.4918 48.3391C66.6195 47.5314 65.3835 47.1837 65.2549 47.9983C63.7017 57.8481 56.9535 64.4558 46.9136 65.1935C46.4284 65.2292 46.4157 65.952 46.9136 65.9575Z" fill="#602915"/>
<path d="M44.7833 65.2155C44.5103 65.2354 44.3469 65.2804 44.1933 65.5203C44.1279 65.6217 44.13 65.7694 44.1933 65.8713L44.2323 65.9345C44.3151 66.0687 44.4734 66.1795 44.6389 66.1676C44.6869 66.1642 44.7353 66.1608 44.7833 66.1574C45.3843 66.1137 45.389 65.1718 44.7833 65.2155Z" fill="#602915"/>
<path d="M44.6907 44.835C43.3846 44.9946 42.1931 45.3914 41.1251 46.1797C39.7745 47.1763 38.7885 48.4493 37.0621 48.7978C36.7204 48.867 36.7917 49.4545 37.1458 49.4146C38.2396 49.291 39.0928 48.7745 39.9337 48.0749C41.4779 46.7905 42.7118 45.7157 44.7705 45.4246C45.1016 45.3779 45.0269 44.7938 44.6907 44.835Z" fill="#602915"/>
<path d="M36.3275 49.6039C36.1042 53.2148 40.5225 57.0202 44.0244 56.7587C44.3618 56.7333 44.4926 56.1912 44.1101 56.1242C40.8039 55.546 37.1934 53.3583 36.9188 49.6039C36.8907 49.2253 36.3508 49.2219 36.3275 49.6039Z" fill="#602915"/>
<path d="M44.4875 56.9004C44.5385 56.8983 44.5898 56.8962 44.6408 56.8937C44.8326 56.8852 44.9812 56.6254 44.8114 56.4823L44.6998 56.3881C44.4285 56.1597 44.2256 56.3779 44.2053 56.5961C44.1908 56.7532 44.2706 56.9102 44.4875 56.9004Z" fill="#602915"/>
<path d="M44.4843 45.4246C46.5281 45.7141 47.785 46.7973 49.3207 48.075C50.1637 48.7762 51.0122 49.2907 52.109 49.4146C52.4588 49.4541 52.5373 48.8675 52.1922 48.7979C50.4621 48.4485 49.485 47.1798 48.1292 46.1797C47.0613 45.3919 45.8706 44.995 44.5641 44.835C44.2313 44.7943 44.149 45.3775 44.4843 45.4246Z" fill="#602915"/>
<path d="M52.3366 49.6039C52.0619 53.3541 48.4501 55.546 45.1448 56.1242C44.7657 56.1908 44.8897 56.7333 45.231 56.7587C48.7324 57.0202 53.1507 53.2148 52.9278 49.6039C52.9041 49.2227 52.3642 49.2244 52.3366 49.6039Z" fill="#602915"/>
<path d="M44.5554 56.3881L44.4433 56.4823C44.2731 56.6254 44.4213 56.8852 44.6136 56.8937C44.6649 56.8962 44.7163 56.8983 44.7676 56.9004C44.9841 56.9102 45.0639 56.7532 45.0495 56.5961C45.0291 56.3779 44.8262 56.1597 44.5554 56.3881Z" fill="#602915"/>
<path d="M37.8197 50.651C37.7722 50.5126 37.7238 50.3657 37.6138 50.2685C37.4351 50.4973 37.4759 50.8288 37.579 51.1005C37.8078 51.7024 38.369 52.2915 39.0133 52.438C38.6729 52.1561 38.5078 51.9965 38.3117 51.699C38.0982 51.376 37.9453 51.016 37.8197 50.651Z" fill="#602915"/>
<path d="M51.4832 50.651C51.5307 50.5126 51.5795 50.3657 51.6886 50.2685C51.8677 50.4973 51.8274 50.8288 51.7238 51.1005C51.495 51.7024 50.9339 52.2915 50.2896 52.438C50.63 52.1561 50.7951 51.9965 50.9912 51.699C51.2043 51.376 51.3575 51.016 51.4832 50.651Z" fill="#602915"/>
<path d="M46.1722 56.3705C46.1811 57.6401 46.7444 58.8048 46.8883 60.0566C47.0139 61.1479 46.7448 62.3564 45.6386 62.8347C44.6348 63.269 43.5778 62.8084 43.127 61.8338C42.9114 61.3678 42.2161 61.7731 42.436 62.2379C43.2518 63.9659 45.3725 64.4465 46.8199 63.1425C48.8306 61.3309 47.3064 58.4016 46.7796 56.2886C46.6951 55.949 46.1696 56.022 46.1722 56.3705Z" fill="#602915"/>
<path d="M43.023 60.9941C43.0417 60.7348 43.1062 60.4071 43.0158 60.1592C42.9488 59.9758 42.7607 59.8884 42.5812 59.9826C42.1996 60.1838 42.1427 60.722 42.2904 61.093C42.4445 61.4797 42.9916 61.4313 43.023 60.9941Z" fill="#602915"/>
<path d="M42.3003 61.2699C41.6738 61.6066 40.8898 61.2245 40.4314 60.7793C39.7909 60.1561 39.8864 59.286 40.2569 58.5449C40.6801 57.6993 41.4013 57.0363 41.7235 56.1428C41.844 55.8087 41.4068 55.6462 41.1835 55.8287C40.0103 56.7863 38.52 58.9876 39.2284 60.5683C39.7713 61.7793 41.473 62.6172 42.6726 61.9062C43.0813 61.6639 42.7184 61.0454 42.3003 61.2699Z" fill="#602915"/>
<path d="M49.4897 25.3835C53.8723 21.0586 53.7433 11.7271 51.6795 6.3881C50.2214 2.61712 46.009 -2.30502 41.8696 1.19982C41.5937 1.43371 41.8878 1.91419 42.2215 1.80426C53.0246 -1.74643 53.773 19.5649 48.8237 24.7179C48.4039 25.1547 49.0571 25.8101 49.4897 25.3835Z" fill="#602915"/>
<path d="M40.428 2.154C37.9499 4.8481 36.1922 9.0478 37.4457 12.7054C37.5849 13.1121 38.2641 13.0764 38.2365 12.5985C38.0149 8.77868 38.4504 5.7624 40.9879 2.71387C41.3083 2.32845 40.7778 1.77367 40.428 2.154Z" fill="#602915"/>
<path d="M38.0545 12.3458C36.8096 10.9302 34.9152 8.56717 32.7563 9.23231C32.1981 9.40422 32.4392 10.1729 32.9923 10.0876C34.7785 9.81213 36.3151 11.839 37.3597 13.0407C37.7748 13.5182 38.4714 12.8199 38.0545 12.3458Z" fill="#602915"/>
<path d="M32.502 9.54878C29.8801 11.0331 30.1725 15.5219 32.7083 16.9744C33.2453 17.2817 33.7258 16.5911 33.345 16.1493C32.6569 15.35 32.0292 14.6785 31.836 13.6033C31.6178 12.3872 31.8186 10.9695 32.8811 10.1969C33.2639 9.91807 32.9316 9.30556 32.502 9.54878Z" fill="#602915"/>
<path d="M32.9778 16.4222C31.4226 15.6586 30.1441 17.095 30.1733 18.6206C30.1988 19.9156 31.3776 21.9412 32.884 21.6971C33.1018 21.6619 33.2057 21.3592 33.092 21.186C32.6578 20.5247 31.8814 20.2446 31.4964 19.4907C31.0558 18.6278 31.2171 16.7317 32.6412 17.2202C33.1052 17.3794 33.4235 16.6408 32.9778 16.4222Z" fill="#602915"/>
<path d="M48.2068 25.4668C46.8145 25.6829 45.3284 26.008 43.9672 25.4804C42.8084 25.0309 42.2328 24.0474 41.2981 23.3088C41.0226 23.0911 40.5201 23.3746 40.7624 23.7223C42.7124 26.5216 45.2126 26.9189 48.3638 26.0369C48.739 25.932 48.5743 25.4095 48.2068 25.4668Z" fill="#602915"/>
<path d="M40.6578 22.6019C40.6056 22.4155 40.513 22.2827 40.3326 22.202C39.9548 22.0331 39.6199 22.5692 40.0011 22.7691L40.0346 22.7738C40.1785 23.1554 40.7719 23.0098 40.6578 22.6019Z" fill="#602915"/>
<path d="M39.5216 21.7077C39.0692 20.8545 38.1697 20.4194 37.238 20.2963C36.4285 20.1898 35.0779 20.0722 34.4501 20.6775C34.2905 20.8312 34.375 21.0948 34.5766 21.1567C35.2324 21.3575 35.9722 21.1139 36.6561 21.1304C37.5924 21.1533 38.3531 21.4199 39.0072 22.1046C39.2708 22.3801 39.6923 22.0299 39.5216 21.7077Z" fill="#602915"/>
<path d="M41.3814 2.53174C42.1187 2.53174 42.12 1.38567 41.3814 1.38567C40.6437 1.38567 40.6424 2.53174 41.3814 2.53174Z" fill="#602915"/>
<path d="M39.1497 39.6293C38.1318 38.5223 36.5693 37.8015 35.0221 37.9709C33.4745 38.1403 32.0466 39.322 31.907 40.7783C31.6812 40.3118 31.4532 39.8398 31.3556 39.3356C31.258 38.8317 31.3034 38.2846 31.5941 37.8508C32.042 37.1831 32.9507 36.9343 33.7886 36.8707C34.8698 36.7879 35.9819 36.9288 36.9615 37.3664C38.3878 38.0031 39.193 39.1352 39.7579 40.4612C39.6238 40.1565 39.3789 39.8785 39.1497 39.6293Z" fill="#602915"/>
<path d="M35.2822 46.5256C36.3612 46.74 37.5302 46.5197 38.4381 45.9313C38.1724 46.3019 37.7394 46.5405 37.2899 46.6865C36.3883 46.9798 35.3671 46.9344 34.499 46.5621C33.7834 46.2552 33.1042 45.7013 32.7646 45.0289C33.5694 45.6724 34.1841 46.3078 35.2822 46.5256Z" fill="#602915"/>
<path d="M39.425 42.1905C39.425 44.5947 37.9843 46.5435 36.2071 46.5435C34.4298 46.5435 32.9888 44.5947 32.9888 42.1905C32.9888 39.7868 34.4298 37.8376 36.2071 37.8376C37.9843 37.8376 39.425 39.7868 39.425 42.1905Z" fill="#602915"/>
<path d="M35.3799 32.7376C36.2492 32.814 37.0854 33.0958 37.9127 33.3734C38.0188 33.4091 38.1305 33.4452 38.2408 33.4257C38.4836 33.3828 38.6046 33.0763 38.5341 32.8399C38.4641 32.6035 38.2642 32.4307 38.0634 32.2877C37.3044 31.7473 36.3766 31.4332 35.4453 31.4578C34.514 31.482 33.5865 31.8551 32.9362 32.522C32.8042 32.6574 32.5029 33.0475 32.7329 33.2355C32.9125 33.3819 33.2189 33.1103 33.3866 33.0339C34.0055 32.7512 34.7075 32.679 35.3799 32.7376Z" fill="#602915"/>
<path d="M35.7461 41.6347C35.7465 41.8142 35.7151 42.0162 35.5703 42.1224C35.426 42.2276 35.2265 42.1971 35.0542 42.1504C34.6764 42.0477 34.3143 41.888 33.9841 41.6784C33.945 41.6537 33.9056 41.6274 33.8784 41.5901C33.8478 41.5476 33.8355 41.4941 33.8275 41.4419C33.7579 40.9975 33.9349 40.554 34.128 40.1477C34.2277 39.9376 34.4081 39.6354 34.6862 39.663C34.9073 39.6851 35.1123 39.9737 35.2346 40.1358C35.558 40.5641 35.7452 41.0968 35.7461 41.6347Z" fill="white"/>
<path d="M34.8769 42.476C34.9516 42.5112 35.028 42.5515 35.0751 42.619C35.1694 42.7536 35.1083 42.9518 34.983 43.0575C34.8574 43.1632 34.6876 43.1971 34.5246 43.2167C34.3463 43.2375 34.1566 43.2438 33.9978 43.1598C33.9537 43.1364 33.9117 43.105 33.8845 43.0626C33.8578 43.0218 33.8467 42.9726 33.8387 42.9246C33.8073 42.7425 33.7559 42.2357 34.0089 42.1979C34.261 42.1597 34.6558 42.3716 34.8769 42.476Z" fill="white"/>
<path d="M36.6468 45.8423C36.5386 45.8423 36.4223 45.8177 36.3506 45.737C36.2665 45.6415 36.2699 45.4934 36.3213 45.3771C36.3726 45.2603 36.463 45.1665 36.545 45.0693C37.0794 44.4364 37.2929 43.6028 37.6367 42.8494C37.7156 42.6766 37.8052 42.5026 37.9474 42.3761C38.0523 42.2831 38.1978 42.225 38.3349 42.225C38.4861 42.225 38.6266 42.2954 38.6902 42.4665C38.7658 42.6677 38.6236 42.9045 38.5926 43.1091C38.4895 43.7947 38.2704 44.3872 37.882 44.967C37.59 45.4025 37.1766 45.838 36.6524 45.8423C36.6507 45.8423 36.6485 45.8423 36.6468 45.8423Z" fill="#9B641D"/>
<path d="M50.2314 39.6293C51.2492 38.5223 52.8117 37.8015 54.3589 37.9709C55.9065 38.1403 57.3349 39.322 57.4741 40.7783C57.7003 40.3118 57.9283 39.8398 58.0259 39.3356C58.1231 38.8317 58.0781 38.2846 57.7873 37.8508C57.3391 37.1831 56.4303 36.9343 55.5924 36.8707C54.5113 36.7879 53.3992 36.9288 52.4199 37.3664C50.9937 38.0031 50.1881 39.1352 49.6235 40.4612C49.7577 40.1565 50.0022 39.8785 50.2314 39.6293Z" fill="#602915"/>
<path d="M54.0993 46.5256C53.0199 46.74 51.8509 46.5197 50.9434 45.9313C51.2091 46.3019 51.642 46.5405 52.0911 46.6865C52.9931 46.9798 54.014 46.9344 54.882 46.5621C55.5977 46.2552 56.2772 45.7013 56.6164 45.0289C55.8116 45.6724 55.1974 46.3078 54.0993 46.5256Z" fill="#602915"/>
<path d="M49.9561 42.1905C49.9561 44.5947 51.3967 46.5435 53.1739 46.5435C54.9512 46.5435 56.3923 44.5947 56.3923 42.1905C56.3923 39.7868 54.9512 37.8376 53.1739 37.8376C51.3967 37.8376 49.9561 39.7868 49.9561 42.1905Z" fill="#602915"/>
<path d="M54.0008 32.7376C53.1315 32.814 52.2953 33.0958 51.468 33.3734C51.3619 33.4091 51.2502 33.4452 51.1399 33.4257C50.8971 33.3828 50.7761 33.0763 50.8466 32.8399C50.9166 32.6035 51.1165 32.4307 51.3173 32.2877C52.0763 31.7473 53.0041 31.4332 53.9354 31.4578C54.8667 31.482 55.7942 31.8551 56.4445 32.522C56.5765 32.6574 56.8778 33.0475 56.6478 33.2355C56.4682 33.3819 56.1618 33.1103 55.9941 33.0339C55.3752 32.7512 54.6732 32.679 54.0008 32.7376Z" fill="#602915"/>
<path d="M52.6029 41.6347C52.6033 41.8142 52.5719 42.0162 52.4271 42.1224C52.2828 42.2276 52.0833 42.1971 51.911 42.1504C51.5332 42.0477 51.1711 41.888 50.8409 41.6784C50.8023 41.6537 50.7628 41.6274 50.7356 41.5901C50.7046 41.5476 50.6923 41.4941 50.6843 41.4419C50.6151 40.9975 50.7917 40.554 50.9848 40.1477C51.0845 39.9376 51.2649 39.6354 51.543 39.663C51.7645 39.6851 51.9691 39.9737 52.0918 40.1358C52.4148 40.5641 52.602 41.0968 52.6029 41.6347Z" fill="white"/>
<path d="M51.7336 42.476C51.8083 42.5112 51.8847 42.5515 51.9322 42.619C52.026 42.7536 51.9649 42.9518 51.8397 43.0575C51.714 43.1632 51.5442 43.1971 51.3812 43.2167C51.2034 43.2375 51.0132 43.2438 50.8549 43.1598C50.8103 43.1364 50.7683 43.105 50.7411 43.0626C50.7144 43.0218 50.7034 42.9726 50.6953 42.9246C50.6643 42.7425 50.613 42.2357 50.8655 42.1979C51.1176 42.1597 51.5128 42.3716 51.7336 42.476Z" fill="white"/>
<path d="M53.5037 45.8423C53.395 45.8423 53.2787 45.8177 53.2074 45.737C53.1229 45.6415 53.1263 45.4934 53.1777 45.3771C53.229 45.2603 53.3194 45.1665 53.4014 45.0693C53.9353 44.4364 54.1493 43.6028 54.4931 42.8494C54.5721 42.6766 54.662 42.5026 54.8042 42.3761C54.9087 42.2831 55.0543 42.225 55.1914 42.225C55.3425 42.225 55.483 42.2954 55.5471 42.4665C55.6222 42.6677 55.48 42.9045 55.449 43.1091C55.3463 43.7947 55.1268 44.3872 54.7384 44.967C54.4464 45.4025 54.033 45.838 53.5088 45.8423C53.5071 45.8423 53.5054 45.8423 53.5037 45.8423Z" fill="#9B641D"/>
<path d="M22.7549 41.7755C21.5285 41.528 19.9096 42.1184 19.3969 43.3693C18.8968 44.5893 20.2042 45.1292 21.1785 45.2086C21.0475 44.9802 20.9165 44.7518 20.7855 44.5239C20.2047 45.3991 20.1263 47.0117 20.8181 47.8717C21.4171 48.6166 22.8875 48.7215 23.5113 48.0003C23.8148 47.6493 23.4409 47.2138 23.0372 47.3857C21.366 48.0988 20.7971 46.1441 21.5715 44.9832C21.7782 44.6729 21.497 44.3253 21.1785 44.2985C20.5014 44.2416 20.2793 43.7301 20.6665 43.2225C21.0576 42.7097 21.9419 42.5145 22.5227 42.6176C23.0696 42.7148 23.3102 41.8875 22.7549 41.7755Z" fill="#602915"/>
<path d="M65.8283 42.6173C66.4243 42.5116 67.2724 42.7285 67.6845 43.2222C68.1217 43.746 67.8866 44.2384 67.1726 44.2982C66.8538 44.3249 66.5728 44.6726 66.7796 44.9829C67.5538 46.1438 66.985 48.0985 65.3139 47.3854C64.9132 47.2147 64.5341 47.6464 64.8397 48C65.4629 48.7207 66.9387 48.6248 67.533 47.8714C68.2168 47.005 68.1476 45.401 67.5657 44.5236C67.4345 44.7515 67.3038 44.9799 67.1726 45.2083C68.1464 45.1289 69.4575 44.5966 68.9541 43.369C68.4418 42.1194 66.8229 41.5277 65.5961 41.7752C65.0418 41.8872 65.2808 42.7149 65.8283 42.6173Z" fill="#602915"/>
<path d="M59.7554 61.7941C66.8852 59.204 72.0497 50.7719 70.3277 43.2206C70.2084 42.6981 69.432 42.8331 69.4163 43.3441C69.1672 51.5275 66.5813 56.7998 59.3874 60.9214C58.9307 61.1829 59.235 61.9834 59.7554 61.7941Z" fill="#602915"/>
<path d="M70.6252 42.5081C70.8765 38.3836 72.835 34.9118 75.2261 31.6388C77.8607 28.0316 80.4012 26.4522 84.6964 25.3902C85.4477 25.2042 85.1293 24.0569 84.3772 24.2318C80.1813 25.2076 77.4885 26.6037 74.8712 30.0695C72.0506 33.804 69.767 37.7409 69.5607 42.5081C69.5314 43.1953 70.5841 43.1886 70.6252 42.5081Z" fill="#602915"/>
<path d="M86.0758 25.1037C86.5346 24.9615 86.9947 24.9161 87.4684 25.0124C87.887 25.0982 88.2711 25.3877 88.7045 25.3406C88.9379 25.3151 89.1557 25.1152 89.0729 24.8567C88.7011 23.697 86.7014 23.7552 85.7782 24.0247C85.088 24.2263 85.3864 25.3172 86.0758 25.1037Z" fill="#602915"/>
<path d="M89.2294 25.6827C92.5598 31.1643 85.9576 37.4656 82.3831 40.6754C81.9099 41.1003 82.5334 41.928 83.0695 41.5651C87.2658 38.7216 94.1087 30.3986 89.8508 25.2031C89.5635 24.8525 88.9998 25.3045 89.2294 25.6827Z" fill="#602915"/>
<path d="M82.7149 41.9667C84.8547 41.5096 86.9469 41.7299 88.4312 43.4086C89.8795 45.0467 89.1927 47.2246 88.0857 48.9119C86.5394 51.2685 84.2086 52.3734 81.5179 52.8531C80.8922 52.9647 81.0446 53.9656 81.6669 53.952C85.7456 53.8616 89.5378 50.6017 90.3965 46.624C91.4348 41.8139 86.4048 39.7578 82.4212 40.9009C81.7335 41.0983 82.0222 42.1148 82.7149 41.9667Z" fill="#602915"/>
<path d="M81.1915 54.1716C82.4267 54.6601 83.7536 55.0761 84.7082 56.0537C86.2533 57.6369 85.235 59.3599 83.8818 60.6171C81.6457 62.6953 79.0237 62.0251 76.2944 61.9691C75.6526 61.9559 75.5299 62.9118 76.1437 63.0816C80.1448 64.1895 83.7587 63.2497 86.179 59.8578C88.5989 56.4667 84.4947 53.787 81.4814 53.1185C80.7823 52.9635 80.5476 53.9169 81.1915 54.1716Z" fill="#602915"/>
<path d="M75.5878 62.9114C76.4078 64.3504 76.2495 65.9192 74.7702 66.8259C74.3352 67.0929 73.8941 67.2244 73.3873 67.2108C73.01 67.2011 72.6254 67.1052 72.4819 67.5653C72.4267 67.7427 72.4806 67.9881 72.6262 68.1112C73.6946 69.0157 75.4154 68.1048 76.2555 67.2915C77.6919 65.9014 77.607 63.9267 76.6366 62.298C76.2368 61.627 75.1998 62.2301 75.5878 62.9114Z" fill="#602915"/>
<path d="M30.818 62.3386C26.384 63.233 22.0549 63.0373 17.6369 62.1319C14.5498 61.4995 11.5635 60.2961 8.43159 59.971C8.05156 59.9319 7.91509 60.516 8.23858 60.6832C14.8079 64.0811 23.9569 65.1261 31.1406 63.5097C31.9063 63.3374 31.5795 62.185 30.818 62.3386Z" fill="#602915"/>
<path d="M7.04265 59.7694C6.94617 59.7448 6.84952 59.7197 6.753 59.6951C6.56118 59.6454 6.35591 59.7282 6.25391 59.8984C6.1823 60.0173 6.19058 60.1068 6.20934 60.2388C6.22857 60.3751 6.38443 60.5245 6.51788 60.5474C6.6167 60.5644 6.71535 60.5814 6.81404 60.5984C7.34908 60.6909 7.58818 59.9099 7.04265 59.7694Z" fill="#602915"/>
<path d="M5.46587 59.3615C3.55627 59.0152 2.07262 59.1922 0.828204 60.8625C-0.0484084 62.0395 -0.6523 64.8448 1.28005 65.389C1.70104 65.5074 1.98225 65.0537 1.81161 64.6971C1.54929 64.1491 1.15649 63.7463 1.17491 63.0926C1.19465 62.3884 1.58181 61.7394 2.03628 61.2275C2.96795 60.1774 3.91554 60.2283 5.16823 60.4405C5.87043 60.5598 6.17702 59.491 5.46587 59.3615Z" fill="#602915"/>
<path d="M59.2185 66.6637C59.3395 66.8098 59.3166 67.0084 59.4312 67.1621C59.5433 67.3123 59.7852 67.3981 59.9312 67.2266C60.2364 66.8683 60.0467 66.435 59.7593 66.1234C59.4202 65.7562 58.9108 66.2911 59.2185 66.6637Z" fill="#602915"/>
<path d="M29.7007 66.8359C29.6243 66.9004 29.5763 66.9628 29.5335 67.0528C29.286 67.5706 30.0212 68.021 30.3141 67.5091L30.3438 67.4794C30.7916 67.1003 30.1451 66.4598 29.7007 66.8359Z" fill="#602915"/>
<path d="M79.7477 41.1787C80.3301 41.0208 81.1243 41.188 81.5373 41.6698C81.8989 42.0913 81.7185 42.8209 81.6349 43.2985C81.4808 44.1792 81.1646 44.8223 80.606 45.5197C80.412 45.7621 80.5814 46.2375 80.9468 46.1051C82.3247 45.6067 82.6753 43.6232 82.668 42.3205C82.66 40.7873 80.8717 39.9919 79.5397 40.4244C79.0635 40.5789 79.2579 41.3115 79.7477 41.1787Z" fill="#602915"/>
<path d="M42.2768 48.1906C42.3545 48.2555 42.4131 48.3043 42.5061 48.3451C42.7022 48.4312 42.9878 48.3357 42.9713 48.0781C42.9577 47.8607 42.8983 47.7449 42.7013 47.6404C42.3673 47.4643 41.9568 47.9244 42.2768 48.1906Z" fill="#602915"/>
<path d="M46.8181 47.9803L46.8028 48.0397C46.7752 48.1471 46.838 48.3029 46.9616 48.3198L47.015 48.3271C47.2455 48.358 47.4701 48.1462 47.3338 47.9128C47.2128 47.7061 46.8792 47.743 46.8181 47.9803Z" fill="#602915"/>
<path d="M43.356 23.2705C43.2804 23.2705 43.201 23.2641 43.1179 23.2506C42.2069 23.102 41.5507 22.2051 40.9361 21.5973C40.2209 20.8892 39.4594 20.1804 38.4882 19.8489C37.9491 19.6651 37.3778 19.6086 36.806 19.6086C36.6392 19.6086 36.4724 19.6133 36.3064 19.6214C35.4626 19.6613 34.6225 19.7763 33.7995 19.9648C33.7715 18.9808 34.6357 18.0585 35.6192 18.0224C35.5712 17.6586 35.5233 17.2872 35.5941 16.9272C35.665 16.5673 35.8777 16.2146 36.216 16.0728C36.3353 16.0231 36.4601 16.0023 36.5866 16.0023C36.8582 16.0023 37.1388 16.0978 37.3926 16.2078C38.5183 16.6938 39.5222 17.4578 40.2896 18.4137C40.1517 17.3971 40.1725 16.3597 40.3469 15.3491C41.3924 16.1547 42.4374 16.9604 43.4829 17.766C43.8361 18.0385 44.1935 18.3131 44.5704 18.5508C44.7321 19.8599 45.0717 23.2709 43.356 23.2705Z" fill="#EA2C4A"/>
<path d="M44.5701 18.5513C44.1932 18.3136 43.8358 18.0389 43.4827 17.7664C42.4372 16.9608 41.3921 16.1551 40.3467 15.3495C40.4549 14.7217 40.6226 14.1045 40.848 13.5086C40.938 13.2709 41.0454 13.0251 41.2487 12.8723C41.39 12.7662 41.5573 12.7208 41.7304 12.7208C41.9987 12.7208 42.2806 12.8299 42.5 12.9916C43.014 13.3706 43.3057 13.9755 43.5451 14.5681C44.0353 15.7825 44.3804 17.0584 44.546 18.3581C44.5536 18.4159 44.5617 18.4804 44.5701 18.5513Z" fill="#EA2C4A"/>
<path d="M48.9633 11.5762C48.7145 11.5762 48.4488 11.4849 48.2285 11.3614C46.6567 10.4806 46.0815 8.46269 44.6587 7.35822C43.8701 6.74571 42.8828 6.46215 41.9285 6.16757C41.7465 6.11112 41.5593 6.05127 41.4098 5.93242C41.0495 5.64548 41.0147 5.10556 41.1182 4.6569C41.3207 3.7757 41.9561 3.00572 42.7826 2.63941C43.182 2.4624 43.5895 2.38302 43.997 2.38302C46.0489 2.38302 48.0795 4.39756 48.8983 6.05893C49.572 7.42614 49.8109 8.98012 49.7553 10.5035C49.7439 10.8266 49.7035 11.1835 49.4633 11.4C49.3236 11.5256 49.1479 11.5762 48.9633 11.5762Z" fill="#F798B5"/>
<path d="M35.1128 13.8594C34.3161 13.8594 33.1378 12.9697 32.8712 12.5108C32.3691 11.6466 33.0622 11.0269 33.8292 11.0269C34.1344 11.0269 34.4515 11.1254 34.7092 11.3452C35.1239 11.6988 35.4596 12.1441 35.6867 12.6394C35.7924 12.8699 35.8752 13.1331 35.7945 13.3733C35.677 13.7235 35.424 13.8594 35.1128 13.8594Z" fill="#F798B5"/>
<path d="M32.6126 18.5542C32.5956 18.5542 32.5786 18.5533 32.562 18.5521C32.3621 18.5364 32.1575 18.482 32.0039 18.3526C31.8506 18.2227 31.7598 18.0062 31.8201 17.8143C31.8995 17.5626 32.1312 17.4722 32.3876 17.4722C32.6622 17.4722 32.9649 17.5766 33.1355 17.6993C33.6703 18.0843 33.0748 18.5542 32.6126 18.5542Z" fill="#F798B5"/>
<path d="M44.0367 50.5664C43.8551 50.5664 43.6607 50.5095 43.4934 50.4352C42.9115 50.1755 42.4012 49.7569 42.032 49.2378C41.8477 48.9785 41.6954 48.6864 41.6576 48.3706C41.5905 47.8108 41.9 47.256 42.3363 46.899C42.6381 46.6511 43.2956 46.2326 43.8118 46.2326C44.0151 46.2326 44.1963 46.2975 44.3258 46.4635C44.4319 46.5997 44.4862 46.7687 44.5317 46.9355C44.7961 47.9016 44.8415 48.9271 44.6641 49.9127C44.6314 50.0918 44.5868 50.2803 44.4578 50.4094C44.3449 50.5227 44.1959 50.5664 44.0367 50.5664ZM42.5447 47.6015C42.2582 47.6015 42.0061 47.9657 42.2769 48.1907C42.3546 48.2556 42.4131 48.3044 42.5061 48.3452C42.5532 48.366 42.6054 48.3761 42.6576 48.3761C42.8219 48.3761 42.984 48.2738 42.9713 48.0782C42.9577 47.8608 42.8983 47.745 42.7013 47.6405C42.65 47.6134 42.5965 47.6015 42.5447 47.6015Z" fill="#FBE971"/>
<path d="M42.6576 48.376C42.6054 48.376 42.5532 48.3658 42.5061 48.345C42.4131 48.3042 42.3545 48.2554 42.2769 48.1905C42.006 47.9655 42.2582 47.6013 42.5447 47.6013C42.5965 47.6013 42.65 47.6132 42.7013 47.6404C42.8983 47.7448 42.9577 47.8607 42.9713 48.078C42.984 48.2737 42.8219 48.376 42.6576 48.376Z" fill="#9B641D"/>
<path d="M44.7566 55.9209C43.2735 55.9209 41.8558 55.2749 40.5514 54.5545C40.2339 54.3792 39.9181 54.198 39.629 53.979C38.761 53.3231 38.1782 52.3711 37.7096 51.3816C37.9069 51.7356 38.2104 52.0604 38.5657 52.262C38.7992 52.5158 39.0577 52.7471 39.3344 52.9526C40.4113 53.7506 41.7318 54.1662 43.0596 54.3474C43.5965 54.4208 44.1386 54.4573 44.6802 54.4573C46.6769 54.4573 48.674 53.9645 50.4343 53.0209C50.2407 53.4017 49.8897 53.6738 49.5455 53.9259C48.1808 54.9251 46.651 55.8483 44.9612 55.9167C44.8929 55.9196 44.8245 55.9209 44.7566 55.9209ZM37.5703 51.0798C37.5546 51.0446 37.5389 51.0094 37.5232 50.9741C37.4001 50.6961 37.2516 50.3867 37.2295 50.0832C37.3445 50.1294 37.4426 50.2564 37.5304 50.4194C37.4557 50.6231 37.4935 50.868 37.5703 51.0798Z" fill="#F9AF15"/>
<path d="M38.566 52.2612C38.2107 52.0596 37.9072 51.7349 37.7098 51.3809C37.6623 51.2807 37.616 51.1801 37.5706 51.0791C37.4938 50.8673 37.456 50.6224 37.5307 50.4186C37.7234 50.7777 37.8648 51.313 38.0171 51.5507C38.1789 51.8028 38.3631 52.0405 38.566 52.2612Z" fill="#311713"/>
<path d="M41.866 61.2021C41.6779 61.2021 41.481 61.1482 41.3044 61.0786C40.6571 60.8239 40.031 60.2967 39.9966 59.6023C39.9703 59.0683 40.2946 58.5917 40.621 58.1629C40.9287 58.3192 41.2484 58.4512 41.5803 58.5505C41.8384 58.6277 42.1011 58.6842 42.3664 58.7237C42.0001 59.0407 41.7437 59.4618 41.7174 59.9419C41.6932 60.3867 41.8927 60.8549 42.2726 61.0875C42.1512 61.1699 42.0111 61.2021 41.866 61.2021ZM44.1178 57.0538C44.0359 57.0538 43.9535 57.053 43.8716 57.0508C43.2039 57.033 42.54 56.9239 41.8999 56.7342C41.9691 56.7176 42.0409 56.713 42.113 56.713C42.1478 56.713 42.1826 56.7138 42.2166 56.7155C43.1046 56.7546 43.9696 57.0101 44.8593 57.0288C44.8627 57.0288 44.8661 57.0292 44.8699 57.0292C44.9739 57.0292 45.1217 57.0003 45.2762 56.9719C45.4307 56.9434 45.592 56.915 45.7236 56.915C45.7949 56.915 45.8577 56.9235 45.9056 56.9447C45.9574 56.9672 45.9982 57.0024 46.0309 57.0466C45.8882 57.0419 45.7456 57.0351 45.603 57.0322C45.5313 57.0305 45.46 57.0296 45.3882 57.0296C45.1768 57.0296 44.965 57.0356 44.7532 57.0419C44.5414 57.0479 44.3296 57.0538 44.1178 57.0538Z" fill="#EA2C4A"/>
<path d="M45.5064 61.9707C45.2322 61.9707 44.9677 61.7827 44.8285 61.539C44.6689 61.2601 44.6426 60.9248 44.6494 60.6035C44.6566 60.2563 44.7008 59.901 44.8578 59.5911C44.9784 59.3539 45.1753 59.1429 45.43 59.0665C45.5246 59.0381 45.6108 59.0249 45.6893 59.0249C46.6198 59.0249 46.5022 60.8624 46.2259 61.4091C46.0994 61.6591 45.9012 61.9007 45.6269 61.9584C45.5866 61.9665 45.5467 61.9707 45.5064 61.9707Z" fill="#F798B5"/>
<path d="M47.3335 58.1333C47.2125 57.7364 47.0856 57.348 46.9727 56.9758C47.3801 56.8803 47.7673 56.6999 48.148 56.5216C48.7058 56.2601 49.2652 55.9978 49.7771 55.6544C50.1532 55.4023 50.5008 55.1081 50.8158 54.7825C51.4054 54.1734 51.877 53.4607 52.3201 52.7383C51.6227 54.8415 50.1782 56.7355 48.2079 57.7496C47.9243 57.8956 47.6319 58.0229 47.3335 58.1333Z" fill="#DAE7E2"/>
<path d="M43.4512 58.7993C43.0874 58.7993 42.7245 58.7772 42.3667 58.7238C42.646 58.4818 42.9894 58.301 43.3426 58.2012C43.7195 58.0955 44.107 58.0603 44.498 58.0603C44.9543 58.0603 45.4152 58.1079 45.8698 58.1456C45.8902 58.1469 45.911 58.1486 45.9314 58.1486C45.9849 58.1486 46.0371 58.1397 46.0744 58.1036C46.1186 58.0603 46.1254 57.9928 46.13 57.9309C46.1449 57.7072 46.1933 57.2661 46.0311 57.0467C46.0961 57.0488 46.161 57.0501 46.226 57.0505C46.2909 57.5034 46.4068 57.9466 46.5252 58.3901C45.9106 58.5553 45.2786 58.6626 44.6461 58.7306C44.2501 58.7726 43.8502 58.7993 43.4512 58.7993Z" fill="#EA2C4A"/>
<path d="M46.5253 58.3896C46.4069 57.9461 46.291 57.5029 46.2261 57.05C46.2384 57.05 46.2511 57.0504 46.2634 57.0504C46.4116 57.0504 46.5597 57.0441 46.707 57.0246C46.7966 57.0127 46.8853 56.9961 46.9727 56.9753C47.0856 57.3476 47.2125 57.736 47.3335 58.1328C47.0686 58.2309 46.7987 58.3162 46.5253 58.3896Z" fill="#311713"/>
<path d="M39.6948 57.604C39.3705 57.3782 39.0598 57.1316 38.7601 56.8756C38.1616 56.3645 37.5869 55.7962 37.2439 55.0882C37.1284 54.8492 36.6356 53.198 37.1288 53.1263C37.131 53.1263 37.1335 53.1259 37.1361 53.1259C37.3462 53.1259 38.1331 54.3636 38.3199 54.5572C39.0025 55.266 39.8149 55.8492 40.7029 56.2737C40.3433 56.646 39.9855 57.1053 39.6948 57.604Z" fill="#DAE7E2"/>
<path d="M40.6214 58.1631C40.584 58.144 40.5467 58.1249 40.5098 58.1049C40.8341 57.5977 41.2292 57.135 41.5128 56.6087C41.5595 56.6252 41.6062 56.6414 41.6533 56.6566C41.7352 56.6838 41.8176 56.7097 41.9003 56.7343C41.8736 56.7407 41.8468 56.7488 41.821 56.7594C41.6486 56.8281 41.5272 56.9822 41.4139 57.1295C41.1656 57.4534 40.9173 57.7768 40.6694 58.1003C40.6532 58.1211 40.6371 58.1419 40.6214 58.1631Z" fill="#EA2C4A"/>
<path d="M40.5094 58.105C40.2284 57.956 39.9571 57.7866 39.6948 57.6041C39.9856 57.1054 40.3434 56.6461 40.7029 56.2738C40.9665 56.3999 41.2369 56.5119 41.5124 56.6087C41.2289 57.1351 40.8337 57.5977 40.5094 58.105Z" fill="#311713"/>
<path d="M42.3665 58.7236C42.1012 58.6842 41.8385 58.6277 41.5804 58.5504C41.2485 58.4511 40.9288 58.3191 40.6211 58.1629C40.6368 58.1417 40.6529 58.1209 40.6691 58.1001C40.9169 57.7766 41.1653 57.4532 41.4136 57.1293C41.5269 56.982 41.6483 56.828 41.8206 56.7592C41.8465 56.7486 41.8733 56.7405 41.9 56.7342C42.5401 56.9239 43.204 57.033 43.8717 57.0508C43.9536 57.0529 44.0359 57.0538 44.1179 57.0538C44.3297 57.0538 44.5415 57.0478 44.7533 57.0419C44.9651 57.0355 45.1769 57.0296 45.3883 57.0296C45.46 57.0296 45.5313 57.0304 45.6031 57.0321C45.7457 57.0351 45.8883 57.0419 46.031 57.0466C46.1931 57.266 46.1447 57.707 46.1299 57.9307C46.1252 57.9927 46.1184 58.0602 46.0742 58.1035C46.0369 58.1396 45.9847 58.1485 45.9312 58.1485C45.9108 58.1485 45.89 58.1468 45.8697 58.1455C45.415 58.1077 44.9541 58.0602 44.4978 58.0602C44.1068 58.0602 43.7193 58.0954 43.3424 58.2011C42.9892 58.3009 42.6458 58.4817 42.3665 58.7236Z" fill="#DC1D27"/>
<path d="M38.8349 37.2104C37.4448 36.2189 35.7554 35.6518 34.0482 35.6038C33.9811 35.6017 33.914 35.6009 33.8466 35.6009C33.2166 35.6009 32.5757 35.6904 32.0362 36.0084C31.9755 35.2927 32.4339 34.645 32.897 34.0961C33.2578 33.6687 33.6632 33.2378 34.1989 33.0761C34.4391 33.0035 34.6925 32.99 34.9442 32.99C34.9667 32.99 34.9892 32.99 35.0121 32.99C36.1714 32.9997 37.3162 33.2107 38.0369 34.1619C38.3918 34.6301 38.7152 35.0236 38.8646 35.6111C38.9342 35.8831 38.9673 36.165 38.9601 36.4456C38.958 36.5203 38.8319 37.2083 38.8349 37.2104Z" fill="#DAE7E2"/>
<path d="M50.5603 37.1479C50.5637 37.1454 50.4372 36.4573 50.435 36.3831C50.4278 36.1021 50.4614 35.8202 50.5305 35.5481C50.6804 34.9611 51.0034 34.5676 51.3583 34.099C52.079 33.1482 53.2238 32.9368 54.3834 32.9275C54.4059 32.9275 54.4284 32.927 54.4509 32.927C54.7027 32.927 54.9561 32.941 55.1967 33.0136C55.732 33.1749 56.1374 33.6058 56.4982 34.0332C56.9617 34.582 57.4197 35.2302 57.359 35.9459C56.8195 35.6279 56.1785 35.5379 55.5486 35.5379C55.4811 35.5379 55.4141 35.5392 55.347 35.5409C53.6398 35.5889 51.9504 36.156 50.5603 37.1479Z" fill="#DAE7E2"/>
<path d="M43.753 64.8022C40.6115 64.8022 30.9999 64.0009 26.624 54.5666C26.624 54.5666 33.5743 62.5742 43.4084 63.4002C43.8651 63.7173 44.4012 63.8854 44.9471 63.8854C45.5621 63.8854 46.1895 63.6723 46.7315 63.219C50.1795 62.5772 58.092 60.4043 62.9131 53.5394C62.9131 53.5394 60.0374 64.7687 44.7684 64.7687C44.7684 64.7687 44.3965 64.8022 43.753 64.8022Z" fill="#DAE7E2"/>
<path d="M44.9469 63.8857C44.401 63.8857 43.8649 63.7176 43.4082 63.4006C43.943 63.4451 44.4859 63.4689 45.0369 63.4689C45.0369 63.4689 45.674 63.4163 46.7314 63.2193C46.1893 63.6727 45.562 63.8857 44.9469 63.8857Z" fill="#311713"/>
<path d="M50.5131 25.5669C49.8051 25.5669 50.2835 25.1794 50.5743 24.813C51.2449 23.9696 51.7679 23.0078 52.1096 21.9856C53.5018 22.8923 54.9102 23.8126 56.0308 25.0393C55.4476 24.8555 54.8465 24.6696 54.2396 24.6696C54.1445 24.6696 54.049 24.6742 53.9535 24.684C53.3393 24.7477 52.7713 25.0257 52.1864 25.2235C51.669 25.3984 51.0756 25.5635 50.525 25.5669C50.5212 25.5669 50.517 25.5669 50.5131 25.5669Z" fill="#DAE7E2"/>
<path d="M26.0615 33.644C26.8014 32.1351 27.6622 30.6689 28.5196 29.2368C29.105 28.2597 29.7196 27.2885 30.5146 26.4726C30.9731 26.0023 31.5843 25.5656 32.2138 25.5656C32.3343 25.5656 32.4553 25.5817 32.5763 25.6165C33.2673 25.8156 33.6655 26.5945 33.6374 27.3131C33.6094 28.0317 33.2478 28.6935 32.8475 29.2907C32.4022 29.9541 31.9005 30.5717 31.3738 31.1685C30.9739 31.3307 30.5757 31.4975 30.1793 31.6686C28.7811 32.2717 27.4071 32.9309 26.0615 33.644Z" fill="#F6FAF9"/>
<path d="M25.6724 37.6533C24.6775 37.6533 25.2709 35.3799 25.5205 34.809C25.692 34.4176 25.8728 34.0292 26.0617 33.6438C27.4072 32.9307 28.7813 32.2715 30.1795 31.6683C30.5759 31.4973 30.9741 31.3304 31.3739 31.1683C30.7071 31.9243 30.0003 32.6467 29.3174 33.3866C28.7066 34.0483 28.1047 34.7207 27.5694 35.4457C27.1971 35.9508 26.6203 37.3587 26.0197 37.5816C25.8868 37.6308 25.7718 37.6533 25.6724 37.6533Z" fill="#F6FAF9"/>
<path d="M81.7242 39.7734C81.56 39.7734 81.3948 39.7586 81.2318 39.7437C80.3494 39.6631 79.4669 39.5824 78.5844 39.5018C78.1332 39.461 77.5559 39.2968 77.5339 38.8443C77.5105 38.3735 78.1073 38.166 78.5713 38.0845C79.6409 37.8964 80.6915 37.6002 81.7034 37.2058C83.4739 36.5156 85.1289 35.5241 86.5678 34.2821C86.7555 34.1199 86.9872 33.8135 87.2351 33.8135C87.3132 33.8135 87.3934 33.844 87.4741 33.9196C87.7861 34.2104 87.4367 34.6964 87.2741 34.9778C86.806 35.7868 86.1306 36.4583 85.4545 37.0938C84.7222 37.7814 83.9718 38.4499 83.2039 39.0981C82.897 39.3566 82.5744 39.6189 82.186 39.7204C82.0354 39.7599 81.8804 39.7734 81.7242 39.7734Z" fill="#DAE7E2"/>
<path d="M61.5246 67.0854C61.0263 67.0854 60.5275 67.0812 60.0292 67.0757C60.1824 66.7518 60.0071 66.3923 59.7588 66.1232C59.7512 66.1151 59.7435 66.1075 59.7363 66.1003C59.8586 65.728 59.9812 65.3553 60.1039 64.9831C60.2584 64.5136 60.4184 64.0344 60.7219 63.6443C61.1935 63.0377 61.941 62.7317 62.5951 62.3289C63.6427 61.6837 64.4849 60.7596 65.3024 59.8402C67.9672 56.8422 70.6048 53.6162 71.6223 49.7361C71.7743 49.1567 71.953 48.4852 72.5014 48.2441C72.6385 48.1834 72.787 48.1618 72.9373 48.1482C73.4611 47.8799 74.1687 47.7734 74.5384 47.7662C74.6055 47.7649 74.6721 47.7641 74.7392 47.7641C75.3682 47.7641 75.9965 47.8201 76.6242 47.8757C77.2525 47.9317 77.8807 47.9873 78.5102 47.9873C78.5721 47.9873 78.6345 47.9869 78.6965 47.9856C81.0481 47.9428 83.2931 47.0522 85.4591 46.1362C85.7813 46 86.1124 45.8607 86.4613 45.8514C86.4719 45.851 86.483 45.851 86.4936 45.851C86.8336 45.851 87.1922 46.0008 87.3459 46.3026C87.4333 46.4758 87.4452 46.677 87.4376 46.8706C87.39 48.0506 86.6791 49.116 85.8051 49.9106C83.6339 51.8848 80.5332 52.4617 77.5992 52.527C77.5207 52.5287 77.4418 52.5296 77.362 52.5296C77.0173 52.5296 76.6633 52.5126 76.3144 52.4718C76.6484 53.1726 77.1166 53.8161 77.6684 54.3633C78.6876 55.3731 79.9614 56.0896 81.2722 56.6724C81.9 56.9517 82.594 57.2522 82.8936 57.8707C83.285 58.6784 82.7748 59.6967 82.0006 60.1522C81.38 60.5172 80.6482 60.6064 79.9202 60.6064C79.7403 60.6064 79.5603 60.6008 79.3824 60.5928C77.8437 60.5232 76.3123 60.2944 74.8202 59.9115C74.7213 59.886 74.6169 59.8606 74.5159 59.8606C74.4527 59.8606 74.3907 59.8703 74.3325 59.8971C74.1823 59.9658 74.0978 60.1271 74.0422 60.2825C73.7502 61.0941 73.9412 62.0109 74.3211 62.7852C74.5507 63.2521 74.8542 63.7152 74.8525 64.2351C74.8508 64.8591 74.3911 65.4084 73.8393 65.6996C73.2875 65.9912 72.6529 66.0731 72.034 66.1508C70.7267 66.315 69.4202 66.4789 68.1132 66.6432C67.1433 66.7646 66.1725 66.8864 65.198 66.9632C63.9763 67.0596 62.7509 67.0854 61.5246 67.0854ZM72.1448 54.9015C70.8086 54.9015 69.7988 56.4916 68.977 57.5684C66.9536 60.2188 64.7799 62.8815 61.8578 64.4881C61.6367 64.6104 61.3786 64.7797 61.3926 65.0323C61.4083 65.3205 61.7576 65.4487 62.0425 65.4962C62.7501 65.6147 63.4666 65.6728 64.1835 65.6728C66.5792 65.6728 68.9766 65.0217 71.0289 63.7844C71.2101 63.6753 71.4126 63.5136 71.3838 63.3039C71.368 63.1871 71.281 63.0942 71.2021 63.0067C70.3162 62.0232 69.9376 60.471 70.6452 59.3529C70.8158 59.0829 71.0628 58.8372 71.3761 58.7756C71.4343 58.7642 71.4933 58.7595 71.5523 58.7595C71.6779 58.7595 71.8048 58.7807 71.9288 58.8036C73.4 59.0766 74.9073 59.6076 76.3679 59.6076C76.8908 59.6076 77.4074 59.5397 77.9146 59.3673C78.1748 59.2791 78.4711 59.0914 78.4397 58.8185C78.4206 58.6534 78.2843 58.5303 78.154 58.4271C76.6527 57.2348 74.844 56.2339 73.2098 55.2317C72.8329 55.0008 72.4789 54.9015 72.1448 54.9015ZM74.9395 50.1317C74.4832 50.1317 74.0337 50.1848 73.6907 50.3915C72.8881 50.8741 73.6186 51.2863 74.2748 51.4544C74.5885 51.535 74.9081 51.5622 75.2307 51.5622C75.8458 51.5622 76.4693 51.4641 77.075 51.4514C77.1332 51.4501 77.1913 51.4497 77.2495 51.4497C77.3437 51.4497 77.4384 51.451 77.533 51.4523C77.6281 51.4535 77.7228 51.4548 77.8178 51.4548C78.0513 51.4548 78.2843 51.4472 78.5157 51.4141C78.9915 51.3453 79.4741 51.1488 79.7594 50.7617C79.8209 50.678 79.8744 50.5757 79.8502 50.4747C79.8082 50.2969 79.5773 50.257 79.3943 50.2531C78.3344 50.2328 77.2741 50.2115 76.2142 50.1907C75.8462 50.1835 75.3895 50.1317 74.9395 50.1317Z" fill="#DAE7E2"/>
<path d="M60.0291 67.0757C59.8253 67.0736 59.6212 67.071 59.417 67.0685C59.5235 66.7459 59.6297 66.4233 59.7362 66.1003C59.7434 66.1075 59.751 66.1151 59.7587 66.1232C60.007 66.3923 60.1823 66.7518 60.0291 67.0757Z" fill="#311713"/>
<path d="M64.183 65.6729C63.4661 65.6729 62.7496 65.6147 62.042 65.4963C61.7572 65.4487 61.4079 65.3205 61.3921 65.0323C61.3781 64.7798 61.6362 64.6104 61.8574 64.4882C64.7794 62.8815 66.9531 60.2189 68.9766 57.5685C69.7983 56.4916 70.8081 54.9015 72.1444 54.9015C72.4784 54.9015 72.8324 55.0009 73.2094 55.2318C74.8436 56.2339 76.6522 57.2348 78.1536 58.4272C78.2839 58.5303 78.4201 58.6534 78.4392 58.8185C78.4707 59.0915 78.1744 59.2791 77.9142 59.3674C77.4069 59.5397 76.8904 59.6076 76.3674 59.6076C74.9068 59.6076 73.3995 59.0766 71.9283 58.8037C71.8044 58.7808 71.6775 58.7595 71.5518 58.7595C71.4928 58.7595 71.4338 58.7642 71.3757 58.7757C71.0624 58.8372 70.8154 59.083 70.6447 59.3529C69.9371 60.471 70.3158 62.0233 71.2016 63.0068C71.2806 63.0942 71.3676 63.1872 71.3833 63.3039C71.4122 63.5136 71.2097 63.6753 71.0284 63.7844C68.9761 65.0217 66.5787 65.6729 64.183 65.6729Z" fill="#C0D3CB"/>
<path d="M75.2303 51.562C74.9077 51.562 74.588 51.5348 74.2743 51.4542C73.6181 51.2861 72.8876 50.8739 73.6903 50.3913C74.0332 50.1846 74.4828 50.1316 74.9391 50.1316C75.389 50.1316 75.8457 50.1833 76.2137 50.1906C77.2736 50.2113 78.334 50.2326 79.3939 50.2529C79.5768 50.2568 79.8077 50.2967 79.8497 50.4745C79.8739 50.5756 79.8205 50.6778 79.7589 50.7615C79.4737 51.1486 78.991 51.3451 78.5152 51.4139C78.2839 51.447 78.0508 51.4546 77.8174 51.4546C77.7223 51.4546 77.6277 51.4533 77.5326 51.4521C77.4379 51.4508 77.3433 51.4495 77.249 51.4495C77.1909 51.4495 77.1327 51.4499 77.0746 51.4512C76.4688 51.464 75.8453 51.562 75.2303 51.562Z" fill="#C0D3CB"/>
<path d="M45.2304 67.5591C44.0135 67.5591 42.9009 67.5064 41.8831 67.4135C41.1411 67.0425 40.3333 66.5938 40.1419 66.5072C39.6724 66.2946 39.2021 66.0832 38.731 65.8731C40.5732 66.1808 42.8262 66.3935 45.5369 66.3935C47.5735 66.3935 49.3635 66.2173 50.9209 65.9389C50.6963 66.2772 50.5469 66.6673 50.5002 67.0663C48.9759 67.371 47.2271 67.5591 45.2304 67.5591Z" fill="#DAE7E2"/>
<path d="M41.883 67.4136C34.0885 66.7005 31.9102 63.6133 31.9102 63.6133C31.9102 63.6133 33.9124 65.0684 38.7309 65.8732C39.2021 66.0833 39.6724 66.2947 40.1419 66.5073C40.3333 66.5939 41.1411 67.0426 41.883 67.4136Z" fill="#DAE7E2"/>
<path d="M50.5005 67.0659C50.5472 66.6669 50.6966 66.2768 50.9211 65.9385C56.8573 64.8765 59.4173 62.3212 59.4173 62.3212C59.4173 62.3212 57.0191 65.762 50.5005 67.0659Z" fill="#DAE7E2"/>
<path d="M74.439 46.6924C73.9823 46.6924 73.5447 46.5752 73.1975 46.279C72.5845 45.7552 72.4695 44.8638 72.4334 44.0586C72.3668 42.5627 72.4288 41.0474 72.8108 39.5999C73.3965 37.3812 75.0155 35.0505 76.4442 33.2571C78.0716 31.215 80.1358 29.5205 82.4641 28.3358C83.0277 28.0493 83.6305 27.7866 84.2608 27.7866C84.2803 27.7866 84.2999 27.7865 84.3194 27.7874C84.5359 27.7929 84.7579 27.8332 84.9378 27.9534C85.2651 28.1724 85.3806 28.6172 85.3122 29.0052C85.2435 29.3927 85.0249 29.7357 84.7978 30.0579C82.5795 33.2036 79.2313 35.3455 75.8856 37.2488C75.3262 37.5672 74.6784 38.0528 74.7986 38.6848C74.9 38.6623 75.0049 38.6508 75.1097 38.6508C75.4875 38.6508 75.8661 38.7977 76.0877 39.0986C76.3704 39.4836 76.2876 40.1195 75.864 40.3398C75.9833 40.3169 76.1034 40.3058 76.2235 40.3058C77.0877 40.3058 77.9324 40.8772 78.3081 41.6692C78.7355 42.5712 78.601 43.6795 78.0899 44.5369C77.5793 45.3944 76.7316 46.0158 75.8088 46.3965C75.3822 46.5727 74.9009 46.6924 74.439 46.6924Z" fill="#F6FAF9"/>
<path d="M84.7113 44.7832C84.5814 44.7832 84.4515 44.7747 84.3229 44.7577C83.884 44.6992 83.4387 44.5272 83.1599 44.1826C82.8814 43.8379 82.8216 43.2967 83.1072 42.958C83.339 42.6842 83.7686 42.5883 84.2321 42.5883C84.803 42.5883 85.4244 42.7339 85.7878 42.8701C86.6116 43.1796 86.767 44.1741 85.8646 44.5523C85.5004 44.7047 85.1056 44.7832 84.7113 44.7832Z" fill="#F6FAF9"/>
<path d="M22.7545 45.9673C22.5816 45.9673 22.4105 45.9142 22.2878 45.7949C22.0597 45.5734 22.0633 45.2083 22.118 44.8951C22.1876 44.4973 22.3543 44.0631 22.7273 43.9082C22.6018 43.8411 22.4576 43.8373 22.313 43.8373C22.3035 43.8373 22.2943 43.8373 22.2848 43.8373C22.275 43.8373 22.2652 43.8373 22.2556 43.8373C22.2172 43.8373 22.1788 43.8373 22.1411 43.8356C21.9422 43.8263 21.7118 43.7435 21.6635 43.5504C21.6017 43.3029 21.8795 43.1089 22.1235 43.0329C22.3329 42.9671 22.6343 42.9018 22.9243 42.9018C23.3297 42.9018 23.7126 43.0291 23.7903 43.4595C23.8272 43.6641 23.7975 43.881 23.8654 44.078C23.9299 44.2652 24.0776 44.4184 24.1239 44.6111C24.21 44.9694 23.9235 45.3034 23.6425 45.542C23.4494 45.7054 23.2414 45.8624 22.9988 45.9325C22.9202 45.9554 22.8371 45.9673 22.7545 45.9673Z" fill="#F6FAF9"/>
<path d="M65.5749 45.9673C65.4926 45.9673 65.4094 45.9554 65.3309 45.9325C65.0881 45.8624 64.8801 45.7054 64.687 45.542C64.406 45.3034 64.1199 44.9694 64.206 44.6111C64.2523 44.4184 64.4 44.2652 64.4645 44.078C64.532 43.881 64.5023 43.6641 64.5392 43.4595C64.6173 43.0291 64.9998 42.9018 65.4052 42.9018C65.6951 42.9018 65.9964 42.9671 66.2061 43.0329C66.4498 43.1089 66.7278 43.3029 66.6663 43.5504C66.6179 43.7435 66.3874 43.8263 66.1887 43.8356C66.1505 43.8373 66.1123 43.8373 66.0741 43.8373C66.0644 43.8373 66.0546 43.8373 66.0448 43.8373C66.0355 43.8373 66.0262 43.8373 66.0164 43.8373C65.8721 43.8373 65.7278 43.8411 65.6021 43.9082C65.9752 44.0631 66.142 44.4973 66.2116 44.8951C66.2664 45.2083 66.2698 45.5734 66.0419 45.7949C65.9192 45.9142 65.7481 45.9673 65.5749 45.9673Z" fill="#F6FAF9"/>
</svg>
