<svg width="100" height="100" viewBox="0 0 100 100" fill="none" xmlns="http://www.w3.org/2000/svg">
<circle cx="49.6278" cy="49.5526" r="44.4725" stroke="#EB9F4A" stroke-width="10"/>
<circle cx="49.6271" cy="49.5524" r="38.8713" fill="#EB9F4A" fill-opacity="0.53"/>
<path d="M87.438 64.3945L92.3067 73.9357L98.3926 67.5749L95.9583 83.4768H78.9178L76.4834 67.5749L82.5693 73.9357L87.438 64.3945Z" fill="#ECC055" stroke="#EB9F4A" stroke-linecap="round" stroke-linejoin="round"/>
<path d="M50.7246 18.9717C51.1152 19.346 51.3512 19.7285 51.4326 20.1191C51.514 20.5098 51.4896 20.8923 51.3594 21.2666C51.2292 21.6247 51.0176 21.9583 50.7246 22.2676C50.4479 22.5768 50.1468 22.8454 49.8213 23.0732C49.512 23.2848 49.2028 23.4395 48.8936 23.5371C48.5843 23.6185 48.3402 23.6185 48.1611 23.5371C47.9658 22.9512 47.6647 22.585 47.2578 22.4385C46.8672 22.292 46.4684 22.2839 46.0615 22.4141C45.6546 22.5443 45.3128 22.7803 45.0361 23.1221C44.7594 23.4476 44.6455 23.8138 44.6943 24.2207C44.7594 24.6439 44.9385 25.002 45.2314 25.2949C45.5407 25.5716 45.9232 25.7344 46.3789 25.7832C46.8509 25.832 47.3717 25.7588 47.9414 25.5635C48.5273 25.3519 49.1377 24.9694 49.7725 24.416C50.4398 23.8301 51.042 23.4883 51.5791 23.3906C52.1325 23.2767 52.6045 23.3092 52.9951 23.4883C53.3857 23.6673 53.695 23.9521 53.9229 24.3428C54.1507 24.7171 54.2646 25.0996 54.2646 25.4902C54.2809 25.8809 54.1833 26.2308 53.9717 26.54C53.7601 26.8493 53.4183 27.0202 52.9463 27.0527C51.807 27.1504 50.8385 27.3213 50.041 27.5654C49.2598 27.8096 48.5843 28.0944 48.0146 28.4199C47.445 28.7292 46.9567 29.0628 46.5498 29.4209C46.1429 29.7627 45.7604 30.0964 45.4023 30.4219C45.0605 30.7311 44.7106 30.9997 44.3525 31.2275C44.0107 31.4554 43.6038 31.61 43.1318 31.6914C42.5785 31.7728 42.1146 31.6507 41.7402 31.3252C41.3659 30.9997 41.1787 30.5846 41.1787 30.0801C41.1624 29.5755 41.374 29.0465 41.8135 28.4932C42.2529 27.9235 43.0098 27.4434 44.084 27.0527C43.1562 26.9062 42.4645 26.6377 42.0088 26.2471C41.5368 25.8564 41.2601 25.4007 41.1787 24.8799C41.0811 24.359 41.1543 23.8057 41.3984 23.2197C41.6263 22.6175 41.9681 22.0397 42.4238 21.4863C42.8958 20.9167 43.4574 20.3958 44.1084 19.9238C44.7594 19.4518 45.4512 19.0856 46.1836 18.8252C46.9323 18.5648 47.6973 18.4346 48.4785 18.4346C49.2598 18.4183 50.0085 18.5973 50.7246 18.9717ZM56.999 64.748C57.4059 65.7409 57.5768 66.6605 57.5117 67.5068C57.4629 68.3532 57.2432 69.1019 56.8525 69.7529C56.4619 70.404 55.9329 70.9329 55.2656 71.3398C54.5983 71.763 53.8659 72.0316 53.0684 72.1455C52.2871 72.2757 51.4652 72.235 50.6025 72.0234C49.7562 71.8281 48.9342 71.4375 48.1367 70.8516C47.3555 70.2656 46.6393 69.4681 45.9883 68.459C45.3535 67.4499 44.8571 66.2048 44.499 64.7236C44.1572 63.5518 43.8643 62.1927 43.6201 60.6465C43.376 59.084 43.2051 57.4238 43.1074 55.666C43.0098 53.9082 42.9935 52.0771 43.0586 50.1729C43.1237 48.2523 43.2783 46.348 43.5225 44.46C43.7829 42.5557 44.141 40.6921 44.5967 38.8691C45.0524 37.0462 45.6302 35.3454 46.3301 33.7666C46.623 32.8226 46.9893 32.0495 47.4287 31.4473C47.8682 30.8451 48.3158 30.4137 48.7715 30.1533C49.2272 29.8929 49.6585 29.7952 50.0654 29.8604C50.4723 29.9255 50.7979 30.1533 51.042 30.5439C51.2861 30.9346 51.4082 31.4961 51.4082 32.2285C51.4082 32.9609 51.2292 33.848 50.8711 34.8896C48.5111 45.7946 50.5537 55.7474 56.999 64.748Z" fill="#5ABFA2"/>
</svg>
