<svg width="194" height="153" viewBox="0 0 194 153" fill="none" xmlns="http://www.w3.org/2000/svg">
<path d="M37.3691 64.4844H36.8691V64.9844V133.218C36.8691 141.227 43.361 147.718 51.3692 147.718H140.846C148.854 147.718 155.346 141.226 155.346 133.218V64.9844V64.4844H154.846H37.3691Z" fill="#667BC6" stroke="#667BC6"/>
<mask id="path-2-outside-1_91_374" maskUnits="userSpaceOnUse" x="33.1055" y="28.7412" width="127" height="42" fill="black">
<rect fill="white" x="33.1055" y="28.7412" width="127" height="42"/>
<path fill-rule="evenodd" clip-rule="evenodd" d="M43.1164 29.7412C40.9405 29.7412 39.0144 31.1485 38.353 33.2215L34.8803 44.1063C34.5214 45.2309 34.5804 46.364 34.9528 47.3628H34.1055V63.9003C34.1055 66.6617 36.344 68.9003 39.1055 68.9003H153.762C156.523 68.9003 158.762 66.6617 158.762 63.9003V47.3628H157.914C158.287 46.364 158.346 45.2309 157.987 44.1063L154.514 33.2215C153.853 31.1485 151.927 29.7412 149.751 29.7412H43.1164Z"/>
</mask>
<path fill-rule="evenodd" clip-rule="evenodd" d="M43.1164 29.7412C40.9405 29.7412 39.0144 31.1485 38.353 33.2215L34.8803 44.1063C34.5214 45.2309 34.5804 46.364 34.9528 47.3628H34.1055V63.9003C34.1055 66.6617 36.344 68.9003 39.1055 68.9003H153.762C156.523 68.9003 158.762 66.6617 158.762 63.9003V47.3628H157.914C158.287 46.364 158.346 45.2309 157.987 44.1063L154.514 33.2215C153.853 31.1485 151.927 29.7412 149.751 29.7412H43.1164Z" fill="#F9443D"/>
<path d="M38.353 33.2215L39.3057 33.5254L38.353 33.2215ZM34.8803 44.1063L33.9276 43.8023L33.9276 43.8023L34.8803 44.1063ZM34.9528 47.3628V48.3628H36.393L35.8898 47.0134L34.9528 47.3628ZM34.1055 47.3628V46.3628H33.1055V47.3628H34.1055ZM158.762 47.3628H159.762V46.3628H158.762V47.3628ZM157.914 47.3628L156.977 47.0134L156.474 48.3628H157.914V47.3628ZM157.987 44.1063L157.034 44.4102V44.4102L157.987 44.1063ZM154.514 33.2215L153.562 33.5254V33.5254L154.514 33.2215ZM39.3057 33.5254C39.8348 31.867 41.3757 30.7412 43.1164 30.7412V28.7412C40.5053 28.7412 38.194 30.4299 37.4003 32.9175L39.3057 33.5254ZM35.8329 44.4102L39.3057 33.5254L37.4003 32.9175L33.9276 43.8023L35.8329 44.4102ZM35.8898 47.0134C35.5927 46.2166 35.5447 45.3136 35.8329 44.4102L33.9276 43.8023C33.4982 45.1482 33.568 46.5114 34.0159 47.7122L35.8898 47.0134ZM34.1055 48.3628H34.9528V46.3628H34.1055V48.3628ZM35.1055 63.9003V47.3628H33.1055V63.9003H35.1055ZM39.1055 67.9003C36.8963 67.9003 35.1055 66.1094 35.1055 63.9003H33.1055C33.1055 67.214 35.7918 69.9003 39.1055 69.9003V67.9003ZM153.762 67.9003H39.1055V69.9003H153.762V67.9003ZM157.762 63.9003C157.762 66.1094 155.971 67.9003 153.762 67.9003V69.9003C157.075 69.9003 159.762 67.214 159.762 63.9003H157.762ZM157.762 47.3628V63.9003H159.762V47.3628H157.762ZM157.914 48.3628H158.762V46.3628H157.914V48.3628ZM157.034 44.4102C157.323 45.3136 157.275 46.2166 156.977 47.0134L158.851 47.7122C159.299 46.5114 159.369 45.1482 158.94 43.8023L157.034 44.4102ZM153.562 33.5254L157.034 44.4102L158.94 43.8023L155.467 32.9175L153.562 33.5254ZM149.751 30.7412C151.492 30.7412 153.032 31.867 153.562 33.5254L155.467 32.9175C154.673 30.4299 152.362 28.7412 149.751 28.7412V30.7412ZM43.1164 30.7412H149.751V28.7412H43.1164V30.7412Z" fill="#C52024" mask="url(#path-2-outside-1_91_374)"/>
<rect opacity="0.1" x="37.3691" y="64.9844" width="117.477" height="12.4004" fill="black"/>
<path d="M34.1064 47.3623H158.763V63.8998C158.763 66.6612 156.524 68.8998 153.763 68.8998H39.1064C36.345 68.8998 34.1064 66.6612 34.1064 63.8998V47.3623Z" fill="url(#paint0_linear_91_374)"/>
<path d="M38.3536 33.2215C39.015 31.1485 40.9411 29.7412 43.1171 29.7412H149.751C151.927 29.7412 153.853 31.1485 154.515 33.2215L157.988 44.1063C159.017 47.3318 156.61 50.626 153.224 50.626H39.6443C36.2586 50.626 33.8518 47.3318 34.8809 44.1063L38.3536 33.2215Z" fill="#F9443D"/>
<path d="M187.159 31.4151L190.182 29.936L187.061 28.6767C179.295 25.5432 170.392 25.316 162.511 26.2449C154.616 27.1752 147.598 29.2835 143.507 30.9646L142.714 31.2907L142.593 32.1399L141.614 38.9928L141.389 40.5676L142.974 40.6997C150.574 41.333 158.723 44.0102 165.869 47.1458C173.004 50.2766 179.041 53.8211 182.391 56.1074L186.458 58.8834L184.629 54.3114C182.275 48.4251 176.95 41.7268 173.635 38.0335L187.159 31.4151Z" fill="#5ABFA2" stroke="#EB9F4A" stroke-width="3"/>
<path d="M7.34076 31.4151L4.31816 29.936L7.4388 28.6767C15.2046 25.5432 24.1081 25.316 31.9892 26.2449C39.8837 27.1752 46.9017 29.2835 50.9926 30.9646L51.786 31.2907L51.9073 32.1399L52.8863 38.9928L53.1113 40.5676L51.5259 40.6997C43.9263 41.333 35.7768 44.0102 28.631 47.1458C21.496 50.2766 15.4587 53.8211 12.109 56.1074L8.04183 58.8834L9.87062 54.3114C12.2252 48.4251 17.5503 41.7268 20.8653 38.0335L7.34076 31.4151Z" fill="#5ABFA2" stroke="#EB9F4A" stroke-width="3"/>
<path d="M104.211 22.7808L103.87 23.1051L103.776 23.5659L101.165 36.2926L100.981 37.1895L101.695 37.7631C105.5 40.8221 111.92 42.6461 119.137 43.4235C126.422 44.2083 134.782 43.9537 142.692 42.6424C152.546 41.0088 157.903 34.4868 158.748 26.706C159.581 19.0401 156.027 10.3596 148.635 4.12047C145.586 1.54723 141.692 1.09339 137.681 1.80116C133.681 2.50678 129.376 4.39184 125.217 6.76495C116.885 11.5178 108.768 18.4433 104.211 22.7808Z" fill="#5ABFA2" stroke="#EB9F4A" stroke-width="3"/>
<path d="M90.5251 22.7808L90.8658 23.1051L90.9604 23.5659L93.571 36.2926L93.7549 37.1895L93.0414 37.7631C89.2362 40.8221 82.816 42.6461 75.5992 43.4235C68.3142 44.2083 59.9545 43.9537 52.0445 42.6424C42.1908 41.0088 36.8338 34.4868 35.9881 26.706C35.1549 19.0401 38.7089 10.3596 46.1012 4.12047C49.15 1.54723 53.0442 1.09339 57.0558 1.80116C61.0552 2.50678 65.36 4.39184 69.5198 6.76495C77.851 11.5178 85.9681 18.4433 90.5251 22.7808Z" fill="#5ABFA2" stroke="#EB9F4A" stroke-width="3"/>
<path d="M110.14 40.5099C119.058 44.5058 144.293 47.9234 150.604 34.3097C156.915 20.6959 122.579 26.1508 110.14 40.5099Z" fill="#43907A"/>
<path d="M84.1094 40.7944C79.2122 42.8443 51.251 47.3489 43.645 34.5942C36.0391 21.8395 71.6698 26.4354 84.1094 40.7944Z" fill="#43907A"/>
<path d="M110.122 28.3184L110.109 28.2952C110.094 28.2683 110.07 28.2276 110.04 28.1742C109.979 28.0674 109.891 27.9103 109.782 27.713C109.565 27.3179 109.269 26.7646 108.953 26.1335C108.306 24.8398 107.637 23.333 107.353 22.1983C107.157 21.4118 106.847 20.6624 106.278 20.0519C105.697 19.4273 104.973 19.084 104.198 18.8825C103.451 18.6882 102.58 18.6064 101.618 18.5576C100.911 18.5218 100.091 18.5016 99.1678 18.479C98.8279 18.4706 98.4741 18.4619 98.107 18.452C97.5775 18.4377 97.0607 18.4188 96.566 18.4007C95.8005 18.3728 95.0878 18.3467 94.4631 18.3425C93.4123 18.3353 92.4085 18.3832 91.4791 18.6216C89.4238 19.149 88.1056 20.5058 86.9323 22.8755C86.1483 24.4592 85.7671 25.6883 85.4671 26.656C85.3832 26.9266 85.3056 27.1768 85.2273 27.4085C84.8891 28.41 84.4792 29.3152 83.2421 30.6998L84.3607 31.6992L83.2421 30.6998C82.2533 31.8065 81.8329 33.1948 82.2364 34.6188C82.6165 35.9601 83.6526 37.0658 84.9908 37.9081C87.6634 39.5903 92.121 40.6081 98.0773 40.379C100.308 40.4322 103.65 40.3321 106.48 39.8424C107.891 39.5983 109.288 39.2391 110.371 38.689C111.39 38.1716 112.619 37.2174 112.619 35.6151C112.619 33.85 111.937 31.9785 111.346 30.6609C111.039 29.9781 110.734 29.3937 110.505 28.979C110.39 28.771 110.293 28.6042 110.224 28.4873C110.19 28.4288 110.162 28.3827 110.142 28.3501L110.122 28.3184Z" fill="#5ABFA2" stroke="#EB9F4A" stroke-width="3"/>
<rect x="81.5547" y="36.0732" width="32.3693" height="114.603" rx="9.5" fill="#5ABFA2" stroke="#EB9F4A" stroke-width="3"/>
<defs>
<linearGradient id="paint0_linear_91_374" x1="34.1064" y1="68.8998" x2="158.763" y2="68.8998" gradientUnits="userSpaceOnUse">
<stop stop-color="#FA6157"/>
<stop offset="0.0885729" stop-color="#CD3236"/>
<stop offset="0.884867" stop-color="#CD3236"/>
<stop offset="1" stop-color="#FA6157"/>
</linearGradient>
</defs>
</svg>
