<svg width="70" height="77" viewBox="0 0 70 77" fill="none" xmlns="http://www.w3.org/2000/svg">
<path d="M0.0353982 49.8754C0.6954 60.7184 18.9052 71.9695 34.2713 65.2832L35.3533 62.1762C35.3533 62.1762 34.5039 51.4248 24.031 49.2019C13.5581 46.9794 9.44635 36.0444 14.7501 32.187C14.7501 32.187 14.746 32.1854 14.7403 32.1882C14.425 32.2172 6.6252 33.0122 7.28724 41.7783C7.20587 41.5603 5.81716 37.4449 8.1194 33.4906C8.11776 33.4947 8.11245 33.4976 8.10672 33.5C7.71293 33.7564 -0.607429 39.2879 0.0353982 49.8754Z" fill="#AAE6F9"/>
<path opacity="0.5" d="M34.6507 64.194C34.6507 64.194 28.3287 60.7995 22.625 57.8369C16.921 54.8742 9.35549 49.4082 7.47607 43.8726C7.47607 43.8726 8.42273 53.4602 21.3312 59.1438C27.6119 61.9085 34.6507 64.194 34.6507 64.194Z" fill="#6AC4D8"/>
<path opacity="0.4" d="M10.2176 39.5562C10.3755 45.32 14.7571 50.6671 18.3728 51.9269C28.2556 55.3705 34.4807 64.0327 34.6512 64.1938L35.3537 62.1762C35.3537 62.1762 34.5044 51.4248 24.0315 49.2019C13.5585 46.9794 9.44681 36.0444 14.7505 32.187C14.7505 32.187 14.7465 32.1854 14.7407 32.1882C14.5228 32.27 10.0663 33.9331 10.2176 39.5562Z" fill="#EEFCFF"/>
<path d="M0.0353982 49.876C0.6954 60.719 18.9052 71.9701 34.2713 65.2838L34.6507 64.1944C30.665 64.7726 19.3276 65.6166 9.94565 58.4952C-1.63832 49.7001 5.29047 36.3418 8.10713 33.5015C7.71293 33.757 -0.607429 39.2885 0.0353982 49.876Z" fill="#6AC4D8"/>
<path d="M36.0465 62.4045C36.0465 62.4045 35.6674 58.8133 34.7277 58.8296C33.788 58.8464 34.3229 61.9272 34.3229 61.9272C34.3229 61.9272 33.3762 59.1044 32.5653 59.5862C31.7544 60.0679 33.4134 62.6788 33.4134 62.6788C33.4134 62.6788 31.3071 61.6811 31.2367 63.1037C31.1664 64.5264 33.8035 63.7355 33.8035 63.7355C33.8035 63.7355 31.4048 65.0502 31.7258 65.92C32.0468 66.7902 34.9207 65.6354 34.9207 65.6354L36.0465 62.4045Z" fill="#FFFDCF"/>
<path d="M48.8212 43.1982H42.7875H36.6582C36.6582 43.1982 27.2235 59.5016 31.8312 66.7637C34.1094 70.354 42.7875 69.7279 42.7875 69.7279C42.7875 69.7279 51.4657 70.3544 53.7438 66.7637C58.3511 59.5016 48.8212 43.1982 48.8212 43.1982Z" fill="#FFFDCF"/>
<path opacity="0.5" d="M40.1046 43.1982H36.6578C36.6578 43.1982 33.0106 49.6408 31.3594 56.2981C36.6189 55.5903 39.8781 49.0765 40.1046 43.1982Z" fill="#D6CF94"/>
<path opacity="0.5" d="M54.1263 56.0793C52.4227 49.5006 48.8209 43.1982 48.8209 43.1982H45.864C46.6708 48.3973 48.0681 57.7735 54.1263 56.0793Z" fill="#D6CF94"/>
<path opacity="0.5" d="M48.4297 49.5023C49.6082 48.7613 49.7141 47.7954 50.7123 46.9089C49.6569 44.6631 48.821 43.1987 48.821 43.1987H42.7874H36.658C36.658 43.1987 35.7339 44.8311 34.6052 47.301C38.0173 51.0214 44.147 52.4199 48.4297 49.5023Z" fill="#D6CF94"/>
<path d="M46.4799 58.5972C44.872 56.4966 42.912 58.5208 42.912 58.5208C42.912 58.5208 41.0408 56.4144 39.3442 58.4443C37.6476 60.4742 42.793 64.0739 42.793 64.0739C42.793 64.0739 48.0878 60.6979 46.4799 58.5972Z" fill="#F9BE8A"/>
<path d="M42.473 54.0352L43.1927 54.7974L44.2285 54.6367L43.7259 55.5564L44.199 56.4916L43.1689 56.2981L42.4255 57.0371L42.2914 55.9976L41.3586 55.5187L42.3061 55.0697L42.473 54.0352Z" fill="#F9BE8A"/>
<path d="M47.6661 62.3433L47.862 63.3729L48.8214 63.7953L47.9025 64.3L47.797 65.3427L47.0335 64.6246L46.0092 64.8471L46.4561 63.8988L45.9282 62.9934L46.9677 63.1251L47.6661 62.3433Z" fill="#F9BE8A"/>
<path d="M39.2438 61.6807L39.4397 62.7103L40.399 63.1327L39.4801 63.6374L39.375 64.6801L38.6112 63.9621L37.5868 64.1845L38.0338 63.2362L37.5059 62.3309L38.5458 62.4625L39.2438 61.6807Z" fill="#F9BE8A"/>
<path d="M54.1204 17.187C54.1204 17.187 60.4599 20.5255 60.6112 28.724C60.7265 34.9735 59.6883 40.8992 61.8089 41.8173C61.8089 41.8173 58.6022 42.0164 57.6555 35.2115C56.6839 28.2279 54.1204 17.187 54.1204 17.187Z" fill="#6AC4D8"/>
<path d="M54.2039 17.5845C54.2039 17.5845 59.6511 23.5809 59.4426 29.8276C59.234 36.0743 59.2806 41.1029 61.2913 42.2699C61.2913 42.2699 57.9762 42.1914 56.8839 35.2287C55.7913 28.2664 54.2039 17.5845 54.2039 17.5845Z" fill="#AAE6F9"/>
<path d="M30.365 16.9971C30.365 16.9971 24.1894 20.6704 24.4217 28.8665C24.5987 35.1144 25.913 40.9771 23.8381 42.0072C23.8381 42.0072 27.0502 42.0346 27.6775 35.1876C28.3212 28.1615 30.365 16.9971 30.365 16.9971Z" fill="#6AC4D8"/>
<path d="M30.2994 17.3989C30.2994 17.3989 25.1396 23.6792 25.6401 29.9071C26.1406 36.135 26.3296 41.1594 24.3757 42.4324C24.3757 42.4324 27.6831 42.1764 28.4482 35.1642C29.2137 28.152 30.2994 17.3989 30.2994 17.3989Z" fill="#AAE6F9"/>
<path d="M58.4655 35.7925C58.4655 45.7322 51.4463 47.1916 42.789 47.1916C34.1317 47.1916 27.1125 45.7322 27.1125 35.7925C27.1125 34.9624 27.1412 34.1147 27.2066 33.2584C27.8805 23.8736 32.3709 13.4927 42.789 13.4927C47.5939 13.4927 51.1196 15.6555 53.5997 18.897C57.0478 23.4107 58.4655 30.0123 58.4655 35.7925Z" fill="#FFFDCF"/>
<path d="M54.9602 22.1266C54.9602 22.1266 64.0972 18.5845 61.2384 10.02C61.2384 10.02 52.9663 10.2989 52.9773 19.6583L54.9602 22.1266Z" fill="#FFFDCF"/>
<path d="M54.304 20.4012C55.1492 18.8318 56.9881 13.8797 60.3196 11.5566C60.8484 12.8562 60.1704 19.8729 54.304 20.4012Z" fill="#F9BE8A"/>
<path opacity="0.5" d="M52.7046 27.8933C51.1969 30.3575 47.6262 29.392 47.6262 29.392C47.6262 29.392 46.7642 32.9615 40.9256 34.4643C35.0915 35.9716 34.703 32.2668 34.703 32.2668C34.703 32.2668 33.8124 35.0061 30.552 35.063C28.873 35.0936 27.8392 34.1715 27.2058 33.2584C27.8797 23.8736 32.3701 13.4927 42.7882 13.4927C47.5931 13.4927 51.3748 13.9053 52.9766 17.7275C54.4303 21.1951 53.5585 26.5038 52.7046 27.8933Z" fill="#E8E3B1"/>
<path opacity="0.3" d="M42.6695 39.7332C42.6695 39.7332 40.032 39.0883 37.0579 35.4661C34.0838 31.8438 30.3397 34.6482 29.8768 37.2433C29.4773 39.4829 31.8629 46.4469 42.6695 46.4469C53.4757 46.4469 57.5233 39.8767 56.5991 37.0879C55.6161 34.1195 51.9083 32.8052 48.7658 34.9222C45.6236 37.0388 45.6293 39.458 42.6695 39.7332Z" fill="#FFFEF3"/>
<path d="M30.7372 22.1266C30.7372 22.1266 21.6002 18.5845 24.459 10.02C24.459 10.02 32.7311 10.2989 32.72 19.6583L30.7372 22.1266Z" fill="#FFFDCF"/>
<path d="M30.9969 20.4012C30.1516 18.8318 28.3127 13.8797 24.9812 11.5566C24.4525 12.8562 25.13 19.8729 30.9969 20.4012Z" fill="#F9BE8A"/>
<path d="M54.3331 21.5759C54.329 21.5845 54.329 21.589 54.329 21.589C53.2543 25.0579 50.1289 27.8762 48.4438 27.1724L48.2029 27.6267L48.1686 27.6791C45.6148 31.7466 35.0609 34.6913 36.0411 29.453C34.0121 32.6859 27.8385 33.5598 27.1724 29.3916C27.1336 29.1733 27.1164 28.9418 27.1123 28.6924C26.932 15.8211 35.8906 10.4691 43.6074 10.0193C44.5917 9.96695 45.4905 10.0017 46.3243 10.1199C46.5693 10.1506 46.8146 10.1943 47.0465 10.2508C47.5409 10.3468 48.005 10.4781 48.4438 10.6351C52.6181 12.1163 54.385 15.8734 54.6688 18.5167C54.7759 19.5443 54.6381 20.5887 54.3331 21.5759Z" fill="#FFFC9C"/>
<path d="M46.3243 10.12C46.3202 10.1678 46.3202 10.2115 46.3112 10.2598C46.3026 10.3473 46.2941 10.4303 46.281 10.5174C46.2123 11.1508 46.1047 11.7847 45.9587 12.4222C44.0327 20.9548 36.0411 29.4526 36.0411 29.4526C34.0121 32.6856 27.8385 33.5594 27.1724 29.3913C27.1336 29.1729 27.1164 28.9415 27.1123 28.692C26.932 15.8208 35.8906 10.4688 43.6074 10.0189C44.5917 9.96702 45.4901 10.0022 46.3243 10.12Z" fill="#AAE6F9"/>
<path d="M48.4435 27.1725L48.2026 27.6268L48.1683 27.6792C45.6146 31.7467 35.0607 34.6914 36.0409 29.4531C36.0409 29.4531 40.2282 17.2635 44.295 12.2959C44.9656 11.4788 45.6792 10.4565 46.3241 10.12C46.5821 9.98464 48.0051 10.286 48.4435 10.6356C49.4711 11.4527 50.0469 12.7064 50.318 14.17C51.2851 19.3649 48.4435 27.1725 48.4435 27.1725Z" fill="#F9BE8A"/>
<path opacity="0.3" d="M54.3331 21.5755C54.329 21.584 54.329 21.5885 54.329 21.5885C54.329 21.5885 54.6815 17.1452 50.3179 14.1699C49.9654 13.9253 49.5785 13.6939 49.1614 13.4751C48.1166 12.9288 47.042 12.5881 45.9587 12.4221C45.4042 12.3346 44.8497 12.2954 44.2952 12.2954C40.125 12.2909 35.9769 14.5412 33.0147 17.0008C29.3303 20.0592 27.5163 27.7706 27.1724 29.3916C27.1336 29.1733 27.1164 28.9418 27.1123 28.6924C26.932 15.8211 35.8906 10.4691 43.6074 10.0193C44.5917 9.96695 45.4905 10.0017 46.3243 10.1199C46.5693 10.1506 46.8146 10.1943 47.0465 10.2507C47.5364 10.1722 48.005 10.2855 48.4438 10.6351C52.6181 12.1162 54.385 15.8734 54.6688 18.5167C54.7759 19.5439 54.6381 20.5883 54.3331 21.5755Z" fill="#FFFEF3"/>
<path d="M38.9883 22.5419C39.1621 23.0903 39.4946 23.5577 39.8953 23.9453C41.5731 25.579 44.2287 25.5434 45.8721 23.8656C46.2639 23.4673 46.5853 22.9909 46.746 22.438C46.8519 22.0741 46.5166 16.7785 46.1821 16.5074L46.178 16.5033L46.1167 16.4866C46.3898 16.4391 45.536 10.163 45.1402 9.14599V9.14149C45.1066 9.05439 45.0731 9.00696 45.0486 9.00737C45.0608 8.99837 45.0645 8.98079 45.0723 8.94603V8.94153C45.2044 8.01777 43.4844 -0.0118456 42.602 1.31222e-05C41.789 0.011054 40.4425 6.46918 40.3533 8.60703C40.3402 8.88673 40.3505 9.04825 40.3832 9.06993C40.0646 9.07401 39.0333 16.2972 39.2942 16.5692C39.2983 16.5733 39.2983 16.5733 39.3024 16.5778C38.9311 16.5827 38.8657 22.1591 38.9883 22.5419Z" fill="#FFFC9C"/>
<path d="M40.3535 8.60703L40.3875 9.06993C42.0849 10.6202 43.6388 10.0227 44.4497 9.48745C44.8267 9.2421 45.0447 9.00778 45.0447 9.00778L45.0725 8.94604V8.94153C45.1972 8.07461 43.6879 0.946679 42.7707 0.0850781C42.7707 0.0850781 42.7666 0.0809904 42.7666 0.0764923C42.7089 0.024968 42.6553 -0.000798973 42.6022 1.8873e-05C41.7892 0.0110598 40.4431 6.46918 40.3535 8.60703Z" fill="#FFFCBB"/>
<path d="M41.2463 7.91794L41.2598 8.18864C42.1652 9.52296 42.9479 8.16615 42.9479 8.16615L42.9577 8.13017V8.12772C43.0031 7.58794 42.5794 2.40851 42.2596 2.4126C41.9648 2.41628 41.2729 6.66827 41.2463 7.91794Z" fill="#FFFFFD"/>
<path d="M38.9884 22.5417C39.1622 23.09 39.4946 23.5574 39.8954 23.9451C41.5732 25.5787 44.2287 25.5432 45.8722 23.8653C46.2639 23.467 46.5853 22.9907 46.7461 22.4378C46.852 22.0738 46.5167 16.7783 46.1822 16.5072L46.1781 16.5031L46.1167 16.4863C46.1167 16.4863 43.381 19.433 39.3065 16.5775C38.9303 16.5256 38.8657 22.1589 38.9884 22.5417Z" fill="#FFE69F"/>
<path opacity="0.5" d="M38.9885 22.5417C39.1623 23.09 39.4948 23.5574 39.8955 23.9451C41.5733 25.5787 44.2289 25.5432 45.8723 23.8653C46.2641 23.467 46.5855 22.9907 46.7462 22.4378C46.8521 22.0738 46.5168 16.7783 46.1823 16.5072L46.1782 16.5031L46.1169 16.4863C46.1169 16.4863 46.4677 21.9099 46.2068 22.54C45.7125 23.7337 42.4623 26.1042 38.9885 22.5417Z" fill="#F9BE8A"/>
<path opacity="0.5" d="M45.4302 16.1378C45.1738 16.8219 42.802 17.8246 42.802 17.8246C42.802 17.8246 45.1431 17.8197 46.1822 16.5079L46.1781 16.5038L46.1168 16.487C46.3899 16.4396 45.5361 10.1634 45.1403 9.14643V9.14194L45.0446 9.00781C45.0446 9.00781 43.7417 10.4758 41.2649 9.70053C41.2649 9.70053 42.7534 10.7735 44.8704 9.75777C44.8704 9.75777 45.687 15.4537 45.4302 16.1378Z" fill="#F9BE8A"/>
<path opacity="0.5" d="M44.6984 8.74153C44.606 9.20157 44.4498 9.48782 44.4498 9.48782C44.8268 9.24247 45.0448 9.00815 45.0448 9.00815L45.0726 8.94641V8.9419C45.1973 8.07499 43.688 0.94705 42.7708 0.0854492C43.315 1.20999 44.7643 7.78424 44.6984 8.74153Z" fill="#F9BE8A"/>
<path d="M41.6022 38.8446C41.6022 39.0437 41.4513 39.2052 41.2649 39.2052C41.0784 39.2052 40.9275 39.0437 40.9275 38.8446C40.9275 38.6454 41.0784 38.4839 41.2649 38.4839C41.4509 38.4839 41.6022 38.6454 41.6022 38.8446Z" fill="#F9BE8A"/>
<path d="M44.3732 38.8446C44.3732 39.0437 44.2223 39.2052 44.0358 39.2052C43.8494 39.2052 43.6985 39.0437 43.6985 38.8446C43.6985 38.6454 43.8494 38.4839 44.0358 38.4839C44.2223 38.4839 44.3732 38.6454 44.3732 38.8446Z" fill="#F9BE8A"/>
<path d="M44.0357 41.836C44.0357 42.5545 43.491 42.8808 42.8188 42.8808C42.1465 42.8808 41.6018 42.5545 41.6018 41.836C41.6018 41.1175 42.1465 40.2788 42.8188 40.2788C43.491 40.2788 44.0357 41.1175 44.0357 41.836Z" fill="#E57A5A"/>
<path d="M37.552 39.4228C36.8937 40.5327 36.0304 39.1812 34.4303 38.0963C32.8302 37.011 31.0997 36.6029 31.758 35.4931C32.4164 34.3833 34.2467 34.3632 35.8468 35.4485C37.447 36.5338 38.2104 38.313 37.552 39.4228Z" fill="#F9BE8A"/>
<path d="M53.3367 36.1067C52.8566 34.8971 51.0537 34.5577 49.3096 35.3494C47.5655 36.1411 46.5408 37.7633 47.0209 38.9728C47.5009 40.1824 48.5196 38.788 50.2636 37.9963C52.0077 37.2051 53.8167 37.3163 53.3367 36.1067Z" fill="#F9BE8A"/>
<path d="M50.3287 33.2028C50.7442 34.1544 49.7292 34.6365 48.4877 35.2564C47.2462 35.8764 46.2489 36.399 45.8334 35.4474C45.4179 34.4958 46.0873 33.2216 47.3288 32.6021C48.5699 31.9822 49.9132 32.2513 50.3287 33.2028Z" fill="#473629"/>
<path d="M51.6288 33.9473C51.6288 34.0013 50.0512 34.2961 48.4596 35.2792C47.3977 35.9347 45.8217 38.1776 45.719 38.1776C45.6164 38.1776 46.4044 35.9257 48.3206 34.8122C50.2368 33.6983 51.6288 33.8202 51.6288 33.9473Z" fill="#473629"/>
<path d="M49.3254 33.2937C49.3254 33.6237 49.0751 33.8912 48.7668 33.8912C48.458 33.8912 48.2078 33.6237 48.2078 33.2937C48.2078 32.9637 48.458 32.6963 48.7668 32.6963C49.0751 32.6963 49.3254 32.9637 49.3254 33.2937Z" fill="#FFFEF3"/>
<path d="M34.7965 33.2028C34.381 34.1544 35.396 34.6365 36.6375 35.2564C37.8789 35.8764 38.8763 36.399 39.2918 35.4474C39.7072 34.4958 39.0378 33.2216 37.7963 32.6021C36.5553 31.9822 35.2119 32.2513 34.7965 33.2028Z" fill="#473629"/>
<path d="M33.2852 33.9473C33.2852 34.0013 34.8628 34.2961 36.4543 35.2792C37.5163 35.9347 39.0923 38.1776 39.1949 38.1776C39.2976 38.1776 38.5096 35.9257 36.5933 34.8122C34.6771 33.6983 33.2852 33.8202 33.2852 33.9473Z" fill="#473629"/>
<path d="M38.8969 34.4646C38.8969 34.7946 38.6466 35.0621 38.3379 35.0621C38.0292 35.0621 37.7793 34.7946 37.7793 34.4646C37.7793 34.1346 38.0296 33.8672 38.3379 33.8672C38.647 33.8672 38.8969 34.1346 38.8969 34.4646Z" fill="#FFFEF3"/>
<path d="M39.0475 42.8944C39.7648 41.0661 33.6833 38.7443 32.5399 40.3407C30.7636 42.8212 28.3309 46.7841 26.1391 50.4877C23.6504 54.4559 30.2422 58.0127 32.5878 54.7712C33.3087 53.9574 34.0112 53.0762 34.6721 52.1214C38.363 46.7878 39.0475 42.8944 39.0475 42.8944Z" fill="#FFFDCF"/>
<path d="M30.2043 43.8355C33.0419 43.508 36.1836 44.5393 37.6664 46.8853C38.7778 44.4272 39.0481 42.8946 39.0481 42.8946C39.7654 41.0663 33.6839 38.744 32.5405 40.3409C31.8449 41.3121 31.0471 42.5139 30.2043 43.8355Z" fill="#EAE360"/>
<path opacity="0.2" d="M35.2523 39.9575C35.1043 39.9247 34.9575 39.8973 34.8131 39.8748C34.5244 39.8303 34.2455 39.8065 33.9859 39.8082C33.7258 39.8098 33.485 39.836 33.2727 39.8908C33.1664 39.9182 33.0674 39.9525 32.9767 39.9947C32.7951 40.0789 32.6467 40.193 32.5403 40.341C32.3821 40.5622 32.2169 40.7986 32.0488 41.0423C32.0181 41.0869 31.9875 41.1311 31.9564 41.1764C30.2524 43.6578 28.1002 47.1749 26.1395 50.4884C25.1818 52.0154 25.5711 53.4797 26.5435 54.5212C27.1417 50.3805 35.0323 40.2682 35.2523 39.9575Z" fill="#FFFEF3"/>
<path d="M46.6838 42.6118C45.9641 40.7847 52.0427 38.4546 53.1881 40.0498C54.9677 42.5283 57.4053 46.4879 59.6017 50.1887C62.0953 54.1536 55.5079 57.719 53.1583 54.4803C52.4361 53.6674 51.7323 52.7874 51.0707 51.8334C47.3732 46.5043 46.6838 42.6118 46.6838 42.6118Z" fill="#FFFDCF"/>
<path d="M55.5288 43.5411C52.6909 43.2173 49.5503 44.2527 48.0704 46.6003C46.9557 44.1435 46.6838 42.6113 46.6838 42.6113C45.9641 40.7842 52.0427 38.4542 53.1881 40.0494C53.8849 41.0201 54.6839 42.2207 55.5288 43.5411Z" fill="#EAE360"/>
<g opacity="0.3">
<path d="M59.7884 53.4046C60.2803 52.4735 60.3314 51.3485 59.6019 50.1884C57.637 46.8778 55.4808 43.3635 53.7735 40.8842C53.742 40.8384 53.7109 40.7938 53.6799 40.7484C53.5118 40.5059 53.3466 40.27 53.1883 40.0496C53.1389 39.9804 53.08 39.9191 53.0129 39.8643C52.5439 39.482 51.6692 39.4415 50.7144 39.6202C50.7176 39.6247 50.7209 39.6292 50.7246 39.6337C52.2977 40.548 57.7323 49.903 59.7884 53.4046Z" fill="#FFFEF3"/>
</g>
<path d="M36.7918 68.7119C36.7918 68.7119 26.9335 75.0498 22.5923 76.0562C13.8941 78.073 13.7976 67.8466 17.664 66.2216C17.6685 66.2171 17.6726 66.2171 17.6726 66.2171C17.6726 66.2171 17.6771 66.2171 17.6857 66.2126C20.2108 65.1596 30.6399 62.3809 30.6399 62.3809C36.1318 60.9526 38.4038 66.8026 36.7918 68.7119Z" fill="#FFFDCF"/>
<path d="M22.8383 64.5542C20.6567 65.1913 18.6247 65.8214 17.6858 66.2128C17.6773 66.2173 17.6728 66.2173 17.6728 66.2173C17.6728 66.2173 17.6683 66.2173 17.6642 66.2218C13.7974 67.8468 13.8943 78.0732 22.5925 76.0564C23.3605 75.8781 24.303 75.5313 25.3311 75.0839C31.0016 72.4955 26.2614 63.5789 22.8383 64.5542Z" fill="#EAE360"/>
<path d="M22.5923 76.0564C13.8941 78.1296 13.7976 67.8469 17.664 66.2218C17.6685 66.2173 17.6726 66.2173 17.6726 66.2173C17.6726 66.2173 17.6771 66.2173 17.6857 66.2128C17.9523 66.1253 22.1507 64.8192 24.1781 69.7255C26.2755 74.7892 22.5923 76.0564 22.5923 76.0564Z" fill="#FFFC9C"/>
<path opacity="0.3" d="M35.4589 63.2834C34.3384 62.3449 32.7212 61.8399 30.6397 62.3813C30.6397 62.3813 20.211 65.1599 17.6855 66.2129C17.6769 66.2174 17.6724 66.2174 17.6724 66.2174C17.6724 66.2174 17.6679 66.2174 17.6638 66.2219C15.6384 67.0733 14.704 70.2837 15.5202 72.8591C15.9831 70.1169 16.9122 68.556 18.783 67.5092C21.8691 65.7827 30.5629 63.4175 35.4589 63.2834Z" fill="#FFFEF3"/>
<path d="M48.3059 68.7119C48.3059 68.7119 58.1642 75.0498 62.5054 76.0562C71.2036 78.073 71.3001 67.8466 67.4337 66.2216C67.4292 66.2171 67.4251 66.2171 67.4251 66.2171C67.4251 66.2171 67.4206 66.2171 67.412 66.2126C64.8865 65.1596 54.4578 62.3809 54.4578 62.3809C48.9655 60.9526 46.6935 66.8026 48.3059 68.7119Z" fill="#FFFDCF"/>
<path d="M62.2592 64.5542C64.4408 65.1913 66.4728 65.8214 67.4117 66.2128C67.4202 66.2173 67.4247 66.2173 67.4247 66.2173C67.4247 66.2173 67.4292 66.2173 67.4333 66.2218C71.3001 67.8468 71.2032 78.0732 62.505 76.0564C61.737 75.8781 60.7945 75.5313 59.7664 75.0839C54.0963 72.4955 58.8361 63.5789 62.2592 64.5542Z" fill="#EAE360"/>
<path d="M62.505 76.0564C71.2032 78.1296 71.2997 67.8469 67.4333 66.2218C67.4288 66.2173 67.4247 66.2173 67.4247 66.2173C67.4247 66.2173 67.4202 66.2173 67.4116 66.2128C67.145 66.1253 62.9466 64.8192 60.9192 69.7255C58.8218 74.7892 62.505 76.0564 62.505 76.0564Z" fill="#FFFC9C"/>
<path opacity="0.3" d="M49.6382 63.2834C50.7582 62.3449 52.3759 61.8399 54.4573 62.3813C54.4573 62.3813 64.8861 65.1599 67.4116 66.2129C67.4202 66.2174 67.4247 66.2174 67.4247 66.2174C67.4247 66.2174 67.4292 66.2174 67.4333 66.2219C69.4587 67.0733 70.3931 70.2837 69.5769 72.8591C69.114 70.1169 68.1849 68.556 66.3141 67.5092C63.2279 65.7827 54.5342 63.4175 49.6382 63.2834Z" fill="#FFFEF3"/>
</svg>
