<svg width="107" height="108" viewBox="0 0 107 108" fill="none" xmlns="http://www.w3.org/2000/svg">
<circle cx="53.7627" cy="53.9311" r="41.8301" fill="#72A2FF"/>
<path d="M53.7631 29.4707C48.3086 29.4707 43.8709 33.9891 43.8709 39.5428V45.5861H41.8924C40.843 45.5861 39.8366 46.0105 39.0945 46.7661C38.3524 47.5217 37.9355 48.5464 37.9355 49.6149V65.7303C37.9355 66.7988 38.3524 67.8236 39.0945 68.5791C39.8366 69.3347 40.843 69.7591 41.8924 69.7591H65.6338C66.6833 69.7591 67.6897 69.3347 68.4318 68.5791C69.1739 67.8236 69.5907 66.7988 69.5907 65.7303V49.6149C69.5907 48.5464 69.1739 47.5217 68.4318 46.7661C67.6897 46.0105 66.6833 45.5861 65.6338 45.5861H63.6554V39.5428C63.6554 33.9891 59.2177 29.4707 53.7631 29.4707ZM47.8278 39.5428C47.8278 36.211 50.4908 33.4995 53.7631 33.4995C57.0355 33.4995 59.6985 36.211 59.6985 39.5428V45.5861H47.8278V39.5428ZM55.7416 61.1434V65.7303H51.7847V61.1434C51.093 60.7401 50.5376 60.1329 50.1917 59.4017C49.8458 58.6705 49.7257 57.8498 49.8472 57.0477C49.9686 56.2456 50.326 55.4998 50.8722 54.9087C51.4183 54.3176 52.1276 53.9088 52.9065 53.7364C53.485 53.6062 54.0849 53.6098 54.6618 53.7471C55.2388 53.8843 55.7782 54.1517 56.2401 54.5294C56.7021 54.9072 57.0749 55.3857 57.331 55.9297C57.5872 56.4737 57.7201 57.0693 57.72 57.6726C57.7189 58.3771 57.5354 59.0689 57.1881 59.6782C56.8408 60.2876 56.3418 60.793 55.7416 61.1434Z" fill="#F1E6E0"/>
</svg>
