<svg width="430" height="438" viewBox="0 0 430 438" fill="none" xmlns="http://www.w3.org/2000/svg">
<path fill-rule="evenodd" clip-rule="evenodd" d="M340.548 243.685C372.361 274.957 390.448 317.587 390.83 362.195L374.009 362.339C373.665 322.192 357.387 283.825 328.756 255.68C300.124 227.535 261.485 211.916 221.337 212.26C181.19 212.603 142.824 228.881 114.678 257.513C86.5332 286.144 70.9144 324.784 71.2581 364.931L54.44 365.075C54.0581 320.467 71.4123 277.534 102.685 245.721C133.958 213.909 176.587 195.822 221.195 195.44C265.803 195.058 308.736 212.412 340.548 243.685Z" fill="#F41010"/>
<path fill-rule="evenodd" clip-rule="evenodd" d="M328.758 255.68C357.389 283.825 373.667 322.192 374.011 362.339L358.874 362.469C358.565 326.336 343.914 291.807 318.146 266.476C292.378 241.146 257.602 227.089 221.47 227.398C185.337 227.707 150.808 242.358 125.477 268.126C100.146 293.894 86.0893 328.669 86.3984 364.801L71.2604 364.931C70.9166 324.784 86.5354 286.144 114.681 257.513C142.826 228.881 181.193 212.603 221.34 212.26C261.487 211.916 300.126 227.535 328.758 255.68Z" fill="#FA7D09"/>
<path fill-rule="evenodd" clip-rule="evenodd" d="M318.851 265.755C344.811 291.274 359.569 326.059 359.881 362.459L346.156 362.577C345.876 329.817 332.593 298.51 309.23 275.543C285.867 252.577 254.337 239.832 221.577 240.112C188.816 240.393 157.51 253.676 134.543 277.039C111.576 300.402 98.8314 331.932 99.1118 364.692L85.387 364.809C85.0753 328.409 99.2364 293.376 124.755 267.417C150.273 241.458 185.059 226.699 221.459 226.387C257.859 226.076 292.892 240.237 318.851 265.755Z" fill="#FAD309"/>
<path fill-rule="evenodd" clip-rule="evenodd" d="M310.074 274.345C333.711 297.581 347.15 329.255 347.433 362.398L222.464 363.468L97.4957 364.538C97.2119 331.394 110.106 299.495 133.342 275.858C156.577 252.222 188.251 238.783 221.395 238.499C254.538 238.216 286.437 251.11 310.074 274.345ZM301.315 283.258C322.588 304.17 334.682 332.676 334.938 362.505L222.466 363.468L109.994 364.431C109.739 334.602 121.343 305.893 142.255 284.619C163.167 263.346 191.674 251.252 221.503 250.996C251.332 250.741 280.042 262.346 301.315 283.258Z" fill="#0AE76F"/>
<path fill-rule="evenodd" clip-rule="evenodd" d="M301.586 282.982C322.932 303.966 335.069 332.57 335.325 362.502L324.039 362.599C323.809 335.66 312.886 309.916 293.674 291.031C274.463 272.145 248.536 261.665 221.597 261.895C194.658 262.126 168.914 273.049 150.029 292.26C131.143 311.472 120.663 337.399 120.894 364.338L109.607 364.434C109.351 334.502 120.996 305.695 141.98 284.348C162.964 263.002 191.568 250.866 221.5 250.609C251.432 250.353 280.24 261.998 301.586 282.982Z" fill="#0A6FE7"/>
<path fill-rule="evenodd" clip-rule="evenodd" d="M294.982 289.699C314.547 308.931 325.67 335.148 325.905 362.582L315.56 362.671C315.349 337.98 305.338 314.385 287.729 297.076C270.121 279.767 246.358 270.161 221.667 270.372C196.977 270.584 173.381 280.595 156.072 298.203C138.763 315.811 129.157 339.574 129.368 364.265L119.025 364.353C118.79 336.919 129.463 310.516 148.696 290.951C167.929 271.386 194.146 260.263 221.579 260.028C249.013 259.793 275.417 270.466 294.982 289.699Z" fill="#AD0AE7"/>
<path fill-rule="evenodd" clip-rule="evenodd" d="M80.6052 321.412C92.4694 321.412 102.808 327.944 108.22 337.608C111.821 336.183 115.746 335.4 119.854 335.4C135.162 335.4 147.93 346.275 150.854 360.72C155.878 365.595 158.999 372.42 158.999 379.973C158.999 394.79 146.988 406.801 132.172 406.801C127.393 406.801 122.906 405.551 119.019 403.361C113.399 408.481 105.927 411.603 97.7249 411.603C87.626 411.603 78.6326 406.87 72.8418 399.501C67.3609 404.059 60.3153 406.801 52.6294 406.801C35.1609 406.801 21 392.64 21 375.172C21 358.452 33.9734 344.762 50.403 343.619C54.4128 330.753 66.4183 321.412 80.6052 321.412Z" fill="#FFFCFA"/>
<path fill-rule="evenodd" clip-rule="evenodd" d="M326.014 339C337.362 339 347.251 345.491 352.428 355.093C355.873 353.677 359.627 352.899 363.557 352.899C378.199 352.899 390.412 363.705 393.209 378.06C398.014 382.905 401 389.686 401 397.191C401 411.914 389.511 423.849 375.339 423.849C370.767 423.849 366.475 422.607 362.758 420.431C357.382 425.518 350.234 428.621 342.389 428.621C332.729 428.621 324.127 423.918 318.588 416.595C313.345 421.125 306.606 423.849 299.254 423.849C282.545 423.849 269 409.778 269 392.42C269 375.805 281.41 362.202 297.125 361.067C300.96 348.281 312.444 339 326.014 339Z" fill="#FFFCFA"/>
<path fill-rule="evenodd" clip-rule="evenodd" d="M199.681 334C211.759 334 222.284 340.908 227.794 351.129C231.46 349.622 235.456 348.793 239.638 348.793C255.223 348.793 268.221 360.294 271.198 375.572C276.312 380.728 279.49 387.945 279.49 395.934C279.49 411.603 267.262 424.306 252.178 424.306C247.313 424.306 242.744 422.984 238.788 420.668C233.066 426.083 225.459 429.384 217.109 429.384C206.828 429.384 197.672 424.379 191.777 416.586C186.197 421.407 179.025 424.306 171.2 424.306C153.416 424.306 139 409.329 139 390.855C139 373.172 152.208 358.694 168.934 357.486C173.016 343.878 185.238 334 199.681 334Z" fill="#FFFCFA"/>
<path d="M228.248 353.263C228.163 352.699 228.187 352.153 228.321 351.622C228.47 351.089 228.702 350.609 229.016 350.183C229.331 349.757 229.721 349.402 230.188 349.117C230.653 348.816 231.167 348.623 231.731 348.538C232.294 348.453 232.842 348.485 233.375 348.635C233.905 348.768 234.384 348.992 234.81 349.306C235.236 349.621 235.591 350.011 235.876 350.478C236.177 350.943 236.37 351.457 236.455 352.021C236.54 352.584 236.508 353.132 236.358 353.665C236.225 354.195 236.001 354.674 235.687 355.1C235.373 355.526 234.983 355.89 234.518 356.19C234.051 356.475 233.536 356.66 232.973 356.745C232.409 356.83 231.862 356.806 231.332 356.673C230.799 356.523 230.319 356.291 229.893 355.977C229.467 355.663 229.104 355.273 228.803 354.808C228.518 354.341 228.333 353.826 228.248 353.263ZM218.127 376.449C217.627 377.825 217.375 379.041 217.37 380.095C217.381 381.147 217.576 382.055 217.956 382.821C218.351 383.584 218.907 384.216 219.625 384.717C220.359 385.215 221.199 385.598 222.145 385.866C223.105 386.116 224.138 386.256 225.246 386.286C226.369 386.313 227.519 386.246 228.697 386.085C230.202 385.807 231.614 385.454 232.931 385.024C234.249 384.594 235.436 384.118 236.493 383.596C237.55 383.074 238.445 382.519 239.179 381.93C239.927 381.323 240.492 380.703 240.873 380.069C239.757 380.419 238.603 380.626 237.412 380.691C236.233 380.738 235.076 380.65 233.939 380.427C232.816 380.185 231.739 379.813 230.709 379.311C229.691 378.79 228.778 378.138 227.968 377.355C227.158 376.572 226.485 375.662 225.95 374.623C225.428 373.567 225.092 372.383 224.943 371.072C224.777 369.649 224.851 368.287 225.165 366.989C225.476 365.674 225.971 364.488 226.651 363.431C227.344 362.354 228.185 361.437 229.173 360.678C230.174 359.901 231.272 359.324 232.466 358.945C233.676 358.565 234.953 358.413 236.298 358.489C237.643 358.565 239.015 358.926 240.413 359.57C241.439 360.04 242.406 360.668 243.315 361.452C244.221 362.22 245.032 363.118 245.747 364.145C246.462 365.173 247.064 366.317 247.551 367.576C248.051 368.818 248.402 370.155 248.602 371.59C248.882 373.655 248.776 375.622 248.285 377.49C247.792 379.343 247.008 381.066 245.932 382.661C244.857 384.256 243.537 385.707 241.973 387.014C240.426 388.318 238.72 389.448 236.857 390.405C234.996 391.378 233.04 392.16 230.989 392.75C228.941 393.356 226.884 393.742 224.819 393.906C222.753 394.071 220.728 394.015 218.744 393.739C216.776 393.461 214.942 392.932 213.244 392.152C211.793 391.482 210.483 390.553 209.316 389.363C208.162 388.155 207.186 386.821 206.389 385.362C205.608 383.9 205.031 382.374 204.659 380.784C204.287 379.194 204.164 377.674 204.29 376.222C204.413 374.755 204.804 373.42 205.462 372.218C206.135 371.013 207.111 370.067 208.39 369.38C208.995 369.025 209.692 368.787 210.48 368.668C211.282 368.53 212.088 368.524 212.897 368.648C213.703 368.756 214.481 369.001 215.23 369.381C215.977 369.746 216.605 370.252 217.114 370.899C217.64 371.544 218.005 372.328 218.211 373.251C218.417 374.175 218.389 375.241 218.127 376.449ZM232.682 372.444C232.599 372.769 232.663 373.188 232.872 373.699C233.097 374.208 233.52 374.721 234.141 375.236C234.763 375.751 235.609 376.232 236.681 376.678C237.75 377.109 239.096 377.408 240.718 377.574C240.586 376.705 240.321 375.881 239.924 375.101C239.526 374.322 239.051 373.628 238.498 373.021C237.961 372.411 237.384 371.914 236.766 371.53C236.146 371.13 235.558 370.889 235.002 370.809C234.444 370.712 233.955 370.795 233.533 371.056C233.11 371.301 232.826 371.764 232.682 372.444ZM261.908 360.638C263.613 361.022 265.163 361.75 266.56 362.823C267.955 363.879 269.178 365.167 270.231 366.687C271.298 368.188 272.186 369.865 272.894 371.716C273.602 373.568 274.123 375.489 274.457 377.48C274.808 379.468 274.963 381.469 274.922 383.484C274.899 385.512 274.673 387.439 274.241 389.266C273.826 391.09 273.199 392.766 272.36 394.292C271.523 395.834 270.474 397.112 269.212 398.126C267.968 399.154 266.504 399.869 264.82 400.272C263.136 400.675 261.226 400.668 259.088 400.251C257.936 400.03 256.931 399.59 256.073 398.929C255.235 398.283 254.562 397.537 254.056 396.692C253.568 395.86 253.262 394.984 253.14 394.065C253.033 393.142 253.143 392.294 253.471 391.521C253.723 390.906 254.076 390.351 254.527 389.855C254.997 389.372 255.558 388.999 256.21 388.736C256.877 388.47 257.641 388.346 258.499 388.364C259.361 388.399 260.333 388.622 261.416 389.034C262.381 389.431 263.261 389.586 264.054 389.499C264.85 389.428 265.558 389.156 266.178 388.684C266.816 388.225 267.377 387.581 267.86 386.75C268.346 385.936 268.762 384.984 269.107 383.895C265.395 384.275 262.125 383.931 259.296 382.861C256.465 381.775 254.205 380.002 252.516 377.541C251.753 376.307 251.213 374.973 250.897 373.539C250.582 372.105 250.484 370.696 250.603 369.312C250.723 367.928 251.053 366.627 251.593 365.409C252.131 364.175 252.871 363.141 253.815 362.307C254.772 361.454 255.926 360.868 257.277 360.549C258.626 360.213 260.169 360.243 261.908 360.638ZM260.337 372.604C260.319 373.249 260.432 373.833 260.676 374.356C260.935 374.876 261.276 375.335 261.699 375.732C262.137 376.126 262.641 376.462 263.209 376.738C263.775 376.998 264.357 377.198 264.954 377.338C265.568 377.475 266.173 377.557 266.769 377.582C267.363 377.591 267.907 377.541 268.401 377.434C268.252 376.452 267.992 375.545 267.619 374.712C267.259 373.861 266.836 373.127 266.347 372.51C265.84 371.879 265.27 371.372 264.636 370.991C263.999 370.593 263.383 370.382 262.787 370.357C262.188 370.316 261.661 370.478 261.206 370.843C260.764 371.19 260.475 371.777 260.337 372.604ZM285.73 372.342C284.967 371.107 284.366 369.964 283.926 368.911C283.487 367.858 283.199 366.93 283.061 366.128C282.939 365.324 282.961 364.654 283.127 364.118C283.293 363.583 283.598 363.207 284.043 362.992C284.811 362.629 285.458 362.498 285.984 362.599C286.523 362.682 286.981 362.934 287.357 363.354C287.75 363.772 288.096 364.321 288.396 365C288.71 365.66 289.018 366.387 289.319 367.181C289.636 367.973 289.975 368.794 290.334 369.645C290.707 370.477 291.155 371.265 291.679 372.009C291.952 372.396 292.286 372.699 292.681 372.919C293.091 373.121 293.526 373.277 293.987 373.388C294.462 373.481 294.931 373.534 295.394 373.546C295.872 373.556 296.316 373.546 296.723 373.518C297.127 373.473 297.467 373.43 297.74 373.388C298.03 373.344 298.215 373.316 298.295 373.304C298.376 373.292 298.449 373.289 298.516 373.296C298.597 373.283 298.676 373.263 298.754 373.235L299.661 379.394L299.155 379.471C299.026 379.49 298.742 379.517 298.302 379.55C297.863 379.584 297.345 379.588 296.749 379.563C296.166 379.52 295.551 379.424 294.903 379.275C294.268 379.107 293.694 378.849 293.18 378.498C293.664 379.956 294.104 381.503 294.5 383.138C294.911 384.771 295.146 386.374 295.202 387.946C295.278 389.531 295.104 391.047 294.681 392.494C294.258 393.941 293.455 395.214 292.272 396.315C291.392 397.14 290.482 397.763 289.542 398.185C288.62 398.621 287.708 398.899 286.804 399.019C285.917 399.137 285.05 399.12 284.204 398.969C283.358 398.817 282.58 398.572 281.87 398.235C281.177 397.896 280.562 397.478 280.027 396.983C279.509 396.502 279.11 395.986 278.829 395.436C278.361 394.519 278.124 393.6 278.116 392.68C278.124 391.757 278.36 390.923 278.824 390.178C279.287 389.432 279.983 388.809 280.911 388.306C281.841 387.82 282.995 387.554 284.371 387.511C285.271 387.473 286.057 387.066 286.729 386.29C287.404 385.529 287.854 384.473 288.077 383.123C288.303 381.788 288.244 380.2 287.9 378.359C287.571 376.516 286.848 374.51 285.73 372.342ZM297.788 373.381C299.29 373.187 300.885 372.847 302.572 372.361C304.26 371.875 305.931 371.276 307.585 370.565C309.239 369.854 310.821 369.055 312.333 368.167C313.859 367.262 315.211 366.3 316.39 365.282C315.65 364.85 314.89 364.34 314.109 363.75C313.342 363.142 312.588 362.507 311.846 361.846C311.101 361.168 310.389 360.486 309.709 359.799C309.042 359.093 308.432 358.436 307.88 357.829C308.196 358.291 308.457 358.819 308.663 359.414C308.884 360.006 309.045 360.632 309.144 361.292C309.242 361.935 309.276 362.597 309.247 363.276C309.216 363.939 309.114 364.572 308.942 365.174C308.587 365.985 308.122 366.665 307.547 367.213C306.971 367.761 306.34 368.161 305.654 368.413C304.982 368.646 304.278 368.728 303.543 368.658C302.806 368.572 302.085 368.327 301.382 367.923C300.693 367.501 300.045 366.916 299.438 366.168C298.844 365.402 298.338 364.45 297.919 363.312C297.511 361.81 297.246 360.335 297.126 358.888C297.022 357.439 297.115 356.1 297.407 354.87C297.714 353.639 298.235 352.564 298.968 351.646C299.718 350.726 300.75 350.043 302.066 349.597C302.941 349.399 303.771 349.389 304.555 349.566C305.337 349.728 306.089 350.025 306.814 350.459C307.538 350.893 308.244 351.428 308.933 352.064C309.622 352.701 310.309 353.379 310.994 354.098C311.679 354.817 312.365 355.545 313.053 356.28C313.74 357.016 314.446 357.707 315.169 358.355C315.907 358.984 316.666 359.544 317.448 360.035C318.246 360.523 319.082 360.874 319.953 361.088C320.263 360.959 320.559 360.791 320.84 360.583C321.135 360.358 321.412 360.118 321.67 359.865C321.941 359.594 322.197 359.324 322.436 359.058C322.692 358.789 322.926 358.539 323.138 358.31C323.851 357.691 324.549 357.298 325.231 357.129C325.911 356.943 326.542 356.93 327.126 357.089C327.723 357.229 328.252 357.511 328.711 357.935C329.184 358.341 329.57 358.826 329.87 359.39C330.075 359.77 330.211 360.235 330.278 360.785C330.342 361.318 330.321 361.881 330.213 362.474C330.105 363.066 329.906 363.656 329.616 364.243C329.327 364.83 328.924 365.377 328.408 365.883C327.892 366.389 327.258 366.822 326.506 367.183C325.751 367.528 324.863 367.752 323.842 367.858C323.113 367.935 322.278 368.234 321.336 368.755C320.394 369.277 319.348 369.921 318.196 370.687C317.061 371.452 315.812 372.283 314.45 373.18C313.104 374.076 311.662 374.936 310.124 375.761C308.603 376.584 306.978 377.324 305.25 377.98C303.52 378.621 301.712 379.075 299.827 379.344C299.65 379.371 299.474 379.406 299.299 379.449C299.106 379.478 298.92 379.498 298.741 379.509L297.788 373.381Z" fill="#5ABFA2"/>
<path d="M86.3332 346.462C86.248 345.899 86.2722 345.352 86.4059 344.821C86.5557 344.288 86.7877 343.809 87.1018 343.382C87.4159 342.956 87.8066 342.601 88.2738 342.316C88.7386 342.015 89.2526 341.822 89.8158 341.737C90.3791 341.652 90.9272 341.684 91.4602 341.834C91.9907 341.968 92.469 342.192 92.8952 342.506C93.3213 342.82 93.6768 343.21 93.9615 343.678C94.2623 344.142 94.4553 344.656 94.5405 345.22C94.6258 345.783 94.5935 346.331 94.4437 346.864C94.31 347.395 94.0861 347.873 93.772 348.299C93.4579 348.725 93.0684 349.089 92.6036 349.389C92.1364 349.674 91.6212 349.859 91.0579 349.944C90.4947 350.03 89.9478 350.005 89.4173 349.872C88.8843 349.722 88.4047 349.49 87.9786 349.176C87.5524 348.862 87.189 348.472 86.8882 348.007C86.6034 347.54 86.4185 347.025 86.3332 346.462ZM95.452 345.205C95.3667 344.642 95.3909 344.095 95.5247 343.564C95.6744 343.032 95.9064 342.552 96.2205 342.126C96.5346 341.7 96.9253 341.344 97.3925 341.06C97.8573 340.759 98.3713 340.566 98.9346 340.48C99.4978 340.395 100.046 340.427 100.579 340.577C101.109 340.711 101.588 340.935 102.014 341.249C102.44 341.563 102.796 341.954 103.08 342.421C103.381 342.886 103.574 343.4 103.659 343.963C103.745 344.526 103.712 345.074 103.562 345.607C103.429 346.138 103.205 346.616 102.891 347.042C102.577 347.469 102.187 347.832 101.722 348.133C101.255 348.418 100.74 348.603 100.177 348.688C99.6134 348.773 99.0665 348.749 98.536 348.615C98.003 348.465 97.5235 348.233 97.0973 347.919C96.6712 347.605 96.3077 347.216 96.0069 346.751C95.7222 346.284 95.5372 345.768 95.452 345.205ZM120.262 379.106C118.836 379.256 117.491 379.122 116.226 378.704C114.959 378.27 113.801 377.639 112.754 376.81C111.707 375.981 110.774 374.986 109.957 373.826C109.137 372.649 108.46 371.386 107.926 370.034C108.04 371.548 107.881 372.946 107.45 374.23C107.032 375.495 106.427 376.607 105.634 377.566C104.838 378.51 103.901 379.277 102.822 379.869C101.742 380.46 100.614 380.837 99.4369 380.998C98.2597 381.16 97.0645 381.094 95.8512 380.8C94.638 380.506 93.5065 379.937 92.4568 379.092C89.4864 376.759 87.6542 373.3 86.96 368.713C86.7614 366.965 86.8163 365.262 87.1247 363.602C87.4308 361.926 87.9289 360.377 88.6192 358.956C89.3231 357.516 90.193 356.248 91.229 355.153C92.2786 354.04 93.4408 353.181 94.7156 352.576C96.0041 351.953 97.3778 351.622 98.8369 351.582C100.296 351.542 101.795 351.875 103.334 352.58C105.036 353.607 106.455 354.931 107.59 356.554C108.724 358.176 109.647 360.086 110.358 362.283C110.956 364.168 111.604 365.782 112.301 367.125C113.011 368.45 113.752 369.539 114.524 370.394C115.295 371.248 116.09 371.877 116.908 372.28C117.726 372.683 118.558 372.903 119.403 372.939L120.283 379.078L120.262 379.106ZM100.691 358.61C100.111 358.698 99.5793 358.935 99.0945 359.321C98.6258 359.705 98.2225 360.194 97.8844 360.788C97.5625 361.38 97.3263 362.05 97.176 362.797C97.0418 363.541 97.0183 364.31 97.1054 365.104C97.195 365.913 97.3992 366.664 97.718 367.357C98.0344 368.033 98.4178 368.609 98.8683 369.084C99.3349 369.557 99.8501 369.915 100.414 370.159C100.975 370.387 101.553 370.455 102.149 370.365C103.13 370.217 103.888 369.839 104.422 369.231C104.953 368.608 105.294 367.873 105.446 367.027C105.598 366.181 105.586 365.285 105.41 364.341C105.232 363.38 104.924 362.488 104.487 361.666C104.049 360.843 103.5 360.152 102.84 359.594C102.193 359.017 101.476 358.689 100.691 358.61ZM118.144 373.105C119.646 372.911 121.24 372.571 122.928 372.085C124.616 371.599 126.287 371 127.94 370.289C129.594 369.578 131.177 368.779 132.689 367.891C134.214 366.986 135.567 366.024 136.746 365.006C136.006 364.575 135.245 364.064 134.465 363.474C133.698 362.866 132.943 362.231 132.201 361.57C131.457 360.892 130.744 360.21 130.064 359.523C129.398 358.817 128.788 358.16 128.235 357.553C128.552 358.015 128.813 358.544 129.018 359.138C129.24 359.73 129.4 360.356 129.5 361.016C129.597 361.66 129.632 362.321 129.603 363C129.572 363.663 129.47 364.296 129.298 364.898C128.943 365.709 128.478 366.389 127.902 366.937C127.327 367.485 126.696 367.885 126.01 368.137C125.337 368.37 124.634 368.452 123.899 368.382C123.161 368.296 122.441 368.051 121.738 367.647C121.049 367.225 120.4 366.64 119.793 365.892C119.2 365.126 118.694 364.174 118.275 363.036C117.866 361.534 117.602 360.059 117.482 358.612C117.378 357.163 117.471 355.824 117.762 354.594C118.07 353.363 118.59 352.288 119.324 351.37C120.074 350.45 121.106 349.767 122.421 349.321C123.297 349.123 124.126 349.113 124.911 349.29C125.692 349.452 126.445 349.749 127.169 350.183C127.893 350.617 128.6 351.152 129.289 351.788C129.978 352.425 130.665 353.103 131.35 353.822C132.035 354.541 132.721 355.269 133.408 356.004C134.096 356.74 134.801 357.431 135.525 358.079C136.262 358.708 137.022 359.268 137.804 359.759C138.602 360.247 139.437 360.598 140.309 360.812C140.619 360.683 140.914 360.515 141.196 360.307C141.491 360.082 141.767 359.842 142.025 359.589C142.297 359.318 142.553 359.049 142.792 358.782C143.048 358.513 143.281 358.263 143.494 358.034C144.207 357.416 144.904 357.022 145.587 356.853C146.266 356.668 146.898 356.654 147.482 356.813C148.079 356.953 148.607 357.235 149.067 357.659C149.54 358.065 149.926 358.55 150.225 359.114C150.431 359.494 150.567 359.959 150.634 360.509C150.698 361.042 150.676 361.605 150.568 362.198C150.461 362.79 150.262 363.38 149.972 363.967C149.682 364.554 149.279 365.101 148.763 365.607C148.247 366.113 147.613 366.546 146.861 366.907C146.107 367.252 145.219 367.477 144.198 367.582C143.469 367.659 142.633 367.958 141.692 368.48C140.75 369.001 139.703 369.645 138.552 370.412C137.417 371.176 136.168 372.007 134.806 372.905C133.46 373.8 132.018 374.66 130.48 375.485C128.958 376.308 127.334 377.048 125.606 377.704C123.876 378.345 122.068 378.8 120.182 379.068C120.005 379.095 119.83 379.13 119.655 379.173C119.462 379.202 119.276 379.222 119.096 379.233L118.144 373.105ZM162.812 363.481C162.049 362.246 161.448 361.103 161.009 360.05C160.57 358.997 160.281 358.069 160.143 357.267C160.022 356.462 160.044 355.792 160.21 355.257C160.376 354.722 160.681 354.346 161.126 354.131C161.894 353.767 162.541 353.637 163.066 353.738C163.606 353.821 164.063 354.073 164.44 354.493C164.832 354.911 165.179 355.46 165.479 356.139C165.793 356.799 166.101 357.526 166.402 358.32C166.719 359.111 167.057 359.933 167.417 360.784C167.79 361.616 168.238 362.404 168.762 363.148C169.035 363.535 169.369 363.838 169.764 364.058C170.173 364.26 170.608 364.416 171.07 364.527C171.545 364.62 172.014 364.672 172.476 364.685C172.955 364.695 173.398 364.685 173.805 364.656C174.21 364.612 174.549 364.569 174.823 364.527C175.113 364.483 175.298 364.455 175.378 364.443C175.459 364.431 175.532 364.428 175.599 364.434C175.679 364.422 175.759 364.402 175.837 364.374L176.744 370.533L176.237 370.61C176.109 370.629 175.824 370.656 175.385 370.689C174.946 370.723 174.428 370.727 173.831 370.702C173.249 370.659 172.633 370.562 171.985 370.414C171.351 370.246 170.777 369.987 170.263 369.637C170.747 371.095 171.187 372.641 171.582 374.277C171.994 375.91 172.228 377.513 172.285 379.084C172.361 380.67 172.187 382.186 171.764 383.633C171.341 385.079 170.537 386.353 169.354 387.454C168.475 388.279 167.565 388.902 166.625 389.324C165.703 389.76 164.79 390.038 163.887 390.158C162.999 390.276 162.132 390.259 161.286 390.107C160.44 389.956 159.663 389.711 158.953 389.374C158.26 389.035 157.645 388.617 157.109 388.122C156.592 387.641 156.193 387.125 155.912 386.575C155.444 385.658 155.206 384.739 155.199 383.819C155.207 382.895 155.443 382.061 155.906 381.316C156.37 380.571 157.066 379.947 157.994 379.445C158.924 378.958 160.077 378.693 161.454 378.65C162.353 378.612 163.139 378.205 163.812 377.428C164.487 376.668 164.936 375.612 165.16 374.261C165.386 372.927 165.327 371.339 164.982 369.498C164.654 367.655 163.931 365.649 162.812 363.481ZM187.066 354.55C187.026 354.935 187.042 355.369 187.115 355.852C187.186 356.318 187.308 356.802 187.483 357.302C187.655 357.787 187.877 358.272 188.148 358.757C188.432 359.225 188.751 359.645 189.104 360.02C189.694 360.655 190.307 361.114 190.942 361.396C191.591 361.66 192.194 361.783 192.751 361.764C193.305 361.73 193.784 361.575 194.187 361.3C194.606 361.023 194.887 360.651 195.031 360.185C195.194 359.633 195.192 359.074 195.024 358.507C194.871 357.937 194.601 357.402 194.213 356.901C193.824 356.4 193.345 355.954 192.775 355.563C192.204 355.156 191.595 354.836 190.951 354.604C190.307 354.373 189.647 354.25 188.97 354.238C188.307 354.206 187.672 354.311 187.066 354.55ZM183.226 362.786C182.818 364.659 182.019 366.286 180.829 367.668C179.655 369.047 178.156 370.015 176.33 370.571L175.402 364.439C176.314 364.153 177.056 363.728 177.629 363.164C178.202 362.6 178.664 361.954 179.015 361.226C179.379 360.479 179.661 359.68 179.862 358.826C180.078 357.97 180.268 357.11 180.434 356.246C180.811 354.279 181.293 352.568 181.879 351.113C182.482 349.656 183.246 348.503 184.171 347.655C185.11 346.789 186.239 346.256 187.559 346.056C188.876 345.84 190.455 345.996 192.296 346.524C193.346 346.826 194.366 347.256 195.356 347.814C196.346 348.372 197.285 349.029 198.172 349.783C199.076 350.535 199.91 351.364 200.672 352.269C201.451 353.172 202.129 354.115 202.705 355.097C203.298 356.078 203.779 357.083 204.149 358.113C204.519 359.144 204.756 360.162 204.858 361.167C205.017 363.085 204.872 364.737 204.423 366.122C203.99 367.504 203.346 368.63 202.49 369.501C201.636 370.387 200.623 371.034 199.45 371.442C198.278 371.85 197.048 372.045 195.761 372.025C194.474 372.006 193.173 371.783 191.857 371.357C190.557 370.928 189.337 370.314 188.196 369.516C187.054 368.717 186.045 367.759 185.168 366.641C184.288 365.506 183.641 364.221 183.226 362.786Z" fill="#EB9F4A"/>
</svg>
