<svg width="103" height="84" viewBox="0 0 103 84" fill="none" xmlns="http://www.w3.org/2000/svg">
<g filter="url(#filter0_d_174_371)">
<path fill-rule="evenodd" clip-rule="evenodd" d="M88.0478 29.6012C88.8226 26.4985 88.843 23.1612 87.9566 19.8533C85.1712 9.45803 74.4862 3.28904 64.091 6.07443C58.1949 7.65428 53.6584 11.7755 51.3443 16.9437C47.326 14.491 42.3491 13.6249 37.4428 14.9395C30.2172 16.8756 25.224 22.9843 24.361 29.9785C23.0543 30.0287 21.7328 30.2245 20.4164 30.5772C10.9081 33.125 5.26541 42.8983 7.81315 52.4066C10.3609 61.9149 20.1343 67.5576 29.6426 65.0099C33.3243 64.0233 36.4264 61.9535 38.6978 59.2352C43.0137 62.9397 49.0245 64.5192 54.9331 62.936C58.5148 61.9763 61.548 59.9912 63.8015 57.3813C68.235 63.8795 76.4407 67.1929 84.4697 65.0416C94.6308 62.3189 100.661 51.8745 97.9383 41.7133C96.4696 36.232 92.7539 31.9528 88.0478 29.6012Z" fill="white"/>
<rect x="25.9512" y="51.9019" width="51.9015" height="13.8404" fill="white"/>
<path d="M19.7441 55.6221L26.7955 62.6734" stroke="#EF0000" stroke-width="4" stroke-linecap="round"/>
<path d="M26.5684 55.6221L19.517 62.6734" stroke="#EF0000" stroke-width="4" stroke-linecap="round"/>
<path d="M25.1436 52.7644C25.1436 52.7644 23.7971 45.4791 30.528 40.1906C37.2588 34.9021 46.2331 47.7225 50.7204 43.2353C55.2076 38.7481 49.9188 34.5814 55.8486 29.7737C61.7784 24.966 70.9773 23.918 70.9773 23.918" stroke="#5ABFA2" stroke-width="3" stroke-dasharray="6 6"/>
<path d="M72.4004 18.0469H71.9004V18.5469V20.5958C71.9004 23.7008 74.4175 26.218 77.5226 26.218C80.6277 26.218 83.1448 23.7008 83.1448 20.5958V18.5469V18.0469H82.6448H72.4004Z" fill="#72A2FF" stroke="#72A2FF"/>
<mask id="path-7-outside-1_174_371" maskUnits="userSpaceOnUse" x="71.1152" y="14.4731" width="13" height="6" fill="black">
<rect fill="white" x="71.1152" y="14.4731" width="13" height="6"/>
<path fill-rule="evenodd" clip-rule="evenodd" d="M73.2481 15.4731C72.8518 15.4731 72.501 15.7294 72.3806 16.107C72.2738 16.4417 72.3701 16.7804 72.5869 17.01H72.1152C72.1152 18.0472 72.9561 18.8881 73.9934 18.8881H81.1076C82.1448 18.8881 82.9857 18.0472 82.9857 17.01H82.5147C82.7315 16.7804 82.8278 16.4417 82.721 16.107C82.6006 15.7294 82.2498 15.4731 81.8535 15.4731H73.2481Z"/>
</mask>
<path fill-rule="evenodd" clip-rule="evenodd" d="M73.2481 15.4731C72.8518 15.4731 72.501 15.7294 72.3806 16.107C72.2738 16.4417 72.3701 16.7804 72.5869 17.01H72.1152C72.1152 18.0472 72.9561 18.8881 73.9934 18.8881H81.1076C82.1448 18.8881 82.9857 18.0472 82.9857 17.01H82.5147C82.7315 16.7804 82.8278 16.4417 82.721 16.107C82.6006 15.7294 82.2498 15.4731 81.8535 15.4731H73.2481Z" fill="#F9443D"/>
<path d="M72.3806 16.107L71.4279 15.803V15.803L72.3806 16.107ZM72.5869 17.01V18.01H74.9062L73.314 16.3235L72.5869 17.01ZM72.1152 17.01V16.01H71.1152V17.01H72.1152ZM82.9857 17.01H83.9857V16.01H82.9857V17.01ZM82.5147 17.01L81.7876 16.3235L80.1954 18.01H82.5147V17.01ZM82.721 16.107L81.7683 16.4109V16.4109L82.721 16.107ZM73.3333 16.4109C73.3214 16.448 73.287 16.4731 73.2481 16.4731V14.4731C72.4166 14.4731 71.6806 15.0109 71.4279 15.803L73.3333 16.4109ZM73.314 16.3235C73.3227 16.3327 73.33 16.3449 73.334 16.3611C73.3385 16.3799 73.3371 16.3987 73.3333 16.4109L71.4279 15.803C71.2035 16.5064 71.4095 17.2196 71.8597 17.6965L73.314 16.3235ZM72.1152 18.01H72.5869V16.01H72.1152V18.01ZM73.9934 17.8881C73.5084 17.8881 73.1152 17.495 73.1152 17.01H71.1152C71.1152 18.5995 72.4038 19.8881 73.9934 19.8881V17.8881ZM81.1076 17.8881H73.9934V19.8881H81.1076V17.8881ZM81.9857 17.01C81.9857 17.495 81.5925 17.8881 81.1076 17.8881V19.8881C82.6971 19.8881 83.9857 18.5995 83.9857 17.01H81.9857ZM82.5147 18.01H82.9857V16.01H82.5147V18.01ZM81.7683 16.4109C81.7645 16.3987 81.7631 16.3799 81.7676 16.3611C81.7716 16.3449 81.7789 16.3327 81.7876 16.3235L83.2419 17.6965C83.6921 17.2196 83.8981 16.5064 83.6737 15.803L81.7683 16.4109ZM81.8535 16.4731C81.8146 16.4731 81.7802 16.448 81.7683 16.4109L83.6737 15.803C83.421 15.0109 82.685 14.4731 81.8535 14.4731V16.4731ZM73.2481 16.4731H81.8535V14.4731H73.2481V16.4731Z" fill="#C52024" mask="url(#path-7-outside-1_174_371)"/>
<rect opacity="0.1" x="72.4004" y="18.5469" width="10.2444" height="1.08136" fill="black"/>
<path d="M72.1152 17.0098H82.9857C82.9857 18.047 82.1448 18.8879 81.1076 18.8879H73.9934C72.9561 18.8879 72.1152 18.047 72.1152 17.0098Z" fill="url(#paint0_linear_174_371)"/>
<path d="M72.3808 16.107C72.5012 15.7294 72.852 15.4731 73.2483 15.4731H81.8537C82.25 15.4731 82.6008 15.7294 82.7212 16.107C82.9087 16.6944 82.4703 17.2944 81.8537 17.2944H73.2483C72.6317 17.2944 72.1934 16.6944 72.3808 16.107Z" fill="#F9443D"/>
<path d="M85.6237 15.9503L86.6312 15.4573L85.591 15.0375C84.8337 14.7319 83.9875 14.7164 83.2687 14.8012C82.5455 14.8864 81.9009 15.0791 81.5145 15.2379L81.25 15.3466L81.2095 15.6297L81.1242 16.2273L81.0492 16.7522L81.5776 16.7963C82.1832 16.8467 82.8516 17.0631 83.4564 17.3285C84.0577 17.5924 84.5642 17.8904 84.8374 18.0769L86.1932 19.0022L85.5836 17.4782C85.4237 17.0785 85.1326 16.6541 84.8685 16.3199L85.6237 15.9503Z" fill="#5ABFA2" stroke="#EB9F4A"/>
<path d="M69.6195 15.9503L68.612 15.4573L69.6522 15.0375C70.4095 14.7319 71.2556 14.7164 71.9744 14.8012C72.6977 14.8864 73.3423 15.0791 73.7287 15.2379L73.9932 15.3466L74.0336 15.6297L74.119 16.2273L74.194 16.7522L73.6655 16.7963C73.06 16.8467 72.3916 17.0631 71.7867 17.3285C71.1854 17.5924 70.679 17.8904 70.4057 18.0769L69.05 19.0022L69.6596 17.4782C69.8195 17.0785 70.1106 16.6541 70.3747 16.3199L69.6195 15.9503Z" fill="#5ABFA2" stroke="#EB9F4A"/>
<path d="M77.9747 14.5986L77.8612 14.7067L77.8296 14.8603L77.602 15.9702L77.5407 16.2691L77.7785 16.4603C78.1953 16.7954 78.8436 16.9635 79.4913 17.0333C80.1618 17.1055 80.9245 17.0818 81.6453 16.9623C82.6654 16.7932 83.2602 16.094 83.3521 15.2482C83.4399 14.4409 83.0661 13.5684 82.3413 12.9567C81.9621 12.6366 81.4962 12.6002 81.0838 12.673C80.6754 12.745 80.2576 12.9322 79.8781 13.1487C79.1151 13.584 78.3827 14.2104 77.9747 14.5986Z" fill="#5ABFA2" stroke="#EB9F4A"/>
<path d="M77.2899 14.5986L77.4035 14.7067L77.435 14.8603L77.6627 15.9702L77.724 16.2691L77.4861 16.4603C77.0693 16.7954 76.4211 16.9635 75.7733 17.0333C75.1028 17.1055 74.3402 17.0818 73.6194 16.9623C72.5992 16.7932 72.0044 16.094 71.9125 15.2482C71.8248 14.4409 72.1985 13.5684 72.9233 12.9567C73.3026 12.6366 73.7684 12.6002 74.1809 12.673C74.5893 12.745 75.007 12.9322 75.3866 13.1487C76.1496 13.584 76.882 14.2104 77.2899 14.5986Z" fill="#5ABFA2" stroke="#EB9F4A"/>
<path d="M78.7451 16.4123C79.5228 16.7608 81.7234 17.0588 82.2738 15.8716C82.8241 14.6845 79.8299 15.1602 78.7451 16.4123Z" fill="#43907A"/>
<path d="M76.4756 16.4371C76.0485 16.6159 73.6102 17.0087 72.947 15.8964C72.2837 14.7842 75.3908 15.185 76.4756 16.4371Z" fill="#43907A"/>
<path d="M79.0616 15.161L79.0576 15.1541C79.0531 15.1461 79.0462 15.1339 79.0377 15.1183C79.0205 15.087 78.997 15.0431 78.9721 14.9934C78.9171 14.8835 78.8748 14.7828 78.8606 14.7258C78.8352 14.6243 78.7869 14.4927 78.6788 14.3766C78.5665 14.2559 78.4329 14.1982 78.3202 14.1689C78.2167 14.142 78.1092 14.1336 78.0209 14.1292C77.9541 14.1258 77.8751 14.1238 77.7929 14.1218C77.7642 14.1211 77.7351 14.1204 77.706 14.1196C77.6686 14.1186 77.6272 14.1171 77.5853 14.1156C77.5132 14.113 77.4394 14.1103 77.3808 14.1099C77.2807 14.1092 77.1546 14.1129 77.0263 14.1458C76.7042 14.2285 76.5195 14.4505 76.3907 14.7106C76.3072 14.8792 76.2627 15.024 76.2374 15.1062C76.2318 15.1246 76.2271 15.1399 76.2231 15.1516C76.2081 15.196 76.1963 15.2304 76.1245 15.3107C75.9674 15.4865 75.8821 15.7352 75.9569 15.9991C76.0239 16.2355 76.195 16.3967 76.3556 16.4978C76.6749 16.6987 77.1444 16.7899 77.6962 16.7701C77.9043 16.7745 78.2153 16.7652 78.4892 16.7178C78.6249 16.6943 78.7894 16.6554 78.9328 16.5826C79.0547 16.5206 79.3308 16.3428 79.3308 15.9853C79.3308 15.7504 79.2439 15.5282 79.1874 15.4022C79.1555 15.3312 79.124 15.2709 79.1003 15.2281C79.0884 15.2065 79.0781 15.1887 79.0704 15.1758L79.0616 15.161Z" fill="#5ABFA2" stroke="#EB9F4A"/>
<rect x="75.8838" y="15.6562" width="3.56111" height="10.7322" rx="1.78055" fill="#5ABFA2" stroke="#EB9F4A"/>
</g>
<path d="M67.3597 59.0759C67.0491 59.1366 66.5658 59.2063 66.0047 59.275C64.3815 59.4743 62.1098 59.6669 61.5067 59.6166C61.2232 59.387 60.9728 59.117 60.7655 58.817C60.5242 58.4679 60.3396 58.0702 60.2988 57.6478C60.2581 57.2259 60.3748 56.7775 60.6682 56.471C60.9616 56.1649 61.4915 56.0195 61.8571 56.2343C62.1216 56.3896 62.4265 56.7559 62.4906 57.1571C63.3862 56.55 64.2115 56.1481 65.2128 55.8469C65.3302 55.8118 65.4497 55.7778 65.5723 55.7452C66.4443 56.6833 67.0466 57.8339 67.3597 59.0759Z" fill="#F6E2D7"/>
<path d="M67.3603 59.0761C67.0496 59.1368 66.5663 59.2065 66.0053 59.2752C66.0295 58.8875 66.0316 58.4979 66.0125 58.1097C65.9896 57.6563 65.9361 57.2002 65.7852 56.7724C65.6637 56.4276 65.4744 56.1001 65.2134 55.8471C65.3308 55.812 65.4503 55.7779 65.573 55.7454C66.4449 56.6835 67.0471 57.8341 67.3603 59.0761Z" fill="#EFCAB9"/>
<path d="M63.0908 58.5858C63.0736 58.3077 63.0176 58.0343 62.9489 57.7647C62.8957 57.5556 62.9229 57.2362 62.7936 57.0667C62.7374 57.0719 62.586 57.1672 62.551 57.1013C62.4479 56.907 62.3411 56.7457 62.1988 56.5778C62.0413 56.3922 61.8818 56.2743 61.6676 56.1595C61.6434 56.1465 61.6251 56.1304 61.6118 56.1126C61.5187 56.1243 61.4449 56.1783 61.3968 56.251C61.7873 56.6223 61.9859 57.1337 62.133 57.644C62.1685 57.7491 62.2003 57.8557 62.2312 57.9621C62.2278 57.9667 62.2249 57.9716 62.2217 57.9764C62.2911 58.2744 62.3235 58.5792 62.3209 58.8858C62.319 59.1143 62.145 59.3203 62.0839 59.5217C61.9279 59.5532 62.2709 59.5699 62.2947 59.5889C62.4693 59.5848 62.6438 59.5661 62.8185 59.5591C62.9051 59.5557 62.9917 59.5531 63.0783 59.5506C63.0792 59.549 63.08 59.5472 63.0809 59.5455C63.1118 59.2235 63.1101 58.8963 63.0908 58.5858Z" fill="#666666"/>
<path d="M62.2262 58.9599C62.2337 58.859 62.2326 58.7563 62.2267 58.6532C62.2938 58.234 62.164 57.8036 62.0412 57.3897C61.9385 57.0441 61.7724 56.5265 61.44 56.3024C61.4212 56.284 61.4001 56.2675 61.376 56.2541C61.3733 56.2526 61.3706 56.2511 61.3679 56.2496C61.3129 56.2191 61.2576 56.2051 61.2047 56.2038C61.1667 56.1965 61.1273 56.1923 61.0859 56.1922C60.7723 56.1915 60.5367 56.4162 60.4546 56.7071C60.4514 56.7183 60.4485 56.73 60.4456 56.7415C60.1744 57.1455 60.3483 57.8981 60.5091 58.2759C60.6198 58.536 60.7525 58.7981 60.9106 59.0325C61.0805 59.2845 61.3146 59.6022 61.6491 59.6098C62.0101 59.618 62.2028 59.2742 62.2262 58.9599Z" fill="#B3B3B3"/>
<path d="M61.4723 59.7416C61.4553 59.7369 61.4392 59.7287 61.4253 59.7175C61.1316 59.4799 60.8737 59.2017 60.659 58.8909C60.3735 58.4776 60.209 58.0637 60.1701 57.6609C60.1232 57.174 60.2744 56.6961 60.5748 56.3825C60.8914 56.052 61.4819 55.8646 61.9223 56.1236C62.1659 56.2668 62.4502 56.5737 62.5719 56.948C63.5317 56.3172 64.4292 55.9168 65.5389 55.6212C65.585 55.609 65.6341 55.6232 65.6666 55.658C66.5318 56.5888 67.1605 57.76 67.4846 59.0449C67.4933 59.0792 67.4875 59.1156 67.4685 59.1455C67.4495 59.1755 67.4191 59.1962 67.3843 59.2031C66.1736 59.4402 62.3312 59.8155 61.4958 59.7458C61.4878 59.7451 61.48 59.7437 61.4723 59.7416ZM61.6452 56.2847C61.3386 56.2004 60.9687 56.3445 60.7613 56.5611C60.5121 56.8212 60.3872 57.2231 60.4271 57.6362C60.4617 57.9947 60.6111 58.3674 60.8714 58.7442C61.0645 59.0237 61.2949 59.2749 61.5566 59.4913C62.4038 59.5419 65.9168 59.2012 67.1996 58.9748C66.8841 57.8103 66.3093 56.7481 65.5301 55.8909C64.4258 56.1926 63.5343 56.6058 62.5628 57.2645C62.5263 57.2893 62.4796 57.2936 62.4391 57.2761C62.3986 57.2586 62.3698 57.2216 62.3629 57.178C62.3061 56.8225 62.0261 56.4841 61.7915 56.3461C61.7452 56.319 61.6961 56.2987 61.6452 56.2847Z" fill="#1F404D"/>
<path d="M61.7801 59.7459C61.7333 59.7331 61.6958 59.6943 61.687 59.6434C61.6749 59.5732 61.7219 59.5064 61.7922 59.4943C61.9447 59.4679 62.0664 59.3012 62.1294 59.154C62.2055 58.9759 62.209 58.7663 62.2036 58.6035C62.1804 57.9123 61.9669 57.2417 61.5862 56.6644C61.4652 56.4809 61.2733 56.3076 61.1837 56.3017C61.1124 56.2965 61.0591 56.235 61.0641 56.1639C61.0691 56.0928 61.1308 56.0392 61.2019 56.0442C61.4381 56.0611 61.6975 56.3643 61.8017 56.5224C62.2085 57.1394 62.4367 57.8561 62.4615 58.5949C62.4678 58.7844 62.4628 59.0307 62.3666 59.2555C62.2505 59.527 62.0522 59.7113 61.8361 59.7487C61.8169 59.7519 61.7978 59.7508 61.7801 59.7459Z" fill="#1F404D"/>
<path d="M63.1353 59.6617C63.0738 59.6448 63.0328 59.5845 63.0418 59.5195C63.1573 58.6876 63.0224 57.8116 62.6621 57.0528C62.6316 56.9884 62.659 56.9115 62.7234 56.8809C62.7878 56.8503 62.8648 56.8778 62.8953 56.9421C63.2769 57.7458 63.4198 58.6737 63.2975 59.555C63.2877 59.6256 63.2225 59.6749 63.1519 59.6651C63.1462 59.6643 63.1407 59.6631 63.1353 59.6617Z" fill="#1F404D"/>
<path d="M74.3213 60.6761C74.5572 60.8871 74.937 61.1941 75.3842 61.5398C76.6776 62.5407 78.5317 63.8674 79.0758 64.1323C79.4368 64.0798 79.79 63.9757 80.1216 63.8238C80.5073 63.647 80.8693 63.3996 81.1203 63.0574C81.3708 62.7155 81.4997 62.2704 81.4041 61.8571C81.3084 61.4441 80.9273 61.0482 80.5032 61.046C80.1965 61.0443 79.7472 61.2033 79.4871 61.5154C79.0276 60.5358 78.5236 59.7686 77.8169 58.998C77.734 58.9079 77.6486 58.8175 77.5598 58.7268C76.3309 59.0875 75.2252 59.7687 74.3213 60.6761Z" fill="#F6E2D7"/>
<path d="M74.3213 60.6761C74.5572 60.8871 74.937 61.1941 75.3842 61.5398C75.5615 61.1942 75.7588 60.8582 75.9737 60.5344C76.225 60.1564 76.5042 59.7917 76.8525 59.5011C77.1331 59.2668 77.4632 59.0821 77.8169 58.9979C77.7339 58.9078 77.6485 58.8174 77.5598 58.7268C76.3309 59.0875 75.2252 59.7687 74.3213 60.6761Z" fill="#EFCAB9"/>
<path d="M78.2401 62.4356C78.3971 62.2054 78.5849 61.999 78.7817 61.8024C78.9344 61.6499 79.0742 61.3614 79.272 61.2818C79.3176 61.315 79.3991 61.4743 79.4628 61.4356C79.6507 61.3212 79.825 61.2372 80.0331 61.1656C80.2633 61.0865 80.4606 61.0667 80.7034 61.0775C80.731 61.0787 80.7549 61.0743 80.7754 61.0657C80.8494 61.1234 80.8853 61.2075 80.8895 61.2946C80.3641 61.4141 79.932 61.7522 79.5447 62.1156C79.4605 62.1878 79.3787 62.2632 79.2977 62.3389C79.2983 62.3446 79.2983 62.3503 79.2986 62.356C79.0867 62.5767 78.903 62.8221 78.7486 63.0869C78.6334 63.2844 78.6776 63.5503 78.6272 63.7547C78.7452 63.8615 78.4419 63.7005 78.4117 63.7047C78.2638 63.612 78.1233 63.5067 77.9767 63.4114C77.9041 63.3642 77.831 63.3177 77.7578 63.2713C77.7578 63.2695 77.7581 63.2676 77.7581 63.2657C77.8962 62.9731 78.0648 62.6927 78.2401 62.4356Z" fill="#666666"/>
<path d="M78.7915 63.2004C78.8366 63.1097 78.8901 63.022 78.9478 62.9364C79.1044 62.5418 79.4359 62.2382 79.7531 61.9452C80.0179 61.7006 80.4252 61.3407 80.8255 61.3179C80.851 61.3117 80.8776 61.3083 80.9052 61.3091C80.9083 61.3092 80.9113 61.3093 80.9144 61.3094C80.9773 61.3113 81.0319 61.3275 81.0781 61.3535C81.1144 61.3666 81.1505 61.3831 81.1861 61.4041C81.456 61.5638 81.5438 61.8773 81.4656 62.1694C81.4626 62.1806 81.4591 62.1921 81.4558 62.2035C81.4824 62.6893 80.9483 63.2474 80.617 63.4899C80.3889 63.6569 80.1408 63.8144 79.8852 63.9351C79.6104 64.0649 79.2467 64.2183 78.9553 64.0539C78.6409 63.8765 78.651 63.4825 78.7915 63.2004Z" fill="#B3B3B3"/>
<path d="M79.041 64.2564C79.0334 64.2543 79.0259 64.2515 79.0188 64.248C78.265 63.8811 75.1542 61.5947 74.2347 60.7721C74.2083 60.7485 74.1927 60.7151 74.1918 60.6796C74.1907 60.6442 74.2043 60.6099 74.2293 60.5848C75.1646 59.6461 76.3035 58.9607 77.5229 58.6029C77.5687 58.5895 77.6182 58.6024 77.6515 58.6365C78.4542 59.4576 79.021 60.2605 79.5236 61.2933C79.8195 61.0338 80.2207 60.9154 80.5033 60.9168C81.0141 60.9193 81.426 61.3821 81.5291 61.8279C81.627 62.251 81.5128 62.7391 81.2236 63.1336C80.9843 63.46 80.6314 63.7316 80.1748 63.9409C79.8314 64.0983 79.4676 64.2056 79.0936 64.2597C79.076 64.2623 79.058 64.2611 79.041 64.2564ZM74.5102 60.6703C75.4971 61.5205 78.3425 63.6088 79.0965 63.9983C79.4321 63.946 79.7584 63.8479 80.0672 63.7063C80.4834 63.5156 80.8025 63.2716 81.0154 62.981C81.2608 62.6463 81.3589 62.237 81.2777 61.8862C81.1988 61.5456 80.8799 61.1768 80.502 61.1749C80.2297 61.1736 79.8161 61.3213 79.5856 61.5979C79.5574 61.6318 79.5138 61.6489 79.47 61.6433C79.4262 61.6376 79.3883 61.61 79.3697 61.5701C78.8712 60.5073 78.316 59.6965 77.5211 58.8729C76.4134 59.2114 75.3765 59.8306 74.5102 60.6703Z" fill="#1F404D"/>
<path d="M78.7751 64.1036C78.7573 64.0987 78.7404 64.0899 78.7255 64.0772C78.5589 63.9346 78.4826 63.6749 78.5216 63.3822C78.5538 63.1397 78.6754 62.9254 78.7777 62.7659C79.1766 62.1436 79.739 61.6441 80.4041 61.3217C80.5744 61.2391 80.9524 61.111 81.1639 61.2172C81.2276 61.2492 81.2533 61.3268 81.2213 61.3905C81.1892 61.4541 81.1116 61.4797 81.048 61.4479C80.9673 61.4066 80.7143 61.4581 80.5167 61.5539C79.8944 61.8556 79.3682 62.3228 78.995 62.9051C78.9071 63.0422 78.803 63.2242 78.7774 63.4162C78.7563 63.5749 78.7757 63.7804 78.8933 63.881C78.9475 63.9274 78.9538 64.0088 78.9075 64.063C78.8739 64.1022 78.8218 64.1164 78.7751 64.1036Z" fill="#1F404D"/>
<path d="M77.6534 63.3381C77.648 63.3366 77.6427 63.3348 77.6374 63.3326C77.5717 63.3049 77.5409 63.2292 77.5685 63.1635C77.9138 62.3435 78.5108 61.619 79.2496 61.1232C79.3088 61.0835 79.389 61.0993 79.4287 61.1585C79.4684 61.2176 79.4526 61.2978 79.3935 61.3375C78.696 61.8056 78.1324 62.4896 77.8065 63.2637C77.781 63.324 77.7149 63.355 77.6534 63.3381Z" fill="#1F404D"/>
<path d="M74.7628 56.6598C74.7436 56.6535 74.7203 56.6468 74.6933 56.6399C74.1799 56.7377 73.6591 56.6608 73.1407 56.6239C72.477 56.5766 71.8398 56.4856 71.1911 56.3363C70.5404 56.1865 69.9008 56.0392 69.2649 55.8337C68.8839 55.7105 68.3792 55.6492 68.0511 55.3853C67.807 55.3861 67.563 55.3827 67.3192 55.3755C66.8761 55.3626 66.4205 55.308 65.9841 55.4023C65.6442 55.4916 65.3101 55.6029 64.9847 55.7356C65.5359 56.2421 65.975 56.8395 66.2996 57.4967C66.5671 58.0361 66.7564 58.6157 66.868 59.2196C67.2164 59.2551 67.5527 59.2506 67.8896 59.1957L67.8892 59.1921C68.3625 59.2147 68.8357 59.2426 69.3065 59.297C69.8857 59.3642 70.4549 59.492 71.0141 59.6558C72.0089 59.9466 72.9848 60.3087 73.9616 60.657C74.2856 60.8385 74.6286 60.9861 74.9834 61.0958C75.278 60.5958 75.6751 60.155 76.133 59.784C76.6377 59.3753 77.2164 59.0521 77.8151 58.8289C77.4141 58.051 75.2547 56.8225 74.7628 56.6598Z" fill="#4D8791"/>
<path d="M76.1331 59.7842C75.6751 60.1552 75.1636 60.7221 74.8689 61.222C74.4733 61.1679 74.2087 60.9432 73.9617 60.6571C72.9849 60.3088 72.009 59.9468 71.0142 59.6559C70.455 59.4921 69.8858 59.3643 69.3066 59.2971C68.8358 59.2427 68.3626 59.2148 67.8894 59.1922L67.8898 59.1958C67.5528 59.2507 67.2165 59.2552 66.8681 59.2197C66.7566 58.6158 66.5672 58.0362 66.2998 57.4968C66.571 57.7875 66.8417 58.0788 67.1129 58.3699C67.021 57.6107 66.8001 56.9592 66.4196 56.2957C67.106 56.908 67.6436 57.6165 68.036 58.4482C68.4935 58.3912 68.9085 58.3568 69.3324 58.5385C69.5839 57.8757 69.9666 57.2029 70.4921 56.727C70.2716 57.4492 70.2289 58.2252 70.369 58.9677C70.6205 58.6111 70.8672 58.1157 71.1189 57.7592C71.0611 58.1802 71.0035 58.6016 70.9456 59.0227C71.7376 58.6113 72.3367 57.8868 72.5929 57.0321C72.7497 57.8789 72.8649 58.7335 72.9376 59.5914C73.2211 59.7095 73.5247 59.7647 73.8085 59.8827C74.5994 59.2368 75.366 58.7755 76.3566 58.5271C75.6315 58.8387 75.0607 59.4891 74.8454 60.2483C75.2295 60.0051 75.6751 59.8469 76.1331 59.7842Z" fill="#40797F"/>
<path d="M66.8359 59.3327C66.7931 59.321 66.7597 59.2856 66.7514 59.2406C66.5012 57.8849 65.8624 56.7027 64.9041 55.822C64.8745 55.7947 64.8608 55.7541 64.8679 55.7145C64.8751 55.6748 64.902 55.6415 64.9393 55.6263C65.7789 55.2839 67.546 55.1143 68.3771 55.2963C68.4407 55.3111 68.4808 55.373 68.4669 55.4365C68.453 55.5 68.3903 55.5402 68.3268 55.5263C67.5989 55.3668 66.0503 55.5005 65.2024 55.7805C66.1005 56.6603 66.7076 57.8049 66.9655 59.107C67.1786 59.1165 67.374 59.105 67.5794 59.0929C67.6784 59.0871 67.7808 59.0811 67.8849 59.0777C68.383 59.0613 69.8114 59.2594 69.872 59.2679C69.8762 59.2685 69.8803 59.2692 69.8844 59.2703C70.1289 59.3316 70.3793 59.3896 70.6215 59.4456C71.1073 59.558 71.6097 59.6742 72.0961 59.8245C72.5456 59.9633 73.4433 60.3184 73.9084 60.5414C74.1112 60.6386 74.3166 60.7884 74.5152 60.9331C74.6241 61.0124 74.7284 61.0885 74.8214 61.1472C75.4379 60.164 76.5742 59.211 77.6625 58.7618C77.2894 58.2792 76.7681 57.8733 75.9951 57.4601C75.5757 57.236 74.6645 56.7717 74.6554 56.7671C74.5974 56.7375 74.5744 56.6667 74.6039 56.6088C74.6334 56.5508 74.7046 56.528 74.7622 56.5573C74.7714 56.562 75.6845 57.0273 76.106 57.2525C76.977 57.7181 77.544 58.1791 77.9444 58.7475C77.9654 58.7773 77.9713 58.8152 77.9606 58.8501C77.9498 58.8849 77.9234 58.9128 77.8892 58.9255C76.7676 59.3435 75.5644 60.3474 74.9632 61.3669C74.9312 61.421 74.8623 61.4405 74.8067 61.4111C74.678 61.3429 74.5316 61.2362 74.3766 61.1232C74.1866 60.9848 73.99 60.8415 73.8067 60.7536C73.3988 60.5581 72.4973 60.1947 72.0267 60.0494C71.5483 59.9017 71.0502 59.7864 70.5684 59.6748C70.3272 59.619 70.0778 59.5613 69.8333 59.5001C69.7288 59.4857 68.3546 59.2977 67.8926 59.3128C67.7915 59.3162 67.6907 59.3221 67.5931 59.3279C67.362 59.3414 67.1229 59.3555 66.8587 59.3366C66.8509 59.3361 66.8433 59.3348 66.8359 59.3327Z" fill="#1F404D"/>
<path d="M79.5832 51.6846C81.694 50.3449 82.9994 48.5928 83.4005 47.7922C83.5502 47.9108 83.7872 47.9747 83.9366 48.0935C83.9901 48.136 84.061 48.1804 84.1212 48.1483C84.156 48.1298 84.175 48.0888 84.1764 48.0493C84.1779 48.0099 84.1649 47.9714 84.1495 47.9346C84.0587 47.721 83.8699 47.5061 83.6526 47.4242C83.8283 47.4893 84.0148 47.5247 84.202 47.5288C84.2576 47.5303 84.3147 47.5282 84.3666 47.5084C84.4186 47.4885 84.4656 47.4476 84.4786 47.3934C84.491 47.3437 84.4733 47.2902 84.4419 47.2495C84.4107 47.2091 84.3672 47.1799 84.3226 47.1544C84.1161 47.0361 83.851 46.9053 83.6094 46.9117C83.7806 46.885 83.9481 46.8362 84.1065 46.7664C84.1584 46.7434 84.2104 46.7174 84.2513 46.6779C84.292 46.6381 84.321 46.5825 84.3163 46.526C84.3098 46.4488 84.2421 46.3872 84.168 46.3657C84.0938 46.3441 84.0141 46.3546 83.9382 46.3699C83.7276 46.4127 83.5062 46.4751 83.3225 46.5864C83.4431 46.4942 83.5638 46.4024 83.6849 46.3104C83.7414 46.2673 83.804 46.2121 83.7997 46.141C83.7966 46.0917 83.7597 46.0494 83.7151 46.0278C83.6708 46.0063 83.6198 46.0027 83.5705 46.0036C83.3206 46.008 82.9736 46.0474 82.8151 46.2407C82.8158 46.0894 82.7887 45.938 82.7354 45.7966C82.713 45.7372 82.685 45.6782 82.6381 45.6356C82.5916 45.5931 82.5226 45.5699 82.4635 45.5921C82.411 45.6123 82.3756 45.6641 82.3611 45.7184C82.3465 45.7731 82.3495 45.8304 82.3528 45.8865C82.3629 46.0743 82.3712 46.2582 82.3816 46.4459C81.0347 47.1391 79.5649 48.0536 78.1489 49.0809C77.6135 49.4692 77.086 49.8735 76.5756 50.2881C76.4197 50.4328 77.7478 52.3776 77.8147 52.6057C78.4555 52.3402 79.0455 52.0259 79.5832 51.6846Z" fill="#F6E2D7"/>
<path d="M79.5826 51.6841C79.0767 50.8318 78.5986 49.9631 78.1484 49.0803C77.613 49.4687 77.0855 49.873 76.5751 50.2875C76.4192 50.4322 77.7473 52.377 77.8142 52.6051C78.455 52.3398 79.045 52.0255 79.5826 51.6841Z" fill="#EFCAB9"/>
<path d="M77.7834 52.7187C77.7767 52.7169 77.7701 52.7144 77.7637 52.7114C77.7336 52.697 77.711 52.6704 77.7016 52.6383C77.6823 52.5725 77.4747 52.2345 77.2916 51.9363C76.4868 50.6257 76.3528 50.3339 76.4954 50.2015C76.4972 50.1997 76.4992 50.198 76.5013 50.1964C78.3357 48.7063 80.3778 47.3518 82.2599 46.3759C82.2563 46.3069 82.2528 46.2383 82.2494 46.1696C82.2448 46.0776 82.2402 45.9856 82.235 45.8926C82.2317 45.8309 82.2278 45.761 82.2473 45.688C82.2733 45.5905 82.3385 45.5134 82.4216 45.4819C82.5176 45.4456 82.6337 45.4718 82.7176 45.5485C82.7852 45.6102 82.8213 45.6911 82.8453 45.7547C82.8774 45.8397 82.9007 45.927 82.9151 46.0158C83.0733 45.9342 83.2918 45.8905 83.5682 45.8856C83.6236 45.8846 83.696 45.8875 83.7662 45.9215C83.854 45.9639 83.9117 46.0452 83.917 46.1338C83.9198 46.1815 83.9081 46.2233 83.8894 46.2594C83.8977 46.2576 83.9061 46.2559 83.9146 46.2542C84.0001 46.2368 84.0998 46.223 84.2009 46.2523C84.33 46.29 84.4235 46.3959 84.4334 46.516C84.4407 46.6034 84.4041 46.6931 84.3331 46.762C84.279 46.8143 84.215 46.8466 84.1539 46.8736C84.1315 46.8836 84.109 46.893 84.0862 46.9022C84.1922 46.9474 84.2923 47.0012 84.3811 47.0521C84.4286 47.0793 84.489 47.1181 84.5349 47.1775C84.5917 47.251 84.6128 47.3398 84.5929 47.4211C84.5714 47.5086 84.5025 47.5822 84.4086 47.6181C84.3374 47.6454 84.2659 47.6478 84.1992 47.6463C84.1705 47.6457 84.1419 47.6444 84.1134 47.6424C84.1712 47.7179 84.2205 47.8012 84.2576 47.8886C84.2758 47.9316 84.2964 47.9891 84.2939 48.0537C84.2905 48.1393 84.2454 48.2154 84.1761 48.2521C84.085 48.3004 83.98 48.2778 83.8635 48.1856L83.8634 48.1855C83.7993 48.1346 83.7114 48.0931 83.6182 48.0491C83.5599 48.0215 83.5004 47.9934 83.4441 47.9616C82.905 48.9434 81.0436 51.3958 77.8596 52.714C77.8352 52.724 77.8084 52.7256 77.7834 52.7187ZM76.683 50.352C76.7229 50.5606 77.2198 51.3697 77.4921 51.8132C77.6808 52.1204 77.8064 52.3261 77.8736 52.4528C81.0612 51.0956 82.8658 48.5966 83.2952 47.7393C83.3111 47.7076 83.3404 47.6847 83.375 47.6771C83.4096 47.6694 83.4457 47.6777 83.4735 47.6998C83.5377 47.7507 83.6256 47.7922 83.7187 47.8362C83.8198 47.884 83.9242 47.9333 84.0097 48.0011C84.0316 48.0184 84.0473 48.0283 84.058 48.0339C84.0556 48.0169 84.0474 47.9958 84.0409 47.9804C83.955 47.7779 83.7821 47.5985 83.6109 47.5341C83.5502 47.5112 83.5193 47.4435 83.542 47.3828C83.5647 47.322 83.6316 47.2911 83.6931 47.3136C83.8573 47.3743 84.0294 47.4071 84.2043 47.4109C84.247 47.4119 84.2911 47.411 84.3244 47.3982C84.3463 47.3899 84.3619 47.3747 84.3643 47.3649C84.3663 47.3564 84.3616 47.3382 84.3485 47.3213C84.328 47.2948 84.2926 47.2726 84.264 47.2563C84.0887 47.1558 83.8304 47.023 83.6125 47.0289C83.5504 47.0305 83.4977 46.9837 83.4921 46.9218C83.4865 46.86 83.5299 46.8045 83.5912 46.7949C83.7534 46.7698 83.9107 46.7238 84.0586 46.6583C84.1062 46.6372 84.1432 46.618 84.1692 46.5928C84.1882 46.5744 84.2001 46.5513 84.1988 46.5352C84.197 46.5139 84.1678 46.4877 84.1349 46.4782C84.1341 46.4779 84.1333 46.4777 84.1324 46.4775C84.0821 46.4636 84.0205 46.4727 83.9613 46.4847C83.7106 46.5356 83.5269 46.5998 83.3831 46.6867C83.3296 46.719 83.2601 46.7038 83.2249 46.6521C83.1898 46.6004 83.2012 46.5302 83.2509 46.4923L83.6133 46.2163C83.6737 46.1703 83.6811 46.1516 83.682 46.147C83.6812 46.1465 83.6747 46.1386 83.6638 46.1334C83.6384 46.121 83.5994 46.1203 83.5724 46.1208C83.2354 46.1269 83.0049 46.194 82.9058 46.3149C82.8743 46.3534 82.8216 46.3682 82.7749 46.351C82.728 46.3341 82.6968 46.2895 82.6972 46.2397C82.6979 46.1018 82.6737 45.9666 82.625 45.8376C82.6103 45.7985 82.5894 45.7502 82.5587 45.7221C82.5399 45.7049 82.5157 45.6978 82.5049 45.702C82.4953 45.7056 82.4813 45.7232 82.4745 45.7485C82.4648 45.7853 82.4674 45.8332 82.47 45.8796C82.4751 45.973 82.4797 46.0653 82.4844 46.1578C82.4891 46.2511 82.4937 46.3445 82.499 46.439C82.5015 46.4853 82.4766 46.5288 82.4353 46.5501C80.5873 47.5013 78.4929 48.8857 76.683 50.352Z" fill="#1F404D"/>
<path d="M82.7776 47.8857C82.7747 47.8849 82.7717 47.884 82.7688 47.8829C82.7076 47.8608 82.6759 47.7934 82.698 47.7322C82.8614 47.2793 82.8625 46.7593 82.7009 46.3058C82.6791 46.2445 82.7111 46.1772 82.7723 46.1554C82.8335 46.1335 82.9008 46.1656 82.9226 46.2268C83.1048 46.7383 83.1036 47.3013 82.9193 47.8121C82.8984 47.8703 82.8363 47.9018 82.7776 47.8857Z" fill="#1F404D"/>
<path d="M66.2176 51.2907C64.3329 49.6482 63.3063 47.7195 63.0305 46.8675C62.8646 46.9623 62.6207 46.9897 62.4551 47.0847C62.3959 47.1186 62.3191 47.1518 62.2643 47.1111C62.2328 47.0875 62.2202 47.0442 62.2247 47.0049C62.2292 46.9657 62.2478 46.9295 62.2686 46.8955C62.3905 46.698 62.6095 46.514 62.8367 46.4658C62.6533 46.5037 62.4634 46.5106 62.2778 46.4864C62.2226 46.4794 62.1665 46.4688 62.1181 46.4414C62.0697 46.4139 62.0294 46.3663 62.0248 46.3108C62.02 46.2599 62.0456 46.2096 62.0827 46.1741C62.1197 46.1389 62.167 46.1166 62.2149 46.0981C62.4369 46.0123 62.7187 45.9228 62.9566 45.9656C62.7913 45.9134 62.6331 45.8399 62.4871 45.747C62.4393 45.7166 62.3917 45.6829 62.3573 45.6377C62.323 45.5922 62.3027 45.5328 62.3159 45.4778C62.3339 45.4024 62.4101 45.3517 62.4867 45.3416C62.5633 45.3314 62.6405 45.3538 62.7132 45.3804C62.9149 45.4545 63.1244 45.5496 63.2892 45.6872C63.1839 45.5779 63.0784 45.469 62.9726 45.3598C62.9232 45.3086 62.8696 45.2447 62.8847 45.175C62.8952 45.1267 62.938 45.0905 62.9854 45.0759C63.0324 45.0613 63.0833 45.0654 63.1319 45.0737C63.3783 45.1158 63.7153 45.207 63.8429 45.4219C63.865 45.2723 63.9146 45.1267 63.9886 44.9949C64.0197 44.9396 64.0563 44.8855 64.1091 44.8504C64.1614 44.8155 64.2331 44.8029 64.2882 44.8338C64.3371 44.8617 64.3642 44.9182 64.3704 44.974C64.3766 45.0303 64.365 45.0865 64.3533 45.1414C64.315 45.3256 64.2791 45.5061 64.2405 45.6901C65.4676 46.5784 66.7828 47.7039 68.0278 48.9329C68.4986 49.3975 68.9592 49.8766 69.4013 50.3634C69.5336 50.5299 67.9276 52.2523 67.827 52.4678C67.2336 52.1088 66.6978 51.7091 66.2176 51.2907Z" fill="#F6E2D7"/>
<path d="M66.2166 51.2906C66.8452 50.5243 67.4488 49.7375 68.0268 48.9327C68.4976 49.3973 68.9581 49.8765 69.4003 50.3633C69.5325 50.5298 67.9266 52.2522 67.826 52.4677C67.2326 52.1087 66.6967 51.7091 66.2166 51.2906Z" fill="#EFCAB9"/>
<path d="M67.7962 52.5811C67.7859 52.5782 67.7759 52.574 67.7666 52.5683C64.8176 50.7854 63.347 48.0804 62.9619 47.0286C62.9015 47.0516 62.8385 47.0704 62.7766 47.0889C62.678 47.1183 62.5849 47.1461 62.5137 47.1867C62.3847 47.2606 62.2773 47.267 62.1946 47.2055C62.1316 47.1586 62.0985 47.0767 62.1081 46.9916C62.1153 46.9274 62.1443 46.8736 62.1688 46.8339C62.2187 46.753 62.28 46.6781 62.3486 46.6121C62.32 46.6098 62.2916 46.6068 62.2631 46.6031C62.197 46.5944 62.1267 46.5813 62.0604 46.5436C61.9729 46.494 61.9159 46.4108 61.9079 46.3212C61.9004 46.2378 61.9347 46.1532 62.0019 46.089C62.0562 46.0373 62.1218 46.008 62.1728 45.9882C62.2683 45.9513 62.3754 45.9133 62.487 45.8845C62.4659 45.872 62.445 45.8591 62.4243 45.846C62.368 45.8101 62.3096 45.7685 62.2641 45.7087C62.2042 45.63 62.1815 45.5358 62.2019 45.4503C62.2298 45.3332 62.3382 45.2425 62.4715 45.2247C62.5748 45.2109 62.6723 45.2398 62.7542 45.2697C62.7623 45.2727 62.7704 45.2756 62.7784 45.2786C62.7653 45.2402 62.7601 45.197 62.77 45.1504C62.7886 45.0636 62.858 44.9919 62.9511 44.9633C63.0252 44.9405 63.0976 44.9482 63.1522 44.9576C63.4247 45.0042 63.6341 45.0803 63.7782 45.1848C63.8058 45.0992 63.8421 45.0163 63.8866 44.9371C63.9199 44.8778 63.9679 44.8032 64.0439 44.7525C64.1385 44.6893 64.2573 44.6811 64.3465 44.7314C64.424 44.775 64.4768 44.861 64.4878 44.9613C64.4961 45.0362 64.4817 45.1048 64.469 45.1654C64.4498 45.2573 64.4313 45.3482 64.4127 45.4392C64.3991 45.5058 64.3855 45.5725 64.3716 45.6395C66.0852 46.8878 67.8998 48.5346 69.4888 50.2841C69.4906 50.286 69.4923 50.288 69.4939 50.2901C69.6148 50.4425 69.4384 50.7108 68.4453 51.8851C68.2194 52.1523 67.9632 52.4552 67.9341 52.5174C67.92 52.5476 67.8936 52.5705 67.8617 52.5802C67.8402 52.5867 67.8175 52.5869 67.7962 52.5811ZM63.0619 46.7541C63.0657 46.7552 63.0694 46.7564 63.0731 46.7578C63.1062 46.7706 63.1317 46.7977 63.1426 46.8314C63.438 47.7436 64.8454 50.486 67.7921 52.3081C67.8776 52.1929 68.0328 52.0084 68.2656 51.7332C68.6016 51.3358 69.2147 50.6109 69.2857 50.4107C67.7173 48.6884 65.8554 47.0042 64.1719 45.7854C64.1343 45.7582 64.1162 45.7115 64.1257 45.666C64.1449 45.5741 64.1635 45.4832 64.182 45.3922C64.2007 45.3009 64.2193 45.2096 64.2386 45.1174C64.2486 45.0698 64.258 45.0249 64.2538 44.9872C64.251 44.961 64.2398 44.9416 64.2308 44.9365C64.2206 44.9309 64.1958 44.9342 64.1746 44.9483C64.14 44.9714 64.1121 45.0162 64.0917 45.0526C64.0241 45.1727 63.9797 45.3027 63.9597 45.4391C63.9525 45.4884 63.915 45.5278 63.8661 45.5375C63.8172 45.5472 63.7675 45.5249 63.7421 45.482C63.6624 45.3476 63.4447 45.2464 63.1125 45.1896C63.0858 45.1851 63.0472 45.18 63.0202 45.1883C63.0087 45.1918 63.001 45.1987 62.9995 45.2016C63.0003 45.2037 63.0049 45.2232 63.0576 45.2779L63.3743 45.6054C63.4177 45.6503 63.4184 45.7214 63.3759 45.7672C63.3333 45.8131 63.2623 45.8175 63.2143 45.7775C63.0851 45.67 62.9132 45.5788 62.673 45.4908C62.6155 45.4697 62.555 45.4512 62.5026 45.4582C62.4686 45.4627 62.4357 45.4842 62.4307 45.505C62.427 45.5206 62.4352 45.5453 62.4513 45.5663C62.4732 45.5951 62.5069 45.6197 62.5508 45.6478C62.6871 45.7347 62.8356 45.8039 62.9922 45.8532C63.0514 45.8719 63.086 45.9334 63.0711 45.9936C63.0562 46.0539 62.9971 46.0923 62.936 46.0813C62.7215 46.0427 62.4461 46.1351 62.2576 46.2079C62.2269 46.2198 62.1885 46.2364 62.1643 46.2595C62.1487 46.2744 62.1414 46.2913 62.1422 46.3003C62.1431 46.3104 62.1561 46.3276 62.1765 46.3392C62.2076 46.3569 62.2511 46.3644 62.2933 46.3699C62.4669 46.3925 62.6419 46.386 62.8134 46.3507C62.8769 46.3375 62.939 46.3784 62.9523 46.4419C62.9656 46.5054 62.9249 46.5677 62.8614 46.5811C62.6825 46.6189 62.4846 46.7702 62.3691 46.9575C62.3603 46.9717 62.349 46.9913 62.3441 47.0078C62.3555 47.0039 62.3725 46.9965 62.3968 46.9826L62.3968 46.9826C62.4914 46.9285 62.6021 46.8954 62.7092 46.8635C62.8078 46.8341 62.9011 46.8062 62.9722 46.7656C62.9996 46.7498 63.0319 46.7459 63.0619 46.7541Z" fill="#1F404D"/>
<path d="M63.5874 47.0513C63.5457 47.0399 63.512 47.0058 63.503 46.9606C63.3979 46.4279 63.4816 45.8711 63.7387 45.3929C63.7695 45.3356 63.8409 45.3141 63.8981 45.345C63.9553 45.3758 63.9768 45.4471 63.946 45.5044C63.718 45.9285 63.6407 46.4427 63.734 46.915C63.7465 46.9788 63.7051 47.0407 63.6413 47.0533C63.6227 47.0569 63.6044 47.056 63.5874 47.0513Z" fill="#1F404D"/>
<path d="M75.9726 53.3051C75.9545 53.3328 75.9333 53.3578 75.9099 53.3795C75.7423 54.0446 75.4032 54.9553 75.1286 55.6781C75.0998 55.7543 75.0716 55.8285 75.0446 55.9002C74.9219 56.2226 74.8196 56.4912 74.7623 56.6609C73.299 56.7491 71.8757 56.4039 70.8255 56.2073C70.0511 56.0621 68.8035 55.6483 68.0686 55.3576C67.9761 55.3211 68.4422 54.3933 68.7343 53.7292C68.9 53.352 69.0097 53.0601 68.9291 53.0637C68.4577 53.085 67.6116 52.6767 67.6222 52.6516C67.3904 52.5676 67.1637 52.4685 66.9431 52.3536C66.8525 52.3351 66.7747 52.2567 66.7569 52.1658C67.078 51.7774 67.3933 51.3801 67.6251 50.9317C67.7527 50.6852 67.8695 50.4344 67.9866 50.1841C68.0144 50.1665 68.0454 50.1575 68.0765 50.1564C68.1507 49.9854 68.2166 49.8107 68.2744 49.6324C68.1514 49.4905 68.2716 49.2075 68.4996 49.2702C68.5783 49.2918 68.6251 49.3424 68.6447 49.4016C68.7175 49.4078 68.7844 49.429 68.8485 49.4604C69.223 49.5624 69.5721 49.7536 69.9368 49.8897C70.0335 49.9259 70.1308 49.9605 70.2285 49.9933C70.4597 50.0711 70.6933 50.1399 70.9293 50.2002C71.0826 50.24 71.2366 50.2759 71.3919 50.3085C71.4345 50.3174 71.4669 50.3351 71.4921 50.3572C71.545 50.3538 71.602 50.3524 71.6668 50.3527L71.6112 50.4764C71.6499 50.5146 71.6786 50.5626 71.6914 50.6181C71.757 50.9034 71.824 51.1532 72.058 51.3464C72.2638 51.5166 72.5386 51.7071 72.8173 51.6806C72.8696 51.6761 72.9242 51.6682 72.9796 51.6576C73.0381 51.6438 73.0968 51.6296 73.1554 51.6153C73.5504 51.4989 73.9416 51.2388 73.9392 50.8075C73.939 50.681 73.9958 50.5917 74.076 50.5392L74.0376 50.4813C74.2149 50.4605 74.3964 50.428 74.5794 50.3863C74.6431 50.3721 74.7067 50.3569 74.7706 50.3404C74.9438 50.296 75.1168 50.2456 75.287 50.1921C75.3883 50.1601 75.4881 50.1268 75.5866 50.0931C76.588 49.7505 77.4238 49.3527 77.4601 49.5738C77.5721 50.2593 78.4435 51.8495 78.955 52.6347C77.9778 53.0833 76.9326 53.413 75.9726 53.3051Z" fill="#FBB03B"/>
<path d="M75.0453 55.9002C74.9227 56.2226 74.8203 56.4912 74.7631 56.6609C73.2998 56.7491 71.8764 56.4039 70.8263 56.2073C70.0519 56.0621 68.8043 55.6483 68.0694 55.3576C67.9768 55.3211 68.443 54.3933 68.735 53.7292C68.8912 53.9175 69.0944 54.0755 69.2968 54.2162C70.5469 55.0848 72.0096 55.645 73.5204 55.8344C74.0257 55.8974 74.5363 55.9194 75.0453 55.9002Z" fill="#F7931E"/>
<path d="M74.9672 51.3045C74.7426 51.8151 74.3673 52.3018 73.8533 52.5451C73.3014 52.807 72.6671 52.7882 72.103 52.571C71.5047 52.3408 70.9555 51.9469 70.6385 51.3795C70.3986 50.9501 70.2927 50.4748 70.2277 49.9931C70.4589 50.0709 70.6926 50.1398 70.9286 50.2C71.0096 50.64 71.1542 51.0667 71.4655 51.3919C71.8808 51.8258 72.5514 52.1394 73.1606 52.0672C73.7552 51.9964 74.1633 51.5059 74.386 50.9851C74.4691 50.7917 74.5302 50.5909 74.5787 50.3862C74.6424 50.3719 74.7059 50.3567 74.7698 50.3402C74.943 50.2958 75.1161 50.2454 75.2863 50.1919C75.2159 50.5719 75.1245 50.9461 74.9672 51.3045Z" fill="white"/>
<path d="M75.8825 53.4113C75.8266 53.3959 75.7894 53.3414 75.7971 53.2824C75.8056 53.218 75.8647 53.1726 75.9292 53.1812C76.7129 53.2845 77.6476 53.0889 78.7829 52.5833C78.3057 51.8288 77.4854 50.3423 77.3502 49.6258C77.2158 49.6186 76.7761 49.7828 76.3852 49.9287C75.6971 50.1856 74.8407 50.5055 74.0515 50.5977C73.987 50.6052 73.9286 50.5591 73.921 50.4945C73.9134 50.4299 73.9596 50.3715 74.0242 50.3639C74.7851 50.275 75.6267 49.9607 76.3029 49.7082C77.0089 49.4446 77.3277 49.3317 77.487 49.4241C77.5357 49.4523 77.5674 49.4986 77.5766 49.5543C77.6818 50.197 78.517 51.7455 79.054 52.5702C79.0727 52.5989 79.078 52.6342 79.0685 52.6671C79.059 52.7 79.0357 52.7271 79.0046 52.7414C77.7717 53.3074 76.7557 53.5276 75.8984 53.4145C75.8929 53.4137 75.8876 53.4127 75.8825 53.4113Z" fill="#1F404D"/>
<path d="M68.0765 52.9928C67.6378 52.8723 67.2403 52.6855 66.6292 52.3633C66.6007 52.3483 66.5802 52.3216 66.5729 52.2902C66.5656 52.2587 66.5724 52.2257 66.5914 52.1997C67.1259 51.4697 68.0194 49.911 68.2359 49.2558C68.247 49.2219 68.2714 49.1948 68.3045 49.1795C68.3991 49.1358 68.5329 49.183 69.1735 49.4431C69.8397 49.7135 70.8463 50.1223 71.7278 50.2746C71.7878 50.2854 71.8287 50.3425 71.8182 50.4028C71.8077 50.4631 71.7504 50.5036 71.69 50.4932C70.7851 50.3367 69.765 49.9227 69.0901 49.6486C68.8201 49.539 68.5426 49.426 68.4221 49.3954C68.1721 50.0839 67.3788 51.4708 66.8454 52.2262C67.738 52.6922 68.1363 52.8378 69.0171 52.9358C69.0781 52.9423 69.1218 52.9973 69.115 53.0582C69.1083 53.1191 69.0534 53.163 68.9925 53.1561C68.6321 53.1161 68.3464 53.067 68.0765 52.9928Z" fill="#1F404D"/>
<path d="M69.6684 56.0609C68.9591 55.8659 68.3685 55.6606 68.033 55.483C67.9959 55.4634 67.9731 55.4245 67.974 55.3825C67.9861 54.8409 68.6038 53.5034 68.9336 52.985C68.9665 52.9334 69.0351 52.9181 69.0867 52.951C69.1384 52.9839 69.1536 53.0525 69.1208 53.1041C68.7951 53.6159 68.258 54.8131 68.2006 55.3195C69.3466 55.8836 73.0281 56.7036 74.6815 56.5574C74.7423 56.3841 74.8368 56.1358 74.9442 55.8538C75.2387 55.0806 75.642 54.0218 75.818 53.2929C75.8324 53.2334 75.8923 53.1968 75.9519 53.2112C76.0116 53.2261 76.048 53.2855 76.0336 53.345C75.8543 54.0875 75.4481 55.154 75.1515 55.9328C75.0299 56.2519 74.9249 56.5276 74.8684 56.6961C74.8546 56.7371 74.8183 56.7664 74.7753 56.7711C73.5646 56.9032 71.3025 56.51 69.6684 56.0609Z" fill="#1F404D"/>
<path d="M74.1856 50.2071C74.1598 50.3762 74.12 50.5422 74.0595 50.7033C73.8756 51.1912 73.4513 51.626 72.9309 51.661C72.3389 51.7011 71.8162 51.2091 71.6195 50.6492C71.5505 50.4532 71.5125 50.2506 71.4946 50.045C71.4612 49.663 71.4968 49.2696 71.5337 48.8858C72.4168 49.0166 73.3364 49.2472 74.2248 49.1574C74.2319 49.5069 74.2378 49.8632 74.1856 50.2071Z" fill="#F6E2D7"/>
<g opacity="0.5">
<path d="M74.1856 50.2071C73.8738 50.3821 73.4867 50.4964 73.0547 50.5042C72.4663 50.515 71.9128 50.3253 71.4946 50.045C71.4612 49.663 71.4968 49.2696 71.5337 48.8858C72.4168 49.0166 73.3364 49.2472 74.2248 49.1574C74.2319 49.5069 74.2378 49.8632 74.1856 50.2071Z" fill="#E2B8A3"/>
</g>
<path d="M72.5526 51.7666C72.047 51.6277 71.6485 51.1678 71.483 50.6969C71.4142 50.5013 71.3708 50.2918 71.3504 50.0568C71.3148 49.6497 71.3546 49.236 71.3897 48.8708C71.3936 48.8309 71.4137 48.7942 71.4453 48.7694C71.4769 48.7446 71.5174 48.734 71.5571 48.7398C71.761 48.77 71.9699 48.8061 72.172 48.8409C72.8479 48.9574 73.5468 49.0778 74.212 49.0107C74.2526 49.0065 74.2933 49.0196 74.3239 49.0467C74.3545 49.0739 74.3724 49.1126 74.3733 49.1535C74.38 49.4867 74.3877 49.8643 74.3324 50.2282C74.3031 50.4204 74.2593 50.5924 74.1986 50.754C73.9713 51.3572 73.4783 51.7703 72.9426 51.8064C72.8074 51.8155 72.6768 51.8008 72.5526 51.7666ZM71.6669 49.0534C71.6381 49.3657 71.614 49.7055 71.6425 50.0313C71.6608 50.2416 71.6991 50.4275 71.7596 50.5996C71.929 51.0817 72.3829 51.5503 72.9229 51.5138C73.4021 51.4816 73.7711 51.057 73.9241 50.6507C73.9776 50.5085 74.0164 50.3558 74.0425 50.184C74.0859 49.8988 74.0875 49.5956 74.083 49.3151C73.429 49.355 72.7655 49.2406 72.1221 49.1298C71.9724 49.104 71.8187 49.0775 71.6669 49.0534Z" fill="#1F404D"/>
<path d="M81.3794 40.1585C81.6994 39.736 82.2016 39.4565 82.7294 39.4073C83.2572 39.358 83.8024 39.5398 84.1951 39.8958C84.7851 40.4308 84.9864 41.2904 84.9236 42.0844C84.8478 43.0436 84.4232 43.9714 83.747 44.656C83.0708 45.3405 82.1482 45.7763 81.19 45.8639C80.5322 45.6974 80.0797 45.1576 79.9095 44.5007C79.7393 43.8439 79.8415 43.1444 80.0388 42.4952C80.2917 41.6631 80.8543 40.8519 81.3794 40.1585Z" fill="#F6E2D7"/>
<path d="M81.1189 45.9962C80.462 45.8157 79.9583 45.2729 79.7677 44.537C79.612 43.9361 79.6548 43.2541 79.8987 42.452C80.1587 41.5963 80.7341 40.7674 81.2627 40.0694C81.6062 39.6159 82.1495 39.3136 82.7159 39.2607C83.2825 39.2078 83.8723 39.4045 84.2937 39.7866C84.8622 40.3021 85.1451 41.1436 85.0699 42.0954C84.9917 43.0831 84.5477 44.0537 83.8514 44.7584C83.1552 45.4632 82.1901 45.9192 81.2035 46.0093C81.187 46.0108 81.1703 46.0095 81.1542 46.0054C81.1424 46.0025 81.1307 45.9994 81.1189 45.9962ZM81.4964 40.2465C80.9835 40.9238 80.4258 41.7257 80.1792 42.5373C79.9515 43.2863 79.9098 43.9163 80.0515 44.4634C80.2154 45.0961 80.6424 45.5611 81.1969 45.7135C81.1987 45.714 81.2004 45.7145 81.2022 45.715C82.1121 45.6256 83.0004 45.2028 83.6428 44.5524C84.2912 43.8961 84.7048 42.9921 84.7776 42.0722C84.8446 41.2244 84.59 40.4511 84.0968 40.0037C83.7352 39.6759 83.2291 39.5072 82.7432 39.5526C82.2572 39.5979 81.7911 39.8574 81.4964 40.2465Z" fill="#1F404D"/>
<path d="M79.4857 44.0268C79.4331 44.0092 79.3836 43.979 79.3422 43.9364C79.2039 43.794 79.2072 43.5665 79.3497 43.4282C80.4119 42.3968 81.8081 41.7471 83.2812 41.5987C83.4785 41.5789 83.6549 41.7228 83.6748 41.9203C83.6947 42.1178 83.5507 42.294 83.3532 42.3139C82.0408 42.4461 80.7969 43.0249 79.8504 43.9439C79.7506 44.0406 79.6092 44.0681 79.4857 44.0268Z" fill="#1F404D"/>
<path d="M66.1842 39.1201C65.9246 38.658 65.4651 38.3129 64.9489 38.1924C64.4327 38.0718 63.8678 38.1778 63.4304 38.4772C62.7731 38.927 62.4569 39.7513 62.4112 40.5465C62.356 41.5071 62.6505 42.484 63.2274 43.2541C63.8043 44.0242 64.6591 44.5814 65.5965 44.7983C66.2708 44.7228 66.7926 44.2494 67.0505 43.6218C67.3083 42.9942 67.3021 42.2873 67.1949 41.6173C67.0574 40.7585 66.6102 39.8784 66.1842 39.1201Z" fill="#F6E2D7"/>
<path d="M65.4038 44.9001C64.5004 44.6518 63.6717 44.0904 63.1107 43.3415C62.5167 42.5486 62.2087 41.5266 62.2655 40.5376C62.3203 39.5845 62.7149 38.7892 63.3482 38.3557C63.8177 38.0344 64.4288 37.9198 64.9828 38.0492C65.5373 38.1779 66.0339 38.5518 66.3126 39.0479C66.7414 39.8112 67.1988 40.7106 67.3402 41.5937C67.4727 42.4215 67.4225 43.103 67.1866 43.677C66.8926 44.3927 66.3045 44.8661 65.6134 44.9436C65.5969 44.9454 65.5803 44.9444 65.5641 44.9407C65.5104 44.9283 65.4569 44.9147 65.4038 44.9001ZM64.9791 38.3507C64.9582 38.345 64.9372 38.3396 64.9161 38.3347C64.4408 38.2237 63.9166 38.322 63.5138 38.5977C62.9642 38.9738 62.607 39.7053 62.5581 40.5544C62.5052 41.4755 62.7921 42.4274 63.3452 43.1658C63.8933 43.8974 64.7156 44.4378 65.6053 44.6492C66.1777 44.5754 66.6662 44.172 66.9154 43.5657C67.1301 43.0429 67.1744 42.4131 67.0507 41.64C66.9165 40.8024 66.4731 39.9323 66.0569 39.1915C65.8285 38.7849 65.4289 38.4743 64.9791 38.3507Z" fill="#1F404D"/>
<path d="M67.5325 43.2092C67.5871 43.1989 67.6401 43.1757 67.687 43.139C67.8434 43.0167 67.871 42.7908 67.7487 42.6345C66.8364 41.4683 65.5415 40.6348 64.1023 40.2877C63.9094 40.2412 63.7152 40.3598 63.6687 40.5528C63.6221 40.7457 63.7408 40.9399 63.9338 40.9864C65.216 41.2957 66.3698 42.0383 67.1826 43.0773C67.2682 43.1869 67.4046 43.2333 67.5325 43.2092Z" fill="#1F404D"/>
<path d="M82.0444 46.0311C81.3983 48.0621 79.6783 49.2707 77.6589 49.7483C76.5736 50.0045 75.4524 50.0669 74.3371 50.0895C71.3152 50.1503 66.6128 49.879 65.4075 46.4454C64.8699 44.9141 64.911 43.2503 65.2794 41.6778C65.3273 41.4719 65.381 41.2676 65.4399 41.0651C65.4983 40.8648 65.5613 40.667 65.6289 40.4713C66.4769 38.0171 68.0074 35.597 70.2285 34.2552C71.0459 33.7615 71.9569 33.4141 72.9618 33.264C73.3903 33.2006 73.8242 33.1773 74.2567 33.1929C75.5048 33.2376 76.742 33.6052 77.8143 34.2455C77.8178 34.2474 77.8212 34.2496 77.8248 34.2515C78.1566 34.4506 78.4725 34.6754 78.7678 34.9256C78.7702 34.9273 78.7725 34.9293 78.7748 34.9317C78.8837 35.0231 78.9891 35.1186 79.0923 35.2175C80.1043 36.1889 80.8134 37.4001 81.3123 38.7024C81.5081 39.2134 81.6823 39.7334 81.8314 40.2606C81.9699 40.7502 82.0917 41.2556 82.1844 41.7685C82.2387 42.0688 82.2835 42.3719 82.3156 42.6759C82.4364 43.8073 82.3873 44.9533 82.0444 46.0311Z" fill="#F6E2D7"/>
<path d="M82.3158 42.6758C80.8762 42.0205 79.6917 40.6852 79.295 39.1639C78.9532 39.7523 78.2193 40.0846 77.5516 39.9526C76.8838 39.8211 76.3942 39.0877 76.3016 38.4133C75.9644 39.0819 75.2456 39.5409 74.497 39.5655C73.7487 39.5902 73.0462 39.0743 72.6658 38.4289C72.4413 38.7772 72.1065 39.061 71.7117 39.1862C71.3169 39.3115 70.8633 39.2667 70.5212 39.033C70.1793 38.7996 69.9307 38.3572 69.9928 37.9479C69.0205 39.765 67.2621 41.1315 65.2794 41.6778C65.3273 41.4719 65.381 41.2676 65.4399 41.0651C65.4983 40.8648 65.5613 40.667 65.6289 40.4713C66.4769 38.0171 68.0074 35.597 70.2285 34.2552C71.0459 33.7615 71.9569 33.4142 72.9618 33.264C73.3903 33.2006 73.8242 33.1773 74.2567 33.1929C75.5048 33.2376 76.742 33.6052 77.8143 34.2455C77.8178 34.2474 77.8212 34.2496 77.8248 34.2515C78.1566 34.4506 78.4725 34.6754 78.7678 34.9256C78.7702 34.9273 78.7725 34.9293 78.7748 34.9317C78.8837 35.0231 78.9891 35.1186 79.0923 35.2175C80.1043 36.1889 80.8134 37.4001 81.3123 38.7024C81.5081 39.2134 81.6823 39.7334 81.8314 40.2606C81.9699 40.7502 82.0917 41.2556 82.1844 41.7685C82.2388 42.0686 82.2836 42.3717 82.3158 42.6758Z" fill="#EFCAB9"/>
<path d="M69.2624 49.7504C69.2249 49.7401 69.1876 49.7296 69.1503 49.7189C67.1213 49.1361 65.8154 48.0512 65.2689 46.4942C64.7104 44.9033 64.7208 43.0118 65.299 41.0243C65.3585 40.8202 65.4229 40.6181 65.4902 40.4235C66.4689 37.5902 68.1246 35.3551 70.1526 34.1299C71.0205 33.6058 71.9582 33.2658 72.9397 33.1193C73.3737 33.0548 73.8185 33.0304 74.2617 33.0467C75.5345 33.0923 76.788 33.4627 77.8867 34.1184C77.8916 34.1211 77.8966 34.1241 77.9014 34.1272C78.2396 34.3298 78.5625 34.5603 78.8593 34.8114C78.8639 34.815 78.8683 34.8188 78.8726 34.8228C78.979 34.9125 79.087 35.0099 79.1936 35.112C80.1378 36.0183 80.8967 37.2086 81.4491 38.65C81.6495 39.1735 81.8255 39.7019 81.9722 40.2208C82.1216 40.7495 82.2415 41.2616 82.3285 41.7426C82.6257 43.3822 82.577 44.8401 82.1836 46.0757C81.5729 47.9957 79.9779 49.3507 77.6924 49.8912C76.5633 50.1579 75.4138 50.2148 74.3399 50.2365C73.0083 50.263 71.0459 50.2406 69.2624 49.7504ZM75.9207 33.5961C75.3766 33.4466 74.8159 33.3599 74.251 33.3397C73.8257 33.324 73.399 33.3474 72.9829 33.4092C72.04 33.5499 71.1387 33.8768 70.3042 34.3808C68.3348 35.5706 66.7236 37.7506 65.7673 40.5192C65.7015 40.7093 65.6386 40.9068 65.5805 41.1062C65.0195 43.0346 65.0074 44.8641 65.5455 46.397C66.0587 47.8592 67.2988 48.882 69.2312 49.4371C71.0058 49.946 72.9935 49.9701 74.3339 49.9433C75.3917 49.9219 76.5225 49.8661 77.625 49.6057C79.8062 49.09 81.326 47.8047 81.9043 45.9867C82.283 44.7972 82.3286 43.3868 82.04 41.7948C81.9547 41.3228 81.837 40.8201 81.6901 40.3004C81.5458 39.7901 81.3726 39.27 81.1753 38.7548C80.6385 37.354 79.9035 36.1995 78.9906 35.3235C78.8874 35.2245 78.7829 35.1304 78.68 35.0437C78.6785 35.0424 78.6769 35.041 78.6754 35.0396C78.6746 35.0389 78.6738 35.0383 78.673 35.0376C78.3875 34.7958 78.0766 34.5737 77.749 34.3775C77.7488 34.3774 77.7433 34.3739 77.7431 34.3738C77.7406 34.3725 77.7413 34.3728 77.7389 34.3714C77.1693 34.0314 76.5564 33.7709 75.9207 33.5961Z" fill="#1F404D"/>
<path d="M69.0973 47.659C69.8437 47.0507 69.9556 45.9525 69.3473 45.2061C68.739 44.4598 67.6408 44.3479 66.8944 44.9562C66.148 45.5645 66.0361 46.6627 66.6444 47.409C67.2527 48.1554 68.3509 48.2673 69.0973 47.659Z" fill="#F9CCC5"/>
<path d="M74.1761 44.455C74.1619 44.5946 73.762 44.6684 73.2831 44.6196C72.8041 44.5708 72.4274 44.418 72.4416 44.2783C72.4558 44.1386 72.8557 44.0649 73.3346 44.1137C73.8136 44.1625 74.1903 44.3153 74.1761 44.455Z" fill="#F9CCC5"/>
<path d="M80.2932 47.5649C81.1301 47.0888 81.4227 46.0244 80.9466 45.1874C80.4705 44.3505 79.4061 44.0579 78.5691 44.534C77.7322 45.0101 77.4396 46.0745 77.9157 46.9114C78.3918 47.7484 79.4562 48.0409 80.2932 47.5649Z" fill="#F9CCC5"/>
<path d="M83.6213 39.5266C83.4563 40.1212 82.8181 41.6502 82.3361 41.7478C81.4585 41.9253 79.3146 38.0314 79.3385 37.2043C79.1835 37.6526 79.0225 38.1118 78.73 38.4775C78.4374 38.8435 77.9807 39.1033 77.5356 39.0174C77.0874 38.9313 76.7515 38.515 76.6079 38.061C76.4646 37.6074 76.345 36.8864 76.3605 36.4076C76.2763 36.8203 76.1792 37.2353 75.9963 37.6119C75.8137 37.9883 75.5361 38.328 75.171 38.5058C74.689 38.7405 74.0811 38.6491 73.6849 38.2821C73.3291 37.953 73.0667 37.2658 73.1337 36.7445C73.0854 36.9686 72.7748 37.3548 72.5475 37.5531C72.2797 37.7869 71.9971 37.979 71.7479 38.0986C71.4986 38.2185 71.1801 38.1992 70.9791 38.0059C70.7679 37.8025 70.7295 37.4731 70.7041 37.1723C70.6788 36.8734 70.6739 36.5101 70.6485 36.2112C69.3077 38.4281 66.0331 40.9268 65.4797 40.8489C64.8974 40.7672 64.5319 39.3568 64.4066 38.5043C64.339 38.0457 64.2848 36.8853 64.6336 35.5732C65.0232 34.1087 65.9154 32.4557 67.8525 31.3785C71.7387 29.2183 78.1012 29.523 81.3426 32.3184C82.8398 33.6093 83.6431 35.3929 83.8127 37.1214C83.8946 37.9568 83.8285 38.7791 83.6213 39.5266Z" fill="#EF9289"/>
<path d="M83.8121 37.1222C83.3677 37.7277 82.8375 38.2654 82.2314 38.6878C80.9715 37.7561 80.0162 36.4922 79.5096 35.009C79.3226 35.2953 79.1239 35.5797 78.8636 35.8014C78.6036 36.0232 78.2721 36.1792 77.9303 36.1674C77.5357 36.1533 77.1728 35.9143 76.9363 35.5981C76.7689 35.3745 76.6607 35.0909 76.5837 34.8072C76.2625 35.3885 75.7753 35.9026 75.0776 35.9336C74.5402 35.9575 74.004 35.7265 73.6795 35.2946C73.5059 35.0637 73.4026 34.789 73.3565 34.5035C73.1128 34.8556 72.7965 35.1407 72.3718 35.2595C71.8418 35.4076 71.2712 35.2642 70.9149 34.8364C70.7962 34.6938 70.7119 34.5324 70.6547 34.3611C69.4203 35.8727 67.6589 36.9328 65.739 37.2953C65.2763 36.7895 64.9028 36.2039 64.633 35.5741C64.2842 36.8862 64.3385 38.0466 64.406 38.5052C64.5313 39.3577 64.8969 40.7681 65.4791 40.8498C66.0325 40.9277 69.3071 38.429 70.6479 36.2121C70.6733 36.511 70.6782 36.8744 70.7036 37.1732C70.729 37.474 70.7674 37.8034 70.9785 38.0069C71.1795 38.2001 71.4981 38.2194 71.7474 38.0995C71.9966 37.9799 72.2792 37.7878 72.547 37.554C72.7743 37.3557 73.0848 36.9695 73.1331 36.7454C73.0661 37.2667 73.3286 37.9539 73.6843 38.283C74.0805 38.65 74.6884 38.7414 75.1705 38.5068C75.5355 38.329 75.8132 37.9892 75.9957 37.6128C76.1787 37.2362 76.2758 36.8213 76.3599 36.4085C76.3445 36.8873 76.4641 37.6083 76.6073 38.0619C76.7509 38.5159 77.0868 38.9322 77.535 39.0183C77.9802 39.1042 78.4368 38.8444 78.7294 38.4784C79.0219 38.1127 79.183 37.6535 79.338 37.2052C79.3141 38.0323 81.458 41.9262 82.3356 41.7487C82.8175 41.6511 83.4557 40.1221 83.6208 39.5275C83.8278 38.7799 83.894 37.9576 83.8121 37.1222Z" fill="#E2726D"/>
<path d="M65.3925 40.9805C64.6306 40.7712 64.3183 38.9071 64.2623 38.5258C64.2397 38.3727 64.0566 36.9813 64.5591 35.3016C65.097 33.5037 66.1814 32.1408 67.7822 31.2509C69.6825 30.1945 72.2584 29.6816 74.8494 29.8441C77.5261 30.012 79.8664 30.8514 81.4393 32.2078C82.5111 33.1322 83.291 34.3533 83.6948 35.7393C84.0681 37.0206 84.0925 38.3797 83.7634 39.5662C83.631 40.0435 82.9723 41.7692 82.3661 41.8919C82.1725 41.931 81.9507 41.8424 81.6877 41.6209C80.8518 40.9167 79.6642 38.8495 79.3018 37.7375C79.1863 38.0288 79.0447 38.3202 78.8453 38.5696C78.5605 38.9255 78.0599 39.2679 77.5085 39.1618C76.9547 39.0553 76.6083 38.5464 76.4689 38.1058C76.4011 37.8914 76.3335 37.5992 76.2848 37.2945C76.2405 37.424 76.1892 37.5522 76.1291 37.6762C75.9763 37.9912 75.6973 38.4136 75.2361 38.6381C74.7027 38.8978 74.0242 38.7958 73.5861 38.3903C73.3079 38.1328 73.0936 37.6928 73.0128 37.2643C72.8914 37.4232 72.7519 37.5704 72.6445 37.6641C72.3692 37.9042 72.0736 38.1056 71.8121 38.2313C71.489 38.3866 71.1137 38.3386 70.8783 38.1121C70.636 37.8789 70.5876 37.5264 70.5588 37.1853C70.5459 37.0329 70.5381 36.8631 70.5306 36.699C70.5301 36.6881 70.5296 36.6772 70.5291 36.6662C69.9109 37.5625 68.962 38.5751 67.8642 39.5029C67.008 40.2265 65.8646 41.0514 65.46 40.9946C65.4372 40.9912 65.4146 40.9866 65.3925 40.9805ZM77.5786 30.578C74.4548 29.7194 70.6557 29.9888 67.9247 31.5071C66.393 32.3586 65.3552 33.6635 64.84 35.3856C64.3556 37.0048 64.5308 38.3366 64.5523 38.4831C64.7044 39.5166 65.0889 40.646 65.5009 40.7041C65.918 40.7626 69.1522 38.4038 70.524 36.1356C70.5569 36.0812 70.621 36.0542 70.6828 36.0687C70.744 36.0825 70.7901 36.1358 70.7955 36.1991C70.8084 36.3514 70.8161 36.5213 70.8236 36.6854C70.831 36.8468 70.8386 37.0137 70.851 37.1604C70.8761 37.4577 70.9127 37.738 71.0817 37.9007C71.2271 38.0406 71.4752 38.0678 71.6852 37.9669C71.9237 37.8524 72.196 37.6663 72.4519 37.4431C72.6698 37.2531 72.9528 36.8932 72.9913 36.714C73.0078 36.6372 73.0819 36.587 73.1594 36.6003C73.237 36.6136 73.29 36.6855 73.2801 36.7634C73.2214 37.2207 73.4528 37.8671 73.7854 38.175C74.1369 38.5004 74.6807 38.5823 75.1079 38.3745C75.409 38.2279 75.678 37.9344 75.8654 37.5482C76.0461 37.1759 76.1421 36.7492 76.2179 36.3785C76.2332 36.3039 76.3031 36.2534 76.3786 36.2623C76.4543 36.2713 76.5105 36.3366 76.508 36.4127C76.4924 36.8918 76.6181 37.6048 76.7486 38.0173C76.8917 38.4698 77.2119 38.8059 77.564 38.8739C77.9127 38.9409 78.3258 38.7496 78.6164 38.3863C78.8967 38.0359 79.0513 37.5888 79.2009 37.1565C79.2246 37.0881 79.2946 37.0472 79.3658 37.0603C79.4376 37.0734 79.4881 37.1364 79.4859 37.2087C79.4681 37.824 80.9018 40.5753 81.8766 41.3966C82.1224 41.6036 82.2524 41.6157 82.308 41.6044C82.6666 41.5318 83.2919 40.1693 83.4809 39.4877C84.0527 37.4263 83.5839 34.4444 81.2478 32.4297C80.272 31.5883 78.9945 30.9671 77.5786 30.578Z" fill="#1F404D"/>
<path d="M71.0705 40.1805C70.5166 39.8767 69.8002 39.9212 69.2879 40.2911C69.2002 40.3544 69.1804 40.477 69.2438 40.5648C69.2761 40.6096 69.3239 40.6366 69.3745 40.644C69.4231 40.6511 69.4745 40.64 69.5176 40.6089C69.9035 40.3303 70.4646 40.2955 70.8821 40.5244C70.9766 40.5763 71.0961 40.5417 71.1482 40.4468C71.2003 40.3517 71.1655 40.2326 71.0705 40.1805Z" fill="#1F404D"/>
<path d="M77.7229 40.4998C77.2371 40.0961 76.5254 40.0029 75.9519 40.2682C75.8537 40.3137 75.8108 40.4302 75.8563 40.5284C75.8852 40.5909 75.9428 40.6309 76.0061 40.6402C76.0424 40.6455 76.0807 40.6406 76.1166 40.6241C76.5487 40.4241 77.1061 40.497 77.4723 40.8014C77.5554 40.8705 77.6791 40.8592 77.7483 40.7759C77.8175 40.6926 77.8062 40.569 77.7229 40.4998Z" fill="#1F404D"/>
<path d="M77.4861 43.5621C77.2858 43.3957 77.047 43.283 76.7955 43.2255C76.9545 43.2096 77.1154 43.2216 77.2671 43.2662C77.3708 43.2966 77.4798 43.2372 77.5104 43.1332C77.5409 43.0294 77.4814 42.9204 77.3775 42.8899C76.789 42.7173 76.1219 42.8988 75.6982 43.3406C75.6126 43.3912 75.5769 43.4987 75.6196 43.5908C75.6451 43.6459 75.6933 43.6822 75.7478 43.6966C75.7836 43.7078 75.8215 43.7097 75.8574 43.7C75.8798 43.694 75.9011 43.6835 75.9206 43.6694C76.3466 43.4919 76.8806 43.5687 77.2355 43.8637C77.3186 43.9328 77.4423 43.9215 77.5116 43.8382C77.5807 43.7549 77.5694 43.6313 77.4861 43.5621Z" fill="#1F404D"/>
<path d="M69.4163 43.6229C69.6217 43.4629 69.864 43.3578 70.1171 43.3082C69.9588 43.2873 69.7976 43.2943 69.6445 43.334C69.54 43.3612 69.4328 43.2984 69.4056 43.1935C69.3784 43.0887 69.4412 42.9817 69.5461 42.9545C70.1398 42.8005 70.8007 43.0029 71.2104 43.4578C71.2943 43.5111 71.3266 43.6196 71.281 43.7104C71.2538 43.7647 71.2044 43.7994 71.1495 43.8121C71.1134 43.8222 71.0755 43.8229 71.0399 43.8121C71.0177 43.8053 70.9967 43.7942 70.9777 43.7795C70.5575 43.5887 70.0213 43.6486 69.6573 43.9322C69.5721 43.9987 69.4488 43.9835 69.3822 43.8981C69.3156 43.8127 69.3309 43.6895 69.4163 43.6229Z" fill="#1F404D"/>
<path d="M77.0615 45.1423C77.0322 45.927 76.7444 46.6438 76.2806 47.2109C75.6324 48.0046 74.6404 48.5045 73.5364 48.4871C72.3461 48.4684 71.3053 47.8526 70.6942 46.9295C70.333 46.3845 70.1224 45.7324 70.1184 45.0329L77.0615 45.1423Z" fill="#96312C"/>
<path d="M76.2799 47.2109C75.6317 48.0046 74.6397 48.5045 73.5357 48.4871C72.3454 48.4684 71.3046 47.8526 70.6935 46.9295C71.5871 46.602 72.5242 46.4085 73.4731 46.4253C74.4532 46.4426 75.4457 46.7053 76.2799 47.2109Z" fill="#EA978F"/>
<path d="M76.7182 45.1373C76.3406 45.4804 75.8785 45.7416 75.3935 45.9041C74.4702 46.2136 73.4686 46.2066 72.5013 46.0894C71.9711 46.0253 71.4303 45.9242 70.9767 45.6418C70.737 45.4922 70.5257 45.2818 70.3844 45.0374L76.7182 45.1373Z" fill="white"/>
<path d="M72.6251 48.4827C72.0185 48.3159 71.4636 47.9926 71.0107 47.534C70.34 46.855 69.9679 45.9558 69.963 45.0022C69.9628 44.9602 69.9795 44.9198 70.0094 44.8902C70.0393 44.8607 70.0798 44.8444 70.1218 44.845L77.0649 44.9544C77.1069 44.9553 77.147 44.9727 77.1759 45.0032C77.2049 45.0337 77.2203 45.0745 77.2187 45.1166C77.1838 46.0696 76.7836 46.9566 76.0918 47.6142C75.399 48.2727 74.4909 48.6272 73.5349 48.6121C73.2234 48.6072 72.9182 48.5632 72.6251 48.4827ZM70.2805 45.1603C70.3729 46.8785 71.8027 48.272 73.5398 48.2994C75.2768 48.3268 76.7499 46.979 76.8964 45.2646L70.2805 45.1603Z" fill="#1F404D"/>
<defs>
<filter id="filter0_d_174_371" x="3.20117" y="5.40576" width="99.3906" height="68.3364" filterUnits="userSpaceOnUse" color-interpolation-filters="sRGB">
<feFlood flood-opacity="0" result="BackgroundImageFix"/>
<feColorMatrix in="SourceAlpha" type="matrix" values="0 0 0 0 0 0 0 0 0 0 0 0 0 0 0 0 0 0 127 0" result="hardAlpha"/>
<feOffset dy="4"/>
<feGaussianBlur stdDeviation="2"/>
<feComposite in2="hardAlpha" operator="out"/>
<feColorMatrix type="matrix" values="0 0 0 0 0 0 0 0 0 0 0 0 0 0 0 0 0 0 0.25 0"/>
<feBlend mode="normal" in2="BackgroundImageFix" result="effect1_dropShadow_174_371"/>
<feBlend mode="normal" in="SourceGraphic" in2="effect1_dropShadow_174_371" result="shape"/>
</filter>
<linearGradient id="paint0_linear_174_371" x1="72.1152" y1="18.8879" x2="82.9857" y2="18.8879" gradientUnits="userSpaceOnUse">
<stop stop-color="#FA6157"/>
<stop offset="0.0885729" stop-color="#CD3236"/>
<stop offset="0.884867" stop-color="#CD3236"/>
<stop offset="1" stop-color="#FA6157"/>
</linearGradient>
</defs>
</svg>
