<svg width="78" height="78" viewBox="0 0 78 78" fill="none" xmlns="http://www.w3.org/2000/svg">
<path d="M53.625 19.5V39C53.625 42.8788 52.0842 46.5987 49.3414 49.3414C46.5987 52.0842 42.8788 53.625 39 53.625C35.1212 53.625 31.4013 52.0842 28.6586 49.3414C25.9158 46.5987 24.375 42.8788 24.375 39V19.5C24.375 15.6212 25.9158 11.9013 28.6586 9.15856C31.4013 6.41584 35.1212 4.875 39 4.875C42.8788 4.875 46.5987 6.41584 49.3414 9.15856C52.0842 11.9013 53.625 15.6212 53.625 19.5Z" fill="#667BC6"/>
<path d="M63.375 39C63.375 38.3535 63.1182 37.7335 62.6611 37.2764C62.204 36.8193 61.584 36.5625 60.9375 36.5625C60.291 36.5625 59.671 36.8193 59.2139 37.2764C58.7568 37.7335 58.5 38.3535 58.5 39C58.5 44.1717 56.4455 49.1316 52.7886 52.7886C49.1316 56.4455 44.1717 58.5 39 58.5C33.8283 58.5 28.8684 56.4455 25.2114 52.7886C21.5545 49.1316 19.5 44.1717 19.5 39C19.5 38.3535 19.2432 37.7335 18.7861 37.2764C18.329 36.8193 17.709 36.5625 17.0625 36.5625C16.416 36.5625 15.796 36.8193 15.3389 37.2764C14.8818 37.7335 14.625 38.3535 14.625 39C14.6249 45.0427 16.8694 50.87 20.9229 55.3514C24.9765 59.8329 30.5501 62.6489 36.5625 63.2531V68.25H26.8125C26.166 68.25 25.546 68.5068 25.0889 68.9639C24.6318 69.421 24.375 70.041 24.375 70.6875C24.375 71.334 24.6318 71.954 25.0889 72.4111C25.546 72.8682 26.166 73.125 26.8125 73.125H51.1875C51.834 73.125 52.454 72.8682 52.9111 72.4111C53.3682 71.954 53.625 71.334 53.625 70.6875C53.625 70.041 53.3682 69.421 52.9111 68.9639C52.454 68.5068 51.834 68.25 51.1875 68.25H41.4375V63.2531C47.4499 62.6489 53.0235 59.8329 57.0771 55.3514C61.1306 50.87 63.3751 45.0427 63.375 39Z" fill="#455A64"/>
<path d="M53.625 19.5V39C53.625 42.8788 52.0842 46.5987 49.3414 49.3414C46.5987 52.0842 42.8788 53.625 39 53.625V4.875C42.8788 4.875 46.5987 6.41584 49.3414 9.15856C52.0842 11.9013 53.625 15.6212 53.625 19.5Z" fill="#667BC6"/>
</svg>
