<svg width="205" height="256" viewBox="0 0 205 256" fill="none" xmlns="http://www.w3.org/2000/svg">
<path d="M109.558 255.582C160.758 255.582 202.262 249.967 202.262 243.041C202.262 236.114 160.758 230.498 109.558 230.498C97.8458 230.498 86.6377 230.793 76.3204 231.329C79.2657 232.174 81.7991 233.514 82.6484 236.043C84.7271 242.225 76.9937 244.17 69.5617 244.17C67.4911 244.17 65.4444 244.019 63.6391 243.767C62.7137 243.89 61.8124 243.949 60.9471 243.949C52.3418 243.95 46.9804 238.184 50.1897 233.407C29.8177 235.709 16.8524 239.17 16.8524 243.041C16.8524 249.967 58.3578 255.582 109.558 255.582Z" fill="#5ABFA2"/>
<path fill-rule="evenodd" clip-rule="evenodd" d="M22.0209 185.466C15.6462 183.346 12.5076 175.43 15.0316 167.845C17.5543 160.261 24.8116 155.803 31.1849 157.923C37.5582 160.045 40.6983 167.959 38.1743 175.546C35.6516 183.13 28.3942 187.587 22.0209 185.466Z" fill="white"/>
<path d="M20.1981 183.64C19.9314 179.876 20.5208 175.824 22.0715 171.497C21.3848 171.136 20.6981 170.772 20.0128 170.404C19.8448 171.008 19.7035 171.627 19.5915 172.258C18.8195 176.56 19.1034 180.592 20.1981 183.64ZM20.9448 167.773C21.3888 166.858 21.8941 165.94 22.4541 165.017C21.8848 165.861 21.3781 166.785 20.9448 167.773Z" fill="#D1D2D0"/>
<path fill-rule="evenodd" clip-rule="evenodd" d="M67.6836 201.915C59.3182 208.073 59.8236 224.751 64.4702 228.419C67.5676 230.863 80.4982 229.644 82.6489 236.044C85.7822 245.364 66.6129 245.054 59.8023 242.966C54.3796 241.304 50.4502 239.32 50.9702 236.253C53.6289 220.512 53.8196 208.797 47.2249 208.927C49.8156 200.013 62.9302 193.973 67.6836 201.915Z" fill="white"/>
<path d="M50.1899 233.407C50.6086 233.36 51.0259 233.314 51.4512 233.267C51.5272 232.77 51.6006 232.277 51.6699 231.789C51.0539 232.307 50.5646 232.851 50.1899 233.407Z" fill="#337D92"/>
<path d="M60.9477 243.949C61.813 243.949 62.7143 243.891 63.6396 243.768C62.1556 243.56 60.837 243.284 59.8023 242.966C54.3797 241.304 50.4503 239.32 50.9703 236.253C51.141 235.24 51.3023 234.245 51.4516 233.268C51.0263 233.315 50.609 233.361 50.1903 233.408C46.981 238.184 52.3423 243.951 60.9477 243.949Z" fill="#276374"/>
<path d="M63.6397 243.768C63.6397 243.768 63.6397 243.768 63.641 243.768C73.0824 238.727 64.4757 231.532 54.7917 231.532C53.757 231.532 52.709 231.613 51.6703 231.789C51.601 232.277 51.5276 232.77 51.4516 233.268C51.3023 234.245 51.141 235.239 50.9703 236.253C50.4503 239.32 54.3797 241.303 59.8024 242.966C60.837 243.284 62.1557 243.56 63.6397 243.768Z" fill="#D1D2D0"/>
<path fill-rule="evenodd" clip-rule="evenodd" d="M91.6566 146.15C94.3606 149.073 99.2472 155.39 102.546 164.712C105.757 173.781 97.6392 177.977 92.6392 173.134C86.8059 167.485 79.7659 157.864 77.1913 149.217C74.5033 140.205 82.4726 136.216 91.6566 146.15Z" fill="white"/>
<path fill-rule="evenodd" clip-rule="evenodd" d="M106.214 166.709C109.497 166.984 112.889 167.319 116.421 166.504C124.463 164.653 125.93 165.159 125.173 169.987C124.671 173.182 119.814 176.699 116.09 176.549C113.282 176.436 108.762 176.466 104.105 174.863C98.826 173.046 101.047 166.275 106.214 166.709Z" fill="white"/>
<path fill-rule="evenodd" clip-rule="evenodd" d="M114.87 167.037C118.485 164.912 119.722 161.925 121.756 162.859C123.24 163.543 121.485 165.716 119.01 167.996C113.221 173.328 111.257 169.16 114.87 167.037Z" fill="white"/>
<path fill-rule="evenodd" clip-rule="evenodd" d="M99.2063 165.366C106.124 164.78 109.274 164.92 114.388 165.592C113.981 169.5 114.38 174.084 113.582 178.056C108.01 177.608 102.313 178.374 94.8797 175.499C89.9664 173.599 92.7117 165.917 99.2063 165.366Z" fill="white"/>
<path fill-rule="evenodd" clip-rule="evenodd" d="M75.7949 129.726C90.0682 139.984 96.0362 176.299 89.0829 194.746C82.1296 213.194 65.0722 217.716 45.4216 210.31C25.7696 202.903 15.3389 189.344 22.2922 170.896C29.2455 152.449 61.1162 129.853 75.7949 129.726Z" fill="white"/>
<path fill-rule="evenodd" clip-rule="evenodd" d="M105.538 1.05526C128.922 12.2979 89.6034 54.3392 83.4807 73.1272C80.1914 83.2259 73.0313 78.9486 70.53 67.0686C65.3713 42.5619 86.8753 -7.91541 105.538 1.05526Z" fill="white"/>
<path fill-rule="evenodd" clip-rule="evenodd" d="M100.981 14.6331C114.237 21.2985 87.0088 53.8251 82.0234 71.3718C80.4221 77.0078 75.7648 74.8958 75.6861 69.1251C75.4208 49.7571 87.9968 8.10379 100.981 14.6331Z" fill="#F7C8E7"/>
<path fill-rule="evenodd" clip-rule="evenodd" d="M154.945 25.6036C171.034 45.9596 117.262 66.5077 103.525 80.7103C96.1397 88.3437 91.5783 81.361 94.5396 69.5863C100.648 45.2997 142.106 9.35831 154.945 25.6036Z" fill="white"/>
<path fill-rule="evenodd" clip-rule="evenodd" d="M144.898 35.8094C153.888 47.6107 115.156 64.9067 102.982 78.492C99.0712 82.856 95.8138 78.916 98.2712 73.6947C106.526 56.1707 136.091 24.2494 144.898 35.8094Z" fill="#F7C8E7"/>
<path fill-rule="evenodd" clip-rule="evenodd" d="M16.6689 153.156C13.9422 156.34 12.6382 161.513 10.1222 160.446C8.61551 159.809 10.8741 156.308 12.4768 153.345C16.2181 146.421 19.3982 149.97 16.6689 153.156Z" fill="white"/>
<path fill-rule="evenodd" clip-rule="evenodd" d="M23.0737 150.507C20.0004 151.693 16.8057 152.871 13.9817 155.146C7.55235 160.322 2.11907 160.059 0.337738 154.818C-0.703594 151.753 0.185734 148.771 9.89907 145.466C12.5604 144.559 16.5231 142.841 21.4137 142.251C26.9577 141.583 27.9137 148.643 23.0737 150.507Z" fill="white"/>
<path fill-rule="evenodd" clip-rule="evenodd" d="M50.2331 148.983C44.5318 148.974 27.5131 149.647 16.0624 155.378C14.7211 151.683 12.5091 147.435 11.4931 143.513C21.8718 139.471 40.9424 133.778 54.0531 133.303C60.8491 133.057 62.6171 137.097 61.2665 141.138C59.9531 145.063 55.6931 148.99 50.2331 148.983Z" fill="white"/>
<path fill-rule="evenodd" clip-rule="evenodd" d="M91.2365 68.8642C113.761 74.9882 124.694 101.583 121.421 118.943C118.147 136.306 100.091 145.535 77.0899 140.478C52.3605 135.039 33.6592 116.712 40.7058 97.0002C47.7525 77.2895 68.7112 62.7402 91.2365 68.8642Z" fill="white"/>
<path fill-rule="evenodd" clip-rule="evenodd" d="M99.1853 110.002C98.296 113.276 94.452 114.073 92.4386 113.526C90.4266 112.98 87.2733 110.28 88.1626 107.005C89.072 103.662 100.092 106.662 99.1853 110.002Z" fill="#36404B"/>
<path fill-rule="evenodd" clip-rule="evenodd" d="M112.721 112.771C116.89 115.205 119.163 119.071 117.799 121.409C116.435 123.746 111.951 123.669 107.782 121.237C103.613 118.805 101.339 114.937 102.703 112.601C104.067 110.263 108.551 110.339 112.721 112.771Z" fill="#F7C8E7"/>
<path fill-rule="evenodd" clip-rule="evenodd" d="M75.0858 102.541C70.2592 102.527 66.3405 104.711 66.3325 107.417C66.3258 110.122 70.2325 112.327 75.0591 112.341C79.8858 112.354 83.8045 110.17 83.8125 107.465C83.8192 104.758 79.9125 102.553 75.0858 102.541Z" fill="#F7C8E7"/>
<path fill-rule="evenodd" clip-rule="evenodd" d="M109.513 103.339C110.941 103.727 111.784 105.2 111.396 106.627C111.008 108.053 109.536 108.896 108.108 108.508C106.681 108.12 105.838 106.649 106.226 105.221C106.614 103.793 108.086 102.951 109.513 103.339Z" fill="#36404B"/>
<path fill-rule="evenodd" clip-rule="evenodd" d="M83.5115 96.6955C84.8515 97.0582 85.6435 98.4395 85.2781 99.7795C84.9141 101.12 83.5328 101.91 82.1928 101.546C80.8541 101.182 80.0621 99.8008 80.4261 98.4608C80.7915 97.1208 82.1728 96.3302 83.5115 96.6955Z" fill="#36404B"/>
<path fill-rule="evenodd" clip-rule="evenodd" d="M111.622 92.994C113.558 94.1234 114.614 95.9207 113.98 97.0047C113.347 98.0914 111.75 97.47 109.814 96.3407C107.876 95.2114 106.336 93.9994 106.97 92.9154C107.603 91.8287 109.686 91.8647 111.622 92.994Z" fill="#F7C8E7"/>
<path fill-rule="evenodd" clip-rule="evenodd" d="M86.0476 86.0427C83.8076 86.036 81.9863 87.0493 81.9836 88.3066C81.981 89.5626 83.673 89.8373 85.9143 89.8427C88.1543 89.8493 90.0956 89.5853 90.0996 88.328C90.1036 87.072 88.2903 86.048 86.0476 86.0427Z" fill="#F7C8E7"/>
<path d="M94.1085 109.954L91.1458 120.848C91.0298 121.274 90.5911 121.526 90.1645 121.41C89.7378 121.294 89.4871 120.854 89.6018 120.428L92.5645 109.534C92.6805 109.109 93.1205 108.857 93.5472 108.973C93.9725 109.089 94.2245 109.529 94.1085 109.954Z" fill="#36404B"/>
<path d="M101.892 120.811C99.9171 121.872 97.5864 122.349 95.1677 122.351C92.2184 122.349 89.1291 121.64 86.3531 120.341C83.5798 119.043 81.1131 117.151 79.4531 114.741C79.2024 114.377 79.2944 113.88 79.6584 113.629C80.0224 113.379 80.5211 113.471 80.7704 113.835C82.2264 115.953 84.4664 117.693 87.0317 118.893C89.5944 120.093 92.4757 120.752 95.1677 120.751C97.3771 120.751 99.4517 120.309 101.132 119.401C101.521 119.192 102.006 119.337 102.216 119.727C102.425 120.116 102.28 120.6 101.892 120.811Z" fill="#36404B"/>
<path fill-rule="evenodd" clip-rule="evenodd" d="M172.33 180.606C173.02 180.606 173.059 181.704 172.304 181.704C171.943 181.699 171.588 181.694 171.228 181.699C170.482 181.699 170.51 180.602 171.21 180.602C171.586 180.596 171.955 180.6 172.33 180.606ZM176.78 181.103C177.551 181.296 177.203 182.339 176.57 182.182C176.216 182.111 175.867 182.048 175.512 181.992C174.83 181.907 174.924 180.814 175.678 180.907C176.047 180.964 176.414 181.031 176.78 181.103ZM181.082 182.382C181.734 182.627 181.378 183.666 180.678 183.403C180.344 183.27 180.011 183.147 179.674 183.027C178.959 182.759 179.387 181.748 180.028 181.988C180.382 182.112 180.732 182.243 181.082 182.382ZM185.074 184.439C185.64 184.764 185.17 185.758 184.48 185.364C184.179 185.172 183.875 184.984 183.567 184.807C182.939 184.448 183.483 183.494 184.111 183.854C184.438 184.04 184.756 184.239 185.074 184.439ZM188.591 187.227C189.126 187.761 188.323 188.511 187.834 188.021C187.575 187.772 187.314 187.533 187.044 187.296C186.511 186.851 187.187 185.987 187.764 186.468C188.047 186.715 188.32 186.968 188.591 187.227ZM191.506 190.645C191.922 191.227 191.034 191.875 190.608 191.278C190.403 190.985 190.192 190.699 189.975 190.415C189.538 189.892 190.348 189.151 190.84 189.739C191.07 190.035 191.291 190.339 191.506 190.645ZM193.73 194.543C194.028 195.239 193.003 195.633 192.731 194.999C192.588 194.677 192.426 194.348 192.263 194.036C191.932 193.456 192.852 192.854 193.239 193.531C193.408 193.863 193.579 194.203 193.73 194.543ZM195.25 198.749C195.434 199.49 194.359 199.711 194.192 199.045C194.099 198.708 194.003 198.34 193.887 198.012C193.704 197.283 194.684 197.012 194.932 197.675C195.046 198.031 195.15 198.39 195.25 198.749ZM196.114 203.13C196.204 203.859 195.114 203.982 195.026 203.273C194.98 202.916 194.93 202.559 194.872 202.204C194.776 201.435 195.872 201.36 195.956 202.027C196.014 202.394 196.068 202.761 196.114 203.13ZM168.507 184.73C169.194 184.644 169.37 185.727 168.618 185.821C168.262 185.858 167.911 185.902 167.558 185.955C166.803 186.048 166.71 184.955 167.392 184.871C167.764 184.815 168.134 184.768 168.507 184.73ZM173.016 184.784C173.726 184.873 173.6 185.964 172.874 185.873C172.522 185.828 172.171 185.792 171.816 185.768C171.02 185.668 171.25 184.592 171.89 184.672C172.267 184.7 172.642 184.736 173.016 184.784ZM177.387 185.933C178.031 186.173 177.684 187.216 176.975 186.949C176.647 186.816 176.314 186.696 175.979 186.583C175.252 186.311 175.695 185.306 176.324 185.542C176.683 185.663 177.038 185.79 177.387 185.933ZM181.318 188.157C181.891 188.566 181.272 189.473 180.667 189.042C180.382 188.83 180.092 188.624 179.796 188.432C179.23 188.108 179.699 187.112 180.391 187.508C180.706 187.712 181.018 187.933 181.318 188.157ZM184.591 191.259C185.062 191.824 184.208 192.515 183.755 191.968C183.524 191.696 183.287 191.432 183.043 191.171C182.559 190.687 183.303 189.878 183.842 190.418C184.099 190.69 184.35 190.972 184.591 191.259ZM187.128 194.964C187.48 195.582 186.535 196.139 186.17 195.5C185.998 195.19 185.818 194.876 185.63 194.573C185.246 193.902 186.228 193.409 186.562 193.994C186.758 194.315 186.947 194.636 187.128 194.964ZM188.967 199.044C189.216 199.709 188.194 200.108 187.935 199.42C187.814 199.082 187.687 198.744 187.551 198.412C187.284 197.702 188.327 197.355 188.57 197.999C188.708 198.346 188.84 198.694 188.967 199.044ZM169.406 188.875C170.12 188.875 170.131 189.972 169.399 189.972C169.046 189.972 168.704 189.984 168.355 190.014C167.687 190.099 167.49 189.016 168.258 188.92C168.647 188.89 169.016 188.875 169.406 188.875ZM173.888 189.808C174.51 190.042 174.192 191.094 173.458 190.818C173.128 190.678 172.818 190.567 172.48 190.452C171.858 190.296 172.03 189.211 172.81 189.406C173.182 189.528 173.528 189.655 173.888 189.808ZM177.646 192.433C178.136 192.924 177.383 193.723 176.852 193.192C176.611 192.943 176.36 192.7 176.095 192.475C175.552 192.023 176.24 191.166 176.808 191.64C177.102 191.896 177.374 192.154 177.646 192.433ZM180.195 196.197C180.472 196.844 179.58 197.327 179.203 196.668C179.051 196.348 178.894 196.037 178.72 195.728C178.364 195.102 179.314 194.556 179.674 195.185C179.858 195.521 180.031 195.849 180.195 196.197ZM181.583 200.492C181.744 201.137 180.696 201.472 180.507 200.714C180.436 200.361 180.356 200.016 180.267 199.67C180.09 198.956 181.158 198.706 181.331 199.395C181.424 199.758 181.508 200.124 181.583 200.492ZM166.951 182.121C166.158 182.22 166.112 181.121 166.756 181.042C167.123 180.976 167.488 180.918 167.859 180.864C168.602 180.771 168.706 181.864 168.016 181.949C167.659 182.002 167.307 182.058 166.951 182.121Z" fill="white"/>
<path fill-rule="evenodd" clip-rule="evenodd" d="M124.127 167.002C125.406 166.511 126.737 166.531 127.819 167.174C128.902 167.819 129.554 168.979 129.734 170.337C129.922 171.779 129.587 173.432 128.682 174.954C127.777 176.477 126.483 177.559 125.125 178.081C123.849 178.573 122.517 178.554 121.434 177.91C120.351 177.266 119.699 176.105 119.519 174.749C119.331 173.306 119.666 171.653 120.573 170.13C121.477 168.609 122.77 167.526 124.127 167.002ZM128.826 165.483C127.202 164.517 125.257 164.469 123.425 165.171L123.422 165.17C121.669 165.842 120.015 167.214 118.879 169.123C117.743 171.035 117.327 173.141 117.573 175.002L117.577 175.003C117.833 176.95 118.805 178.637 120.426 179.603C122.05 180.569 123.997 180.615 125.829 179.913L125.833 179.915C127.585 179.243 129.238 177.871 130.373 175.961C131.51 174.05 131.927 171.943 131.681 170.083L131.678 170.081C131.421 168.135 130.45 166.447 128.826 165.483Z" fill="#F2AA34"/>
<path fill-rule="evenodd" clip-rule="evenodd" d="M138.152 164.602C139.577 164.24 141.14 164.422 142.501 165.232C143.865 166.044 144.769 167.328 145.132 168.753C145.493 170.176 145.312 171.738 144.501 173.101C143.69 174.463 142.404 175.369 140.981 175.73C139.557 176.093 137.994 175.91 136.632 175.101C135.269 174.289 134.364 173.003 134.002 171.58C133.641 170.157 133.822 168.594 134.633 167.232C135.442 165.869 136.729 164.964 138.152 164.602ZM143.508 163.541C141.678 162.452 139.581 162.209 137.668 162.694C135.757 163.18 134.029 164.396 132.94 166.225C131.853 168.054 131.609 170.153 132.094 172.065C132.581 173.977 133.796 175.705 135.625 176.793C137.454 177.881 139.553 178.124 141.465 177.638C143.377 177.153 145.105 175.937 146.193 174.106C147.281 172.278 147.525 170.18 147.038 168.269C146.553 166.356 145.337 164.628 143.508 163.541Z" fill="#F2AA34"/>
<path fill-rule="evenodd" clip-rule="evenodd" d="M162.041 187.669L161.718 186.209L141.518 188.433C139.685 190.293 138.41 193.665 138.461 195.537L162.041 187.669Z" fill="#F2AA34"/>
<path fill-rule="evenodd" clip-rule="evenodd" d="M161.889 187.01C162.523 186.897 162.513 186.381 161.775 186.466L141.126 188.863C140.737 189.553 140.446 190.222 140.283 190.863L161.889 187.01Z" fill="#F4E58C"/>
<path fill-rule="evenodd" clip-rule="evenodd" d="M135.726 196.403L118.345 186.065C118.298 186.038 116.579 184.541 117.447 183.246L130.438 163.878C131.039 162.979 132.21 162.646 133.149 163.205L148.747 172.482C149.686 173.039 149.95 174.226 149.449 175.185L138.631 195.846C137.909 197.226 135.773 196.431 135.726 196.403Z" fill="#EFD061"/>
<path fill-rule="evenodd" clip-rule="evenodd" d="M134.606 191.342L144.206 174.111C145.708 171.413 149.035 173.484 147.586 176.213L138.403 193.506C136.787 196.551 132.994 194.236 134.606 191.342Z" fill="#F4E58C"/>
<path fill-rule="evenodd" clip-rule="evenodd" d="M165.984 190.451L164.023 181.568L162.755 181.848L164.716 190.73L165.984 190.451Z" fill="#EFD061"/>
<path fill-rule="evenodd" clip-rule="evenodd" d="M162.041 187.67L161.718 186.211L162.755 181.848L164.717 190.73L162.041 187.67Z" fill="#F2AA34"/>
<path fill-rule="evenodd" clip-rule="evenodd" d="M164.366 183.115L164.194 182.341L162.926 182.621L163.097 183.395L164.366 183.115Z" fill="#F4E58C"/>
<path d="M119.744 174.852C121.309 174.852 123.134 173.57 124.269 171.509C125.19 169.838 125.436 168.058 125.05 166.74C124.742 166.797 124.433 166.885 124.128 167.002C122.77 167.526 121.477 168.609 120.573 170.13C119.666 171.653 119.332 173.306 119.52 174.749C119.524 174.781 119.528 174.811 119.533 174.844C119.602 174.849 119.673 174.852 119.744 174.852Z" fill="#C2C4C2"/>
<path d="M121.33 165.584C121.783 165.535 122.191 165.511 122.558 165.511C122.591 165.511 122.626 165.511 122.659 165.511C122.91 165.383 123.164 165.269 123.422 165.171L123.424 165.172C123.546 165.125 123.668 165.083 123.791 165.043C123.786 165.039 123.779 165.036 123.774 165.033C123.403 164.828 122.991 164.732 122.56 164.732C122.338 164.732 122.11 164.757 121.88 164.808C121.731 165.053 121.546 165.313 121.33 165.584Z" fill="#2F758A"/>
<path d="M117.517 173.497C117.595 172.051 118.041 170.535 118.879 169.124C119.849 167.495 121.195 166.256 122.659 165.511C122.626 165.511 122.591 165.511 122.558 165.511C122.191 165.511 121.783 165.535 121.33 165.584C120.739 166.327 119.925 167.155 119.01 167.996C118.475 168.489 117.973 168.901 117.505 169.24C116.926 170.84 116.942 172.42 117.517 173.497Z" fill="#C2C4C2"/>
<path d="M117.505 169.239C117.973 168.901 118.476 168.489 119.01 167.995C119.925 167.154 120.74 166.326 121.33 165.583C121.546 165.313 121.732 165.053 121.881 164.807C120.492 165.111 119.01 166.305 118.036 168.073C117.822 168.458 117.646 168.85 117.505 169.239Z" fill="#C2C4C2"/>
<path d="M119.533 174.844C119.528 174.811 119.524 174.781 119.52 174.749C119.332 173.306 119.667 171.653 120.573 170.13C121.477 168.609 122.771 167.526 124.128 167.002C124.433 166.885 124.743 166.797 125.051 166.74C124.832 165.99 124.409 165.389 123.792 165.042C123.669 165.082 123.547 165.125 123.425 165.172L123.423 165.17C123.165 165.269 122.911 165.382 122.66 165.51C121.196 166.256 119.849 167.494 118.88 169.124C118.041 170.534 117.596 172.051 117.517 173.497C117.759 173.948 118.097 174.31 118.531 174.549C118.841 174.721 119.179 174.817 119.533 174.844Z" fill="#BB872D"/>
<path fill-rule="evenodd" clip-rule="evenodd" d="M124.617 164.732C122.896 163.783 120.326 165.144 118.877 167.771C117.429 170.399 117.65 173.299 119.372 174.248C121.093 175.196 123.664 173.835 125.112 171.208C126.561 168.58 126.338 165.68 124.617 164.732Z" fill="white"/>
<path fill-rule="evenodd" clip-rule="evenodd" d="M183.03 241.295C182.777 242.221 184.148 242.8 184.39 241.809C186.129 234.768 191.922 219.477 196.638 214.063C197.064 213.576 196.43 213.301 196.005 213.788C190.4 220.223 185.265 233.096 183.03 241.295Z" fill="#6DCED0"/>
<path fill-rule="evenodd" clip-rule="evenodd" d="M196.758 224.887C195.432 222.856 188.718 226.44 190.258 228.916C191.81 231.408 198.011 226.808 196.758 224.887Z" fill="#5DC9C6"/>
<path fill-rule="evenodd" clip-rule="evenodd" d="M186.763 231.442C186.692 231.594 187.301 232.315 187.372 232.162C188.499 229.938 193.039 226.777 195.265 226.045C195.571 225.897 195.708 225.384 195.067 225.622C193.169 226.21 188.556 228.811 186.763 231.442Z" fill="#6DCED0"/>
<path fill-rule="evenodd" clip-rule="evenodd" d="M197.987 215.177C198.818 218.547 202.203 220.932 200.265 222.832C198.326 224.735 195.251 220.144 195.183 217.264C187.461 226.548 184.305 215.477 194.021 213.364C189.074 208.708 190.078 204.205 192.429 204.275C194.781 204.347 194.411 207.847 195.777 210.5C197.525 203.556 202.625 207.303 197.918 212.585C207.222 208.404 205.85 216.215 197.987 215.177Z" fill="white"/>
<path fill-rule="evenodd" clip-rule="evenodd" d="M194.946 215.16C196.037 216.203 197.582 215.359 197.586 214.097C197.591 212.599 196.306 211.933 195.211 212.428C194.354 212.815 193.995 214.251 194.946 215.16Z" fill="#EFD061"/>
<path fill-rule="evenodd" clip-rule="evenodd" d="M182.856 241.439C183.149 242.444 184.753 242.2 184.414 241.14C182.005 233.603 178.652 216.083 179.941 208.356C180.058 207.66 179.314 207.767 179.197 208.461C177.664 217.645 180.249 232.543 182.856 241.439Z" fill="#6DCED0"/>
<path fill-rule="evenodd" clip-rule="evenodd" d="M168.037 218.223C169.758 215.606 178.417 220.272 176.414 223.463C174.397 226.676 166.407 220.701 168.037 218.223Z" fill="#5DC9C6"/>
<path fill-rule="evenodd" clip-rule="evenodd" d="M180.915 226.747C181.007 226.943 180.215 227.872 180.125 227.675C178.681 224.796 172.829 220.687 169.955 219.728C169.563 219.537 169.387 218.873 170.215 219.183C172.665 219.951 178.613 223.337 180.915 226.747Z" fill="#6DCED0"/>
<path fill-rule="evenodd" clip-rule="evenodd" d="M178.87 211.787C175.555 213.618 174.002 217.859 171.45 216.354C168.898 214.851 172.863 210.311 175.878 209.424C163.909 203.918 174.679 197.454 179.657 207.095C183.162 200.564 188.19 200.346 188.782 202.844C189.373 205.341 185.581 205.942 183.171 208.133C190.981 208.008 188.481 214.441 181.582 210.978C188.622 219.599 180.005 220.365 178.87 211.787Z" fill="white"/>
<path fill-rule="evenodd" clip-rule="evenodd" d="M178.028 208.577C177.238 210.021 178.565 211.411 179.894 211.058C181.477 210.639 181.813 209.096 180.981 208.084C180.33 207.289 178.716 207.32 178.028 208.577Z" fill="#EFD061"/>
<path fill-rule="evenodd" clip-rule="evenodd" d="M50.5693 203.874C42.2039 210.031 42.7106 226.71 47.3572 230.377C50.4546 232.822 63.3839 231.602 65.5359 238.002C68.6679 247.323 49.4986 247.013 42.6879 244.926C37.2666 243.263 33.3359 241.277 33.8559 238.211C36.5146 222.472 39.2039 206.641 30.9266 202.601C33.5186 193.687 45.8159 195.932 50.5693 203.874Z" fill="white"/>
</svg>
