<svg width="347" height="172" viewBox="0 0 347 172" fill="none" xmlns="http://www.w3.org/2000/svg">
<g filter="url(#filter0_d_91_361)">
<path d="M159.77 39.3898C165.043 23.1603 167.68 15.0456 172.569 15.0456C177.457 15.0456 180.094 23.1603 185.367 39.3898L188.792 49.9296C190.249 54.4154 190.978 56.6582 192.747 57.9433C194.515 59.2283 196.874 59.2283 201.59 59.2283H212.672C229.737 59.2283 238.27 59.2283 239.78 63.8777C241.291 68.527 234.388 73.5422 220.582 83.5726L211.617 90.0865C207.801 92.8589 205.893 94.245 205.217 96.3243C204.542 98.4035 205.271 100.646 206.728 105.132L210.153 115.672C215.426 131.901 218.063 140.016 214.108 142.89C210.153 145.763 203.25 140.748 189.444 130.717L180.478 124.204C176.663 121.431 174.755 120.045 172.569 120.045C170.382 120.045 168.474 121.431 164.659 124.204L155.693 130.717C141.887 140.748 134.984 145.763 131.03 142.89C127.075 140.016 129.711 131.901 134.984 115.672L138.409 105.132C139.867 100.646 140.595 98.4035 139.92 96.3243C139.244 94.245 137.336 92.8589 133.52 90.0865L124.555 83.5726C110.749 73.5422 103.846 68.527 105.357 63.8777C106.868 59.2283 115.4 59.2283 132.465 59.2283H143.547C148.263 59.2283 150.622 59.2283 152.39 57.9433C154.159 56.6582 154.888 54.4154 156.345 49.9296L159.77 39.3898Z" fill="url(#paint0_linear_91_361)"/>
</g>
<g filter="url(#filter1_d_91_361)">
<path d="M278.349 79.1496C283.881 68.746 286.647 63.5443 289.971 64.1304C293.295 64.7165 294.115 70.5506 295.755 82.2187L296.407 86.8596C296.86 90.0846 297.087 91.697 298.136 92.7829C299.184 93.8688 300.788 94.1516 303.995 94.7171L308.61 95.5309C320.214 97.5769 326.016 98.6 326.486 101.943C326.955 105.285 321.66 107.868 311.07 113.033L306.858 115.087C303.931 116.515 302.467 117.229 301.758 118.562C301.05 119.895 301.276 121.507 301.73 124.732L302.382 129.373C304.022 141.041 304.842 146.875 301.808 148.355C298.774 149.835 294.681 145.597 286.496 137.121L283.241 133.75C280.979 131.407 279.848 130.236 278.361 129.974C276.874 129.711 275.411 130.425 272.484 131.853L268.272 133.907C257.681 139.072 252.386 141.655 250.041 139.227C247.696 136.799 250.462 131.597 255.994 121.194L258.194 117.056C259.723 114.18 260.488 112.742 260.277 111.248C260.067 109.753 258.936 108.581 256.674 106.239L253.418 102.868C245.233 94.3917 241.141 90.1538 242.726 87.1734C244.31 84.1931 250.112 85.2161 261.716 87.2622L266.331 88.076C269.538 88.6415 271.142 88.9242 272.499 88.2625C273.856 87.6007 274.62 86.163 276.149 83.2875L278.349 79.1496Z" fill="url(#paint1_linear_91_361)"/>
</g>
<g filter="url(#filter2_d_91_361)">
<path d="M67.6919 79.1496C62.1602 68.746 59.3944 63.5443 56.0702 64.1304C52.746 64.7165 51.9261 70.5506 50.2862 82.2187L49.634 86.8596C49.1807 90.0846 48.9541 91.697 47.9055 92.7829C46.8569 93.8688 45.2533 94.1516 42.0461 94.7171L37.4308 95.5309C25.827 97.5769 20.0251 98.6 19.5554 101.943C19.0856 105.285 24.3807 107.868 34.971 113.033L39.1832 115.087C42.1103 116.515 43.5738 117.229 44.2825 118.562C44.9912 119.895 44.7646 121.507 44.3113 124.732L43.6591 129.373C42.0193 141.041 41.1993 146.875 44.2332 148.355C47.267 149.835 51.3595 145.597 59.5445 137.121L62.8 133.75C65.0623 131.407 66.1935 130.236 67.6801 129.974C69.1667 129.711 70.6302 130.425 73.5573 131.853L77.7695 133.907C88.3598 139.072 93.6549 141.655 95.9997 139.227C98.3445 136.799 95.5787 131.597 90.047 121.194L87.8468 117.056C86.3179 114.18 85.5535 112.742 85.7636 111.248C85.9736 109.753 87.1048 108.581 89.3671 106.239L92.6226 102.868C100.808 94.3917 104.9 90.1538 103.315 87.1734C101.731 84.1931 95.9288 85.2161 84.325 87.2622L79.7098 88.076C76.5026 88.6415 74.899 88.9242 73.5422 88.2625C72.1854 87.6007 71.4209 86.163 69.892 83.2875L67.6919 79.1496Z" fill="url(#paint2_linear_91_361)"/>
</g>
<defs>
<filter id="filter0_d_91_361" x="105.152" y="15.0459" width="134.832" height="133.837" filterUnits="userSpaceOnUse" color-interpolation-filters="sRGB">
<feFlood flood-opacity="0" result="BackgroundImageFix"/>
<feColorMatrix in="SourceAlpha" type="matrix" values="0 0 0 0 0 0 0 0 0 0 0 0 0 0 0 0 0 0 127 0" result="hardAlpha"/>
<feOffset dy="5.18927"/>
<feComposite in2="hardAlpha" operator="out"/>
<feColorMatrix type="matrix" values="0 0 0 0 1 0 0 0 0 0.720277 0 0 0 0 0.000989556 0 0 0 1 0"/>
<feBlend mode="normal" in2="BackgroundImageFix" result="effect1_dropShadow_91_361"/>
<feBlend mode="normal" in="SourceGraphic" in2="effect1_dropShadow_91_361" result="shape"/>
</filter>
<filter id="filter1_d_91_361" x="242.39" y="64.0859" width="84.125" height="89.7488" filterUnits="userSpaceOnUse" color-interpolation-filters="sRGB">
<feFlood flood-opacity="0" result="BackgroundImageFix"/>
<feColorMatrix in="SourceAlpha" type="matrix" values="0 0 0 0 0 0 0 0 0 0 0 0 0 0 0 0 0 0 127 0" result="hardAlpha"/>
<feOffset dy="5.18927"/>
<feComposite in2="hardAlpha" operator="out"/>
<feColorMatrix type="matrix" values="0 0 0 0 1 0 0 0 0 0.720277 0 0 0 0 0.000989556 0 0 0 1 0"/>
<feBlend mode="normal" in2="BackgroundImageFix" result="effect1_dropShadow_91_361"/>
<feBlend mode="normal" in="SourceGraphic" in2="effect1_dropShadow_91_361" result="shape"/>
</filter>
<filter id="filter2_d_91_361" x="19.5264" y="64.0859" width="84.125" height="89.7488" filterUnits="userSpaceOnUse" color-interpolation-filters="sRGB">
<feFlood flood-opacity="0" result="BackgroundImageFix"/>
<feColorMatrix in="SourceAlpha" type="matrix" values="0 0 0 0 0 0 0 0 0 0 0 0 0 0 0 0 0 0 127 0" result="hardAlpha"/>
<feOffset dy="5.18927"/>
<feComposite in2="hardAlpha" operator="out"/>
<feColorMatrix type="matrix" values="0 0 0 0 1 0 0 0 0 0.720277 0 0 0 0 0.000989556 0 0 0 1 0"/>
<feBlend mode="normal" in2="BackgroundImageFix" result="effect1_dropShadow_91_361"/>
<feBlend mode="normal" in="SourceGraphic" in2="effect1_dropShadow_91_361" result="shape"/>
</filter>
<linearGradient id="paint0_linear_91_361" x1="172.569" y1="24.3159" x2="172.569" y2="121.58" gradientUnits="userSpaceOnUse">
<stop stop-color="#FFF2C2"/>
<stop offset="1" stop-color="#FFCF25"/>
</linearGradient>
<linearGradient id="paint1_linear_91_361" x1="289.06" y1="69.2938" x2="278.203" y2="130.871" gradientUnits="userSpaceOnUse">
<stop stop-color="#FFF2C2"/>
<stop offset="1" stop-color="#FFCF25"/>
</linearGradient>
<linearGradient id="paint2_linear_91_361" x1="56.9806" y1="69.2938" x2="67.8383" y2="130.871" gradientUnits="userSpaceOnUse">
<stop stop-color="#FFF2C2"/>
<stop offset="1" stop-color="#FFCF25"/>
</linearGradient>
</defs>
</svg>
