<svg width="92" height="79" viewBox="0 0 92 79" fill="none" xmlns="http://www.w3.org/2000/svg">
<path d="M51.5534 55.2954C51.5534 55.2954 59.5688 71.9685 42.0978 72.4073L38.8965 78.9892L37.9604 70.6526L51.5534 55.2954Z" fill="#70CACD"/>
<path d="M59.8613 6.67006L55.4788 0.557617L53.389 6.4445L46.8813 2.64186L47.6066 8.97109L42.3477 7.36866L43.7099 12.7698L41.1849 12.6382L43.3305 18.2402L39.423 19.315L42.7654 23.8294L40.2679 24.9448L43.7099 28.6941L40.2679 28.9009L44.4838 33.2459H41.3104L42.0229 38.4015L38.4921 35.1947L36.3883 39.3173L35.3482 36.075L32.8049 40.2379L28.9381 36.5098L26.9148 40.2379L22.6395 37.9352L22.5654 42.7892L17.8501 40.2383V45.6003L14.1208 42.1312L12.8041 48.3421L11.1587 43.8863L7.53894 46.2487L8.16461 42.3504L5.56429 41.8025V38.8989L4.46757 39.0025V36.5102H3.04327C3.04327 36.5102 3.48045 50.2538 11.1587 51.0189C18.8373 51.7845 43.3305 40.9301 43.3305 40.9301L48.0358 31.9009C48.0358 31.9009 38.4714 8.50404 59.8613 6.67006Z" fill="#52668A"/>
<path d="M71.5042 0L79.4407 10.1355L68.7238 15.319L65.9354 9.73176L72.1 6.66997L71.5042 0Z" fill="#FFFAEF"/>
<path d="M76.2932 7.4917L67.6586 11.7196L69.0594 14.7654L78.0081 9.76325L76.2932 7.4917Z" fill="#DBECCC"/>
<path d="M70.8576 15.074C70.9138 15.074 70.9716 15.0597 71.0234 15.029C71.1808 14.9365 71.2326 14.7353 71.1413 14.5786L67.7504 8.80455C67.6579 8.64794 67.4562 8.59653 67.3 8.68739C67.143 8.77945 67.0908 8.9811 67.1829 9.13812L70.573 14.9118C70.6348 15.0158 70.7448 15.074 70.8576 15.074Z" fill="#D0C4B3"/>
<path d="M73.5494 13.314C73.6179 13.314 73.6872 13.2925 73.7462 13.2482C73.8917 13.139 73.9216 12.9326 73.8124 12.7875L69.9667 7.66302C69.8571 7.51756 69.6511 7.48808 69.5056 7.59687C69.361 7.70607 69.3311 7.9125 69.4407 8.05756L73.2863 13.1825C73.3505 13.269 73.4489 13.314 73.5494 13.314Z" fill="#D0C4B3"/>
<path d="M79.004 10.6756C79.1216 10.6756 79.2351 10.6127 79.2945 10.5011C79.3802 10.3409 79.3188 10.1416 79.159 10.0563L72.2547 6.37923C72.0949 6.29355 71.8961 6.35412 71.8096 6.51472C71.7243 6.67572 71.7853 6.87497 71.9455 6.96026L78.8494 10.637C78.8988 10.6625 78.9514 10.6756 79.004 10.6756Z" fill="#D0C4B3"/>
<path d="M76.1341 5.54056C76.2931 5.54056 76.4334 5.42499 76.4585 5.26319C76.4872 5.08386 76.3652 4.9149 76.1855 4.8866L71.8432 4.19597C71.6647 4.16768 71.4945 4.28962 71.4666 4.46936C71.438 4.64829 71.5603 4.81686 71.7396 4.84556L76.0823 5.53578C76.0994 5.53897 76.1169 5.54056 76.1341 5.54056Z" fill="#D0C4B3"/>
<path d="M68.8146 8.23938L73.3066 19.4839L49.0254 37.9352C49.0254 37.9352 34.0241 11.7603 54.4253 7.36902C66.0517 4.86634 68.8146 8.23938 68.8146 8.23938Z" fill="#ACDBCF"/>
<path d="M42.0229 39.8277L49.6832 28.6943L54.0474 34.8387L47.3567 44.3245L42.0229 39.8277Z" fill="#ACDBCF"/>
<path d="M55.867 38.9537C55.867 38.9537 54.9169 47.2867 46.3054 46.4829L47.8166 51.6955C47.8166 51.6955 55.9475 46.8866 59.8231 50.519C59.8231 50.519 60.7468 42.809 65.5103 45.3049C65.5103 45.3049 67.3447 38.2053 55.867 38.9537Z" fill="#ACDBCF"/>
<path d="M51.1107 46.9707C51.1107 46.9707 58.1568 44.9916 57.3211 40.6749C57.3211 40.6749 63.3208 38.134 65.5103 45.3045C65.5103 45.3045 61.4928 44.0077 59.823 50.5187C59.823 50.5187 54.7543 48.122 51.2203 50.3696L51.1107 46.9707Z" fill="#FFFAEF"/>
<path d="M59.5023 50.5759C59.5266 50.5759 59.5513 50.5731 59.5764 50.5675C59.753 50.5265 59.8638 50.3495 59.8227 50.173L57.7971 41.373C59.113 41.6591 62.82 42.6534 65.3366 45.1995C65.4645 45.3286 65.6726 45.3298 65.8021 45.2023C65.9308 45.0744 65.932 44.8664 65.8049 44.7368C62.5593 41.4531 57.6213 40.6604 57.4125 40.6281C57.3049 40.6122 57.1961 40.6493 57.122 40.7294C57.0471 40.8095 57.0176 40.9207 57.0423 41.0267L59.1815 50.3204C59.217 50.4727 59.3525 50.5759 59.5023 50.5759Z" fill="#D0C4B3"/>
<path d="M51.4693 50.3651C51.5239 50.3651 51.5789 50.3515 51.6299 50.3232C51.8933 50.1762 58.0854 46.6473 57.6909 40.9302C57.6786 40.7493 57.5195 40.6102 57.3398 40.6246C57.1585 40.6369 57.0218 40.7939 57.0346 40.9752C57.3996 46.2739 51.3688 49.7147 51.3083 49.749C51.1497 49.8379 51.0931 50.0387 51.1815 50.1969C51.2425 50.3045 51.3541 50.3651 51.4693 50.3651Z" fill="#D0C4B3"/>
<path d="M32.6397 30.5468C32.6397 30.5468 28.7876 37.9975 36.3877 42.1257L32.2292 45.6135C32.2292 45.6135 28.1544 37.0905 22.9123 37.9497C22.9123 37.9497 26.4395 31.0314 21.0934 30.4524C21.0934 30.4524 23.524 23.5329 32.6397 30.5468Z" fill="#ACDBCF"/>
<path d="M32.126 39.8551C32.126 39.8551 27.3757 34.2866 30.4737 31.1666C30.4737 31.1666 26.9058 25.7149 21.0938 30.4517C21.0938 30.4517 25.1527 31.6122 22.9127 37.949C22.9127 37.949 28.4576 38.7819 30.141 42.616L32.126 39.8551Z" fill="#FFFAEF"/>
<path d="M23.3311 38.2311C23.4116 38.2311 23.4925 38.2012 23.5559 38.1419L30.5088 31.6142C30.5885 31.5392 30.6256 31.4301 30.6088 31.3225C30.5913 31.2153 30.5216 31.1232 30.4227 31.0766C30.2318 30.9869 25.6888 28.8955 21.1652 29.8153C20.9871 29.8515 20.8719 30.0253 20.9078 30.2034C20.9444 30.3819 21.1182 30.4951 21.2963 30.4605C24.8092 29.7467 28.4389 30.9853 29.6895 31.4819L23.1052 37.6624C22.9733 37.7872 22.9665 37.9952 23.0908 38.1279C23.1554 38.1961 23.2431 38.2311 23.3311 38.2311Z" fill="#D0C4B3"/>
<path d="M30.1202 42.5306C30.1704 42.5306 30.2214 42.5194 30.2689 42.4943C30.4306 42.4122 30.4956 42.2142 30.4131 42.0524C30.3812 41.9902 27.2891 35.773 30.5438 31.577C30.655 31.4331 30.6291 31.2263 30.4852 31.1147C30.3418 31.0039 30.1353 31.0294 30.0238 31.1733C26.5112 35.7016 29.6894 42.0811 29.8265 42.3505C29.8847 42.4644 30.0002 42.5306 30.1202 42.5306Z" fill="#D0C4B3"/>
<path d="M51.2793 48.3936C51.2793 48.3936 59.3289 53.8286 64.3916 45.5996L64.2797 48.1633L66.9932 47.1239L66.2942 48.8443L68.6753 48.3454C68.6753 48.3454 64.0932 61.6096 49.1643 54.1733L51.2793 48.3936Z" fill="#ACDBCF"/>
<path d="M57.5411 56.7684C59.1125 56.7684 60.5902 56.4866 61.9679 55.9243C67.0753 53.8365 68.91 48.6713 68.9853 48.4529C69.024 48.3406 68.9997 48.2166 68.9216 48.1277C68.8427 48.0385 68.7231 47.9994 68.6067 48.0233L66.8314 48.396L67.2972 47.2478C67.3466 47.1259 67.3191 46.9876 67.2275 46.8931C67.1358 46.7999 66.9967 46.7692 66.8744 46.817L64.63 47.6766L64.7204 45.6139C64.7268 45.4645 64.6312 45.329 64.4877 45.2851C64.345 45.2409 64.1896 45.2995 64.1111 45.4274C62.6716 47.7675 60.848 49.1902 58.6925 49.6553C54.9803 50.4571 51.4977 48.1449 51.4626 48.121C51.3123 48.0194 51.1075 48.0588 51.0059 48.2099C50.9043 48.3605 50.9437 48.5653 51.0944 48.6669C51.2462 48.769 54.8488 51.1597 58.8311 50.2989C60.8468 49.8641 62.5856 48.6713 64.0115 46.7505L63.9501 48.1493C63.9457 48.2601 63.9967 48.3665 64.0868 48.431C64.1764 48.4956 64.2928 48.5115 64.3968 48.4713L66.4018 47.7029L65.9877 48.7215C65.9423 48.8343 65.9622 48.9634 66.0403 49.0567C66.118 49.1496 66.2416 49.1934 66.3603 49.1675L68.1325 48.7961C67.5116 50.1733 65.5848 53.7381 61.712 55.3178C58.2409 56.7341 54.0693 56.2499 49.3098 53.8791C49.148 53.7986 48.9499 53.8648 48.8686 54.027C48.7877 54.1896 48.8543 54.3872 49.0169 54.4677C52.0938 56 54.9456 56.7684 57.5411 56.7684Z" fill="#82B6A0"/>
<path d="M16.5366 47.8397C16.5366 47.8397 9.5307 51.3466 7.53852 48.3422C4.95374 44.4439 2.5491 34.6309 2.5491 34.6309C2.5491 34.6309 -1.4002 46.8832 0.929531 51.0577C6.63349 61.278 16.5362 62.054 16.5362 62.054V47.8397H16.5366Z" fill="#ACDBCF"/>
<path d="M11.158 53.21C11.158 53.21 24.3831 36.5094 41.3344 39.7175C60.2388 43.2946 32.3646 95.6237 11.158 53.21Z" fill="#ACDBCF"/>
<path d="M42.7646 42.7632C42.7646 42.7632 35.5005 36.3156 42.2135 29.3679L39.7582 30.1131L40.0914 27.2267L38.5982 28.3313L38.4898 25.9004C38.4898 25.9004 26.7798 33.634 37.6915 46.2482L42.7646 42.7632Z" fill="#ACDBCF"/>
<path d="M37.6921 46.5772C37.7682 46.5772 37.8452 46.5505 37.9069 46.4971C38.0448 46.3779 38.0596 46.1703 37.9412 46.0328C34.4602 42.009 32.955 38.0856 33.4671 34.3698C34.0385 30.2221 37.0107 27.4771 38.1891 26.5358L38.2696 28.3463C38.2748 28.4674 38.3469 28.5762 38.4565 28.6284C38.5661 28.6806 38.6964 28.6687 38.7944 28.5957L39.6779 27.9418L39.432 30.0754C39.4193 30.1854 39.4627 30.2946 39.548 30.3659C39.6333 30.4373 39.7485 30.46 39.8545 30.4281L41.1947 30.0212C39.6875 31.8799 38.9646 33.8597 39.0439 35.9205C39.2005 39.9941 42.4102 42.8877 42.5469 43.0093C42.6831 43.1292 42.8904 43.1177 43.0111 42.9822C43.1319 42.8459 43.1195 42.6386 42.984 42.5175C42.9525 42.49 39.8445 39.6805 39.7014 35.8898C39.619 33.6884 40.5439 31.5707 42.4512 29.5964C42.5556 29.4884 42.5736 29.3238 42.4954 29.1963C42.4169 29.068 42.2619 29.0086 42.1188 29.0532L40.1438 29.6526L40.4188 27.2647C40.4339 27.1344 40.3702 27.0072 40.257 26.9415C40.1438 26.8765 40.0019 26.8837 39.8963 26.9626L38.9004 27.6995L38.8199 25.8866C38.8144 25.7683 38.7458 25.6618 38.6406 25.608C38.5354 25.5538 38.4087 25.5606 38.3098 25.6268C38.117 25.7539 33.5695 28.8145 32.8159 34.281C32.2767 38.1916 33.8341 42.2907 37.4439 46.4636C37.508 46.5385 37.5997 46.5772 37.6921 46.5772Z" fill="#82B6A0"/>
<path d="M56.0794 31.8278C56.1017 31.8278 56.1236 31.8258 56.1468 31.8206L62.6832 30.4652C62.8617 30.4286 62.9753 30.2544 62.9391 30.0763C62.9028 29.8981 62.7255 29.7834 62.5501 29.8204L56.0129 31.1762C55.8347 31.2129 55.7207 31.3874 55.7574 31.5655C55.7901 31.721 55.9272 31.8278 56.0794 31.8278Z" fill="#D0C4B3"/>
<path d="M39.0658 7.36914L34.8666 19.537L46.687 20.9446L47.502 14.7528L40.6766 13.8677L39.0658 7.36914Z" fill="#FFFAEF"/>
<path d="M36.9809 16.0127L46.521 17.1943L46.1902 20.5311L36.099 18.7178L36.9809 16.0127Z" fill="#DBECCC"/>
<path d="M44.4837 21.4256C44.6368 21.4256 44.7738 21.3188 44.8061 21.1618L46.1292 14.5982C46.1651 14.4201 46.0499 14.2464 45.8714 14.2101C45.6932 14.1762 45.5195 14.2894 45.4832 14.4675L44.1605 21.0311C44.1243 21.2092 44.2394 21.383 44.418 21.4192C44.4399 21.4232 44.4618 21.4256 44.4837 21.4256Z" fill="#D0C4B3"/>
<path d="M41.3644 20.6399C41.5038 20.6399 41.6326 20.551 41.6776 20.4119L43.6431 14.313C43.6993 14.1401 43.6036 13.9551 43.4311 13.899C43.2581 13.844 43.0728 13.9384 43.017 14.111L41.0511 20.2095C40.9957 20.3828 41.0906 20.5681 41.2639 20.6239C41.2974 20.6347 41.3313 20.6399 41.3644 20.6399Z" fill="#D0C4B3"/>
<path d="M35.3475 19.9241C35.436 19.9241 35.5237 19.8886 35.5886 19.8184L40.9168 14.0922C41.0407 13.9591 41.0328 13.7514 40.9001 13.6271C40.7673 13.5036 40.5589 13.5107 40.435 13.6442L35.1068 19.3705C34.9829 19.5036 34.9909 19.712 35.1232 19.8356C35.1869 19.8946 35.2674 19.9241 35.3475 19.9241Z" fill="#D0C4B3"/>
<path d="M36.3878 14.1332C36.44 14.1332 36.4934 14.1205 36.5428 14.0942L40.4227 12.0259C40.5826 11.9406 40.6435 11.7413 40.5579 11.5807C40.4726 11.4205 40.2741 11.3592 40.1131 11.4452L36.2331 13.5135C36.0729 13.5988 36.0124 13.7981 36.0977 13.9587C36.1566 14.0703 36.2706 14.1332 36.3878 14.1332Z" fill="#D0C4B3"/>
<path d="M49.0246 37.9349L80.7261 32.6234C80.7261 32.6234 83.6286 17.7317 66.5904 18.0696C49.9085 18.4008 49.0246 37.9349 49.0246 37.9349Z" fill="#ACDBCF"/>
<path d="M64.3887 25.2744C64.407 25.2744 64.4257 25.2724 64.4453 25.2692C64.6242 25.2385 64.7442 25.0679 64.7135 24.889L64.2572 22.2512C64.2257 22.0723 64.0567 21.9535 63.8766 21.983C63.6973 22.0137 63.5773 22.1843 63.608 22.3632L64.0647 25.001C64.0926 25.1608 64.2313 25.2744 64.3887 25.2744Z" fill="#52668A"/>
<path d="M66.5377 23.9953C66.6018 23.9953 66.6672 23.9761 66.7242 23.9371C66.8736 23.8339 66.9119 23.629 66.8087 23.4796L65.7115 21.8875C65.6083 21.7373 65.4039 21.7006 65.2544 21.803C65.1046 21.9058 65.0663 22.1111 65.17 22.2609L66.2667 23.8522C66.33 23.9455 66.4328 23.9953 66.5377 23.9953Z" fill="#52668A"/>
<path d="M58.1578 27.2943C58.2949 27.2943 58.4225 27.2078 58.4695 27.0711C58.4874 27.0189 60.2939 21.8514 64.0332 21.0089C66.3183 20.4944 68.8839 21.6788 71.6632 24.529C71.7895 24.6593 71.9983 24.6617 72.1282 24.5354C72.2581 24.4086 72.2609 24.2002 72.1346 24.0699C69.184 21.0432 66.4091 19.7986 63.8865 20.3673C59.7882 21.2926 57.9239 26.6324 57.8466 26.8587C57.7884 27.0305 57.8797 27.2174 58.0518 27.2764C58.0869 27.2883 58.1228 27.2943 58.1578 27.2943Z" fill="#82B6A0"/>
<path d="M53.4184 20.675C53.6089 21.8127 54.6861 22.5811 55.8246 22.3902C56.9624 22.1997 57.7303 21.1229 57.5398 19.9843C57.349 18.8466 56.2722 18.0782 55.134 18.2687C53.9954 18.4596 53.2275 19.5364 53.4184 20.675Z" fill="#52668A"/>
<path d="M66.733 17.9308C66.9238 19.069 68.001 19.8369 69.1392 19.6465C70.277 19.456 71.0453 18.3784 70.8548 17.241C70.6639 16.1021 69.5867 15.3341 68.449 15.5246C67.31 15.7151 66.5421 16.7923 66.733 17.9308Z" fill="#52668A"/>
<path d="M52.2631 25.6193C52.4273 26.6013 53.4248 27.2524 54.4904 27.0735C55.5561 26.8954 56.2861 25.9541 56.122 24.9725C55.9574 23.991 54.9603 23.3394 53.8947 23.5183C52.829 23.6969 52.0989 24.6374 52.2631 25.6193Z" fill="#D57661"/>
<path d="M71.8022 22.3454C71.9664 23.3273 72.9639 23.9785 74.0291 23.8004C75.0947 23.6214 75.8252 22.6805 75.661 21.6994C75.4964 20.7174 74.499 20.0663 73.4337 20.2448C72.3685 20.4233 71.6376 21.3634 71.8022 22.3454Z" fill="#D57661"/>
<path d="M58.2611 17.5607C58.3778 17.5607 58.491 17.4985 58.5508 17.3873C58.6373 17.2279 58.5771 17.0283 58.4173 16.9422L55.0546 15.1273C54.8952 15.0412 54.6951 15.1006 54.6087 15.2612C54.5222 15.421 54.5824 15.6203 54.7422 15.7064L58.1049 17.5216C58.1543 17.5479 58.2077 17.5607 58.2611 17.5607Z" fill="#82B6A0"/>
<path d="M66.051 15.5989C66.1494 15.5989 66.2475 15.5546 66.312 15.4709L68.3417 12.8399C68.4524 12.6965 68.4261 12.4892 68.2823 12.3784C68.1388 12.2676 67.932 12.2944 67.8212 12.4378L65.7912 15.0696C65.6804 15.2123 65.7071 15.4199 65.8509 15.5307C65.9099 15.5765 65.9809 15.5989 66.051 15.5989Z" fill="#82B6A0"/>
<path d="M65.02 32.2298C65.0332 32.2298 65.046 32.2294 65.0599 32.2275L72.2973 31.3579C72.4388 31.3415 72.5532 31.2351 72.5807 31.0957C72.6082 30.9558 72.5428 30.8143 72.4189 30.7446L68.641 28.6297L70.8858 26.5833C70.9799 26.4968 71.0161 26.3641 70.9787 26.2421C70.9404 26.1202 70.8356 26.0313 70.7093 26.0138L67.5124 25.5746C67.3318 25.5511 67.1665 25.6758 67.1417 25.8564C67.1166 26.0361 67.2426 26.2019 67.4227 26.227L69.923 26.5701L67.8603 28.4515C67.7818 28.5228 67.7427 28.6265 67.7547 28.7317C67.7666 28.8369 67.8288 28.9297 67.9208 28.9811L71.2154 30.8255L64.9818 31.5739C64.8013 31.5958 64.6721 31.76 64.6937 31.9401C64.714 32.1071 64.8555 32.2298 65.02 32.2298Z" fill="#82B6A0"/>
<path d="M71.6262 28.0001L82.3845 20.9443L80.914 23.6658L87.3572 22.87L84.2854 25.2961L91.8911 28.0001L84.8705 30.8208L87.7956 32.734L72.6878 30.1429L71.6262 28.0001Z" fill="#F05757"/>
<path d="M73.9756 28.0002L78.663 24.9448L77.577 27.1032L81.3506 26.9657L78.72 28.2513L82.6079 29.5094H78.492L80.9142 30.8209L73.9756 29.8526V28.0002Z" fill="#FAB217"/>
<path d="M50.1638 35.6328L45.8033 43.1177C45.8033 43.1177 42.4019 64.9285 18.8369 62.0533C0.298706 59.7913 0.745842 41.9561 0.745842 41.9561C0.745842 41.9561 -1.82977 51.7652 2.59097 57.3241C7.35205 63.311 18.328 65.6148 18.328 65.6148C18.328 65.6148 31.3065 77.1227 43.8462 69.0058C54.6834 61.9899 51.5112 44.6337 51.5112 44.6337L55.0771 36.9212L50.1638 35.6328Z" fill="#FFFAEF"/>
<path d="M51.1107 37.5854L48.0353 45.2967C48.0353 45.2967 49.4772 71.7136 23.297 67.1418L22.565 68.533C22.565 68.533 53.0837 80.9599 51.1107 46.2484L54.0474 37.9353L51.1107 37.5854Z" fill="#DBECCC"/>
<path d="M33.1179 46.9155C33.1179 46.9155 41.1332 63.5886 23.6623 64.0274L20.461 70.6093L19.5249 60.7381L33.1179 46.9155Z" fill="#ACDBCF"/>
<path d="M20.4617 70.9378C20.5853 70.9378 20.7016 70.8677 20.757 70.7529L23.8714 64.3508C28.8624 64.1878 32.2682 62.6746 33.9953 59.8507C37.1536 54.6848 33.5689 47.093 33.4143 46.7726C33.3362 46.6096 33.1401 46.5403 32.9755 46.6188C32.8113 46.6977 32.7424 46.8942 32.8209 47.0579C32.8572 47.1333 36.4048 54.6501 33.4322 59.5092C31.8059 62.1665 28.5165 63.576 23.6542 63.698C23.5311 63.7012 23.4203 63.7721 23.3665 63.8829L20.6777 69.4103L19.8524 60.7063C19.8353 60.5254 19.6719 60.3915 19.4937 60.4098C19.3132 60.4266 19.1801 60.5872 19.1972 60.7681L20.1337 70.6394C20.1473 70.7856 20.2577 70.906 20.4023 70.9319C20.4219 70.9363 20.4418 70.9378 20.4617 70.9378Z" fill="#82B6A0"/>
<path d="M53.9743 39.6372C54.1182 39.6372 54.2505 39.5423 54.2912 39.3965C54.3398 39.2211 54.237 39.0402 54.062 38.9912L49.1132 37.6183C48.9375 37.5689 48.7566 37.6725 48.7079 37.8474C48.6597 38.022 48.7622 38.2033 48.9375 38.2527L53.8863 39.6256C53.9158 39.6336 53.9452 39.6372 53.9743 39.6372Z" fill="#D0C4B3"/>
<path d="M51.8099 43.7498C51.9526 43.7498 52.0837 43.6566 52.1256 43.5127C52.1762 43.3381 52.0757 43.1556 51.9012 43.105L46.6125 41.5699C46.4375 41.5189 46.255 41.6193 46.2048 41.7943C46.1538 41.9688 46.2546 42.1514 46.4292 42.2024L51.7179 43.7374C51.7482 43.7462 51.7796 43.7498 51.8099 43.7498Z" fill="#D0C4B3"/>
<path d="M51.8102 48.6707C51.9621 48.6707 52.0988 48.5655 52.1318 48.4109C52.1697 48.2332 52.0569 48.0582 51.8788 48.0204L45.2144 46.5945C45.0375 46.5574 44.8617 46.6698 44.8238 46.8479C44.786 47.0249 44.8992 47.2002 45.0773 47.2381L51.7417 48.664C51.764 48.6687 51.7871 48.6707 51.8102 48.6707Z" fill="#D0C4B3"/>
<path d="M51.8099 53.8231C51.9394 53.8231 52.0629 53.7461 52.1143 53.6182C52.1837 53.45 52.1028 53.258 51.9338 53.1894L43.455 49.7315C43.286 49.6617 43.0947 49.7434 43.0262 49.9116C42.9572 50.0798 43.0381 50.2719 43.2067 50.3404L51.6855 53.7983C51.7262 53.8155 51.768 53.8231 51.8099 53.8231Z" fill="#D0C4B3"/>
<path d="M50.5772 60.1227C50.6848 60.1227 50.7896 60.0705 50.8525 59.9736C50.9522 59.8218 50.9091 59.6178 50.7573 59.5178L41.5448 53.493C41.3925 53.3937 41.1889 53.4364 41.0893 53.5886C40.9896 53.7409 41.0323 53.9445 41.1845 54.0441L50.397 60.0689C50.4528 60.1052 50.515 60.1227 50.5772 60.1227Z" fill="#D0C4B3"/>
<path d="M46.5212 67.1294C46.599 67.1294 46.6775 67.1019 46.74 67.0457C46.8759 66.9242 46.8875 66.7165 46.7663 66.581L38.148 56.9513C38.0265 56.8162 37.8192 56.8043 37.6834 56.9258C37.5479 57.0473 37.5363 57.255 37.6574 57.3905L46.2754 67.0198C46.3411 67.0923 46.4312 67.1294 46.5212 67.1294Z" fill="#D0C4B3"/>
<path d="M41.1848 70.0383C41.2513 70.0383 41.3187 70.0184 41.3769 69.9766C41.5243 69.8701 41.5578 69.6645 41.4518 69.5175L34.3151 59.6016C34.2087 59.4541 34.0027 59.4211 33.8561 59.5263C33.7086 59.6327 33.6751 59.8383 33.7811 59.9853L40.9178 69.9008C40.9815 69.9909 41.0824 70.0383 41.1848 70.0383Z" fill="#D0C4B3"/>
<path d="M34.9535 72.2153C34.9922 72.2153 35.0313 72.2085 35.0699 72.1938C35.2401 72.1296 35.3258 71.9399 35.2612 71.7698L31.7594 62.5015C31.6957 62.3305 31.5052 62.246 31.3354 62.3098C31.1657 62.3744 31.0796 62.5645 31.1441 62.7342L34.6459 72.0025C34.6949 72.134 34.8208 72.2153 34.9535 72.2153Z" fill="#D0C4B3"/>
<path d="M27.2384 70.9381C27.2503 70.9381 27.2623 70.9377 27.2742 70.9361C27.4548 70.917 27.5855 70.7547 27.5659 70.5738L26.9359 64.716C26.9168 64.5355 26.7546 64.4056 26.5736 64.4247C26.3927 64.4442 26.2624 64.6061 26.2819 64.7866L26.912 70.6444C26.9299 70.8133 27.0726 70.9381 27.2384 70.9381Z" fill="#D0C4B3"/>
<path d="M0.200016 47.6289C0.200016 47.6289 4.31271 61.8496 16.0498 64.153C16.0498 64.153 -0.40254 62.2572 0.200016 47.6289Z" fill="#DBECCC"/>
<path d="M16.0502 65.0803C16.2064 65.0803 16.3447 64.9691 16.373 64.8101L16.8599 62.1118C16.8922 61.9325 16.7735 61.7619 16.5949 61.7292C16.4164 61.6977 16.2446 61.8157 16.212 61.9946L15.7254 64.6926C15.6931 64.8711 15.8118 65.0429 15.9908 65.0752C16.0115 65.0787 16.0306 65.0803 16.0502 65.0803Z" fill="#D0C4B3"/>
<path d="M11.1582 63.2169C11.2491 63.2169 11.3391 63.179 11.4041 63.1065L13.3588 60.9043C13.4796 60.7684 13.4672 60.5608 13.3313 60.44C13.1954 60.3193 12.9874 60.3316 12.8667 60.4671L10.9119 62.6689C10.7912 62.8056 10.8035 63.0129 10.939 63.134C11.0024 63.189 11.0801 63.2169 11.1582 63.2169Z" fill="#D0C4B3"/>
<path d="M6.77943 61.0148C6.83602 61.0148 6.89222 61.0008 6.94403 60.971L9.85079 59.2852C10.0082 59.194 10.0616 58.9927 9.97115 58.8361C9.87949 58.6779 9.67784 58.6257 9.52122 58.7161L6.61405 60.4015C6.45664 60.4927 6.40363 60.694 6.49449 60.8506C6.55546 60.9566 6.66585 61.0148 6.77943 61.0148Z" fill="#D0C4B3"/>
<path d="M4.38969 59.0916C4.46461 59.0916 4.53994 59.0661 4.60211 59.0135L6.99121 56.989C7.1295 56.8707 7.14703 56.6638 7.02947 56.5247C6.91151 56.3865 6.70467 56.3693 6.56599 56.4865L4.17649 58.5113C4.03781 58.6293 4.02067 58.8365 4.13783 58.9756C4.20359 59.0517 4.29604 59.0916 4.38969 59.0916Z" fill="#D0C4B3"/>
<path d="M1.34594 55.6242C1.42605 55.6242 1.50655 55.5951 1.57032 55.5366L4.04032 53.2407C4.17342 53.1168 4.18139 52.9087 4.05745 52.7752C3.93352 52.6425 3.72509 52.6346 3.59199 52.7585L1.12158 55.0544C0.988878 55.1779 0.980512 55.3859 1.10485 55.5194C1.16941 55.5892 1.25787 55.6242 1.34594 55.6242Z" fill="#D0C4B3"/>
<path d="M0.390832 51.3857C0.43706 51.3857 0.484882 51.3762 0.529914 51.355L2.72016 50.3344C2.88475 50.2575 2.95648 50.0619 2.87877 49.8965C2.80306 49.7323 2.60698 49.6601 2.442 49.7379L0.25175 50.7585C0.0863662 50.835 0.0154326 51.0306 0.0923464 51.196C0.148139 51.3156 0.266894 51.3857 0.390832 51.3857Z" fill="#D0C4B3"/>
<path d="M27.5494 57.6823C27.9977 58.306 28.8665 58.4494 29.4909 58.0019C30.115 57.5536 30.2585 56.6848 29.8102 56.0603C29.3626 55.4362 28.4931 55.2928 27.869 55.7411C27.2445 56.1886 27.1019 57.0582 27.5494 57.6823Z" fill="#82B6A0"/>
<path d="M30.4453 59.5221C30.7147 59.8979 31.238 59.9836 31.6134 59.7142C31.9888 59.4452 32.0749 58.9227 31.8055 58.5469C31.5353 58.1715 31.0128 58.0851 30.6374 58.3549C30.262 58.6239 30.1759 59.1471 30.4453 59.5221Z" fill="#82B6A0"/>
<path d="M30.9684 56.7538C31.2378 57.1292 31.761 57.2145 32.1368 56.9455C32.5114 56.6761 32.5979 56.1537 32.3285 55.7775C32.0587 55.4021 31.5359 55.3164 31.1605 55.5858C30.7855 55.8552 30.699 56.3776 30.9684 56.7538Z" fill="#82B6A0"/>
<path d="M25.1143 58.5043C25.447 58.9682 26.0934 59.0742 26.5573 58.741C27.0212 58.4087 27.128 57.7627 26.7948 57.2984C26.4616 56.8349 25.816 56.7281 25.3518 57.0609C24.8883 57.3936 24.7815 58.04 25.1143 58.5043Z" fill="#82B6A0"/>
<path d="M27.5556 60.4921C27.8254 60.8675 28.3483 60.9536 28.7233 60.6838C29.0987 60.4148 29.1847 59.8923 28.9153 59.5161C28.6455 59.1403 28.1231 59.0546 27.7473 59.324C27.3727 59.5938 27.2866 60.1159 27.5556 60.4921Z" fill="#82B6A0"/>
<path d="M29.5123 54.7232C29.6809 54.9592 30.0097 55.013 30.2456 54.844C30.4811 54.6746 30.5353 54.3467 30.3659 54.1103C30.197 53.8744 29.8682 53.8206 29.6327 53.9896C29.3964 54.1589 29.3429 54.4873 29.5123 54.7232Z" fill="#82B6A0"/>
<path d="M26.2816 56.1785C26.4509 56.4144 26.7797 56.4678 27.0152 56.2988C27.2512 56.1299 27.305 55.8019 27.1356 55.5659C26.9662 55.3296 26.6382 55.2754 26.4023 55.4448C26.1668 55.6142 26.1126 55.943 26.2816 56.1785Z" fill="#82B6A0"/>
<path d="M25.5104 60.8579C25.6797 61.0939 26.0081 61.148 26.244 60.9787C26.4799 60.8093 26.5333 60.4809 26.364 60.245C26.1954 60.0091 25.8674 59.9553 25.6315 60.1247C25.3952 60.294 25.3414 60.6224 25.5104 60.8579Z" fill="#82B6A0"/>
<path d="M27.8968 43.4788C28.1845 44.191 28.9951 44.5357 29.7072 44.2479C30.4198 43.9602 30.7641 43.1496 30.4768 42.4375C30.189 41.7249 29.3784 41.3806 28.6659 41.6676C27.9529 41.9557 27.609 42.7667 27.8968 43.4788Z" fill="#82B6A0"/>
<path d="M30.2756 45.9507C30.449 46.3795 30.9363 46.5872 31.3648 46.4138C31.7936 46.2409 32.0008 45.7535 31.8274 45.3243C31.6545 44.8963 31.1671 44.689 30.7383 44.8616C30.3095 45.0346 30.1023 45.5227 30.2756 45.9507Z" fill="#82B6A0"/>
<path d="M31.4375 43.3849C31.6109 43.8137 32.0987 44.0205 32.5275 43.8471C32.9555 43.6742 33.1627 43.1868 32.9897 42.7584C32.8164 42.33 32.3286 42.1228 31.9006 42.2961C31.4718 42.4691 31.2642 42.9561 31.4375 43.3849Z" fill="#82B6A0"/>
<path d="M25.3363 43.702C25.5503 44.2321 26.1533 44.4879 26.6825 44.2739C27.2121 44.0599 27.4684 43.4574 27.2548 42.9281C27.0408 42.3989 26.4378 42.1423 25.9086 42.3563C25.3785 42.5703 25.1227 43.1728 25.3363 43.702Z" fill="#82B6A0"/>
<path d="M27.2378 46.2105C27.4116 46.6397 27.899 46.847 28.3278 46.6736C28.7558 46.5003 28.963 46.0129 28.79 45.5841C28.6167 45.1557 28.1289 44.9484 27.7009 45.1218C27.2721 45.2944 27.0653 45.7821 27.2378 46.2105Z" fill="#82B6A0"/>
<path d="M30.5021 41.0675C30.6105 41.3365 30.9173 41.4668 31.1863 41.3584C31.4553 41.2496 31.5852 40.9431 31.4764 40.6737C31.368 40.4051 31.0616 40.2748 30.7922 40.3836C30.5236 40.492 30.3933 40.7989 30.5021 41.0675Z" fill="#82B6A0"/>
<path d="M27.02 41.7181C27.1288 41.9875 27.4352 42.1178 27.7046 42.009C27.9736 41.9002 28.1035 41.5937 27.9947 41.3247C27.8867 41.0553 27.5799 40.925 27.3109 41.0342C27.0415 41.143 26.9116 41.4491 27.02 41.7181Z" fill="#82B6A0"/>
<path d="M25.1644 46.082C25.2732 46.3514 25.5789 46.4813 25.8487 46.3729C26.1177 46.2641 26.2472 45.9577 26.1392 45.6883C26.03 45.4193 25.7243 45.2898 25.4553 45.3982C25.1859 45.5074 25.0556 45.8138 25.1644 46.082Z" fill="#82B6A0"/>
<path d="M61.0296 10.5339C60.7586 9.81496 59.956 9.45192 59.2371 9.72331C58.5182 9.9947 58.1551 10.7969 58.4265 11.5162C58.6979 12.2352 59.4997 12.5982 60.219 12.3268C60.938 12.0558 61.301 11.2528 61.0296 10.5339Z" fill="#82B6A0"/>
<path d="M58.7086 8.00747C58.5452 7.57508 58.0618 7.35629 57.6298 7.51929C57.1974 7.68268 56.979 8.16528 57.1424 8.59807C57.305 9.03046 57.788 9.24844 58.2208 9.08545C58.6528 8.92246 58.872 8.43986 58.7086 8.00747Z" fill="#82B6A0"/>
<path d="M57.4876 10.5461C57.3246 10.1141 56.8416 9.89536 56.4092 10.0584C55.9764 10.2217 55.7584 10.7043 55.921 11.1367C56.0844 11.5691 56.567 11.7871 56.9994 11.6245C57.4318 11.4615 57.6505 10.9789 57.4876 10.5461Z" fill="#82B6A0"/>
<path d="M63.595 10.3701C63.3929 9.8357 62.7959 9.5659 62.2619 9.76755C61.7279 9.9692 61.4573 10.5654 61.659 11.1002C61.861 11.6342 62.4576 11.904 62.992 11.7028C63.5264 11.5015 63.7962 10.9049 63.595 10.3701Z" fill="#82B6A0"/>
<path d="M61.7515 7.81841C61.5881 7.38522 61.1055 7.16724 60.6731 7.33063C60.2407 7.49362 60.0219 7.97662 60.1853 8.40901C60.3483 8.841 60.8313 9.05978 61.2637 8.89639C61.6961 8.7334 61.9149 8.2508 61.7515 7.81841Z" fill="#82B6A0"/>
<path d="M58.3696 12.8847C58.2672 12.6129 57.9635 12.4762 57.6921 12.5782C57.4207 12.6806 57.284 12.9843 57.386 13.2553C57.4885 13.5267 57.7917 13.6634 58.0627 13.5614C58.3345 13.4593 58.4716 13.1557 58.3696 12.8847Z" fill="#82B6A0"/>
<path d="M61.8655 12.3145C61.7631 12.0431 61.4594 11.906 61.188 12.0077C60.9167 12.1105 60.7804 12.4133 60.882 12.6851C60.9848 12.9573 61.2877 13.094 61.5587 12.9916C61.8304 12.8892 61.9679 12.5863 61.8655 12.3145Z" fill="#82B6A0"/>
<path d="M63.8215 7.99431C63.7187 7.72212 63.4162 7.58503 63.1448 7.68705C62.873 7.79027 62.7364 8.09275 62.8388 8.36494C62.9416 8.63633 63.2441 8.77302 63.5155 8.6706C63.7868 8.56938 63.9239 8.2657 63.8215 7.99431Z" fill="#82B6A0"/>
<path d="M13.4174 52.7087C13.5421 52.7087 13.6617 52.6365 13.7175 52.5154C14.3463 51.1286 15.1242 49.5723 15.565 48.8738C15.5825 49.5321 15.4893 50.7607 15.3578 51.8268C15.3354 52.0073 15.4638 52.1719 15.6443 52.1942C15.8248 52.2141 15.9886 52.0878 16.0113 51.9073C16.4497 48.3449 16.0946 48.0747 15.9611 47.9727C15.8455 47.8854 15.6953 47.8655 15.559 47.9217C15.0692 48.1238 13.961 50.3829 13.1177 52.2436C13.0428 52.4086 13.1161 52.6039 13.2815 52.6788C13.3253 52.6991 13.3716 52.7087 13.4174 52.7087Z" fill="#82B6A0"/>
</svg>
