<svg width="46" height="71" viewBox="0 0 46 71" fill="none" xmlns="http://www.w3.org/2000/svg">
<path d="M19.8084 58.3822C18.0542 59.0905 6.62498 60.7497 4.87099 55.258C3.93109 52.319 5.11372 49.3359 6.03594 46.4389C6.03813 46.4367 6.03813 46.4346 6.03813 46.4324C6.36911 45.3909 6.56551 44.5768 6.58758 44.1488C6.70886 41.8144 5.44251 39.5507 4.38555 38.6239C4.35253 38.5953 4.31716 38.5643 4.28179 38.5357C4.01481 38.3216 4.19353 37.8892 4.53328 37.92C7.98194 38.2421 12.2168 39.7646 13.7229 43.436C13.9016 43.8715 14.0253 44.4906 14.0605 45.243C14.2193 48.471 13.4448 52.3719 13.6589 53.6826C13.9215 55.2954 15.124 56.8356 17.6767 56.6855C20.232 56.5356 21.5623 57.6741 19.8084 58.3822Z" fill="#FF8D29"/>
<path d="M14.0606 45.2432C13.7362 44.4864 13.1913 43.8244 12.5073 43.3677C12.227 43.1803 11.8652 43.0258 11.563 43.1735C11.3578 43.2749 11.2364 43.4979 11.199 43.723C11.1636 43.948 11.157 44.118 11.1924 44.343C10.8944 43.5641 10.2768 42.9133 9.51323 42.5779C9.29477 42.4831 9.06097 42.4102 8.82263 42.4169C8.58429 42.4235 8.33937 42.5183 8.19164 42.7059C8.04375 42.8912 8.00635 43.1429 7.99086 43.381C7.93577 44.1665 8.02842 44.9322 8.2666 45.6779C8.12106 45.3513 7.73264 45.1483 7.36645 45.1748C6.95377 45.2034 6.58539 45.4771 6.34924 45.8191C6.23014 45.9934 6.13077 46.2184 6.03813 46.4324C6.36911 45.3909 6.56551 44.5768 6.58758 44.1488C6.59634 43.9745 6.59853 43.8001 6.59196 43.6281C6.59196 43.5641 6.58977 43.5001 6.58319 43.4361V43.4184C6.44642 41.3532 5.33218 39.4535 4.38555 38.6239C4.35034 38.5931 4.31716 38.5621 4.28179 38.5357C4.01481 38.3216 4.19353 37.8892 4.53328 37.92C7.98194 38.2421 12.7478 40.0734 13.7229 43.436C13.8531 43.8884 14.0253 44.4907 14.0606 45.2432Z" fill="#FFDABA"/>
<path d="M6.03799 46.7082C6.00576 46.7082 5.97305 46.7025 5.94128 46.6906C5.80356 46.6392 5.73064 46.4889 5.77508 46.3487C6.09574 45.3398 6.29136 44.5326 6.31201 44.1343C6.32062 43.9611 6.32219 43.7941 6.31624 43.6384C6.31593 43.5731 6.31436 43.5188 6.30873 43.464C6.30779 43.4547 6.30716 43.4451 6.30716 43.4357C6.18025 41.5121 5.15271 39.6628 4.20357 38.8309L4.17618 38.8069C4.15631 38.7891 4.1369 38.7717 4.1164 38.7562C3.89449 38.5785 3.81985 38.2907 3.92329 38.0345C4.02736 37.7761 4.28135 37.6212 4.55834 37.645C7.77007 37.9451 12.9311 39.7143 13.988 43.3589C14.1193 43.8155 14.2992 44.4406 14.3362 45.2299C14.3425 45.3633 14.2525 45.4819 14.1225 45.5118C13.9916 45.5423 13.8597 45.4741 13.8071 45.3515C13.5034 44.6429 12.9873 44.0198 12.3539 43.5969C12.1917 43.4881 11.8888 43.3213 11.6841 43.4213C11.5801 43.4728 11.4981 43.6058 11.4708 43.7683C11.4378 43.9784 11.4363 44.1182 11.4646 44.2999C11.4865 44.4395 11.3995 44.5731 11.263 44.6091C11.1267 44.6468 10.9849 44.5733 10.9344 44.4414C10.6604 43.7249 10.1018 43.1376 9.40215 42.8299C9.1757 42.7318 8.99166 42.6872 8.83032 42.6925C8.65551 42.6971 8.4937 42.7677 8.40809 42.8763C8.30403 43.0066 8.27789 43.2135 8.26615 43.3986C8.21357 44.145 8.30231 44.8828 8.52938 45.5936C8.57398 45.7332 8.50183 45.8833 8.3649 45.9356C8.2275 45.9872 8.07429 45.9234 8.01467 45.79C7.92109 45.5802 7.64315 45.4287 7.38635 45.4498C7.09182 45.4703 6.78948 45.6667 6.57618 45.9756C6.46804 46.1338 6.36992 46.3601 6.2912 46.542C6.24613 46.6457 6.14488 46.7082 6.03799 46.7082ZM6.85865 43.4212C6.86522 43.4903 6.86757 43.559 6.86757 43.6281C6.87383 43.7892 6.87242 43.9727 6.86287 44.1626C6.85129 44.3886 6.79511 44.7118 6.69918 45.1126C6.90372 44.9894 7.12531 44.9147 7.34706 44.8994C7.50106 44.8886 7.6563 44.9083 7.80184 44.9543C7.70669 44.4309 7.67758 43.898 7.71529 43.3615C7.73267 43.0927 7.77711 42.7824 7.97555 42.5337C8.16177 42.2974 8.47601 42.1503 8.81482 42.1409C9.06161 42.1353 9.31826 42.1924 9.6228 42.3246C10.1701 42.565 10.6444 42.9482 10.9982 43.4238C11.0896 43.2002 11.2453 43.0227 11.4405 42.9262C11.6791 42.8097 12.0832 42.7522 12.6603 43.1382C13.0007 43.3656 13.3114 43.6437 13.581 43.9589C13.5391 43.795 13.4962 43.6461 13.4577 43.5123C12.4776 40.1331 7.56804 38.4807 4.50732 38.1949C4.46742 38.1904 4.44426 38.2177 4.43471 38.2412C4.41531 38.2894 4.44457 38.3129 4.45427 38.3204C4.47916 38.339 4.5103 38.3663 4.54191 38.3943L4.56632 38.4159C5.60153 39.3232 6.72062 41.3263 6.85818 43.4002C6.85849 43.4036 6.85865 43.4127 6.85865 43.4212Z" fill="#F5B782"/>
<path d="M13.6157 59.4577C11.5211 59.4577 9.29057 59.1892 7.53486 58.3776C6.03158 57.6828 5.04707 56.6626 4.60889 55.3451C3.67431 52.5388 5.00748 48.6119 5.64817 46.7246L5.77383 46.3517C5.7743 46.3506 5.77461 46.3495 5.77508 46.3484C6.09574 45.3395 6.29136 44.5326 6.31186 44.1343C6.32047 43.9611 6.32203 43.7941 6.31593 43.6384C6.31577 43.5731 6.31421 43.5188 6.30857 43.4641C6.30763 43.4547 6.30701 43.4451 6.30701 43.4357C6.18698 41.4274 5.13268 39.6415 4.20404 38.8315L4.17618 38.8069C4.15631 38.7891 4.1369 38.7717 4.1164 38.7562C3.8945 38.5785 3.81985 38.2907 3.92329 38.0345C4.02736 37.7761 4.28135 37.6212 4.55834 37.645C7.77007 37.9451 12.9311 39.7143 13.988 43.3589C14.1193 43.8155 14.2992 44.4406 14.3362 45.2299C14.4229 46.9927 14.232 48.9787 14.0785 50.5748C13.9499 51.9138 13.8386 53.0704 13.9312 53.6377C14.0445 54.3329 14.6486 56.5818 17.6606 56.41C19.3536 56.3092 20.7018 56.7656 20.8652 57.4922C20.9237 57.7527 20.8775 58.2476 19.9115 58.6377C19.1602 58.9413 16.5186 59.4577 13.6157 59.4577ZM6.29746 46.526L6.17054 46.9021C5.59778 48.5894 4.25631 52.5409 5.13221 55.1709C5.52047 56.338 6.40669 57.2484 7.76631 57.8768C11.7383 59.7127 18.501 58.6131 19.7046 58.1263C20.1714 57.938 20.3534 57.7332 20.3265 57.6136C20.2661 57.3444 19.4067 56.8609 17.6926 56.961C14.9308 57.1261 13.6582 55.3969 13.3865 53.7271C13.2823 53.0891 13.3912 51.9565 13.529 50.5224C13.6807 48.9442 13.8696 46.9805 13.7848 45.2567C13.7508 44.5312 13.5813 43.9423 13.4577 43.5123C12.4776 40.1331 7.56804 38.4807 4.50733 38.1949C4.46742 38.1904 4.44426 38.2177 4.43471 38.2412C4.41531 38.2894 4.44457 38.3129 4.45427 38.3204C4.47916 38.339 4.5103 38.3663 4.54191 38.3943L4.56632 38.4159C5.61311 39.3289 6.72751 41.2248 6.85818 43.4021C6.85849 43.4051 6.85865 43.4137 6.85865 43.4215C6.86522 43.4905 6.86757 43.5592 6.86757 43.6281C6.87383 43.7892 6.87242 43.9727 6.86287 44.1626C6.83971 44.6129 6.64003 45.4486 6.3009 46.516C6.29965 46.5193 6.29856 46.5224 6.29746 46.526Z" fill="#B3470E"/>
<path d="M6.07956 42.6679C7.21962 41.7513 9.40068 40.5264 10.8004 39.8877C14 38.4277 18.4493 38.1345 19.2687 39.81C20.7089 42.7544 12.0115 44.9131 9.82008 45.4228C10.5339 46.5966 12.9778 50.6559 13.1988 51.0592C13.6515 51.2182 11.2157 52.783 11.229 52.426C11.229 52.426 10.9908 52.6353 9.60302 51.2005C8.4229 50.0121 3.46908 44.7664 6.07956 42.6679Z" fill="#FF8D29"/>
<path d="M11.2732 52.7534C11.2608 52.7534 11.2494 52.7527 11.2387 52.7512C11.1956 52.7453 11.1556 52.7318 11.1201 52.7124C10.8367 52.6702 10.3439 52.3636 9.40479 51.3926C8.35127 50.3318 4.91638 46.6647 5.05848 44.1206C5.09667 43.4358 5.38211 42.8749 5.90652 42.4532C7.05065 41.5334 9.235 40.2989 10.6857 39.6367C14.0145 38.1183 18.5971 37.8093 19.5163 39.6887C19.7649 40.1968 19.768 40.7133 19.5256 41.2233C18.5304 43.3172 13.4483 44.8377 10.2525 45.6042C11.0829 46.9749 13.0539 50.2494 13.4042 50.8625C13.507 50.9461 13.5533 51.0791 13.5195 51.219C13.4024 51.704 11.7423 52.7531 11.2732 52.7534ZM11.0475 52.2187C11.0474 52.2187 11.047 52.219 11.047 52.219C11.0472 52.2189 11.0474 52.2187 11.0475 52.2187ZM11.0481 52.2181C11.0478 52.2181 11.0477 52.2184 11.0475 52.2184C11.0478 52.2184 11.048 52.2181 11.0481 52.2181ZM11.0488 52.2176C11.0486 52.2176 11.0483 52.2179 11.0481 52.2179C11.0483 52.2178 11.0486 52.2176 11.0488 52.2176ZM11.0591 52.209C11.0556 52.2117 11.0522 52.2145 11.0488 52.2176C11.0522 52.2146 11.0556 52.2117 11.0591 52.209ZM11.229 52.1505C11.2693 52.1505 11.3098 52.1594 11.3475 52.1771C11.3531 52.1797 11.3588 52.1827 11.3643 52.1857C11.7198 52.0696 12.676 51.4359 12.9331 51.1495C12.6067 50.5746 10.3192 46.7746 9.58445 45.5663C9.53844 45.4905 9.53155 45.3976 9.56582 45.3161C9.60009 45.2344 9.67146 45.1743 9.75768 45.1544C14.8891 43.9607 18.3545 42.4026 19.0275 40.9866C19.1965 40.6311 19.1943 40.2859 19.0209 39.9314C18.3428 38.545 14.1763 38.651 10.915 40.1391C9.49524 40.7868 7.36301 41.9906 6.25237 42.8834C5.8494 43.2075 5.63907 43.622 5.6095 44.1514C5.50652 45.9921 7.70605 48.8993 9.79884 51.0063C10.7294 51.9685 11.0887 52.1301 11.1713 52.1567C11.1904 52.1527 11.2096 52.1505 11.229 52.1505Z" fill="#B3470E"/>
<path d="M39.1241 42.6679C37.984 41.7513 35.803 40.5264 34.4033 39.8877C31.2038 38.4277 26.7545 38.1345 25.9349 39.81C24.4947 42.7544 33.1922 44.9131 35.3836 45.4228C34.6699 46.5966 32.2258 50.6559 32.0048 51.0592C31.5521 51.2182 33.9879 52.783 33.9746 52.426C33.9746 52.426 34.2128 52.6353 35.6006 51.2005C36.7809 50.0121 41.7347 44.7664 39.1241 42.6679Z" fill="#FF8D29"/>
<path d="M33.9308 52.7531C33.4617 52.7531 31.8015 51.7036 31.6841 51.2188C31.6503 51.0791 31.6966 50.9459 31.7995 50.8623C32.1499 50.2492 34.1209 46.9747 34.9511 45.604C31.7553 44.8375 26.6732 43.317 25.678 41.2231C25.4356 40.7131 25.4388 40.1966 25.6873 39.6885C26.6067 37.8099 31.1891 38.1178 34.5179 39.6365C35.9688 40.2988 38.153 41.5332 39.2971 42.453C39.8217 42.8746 40.107 43.4356 40.1451 44.1204C40.2874 46.6645 36.8525 50.3317 35.7965 51.395C34.8591 52.364 34.3669 52.6701 34.0833 52.7122C34.048 52.7316 34.0081 52.7451 33.9649 52.7511C33.9544 52.7523 33.943 52.7531 33.9308 52.7531ZM34.1564 52.2183C34.1566 52.2183 34.1569 52.2187 34.1569 52.2187C34.1567 52.2185 34.1564 52.2183 34.1564 52.2183ZM34.1552 52.2173C34.1553 52.2173 34.1556 52.2176 34.1558 52.2176C34.1555 52.2174 34.1553 52.2173 34.1552 52.2173ZM34.1453 52.2091C34.1488 52.2116 34.1519 52.2143 34.1552 52.2173C34.1517 52.2143 34.1486 52.2116 34.1453 52.2091ZM32.2708 51.1493C32.5279 51.4357 33.4841 52.0694 33.8398 52.1855C33.8452 52.1825 33.8508 52.1795 33.8566 52.1769C33.9124 52.1507 33.9743 52.144 34.0326 52.1564C34.1154 52.1296 34.4744 51.9683 35.4026 51.0086C37.4979 48.899 39.6974 45.9916 39.5944 44.1511C39.5649 43.6217 39.3545 43.2071 38.9516 42.883C37.8412 41.9905 35.7088 40.7868 34.2891 40.1387C31.0283 38.6505 26.8616 38.5436 26.1832 39.9311C26.0097 40.2857 26.0076 40.6307 26.1765 40.9863C26.8496 42.4023 30.315 43.9603 35.4464 45.154C35.5326 45.1739 35.6038 45.234 35.6383 45.3157C35.6725 45.3974 35.6657 45.4904 35.6196 45.5659C34.8849 46.7742 32.5974 50.5744 32.2708 51.1493Z" fill="#B3470E"/>
<path d="M31.8157 57.2261C31.6748 58.3497 29.9373 69.9598 29.9373 69.9598L27.3077 70.2875L25.0537 59.3796L31.8157 57.2261Z" fill="#FF8D29"/>
<path d="M27.3075 70.5632C27.1784 70.5632 27.0643 70.4727 27.0376 70.3431L24.7836 59.4352C24.755 59.297 24.8356 59.1593 24.9701 59.1164L31.7321 56.9631C31.8216 56.9347 31.9197 56.9538 31.992 57.0139C32.0645 57.074 32.1011 57.167 32.0894 57.2601C31.9496 58.3742 30.2811 69.5261 30.21 70.0006C30.1917 70.123 30.0942 70.218 29.9714 70.2333L27.3418 70.5608C27.3304 70.5624 27.3188 70.5632 27.3075 70.5632ZM25.3742 59.5668L27.5265 69.982L29.6955 69.7117C29.9105 68.2746 31.1758 59.8075 31.4834 57.621L25.3742 59.5668Z" fill="#B3470E"/>
<path d="M27.3076 70.2875C26.986 68.7315 32.6608 67.4786 34.0226 68.2744C35.3844 69.0703 34.68 70.0066 34.5392 70.2875C34.3982 70.5684 27.3076 70.2875 27.3076 70.2875Z" fill="#85380D"/>
<path d="M32.3656 70.6934C31.2679 70.6934 29.66 70.6571 27.297 70.5633C27.1704 70.5585 27.0634 70.4677 27.0377 70.3434C26.9744 70.0369 27.0418 69.5686 27.7224 69.0796C29.2744 67.9647 33.006 67.3602 34.162 68.0364C35.6369 68.8982 35.0288 69.978 34.8291 70.3328C34.812 70.363 34.797 70.3894 34.7861 70.4112C34.7233 70.5366 34.6444 70.6934 32.3656 70.6934ZM27.5977 70.0228C30.554 70.1355 33.7693 70.1868 34.3421 70.0732C34.3441 70.0694 34.3462 70.066 34.3484 70.0621C34.5509 69.7024 34.8897 69.1006 33.8837 68.5126C33 67.9962 29.4784 68.4976 28.0443 69.5278C27.8656 69.6561 27.6681 69.8325 27.5977 70.0228Z" fill="#612404"/>
<path d="M14.3784 57.2261C14.5193 58.3531 16.2568 69.9986 16.2568 69.9986L18.8864 70.3273L21.1404 59.386L14.3784 57.2261Z" fill="#FF8D29"/>
<path d="M18.8865 70.6031C18.8751 70.6031 18.8637 70.6024 18.8521 70.601L16.2224 70.2723C16.0995 70.257 16.002 70.1615 15.9837 70.0393C15.9128 69.5637 14.2443 58.3775 14.1047 57.2603C14.093 57.1669 14.1297 57.0739 14.2022 57.0138C14.2745 56.9534 14.3729 56.9346 14.4623 56.9634L21.2241 59.1234C21.3585 59.1662 21.4388 59.3036 21.4103 59.4418L19.1565 70.3833C19.1299 70.5122 19.0158 70.6031 18.8865 70.6031ZM16.4984 69.7507L18.6674 70.0221L20.8198 59.5731L14.7103 57.6218C15.018 59.8137 16.2839 68.311 16.4984 69.7507Z" fill="#B3470E"/>
<path d="M18.8866 70.3271C19.2082 68.7664 13.5334 67.5096 12.1716 68.3079C10.8098 69.1061 11.5141 70.0453 11.655 70.3271C11.796 70.6089 18.8866 70.3271 18.8866 70.3271Z" fill="#85380D"/>
<path d="M13.828 70.7331C11.549 70.7331 11.4706 70.576 11.4078 70.4505C11.3967 70.4288 11.3819 70.4023 11.3648 70.3718C11.1651 70.0162 10.5574 68.9339 12.0316 68.0699C13.1842 67.3942 16.912 67.9982 18.4657 69.1117C19.1516 69.6034 19.2199 70.0743 19.1563 70.3827C19.1307 70.507 19.0238 70.5978 18.897 70.6026C16.5343 70.6965 14.9258 70.7331 13.828 70.7331ZM11.8521 70.113C12.4252 70.2267 15.6402 70.1754 18.5967 70.0623C18.5263 69.8693 18.3255 69.6901 18.1443 69.5604C16.7083 68.531 13.1901 68.0302 12.3106 68.5458C11.3038 69.1361 11.643 69.7407 11.8457 70.1017C11.8481 70.1054 11.8502 70.1092 11.8521 70.113Z" fill="#612404"/>
<path d="M27.6344 36.916H17.6548C15.8111 40.7243 11.8784 51.159 11.8784 54.6626C11.8784 59.5372 16.8582 62.2029 22.6446 62.2029C28.4309 62.2029 33.4109 59.5371 33.4109 54.6626C33.4109 51.159 29.4782 40.7245 27.6344 36.916Z" fill="#FF8D29"/>
<path d="M33.4106 54.662C33.4106 59.5368 28.431 62.2046 22.6459 62.2046C22.3534 62.2046 22.0637 62.1991 21.7769 62.1825C27.184 61.9287 31.6726 59.2913 31.6726 54.662C31.6726 51.1584 27.7413 40.7247 25.8956 36.9175H27.6336C29.4793 40.7247 33.4106 51.1583 33.4106 54.662Z" fill="#FFA04D"/>
<path d="M27.5883 42.3753C27.0081 40.1331 25.7078 36.3081 24.9358 34.7134H20.353C19.7898 35.8768 18.9549 38.0669 18.2043 40.4101C17.8051 41.6564 17.0829 42.7974 17.0043 44.1038C16.9798 44.5119 17.0342 45.0036 17.3973 45.1921C17.7945 45.3982 18.256 45.0952 18.5995 44.8085C18.3752 45.8371 18.3909 46.9174 18.6447 47.9392C18.766 48.4276 18.9906 48.9565 19.4591 49.1406C19.8176 49.2814 20.2355 49.1742 20.5547 48.9586C20.874 48.7429 21.114 48.4316 21.3483 48.1259C21.2042 49.0108 21.36 49.942 21.7846 50.732C22.0123 51.1556 22.409 51.5812 22.886 51.5205C23.2394 51.4756 23.5015 51.1764 23.6981 50.8792C24.3732 49.8586 24.4999 48.7629 24.6938 47.5892C24.7816 47.9338 24.8758 48.2911 25.1038 48.564C25.332 48.837 25.7355 48.9982 26.0535 48.8387C26.2805 48.7248 26.4104 48.4814 26.5001 48.2439C26.7458 47.5933 26.7949 46.8702 26.6398 46.1922C26.6616 46.4564 26.9475 46.6467 27.2112 46.6201C27.4749 46.5935 27.6976 46.3946 27.8173 46.1581C27.9372 45.9218 27.9697 45.6515 27.9849 45.3869C28.0384 44.4504 27.8234 43.2836 27.5883 42.3753Z" fill="#FFDABA"/>
<path d="M22.7966 51.8021C22.324 51.8021 21.8622 51.4597 21.5414 50.8626C21.2218 50.2683 21.0453 49.6037 21.0222 48.9323C20.9259 49.0245 20.8222 49.1109 20.709 49.1874C20.2749 49.4805 19.7699 49.5589 19.3582 49.3972C18.8843 49.211 18.5633 48.7561 18.3768 48.0057C18.166 47.1566 18.1132 46.2661 18.2201 45.3965C17.9391 45.5323 17.5981 45.6071 17.2702 45.4372C16.9948 45.2941 16.6776 44.9439 16.7289 44.0874C16.7835 43.1782 17.1319 42.3497 17.4686 41.5484C17.6362 41.1503 17.8095 40.7383 17.9414 40.3261C18.6691 38.0547 19.5181 35.8045 20.1046 34.5932C20.1506 34.4979 20.2472 34.4375 20.3528 34.4375H24.9356C25.0414 34.4375 25.1378 34.4979 25.1838 34.5932C25.9876 36.2533 27.3024 40.1703 27.8552 42.3062C28.0332 42.9943 28.3226 44.3115 28.26 45.403C28.2444 45.6771 28.2087 45.9957 28.063 46.283C27.889 46.6265 27.573 46.8609 27.2386 46.8949C27.1599 46.903 27.08 46.8987 27.0021 46.8833C27.0145 47.3792 26.9322 47.8796 26.7578 48.3417C26.6674 48.5811 26.5087 48.919 26.1768 49.0855C25.7149 49.317 25.1811 49.0874 24.8916 48.7412C24.8594 48.7024 24.8293 48.6625 24.8015 48.6213C24.6495 49.4573 24.4392 50.2583 23.9276 51.0315C23.7308 51.329 23.4123 51.732 22.92 51.7943C22.8793 51.7994 22.8378 51.8021 22.7966 51.8021ZM21.3483 47.8501C21.3849 47.8501 21.4222 47.8575 21.4575 47.8728C21.5736 47.9229 21.6408 48.0454 21.6204 48.1705C21.4855 48.999 21.6301 49.8623 22.0275 50.6015C22.2098 50.9412 22.5218 51.2889 22.8509 51.247C23.0517 51.2216 23.2533 51.0517 23.4678 50.7273C24.05 49.8468 24.2057 48.8805 24.3707 47.8572L24.4215 47.5447C24.4428 47.4159 24.5516 47.3196 24.6819 47.314C24.8135 47.3058 24.929 47.3947 24.9611 47.5215C25.037 47.8195 25.1231 48.1573 25.3156 48.3874C25.4641 48.5655 25.734 48.6908 25.9297 48.5927C26.0508 48.5318 26.15 48.39 26.2419 48.1468C26.4547 47.5832 26.5076 46.9534 26.3933 46.3609C26.3785 46.3138 26.3689 46.265 26.3649 46.2154C26.353 46.071 26.4545 45.9422 26.5976 45.9201C26.7412 45.8991 26.8764 45.9902 26.9087 46.1314C26.9149 46.1583 26.9207 46.1852 26.9264 46.2124C26.9408 46.2431 26.965 46.2669 26.9813 46.2803C27.0381 46.3281 27.1152 46.3531 27.1833 46.3461C27.3303 46.3312 27.4825 46.2087 27.5711 46.0339C27.6706 45.8378 27.6965 45.5999 27.7093 45.3719C27.7677 44.3552 27.4911 43.1015 27.3212 42.445C26.7915 40.3974 25.5566 36.7013 24.7613 34.9895H20.5272C19.9549 36.211 19.1571 38.3405 18.4668 40.4943C18.3273 40.9297 18.1494 41.3531 17.9772 41.7624C17.6438 42.5558 17.3286 43.3052 17.2794 44.1206C17.2643 44.3738 17.2758 44.8184 17.5242 44.9475C17.7231 45.0509 18.0164 44.9359 18.4226 44.5969C18.5131 44.5212 18.6419 44.5121 18.7423 44.5727C18.8431 44.6339 18.8938 44.7523 18.8688 44.8674C18.6538 45.8539 18.6688 46.893 18.9121 47.8727C19.0503 48.429 19.2682 48.7692 19.5597 48.8838C19.8456 48.9958 20.1813 48.8778 20.4001 48.7299C20.6851 48.5376 20.9107 48.2431 21.129 47.9581C21.1826 47.8883 21.2644 47.8501 21.3483 47.8501Z" fill="#F5B782"/>
<path opacity="0.5" d="M28.9524 39.9081C26.2459 40.8682 23.7079 41.5413 22.6458 41.5413C21.625 41.5413 19.0732 40.8599 16.3447 39.8915C16.833 38.7079 17.2854 37.679 17.6552 36.9175H27.6337C28.0034 37.6845 28.4586 38.7162 28.9524 39.9081Z" fill="#F06A22"/>
<path d="M22.6441 62.4797C16.1427 62.4797 11.6021 59.2656 11.6021 54.6634C11.6021 51.0055 15.6333 40.4585 17.4061 36.7968C17.4521 36.7015 17.5487 36.6411 17.6543 36.6411H27.6339C27.7397 36.6411 27.8361 36.7015 27.8821 36.7968C29.655 40.4585 33.6862 51.0055 33.6862 54.6634C33.6863 59.2656 29.1457 62.4797 22.6441 62.4797ZM17.8279 37.1929C15.8405 41.3572 12.1537 51.3821 12.1537 54.6634C12.1537 59.6817 17.4224 61.9279 22.6441 61.9279C27.8657 61.9279 33.1345 59.6817 33.1345 54.6634C33.1345 51.3821 29.4478 41.3572 27.4604 37.1929H17.8279Z" fill="#B3470E"/>
<path d="M35.9925 17.4054C37.0774 16.5936 38.5625 14.7357 38.7591 13.045C38.9556 11.3542 38.3612 0.607134 37.6555 0.282252C36.9497 -0.0424729 30.0334 4.1619 27.2545 9.8636C25.7438 12.9636 35.9925 17.4054 35.9925 17.4054Z" fill="#FF8D29"/>
<path d="M35.9928 17.6814C35.9556 17.6814 35.9183 17.6739 35.8831 17.6587C35.5647 17.5205 28.0711 14.2441 26.9681 11.2612C26.7673 10.7183 26.7803 10.2075 27.0068 9.74274C29.7306 4.15434 36.7809 -0.427804 37.7711 0.0318185C37.9756 0.125871 38.4014 0.321958 38.8211 6.13164C39.0404 9.16544 39.1335 12.2163 39.0335 13.0768C38.811 14.9905 37.1518 16.8831 36.1582 17.6264C36.1096 17.6629 36.0514 17.6814 35.9928 17.6814ZM37.5121 0.531504C36.6426 0.531504 30.1748 4.50207 27.5027 9.98484C27.3426 10.3133 27.337 10.6681 27.4857 11.0698C28.4271 13.6163 34.887 16.6074 35.954 17.0865C36.9371 16.2964 38.3016 14.5934 38.4855 13.0133C38.7103 11.0787 38.0501 1.38925 37.5172 0.531504C37.5154 0.531504 37.5138 0.531504 37.5121 0.531504Z" fill="#B3470E"/>
<path d="M37.6962 10.5286C37.8108 12.9352 36.7964 15.4331 35.1987 16.7744C34.1225 16.1314 33.0793 15.3403 32.1062 14.4331C31.0231 13.4241 30.0249 12.2602 29.1704 10.9738C30.8776 7.45663 33.4213 4.60139 36.351 2.90688C36.425 2.86368 36.4989 2.82049 36.573 2.78027C36.5959 4.28762 36.2214 5.75178 35.466 6.94427C35.9525 6.49591 36.6585 6.28824 37.2394 6.37807C37.3372 7.90624 37.0122 9.59324 36.2939 10.8574C36.7012 10.5843 37.2443 10.5383 37.6962 10.5286Z" fill="#FFDABA"/>
<path d="M35.1984 17.0505C35.1496 17.0505 35.1008 17.0375 35.0568 17.0114C33.9657 16.3591 32.9094 15.5596 31.9177 14.6349C30.7911 13.5853 29.7894 12.4047 28.9401 11.1266C28.8861 11.0452 28.8791 10.9413 28.9218 10.8534C30.6485 7.29548 33.2377 4.3886 36.2125 2.6681C36.2991 2.6174 36.3701 2.57593 36.4415 2.53743C36.5261 2.49189 36.6288 2.49346 36.7121 2.54197C36.7953 2.5908 36.8469 2.67969 36.8485 2.77577C36.8673 4.01082 36.634 5.18265 36.1684 6.21755C36.5333 6.09251 36.9214 6.04963 37.2812 6.10518C37.4091 6.1249 37.5061 6.23101 37.5144 6.36027C37.602 7.72865 37.3596 9.16433 36.8571 10.3379C37.1446 10.2754 37.4358 10.2579 37.6898 10.2524C37.8433 10.2495 37.9642 10.3656 37.9714 10.515C38.0887 12.9828 37.0455 15.5832 35.3756 16.9854C35.3249 17.0288 35.2618 17.0505 35.1984 17.0505ZM29.4878 10.9524C30.2941 12.1446 31.2376 13.2469 32.2941 14.2315C33.2053 15.0809 34.1717 15.8213 35.169 16.4341C36.5676 15.1642 37.452 12.9617 37.4286 10.816C37.089 10.8394 36.7203 10.9036 36.4474 11.0864C36.3412 11.157 36.1997 11.1462 36.1061 11.0592C36.0124 10.9721 35.9908 10.8321 36.054 10.7208C36.6875 9.60596 37.0261 8.09407 36.9757 6.63335C36.5177 6.63069 36.0042 6.82334 35.6529 7.14712C35.5512 7.24055 35.3956 7.24493 35.2892 7.15604C35.1829 7.06747 35.1588 6.91363 35.2329 6.79657C35.8742 5.7839 36.2363 4.57045 36.2908 3.26263C33.5238 4.92866 31.1241 7.64305 29.4878 10.9524Z" fill="#F5B782"/>
<path d="M9.33654 17.4054C8.25173 16.5936 6.7666 14.7357 6.57004 13.045C6.37348 11.3542 6.96785 0.60715 7.67364 0.282268C8.37942 -0.0426136 15.2957 4.16191 18.0745 9.86362C19.5853 12.9636 9.33654 17.4054 9.33654 17.4054Z" fill="#FF8D29"/>
<path d="M9.33663 17.6812C9.2781 17.6812 9.21988 17.6626 9.17137 17.6263C8.17779 16.8829 6.51864 14.9903 6.29626 13.0767C6.1961 12.2161 6.28937 9.16557 6.50847 6.13146C6.92803 0.321776 7.35385 0.125689 7.55854 0.0316361C8.54352 -0.418754 15.599 4.15384 18.3228 9.74256C18.5493 10.2073 18.5623 10.7181 18.3615 11.261C17.2585 14.244 9.76495 17.5203 9.44649 17.6585C9.41112 17.6737 9.37387 17.6812 9.33663 17.6812ZM7.80768 0.539303C7.27529 1.44666 6.62005 11.0843 6.8443 13.0131C7.02803 14.5929 8.3925 16.2962 9.37559 17.0864C10.4424 16.607 16.9025 13.6161 17.844 11.0696C17.9925 10.6679 17.9868 10.3131 17.8269 9.98466C15.1681 4.52943 8.7515 0.570602 7.80768 0.539303Z" fill="#B3470E"/>
<path d="M7.63257 10.5286C7.51802 12.9352 8.53241 15.4331 10.1302 16.7744C11.2064 16.1314 12.2496 15.3403 13.2229 14.4331C14.3059 13.4241 15.3042 12.2602 16.1587 10.9738C14.4516 7.45663 11.9078 4.60139 8.97811 2.90688C8.90408 2.86368 8.83022 2.82049 8.75604 2.78027C8.73319 4.28762 9.10768 5.75178 9.86308 6.94427C9.37654 6.49591 8.6706 6.28824 8.08969 6.37807C7.99188 7.90624 8.31692 9.59324 9.03523 10.8574C8.6274 10.5843 8.08452 10.5383 7.63257 10.5286Z" fill="#FFDABA"/>
<path d="M10.1301 17.0507C10.0667 17.0507 10.0037 17.0289 9.95264 16.986C8.28269 15.5837 7.2395 12.9834 7.35687 10.5156C7.36392 10.3662 7.49036 10.2524 7.63841 10.253C7.89255 10.2583 8.18363 10.2759 8.47111 10.3385C7.96861 9.16492 7.72636 7.72924 7.81384 6.36086C7.82213 6.23159 7.91916 6.12533 8.04701 6.10577C8.40632 6.05006 8.7949 6.0931 9.16 6.21813C8.69443 5.18355 8.46109 4.01141 8.47987 2.77636C8.48128 2.67996 8.53308 2.59123 8.61634 2.54256C8.69991 2.49405 8.80241 2.49217 8.88723 2.53818C8.95828 2.57667 9.02901 2.61799 9.10006 2.65915C12.0903 4.38903 14.6797 7.29607 16.4066 10.8538C16.4493 10.9416 16.4423 11.0457 16.3883 11.127C15.5395 12.4048 14.5378 13.5852 13.4107 14.6353C12.4188 15.5599 11.3627 16.3596 10.2716 17.0118C10.2279 17.0378 10.1789 17.0507 10.1301 17.0507ZM7.90006 10.8162C7.87659 12.9618 8.76109 15.1643 10.1597 16.4344C11.1567 15.8217 12.1232 15.0813 13.0346 14.2317C14.0914 13.2471 15.0349 12.1443 15.8407 10.9527C14.2013 7.63707 11.7958 4.91861 9.03793 3.2629C9.09255 4.57088 9.45452 5.78433 10.096 6.79701C10.17 6.91391 10.1459 7.06774 10.0397 7.15647C9.93324 7.24536 9.77768 7.24114 9.67596 7.14755C9.32463 6.82377 8.81822 6.63425 8.35296 6.63378C8.30257 8.0945 8.64122 9.60654 9.27471 10.7213C9.33793 10.8325 9.31633 10.9726 9.22259 11.0596C9.1287 11.1469 8.98738 11.1577 8.88128 11.0868C8.60836 10.9039 8.23965 10.8397 7.90006 10.8162Z" fill="#F5B782"/>
<path d="M45.04 29.2861C44.937 28.7712 43.7251 28.5817 41.0799 27.7393C42.2852 27.6953 44.0539 26.3277 43.0208 25.8112C42.0342 25.3179 40.0316 23.5091 39.245 21.7353C37.2259 16.5286 34.2657 11.3724 32.9222 10.2844C29.6144 7.60573 15.8813 7.11465 12.3637 10.2844C11.1018 11.4211 8.2168 16.4071 6.18441 21.498C5.48113 23.3451 3.33873 25.296 2.30821 25.8113C1.27519 26.3277 3.04358 27.6952 4.24889 27.7395V27.7396C1.60383 28.5819 0.391943 28.7715 0.288969 29.2863C0.0614272 30.4238 2.9622 32.0235 5.18723 33.1393C6.10225 33.7787 7.60428 34.4783 9.36766 35.1578C14.1018 36.984 20.6897 38.6696 22.6429 38.6696C24.6789 38.6696 31.2199 36.9923 35.9209 35.1687C37.6217 34.511 39.0799 33.8332 40.0012 33.2094C42.2427 32.0911 45.2724 30.4479 45.04 29.2861Z" fill="#FF8D29"/>
<path d="M35.9415 35.1685C31.2405 36.992 24.6994 38.6694 22.6634 38.6694C20.7102 38.6694 14.1223 36.9838 9.38818 35.1575C12.3181 30.1834 18.859 26.6577 22.6634 26.6577C26.4706 26.6577 33.0116 30.1834 35.9387 35.1575L35.9415 35.1685Z" fill="#FFDABA"/>
<path d="M22.6633 38.9448C20.5711 38.9448 13.8214 37.1632 9.28883 35.4145C9.21324 35.3854 9.15424 35.3245 9.12764 35.248C9.10104 35.1715 9.10933 35.0871 9.15033 35.0172C12.0616 30.0746 18.6855 26.3813 22.6633 26.3813C26.6432 26.3813 33.2679 30.0744 36.1764 35.0173C36.1895 35.0397 36.1994 35.0636 36.206 35.0887C36.2405 35.2239 36.1715 35.3747 36.0413 35.4255C31.462 37.2015 24.8356 38.9448 22.6633 38.9448ZM9.7954 35.0176C14.6315 36.8477 20.847 38.393 22.6633 38.393C24.5149 38.393 30.7402 36.8525 35.5379 35.0278C32.644 30.3763 26.4221 26.933 22.6633 26.933C18.9095 26.933 12.6946 30.3715 9.7954 35.0176Z" fill="#F5B782"/>
<path d="M41.0413 27.3007C40.0565 26.8068 38.0536 24.9971 37.2673 23.2232C35.2479 18.0174 32.2877 12.8613 30.9442 11.7743C27.9841 9.37693 16.6785 8.73139 11.812 10.8941C12.0189 10.6348 12.2037 10.4279 12.3638 10.2844C15.8813 7.11465 29.6145 7.60573 32.9223 10.2844C34.2658 11.3714 37.226 16.5276 39.2454 21.7362C40.0316 23.5101 42.0346 25.3171 43.0222 25.811C43.9795 26.2883 42.5284 27.4994 41.3532 27.7091C41.3476 27.5489 41.2539 27.4082 41.0413 27.3007Z" fill="#FFA04D"/>
<path d="M42.6222 31.794C42.9506 31.4327 43.1244 31.085 43.0609 30.7732C42.9588 30.2601 41.7477 30.0698 39.1021 29.2283C40.0042 29.1951 41.218 28.4227 41.3421 27.8213C43.8056 28.5937 44.9396 28.7869 45.0388 29.2862C45.1851 30.0146 44.0459 30.9333 42.6222 31.794Z" fill="#FFA04D"/>
<path d="M22.6431 38.9453C20.5509 38.9453 13.8012 37.1636 9.2685 35.4149C7.34894 34.6753 5.92844 33.9897 5.04582 33.3769C1.31578 31.5048 -0.187972 30.2647 0.0186002 29.232C0.127364 28.6876 0.791996 28.4905 2.39731 28.0153C2.65631 27.9384 2.93299 27.8566 3.23236 27.7661C2.52079 27.4638 1.8549 26.9293 1.73878 26.3937C1.66351 26.0461 1.82611 25.7439 2.18479 25.5644C3.0887 25.1123 5.22876 23.2326 5.92672 21.3998C8.01717 16.1632 10.8993 11.2322 12.1791 10.0793C15.7655 6.84741 29.6839 7.30656 33.096 10.0699C34.5883 11.2782 37.5819 16.6826 39.5024 21.6355C40.2338 23.2843 42.1493 25.0668 43.1444 25.5643C43.5033 25.7436 43.6659 26.0463 43.5905 26.3938C43.4742 26.9295 42.8083 27.4639 42.097 27.766C42.3963 27.8564 42.6729 27.9384 42.9318 28.0151C44.5374 28.4904 45.2019 28.6872 45.3108 29.2318C45.5191 30.2739 43.9729 31.5351 40.141 33.4479C39.2524 34.0465 37.8662 34.712 36.0207 35.426C31.4417 37.2019 24.8152 38.9453 22.6431 38.9453ZM22.1722 8.38011C18.1298 8.38011 14.1672 9.0305 12.5486 10.4893C11.3162 11.5993 8.44236 16.5867 6.44096 21.6003C5.73736 23.4481 3.59606 25.4757 2.4319 26.058C2.25052 26.1484 2.26726 26.2258 2.27837 26.2768C2.37462 26.7203 3.4538 27.4342 4.25943 27.4638C4.39339 27.4686 4.5045 27.5691 4.52266 27.702C4.54081 27.8348 4.46084 27.9617 4.33314 28.0024C3.64488 28.2215 3.0657 28.393 2.55443 28.5445C1.46461 28.8672 0.603575 29.1221 0.559913 29.3403C0.462887 29.8253 1.20858 30.835 5.31123 32.8927C5.32328 32.8987 5.3347 32.9054 5.3455 32.9132C6.17836 33.4952 7.60355 34.1821 9.46709 34.9001C14.3439 36.7816 20.7882 38.3935 22.6433 38.3935C24.5343 38.3935 30.9867 36.7868 35.8215 34.9113C37.6135 34.2181 39.0053 33.5505 39.847 32.9807C39.857 32.9739 39.8676 32.9677 39.8784 32.9623C43.2664 31.2721 44.912 30.0534 44.7698 29.3401C44.726 29.122 43.8651 28.8671 42.7751 28.5444C42.264 28.3929 41.6847 28.2214 40.9964 28.0023C40.8687 27.9616 40.7887 27.8347 40.8069 27.7018C40.8251 27.5689 40.9362 27.4685 41.0701 27.4636C41.8756 27.4342 42.9549 26.7203 43.0512 26.2769C43.0623 26.2257 43.0789 26.1486 42.8977 26.0578C41.8045 25.5112 39.7903 23.645 38.9931 21.8469C36.9551 16.592 34.0174 11.5256 32.7489 10.4987C31.0888 9.15444 26.583 8.38011 22.1722 8.38011Z" fill="#B3470E"/>
<path d="M13.2875 30.429C15.9628 30.429 18.1316 28.2602 18.1316 25.5848C18.1316 22.9095 15.9628 20.7407 13.2875 20.7407C10.6121 20.7407 8.44336 22.9095 8.44336 25.5848C8.44336 28.2602 10.6121 30.429 13.2875 30.429Z" fill="white"/>
<path d="M13.2875 30.7054C10.4643 30.7054 8.16748 28.4083 8.16748 25.5852C8.16748 22.762 10.4643 20.4653 13.2875 20.4653C16.1107 20.4653 18.4075 22.762 18.4075 25.5852C18.4075 28.4083 16.1107 30.7054 13.2875 30.7054ZM13.2875 21.0171C10.7686 21.0171 8.71928 23.0663 8.71928 25.5853C8.71928 28.1044 10.7686 30.1537 13.2875 30.1537C15.8064 30.1537 17.8557 28.1043 17.8557 25.5853C17.8557 23.0664 15.8064 21.0171 13.2875 21.0171Z" fill="black"/>
<path d="M17.4018 25.5841C17.4018 27.1805 16.1082 28.4714 14.5118 28.4714C12.9181 28.4714 11.6245 27.1803 11.6245 25.5841C11.6245 23.9904 12.9181 22.6968 14.5118 22.6968C15.3242 22.6968 16.0589 23.0306 16.5816 23.5713C15.9218 24.3267 15.5959 25.0667 15.8442 25.3124C16.0616 25.5298 16.6489 25.3099 17.2982 24.813C17.3657 25.0589 17.4018 25.3176 17.4018 25.5841Z" fill="black"/>
<path d="M32.0424 30.429C34.7177 30.429 36.8865 28.2602 36.8865 25.5848C36.8865 22.9095 34.7177 20.7407 32.0424 20.7407C29.367 20.7407 27.1982 22.9095 27.1982 25.5848C27.1982 28.2602 29.367 30.429 32.0424 30.429Z" fill="white"/>
<path d="M32.0419 30.7054C29.2187 30.7054 26.9219 28.4083 26.9219 25.5852C26.9219 22.762 29.2187 20.4653 32.0419 20.4653C34.865 20.4653 37.1619 22.762 37.1619 25.5852C37.1619 28.4083 34.865 30.7054 32.0419 30.7054ZM32.0419 21.0171C29.523 21.0171 27.4737 23.0663 27.4737 25.5853C27.4737 28.1044 29.523 30.1537 32.0419 30.1537C34.5608 30.1537 36.6101 28.1043 36.6101 25.5853C36.6101 23.0664 34.5608 21.0171 32.0419 21.0171Z" fill="black"/>
<path d="M33.7038 25.5841C33.7038 27.1805 32.4102 28.4714 30.8165 28.4714C29.2228 28.4714 27.9292 27.1803 27.9292 25.5841C27.9292 23.9904 29.2228 22.6968 30.8165 22.6968C31.6264 22.6968 32.3584 23.0306 32.8836 23.5686C32.2239 24.3267 31.9005 25.0666 32.1489 25.3124C32.3636 25.5298 32.9509 25.3099 33.6004 24.8157C33.6677 25.0614 33.7038 25.3176 33.7038 25.5841Z" fill="black"/>
<path d="M19.892 19.1198C19.8385 19.591 19.0068 19.8836 18.0344 19.7733C17.0619 19.663 16.3169 19.1916 16.3704 18.7202C16.4239 18.249 17.2555 17.9564 18.228 18.0667C19.2004 18.1771 19.9455 18.6486 19.892 19.1198Z" fill="#D6530C"/>
<path d="M18.4405 20.0725C18.2976 20.0725 18.1511 20.0642 18.0034 20.0471C17.4925 19.9895 17.0191 19.8359 16.6702 19.6152C16.2618 19.3565 16.058 19.0279 16.0964 18.6892C16.1693 18.0463 17.0993 17.6598 18.2593 17.7927C18.7701 17.8503 19.2436 18.0039 19.5924 18.2246C20.0009 18.4833 20.2046 18.8122 20.1663 19.1509C20.128 19.4898 19.8555 19.7647 19.3995 19.9249C19.1227 20.0221 18.7921 20.0725 18.4405 20.0725ZM17.8159 18.319C17.1201 18.319 16.6676 18.5501 16.6447 18.7514C16.632 18.8634 16.7549 19.016 16.9654 19.149C17.2411 19.3237 17.6421 19.451 18.0658 19.4992C18.4893 19.5467 18.909 19.5127 19.2167 19.4044C19.4516 19.3216 19.6056 19.2008 19.6183 19.0889C19.6309 18.9765 19.5081 18.8241 19.2976 18.6909C19.0219 18.5163 18.6208 18.3889 18.1973 18.3407C18.0635 18.3257 17.936 18.319 17.8159 18.319Z" fill="#A33F0A"/>
<path d="M28.5321 19.1198C28.4786 19.591 27.647 19.8836 26.6745 19.7733C25.7021 19.663 24.957 19.1916 25.0105 18.7202C25.064 18.249 25.8957 17.9564 26.8681 18.0667C27.8406 18.1771 28.5856 18.6486 28.5321 19.1198Z" fill="#D6530C"/>
<path d="M27.0808 20.0725C26.9377 20.0725 26.7913 20.0642 26.6435 20.0471C26.1327 19.9895 25.6592 19.8359 25.3104 19.6152C24.9019 19.3565 24.6982 19.0279 24.7365 18.6892C24.8094 18.0463 25.7393 17.6598 26.8994 17.7927C27.4104 17.8503 27.8838 18.0039 28.2326 18.2246C28.641 18.4833 28.8448 18.8122 28.8064 19.1509C28.7681 19.4895 28.4958 19.7647 28.0398 19.9249C27.7629 20.0221 27.4323 20.0725 27.0808 20.0725ZM26.4561 18.319C25.7603 18.319 25.3077 18.5501 25.2849 18.7514C25.2722 18.8634 25.395 19.016 25.6055 19.149C25.8813 19.3237 26.2824 19.451 26.7058 19.4992C27.1295 19.5462 27.5489 19.5124 27.8567 19.4044C28.0917 19.3216 28.2456 19.201 28.2582 19.0889C28.2709 18.9765 28.1481 18.8241 27.9376 18.6909C27.6618 18.5163 27.2608 18.3889 26.8371 18.3407C26.7036 18.3257 26.5761 18.319 26.4561 18.319Z" fill="#A33F0A"/>
<path d="M24.899 28.6331C24.899 29.3504 23.2962 30.3712 22.8078 30.6663C22.7636 30.6939 22.714 30.705 22.6643 30.705C22.6147 30.705 22.5649 30.6939 22.5208 30.6663C22.0297 30.3712 20.4297 29.3504 20.4297 28.6331C20.4297 28.4234 20.4987 28.2469 20.6366 28.1117C20.9759 27.7696 21.6463 27.7724 22.496 27.7724H22.8327C23.6796 27.7696 24.35 27.7696 24.6921 28.1117C24.8301 28.2469 24.899 28.4234 24.899 28.6331Z" fill="black"/>
<path d="M18.0024 24.4113H8.57129C9.10196 22.3022 11.0109 20.7402 13.2868 20.7402C15.563 20.7404 17.4717 22.3022 18.0024 24.4113Z" fill="#FF8D29"/>
<path d="M18.0024 24.688H8.57123C8.48626 24.688 8.40598 24.6487 8.35371 24.5819C8.30144 24.5148 8.28297 24.4273 8.30379 24.3448C8.87843 22.0608 10.9274 20.4653 13.2869 20.4653C15.6463 20.4653 17.6953 22.0608 18.27 24.3448C18.2908 24.4273 18.2723 24.5148 18.22 24.5819C18.1676 24.6486 18.0873 24.688 18.0024 24.688ZM8.93947 24.1362H17.6343C17.0122 22.2827 15.2726 21.017 13.2869 21.017C11.3011 21.017 9.56153 22.2825 8.93947 24.1362Z" fill="black"/>
<path d="M18.0024 26.7578H8.57129C9.10196 28.8669 11.0109 30.4287 13.2868 30.4287C15.563 30.4287 17.4717 28.8669 18.0024 26.7578Z" fill="#FF8D29"/>
<path d="M13.2869 30.7046C10.9276 30.7046 8.87843 29.1092 8.30379 26.8251C8.28297 26.7427 8.30144 26.6552 8.35371 26.588C8.40598 26.5212 8.48626 26.4819 8.57123 26.4819H18.0024C18.0873 26.4819 18.1676 26.5212 18.2199 26.588C18.2721 26.6552 18.2906 26.7427 18.2698 26.8251C17.6952 29.1092 15.6462 30.7046 13.2869 30.7046ZM8.93947 27.0336C9.56153 28.8871 11.3011 30.1528 13.2869 30.1528C15.2726 30.1528 17.0122 28.8871 17.6343 27.0336H8.93947Z" fill="black"/>
<path d="M36.7573 24.4113H27.3262C27.8568 22.3022 29.7658 20.7402 32.0417 20.7402C34.3177 20.7404 36.2266 22.3022 36.7573 24.4113Z" fill="#FF8D29"/>
<path d="M36.7577 24.688H27.3266C27.2416 24.688 27.1613 24.6487 27.1091 24.5819C27.0568 24.5148 27.0383 24.4273 27.0592 24.3448C27.6338 22.0608 29.6828 20.4653 32.0422 20.4653C34.4017 20.4653 36.4507 22.0608 37.0253 24.3448C37.0461 24.4273 37.0277 24.5148 36.9754 24.5819C36.923 24.6486 36.8427 24.688 36.7577 24.688ZM27.6948 24.1362H36.3896C35.7676 22.2827 34.028 21.017 32.0422 21.017C30.0565 21.017 28.3169 22.2825 27.6948 24.1362Z" fill="black"/>
<path d="M36.7573 26.7578H27.3262C27.8568 28.8669 29.7658 30.4287 32.0417 30.4287C34.3177 30.4287 36.2266 28.8669 36.7573 26.7578Z" fill="#FF8D29"/>
<path d="M32.0422 30.7046C29.6828 30.7046 27.6338 29.1092 27.0592 26.8251C27.0383 26.7427 27.0568 26.6552 27.1091 26.588C27.1613 26.5212 27.2416 26.4819 27.3266 26.4819H36.7577C36.8427 26.4819 36.923 26.5212 36.9752 26.588C37.0275 26.6552 37.046 26.7427 37.0252 26.8251C36.4505 29.1092 34.4015 30.7046 32.0422 30.7046ZM27.6948 27.0336C28.3169 28.8871 30.0565 30.1528 32.0422 30.1528C34.028 30.1528 35.7676 28.8871 36.3896 27.0336H27.6948Z" fill="black"/>
<path d="M23.8448 34.0204C23.7321 34.0204 23.6263 33.951 23.5855 33.8389C23.5335 33.6959 23.6074 33.5375 23.7506 33.4854C25.2011 32.9577 26.5531 32.11 27.6603 31.0348C27.7695 30.9289 27.9443 30.9314 28.0504 31.0408C28.1565 31.1499 28.154 31.3247 28.0448 31.4309C26.882 32.5597 25.4623 33.4497 23.9392 34.0038C23.9079 34.0151 23.8761 34.0204 23.8448 34.0204Z" fill="black"/>
<path d="M28.5941 31.8213C28.543 31.8213 28.4912 31.8072 28.4452 31.7773C27.9747 31.4748 27.3684 31.3685 26.8232 31.4936C26.6756 31.5286 26.5268 31.4351 26.4927 31.2864C26.4585 31.1377 26.5513 30.9898 26.7 30.9559C27.3966 30.7961 28.1416 30.9265 28.7435 31.3133C28.8718 31.3955 28.9088 31.5664 28.8265 31.6945C28.7737 31.7767 28.6848 31.8213 28.5941 31.8213Z" fill="black"/>
<path d="M9.95794 53.4895C10.0046 53.8831 10.157 54.2723 10.4279 54.5617C10.6988 54.851 11.1111 55.024 11.4996 54.9453C11.888 54.8667 12.2185 54.5024 12.1972 54.1066C12.429 54.4728 12.8604 54.7113 13.2931 54.6866C13.7258 54.6618 14.1371 54.3622 14.2694 53.9493C14.4016 53.5365 14.2288 53.0393 13.8562 52.8177C14.188 52.8996 14.5571 52.7332 14.742 52.4457C14.9268 52.1583 14.9404 51.7686 14.7828 51.4653C14.3039 50.544 13.5107 50.2695 12.9787 50.2462C11.8285 50.1955 9.70693 51.3684 9.95794 53.4895Z" fill="#85380D"/>
<path d="M11.307 55.2398C10.9176 55.2398 10.5206 55.0633 10.2267 54.7497C9.93345 54.4367 9.74065 54.0004 9.68416 53.5214C9.54989 52.3858 10.0413 51.5877 10.4773 51.1184C11.2489 50.2872 12.3184 49.9414 12.9913 49.9699C13.3097 49.984 14.3974 50.124 15.028 51.3375C15.2327 51.7317 15.2117 52.225 14.9744 52.594C14.8425 52.7996 14.6489 52.9525 14.4319 53.0376C14.5938 53.3351 14.6392 53.6993 14.5322 54.0328C14.3674 54.5476 13.8644 54.9293 13.3092 54.9611C12.963 54.9821 12.6139 54.8666 12.3334 54.6541C12.1734 54.9318 11.8907 55.147 11.5543 55.2149C11.473 55.2317 11.3901 55.2398 11.307 55.2398ZM12.9059 50.52C12.3394 50.52 11.4831 50.8462 10.8815 51.4941C10.5247 51.878 10.1225 52.5303 10.232 53.4569C10.2749 53.8198 10.4159 54.145 10.6292 54.3727C10.8527 54.6112 11.1727 54.7307 11.445 54.6744C11.7167 54.6196 11.9352 54.3661 11.9219 54.121C11.9151 53.9957 11.9939 53.8816 12.1134 53.8433C12.2338 53.806 12.3635 53.8527 12.4305 53.9586C12.6131 54.2476 12.9507 54.4264 13.2776 54.4109C13.6048 54.3921 13.9114 54.1625 14.0067 53.865C14.101 53.5697 13.9704 53.2063 13.7151 53.0544C13.5976 52.9843 13.5491 52.8392 13.601 52.7124C13.6532 52.5861 13.7901 52.5174 13.9225 52.5494C14.1306 52.6005 14.384 52.4919 14.5101 52.2959C14.6403 52.0932 14.6517 51.8104 14.5383 51.5919C14.0439 50.6409 13.2106 50.532 12.9669 50.5214C12.9471 50.5204 12.9266 50.52 12.9059 50.52Z" fill="#612404"/>
<path d="M35.2465 53.4895C35.1998 53.8831 35.0474 54.2723 34.7764 54.5617C34.5055 54.851 34.0931 55.024 33.7047 54.9453C33.3163 54.8667 32.9858 54.5024 33.007 54.1066C32.7753 54.4728 32.3438 54.7113 31.9111 54.6866C31.4784 54.6618 31.0671 54.3622 30.9349 53.9493C30.8027 53.5365 30.9754 53.0393 31.3479 52.8177C31.0161 52.8996 30.647 52.7332 30.4621 52.4457C30.2773 52.1583 30.2637 51.7686 30.4213 51.4653C30.9002 50.544 31.6934 50.2695 32.2254 50.2462C33.3759 50.1955 35.4973 51.3684 35.2465 53.4895Z" fill="#85380D"/>
<path d="M33.8978 55.2408C33.8146 55.2408 33.7318 55.2326 33.6504 55.2162C33.3141 55.1483 33.0313 54.9331 32.8714 54.6553C32.5911 54.8679 32.2429 54.9838 31.8957 54.9624C31.3404 54.9306 30.8376 54.5489 30.6725 54.0342C30.5656 53.7004 30.6112 53.3362 30.7728 53.0388C30.5558 52.9536 30.3623 52.8006 30.2304 52.5952C29.993 52.2259 29.972 51.7327 30.1769 51.3384C30.8074 50.125 31.8952 49.9849 32.2135 49.9708C32.8834 49.9425 33.9556 50.2882 34.7276 51.1193C35.1636 51.5887 35.655 52.3866 35.5207 53.5223C35.464 54.0017 35.2712 54.4378 34.978 54.7506C34.6844 55.0643 34.287 55.2408 33.8978 55.2408ZM33.0074 53.8312C33.0352 53.8312 33.0636 53.8356 33.0913 53.8442C33.2108 53.8824 33.2895 53.9967 33.2828 54.122C33.2697 54.3672 33.488 54.6208 33.7595 54.6754C34.0324 54.7317 34.3521 54.612 34.5753 54.3736C34.7886 54.1459 34.9298 53.8208 34.9726 53.4578C35.0823 52.5316 34.6798 51.8791 34.3232 51.4951C33.6996 50.8237 32.8018 50.5012 32.2376 50.5223C31.9939 50.5331 31.1606 50.6419 30.6662 51.5929C30.5528 51.8114 30.5642 52.0943 30.6944 52.2968C30.8204 52.4927 31.0723 52.6021 31.282 52.5503C31.4151 52.5183 31.5515 52.587 31.6035 52.7134C31.6553 52.84 31.6068 52.9852 31.4892 53.0553C31.2342 53.2073 31.1035 53.5707 31.1978 53.866C31.2932 54.1635 31.5999 54.3929 31.927 54.4118C32.2543 54.4294 32.5913 54.2486 32.7741 53.9596C32.8259 53.878 32.9147 53.8312 33.0074 53.8312Z" fill="#612404"/>
</svg>
