<svg width="123" height="88" viewBox="0 0 123 88" fill="none" xmlns="http://www.w3.org/2000/svg">
<path d="M93.8434 6.74181L86.7768 0L84.5611 7.54783L80.7923 2.57555L79.0884 11.0262L73.1324 8.78749L76.3422 14.1808L69.584 17.0818L73.9772 19.7229L67.353 24.1637L73.198 29.3154L68.4138 31.3326L74.6947 35.7039L70.577 37.2312L75.0692 40.6232H68.4138V32.9441L63.4131 34.9608V26.6036L60.0206 31.3321L58.2346 23.2199L54.5911 27.034L53.2777 20.3108L48.4891 26.1722L45.2415 19.1034L41.7281 24.3677L36.5995 20.3108L33.7182 25.6855L25.8729 23.0575V31.4223L17.4387 30.0186L20.5687 37.9142L13.1209 38.4452L16.146 45.0262L9.95206 45.835L13.2653 51.7019L5.63104 54.7362L9.95206 58.9184L3.32616 60.4779L7.53016 64.3462L1.31001 67.7037L5.91921 70.7714L0.589844 75.7885H5.91921L4.26889 81.2535L10.529 80.3556L11.1048 85.5406L15.714 81.2529L19.4685 87.1248L23.5057 81.2529C23.5057 81.2529 5.42324 84.4256 6.7832 72.2418C8.1437 60.0563 26.6609 25.2781 40.7767 27.0334C54.893 28.7893 74.6952 45.8344 74.6952 45.8344L77.9696 41.9285C77.9691 41.9296 69.2745 11.0524 93.8434 6.74181Z" fill="#52668A"/>
<path d="M114.782 69.7754L90.66 51.5508L83.0312 54.9214C83.0312 54.9214 92.517 75.4695 114.782 69.7754Z" fill="#70CACD"/>
<path d="M29.3039 69.7209C29.3039 69.7209 17.5876 70.4663 24.5011 74.3564C31.4146 78.2449 38.1231 79.35 38.1231 79.35C38.1231 79.35 11.5894 86.4921 5.53991 78.2821C-0.50963 70.0715 17.0112 51.7041 17.0112 51.7041L29.3039 69.7209Z" fill="#ACDBCF"/>
<path d="M5.05469 69.7612C5.05469 69.7612 15.2771 29.8073 35.4156 24.8448C56.2021 19.7233 74.4841 45.1797 74.4841 45.1797L79.4499 31.4237L91.9241 35.9952L87.3028 69.134L5.05469 69.7612Z" fill="#ACDBCF"/>
<path d="M59.0051 18.2084C59.0051 18.2084 53.3093 27.6352 62.9089 33.7055L57.1562 37.9144C57.1562 37.9144 52.5591 26.3922 45.616 27.061C45.616 27.061 50.8393 18.3025 43.8848 17.0787C43.8848 17.0787 47.6715 8.22556 59.0051 18.2084Z" fill="#ACDBCF"/>
<path d="M57.5229 30.3592C57.5229 30.3592 51.7834 22.6495 56.1149 18.8316C56.1149 18.8316 51.9136 11.3778 43.8867 17.0784C43.8867 17.0784 49.1034 18.9524 45.618 27.0607C45.618 27.0607 52.8098 28.6345 54.6827 33.8042L57.5229 30.3592Z" fill="#FFFAEF"/>
<path d="M46.1697 27.4665C46.0445 27.4665 45.9209 27.4135 45.8351 27.309C45.6841 27.1247 45.7104 26.853 45.8947 26.7015L55.0584 19.1761C53.4616 18.4171 48.8103 16.4808 44.1514 17.1085C43.9168 17.1435 43.697 16.974 43.6653 16.7378C43.6324 16.501 43.7992 16.2834 44.0355 16.2511C50.0456 15.4396 55.8141 18.5757 56.0563 18.7091C56.1816 18.778 56.2647 18.9048 56.2778 19.0476C56.2904 19.1908 56.2324 19.3303 56.122 19.4216L46.4442 27.3692C46.3633 27.4359 46.266 27.4665 46.1697 27.4665Z" fill="#D0C4B3"/>
<path d="M54.6902 33.6904C54.5223 33.6904 54.3632 33.5914 54.2927 33.4285C54.1363 33.0632 50.5278 24.4288 55.5236 18.8003C55.6821 18.6221 55.955 18.6056 56.1344 18.7648C56.3126 18.9223 56.3285 19.1957 56.1699 19.3745C51.5405 24.589 55.0517 33.0047 55.0877 33.0889C55.1813 33.3082 55.079 33.5619 54.8597 33.6559C54.8045 33.6795 54.7471 33.6904 54.6902 33.6904Z" fill="#D0C4B3"/>
<path d="M113.732 0L122.411 14.5051L107.6 19.5031L104.882 11.7655L113.415 8.78749L113.732 0Z" fill="#FFFAEF"/>
<path d="M118.743 10.5454L106.801 14.6384L108.126 18.8375L120.605 13.7853L118.743 10.5454Z" fill="#DBECCC"/>
<path d="M110.472 19.5356C110.304 19.5356 110.145 19.4371 110.075 19.2736L106.605 11.1959C106.511 10.9761 106.611 10.7224 106.831 10.6283C107.049 10.5332 107.304 10.636 107.398 10.8547L110.869 18.9324C110.964 19.1517 110.862 19.4054 110.643 19.5C110.587 19.5246 110.529 19.5356 110.472 19.5356Z" fill="#D0C4B3"/>
<path d="M114.269 17.6849C114.119 17.6849 113.974 17.6062 113.893 17.4662L109.723 10.16C109.604 9.95278 109.677 9.68976 109.884 9.57055C110.09 9.45353 110.355 9.52407 110.473 9.73187L114.644 17.0386C114.762 17.2453 114.69 17.5088 114.483 17.6275C114.416 17.6652 114.342 17.6849 114.269 17.6849Z" fill="#D0C4B3"/>
<path d="M121.808 15.1416C121.721 15.1416 121.635 15.1159 121.558 15.0623L113.166 9.13965C112.971 9.00295 112.925 8.73337 113.062 8.53816C113.199 8.34239 113.469 8.29591 113.665 8.43371L122.058 14.3558C122.252 14.4931 122.299 14.7627 122.161 14.9579C122.076 15.0771 121.942 15.1416 121.808 15.1416Z" fill="#D0C4B3"/>
<path d="M118.908 7.97982C118.868 7.97982 118.828 7.9749 118.787 7.96342L113.243 6.35193C113.014 6.28467 112.882 6.04571 112.949 5.8155C113.016 5.58692 113.257 5.45567 113.484 5.52129L119.029 7.13388C119.257 7.20005 119.39 7.43956 119.323 7.66923C119.268 7.85788 119.095 7.97982 118.908 7.97982Z" fill="#D0C4B3"/>
<path d="M108.876 10.2939L112.887 25.68L76.4697 45.1793C76.4697 45.1793 62.9718 9.18003 90.271 6.80189C105.829 5.44576 108.876 10.2939 108.876 10.2939Z" fill="#ACDBCF"/>
<path d="M70.2601 4.28564L62.7959 19.4508L77.9654 23.2211L80.0423 15.2878L71.2936 13.0163L70.2601 4.28564Z" fill="#FFFAEF"/>
<path d="M66.1275 15.2051L78.3639 18.3083L77.3861 22.6009L64.5352 18.5861L66.1275 15.2051Z" fill="#DBECCC"/>
<path d="M75.0699 23.4911C75.024 23.4911 74.9775 23.484 74.9321 23.4687C74.7057 23.3921 74.5843 23.1482 74.6604 22.9218L77.4596 14.5871C77.5361 14.3607 77.7805 14.2382 78.0075 14.3148C78.2333 14.3914 78.3553 14.6358 78.2792 14.8622L75.4801 23.1969C75.4188 23.3768 75.2504 23.4911 75.0699 23.4911Z" fill="#D0C4B3"/>
<path d="M71.1359 21.9558C71.0746 21.9558 71.0123 21.9426 70.9532 21.9147C70.7372 21.8141 70.6437 21.5577 70.7449 21.3411L74.3047 13.7178C74.4059 13.5018 74.664 13.4083 74.8795 13.5084C75.0954 13.6095 75.189 13.866 75.0878 14.0836L71.528 21.7059C71.4541 21.8633 71.2983 21.9558 71.1359 21.9558Z" fill="#D0C4B3"/>
<path d="M63.4146 20.0379C63.291 20.0379 63.168 19.9843 63.0832 19.882C62.9296 19.6988 62.9547 19.4265 63.1374 19.2739L71.0177 12.6852C71.2003 12.5316 71.4732 12.5567 71.6263 12.7399C71.7794 12.9231 71.7553 13.1954 71.5716 13.3491L63.6913 19.9367C63.6104 20.0039 63.5119 20.0379 63.4146 20.0379Z" fill="#D0C4B3"/>
<path d="M65.7166 12.663C65.5432 12.663 65.3786 12.5575 65.3125 12.3858C65.2277 12.1621 65.3398 11.9128 65.5624 11.8275L70.9557 9.76814C71.1783 9.68229 71.4287 9.79438 71.514 10.0175C71.5993 10.2406 71.4878 10.4894 71.2647 10.5758L65.8702 12.6357C65.8199 12.6537 65.768 12.663 65.7166 12.663Z" fill="#D0C4B3"/>
<path d="M76.4688 45.1799L120.604 44.7911C120.604 44.7911 126.623 25.0884 104.368 22.7381C82.579 20.436 76.4688 45.1799 76.4688 45.1799Z" fill="#ACDBCF"/>
<path d="M100.373 31.7652C100.143 31.7652 99.9521 31.5842 99.9412 31.3534L99.7788 27.8417C99.7678 27.6032 99.9521 27.4004 100.19 27.39C100.427 27.3807 100.631 27.5628 100.642 27.8017L100.804 31.3129C100.815 31.5508 100.631 31.7537 100.392 31.7646C100.386 31.7651 100.379 31.7652 100.373 31.7652Z" fill="#52668A"/>
<path d="M103.381 30.4515C103.225 30.4515 103.075 30.3673 102.997 30.2186L101.829 27.9651C101.719 27.7524 101.802 27.4921 102.014 27.3817C102.225 27.2723 102.487 27.3554 102.596 27.5676L103.765 29.8211C103.874 30.0327 103.792 30.2935 103.58 30.4034C103.516 30.4362 103.448 30.4515 103.381 30.4515Z" fill="#52668A"/>
<path d="M91.9239 33.3768C91.8605 33.3768 91.7965 33.3637 91.7352 33.3336C91.5203 33.2292 91.4318 32.97 91.5356 32.7562C91.674 32.4724 94.9774 25.8219 100.469 25.2882C103.85 24.959 107.26 27.0369 110.608 31.4629C110.752 31.6532 110.714 31.9245 110.524 32.0683C110.333 32.2121 110.063 32.1738 109.918 31.9846C106.764 27.814 103.613 25.8525 100.552 26.1472C95.5368 26.6355 92.3433 33.069 92.3121 33.134C92.2378 33.2877 92.0841 33.3768 91.9239 33.3768Z" fill="#82B6A0"/>
<path d="M86.7797 23.9734C86.8415 25.4881 88.1194 26.6649 89.633 26.6031C91.1477 26.5413 92.3239 25.2639 92.2621 23.7492C92.2004 22.2351 90.9224 21.0577 89.4088 21.119C87.8946 21.1819 86.7179 22.4593 86.7797 23.9734Z" fill="#52668A"/>
<path d="M104.577 22.5789C104.638 24.0936 105.916 25.2698 107.43 25.208C108.944 25.1462 110.121 23.8694 110.06 22.3552C109.997 20.84 108.72 19.6632 107.206 19.725C105.692 19.7873 104.515 21.0647 104.577 22.5789Z" fill="#52668A"/>
<path d="M85.4962 31.2159C85.7122 32.5053 87.0213 33.3606 88.4212 33.126C89.8199 32.8909 90.7796 31.6561 90.5631 30.3672C90.3471 29.0784 89.0374 28.2226 87.6386 28.4572C86.2399 28.6918 85.2802 29.927 85.4962 31.2159Z" fill="#D57661"/>
<path d="M110.458 29.1608C110.511 30.4672 111.704 31.4783 113.12 31.4208C114.538 31.3623 115.644 30.2572 115.591 28.9514C115.537 27.645 114.345 26.6334 112.927 26.6908C111.509 26.7493 110.404 27.855 110.458 29.1608Z" fill="#D57661"/>
<path d="M83.7282 45.1789L77.986 61.6401C77.986 61.6401 55.717 52.4326 47.3096 53.5033L50.1312 69.7757L87.3028 69.1338L93.8434 45.0264L83.7282 45.1789Z" fill="#FFFAEF"/>
<path d="M84.5639 19.2685C84.3298 19.2685 84.1374 19.0815 84.1319 18.8469C84.0865 16.8729 84.5595 15.6201 85.5383 15.1236C87.2269 14.2673 89.68 16.1292 89.7839 16.2091C89.9731 16.3545 90.0081 16.6257 89.8626 16.8144C89.7172 17.003 89.4454 17.0386 89.2567 16.8937C88.6705 16.4447 86.93 15.3861 85.9282 15.8946C85.1118 16.3097 84.9707 17.7177 84.9959 18.8262C85.0019 19.0646 84.8127 19.2631 84.5743 19.2685C84.571 19.2685 84.5672 19.2685 84.5639 19.2685Z" fill="#82B6A0"/>
<path d="M108.94 16.3916C108.727 16.3916 108.543 16.2357 108.513 16.0192C108.41 15.287 107.909 13.3113 106.839 12.9728C105.966 12.695 104.878 13.6011 104.119 14.4082C103.955 14.5838 103.682 14.5914 103.509 14.429C103.334 14.2644 103.326 13.991 103.489 13.8176C104.841 12.3784 106.056 11.8168 107.102 12.1487C108.908 12.724 109.35 15.7715 109.369 15.9C109.402 16.1367 109.237 16.3544 109 16.3877C108.98 16.3899 108.96 16.3916 108.94 16.3916Z" fill="#82B6A0"/>
<path d="M93.0078 45.8354L84.5599 67.8255L53.3345 68.3056L49.9688 57.9756C49.9688 57.9756 73.5495 59.663 80.0409 63.504L86.7762 45.8354H93.0078Z" fill="#DBECCC"/>
<path d="M93.8436 69.7754L70.2081 45.1792L62.0938 54.9214C62.0938 54.9214 71.579 75.4695 93.8436 69.7754Z" fill="#ACDBCF"/>
<path d="M55.0827 70.1209C54.8847 70.1209 54.7065 69.9847 54.6611 69.784L51.0537 53.6898C51.0012 53.4563 51.1472 53.2256 51.3807 53.1731C51.6131 53.1211 51.8449 53.2677 51.8969 53.5012L55.5048 69.5954C55.5562 69.8283 55.4102 70.0591 55.1773 70.1105C55.145 70.1181 55.1133 70.1209 55.0827 70.1209Z" fill="#D0C4B3"/>
<path d="M60.6059 70.0265C60.3982 70.0265 60.2144 69.8756 60.18 69.6634L57.8084 55.0074C57.7701 54.7722 57.9303 54.5502 58.166 54.5125C58.4006 54.4742 58.6232 54.6339 58.6614 54.869L61.0336 69.5262C61.0713 69.7613 60.9111 69.9833 60.6759 70.0205C60.6519 70.0249 60.6295 70.0265 60.6059 70.0265Z" fill="#D0C4B3"/>
<path d="M66.0791 70.2071C65.8675 70.2071 65.6827 70.0513 65.6515 69.8353L64.1078 58.9791C64.0745 58.7424 64.238 58.5247 64.4748 58.4903C64.7093 58.4564 64.9297 58.6204 64.9636 58.8577L66.5079 69.7139C66.5418 69.9507 66.3772 70.1683 66.1409 70.2022C66.1196 70.2055 66.0994 70.2071 66.0791 70.2071Z" fill="#D0C4B3"/>
<path d="M71.448 70.026C71.2178 70.026 71.0264 69.8439 71.0166 69.6115L70.8607 65.8324C70.8509 65.594 71.0363 65.3922 71.2747 65.3823C71.5038 65.3709 71.7138 65.5579 71.7247 65.7968L71.8806 69.5765C71.8909 69.8149 71.705 70.0156 71.4666 70.026C71.46 70.026 71.454 70.026 71.448 70.026Z" fill="#D0C4B3"/>
<path d="M80.7923 54.0267C80.6802 54.0267 80.5676 53.9813 80.4867 53.8998C80.4057 53.8194 80.3604 53.7068 80.3604 53.5947C80.3604 53.4793 80.4057 53.3699 80.4867 53.2885C80.6452 53.1272 80.9394 53.1272 81.0975 53.2885C81.1784 53.3694 81.2249 53.4793 81.2249 53.5947C81.2249 53.7068 81.1784 53.8189 81.0975 53.8998C81.0171 53.9813 80.9044 54.0267 80.7923 54.0267Z" fill="#D0C4B3"/>
<path d="M89.8988 59.9998C89.8173 59.9998 89.7353 59.9768 89.6614 59.9287L80.5557 53.9562C80.3561 53.8255 80.3003 53.5576 80.431 53.3585C80.5617 53.1584 80.8307 53.1021 81.0292 53.2339L90.135 59.2069C90.3351 59.3376 90.3909 59.6055 90.2597 59.8046C90.1771 59.9314 90.0393 59.9998 89.8988 59.9998Z" fill="#D0C4B3"/>
<path d="M91.9243 52.937C91.8767 52.937 91.8291 52.9293 91.7805 52.9124L82.2028 49.5499C81.978 49.4707 81.8594 49.224 81.9387 48.9993C82.018 48.7735 82.2629 48.6553 82.4893 48.7346L92.067 52.0976C92.2923 52.1769 92.4109 52.423 92.3317 52.6477C92.2688 52.8254 92.1025 52.937 91.9243 52.937Z" fill="#D0C4B3"/>
<path d="M38.1224 79.3487C38.1224 79.3487 21.4256 84.9499 18.067 76.9476C14.7078 68.9453 25.9287 70.1681 25.9287 70.1681C25.9287 70.1681 14.8708 73.3949 38.1224 79.3487Z" fill="#FFFAEF"/>
<path d="M21.1947 72.2427C21.1947 72.2427 22.1948 77.6191 32.2778 78.9156C32.2778 78.9156 13.8568 81.8449 21.1947 72.2427Z" fill="#DBECCC"/>
<path d="M28.4032 81.6481C28.3283 81.6481 28.2528 81.6289 28.1834 81.5874C27.9778 81.466 27.9105 81.2019 28.0324 80.9957L30.4139 76.9771C30.5358 76.7715 30.801 76.7048 31.0061 76.8261C31.2111 76.9481 31.279 77.2128 31.1576 77.4178L28.7761 81.437C28.6947 81.5726 28.5508 81.6481 28.4032 81.6481Z" fill="#D0C4B3"/>
<path d="M20.042 79.8911C19.8894 79.8911 19.7412 79.8102 19.6625 79.6664C19.5477 79.4564 19.6253 79.195 19.8347 79.0796L26.7608 75.2989C26.9703 75.184 27.2322 75.2611 27.347 75.4706C27.4613 75.68 27.3842 75.9419 27.1748 76.0573L20.2481 79.8381C20.1831 79.8741 20.112 79.8911 20.042 79.8911Z" fill="#D0C4B3"/>
<path d="M17.6337 76.1101C17.3953 76.1101 17.2012 75.9166 17.2012 75.6781C17.2012 75.4397 17.3942 75.2456 17.6326 75.2456H17.6337C17.8727 75.2456 18.0662 75.4392 18.0662 75.6781C18.0662 75.9171 17.8727 76.1101 17.6337 76.1101Z" fill="#D0C4B3"/>
<path d="M17.6337 76.1098C17.4664 76.1098 17.3073 76.0119 17.2367 75.8479C17.1421 75.6302 17.2427 75.3754 17.462 75.2803L23.3344 72.7435C23.5526 72.6478 23.8079 72.7496 23.9025 72.9688C23.9971 73.187 23.8965 73.4418 23.6772 73.5364L17.8049 76.0737C17.7486 76.0983 17.6906 76.1098 17.6337 76.1098Z" fill="#D0C4B3"/>
<path d="M21.1945 49.1426C21.1945 49.1426 25.3876 41.7632 30.8203 38.6249C46.3753 29.6378 49.4003 67.108 49.4003 67.108L56.2012 72.2438L18.5615 70.1019L21.1945 49.1426Z" fill="#ACDBCF"/>
<path d="M56.2023 72.6749C56.194 72.6749 56.1858 72.6744 56.1776 72.6744L25.1031 70.906C24.8647 70.8934 24.6826 70.6883 24.6958 70.451C24.7094 70.2126 24.9167 70.0376 25.1518 70.0431L54.8057 71.7306L49.14 67.4528C49.0416 67.3779 48.9798 67.2652 48.9699 67.1422C48.9502 66.9016 46.916 42.9156 38.2893 38.39C36.1337 37.2587 33.6938 37.4637 31.0368 38.9981C25.7653 42.0439 20.4655 50.9364 20.413 51.0261C20.2916 51.2317 20.027 51.2995 19.8213 51.1776C19.6163 51.0562 19.5479 50.7921 19.6699 50.5859C19.8897 50.2119 25.136 41.4091 30.6048 38.2495C33.5347 36.556 36.2551 36.346 38.6912 37.6234C47.4131 42.1998 49.5966 64.3894 49.8148 66.8775L56.462 71.8979C56.6135 72.0122 56.6725 72.2123 56.6074 72.3906C56.5446 72.5618 56.3822 72.6749 56.2023 72.6749Z" fill="#82B6A0"/>
<path d="M96.6607 10.2331C96.449 11.2201 95.4779 11.8478 94.4919 11.6368C93.5049 11.4246 92.8766 10.4545 93.0877 9.46751C93.2993 8.48048 94.2699 7.85272 95.257 8.06379C96.2434 8.27542 96.8717 9.24659 96.6607 10.2331Z" fill="#82B6A0"/>
<path d="M94.1415 13.9686C94.0146 14.5619 93.4295 14.9403 92.8368 14.8129C92.2429 14.6866 91.8651 14.1015 91.9925 13.5082C92.1193 12.9144 92.7039 12.5376 93.2978 12.6634C93.89 12.7908 94.2689 13.3742 94.1415 13.9686Z" fill="#82B6A0"/>
<path d="M92.0583 10.9103C91.9314 11.5036 91.3469 11.8815 90.7536 11.7546C90.1603 11.6278 89.7824 11.0432 89.9093 10.4499C90.0362 9.85605 90.6207 9.47874 91.2146 9.6056C91.8073 9.73247 92.1857 10.317 92.0583 10.9103Z" fill="#82B6A0"/>
<path d="M100.024 9.94419C99.8667 10.6775 99.1443 11.1439 98.4116 10.9864C97.6783 10.83 97.2113 10.1088 97.3683 9.37493C97.5257 8.64164 98.247 8.1752 98.9797 8.33214C99.7125 8.48963 100.181 9.21035 100.024 9.94419Z" fill="#82B6A0"/>
<path d="M98.1288 13.6183C98.0019 14.2121 97.4174 14.5894 96.8241 14.4631C96.2308 14.3363 95.8524 13.7522 95.9798 13.1584C96.1066 12.5651 96.6906 12.1872 97.2845 12.3141C97.8778 12.4409 98.2562 13.0255 98.1288 13.6183Z" fill="#82B6A0"/>
<path d="M92.7459 7.70204C92.6661 8.07498 92.2991 8.3123 91.9268 8.23301C91.5533 8.15263 91.3165 7.78626 91.3963 7.41277C91.4762 7.04148 91.8431 6.80415 92.2155 6.88344C92.5873 6.96273 92.8252 7.3302 92.7459 7.70204Z" fill="#82B6A0"/>
<path d="M97.3967 7.75783C97.3174 8.13077 96.9494 8.36809 96.5776 8.28826C96.2046 8.20787 95.9679 7.84151 96.0477 7.46912C96.1275 7.09563 96.4945 6.85885 96.8669 6.93814C97.2387 7.01798 97.4755 7.38544 97.3967 7.75783Z" fill="#82B6A0"/>
<path d="M100.784 12.9838C100.704 13.3568 100.337 13.5941 99.9638 13.5148C99.5914 13.435 99.3546 13.068 99.4344 12.6956C99.5137 12.3222 99.8806 12.0859 100.253 12.1652C100.626 12.2445 100.863 12.6114 100.784 12.9838Z" fill="#82B6A0"/>
<path d="M37.5617 42.9441C37.35 43.9316 36.3794 44.5594 35.393 44.3478C34.4059 44.1367 33.7776 43.1661 33.9892 42.1785C34.2009 41.192 35.1715 40.5643 36.1585 40.7759C37.1444 40.987 37.7727 41.9576 37.5617 42.9441Z" fill="#82B6A0"/>
<path d="M35.0419 46.6788C34.9145 47.2732 34.3305 47.6505 33.7366 47.5236C33.1433 47.3973 32.7655 46.8128 32.8929 46.2189C33.0197 45.6256 33.6038 45.2478 34.1976 45.3746C34.7904 45.502 35.1688 46.086 35.0419 46.6788Z" fill="#82B6A0"/>
<path d="M32.9587 43.6214C32.8324 44.2147 32.2473 44.592 31.654 44.4657C31.0607 44.3393 30.6828 43.7548 30.8097 43.1609C30.9371 42.5676 31.5211 42.1898 32.1144 42.3172C32.7077 42.4441 33.0861 43.0275 32.9587 43.6214Z" fill="#82B6A0"/>
<path d="M40.9226 42.655C40.7651 43.3888 40.0433 43.8547 39.31 43.6978C38.5767 43.5408 38.1097 42.8201 38.2667 42.0863C38.4236 41.353 39.1454 40.886 39.8782 41.0424C40.6115 41.1993 41.0796 41.9217 40.9226 42.655Z" fill="#82B6A0"/>
<path d="M39.029 46.3289C38.9022 46.9222 38.3176 47.3001 37.7243 47.1732C37.131 47.0463 36.7531 46.4623 36.88 45.8685C37.0074 45.2752 37.5909 44.8973 38.1847 45.0247C38.778 45.1516 39.1564 45.735 39.029 46.3289Z" fill="#82B6A0"/>
<path d="M33.6463 40.4136C33.5664 40.7865 33.1995 41.0233 32.8271 40.944C32.4542 40.8636 32.2169 40.4972 32.2967 40.1248C32.3765 39.7519 32.7435 39.5146 33.1164 39.5939C33.4888 39.6737 33.7261 40.0401 33.6463 40.4136Z" fill="#82B6A0"/>
<path d="M38.2967 40.4686C38.2168 40.841 37.8499 41.0777 37.477 40.999C37.1046 40.9192 36.8673 40.5528 36.9471 40.1799C37.0269 39.8064 37.3939 39.569 37.7662 39.6494C38.1386 39.7293 38.376 40.0962 38.2967 40.4686Z" fill="#82B6A0"/>
<path d="M41.683 45.6953C41.6032 46.0677 41.2368 46.305 40.8633 46.2257C40.4909 46.1464 40.2536 45.779 40.334 45.406C40.4133 45.0331 40.7802 44.7969 41.1526 44.8762C41.5255 44.956 41.7629 45.3224 41.683 45.6953Z" fill="#82B6A0"/>
<path d="M40.9127 28.2727C40.7016 29.2597 39.7304 29.8874 38.744 29.6769C37.7575 29.4653 37.1292 28.4947 37.3408 27.5076C37.5519 26.5212 38.523 25.8929 39.5095 26.1045C40.496 26.3161 41.1243 27.2867 40.9127 28.2727Z" fill="#82B6A0"/>
<path d="M38.3944 32.0085C38.2676 32.6018 37.683 32.9802 37.0897 32.8528C36.4964 32.7259 36.118 32.1419 36.2454 31.5481C36.3728 30.9542 36.9563 30.5769 37.5501 30.7037C38.1429 30.8306 38.5213 31.4146 38.3944 32.0085Z" fill="#82B6A0"/>
<path d="M36.312 28.9503C36.1845 29.5441 35.6 29.9214 35.0067 29.7951C34.4134 29.6688 34.035 29.0837 34.1624 28.4904C34.2892 27.8971 34.8738 27.5192 35.4671 27.6461C36.0599 27.773 36.4388 28.3575 36.312 28.9503Z" fill="#82B6A0"/>
<path d="M44.2751 27.9837C44.1182 28.7181 43.3958 29.184 42.6625 29.0265C41.9298 28.8701 41.4623 28.1494 41.6192 27.4145C41.7772 26.6817 42.4985 26.2147 43.2318 26.3717C43.9651 26.5286 44.4326 27.251 44.2751 27.9837Z" fill="#82B6A0"/>
<path d="M42.3822 31.6573C42.2548 32.2517 41.6708 32.629 41.0774 32.5022C40.4841 32.3758 40.1063 31.7918 40.2337 31.1974C40.3606 30.6041 40.9451 30.2263 41.5384 30.3531C42.1317 30.48 42.5085 31.0646 42.3822 31.6573Z" fill="#82B6A0"/>
<path d="M36.9982 25.7418C36.9184 26.1148 36.5514 26.3521 36.1785 26.2728C35.8061 26.1924 35.5688 25.826 35.6481 25.4531C35.7279 25.0802 36.0954 24.8428 36.4678 24.9227C36.8407 25.0025 37.078 25.3694 36.9982 25.7418Z" fill="#82B6A0"/>
<path d="M41.65 25.7984C41.5702 26.1703 41.2033 26.4076 40.8309 26.3278C40.4579 26.2479 40.2212 25.8816 40.3005 25.5092C40.3808 25.1352 40.7472 24.8989 41.1196 24.9782C41.492 25.0586 41.7299 25.425 41.65 25.7984Z" fill="#82B6A0"/>
<path d="M45.0359 31.024C44.9555 31.3969 44.5892 31.6343 44.2162 31.555C43.8438 31.4751 43.6065 31.1082 43.6864 30.7358C43.7662 30.3624 44.1331 30.1256 44.5055 30.2054C44.8784 30.2853 45.1163 30.6511 45.0359 31.024Z" fill="#82B6A0"/>
<path d="M63.6485 39.7212C62.9612 40.4594 61.8057 40.5015 61.0664 39.8153C60.3271 39.1274 60.2856 37.9719 60.9724 37.2331C61.6592 36.4933 62.8152 36.4512 63.5539 37.1385C64.2927 37.8259 64.3348 38.9824 63.6485 39.7212Z" fill="#82B6A0"/>
<path d="M59.5709 41.6376C59.157 42.0833 58.4619 42.1079 58.0179 41.6945C57.5733 41.2811 57.5476 40.5866 57.961 40.1409C58.3739 39.6964 59.0689 39.6718 59.5135 40.0846C59.9586 40.498 59.9843 41.1941 59.5709 41.6376Z" fill="#82B6A0"/>
<path d="M59.3478 37.9442C58.935 38.3893 58.2389 38.4145 57.7948 38.0016C57.3508 37.5877 57.3251 36.8937 57.738 36.4481C58.1514 36.0035 58.8464 35.9789 59.291 36.3917C59.735 36.8051 59.7612 37.5007 59.3478 37.9442Z" fill="#82B6A0"/>
<path d="M66.6841 41.1951C66.1729 41.7446 65.3143 41.7753 64.7648 41.2656C64.2152 40.7549 64.1835 39.8953 64.6948 39.3463C65.2055 38.7973 66.0646 38.7661 66.6142 39.2757C67.1626 39.7859 67.1943 40.6466 66.6841 41.1951Z" fill="#82B6A0"/>
<path d="M63.1742 43.3811C62.7608 43.8257 62.0658 43.8508 61.6212 43.438C61.1766 43.0246 61.1515 42.3296 61.5643 41.8839C61.9777 41.4399 62.6728 41.4147 63.1173 41.8276C63.5619 42.241 63.5876 42.9366 63.1742 43.3811Z" fill="#82B6A0"/>
<path d="M61.5828 35.5413C61.3236 35.8207 60.8866 35.8366 60.6072 35.5768C60.3289 35.3171 60.313 34.8807 60.5722 34.6018C60.8314 34.323 61.2689 34.3071 61.5478 34.5663C61.8261 34.8261 61.8425 35.263 61.5828 35.5413Z" fill="#82B6A0"/>
<path d="M65.5479 37.9718C65.2887 38.2512 64.8518 38.2671 64.5723 38.0074C64.2935 37.7476 64.2781 37.3112 64.5368 37.0318C64.7965 36.7529 65.2329 36.7376 65.5123 36.9963C65.7912 37.256 65.8076 37.6924 65.5479 37.9718Z" fill="#82B6A0"/>
<path d="M65.7787 44.1959C65.519 44.4742 65.0826 44.4906 64.8026 44.2314C64.5238 43.9717 64.5085 43.5353 64.7682 43.2564C65.0274 42.977 65.4638 42.9617 65.7432 43.2203C66.0215 43.4801 66.0379 43.917 65.7787 44.1959Z" fill="#82B6A0"/>
<path d="M86.8048 71.2785C85.593 71.2785 84.2654 71.1921 82.8529 70.9723C77.0259 70.0629 68.6305 66.5796 61.7235 55.1455C61.5999 54.941 61.6656 54.6758 61.8706 54.5522C62.0735 54.4281 62.3398 54.4937 62.4639 54.6988C69.1855 65.8272 77.3108 69.223 82.9437 70.1116C87.7481 70.8701 91.6131 69.9886 93.0682 69.5686L76.1455 51.1154C75.9842 50.9399 75.9962 50.6665 76.1723 50.5051C76.3484 50.3438 76.6213 50.3559 76.7826 50.5319L94.1618 69.4833C94.2592 69.5888 94.2969 69.7365 94.2635 69.8754C94.2307 70.0154 94.1306 70.1291 93.9967 70.18C93.8457 70.2357 91.023 71.2785 86.8048 71.2785Z" fill="#82B6A0"/>
<path d="M92.2642 70.5721C92.191 70.5721 92.1161 70.5535 92.0477 70.5141L86.5603 67.3404C86.3536 67.2201 86.2836 66.9559 86.4028 66.7492C86.5226 66.5431 86.7878 66.472 86.9934 66.5923L92.4808 69.7655C92.6875 69.8853 92.7586 70.1494 92.6388 70.3566C92.5579 70.4944 92.413 70.5721 92.2642 70.5721Z" fill="#82B6A0"/>
<path d="M88.03 71.2756C87.9513 71.2756 87.8709 71.2543 87.7998 71.2094L85.1154 69.5137C84.9136 69.3858 84.8535 69.1189 84.9809 68.9177C85.1089 68.7154 85.3762 68.6563 85.5764 68.7826L88.2613 70.4778C88.4625 70.6057 88.5238 70.8732 88.3958 71.0738C88.3133 71.2051 88.1733 71.2756 88.03 71.2756Z" fill="#82B6A0"/>
<path d="M98.3691 37.7734L99.4573 40.3769L95.1631 40.8132L98.3691 37.7734Z" fill="#FFFAEF"/>
<path d="M103.43 36.9907L102.527 40.264L106.089 40.813L103.43 36.9907Z" fill="#FFFAEF"/>
<path d="M101.447 42.3605C99.6942 42.3605 98.1368 37.2838 97.5424 35.074C97.4801 34.8427 97.6168 34.606 97.8475 34.5436C98.0794 34.4829 98.3151 34.618 98.3769 34.8493C99.3371 38.4162 100.754 41.4976 101.431 41.4976C101.438 41.4976 101.445 41.4965 101.451 41.496C101.553 41.4867 102.467 41.2209 102.951 34.9275C102.969 34.6896 103.182 34.5059 103.415 34.53C103.652 34.5485 103.83 34.7558 103.812 34.9937C103.325 41.3396 102.386 42.2768 101.532 42.3572C101.504 42.3594 101.475 42.3605 101.447 42.3605Z" fill="#82B6A0"/>
</svg>
