<svg width="102" height="193" viewBox="0 0 102 193" fill="none" xmlns="http://www.w3.org/2000/svg">
<path d="M69.8404 160.691C70.055 161.469 72.7183 173.764 72.3837 173.859C72.049 173.955 69.7246 174.617 69.7246 174.617L64.8857 161.384L69.8404 160.691Z" fill="#F25A29"/>
<path d="M71.8549 170.229C71.8549 170.229 88.1356 177.895 87.8087 179.597C87.5454 180.97 83.5921 178.897 83.0259 180.404C82.4596 181.912 84.4604 184.49 83.2447 184.814C82.0287 185.139 78.6197 181.718 77.218 182.129C75.8163 182.54 76.2454 186.809 74.4499 186.593C71.1107 186.192 68.5635 171.441 68.5635 171.441L71.8549 170.229Z" fill="#F25A29"/>
<path d="M59.3076 153.083L71.2283 146.453C72.0326 149.983 72.4291 153.605 72.4078 157.226C72.4002 158.506 72.3375 159.804 71.9459 161.023C71.5543 162.242 70.8283 163.447 69.6785 164.008C64.7829 166.397 62.5967 162.342 62.3133 161.676C61.1249 158.881 60.1202 156.009 59.3076 153.083Z" fill="#FAC042"/>
<path d="M69.0808 147.647C69.626 150.583 69.8935 153.57 69.876 156.556C69.8685 157.837 69.8058 159.135 69.4142 160.353C69.0226 161.572 68.2963 162.778 67.1467 163.339C66.1173 163.841 65.2084 164.057 64.4111 164.081C65.6018 164.817 67.3273 165.155 69.6775 164.009C70.8273 163.448 71.5533 162.243 71.9449 161.024C72.3365 159.805 72.3993 158.507 72.4068 157.227C72.4281 153.606 72.0316 149.983 71.2273 146.453L69.0808 147.647Z" fill="#E9B13F"/>
<path d="M33.6894 168.531C33.6449 169.336 33.6566 181.917 34.0037 181.939C34.3506 181.961 36.7627 182.113 36.7627 182.113L38.6776 168.152L33.6894 168.531Z" fill="#F25A29"/>
<path d="M42.1529 158.399L29.0166 154.734C29.0569 158.354 29.5152 161.97 30.3793 165.486C30.6848 166.729 31.0483 167.977 31.7129 169.07C32.3777 170.164 33.3647 171.167 34.6134 171.444C39.9302 172.623 41.1119 168.171 41.2321 167.457C41.7364 164.462 42.0444 161.434 42.1529 158.399Z" fill="#FAC042"/>
<path d="M42.1527 158.4L40.5888 157.963C40.4384 160.394 40.1626 162.817 39.7582 165.219C39.638 165.933 38.4564 170.385 33.1393 169.206C32.3951 169.04 31.7446 168.616 31.1992 168.07C31.3488 168.414 31.5175 168.749 31.7129 169.071C32.3777 170.164 33.3647 171.167 34.6134 171.444C39.9302 172.624 41.1118 168.171 41.2321 167.457C41.7361 164.462 42.0442 161.434 42.1527 158.4Z" fill="#E9B13F"/>
<path d="M34.0905 179.106C34.0905 179.106 16.4541 178.989 15.9802 180.656C15.5983 182 20.0606 181.931 19.888 183.532C19.7155 185.133 16.7695 186.533 17.7093 187.371C18.6489 188.209 23.2317 186.691 24.2983 187.689C25.3649 188.688 23.0618 192.307 24.7617 192.923C27.924 194.069 36.7631 182.113 36.7631 182.113L34.0905 179.106Z" fill="#F25A29"/>
<path d="M0.876729 139.634C0.179112 141.188 -0.381898 143.006 0.329251 144.554C1.0404 146.101 3.59329 146.69 4.39603 145.188C4.16419 146.545 5.52951 147.814 6.90497 147.796C8.28043 147.778 9.49143 146.765 10.1237 145.543C10.0634 146.967 11.8913 147.849 13.248 147.415C14.6048 146.98 15.5217 145.744 16.3276 144.568C18.5974 141.256 20.7345 137.854 22.7329 134.371C24.9434 130.518 32.5183 118.718 24.7589 120.075C16.9178 121.446 9.58692 127.858 6.25548 131.509C4.05672 133.918 2.2142 136.656 0.876729 139.634Z" fill="#E9B13F"/>
<path d="M90.1556 105.656C90.5079 103.648 88.1161 101.386 85.6696 101.966C86.6061 101.038 87.56 100.086 88.0471 98.9602C88.5342 97.8351 88.4718 96.4831 87.5059 95.5669C86.1239 94.2562 83.4341 94.3436 81.6142 95.2426C79.7943 96.1417 78.5971 97.6282 77.3172 98.9922C74.4018 102.099 70.7719 104.781 66.658 106.867C63.1907 108.625 59.119 109.993 55.0371 109.509L59.3152 124.023C58.8593 124.093 59.2816 124.643 59.7214 124.764C65.3322 126.305 71.5619 124.926 76.8194 122.774C80.9145 121.097 84.7927 118.883 87.2904 115.811C88.1473 114.757 88.8501 113.528 88.6279 112.282C88.4059 111.036 86.9342 109.868 85.3779 110.097C87.6484 109.173 89.803 107.664 90.1556 105.656Z" fill="#E9B13F"/>
<path d="M21.4767 111.818C21.4767 111.818 24.2394 116.967 23.6849 120.934C23.1301 124.901 18.525 133.875 20.2546 146.149C21.4892 154.91 30.9962 164.095 51.7605 159.057C68.839 154.913 77.2341 144.392 75.8641 135.808C73.6201 121.75 61.9089 117.149 58.508 112.261C54.6379 106.698 53.8831 101.116 53.8831 101.116L21.4767 111.818Z" fill="#FAC042"/>
<path d="M29.7379 111.479C29.1751 114.127 27.6638 126.28 29.6846 135.701C31.8113 145.615 41.6747 149.165 49.4128 146.53C59.1003 143.231 63.6147 136.683 60.1133 127.221C56.1811 116.595 48.0816 107.028 48.0816 107.028L29.7379 111.479Z" fill="#F7CD48"/>
<path d="M47.1458 113.094C49.8642 112.788 58.2596 111.198 58.2596 111.198C58.2596 111.198 56.2724 109.259 54.969 105.356C52.3805 105.673 50.3592 106.325 47.92 107.247C43.7423 108.827 39.4523 110.11 35.0938 111.085C32.9146 111.572 30.7181 111.983 28.51 112.315C27.0789 112.53 23.9993 112.279 23.1406 113.587C28.6654 115.958 44.2479 113.42 47.1458 113.094Z" fill="#E9B13F"/>
<path d="M18.5078 72.5474C8.5504 80.3956 5.08131 90.9931 12.0419 104.755C18.5463 117.614 36.1743 114.589 44.9787 110.879C63.5755 103.044 66.296 87.5003 59.9886 77.3254C53.6814 67.1505 37.8941 57.2675 18.5078 72.5474Z" fill="#FAC042"/>
<path d="M19.279 76.1323C20.9428 72.9392 20.2555 68.6887 17.6709 66.1837C19.1096 66.3947 20.5074 66.8842 21.764 67.6169C21.4426 65.1252 20.6373 62.6967 19.4062 60.507C21.2956 62.0323 23.1254 63.6318 24.8896 65.3008C25.2312 63.1338 26.4298 61.1138 28.1677 59.7769C26.8638 64.4184 29.4357 69.829 33.8566 71.7446L19.279 76.1323Z" fill="#FAC042"/>
<path d="M52.7284 69.3826C52.2821 72.8251 53.6683 74.1545 53.7781 76.0012C53.8879 77.8482 51.368 80.8767 53.1848 82.9748C58.1849 88.749 64.9413 83.0453 64.9413 83.0453C64.9413 83.0453 75.5224 70.9058 70.6411 65.1195C67.9222 61.8964 58.735 68.7893 58.735 68.7893C55.77 70.1249 52.7284 69.3826 52.7284 69.3826Z" fill="#F25A29"/>
<path d="M23.1176 74.8321C22.483 74.5216 21.7271 74.6314 21.0448 74.8154C18.145 75.5968 13.3843 78.4526 11.218 87.3429C10.7583 89.2304 11.2579 91.3561 12.4447 92.8939C13.1928 93.8634 14.4121 94.5834 15.613 94.3471C16.9751 94.0791 17.8362 92.7211 18.2879 91.407C19.4195 88.1154 19.0841 84.2433 21.1747 81.4614C21.9821 80.387 23.1077 79.5543 23.7546 78.3764C24.4015 77.1987 24.3242 75.4219 23.1176 74.8321Z" fill="#F7CD48"/>
<path d="M42.9104 76.8013C43.4618 77.9028 43.0166 79.2434 41.9162 79.795C40.8157 80.3469 39.4764 79.9014 38.9251 78.8C38.3737 77.6985 38.8189 76.3579 39.9193 75.806C41.0197 75.2544 42.359 75.6998 42.9104 76.8013Z" fill="#231F20"/>
<path d="M40.8443 77.0565C41.0876 77.5423 40.8912 78.134 40.4056 78.3773C39.9198 78.6211 39.3291 78.4244 39.0858 77.9381C38.8425 77.452 39.039 76.8606 39.5246 76.617C40.0101 76.3737 40.601 76.5704 40.8443 77.0565Z" fill="white"/>
<path d="M32.8144 73.6762C33.1542 73.0507 33.8232 72.6226 34.0449 71.9461C34.0803 71.8384 34.1032 71.7223 34.0787 71.6112C34.0168 71.3263 33.659 71.1904 33.378 71.2664C32.3039 71.5563 31.0957 73.8706 30.9612 74.9351C30.9019 75.4053 30.9586 75.7087 31.4907 75.665C32.3931 75.5906 32.4839 74.2841 32.8144 73.6762Z" fill="#231F20"/>
<path d="M70.6379 65.1217C70.3769 64.8126 70.0561 64.5969 69.6897 64.459C70.0569 66.7238 69.168 69.0371 68.0611 71.0646C67.0658 72.8882 65.8766 74.605 64.5266 76.1834C62.069 79.0566 59.0761 81.474 55.7379 83.2489C55.2495 83.5086 54.7251 83.8122 54.1748 83.959C59.0303 88.0338 64.9381 83.047 64.9381 83.047C64.9381 83.047 75.5192 70.908 70.6379 65.1217Z" fill="#D52F28"/>
<path d="M55.8352 77.592C55.9424 77.7926 56.079 77.9844 56.2674 78.1119C56.6905 78.3991 57.2599 78.3016 57.7457 78.1423C58.9871 77.7362 60.1058 77.0063 61.0774 76.132C61.7269 75.5478 62.3214 74.8897 62.7445 74.1252C62.929 73.7922 63.081 73.4362 63.1419 73.0602C63.1791 72.8307 63.178 72.5809 63.0562 72.3826C62.8918 72.1146 62.5426 72.009 62.2298 72.042C61.9171 72.0748 61.6293 72.22 61.3451 72.3543C60.6431 72.6863 59.9174 72.9681 59.1752 73.1971C58.5658 73.3855 57.9398 73.5395 57.3741 73.8348C56.8328 74.1172 56.2037 74.5767 55.9424 75.1512C55.7608 75.5509 55.7928 76.0544 55.7017 76.4804C55.6148 76.8873 55.6367 77.2201 55.8352 77.592Z" fill="#F77E41"/>
<path d="M81.4645 53.7483C81.1741 59.9462 80.8866 66.1465 80.8296 72.3522C80.7729 78.5084 80.9425 84.674 81.5688 90.8014C81.8803 93.8464 82.3026 96.8814 82.8628 99.8913C83.4267 102.921 84.1779 105.914 84.7179 108.948C85.2588 111.987 85.5344 115.058 85.2019 118.137C84.881 121.108 84.1519 124.031 84.0265 127.024C83.9648 128.496 84.0647 129.977 84.409 131.413C84.7465 132.821 85.2893 134.167 85.7998 135.518C86.7191 137.951 87.6002 140.662 86.7868 143.254C86.6 143.85 86.3122 144.395 85.9424 144.896C85.6702 145.265 86.2874 145.62 86.5568 145.255C88.0509 143.231 88.0209 140.535 87.4324 138.191C86.7223 135.363 85.2185 132.776 84.8412 129.857C84.4454 126.797 85.0816 123.729 85.5586 120.717C85.7933 119.234 85.9997 117.742 86.0535 116.24C86.1077 114.728 86.0202 113.213 85.8448 111.711C85.4873 108.651 84.7808 105.649 84.1394 102.639C83.4899 99.5923 82.9633 96.5226 82.5782 93.4306C81.8061 87.2342 81.5368 80.9856 81.5311 74.7445C81.5254 68.5081 81.7814 62.2756 82.069 56.0473C82.1044 55.2812 82.14 54.5146 82.1762 53.7486C82.1978 53.2904 81.4858 53.2914 81.4645 53.7483Z" fill="#231F20"/>
<path d="M82.0667 0.00359515C67.1368 0.269528 60.477 14.3101 63.4762 28.9059C66.4753 43.5018 82.0667 50.9742 82.0667 50.9742C82.0667 50.9742 100.313 39.918 101.577 28.715C103.947 7.70447 93.1344 -0.193643 82.0667 0.00359515Z" fill="#75BA50"/>
<path d="M81.2491 49.4048C81.0269 49.5052 79.583 54.9529 79.583 54.9529H84.3594L82.8041 49.405L81.2491 49.4048Z" fill="#75BA50"/>
<path opacity="0.5" d="M69.3682 11.4816C68.5624 13.4381 68.0854 15.5297 67.9629 17.6426C67.8923 18.8611 67.9488 20.1286 68.484 21.2251C69.0193 22.3219 70.1299 23.2084 71.3484 23.1639C72.6643 23.116 73.7405 22.02 74.2521 20.8054C74.7634 19.591 74.8474 18.2473 75.0756 16.9491C75.435 14.9036 76.1761 12.9281 77.2359 11.1431C78.0397 9.7895 80.3566 8.03802 80.2605 6.44113C80.0495 2.9343 74.7782 5.07296 73.2745 6.1955C71.503 7.51788 70.2032 9.45381 69.3682 11.4816Z" fill="white"/>
<path d="M79.583 42.5742C79.583 42.5742 86.7228 40.9999 90.1355 36.1637C97.6698 25.4868 95.1341 12.4824 95.1341 12.4824C95.1341 12.4824 100.577 30.6049 92.5793 38.7208C87.339 44.0386 79.583 42.5742 79.583 42.5742Z" fill="#669E46"/>
<path d="M80.3582 51.1218C81.5154 50.9262 82.6905 50.8567 83.8633 50.9012C84.3212 50.9186 84.3204 50.2069 83.8633 50.1898C82.6257 50.1427 81.39 50.2293 80.1691 50.4357C79.9794 50.4677 79.8732 50.7013 79.9203 50.8733C79.9757 51.0742 80.168 51.1541 80.3582 51.1218Z" fill="#231F20"/>
<path d="M82.9748 96.6249C81.7753 97.8466 80.5369 99.176 80.1875 100.853C80.0995 101.276 80.0735 101.726 80.2234 102.131C80.4383 102.712 80.978 103.11 81.5296 103.392C82.1528 103.71 82.8445 103.929 83.5431 103.892C84.4695 103.842 85.3167 103.348 86.0333 102.759C87.1051 101.877 87.9745 100.75 88.556 99.4896C88.8951 98.7545 89.1391 97.9585 89.122 97.1493C89.1045 96.34 88.8001 95.5133 88.1881 94.9841C87.5423 94.4254 86.6555 94.2597 85.8142 94.1145C85.1725 94.0039 83.8111 93.772 83.4583 94.4613C83.3909 94.5932 83.7656 95.2029 83.7255 95.4407C83.643 95.9286 83.31 96.2835 82.9748 96.6249Z" fill="#FAC042"/>
<path d="M83.0146 105.739C82.8376 106.854 83.2841 108.091 84.2401 108.689C84.6323 108.934 85.0868 109.065 85.544 109.134C86.0691 109.213 86.6125 109.214 87.1248 109.074C87.6921 108.919 88.2023 108.597 88.648 108.213C89.2283 107.713 89.7196 107.089 89.9699 106.365C90.22 105.641 90.2103 104.81 89.8494 104.134C89.4794 103.44 88.7943 102.979 88.1105 102.592C85.4415 101.086 83.4561 102.959 83.0146 105.739Z" fill="#FAC042"/>
</svg>
