<svg width="113" height="130" viewBox="0 0 113 130" fill="none" xmlns="http://www.w3.org/2000/svg">
<path d="M58.7284 97.2539C59.0196 97.6474 63.2081 104.033 63.0391 104.16C62.8702 104.287 61.6963 105.169 61.6963 105.169L56.0699 98.7264L58.7284 97.2539Z" fill="#F25A29"/>
<path d="M62.237 102.686C62.237 102.686 71.4078 97.1449 72.1726 97.867C72.7893 98.4495 70.4382 99.7997 71.0254 100.581C71.6125 101.363 73.5853 101.178 73.3548 101.907C73.1243 102.636 70.2606 103.268 70.0138 104.12C69.7669 104.973 72.0928 106.144 71.3966 106.994C70.1015 108.574 61.6961 105.169 61.6961 105.169L62.237 102.686Z" fill="#F25A29"/>
<path d="M51.098 95.2405L56.4134 88.8849C57.6385 90.7097 58.6526 92.6755 59.4293 94.7315C59.7039 95.4584 59.9512 96.2076 59.9945 96.9834C60.038 97.7593 59.8888 98.6006 59.3589 99.1689C57.103 101.589 54.9801 99.769 54.6742 99.4533C53.3918 98.1292 52.1963 96.7208 51.098 95.2405Z" fill="#FAC042"/>
<path d="M55.4556 90.0291C56.4044 91.5736 57.2069 93.2079 57.8474 94.9036C58.122 95.6305 58.3693 96.3797 58.4126 97.1555C58.456 97.9314 58.3068 98.7727 57.7771 99.3411C57.3029 99.8499 56.8345 100.171 56.3876 100.358C57.2229 100.515 58.2751 100.331 59.3581 99.169C59.8878 98.6006 60.037 97.7593 59.9937 96.9835C59.9503 96.2077 59.7031 95.4585 59.4285 94.7316C58.6518 92.6756 57.6378 90.7096 56.4126 88.885L55.4556 90.0291Z" fill="#E9B13F"/>
<path d="M31.4401 95.0042C31.366 95.4881 30.6397 103.09 30.8482 103.124C31.0569 103.157 32.5066 103.389 32.5066 103.389L34.4785 95.0666L31.4401 95.0042Z" fill="#F25A29"/>
<path d="M37.1492 89.3766L29.4189 86.3955C29.2323 88.5852 29.2986 90.7964 29.6163 92.9711C29.7286 93.7401 29.8755 94.5151 30.2137 95.2147C30.552 95.9143 31.0903 96.5778 31.8293 96.818C34.9756 97.841 35.95 95.2199 36.0642 94.7953C36.5438 93.0154 36.9065 91.2039 37.1492 89.3766Z" fill="#FAC042"/>
<path d="M37.1491 89.3765L36.2288 89.0215C35.9962 90.4813 35.688 91.9292 35.3034 93.3565C35.189 93.781 34.215 96.4023 31.0685 95.3794C30.6279 95.2361 30.2593 94.942 29.9615 94.5801C30.0317 94.7967 30.1144 95.0088 30.2137 95.2146C30.5519 95.9142 31.0902 96.5776 31.8293 96.8179C34.9757 97.8409 35.9499 95.2197 36.0642 94.7951C36.5437 93.0153 36.9064 91.2037 37.1491 89.3765Z" fill="#E9B13F"/>
<path d="M30.8301 102.145C30.8301 102.145 21.312 107.615 21.5987 108.627C21.8299 109.443 24.1144 107.983 24.5358 108.865C24.9574 109.747 23.8808 111.41 24.6337 111.543C25.3866 111.676 27.2714 109.429 28.1412 109.604C29.0111 109.78 28.9745 112.384 30.0498 112.159C32.0501 111.742 32.6817 102.65 32.6817 102.65L30.8301 102.145Z" fill="#F25A29"/>
<path d="M74.0109 77.7896C74.8196 76.8611 74.6022 75.0861 73.4198 74.742C74.1067 74.515 74.8085 74.2802 75.3789 73.8353C75.9494 73.3906 76.3726 72.6871 76.2857 71.9691C76.1611 70.9419 75.0435 70.2838 74.009 70.2655C72.9744 70.2472 71.9967 70.69 71.0263 71.0491C68.8159 71.8669 66.4572 72.282 64.1004 72.2676C62.1141 72.2558 60.0126 71.8873 58.5213 70.5753L55.4376 79.0705C55.2299 78.9869 55.2183 79.3768 55.3563 79.5531C57.1156 81.8019 60.0943 82.7279 62.9359 83.0071C65.1491 83.2246 67.4532 83.112 69.4828 82.2031C70.1793 81.8911 70.8714 81.4497 71.195 80.7585C71.5184 80.0674 71.3104 79.089 70.6044 78.7993C71.8296 78.9228 73.2021 78.7183 74.0109 77.7896Z" fill="#E9B13F"/>
<path d="M26.4143 56.8785C26.8266 55.718 28.4799 55.0367 29.3599 55.8981C29.2208 55.1881 29.081 54.4615 29.1887 53.7462C29.2964 53.031 29.7018 52.317 30.3701 52.0404C31.3263 51.6448 32.4481 52.2958 32.9715 53.1882C33.495 54.0809 33.5889 55.15 33.7522 56.1718C34.1241 58.4991 34.9199 60.7581 36.0885 62.8046C37.0735 64.5296 38.4256 66.1799 40.3005 66.8356L34.4112 73.6907C34.586 73.8307 34.2519 74.032 34.0305 73.9985C31.2078 73.5687 28.9394 71.4277 27.302 69.0887C26.0265 67.2669 24.9941 65.204 24.7902 62.9894C24.7202 62.2294 24.7653 61.4096 25.209 60.7888C25.6525 60.1678 26.607 59.869 27.206 60.3419C26.4974 59.3352 26.0021 58.039 26.4143 56.8785Z" fill="#E9B13F"/>
<path d="M40.6591 60.6463C40.6591 60.6463 40.3644 64.1816 38.7704 66.0175C37.1764 67.8533 31.863 70.8978 28.6865 77.7184C26.419 82.587 28.2265 90.4086 40.4719 94.7145C50.5436 98.2561 58.2994 95.6781 60.4391 90.8552C63.9432 82.9566 59.4971 76.7393 59.3806 73.1254C59.2478 69.013 60.7086 65.9214 60.7086 65.9214L40.6591 60.6463Z" fill="#FAC042"/>
<path d="M44.9797 63.2067C43.8178 64.368 39.0296 70.0551 36.9447 75.5196C34.7508 81.2702 38.6027 86.341 43.4166 87.5599C49.4432 89.0863 53.9079 87.2467 55.2519 81.2713C56.7614 74.561 55.7976 67.0106 55.7976 67.0106L44.9797 63.2067Z" fill="#F7CD48"/>
<path d="M53.3157 69.7896C54.8019 70.5333 59.6053 72.5016 59.6053 72.5016C59.6053 72.5016 59.2336 70.8573 59.8598 68.4391C58.4364 67.7437 57.191 67.4065 55.6431 67.0691C52.9922 66.4911 50.3824 65.7244 47.8394 64.7784C46.568 64.3054 45.3131 63.7877 44.078 63.2262C43.2776 62.8623 41.7918 61.715 40.9218 62.0967C42.9529 65.1324 51.7316 68.9965 53.3157 69.7896Z" fill="#E9B13F"/>
<path d="M57.6184 41.5992C52.2014 39.6154 40.104 39.557 36.9033 48.6595C32.6512 60.7518 49.137 67.2996 49.137 67.2996C58.0709 70.6634 68.7836 69.4277 71.6028 61.2676C74.3488 53.3197 67.6944 45.2893 57.6184 41.5992Z" fill="#FAC042"/>
<path d="M38.2 46.4053C36.2818 47.1471 34.2691 47.9566 32.9942 49.5706C33.5525 49.3868 34.1694 49.387 34.7275 49.5703C34.2751 50.3183 33.9097 51.1188 33.6413 51.9509C35.4818 52.0785 37.2143 53.2509 38.0169 54.9122C38.0421 54.9642 38.0764 55.024 38.134 55.0282C38.1916 55.0323 38.2195 54.9242 38.1617 54.924L38.2 46.4053Z" fill="#FAC042"/>
<path d="M71.3449 57.0581C72.0472 58.0427 72.7493 59.0274 73.4515 60.0121C73.0995 60.1323 72.7475 60.2526 72.3954 60.373C72.9815 61.5787 73.3695 62.9326 73.5366 64.3536C71.8853 63.3189 70.1599 62.4228 68.3754 61.6733L71.3449 57.0581Z" fill="#FAC042"/>
<path d="M42.8006 54.177C42.1944 55.7426 41.9909 63.3909 49.8613 66.4247C58.0753 69.5911 62.3726 63.1716 62.3726 63.1716C63.1822 61.3439 42.8006 54.177 42.8006 54.177Z" fill="#D52F28"/>
<path d="M48.9651 47.521C48.717 48.2266 47.9438 48.5973 47.2384 48.3493C46.5329 48.1012 46.1621 47.3282 46.4102 46.6226C46.6583 45.9171 47.4313 45.5463 48.1368 45.7944C48.8423 46.0427 49.2131 46.8156 48.9651 47.521Z" fill="#231F20"/>
<path d="M47.22 47.0917C47.5313 47.2012 47.8724 47.0375 47.9819 46.7262C48.0914 46.4149 47.9277 46.0738 47.6164 45.9643C47.3051 45.8549 46.964 46.0185 46.8545 46.3298C46.7451 46.6411 46.9087 46.9822 47.22 47.0917Z" fill="white"/>
<path d="M65.8606 54.6968C65.6125 55.4024 64.8395 55.7732 64.1339 55.5251C63.4284 55.277 63.0576 54.504 63.3057 53.7984C63.5538 53.0929 64.3268 52.7221 65.0323 52.9702C65.7379 53.2183 66.1087 53.9913 65.8606 54.6968Z" fill="#231F20"/>
<path d="M64.8765 53.9014C64.767 54.2127 64.426 54.3762 64.1146 54.2667C63.8033 54.1572 63.6396 53.8163 63.7491 53.5049C63.8586 53.1936 64.1996 53.0301 64.511 53.1396C64.8223 53.2489 64.986 53.59 64.8765 53.9014Z" fill="white"/>
<path d="M48.278 44.076C48.6965 44.1841 49.0471 44.5154 49.4783 44.5462C49.547 44.5511 49.6188 44.5474 49.6807 44.5169C49.8392 44.4382 49.8665 44.2075 49.7804 44.0529C49.4511 43.4625 47.9104 43.0917 47.2638 43.1692C46.9783 43.2035 46.8079 43.2819 46.9121 43.5888C47.0887 44.1101 47.8713 43.9711 48.278 44.076Z" fill="#231F20"/>
<path d="M66.2738 51.4751C66.6782 51.6278 66.991 51.9951 67.4162 52.0723C67.4842 52.0846 67.5557 52.0886 67.6206 52.0648C67.7867 52.0039 67.8388 51.7774 67.7697 51.6145C67.5063 50.992 66.0144 50.4569 65.3634 50.4642C65.0758 50.4674 64.8979 50.5268 64.9683 50.8434C65.0876 51.3805 65.8807 51.3268 66.2738 51.4751Z" fill="#231F20"/>
<path d="M50.4923 42.0498C50.6944 42.1208 50.8049 41.807 50.6027 41.7359C50.4008 41.6649 50.2901 41.9787 50.4923 42.0498Z" fill="#F7CD48"/>
<path d="M50.4947 42.0445C51.1023 42.2361 51.5997 42.734 51.7728 43.3504C51.7969 43.4367 51.8742 43.5003 51.9677 43.4822C52.0504 43.4661 52.124 43.3742 52.0995 43.2873C51.8952 42.559 51.3296 41.9592 50.6053 41.7306C50.4013 41.6666 50.2901 41.98 50.4947 42.0445Z" fill="#F7CD48"/>
<path d="M52.2215 44.5985C52.5469 45.1369 52.5983 45.8018 52.3548 46.3826C52.2719 46.5801 52.5861 46.6897 52.6687 46.493C52.9424 45.8402 52.8878 45.061 52.5215 44.4548C52.475 44.3779 52.386 44.3352 52.2996 44.3768C52.2245 44.4126 52.1748 44.5213 52.2215 44.5985Z" fill="#F7CD48"/>
<path d="M53.6669 46.7738C53.7208 47.2782 53.6253 47.8036 53.3917 48.2546C53.3505 48.3342 53.353 48.4302 53.4335 48.486C53.4998 48.5322 53.6234 48.5246 53.665 48.4445C53.9434 47.9073 54.058 47.313 53.9936 46.7108C53.9841 46.6216 53.8816 46.5629 53.7987 46.579C53.7044 46.5972 53.6573 46.6842 53.6669 46.7738Z" fill="#F7CD48"/>
<path d="M54.6742 49.1214C54.5685 49.6044 54.4628 50.0872 54.3571 50.5701C54.3378 50.6578 54.3665 50.7498 54.4587 50.7822C54.5354 50.8092 54.6514 50.7689 54.6708 50.6805C54.7765 50.1975 54.8822 49.7147 54.9879 49.2317C55.0072 49.144 54.9784 49.0522 54.8863 49.0198C54.8095 48.993 54.6935 49.0332 54.6742 49.1214Z" fill="#F7CD48"/>
<path d="M56.6907 51.2416C56.8956 50.7294 57.2591 50.299 57.7206 49.9989C57.7959 49.9499 57.7927 49.8268 57.7398 49.7644C57.6755 49.6888 57.581 49.6961 57.5053 49.7452C56.9955 50.0766 56.6024 50.5676 56.3768 51.1312C56.2974 51.33 56.6114 51.4401 56.6907 51.2416Z" fill="#F7CD48"/>
<path d="M58.3654 51.8606C58.8354 51.3406 59.3055 50.8207 59.7756 50.3008C59.8358 50.234 59.8011 50.1157 59.7339 50.0691C59.6521 50.0125 59.5629 50.0439 59.5023 50.1108C59.0322 50.6308 58.5621 51.1507 58.092 51.6707C58.0319 51.7373 58.0667 51.8557 58.1338 51.9023C58.2155 51.959 58.3048 51.9275 58.3654 51.8606Z" fill="#F7CD48"/>
<path d="M61.5528 49.996C62.3134 49.3431 63.2692 48.9557 64.2686 48.8851C64.3589 48.8787 64.415 48.7711 64.4004 48.6902C64.3828 48.5933 64.2947 48.5522 64.2054 48.5584C63.1535 48.6327 62.1374 49.0557 61.3375 49.7421C61.1749 49.882 61.3903 50.1355 61.5528 49.996Z" fill="#F7CD48"/>
<path d="M65.1498 48.3226C65.6877 48.1386 66.2575 48.0384 66.8254 48.0259C66.9152 48.0239 66.9962 47.9668 67.0029 47.8714C67.0088 47.788 66.9387 47.6919 66.8484 47.694C66.2184 47.7081 65.602 47.8188 65.006 48.0227C64.9209 48.0518 64.8923 48.1703 64.9279 48.2445C64.9706 48.3332 65.0645 48.3515 65.1498 48.3226Z" fill="#F7CD48"/>
<path d="M62.2602 47.6761C63.0411 47.3006 63.8585 47.0106 64.7017 46.8113C64.9094 46.7622 64.8477 46.4353 64.6385 46.4849C63.7686 46.6903 62.9217 46.9891 62.1163 47.3764C61.9233 47.4689 62.067 47.7689 62.2602 47.6761Z" fill="#F7CD48"/>
<path d="M60.4759 49.0103C60.6918 48.5499 61.0049 48.1377 61.3856 47.8014C61.5462 47.6595 61.3309 47.4058 61.1702 47.5476C60.7432 47.9252 60.4039 48.3844 60.162 48.9C60.1238 48.9814 60.1851 49.0843 60.2638 49.112C60.3558 49.1443 60.4376 49.092 60.4759 49.0103Z" fill="#F7CD48"/>
<path d="M57.6924 48.8247C58.1007 48.2079 58.3706 47.5164 58.495 46.7878C58.5102 46.6994 58.4236 46.6163 58.3404 46.6105C58.2435 46.6036 58.1783 46.6761 58.1631 46.7649C58.0491 47.4327 57.7928 48.0706 57.4192 48.635C57.3009 48.8134 57.5741 49.0032 57.6924 48.8247Z" fill="#F7CD48"/>
<path d="M56.0441 47.5329C56.3394 46.8053 56.4114 45.9979 56.2525 45.2291C56.2092 45.0198 55.8823 45.0818 55.926 45.2923C56.0737 46.0073 56.005 46.7463 55.7304 47.4225C55.6499 47.6211 55.9639 47.7308 56.0441 47.5329Z" fill="#F7CD48"/>
<path d="M54.8193 45.1341C54.8195 44.4095 54.6396 43.6919 54.2872 43.0581C54.1835 42.8715 53.8831 43.0143 53.9873 43.2018C54.3115 43.7853 54.4876 44.443 54.4873 45.111C54.4873 45.2007 54.5477 45.2817 54.6417 45.2883C54.7268 45.2945 54.8193 45.2242 54.8193 45.1341Z" fill="#F7CD48"/>
<path d="M53.3829 42.0597C53.3419 41.6971 53.2079 41.3542 53.0064 41.0513C52.9581 40.9786 52.8327 40.976 52.7719 41.0321C52.6993 41.0993 52.7011 41.1889 52.7527 41.2666C52.7702 41.2927 52.743 41.2508 52.7539 41.268C52.7594 41.277 52.7652 41.2859 52.7707 41.2949C52.7807 41.311 52.7905 41.3274 52.8 41.3438C52.8202 41.3784 52.8393 41.4138 52.8574 41.4497C52.8945 41.5232 52.9273 41.5992 52.9556 41.6767C52.9585 41.6846 52.9613 41.6926 52.9642 41.7005C52.9703 41.7181 52.972 41.7226 52.9651 41.7022C52.972 41.7221 52.9779 41.7426 52.9839 41.7628C52.9954 41.8013 53.0055 41.8402 53.0146 41.8793C53.0333 41.9596 53.047 42.041 53.0563 42.1229C53.0661 42.2095 53.1684 42.2744 53.2512 42.2547C53.3443 42.2322 53.3934 42.1525 53.3829 42.0597Z" fill="#F7CD48"/>
<path d="M56.3286 43.7693C56.2153 43.205 56.1018 42.6407 55.9884 42.0765C55.9463 41.867 55.6194 41.9292 55.6617 42.1395C55.7751 42.7037 55.8886 43.268 56.002 43.8323C56.0441 44.0421 56.371 43.9799 56.3286 43.7693Z" fill="#F7CD48"/>
<path d="M58.274 45.2353C58.2657 44.6338 58.5494 44.0655 59.0362 43.7118C59.1088 43.6589 59.1103 43.5421 59.0554 43.4773C58.9937 43.4043 58.8939 43.4051 58.8209 43.4581C58.2702 43.8584 57.9326 44.5313 57.942 45.2121C57.9434 45.3019 58.0016 45.3831 58.0966 45.3896C58.1805 45.3958 58.2753 45.3256 58.274 45.2353Z" fill="#F7CD48"/>
<path d="M60.1631 45.7275C60.6796 45.2653 61.3105 44.9474 61.9901 44.8104C62.1997 44.7682 62.1375 44.4412 61.9271 44.4838C61.1939 44.6317 60.5053 44.975 59.9479 45.474C59.7883 45.6167 60.0035 45.8703 60.1631 45.7275Z" fill="#F7CD48"/>
<path d="M62.5872 46.2284C62.789 46.2994 62.8997 45.9857 62.6975 45.9146C62.4955 45.8438 62.3848 46.1572 62.5872 46.2284Z" fill="#F7CD48"/>
<path d="M62.7016 46.1851C63.2614 45.9917 63.8575 45.9069 64.4487 45.9294C64.6619 45.9376 64.6864 45.6057 64.4716 45.5975C63.8195 45.5727 63.1739 45.6722 62.5577 45.8852C62.4727 45.9146 62.444 46.0325 62.4797 46.1069C62.5223 46.1959 62.6163 46.2147 62.7016 46.1851Z" fill="#F7CD48"/>
<path d="M46.4155 57.7106C45.8368 59.0414 46.2906 60.6544 47.2318 61.7587C48.1728 62.8631 49.5215 63.5373 50.8844 64.0355C52.2036 64.5176 53.65 64.8632 55.0037 64.4887C56.481 64.0802 57.6691 62.7711 57.9329 61.2612L46.4155 57.7106Z" fill="#A4201F"/>
<path d="M41.9512 53.2109C40.9523 54.8435 46.74 59.5958 52.7557 61.6613C58.4868 63.6291 63.6321 64.1536 64.3424 62.4819C65.0527 60.8106 62.6144 59.5278 60.3317 57.3883C58.0491 55.2487 58.4009 53.0932 55.151 52.1271C51.9011 51.161 51.64 52.9435 48.454 52.4059C45.2682 51.8684 43.2736 51.0496 41.9512 53.2109Z" fill="#F25A29"/>
<path d="M46.7529 53.0345C46.4234 52.9653 46.0849 52.8959 45.7522 52.9486C45.4197 53.0011 45.0891 53.2031 44.9822 53.5224C44.8113 54.0333 45.2551 54.5308 45.6775 54.8651C46.188 55.2689 46.728 55.6351 47.2922 55.9599C47.5953 56.1342 47.9124 56.2993 48.258 56.3535C48.9616 56.4642 49.645 56.1045 50.2648 55.7536C50.7318 55.4893 51.2371 55.1749 51.3875 54.6599C51.4187 54.5532 51.4321 54.4358 51.3917 54.3323C51.3274 54.1681 51.1504 54.0827 50.9874 54.0153C49.6571 53.4653 48.1601 53.33 46.7529 53.0345Z" fill="#F77E41"/>
<path d="M56.0824 41.0582C56.0824 41.0582 74.6239 28.0424 74.4513 28.2708C74.2788 28.4991 68.7532 48.9988 68.7532 48.9988C68.7532 48.9988 65.6742 50.5181 60.8928 47.6774C56.1114 44.8368 56.0824 41.0582 56.0824 41.0582Z" fill="#E5E5D1"/>
<path d="M65.9766 38.5615C65.1671 37.1262 64.9236 35.8699 64.9415 34.8517C64.0707 35.4606 63.204 36.0671 62.3725 36.6494C62.0941 37.9313 61.8289 40.5268 63.1102 42.6336C65.1919 46.0557 68.1125 46.9174 69.2578 47.1289C69.5727 45.9634 70.0103 44.3453 70.4992 42.5422C69.0666 42.0182 67.3104 40.927 65.9766 38.5615Z" fill="#D52F28"/>
<path d="M70.7067 31.9753C71.1464 32.977 71.9 33.7895 72.7104 34.428C73.6436 31.0266 74.3897 28.3529 74.4514 28.2714C74.5045 28.201 72.7827 29.3868 70.3745 31.0616C70.4585 31.3514 70.5665 31.6554 70.7067 31.9753Z" fill="#D52F28"/>
<path d="M67.5887 48.2813C65.9218 47.6953 63.5691 46.381 61.7815 43.442C60.6652 41.6067 60.5272 39.5322 60.6079 38.1149C60.6123 38.0376 60.618 37.9569 60.6248 37.8737C58.0144 39.7026 56.0826 41.0587 56.0826 41.0587C56.0826 41.0587 56.1116 44.8373 60.8929 47.6778C65.6743 50.5186 68.7534 48.9992 68.7534 48.9992C68.7534 48.9992 68.7883 48.8699 68.8524 48.6324C68.512 48.5634 68.0806 48.4543 67.5887 48.2813Z" fill="#D52F28"/>
<path d="M69.2824 32.6001C69.1913 32.3926 69.111 32.1895 69.0397 31.991C68.2982 32.5077 67.5172 33.0527 66.721 33.6087C66.4477 34.3845 66.2352 35.8521 67.3323 37.7976C68.3974 39.686 69.7563 40.5865 70.9088 41.0344C71.3539 39.3956 71.8228 37.6721 72.269 36.0402C71.1057 35.2248 69.9391 34.0968 69.2824 32.6001Z" fill="#D52F28"/>
<path d="M30.245 36.3342C30.4826 34.7682 31.276 32.885 32.1753 31.5814C33.0746 30.2779 34.6074 29.3115 36.1824 29.4774C37.7575 29.6433 39.1619 31.2163 38.8093 32.7605C38.7234 33.137 38.3826 33.8886 37.4703 33.9218C36.3741 33.9619 35.2137 33.4762 34.7097 32.502C34.4616 32.0226 34.3803 31.4747 34.347 30.9362C34.2511 29.3857 34.5279 27.8136 35.1477 26.3892C35.5565 25.4501 36.1574 24.5334 37.0746 24.0779C37.9918 23.6222 39.2844 23.7766 39.8832 24.6076C40.1082 24.9198 40.1636 25.397 40.0295 25.6317C39.7161 26.1799 38.936 26.1401 38.451 25.763C37.9659 25.3861 37.7927 24.7391 37.6808 24.135C37.4881 23.0938 37.6777 22.0574 38.0213 21.0559C38.4881 19.6948 39.6693 19.0125 39.6693 19.0125C39.6693 19.0125 40.0503 19.505 40.3679 19.5977C39.2884 20.0753 38.8769 20.4096 38.5082 21.5312C38.1395 22.6525 38.5786 25.8539 39.2988 25.5124C39.999 25.0057 38.3583 24.0916 37.3723 24.6718C36.8478 24.9804 36.4412 25.4441 36.1432 25.9747C35.162 27.7223 34.6224 29.882 35.3937 31.7318C35.5981 32.2219 35.9125 32.6967 36.3891 32.9306C36.8658 33.1645 37.5261 33.0764 37.813 32.6298C38.0546 32.254 37.9697 31.7404 37.7276 31.365C37.1219 30.426 35.716 30.2775 34.7289 30.8017C33.7417 31.3258 33.1142 32.3418 32.6835 33.3727C31.2054 36.912 31.6717 41.2836 34.1509 44.2104C33.8187 43.8183 31.8228 43.8955 31.8228 43.8955C31.8228 43.8955 30.8446 42.9644 30.512 41.8262C29.9963 40.0605 29.9802 38.0803 30.245 36.3342Z" fill="#62A344"/>
<path d="M91.6505 56.0289C91.2043 54.5093 90.1646 52.75 89.0978 51.5795C88.0309 50.4089 86.3822 49.6576 84.8439 50.0343C83.3056 50.4108 82.1258 52.1584 82.6831 53.6409C82.8189 54.0024 83.2578 54.7014 84.1663 54.6114C85.2578 54.5033 86.3423 53.866 86.7107 52.8327C86.892 52.3243 86.8988 51.7705 86.8593 51.2321C86.7456 49.6829 86.2595 48.1623 85.4535 46.8344C84.9221 45.9588 84.2031 45.1315 83.2329 44.8036C82.2627 44.4755 81.0027 44.8026 80.5211 45.7064C80.3402 46.0459 80.3497 46.5265 80.5141 46.7408C80.8982 47.242 81.666 47.0974 82.0959 46.6585C82.5258 46.2194 82.6104 45.5552 82.6397 44.9415C82.6905 43.8838 82.3631 42.8825 81.8878 41.9361C81.2419 40.6501 79.9795 40.1334 79.9795 40.1334C79.9795 40.1334 79.6682 40.6726 79.3661 40.8073C80.5001 41.1354 80.953 41.4111 81.4692 42.4729C81.9855 43.5344 81.9815 46.7659 81.2219 46.5243C80.46 46.1164 81.9625 44.9899 83.0176 45.4321C83.5787 45.6675 84.0442 46.0719 84.4109 46.5576C85.6184 48.157 86.4439 50.2246 85.9288 52.1614C85.7923 52.6745 85.5447 53.1873 85.104 53.4831C84.6631 53.7791 83.997 53.7808 83.6524 53.3767C83.3626 53.0369 83.3774 52.5166 83.5666 52.112C84.0405 51.0999 85.4136 50.7636 86.4621 51.15C87.5107 51.5363 88.2696 52.4585 88.8351 53.4221C90.7764 56.7301 90.9029 61.1247 88.8404 64.3587C89.1168 63.9253 91.1051 63.7329 91.1051 63.7329C91.1051 63.7329 91.949 62.6786 92.1254 61.506C92.399 59.6877 92.1481 57.7235 91.6505 56.0289Z" fill="#F25A29"/>
<path d="M87.6109 33.1109C88.4245 32.6697 89.3019 31.8597 89.84 31.1067C90.378 30.3536 90.6049 29.3194 90.2009 28.4866C89.7971 27.6539 88.6538 27.1943 87.8753 27.6945C87.6854 27.8164 87.3399 28.1529 87.5027 28.661C87.6983 29.2714 88.1955 29.8127 88.831 29.8964C89.1437 29.9375 89.461 29.8736 89.7637 29.7849C90.6349 29.5298 91.444 29.0655 92.1039 28.4424C92.539 28.0314 92.9235 27.519 92.9918 26.9245C93.0601 26.3298 92.7187 25.6502 92.1431 25.4859C91.9269 25.4241 91.6536 25.4886 91.5513 25.6088C91.3121 25.89 91.4889 26.3107 91.7924 26.5025C92.0959 26.6943 92.4858 26.6611 92.8402 26.6026C93.4506 26.5019 93.9826 26.1919 94.4649 25.8043C95.1204 25.2775 95.2609 24.493 95.2609 24.493C95.2609 24.493 94.9146 24.3814 94.8006 24.2251C94.7522 24.9132 94.6502 25.2057 94.107 25.631C93.5637 26.0562 91.7171 26.4503 91.7618 25.9867C91.9015 25.5012 92.7294 26.2216 92.6062 26.8787C92.5407 27.2283 92.3665 27.5438 92.1341 27.8129C91.3683 28.6991 90.2884 29.4244 89.1186 29.3676C88.8088 29.3526 88.4854 29.2741 88.2623 29.0584C88.0392 28.8429 87.9565 28.4627 88.145 28.2162C88.3036 28.0089 88.6028 27.9535 88.857 28.0121C89.4935 28.1585 89.854 28.9019 89.7619 29.5484C89.6699 30.1949 89.236 30.7416 88.7548 31.183C87.1029 32.6979 84.6076 33.3094 82.507 32.5276C82.7885 32.6323 83.1422 33.7448 83.1422 33.7448C83.1422 33.7448 83.8481 34.0975 84.5399 34.0545C85.6123 33.9875 86.7038 33.6032 87.6109 33.1109Z" fill="#F7CD48"/>
<path d="M48.7526 30.2357L48.4944 28.8534L47.2092 28.2826L48.4441 27.6098L48.59 26.2111L49.6113 27.1776L50.9865 26.8841L50.383 28.1542L51.0871 29.3713L49.6927 29.1899L48.7526 30.2357Z" fill="#F7CD48"/>
<path d="M62.9182 23.9128L59.3744 22.5181L56.2166 24.647L56.4476 20.8455L53.4473 18.5003L57.1339 17.5454L58.4375 13.9671L60.4848 17.1783L64.2907 17.3122L61.8693 20.2517L62.9182 23.9128Z" fill="#F7CD48"/>
<path d="M78.6613 61.7697L80.0988 60.0893L79.5296 57.9525L81.5719 58.8003L83.4282 57.5986L83.2528 59.803L84.9693 61.1972L82.8188 61.7116L82.0233 63.7748L80.8695 61.8886L78.6613 61.7697Z" fill="#F7CD48"/>
<path d="M83.6025 21.3974L85.4221 20.1697L85.4425 17.9749L87.1722 19.3261L89.266 18.6672L88.5155 20.7298L89.7893 22.5175L87.5955 22.4412L86.2889 24.2049L85.6837 22.095L83.6025 21.3974Z" fill="#F25A29"/>
<path d="M100.914 48.6028L99.4121 45.241L95.7916 44.5719L98.5249 42.1051L98.0425 38.455L101.233 40.2922L104.556 38.7055L103.794 42.3079L106.33 44.9772L102.669 45.3663L100.914 48.6028Z" fill="#F7CD48"/>
<path d="M34.6361 18.8234L33.1593 17.6663L31.3689 18.2267L32.0131 16.4648L30.9267 14.9351L32.8017 15.0033L33.9206 13.4975L34.4352 15.3016L36.2132 15.9006L34.6563 16.9474L34.6361 18.8234Z" fill="#F25A29"/>
</svg>
