<svg width="119" height="133" viewBox="0 0 119 133" fill="none" xmlns="http://www.w3.org/2000/svg">
<path d="M61.3133 132.979C46.7198 132.979 34.8887 130.092 34.8887 126.531C34.8887 122.97 46.7198 120.084 61.3133 120.084C75.9073 120.084 87.7382 122.97 87.7382 126.531C87.7382 130.092 75.9073 132.979 61.3133 132.979Z" fill="url(#paint0_radial_83_1994)"/>
<path fill-rule="evenodd" clip-rule="evenodd" d="M61.2908 65.5253C70.0177 67.871 79.474 84.2596 79.474 94.3953C79.474 104.53 72.0872 109.799 61.2908 109.799C50.4944 109.799 43.0176 105.168 43.0176 95.0328C43.0176 84.8971 54.2529 68.248 61.2908 65.5253Z" fill="white"/>
<path fill-rule="evenodd" clip-rule="evenodd" d="M37.4907 0.698994C25.8585 7.22689 47.3992 27.52 51.1502 36.9606C53.1669 42.0359 56.702 39.6086 57.5993 33.4317C59.4487 20.6905 46.7744 -4.51071 37.4907 0.698994Z" fill="white"/>
<path fill-rule="evenodd" clip-rule="evenodd" d="M40.2701 7.51748C33.6854 11.3686 48.7137 27.1718 51.8419 36.0132C52.8475 38.8531 55.1672 37.6179 55.0198 34.6545C54.527 24.7081 46.7202 3.74593 40.2701 7.51748Z" fill="#F7C8E7"/>
<path fill-rule="evenodd" clip-rule="evenodd" d="M85.7398 1.7361C97.3719 8.264 75.8318 28.5565 72.0801 37.9977C70.0641 43.0724 66.5284 40.645 65.6318 34.4681C63.7823 21.727 76.4556 -3.47428 85.7398 1.7361Z" fill="white"/>
<path fill-rule="evenodd" clip-rule="evenodd" d="M82.9601 8.55361C89.5442 12.404 74.5163 28.2079 71.3877 37.0493C70.3828 39.8893 68.0625 38.654 68.2098 35.6907C68.7027 25.7442 76.5104 4.78205 82.9601 8.55361Z" fill="#F7C8E7"/>
<path fill-rule="evenodd" clip-rule="evenodd" d="M61.1758 33.3013C73.1766 33.3013 81.8583 43.7947 82.905 54.0756C83.9511 64.3559 73.1766 70.9194 61.1758 70.9194C49.1752 70.9194 38.1019 64.8042 39.4471 54.0756C40.7921 43.3464 49.1752 33.3013 61.1758 33.3013Z" fill="white"/>
<path fill-rule="evenodd" clip-rule="evenodd" d="M64.1128 52.9395C64.1128 54.6841 62.3134 55.5972 61.2413 55.5972C60.1692 55.5972 58.2402 54.6841 58.2402 52.9395C58.2402 51.1586 64.1128 51.16 64.1128 52.9395Z" fill="#36404B"/>
<path fill-rule="evenodd" clip-rule="evenodd" d="M71.2019 52.4881C73.5984 53.1325 75.2476 54.7441 74.8864 56.0876C74.5251 57.4312 72.2898 57.9981 69.8933 57.3537C67.4968 56.7094 65.8476 55.0971 66.2088 53.7542C66.5708 52.4107 68.8054 51.8438 71.2019 52.4881Z" fill="#F7C8E7"/>
<path fill-rule="evenodd" clip-rule="evenodd" d="M51.1506 52.4881C48.7546 53.1325 47.1052 54.7441 47.4667 56.0876C47.8279 57.4312 50.0634 57.9981 52.4598 57.3537C54.8556 56.7094 56.5056 55.0971 56.1443 53.7542C55.7824 52.4107 53.5477 51.8438 51.1506 52.4881Z" fill="#F7C8E7"/>
<path fill-rule="evenodd" clip-rule="evenodd" d="M67.9884 42.8236C69.1017 43.1231 69.8681 43.8717 69.7001 44.4955C69.5322 45.1193 68.6554 45.0274 67.5429 44.7279C66.4296 44.4283 65.5022 44.0355 65.6701 43.4117C65.8381 42.7879 66.8759 42.5247 67.9884 42.8236Z" fill="#F7C8E7"/>
<path fill-rule="evenodd" clip-rule="evenodd" d="M54.3633 42.8236C53.2507 43.1231 52.485 43.8717 52.653 44.4955C52.8202 45.1193 53.697 45.0274 54.8095 44.7279C55.9228 44.4283 56.8502 44.0355 56.6823 43.4117C56.515 42.7879 55.4765 42.5247 54.3633 42.8236Z" fill="#F7C8E7"/>
<path fill-rule="evenodd" clip-rule="evenodd" d="M51.4095 106.106C55.7103 109.273 55.4498 117.847 53.0616 119.732C51.4692 120.989 44.8208 120.362 43.7155 123.653C42.1049 128.444 51.96 128.285 55.4614 127.212C58.2486 126.358 60.2695 125.336 60.0021 123.76C58.6353 115.668 58.7751 109.64 62.1655 109.707C60.8336 105.124 53.8533 102.024 51.4095 106.106Z" fill="white"/>
<path fill-rule="evenodd" clip-rule="evenodd" d="M71.0806 106.106C66.7805 109.273 67.0404 117.847 69.4286 119.732C71.021 120.989 77.6688 120.362 78.7752 123.653C80.3854 128.444 70.5302 128.285 67.0287 127.212C64.2415 126.358 62.2207 125.336 62.4873 123.76C63.8556 115.668 63.9536 109.645 60.5625 109.711C61.8944 105.129 68.6375 102.024 71.0806 106.106Z" fill="white"/>
<path d="M55.4817 57.7911C56.9281 59.1586 59.1251 59.8146 61.3529 59.8174C63.5609 59.8153 65.8182 59.1689 67.4312 57.8062C67.6046 57.6595 67.6258 57.4004 67.4791 57.2269C67.3324 57.0535 67.0726 57.0322 66.8992 57.1789C65.4871 58.3799 63.4012 58.9969 61.3529 58.9948C59.2848 58.9975 57.2743 58.3655 56.048 57.1947C55.8834 57.0377 55.623 57.0446 55.4667 57.2091C55.3104 57.3743 55.3165 57.6341 55.4817 57.7911Z" fill="#36404B"/>
<path d="M60.7646 53.6003V59.4036C60.7646 59.6312 60.949 59.8149 61.1759 59.8149C61.4035 59.8149 61.5872 59.6312 61.5872 59.4036V53.6003C61.5872 53.3734 61.4035 53.189 61.1759 53.189C60.949 53.189 60.7646 53.3734 60.7646 53.6003Z" fill="#36404B"/>
<path d="M70.2458 48.8998C69.6981 48.2946 68.9536 47.96 68.2071 47.9594C67.4702 47.9559 66.7278 48.3 66.2405 48.9931C66.1095 49.1782 66.1534 49.4352 66.3385 49.5661C66.5236 49.6978 66.7806 49.6539 66.9116 49.4688C67.255 48.9896 67.7136 48.7854 68.2071 48.7819C68.7055 48.7813 69.236 49.0088 69.6364 49.4517C69.7885 49.6203 70.0483 49.6333 70.217 49.4811C70.3856 49.3283 70.3986 49.0685 70.2458 48.8998Z" fill="#36404B"/>
<path d="M53.1355 49.7208C53.5352 49.2485 54.0815 49.0031 54.5956 49.0037C55.0693 49.0065 55.5135 49.1977 55.859 49.6488C55.9961 49.8298 56.2538 49.8647 56.4348 49.7276C56.6157 49.5905 56.6514 49.3321 56.5143 49.1511C56.0235 48.4999 55.3058 48.1777 54.5956 48.1812C53.8217 48.1818 53.0546 48.5438 52.5076 49.1888C52.3609 49.3623 52.3822 49.6221 52.5556 49.7688C52.729 49.9154 52.9881 49.8942 53.1355 49.7208Z" fill="#36404B"/>
<path fill-rule="evenodd" clip-rule="evenodd" d="M38.1656 73.104C36.4996 72.7997 34.7724 72.509 33.1292 71.6309C29.3874 69.63 27.5435 69.6526 27.1445 72.4706C26.9113 74.1186 26.7696 76.1695 31.9925 76.9105C33.4226 77.1141 35.5886 77.6036 38.1158 77.4343C40.9801 77.2423 40.7878 73.5839 38.1656 73.104Z" fill="white"/>
<path fill-rule="evenodd" clip-rule="evenodd" d="M33.8218 71.9654C32.1397 70.6177 31.2927 68.2823 30.1236 69.061C29.4239 69.5271 30.5938 70.9269 31.6858 72.2704C34.2376 75.4106 35.5042 73.3137 33.8218 71.9654Z" fill="white"/>
<path fill-rule="evenodd" clip-rule="evenodd" d="M54.5808 69.9844C51.7113 70.5869 40.4898 73.115 34.1578 71.3149C33.8333 73.309 33.1215 75.6664 32.9834 77.7455C38.6124 78.7943 48.7964 79.8904 55.4582 78.8354C63.8417 77.5076 61.4658 68.5387 54.5808 69.9844Z" fill="white"/>
<mask id="mask0_83_1994" style="mask-type:luminance" maskUnits="userSpaceOnUse" x="26" y="70" width="4" height="6">
<path d="M28.0319 75.5605C27.9031 75.5585 27.7762 75.5372 27.653 75.4954C26.696 75.1705 26.323 73.7227 26.8192 72.262C27.2484 71 28.1867 70.1411 29.0513 70.1411C29.1354 70.1411 29.2184 70.1493 29.3006 70.1658C29.2974 70.1877 29.2939 70.2103 29.2907 70.2323C29.2454 70.2302 29.201 70.2295 29.1573 70.2295C28.0078 70.2295 27.3612 70.9349 27.1437 72.4711C27.0007 73.4808 26.8923 74.642 28.0319 75.5605Z" fill="white"/>
</mask>
<g mask="url(#mask0_83_1994)">
<path d="M26.3232 75.5605H29.3008V70.1409H26.3232V75.5605Z" fill="#2F758A"/>
</g>
<path d="M28.0534 75.5605C28.0464 75.5605 28.0397 75.5599 28.0327 75.5599C26.8931 74.6413 27.0015 73.4801 27.1445 72.4704C27.362 70.9342 28.0086 70.2288 29.1582 70.2288C29.2018 70.2288 29.2462 70.2295 29.2915 70.2316C29.0368 71.9391 28.5699 73.8071 28.0584 75.5605C28.0568 75.5605 28.0549 75.5605 28.0534 75.5605Z" fill="#C2C4C2"/>
<path d="M28.0586 75.5605C28.57 73.8071 29.037 71.9391 29.2917 70.2316C29.2949 70.2096 29.2984 70.187 29.3016 70.1651C29.3522 70.1754 29.4023 70.1884 29.4518 70.2055C30.4082 70.5311 30.7816 71.9782 30.2851 73.439C29.8572 74.6989 28.9216 75.5564 28.0586 75.5605Z" fill="#52C2B6"/>
<path d="M93.1801 70.2622C93.1711 70.2012 93.1622 70.1395 93.1533 70.0785C93.3267 70.097 93.5016 70.1477 93.6736 70.2286C93.6633 70.2286 93.653 70.2286 93.6428 70.2286C93.4968 70.2286 93.3425 70.2403 93.1801 70.2622Z" fill="#2F758A"/>
<path fill-rule="evenodd" clip-rule="evenodd" d="M84.6357 73.104C86.3014 72.7997 88.0282 72.509 89.672 71.6309C93.4134 69.63 95.2573 69.6526 95.6563 72.4706C95.89 74.1186 96.0319 76.1695 90.8085 76.9105C89.3786 77.1141 87.2124 77.6036 84.6851 77.4343C81.8211 77.2423 82.013 73.5839 84.6357 73.104Z" fill="white"/>
<path fill-rule="evenodd" clip-rule="evenodd" d="M88.9807 71.9654C90.6629 70.6177 91.5094 68.2823 92.6789 69.061C93.3781 69.5271 92.2086 70.9269 91.1167 72.2704C88.5653 75.4106 87.2985 73.3137 88.9807 71.9654Z" fill="white"/>
<path fill-rule="evenodd" clip-rule="evenodd" d="M68.2207 69.9844C71.0908 70.5869 82.3122 73.115 88.6434 71.3149C88.9683 73.309 89.6799 75.6664 89.8183 77.7455C84.1898 78.7943 74.0048 79.8904 67.3433 78.8354C58.9597 77.5076 61.3356 68.5387 68.2207 69.9844Z" fill="white"/>
<path d="M94.3741 75.438C93.8792 73.7311 93.4309 71.9221 93.1807 70.2626C93.3431 70.2406 93.4974 70.229 93.6434 70.229C93.6537 70.229 93.6639 70.229 93.6742 70.229C94.3199 70.532 94.9245 71.2497 95.2447 72.1922C95.7416 73.653 95.3681 75.1007 94.4118 75.4257C94.3988 75.4305 94.3864 75.4339 94.3741 75.438Z" fill="#C2C4C2"/>
<path d="M94.0131 75.4917C93.1481 75.4917 92.2103 74.6328 91.7812 73.3701C91.2849 71.91 91.6578 70.4623 92.6148 70.1367C92.7443 70.0928 92.8787 70.0715 93.0144 70.0715C93.061 70.0715 93.1076 70.0743 93.1549 70.0791C93.1638 70.1401 93.1727 70.2018 93.1816 70.2628C93.4319 71.9224 93.8802 73.7314 94.3751 75.4382C94.2565 75.4739 94.1358 75.4917 94.0131 75.4917Z" fill="#52C2B6"/>
<path fill-rule="evenodd" clip-rule="evenodd" d="M25.0418 63.8664C23.5725 64.1706 21.7265 63.686 21.6264 64.6577C21.566 65.2402 23.0531 65.1373 24.2579 65.1474C27.0736 65.1711 26.511 63.5615 25.0418 63.8664Z" fill="white"/>
<path fill-rule="evenodd" clip-rule="evenodd" d="M18.4795 49.1186C12.5989 48.095 4.31676 41.361 5.84771 39.2803C7.40092 37.1705 16.9809 43.92 18.4795 49.1186Z" fill="#63CBC7"/>
<path fill-rule="evenodd" clip-rule="evenodd" d="M18.4795 49.1187C14.3147 53.6552 7.26703 52.7887 6.75266 50.2574C6.23088 47.6903 13.0222 47.8545 18.4795 49.1187Z" fill="#63CBC7"/>
<path fill-rule="evenodd" clip-rule="evenodd" d="M18.4795 49.1187C17.3904 43.8451 15.7512 38.7723 18.3338 38.8158C20.9532 38.8597 22.0075 44.3258 18.4795 49.1187Z" fill="#95D669"/>
<path fill-rule="evenodd" clip-rule="evenodd" d="M18.4794 49.1188C12.5987 48.0951 4.31694 41.3608 5.84756 39.2804C8.89968 42.141 13.9617 46.1736 18.4794 49.1188Z" fill="#71CFD0"/>
<path fill-rule="evenodd" clip-rule="evenodd" d="M18.4787 49.119C15.0265 50.2256 10.6755 51.2503 6.75182 50.2577C6.23003 47.6906 13.0213 47.8548 18.4787 49.119Z" fill="#71CFD0"/>
<path fill-rule="evenodd" clip-rule="evenodd" d="M18.4795 49.1187C17.3904 43.8451 15.7512 38.7723 18.3338 38.8158C20.9532 38.8597 22.0075 44.3258 18.4795 49.1187Z" fill="#63CBC7"/>
<path fill-rule="evenodd" clip-rule="evenodd" d="M18.4795 49.1187C16.0244 43.4654 15.7512 38.7723 18.3338 38.8158C17.7054 41.5975 17.6002 44.0259 18.4795 49.1187Z" fill="#71CFD0"/>
<path fill-rule="evenodd" clip-rule="evenodd" d="M55.6262 86.7194C53.9161 88.3796 38.7199 78.4349 29.0452 70.5464C21.6133 64.4867 15.1114 57.6832 15.6787 52.2569C15.8271 50.8336 16.9351 50.1985 18.1676 49.0024C18.3669 48.8092 18.5588 48.6159 18.7467 48.4274C19.8213 47.346 20.7522 46.4084 22.0936 46.3817C27.4572 46.2772 33.9129 52.7045 39.6306 60.0433C47.3279 69.9241 57.5501 84.8529 55.6262 86.7194Z" fill="#F57C41"/>
<path fill-rule="evenodd" clip-rule="evenodd" d="M26.3442 47.4658C26.0123 48.1978 25.5202 48.9307 24.935 49.6359C23.8938 50.8903 22.5491 52.0671 21.3082 52.9829C21.0825 53.1498 20.7645 53.1023 20.5975 52.8766C20.4309 52.6513 20.4788 52.3329 20.7041 52.1663C21.888 51.2927 23.1676 50.1736 24.1539 48.985C24.6834 48.3468 25.1253 47.6925 25.4153 47.0537C25.7233 47.1754 26.0329 47.313 26.3442 47.4658Z" fill="#EF6E2F"/>
<path fill-rule="evenodd" clip-rule="evenodd" d="M30.0895 54.3543C30.1164 54.075 30.3654 53.8713 30.645 53.8986C30.9239 53.9259 31.1283 54.1748 31.1006 54.4541C30.9971 55.525 29.6732 57.3629 28.065 58.9873C26.5061 60.5624 24.6537 61.977 23.3781 62.323C23.1072 62.3976 22.8276 62.2381 22.7528 61.9675C22.6786 61.697 22.8378 61.4171 23.1083 61.3422C24.2112 61.0427 25.8943 59.7381 27.3436 58.2732C28.8088 56.7932 30.0085 55.1907 30.0895 54.3543Z" fill="#EF6E2F"/>
<path fill-rule="evenodd" clip-rule="evenodd" d="M26.4726 68.3803C26.6891 68.2339 26.9053 68.0757 27.1205 67.9077C28.3381 66.9573 29.4957 65.712 30.404 64.5548C30.5777 64.3345 30.8971 64.2964 31.1174 64.4701C31.338 64.6435 31.3761 64.9629 31.2027 65.1828C30.2499 66.396 29.0333 67.7044 27.7475 68.7081C27.5887 68.8319 27.4288 68.9513 27.2682 69.0653C27.0008 68.8377 26.7353 68.6093 26.4726 68.3803Z" fill="#EF6E2F"/>
<path fill-rule="evenodd" clip-rule="evenodd" d="M40.5266 61.2082C39.4999 62.4184 38.2013 63.5504 36.9986 64.4374C36.7732 64.604 36.4548 64.5568 36.2879 64.3312C36.1213 64.1059 36.1692 63.7875 36.3945 63.6208C37.5787 62.7469 38.8587 61.6275 39.8446 60.4392L39.8935 60.3802C40.1053 60.6554 40.3165 60.9313 40.5266 61.2082Z" fill="#EF6E2F"/>
<path fill-rule="evenodd" clip-rule="evenodd" d="M41.0191 67.2275C41.0461 66.9482 41.295 66.7438 41.5743 66.7715C41.8536 66.7991 42.0583 67.0477 42.0306 67.327C41.9467 68.1935 40.893 69.6621 39.6153 70.9532C38.3795 72.2018 36.9065 73.324 35.8859 73.6012C35.6154 73.6754 35.3355 73.5162 35.2609 73.2454C35.1867 72.9749 35.3456 72.6953 35.6164 72.6207C36.464 72.3904 37.767 71.3775 38.8942 70.2388C40.0292 69.0917 40.9581 67.8586 41.0191 67.2275Z" fill="#EF6E2F"/>
<path fill-rule="evenodd" clip-rule="evenodd" d="M48.421 73.1308C47.4786 74.1508 46.3723 75.0959 45.3375 75.8588C45.1118 76.0258 44.7938 75.9782 44.6268 75.7526C44.4602 75.5273 44.5077 75.2092 44.7334 75.0423C45.8036 74.2527 46.9517 73.2624 47.8911 72.2016C48.0722 72.5149 48.2489 72.8246 48.421 73.1308Z" fill="#EF6E2F"/>
<path fill-rule="evenodd" clip-rule="evenodd" d="M46.7814 82.3297C47.3814 81.7189 47.9386 81.074 48.4247 80.4551C48.5984 80.2349 48.9178 80.1967 49.1384 80.3701C49.3586 80.5438 49.3964 80.8629 49.2234 81.0831C48.7876 81.6383 48.2965 82.2131 47.7693 82.7692C47.454 82.6367 47.1244 82.49 46.7814 82.3297Z" fill="#EF6E2F"/>
<path fill-rule="evenodd" clip-rule="evenodd" d="M91.4759 69.7375C92.911 70.1753 94.7937 69.8621 94.8043 70.839C94.8109 71.4245 93.3395 71.1856 92.1389 71.085C89.3329 70.8501 90.0409 69.299 91.4759 69.7375Z" fill="white"/>
<path fill-rule="evenodd" clip-rule="evenodd" d="M99.3641 55.6545C105.314 55.1751 114.179 49.2299 112.846 47.0174C111.493 44.774 101.334 50.6154 99.3641 55.6545Z" fill="#63CBC7"/>
<path fill-rule="evenodd" clip-rule="evenodd" d="M99.3642 55.6543C103.095 60.554 110.192 60.3382 110.937 57.8648C111.692 55.3564 104.915 54.8965 99.3642 55.6543Z" fill="#63CBC7"/>
<path fill-rule="evenodd" clip-rule="evenodd" d="M99.3643 55.6548C100.933 50.5035 103.031 45.6026 100.455 45.4089C97.8429 45.212 96.2911 50.5583 99.3643 55.6548Z" fill="#95D669"/>
<path fill-rule="evenodd" clip-rule="evenodd" d="M99.3643 55.6547C105.314 55.1752 114.179 49.2297 112.846 47.0176C109.544 49.5858 104.133 53.1367 99.3643 55.6547Z" fill="#71CFD0"/>
<path fill-rule="evenodd" clip-rule="evenodd" d="M99.3637 55.6547C102.7 57.0736 106.938 58.4934 110.936 57.8652C111.692 55.3568 104.914 54.8969 99.3637 55.6547Z" fill="#71CFD0"/>
<path fill-rule="evenodd" clip-rule="evenodd" d="M99.3643 55.6548C100.933 50.5035 103.031 45.6026 100.455 45.4089C97.8429 45.212 96.2911 50.5583 99.3643 55.6548Z" fill="#63CBC7"/>
<path fill-rule="evenodd" clip-rule="evenodd" d="M99.3643 55.6548C102.328 50.2508 103.031 45.6026 100.455 45.4089C100.826 48.2364 100.707 50.6643 99.3643 55.6548Z" fill="#71CFD0"/>
<path fill-rule="evenodd" clip-rule="evenodd" d="M58.9226 89.6853C60.473 91.4954 76.518 82.9879 86.8761 76.0209C94.8329 70.6691 101.932 64.4913 101.865 59.0358C101.848 57.6049 100.803 56.8707 99.6857 55.5666C99.5049 55.3558 99.3316 55.1458 99.1618 54.9408C98.191 53.7653 97.3501 52.7462 96.0168 52.5965C90.6855 51.9999 83.667 57.8075 77.2997 64.5903C68.7278 73.7228 57.1782 87.65 58.9226 89.6853Z" fill="#F57C41"/>
<path fill-rule="evenodd" clip-rule="evenodd" d="M91.6835 53.2865C91.9468 54.0458 92.3695 54.8208 92.8875 55.5768C93.8091 56.9215 95.0402 58.2168 96.1918 59.2426C96.4011 59.4296 96.7222 59.4114 96.9092 59.2021C97.0958 58.993 97.0773 58.6715 96.8683 58.4849C95.7696 57.5064 94.5981 56.2745 93.7251 55.0003C93.2564 54.3163 92.8765 53.6241 92.6463 52.9614C92.3285 53.0543 92.0075 53.163 91.6835 53.2865Z" fill="#EF6E2F"/>
<path fill-rule="evenodd" clip-rule="evenodd" d="M87.3214 59.8017C87.3201 59.5211 87.091 59.2954 86.81 59.2969C86.5298 59.2985 86.3034 59.5276 86.3053 59.8083C86.3101 60.8841 87.4596 62.8358 88.9119 64.601C90.3196 66.3126 92.0343 67.8913 93.2728 68.353C93.5356 68.4521 93.8287 68.3189 93.9281 68.0564C94.0268 67.7938 93.894 67.5005 93.6315 67.4011C92.5607 67.0016 91.0046 65.5479 89.6958 63.9562C88.3727 62.3479 87.3252 60.6421 87.3214 59.8017Z" fill="#EF6E2F"/>
<path fill-rule="evenodd" clip-rule="evenodd" d="M89.6374 74.1008C89.4352 73.9352 89.2345 73.7578 89.0356 73.5708C87.9104 72.5125 86.872 71.1662 86.0738 69.9305C85.921 69.6952 85.6065 69.6279 85.3712 69.7807C85.1356 69.9331 85.0684 70.2476 85.2208 70.4825C86.0582 71.7781 87.1496 73.1926 88.3377 74.3102C88.4846 74.4481 88.6328 74.5816 88.7822 74.7099C89.0695 74.5077 89.3547 74.3047 89.6374 74.1008Z" fill="#EF6E2F"/>
<path fill-rule="evenodd" clip-rule="evenodd" d="M76.3013 65.6689C77.2126 66.9683 78.4017 68.2147 79.518 69.2084C79.727 69.395 80.0484 69.3772 80.2354 69.1678C80.422 68.9588 80.4035 68.6373 80.1945 68.4507C79.0955 67.4718 77.9237 66.2395 77.051 64.9658L77.0077 64.9025C76.7716 65.1571 76.536 65.4125 76.3013 65.6689Z" fill="#EF6E2F"/>
<path fill-rule="evenodd" clip-rule="evenodd" d="M75.257 71.6175C75.2558 71.3369 75.0267 71.1106 74.7461 71.1125C74.4654 71.1144 74.2387 71.3431 74.2406 71.6237C74.2447 72.4943 75.1591 74.0534 76.3129 75.4564C77.4288 76.8132 78.7925 78.0658 79.7834 78.4356C80.0459 78.5343 80.3393 78.4015 80.4384 78.1387C80.5371 77.8761 80.4046 77.5831 80.1418 77.484C79.3189 77.1768 78.1144 76.0486 77.0965 74.8112C76.0717 73.5647 75.2599 72.2515 75.257 71.6175Z" fill="#EF6E2F"/>
<path fill-rule="evenodd" clip-rule="evenodd" d="M67.3454 76.8163C68.1901 77.9184 69.205 78.9611 70.1654 79.8158C70.3748 80.0028 70.6959 79.9846 70.8828 79.7753C71.0694 79.5662 71.0513 79.2451 70.8419 79.0582C69.8487 78.1737 68.7963 77.0821 67.9583 75.9396C67.7492 76.235 67.5448 76.5271 67.3454 76.8163Z" fill="#EF6E2F"/>
<path fill-rule="evenodd" clip-rule="evenodd" d="M68.1327 86.1263C67.5912 85.463 67.0956 84.7697 66.6684 84.1087C66.5157 83.8735 66.2011 83.8062 65.9656 83.9586C65.7303 84.1113 65.6634 84.4256 65.8155 84.6608C66.1984 85.2536 66.6347 85.871 67.1086 86.4733C67.4348 86.3702 67.7764 86.2544 68.1327 86.1263Z" fill="#EF6E2F"/>
<path fill-rule="evenodd" clip-rule="evenodd" d="M29.3798 70.2758C30.1968 70.5532 30.5155 71.7891 30.0916 73.0361C29.6679 74.283 28.6624 75.0683 27.8454 74.791C27.0287 74.513 26.71 73.2771 27.1339 72.0307C27.5576 70.7838 28.5634 69.9985 29.3798 70.2758Z" fill="white"/>
<path fill-rule="evenodd" clip-rule="evenodd" d="M92.7038 69.8448C91.7357 70.1605 91.3577 71.568 91.8598 72.9868C92.3626 74.4063 93.554 75.3002 94.5221 74.9844C95.4901 74.668 95.8674 73.2619 95.3653 71.8424C94.8632 70.423 93.6712 69.529 92.7038 69.8448Z" fill="white"/>
<defs>
<radialGradient id="paint0_radial_83_1994" cx="0" cy="0" r="1" gradientUnits="userSpaceOnUse" gradientTransform="translate(61.3134 126.531) scale(26.4247 6.44769)">
<stop stop-color="#010A0C"/>
<stop offset="1" stop-color="#72A2FF"/>
</radialGradient>
</defs>
</svg>
