<svg width="120" height="186" viewBox="0 0 120 186" fill="none" xmlns="http://www.w3.org/2000/svg">
<path d="M80.9097 185.1C59.5897 185.1 42.3047 181.193 42.3047 176.373C42.3047 174.584 44.6864 172.92 48.7733 171.535C50.1882 175.379 51.5567 177.695 52.7536 177.712C52.7592 177.712 52.7648 177.712 52.7712 177.712C54.3559 177.712 56.0566 174.518 57.7396 169.392C59.2083 169.142 60.7569 168.916 62.3768 168.716C61.5594 169.251 60.9341 169.943 60.626 170.859C59.1805 175.16 64.5618 176.515 69.7324 176.515C71.1733 176.515 72.5975 176.41 73.8537 176.234C74.4986 176.32 75.1248 176.361 75.727 176.361C82.4127 176.361 86.2854 171.359 82.1826 167.899C82.1706 167.816 82.1594 167.733 82.1474 167.65C102.897 167.798 119.516 171.646 119.516 176.373C119.516 181.193 102.232 185.1 80.9097 185.1Z" fill="url(#paint0_radial_83_1557)" fill-opacity="0.48"/>
<path fill-rule="evenodd" clip-rule="evenodd" d="M106.249 136.941C110.877 136.282 114.012 131.255 113.229 125.748C112.446 120.24 108.033 116.286 103.406 116.943C98.7775 117.602 95.6425 122.63 96.4256 128.137C97.2096 133.644 101.622 137.599 106.249 136.941Z" fill="white"/>
<path d="M106.327 137.724C106.404 137.45 106.477 137.174 106.543 136.893C106.761 136.853 106.977 136.803 107.188 136.743C106.918 137.111 106.631 137.438 106.327 137.724Z" fill="#337D92"/>
<path d="M106.543 136.893C106.861 135.566 107.06 134.154 107.135 132.658C107.762 132.57 108.388 132.477 109.014 132.381L109.018 132.158C109.018 128.48 107.966 124.132 106.196 119.676C108.29 121.457 109.568 124.677 109.559 128.2C109.55 131.698 108.63 134.778 107.188 136.743C106.977 136.803 106.761 136.853 106.543 136.893Z" fill="#D1D2D0"/>
<path fill-rule="evenodd" clip-rule="evenodd" d="M82.5586 92.22C94.3696 95.395 107.169 117.577 107.169 131.295C107.169 145.014 97.1715 152.145 82.5586 152.145C67.9457 152.145 57.8262 145.876 57.8262 132.158C57.8262 118.44 73.0319 95.9043 82.5586 92.22Z" fill="white"/>
<path fill-rule="evenodd" clip-rule="evenodd" d="M73.4483 98.4705C69.6545 99.6358 54.8412 104.427 46.0846 102.781C45.8926 105.509 45.2245 108.774 45.2941 111.593C53.0107 112.313 66.873 112.535 75.7224 110.292C86.8579 107.468 82.5501 95.6722 73.4483 98.4705Z" fill="white"/>
<mask id="mask0_83_1557" style="mask-type:luminance" maskUnits="userSpaceOnUse" x="45" y="98" width="38" height="15">
<path fill-rule="evenodd" clip-rule="evenodd" d="M73.4503 98.47C69.6565 99.6353 54.8432 104.426 46.0866 102.781C45.8945 105.508 45.2265 108.773 45.2961 111.593C53.0126 112.313 66.8749 112.535 75.7243 110.291C86.8598 107.468 82.552 95.6717 73.4503 98.47Z" fill="white"/>
</mask>
<g mask="url(#mask0_83_1557)">
<path d="M68.7265 101.178C68.7293 100.746 68.7283 100.316 68.7246 99.8895C68.7831 99.8728 68.8406 99.8561 68.8972 99.8403C68.8387 100.288 68.7821 100.735 68.7265 101.178Z" fill="#F3C4E2"/>
</g>
<path fill-rule="evenodd" clip-rule="evenodd" d="M31.1354 12.6473C17.5904 24.5844 51.8523 45.3348 59.4937 56.7653C63.6011 62.9102 67.5925 58.6951 67.0275 50.266C65.864 32.879 41.9443 3.11971 31.1354 12.6473Z" fill="white"/>
<path fill-rule="evenodd" clip-rule="evenodd" d="M36.7471 20.8829C29.1234 27.846 53.494 44.501 60.1408 55.3146C62.2766 58.7883 64.996 56.4957 63.9615 52.6156C60.4887 39.592 44.2141 14.0626 36.7471 20.8829Z" fill="#F7C8E7"/>
<path fill-rule="evenodd" clip-rule="evenodd" d="M95.2841 0.339531C112.529 5.6809 89.7739 38.6458 87.4859 52.2029C86.2556 59.4917 80.8892 57.2816 77.9509 49.3601C71.8905 33.0224 81.5201 -3.92373 95.2841 0.339531Z" fill="white"/>
<path fill-rule="evenodd" clip-rule="evenodd" d="M93.5398 10.1509C103.345 13.3796 87.9367 38.5556 86.3029 51.144C85.7777 55.1874 82.3569 54.2104 81.7112 50.2468C79.5447 36.9431 83.9333 6.98798 93.5398 10.1509Z" fill="#F7C8E7"/>
<path fill-rule="evenodd" clip-rule="evenodd" d="M71.7252 49.0801C87.6073 45.6778 102.073 57.1047 106.373 70.4131C110.673 83.7224 98.2724 95.4638 82.3903 98.866C66.5081 102.268 50.1194 97.3147 48.8576 82.7343C47.5958 68.1539 55.843 52.4823 71.7252 49.0801Z" fill="white"/>
<path d="M88.153 66.7246C87.4711 66.2329 86.6843 65.9815 85.9115 65.9815C84.6673 65.9722 83.437 66.6662 82.8794 67.9827C82.7579 68.2657 82.8887 68.5932 83.1716 68.7139C83.4537 68.8354 83.7812 68.7046 83.9028 68.4225C84.2971 67.5198 85.0514 67.1041 85.9115 67.0948C86.4422 67.0948 87.0044 67.2693 87.5026 67.6274C87.7522 67.8074 88.1001 67.7508 88.2792 67.5012C88.4592 67.2516 88.4026 66.9037 88.153 66.7246Z" fill="#36404B"/>
<path d="M65.7404 72.6628C66.2219 71.7629 67.0839 71.2498 67.917 71.2516C68.3986 71.2535 68.8773 71.4131 69.3236 71.7953C69.5574 71.9957 69.9081 71.9698 70.1094 71.736C70.3098 71.5031 70.2829 71.1514 70.0501 70.951C69.4136 70.4018 68.6565 70.1364 67.917 70.1383C66.6283 70.1401 65.4166 70.9083 64.7588 72.1368C64.6131 72.4077 64.7152 72.7454 64.9861 72.8901C65.257 73.0358 65.5947 72.9338 65.7404 72.6628Z" fill="#36404B"/>
<path fill-rule="evenodd" clip-rule="evenodd" d="M81.0936 73.8388C81.5881 76.1481 79.4653 77.8674 78.0467 78.1717C76.6272 78.4751 73.8159 77.8126 73.3214 75.5042C72.8167 73.1476 80.5889 71.4841 81.0936 73.8388Z" fill="#36404B"/>
<path fill-rule="evenodd" clip-rule="evenodd" d="M90.347 71.2324C93.702 71.4059 96.3416 73.0713 96.2451 74.952C96.1467 76.8326 93.3503 78.2169 89.9954 78.0434C86.6414 77.869 84.0018 76.2045 84.0983 74.3239C84.1966 72.4432 86.994 71.0589 90.347 71.2324Z" fill="#F7C8E7"/>
<path fill-rule="evenodd" clip-rule="evenodd" d="M63.8114 76.9168C60.8229 78.4486 59.0963 81.0502 59.9563 82.7258C60.8146 84.4014 63.9348 84.5183 66.9223 82.9856C69.9117 81.4529 71.6374 78.8522 70.7792 77.1766C69.92 75.501 66.8008 75.3841 63.8114 76.9168Z" fill="#F7C8E7"/>
<path fill-rule="evenodd" clip-rule="evenodd" d="M83.3554 59.3533C84.9132 59.434 86.1389 60.2069 86.0934 61.0809C86.0498 61.9539 84.8622 62.0801 83.3053 61.9994C81.7476 61.9187 80.4078 61.6626 80.4533 60.7886C80.4987 59.9155 81.7986 59.2726 83.3554 59.3533Z" fill="#F7C8E7"/>
<path fill-rule="evenodd" clip-rule="evenodd" d="M65.3227 63.2173C63.9357 63.9289 63.1331 65.136 63.5321 65.9144C63.9319 66.6928 65.0648 66.3217 66.4528 65.6101C67.8417 64.8985 68.9579 64.1154 68.558 63.337C68.159 62.5595 66.7107 62.5056 65.3227 63.2173Z" fill="#F7C8E7"/>
<path d="M71.0456 82.7073C72.5635 83.6333 74.4321 84.0508 76.3694 84.0508C80.2736 84.0434 84.5118 82.3724 86.8656 79.3403C87.053 79.0963 87.0085 78.7474 86.7645 78.5591C86.5214 78.3717 86.1716 78.4162 85.9842 78.6602C83.9347 81.3379 79.96 82.9458 76.3694 82.9383C74.5908 82.9383 72.9189 82.5487 71.6264 81.7573C71.3639 81.5967 71.0215 81.6802 70.861 81.9419C70.7005 82.2045 70.784 82.5468 71.0456 82.7073Z" fill="#36404B"/>
<path d="M76.8515 75.6642L78.4965 83.3446C78.5614 83.6452 78.8574 83.8363 79.158 83.7723C79.4586 83.7083 79.6497 83.4123 79.5857 83.1117L77.9398 75.4304C77.8758 75.1298 77.5798 74.9387 77.2792 75.0027C76.9786 75.0677 76.7865 75.3636 76.8515 75.6642Z" fill="#36404B"/>
<path fill-rule="evenodd" clip-rule="evenodd" d="M88.4806 95.7398C85.3066 98.1215 72.9909 107.646 64.1953 109.064C64.9385 111.695 65.4145 114.993 66.436 117.622C73.94 115.687 87.0573 111.201 94.6245 106.092C104.146 99.6644 96.0978 90.0246 88.4806 95.7398Z" fill="white"/>
<path fill-rule="evenodd" clip-rule="evenodd" d="M71.04 147.11C76.8601 151.395 76.5085 163.001 73.2751 165.553C71.1207 167.254 62.1229 166.405 60.6254 170.859C58.446 177.345 71.7841 177.129 76.5243 175.676C80.2967 174.52 83.0319 173.138 82.67 171.004C80.8191 160.052 80.6864 151.9 85.2762 151.989C83.4726 145.788 74.3467 141.585 71.04 147.11Z" fill="white"/>
<path d="M75.7267 176.361C75.1246 176.361 74.4983 176.32 73.8535 176.234C74.8862 176.089 75.8047 175.897 76.5247 175.676C80.2971 174.52 83.0323 173.139 82.6704 171.005C82.4904 169.942 82.3271 168.905 82.1824 167.899C86.2852 171.359 82.4125 176.361 75.7267 176.361Z" fill="#276374"/>
<path d="M73.8531 176.233C73.8531 176.233 73.8531 176.233 73.8522 176.233C67.2824 172.726 73.2723 167.719 80.0091 167.719C80.73 167.719 81.4592 167.776 82.182 167.899C82.3267 168.905 82.49 169.942 82.67 171.004C83.0319 173.138 80.2967 174.52 76.5242 175.676C75.8043 175.897 74.8857 176.089 73.8531 176.233Z" fill="#D1D2D0"/>
<path fill-rule="evenodd" clip-rule="evenodd" d="M82.9492 148.474C88.7693 152.759 88.4167 164.364 85.1843 166.917C83.029 168.618 74.0302 167.769 72.5346 172.223C70.3552 178.708 83.6933 178.493 88.4334 177.04C92.2049 175.884 94.9411 174.501 94.5792 172.368C92.7283 161.415 90.8568 150.399 96.6157 147.588C94.8139 141.385 86.255 142.948 82.9492 148.474Z" fill="white"/>
<path fill-rule="evenodd" clip-rule="evenodd" d="M56.7072 104.7C54.4248 104.494 52.0616 104.316 49.7366 103.334C44.4472 101.099 40.8621 102.312 40.671 106.16C40.5597 108.41 41.725 110.234 48.8561 110.59C50.8091 110.689 53.7883 111.081 57.1748 110.541C61.0112 109.929 60.3015 105.023 56.7072 104.7Z" fill="white"/>
<path fill-rule="evenodd" clip-rule="evenodd" d="M50.7096 103.7C48.276 102.09 46.4148 98.8779 44.935 100.072C44.0489 100.787 46.2302 102.699 47.8678 104.374C51.695 108.292 53.1433 105.31 50.7096 103.7Z" fill="white"/>
<path d="M58.4492 30.9473C59.2305 31.696 59.7025 32.4609 59.8652 33.2422C60.028 34.0234 59.9792 34.7884 59.7188 35.5371C59.4583 36.2533 59.0352 36.9206 58.4492 37.5391C57.8958 38.1576 57.2936 38.6947 56.6426 39.1504C56.0241 39.5736 55.4056 39.8828 54.7871 40.0781C54.1686 40.2409 53.6803 40.2409 53.3223 40.0781C52.9316 38.9062 52.3294 38.1738 51.5156 37.8809C50.7344 37.5879 49.9368 37.5716 49.123 37.832C48.3092 38.0924 47.6257 38.5645 47.0723 39.248C46.5189 39.8991 46.291 40.6315 46.3887 41.4453C46.5189 42.2917 46.877 43.0078 47.4629 43.5938C48.0814 44.1471 48.8464 44.4727 49.7578 44.5703C50.7018 44.668 51.7435 44.5215 52.8828 44.1309C54.0547 43.7077 55.2754 42.9427 56.5449 41.8359C57.8796 40.6641 59.084 39.9805 60.1582 39.7852C61.265 39.5573 62.209 39.6224 62.9902 39.9805C63.7715 40.3385 64.39 40.9082 64.8457 41.6895C65.3014 42.4382 65.5293 43.2031 65.5293 43.9844C65.5618 44.7656 65.3665 45.4655 64.9434 46.084C64.5202 46.7025 63.8366 47.0443 62.8926 47.1094C60.6139 47.3047 58.6771 47.6465 57.082 48.1348C55.5195 48.623 54.1686 49.1927 53.0293 49.8438C51.89 50.4622 50.9134 51.1296 50.0996 51.8457C49.2858 52.5293 48.5208 53.1966 47.8047 53.8477C47.1211 54.4661 46.4212 55.0033 45.7051 55.459C45.0215 55.9147 44.2077 56.224 43.2637 56.3867C42.1569 56.5495 41.2292 56.3053 40.4805 55.6543C39.7318 55.0033 39.3574 54.1732 39.3574 53.1641C39.3249 52.1549 39.748 51.097 40.627 49.9902C41.5059 48.8509 43.0195 47.8906 45.168 47.1094C43.3125 46.8164 41.929 46.2793 41.0176 45.498C40.0736 44.7168 39.5202 43.8053 39.3574 42.7637C39.1621 41.722 39.3086 40.6152 39.7969 39.4434C40.2526 38.2389 40.9362 37.0833 41.8477 35.9766C42.7917 34.8372 43.9147 33.7956 45.2168 32.8516C46.5189 31.9076 47.9023 31.1751 49.3672 30.6543C50.8646 30.1335 52.3945 29.873 53.957 29.873C55.5195 29.8405 57.0169 30.1986 58.4492 30.9473ZM70.998 122.5C71.8118 124.486 72.1536 126.325 72.0234 128.018C71.9258 129.71 71.4863 131.208 70.7051 132.51C69.9238 133.812 68.8659 134.87 67.5312 135.684C66.1966 136.53 64.7318 137.067 63.1367 137.295C61.5742 137.555 59.9303 137.474 58.2051 137.051C56.5124 136.66 54.8685 135.879 53.2734 134.707C51.7109 133.535 50.2786 131.94 48.9766 129.922C47.707 127.904 46.7142 125.413 45.998 122.451C45.3145 120.107 44.7285 117.389 44.2402 114.297C43.752 111.172 43.4102 107.852 43.2148 104.336C43.0195 100.82 42.987 97.1582 43.1172 93.3496C43.2474 89.5085 43.5566 85.6999 44.0449 81.9238C44.5658 78.1152 45.2819 74.388 46.1934 70.7422C47.1048 67.0964 48.2604 63.6947 49.6602 60.5371C50.2461 58.6491 50.9785 57.1029 51.8574 55.8984C52.7363 54.694 53.6315 53.8314 54.543 53.3105C55.4544 52.7897 56.3171 52.5944 57.1309 52.7246C57.9447 52.8548 58.5957 53.3105 59.084 54.0918C59.5723 54.873 59.8164 55.9961 59.8164 57.4609C59.8164 58.9258 59.4583 60.6999 58.7422 62.7832C54.0221 84.5931 58.1074 104.499 70.998 122.5Z" fill="#5ABFA2"/>
<path d="M42.0255 110.152C40.6811 110.152 39.5482 108.512 39.4814 106.451C39.4156 104.364 40.4705 102.638 41.8381 102.594C41.8548 102.594 41.8733 102.594 41.89 102.594C41.9373 102.594 41.9847 102.596 42.031 102.6C42.1238 102.705 42.2203 102.813 42.3215 102.922C41.3278 103.575 40.7451 104.669 40.6709 106.16C40.6059 107.471 40.9733 108.636 42.6991 109.451C42.7083 109.633 42.7185 109.815 42.7278 109.997C42.5228 110.091 42.3047 110.144 42.0774 110.151C42.0607 110.152 42.0431 110.152 42.0255 110.152Z" fill="#5ABFA2"/>
<path d="M42.6992 109.451C40.9735 108.636 40.6061 107.47 40.671 106.16C40.7453 104.669 41.3279 103.574 42.3216 102.922C42.3838 102.989 42.4478 103.057 42.5127 103.124C42.5229 105.19 42.5888 107.305 42.6992 109.451Z" fill="#C2C4C2"/>
<path d="M42.5128 103.125C42.4479 103.057 42.3838 102.989 42.3217 102.922C42.2205 102.813 42.124 102.705 42.0312 102.599C42.1955 102.613 42.356 102.652 42.5109 102.713C42.5119 102.85 42.5119 102.987 42.5128 103.125Z" fill="#C2C4C2"/>
<path d="M42.7278 109.997C42.7186 109.815 42.7083 109.633 42.6991 109.452C42.5887 107.306 42.5228 105.19 42.5126 103.125C42.5117 102.988 42.5117 102.85 42.5107 102.713C43.5675 103.125 44.3775 104.561 44.4322 106.294C44.4879 108.035 43.7633 109.525 42.7278 109.997Z" fill="#EB9F4A"/>
<path fill-rule="evenodd" clip-rule="evenodd" d="M41.4114 102.14C42.7781 102.096 43.9397 103.753 44.0065 105.84C44.0733 107.927 43.0184 109.654 41.6508 109.698C40.2841 109.741 39.1216 108.084 39.0557 105.997C38.9889 103.91 40.0438 102.184 41.4114 102.14Z" fill="white"/>
<path fill-rule="evenodd" clip-rule="evenodd" d="M70.1328 108.964C67.9163 109.544 65.632 110.177 63.113 110.04C57.3783 109.728 54.4158 112.084 55.5403 115.77C56.1972 117.924 57.9108 119.247 64.7413 117.166C66.6127 116.596 69.5483 115.957 72.5516 114.302C75.9548 112.427 73.6241 108.051 70.1328 108.964Z" fill="white"/>
<path fill-rule="evenodd" clip-rule="evenodd" d="M64.1525 110.055C61.3171 109.365 58.479 106.973 57.4909 108.597C56.8999 109.57 59.5998 110.63 61.7077 111.653C66.6353 114.043 66.9888 110.745 64.1525 110.055Z" fill="white"/>
<defs>
<radialGradient id="paint0_radial_83_1557" cx="0" cy="0" r="1" gradientUnits="userSpaceOnUse" gradientTransform="translate(80.9101 176.375) scale(38.6054 8.7246)">
<stop/>
<stop offset="1" stop-color="#EEC091"/>
</radialGradient>
</defs>
</svg>
