<svg width="185" height="237" viewBox="0 0 185 237" fill="none" xmlns="http://www.w3.org/2000/svg">
<path d="M95.5505 237C131.639 237 160.895 230.859 160.895 223.283C160.895 215.707 131.639 209.565 95.5505 209.565C59.4621 209.565 30.2065 215.707 30.2065 223.283C30.2065 230.859 59.4621 237 95.5505 237Z" fill="#E6E6E6"/>
<path d="M91.3337 214.271C91.3051 214.386 91.2724 214.498 91.2414 214.614C90.504 214.762 89.797 214.89 89.1074 214.99C86.7846 215.329 84.6589 215.359 82.2712 214.834C82.0324 214.78 81.7898 214.721 81.5457 214.656C81.5403 214.633 81.5353 214.608 81.532 214.586C80.8351 211.219 80.3471 207.806 80.0723 204.377C79.725 200.058 79.7161 195.713 80.0434 191.39C84.9028 190.496 89.4786 190.942 94.0442 192.828C93.9261 197.235 93.6715 201.503 93.0702 205.741C92.6699 208.589 92.1112 211.42 91.3337 214.271Z" fill="#F6E2D7"/>
<path d="M93.0702 205.741C92.8492 205.684 92.6256 205.626 92.404 205.57C88.3837 204.562 84.212 204.164 80.0723 204.377C79.725 200.058 79.7161 195.713 80.0434 191.39C84.9028 190.496 89.4786 190.942 94.0442 192.828C93.9261 197.235 93.6715 201.503 93.0702 205.741Z" fill="#EFD3C5"/>
<path d="M85.9679 215.952C84.4879 215.952 82.9943 215.773 81.3645 215.345C81.1032 215.276 80.9029 215.065 80.8479 214.801C79.2455 207.087 78.7362 199.193 79.3345 191.337C79.359 191.015 79.5978 190.749 79.9157 190.691C84.9516 189.763 89.6622 190.247 94.3158 192.17C94.5886 192.283 94.7637 192.552 94.7559 192.847C94.5858 199.287 94.1171 206.931 91.9288 214.805C91.8571 215.064 91.6461 215.26 91.383 215.313C89.4607 215.7 87.7239 215.952 85.9679 215.952ZM82.1534 214.073C85.1225 214.778 87.6646 214.581 90.6719 214.001C92.666 206.622 93.1423 199.434 93.318 193.304C89.2401 191.707 85.1065 191.278 80.715 191.998C80.202 199.389 80.6854 206.811 82.1534 214.073Z" fill="#1F404D"/>
<path d="M94.9918 219.983C94.8272 220.154 94.6602 220.324 94.4888 220.49C92.8464 222.09 90.8898 223.393 88.6384 223.767C86.149 224.182 83.7532 223.479 81.5147 222.315C81.5233 221.48 81.7023 220.568 81.6957 219.7C81.6945 219.29 81.6524 218.892 81.5312 218.516C81.063 217.063 79.0524 210.444 78.9878 208.654C79.4 208.803 89.5863 210.575 92.9726 208.885C92.9931 210.017 92.477 215.914 92.4975 217.045C93.2816 217.988 94.2079 219.04 94.9918 219.983Z" fill="#8CC63F"/>
<path d="M94.4892 220.489C92.8468 222.089 90.8902 223.392 88.6389 223.766C86.1495 224.182 83.7536 223.479 81.5151 222.314C81.5238 221.48 81.7027 220.567 81.6961 219.699C84.1795 220.866 86.9439 221.445 89.6884 221.35C91.3202 221.294 92.9408 221 94.4892 220.489Z" fill="#82B72E"/>
<path d="M87.1797 224.6C85.2908 224.6 83.3155 224.054 81.1858 222.947C80.9473 222.823 80.799 222.576 80.802 222.307C80.8068 221.879 80.8517 221.439 80.8953 221.015C80.9812 220.176 81.0623 219.385 80.853 218.735C80.8281 218.657 78.3531 210.811 78.2763 208.68C78.2682 208.453 78.3684 208.236 78.5461 208.096C78.7238 207.955 78.9578 207.907 79.1765 207.967C84.2803 209.365 90.1728 209.289 93.1875 207.785C93.406 207.676 93.6656 207.686 93.8747 207.813C94.0838 207.94 94.2134 208.165 94.2177 208.41C94.2281 208.989 94.0319 210.466 93.7076 212.831C93.498 214.358 93.2638 216.065 93.2181 216.796C93.5588 217.202 93.9216 217.626 94.2844 218.049C94.7146 218.552 95.1445 219.054 95.539 219.528C95.7704 219.806 95.7562 220.214 95.5063 220.476C93.3403 222.742 91.0687 224.087 88.7544 224.471C88.2355 224.557 87.711 224.6 87.1797 224.6ZM82.2457 221.886C84.5288 223.001 86.5849 223.387 88.5215 223.065C90.3713 222.758 92.2219 221.709 94.0286 219.944C93.7599 219.626 93.481 219.301 93.2024 218.976C92.7732 218.475 92.3443 217.974 91.9509 217.501C91.8472 217.376 91.7891 217.22 91.7861 217.058C91.7757 216.479 91.9719 215.002 92.2961 212.637C92.4447 211.555 92.6057 210.382 92.7028 209.531C89.0596 210.811 83.8291 210.524 79.8316 209.601C80.2709 211.938 81.6776 216.646 82.2092 218.299C82.5099 219.233 82.4095 220.213 82.3124 221.16C82.287 221.411 82.2622 221.653 82.2457 221.886Z" fill="#1F404D"/>
<path d="M100.399 214.186C100.44 214.297 100.484 214.406 100.527 214.517C101.276 214.587 101.993 214.64 102.689 214.667C105.035 214.76 107.152 214.567 109.471 213.794C109.703 213.715 109.938 213.631 110.174 213.542C110.177 213.518 110.179 213.493 110.18 213.47C110.52 210.049 110.647 206.604 110.56 203.165C110.452 198.833 110.005 194.511 109.226 190.247C104.299 189.867 99.7957 190.791 95.4531 193.146C96.0331 197.516 96.7343 201.734 97.777 205.885C98.4739 208.676 99.3269 211.432 100.399 214.186Z" fill="#F6E2D7"/>
<path d="M97.777 205.886C97.991 205.805 98.2069 205.724 98.4217 205.645C102.314 204.221 106.421 203.387 110.56 203.165C110.452 198.833 110.005 194.511 109.226 190.247C104.299 189.867 99.7957 190.791 95.4531 193.146C96.0331 197.516 96.7341 201.734 97.777 205.886Z" fill="#EFD3C5"/>
<path d="M103.744 215.402C102.692 215.402 101.61 215.334 100.46 215.226C100.192 215.201 99.9622 215.028 99.8636 214.778C96.8611 207.178 95.5923 199.625 94.7474 193.238C94.7086 192.946 94.8544 192.66 95.114 192.519C99.5402 190.118 104.174 189.142 109.279 189.536C109.601 189.561 109.867 189.8 109.925 190.118C111.345 197.868 111.667 205.772 110.883 213.611C110.856 213.88 110.679 214.11 110.426 214.206C108.082 215.094 105.981 215.402 103.744 215.402ZM101.029 213.846C104.081 214.107 106.629 214.037 109.508 213.025C110.206 205.648 109.907 198.216 108.621 190.92C104.179 190.666 100.113 191.526 96.2251 193.542C97.0434 199.62 98.2716 206.719 101.029 213.846Z" fill="#1F404D"/>
<path d="M97.3604 220.248C97.5419 220.401 97.7259 220.553 97.914 220.7C99.7151 222.119 101.798 223.209 104.076 223.345C106.595 223.497 108.904 222.546 111.008 221.153C110.912 220.324 110.638 219.435 110.553 218.572C110.511 218.164 110.511 217.763 110.592 217.377C110.906 215.883 112.21 209.089 112.087 207.303C111.692 207.494 101.749 210.326 98.2035 209C98.3019 210.128 99.434 215.938 99.5324 217.065C98.8517 218.085 98.041 219.229 97.3604 220.248Z" fill="#8CC63F"/>
<path d="M97.9141 220.7C99.7152 222.119 101.798 223.209 104.076 223.345C106.595 223.497 108.904 222.546 111.008 221.153C110.912 220.324 110.638 219.435 110.553 218.571C108.206 219.992 105.518 220.858 102.779 221.052C101.15 221.168 99.5076 221.046 97.9141 220.7Z" fill="#82B72E"/>
<path d="M104.602 224.075C104.413 224.075 104.223 224.069 104.034 224.058C101.692 223.918 99.2918 222.82 96.9003 220.793C96.624 220.559 96.5674 220.155 96.7685 219.854C97.1099 219.342 97.4841 218.799 97.858 218.256C98.1752 217.796 98.4925 217.335 98.7894 216.894C98.6675 216.172 98.255 214.498 97.8862 213.001C97.3155 210.684 96.9654 209.236 96.9152 208.659C96.8939 208.415 96.9992 208.178 97.1938 208.03C97.3885 207.882 97.6456 207.844 97.8743 207.929C101.03 209.108 106.898 208.566 111.827 206.64C112.038 206.557 112.276 206.58 112.467 206.701C112.659 206.823 112.781 207.028 112.797 207.254C112.944 209.382 111.307 217.444 111.29 217.524C111.15 218.193 111.314 218.972 111.487 219.796C111.575 220.214 111.666 220.646 111.716 221.072C111.747 221.339 111.625 221.6 111.401 221.748C109.039 223.31 106.809 224.075 104.602 224.075ZM98.3143 220.11C100.296 221.675 102.246 222.524 104.119 222.635C106.078 222.753 108.083 222.152 110.236 220.804C110.195 220.574 110.145 220.335 110.093 220.089C109.897 219.157 109.694 218.193 109.895 217.232C110.25 215.533 111.155 210.703 111.347 208.333C107.468 209.672 102.296 210.505 98.5394 209.614C98.7255 210.451 99.0084 211.599 99.2698 212.66C99.8407 214.978 100.191 216.427 100.241 217.004C100.255 217.166 100.214 217.327 100.124 217.462C99.7816 217.975 99.4064 218.52 99.0315 219.064C98.7894 219.415 98.5473 219.767 98.3143 220.11Z" fill="#1F404D"/>
<path d="M168.626 129.742C167.027 136.638 161.336 142.556 154.208 144.733C147.083 146.913 139.83 144.566 134.238 139.867C132.265 146.549 126.464 152.203 119.329 153.904C112.193 155.605 104.255 152.051 99.9003 146.462C97.9225 150.592 93.4033 153.355 88.6546 154.084C83.906 154.812 78.9928 153.697 74.6906 151.667C71.6055 150.21 69.4981 147.542 68.443 144.447C63.8165 148.213 54.9502 150.013 46.0416 147.215C38.8935 144.971 36.2949 136.334 36.6414 135.072C34.0103 136.738 30.7304 137.473 27.5829 137.104C24.438 136.735 21.4502 135.266 19.3276 133.046C18.1328 131.797 17.8235 130.273 17.7363 128.592C20.9214 129.817 24.7371 128.921 27.3857 126.854C27.7873 126.539 28.1663 126.2 28.5204 125.844C30.4982 123.848 31.7452 121.232 32.4112 118.556C33.1993 115.401 33.2541 112.132 33.304 108.889C33.3788 104.221 33.4536 99.5518 33.5261 94.8828C33.6833 84.9365 31.5632 75.1176 35.3267 65.8221C36.6984 62.4277 38.514 59.143 41.1054 56.4543C43.936 53.5188 47.5849 51.3964 51.3036 49.5382C60.6612 44.8644 70.8171 41.6172 81.2619 39.9586C85.6739 39.2602 90.1706 38.8411 94.6274 39.2128C100.975 39.7441 107.048 41.8614 112.899 44.2357C120.289 47.2336 127.559 50.7277 133.624 55.7057C139.69 60.6838 146.207 66.7319 147.486 74.2166C149.963 88.6871 152.437 103.155 154.913 117.625C155.028 118.301 155.145 118.98 155.26 119.655C155.864 123.19 156.716 127.113 159.837 129.16C162.104 130.647 165.95 130.39 168.626 129.742Z" fill="#3B6A82"/>
<path d="M138.989 122.76C137.538 127.374 139.608 132.851 143.748 135.352C140.281 135.16 136.882 133.864 134.166 131.701C133.083 130.838 132.821 129.315 132.33 128.02C131.103 130.28 129.794 132.524 128.048 134.412C126.302 136.301 124.067 137.824 121.543 138.316C120.087 138.598 118.049 138.089 117.328 136.792C114.617 139.238 111.088 140.57 107.567 141.538C88.1604 146.87 66.2703 142.109 50.8322 129.202C49.2135 127.848 47.6423 126.389 46.5449 124.588C43.7815 126.227 41.0157 127.865 38.2523 129.504C39.0703 126.332 39.442 123.045 39.3522 119.767C36.1051 122.366 32.4288 124.424 28.5205 125.843C30.4983 123.847 31.7453 121.231 32.4113 118.555C33.1994 115.4 33.2542 112.131 33.3041 108.888C33.3789 104.22 33.4537 99.5509 33.5262 94.8818C33.6834 84.9356 31.5633 75.1166 35.3268 65.8211C36.6986 62.4267 38.5142 59.142 41.1055 56.4534C43.9361 53.5178 47.585 51.3954 51.3037 49.5373C60.6613 44.8634 70.8172 41.6163 81.2621 39.9576C85.674 39.2592 90.1707 38.8401 94.6275 39.2118C100.975 39.7431 107.048 41.8604 112.899 44.2347C120.289 47.2327 127.559 50.7267 133.624 55.7048C139.69 60.6828 146.207 66.7309 147.486 74.2156C149.963 88.6862 152.437 103.154 154.913 117.624C154.524 118.365 154.163 119.116 153.828 119.882C153.125 121.485 152.531 123.166 152.444 124.915C152.357 126.661 152.831 128.496 154.03 129.768C148.539 129.192 143.002 126.556 138.989 122.76Z" fill="#2E6175"/>
<path d="M115.625 155.116C109.953 155.116 104.035 152.422 100.036 147.859C97.8262 151.478 93.6232 154.119 88.7739 154.862C83.0612 155.738 77.7794 153.995 74.3545 152.379C71.5536 151.057 69.3554 148.708 68.0801 145.702C63.3738 148.97 54.9671 150.843 45.8052 147.966C39.625 146.025 36.551 139.565 35.9438 136.373C33.384 137.674 30.3706 138.222 27.4923 137.886C24.1792 137.498 20.9962 135.932 18.7596 133.59C17.3156 132.078 17.0347 130.236 16.9503 128.633C16.9364 128.367 17.058 128.111 17.2738 127.955C17.4895 127.798 17.7701 127.761 18.0191 127.857C20.7453 128.905 24.3154 128.253 26.9026 126.232C29.7596 124.001 31.0603 120.723 31.6485 118.365C32.4174 115.283 32.4688 112.026 32.5185 108.877L32.7398 94.8709C32.7834 92.1054 32.6473 89.3012 32.5155 86.5889C32.176 79.6011 31.8249 72.375 34.5965 65.5255C36.2166 61.5222 38.1605 58.3762 40.5399 55.9076C43.6091 52.7233 47.5257 50.545 50.9521 48.8338C60.4182 44.1065 70.574 40.8593 81.1381 39.1819C86.451 38.3382 90.7583 38.0989 94.6937 38.4285C101.324 38.9836 107.505 41.1967 113.196 43.5054C119.461 46.0473 127.502 49.6617 134.124 55.0969C140.704 60.4978 146.972 66.536 148.262 74.0826L156.035 119.522C156.64 123.057 157.465 126.663 160.268 128.502C162.285 129.824 165.931 129.585 168.441 128.977C168.706 128.913 168.986 128.991 169.18 129.183C169.374 129.375 169.455 129.654 169.393 129.92C167.725 137.109 161.856 143.22 154.439 145.486C147.896 147.486 140.735 145.921 134.631 141.196C132.253 147.794 126.434 153.019 119.512 154.669C118.247 154.97 116.942 155.116 115.625 155.116ZM99.9004 145.673C100.142 145.673 100.371 145.784 100.521 145.977C105.008 151.737 112.667 154.682 119.146 153.138C125.912 151.525 131.539 146.229 133.482 139.645C133.557 139.391 133.755 139.191 134.01 139.114C134.264 139.037 134.54 139.094 134.743 139.265C140.62 144.202 147.631 145.921 153.978 143.981C160.447 142.004 165.645 136.894 167.533 130.77C164.779 131.241 161.502 131.194 159.404 129.818C156.073 127.633 155.146 123.664 154.483 119.787L146.71 74.348C145.506 67.3105 139.469 61.5214 133.124 56.314C126.667 51.0137 118.766 47.4646 112.604 44.9648C107.028 42.7026 100.983 40.5353 94.5621 39.9977C90.756 39.679 86.5689 39.914 81.3847 40.7371C70.9796 42.3892 60.9774 45.5872 51.6553 50.2425C48.3488 51.8936 44.5769 53.9878 41.6735 57.0002C39.4366 59.321 37.599 62.3027 36.0559 66.1159C33.4141 72.6442 33.7414 79.3805 34.0879 86.5124C34.2208 89.2495 34.3582 92.0796 34.3138 94.8955L34.0925 108.902C34.0413 112.14 33.9886 115.489 33.1761 118.746C32.5281 121.344 31.0819 124.966 27.8715 127.473C25.1735 129.58 21.6673 130.393 18.629 129.687C18.7783 130.692 19.1086 131.676 19.8978 132.503C21.8855 134.584 24.7202 135.976 27.675 136.322C30.6339 136.668 33.748 135.97 36.2209 134.407C36.4955 134.233 36.8491 134.246 37.1105 134.44C37.3716 134.634 37.4869 134.968 37.4007 135.282C37.1855 136.472 39.8078 144.433 46.2769 146.464C55.4183 149.334 63.9175 147.113 67.9457 143.835C68.1455 143.672 68.4124 143.618 68.6598 143.689C68.9075 143.76 69.1047 143.948 69.1879 144.192C70.2369 147.271 72.3103 149.673 75.0266 150.955C78.2532 152.478 83.2158 154.122 88.5353 153.306C93.3385 152.57 97.4214 149.817 99.1904 146.121C99.3082 145.875 99.5447 145.707 99.8157 145.678C99.8439 145.675 99.8723 145.673 99.9004 145.673Z" fill="#1F404D"/>
<path d="M76.2399 191.744C75.7438 191.21 75.2629 190.683 74.7663 190.151C75.9572 187.338 77.0978 184.261 78.1528 181.033L67.9201 178.95C67.6106 183.282 67.9503 186.778 68.3957 188.673C67.6557 188.691 66.7938 189.089 66.0538 189.107C65.7902 189.114 65.4685 189.157 65.3696 189.402C65.3118 189.543 65.3562 189.712 65.4495 189.833C65.5433 189.954 65.6784 190.036 65.8153 190.106C66.6149 190.517 67.71 190.689 68.5595 190.393C67.8758 190.636 67.2329 190.993 66.6653 191.445C66.4967 191.579 66.3322 191.725 66.2255 191.914C66.1205 192.102 66.0838 192.34 66.1783 192.534C66.266 192.712 66.4506 192.827 66.644 192.87C66.8387 192.913 67.0392 192.892 67.2349 192.858C68.1435 192.697 69.2566 192.43 69.9591 191.811C69.5157 192.315 69.1385 192.876 68.8411 193.476C68.744 193.675 68.6538 193.88 68.6302 194.1C68.6061 194.318 68.6578 194.555 68.8135 194.713C69.0234 194.925 69.3773 194.941 69.6516 194.821C69.9264 194.701 70.1373 194.473 70.3254 194.238C70.8458 193.59 71.348 192.853 71.6193 192.067C71.488 192.64 71.3579 193.213 71.2261 193.787C71.165 194.055 71.1156 194.374 71.3049 194.575C71.4357 194.715 71.6505 194.749 71.8363 194.703C72.0218 194.656 72.1828 194.541 72.3271 194.416C73.0597 193.783 73.9946 192.805 73.9865 191.837C74.3584 192.289 74.8149 192.671 75.3247 192.96C75.5379 193.081 75.7674 193.187 76.0122 193.198C76.2571 193.209 76.5205 193.106 76.6402 192.893C76.7474 192.704 76.7241 192.461 76.6313 192.263C76.54 192.066 76.389 191.902 76.2399 191.744Z" fill="#F6E2D7"/>
<path d="M69.2979 195.644C68.9123 195.644 68.5432 195.504 68.2805 195.237C67.9801 194.932 67.8364 194.488 67.8863 194.02C67.9081 193.817 67.9611 193.633 68.0278 193.463C67.7996 193.515 67.5766 193.558 67.3654 193.595C67.1299 193.636 66.8168 193.674 66.4829 193.601C66.0441 193.504 65.6882 193.235 65.5064 192.863C65.3112 192.463 65.3363 191.972 65.5734 191.549C65.6971 191.328 65.8593 191.153 66.0211 191.009C65.833 190.942 65.6494 190.863 65.4732 190.772C65.2856 190.676 65.0458 190.534 64.8575 190.289C64.5915 189.944 64.5223 189.495 64.677 189.117C64.8136 188.783 65.1604 188.38 66.0355 188.359C66.3189 188.352 66.6677 188.262 67.0368 188.166C67.1912 188.126 67.3474 188.085 67.5051 188.049C67.2336 186.539 66.852 183.422 67.1753 178.897C67.1907 178.682 67.2977 178.484 67.4691 178.354C67.6404 178.224 67.86 178.174 68.0706 178.217L78.3031 180.3C78.5122 180.342 78.6932 180.472 78.8005 180.657C78.9079 180.841 78.9313 181.062 78.8651 181.265C77.8531 184.362 76.7701 187.297 75.6436 189.996C75.7838 190.147 75.9232 190.298 76.0626 190.449C76.3029 190.71 76.5435 190.971 76.7881 191.233C76.9572 191.414 77.1679 191.64 77.3106 191.948C77.5147 192.388 77.5078 192.878 77.2924 193.26C77.0439 193.701 76.5313 193.968 75.979 193.945C75.563 193.926 75.2144 193.756 74.9568 193.611C74.7434 193.49 74.5396 193.356 74.3456 193.21C74.0285 193.783 73.5179 194.375 72.8172 194.981C72.6449 195.13 72.3744 195.339 72.0185 195.428C71.5502 195.545 71.0678 195.415 70.7598 195.087C70.7276 195.053 70.698 195.017 70.6713 194.982C70.4789 195.185 70.2465 195.378 69.9514 195.506C69.7392 195.599 69.5159 195.644 69.2979 195.644ZM69.9592 191.063C70.1514 191.063 70.3428 191.137 70.4883 191.282C70.7677 191.562 70.7819 192.009 70.521 192.306C70.1179 192.764 69.7787 193.269 69.5126 193.808C69.4593 193.916 69.4081 194.027 69.3851 194.119C69.5072 194.051 69.6386 193.899 69.7417 193.77C70.3395 193.025 70.7116 192.406 70.9127 191.823C71.0425 191.447 71.443 191.239 71.8255 191.348C72.2078 191.457 72.4378 191.846 72.3493 192.234L72.0157 193.692C73.0799 192.726 73.2406 192.123 73.2381 191.842C73.2353 191.525 73.4325 191.241 73.7304 191.133C74.0285 191.025 74.3621 191.116 74.5636 191.36C74.8757 191.739 75.2666 192.067 75.6938 192.309C75.7148 192.321 75.7508 192.341 75.7934 192.363C75.7609 192.326 75.7267 192.29 75.6927 192.253C75.4466 191.989 75.2045 191.727 74.9624 191.464C74.716 191.197 74.4696 190.93 74.2189 190.661C74.0176 190.445 73.9621 190.131 74.0772 189.859C75.1573 187.307 76.1992 184.532 77.1785 181.598L68.6142 179.855C68.4083 183.731 68.7313 186.832 69.1237 188.502C69.1752 188.722 69.1252 188.953 68.9873 189.131C68.8494 189.309 68.6387 189.416 68.4134 189.422C68.1297 189.429 67.7809 189.519 67.4115 189.615C67.2665 189.652 67.12 189.69 66.9722 189.725C67.4531 189.824 67.9416 189.816 68.3125 189.687C68.7024 189.551 69.128 189.756 69.2646 190.145C69.4015 190.534 69.1975 190.961 68.8088 191.099C68.2002 191.314 67.6356 191.628 67.1312 192.03C67.1015 192.054 67.0523 192.093 67.0039 192.137C67.0467 192.132 67.0835 192.125 67.1038 192.122C67.8397 191.992 68.8851 191.76 69.4636 191.25C69.6066 191.125 69.7831 191.063 69.9592 191.063Z" fill="#1F404D"/>
<path d="M113.896 191.745C114.392 191.211 114.872 190.684 115.369 190.152C114.178 187.339 113.038 184.262 111.982 181.034L122.215 178.951C122.525 183.283 122.185 186.779 121.74 188.674C122.48 188.692 123.341 189.09 124.082 189.108C124.345 189.115 124.667 189.158 124.766 189.403C124.823 189.544 124.779 189.713 124.686 189.834C124.592 189.955 124.457 190.037 124.32 190.107C123.52 190.518 122.425 190.69 121.576 190.394C122.259 190.637 122.902 190.994 123.47 191.446C123.639 191.58 123.803 191.726 123.91 191.915C124.015 192.103 124.052 192.341 123.957 192.535C123.869 192.713 123.685 192.828 123.491 192.871C123.297 192.914 123.096 192.893 122.9 192.859C121.992 192.698 120.879 192.431 120.176 191.812C120.62 192.316 120.997 192.877 121.294 193.477C121.391 193.676 121.481 193.881 121.505 194.101C121.529 194.319 121.477 194.556 121.322 194.714C121.112 194.926 120.758 194.942 120.484 194.822C120.209 194.702 119.998 194.474 119.81 194.239C119.289 193.591 118.787 192.854 118.516 192.068C118.647 192.641 118.777 193.214 118.909 193.788C118.97 194.056 119.02 194.375 118.83 194.576C118.699 194.716 118.485 194.75 118.299 194.704C118.113 194.657 117.952 194.542 117.808 194.417C117.075 193.784 116.14 192.806 116.149 191.838C115.777 192.29 115.32 192.672 114.81 192.961C114.597 193.082 114.368 193.188 114.123 193.199C113.878 193.21 113.615 193.107 113.495 192.894C113.388 192.705 113.411 192.462 113.504 192.264C113.595 192.067 113.747 191.903 113.896 191.745Z" fill="#F6E2D7"/>
<path d="M120.838 195.645C120.62 195.645 120.397 195.6 120.184 195.507C119.889 195.378 119.657 195.185 119.464 194.982C119.438 195.018 119.408 195.054 119.376 195.088C119.068 195.415 118.585 195.546 118.117 195.429C117.761 195.34 117.491 195.131 117.318 194.982C116.618 194.376 116.107 193.784 115.79 193.211C115.596 193.357 115.392 193.491 115.179 193.612C114.921 193.757 114.572 193.927 114.157 193.946C113.606 193.968 113.092 193.702 112.843 193.261C112.628 192.879 112.621 192.389 112.825 191.949C112.968 191.641 113.179 191.415 113.348 191.234C113.594 190.969 113.836 190.707 114.078 190.445C114.216 190.296 114.353 190.146 114.492 189.997C113.366 187.299 112.283 184.364 111.27 181.266C111.204 181.063 111.228 180.842 111.335 180.657C111.442 180.473 111.623 180.343 111.832 180.3L122.065 178.218C122.276 178.176 122.495 178.225 122.666 178.355C122.838 178.485 122.945 178.683 122.96 178.898C123.283 183.423 122.902 186.54 122.63 188.05C122.788 188.086 122.944 188.127 123.099 188.167C123.468 188.263 123.816 188.353 124.1 188.36C124.975 188.381 125.322 188.784 125.458 189.119C125.613 189.496 125.544 189.945 125.278 190.29C125.09 190.535 124.85 190.677 124.662 190.773C124.486 190.864 124.303 190.943 124.114 191.01C124.276 191.154 124.439 191.329 124.562 191.549C124.799 191.973 124.824 192.465 124.629 192.864C124.448 193.235 124.092 193.504 123.653 193.602C123.319 193.676 123.006 193.637 122.77 193.596C122.559 193.558 122.336 193.515 122.108 193.464C122.174 193.634 122.228 193.818 122.249 194.021C122.299 194.489 122.156 194.933 121.855 195.238C121.593 195.504 121.224 195.645 120.838 195.645ZM118.516 191.319C118.828 191.319 119.117 191.515 119.223 191.823C119.424 192.406 119.796 193.025 120.394 193.771C120.497 193.899 120.628 194.052 120.751 194.12C120.728 194.027 120.677 193.916 120.623 193.808C120.357 193.27 120.018 192.764 119.615 192.306C119.354 192.01 119.369 191.562 119.648 191.283C119.927 191.004 120.375 190.99 120.671 191.25C121.25 191.76 122.295 191.992 123.031 192.122C123.051 192.125 123.088 192.131 123.13 192.137C123.081 192.092 123.033 192.053 123.004 192.03C122.499 191.628 121.935 191.314 121.326 191.098C120.937 190.961 120.733 190.534 120.87 190.145C121.007 189.756 121.433 189.551 121.822 189.687C122.193 189.816 122.682 189.824 123.163 189.725C123.015 189.691 122.868 189.653 122.723 189.615C122.354 189.519 122.005 189.429 121.722 189.422C121.496 189.416 121.286 189.309 121.148 189.131C121.01 188.953 120.96 188.722 121.011 188.503C121.404 186.832 121.727 183.731 121.521 179.855L112.956 181.598C113.936 184.533 114.978 187.309 116.058 189.86C116.173 190.131 116.117 190.445 115.916 190.661C115.667 190.928 115.422 191.194 115.177 191.459C114.934 191.723 114.69 191.987 114.442 192.253C114.442 192.253 114.442 192.254 114.442 192.254C114.408 192.29 114.374 192.326 114.342 192.362C114.385 192.341 114.421 192.321 114.441 192.309C114.874 192.064 115.255 191.745 115.572 191.361C115.773 191.116 116.107 191.025 116.405 191.133C116.703 191.242 116.9 191.526 116.897 191.843C116.895 192.123 117.055 192.726 118.119 193.693L117.786 192.234C117.697 191.847 117.927 191.458 118.309 191.348C118.379 191.328 118.448 191.319 118.516 191.319Z" fill="#1F404D"/>
<path d="M119.011 161.512C115.393 154.022 110.996 146.725 104.721 141.265C102.485 139.319 99.8792 137.569 96.9279 137.306C95.216 137.154 93.4929 137.517 91.8713 138.086C86.2194 140.07 81.7445 144.446 77.9417 149.074C69.2539 159.646 63.044 172.242 59.9482 185.571L128.155 186.117C125.888 177.653 122.822 169.402 119.011 161.512Z" fill="#F27272"/>
<path d="M82.0348 145.263C83.5285 145.521 85.0378 145.607 86.5497 145.493C87.3052 145.436 87.979 145.41 88.703 145.665C89.3461 145.891 89.9533 146.143 90.6339 146.24C92.122 146.453 93.6673 146.359 95.1612 146.253C96.6808 146.146 98.1954 145.975 99.7104 145.817C101.427 145.639 103.144 145.46 104.86 145.282C105.195 145.247 105.484 145.02 105.484 144.658C105.484 144.348 105.197 144 104.86 144.035C101.855 144.347 98.8502 144.704 95.8389 144.954C94.3614 145.076 92.8599 145.172 91.3782 145.073C90.7001 145.028 90.0785 144.858 89.446 144.616C88.757 144.353 88.088 144.174 87.3429 144.195C86.5107 144.217 85.6875 144.313 84.8528 144.297C84.0187 144.28 83.1883 144.203 82.3661 144.061C82.0348 144.004 81.6946 144.149 81.599 144.497C81.5169 144.797 81.7012 145.206 82.0348 145.263Z" fill="#F9C5C5"/>
<path d="M77.5899 149.998C78.4321 150.076 79.1746 150.614 79.8512 151.079C80.5896 151.586 81.342 152.116 82.2182 152.354C82.7802 152.507 83.346 152.497 83.9204 152.438C84.5598 152.373 85.1887 152.357 85.8303 152.405C87.0996 152.501 88.3466 152.7 89.6235 152.696C90.9212 152.691 92.2169 152.612 93.5151 152.615C94.8132 152.617 96.1109 152.663 97.4074 152.723C100.033 152.844 102.658 152.992 105.282 153.128C106.673 153.2 108.061 153.239 109.426 152.91C110.76 152.589 112.013 151.996 113.25 151.415C113.554 151.272 113.632 150.834 113.473 150.562C113.291 150.25 112.926 150.195 112.62 150.338C111.562 150.836 110.499 151.332 109.366 151.638C108.2 151.953 107.017 151.963 105.817 151.908C103.24 151.789 100.664 151.636 98.0868 151.508C95.5276 151.382 92.9868 151.367 90.4261 151.436C89.137 151.47 87.8827 151.374 86.603 151.233C85.9913 151.165 85.3761 151.109 84.7598 151.126C84.1483 151.143 83.5255 151.296 82.9138 151.226C81.9887 151.121 81.1884 150.487 80.4446 149.978C79.5683 149.377 78.6683 148.851 77.5897 148.751C77.254 148.72 76.9663 149.06 76.9663 149.375C76.9666 149.738 77.2533 149.967 77.5899 149.998Z" fill="#F9C5C5"/>
<path d="M65.4162 170.122C66.5906 171.05 68.2105 171.345 69.7904 171.533C71.5928 171.748 73.3503 172.024 75.0995 172.44C78.7505 173.309 82.2876 174.508 86.0686 174.99C90.0223 175.494 94.0307 175.346 98.0011 175.063C101.901 174.785 105.958 174.618 109.619 173.414C111.664 172.742 113.624 171.927 115.698 171.306C117.77 170.686 119.887 170.167 122.002 169.649C122.767 169.461 122.441 168.499 121.67 168.688C119.801 169.146 117.93 169.604 116.089 170.133C114.232 170.666 112.443 171.307 110.653 171.969C108.908 172.614 107.138 173.111 105.245 173.395C103.369 173.676 101.462 173.802 99.5644 173.949C95.6536 174.251 91.7018 174.506 87.7803 174.174C84.0249 173.856 80.5156 172.786 76.9501 171.859C74.9933 171.35 73.0132 170.907 70.9737 170.67C69.3726 170.484 67.5119 170.376 66.2981 169.417C65.7267 168.965 64.8445 169.67 65.4162 170.122Z" fill="#F9C5C5"/>
<path d="M69.6639 161.881C72.9166 162.988 76.1693 164.094 79.4217 165.201C82.5191 166.254 85.6128 167.401 88.8227 168.07C90.4261 168.404 92.0653 168.619 93.7049 168.616C95.3712 168.612 97.0165 168.344 98.6414 167.994C100.239 167.65 101.83 167.285 103.433 166.968C105.039 166.65 106.629 166.293 108.179 165.758C109.943 165.148 111.662 164.405 113.389 163.7C115.185 162.968 116.981 162.235 118.777 161.502C119.088 161.375 119.309 161.087 119.212 160.735C119.131 160.44 118.759 160.171 118.445 160.299C115.331 161.57 112.233 162.894 109.093 164.099C107.557 164.688 105.996 165.159 104.386 165.503C102.791 165.845 101.187 166.142 99.5951 166.504C98.0393 166.858 96.4757 167.217 94.8799 167.327C93.3155 167.435 91.74 167.327 90.1957 167.065C86.9785 166.518 83.8908 165.405 80.8112 164.357C77.2059 163.131 73.6005 161.904 69.9952 160.678C69.2342 160.419 68.9071 161.623 69.6639 161.881Z" fill="#F9C5C5"/>
<path d="M76.76 156.761C78.009 157.02 79.3916 157.106 80.3996 157.976C80.8924 158.401 81.3112 158.906 81.8146 159.32C82.3731 159.779 82.9856 160.072 83.6853 160.253C85.1944 160.643 86.6877 161.058 88.1816 161.504C91.1213 162.382 94.2432 163.147 97.3065 162.453C98.7867 162.117 100.141 161.389 101.593 160.962C103.064 160.529 104.58 160.282 106.076 159.952C109.539 159.187 112.838 157.865 116.119 156.546C116.431 156.421 116.651 156.13 116.555 155.779C116.473 155.483 116.102 155.217 115.788 155.343C112.947 156.486 110.097 157.632 107.131 158.413C105.662 158.8 104.165 159.053 102.686 159.392C101.94 159.562 101.2 159.758 100.477 160.011C99.7937 160.25 99.1295 160.541 98.4511 160.795C97.0771 161.308 95.6854 161.529 94.2194 161.465C92.71 161.4 91.2313 161.07 89.7797 160.668C88.3158 160.263 86.8738 159.782 85.4055 159.393C84.7317 159.215 83.995 159.12 83.3529 158.841C82.7972 158.599 82.3716 158.16 81.9518 157.737C81.4382 157.221 80.9068 156.71 80.2444 156.388C79.5521 156.051 78.8099 155.878 78.0569 155.739C76.8508 155.516 75.2818 155.343 74.535 154.227C74.0906 153.564 73.0099 154.188 73.4584 154.857C74.2113 155.981 75.4786 156.496 76.76 156.761Z" fill="#F9C5C5"/>
<path d="M126.295 178.574C126.199 178.225 125.858 178.079 125.523 178.139C121.453 178.865 117.341 179.305 113.231 179.737C109.104 180.171 104.974 180.611 100.825 180.763C96.6895 180.915 92.53 180.77 88.4319 180.174C86.4282 179.883 84.4412 179.49 82.4367 179.204C80.358 178.908 78.2902 178.78 76.1907 178.809C73.8589 178.841 71.5447 178.894 69.2198 178.666C66.9383 178.442 64.6793 178.043 62.4231 177.647C62.0895 177.589 61.7465 177.736 61.6507 178.083C61.5673 178.384 61.7536 178.791 62.0892 178.85C64.1325 179.209 66.177 179.563 68.2382 179.807C70.322 180.053 72.4015 180.125 74.4985 180.087C76.5833 180.05 78.6585 180.011 80.7352 180.236C82.7744 180.455 84.7895 180.848 86.8122 181.178C90.9476 181.85 95.1274 182.132 99.3166 182.053C103.511 181.974 107.688 181.565 111.857 181.129C116.021 180.694 120.19 180.273 124.324 179.603C124.835 179.52 125.346 179.432 125.857 179.341C126.191 179.282 126.379 178.877 126.295 178.574Z" fill="#F9C5C5"/>
<path d="M128.154 186.904C128.152 186.904 128.15 186.904 128.148 186.904L59.9411 186.358C59.702 186.356 59.4769 186.245 59.3291 186.058C59.1811 185.87 59.1266 185.625 59.1805 185.392C62.3004 171.96 68.5774 159.228 77.3327 148.574C80.6769 144.504 85.3222 139.55 91.6098 137.343C93.5988 136.645 95.3619 136.376 96.997 136.522C100.464 136.83 103.36 139.037 105.237 140.67C112.319 146.833 116.894 155.321 119.719 161.169C123.545 169.091 126.639 177.416 128.915 185.913C128.978 186.15 128.927 186.404 128.777 186.598C128.628 186.791 128.398 186.904 128.154 186.904ZM60.9424 184.791L127.122 185.321C124.9 177.266 121.935 169.376 118.302 161.854C113.847 152.633 109.5 146.466 104.203 141.858C101.484 139.491 99.1495 138.294 96.8579 138.09C95.4497 137.965 93.904 138.206 92.1315 138.829C86.2119 140.906 81.7637 145.662 78.5495 149.573C70.1555 159.788 64.0798 171.947 60.9424 184.791Z" fill="#1F404D"/>
<path d="M107.584 142.419C107.364 141.083 106.548 140.85 105.383 140.308C104.806 145.342 104.321 150.155 103.965 155.401C98.115 155.042 92.2322 154.62 86.3823 154.895C85.9506 149.748 85.8391 144.681 85.0826 139.763C84.3467 140.254 82.958 141.144 82.7225 141.965C82.5661 142.511 82.6335 157.801 82.0811 160.547C80.9672 166.085 76.0186 197.829 76.0112 203.58H114.593C113.713 192.558 108.434 165.15 107.993 160.067C107.642 156.018 107.802 143.741 107.584 142.419Z" fill="#C5FFF9"/>
<path d="M114.593 204.453H76.0105C75.7788 204.453 75.5567 204.361 75.393 204.197C75.2292 204.033 75.1374 203.811 75.1377 203.579C75.145 197.711 80.1548 165.694 81.2248 160.375C81.5683 158.668 81.6662 151.506 81.7311 146.766C81.7881 142.603 81.8066 141.991 81.8827 141.725C82.1709 140.72 83.3254 139.883 84.4834 139.113L84.5972 139.037C84.8451 138.871 85.1605 138.843 85.4338 138.964C85.7068 139.084 85.8995 139.335 85.9451 139.63C86.4615 142.988 86.6848 146.475 86.9005 149.848C86.9872 151.203 87.0765 152.598 87.1847 153.988C92.3428 153.803 97.5627 154.128 102.619 154.443L103.154 154.477C103.462 150.14 103.887 145.694 104.515 140.209C104.547 139.93 104.711 139.684 104.956 139.547C105.201 139.409 105.496 139.398 105.751 139.517C105.864 139.569 105.973 139.619 106.079 139.667C107.107 140.132 108.171 140.613 108.445 142.277C108.548 142.904 108.571 145.138 108.602 149.031C108.633 152.931 108.671 157.786 108.862 159.992C109.033 161.964 109.977 167.543 111.07 174.003C112.789 184.161 114.927 196.803 115.463 203.511C115.482 203.753 115.399 203.993 115.234 204.172C115.069 204.351 114.836 204.453 114.593 204.453ZM76.9107 202.707H113.64C113 195.876 110.983 183.958 109.349 174.295C108.204 167.529 107.3 162.185 107.123 160.143C106.926 157.868 106.889 153.18 106.856 149.044C106.833 146.114 106.809 143.085 106.723 142.561C106.643 142.081 106.498 141.858 106.112 141.627C105.522 146.888 105.125 151.198 104.836 155.46C104.804 155.939 104.392 156.305 103.912 156.273L102.511 156.186C97.225 155.856 91.7595 155.516 86.4232 155.766C85.9466 155.784 85.5516 155.435 85.5124 154.967C85.3712 153.286 85.2632 151.594 85.1585 149.959C84.9671 146.967 84.7848 144.119 84.4182 141.298C84.0286 141.602 83.6691 141.929 83.5743 142.168C83.5345 142.593 83.5054 144.725 83.4772 146.79C83.4075 151.881 83.3119 158.854 82.9367 160.719C81.9177 165.784 77.3069 195.139 76.9107 202.707Z" fill="#1F404D"/>
<path d="M105.075 125.406C105.075 134.497 100.766 147.829 95.4502 147.829C90.1345 147.829 85.8252 134.497 85.8252 125.406C85.8252 116.315 90.1345 114.907 95.4502 114.907C100.766 114.907 105.075 116.315 105.075 125.406Z" fill="#F9DDD2"/>
<path d="M95.4512 148.72C89.3506 148.72 84.9346 134.794 84.9346 125.406C84.9346 115.369 90.2508 114.016 95.4512 114.016C100.652 114.016 105.968 115.369 105.968 125.406C105.968 134.794 101.552 148.72 95.4512 148.72ZM95.4512 115.799C91.0321 115.799 86.7177 116.541 86.7177 125.406C86.7177 134.608 91.0354 146.937 95.4512 146.937C99.867 146.937 104.185 134.608 104.185 125.406C104.185 116.541 99.8703 115.799 95.4512 115.799Z" fill="#1F404D"/>
<path d="M136.208 90.8657C138.321 88.6006 141.673 87.0809 145.219 86.7805C148.764 86.48 152.449 87.4036 155.124 89.263C159.144 92.0571 160.578 96.6015 160.231 100.818C159.81 105.911 157.042 110.865 152.557 114.546C148.073 118.227 141.908 120.607 135.47 121.143C131.03 120.308 127.934 117.479 126.728 114.007C125.521 110.536 126.143 106.817 127.409 103.36C129.032 98.9266 132.741 94.5823 136.208 90.8657Z" fill="#F6E2D7"/>
<path d="M135.47 122.034C135.415 122.034 135.36 122.029 135.306 122.018C130.793 121.171 127.271 118.285 125.886 114.299C124.761 111.064 124.986 107.385 126.572 103.053C128.253 98.4619 132.057 94.0083 135.556 90.2572C137.81 87.8416 141.394 86.2095 145.143 85.8919C148.879 85.5765 152.8 86.5619 155.633 88.5306C159.485 91.2087 161.536 95.829 161.119 100.891C160.682 106.194 157.767 111.422 153.123 115.234C148.528 119.006 142.121 121.483 135.544 122.03C135.519 122.032 135.495 122.034 135.47 122.034ZM146.544 87.616C146.127 87.616 145.709 87.6332 145.294 87.6685C141.973 87.9499 138.82 89.3723 136.86 91.4736C133.483 95.0939 129.818 99.3735 128.246 103.666C126.807 107.596 126.586 110.883 127.57 113.714C128.731 117.054 131.697 119.488 135.518 120.243C141.7 119.706 147.698 117.381 151.992 113.856C156.265 110.348 158.944 105.569 159.342 100.744C159.712 96.2579 157.989 92.3398 154.615 89.9946C152.425 88.4721 149.481 87.616 146.544 87.616Z" fill="#1F404D"/>
<path d="M123.839 111.526C123.483 111.436 123.148 111.28 122.865 111.057C121.922 110.312 121.923 109.104 122.868 108.361C129.916 102.811 139.248 99.2611 149.143 98.3652C150.469 98.245 151.669 98.9954 151.821 100.042C151.974 101.088 151.021 102.033 149.695 102.153C140.879 102.951 132.565 106.114 126.284 111.058C125.622 111.58 124.673 111.735 123.839 111.526Z" fill="#1F404D"/>
<path d="M48.4204 90.8056C46.3074 88.5734 42.9554 87.0757 39.4098 86.7796C35.8643 86.4836 32.1794 87.3939 29.5044 89.2262C25.4846 91.9798 24.05 96.4584 24.3978 100.614C24.8179 105.633 27.5864 110.515 32.0706 114.142C36.5551 117.77 42.7206 120.116 49.1581 120.644C53.5985 119.822 56.694 117.033 57.9004 113.612C59.1071 110.191 58.4853 106.526 57.219 103.118C55.5961 98.7496 51.8876 94.4682 48.4204 90.8056Z" fill="#F6E2D7"/>
<path d="M49.1593 121.535C49.1349 121.535 49.1106 121.534 49.0865 121.532C42.5119 120.993 36.1058 118.552 31.5111 114.835C26.8643 111.077 23.9483 105.92 23.5105 100.688C23.0925 95.6921 25.1453 91.1326 29.0016 88.4908C31.833 86.5512 35.753 85.5796 39.485 85.8914C43.2326 86.2042 46.8156 87.8124 49.0688 90.1928C52.5689 93.8902 56.3738 98.2806 58.056 102.808C59.6445 107.083 59.8691 110.714 58.7425 113.908C57.3561 117.839 53.8341 120.685 49.3215 121.521C49.268 121.53 49.2135 121.535 49.1593 121.535ZM38.0849 87.6162C35.1461 87.6162 32.2006 88.4604 30.0091 89.9616C26.639 92.2703 24.9179 96.1258 25.287 100.539C25.6845 105.289 28.3618 109.995 32.6323 113.449C36.9274 116.924 42.9281 119.215 49.1124 119.745C52.9345 119.001 55.9007 116.604 57.0608 113.315C58.0428 110.53 57.8215 107.297 56.3844 103.429C54.8137 99.2016 51.1503 94.9853 47.7739 91.4185C45.8135 89.3477 42.6594 87.9455 39.3365 87.6682C38.9213 87.6332 38.503 87.6162 38.0849 87.6162Z" fill="#1F404D"/>
<path d="M60.7889 111.166C61.1451 111.078 61.4802 110.924 61.7631 110.704C62.7067 109.97 62.7056 108.78 61.7606 108.047C54.7119 102.577 45.3807 99.079 35.4851 98.196C34.1595 98.0777 32.9597 98.8171 32.8076 99.8481C32.6548 100.879 33.6069 101.81 34.9335 101.929C43.7496 102.716 52.0633 105.833 58.3439 110.705C59.0063 111.219 59.9549 111.373 60.7889 111.166Z" fill="#1F404D"/>
<path d="M149.299 70.904C149.314 74.917 149.052 84.519 147.025 94.9441C144.572 107.579 139.53 121.421 129.268 127.99C108.306 141.406 82.1832 142.742 58.6484 128.29C49.1871 122.481 43.7398 109.252 40.6937 96.5404C38.381 86.8984 37.4498 77.5532 37.1923 71.9591C36.6252 59.6933 39.3567 48.585 49.4865 41.2724C53.9193 38.0727 59.0152 35.9826 64.2128 34.4762C83.6165 28.8497 105.242 26.5152 123.805 34.3964C130.166 37.0975 139.83 40.806 144.877 45.692C150.019 50.6698 149.296 70.1159 149.299 70.904Z" fill="#FCE9E0"/>
<path d="M149.299 70.904C149.314 74.917 149.052 84.519 147.025 94.9441C137.431 92.4276 128.761 87.1478 120.592 81.611C119.196 80.6657 116.849 79.9075 117.062 78.2815C112.135 81.0125 106.329 82.04 100.637 81.9751C94.9456 81.9127 89.3214 80.8079 83.7935 79.511C81.4574 78.9624 79.1135 78.3763 76.7126 78.2516C77.6543 70.8467 72.2461 63.4619 74.1007 56.2168C67.7431 63.0406 63.0786 70.8941 60.1053 79.5909C55.9587 81.9203 51.8251 84.3321 48.2116 87.3699C45.1419 89.9513 42.4418 93.0215 40.6937 96.5404C38.381 86.8984 37.4498 77.5532 37.1923 71.9591C36.6252 59.6933 39.3567 48.585 49.4865 41.2724C53.9193 38.0727 59.0152 35.9826 64.2128 34.4762C83.6165 28.8497 105.242 26.5152 123.805 34.3964C130.166 37.0975 139.83 40.806 144.877 45.692C150.019 50.6698 149.296 70.1159 149.299 70.904Z" fill="#F9DDD2"/>
<path d="M93.8282 139.493C81.4557 139.493 69.4688 135.982 58.1812 129.05C38.9261 117.226 36.5132 76.5951 36.3013 72.0011C35.6315 57.4738 39.774 47.1861 48.9651 40.5506C52.9849 37.6485 57.8915 35.3817 63.9654 33.6206C84.356 27.7086 98.2415 25.7166 117.547 31.2354C126.072 33.6723 141.221 39.603 145.578 45.1423C149.258 49.822 150.905 58.8148 150.214 70.4639C150.2 70.689 150.191 70.8388 150.19 70.9029C150.221 78.3605 149.38 116.178 129.749 128.742C119.09 135.564 107.052 139.278 94.9383 139.483C94.5677 139.489 94.1976 139.493 93.8282 139.493ZM95.872 29.78C86.037 29.78 76.3833 31.8765 64.462 35.333C58.5876 37.0363 53.86 39.2157 50.0088 41.9961C41.344 48.2518 37.4425 58.0399 38.0824 71.919C38.2898 76.4164 40.6413 116.187 59.1141 127.531C81.2326 141.114 107.279 141.005 128.788 127.239C136.553 122.27 142.159 112.46 145.452 98.0819C148.247 85.8734 148.42 74.197 148.407 70.908C148.406 70.8195 148.414 70.6837 148.434 70.3579C149.098 59.1444 147.587 50.5808 144.176 46.2441C140.297 41.3121 125.982 35.5006 117.057 32.949C109.392 30.7583 102.589 29.78 95.872 29.78Z" fill="#1F404D"/>
<path d="M72.1812 115.787C73.5301 110.361 70.0176 104.818 64.3356 103.405C58.6537 101.992 52.954 105.245 51.6051 110.671C50.2561 116.096 53.7687 121.639 59.4507 123.052C65.1326 124.465 70.8323 121.212 72.1812 115.787Z" fill="#F9B9B9"/>
<path d="M135.793 115.05C137.142 109.625 133.63 104.082 127.948 102.67C122.267 101.257 116.568 104.509 115.219 109.934C113.87 115.359 117.382 120.902 123.063 122.315C128.745 123.728 134.444 120.475 135.793 115.05Z" fill="#F9B9B9"/>
<path d="M96.7175 99.0061C96.6916 100.023 94.8689 100.806 92.6462 100.754C90.4237 100.702 88.6429 99.835 88.6687 98.8177C88.6946 97.8004 90.5173 97.0179 92.74 97.0698C94.9627 97.1218 96.7436 97.9888 96.7175 99.0061Z" fill="#EFA29A"/>
<path d="M113.359 103.999C119.975 103.999 125.338 98.2333 125.338 91.1214C125.338 84.0095 119.975 78.2441 113.359 78.2441C106.743 78.2441 101.38 84.0095 101.38 91.1214C101.38 98.2333 106.743 103.999 113.359 103.999Z" fill="white"/>
<path d="M104.592 89.2329C103.573 94.1864 106.672 99.0478 111.514 100.091C116.042 101.066 120.494 98.355 121.881 93.9471L116.714 91.8156L122.26 92.1644C122.788 87.5152 119.771 83.1349 115.205 82.1515C110.364 81.1089 105.612 84.2794 104.592 89.2329Z" fill="#1F404D"/>
<path d="M108.595 92.1044C106.55 91.664 105.878 94.9147 107.926 95.3558C109.971 95.7964 110.643 92.5455 108.595 92.1044Z" fill="white"/>
<path d="M125.601 93.7519C125.591 93.7519 125.581 93.7517 125.57 93.7514C125.149 93.7347 124.82 93.379 124.837 92.9575C124.973 89.5524 123.913 86.1633 121.928 83.6584C119.837 81.0179 116.686 79.3336 113.499 79.1529C110.206 78.9668 106.855 80.466 104.953 82.9735C104.698 83.3096 104.219 83.3758 103.883 83.1207C103.546 82.8657 103.48 82.3863 103.735 82.0502C105.969 79.104 109.746 77.4098 113.585 77.627C117.201 77.8321 120.768 79.7321 123.126 82.7095C125.333 85.4963 126.514 89.2535 126.364 93.018C126.348 93.4295 126.01 93.7519 125.601 93.7519Z" fill="#1F404D"/>
<path d="M118.471 80.6015C118.257 80.6015 118.045 80.5123 117.893 80.3381C117.617 80.0192 117.651 79.5368 117.97 79.2602C118.88 78.4705 119.405 77.2129 119.867 76.1033C120.03 75.7137 120.476 75.5294 120.866 75.6919C121.256 75.8544 121.44 76.3018 121.278 76.6912C120.777 77.8933 120.153 79.3895 118.972 80.4144C118.827 80.5399 118.648 80.6015 118.471 80.6015Z" fill="#1F404D"/>
<path d="M120.906 82.233C120.56 82.233 120.246 81.9957 120.163 81.6439C120.066 81.2332 120.321 80.8215 120.732 80.7249C121.264 80.5997 121.704 80.228 121.981 79.938C122.377 79.522 122.697 79.0224 123.035 78.4933C123.262 78.1377 123.735 78.0337 124.09 78.2611C124.446 78.4885 124.55 78.961 124.323 79.3164C123.96 79.8835 123.585 80.4696 123.087 80.9926C122.485 81.6236 121.792 82.0454 121.082 82.2127C121.023 82.2267 120.964 82.233 120.906 82.233Z" fill="#1F404D"/>
<path d="M125.452 99.408C125.317 99.408 125.179 99.3718 125.055 99.2957L123.608 98.4112C123.248 98.1912 123.134 97.7209 123.354 97.3607C123.575 97.0007 124.045 96.8874 124.405 97.1072L125.852 97.9917C126.212 98.2117 126.325 98.6822 126.105 99.0422C125.961 99.278 125.71 99.408 125.452 99.408Z" fill="#1F404D"/>
<path d="M122.623 101.784C122.464 101.784 122.304 101.735 122.168 101.633L121.126 100.858C120.788 100.606 120.718 100.127 120.97 99.7886C121.222 99.4499 121.7 99.3797 122.039 99.6317L123.08 100.407C123.419 100.659 123.489 101.137 123.237 101.476C123.087 101.677 122.856 101.784 122.623 101.784Z" fill="#1F404D"/>
<path d="M119.28 103.885C119.046 103.885 118.815 103.778 118.665 103.576C118.347 103.146 118.092 102.677 117.906 102.181C117.758 101.786 117.958 101.346 118.353 101.198C118.749 101.049 119.189 101.25 119.337 101.645C119.473 102.008 119.66 102.351 119.893 102.666C120.144 103.006 120.073 103.484 119.734 103.735C119.597 103.837 119.438 103.885 119.28 103.885Z" fill="#1F404D"/>
<path d="M72.4798 104C79.0955 104 84.4586 98.2343 84.4586 91.1224C84.4586 84.0105 79.0955 78.2451 72.4798 78.2451C65.8641 78.2451 60.501 84.0105 60.501 91.1224C60.501 98.2343 65.8641 104 72.4798 104Z" fill="white"/>
<path d="M81.2457 89.2339C82.2651 94.1874 79.1657 99.0488 74.324 100.092C69.7957 101.067 65.3444 98.356 63.9567 93.948L69.1239 91.8166L63.5785 92.1654C63.0499 87.5161 66.0672 83.1358 70.6328 82.1525C75.4747 81.1098 80.2266 84.2804 81.2457 89.2339Z" fill="#1F404D"/>
<path d="M77.2454 92.1044C79.2904 91.664 79.9627 94.9147 77.9144 95.3558C75.8694 95.7964 75.1971 92.5455 77.2454 92.1044Z" fill="white"/>
<path d="M60.2371 93.753C59.829 93.753 59.4903 93.4306 59.4741 93.0191C59.3245 89.2546 60.5048 85.4972 62.7121 82.7106C65.0707 79.7332 68.6375 77.8335 72.2532 77.6281C76.0938 77.4101 79.8695 79.105 82.1031 82.0513C82.3582 82.3874 82.2923 82.8668 81.9559 83.1218C81.6195 83.3771 81.1403 83.3109 80.8853 82.9745C78.9843 80.4671 75.6312 78.9666 72.3397 79.154C69.1531 79.3347 66.0018 81.019 63.9102 83.6595C61.9262 86.1641 60.8658 89.5535 61.0012 92.9585C61.0179 93.3804 60.6897 93.7355 60.2681 93.7525C60.2577 93.7528 60.2473 93.753 60.2371 93.753Z" fill="#1F404D"/>
<path d="M67.3672 80.6022C67.1898 80.6022 67.0113 80.5406 66.8668 80.4154C65.6855 79.3905 65.0619 77.8943 64.5604 76.6922C64.3982 76.3028 64.5822 75.8554 64.9719 75.6929C65.3618 75.5304 65.8089 75.7147 65.9712 76.1043C66.4336 77.2136 66.9581 78.4713 67.8681 79.2612C68.1871 79.5378 68.2213 80.0204 67.9447 80.3391C67.7936 80.513 67.5812 80.6022 67.3672 80.6022Z" fill="#1F404D"/>
<path d="M64.9338 82.2333C64.8757 82.2333 64.8169 82.2267 64.7581 82.2127C64.0475 82.0454 63.3542 81.6236 62.7529 80.9926C62.2545 80.4699 61.8795 79.8835 61.5173 79.3164C61.2901 78.9608 61.3941 78.4882 61.7495 78.2611C62.1052 78.0337 62.5777 78.1377 62.8048 78.4933C63.143 79.0224 63.4624 79.5223 63.8591 79.938C64.1355 80.2278 64.5763 80.5997 65.1082 80.7249C65.5188 80.8215 65.7736 81.2329 65.6768 81.6439C65.5941 81.996 65.2803 82.2333 64.9338 82.2333Z" fill="#1F404D"/>
<path d="M60.3885 99.4082C60.131 99.4082 59.8797 99.2781 59.7357 99.0424C59.5157 98.6821 59.6293 98.2119 59.9892 97.9918L61.436 97.1074C61.796 96.8873 62.2665 97.0007 62.4865 97.3609C62.7066 97.7211 62.5932 98.1914 62.233 98.4114L60.786 99.2959C60.662 99.3719 60.5244 99.4082 60.3885 99.4082Z" fill="#1F404D"/>
<path d="M63.2156 101.784C62.9821 101.784 62.7519 101.677 62.6019 101.476C62.3499 101.137 62.4201 100.659 62.7588 100.407L63.7999 99.6317C64.1386 99.3797 64.617 99.4499 64.8692 99.7886C65.1212 100.127 65.051 100.606 64.7123 100.858L63.6711 101.633C63.5343 101.735 63.3743 101.784 63.2156 101.784Z" fill="#1F404D"/>
<path d="M66.5601 103.886C66.4019 103.886 66.2427 103.837 66.1058 103.736C65.7666 103.485 65.6953 103.006 65.9466 102.667C66.1798 102.352 66.3669 102.009 66.5025 101.646C66.6505 101.251 67.0914 101.05 67.4861 101.198C67.8813 101.346 68.0818 101.786 67.934 102.182C67.7482 102.678 67.4929 103.147 67.1745 103.577C67.0247 103.779 66.7938 103.886 66.5601 103.886Z" fill="#1F404D"/>
<path d="M155.037 73.445C154.314 83.4161 151.481 91.2101 148.874 93.2054C146.934 92.6766 145.162 91.709 143.411 90.7513C141.538 89.7238 139.665 88.6986 137.792 87.6737C135.781 86.5738 133.76 85.4639 131.991 84.0375C128.591 81.294 122.707 77.2037 121.963 73.0062C120.188 63.01 118.053 52.7921 112.205 44.3423C115.293 54.5879 117.056 65.3321 116.299 75.9717C115.066 75.8995 114.611 75.8222 113.378 75.7496C112.493 64.9255 109.936 53.3531 107.564 42.736C109.746 53.822 110.93 65.3844 110.035 76.6351C107.392 78.3985 101.768 78.7552 98.5503 78.7425C93.8209 78.725 91.0792 77.6502 86.7687 75.7796C87.1226 64.1746 87.8874 52.3231 88.241 40.7182C83.301 51.9639 81.3629 64.7235 81.8547 76.9168C76.176 78.9271 69.6594 78.5803 63.8689 76.8818C63.3147 65.9155 66.067 54.9119 71.5168 45.2549C63.7464 53.1361 58.5749 66.1849 57.7087 76.9966C48.864 84.9774 43.4947 87.4392 34.5826 91.562C30.7118 85.8607 28.105 61.9377 38.8723 42.17C46.9419 27.3478 62.5319 14.8628 90.7464 14.1469C146.27 12.7376 156.785 49.4126 155.037 73.445Z" fill="#3B6A82"/>
<path d="M154.539 73.4462C153.816 83.4173 150.983 91.2113 148.376 93.2066C146.436 92.6778 144.664 91.7102 142.913 90.7525C141.04 89.725 139.167 88.6998 137.294 87.6749C135.284 86.575 133.262 85.4651 131.493 84.0387C128.093 81.2952 122.209 77.2049 121.465 73.0074C119.691 63.0112 117.555 52.7933 111.707 44.3435C114.795 54.5891 116.559 65.3333 115.802 75.9729C114.569 75.9007 114.113 75.8233 112.88 75.7508C111.996 64.9267 109.439 53.3543 107.066 42.7372C109.249 53.8232 110.433 65.3856 109.538 76.6363C106.895 78.3997 101.27 78.7564 98.0527 78.7437C93.3233 78.7262 90.5817 77.6514 86.2711 75.7808C86.625 64.1758 87.3898 52.3243 87.7435 40.7194C82.8034 51.9651 80.8654 64.7247 81.3572 76.918C75.6784 78.9283 69.1619 78.5815 63.3713 76.883C62.8172 65.9167 65.5695 54.9131 71.0193 45.2561C63.2489 53.1373 58.0774 66.1861 57.2112 76.9978C48.3664 84.9786 42.9972 87.4404 34.085 91.5632C30.2142 85.8619 27.6075 61.9389 38.3748 42.1712C38.2838 42.4878 38.1928 42.8021 38.1015 43.1165C36.5744 48.4462 35.331 53.9082 35.3596 59.4376C35.3933 65.6578 37.0687 71.8629 40.1879 77.315C41.2414 76.6789 42.3756 76.1876 43.5749 75.8685C42.9376 64.1713 48.4057 52.6389 56.5817 43.9348C50.3227 52.2226 49.1132 63.1114 49.9871 73.3096C50.2575 64.528 53.8631 55.9935 59.4093 49.0001C64.9555 42.0066 72.372 36.5 80.4598 32.3697C77.9833 37.5822 75.5223 42.8323 73.9277 48.3516C72.3332 53.8734 71.6254 59.717 72.7051 65.3485C73.7845 65.3759 74.2502 65.7177 75.3273 65.745C75.486 65.7476 75.6551 65.7501 75.793 65.6776C76.0323 65.5478 76.0975 65.2537 76.1391 64.9942C76.9508 59.9188 78.0953 54.8933 79.5652 49.955C81.5967 43.1312 84.2763 36.2701 83.8547 29.1872C92.0518 39.6648 95.4908 53.4443 93.1287 66.3458C96.677 56.0703 97.2311 45.3709 94.783 34.8061C99.6242 44.2286 102.22 54.7011 102.325 65.201C105.332 52.2069 104.369 38.1582 100.202 25.4609C102.993 27.1817 105.246 29.5761 107.465 31.943C112.486 37.2953 117.572 42.7423 120.836 49.2219C123.393 54.3024 124.746 59.849 126.01 65.3584C127.688 56.522 127.813 47.7878 124.418 39.4179C132.15 48.0971 136.77 59.2754 137.334 70.6757C139.67 73.736 142.781 76.2125 146.392 77.7614C147.131 67.6904 147.966 57.6793 145.232 47.93C149.11 55.2175 149.966 72.5212 150.226 72.8107C150.405 73.01 153.329 73.4987 154.539 73.4462Z" fill="#2E6175"/>
<path d="M148.375 94.0975C148.297 94.0975 148.218 94.0871 148.14 94.066C146.089 93.5065 144.257 92.5032 142.485 91.5328L136.865 88.4547C134.852 87.3525 132.77 86.2125 130.933 84.73C130.505 84.3849 130.037 84.0181 129.545 83.6325C126.064 80.9026 121.296 77.1634 120.587 73.1618C119.186 65.2674 117.615 57.5906 114.343 50.7072C116.461 59.6622 117.251 68.1571 116.69 76.035C116.656 76.5223 116.234 76.8919 115.748 76.8617C115.119 76.8244 114.683 76.7859 114.262 76.7486C113.834 76.7109 113.431 76.6751 112.827 76.6396C112.384 76.6135 112.027 76.265 111.991 75.8223C111.708 72.36 111.245 68.7828 110.674 65.2013C110.805 69.1671 110.721 72.9917 110.425 76.7066C110.403 76.9788 110.258 77.2263 110.031 77.3776C106.934 79.4414 100.616 79.6396 98.0487 79.6338C93.1211 79.6163 90.2281 78.4684 85.916 76.5968C85.5811 76.4515 85.369 76.1169 85.3799 75.7521C85.556 69.9418 85.8405 63.9758 86.1155 58.2061C86.3092 54.1437 86.5074 49.9837 86.6692 45.8523C83.3272 55.304 81.8047 65.923 82.2476 76.88C82.2633 77.2706 82.023 77.6258 81.6544 77.7563C76.2603 79.6662 69.6776 79.6601 63.1184 77.7383C62.7546 77.6319 62.4978 77.3066 62.4788 76.9279C62.0529 68.5004 63.5222 60.0237 66.758 52.0345C62.0765 59.2011 58.787 68.4733 58.0988 77.0676C58.0805 77.2944 57.9763 77.5059 57.8072 77.6582C48.9113 85.6852 43.5268 88.1756 34.6063 92.3016L34.458 92.3701C34.0615 92.5529 33.5912 92.4228 33.3461 92.0618C31.1216 88.7853 29.7114 80.9948 29.8368 72.6761C29.9494 65.2134 31.274 53.9997 36.9459 42.9568C41.3685 34.3463 47.6493 27.4707 55.6137 22.5218C64.9517 16.7191 76.5965 13.6015 90.2246 13.2555C107.778 12.8088 122.168 16.1361 132.995 23.1424C142.022 28.9844 148.478 37.2679 152.184 47.7627C156.386 59.6637 155.815 71.0927 155.101 76.846C154.089 84.9974 151.603 91.8565 148.916 93.9137C148.76 94.0341 148.569 94.0975 148.375 94.0975ZM111.705 43.4504C111.99 43.4504 112.268 43.587 112.439 43.8347C118.346 52.3704 120.494 62.4305 122.342 72.8508C122.933 76.1813 127.391 79.6771 130.646 82.2299C131.144 82.6208 131.618 82.9927 132.052 83.3425C133.766 84.7252 135.777 85.8264 137.721 86.8911L143.341 89.9691C144.885 90.8143 146.477 91.6861 148.157 92.2134C150.042 90.355 152.339 84.6215 153.332 76.6265C154.027 71.0291 154.584 59.9129 150.503 48.3567C144.94 32.6004 129.979 14.0264 90.2705 15.0381C59.3026 15.8248 45.0423 31.0979 38.5325 43.7718C33.0181 54.5082 31.7298 65.431 31.6202 72.7035C31.4927 81.1561 32.9283 87.5735 34.4374 90.4161C42.7757 86.5575 48.0027 84.0584 56.3516 76.5704C57.3758 64.9265 62.9876 52.1321 70.3828 44.6289C70.6966 44.3108 71.1978 44.274 71.5542 44.5427C71.9112 44.8117 72.0139 45.3035 71.7941 45.6926C66.4337 55.1934 63.8244 65.7286 64.231 76.2011C69.9767 77.7753 75.6826 77.804 80.4413 76.284C80.0129 63.4098 82.2506 51.001 86.925 40.3599C87.0969 39.969 87.5215 39.7548 87.9377 39.8488C88.354 39.9429 88.6455 40.3188 88.6323 40.7455C88.4561 46.5558 88.1717 52.5218 87.8967 58.2915C87.6315 63.8537 87.3574 69.5978 87.1808 75.202C91.0893 76.8868 93.6715 77.8359 98.0551 77.8514C101.72 77.8671 106.343 77.409 108.682 76.1126C109.431 66.0865 108.615 55.2196 106.19 42.9084C106.096 42.4298 106.404 41.9641 106.881 41.8637C107.358 41.7628 107.828 42.0655 107.935 42.5416C110.079 52.1298 112.735 64.009 113.703 74.9128C113.964 74.933 114.193 74.9533 114.419 74.9734C114.601 74.9893 114.778 75.0051 114.969 75.0205C115.507 65.6794 114.123 55.4502 110.852 44.5998C110.726 44.1797 110.924 43.7297 111.319 43.5394C111.443 43.479 111.575 43.4504 111.705 43.4504Z" fill="#1F404D"/>
<path d="M66.4496 70.8089C69.3269 69.5495 72.4807 68.9641 75.631 68.6926C76.1446 68.6482 76.6993 68.6211 77.1358 68.8843C77.6991 69.224 77.8748 69.9292 77.9196 70.5657C77.9802 71.4251 77.8915 72.2941 77.6585 73.1259C77.5827 73.3961 77.4816 73.6778 77.2565 73.8562C77.0646 74.0083 76.8106 74.0631 76.5659 74.1085C72.8349 74.8023 68.92 74.4527 65.2723 75.4761C63.5394 75.9624 61.9027 76.7502 60.1414 77.1313C58.0804 77.5769 61.2398 74.2834 61.7098 73.8499C63.0871 72.5809 64.7146 71.5684 66.4496 70.8089Z" fill="#1F404D"/>
<path d="M114.817 69.249C111.906 68.0636 108.737 67.5594 105.58 67.3685C105.065 67.3374 104.51 67.3244 104.081 67.5987C103.527 67.9529 103.371 68.6622 103.344 69.2997C103.308 70.1604 103.42 71.0269 103.676 71.8523C103.76 72.1205 103.869 72.3996 104.099 72.5722C104.294 72.7195 104.55 72.7677 104.796 72.8067C108.545 73.4047 112.448 72.9553 116.123 73.8851C117.869 74.327 119.527 75.0728 121.299 75.4084C123.371 75.8013 120.121 72.5894 119.639 72.1684C118.228 70.9343 116.572 69.9637 114.817 69.249Z" fill="#1F404D"/>
<path d="M161.97 122.683C161.041 122.683 160.255 122.541 159.572 122.252C158.853 121.947 158.176 121.451 157.442 120.693C155.345 118.525 154.034 115.555 153.846 112.544C153.815 112.053 154.188 111.629 154.68 111.599C155.17 111.567 155.594 111.941 155.625 112.433C155.788 115.026 156.917 117.585 158.723 119.453C159.285 120.034 159.776 120.402 160.268 120.61C160.767 120.821 161.381 120.915 162.151 120.897C164.289 120.847 166.191 119.954 167.238 118.507C167.527 118.109 168.084 118.019 168.483 118.308C168.882 118.596 168.971 119.154 168.682 119.553C167.311 121.448 164.885 122.617 162.192 122.68C162.117 122.682 162.043 122.683 161.97 122.683Z" fill="#1F404D"/>
<path d="M25.4855 123.049C23.5031 123.049 21.4583 121.959 20.1467 120.093C19.8635 119.69 19.9604 119.134 20.3632 118.851C20.766 118.568 21.3219 118.665 21.6051 119.068C22.6313 120.527 24.6393 121.699 26.4916 121.114C27.3049 120.858 28.0269 120.285 28.6256 119.758C30.4504 118.153 31.5331 116.51 31.8439 114.872C31.9356 114.388 32.4011 114.07 32.886 114.162C33.3697 114.254 33.6874 114.721 33.5956 115.205C33.2092 117.242 31.9331 119.224 29.8032 121.097C29.0647 121.746 28.1577 122.458 27.0286 122.815C26.5284 122.972 26.009 123.049 25.4855 123.049Z" fill="#1F404D"/>
<path d="M110.437 9.1424C111.198 5.08077 109.785 1.40746 107.28 0.937812C104.776 0.468168 102.128 3.38004 101.366 7.44166C100.605 11.5033 102.018 15.1766 104.522 15.6463C107.027 16.1159 109.675 13.204 110.437 9.1424Z" fill="#FBB03B"/>
<path d="M105.066 16.5925C104.83 16.5925 104.594 16.5709 104.357 16.5266C101.323 15.9574 99.6237 11.8968 100.489 7.28176C101.354 2.66672 104.409 -0.503098 107.443 0.0660188C110.477 0.634882 112.177 4.69577 111.311 9.31081C110.513 13.5659 107.854 16.5925 105.066 16.5925ZM106.738 1.78351C104.857 1.78351 102.858 4.31957 102.241 7.6103C101.583 11.1216 102.702 14.4022 104.685 14.7741C106.667 15.146 108.9 12.4938 109.559 8.98227C110.217 5.47098 109.098 2.19064 107.115 1.81849C106.99 1.79492 106.864 1.78351 106.738 1.78351Z" fill="#1F404D"/>
<path d="M158.026 58.551L146.563 57.1716L144.695 56.9473L139.001 56.2613L120.353 51.6947L118.55 51.2533L101.63 47.1083L99.9041 46.6842L79.8894 41.7834L78.1585 41.3593L69.4717 39.2319L55.6197 39.1746L53.7042 39.167L37.064 39.0973C37.064 34.8225 41.5109 27.8443 49.235 21.3921C50.7613 20.1177 52.4149 18.8631 54.1882 17.6559C54.1882 17.6559 54.1856 17.6534 54.1882 17.6534C62.2265 12.1691 72.714 7.61741 84.81 6.3106C85.895 6.19348 86.9921 6.10121 88.1045 6.04113C91.0799 5.87153 94.1475 5.90144 97.2925 6.16585C97.3348 6.16838 97.3772 6.17345 97.4198 6.17574C98.0883 6.23303 98.7517 6.29539 99.405 6.36764C101.223 6.55726 102.986 6.79403 104.702 7.07339C105.279 7.1682 105.85 7.26555 106.413 7.36771C107.882 7.63719 109.314 7.93632 110.71 8.26816C111.366 8.4228 112.015 8.58479 112.656 8.7521C115.576 9.52022 118.33 10.4207 120.919 11.4408C121.946 11.8423 122.949 12.2639 123.926 12.7027C140.355 20.0777 149.737 32.2834 154.411 44.0105C154.429 44.0528 154.443 44.0929 154.461 44.1352C156.454 49.1733 157.579 54.119 158.026 58.551Z" fill="#F9EEC0"/>
<path d="M88.1053 6.04199C86.0104 7.51105 83.9877 9.09722 81.9875 10.6735C74.6574 16.4397 67.6767 22.7596 61.8755 30.0947C59.6584 32.898 57.4711 35.9433 55.6206 39.1755L53.7051 39.1679C58.127 31.0748 64.3122 23.9716 71.0311 17.7141C74.5875 14.3995 78.3361 11.2969 82.182 8.32404C83.0525 7.65073 83.9278 6.97463 84.8108 6.31147C85.8958 6.19409 86.993 6.10182 88.1053 6.04199Z" fill="#FBB03B"/>
<path d="M99.4068 6.36904C97.2969 8.80572 95.2917 11.3296 93.4138 13.9486C87.3657 22.3933 82.6444 31.8259 79.8911 41.7846L78.1602 41.3605C81.7366 28.3666 88.6101 16.4724 97.2944 6.16699C97.3367 6.16953 97.3791 6.1746 97.4217 6.17688C98.0899 6.23442 98.7533 6.29679 99.4068 6.36904Z" fill="#FBB03B"/>
<path d="M106.415 7.36951C105.794 10.5768 105.228 13.7941 104.719 17.0214C103.148 26.9877 102.12 37.0361 101.631 47.1096L99.9053 46.6855C100.574 33.3922 102.182 20.1464 104.704 7.0752C105.28 7.17001 105.851 7.2671 106.415 7.36951Z" fill="#FBB03B"/>
<path d="M146.564 57.173L144.696 56.9487C142.232 47.7082 138.478 39.0388 133.617 30.7389C129.731 24.1021 125.447 17.6776 120.92 11.4424C121.948 11.8439 122.95 12.2655 123.928 12.7043C125.085 14.3354 126.222 15.9791 127.344 17.6324C133.36 26.5086 139.029 35.7167 142.955 45.7329C144.422 49.4716 145.589 53.2949 146.564 57.173Z" fill="#FBB03B"/>
<path d="M120.354 51.6958L118.551 51.2545C116.84 36.774 114.585 22.3312 110.712 8.26953C111.368 8.42417 112.016 8.58616 112.657 8.75347C113.473 11.7588 114.216 14.7866 114.894 17.8292C117.386 29.0026 119.025 40.3305 120.354 51.6958Z" fill="#FBB03B"/>
<g opacity="0.2">
<path d="M158.026 58.5513L146.563 57.172L144.695 56.9476L139.001 56.2616L120.353 51.695L118.55 51.2537L101.63 47.1086L99.9041 46.6845L79.8894 41.7838L78.1585 41.3596L69.4717 39.2322L55.6197 39.175L53.7042 39.1673L37.064 39.0976C37.064 34.8228 41.5109 27.8446 49.235 21.3924C50.7613 20.118 52.4149 18.8634 54.1882 17.6562C53.1331 19.8011 52.3675 22.0733 52.2179 24.4451C57.4928 27.3657 62.461 30.8124 67.2918 34.4187C69.3269 30.6727 72.2176 27.8818 75.5971 25.2829C73.2727 27.9042 71.9383 31.3858 71.9183 34.89C76.4101 35.1792 80.9019 35.4687 85.3935 35.7605C85.9997 35.798 86.6332 35.8328 87.1868 35.5833C87.6832 35.359 88.0548 34.9298 88.4013 34.5059C89.8453 32.7451 91.1473 30.8646 92.2871 28.8918C92.0277 31.2486 91.7659 33.6055 91.5065 35.9625C99.5773 38.4241 107.813 41.2674 115.649 44.3875C118.906 45.6844 122.263 47.0612 125.765 46.9464C125.388 44.8415 125.014 42.7364 124.637 40.6313C126.468 43.2376 127.94 46.0959 129.002 49.0961C129.087 47.7893 129.329 46.4923 129.718 45.2403C131.569 46.4275 132.965 48.3006 133.576 50.4105C132.628 42.1377 130.224 34.0321 126.511 26.5798C132.833 32.5656 135.534 41.3297 137.991 49.6847C140.63 49.2383 142.627 46.849 143.32 44.2625C144.014 41.6763 143.63 38.9252 143.031 36.3164C144.63 40.065 146.226 43.8136 147.825 47.5621C147.949 47.8514 148.084 48.1581 148.346 48.3353C148.905 48.7168 149.65 48.3153 150.189 47.9064C151.706 46.759 153.135 45.4971 154.462 44.1353C156.454 49.1737 157.579 54.1193 158.026 58.5513Z" fill="#FBB03B"/>
</g>
<path d="M158.026 59.4426C157.991 59.4426 157.955 59.4403 157.92 59.4363L138.897 57.1461C138.861 57.1418 138.826 57.1355 138.791 57.1269L69.3634 40.1238L37.0616 39.9892C36.5708 39.9872 36.1738 39.5887 36.1738 39.0977C36.1738 34.7719 40.1569 28.4282 46.5685 22.5428C50.7217 18.7304 57.7775 13.3776 67.8061 9.52639C77.3885 5.84677 87.3781 4.42132 97.4975 5.28805C107.89 6.17886 117.281 8.57245 125.41 12.4026C132.61 15.795 138.87 20.3305 144.016 25.8832C152.305 34.8284 157.735 46.703 158.913 58.4623C158.941 58.7316 158.844 58.9985 158.651 59.1879C158.483 59.3519 158.259 59.4426 158.026 59.4426ZM139.163 55.3823L157.016 57.5315C154.389 36.1311 137.321 10.491 97.3449 7.06435C70.801 4.78839 52.6919 19.3416 47.7739 23.856C42.2574 28.9197 38.5464 34.4185 38.0209 38.2099L69.4759 38.3409C69.5461 38.3412 69.6161 38.3498 69.6843 38.3665L139.163 55.3823Z" fill="#1F404D"/>
<path d="M183.151 100.336C182.301 104.432 180.622 108.465 177.662 111.42C172.512 116.562 160.189 117.952 154.168 113.864C155.642 112.502 156.929 110.911 157.941 109.175C159.48 106.547 160.396 103.576 160.386 100.538C160.368 95.493 157.415 90.3479 152.834 88.2379C156.046 79.3217 156.829 68.7321 154.32 59.5915C151.001 59.5615 147.756 58.8707 144.566 57.913C142.828 57.3969 141.104 56.7981 139.396 56.1846C139.393 56.1496 139.391 56.1146 139.389 56.0825C149.47 51.3838 165.132 45.4629 174.737 55.5587C182.66 63.8889 174.954 74.0072 172.609 76.3415C179.804 81.5016 184.947 91.6671 183.151 100.336Z" fill="#FFDE83"/>
<path d="M68.6739 39.1536C68.6663 39.1861 68.6589 39.2185 68.6538 39.2532C63.8352 39.3805 58.9644 39.727 54.3828 40.6026C45.6587 42.2737 38.0019 45.875 33.8219 53.5643C29.8763 60.8244 29.8315 76.0106 32.3254 87.4832C28.1104 89.693 24.3444 94.6959 24.3444 99.4547C24.3444 100.193 24.3968 100.906 24.4916 101.589C25.402 108.072 30.2852 112.179 32.8616 114.86C31.0533 117.145 27.5192 118.397 24.6088 118.25C21.6983 118.102 18.9148 116.611 17.0518 114.371C15.8073 112.875 14.9444 111.029 14.7796 109.089C14.6151 107.149 15.1863 105.124 16.4781 103.665C9.54706 104.094 2.52652 100.612 -1.15233 94.726C-4.83093 88.8376 -5.07556 80.9889 -1.85809 74.8386C1.35685 68.6858 7.88357 64.4234 14.8022 63.85C4.64151 51.0706 16.3635 32.8639 29.8312 28.3746C50.4819 21.491 62.2962 33.4275 63.598 34.6919C65.2097 36.2578 66.9181 37.7345 68.6739 39.1536Z" fill="#FFDE83"/>
<path d="M50.3154 38.7718C51.712 39.3006 53.0639 39.9192 54.3831 40.6023C45.6591 42.2734 38.0022 45.8747 33.8222 53.564C29.8766 60.8241 29.8318 76.0103 32.3257 87.4829C28.1107 89.6927 24.3447 94.6956 24.3447 99.4544C24.3447 100.193 24.3972 100.906 24.492 101.589C23.0579 99.736 21.6986 97.8482 20.9604 95.6384C20.0351 92.86 20.1996 89.8098 20.9206 86.9716C21.6413 84.1333 22.8934 81.4596 24.1378 78.8085C21.7584 70.3437 21.9929 60.1579 24.4471 51.7106C25.7065 47.3709 27.7241 43.0413 31.3008 40.2753C36.5557 36.2081 44.1003 36.42 50.3154 38.7718Z" fill="#F9D373"/>
<path d="M167.072 93.481C166.92 96.6708 166.237 99.8906 164.628 102.651C163.022 105.41 160.653 107.492 157.942 109.176C159.48 106.547 160.396 103.577 160.386 100.539C160.368 95.4935 157.416 90.3484 152.834 88.2385C156.046 79.3223 156.829 68.7326 154.32 59.592C151.001 59.5621 147.756 58.8713 144.566 57.9136C147.285 56.5069 150.006 55.0979 153.021 55.0079C157.214 54.8832 161.334 57.6839 162.756 61.632C164.177 65.5775 162.795 70.3637 159.488 72.9426C165.087 77.8208 167.426 86.0612 167.072 93.481Z" fill="#F9D373"/>
<path d="M139.142 56.0923C138.569 55.886 137.997 55.6786 137.427 55.472C126.178 51.3974 114.822 47.6172 103.375 44.1361C95.1176 41.6248 86.6843 39.2498 78.0532 39.1986C75.092 39.1811 72.0122 39.1692 68.9073 39.2457C68.903 39.2655 68.8987 39.2853 68.8956 39.3053C68.8954 39.3068 68.8954 39.306 68.8954 39.3073C68.8946 39.3144 68.8936 39.3218 68.8928 39.3289C68.8928 39.3296 68.8928 39.3304 68.8926 39.3309C70.0331 40.2483 71.1916 41.1419 72.3547 42.0183C78.5093 46.6551 85.1313 50.6988 92.1625 53.8643C100.66 57.6899 109.776 60.2085 119.092 60.8349C122.463 61.0615 125.888 61.0407 129.173 60.2478C132.617 59.4165 135.796 57.7667 139.003 56.2614C139.052 56.2383 139.102 56.215 139.152 56.1917C139.149 56.1587 139.146 56.1255 139.142 56.0923Z" fill="#F9EEC0"/>
<path d="M25.0951 119.152C24.9176 119.152 24.7414 119.148 24.5652 119.139C21.4913 118.984 18.4269 117.414 16.3679 114.941C14.9427 113.228 14.0641 111.176 13.8932 109.163C13.7558 107.54 14.0719 105.945 14.7769 104.586C8.03601 104.409 1.62439 100.848 -1.90693 95.1966C-5.74397 89.0562 -6.03448 80.9023 -2.64741 74.4237C0.441535 68.5153 6.5416 64.2141 13.1839 63.1486C9.16512 57.212 9.73246 51.0506 10.9929 46.806C13.533 38.2509 21.1642 30.3234 29.5504 27.528C38.3004 24.6117 46.5428 24.6183 54.048 27.548C56.7182 28.5904 60.6399 30.5546 64.1588 33.9916L64.2201 34.0514C65.8068 35.594 67.4871 37.043 69.0915 38.3465C72.2296 38.2725 75.2681 38.2907 78.0582 38.307C86.7364 38.3587 95.1081 40.6902 103.634 43.283C115.045 46.7535 126.517 50.5723 137.73 54.6339L138.154 54.7873C138.51 54.9163 138.866 55.0456 139.224 55.1746C150.244 50.067 165.691 44.7556 175.382 54.9445C182.823 62.7668 177.381 72.3161 173.94 76.2259C181.413 82.0674 185.721 92.3292 184.023 100.517C183.014 105.381 181.086 109.262 178.291 112.052C175.721 114.618 171.252 116.464 166.336 116.991C161.312 117.528 156.695 116.658 153.668 114.602C153.443 114.45 153.3 114.203 153.28 113.932C153.26 113.661 153.364 113.395 153.563 113.211C157.291 109.76 159.508 105.024 159.493 100.541C159.477 95.6747 156.586 90.9486 152.461 89.0486C152.041 88.8549 151.839 88.372 151.996 87.9368C155.226 78.9721 155.813 69.0038 153.631 60.4696C148.684 60.2939 143.928 58.7539 139.312 57.1018C138.878 57.3058 138.444 57.5124 138.01 57.7193C135.264 59.0279 132.423 60.3808 129.382 61.115C126.456 61.8213 123.264 62.0091 119.032 61.7249C109.998 61.1178 100.835 58.7468 91.7963 54.6778C85.0019 51.6192 78.2803 47.5997 71.8179 42.7311C70.8042 41.9676 69.67 41.0993 68.4821 40.1467C63.289 40.2909 57.8666 40.7054 52.9225 41.8157C43.955 43.8298 37.9634 47.8119 34.606 53.9898C30.5936 61.3726 30.8856 76.6589 33.1976 87.2936C33.2827 87.6855 33.0957 88.0863 32.7402 88.2726C28.4626 90.5146 25.237 95.3218 25.237 99.4545C25.237 105.962 29.5813 110.306 32.4561 113.18C32.833 113.557 33.1867 113.911 33.5053 114.243C33.8138 114.564 33.8377 115.064 33.5613 115.413C31.7855 117.657 28.365 119.152 25.0951 119.152ZM16.4785 102.773C16.8174 102.773 17.1295 102.966 17.2795 103.273C17.4377 103.597 17.385 103.985 17.1457 104.255C16.0721 105.468 15.5202 107.246 15.67 109.012C15.8102 110.665 16.5446 112.365 17.7384 113.799C19.4843 115.897 22.07 117.227 24.655 117.358C27.1979 117.485 29.995 116.47 31.638 114.883C31.495 114.739 31.3472 114.591 31.1956 114.44C28.113 111.357 23.4541 106.699 23.4541 99.4532C23.4541 94.305 27.4022 89.3434 31.3183 87.0239C29.067 76.107 28.904 60.7467 33.0396 53.137C36.6571 46.4807 43.0333 42.2079 52.5321 40.0747C56.9694 39.0781 61.7495 38.6287 66.4061 38.433C65.2577 37.457 64.0964 36.4168 62.9777 35.3293L62.9133 35.2664C59.8728 32.2964 48.5214 23.0833 30.1145 29.2188C22.247 31.8413 15.0867 39.2819 12.7023 47.313C11.4735 51.4514 10.9617 57.5834 15.5025 63.2936C15.707 63.5512 15.7534 63.9002 15.6229 64.2024C15.4923 64.5043 15.2061 64.7099 14.8783 64.7371C8.24313 65.2869 1.98411 69.4132 -1.06707 75.2494C-4.16667 81.1781 -3.90277 88.6369 -0.394776 94.2513C3.10029 99.8446 9.69951 103.189 16.4235 102.774C16.4417 102.773 16.4602 102.773 16.4785 102.773ZM155.621 113.693C161.498 116.764 172.413 115.402 177.032 110.79C179.575 108.25 181.34 104.672 182.277 100.154C183.902 92.3221 179.522 82.3967 172.09 77.067C171.878 76.9144 171.742 76.6756 171.721 76.4145C171.7 76.1534 171.795 75.8958 171.981 75.711C173.187 74.5102 175.532 71.5198 176.674 67.9284C178.104 63.4338 177.235 59.4786 174.09 56.1729C165.647 47.2967 152.004 51.4248 141.646 56.032C145.786 57.4585 150.025 58.6596 154.33 58.7011C154.728 58.7049 155.075 58.9726 155.181 59.3567C157.591 68.1414 157.132 78.4608 153.935 87.7945C158.277 90.1706 161.259 95.2866 161.276 100.534C161.291 105.228 159.243 109.964 155.621 113.693ZM71.2972 40.0911C71.8531 40.5203 72.3873 40.9262 72.8913 41.3059C79.2479 46.0951 85.8547 50.0465 92.5287 53.051C101.373 57.0326 110.331 59.3521 119.152 59.9451C123.195 60.2171 126.221 60.0427 128.964 59.3808C131.72 58.7153 134.378 57.4729 136.952 56.2477C125.822 52.22 114.439 48.4322 103.116 44.9886C94.721 42.4355 86.4867 40.1398 78.0483 40.0899C75.9206 40.0769 73.6472 40.0635 71.2972 40.0911Z" fill="#1F404D"/>
<path d="M100.038 108.257C100.038 108.769 100.013 109.27 99.9659 109.761C99.4896 114.832 96.6338 118.732 93.1796 118.732C89.7203 118.732 86.8623 114.822 86.3908 109.741C86.3434 109.257 86.3208 108.761 86.3208 108.257C86.3208 108.19 86.3233 108.125 86.3233 108.058H100.036C100.036 108.125 100.038 108.19 100.038 108.257Z" fill="#F25851"/>
<path d="M100.038 108.257C100.038 108.768 100.013 109.27 99.9659 109.761C99.8638 109.856 99.7588 109.945 99.6516 110.03C99.0581 110.499 98.3795 110.851 97.6788 111.14C95.1572 112.178 92.2718 112.39 89.678 111.547C88.4832 111.158 87.3584 110.542 86.3908 109.741C86.3434 109.257 86.3208 108.761 86.3208 108.257C86.3208 108.19 86.3233 108.125 86.3233 108.058H100.036C100.036 108.125 100.038 108.19 100.038 108.257Z" fill="white"/>
<path d="M93.1801 119.479C88.9857 119.479 85.5732 114.445 85.5732 108.256C85.5732 108.21 85.5743 108.165 85.5753 108.119L85.5768 108.048C85.5821 107.639 85.9155 107.31 86.3249 107.31H100.035C100.445 107.31 100.778 107.639 100.784 108.048L100.785 108.119C100.786 108.165 100.787 108.21 100.787 108.256C100.787 114.445 97.3746 119.479 93.1801 119.479ZM87.0793 108.806C87.2588 113.915 89.9267 117.983 93.1801 117.983C96.4336 117.983 99.1015 113.915 99.281 108.806H87.0793Z" fill="#1F404D"/>
<path d="M103.426 161.521C103.166 161.26 102.571 161.444 102.038 161.462C101.311 161.486 100.584 161.489 99.8561 161.482C98.3998 161.469 96.9441 161.414 95.4878 161.4C92.8754 161.376 90.2577 161.335 87.6639 160.991C87.3764 160.953 87.2512 161.209 87.2996 161.432C87.2932 161.457 87.2884 161.482 87.2864 161.51C87.1277 163.795 86.6493 166.274 87.201 168.533C87.6344 170.308 88.5859 171.978 90.1629 172.963C91.9592 174.084 94.5047 174.05 96.5322 173.796C97.6849 173.652 98.8416 173.396 99.8622 172.842C102.501 171.408 102.891 168.277 103.157 165.573C103.229 164.844 103.301 164.115 103.372 163.386C103.413 162.975 103.74 161.836 103.426 161.521ZM102.401 165.179C102.352 165.679 102.313 166.179 102.261 166.678C102.139 167.844 101.948 169.022 101.447 170.082C100.831 171.387 99.7867 172.303 98.3866 172.663C97.3513 172.929 96.2635 173.175 95.1919 173.205C93.8159 173.243 92.2067 173.148 90.9313 172.595C89.4734 171.963 88.4964 170.265 88.0525 168.811C87.7113 167.693 87.6869 166.575 87.7645 165.417C87.8456 164.206 87.9326 162.995 88.017 161.784C90.9812 162.143 93.971 162.206 96.9538 162.213C98.4315 162.217 99.9094 162.205 101.387 162.208C101.704 162.209 102.167 162.124 102.469 162.213C102.732 162.291 102.632 162.163 102.723 162.394C102.799 162.592 102.675 162.933 102.653 163.14C102.616 163.498 102.561 163.862 102.511 164.224C102.467 164.542 102.432 164.86 102.401 165.179Z" fill="#5AE0CD"/>
</svg>
