<svg width="192" height="232" viewBox="0 0 192 232" fill="none" xmlns="http://www.w3.org/2000/svg">
<path d="M103.935 231.351C140.89 231.351 170.848 225.062 170.848 217.305C170.848 209.547 140.89 203.258 103.935 203.258C66.9799 203.258 37.022 209.547 37.022 217.305C37.022 225.062 66.9799 231.351 103.935 231.351Z" fill="#E6E6E6"/>
<path d="M182.019 117.362C181.846 124.609 177.365 131.723 170.668 135.384C163.974 139.046 156.215 138.196 149.633 134.643C149.039 141.752 144.394 148.624 137.591 151.809C130.788 154.994 122.09 153.075 116.565 148.372C115.437 152.924 111.478 156.632 106.867 158.346C102.256 160.061 97.0979 159.961 92.3627 158.817C88.967 157.996 86.3005 155.756 84.6012 152.871C80.7421 157.606 72.2241 161.25 62.7104 160.29C55.0771 159.52 50.6809 151.398 50.7671 150.06C48.4736 152.277 45.3372 153.694 42.1046 153.976C38.8742 154.258 35.5735 153.404 32.9851 151.618C31.528 150.612 30.9022 149.148 30.4663 147.481C33.9139 148.049 37.555 146.36 39.7828 143.738C40.1202 143.339 40.4302 142.92 40.7113 142.489C42.2811 140.079 42.9895 137.197 43.1027 134.375C43.2392 131.048 42.6165 127.757 41.9945 124.496C41.102 119.798 40.2093 115.1 39.3142 110.403C37.4104 100.397 33.2496 90.9891 35.0972 80.8877C35.7692 77.1994 36.9094 73.5293 38.9508 70.2961C41.1812 66.7657 44.4004 63.8811 47.7444 61.247C56.1599 54.6207 65.6713 49.2594 75.8021 45.4314C80.0817 43.8168 84.5043 42.4646 89.0508 41.9135C95.5261 41.1308 102.055 41.9955 108.415 43.1639C116.447 44.6386 124.462 46.6359 131.576 50.3709C138.69 54.1059 146.479 58.8204 149.313 66.0611C154.796 80.0591 160.275 94.0552 165.758 108.053C166.013 108.707 166.271 109.363 166.526 110.017C167.864 113.436 169.532 117.194 173.085 118.6C175.667 119.621 179.47 118.567 182.019 117.362Z" fill="#3B6A82"/>
<path d="M150.854 116.503C150.354 121.431 153.565 126.494 158.235 128.145C154.719 128.671 151.041 128.075 147.87 126.469C146.605 125.828 146.027 124.354 145.266 123.158C144.504 125.679 143.656 128.201 142.296 130.456C140.937 132.711 139.012 134.702 136.583 135.718C135.18 136.303 133.032 136.215 132.04 135.064C129.828 138.079 126.565 140.146 123.234 141.846C104.879 151.215 81.9399 150.978 63.7833 141.234C61.8795 140.212 60.0013 139.074 58.5276 137.496C56.096 139.712 53.6619 141.928 51.2303 144.144C51.393 140.793 51.0846 137.42 50.3152 134.152C47.5973 137.431 44.3373 140.256 40.7122 142.489C42.2819 140.079 42.9903 137.197 43.1035 134.375C43.2401 131.048 42.6173 127.757 41.9953 124.496C41.1028 119.798 40.2101 115.1 39.315 110.403C37.4112 100.397 33.2505 90.9891 35.098 80.8877C35.7701 77.1994 36.9102 73.5293 38.9516 70.2961C41.182 66.7656 44.4012 63.8811 47.7453 61.247C56.1607 54.6207 65.6721 49.2594 75.8029 45.4314C80.0825 43.8168 84.5052 42.4646 89.0516 41.9135C95.5269 41.1308 102.056 41.9955 108.416 43.1639C116.448 44.6386 124.462 46.6359 131.577 50.3709C138.691 54.1059 146.48 58.8204 149.314 66.0611C154.796 80.0591 160.276 94.0552 165.758 108.053C165.522 108.877 165.315 109.704 165.138 110.541C164.765 112.295 164.518 114.104 164.793 115.875C165.068 117.644 165.923 119.387 167.39 120.414C161.763 120.974 155.665 119.478 150.854 116.503Z" fill="#2E6175"/>
<path d="M65.8624 161.256C64.8085 161.256 63.7307 161.203 62.6295 161.092C56.0299 160.427 51.6083 154.585 50.3376 151.51C48.0404 153.345 45.1322 154.52 42.1758 154.779C38.7717 155.076 35.2561 154.166 32.5278 152.281C30.7667 151.064 30.103 149.275 29.6866 147.685C29.6173 147.421 29.6863 147.14 29.8704 146.938C30.0542 146.736 30.3283 146.641 30.5975 146.686C33.5493 147.171 36.9938 145.777 39.1694 143.215C41.572 140.386 42.197 136.828 42.298 134.342C42.4304 131.093 41.8069 127.816 41.2039 124.647L38.5231 110.555C37.9938 107.773 37.276 104.989 36.5818 102.297C34.793 95.3595 32.9434 88.186 34.3031 80.743C35.0978 76.3925 36.3954 72.8345 38.27 69.8659C40.6875 66.0371 44.1637 63.0409 47.2453 60.6145C55.7581 53.9122 65.2695 48.5511 75.5161 44.6795C80.6692 42.7326 84.939 41.5995 88.9536 41.1146C95.719 40.2971 102.375 41.2358 108.56 42.3715C115.37 43.6217 124.182 45.5801 131.949 49.658C139.668 53.7105 147.204 58.4669 150.063 65.7669L167.275 109.724C168.614 113.144 170.189 116.588 173.381 117.852C175.677 118.76 179.284 117.764 181.675 116.634C181.928 116.515 182.225 116.535 182.459 116.688C182.693 116.84 182.832 117.103 182.825 117.383C182.643 124.938 178.023 132.282 171.055 136.093C164.908 139.454 157.402 139.369 150.302 135.896C149.285 143.005 144.532 149.451 137.932 152.54C131.539 155.531 123.098 154.364 116.99 149.746C115.525 153.834 111.857 157.353 107.149 159.104C101.602 161.166 95.9436 160.512 92.1738 159.602C89.0909 158.856 86.4 156.957 84.4977 154.206C80.9101 157.979 74.1714 161.255 65.8624 161.256ZM50.7677 149.255C50.8825 149.255 50.998 149.279 51.1067 149.33C51.4089 149.47 51.5937 149.781 51.5722 150.113C51.6031 151.352 55.8824 158.791 62.7909 159.488C72.5523 160.471 80.6157 156.483 83.9759 152.361C84.1426 152.156 84.3993 152.048 84.662 152.066C84.9252 152.086 85.1617 152.234 85.2957 152.461C86.9859 155.331 89.5631 157.31 92.5525 158.033C96.1037 158.892 101.421 159.512 106.587 157.591C111.251 155.857 114.775 152.25 115.783 148.177C115.85 147.906 116.052 147.689 116.318 147.604C116.584 147.518 116.875 147.576 117.088 147.757C122.781 152.604 131.071 153.969 137.249 151.078C143.7 148.059 148.245 141.582 148.829 134.577C148.851 134.306 149.009 134.065 149.248 133.935C149.487 133.805 149.776 133.805 150.015 133.935C156.931 137.667 164.318 137.938 170.282 134.677C176.359 131.354 180.513 125.151 181.137 118.62C178.473 119.662 175.178 120.295 172.788 119.35C168.994 117.849 167.242 114.061 165.774 110.311L148.562 66.3541C145.896 59.5463 138.642 54.9921 131.2 51.0847C123.626 47.108 114.967 45.1863 108.269 43.9563C102.209 42.8435 95.6985 41.9227 89.1472 42.7142C85.265 43.1835 81.1147 44.287 76.0861 46.187C65.9938 50.0001 56.6262 55.2805 48.2429 61.8806C45.269 64.2218 41.9206 67.1035 39.6333 70.7259C37.871 73.517 36.6462 76.8881 35.8892 81.0319C34.5931 88.126 36.3173 94.8136 38.1428 101.894C38.8434 104.611 39.5677 107.421 40.1068 110.254L42.7876 124.345C43.4075 127.603 44.0485 130.973 43.9088 134.407C43.7974 137.146 43.0978 141.079 40.3981 144.258C38.129 146.93 34.7855 148.475 31.5883 148.393C31.9466 149.371 32.4816 150.289 33.4444 150.954C35.869 152.629 39.0007 153.437 42.0351 153.172C45.0738 152.906 48.0526 151.561 50.208 149.481C50.3615 149.333 50.5632 149.255 50.7677 149.255Z" fill="#1F404D"/>
<path d="M145.162 143.779C144.922 144.52 144.263 146.083 143.318 147.98C143.06 148.501 142.779 149.048 142.481 149.61C141.62 151.231 140.604 152.976 139.505 154.605C139.148 155.136 138.78 155.655 138.407 156.153C136.364 158.878 134.129 160.977 132.096 161.077C132.051 161.079 132.005 161.079 131.956 161.079C131.517 161.09 130.988 161.036 130.388 160.929C128.922 160.661 127.024 160.066 124.958 159.223C124.478 159.026 123.988 158.819 123.492 158.597C121.781 157.834 119.994 156.924 118.27 155.916C117.8 155.64 117.335 155.359 116.875 155.068C115.488 154.194 114.168 153.26 112.988 152.289C112.554 151.934 112.138 151.572 111.744 151.204C110.805 150.333 109.992 149.439 109.361 148.54C108.971 147.983 108.646 147.427 108.404 146.873C107.232 144.188 107.939 141.563 111.87 139.443C112.357 139.18 113.136 139.152 114.117 139.315C114.659 139.405 115.266 139.553 115.918 139.755C116.781 140.018 117.728 140.375 118.724 140.802C119.202 141.009 119.69 141.231 120.185 141.468C121.273 141.989 122.394 142.584 123.51 143.23C123.975 143.499 124.437 143.777 124.897 144.061C125.768 144.602 126.621 145.172 127.441 145.757C127.913 146.094 128.376 146.439 128.82 146.783C128.979 146.908 129.137 147.034 129.29 147.159C129.911 147.657 130.493 148.162 131.029 148.668C131.063 148.699 131.096 148.732 131.129 148.762C131.798 147.672 132.424 146.78 133.044 145.948C133.392 145.478 133.739 145.028 134.092 144.571C134.5 144.038 134.917 143.496 135.348 142.906C135.668 142.474 135.992 142.017 136.332 141.519C136.679 141.011 137.039 140.457 137.417 139.846C140.734 139.997 145.484 142.778 145.162 143.779Z" fill="#F27272"/>
<path d="M115.916 139.754C114.555 141.973 112.956 144.047 111.311 146.095C110.657 146.907 110.006 147.722 109.36 148.539C108.969 147.982 108.645 147.426 108.402 146.872C108.671 146.534 108.941 146.197 109.214 145.86C110.923 143.748 112.65 141.611 114.115 139.314C114.657 139.404 115.265 139.552 115.916 139.754Z" fill="#F9C5C5"/>
<path d="M124.897 144.059C122.941 148.189 120.727 152.153 118.27 155.915C117.8 155.639 117.335 155.358 116.875 155.067C119.335 151.313 121.554 147.356 123.511 143.229C123.975 143.498 124.438 143.776 124.897 144.059Z" fill="#F9C5C5"/>
<path d="M120.185 141.468C119.107 143.508 117.817 145.413 116.497 147.278C115.319 148.943 114.147 150.611 112.988 152.288C112.554 151.934 112.137 151.571 111.744 151.203C112.715 149.798 113.693 148.401 114.681 147.012C116.104 145.015 117.542 142.992 118.724 140.801C119.201 141.008 119.689 141.23 120.185 141.468Z" fill="#F9C5C5"/>
<path d="M128.821 146.783C127.935 151.07 126.602 155.223 124.96 159.223C124.479 159.026 123.989 158.819 123.494 158.597C125.2 154.478 126.574 150.189 127.442 145.756C127.914 146.093 128.377 146.438 128.821 146.783Z" fill="#F9C5C5"/>
<path d="M131.955 161.08C131.516 161.09 130.987 161.036 130.387 160.929C130.167 156.322 129.84 151.725 129.289 147.158C129.909 147.656 130.492 148.162 131.028 148.667C131.477 152.787 131.758 156.929 131.955 161.08Z" fill="#F9C5C5"/>
<path d="M139.506 154.606C139.148 155.137 138.781 155.656 138.408 156.153C136.962 152.56 135.098 149.179 133.044 145.948C133.392 145.478 133.739 145.028 134.092 144.571C136.14 147.756 138.014 151.081 139.506 154.606Z" fill="#F9C5C5"/>
<path d="M143.319 147.98C143.061 148.501 142.78 149.047 142.482 149.609C141.762 148.646 140.977 147.732 140.112 146.882C138.618 145.416 137.001 144.131 135.349 142.905C135.668 142.474 135.992 142.016 136.332 141.519C138.025 142.783 139.68 144.108 141.218 145.618C141.976 146.361 142.673 147.15 143.319 147.98Z" fill="#F9C5C5"/>
<path d="M131.895 161.975C129.157 161.975 123.643 159.974 118.586 157.127C114.9 155.051 108.524 150.876 107.228 146.227C106.642 144.127 106.898 141.107 111.446 138.655C113.502 137.545 118.164 139.493 120.76 140.752C124.531 142.581 128.258 145.013 130.946 147.381C131.778 146.11 132.55 145.107 133.358 144.056C134.369 142.741 135.415 141.382 136.658 139.374C136.828 139.098 137.136 138.935 137.459 138.951C140.467 139.089 144.679 141.207 145.748 142.749C146.135 143.307 146.106 143.766 146.014 144.053C145.568 145.435 143.66 149.727 141.07 153.843C137.759 159.107 134.756 161.841 132.143 161.969C132.063 161.973 131.98 161.975 131.895 161.975ZM132.055 160.184C136.417 159.969 142.937 147.478 144.244 143.708C143.676 142.931 140.511 141.105 137.886 140.781C136.723 142.613 135.734 143.899 134.775 145.146C133.813 146.398 132.903 147.58 131.891 149.228C131.75 149.458 131.512 149.612 131.245 149.646C130.977 149.682 130.708 149.593 130.513 149.407C127.922 146.938 123.985 144.303 119.98 142.361C115.77 140.318 113.045 139.824 112.295 140.228C109.438 141.769 108.344 143.574 108.95 145.747C109.77 148.689 113.602 152.268 119.463 155.569C125.016 158.695 130.096 160.28 132.055 160.184Z" fill="#1F404D"/>
<path d="M110.517 204.896C110.525 205.018 110.538 205.137 110.548 205.259C111.263 205.544 111.952 205.802 112.629 206.028C114.907 206.795 117.043 207.215 119.545 207.123C119.796 207.112 120.051 207.097 120.308 207.077C120.318 207.055 120.328 207.031 120.335 207.008C121.653 203.744 122.77 200.395 123.675 196.99C124.815 192.703 125.62 188.326 126.082 183.911C121.35 182.12 116.658 181.732 111.712 182.796C111.025 187.258 110.499 191.605 110.329 195.985C110.211 198.928 110.256 201.882 110.517 204.896Z" fill="#F6E2D7"/>
<path d="M110.33 195.986C110.563 195.968 110.799 195.95 111.032 195.935C115.268 195.656 119.543 196.018 123.675 196.991C124.816 192.704 125.62 188.327 126.082 183.912C121.35 182.121 116.658 181.733 111.713 182.797C111.025 187.259 110.5 191.606 110.33 195.986Z" fill="#EFD3C5"/>
<path d="M118.841 208.028C115.765 208.028 113.197 207.275 110.217 206.09C109.905 205.966 109.688 205.676 109.658 205.341C108.893 196.99 109.822 189.189 110.831 182.66C110.888 182.294 111.164 182.001 111.526 181.923C116.6 180.831 121.463 181.208 126.398 183.076C126.778 183.22 127.013 183.601 126.971 184.005C126.134 192.044 124.171 199.92 121.138 207.412C121.011 207.727 120.717 207.942 120.379 207.968C119.851 208.009 119.339 208.028 118.841 208.028ZM111.39 204.629C114.22 205.721 116.681 206.358 119.69 206.22C122.456 199.255 124.28 191.958 125.117 184.512C120.932 183.044 116.792 182.728 112.503 183.548C111.571 189.696 110.754 196.934 111.39 204.629Z" fill="#1F404D"/>
<path d="M108.937 197.099C108.906 198.714 108.593 206.462 108.837 207.478C108.849 207.512 108.86 207.549 108.875 207.584C110.053 211.073 109.35 214.736 111.756 215.598C114.187 216.47 123.529 217.995 124.018 214.921C124.1 214.406 124.125 213.927 123.799 213.402C122.851 211.859 120.231 210.324 120.231 210.324C120.231 210.324 123.497 202.576 123.89 200.783C118.701 201.238 112.04 199.42 108.937 197.099Z" fill="#8CC63F"/>
<path d="M108.875 207.585C108.346 214.279 111.716 215.852 115.206 216.668C117.72 217.255 123.529 217.996 124.018 214.922C124.1 214.406 124.125 213.928 123.799 213.403C122.484 213.795 121.49 214.567 118.928 214.417C116.685 214.285 114.648 213.848 112.744 212.654C111.109 211.631 110.08 209.901 108.875 207.585Z" fill="#81B530"/>
<path d="M119.222 218.181C116.361 218.182 112.992 217.556 111.025 216.315C108.499 214.72 108.233 211.313 108.185 207.654C108.027 206.717 108.084 203.677 108.235 198.825C108.258 198.088 108.276 197.498 108.283 197.167C108.29 196.832 108.483 196.529 108.784 196.382C109.086 196.234 109.444 196.268 109.712 196.469C112.466 198.53 118.884 200.432 124.051 199.979C124.333 199.954 124.613 200.065 124.801 200.279C124.989 200.492 125.064 200.783 125.003 201.061C124.658 202.635 122.315 208.313 121.539 210.173C122.922 211.472 125.541 214.293 124.672 216.33C124.402 216.964 123.763 217.441 122.775 217.749C121.849 218.037 120.594 218.181 119.222 218.181ZM110.025 198.79C110.024 198.82 110.023 198.85 110.022 198.88C109.956 200.998 109.781 206.622 109.946 207.355C109.96 207.416 109.97 207.49 109.971 207.553C110.012 210.851 110.191 213.674 111.98 214.803C114.317 216.28 119.679 216.772 122.128 216.076C122.773 215.894 122.999 215.686 123.028 215.627C123.353 214.865 121.63 212.62 119.88 211.082C119.591 210.828 119.497 210.418 119.646 210.063C120.383 208.315 122.128 204.076 122.905 201.827C118.59 201.905 113.389 200.67 110.025 198.79Z" fill="#1F404D"/>
<path d="M91.2965 182.972C91.1761 182.954 91.0569 182.941 90.936 182.926C90.5092 183.567 90.1141 184.188 89.7522 184.803C88.5309 186.874 87.6786 188.877 87.2516 191.344C87.2101 191.591 87.1722 191.844 87.1387 192.1C87.1581 192.114 87.18 192.129 87.1999 192.14C90.1214 194.105 93.1672 195.89 96.3111 197.479C100.27 199.482 105.697 202.123 109.875 200.625C112.793 199.58 115.428 196.465 116.777 193.798C117.707 191.96 118.993 188.781 118.986 186.821C117.588 185.331 110.355 179.182 108.408 178.536C107.1 178.101 105.804 186.584 105.804 186.584C105.804 186.584 101.003 184.87 100.055 184.631C97.1996 183.906 94.3 183.339 91.2965 182.972Z" fill="#F6E2D7"/>
<path d="M107.098 201.579C100.592 201.579 92.9531 197.096 86.6401 192.842C86.3587 192.653 86.2089 192.321 86.2533 191.984C86.7507 188.213 88.1289 185.533 90.1916 182.431C90.378 182.151 90.7048 182 91.0404 182.038C97.1551 182.757 102.954 184.63 105.177 185.407L107.005 178.12C107.075 177.841 107.276 177.612 107.544 177.506C107.812 177.401 108.115 177.431 108.357 177.587C108.384 177.604 111.103 179.363 113.826 181.283C119.592 185.35 119.76 186.157 119.861 186.639C120.274 188.621 116.776 198.34 111.903 200.586C110.406 201.276 108.791 201.579 107.098 201.579ZM88.1058 191.673C95.5937 196.679 104.848 201.869 111.154 198.962C115.14 197.125 118.3 188.509 118.117 187.045C117.608 186.127 112.914 182.716 108.434 179.771L106.67 186.801C106.608 187.049 106.443 187.258 106.217 187.376C105.99 187.494 105.724 187.51 105.485 187.418C105.415 187.392 98.5893 184.815 91.3774 183.88C89.724 186.424 88.5886 188.699 88.1058 191.673ZM118.132 187.075C118.132 187.075 118.132 187.075 118.132 187.075V187.075Z" fill="#1F404D"/>
<path d="M99.2509 183.036C97.6773 182.671 90.1608 180.763 89.1165 180.791C89.0804 180.796 89.0425 180.8 89.0051 180.807C85.3478 181.238 81.4113 185.284 80.0695 187.46C78.7144 189.658 77.4313 193.098 78.6949 194.106C79.1038 194.431 79.6461 194.416 80.2271 194.205C81.9326 193.597 83.9761 191.35 83.9761 191.35C83.9761 191.35 90.8814 196.149 92.5545 196.904C93.1819 191.733 96.3381 185.592 99.2509 183.036Z" fill="#8CC63F"/>
<path d="M89.0051 180.808C85.3477 181.239 81.4113 185.285 80.0695 187.461C78.7144 189.659 77.4313 193.099 78.6949 194.106C79.1038 194.432 79.6461 194.416 80.2271 194.206C80.1154 192.838 80.3602 191.422 80.8628 190.136C81.6805 188.043 83.114 186.25 84.6759 184.634C86.0141 183.246 87.4655 181.967 89.0051 180.808Z" fill="#81B530"/>
<path d="M92.4231 198.017C92.298 198.017 92.1724 197.991 92.0553 197.937C90.6177 197.288 85.7278 193.953 83.9654 192.739C82.5953 194.117 79.8161 196.468 78.006 195.023C76.0772 193.483 77.8346 189.388 79.1775 187.211C80.4378 185.167 84.6354 180.545 88.8976 180.122C88.9184 180.12 88.9394 180.119 88.9602 180.119C89.7644 180.1 92.7713 180.79 97.7133 181.996C98.428 182.171 98.9999 182.31 99.3215 182.385C99.6481 182.46 99.9048 182.712 99.9866 183.038C100.068 183.363 99.9611 183.706 99.7091 183.927C97.1228 186.196 93.9347 192.083 93.3107 197.23C93.2764 197.513 93.1098 197.762 92.8621 197.902C92.7258 197.978 92.5747 198.017 92.4231 198.017ZM83.8452 190.676C84.022 190.676 84.2001 190.728 84.3545 190.835C85.9126 191.918 89.6995 194.502 91.7383 195.727C92.5506 191.492 94.8384 186.656 97.3733 183.753C97.3455 183.746 97.3172 183.739 97.2889 183.732C95.2506 183.235 89.8693 181.922 89.0334 181.905C85.6816 182.265 81.8959 186.207 80.6987 188.148C79.0838 190.767 78.6355 193.238 79.1212 193.626C79.6009 194.009 81.613 192.692 83.1832 190.968C83.3587 190.776 83.6009 190.676 83.8452 190.676Z" fill="#1F404D"/>
<path d="M132.383 186.194C133.651 184.141 128.764 154.669 112.418 140.878C111.501 140.103 104.855 138.942 103.764 139.443C101.604 140.436 103.088 160.798 102.969 164.374C102.823 168.733 90.8568 177.568 86.5195 177.112C97.3502 199.363 128.508 192.467 132.383 186.194Z" fill="#C5FFF9"/>
<path d="M113.166 193.258C112.502 193.258 111.835 193.242 111.164 193.209C104.347 192.866 91.9769 190.371 85.7133 177.502C85.571 177.21 85.5985 176.864 85.7849 176.598C85.9713 176.332 86.287 176.186 86.6107 176.222C88.6962 176.436 93.6225 173.814 97.5864 170.363C100.309 167.994 102.028 165.687 102.073 164.344C102.102 163.473 102.031 161.534 101.942 159.078C101.391 143.985 101.715 139.399 103.389 138.63C104.877 137.947 111.872 139.248 112.993 140.194C121.875 147.689 127.063 159.264 129.852 167.655C132.603 175.935 134.171 184.995 133.141 186.663C131.116 189.942 122.634 193.258 113.166 193.258ZM87.9364 177.911C93.9659 188.919 105.049 191.112 111.253 191.423C121.343 191.927 129.882 188.469 131.603 185.751C131.973 184.691 131.187 177.196 128.021 167.82C125.306 159.778 120.295 148.695 111.839 141.56C111.016 140.962 105.366 139.997 104.198 140.241C104.027 140.52 103.539 141.798 103.479 147.317C103.439 151.087 103.599 155.482 103.728 159.013C103.819 161.503 103.89 163.47 103.859 164.403C103.774 166.975 100.628 170.086 98.7598 171.712C95.4801 174.567 91.0362 177.334 87.9364 177.911Z" fill="#1F404D"/>
<path d="M117.394 126.184C119.279 135.301 117.72 149.563 112.389 150.665C107.059 151.766 99.9741 139.29 98.09 130.173C96.2059 121.057 100.236 118.752 105.566 117.65C110.897 116.549 115.51 117.067 117.394 126.184Z" fill="#F9DDD2"/>
<path d="M111.727 151.645C109.091 151.645 106.092 149.237 103.181 144.748C100.454 140.545 98.1611 135.032 97.1951 130.359C96.2663 125.864 96.6604 122.589 98.4004 120.347C100.16 118.08 103.055 117.238 105.381 116.757C107.706 116.277 110.699 115.902 113.212 117.286C115.699 118.655 117.359 121.505 118.287 125.999C119.253 130.672 119.333 136.644 118.496 141.583C117.506 147.431 115.402 150.975 112.573 151.559C112.296 151.616 112.014 151.645 111.727 151.645ZM109.082 118.149C108.121 118.149 107.023 118.282 105.75 118.545C102.752 119.165 100.93 120.066 99.8432 121.466C98.4505 123.261 98.1691 126.049 98.9835 129.989C99.9063 134.455 102.102 139.729 104.712 143.755C107.422 147.931 110.224 150.181 112.204 149.771C114.186 149.361 115.865 146.186 116.697 141.278C117.498 136.548 117.422 130.834 116.5 126.369C115.685 122.429 114.322 119.981 112.332 118.885C111.438 118.393 110.386 118.149 109.082 118.149Z" fill="#1F404D"/>
<path d="M141.452 85.094C143.101 82.3847 146.148 80.166 149.641 79.1299C153.134 78.0939 157.021 78.2564 160.089 79.5666C164.699 81.5356 167.08 85.7955 167.605 90.0959C168.239 95.2908 166.49 100.831 162.755 105.452C159.021 110.073 153.332 113.738 146.987 115.609C142.361 115.693 138.67 113.496 136.741 110.265C134.812 107.034 134.664 103.177 135.217 99.4466C135.927 94.6649 138.745 89.5398 141.452 85.094Z" fill="#F6E2D7"/>
<path d="M146.736 116.524C142.145 116.524 138.129 114.372 135.956 110.733C134.158 107.722 133.621 103.986 134.314 99.3123C135.048 94.3601 137.94 89.1054 140.671 84.6189C142.43 81.7294 145.686 79.35 149.381 78.2543C153.062 77.1625 157.198 77.3395 160.447 78.7267C164.865 80.6137 167.88 84.8222 168.51 89.9844C169.17 95.3935 167.331 101.24 163.464 106.026C159.638 110.761 153.726 114.573 147.244 116.485C147.165 116.508 147.084 116.52 147.002 116.522C146.913 116.523 146.824 116.524 146.736 116.524ZM154.335 79.3674C152.849 79.3674 151.337 79.5787 149.9 80.005C146.628 80.9753 143.761 83.0552 142.23 85.5685C139.594 89.8993 136.806 94.9504 136.119 99.5805C135.491 103.82 135.95 107.162 137.524 109.797C139.38 112.906 142.858 114.724 146.847 114.698C152.934 112.877 158.468 109.303 162.044 104.878C165.602 100.476 167.299 95.1275 166.698 90.2064C166.139 85.6308 163.599 82.0588 159.73 80.4063C158.116 79.7166 156.246 79.3674 154.335 79.3674Z" fill="#1F404D"/>
<path d="M133.335 108.376C132.959 108.36 132.591 108.272 132.261 108.107C131.16 107.555 130.911 106.345 131.704 105.403C137.623 98.3764 146.245 92.8829 155.982 89.9335C157.287 89.5384 158.645 90.0422 159.015 91.0598C159.385 92.0772 158.626 93.2225 157.32 93.6178C148.645 96.2457 140.963 101.14 135.69 107.4C135.134 108.06 134.215 108.413 133.335 108.376Z" fill="#1F404D"/>
<path d="M53.4053 103.228C50.8237 101.428 47.1518 100.62 43.5349 101.058C39.918 101.496 36.4112 103.173 34.1086 105.565C30.6483 109.159 30.1379 113.948 31.3476 118.043C32.8091 122.989 36.597 127.311 41.846 130.019C47.0949 132.728 53.7638 133.802 60.3291 132.998C64.6119 131.253 67.1377 127.814 67.6387 124.134C68.1397 120.453 66.7569 116.907 64.7809 113.752C62.2475 109.707 57.6413 106.183 53.4053 103.228Z" fill="#F6E2D7"/>
<path d="M56.1021 134.168C50.8275 134.168 45.6507 133.01 41.4292 130.832C35.9903 128.025 31.9972 123.458 30.474 118.302C29.0195 113.379 30.1331 108.381 33.4528 104.932C35.8901 102.401 39.6188 100.614 43.427 100.153C47.2495 99.6908 51.1761 100.56 53.9296 102.481C58.2058 105.463 62.9314 109.077 65.5564 113.268C68.0355 117.226 69.0131 120.821 68.5453 124.258C67.9696 128.487 65.0276 132.071 60.6756 133.844C60.6008 133.874 60.5224 133.895 60.4422 133.905C59.0002 134.081 57.547 134.168 56.1021 134.168ZM45.4752 101.856C44.8675 101.856 44.2562 101.892 43.6461 101.966C40.2418 102.378 36.9227 103.96 34.7676 106.199C31.8664 109.213 30.9394 113.436 32.2244 117.785C33.6072 122.466 37.2672 126.63 42.2659 129.209C47.2934 131.803 53.7858 132.856 60.0972 132.107C63.7756 130.569 66.2537 127.55 66.7352 124.011C67.143 121.015 66.2511 117.818 64.0082 114.237C61.5571 110.324 57.0094 106.855 52.8842 103.978C50.9204 102.608 48.244 101.856 45.4752 101.856Z" fill="#1F404D"/>
<path d="M70.0281 121.083C70.3668 120.921 70.6711 120.697 70.9094 120.418C71.7034 119.486 71.4558 118.293 70.3562 117.754C62.1541 113.73 52.0714 112.156 41.9652 113.321C40.6114 113.477 39.5614 114.467 39.6227 115.533C39.6832 116.598 40.8311 117.335 42.1859 117.179C51.19 116.141 60.1732 117.543 67.4812 121.128C68.2512 121.506 69.2345 121.463 70.0281 121.083Z" fill="#1F404D"/>
<path d="M150.445 62.3645C151.292 66.3856 153.018 76.0691 153.147 86.9436C153.306 100.123 151.118 115.048 142.189 123.763C123.948 141.561 98.0282 148.315 71.4318 138.699C60.74 134.835 52.5359 122.698 46.8465 110.581C42.5289 101.392 39.6584 92.2131 38.2408 86.6565C35.1301 74.4736 35.567 62.7679 44.2098 53.3354C47.9918 49.2079 52.6691 46.0557 57.5691 43.4678C75.8615 33.804 97.0638 26.9812 117.313 31.0373C124.251 32.4276 134.711 34.1441 140.784 37.9977C146.974 41.924 150.279 61.5748 150.445 62.3645Z" fill="#FCE9E0"/>
<path d="M150.446 62.3642C151.294 66.3853 153.02 76.0688 153.149 86.9433C143.006 86.4081 133.217 82.9103 123.878 79.0507C122.281 78.3924 119.771 78.1183 119.648 76.4434C115.273 80.2033 109.664 82.4371 103.942 83.5515C98.2213 84.6685 92.3522 84.7262 86.5399 84.5715C84.0837 84.5053 81.6116 84.4035 79.1779 84.776C78.5876 77.1552 71.6337 70.8702 71.9919 63.2203C67.0303 71.3808 63.9807 80.2235 62.8014 89.561C59.1258 92.7563 55.4804 96.0316 52.4865 99.8268C49.9433 103.052 47.8718 106.69 46.8479 110.581C42.5304 101.392 39.6599 92.213 38.2422 86.6565C35.1315 74.4736 35.5684 62.7679 44.2113 53.3354C47.9932 49.2079 52.6706 46.0556 57.5706 43.4678C75.8629 33.804 97.0653 26.9812 117.314 31.0373C124.253 32.4277 134.713 34.1441 140.786 37.9977C146.975 41.9238 150.28 61.5745 150.446 62.3642Z" fill="#F9DDD2"/>
<path d="M95.6487 144.013C87.5357 144.013 79.3311 142.526 71.1228 139.558C49.3628 131.691 38.5223 91.446 37.358 86.8829C33.6757 72.4533 35.6977 61.2781 43.5392 52.7189C46.9689 48.9756 51.4196 45.6855 57.1456 42.6608C76.3683 32.5061 89.8803 27.6304 110.384 29.1638C119.438 29.8411 135.859 32.6489 141.376 37.301C146.037 41.231 149.551 49.9075 151.273 61.7327C151.306 61.9606 151.327 62.1125 151.34 62.1774C152.917 69.6494 159.911 107.749 142.828 124.416C133.553 133.467 122.251 139.687 110.145 142.403C105.359 143.477 100.52 144.013 95.6487 144.013ZM103.279 30.7146C86.9098 30.7146 74.6376 35.4857 57.9984 44.2752C52.4605 47.2005 48.1713 50.366 44.8854 53.9525C37.4925 62.0219 35.6089 72.6459 39.1269 86.4315C40.267 90.8985 50.8672 130.294 71.7435 137.841C96.7397 146.879 122.837 141.371 141.553 123.109C148.31 116.516 151.899 105.517 152.221 90.4157C152.495 77.5921 150.248 65.8472 149.553 62.553C149.534 62.4642 149.514 62.3263 149.466 61.9954C147.809 50.6126 144.518 42.3384 140.198 38.6966C135.286 34.5545 119.727 31.6933 110.248 30.9844C107.835 30.8042 105.518 30.7146 103.279 30.7146Z" fill="#1F404D"/>
<path d="M82.4081 123.372C82.6365 117.652 77.9655 112.821 71.9751 112.582C65.9846 112.342 60.9433 116.785 60.7148 122.505C60.4864 128.225 65.1575 133.056 71.1479 133.295C77.1383 133.535 82.1797 129.092 82.4081 123.372Z" fill="#F9B9B9"/>
<path d="M146.06 109.437C146.288 103.717 141.617 98.8862 135.627 98.647C129.636 98.4078 124.595 102.851 124.367 108.571C124.138 114.291 128.809 119.122 134.8 119.361C140.79 119.6 145.832 115.157 146.06 109.437Z" fill="#F9B9B9"/>
<path d="M103.539 101.442C103.724 102.468 102.058 103.63 99.8185 104.039C97.5788 104.447 95.6134 103.947 95.4286 102.922C95.2437 101.896 96.9093 100.734 99.149 100.325C101.389 99.9165 103.354 100.417 103.539 101.442Z" fill="#EFA29A"/>
<path d="M121.267 102.998C127.901 101.626 132.085 94.7333 130.611 87.6013C129.137 80.4694 122.563 75.7994 115.929 77.1706C109.295 78.5418 105.111 85.4349 106.585 92.5668C108.059 99.6987 114.633 104.369 121.267 102.998Z" fill="white"/>
<path d="M109.412 90.0121C109.416 95.1907 113.532 99.4239 118.603 99.466C123.346 99.5054 127.248 95.8644 127.727 91.1564L122.103 90.0898L127.736 89.2905C127.303 84.5184 123.369 80.7512 118.587 80.7113C113.515 80.6689 109.407 84.8336 109.412 90.0121Z" fill="#1F404D"/>
<path d="M114.018 92.0616C111.876 92.0437 111.875 95.443 114.021 95.4609C116.163 95.4786 116.164 92.0795 114.018 92.0616Z" fill="white"/>
<path d="M131.256 90.2059C130.88 90.2059 130.548 89.9344 130.485 89.5512C129.915 86.1085 128.149 82.9293 125.641 80.829C122.996 78.6144 119.487 77.5773 116.254 78.0578C112.916 78.5524 109.863 80.7514 108.476 83.6601C108.29 84.0502 107.823 84.2156 107.433 84.0297C107.043 83.8436 106.877 83.3769 107.063 82.9867C108.693 79.5692 112.127 77.0872 116.024 76.5096C119.693 75.9673 123.663 77.1324 126.646 79.6289C129.437 81.966 131.399 85.4892 132.029 89.2953C132.1 89.7218 131.811 90.1247 131.385 90.195C131.341 90.2025 131.298 90.2059 131.256 90.2059Z" fill="#1F404D"/>
<path d="M121.383 78.4959C121.218 78.4959 121.051 78.4435 120.909 78.335C120.566 78.0725 120.5 77.5814 120.762 77.238C121.512 76.2572 121.777 74.8876 122.011 73.6789C122.093 73.2545 122.504 72.9773 122.928 73.0593C123.352 73.1413 123.629 73.552 123.547 73.9762C123.294 75.2856 122.978 76.9153 122.006 78.188C121.852 78.39 121.619 78.4959 121.383 78.4959Z" fill="#1F404D"/>
<path d="M124.163 79.6263C123.868 79.6263 123.585 79.4586 123.453 79.1733C123.271 78.7816 123.441 78.3162 123.833 78.1339C124.34 77.898 124.705 77.4338 124.922 77.0859C125.234 76.587 125.45 76.0195 125.68 75.4186C125.834 75.0147 126.286 74.8124 126.69 74.9669C127.094 75.1214 127.296 75.5736 127.142 75.9772C126.896 76.621 126.642 77.2866 126.25 77.9138C125.778 78.671 125.17 79.238 124.492 79.5528C124.386 79.6029 124.273 79.6263 124.163 79.6263Z" fill="#1F404D"/>
<path d="M132.279 95.907C132.191 95.907 132.102 95.8922 132.015 95.8605L130.381 95.2733C129.974 95.1272 129.763 94.6791 129.909 94.2723C130.055 93.8658 130.504 93.6534 130.91 93.8006L132.544 94.3878C132.951 94.534 133.162 94.9823 133.016 95.3886C132.901 95.7081 132.6 95.907 132.279 95.907Z" fill="#1F404D"/>
<path d="M129.936 98.8764C129.825 98.8764 129.713 98.853 129.606 98.8029L128.401 98.2414C128.009 98.0592 127.84 97.5935 128.022 97.2017C128.205 96.8098 128.67 96.6395 129.062 96.8228L130.267 97.3842C130.658 97.5665 130.828 98.0322 130.646 98.4237C130.513 98.7089 130.231 98.8764 129.936 98.8764Z" fill="#1F404D"/>
<path d="M127.017 101.678C126.832 101.678 126.646 101.612 126.496 101.479C126.088 101.114 125.735 100.697 125.445 100.237C125.215 99.8715 125.324 99.3883 125.69 99.1581C126.056 98.9268 126.539 99.0374 126.769 99.4029C126.981 99.739 127.24 100.045 127.539 100.312C127.861 100.6 127.889 101.095 127.601 101.417C127.446 101.59 127.232 101.678 127.017 101.678Z" fill="#1F404D"/>
<path d="M156.727 63.7237C158.069 73.8729 156.843 82.2759 154.643 84.817C152.587 84.689 150.61 84.0857 148.656 83.4882C146.564 82.8459 144.474 82.206 142.383 81.5664C140.138 80.8801 137.881 80.1862 135.812 79.1221C131.834 77.0755 125.085 74.1933 123.469 70.1382C119.618 60.4817 115.359 50.6772 107.743 43.4156C112.963 53.0501 116.958 63.4592 118.404 74.2857C117.153 74.4687 116.68 74.4855 115.429 74.6686C112.299 63.9973 107.336 52.9221 102.756 42.7669C107.242 53.4319 110.826 64.7815 112.26 76.2492C109.975 78.5653 104.409 80.0886 101.179 80.743C96.4331 81.7056 93.4608 81.196 88.7505 80.2134C86.7002 68.5025 85.0108 56.459 82.9606 44.7481C80.3374 57.0493 81.0383 70.2464 84.0584 82.3722C78.7801 85.5649 72.1735 86.568 66.0145 86.0649C63.1862 75.1825 63.6657 63.5773 67.1294 52.7638C60.9706 62.2775 58.4887 76.4351 59.8609 87.4568C52.6453 97.2932 47.7709 100.875 39.688 106.856C34.6247 101.941 27.0527 78.4908 33.7533 56.4357C38.7735 39.8995 51.82 24.148 79.9659 17.5827C135.354 4.66178 153.5 39.2609 156.727 63.7237Z" fill="#3B6A82"/>
<path d="M156.226 63.8271C157.567 73.9763 156.341 82.3793 154.141 84.9204C152.085 84.7925 150.108 84.1892 148.154 83.5916C146.063 82.9494 143.972 82.3095 141.881 81.6698C139.637 80.9835 137.38 80.2896 135.31 79.2255C131.332 77.1789 124.583 74.2967 122.967 70.2416C119.116 60.5851 114.857 50.7806 107.241 43.519C112.461 53.1535 116.457 63.5626 117.903 74.3891C116.651 74.5721 116.179 74.589 114.927 74.772C111.797 64.1007 106.834 53.0255 102.255 42.8703C106.741 53.5351 110.324 64.8849 111.759 76.3526C109.474 78.6687 103.908 80.192 100.678 80.8464C95.9316 81.809 92.9593 81.2994 88.249 80.3168C86.1988 68.6059 84.5094 56.5624 82.4591 44.8515C79.8359 57.1528 80.5366 70.3498 83.5569 82.4756C78.2787 85.6683 71.6721 86.6714 65.513 86.168C62.6845 75.2857 63.1642 63.6804 66.628 52.8669C60.4692 62.3806 57.9875 76.538 59.3594 87.5597C52.1438 97.3961 47.2695 100.977 39.1866 106.959C34.1233 102.044 26.5512 78.5937 33.2518 56.5386C33.2261 56.8753 33.1999 57.2091 33.1739 57.5432C32.7472 63.2043 32.6322 68.9395 33.8068 74.4784C35.1299 80.7091 38.0958 86.5844 42.3536 91.4055C43.2782 90.5494 44.3138 89.8218 45.4503 89.253C42.3868 77.655 45.4804 64.9568 51.8756 54.5335C47.3167 64.1417 48.3603 75.3122 51.3505 85.3578C49.8018 76.4954 51.6488 67.1896 55.7612 59.027C59.8737 50.8647 66.1698 43.8051 73.4243 37.9871C72.021 43.7277 70.6412 49.5023 70.1859 55.3678C69.7311 61.2356 70.2326 67.2423 72.4825 72.6659C73.5707 72.4697 74.1086 72.7157 75.1942 72.5203C75.3538 72.4899 75.5239 72.4575 75.6472 72.3562C75.8603 72.1766 75.8645 71.8679 75.8525 71.5992C75.6145 66.3412 75.7209 61.0645 76.1713 55.8078C76.7946 48.5439 78.0596 41.1079 76.169 34.0922C86.5604 42.9004 92.8651 56.0061 93.1701 69.4337C94.5986 58.3938 92.937 47.5495 88.2926 37.4623C95.1004 45.9081 99.8743 55.8719 102.155 66.3799C102.477 52.726 98.6005 38.8371 91.7899 26.9678C94.9457 28.1152 97.701 30.0491 100.417 31.9628C106.561 36.2897 112.79 40.698 117.407 46.5191C121.024 51.0838 123.53 56.3659 125.94 61.6286C125.791 52.4196 124.106 43.6348 118.967 35.9449C128.519 43.0463 135.469 53.2986 138.397 64.6142C141.374 67.1989 145.008 69.0376 148.949 69.8426C147.603 59.5901 146.366 49.3778 141.604 40.1677C147.004 46.672 151.448 63.8471 151.769 64.0833C151.99 64.2461 155.023 64.1303 156.226 63.8271Z" fill="#2E6175"/>
<path d="M39.1859 107.871C38.9551 107.871 38.7257 107.784 38.5499 107.613C35.6402 104.788 32.6112 97.2681 31.0129 88.8999C29.5792 81.3931 28.5837 69.8729 31.9828 57.6236C34.6332 48.072 39.5068 39.8756 46.4682 33.262C54.63 25.5078 65.6614 19.9679 79.2561 16.7962C96.7671 12.7115 111.887 13.0646 124.196 17.847C134.46 21.8348 142.651 28.8038 148.542 38.56C155.223 49.6241 157.018 61.2031 157.494 67.1208C158.169 75.5048 157.098 82.8982 154.83 85.5182C154.643 85.7337 154.366 85.851 154.083 85.8318C151.909 85.6955 149.864 85.0694 147.886 84.4635L141.612 82.5415C139.365 81.8531 137.042 81.1415 134.891 80.0357C134.391 79.7784 133.846 79.5077 133.273 79.2229C129.216 77.2064 123.66 74.4451 122.119 70.579C119.079 62.9528 115.912 55.5796 111.204 49.3549C115.184 57.8964 117.736 66.2514 118.807 74.2676C118.873 74.7631 118.529 75.2195 118.034 75.2919C117.395 75.3851 116.95 75.4367 116.519 75.4866C116.083 75.5372 115.671 75.5852 115.058 75.6745C114.609 75.7397 114.179 75.4645 114.05 75.0281C113.049 71.6148 111.843 68.1228 110.529 64.6499C111.481 68.5999 112.19 72.453 112.663 76.2397C112.698 76.5172 112.603 76.7955 112.407 76.9943C109.73 79.7055 103.439 81.2163 100.859 81.7399C95.9136 82.744 92.7749 82.1921 88.0625 81.209C87.6967 81.1327 87.4143 80.8412 87.3497 80.4731C86.3225 74.6107 85.3713 68.5698 84.4516 62.7277C83.8037 58.6127 83.1404 54.399 82.4463 50.2214C81.0535 60.3924 81.7274 71.3568 84.4425 82.2528C84.5391 82.6412 84.3716 83.0474 84.0292 83.2546C79.0155 86.2884 72.412 87.6474 65.4373 87.0781C65.0503 87.0467 64.7255 86.7739 64.6279 86.398C62.4541 78.035 62.1709 69.2299 63.7598 60.5476C60.5505 68.7045 59.1734 78.6845 60.2645 87.446C60.2933 87.6773 60.2323 87.9106 60.0947 88.0986C52.8373 97.9921 47.9539 101.605 39.8632 107.592L39.7287 107.691C39.5665 107.812 39.3757 107.871 39.1859 107.871ZM101.906 15.7918C95.336 15.7918 87.9602 16.6407 79.671 18.5744C48.7788 25.7811 37.6437 44.0527 33.7423 58.1117C30.4374 70.0214 31.4093 81.242 32.8065 88.5575C34.4305 97.0604 37.2 103.198 39.3025 105.736C46.8646 100.139 51.5884 96.5493 58.4089 87.3094C57.0227 75.4204 59.9989 61.4269 65.8597 52.37C66.1084 51.9858 66.6034 51.8449 67.0167 52.0411C67.4302 52.2369 67.635 52.7088 67.4956 53.1444C64.0893 63.7832 63.656 74.8887 66.2343 85.3061C72.323 85.6942 78.0503 84.5404 82.5075 82.0296C79.4096 69.2079 79.082 56.3007 81.5642 44.6607C81.6553 44.2329 82.0423 43.9382 82.4738 43.9382C82.9107 43.9463 83.2808 44.263 83.3564 44.6934C84.3841 50.5575 85.3355 56.6003 86.2552 62.444C87.1417 68.0758 88.0576 73.8922 89.0414 79.5479C93.3101 80.4274 96.0963 80.844 100.495 79.951C104.181 79.2029 108.715 77.7894 110.792 76.0047C109.466 65.795 106.395 55.0669 101.411 43.2236C101.217 42.7631 101.43 42.2322 101.888 42.0326C102.347 41.8324 102.879 42.0388 103.085 42.4939C107.222 51.6642 112.348 63.0252 115.578 73.7606C115.844 73.7268 116.079 73.6998 116.309 73.6731C116.494 73.6513 116.676 73.6305 116.87 73.6066C115.474 64.1277 111.966 54.1562 106.437 43.953C106.223 43.5579 106.329 43.066 106.686 42.7929C107.043 42.5201 107.545 42.5473 107.87 42.8575C115.563 50.1933 119.802 59.8366 123.815 69.9031C125.097 73.1207 130.293 75.7026 134.085 77.5877C134.666 77.8767 135.219 78.1508 135.726 78.4119C137.732 79.4433 139.976 80.1309 142.147 80.7955L148.421 82.7175C150.144 83.2453 151.92 83.7894 153.716 83.97C155.221 81.716 156.336 75.49 155.674 67.2669C155.211 61.5094 153.466 50.2468 146.979 39.5034C139.985 27.9217 126.727 15.7918 101.906 15.7918Z" fill="#1F404D"/>
<path d="M67.3437 79.4391C69.9679 77.5799 73.0095 76.3393 76.1124 75.4141C76.6181 75.2633 77.1689 75.121 77.6611 75.2944C78.2963 75.5185 78.6187 76.189 78.7958 76.8182C79.0346 77.6676 79.126 78.5572 79.0645 79.4398C79.0445 79.7267 79.0014 80.0301 78.8129 80.2557C78.652 80.4481 78.4085 80.5556 78.1728 80.6519C74.5751 82.1209 70.5766 82.5817 67.1308 84.364C65.4936 85.2108 64.016 86.3403 62.3284 87.0874C60.3539 87.9617 62.8395 84.0037 63.2211 83.4718C64.3389 81.913 65.7612 80.5602 67.3437 79.4391Z" fill="#1F404D"/>
<path d="M115.522 67.8504C112.357 67.265 109.075 67.4161 105.87 67.879C105.347 67.9545 104.788 68.0565 104.414 68.4205C103.932 68.8903 103.923 69.6338 104.028 70.2789C104.169 71.1496 104.462 71.995 104.89 72.7699C105.029 73.0217 105.196 73.279 105.462 73.4044C105.689 73.5113 105.955 73.5066 106.21 73.495C110.094 73.3177 113.915 72.0579 117.793 72.2287C119.636 72.3099 121.453 72.7141 123.299 72.6837C125.458 72.6482 121.534 70.1008 120.963 69.7784C119.292 68.8335 117.431 68.2032 115.522 67.8504Z" fill="#1F404D"/>
<path d="M172.409 111.825C172.053 111.825 171.713 111.793 171.388 111.728C170.603 111.571 169.821 111.215 168.928 110.606C166.376 108.867 164.446 106.16 163.633 103.18C163.5 102.693 163.787 102.191 164.273 102.059C164.76 101.926 165.261 102.213 165.394 102.699C166.095 105.267 167.757 107.598 169.956 109.097C170.64 109.564 171.209 109.83 171.745 109.937C172.289 110.046 172.926 110.012 173.692 109.836C175.826 109.342 177.548 108.052 178.298 106.384C178.505 105.924 179.045 105.719 179.506 105.926C179.965 106.133 180.17 106.674 179.963 107.133C178.981 109.318 176.79 110.993 174.103 111.614C173.494 111.755 172.933 111.825 172.409 111.825Z" fill="#1F404D"/>
<path d="M35.9148 140.435C34.2464 140.435 32.4981 139.75 31.1243 138.46C30.7568 138.114 30.7388 137.537 31.0838 137.169C31.4291 136.802 32.0069 136.784 32.3743 137.129C33.7062 138.38 35.9626 139.139 37.6985 138.168C38.4609 137.742 39.066 137.018 39.5577 136.366C41.055 134.379 41.8 132.506 41.7722 130.8C41.7639 130.295 42.166 129.88 42.6702 129.872C42.6751 129.872 42.6803 129.872 42.6852 129.872C43.1826 129.872 43.5896 130.271 43.5977 130.77C43.6322 132.893 42.7636 135.146 41.0158 137.465C40.4097 138.269 39.6475 139.171 38.5889 139.763C37.7782 140.215 36.8595 140.435 35.9148 140.435Z" fill="#1F404D"/>
<path d="M93.8059 0.91359C91.197 0.961614 89.1452 4.43052 89.2234 8.66133C89.3015 12.8921 91.4797 16.2827 94.0886 16.2347C96.6975 16.1864 98.7493 12.7177 98.6712 8.48689C98.5933 4.25607 96.4151 0.865566 93.8059 0.91359Z" fill="#FBB03B"/>
<path d="M94.0321 17.1478C90.9051 17.1478 88.3984 13.4484 88.3104 8.67788C88.2694 6.4646 88.7707 4.36086 89.7211 2.75399C90.754 1.00798 92.1986 0.0301162 93.7888 0.000522858C93.8132 0.000263267 93.8379 0 93.862 0C96.9891 0 99.4957 3.69944 99.5837 8.46968C99.6247 10.683 99.1234 12.7869 98.1731 14.3938C97.1402 16.1398 95.6955 17.118 94.1053 17.1473C94.0809 17.1478 94.0562 17.1478 94.0321 17.1478ZM93.8226 1.82622C92.8894 1.84335 91.9909 2.50272 91.2926 3.6836C90.512 5.0031 90.1011 6.76495 90.1359 8.64413C90.2029 12.2792 91.9836 15.3218 94.0334 15.3224C94.0461 15.3224 94.0586 15.3221 94.0715 15.3218C95.0048 15.3047 95.9032 14.6451 96.6015 13.4645C97.3821 12.145 97.793 10.3831 97.7583 8.50368C97.6913 4.86889 95.9105 1.82571 93.8607 1.82571C93.848 1.82571 93.8353 1.82596 93.8226 1.82622Z" fill="#1F404D"/>
<path d="M156.635 48.168L144.854 49.1605L142.934 49.3225L137.082 49.8146L117.435 49.1L115.535 49.0309L97.7087 48.3807L95.89 48.3132L74.8032 47.5466L72.9796 47.4802L63.8274 47.1471L49.9245 49.9603L48.0022 50.3497L31.3007 53.7282C30.4147 49.4414 33.428 41.5217 39.8365 33.4508C41.1031 31.8564 42.5012 30.2558 44.0294 28.6777C44.0294 28.6777 44.0263 28.6756 44.0289 28.6751C50.9533 21.5094 60.527 14.7714 72.3864 10.9539C73.4502 10.6115 74.5314 10.2914 75.6344 10.0009C78.5831 9.21408 81.6655 8.60845 84.8743 8.22166C84.9174 8.21543 84.961 8.21154 85.0038 8.20531C85.686 8.12432 86.3643 8.04929 87.0346 7.98647C88.8972 7.79982 90.7146 7.67186 92.493 7.59632C93.0903 7.57192 93.6832 7.55115 94.2697 7.53688C95.7987 7.50261 97.2962 7.50598 98.7655 7.54908C99.4553 7.56829 100.139 7.5963 100.817 7.63108C103.904 7.79618 106.852 8.12848 109.66 8.61469C110.773 8.80445 111.866 9.01939 112.938 9.25692C130.941 13.2479 142.879 23.5435 149.997 34.335C150.023 34.3739 150.046 34.4108 150.073 34.4497C153.116 39.0896 155.269 43.8163 156.635 48.168Z" fill="#F9EEC0"/>
<path d="M75.6363 10.001C73.8399 11.9082 72.1401 13.9182 70.4611 15.9134C64.3054 23.2149 58.6147 30.9996 54.3174 39.5575C52.675 42.8281 51.1125 46.3354 49.9267 49.9604L48.0044 50.3497C50.7615 41.3173 55.492 32.9125 60.9331 25.2447C63.8127 21.1837 66.9288 17.2955 70.1693 13.5171C70.9027 12.6615 71.6404 11.8023 72.3883 10.9539C73.4521 10.6115 74.5333 10.2917 75.6363 10.001Z" fill="#FBB03B"/>
<path d="M87.0357 7.98633C85.4247 10.8673 83.937 13.8139 82.5965 16.8293C78.2815 26.5515 75.5018 36.9889 74.8046 47.5465L72.981 47.48C73.8745 33.7082 78.3023 20.3561 84.8754 8.2218C84.9185 8.21557 84.9621 8.21168 85.005 8.20545C85.6872 8.12446 86.3655 8.04941 87.0357 7.98633Z" fill="#FBB03B"/>
<path d="M94.2715 7.53711C94.3136 10.8822 94.4125 14.226 94.5711 17.5677C95.061 27.8878 96.1131 38.1774 97.7106 48.3807L95.8919 48.3132C93.8071 34.844 92.675 21.2274 92.4946 7.59656C93.0922 7.57216 93.6851 7.55139 94.2715 7.53711Z" fill="#FBB03B"/>
<path d="M144.854 49.1602L142.934 49.3222C138.548 40.5665 132.987 32.6505 126.392 25.3344C121.12 19.4843 115.492 13.9296 109.66 8.61523C110.774 8.805 111.867 9.01994 112.938 9.25746C114.437 10.6533 115.918 12.0657 117.386 13.4914C125.258 21.1459 132.851 29.205 138.864 38.4358C141.109 41.8808 143.072 45.4733 144.854 49.1602Z" fill="#FBB03B"/>
<path d="M117.434 49.0992L115.534 49.0302C110.818 34.8635 105.563 20.8472 98.7651 7.54883C99.4549 7.56804 100.139 7.59608 100.816 7.63087C102.257 10.4757 103.63 13.358 104.941 16.2688C109.755 26.9572 113.746 37.9773 117.434 49.0992Z" fill="#FBB03B"/>
<g opacity="0.2">
<path d="M156.635 48.1679L144.854 49.1604L142.934 49.3223L137.082 49.8145L117.435 49.0999L115.535 49.0308L97.7087 48.3806L95.89 48.3131L74.8032 47.5465L72.9796 47.48L63.8274 47.147L49.9245 49.9602L48.0022 50.3496L31.3007 53.7281C30.4147 49.4412 33.428 41.5216 39.8365 33.4507C41.1031 31.8563 42.5012 30.2556 44.0294 28.6776C43.416 31.0471 43.1191 33.4844 43.4607 35.894C49.3557 37.7295 55.0522 40.1562 60.6443 42.7716C61.9088 38.5932 64.2293 35.1954 67.0796 31.889C65.2918 34.9994 64.6752 38.7674 65.3816 42.2856C69.946 41.6447 74.5104 41.004 79.0753 40.3657C79.6908 40.2777 80.3333 40.1814 80.8369 39.8164C81.288 39.4885 81.5718 38.9813 81.8316 38.4842C82.9149 36.4191 83.8307 34.2635 84.5649 32.0489C84.7933 34.4662 85.0191 36.884 85.2473 39.3013C93.8509 40.0972 102.699 41.2418 111.204 42.7464C114.739 43.3717 118.391 44.0568 121.878 43.216C121.065 41.1831 120.253 39.1498 119.439 37.1169C121.815 39.3512 123.883 41.9123 125.571 44.7011C125.385 43.373 125.359 42.0224 125.489 40.686C127.591 41.4931 129.38 43.0818 130.43 45.071C127.765 36.9713 123.674 29.3411 118.406 22.6377C125.987 27.3301 130.511 35.5588 134.707 43.4283C137.26 42.4338 138.769 39.6238 138.928 36.8864C139.087 34.149 138.132 31.47 136.991 28.9779C139.371 32.4058 141.748 35.834 144.128 39.2619C144.313 39.5262 144.512 39.806 144.811 39.9293C145.451 40.1962 146.115 39.6388 146.571 39.117C147.854 37.6522 149.025 36.0905 150.074 34.4499C153.116 39.0895 155.269 43.8162 156.635 48.1679Z" fill="#FBB03B"/>
</g>
<path d="M31.299 54.642C30.8751 54.642 30.4953 54.345 30.406 53.9138C29.5096 49.5756 32.1889 42.3888 37.3991 35.1576C40.7738 30.4738 46.7402 23.6434 55.9988 17.703C64.8454 12.027 74.5679 8.52668 84.8955 7.29907C95.5024 6.0385 105.416 6.49303 114.362 8.64894C122.285 10.5587 129.502 13.8096 135.813 18.3117C145.98 25.5639 153.886 36.3468 157.505 47.8949C157.588 48.1592 157.546 48.4471 157.392 48.6771C157.238 48.9071 156.987 49.0543 156.711 49.0777L137.159 50.7234C137.123 50.7266 137.086 50.7279 137.049 50.726L63.9021 48.0642L31.4815 54.6236C31.42 54.636 31.359 54.642 31.299 54.642ZM96.1734 8.43789C92.6476 8.43789 88.9614 8.65491 85.1109 9.11257C58.0205 12.332 42.8765 30.6789 38.8803 36.225C34.3977 42.4464 31.8161 48.7298 32.0746 52.6408L63.6459 46.2533C63.7165 46.239 63.7886 46.2341 63.86 46.2359L137.061 48.8998L155.409 47.3553C149.007 28.4132 130.006 8.43789 96.1734 8.43789Z" fill="#1F404D"/>
<path d="M190.491 84.8639C190.487 89.1469 189.64 93.5392 187.284 97.1164C183.185 103.341 171.115 107.288 164.23 104.437C165.426 102.766 166.387 100.903 167.043 98.9524C168.041 95.9975 168.343 92.8289 167.704 89.7847C166.64 84.7287 162.613 80.1809 157.581 79.0145C158.955 69.4073 157.545 58.6255 153.135 49.979C149.8 50.6371 146.403 50.6166 143.005 50.3173C141.155 50.1597 139.303 49.9167 137.462 49.6556C137.453 49.6211 137.443 49.5865 137.434 49.5546C146.569 42.7533 161.049 33.5698 172.773 41.7035C182.445 48.415 176.814 60.1589 174.947 62.9858C183.231 66.6694 190.496 75.798 190.491 84.8639Z" fill="#FFDE83"/>
<path d="M63.0116 47.2328C63.0108 47.2668 63.0101 47.3008 63.0124 47.3369C58.2066 48.463 53.394 49.8201 48.981 51.6476C40.5785 55.1313 33.6467 60.3299 31.0484 68.907C28.5963 77.0055 31.6987 92.2438 36.5775 103.232C32.8087 106.321 30.0687 112.119 31.0552 116.891C31.2081 117.631 31.4085 118.336 31.6452 119.001C33.9016 125.313 39.65 128.42 42.7892 130.575C41.4495 133.241 38.1649 135.229 35.2157 135.684C32.2664 136.14 29.1661 135.221 26.8337 133.361C25.2757 132.119 24.0278 130.447 23.4606 128.535C22.8934 126.623 23.0463 124.474 24.0395 122.743C17.178 124.61 9.41567 122.573 4.50681 117.433C-0.402582 112.291 -2.27449 104.47 -0.322625 97.636C1.62613 90.7997 7.28806 85.1725 14.1073 83.1635C1.26945 72.4539 9.25109 51.7665 21.8265 44.4736C41.1086 33.2907 55.4303 42.8124 56.9979 43.8106C58.9376 45.047 60.9567 46.1736 63.0116 47.2328Z" fill="#FFDE83"/>
<path d="M44.5233 50.6545C46.0336 50.8952 47.5172 51.2355 48.982 51.6472C40.5796 55.1309 33.6477 60.3295 31.0495 68.9066C28.5974 77.0051 31.6997 92.2434 36.5785 103.231C32.8098 106.321 30.0698 112.118 31.0562 116.89C31.2091 117.631 31.4095 118.335 31.6463 119.001C29.8242 117.44 28.0696 115.828 26.8713 113.765C25.3675 111.171 24.9005 108.078 25.035 105.082C25.1695 102.087 25.8711 99.1459 26.5697 96.2294C22.4295 88.234 20.5534 77.9708 21.2639 68.9913C21.6276 64.3783 22.7537 59.6182 25.767 56.1033C30.1933 50.9351 37.8032 49.5842 44.5233 50.6545Z" fill="#F9D373"/>
<path d="M172.947 81.3205C173.455 84.5508 173.437 87.9214 172.396 91.0235C171.357 94.1225 169.413 96.7021 167.043 98.9522C168.041 95.9973 168.344 92.8287 167.704 89.7845C166.641 84.7284 162.613 80.1806 157.582 79.0143C158.955 69.4071 157.546 58.6252 153.135 49.9788C149.8 50.6368 146.403 50.6163 143.006 50.317C145.441 48.3431 147.877 46.366 150.882 45.6511C155.061 44.6571 159.773 46.6119 162.017 50.2765C164.26 53.9386 163.867 59.0245 161.085 62.2961C167.71 66.0277 171.764 73.8064 172.947 81.3205Z" fill="#F9D373"/>
<path d="M137.19 49.6156C136.573 49.5276 135.956 49.438 135.341 49.3493C123.216 47.5947 111.045 46.1571 98.8442 45.0385C90.0428 44.2314 81.0936 43.5978 72.4274 45.3349C69.4543 45.931 66.3634 46.5574 63.2657 47.2777C63.2657 47.2985 63.2654 47.3193 63.2662 47.3398C63.2662 47.3413 63.2662 47.3405 63.2662 47.3418C63.267 47.3491 63.2675 47.3567 63.268 47.3639C63.268 47.3647 63.2683 47.3655 63.2683 47.366C64.602 48.0497 65.9491 48.7057 67.2971 49.3436C74.4302 52.718 81.9087 55.4006 89.616 57.1178C98.9306 59.193 108.594 59.8297 118.066 58.5271C121.494 58.0557 124.923 57.3249 128.053 55.8491C131.335 54.3017 134.181 51.9885 137.085 49.8142C137.13 49.7807 137.175 49.7469 137.22 49.7132C137.21 49.6805 137.201 49.648 137.19 49.6156Z" fill="#F9EEC0"/>
<path d="M33.7228 136.709C31.0921 136.709 28.3981 135.774 26.2655 134.074C24.4816 132.653 23.1751 130.777 22.5866 128.793C22.1123 127.194 22.0988 125.529 22.524 124.02C15.7277 125.241 8.55958 122.998 3.84722 118.062C-1.27295 112.699 -3.25441 104.583 -1.20053 97.3842C0.672682 90.8189 5.89825 85.2414 12.3387 82.7965C7.07835 77.6758 6.37019 71.3795 6.75438 66.8615C7.52874 57.7556 13.5383 48.2245 21.3688 43.6832C29.539 38.9449 37.8062 37.2435 45.9394 38.6263C48.8331 39.1182 53.1729 40.275 57.4146 42.9924L57.4886 43.0399C59.3995 44.2579 61.3848 45.3627 63.2637 46.3372C66.3954 45.6127 69.4462 45.0009 72.2477 44.4391C80.9603 42.6928 89.8394 43.2956 98.9271 44.1286C111.089 45.2438 123.384 46.6957 135.472 48.4448L135.927 48.511C136.311 48.5666 136.696 48.6227 137.081 48.6777C147.074 41.2723 161.464 32.7443 173.294 40.9533C182.377 47.2557 178.899 57.9594 176.258 62.5936C184.963 66.9025 191.41 76.3005 191.404 84.8634C191.4 89.9498 190.271 94.2414 188.047 97.6189C186.001 100.725 181.902 103.503 177.081 105.049C172.155 106.629 167.344 106.714 163.883 105.279C163.625 105.173 163.431 104.955 163.354 104.687C163.278 104.42 163.327 104.132 163.489 103.905C166.512 99.6728 167.753 94.4636 166.81 89.9711C165.785 85.0942 161.906 80.9542 157.376 79.9036C156.915 79.7964 156.612 79.3541 156.679 78.885C158.06 69.2254 156.583 59.1073 152.626 51.0015C147.629 51.8501 142.541 51.2915 137.569 50.5916C137.177 50.8858 136.785 51.1825 136.393 51.4792C133.909 53.3612 131.341 55.3074 128.442 56.6744C125.655 57.9887 122.493 58.8391 118.19 59.431C109.005 60.6939 99.3243 60.2157 89.417 58.0087C81.9691 56.3491 74.3953 53.7114 66.9063 50.1685C65.7317 49.6127 64.4142 48.9773 63.0252 48.2683C57.8474 49.4892 52.4956 51.0288 47.7677 53.1668C39.1924 57.0448 34.0094 62.2797 31.9225 69.1714C29.4289 77.4066 32.8898 92.6755 37.4121 102.861C37.5788 103.236 37.4741 103.677 37.1564 103.938C33.3313 107.073 31.0929 112.562 31.9493 116.706C33.2978 123.232 38.5546 126.687 42.0331 128.974C42.4894 129.274 42.9175 129.555 43.3059 129.822C43.6817 130.081 43.8095 130.577 43.6046 130.984C42.2174 133.746 38.825 136.05 35.3551 136.586C34.8183 136.669 34.2718 136.709 33.7228 136.709ZM24.0395 121.831C24.3178 121.831 24.5865 121.958 24.762 122.185C24.9878 122.478 25.0153 122.877 24.8315 123.198C24.006 124.637 23.8215 126.535 24.3373 128.274C24.8204 129.903 25.9094 131.456 27.4036 132.646C29.5891 134.388 32.4575 135.185 35.0773 134.781C37.653 134.383 40.2486 132.784 41.5671 130.852C41.3937 130.737 41.2146 130.62 41.0311 130.499C37.301 128.047 31.664 124.341 30.1622 117.075C29.0953 111.913 32.0261 106.119 35.4727 102.981C30.9527 92.5003 27.6055 77.1302 30.176 68.6418C32.424 61.217 37.9326 55.6108 47.0162 51.5028C51.2595 49.5839 55.9599 48.1427 60.5889 46.981C59.2351 46.2404 57.8552 45.4382 56.5076 44.5793L56.43 44.5294C52.7653 42.1817 39.4722 35.295 22.2855 45.2623C14.9393 49.5229 9.30097 58.4682 8.57412 67.016C8.19953 71.421 8.95727 77.6761 14.694 82.4617C14.9528 82.6774 15.0717 83.0182 15.0031 83.3482C14.9349 83.6778 14.6903 83.9434 14.3672 84.0384C7.82727 85.9648 2.40597 91.3999 0.555606 97.885C-1.32409 104.473 0.486297 111.898 5.16802 116.801C9.83184 121.686 17.1456 123.673 23.7999 121.863C23.8793 121.841 23.9598 121.831 24.0395 121.831ZM165.652 103.963C172.183 105.826 182.846 102.197 186.522 96.6148C188.547 93.5402 189.575 89.5861 189.578 84.8621C189.584 76.671 183.136 67.6252 174.578 63.8212C174.333 63.7122 174.148 63.5006 174.073 63.2431C173.998 62.9856 174.039 62.7078 174.187 62.4838C175.147 61.0298 176.879 57.5448 177.281 53.7067C177.783 48.9033 176.092 45.1169 172.253 42.4535C161.947 35.303 149.121 42.2694 139.689 49.0362C144.136 49.6088 148.635 49.9351 152.961 49.0842C153.36 49.0061 153.765 49.2018 153.95 49.5652C158.188 57.875 159.867 68.3184 158.595 78.3417C163.441 79.8242 167.492 84.3367 168.596 89.5963C169.585 94.2995 168.513 99.4734 165.652 103.963ZM65.8373 47.6302C66.4837 47.9454 67.1036 48.2418 67.6877 48.5178C75.0541 52.0028 82.4986 54.5964 89.8147 56.2261C99.5091 58.3856 108.973 58.855 117.942 57.6219C122.053 57.0563 125.052 56.2544 127.664 55.0223C130.29 53.7841 132.699 51.987 135.026 50.2251C123.029 48.4926 110.829 47.0532 98.7613 45.9468C89.8129 45.1267 81.0792 44.531 72.6072 46.2295C70.471 46.6578 68.1882 47.1155 65.8373 47.6302Z" fill="#1F404D"/>
<path d="M108.786 110.033C108.892 110.546 108.971 111.054 109.025 111.556C109.599 116.739 107.543 121.243 104.079 121.959C100.61 122.676 96.9335 119.346 95.4079 114.349C95.2602 113.874 95.1348 113.381 95.0302 112.876C95.0161 112.808 95.0052 112.743 94.9912 112.675L108.742 109.833C108.757 109.901 108.772 109.965 108.786 110.033Z" fill="#F25851"/>
<path d="M108.786 110.033C108.892 110.546 108.971 111.054 109.025 111.556C108.942 111.672 108.856 111.784 108.766 111.891C108.268 112.484 107.66 112.977 107.018 113.413C104.704 114.976 101.854 115.787 99.0785 115.479C97.7997 115.336 96.5441 114.952 95.4078 114.349C95.2601 113.874 95.1348 113.381 95.0301 112.876C95.0161 112.808 95.0052 112.743 94.9912 112.675L108.742 109.833C108.756 109.901 108.772 109.965 108.786 110.033Z" fill="white"/>
<path d="M103.118 122.822C101.37 122.822 99.6008 121.996 98.0375 120.427C96.2245 118.607 94.8902 115.98 94.2802 113.03C94.2703 112.982 94.262 112.937 94.2537 112.891L94.2405 112.819C94.1613 112.408 94.4274 112.009 94.8378 111.925L108.587 109.083C108.997 108.996 109.4 109.259 109.49 109.669L109.506 109.739C109.517 109.785 109.528 109.831 109.537 109.878C110.147 112.827 109.963 115.768 109.02 118.157C108.033 120.658 106.333 122.274 104.234 122.708C103.865 122.784 103.492 122.822 103.118 122.822ZM95.9045 113.269C96.4974 115.703 97.6292 117.846 99.1231 119.345C100.644 120.872 102.35 121.532 103.925 121.207C105.5 120.881 106.804 119.599 107.595 117.594C108.372 115.626 108.561 113.211 108.141 110.739L95.9045 113.269Z" fill="#1F404D"/>
<path d="M76.9539 100.845C76.7699 100.845 76.585 100.78 76.4363 100.649C76.1123 100.363 76.0817 99.8682 76.3675 99.5443C78.3137 97.3403 80.8512 95.7192 83.627 94.8314C79.9605 95.0375 76.3408 96.6794 73.9549 99.4487C73.6727 99.7763 73.1789 99.8127 72.8513 99.5308C72.524 99.2486 72.4871 98.7546 72.7693 98.4273C76.726 93.8343 83.7269 92.0216 89.4146 94.1162C89.7759 94.2491 89.9867 94.6253 89.9117 95.0027C89.8366 95.3804 89.4966 95.6504 89.1134 95.6322C84.7518 95.4593 80.4283 97.3102 77.5409 100.58C77.3861 100.755 77.1704 100.845 76.9539 100.845Z" fill="#1F404D"/>
<path d="M74.9242 98.0343C74.8653 98.0343 74.8053 98.0276 74.7451 98.0135C73.6397 97.7547 72.6341 97.1291 71.9129 96.252C71.6385 95.9182 71.6866 95.4252 72.0204 95.1505C72.3545 94.8761 72.8475 94.9247 73.1218 95.2583C73.626 95.8714 74.3292 96.3088 75.102 96.4895C75.5228 96.5879 75.784 97.0089 75.6856 97.4297C75.6009 97.7908 75.2796 98.0343 74.9242 98.0343Z" fill="#1F404D"/>
<path d="M77.0035 96.6424C76.8543 96.6424 76.7037 96.5998 76.5703 96.511C75.6303 95.8846 74.8139 95.0485 74.2093 94.0937C73.9782 93.7287 74.0868 93.2454 74.4517 93.0141C74.817 92.7831 75.3001 92.891 75.5316 93.2568C76.0197 94.0278 76.679 94.7027 77.4383 95.2087C77.7979 95.4483 77.8952 95.9342 77.6554 96.2938C77.5048 96.5201 77.2566 96.6424 77.0035 96.6424Z" fill="#1F404D"/>
<path d="M132.81 142.501C132.939 142.156 133.107 141.8 133.419 141.604C133.815 141.355 134.324 141.432 134.785 141.512C138.878 142.226 143.045 142.524 147.198 142.401C147.659 142.387 148.206 142.411 148.455 142.798C148.595 143.016 148.596 143.292 148.592 143.551C148.591 143.65 148.587 143.755 148.528 143.834C148.464 143.921 148.35 143.952 148.245 143.976C146.792 144.313 145.291 144.373 143.81 144.551C142.329 144.729 140.827 145.041 139.556 145.823C139.002 146.164 138.504 146.588 138.032 147.036C137.77 147.284 137.492 147.554 137.137 147.616C136.95 147.649 136.759 147.621 136.572 147.588C135.327 147.375 134.111 146.988 132.971 146.443C132.723 146.324 132.468 146.189 132.313 145.962C131.726 145.102 132.489 143.356 132.81 142.501Z" fill="#FCE9E0"/>
<path d="M136.959 148.453C136.768 148.453 136.591 148.427 136.432 148.4C135.109 148.172 133.825 147.764 132.615 147.185C132.374 147.069 131.925 146.855 131.632 146.425C130.854 145.285 131.512 143.58 131.947 142.452L132.039 142.212C132.202 141.778 132.456 141.237 132.98 140.908C133.659 140.482 134.42 140.614 134.925 140.702C138.959 141.406 143.079 141.699 147.173 141.579C147.606 141.565 148.62 141.536 149.146 142.354C149.424 142.788 149.418 143.273 149.413 143.563C149.411 143.703 149.407 144.031 149.186 144.327C148.937 144.66 148.582 144.743 148.43 144.778C147.359 145.026 146.272 145.131 145.222 145.232C144.783 145.273 144.344 145.315 143.907 145.368C142.725 145.51 141.211 145.77 139.986 146.524C139.556 146.788 139.114 147.141 138.597 147.632C138.282 147.932 137.871 148.322 137.278 148.427C137.169 148.446 137.062 148.453 136.959 148.453ZM133.579 142.791L133.482 143.044C133.289 143.545 132.7 145.072 132.992 145.499C133.035 145.562 133.254 145.667 133.326 145.701C134.399 146.215 135.538 146.577 136.711 146.779C136.783 146.791 136.935 146.818 136.994 146.807C137.098 146.789 137.301 146.595 137.449 146.454C138.067 145.868 138.594 145.449 139.125 145.123C140.622 144.201 142.362 143.897 143.711 143.735C144.161 143.681 144.613 143.637 145.065 143.594C145.986 143.506 146.862 143.422 147.719 143.249C147.642 143.232 147.496 143.215 147.222 143.223C143.019 143.349 138.786 143.046 134.642 142.323C134.417 142.284 133.999 142.211 133.856 142.3C133.775 142.351 133.682 142.516 133.579 142.791Z" fill="#1F404D"/>
<path d="M139.288 147.354C139.048 148.095 138.389 149.658 137.444 151.555C137.186 152.076 136.905 152.623 136.607 153.185C135.746 154.807 134.729 156.551 133.631 158.18C133.274 158.712 132.906 159.23 132.533 159.728C130.49 162.453 128.255 164.552 126.222 164.652C126.176 164.655 126.131 164.655 126.082 164.655C125.643 164.665 125.114 164.611 124.514 164.504C123.048 164.236 121.15 163.641 119.084 162.798C118.604 162.602 118.114 162.395 117.618 162.172C115.907 161.409 114.12 160.5 112.396 159.491C111.926 159.215 111.461 158.934 111.001 158.643C109.614 157.77 108.294 156.835 107.114 155.864C106.68 155.51 106.264 155.147 105.87 154.779C104.931 153.908 104.118 153.014 103.487 152.115C103.097 151.559 102.772 151.002 102.53 150.448C101.357 147.764 102.065 145.138 105.996 143.018C106.483 142.755 107.262 142.727 108.243 142.891C108.784 142.98 109.392 143.128 110.043 143.33C110.907 143.593 111.854 143.95 112.85 144.377C113.328 144.584 113.816 144.806 114.311 145.044C115.399 145.565 116.52 146.16 117.636 146.806C118.101 147.074 118.563 147.352 119.023 147.636C119.894 148.177 120.747 148.747 121.567 149.331C122.039 149.669 122.501 150.013 122.946 150.358C123.104 150.483 123.263 150.608 123.416 150.734C124.036 151.231 124.619 151.737 125.155 152.243C125.188 152.273 125.221 152.307 125.255 152.337C125.924 151.247 126.55 150.356 127.17 149.523C127.518 149.053 127.865 148.603 128.217 148.146C128.626 147.612 129.042 147.071 129.474 146.481C129.793 146.049 130.118 145.592 130.457 145.094C130.805 144.586 131.165 144.032 131.543 143.421C134.86 143.572 139.61 146.353 139.288 147.354Z" fill="#F27272"/>
<path d="M110.045 143.33C108.684 145.549 107.085 147.623 105.44 149.671C104.787 150.483 104.135 151.298 103.489 152.115C103.099 151.558 102.774 151.002 102.532 150.448C102.8 150.11 103.071 149.773 103.344 149.436C105.052 147.324 106.779 145.186 108.245 142.891C108.786 142.98 109.394 143.128 110.045 143.33Z" fill="#F9C5C5"/>
<path d="M119.023 147.636C117.067 151.766 114.853 155.729 112.396 159.491C111.926 159.215 111.461 158.934 111.001 158.643C113.461 154.889 115.68 150.933 117.637 146.806C118.101 147.074 118.564 147.352 119.023 147.636Z" fill="#F9C5C5"/>
<path d="M114.311 145.043C113.233 147.084 111.943 148.989 110.623 150.853C109.446 152.518 108.273 154.186 107.114 155.864C106.68 155.509 106.263 155.146 105.87 154.778C106.841 153.374 107.819 151.977 108.807 150.587C110.23 148.59 111.668 146.567 112.85 144.376C113.327 144.583 113.815 144.805 114.311 145.043Z" fill="#F9C5C5"/>
<path d="M122.946 150.358C122.06 154.646 120.727 158.798 119.085 162.798C118.605 162.601 118.114 162.394 117.619 162.172C119.325 158.053 120.699 153.765 121.568 149.331C122.04 149.668 122.502 150.013 122.946 150.358Z" fill="#F9C5C5"/>
<path d="M126.082 164.655C125.643 164.665 125.114 164.611 124.514 164.504C124.294 159.897 123.968 155.3 123.416 150.733C124.037 151.231 124.619 151.737 125.155 152.243C125.605 156.362 125.886 160.505 126.082 164.655Z" fill="#F9C5C5"/>
<path d="M133.631 158.181C133.274 158.712 132.906 159.231 132.533 159.729C131.088 156.135 129.223 152.754 127.17 149.523C127.517 149.053 127.865 148.604 128.217 148.146C130.265 151.331 132.14 154.657 133.631 158.181Z" fill="#F9C5C5"/>
<path d="M137.446 151.556C137.188 152.077 136.907 152.623 136.609 153.185C135.889 152.223 135.104 151.308 134.239 150.458C132.745 148.992 131.128 147.707 129.476 146.481C129.795 146.05 130.119 145.593 130.459 145.095C132.152 146.359 133.807 147.684 135.345 149.194C136.103 149.937 136.8 150.726 137.446 151.556Z" fill="#F9C5C5"/>
<path d="M126.021 165.551C123.283 165.551 117.769 163.55 112.712 160.703C109.026 158.627 102.65 154.452 101.354 149.803C100.768 147.703 101.024 144.683 105.571 142.231C107.628 141.121 112.29 143.069 114.886 144.328C118.657 146.157 122.384 148.589 125.071 150.957C125.904 149.686 126.675 148.683 127.484 147.632C128.495 146.317 129.54 144.958 130.783 142.95C130.954 142.674 131.261 142.511 131.584 142.528C134.593 142.665 138.805 144.784 139.874 146.325C140.261 146.883 140.232 147.342 140.139 147.629C139.693 149.012 137.786 153.303 135.196 157.42C131.885 162.683 128.881 165.417 126.269 165.546C126.189 165.549 126.106 165.551 126.021 165.551ZM126.181 163.76C130.543 163.545 137.063 151.054 138.37 147.285C137.802 146.507 134.637 144.681 132.012 144.357C130.849 146.189 129.86 147.475 128.901 148.722C127.939 149.974 127.029 151.156 126.017 152.804C125.876 153.034 125.638 153.188 125.371 153.223C125.103 153.258 124.834 153.169 124.639 152.983C122.048 150.514 118.111 147.88 114.106 145.937C109.896 143.894 107.171 143.4 106.421 143.804C103.564 145.345 102.47 147.15 103.076 149.323C103.897 152.265 107.728 155.845 113.589 159.145C119.142 162.272 124.222 163.852 126.181 163.76Z" fill="#1F404D"/>
<path d="M139.999 141.9C151.142 141.9 160.175 140.071 160.175 137.814C160.175 135.557 151.142 133.728 139.999 133.728C128.856 133.728 119.823 135.557 119.823 137.814C119.823 140.071 128.856 141.9 139.999 141.9Z" fill="white"/>
<path d="M140 142.794C132.174 142.794 118.93 141.744 118.93 137.813C118.93 133.882 132.174 132.833 140 132.833C147.826 132.833 161.07 133.882 161.07 137.813C161.07 141.744 147.826 142.794 140 142.794ZM140 134.621C134.821 134.621 129.92 135.019 126.2 135.743C121.909 136.577 120.776 137.546 120.717 137.82C120.776 138.08 121.909 139.05 126.2 139.884C129.92 140.607 134.822 141.006 140 141.006C145.179 141.006 150.08 140.608 153.801 139.884C158.055 139.056 159.205 138.096 159.282 137.813C159.205 137.53 158.056 136.57 153.801 135.743C150.081 135.019 145.18 134.621 140 134.621Z" fill="#1F404D"/>
<path d="M149.294 137.813H130.707L128.507 119.169H151.493L149.294 137.813Z" fill="#FFD4E5"/>
<path d="M149.293 138.707H130.706C130.253 138.707 129.871 138.367 129.818 137.918L127.619 119.274C127.589 119.02 127.669 118.766 127.839 118.575C128.008 118.385 128.251 118.275 128.506 118.275H151.492C151.747 118.275 151.99 118.385 152.16 118.575C152.329 118.766 152.409 119.02 152.379 119.274L150.18 137.918C150.128 138.367 149.746 138.707 149.293 138.707ZM131.501 136.919H148.498L150.487 120.063H129.512L131.501 136.919Z" fill="#1F404D"/>
<path d="M153.768 113.503C152.189 107.458 146.693 102.997 140.154 102.997C133.053 102.997 127.184 108.258 126.224 115.095C124.085 115.665 122.506 117.61 122.506 119.929C122.506 122.695 124.748 124.937 127.514 124.937C129.027 124.937 130.38 124.264 131.298 123.204C131.83 123.396 132.401 123.506 133 123.506C133.771 123.506 134.498 123.327 135.151 123.015C135.952 124.713 137.675 125.891 139.677 125.891C141.147 125.891 142.464 125.254 143.38 124.246C144.25 124.974 145.37 125.414 146.593 125.414C148.485 125.414 150.13 124.365 150.982 122.817C151.725 123.252 152.586 123.506 153.509 123.506C156.275 123.506 158.517 121.264 158.517 118.498C158.517 115.82 156.412 113.639 153.768 113.503Z" fill="#FF7B7B"/>
<path d="M139.678 126.786C137.691 126.786 135.838 125.766 134.756 124.131C133.73 124.455 132.624 124.49 131.563 124.22C130.471 125.25 129.026 125.832 127.515 125.832C124.261 125.832 121.613 123.184 121.613 119.93C121.613 117.462 123.155 115.272 125.429 114.413C126.695 107.357 132.928 102.104 140.155 102.104C146.754 102.104 152.551 106.422 154.464 112.68C157.286 113.137 159.412 115.578 159.412 118.499C159.412 121.753 156.764 124.401 153.509 124.401C152.752 124.401 152.001 124.252 151.299 123.967C150.193 125.429 148.457 126.308 146.594 126.308C145.482 126.308 144.395 125.992 143.46 125.406C142.404 126.291 141.063 126.786 139.678 126.786ZM135.151 122.122C135.252 122.122 135.354 122.14 135.451 122.174C135.675 122.254 135.858 122.42 135.96 122.635C136.637 124.07 138.097 124.998 139.678 124.998C140.83 124.998 141.938 124.505 142.719 123.646C143.042 123.291 143.587 123.253 143.955 123.562C144.694 124.18 145.631 124.521 146.594 124.521C148.093 124.521 149.475 123.703 150.2 122.387C150.316 122.175 150.513 122.02 150.746 121.956C150.978 121.892 151.227 121.925 151.435 122.047C152.067 122.418 152.784 122.614 153.509 122.614C155.778 122.614 157.624 120.768 157.624 118.499C157.624 116.311 155.91 114.509 153.723 114.397C153.334 114.377 153.002 114.107 152.904 113.73C151.392 107.938 146.149 103.892 140.155 103.892C133.625 103.892 128.017 108.762 127.11 115.22C127.06 115.576 126.802 115.867 126.455 115.96C124.657 116.439 123.401 118.072 123.401 119.93C123.401 122.199 125.247 124.045 127.516 124.045C128.706 124.045 129.839 123.525 130.624 122.62C130.866 122.34 131.256 122.239 131.603 122.364C132.657 122.745 133.774 122.684 134.767 122.21C134.888 122.151 135.019 122.122 135.151 122.122Z" fill="#1F404D"/>
<path d="M132.55 111.932C132.359 111.932 132.166 111.871 132.003 111.745C131.613 111.443 131.542 110.882 131.844 110.491C132.206 110.023 132.637 109.616 133.124 109.281C133.53 109.002 134.087 109.105 134.367 109.512C134.647 109.919 134.543 110.475 134.137 110.755C133.802 110.985 133.506 111.264 133.257 111.586C133.081 111.813 132.817 111.932 132.55 111.932Z" fill="#1F404D"/>
<path d="M138.283 108.594C138.099 108.594 137.916 108.59 137.734 108.582C137.24 108.559 136.859 108.141 136.881 107.648C136.904 107.155 137.326 106.775 137.815 106.796C138.336 106.819 138.863 106.804 139.382 106.748C139.872 106.696 140.314 107.051 140.366 107.542C140.418 108.033 140.063 108.474 139.572 108.526C139.145 108.572 138.713 108.594 138.283 108.594Z" fill="#1F404D"/>
<path d="M147.366 110.284C147.245 110.284 147.122 110.26 147.004 110.207C146.28 109.887 145.609 109.46 145.012 108.94C144.639 108.616 144.6 108.051 144.924 107.679C145.248 107.307 145.813 107.268 146.185 107.592C146.648 107.995 147.167 108.325 147.727 108.573C148.179 108.773 148.383 109.3 148.183 109.752C148.036 110.086 147.708 110.284 147.366 110.284Z" fill="#1F404D"/>
<path d="M139.134 113.92C138.685 113.92 138.299 113.584 138.247 113.128C138.19 112.638 138.542 112.194 139.033 112.138L141.02 111.911C141.508 111.855 141.953 112.207 142.009 112.698C142.065 113.188 141.713 113.631 141.223 113.687L139.236 113.915C139.202 113.918 139.168 113.92 139.134 113.92Z" fill="#1F404D"/>
<path d="M147.649 116.519C147.612 116.519 147.574 116.517 147.535 116.512C146.512 116.382 145.528 115.929 144.763 115.237C144.397 114.906 144.368 114.341 144.699 113.975C145.03 113.609 145.596 113.581 145.962 113.911C146.458 114.361 147.098 114.654 147.761 114.739C148.251 114.801 148.597 115.249 148.535 115.739C148.478 116.19 148.093 116.519 147.649 116.519Z" fill="#1F404D"/>
<path d="M132.326 117.158C131.945 117.158 131.592 116.912 131.472 116.529C131.326 116.057 131.59 115.556 132.061 115.41C132.664 115.223 133.281 115.061 133.895 114.929C134.378 114.824 134.853 115.131 134.957 115.614C135.062 116.096 134.755 116.572 134.272 116.676C133.709 116.797 133.144 116.946 132.591 117.118C132.503 117.145 132.414 117.158 132.326 117.158Z" fill="#1F404D"/>
<path d="M139.532 119.482C139.287 119.482 139.042 119.381 138.865 119.183C138.536 118.815 138.569 118.25 138.937 117.921C139.207 117.681 139.456 117.414 139.68 117.129C139.984 116.74 140.545 116.672 140.935 116.976C141.323 117.281 141.392 117.842 141.087 118.231C140.799 118.6 140.476 118.944 140.127 119.255C139.957 119.407 139.744 119.482 139.532 119.482Z" fill="#1F404D"/>
<path d="M149.97 113.869C149.792 113.869 149.612 113.815 149.455 113.705C149.182 113.512 148.936 113.285 148.723 113.029C148.407 112.649 148.458 112.085 148.837 111.77C149.216 111.454 149.78 111.505 150.096 111.884C150.21 112.021 150.341 112.142 150.486 112.244C150.89 112.529 150.986 113.087 150.701 113.49C150.527 113.737 150.251 113.869 149.97 113.869Z" fill="#1F404D"/>
</svg>
