<svg width="196" height="243" viewBox="0 0 196 243" fill="none" xmlns="http://www.w3.org/2000/svg">
<path d="M112.039 243C149.175 243 179.279 236.681 179.279 228.885C179.279 221.089 149.175 214.77 112.039 214.77C74.9037 214.77 44.7993 221.089 44.7993 228.885C44.7993 236.681 74.9037 243 112.039 243Z" fill="#E6E6E6"/>
<path d="M106.161 220.638C106.132 220.757 106.098 220.872 106.066 220.991C105.307 221.144 104.58 221.275 103.87 221.378C101.48 221.727 99.2925 221.758 96.8355 221.217C96.5897 221.162 96.3401 221.101 96.0889 221.035C96.0831 221.011 96.0782 220.985 96.0748 220.962C95.3577 217.498 94.8558 213.986 94.5727 210.457C94.2154 206.013 94.2062 201.541 94.543 197.094C99.5434 196.173 104.252 196.632 108.95 198.573C108.828 203.108 108.567 207.5 107.948 211.861C107.536 214.792 106.961 217.705 106.161 220.638Z" fill="#F6E2D7"/>
<path d="M107.945 211.861C107.717 211.802 107.487 211.742 107.259 211.685C103.122 210.648 98.8296 210.238 94.5698 210.457C94.2124 206.013 94.2033 201.541 94.5401 197.094C99.5405 196.173 104.249 196.632 108.947 198.573C108.826 203.108 108.564 207.5 107.945 211.861Z" fill="#EFD3C5"/>
<path d="M100.637 222.367C99.1138 222.367 97.5768 222.183 95.8997 221.742C95.6308 221.672 95.4247 221.455 95.3681 221.183C93.7192 213.245 93.1951 205.122 93.8107 197.038C93.836 196.706 94.0818 196.433 94.4089 196.373C99.5909 195.418 104.438 195.916 109.227 197.895C109.507 198.011 109.688 198.289 109.68 198.592C109.504 205.219 109.022 213.086 106.77 221.187C106.696 221.453 106.479 221.655 106.209 221.71C104.231 222.108 102.444 222.367 100.637 222.367ZM96.7115 220.434C99.7672 221.159 102.382 220.956 105.477 220.359C107.529 212.768 108.019 205.371 108.2 199.062C104.004 197.419 99.75 196.978 95.2314 197.718C94.7034 205.323 95.2009 212.961 96.7115 220.434Z" fill="#1F404D"/>
<path d="M109.924 226.514C109.755 226.69 109.583 226.866 109.406 227.036C107.716 228.683 105.703 230.023 103.386 230.409C100.825 230.836 98.3592 230.113 96.0558 228.914C96.0647 228.056 96.2489 227.117 96.2421 226.224C96.2408 225.802 96.1975 225.392 96.0728 225.005C95.591 223.51 93.5221 216.699 93.4556 214.857C93.8797 215.011 104.362 216.834 107.846 215.095C107.867 216.26 107.336 222.327 107.357 223.492C108.164 224.462 109.117 225.544 109.924 226.514Z" fill="#8CC63F"/>
<path d="M109.407 227.036C107.717 228.683 105.703 230.023 103.387 230.409C100.825 230.836 98.3595 230.113 96.0562 228.914C96.065 228.056 96.2492 227.117 96.2424 226.224C98.7978 227.424 101.642 228.02 104.467 227.922C106.146 227.865 107.813 227.563 109.407 227.036Z" fill="#82B72E"/>
<path d="M101.884 231.267C99.9406 231.267 97.908 230.705 95.7165 229.566C95.4711 229.438 95.3185 229.184 95.3216 228.907C95.3265 228.466 95.3727 228.014 95.4176 227.577C95.506 226.715 95.5895 225.9 95.374 225.231C95.3482 225.151 92.8017 217.077 92.7226 214.884C92.7143 214.651 92.8173 214.428 93.0002 214.283C93.183 214.138 93.4241 214.089 93.649 214.151C98.9009 215.59 104.964 215.511 108.066 213.964C108.292 213.852 108.558 213.862 108.773 213.993C108.988 214.123 109.122 214.355 109.126 214.606C109.137 215.203 108.935 216.723 108.601 219.157C108.386 220.728 108.145 222.485 108.098 223.236C108.449 223.655 108.822 224.09 109.195 224.526C109.638 225.043 110.08 225.56 110.486 226.048C110.724 226.334 110.71 226.754 110.453 227.023C108.224 229.355 105.886 230.739 103.505 231.134C102.971 231.222 102.431 231.267 101.884 231.267ZM96.8072 228.474C99.1565 229.621 101.273 230.018 103.265 229.687C105.169 229.371 107.073 228.291 108.932 226.475C108.655 226.149 108.369 225.814 108.082 225.479C107.64 224.963 107.199 224.448 106.794 223.961C106.687 223.833 106.628 223.672 106.625 223.506C106.614 222.91 106.816 221.39 107.15 218.957C107.302 217.843 107.468 216.636 107.568 215.76C103.819 217.077 98.437 216.783 94.3235 215.832C94.7756 218.237 96.2231 223.082 96.7701 224.782C97.0795 225.744 96.9762 226.752 96.8763 227.727C96.8497 227.985 96.8241 228.234 96.8072 228.474Z" fill="#1F404D"/>
<path d="M115.489 220.55C115.531 220.665 115.576 220.777 115.62 220.891C116.391 220.964 117.128 221.018 117.845 221.046C120.259 221.142 122.437 220.943 124.824 220.148C125.062 220.067 125.304 219.98 125.547 219.888C125.55 219.864 125.553 219.838 125.553 219.815C125.903 216.294 126.033 212.749 125.944 209.21C125.833 204.753 125.373 200.305 124.571 195.917C119.502 195.526 114.867 196.477 110.399 198.901C110.996 203.398 111.717 207.738 112.79 212.01C113.508 214.881 114.385 217.717 115.489 220.55Z" fill="#F6E2D7"/>
<path d="M112.79 212.01C113.011 211.927 113.233 211.843 113.454 211.763C117.459 210.297 121.685 209.439 125.944 209.21C125.833 204.753 125.373 200.305 124.571 195.917C119.502 195.526 114.867 196.477 110.399 198.901C110.996 203.398 111.717 207.738 112.79 212.01Z" fill="#EFD3C5"/>
<path d="M118.93 221.802C117.847 221.802 116.734 221.732 115.55 221.621C115.275 221.595 115.038 221.417 114.937 221.161C111.847 213.34 110.542 205.567 109.672 198.996C109.632 198.695 109.782 198.4 110.049 198.255C114.604 195.785 119.369 194.781 124.625 195.186C124.957 195.212 125.23 195.457 125.29 195.785C126.751 203.759 127.082 211.893 126.276 219.959C126.248 220.236 126.066 220.473 125.806 220.572C123.394 221.485 121.232 221.802 118.93 221.802ZM116.136 220.202C119.277 220.47 121.899 220.397 124.861 219.356C125.579 211.766 125.272 204.118 123.949 196.61C119.377 196.349 115.194 197.234 111.193 199.308C112.035 205.563 113.299 212.867 116.136 220.202Z" fill="#1F404D"/>
<path d="M112.36 226.789C112.547 226.947 112.737 227.103 112.93 227.254C114.783 228.714 116.926 229.836 119.271 229.976C121.863 230.132 124.239 229.154 126.404 227.72C126.305 226.867 126.023 225.953 125.936 225.064C125.893 224.644 125.893 224.232 125.976 223.834C126.299 222.297 127.641 215.306 127.514 213.468C127.108 213.665 116.876 216.579 113.228 215.215C113.329 216.375 114.494 222.353 114.595 223.513C113.895 224.563 113.061 225.74 112.36 226.789Z" fill="#8CC63F"/>
<path d="M112.931 227.254C114.784 228.714 116.927 229.836 119.271 229.976C121.864 230.132 124.239 229.153 126.404 227.72C126.305 226.867 126.024 225.952 125.937 225.063C123.521 226.526 120.755 227.417 117.936 227.616C116.261 227.735 114.57 227.61 112.931 227.254Z" fill="#82B72E"/>
<path d="M119.814 230.726C119.619 230.726 119.424 230.72 119.23 230.708C116.82 230.565 114.35 229.435 111.889 227.349C111.605 227.108 111.547 226.692 111.753 226.383C112.105 225.855 112.491 225.296 112.876 224.736C113.202 224.263 113.528 223.789 113.833 223.336C113.707 222.594 113.283 220.872 112.904 219.331C112.316 216.947 111.956 215.456 111.904 214.862C111.882 214.612 111.99 214.367 112.191 214.215C112.391 214.063 112.655 214.024 112.891 214.112C116.138 215.325 122.177 214.767 127.248 212.785C127.465 212.7 127.71 212.723 127.907 212.848C128.104 212.973 128.23 213.184 128.246 213.417C128.398 215.604 126.713 223.903 126.696 223.985C126.552 224.673 126.72 225.474 126.899 226.323C126.989 226.753 127.083 227.198 127.134 227.636C127.166 227.91 127.041 228.179 126.81 228.332C124.38 229.939 122.084 230.726 119.814 230.726ZM113.344 226.646C115.384 228.256 117.39 229.13 119.317 229.245C121.33 229.366 123.395 228.748 125.612 227.361C125.57 227.123 125.518 226.878 125.464 226.624C125.263 225.666 125.054 224.674 125.261 223.685C125.627 221.936 126.557 216.966 126.755 214.528C122.764 215.905 117.442 216.763 113.576 215.846C113.767 216.707 114.059 217.889 114.327 218.98C114.915 221.365 115.275 222.856 115.327 223.45C115.342 223.616 115.299 223.782 115.207 223.921C114.854 224.448 114.469 225.008 114.084 225.567C113.834 225.93 113.584 226.292 113.344 226.646Z" fill="#1F404D"/>
<path d="M183.748 123.118C183.13 130.376 178.2 137.238 171.259 140.5C164.321 143.764 156.59 142.437 150.206 138.47C149.176 145.564 144.095 152.173 137.077 154.951C130.059 157.729 121.452 155.272 116.198 150.218C114.789 154.714 110.59 158.191 105.86 159.628C101.131 161.066 95.9629 160.65 91.2833 159.213C87.9276 158.181 85.39 155.772 83.8621 152.774C79.7017 157.288 70.935 160.421 61.4511 158.876C53.8419 157.637 49.9295 149.221 50.0977 147.885C47.6618 149.967 44.4292 151.197 41.1693 151.282C37.9119 151.367 34.6535 150.309 32.1665 148.359C30.7667 147.261 30.2283 145.755 29.8931 144.055C33.3163 144.836 37.0719 143.365 39.4666 140.871C39.8295 140.492 40.166 140.091 40.4743 139.676C42.1965 137.354 43.0832 134.506 43.3694 131.683C43.7098 128.354 43.2867 125.016 42.8623 121.706C42.2545 116.94 41.6466 112.174 41.0362 107.408C39.739 97.2538 36.1409 87.5637 38.6123 77.5446C39.512 73.8863 40.8802 70.2747 43.1254 67.1566C45.5786 63.7518 48.9839 61.0556 52.4992 58.6181C61.3455 52.4866 71.2136 47.6912 81.6094 44.4714C86.0007 43.1136 90.5196 42.0279 95.1133 41.7535C101.656 41.3646 108.152 42.6316 114.459 44.1926C122.425 46.1631 130.342 48.6569 137.249 52.8385C144.157 57.0201 151.681 62.2256 154.08 69.6614C158.723 84.0371 163.363 98.4107 168.006 112.786C168.221 113.458 168.44 114.132 168.656 114.803C169.789 118.315 171.232 122.186 174.71 123.814C177.238 124.996 181.117 124.17 183.748 123.118Z" fill="#3B6A82"/>
<path d="M152.539 120.35C151.737 125.262 154.648 130.537 159.231 132.479C155.672 132.791 152.02 131.968 148.937 130.164C147.708 129.443 147.218 127.93 146.528 126.683C145.609 129.165 144.604 131.643 143.103 133.821C141.601 136 139.548 137.88 137.049 138.75C135.607 139.25 133.457 139.031 132.533 137.815C130.13 140.705 126.731 142.578 123.286 144.08C104.301 152.354 81.3076 150.712 63.6926 139.828C61.8454 138.686 60.0314 137.43 58.6499 135.757C56.0755 137.831 53.4984 139.905 50.9237 141.979C51.2921 138.628 51.189 135.225 50.6175 131.901C47.6909 135.023 44.248 137.658 40.4752 139.676C42.1974 137.354 43.0841 134.506 43.3702 131.683C43.7107 128.354 43.2876 125.016 42.8631 121.706C42.2553 116.94 41.6475 112.174 41.0371 107.408C39.7399 97.2538 36.1418 87.5637 38.6132 77.5446C39.5129 73.8863 40.8811 70.2746 43.1264 67.1566C45.5795 63.7518 48.9847 61.0556 52.5001 58.6181C61.3464 52.4866 71.2145 47.6912 81.6103 44.4714C86.0016 43.1136 90.5204 42.0279 95.1142 41.7535C101.657 41.3646 108.153 42.6316 114.46 44.1926C122.426 46.1631 130.343 48.6569 137.25 52.8385C144.158 57.0201 151.682 62.2256 154.081 69.6614C158.724 84.0371 163.364 98.4108 168.007 112.786C167.719 113.598 167.46 114.416 167.232 115.244C166.751 116.981 166.393 118.78 166.56 120.573C166.727 122.364 167.478 124.165 168.886 125.284C163.209 125.502 157.183 123.628 152.539 120.35Z" fill="#2E6175"/>
<path d="M99.6086 161.334C96.3225 161.334 93.3265 160.687 91.0464 159.987C87.9998 159.05 85.417 156.981 83.6771 154.105C79.3622 158.124 71.0736 161.263 61.3211 159.675C54.7422 158.604 50.6647 152.474 49.5785 149.312C47.1622 151.013 44.1735 152.012 41.1921 152.091C37.7623 152.177 34.2892 151.053 31.6679 148.995C29.9757 147.667 29.4195 145.832 29.0989 144.212C29.0457 143.943 29.1323 143.665 29.329 143.473C29.5259 143.282 29.8064 143.204 30.0737 143.265C33.0048 143.934 36.5449 142.745 38.8838 140.308C41.4668 137.617 42.3112 134.087 42.5647 131.6C42.8963 128.349 42.4716 125.024 42.0605 121.809L40.2337 107.511C39.873 104.688 39.3233 101.851 38.792 99.108C37.4222 92.0402 36.006 84.7317 37.8252 77.3494C38.8885 73.0345 40.4077 69.5452 42.4695 66.6823C45.129 62.9896 48.799 60.1968 52.0381 57.9521C60.9869 51.7504 70.8553 46.9548 81.3695 43.6987C86.6569 42.0613 91.0091 41.1861 95.066 40.9453C101.9 40.5389 108.52 41.8878 114.655 43.4055C121.409 45.0763 130.128 47.5798 137.669 52.1453C145.163 56.6822 152.431 61.914 154.851 69.4112L169.426 114.554C170.56 118.066 171.929 121.617 175.053 123.08C177.301 124.131 180.98 123.353 183.447 122.367C183.708 122.262 184.004 122.301 184.23 122.468C184.456 122.635 184.579 122.908 184.555 123.188C183.91 130.755 178.826 137.838 171.604 141.234C165.233 144.23 157.71 143.684 150.8 139.767C149.346 146.835 144.184 153.01 137.375 155.704C135.298 156.526 133.042 156.922 130.744 156.922C125.745 156.922 120.544 155.05 116.54 151.621C114.82 155.631 110.927 158.937 106.096 160.405C103.89 161.074 101.691 161.334 99.6086 161.334ZM83.8626 151.962C83.8993 151.962 83.9361 151.965 83.9732 151.97C84.2356 152.006 84.4641 152.168 84.5844 152.405C86.1041 155.387 88.5679 157.53 91.5222 158.438C95.0318 159.516 100.327 160.464 105.626 158.854C110.41 157.4 114.165 153.997 115.425 149.974C115.509 149.706 115.726 149.501 115.997 149.431C116.27 149.361 116.558 149.438 116.76 149.632C122.174 154.842 130.407 156.719 136.779 154.197C143.434 151.563 148.39 145.345 149.404 138.354C149.443 138.084 149.616 137.851 149.864 137.736C150.112 137.621 150.401 137.638 150.633 137.782C157.341 141.95 164.734 142.673 170.915 139.767C177.214 136.805 181.76 130.839 182.786 124.325C180.049 125.208 176.706 125.641 174.367 124.547C170.652 122.809 169.128 118.903 167.885 115.051L153.31 69.9086C151.052 62.917 144.055 57.9054 136.83 53.531C129.476 49.0787 120.908 46.6214 114.266 44.9782C108.256 43.4913 101.782 42.1703 95.1619 42.5624C91.2389 42.7956 87.0085 43.6484 81.849 45.2464C71.4931 48.4537 61.774 53.1765 52.9611 59.284C49.8352 61.4502 46.3003 64.1358 43.7843 67.6295C41.8458 70.3213 40.4111 73.6274 39.3984 77.7375C37.6642 84.774 38.9847 91.5871 40.3824 98.8002C40.919 101.568 41.4736 104.431 41.8409 107.306L43.6677 121.604C44.09 124.91 44.5267 128.328 44.1764 131.765C43.897 134.506 42.9545 138.407 40.0522 141.431C37.6126 143.973 34.1619 145.314 30.9627 145.039C31.2622 146.042 31.7427 146.995 32.6677 147.722C34.9972 149.551 38.0871 150.558 41.1488 150.472C44.2126 150.391 47.2829 149.224 49.5722 147.27C49.8274 147.052 50.1887 147.014 50.4832 147.173C50.7777 147.332 50.9441 147.656 50.9021 147.987C50.8572 149.231 54.6945 156.955 61.5812 158.076C71.3123 159.662 79.6442 156.154 83.2665 152.224C83.4214 152.056 83.638 151.962 83.8626 151.962Z" fill="#1F404D"/>
<path d="M167.681 151.155C167.503 150.446 166.299 150.22 165.702 150.083C166.143 148.817 163.948 148.486 163.405 148.351C162.207 148.054 161.022 147.849 159.839 147.785C159.153 147.603 158.471 147.487 157.826 147.53C157.831 147.498 157.833 147.473 157.837 147.441C158.589 146.33 159.52 145.048 159.005 143.366C158.578 142.587 157.683 143.439 157.307 143.995C155.803 146.217 154.89 147.284 154.011 149.9C151.861 150.903 149.695 151.877 147.541 152.875L148.916 162.421C151.313 160.303 153.669 157.928 156.002 155.511C156.538 155 157.323 155.437 157.984 155.4C160.146 155.12 162.094 154.45 164.255 154.169C164.916 154.133 166.057 153.789 166.738 153.978C167.127 154.086 167.216 152.685 166.732 151.997L166.742 151.999C167.146 152.111 167.945 152.196 167.681 151.155Z" fill="#F6E2D7"/>
<path d="M149.17 163.154C148.921 163.154 148.672 163.057 148.484 162.864C148.116 162.485 148.124 161.88 148.503 161.511C150.55 159.519 153.099 157.039 155.419 154.642C155.431 154.629 155.444 154.616 155.457 154.604C156.216 153.903 157.136 154.202 157.687 154.381C157.812 154.421 157.994 154.48 158.086 154.494C158.936 154.266 159.792 154.087 160.621 153.915C161.457 153.74 162.321 153.56 163.149 153.333C163.188 153.323 163.226 153.315 163.266 153.309C164.196 153.175 165.151 153.038 166.143 153.026C166.141 153.007 166.139 152.989 166.137 152.971C166.097 152.697 166.012 152.412 165.908 152.366C164.229 152.197 162.686 152.203 160.914 152.382C160.392 152.436 159.919 152.052 159.866 151.527C159.813 151.001 160.196 150.532 160.721 150.479C162.65 150.284 164.33 150.281 166.168 150.469C166.195 150.472 166.222 150.476 166.249 150.481C166.811 150.588 167.788 151.018 168.03 152.698C168.172 153.68 167.879 154.8 166.901 154.941C166.84 154.95 166.778 154.953 166.716 154.95C165.687 154.897 164.67 155.04 163.597 155.194C162.731 155.429 161.857 155.612 161.012 155.788C160.176 155.962 159.312 156.142 158.484 156.369C158.446 156.379 158.407 156.388 158.367 156.393C157.9 156.461 157.472 156.323 157.096 156.201C156.971 156.16 156.796 156.103 156.686 156.083C154.376 158.466 151.862 160.912 149.837 162.883C149.651 163.063 149.411 163.154 149.17 163.154Z" fill="#1F404D"/>
<path d="M147.817 153.704C147.439 153.704 147.082 153.479 146.931 153.108C146.732 152.619 146.967 152.061 147.456 151.861C148.114 151.593 148.763 151.272 149.45 150.931C150.572 150.374 151.731 149.8 152.954 149.465C152.976 149.443 152.998 149.417 153.01 149.398C154.239 146.766 155.407 144.639 157.103 142.824C157.119 142.806 157.136 142.79 157.153 142.774C158.149 141.853 158.971 142.006 159.407 142.454C159.423 142.47 159.439 142.487 159.454 142.505C160.857 144.171 159.669 146.125 158.959 147.293C158.839 147.491 158.724 147.68 158.631 147.848C158.497 148.415 158.502 149.134 158.507 149.83C158.511 150.365 158.515 150.87 158.459 151.333C158.395 151.857 157.92 152.231 157.394 152.167C156.87 152.103 156.496 151.627 156.56 151.102C156.601 150.761 156.598 150.316 156.595 149.844C156.589 149.017 156.582 148.08 156.811 147.243C156.83 147.177 156.855 147.112 156.888 147.051C157.016 146.808 157.166 146.561 157.325 146.299C157.805 145.51 158.107 144.935 158.177 144.489C156.813 146.058 155.802 147.937 154.728 150.241C154.722 150.255 154.714 150.27 154.707 150.284C154.547 150.586 154.098 151.169 153.504 151.298C152.445 151.581 151.403 152.097 150.3 152.644C149.612 152.986 148.901 153.339 148.178 153.633C148.059 153.681 147.937 153.704 147.817 153.704ZM153.153 149.418C153.152 149.418 153.152 149.418 153.151 149.418C153.152 149.419 153.152 149.418 153.153 149.418Z" fill="#1F404D"/>
<path d="M167.165 153.019C166.952 153.019 166.725 152.987 166.487 152.921C165.978 152.78 165.679 152.253 165.819 151.744C165.884 151.51 166.03 151.321 166.219 151.198C165.981 151.127 165.735 151.071 165.612 151.044C165.474 151.013 165.355 150.986 165.265 150.961C163.741 150.535 162.207 150.409 160.706 150.586C160.179 150.648 159.706 150.273 159.644 149.748C159.582 149.224 159.957 148.748 160.482 148.687C162.232 148.48 164.014 148.625 165.779 149.118C165.845 149.137 165.931 149.155 166.03 149.178C166.823 149.355 168.298 149.686 168.61 150.921C168.835 151.813 168.546 152.33 168.263 152.606C167.984 152.879 167.606 153.019 167.165 153.019Z" fill="#1F404D"/>
<path d="M165.685 151.087C165.569 151.087 165.451 151.065 165.337 151.021C164.854 150.832 164.612 150.295 164.784 149.81C164.662 149.706 164.325 149.535 163.405 149.334C163.313 149.314 163.234 149.297 163.173 149.281C161.213 148.794 159.586 148.63 158.052 148.764C157.526 148.812 157.062 148.42 157.016 147.894C156.97 147.368 157.359 146.904 157.886 146.858C159.636 146.705 161.463 146.885 163.635 147.425C163.682 147.437 163.742 147.45 163.814 147.465C164.568 147.63 165.971 147.937 166.512 148.948C166.687 149.275 166.84 149.805 166.576 150.478C166.428 150.856 166.067 151.087 165.685 151.087Z" fill="#1F404D"/>
<path d="M56.1265 148.197C56.4224 147.528 57.6474 147.509 58.2588 147.475C58.0381 146.153 60.2576 146.197 60.8155 146.156C62.0468 146.066 63.2491 146.064 64.4263 146.201C65.1322 146.139 65.8246 146.139 66.453 146.291C66.454 146.259 66.4563 146.233 66.4574 146.201C65.9041 144.978 65.2034 143.558 65.9954 141.987C66.5482 141.292 67.2856 142.282 67.5624 142.894C68.669 145.339 69.3882 146.544 69.8128 149.271C71.7623 150.623 73.7317 151.95 75.6866 153.298L72.717 162.474C70.712 159.981 68.7916 157.241 66.9019 154.465C66.4595 153.87 65.6114 154.169 64.9663 154.021C62.8834 153.379 61.0766 152.389 58.9937 151.747C58.3486 151.599 57.2822 151.067 56.5789 151.138C56.1774 151.179 56.3264 149.783 56.9201 149.187L56.9102 149.188C56.492 149.23 55.6906 149.178 56.1265 148.197Z" fill="#F6E2D7"/>
<path d="M72.5051 163.166C72.2095 163.166 71.9181 163.029 71.7308 162.772C70.066 160.484 68 157.645 66.1296 154.912C66.018 154.913 65.8362 154.94 65.7063 154.958C65.3147 155.015 64.871 155.079 64.4205 154.933C64.3827 154.921 64.3459 154.906 64.3099 154.89C63.5323 154.526 62.7111 154.203 61.9173 153.89C61.1136 153.573 60.2833 153.246 59.4689 152.867C58.4374 152.534 57.4608 152.221 56.4364 152.099C56.3748 152.092 56.3143 152.078 56.2553 152.059C56.0005 151.977 55.4041 151.68 55.3697 150.705C55.358 150.374 55.4135 149.993 55.522 149.657C56.0446 148.043 57.0807 147.784 57.6522 147.774C57.6801 147.773 57.7073 147.774 57.7347 147.776C59.5782 147.901 61.2331 148.188 63.1008 148.706C63.6097 148.847 63.9079 149.374 63.7668 149.884C63.6257 150.393 63.099 150.691 62.5893 150.55C60.8733 150.073 59.353 149.807 57.67 149.689C57.5594 149.717 57.4276 149.983 57.3423 150.246C57.3366 150.264 57.3314 150.282 57.3264 150.3C58.3026 150.479 59.2208 150.776 60.1142 151.066C60.1521 151.078 60.1891 151.092 60.2251 151.109C61.003 151.473 61.8247 151.797 62.619 152.11C63.4097 152.422 64.2264 152.743 65.0281 153.114C65.1016 153.113 65.2983 153.084 65.4324 153.065C66.0047 152.982 66.9623 152.843 67.5915 153.662C67.6025 153.676 67.6129 153.691 67.6231 153.706C69.4997 156.454 71.5947 159.333 73.278 161.646C73.5887 162.073 73.4945 162.671 73.0675 162.982C72.8972 163.106 72.7002 163.166 72.5051 163.166Z" fill="#1F404D"/>
<path d="M75.4352 154.081C75.2628 154.081 75.088 154.035 74.9307 153.937C74.2681 153.525 73.6264 153.056 73.0058 152.604C72.0114 151.878 71.0718 151.192 70.0756 150.734C69.5121 150.507 69.1678 149.857 69.0616 149.531C69.0567 149.516 69.0522 149.501 69.0481 149.486C68.3792 147.034 67.7002 145.01 66.6215 143.234C66.6155 143.685 66.8159 144.303 67.155 145.161C67.2677 145.446 67.3741 145.715 67.4592 145.976C67.4808 146.042 67.4949 146.11 67.5017 146.179C67.5867 147.042 67.4214 147.965 67.2755 148.779C67.1923 149.243 67.1135 149.682 67.0968 150.025C67.0707 150.552 66.6202 150.957 66.0946 150.933C65.5669 150.908 65.1602 150.459 65.186 149.931C65.209 149.465 65.298 148.968 65.3924 148.441C65.5153 147.756 65.642 147.049 65.606 146.468C65.5424 146.286 65.4612 146.08 65.3759 145.865C64.8738 144.594 64.0333 142.467 65.6984 141.062C65.7159 141.048 65.7338 141.034 65.7523 141.02C66.2584 140.651 67.0942 140.641 67.9206 141.717C67.935 141.736 67.9488 141.755 67.9616 141.774C69.3262 143.851 70.1179 146.145 70.8835 148.947C70.8923 148.967 70.9101 148.996 70.9276 149.021C72.0769 149.558 73.1219 150.321 74.1333 151.059C74.7531 151.511 75.3385 151.938 75.9413 152.314C76.3897 152.593 76.5272 153.183 76.2481 153.631C76.0668 153.922 75.7545 154.081 75.4352 154.081ZM70.7397 148.942C70.7397 148.942 70.7405 148.942 70.741 148.942C70.7405 148.942 70.7403 148.942 70.7397 148.942Z" fill="#1F404D"/>
<path d="M56.7182 150.154C56.0976 150.154 55.6027 149.937 55.3072 149.529C55.0758 149.209 54.878 148.651 55.2508 147.81C55.7668 146.645 57.2769 146.569 58.0882 146.528C58.1902 146.523 58.2781 146.519 58.3452 146.512C60.1678 146.325 61.9492 146.483 63.6395 146.982C64.1461 147.132 64.4354 147.664 64.2857 148.17C64.136 148.677 63.6043 148.965 63.0972 148.816C61.6474 148.388 60.1143 148.253 58.5405 148.415C58.4476 148.424 58.3259 148.431 58.1847 148.438C58.0587 148.445 57.8067 148.457 57.5605 148.487C57.7253 148.64 57.8372 148.851 57.8612 149.093C57.9137 149.619 57.5302 150.087 57.0046 150.14C56.9068 150.15 56.811 150.154 56.7182 150.154Z" fill="#1F404D"/>
<path d="M58.2656 148.479C57.8213 148.479 57.423 148.168 57.3296 147.715C57.1838 147.007 57.4243 146.51 57.6515 146.218C58.3561 145.313 59.7911 145.248 60.5622 145.213C60.635 145.209 60.697 145.207 60.7448 145.203C62.9767 145.038 64.8074 145.17 66.5072 145.616C67.018 145.751 67.3234 146.274 67.1891 146.785C67.0545 147.296 66.5312 147.601 66.0207 147.467C64.5314 147.075 62.8997 146.962 60.8859 147.111C60.8236 147.116 60.7429 147.119 60.6485 147.124C59.7084 147.166 59.3471 147.278 59.2088 147.36C59.2962 147.866 58.9662 148.354 58.4594 148.459C58.3944 148.472 58.3295 148.479 58.2656 148.479Z" fill="#1F404D"/>
<path d="M158.493 162.066C157.702 162.705 155.983 164.234 153.65 166.033C153.316 166.29 152.97 166.552 152.61 166.816C149.962 168.787 146.68 170.961 143.138 172.601C142.745 172.783 142.347 172.96 141.947 173.127C139.696 174.077 137.363 174.783 135.036 175.067C134.61 175.121 134.181 175.16 133.755 175.183C133.442 175.201 133.131 175.209 132.821 175.209C131.176 174.408 128.887 172.45 126.513 170.168C126.2 169.868 125.886 169.56 125.571 169.252C123.674 167.381 121.767 165.379 120.135 163.668C119.822 163.339 119.517 163.018 119.224 162.715C117.964 161.396 116.927 160.334 116.275 159.769C111.802 159.98 107.891 160.072 103.415 159.903C102.396 161.463 101.285 162.867 100.104 164.158C99.7962 164.497 99.4832 164.825 99.1676 165.148C97.0989 167.25 94.856 169.049 92.5667 170.746C92.1791 171.033 91.7891 171.318 91.3991 171.6C89.8285 172.74 88.2474 173.846 86.6922 174.98C84.634 174.411 82.7347 173.833 80.9614 173.22C80.5534 173.079 80.1503 172.935 79.7551 172.789C76.5215 171.595 73.7188 170.243 71.1423 168.521C70.7881 168.282 70.439 168.038 70.0926 167.787C68.3321 166.511 66.6714 165.038 65.0343 163.301C64.7468 162.992 64.4567 162.677 64.1666 162.351C63.2505 161.317 62.3393 160.193 61.418 158.968C66.697 154.077 69.3252 151.957 74.8763 147.032C75.4358 147.589 76.0595 148.243 76.7242 148.954C77.0117 149.265 77.3093 149.586 77.6096 149.914C78.472 150.851 79.3829 151.855 80.3069 152.855C80.6045 153.179 80.9021 153.5 81.2 153.82C82.0828 154.77 82.9658 155.699 83.8125 156.546C84.1564 156.89 84.4926 157.221 84.821 157.531C85.2316 157.924 85.6294 158.288 86.0119 158.619C86.1146 158.486 87.3824 156.746 89.1404 154.544V154.541C89.492 154.1 89.8616 153.641 90.249 153.173C90.7418 152.573 91.2575 151.957 91.7863 151.346C92.0865 151 92.3894 150.656 92.6922 150.317C93.3517 149.583 94.019 148.872 94.6735 148.218C94.9917 147.899 95.3047 147.596 95.6128 147.312C96.6497 146.354 97.6274 145.59 98.459 145.169C102.683 143.038 106.72 142.315 111.235 140.896C115.551 142.487 118.285 143.167 121.441 145.215C122.375 145.823 123.915 147.33 125.642 149.17C125.925 149.47 126.212 149.78 126.5 150.099C127.839 151.554 129.246 153.145 130.544 154.631C130.832 154.962 131.114 155.285 131.389 155.601C131.93 156.225 132.444 156.817 132.913 157.359C133.231 157.726 133.532 158.067 133.806 158.383C133.95 158.55 134.089 158.706 134.22 158.855C134.286 158.929 134.351 159.004 134.412 159.073C134.813 158.614 135.221 158.157 135.636 157.702C136.329 156.943 137.043 156.188 137.769 155.436C138.095 155.098 138.421 154.762 138.755 154.425C140.228 152.921 141.742 151.423 143.248 149.911C143.559 149.6 143.867 149.29 144.177 148.977C145.255 147.883 146.323 146.782 147.362 145.669C153.739 149.955 156.193 154.618 158.493 162.066Z" fill="#F27272"/>
<path d="M84.823 157.53C84.7254 157.784 84.6331 158.041 84.5457 158.297C84.2094 159.28 84.0428 160.271 83.9374 161.303C83.7321 163.338 83.3804 165.345 82.8647 167.324C82.3438 169.325 81.6867 171.284 80.963 173.219C80.555 173.078 80.152 172.934 79.7568 172.788C79.8518 172.534 79.9441 172.279 80.0367 172.025C80.7246 170.124 81.3431 168.194 81.8179 166.228C82.0566 165.24 82.2593 164.239 82.4158 163.233C82.5723 162.237 82.6443 161.234 82.7776 160.235C82.9469 158.957 83.3653 157.746 83.8145 156.545C84.1583 156.888 84.4945 157.22 84.823 157.53Z" fill="#F9C5C5"/>
<path d="M77.6128 149.913C77.3253 150.311 77.0303 150.701 76.7301 151.089C75.6548 152.472 74.5023 153.794 73.3373 155.1C72.2031 156.37 71.0686 157.643 69.8958 158.878C68.3893 160.461 66.7929 161.988 65.0376 163.299C64.7501 162.991 64.46 162.676 64.1699 162.35C64.7678 161.911 65.348 161.441 65.9075 160.954C68.4123 158.77 70.6092 156.244 72.8086 153.765C74.1815 152.218 75.5265 150.637 76.7275 148.953C77.0149 149.264 77.3126 149.585 77.6128 149.913Z" fill="#F9C5C5"/>
<path d="M81.2021 153.819C81.0302 154.074 80.8505 154.325 80.6658 154.574C79.6417 155.942 78.546 157.238 77.5939 158.66C76.6186 160.12 75.6664 161.59 74.7041 163.059C73.5107 164.873 72.2992 166.68 71.1444 168.52C70.7902 168.281 70.4411 168.037 70.0947 167.786C70.4156 167.278 70.7388 166.772 71.0649 166.269C72.9665 163.336 74.8554 160.387 76.8317 157.502C77.7992 156.088 78.9413 154.813 79.9294 153.414C80.0603 153.229 80.1861 153.044 80.3092 152.854C80.6069 153.178 80.9045 153.499 81.2021 153.819Z" fill="#F9C5C5"/>
<path d="M153.655 166.032C153.321 166.289 152.975 166.55 152.616 166.815C150.398 162.49 148.196 158.156 145.756 153.957C144.957 152.584 144.118 151.239 143.253 149.91C143.564 149.599 143.872 149.289 144.182 148.976C146.808 153.036 149.118 157.273 151.345 161.567C152.118 163.055 152.888 164.543 153.655 166.032Z" fill="#F9C5C5"/>
<path d="M131.393 155.599C128.685 157.893 125.754 159.941 122.826 161.948C121.949 162.551 121.05 163.116 120.139 163.665C119.826 163.337 119.521 163.016 119.228 162.713C120.401 162.007 121.556 161.276 122.682 160.493C124.137 159.48 125.59 158.458 127.017 157.408C128.223 156.523 129.409 155.602 130.548 154.629C130.836 154.96 131.119 155.283 131.393 155.599Z" fill="#F9C5C5"/>
<path d="M133.809 158.381C133.563 158.815 133.309 159.244 133.052 159.67C131.425 162.367 129.726 165.023 128.058 167.695C127.545 168.519 127.029 169.342 126.516 170.166C126.203 169.866 125.889 169.558 125.574 169.25L129.801 162.48C130.858 160.786 131.944 159.1 132.916 157.357C133.234 157.724 133.535 158.066 133.809 158.381Z" fill="#F9C5C5"/>
<path d="M134.986 162.824C134.876 164.844 134.963 166.878 134.981 168.901C135.001 170.957 135.019 173.01 135.04 175.066C134.614 175.12 134.185 175.158 133.759 175.181C133.754 174.827 133.752 174.473 133.749 174.119C133.728 172.125 133.71 170.13 133.69 168.136C133.672 166.122 133.57 164.082 133.757 162.072C133.849 161.092 134.029 160.124 134.18 159.151C134.196 159.051 134.211 158.954 134.224 158.854C134.291 158.928 134.355 159.003 134.416 159.072C134.817 158.612 135.225 158.156 135.641 157.701C135.463 159.416 135.081 161.102 134.986 162.824Z" fill="#F9C5C5"/>
<path d="M143.141 172.599C142.748 172.781 142.351 172.958 141.95 173.125C140.824 168.418 140.149 163.611 138.873 158.938C138.552 157.76 138.19 156.585 137.772 155.435C138.098 155.096 138.424 154.76 138.758 154.424C140.285 158.432 141.113 162.672 141.94 166.879C142.317 168.79 142.694 170.705 143.141 172.599Z" fill="#F9C5C5"/>
<path d="M126.503 150.097C125.415 151.208 124.299 152.294 123.085 153.266C121.979 154.154 120.801 154.96 119.517 155.571C118.119 156.238 116.628 156.679 115.098 156.913C111.887 157.401 108.659 157.07 105.471 156.564C104.658 156.436 103.842 156.31 103.031 156.156C102.251 156.007 101.673 155.617 101.07 155.119C99.9949 154.231 98.9452 153.307 97.9596 152.314C96.72 151.067 95.5934 149.707 94.6772 148.216C94.9955 147.897 95.3085 147.594 95.6166 147.31C96.6817 149.116 98.106 150.71 99.6279 152.15C100.118 152.612 100.618 153.058 101.129 153.497C101.617 153.918 102.112 154.421 102.692 154.719C103.003 154.878 103.372 154.919 103.714 154.978C104.083 155.042 104.453 155.104 104.825 155.165C105.608 155.296 106.39 155.422 107.176 155.53C110.137 155.94 113.207 156.105 116.14 155.407C118.861 154.76 121.183 153.292 123.254 151.447C124.076 150.718 124.869 149.951 125.646 149.168C125.928 149.468 126.216 149.778 126.503 150.097Z" fill="#F9C5C5"/>
<path d="M92.5711 170.744C92.1835 171.032 91.7935 171.317 91.4035 171.599C90.6181 165.919 89.8663 160.232 89.145 154.542V154.54C89.4967 154.098 89.8663 153.639 90.2537 153.172C90.2743 153.328 90.292 153.488 90.3126 153.644C91.0339 159.349 91.7857 165.049 92.5711 170.744Z" fill="#F9C5C5"/>
<path d="M100.106 164.156C99.7983 164.495 99.4853 164.823 99.1696 165.147C98.41 163.728 97.7709 162.257 97.1472 160.768C96.4697 159.149 95.6613 157.63 94.7141 156.154C93.703 154.578 92.6199 153.015 91.7886 151.345C92.0888 150.998 92.3917 150.654 92.6945 150.315C92.9692 150.906 93.2796 151.48 93.6081 152.038C94.4266 153.429 95.3558 154.748 96.2078 156.116C97.1753 157.668 97.9143 159.3 98.6176 160.987C99.0694 162.067 99.5648 163.124 100.106 164.156Z" fill="#F9C5C5"/>
<path d="M132.822 176.106C132.686 176.106 132.552 176.075 132.43 176.015C129.15 174.422 123.648 168.65 119.63 164.436C118.113 162.844 116.782 161.448 115.952 160.682C112.356 160.847 108.413 160.971 103.887 160.818C99.9824 166.596 94.8117 170.282 89.8071 173.849C88.9569 174.455 88.0775 175.082 87.2245 175.705C87.0028 175.867 86.719 175.919 86.455 175.846C75.1676 172.721 68.0855 169.336 60.7021 159.507C60.4256 159.14 60.472 158.622 60.8096 158.309C64.1992 155.167 66.5039 153.161 69.1725 150.839C70.7045 149.506 72.2885 148.128 74.2825 146.359C74.637 146.044 75.1757 146.059 75.5122 146.394C76.6673 147.543 78.0725 149.08 79.5602 150.708C81.6288 152.97 83.9421 155.501 85.8806 157.294C89.1262 152.959 94.611 146.106 98.0562 144.367C101.117 142.822 104.033 142.013 107.12 141.155C108.365 140.809 109.654 140.452 110.966 140.038C111.156 139.979 111.36 139.984 111.546 140.052C112.516 140.41 113.394 140.717 114.242 141.013C117.123 142.021 119.398 142.817 121.931 144.46C124.015 145.811 128.406 150.788 133.106 156.207C133.581 156.755 134.022 157.263 134.416 157.715C136.529 155.357 138.866 153.022 141.134 150.757C142.991 148.902 144.912 146.984 146.708 145.055C147.009 144.732 147.5 144.676 147.867 144.922C154.521 149.394 157.037 154.304 159.353 161.8C159.461 162.15 159.346 162.53 159.061 162.762C158.843 162.939 158.553 163.185 158.196 163.487C154.513 166.608 143.306 176.106 132.822 176.106ZM116.278 158.869C116.494 158.869 116.702 158.947 116.866 159.089C117.723 159.832 119.138 161.316 120.931 163.196C124.559 167.002 130.005 172.715 133.034 174.308C142.802 174.178 153.502 165.111 157.035 162.116C157.187 161.987 157.329 161.867 157.458 161.759C155.346 155.074 153.108 150.807 147.492 146.845C145.831 148.605 144.091 150.343 142.403 152.029C139.911 154.518 137.334 157.092 135.09 159.665C134.92 159.859 134.675 159.971 134.416 159.972C134.415 159.972 134.414 159.972 134.413 159.972C134.156 159.972 133.911 159.862 133.74 159.669C133.202 159.061 132.521 158.274 131.749 157.384C128.475 153.61 122.997 147.293 120.953 145.967C118.602 144.442 116.524 143.715 113.649 142.71C112.877 142.44 112.082 142.161 111.212 141.844C109.973 142.227 108.768 142.562 107.6 142.887C104.601 143.72 101.768 144.506 98.8657 145.971C96.5054 147.163 92.022 152.022 86.8726 158.969C86.7923 159.078 86.7412 159.147 86.7229 159.17C86.5719 159.365 86.347 159.49 86.1015 159.514C85.855 159.538 85.6114 159.46 85.4246 159.299C83.2793 157.44 80.599 154.507 78.234 151.92C77.01 150.581 75.8422 149.304 74.8371 148.268C73.1303 149.778 71.7201 151.005 70.3518 152.195C67.8549 154.368 65.678 156.262 62.6296 159.074C69.4686 167.928 75.8928 171.025 86.5171 173.999C87.266 173.455 88.0261 172.913 88.7644 172.387C93.7546 168.829 98.915 165.151 102.665 159.412C102.838 159.148 103.137 158.997 103.451 159.006C108.279 159.189 112.449 159.049 116.236 158.871C116.25 158.87 116.264 158.869 116.278 158.869Z" fill="#1F404D"/>
<path d="M122.625 145.674C122.399 144.299 121.559 144.06 120.36 143.502C119.767 148.682 119.267 153.634 118.902 159.033C112.881 158.663 106.828 158.229 100.808 158.511C100.364 153.216 100.249 148.002 99.4709 142.94C98.7136 143.446 97.2846 144.361 97.0422 145.207C96.8813 145.768 96.9507 161.502 96.3823 164.328C95.236 170.026 90.1438 202.691 90.1362 208.609H129.838C128.932 197.267 123.5 169.064 123.046 163.834C122.685 159.668 122.85 147.034 122.625 145.674Z" fill="#C5FFF9"/>
<path d="M129.838 209.508H90.1362C89.8978 209.508 89.6692 209.414 89.5005 209.245C89.332 209.076 89.2375 208.848 89.2378 208.609C89.2454 202.571 94.4005 169.625 95.5016 164.152C95.855 162.395 95.9557 155.025 96.0225 150.148C96.0812 145.864 96.1002 145.234 96.1785 144.961C96.4751 143.926 97.663 143.065 98.8547 142.272L98.9718 142.194C99.2269 142.024 99.5514 141.995 99.8326 142.119C100.114 142.243 100.312 142.501 100.359 142.805C100.89 146.26 101.12 149.849 101.342 153.319C101.431 154.714 101.523 156.149 101.634 157.579C106.942 157.39 112.313 157.724 117.517 158.048L118.068 158.082C118.385 153.618 118.821 149.044 119.468 143.4C119.501 143.113 119.67 142.86 119.922 142.719C120.173 142.578 120.478 142.566 120.74 142.688C120.856 142.743 120.969 142.794 121.078 142.843C122.136 143.322 123.229 143.817 123.512 145.529C123.618 146.174 123.642 148.471 123.673 152.475C123.705 156.49 123.745 161.487 123.942 163.757C124.117 165.786 125.088 171.527 126.213 178.174C127.982 188.627 130.183 201.636 130.734 208.539C130.753 208.789 130.668 209.036 130.498 209.22C130.328 209.403 130.088 209.508 129.838 209.508ZM91.0623 207.712H128.858C128.199 200.682 126.124 188.417 124.441 178.473C123.264 171.512 122.333 166.014 122.151 163.912C121.948 161.571 121.91 156.746 121.876 152.489C121.852 149.475 121.828 146.359 121.739 145.82C121.657 145.326 121.508 145.097 121.11 144.86C120.503 150.271 120.095 154.707 119.798 159.094C119.764 159.587 119.341 159.963 118.846 159.93L117.405 159.84C111.966 159.501 106.341 159.151 100.851 159.409C100.362 159.427 99.9536 159.068 99.9135 158.587C99.7682 156.857 99.657 155.116 99.5493 153.433C99.3524 150.355 99.1648 147.423 98.7876 144.521C98.3867 144.834 98.0168 145.171 97.9192 145.416C97.8785 145.853 97.8483 148.047 97.8193 150.172C97.7476 155.411 97.6492 162.586 97.2632 164.506C96.2145 169.717 91.47 199.924 91.0623 207.712Z" fill="#1F404D"/>
<path d="M118.347 165.331C118.08 165.063 117.468 165.253 116.919 165.271C116.171 165.295 115.423 165.298 114.674 165.291C113.175 165.278 111.677 165.221 110.179 165.207C107.49 165.182 104.797 165.14 102.128 164.786C101.832 164.747 101.703 165.01 101.753 165.24C101.746 165.265 101.741 165.291 101.739 165.32C101.576 167.672 101.084 170.222 101.651 172.547C102.097 174.374 103.076 176.092 104.699 177.105C106.548 178.259 109.167 178.224 111.253 177.963C112.439 177.815 113.63 177.551 114.68 176.981C117.395 175.505 117.797 172.284 118.071 169.501C118.144 168.751 118.218 168.001 118.292 167.251C118.334 166.828 118.67 165.656 118.347 165.331ZM117.293 169.096C117.243 169.61 117.202 170.125 117.148 170.639C117.023 171.838 116.826 173.05 116.311 174.141C115.678 175.483 114.603 176.427 113.162 176.797C112.096 177.071 110.977 177.324 109.874 177.354C108.458 177.394 106.803 177.296 105.49 176.727C103.99 176.077 102.985 174.329 102.528 172.833C102.177 171.683 102.152 170.532 102.231 169.341C102.315 168.094 102.404 166.848 102.491 165.603C105.542 165.972 108.618 166.037 111.687 166.044C113.208 166.047 114.729 166.036 116.249 166.039C116.575 166.04 117.052 165.952 117.363 166.044C117.633 166.124 117.53 165.992 117.624 166.23C117.703 166.434 117.575 166.785 117.552 166.998C117.514 167.366 117.458 167.74 117.406 168.113C117.361 168.44 117.325 168.768 117.293 169.096Z" fill="#5AE0CD"/>
<path d="M119.075 128.566C119.845 137.889 116.555 151.926 111.104 152.376C105.652 152.827 100.104 139.52 99.3337 130.197C98.5636 120.873 102.864 119.065 108.315 118.615C113.767 118.165 118.305 119.243 119.075 128.566Z" fill="#F9DDD2"/>
<path d="M110.839 153.305C108.05 153.305 105.152 150.501 102.64 145.354C100.432 140.83 98.815 135.051 98.4203 130.272C98.0405 125.676 98.8324 122.457 100.841 120.432C102.872 118.385 105.862 117.897 108.241 117.701C113.573 117.26 119.14 118.197 119.991 128.49C120.786 138.118 117.436 152.774 111.18 153.291C111.067 153.3 110.953 153.305 110.839 153.305ZM110.294 119.439C109.668 119.439 109.03 119.476 108.391 119.529C105.325 119.782 103.398 120.459 102.143 121.724C100.536 123.345 99.9158 126.092 100.249 130.121C100.626 134.688 102.174 140.216 104.288 144.549C106.482 149.045 108.997 151.628 111.029 151.462C115.557 151.088 118.941 138.078 118.162 128.641C117.517 120.831 114.114 119.439 110.294 119.439Z" fill="#1F404D"/>
<path d="M145.032 88.2707C146.852 85.654 150.044 83.6151 153.611 82.7898C157.178 81.9644 161.067 82.3651 164.064 83.8669C168.567 86.1238 170.694 90.5423 170.958 94.8877C171.277 100.137 169.183 105.588 165.154 109.994C161.126 114.401 155.195 117.728 148.717 119.217C144.071 119.018 140.504 116.589 138.767 113.23C137.029 109.871 137.117 105.993 137.9 102.285C138.904 97.5323 142.045 92.5642 145.032 88.2707Z" fill="#F6E2D7"/>
<path d="M148.717 120.134C148.704 120.134 148.691 120.134 148.677 120.133C143.957 119.931 139.947 117.508 137.952 113.651C136.333 110.521 136.022 106.741 137.003 102.095C138.042 97.174 141.264 92.0801 144.279 87.7467C146.22 84.9561 149.632 82.769 153.404 81.8959C157.163 81.0262 161.301 81.4564 164.475 83.0466C168.791 85.2096 171.557 89.6155 171.874 94.8322C172.205 100.298 170.003 106.05 165.831 110.613C161.704 115.128 155.541 118.59 148.922 120.111C148.855 120.126 148.786 120.134 148.717 120.134ZM145.785 88.7943C142.875 92.9772 139.77 97.8736 138.798 102.475C137.909 106.689 138.165 110.069 139.582 112.808C141.254 116.04 144.631 118.085 148.633 118.294C154.851 116.84 160.62 113.594 164.477 109.375C168.316 105.176 170.344 99.9161 170.042 94.9431C169.762 90.3193 167.433 86.5812 163.653 84.6868C160.85 83.2819 157.174 82.907 153.818 83.6833C150.477 84.4565 147.474 86.367 145.785 88.7943Z" fill="#1F404D"/>
<path d="M135.465 111.127C135.09 111.088 134.725 110.977 134.404 110.791C133.334 110.171 133.158 108.941 134.011 108.045C140.378 101.36 149.362 96.3767 159.309 94.0144C160.642 93.6977 161.974 94.2864 162.282 95.3296C162.591 96.3725 161.76 97.4749 160.426 97.7919C151.564 99.8968 143.559 104.336 137.887 110.293C137.289 110.92 136.346 111.218 135.465 111.127Z" fill="#1F404D"/>
<path d="M55.6077 101.073C53.1284 99.1086 49.4949 98.0743 45.8402 98.2924C42.1856 98.5104 38.5657 99.9773 36.1097 102.236C32.419 105.629 31.614 110.401 32.5768 114.582C33.74 119.634 37.2752 124.2 42.3742 127.237C47.4732 130.275 54.0967 131.761 60.7309 131.355C65.1332 129.867 67.8772 126.573 68.605 122.912C69.3328 119.251 68.1626 115.61 66.3736 112.324C64.0804 108.113 59.6758 104.296 55.6077 101.073Z" fill="#F6E2D7"/>
<path d="M58.6153 132.337C52.5602 132.337 46.5711 130.806 41.9043 128.025C36.6206 124.877 32.8947 120.053 31.6825 114.788C30.5248 109.761 31.9476 104.816 35.4882 101.56C38.0877 99.1698 41.9369 97.6057 45.7851 97.3764C49.649 97.1468 53.533 98.2591 56.1768 100.354C60.2835 103.607 64.8021 107.521 67.1788 111.885C69.4233 116.007 70.1839 119.672 69.5044 123.091C68.668 127.298 65.4981 130.712 61.0243 132.225C60.9477 132.25 60.8676 132.266 60.7867 132.271C60.0636 132.315 59.3384 132.337 58.6153 132.337ZM46.8012 99.1807C46.4994 99.1807 46.1971 99.1899 45.8942 99.2079C42.4542 99.4129 39.0283 100.797 36.7299 102.911C33.6356 105.756 32.4474 109.935 33.4702 114.376C34.5708 119.156 37.9873 123.556 42.8432 126.449C47.7273 129.359 54.1747 130.814 60.5512 130.447C64.3349 129.129 67.0051 126.253 67.7047 122.733C68.2969 119.753 67.5978 116.492 65.5675 112.763C63.3484 108.688 58.9993 104.93 55.0373 101.791C52.9405 100.13 49.9148 99.1807 46.8012 99.1807Z" fill="#1F404D"/>
<path d="M71.1878 119.998C71.5376 119.856 71.8564 119.65 72.1123 119.384C72.9659 118.499 72.7905 117.287 71.7205 116.678C63.7397 112.141 53.723 109.945 43.5148 110.495C42.1473 110.569 41.0335 111.498 41.0298 112.57C41.0251 113.643 42.1317 114.452 43.4999 114.378C52.5948 113.888 61.5193 115.845 68.6301 119.887C69.3798 120.313 70.3685 120.331 71.1878 119.998Z" fill="#1F404D"/>
<path d="M155.441 66.0215C156.045 70.1065 157.184 79.925 156.647 90.8402C156 104.069 152.893 118.906 143.403 127.101C124.018 143.836 97.6071 149.025 71.5185 137.752C61.0308 133.222 53.5444 120.547 48.579 108.046C44.8108 98.564 42.4929 89.1819 41.4111 83.522C39.0362 71.1121 40.1908 59.3974 49.4369 50.4653C53.4829 46.5566 58.3672 43.6811 63.4404 41.3853C82.3794 32.8114 104.063 27.2652 124.126 32.5724C131 34.3917 141.386 36.753 147.242 40.9899C153.21 45.3068 155.323 65.2191 155.441 66.0215Z" fill="#FCE9E0"/>
<path d="M155.44 66.0215C156.044 70.1065 157.183 79.925 156.647 90.8402C146.506 89.6828 136.902 85.5755 127.771 81.1328C126.209 80.3748 123.708 79.9464 123.687 78.2587C119.069 81.7623 113.306 83.6595 107.499 84.4275C101.692 85.1978 95.8022 84.8968 89.9819 84.3857C87.5222 84.1692 85.049 83.9157 82.5852 84.1405C82.4595 76.4606 75.8689 69.7312 76.6966 62.0801C71.2208 69.9618 67.6207 78.6445 65.8667 87.9381C61.9846 90.9182 58.1278 93.9804 54.8926 97.6038C52.1444 100.683 49.8439 104.205 48.579 108.046C44.8109 98.564 42.4929 89.1819 41.4111 83.522C39.0362 71.1121 40.1908 59.3974 49.4369 50.4653C53.4829 46.5566 58.3672 43.6811 63.4404 41.3853C82.3794 32.8114 104.063 27.2652 124.126 32.5724C131 34.3917 141.386 36.753 147.242 40.9899C153.209 45.3068 155.322 65.2191 155.44 66.0215Z" fill="#F9DDD2"/>
<path d="M99.5265 144.687C90.0439 144.687 80.5408 142.651 71.1553 138.595C49.8107 129.373 41.4 88.3429 40.5113 83.6949C37.7005 68.9963 40.4124 57.9113 48.8014 49.8058C52.4707 46.2607 57.1359 43.2332 63.0645 40.5495C82.9665 31.5402 96.8172 27.477 117.29 30.2692C126.33 31.5021 142.628 35.3229 147.877 40.3267C152.312 44.5539 155.306 53.472 156.309 65.4384C156.329 65.669 156.341 65.8229 156.35 65.8886C157.474 73.4799 162.158 112.122 144.004 127.795C134.146 136.305 122.43 141.852 110.122 143.836C106.598 144.404 103.063 144.687 99.5265 144.687ZM105.215 31.2394C91.0644 31.2394 79.3127 35.2084 63.8212 42.2208C58.0878 44.8161 53.5916 47.7289 50.0765 51.1253C42.1677 58.7666 39.6283 69.3075 42.3133 83.3501C43.1835 87.9005 51.4053 128.063 71.8831 136.911C96.4024 147.505 122.915 143.578 142.805 126.406C149.986 120.206 154.259 109.393 155.506 94.266C156.565 81.4218 155.03 69.5036 154.534 66.1558V66.156C154.521 66.0658 154.509 65.9262 154.481 65.5915C153.515 54.073 150.72 45.5721 146.611 41.6547C141.937 37.1995 126.506 33.3779 117.042 32.0869C112.857 31.5164 108.952 31.2394 105.215 31.2394Z" fill="#1F404D"/>
<path d="M83.479 123.056C84.0583 117.333 79.6689 112.201 73.6751 111.595C67.6813 110.988 62.3528 115.136 61.7735 120.859C61.1942 126.582 65.5835 131.713 71.5774 132.32C77.5712 132.927 82.8997 128.779 83.479 123.056Z" fill="#F9B9B9"/>
<path d="M148.177 112.972C148.756 107.249 144.367 102.117 138.373 101.511C132.379 100.904 127.051 105.052 126.471 110.775C125.892 116.498 130.281 121.629 136.275 122.236C142.269 122.843 147.597 118.695 148.177 112.972Z" fill="#F9B9B9"/>
<path d="M106.004 102.348C106.127 103.388 104.385 104.452 102.114 104.725C99.8422 104.997 97.9014 104.375 97.7786 103.335C97.656 102.295 99.3977 101.231 101.669 100.959C103.941 100.686 105.881 101.308 106.004 102.348Z" fill="#EFA29A"/>
<path d="M161.659 67.7699C162.384 78.0319 160.64 86.3852 158.278 88.7994C156.224 88.5451 154.277 87.8191 152.354 87.1002C150.296 86.328 148.238 85.5585 146.18 84.7887C143.971 83.9631 141.749 83.1288 139.739 81.9349C135.874 79.6388 129.281 76.335 127.908 72.1686C124.636 62.247 120.964 52.1525 113.77 44.4029C118.416 54.386 121.787 65.0708 122.574 76.0186C121.308 76.1255 120.833 76.1135 119.566 76.2205C117.08 65.3254 112.78 53.9133 108.808 43.4468C112.655 54.4186 115.555 66.0217 116.292 77.6119C113.858 79.7951 108.182 80.9825 104.902 81.4413C100.083 82.1165 97.1328 81.4233 92.4683 80.1498C91.1283 68.2781 90.171 56.0946 88.8309 44.2231C85.447 56.4011 85.3427 69.681 87.6299 82.0283C82.1404 84.9079 75.4524 85.5095 69.3055 84.628C67.1344 73.5396 68.3255 61.9288 72.4614 51.2943C65.7017 60.4601 62.3463 74.5085 63.0483 85.6475C55.2089 95.0723 50.101 98.3662 41.6275 103.871C36.8496 98.6312 30.6894 74.647 38.7599 52.9353C44.8071 36.6561 58.8568 21.6554 87.4893 16.7924C143.835 7.22198 159.918 43.036 161.659 67.7699Z" fill="#3B6A82"/>
<path d="M161.149 67.8425C161.874 78.1045 160.13 86.4577 157.768 88.872C155.714 88.6179 153.768 87.8917 151.844 87.1728C149.786 86.4006 147.728 85.6311 145.67 84.8613C143.461 84.0357 141.239 83.2014 139.229 82.0075C135.364 79.7114 128.771 76.4076 127.398 72.2414C124.127 62.3199 120.454 52.2253 113.26 44.4757C117.906 54.4586 121.277 65.1437 122.065 76.0914C120.798 76.1984 120.323 76.1864 119.057 76.2933C116.57 65.3983 112.27 53.9859 108.298 43.5197C112.145 54.4914 115.045 66.0945 115.782 77.6848C113.348 79.8679 107.672 81.0553 104.393 81.5142C99.5733 82.1893 96.623 81.4962 91.9586 80.2227C90.6185 68.3509 89.6612 56.1675 88.3212 44.296C84.9373 56.474 84.8329 69.7538 87.1202 82.1011C81.6306 84.9808 74.9427 85.5823 68.7958 84.7009C66.6246 73.6125 67.8157 62.0016 71.9516 51.3671C65.192 60.533 61.8365 74.5813 62.5385 85.7203C54.6992 95.1452 49.5913 98.4391 41.1177 103.944C36.3398 98.7041 30.1796 74.7198 38.2501 53.0079C38.2037 53.3439 38.157 53.6773 38.1103 54.0107C37.3358 59.663 36.8696 65.4084 37.7091 71.036C38.655 77.3665 41.2703 83.4412 45.2461 88.5371C46.2259 87.7349 47.3092 87.0684 48.4839 86.5673C46.1208 74.747 50.0005 62.1996 57.0529 52.1361C51.8923 61.4945 52.2557 72.7626 54.6402 83.0214C53.6291 74.0377 56.0509 64.8165 60.6752 56.8809C65.2994 48.9453 72.0466 42.2498 79.6791 36.8581C77.9204 42.53 76.183 48.2378 75.3676 54.0931C74.5524 59.951 74.6881 66.0063 76.6127 71.584C77.7164 71.4539 78.2407 71.7335 79.3415 71.6039C79.5035 71.5833 79.6762 71.5608 79.8059 71.4669C80.0307 71.2997 80.0537 70.9906 80.0581 70.7201C80.1411 65.4317 80.5707 60.1453 81.3442 54.9002C82.4137 47.6522 84.1375 40.2714 82.6704 33.1189C92.5544 42.5894 98.0763 56.1205 97.5608 69.6075C99.6693 58.6216 98.6661 47.6428 94.6248 37.241C100.936 46.1288 105.115 56.415 106.76 67.0944C107.919 53.419 104.88 39.2507 98.7748 26.9287C101.87 28.2727 104.515 30.3812 107.122 32.4668C113.02 37.1826 118.998 41.9853 123.273 48.1066C126.622 52.9065 128.812 58.3579 130.907 63.7841C131.322 54.5381 130.169 45.6238 125.485 37.5961C134.631 45.3034 140.975 56.012 143.22 67.5407C146.048 70.3155 149.58 72.382 153.484 73.4304C152.761 63.0646 152.145 52.7455 147.932 43.2163C152.95 50.0706 156.357 67.5697 156.664 67.8261C156.875 68.0037 159.925 68.0731 161.149 67.8425Z" fill="#2E6175"/>
<path d="M41.1198 104.861C40.8691 104.861 40.621 104.759 40.4416 104.562C37.696 101.55 35.1179 93.8223 34.027 85.331C33.0483 77.7134 32.7546 66.0978 36.9137 54.0192C40.1567 44.6011 45.5464 36.678 52.9334 30.4703C61.5942 23.192 72.998 18.3103 86.8277 15.961C104.641 12.9348 119.785 14.2143 131.839 19.7643C141.89 24.392 149.679 31.8829 154.991 42.0293C161.015 53.5353 162.108 65.2596 162.223 71.2242C162.387 79.675 160.86 87.0253 158.425 89.5144C158.225 89.7194 157.939 89.8186 157.657 89.7833C155.486 89.5141 153.472 88.7608 151.525 88.0319L145.35 85.7205C143.137 84.8922 140.85 84.0358 138.762 82.796C138.276 82.5069 137.745 82.202 137.188 81.8811C133.242 79.6103 127.838 76.5009 126.529 72.5293C123.946 64.6938 121.221 57.1052 116.88 50.5735C120.35 59.384 122.398 67.9204 122.981 76.0264C123.017 76.5275 122.644 76.9642 122.143 77.0064C121.496 77.0609 121.047 77.0855 120.612 77.1092C120.172 77.1332 119.756 77.1562 119.135 77.2083C118.681 77.2469 118.266 76.9441 118.164 76.4983C117.369 73.0134 116.372 69.4373 115.267 65.8737C115.98 69.8938 116.456 73.8018 116.699 77.6288C116.717 77.9093 116.605 78.1824 116.396 78.3702C113.544 80.9261 107.142 82.0564 104.522 82.4237C99.5003 83.1275 96.3856 82.3825 91.7196 81.1082C91.3573 81.0093 91.092 80.6994 91.0497 80.3261C90.3777 74.3824 89.7934 68.2642 89.2284 62.3474C88.8306 58.1815 88.4231 53.9151 87.9825 49.6834C85.9635 59.7998 85.9684 70.8386 88.0248 81.9338C88.0981 82.3293 87.9053 82.7263 87.5493 82.9133C82.3352 85.6495 75.63 86.6079 68.6671 85.6112C68.2808 85.5559 67.9717 85.2624 67.8968 84.8792C66.2281 76.3579 66.483 67.5088 68.608 58.8975C64.8897 66.883 62.8977 76.8087 63.456 85.6633C63.4708 85.8971 63.3954 86.1277 63.2457 86.3076C55.361 95.7873 50.2416 99.1128 41.7597 104.622L41.6194 104.713C41.466 104.813 41.2923 104.861 41.1198 104.861ZM104.668 16.1919C99.3513 16.1919 93.5263 16.6844 87.135 17.7701C55.7084 23.1086 43.4219 40.7542 38.6484 54.6168C34.6048 66.3602 34.8931 77.6742 35.8468 85.0975C36.9554 93.7255 39.3577 100.052 41.3116 102.726C49.2394 97.5739 54.1967 94.2631 61.6031 85.4126C60.94 73.4026 64.7814 59.5489 71.2145 50.8231C71.4873 50.4532 71.9918 50.3421 72.3951 50.5638C72.7981 50.7856 72.9745 51.2713 72.8078 51.7001C68.7405 62.1624 67.6261 73.2751 69.5749 83.8822C75.6579 84.6439 81.4738 83.8371 86.0978 81.5916C83.7751 68.5418 84.2361 55.5755 87.4381 44.052C87.5558 43.6286 87.9598 43.3487 88.3944 43.3831C88.8322 43.4178 89.184 43.7582 89.2333 44.1947C89.9053 50.1384 90.4897 56.2566 91.0547 62.1734C91.5994 67.8774 92.162 73.7681 92.8032 79.5021C97.031 80.6454 99.8005 81.2337 104.267 80.6073C108.01 80.0827 112.644 78.9425 114.837 77.279C114.131 66.9578 111.707 56.009 107.433 43.8248C107.267 43.351 107.513 42.8317 107.984 42.6595C108.456 42.4873 108.978 42.7263 109.157 43.1956C112.745 52.6465 117.191 64.3555 119.775 75.3215C120.044 75.3038 120.28 75.291 120.513 75.2782C120.7 75.2681 120.883 75.2579 121.08 75.2459C120.259 65.6528 117.351 55.4367 112.43 44.8646C112.239 44.4553 112.375 43.968 112.75 43.7162C113.125 43.4643 113.627 43.5224 113.934 43.8535C121.201 51.6819 124.863 61.6136 128.272 71.9562C129.362 75.2618 134.414 78.1691 138.103 80.2922C138.668 80.6175 139.206 80.9269 139.699 81.2198C141.646 82.3762 143.856 83.2034 145.993 84.0035L152.168 86.315C153.865 86.9499 155.614 87.6044 157.403 87.8952C159.05 85.7262 160.55 79.5498 160.389 71.2612C160.277 65.4582 159.216 54.0544 153.366 42.8818C146.656 30.0639 132.87 16.1919 104.668 16.1919Z" fill="#1F404D"/>
<path d="M71.0443 78.0634C73.7904 76.3592 76.917 75.3009 80.0857 74.5629C80.6022 74.4427 81.1633 74.3336 81.6465 74.5379C82.2699 74.8014 82.5524 75.4937 82.6912 76.1357C82.8788 77.0022 82.9158 77.9001 82.8002 78.7816C82.7627 79.068 82.7008 79.3698 82.4979 79.5845C82.3247 79.7676 82.074 79.8605 81.8317 79.9427C78.1332 81.1961 74.0945 81.4136 70.5294 82.9903C68.8353 83.7395 67.284 84.7819 65.5459 85.428C63.512 86.184 66.2473 82.3663 66.6626 81.8561C67.879 80.3611 69.3884 79.0912 71.0443 78.0634Z" fill="#1F404D"/>
<path d="M120.079 69.3888C116.94 68.608 113.638 68.5587 110.395 68.8269C109.866 68.8707 109.299 68.9388 108.902 69.281C108.39 69.7227 108.335 70.4682 108.401 71.1214C108.489 72.0034 108.731 72.8692 109.113 73.6726C109.237 73.9337 109.389 74.2019 109.649 74.3441C109.87 74.4654 110.137 74.4768 110.393 74.4808C114.299 74.5408 118.21 73.5106 122.089 73.9194C123.932 74.1135 125.729 74.6302 127.583 74.7127C129.752 74.8092 125.971 72.0141 125.418 71.6556C123.799 70.6057 121.971 69.8596 120.079 69.3888Z" fill="#1F404D"/>
<path d="M174.825 116.988C174.325 116.988 173.863 116.931 173.429 116.816C172.651 116.611 171.889 116.206 171.03 115.54C168.577 113.639 166.806 110.806 166.173 107.768C166.07 107.272 166.388 106.786 166.884 106.682C167.379 106.58 167.866 106.897 167.969 107.394C168.515 110.011 170.04 112.452 172.154 114.09C172.811 114.6 173.365 114.902 173.896 115.042C174.436 115.184 175.077 115.19 175.856 115.059C178.027 114.695 179.833 113.506 180.688 111.879C180.923 111.431 181.478 111.259 181.926 111.494C182.375 111.73 182.548 112.284 182.312 112.733C181.192 114.864 178.892 116.41 176.16 116.868C175.686 116.948 175.243 116.988 174.825 116.988Z" fill="#1F404D"/>
<path d="M36.1556 137.333C34.3676 137.333 32.4981 136.526 31.1038 135.047C30.7563 134.678 30.7735 134.098 31.1421 133.75C31.5107 133.403 32.0914 133.42 32.4391 133.789C33.6983 135.125 35.9153 136.024 37.7158 135.157C38.5069 134.776 39.1581 134.087 39.6907 133.463C41.3143 131.562 42.1762 129.729 42.2527 128.015C42.2751 127.509 42.7076 127.116 43.21 127.14C43.7161 127.162 44.1082 127.591 44.0857 128.097C43.9908 130.228 42.9815 132.435 41.0863 134.654C40.4295 135.424 39.6099 136.282 38.5119 136.81C37.7797 137.163 36.9762 137.333 36.1556 137.333Z" fill="#1F404D"/>
<path d="M106.825 8.81473C107.006 4.56636 105.029 1.03203 102.409 0.920585C99.789 0.809142 97.5187 4.16279 97.338 8.41116C97.1572 12.6595 99.1345 16.1939 101.754 16.3053C104.374 16.4167 106.645 13.0631 106.825 8.81473Z" fill="#FBB03B"/>
<path d="M101.871 17.225C101.815 17.225 101.759 17.2237 101.702 17.2213C98.5279 17.0865 96.2023 13.1991 96.4076 8.37191C96.5021 6.14965 97.1331 4.07007 98.1849 2.51639C99.3277 0.828102 100.835 -0.0635178 102.433 0.00352319C104.03 0.0713468 105.458 1.08844 106.454 2.86777C107.37 4.50518 107.822 6.63067 107.728 8.85294C107.633 11.0752 107.002 13.1548 105.951 14.7085C104.848 16.3368 103.405 17.2247 101.871 17.225ZM102.269 1.83476C101.361 1.83476 100.453 2.43865 99.7044 3.5447C98.8407 4.82056 98.3208 6.56259 98.2407 8.44965C98.0844 12.1226 99.7052 15.2998 101.78 15.388C102.717 15.4287 103.659 14.8212 104.431 13.6799C105.295 12.404 105.815 10.662 105.895 8.77494C105.975 6.88788 105.605 5.10803 104.852 3.76356C104.179 2.56073 103.293 1.8765 102.356 1.83659C102.327 1.83528 102.298 1.83476 102.269 1.83476Z" fill="#1F404D"/>
<path d="M162.522 52.1611L150.645 52.4357L148.709 52.4809L142.81 52.6165L123.147 50.6976L121.246 50.5122L103.405 48.7694L101.585 48.5904L80.4815 46.5314L78.6565 46.3533L69.4972 45.4593L55.3802 47.4304L53.4282 47.7035L36.4695 50.0705C35.8431 45.7165 39.3498 37.9572 46.2718 30.254C47.6397 28.7324 49.1399 27.2124 50.7693 25.7229C50.7693 25.7229 50.7664 25.7208 50.769 25.7203C58.1526 18.9564 68.1676 12.784 80.2965 9.68052C81.3843 9.40219 82.4885 9.14733 83.6128 8.92351C86.6185 8.31492 89.7475 7.89572 92.9895 7.70425C93.033 7.7006 93.0768 7.69955 93.1204 7.6959C93.8096 7.65625 94.4944 7.6226 95.1705 7.60069C97.0503 7.52739 98.8807 7.51043 100.669 7.54356C101.27 7.55556 101.866 7.57095 102.455 7.5926C103.991 7.65182 105.493 7.74677 106.964 7.88007C107.655 7.94137 108.339 8.01154 109.016 8.08771C112.103 8.44222 115.04 8.95586 117.826 9.61557C118.931 9.87408 120.014 10.1563 121.074 10.4602C138.888 15.5647 150.233 26.6221 156.711 37.8816C156.735 37.9223 156.756 37.9606 156.78 38.0013C159.548 42.84 161.418 47.7123 162.522 52.1611Z" fill="#F9EEC0"/>
<path d="M83.6114 8.92285C81.6928 10.7259 79.8652 12.638 78.0587 14.5366C71.4378 21.4838 65.2536 28.9436 60.4196 37.2645C58.5719 40.4447 56.7905 43.8669 55.3793 47.43L53.4272 47.7031C56.7454 38.8119 62.0044 30.671 67.9311 23.3132C71.0679 19.4162 74.4312 15.7068 77.9129 12.1153C78.7007 11.3019 79.4934 10.4851 80.2953 9.68013C81.3831 9.40153 82.4873 9.14667 83.6114 8.92285Z" fill="#FBB03B"/>
<path d="M95.1698 7.59961C93.3776 10.3906 91.7053 13.2551 90.1761 16.1976C85.2534 25.685 81.8268 35.9841 80.4813 46.5309L78.6562 46.3527C80.3951 32.5939 85.6533 19.4724 92.9887 7.70343C93.0322 7.69978 93.0761 7.69874 93.1197 7.69508C93.8086 7.65543 94.4936 7.62178 95.1698 7.59961Z" fill="#FBB03B"/>
<path d="M102.454 7.59201C102.292 10.9498 102.186 14.3097 102.141 17.6714C102.001 28.0526 102.427 38.4377 103.405 48.7695L101.585 48.5906C100.318 34.9531 100.015 21.2261 100.669 7.54297C101.269 7.55497 101.865 7.57036 102.454 7.59201Z" fill="#FBB03B"/>
<path d="M150.644 52.4359L148.708 52.4811C144.845 43.4305 139.751 35.1506 133.584 27.4088C128.654 21.2186 123.348 15.3025 117.824 9.61523C118.93 9.87375 120.013 10.156 121.073 10.4599C122.49 11.9518 123.889 13.459 125.275 14.9788C132.703 23.1382 139.826 31.6861 145.292 41.3126C147.333 44.9057 149.082 48.6289 150.644 52.4359Z" fill="#FBB03B"/>
<path d="M123.147 50.6973L121.245 50.5118C117.381 36.0137 112.969 21.6333 106.963 7.87891C107.654 7.94021 108.338 8.01038 109.016 8.08655C110.286 11.028 111.487 14.0031 112.624 17.0027C116.799 28.0183 120.127 39.3162 123.147 50.6973Z" fill="#FBB03B"/>
<g opacity="0.2">
<path d="M162.522 52.1612L150.645 52.4359L148.709 52.4811L142.81 52.6167L123.147 50.6978L121.246 50.5123L103.405 48.7695L101.585 48.5906L80.4815 46.5316L78.6565 46.3534L69.4972 45.4595L55.3802 47.4305L53.4282 47.7037L36.4695 50.0707C35.8431 45.7167 39.3498 37.9574 46.2718 30.2542C47.6397 28.7326 49.1399 27.2126 50.7693 25.7231C50.0091 28.0622 49.562 30.4887 49.7571 32.9265C55.5576 35.1281 61.1231 37.911 66.5719 40.8764C68.0958 36.7627 70.6312 33.4967 73.6923 30.3546C71.7088 33.365 70.8599 37.1067 71.3532 40.6787C75.9707 40.3153 80.5879 39.9517 85.2057 39.5909C85.8283 39.5403 86.4787 39.4829 87.0061 39.1477C87.4788 38.8464 87.7944 38.355 88.0853 37.8724C89.298 35.8674 90.3485 33.7612 91.2206 31.5849C91.3017 34.0234 91.3802 36.4624 91.4613 38.9009C100.042 40.2256 108.847 41.9149 117.285 43.9447C120.793 44.7883 124.414 45.6987 127.964 45.0687C127.272 42.98 126.582 40.8908 125.89 38.8021C128.137 41.1884 130.054 43.8839 131.576 46.7841C131.471 45.4407 131.527 44.0842 131.74 42.752C133.799 43.6901 135.496 45.3932 136.427 47.4527C134.25 39.1655 130.614 31.2619 125.739 24.2158C133.056 29.3861 137.091 37.9167 140.817 46.0668C143.44 45.2255 145.124 42.4992 145.452 39.7633C145.779 37.0274 144.985 34.2819 143.993 31.7124C146.17 35.2961 148.345 38.8803 150.523 42.464C150.692 42.7405 150.874 43.0332 151.167 43.1751C151.792 43.4819 152.492 42.9636 152.981 42.4682C154.358 41.0776 155.628 39.5828 156.78 38.0012C159.548 42.8402 161.418 47.7125 162.522 52.1612Z" fill="#FBB03B"/>
</g>
<path d="M142.81 53.5332C142.78 53.5332 142.75 53.5316 142.72 53.5287L69.5147 46.3833L36.5947 50.9788C36.0952 51.0493 35.6319 50.701 35.5599 50.201C34.926 45.795 38.0534 38.7502 43.7214 31.8163C47.393 27.3246 53.795 20.8388 63.4453 15.4471C72.6662 10.2951 82.6318 7.37895 93.0659 6.77976C103.782 6.16465 113.698 7.22635 122.539 9.93643C130.369 12.3366 137.409 16.039 143.464 20.9408C153.218 28.8373 160.488 40.1362 163.412 51.9409C163.478 52.2111 163.419 52.497 163.25 52.7185C163.081 52.9397 162.82 53.0722 162.542 53.0788L142.831 53.5334C142.823 53.5332 142.816 53.5332 142.81 53.5332ZM69.4954 44.5421C69.5251 44.5421 69.5549 44.5437 69.5846 44.5466L142.844 51.6973L161.342 51.2705C155.531 29.8586 134.39 6.24343 93.1708 8.61126C65.8014 10.1829 49.4893 27.6587 45.1418 32.9771C40.265 38.943 37.2909 45.0873 37.311 49.026L69.3686 44.5507C69.4109 44.5452 69.4531 44.5421 69.4954 44.5421Z" fill="#1F404D"/>
<path d="M194.235 91.0393C193.969 95.3349 192.85 99.6887 190.268 103.133C185.776 109.125 173.428 112.346 166.697 109.064C167.998 107.461 169.076 105.652 169.853 103.736C171.035 100.833 171.532 97.6733 171.077 94.5805C170.32 89.4442 166.558 84.6363 161.583 83.1585C163.548 73.6063 162.794 62.7058 158.9 53.7632C155.514 54.2192 152.108 53.991 148.719 53.4828C146.873 53.2118 145.029 52.8544 143.199 52.4801C143.192 52.4448 143.184 52.4096 143.177 52.377C152.756 46.114 167.841 37.7887 179.103 46.6644C188.394 53.9878 182.027 65.4229 179.981 68.1442C188.066 72.3456 194.794 81.9463 194.235 91.0393Z" fill="#FFDE83"/>
<path d="M68.671 45.494C68.6681 45.5282 68.6653 45.5624 68.6653 45.5986C63.7762 46.4342 58.8658 47.5011 54.3276 49.0639C45.6866 52.0442 38.4157 56.8341 35.2848 65.2782C32.3298 73.2511 34.5093 88.7253 38.7305 100.045C34.7613 102.913 31.6586 108.561 32.3556 113.408C32.4639 114.159 32.6217 114.878 32.8184 115.561C34.6953 122.029 40.2709 125.498 43.288 127.851C41.781 130.443 38.3651 132.236 35.379 132.512C32.3929 132.789 29.3395 131.677 27.1136 129.669C25.6267 128.328 24.4774 126.574 24.0256 124.622C23.5738 122.67 23.8586 120.523 24.9608 118.848C17.9642 120.301 10.3033 117.783 5.69391 112.327C1.08425 106.868 -0.314748 98.9098 2.06117 92.1741C4.43395 85.4364 10.4575 80.1386 17.4201 78.5408C5.19854 67.0131 14.4703 46.7519 27.53 40.2061C47.5549 30.1693 61.3369 40.5959 62.8483 41.693C64.7182 43.0524 66.6746 44.3058 68.671 45.494Z" fill="#FFDE83"/>
<path d="M49.9164 47.7963C51.4163 48.1302 52.8839 48.5622 54.3278 49.0649C45.6868 52.0452 38.4158 56.8351 35.285 65.2792C32.33 73.2521 34.5094 88.7263 38.7307 100.046C34.7614 102.914 31.6588 108.562 32.3558 113.409C32.464 114.16 32.6218 114.879 32.8185 115.562C31.0864 113.884 29.4253 112.16 28.3497 110.018C27.0003 107.324 26.721 104.193 27.0392 101.196C27.3575 98.2002 28.241 95.2935 29.1201 92.4107C25.4565 84.1375 24.2029 73.7289 25.4647 64.7655C26.1116 60.1608 27.5322 55.4554 30.7697 52.1141C35.526 47.201 43.2415 46.3115 49.9164 47.7963Z" fill="#F9D373"/>
<path d="M176.851 86.4117C177.164 89.6828 176.94 93.0625 175.706 96.1104C174.474 99.1552 172.366 101.623 169.851 103.735C171.033 100.833 171.53 97.673 171.075 94.5802C170.318 89.4439 166.556 84.636 161.581 83.1582C163.546 73.606 162.792 62.7055 158.898 53.7629C155.512 54.2189 152.106 53.9907 148.717 53.4825C151.279 51.6515 153.845 49.8174 156.903 49.2842C161.155 48.5429 165.761 50.792 167.788 54.605C169.814 58.4154 169.108 63.4925 166.117 66.6038C172.535 70.7522 176.125 78.8024 176.851 86.4117Z" fill="#F9D373"/>
<path d="M142.928 52.4227C142.314 52.2967 141.701 52.1691 141.09 52.0423C129.035 49.5407 116.915 47.3539 104.746 45.4856C95.9672 44.1378 87.0296 42.9545 78.2313 44.167C75.2126 44.5828 72.074 45.0221 68.923 45.555C68.9217 45.5759 68.9202 45.5965 68.9199 45.6174C68.9199 45.6189 68.9199 45.6181 68.9199 45.6195C68.9202 45.6268 68.9202 45.6343 68.9204 45.6416C68.9204 45.6424 68.9204 45.6432 68.9204 45.6437C70.2164 46.4109 71.5272 47.1515 72.8407 47.8738C79.7887 51.6949 87.1259 54.8432 94.7513 57.037C103.967 59.6884 113.621 60.9181 123.201 60.1911C126.668 59.9279 130.153 59.4049 133.383 58.1159C136.769 56.7647 139.765 54.6183 142.811 52.6155C142.858 52.5847 142.906 52.5536 142.953 52.5226C142.944 52.4892 142.936 52.4561 142.928 52.4227Z" fill="#F9EEC0"/>
<path d="M34.488 133.471C31.6323 133.471 28.7076 132.341 26.5007 130.351C24.7983 128.816 23.6025 126.854 23.1338 124.828C22.7558 123.195 22.8442 121.525 23.3631 120.037C16.4714 120.844 9.41905 118.157 4.99434 112.918C0.186693 107.226 -1.30412 98.9638 1.19675 91.8686C3.47719 85.398 9.06011 80.1234 15.6693 78.0652C10.7061 72.6072 10.3814 66.2485 11.0432 61.7406C12.3769 52.6546 18.9879 43.4624 27.12 39.3862C35.6047 35.1336 44.0005 33.9329 52.0749 35.8174C54.9472 36.488 59.2295 37.9139 63.3169 40.8992L63.3881 40.9511C65.23 42.2898 67.1536 43.5192 68.9789 44.6123C72.1642 44.077 75.2617 43.6502 78.1058 43.2581C86.9532 42.0394 95.8211 43.1874 104.885 44.5789C117.014 46.4411 129.258 48.6501 141.276 51.1442L141.728 51.2381C142.11 51.3174 142.493 51.397 142.876 51.476C153.352 44.6592 168.306 36.986 179.671 45.9437C188.396 52.8207 184.252 63.3444 181.321 67.8306C189.788 72.6855 195.679 82.5063 195.149 91.0946C194.834 96.1965 193.439 100.432 191.001 103.683C188.76 106.674 184.478 109.209 179.549 110.465C174.51 111.749 169.679 111.539 166.296 109.888C166.044 109.766 165.863 109.535 165.802 109.262C165.742 108.989 165.809 108.703 165.985 108.486C169.276 104.426 170.839 99.277 170.168 94.713C169.439 89.7585 165.801 85.3688 161.322 84.0376C160.866 83.902 160.589 83.4397 160.685 82.9733C162.662 73.3692 161.799 63.1302 158.326 54.7574C153.26 55.3028 148.192 54.4315 143.249 53.4251C142.836 53.697 142.424 53.9714 142.012 54.2458C139.406 55.9805 136.712 57.7747 133.722 58.9676C130.845 60.1159 127.621 60.7751 123.27 61.1054C113.98 61.8105 104.299 60.7381 94.4973 57.9179C87.1285 55.7979 79.6934 52.689 72.3982 48.6772C71.2541 48.0478 69.9712 47.3299 68.622 46.5337C63.354 47.4415 57.8915 48.6582 53.0184 50.5137C44.18 53.8788 38.6609 58.8127 36.1463 65.5971C33.1412 73.7047 35.6783 89.2316 39.5912 99.7247C39.7354 100.112 39.6034 100.547 39.2687 100.789C35.2405 103.699 32.6593 109.068 33.2648 113.277C34.2182 119.905 39.2797 123.693 42.6289 126.199C43.0679 126.528 43.4798 126.836 43.8531 127.128C44.2144 127.41 44.3119 127.915 44.0816 128.312C42.5211 130.997 38.9779 133.1 35.4644 133.425C35.1409 133.456 34.8148 133.471 34.488 133.471ZM24.9611 117.932C25.2608 117.932 25.5467 118.08 25.7197 118.334C25.9283 118.641 25.9312 119.043 25.7275 119.354C24.8114 120.747 24.5101 122.639 24.9212 124.415C25.3062 126.078 26.3035 127.702 27.7294 128.988C29.8152 130.869 32.6442 131.845 35.2956 131.599C37.9037 131.357 40.6046 129.912 42.0456 128.055C41.8789 127.93 41.7067 127.801 41.5301 127.669C37.9386 124.981 32.5109 120.919 31.4492 113.539C30.6948 108.295 33.9892 102.663 37.6381 99.7268C33.7456 88.9376 31.329 73.3163 34.4264 64.9599C37.1357 57.65 43.0037 52.364 52.366 48.7993C56.7396 47.1342 61.5423 45.9758 66.2568 45.0943C64.9442 44.2684 63.6088 43.3792 62.31 42.4354L62.2354 42.3809C58.7031 39.8012 45.7921 32.08 27.9424 41.0267C20.3136 44.8504 14.1109 53.4778 12.8587 62.0072C12.2134 66.4024 12.5908 72.7231 18.0522 77.8737C18.2985 78.1062 18.3968 78.4549 18.3081 78.7815C18.2192 79.1081 17.9578 79.3596 17.6278 79.4352C10.9503 80.9675 5.17983 86.0874 2.9273 92.4788C0.638776 98.9716 2.00045 106.53 6.39647 111.734C10.7758 116.919 17.9893 119.36 24.7748 117.951C24.8367 117.938 24.899 117.932 24.9611 117.932ZM168.151 108.677C174.588 110.944 185.505 107.957 189.534 102.583C191.752 99.6232 193.026 95.72 193.318 90.9817C193.825 82.7662 187.91 73.2985 179.56 68.9591C179.321 68.8347 179.148 68.6114 179.088 68.3484C179.028 68.0855 179.088 67.8095 179.25 67.594C180.301 66.1945 182.252 62.8049 182.89 58.9796C183.688 54.1921 182.223 50.2912 178.536 47.3847C168.635 39.581 155.344 45.7848 145.47 51.9949C149.895 52.8413 154.388 53.4434 158.779 52.8549C159.182 52.8006 159.578 53.0219 159.742 53.3978C163.484 61.9921 164.529 72.5697 162.64 82.5452C167.41 84.329 171.197 89.1027 171.983 94.4457C172.687 99.2243 171.295 104.348 168.151 108.677ZM71.481 46.0663C72.11 46.4221 72.7136 46.757 73.2825 47.0698C80.4583 51.0161 87.7665 54.0729 95.0046 56.1553C104.596 58.9147 114.06 59.9649 123.131 59.2762C127.289 58.9606 130.346 58.34 133.042 57.264C135.752 56.1824 138.277 54.5273 140.719 52.9024C128.791 50.4305 116.643 48.2403 104.607 46.3924C95.6818 45.0221 86.9586 43.8899 78.3563 45.0758C76.188 45.3745 73.8703 45.6938 71.481 46.0663Z" fill="#1F404D"/>
<path d="M110.741 111.286C110.816 111.806 110.864 112.321 110.888 112.828C111.145 118.062 108.808 122.454 105.29 122.96C101.767 123.467 98.2828 119.902 97.0583 114.797C96.9391 114.311 96.8436 113.809 96.7698 113.296C96.7598 113.227 96.7531 113.161 96.7432 113.092L110.71 111.083C110.719 111.151 110.731 111.217 110.741 111.286Z" fill="#F25851"/>
<path d="M110.741 111.285C110.816 111.806 110.864 112.32 110.888 112.827C110.797 112.939 110.704 113.046 110.607 113.148C110.071 113.712 109.432 114.17 108.76 114.567C106.344 115.993 103.436 116.632 100.671 116.153C99.3972 115.932 98.1612 115.469 97.0583 114.796C96.9391 114.31 96.8436 113.808 96.7698 113.295C96.7598 113.226 96.7531 113.16 96.7432 113.091L110.71 111.082C110.719 111.151 110.731 111.216 110.741 111.285Z" fill="white"/>
<path d="M104.634 123.775C100.635 123.775 96.8594 119.33 96.0069 113.404C96.0004 113.358 95.9946 113.312 95.9889 113.265L95.9798 113.192C95.925 112.774 96.2161 112.389 96.6335 112.329L110.598 110.32C111.014 110.261 111.404 110.547 111.469 110.964L111.481 111.038C111.488 111.083 111.496 111.129 111.503 111.175C111.934 114.171 111.57 117.109 110.477 119.449C109.334 121.897 107.531 123.414 105.399 123.72C105.144 123.757 104.888 123.775 104.634 123.775ZM97.6216 113.743C98.5534 118.92 101.869 122.672 105.18 122.197C106.78 121.966 108.166 120.759 109.082 118.797C109.982 116.87 110.32 114.459 110.049 111.955L97.6216 113.743Z" fill="#1F404D"/>
<path d="M113.71 98.391C113.522 98.391 113.334 98.3234 113.185 98.1896C112.897 97.9311 112.84 97.5017 113.05 97.177C116.363 92.0649 123.084 89.3042 129.034 90.6135C129.458 90.7068 129.726 91.1263 129.633 91.5502C129.539 91.9741 129.12 92.2425 128.696 92.1491C125.109 91.36 121.209 92.2209 118.136 94.2642C120.903 93.3053 123.92 93.0799 126.813 93.6799C127.238 93.768 127.512 94.1841 127.423 94.6096C127.335 95.0348 126.92 95.3087 126.494 95.2197C122.201 94.3294 117.608 95.4493 114.206 98.2144C114.061 98.3323 113.886 98.391 113.71 98.391Z" fill="#1F404D"/>
<path d="M126.592 91.7531C126.414 91.7531 126.235 91.6929 126.088 91.5695C125.755 91.2906 125.711 90.7945 125.99 90.4616C126.502 89.8504 126.804 89.0751 126.841 88.2782C126.86 87.8446 127.215 87.5079 127.662 87.5282C128.096 87.5478 128.431 87.9153 128.412 88.3491C128.36 89.4888 127.929 90.5978 127.196 91.4719C127.04 91.6574 126.817 91.7531 126.592 91.7531Z" fill="#1F404D"/>
<path d="M124.081 91.8886C123.994 91.8886 123.906 91.874 123.819 91.8432C123.409 91.6984 123.195 91.2495 123.34 90.8399C123.645 89.9752 123.769 89.0353 123.696 88.1212C123.662 87.6882 123.986 87.3097 124.419 87.2755C124.849 87.2372 125.23 87.5648 125.264 87.9976C125.354 89.1292 125.201 90.2934 124.822 91.364C124.708 91.6867 124.405 91.8886 124.081 91.8886Z" fill="#1F404D"/>
<path d="M78.2656 103.775C78.0071 103.775 77.754 103.648 77.6035 103.414C77.3684 103.049 77.4741 102.563 77.8393 102.328C80.324 100.729 83.2206 99.855 86.1474 99.7559C82.5455 98.9522 78.5966 99.5501 75.5325 101.575C75.1702 101.815 74.6824 101.715 74.4429 101.353C74.2034 100.991 74.3031 100.503 74.6654 100.263C79.7472 96.9044 87.0122 97.0659 91.9398 100.647C92.2529 100.874 92.3538 101.296 92.178 101.641C92.0022 101.985 91.6012 102.15 91.234 102.031C87.0662 100.672 82.3772 101.278 78.6905 103.65C78.5587 103.735 78.4114 103.775 78.2656 103.775Z" fill="#1F404D"/>
<path d="M77.0713 100.502C76.9424 100.502 76.812 100.47 76.691 100.404C75.6929 99.8512 74.8916 98.9711 74.4343 97.926C74.2603 97.5282 74.4416 97.0644 74.8396 96.8904C75.2372 96.7162 75.701 96.8977 75.8752 97.2958C76.1948 98.0265 76.7551 98.6416 77.4529 99.0279C77.8328 99.2382 77.9702 99.7169 77.76 100.097C77.6165 100.356 77.3478 100.502 77.0713 100.502Z" fill="#1F404D"/>
<path d="M79.4655 99.726C79.2436 99.726 79.0229 99.6326 78.8674 99.4505C78.1299 98.5876 77.5691 97.5562 77.2457 96.4676C77.122 96.0513 77.3591 95.6135 77.7755 95.4899C78.1913 95.366 78.6292 95.6034 78.7531 96.0197C79.0143 96.8988 79.4671 97.732 80.0629 98.4287C80.3452 98.759 80.306 99.2554 79.9761 99.5374C79.8276 99.6639 79.6461 99.726 79.4655 99.726Z" fill="#1F404D"/>
</svg>
