<svg width="161" height="241" viewBox="0 0 161 241" fill="none" xmlns="http://www.w3.org/2000/svg">
<path d="M81.0274 241C120.067 241 151.714 234.357 151.714 226.161C151.714 217.966 120.067 211.322 81.0274 211.322C41.9883 211.322 10.3408 217.966 10.3408 226.161C10.3408 234.357 41.9883 241 81.0274 241Z" fill="#E6E6E6"/>
<path d="M160.079 126.05C158.349 133.51 152.193 139.912 144.482 142.268C136.774 144.626 128.928 142.087 122.879 137.004C120.745 144.232 114.47 150.348 106.751 152.188C99.0322 154.028 90.4444 150.184 85.7339 144.138C83.5944 148.605 78.7056 151.595 73.5687 152.383C68.4318 153.171 63.117 151.965 58.463 149.768C55.1256 148.193 52.8459 145.306 51.7046 141.958C46.6998 146.032 37.1086 147.98 27.4716 144.953C19.7391 142.525 16.9279 133.182 17.3028 131.816C14.4566 133.618 10.9086 134.414 7.50375 134.015C4.10163 133.616 0.86953 132.027 -1.42661 129.625C-2.71906 128.274 -3.05334 126.625 -3.14795 124.807C0.297216 126.132 4.42521 125.163 7.29037 122.926C7.72476 122.586 8.13475 122.22 8.51785 121.834C10.6574 119.675 12.0063 116.845 12.7267 113.95C13.5793 110.538 13.6386 107.001 13.6926 103.493C13.7735 98.4426 13.8544 93.3921 13.9328 88.3413C14.1028 77.5818 11.8094 66.9601 15.8807 56.9046C17.3645 53.2326 19.3286 49.6794 22.1318 46.7709C25.1938 43.5953 29.1411 41.2994 33.1638 39.2893C43.2865 34.2333 54.2727 30.7207 65.5716 28.9264C70.3443 28.1709 75.2086 27.7176 80.0299 28.1196C86.8961 28.6944 93.4658 30.9848 99.7951 33.5532C107.789 36.7963 115.654 40.576 122.215 45.9611C128.777 51.3462 135.826 57.8888 137.21 65.9854C139.889 81.6391 142.566 97.29 145.245 112.943C145.369 113.674 145.496 114.408 145.62 115.139C146.273 118.962 147.195 123.206 150.57 125.421C153.024 127.03 157.184 126.752 160.079 126.05Z" fill="#3B6A82"/>
<path d="M128.02 118.498C126.45 123.49 128.689 129.414 133.167 132.12C129.417 131.912 125.74 130.51 122.802 128.17C121.631 127.237 121.348 125.589 120.816 124.188C119.489 126.633 118.072 129.061 116.184 131.103C114.295 133.146 111.878 134.794 109.148 135.326C107.572 135.631 105.368 135.08 104.588 133.677C101.655 136.324 97.8377 137.765 94.0281 138.811C73.0352 144.58 49.3553 139.429 32.6549 125.467C30.904 124.002 29.2043 122.424 28.0171 120.476C25.0277 122.249 22.0359 124.021 19.0465 125.794C19.9315 122.362 20.3335 118.806 20.2364 115.261C16.7238 118.072 12.7469 120.298 8.51904 121.833C10.6586 119.674 12.0075 116.844 12.7279 113.949C13.5805 110.537 13.6398 107 13.6938 103.492C13.7747 98.4416 13.8556 93.3911 13.934 88.3403C14.104 77.5808 11.8106 66.959 15.8819 56.9035C17.3657 53.2316 19.3298 49.6784 22.133 46.7699C25.195 43.5943 29.1423 41.2984 33.165 39.2883C43.2877 34.2323 54.2739 30.7197 65.5728 28.9254C70.3455 28.1699 75.2098 27.7166 80.0311 28.1186C86.8973 28.6934 93.467 30.9838 99.7963 33.5522C107.79 36.7953 115.655 40.575 122.216 45.9601C128.778 51.3452 135.828 57.8878 137.212 65.9844C139.891 81.6381 142.567 97.289 145.246 112.942C144.825 113.744 144.434 114.556 144.072 115.384C143.312 117.119 142.669 118.937 142.575 120.829C142.481 122.717 142.993 124.703 144.291 126.079C138.35 125.456 132.361 122.605 128.02 118.498Z" fill="#2E6175"/>
<path d="M102.744 153.5C96.6081 153.5 90.207 150.585 85.8799 145.649C83.4902 149.565 78.9435 152.421 73.6974 153.226C67.5182 154.174 61.804 152.287 58.0989 150.538C55.0689 149.108 52.691 146.568 51.3114 143.316C46.22 146.852 37.1257 148.877 27.2153 145.765C20.5298 143.665 17.2045 136.677 16.5477 133.224C13.7785 134.632 10.5187 135.226 7.40509 134.86C3.82089 134.44 0.377653 132.747 -2.04189 130.213C-3.60363 128.578 -3.90751 126.585 -3.99883 124.851C-4.01391 124.563 -3.88228 124.287 -3.64891 124.117C-3.41554 123.948 -3.11167 123.908 -2.84292 124.011C0.106707 125.145 3.96842 124.439 6.76695 122.254C9.85753 119.84 11.2646 116.294 11.9005 113.744C12.7323 110.41 12.788 106.887 12.8417 103.48L13.0811 88.3283C13.1283 85.3367 12.981 82.3029 12.8384 79.3691C12.4712 71.8097 12.0914 63.993 15.0896 56.5838C16.8422 52.2529 18.9453 48.8494 21.5192 46.1792C24.8391 42.7349 29.0759 40.3784 32.7824 38.5271C43.0225 33.4132 54.0087 29.9003 65.4365 28.0863C71.1836 27.1736 75.843 26.9148 80.1005 27.271C87.2738 27.8716 93.9593 30.2656 100.115 32.7633C106.893 35.5127 115.591 39.4222 122.754 45.3019C129.873 51.145 136.653 57.6769 138.049 65.8402L146.458 114.995C147.112 118.819 148.005 122.72 151.037 124.709C153.218 126.14 157.163 125.88 159.878 125.223C160.165 125.154 160.467 125.238 160.678 125.446C160.887 125.654 160.974 125.955 160.908 126.243C159.103 134.021 152.754 140.63 144.731 143.082C137.653 145.246 129.906 143.552 123.303 138.442C120.732 145.579 114.436 151.232 106.947 153.016C105.581 153.342 104.169 153.5 102.744 153.5ZM85.7337 143.285C85.9945 143.285 86.2432 143.405 86.4056 143.613C91.2595 149.844 99.5445 153.031 106.553 151.36C113.872 149.616 119.96 143.887 122.061 136.764C122.142 136.488 122.357 136.273 122.632 136.19C122.907 136.107 123.205 136.168 123.426 136.353C129.783 141.694 137.367 143.553 144.234 141.454C151.231 139.316 156.854 133.788 158.897 127.164C155.917 127.672 152.373 127.623 150.103 126.134C146.499 123.77 145.497 119.477 144.78 115.283L136.371 66.1284C135.069 58.5158 128.538 52.2532 121.674 46.6199C114.688 40.8857 106.142 37.0465 99.476 34.3426C93.4445 31.8956 86.9058 29.5509 79.9592 28.9693C75.8417 28.6243 71.3124 28.8791 65.7044 29.7692C54.4486 31.5564 43.6285 35.0161 33.5442 40.0521C29.9672 41.8384 25.8869 44.1038 22.7464 47.3623C20.3266 49.8726 18.3387 53.0983 16.6694 57.2236C13.8117 64.2859 14.1657 71.5727 14.5406 79.2877C14.6846 82.2486 14.8332 85.3101 14.7852 88.3565L14.5458 103.508C14.4904 107.011 14.4333 110.633 13.5544 114.157C12.8535 116.967 11.2888 120.886 7.81617 123.598C4.89725 125.877 1.10461 126.756 -2.18205 125.992C-2.02053 127.08 -1.6632 128.144 -0.809522 129.038C1.34045 131.29 4.40692 132.795 7.60363 133.169C10.8045 133.545 14.1734 132.789 16.8482 131.098C17.1458 130.91 17.528 130.924 17.8105 131.134C18.093 131.343 18.2177 131.705 18.1245 132.044C17.8917 133.331 20.7286 141.943 27.7264 144.14C37.6149 147.246 46.8091 144.843 51.1669 141.297C51.3832 141.121 51.6709 141.062 51.9397 141.139C52.2076 141.216 52.4207 141.419 52.5106 141.683C53.6454 145.013 55.8886 147.612 58.8267 148.999C62.3171 150.646 67.6857 152.424 73.4399 151.542C78.636 150.745 83.0525 147.767 84.9661 143.769C85.0934 143.503 85.3495 143.322 85.6429 143.29C85.6728 143.286 85.7036 143.285 85.7337 143.285Z" fill="#1F404D"/>
<path d="M88.5894 216.901C88.6396 217.019 88.6939 217.133 88.7466 217.251C89.5597 217.283 90.3368 217.299 91.0904 217.287C93.6295 217.251 95.9051 216.919 98.3655 215.948C98.6112 215.85 98.8602 215.745 99.11 215.634C99.1119 215.609 99.113 215.582 99.1125 215.557C99.2798 211.842 99.2159 208.113 98.9216 204.403C98.5522 199.73 97.817 195.087 96.7264 190.527C91.3827 190.404 86.5719 191.665 82.0186 194.462C82.9002 199.149 83.9033 203.664 85.2723 208.088C86.1882 211.061 87.2704 213.989 88.5894 216.901Z" fill="#F6E2D7"/>
<path d="M85.2723 208.088C85.4985 207.988 85.7273 207.888 85.9546 207.791C90.076 206.025 94.4635 204.884 98.9216 204.403C98.5522 199.73 97.817 195.087 96.7264 190.527C91.3827 190.404 86.5719 191.665 82.0186 194.462C82.9005 199.149 83.9036 203.664 85.2723 208.088Z" fill="#EFD3C5"/>
<path d="M90.612 218.236C89.9942 218.236 89.3616 218.22 88.7078 218.194C88.3524 218.18 88.0351 217.968 87.887 217.645C84.192 209.592 82.3777 201.495 81.0904 194.636C81.0183 194.251 81.1908 193.862 81.524 193.657C86.1944 190.788 91.166 189.458 96.7463 189.583C97.1747 189.593 97.5427 189.89 97.6428 190.307C99.632 198.612 100.443 207.147 100.052 215.676C100.036 216.034 99.8185 216.352 99.4908 216.497C96.426 217.851 93.7089 218.236 90.612 218.236ZM89.3629 216.327C92.5651 216.423 95.2427 216.196 98.191 214.997C98.5003 207.087 97.7549 199.176 95.9746 191.463C91.2886 191.471 87.0536 192.609 83.0687 194.933C84.2984 201.385 86.0261 208.884 89.3629 216.327Z" fill="#1F404D"/>
<path d="M84.2749 209.687C84.8107 211.308 87.2204 219.137 87.8199 220.064C87.844 220.094 87.8684 220.126 87.8953 220.156C90.2946 223.218 90.8798 227.115 93.5804 227.129C96.3079 227.144 106.152 225.382 105.56 222.148C105.46 221.605 105.317 221.12 104.808 220.711C103.321 219.507 100.172 218.898 100.172 218.898C100.172 218.898 100.705 210.031 100.467 208.106C95.4564 210.383 88.1816 210.911 84.2749 209.687Z" fill="#8CC63F"/>
<path d="M87.8945 220.156C89.7187 227.011 93.6281 227.395 97.3922 226.982C100.104 226.684 106.151 225.383 105.559 222.149C105.46 221.606 105.316 221.12 104.807 220.711C103.634 221.564 102.916 222.682 100.31 223.432C98.0287 224.089 95.8456 224.368 93.5292 223.848C91.5418 223.403 89.9082 222.04 87.8945 220.156Z" fill="#81B530"/>
<path d="M95.249 228.312C94.473 228.312 93.7452 228.245 93.1024 228.098C90.0208 227.395 88.6135 224.232 87.2303 220.467C86.7446 219.589 85.7343 216.541 84.1805 211.654C83.9444 210.911 83.7552 210.316 83.6455 209.984C83.5342 209.648 83.6206 209.278 83.869 209.025C84.1175 208.773 84.4863 208.681 84.8241 208.787C88.2921 209.873 95.3552 209.514 100.343 207.248C100.616 207.124 100.933 207.136 101.195 207.283C101.457 207.43 101.634 207.693 101.67 207.992C101.879 209.681 101.539 216.161 101.419 218.287C103.254 219.095 106.854 220.986 106.703 223.32C106.657 224.047 106.188 224.747 105.312 225.401C103.238 226.948 98.7526 228.312 95.249 228.312ZM85.9507 210.989C85.9606 211.02 85.9704 211.051 85.9803 211.082C86.6582 213.214 88.4594 218.879 88.8809 219.55C88.916 219.606 88.9519 219.677 88.9746 219.739C90.1738 223.011 91.344 225.76 93.5222 226.257C96.3709 226.906 101.886 225.514 104.082 223.96C104.659 223.552 104.811 223.265 104.819 223.197C104.875 222.324 102.37 220.692 100.087 219.775C99.7097 219.623 99.4717 219.247 99.4958 218.842C99.6162 216.841 99.8663 212.005 99.8501 209.492C95.5831 211.087 89.9635 211.68 85.9507 210.989Z" fill="#1F404D"/>
<path d="M72.8854 216.858C72.8357 216.976 72.782 217.091 72.7301 217.209C71.9173 217.246 71.1401 217.266 70.3866 217.258C67.8472 217.236 65.57 216.917 63.1041 215.96C62.8578 215.863 62.6083 215.76 62.3579 215.651C62.3557 215.625 62.3546 215.598 62.3549 215.573C62.167 211.859 62.2101 208.13 62.4835 204.419C62.8268 199.744 63.5363 195.097 64.6011 190.53C69.944 190.378 74.7616 191.612 79.3306 194.384C78.4753 199.075 77.4971 203.596 76.1531 208.027C75.2539 211.005 74.188 213.939 72.8854 216.858Z" fill="#F6E2D7"/>
<path d="M76.154 208.027C75.9272 207.929 75.6979 207.83 75.47 207.734C71.3388 205.991 66.945 204.875 62.4844 204.419C62.8277 199.744 63.5371 195.097 64.602 190.53C69.9448 190.378 74.7625 191.612 79.3315 194.384C78.4761 199.075 77.498 203.596 76.154 208.027Z" fill="#EFD3C5"/>
<path d="M70.667 218.205C67.6527 218.205 64.9858 217.823 61.9805 216.515C61.652 216.372 61.4326 216.055 61.4142 215.698C60.9766 207.17 61.7395 198.63 63.6824 190.315C63.7797 189.898 64.1464 189.599 64.575 189.586C70.1477 189.434 75.1332 190.732 79.8195 193.575C80.1541 193.778 80.3288 194.166 80.2588 194.551C79.01 201.418 77.2409 209.526 73.5912 217.598C73.4448 217.922 73.1286 218.136 72.7734 218.152C72.0484 218.185 71.3485 218.205 70.667 218.205ZM63.2719 215.008C66.2267 216.19 68.9035 216.401 72.1073 216.289C75.4025 208.828 77.0885 201.319 78.2822 194.86C74.3173 192.578 70.1123 191.462 65.4726 191.462C65.4339 191.462 65.3958 191.462 65.3571 191.462C63.6196 199.184 62.9187 207.099 63.2719 215.008Z" fill="#1F404D"/>
<path d="M77.1595 209.621C76.6327 211.244 74.2669 219.087 73.6726 220.017C73.6485 220.047 73.6247 220.08 73.5978 220.11C71.2156 223.186 70.6522 227.085 67.9516 227.114C65.2241 227.144 55.371 225.438 55.945 222.201C56.0412 221.657 56.1822 221.171 56.689 220.759C58.1687 219.547 61.315 218.92 61.315 218.92C61.315 218.92 60.732 210.056 60.9596 208.131C65.9821 210.379 73.2599 210.866 77.1595 209.621Z" fill="#8CC63F"/>
<path d="M73.5962 220.109C71.8104 226.975 67.9032 227.38 64.1366 226.988C61.4236 226.706 55.3694 225.438 55.9434 222.2C56.0397 221.657 56.1806 221.17 56.6874 220.759C57.8649 221.605 58.5897 222.719 61.1996 223.455C63.4842 224.098 65.669 224.366 67.9824 223.832C69.9673 223.377 71.5932 222.005 73.5962 220.109Z" fill="#81B530"/>
<path d="M66.21 228.306C62.718 228.306 58.2749 226.976 56.2072 225.451C55.3272 224.802 54.8552 224.105 54.8042 223.378C54.6408 221.045 58.2299 219.134 60.0601 218.316C59.9282 216.191 59.552 209.713 59.7513 208.022C59.7867 207.723 59.9617 207.46 60.223 207.311C60.4844 207.163 60.8005 207.148 61.0751 207.271C66.0748 209.509 73.1401 209.829 76.602 208.723C76.9388 208.616 77.3084 208.706 77.5585 208.957C77.8084 209.208 77.8969 209.578 77.7875 209.914C77.6795 210.247 77.4938 210.842 77.2621 211.586C75.7357 216.482 74.7422 219.535 74.2612 220.417C72.9482 224.053 71.5049 227.361 68.4319 228.08C67.7693 228.236 67.0146 228.306 66.21 228.306ZM61.5807 209.512C61.5788 212.025 61.8558 216.86 61.9872 218.86C62.0138 219.265 61.7776 219.643 61.4014 219.796C59.1231 220.727 56.627 222.373 56.6882 223.246C56.6964 223.314 56.8503 223.599 57.43 224.004C59.6345 225.546 65.1575 226.908 68.0016 226.241C70.1771 225.732 71.3318 222.977 72.5127 219.698C72.5365 219.632 72.5678 219.568 72.6059 219.509C73.0244 218.833 74.7929 213.16 75.459 211.024C75.4689 210.993 75.4785 210.962 75.4878 210.932C71.4794 211.646 65.8568 211.083 61.5807 209.512Z" fill="#1F404D"/>
<path d="M92.1714 137.67V157.292C91.1946 157.163 89.7189 157.071 87.957 157.019C84.8626 156.928 80.8912 156.952 77.2406 157.076C74.3269 157.176 71.6125 157.341 69.708 157.559V137.038C70.5524 136.68 71.4104 136.356 72.2792 136.073C72.7136 135.93 73.1507 135.797 73.5903 135.676C73.8089 135.614 74.0302 135.557 74.2512 135.5C74.4725 135.446 74.6938 135.392 74.9176 135.344C75.2439 135.268 75.5733 135.204 75.9051 135.142C76.2369 135.08 76.566 135.026 76.9005 134.977C76.925 134.972 76.9491 134.969 76.9762 134.966C77.4134 134.904 77.853 134.853 78.2928 134.815C78.9754 134.753 79.6634 134.724 80.3539 134.724C80.7911 134.724 81.2254 134.734 81.6543 134.759C81.7487 134.764 81.8406 134.769 81.9376 134.778C82.1211 134.788 82.3073 134.802 82.488 134.821C82.5637 134.826 82.6418 134.834 82.7172 134.842C82.9114 134.861 83.1059 134.883 83.2973 134.907C83.4914 134.931 83.6831 134.956 83.8745 134.985C83.9905 135.001 84.112 135.018 84.228 135.039C84.4142 135.069 84.6004 135.101 84.7863 135.136C84.9374 135.163 85.0886 135.196 85.2397 135.228C85.2909 135.236 85.3394 135.247 85.3907 135.258C85.4826 135.276 85.5742 135.295 85.6658 135.317C85.6982 135.325 85.7333 135.333 85.7656 135.341C85.8627 135.363 85.9598 135.384 86.0569 135.409C86.208 135.444 86.3591 135.482 86.5102 135.522C87.8267 135.862 89.1055 136.302 90.3439 136.828C90.4382 136.866 90.5329 136.906 90.6272 136.949C90.727 136.992 90.8268 137.036 90.9266 137.081C91.0616 137.141 91.1992 137.203 91.3314 137.265C91.4663 137.327 91.6013 137.392 91.7362 137.457C91.8684 137.521 92.0033 137.586 92.1355 137.651C92.147 137.659 92.158 137.664 92.1714 137.67Z" fill="#F27272"/>
<path d="M81.1851 141.703C84.8571 141.573 88.5181 141.311 92.1711 140.947V142.566C88.5181 142.928 84.8541 143.195 81.1851 143.322C77.3593 143.454 73.5283 143.44 69.708 143.238V141.622C69.7404 141.625 69.7727 141.625 69.8051 141.627C73.593 141.822 77.392 141.835 81.1851 141.703Z" fill="#F9C5C5"/>
<path d="M69.7083 151.92C77.1789 152.462 84.7008 152.551 92.1714 152.551V154.221C86.4301 154.273 80.6753 154.051 74.9691 153.811C74.0113 153.771 73.0509 153.725 72.093 153.671C71.2972 153.628 70.5038 153.579 69.708 153.525L69.7083 151.92Z" fill="#F9C5C5"/>
<path d="M92.1711 146.203V147.828C88.6988 147.806 85.2347 147.865 81.7517 147.981C77.7345 148.111 73.7225 148.052 69.708 147.925V146.3C73.8925 146.427 78.0743 146.489 82.2643 146.343C85.5745 146.228 88.8716 146.179 92.1711 146.203Z" fill="#F9C5C5"/>
<path d="M94.087 139.632C93.9285 139.632 93.7687 139.592 93.6219 139.506C89.2474 136.944 84.7837 135.645 80.3549 135.645C76.1013 135.645 71.667 136.867 67.1745 139.277C66.7262 139.517 66.1673 139.349 65.9265 138.9C65.686 138.451 65.8544 137.892 66.303 137.652C71.0662 135.097 75.7939 133.802 80.3546 133.802C85.1153 133.802 89.8924 135.186 94.5532 137.915C94.9925 138.173 95.1401 138.737 94.8828 139.176C94.7117 139.47 94.4035 139.632 94.087 139.632Z" fill="#1F404D"/>
<path d="M94.0464 138.55C93.8081 137.173 92.9256 136.934 91.665 136.374C91.0411 141.563 90.5163 146.524 90.1318 151.932C83.8031 151.561 77.4393 151.126 71.1111 151.409C70.6441 146.105 70.5235 140.882 69.7052 135.812C68.9091 136.319 67.4068 137.236 67.1521 138.083C66.9829 138.645 67.0558 154.405 66.4582 157.236C65.2533 162.943 58.6366 200.199 59.8921 201.59C66.6924 209.131 101.629 201.59 101.629 201.59C100.677 190.23 94.9657 161.979 94.4891 156.74C94.1093 152.567 94.2826 139.913 94.0464 138.55Z" fill="#C5FFF9"/>
<path d="M75.1099 206.206C68.3276 206.206 61.9238 205.272 59.2004 202.202C58.7696 201.716 58.1797 201.051 61.3909 180.934C63.0564 170.501 64.9694 159.816 65.5543 157.045C65.9245 155.291 66.0306 147.912 66.1008 143.029C66.1634 138.686 66.182 138.101 66.2673 137.817C66.5821 136.771 67.8318 135.907 69.085 135.113L69.2082 135.035C69.4698 134.868 69.7978 134.844 70.0808 134.971C70.3635 135.099 70.5637 135.359 70.613 135.665C71.1725 139.129 71.4138 142.726 71.6475 146.203C71.741 147.595 71.837 149.027 71.9532 150.453C77.5377 150.262 83.1907 150.597 88.6671 150.922L89.2767 150.958C89.6099 146.49 90.0689 141.912 90.7482 136.264C90.783 135.974 90.9539 135.718 91.2078 135.573C91.4623 135.429 91.77 135.413 92.0368 135.532C92.1594 135.586 92.2781 135.637 92.3927 135.687C93.5039 136.166 94.6527 136.662 94.9527 138.393C95.0654 139.044 95.0898 141.347 95.1233 145.361C95.1567 149.381 95.1984 154.385 95.4049 156.657C95.5692 158.461 96.6743 164.344 97.9542 171.157C99.1471 177.507 100.499 184.704 101.453 190.52C103.014 200.032 102.787 201.435 102.421 202.058C102.218 202.403 101.912 202.924 96.5169 203.995C94.4649 204.403 90.214 205.165 84.8015 205.691C81.7295 205.99 78.3757 206.206 75.1099 206.206ZM60.6949 201.103C63.3451 203.873 70.9663 204.924 82.2056 204.066C91.4107 203.363 99.3445 201.664 100.838 201.009C101.202 198.425 98.048 181.637 96.1429 171.497C94.8011 164.355 93.7414 158.714 93.5692 156.824C93.3556 154.476 93.3155 149.641 93.2799 145.376C93.2549 142.359 93.2289 139.241 93.1365 138.707C93.0495 138.205 92.8844 137.98 92.4298 137.734C91.7914 143.157 91.3619 147.601 91.0496 151.996C91.0137 152.499 90.5815 152.886 90.076 152.851L88.5579 152.761C82.8388 152.422 76.9259 152.07 71.1506 152.329C70.6638 152.348 70.2343 151.981 70.191 151.489C70.0383 149.755 69.9212 148.012 69.8079 146.325C69.6006 143.237 69.4032 140.296 69.0052 137.386C68.5681 137.706 68.1557 138.055 68.0482 138.305C68.0059 138.759 67.9744 140.941 67.944 143.055C67.8686 148.306 67.7651 155.497 67.3579 157.425C65.9547 164.074 60.2167 197.859 60.6949 201.103Z" fill="#1F404D"/>
<path d="M91.3318 121.36C91.3318 131.194 86.6702 145.616 80.9198 145.616C75.1695 145.616 70.5078 131.194 70.5078 121.36C70.5078 111.526 75.1695 110.003 80.9198 110.003C86.6702 110.003 91.3318 111.526 91.3318 121.36Z" fill="#F9DDD2"/>
<path d="M80.9214 146.58C74.3221 146.58 69.5449 131.515 69.5449 121.359C69.5449 110.502 75.2959 109.038 80.9214 109.038C86.547 109.038 92.2979 110.502 92.2979 121.359C92.2979 131.515 87.5208 146.58 80.9214 146.58ZM80.9214 110.967C76.141 110.967 71.4739 111.769 71.4739 121.36C71.4739 131.314 76.1446 144.651 80.9214 144.651C85.698 144.651 90.3692 131.314 90.3692 121.36C90.3692 111.769 85.7018 110.967 80.9214 110.967Z" fill="#1F404D"/>
<path d="M125.008 83.9953C127.294 81.545 130.92 79.901 134.756 79.576C138.591 79.2511 142.577 80.2501 145.471 82.2616C149.819 85.2841 151.371 90.2 150.995 94.7613C150.541 100.271 147.546 105.629 142.695 109.611C137.843 113.594 131.174 116.168 124.21 116.748C119.407 115.845 116.058 112.784 114.753 109.029C113.448 105.274 114.12 101.252 115.49 97.5105C117.246 92.7156 121.258 88.016 125.008 83.9953Z" fill="#F6E2D7"/>
<path d="M124.208 117.712C124.149 117.712 124.089 117.707 124.03 117.696C119.148 116.779 115.339 113.657 113.84 109.346C112.623 105.845 112.866 101.866 114.583 97.1791C116.401 92.2142 120.516 87.3959 124.301 83.3379C126.739 80.7247 130.616 78.9595 134.673 78.6156C138.715 78.2736 142.956 79.3407 146.02 81.4701C150.187 84.3674 152.406 89.3657 151.955 94.841C151.481 100.578 148.329 106.234 143.305 110.357C138.334 114.438 131.403 117.117 124.288 117.709C124.262 117.712 124.235 117.712 124.208 117.712ZM136.187 80.4809C135.735 80.4809 135.284 80.4996 134.835 80.5377C131.242 80.8424 127.832 82.3811 125.711 84.6539C122.058 88.5708 118.093 93.2006 116.393 97.8428C114.837 102.094 114.597 105.65 115.661 108.712C116.918 112.326 120.126 114.959 124.259 115.776C130.947 115.194 137.435 112.68 142.081 108.867C146.703 105.072 149.601 99.9025 150.032 94.6825C150.431 89.8295 148.568 85.591 144.918 83.0541C142.549 81.407 139.364 80.4809 136.187 80.4809Z" fill="#1F404D"/>
<path d="M111.628 106.344C111.243 106.247 110.88 106.078 110.574 105.837C109.554 105.031 109.555 103.725 110.577 102.92C118.202 96.9166 128.296 93.0766 139.001 92.1074C140.435 91.9774 141.733 92.7892 141.897 93.9209C142.063 95.0524 141.033 96.075 139.598 96.205C130.061 97.0685 121.067 100.49 114.273 105.839C113.557 106.402 112.53 106.571 111.628 106.344Z" fill="#1F404D"/>
<path d="M30.0429 83.9312C27.7572 81.5166 24.1311 79.8965 20.2957 79.5762C16.4603 79.2559 12.474 80.2403 9.58036 82.2228C5.23188 85.2015 3.67999 90.0463 4.05624 94.5412C4.51064 99.9712 7.5055 105.252 12.3566 109.176C17.2078 113.1 23.8771 115.638 30.8412 116.209C35.6446 115.32 38.9933 112.303 40.2984 108.602C41.6034 104.901 40.931 100.937 39.5612 97.2506C37.8053 92.5248 33.7933 87.8936 30.0429 83.9312Z" fill="#F6E2D7"/>
<path d="M30.8398 117.173C30.8135 117.173 30.7872 117.172 30.7611 117.17C23.6487 116.587 16.7189 113.946 11.7487 109.926C6.72205 105.859 3.56755 100.281 3.09396 94.6213C2.64175 89.2173 4.86248 84.2847 9.03408 81.427C12.0967 79.3294 16.3363 78.2804 20.3746 78.615C24.4283 78.9537 28.304 80.6928 30.7419 83.2682C34.5282 87.2681 38.6442 92.0175 40.4637 96.9147C42.182 101.539 42.425 105.467 41.2063 108.922C39.7063 113.175 35.8967 116.253 31.0151 117.157C30.9575 117.167 30.8988 117.173 30.8398 117.173ZM18.8606 80.4809C15.6809 80.4809 12.4949 81.3938 10.1241 83.0181C6.47851 85.5155 4.61677 89.686 5.01605 94.4603C5.44604 99.5986 8.34219 104.689 12.9619 108.426C17.6082 112.184 24.0995 114.663 30.7894 115.237C34.9237 114.432 38.1327 111.839 39.3876 108.281C40.45 105.269 40.2108 101.77 38.656 97.5863C36.9571 93.0138 32.9939 88.4525 29.3414 84.5938C27.2205 82.3536 23.8086 80.8368 20.2145 80.5371C19.7647 80.4992 19.3125 80.4809 18.8606 80.4809Z" fill="#1F404D"/>
<path d="M43.4232 105.956C43.8083 105.861 44.1711 105.694 44.4771 105.456C45.4978 104.662 45.4967 103.375 44.4744 102.582C36.8494 96.6651 26.7552 92.8807 16.0506 91.9256C14.6166 91.7975 13.3187 92.5974 13.1541 93.7127C12.9888 94.8278 14.0188 95.8355 15.4538 95.9639C24.9908 96.8151 33.9842 100.187 40.7783 105.458C41.4946 106.013 42.5207 106.18 43.4232 105.956Z" fill="#1F404D"/>
<path d="M139.17 62.4037C139.187 66.7448 138.903 77.1318 136.711 88.4093C134.057 102.077 128.603 117.051 117.502 124.157C94.8259 138.67 66.5669 140.116 41.1081 124.481C30.8733 118.198 24.9806 103.887 21.6855 90.1361C19.1836 79.7058 18.1764 69.5965 17.8978 63.545C17.2843 50.2764 20.2391 38.2598 31.1971 30.3494C35.9923 26.8878 41.505 24.627 47.1275 22.9975C68.1177 16.9109 91.511 14.3856 111.592 22.9111C118.473 25.8331 128.927 29.8448 134.386 35.13C139.95 40.5151 139.167 61.5511 139.17 62.4037Z" fill="#FCE9E0"/>
<path d="M139.17 62.4037C139.187 66.7448 138.903 77.1318 136.711 88.4093C126.332 85.687 116.953 79.9756 108.117 73.9861C106.605 72.9635 104.067 72.1433 104.298 70.3844C98.9681 73.3387 92.6872 74.4501 86.5301 74.3799C80.3728 74.3124 74.289 73.1173 68.3091 71.7144C65.7821 71.1209 63.2465 70.4869 60.6493 70.352C61.6681 62.3417 55.8176 54.3531 57.8239 46.5156C50.9462 53.8973 45.9006 62.393 42.6842 71.8008C38.1986 74.3207 33.7269 76.9297 29.8181 80.2158C26.4974 83.0083 23.5766 86.3295 21.6855 90.1361C19.1836 79.7058 18.1764 69.5965 17.8978 63.545C17.2843 50.2764 20.2391 38.2598 31.1971 30.3494C35.9923 26.8878 41.505 24.627 47.1275 22.9975C68.1177 16.9109 91.511 14.3856 111.592 22.9111C118.473 25.8331 128.927 29.8448 134.386 35.13C139.95 40.5151 139.167 61.5511 139.17 62.4037Z" fill="#F9DDD2"/>
<path d="M79.1666 136.598C65.7825 136.598 52.8152 132.8 40.6048 125.302C19.7753 112.511 17.1652 68.558 16.9359 63.5883C16.2114 47.8733 20.6926 36.7444 30.6351 29.5661C34.9836 26.4267 40.2913 23.9746 46.8619 22.0695C68.9194 15.6744 83.9401 13.5189 104.824 19.4892C114.046 22.1254 130.433 28.5405 135.146 34.533C139.128 39.5959 140.909 49.3242 140.162 61.926C140.147 62.1689 140.137 62.3307 140.136 62.4001C140.17 70.4674 139.259 111.377 118.024 124.968C106.492 132.348 93.4708 136.366 80.3664 136.588C79.9663 136.595 79.5664 136.598 79.1666 136.598ZM81.3769 17.9152C70.7379 17.9152 60.2948 20.183 47.3991 23.9225C41.0446 25.7647 35.9302 28.1223 31.7641 31.1303C22.3909 37.8975 18.1707 48.4859 18.8629 63.4995C19.0872 68.3649 21.6307 111.387 41.6142 123.658C65.5417 138.352 93.7176 138.235 116.984 123.343C125.384 117.967 131.449 107.355 135.011 91.8018C138.036 78.5945 138.223 65.9629 138.208 62.4061C138.207 62.3104 138.216 62.1637 138.237 61.8119C138.956 49.6815 137.321 40.4175 133.631 35.7256C129.435 30.3905 113.95 24.1037 104.294 21.3436C96.0019 18.9731 88.6435 17.9152 81.3769 17.9152Z" fill="#1F404D"/>
<path d="M55.762 110.946C57.2212 105.077 53.4214 99.0799 47.2749 97.5517C41.1284 96.0235 34.9627 99.5423 33.5035 105.411C32.0443 111.28 35.8441 117.277 41.9906 118.805C48.1371 120.333 54.3027 116.815 55.762 110.946Z" fill="#F9B9B9"/>
<path d="M124.596 110.141C126.055 104.272 122.255 98.2752 116.109 96.747C109.962 95.2188 103.797 98.7376 102.337 104.607C100.878 110.476 104.678 116.472 110.825 118.001C116.971 119.529 123.137 116.01 124.596 110.141Z" fill="#F9B9B9"/>
<path d="M82.2916 92.8023C82.2636 93.9028 80.2916 94.7494 77.8874 94.6931C75.4833 94.6369 73.5568 93.699 73.5848 92.5986C73.6127 91.4981 75.5847 90.6515 77.9889 90.7077C80.3931 90.7639 82.3196 91.7018 82.2916 92.8023Z" fill="#EFA29A"/>
<path d="M100.294 98.203C107.45 98.203 113.252 91.9663 113.252 84.2729C113.252 76.5795 107.45 70.3428 100.294 70.3428C93.137 70.3428 87.3354 76.5795 87.3354 84.2729C87.3354 91.9663 93.137 98.203 100.294 98.203Z" fill="white"/>
<path d="M90.8114 82.2315C89.7087 87.59 93.0614 92.8492 98.299 93.9771C103.198 95.0321 108.013 92.0994 109.514 87.3311L103.924 85.0254L109.923 85.4027C110.495 80.3733 107.231 75.6349 102.292 74.5711C97.0543 73.443 91.9138 76.873 90.8114 82.2315Z" fill="#1F404D"/>
<path d="M95.1369 85.3372C92.9247 84.8609 92.1975 88.3774 94.4133 88.8545C96.6255 89.3309 97.3527 85.8144 95.1369 85.3372Z" fill="white"/>
<path d="M113.537 87.1197C113.526 87.1197 113.514 87.1197 113.503 87.1192C113.047 87.1011 112.692 86.7166 112.71 86.2603C112.856 82.5768 111.709 78.9103 109.564 76.2012C107.301 73.3451 103.892 71.5228 100.445 71.3273C96.8881 71.1252 93.2573 72.7475 91.2003 75.4605C90.9244 75.8241 90.4056 75.8951 90.0419 75.6195C89.6783 75.3437 89.607 74.8251 89.8829 74.4612C92.2997 71.2744 96.3822 69.4398 100.538 69.6767C104.45 69.8988 108.308 71.9539 110.859 75.1745C113.247 78.1888 114.524 82.2535 114.362 86.3261C114.345 86.7709 113.978 87.1197 113.537 87.1197Z" fill="#1F404D"/>
<path d="M105.825 72.8939C105.593 72.8939 105.364 72.7974 105.2 72.609C104.901 72.264 104.938 71.7421 105.283 71.4429C106.267 70.589 106.834 69.2285 107.335 68.0276C107.511 67.6064 107.995 67.4084 108.416 67.5829C108.837 67.7586 109.037 68.2427 108.861 68.6642C108.29 70.0323 107.643 71.5833 106.366 72.6915C106.209 72.8275 106.016 72.8939 105.825 72.8939Z" fill="#1F404D"/>
<path d="M108.456 74.6584C108.081 74.6584 107.741 74.4017 107.652 74.0211C107.548 73.5766 107.823 73.1315 108.267 73.027C108.842 72.8916 109.319 72.4895 109.618 72.1761C110.047 71.7258 110.409 71.1601 110.759 70.613C111.004 70.2285 111.515 70.1158 111.9 70.3615C112.285 70.6072 112.398 71.1184 112.152 71.5034C111.76 72.1168 111.354 72.7509 110.815 73.3166C110.165 73.9989 109.415 74.4552 108.646 74.6365C108.582 74.6513 108.518 74.6584 108.456 74.6584Z" fill="#1F404D"/>
<path d="M113.374 93.237C113.227 93.237 113.078 93.1978 112.943 93.1155L111.378 92.159C110.989 91.921 110.866 91.4123 111.104 91.0226C111.342 90.6329 111.851 90.5104 112.24 90.7484L113.805 91.7049C114.195 91.943 114.318 92.4516 114.08 92.8413C113.924 93.0963 113.652 93.237 113.374 93.237Z" fill="#1F404D"/>
<path d="M110.314 95.8084C110.143 95.8084 109.969 95.755 109.821 95.6445L108.695 94.8058C108.329 94.5335 108.253 94.0155 108.525 93.6492C108.798 93.2831 109.316 93.2076 109.682 93.4799L110.808 94.3185C111.174 94.5908 111.25 95.1089 110.978 95.4752C110.816 95.6933 110.566 95.8084 110.314 95.8084Z" fill="#1F404D"/>
<path d="M106.697 98.0816C106.444 98.0816 106.195 97.9659 106.032 97.7471C105.688 97.2828 105.412 96.7749 105.211 96.238C105.051 95.8105 105.268 95.3341 105.695 95.174C106.123 95.0135 106.599 95.2305 106.759 95.6583C106.906 96.051 107.109 96.4226 107.361 96.7626C107.632 97.1293 107.555 97.647 107.189 97.919C107.041 98.0287 106.868 98.0816 106.697 98.0816Z" fill="#1F404D"/>
<path d="M56.072 98.204C63.2286 98.204 69.0302 91.9673 69.0302 84.2739C69.0302 76.5805 63.2286 70.3438 56.072 70.3438C48.9154 70.3438 43.1138 76.5805 43.1138 84.2739C43.1138 91.9673 48.9154 98.204 56.072 98.204Z" fill="white"/>
<path d="M65.5572 82.2315C66.6599 87.59 63.3071 92.8492 58.0696 93.9771C53.171 95.0321 48.3558 92.0994 46.8547 87.3311L52.444 85.0254L46.4452 85.4027C45.8734 80.3733 49.1374 75.6349 54.0763 74.5711C59.3143 73.443 64.4548 76.873 65.5572 82.2315Z" fill="#1F404D"/>
<path d="M61.2287 85.3372C63.4409 84.8609 64.1682 88.3774 61.9524 88.8545C59.7402 89.3309 59.0129 85.8144 61.2287 85.3372Z" fill="white"/>
<path d="M42.8289 87.1199C42.3874 87.1199 42.021 86.7714 42.0035 86.3263C41.8417 82.2537 43.1185 78.1893 45.5062 75.1747C48.0574 71.9541 51.9158 69.8988 55.8272 69.6769C59.9843 69.4386 64.0659 71.2743 66.4824 74.4614C66.7583 74.8253 66.687 75.3439 66.3231 75.6198C65.9595 75.8959 65.4409 75.8241 65.165 75.4607C63.108 72.748 59.4775 71.1237 55.9207 71.3275C52.473 71.5233 49.0644 73.3456 46.802 76.2014C44.6558 78.9108 43.5087 82.5773 43.6552 86.2605C43.6733 86.7168 43.3181 87.1013 42.8621 87.1194C42.8511 87.1199 42.8399 87.1199 42.8289 87.1199Z" fill="#1F404D"/>
<path d="M50.5415 72.894C50.3495 72.894 50.1565 72.8276 50.0001 72.6919C48.722 71.5829 48.0473 69.9646 47.5052 68.6642C47.3297 68.243 47.5288 67.759 47.9503 67.5832C48.3723 67.408 48.8558 67.6068 49.0313 68.0283C49.5315 69.2283 50.0986 70.5888 51.0834 71.4433C51.4284 71.7424 51.4654 72.2646 51.1662 72.6093C51.0028 72.7974 50.7729 72.894 50.5415 72.894Z" fill="#1F404D"/>
<path d="M47.908 74.6584C47.8452 74.6584 47.7816 74.6513 47.7179 74.6362C46.9493 74.4552 46.1992 73.9989 45.5488 73.3164C45.0094 72.7509 44.604 72.1168 44.2122 71.5034C43.9664 71.1184 44.0789 70.6072 44.4636 70.3615C44.8481 70.1158 45.3593 70.2285 45.6053 70.613C45.9549 71.1601 46.3166 71.7258 46.7455 72.1758C47.0444 72.4895 47.5213 72.8916 48.0969 73.027C48.5412 73.1315 48.8168 73.5766 48.712 74.0211C48.6224 74.4017 48.2829 74.6584 47.908 74.6584Z" fill="#1F404D"/>
<path d="M42.9925 93.237C42.7139 93.237 42.4422 93.0963 42.2864 92.8413C42.0484 92.4516 42.1712 91.943 42.5609 91.7049L44.1259 90.7484C44.5151 90.5104 45.0243 90.6329 45.2623 91.0226C45.5004 91.4123 45.3775 91.921 44.9881 92.159L43.4228 93.1155C43.2881 93.1978 43.1395 93.237 42.9925 93.237Z" fill="#1F404D"/>
<path d="M46.0504 95.8084C45.7981 95.8084 45.5491 95.6932 45.3868 95.4754C45.1142 95.1093 45.1899 94.5913 45.5563 94.3187L46.6825 93.4801C47.0484 93.2076 47.5664 93.283 47.8392 93.6494C48.1118 94.0155 48.0361 94.5335 47.6698 94.8061L46.5435 95.6447C46.3951 95.7549 46.2221 95.8084 46.0504 95.8084Z" fill="#1F404D"/>
<path d="M49.6671 98.0825C49.496 98.0825 49.3235 98.0295 49.1757 97.9198C48.8091 97.6481 48.732 97.1303 49.0038 96.7634C49.2561 96.4231 49.4585 96.0515 49.6055 95.6591C49.7656 95.2318 50.2425 95.0146 50.6692 95.1748C51.0967 95.3346 51.3136 95.811 51.1538 96.2388C50.9527 96.7757 50.6763 97.2834 50.3322 97.7479C50.1698 97.9667 49.92 98.0825 49.6671 98.0825Z" fill="#1F404D"/>
<path d="M145.378 65.1523C144.596 75.9387 141.531 84.3699 138.712 86.5284C136.612 85.9563 134.696 84.9096 132.802 83.8736C130.776 82.7621 128.75 81.6531 126.724 80.5444C124.549 79.3545 122.362 78.1539 120.448 76.6108C116.77 73.6431 110.405 69.2184 109.6 64.6777C107.681 53.8642 105.371 42.8107 99.0445 33.6701C102.385 44.7534 104.293 56.3761 103.474 67.8856C102.14 67.8074 101.647 67.7238 100.314 67.6454C99.3568 55.9363 96.5906 43.4176 94.0241 31.9325C96.385 43.9249 97.6656 56.4326 96.6976 68.6032C93.8385 70.5108 87.7544 70.8966 84.2736 70.8829C79.1575 70.864 76.1914 69.7013 71.5287 67.6777C71.9115 55.124 72.7389 42.3034 73.1214 29.7496C67.7775 41.9148 65.681 55.7174 66.213 68.9079C60.0699 71.0826 53.0206 70.7074 46.7566 68.8701C46.1571 57.0071 49.1344 45.1038 55.0298 34.6573C46.6241 43.1828 41.0298 57.2986 40.0928 68.9943C30.5248 77.6277 24.7166 80.2907 15.0758 84.7503C10.8885 78.5828 8.06861 52.7039 19.7163 31.3199C28.4456 15.2859 45.3103 1.77998 75.8316 1.00555C135.895 -0.518899 147.269 39.1547 145.378 65.1523Z" fill="#3B6A82"/>
<path d="M144.84 65.1528C144.057 75.9391 140.993 84.3703 138.173 86.5288C136.074 85.9568 134.158 84.91 132.263 83.874C130.237 82.7626 128.211 81.6536 126.185 80.5448C124.01 79.3549 121.823 78.1544 119.91 76.6113C116.232 73.6435 109.866 69.2188 109.062 64.6781C107.142 53.8646 104.832 42.8112 98.5059 33.6705C101.846 44.7538 103.754 56.3766 102.935 67.8861C101.601 67.8079 101.109 67.7243 99.775 67.6458C98.8183 55.9367 96.0521 43.4181 93.4856 31.933C95.8467 43.9254 97.1271 56.4331 96.159 68.6037C93.2999 70.5113 87.2158 70.8971 83.735 70.8834C78.6189 70.8645 75.6529 69.7017 70.9901 67.6782C71.373 55.1244 72.2003 42.3038 72.5829 29.7501C67.2389 41.9153 65.1424 55.7179 65.6744 68.9084C59.5314 71.083 52.482 70.7079 46.2177 68.8705C45.6182 57.0076 48.5956 45.1043 54.4913 34.6577C46.0855 43.1833 40.4912 57.2991 39.5542 68.9948C29.9863 77.6281 24.1781 80.2912 14.5372 84.7507C10.35 78.5832 7.53004 52.7043 19.1777 31.3204C19.0793 31.6629 18.9808 32.0029 18.8821 32.343C17.2301 38.1084 15.885 44.017 15.916 49.9985C15.9525 56.7273 17.7649 63.4397 21.139 69.3376C22.2787 68.6495 23.5056 68.118 24.803 67.7728C24.1136 55.1195 30.0288 42.6439 38.8733 33.2282C32.1025 42.1936 30.7942 53.9726 31.7394 65.0047C32.032 55.5051 35.9324 46.2728 41.932 38.7076C47.9317 31.1424 55.9546 25.1852 64.7036 20.7175C62.0247 26.3562 59.3624 32.0356 57.6375 38.0061C55.9126 43.9794 55.147 50.3007 56.3149 56.3928C57.4829 56.4224 57.9864 56.792 59.1516 56.8216C59.3232 56.8244 59.5061 56.8271 59.6553 56.7487C59.9142 56.6083 59.9847 56.2902 60.0297 56.0094C60.9077 50.519 62.1459 45.0826 63.7359 39.7406C65.9339 32.3591 68.8322 24.9368 68.3764 17.2748C77.2434 28.609 80.9639 43.5151 78.4086 57.4718C82.247 46.3562 82.8465 34.782 80.1983 23.3534C85.4352 33.5463 88.2436 44.875 88.3563 56.2334C91.6095 42.1771 90.5683 26.9796 86.0602 13.2441C89.0798 15.1056 91.5166 17.6957 93.9172 20.2562C99.3484 26.0461 104.85 31.9385 108.382 38.9478C111.148 44.4437 112.611 50.4439 113.979 56.4037C115.794 46.8449 115.929 37.3965 112.256 28.3422C120.62 37.7311 125.618 49.8233 126.228 62.1557C128.755 65.4662 132.121 68.1452 136.027 69.8207C136.826 58.9264 137.729 48.0967 134.772 37.5503C138.967 45.4337 139.893 64.1521 140.175 64.4653C140.368 64.6806 143.531 65.2093 144.84 65.1528Z" fill="#2E6175"/>
<path d="M138.171 87.4932C138.086 87.4932 138.001 87.4823 137.917 87.4592C135.698 86.8537 133.716 85.7686 131.8 84.7188L125.72 81.3891C123.542 80.197 121.291 78.9638 119.302 77.3601C118.839 76.9866 118.333 76.5895 117.801 76.1719C114.035 73.2189 108.878 69.1743 108.111 64.8458C106.596 56.3063 104.897 48.002 101.357 40.5556C103.649 50.2428 104.502 59.432 103.896 67.954C103.858 68.4805 103.404 68.8762 102.877 68.8483C102.196 68.8082 101.725 68.7663 101.269 68.7259C100.807 68.6851 100.37 68.6464 99.7173 68.608C99.2374 68.5798 98.8519 68.2027 98.8129 67.7239C98.5069 63.9784 98.0053 60.1085 97.388 56.2342C97.5292 60.5242 97.4387 64.6618 97.1187 68.6807C97.0951 68.9752 96.938 69.2429 96.692 69.4069C93.3423 71.6394 86.5096 71.8571 83.7302 71.8475C78.3997 71.8286 75.2702 70.5869 70.6055 68.5625C70.2435 68.4054 70.0137 68.0431 70.0255 67.6485C70.2161 61.3631 70.5238 54.9091 70.8216 48.6676C71.0311 44.273 71.2456 39.7729 71.4208 35.304C67.8053 45.5285 66.1583 57.0155 66.6374 68.8683C66.6544 69.2909 66.3944 69.6753 65.9957 69.8163C60.1601 71.8831 53.0391 71.8758 45.9442 69.7971C45.5507 69.6816 45.2729 69.3301 45.2523 68.9204C44.7916 59.8038 46.381 50.6341 49.8813 41.9917C44.8171 49.7442 41.2584 59.7745 40.5141 69.0717C40.4944 69.3175 40.3817 69.5459 40.1988 69.711C30.5757 78.3942 24.7511 81.0883 15.1014 85.5514L14.9404 85.6257C14.5121 85.8242 14.0031 85.6828 13.7377 85.2923C11.3313 81.7478 9.80573 73.3204 9.94148 64.3215C10.0632 56.2487 11.4961 44.1178 17.632 32.172C22.4163 22.8575 29.2106 15.4198 37.8261 10.0665C47.9277 3.78939 60.5245 0.416898 75.2666 0.0425722C94.2544 -0.438429 109.822 3.15839 121.534 10.7376C131.299 17.0572 138.283 26.018 142.292 37.3706C146.838 50.245 146.22 62.6081 145.447 68.8321C144.352 77.65 141.664 85.0698 138.757 87.2955C138.587 87.4249 138.381 87.4932 138.171 87.4932ZM98.5036 32.7051C98.8118 32.7051 99.1121 32.8532 99.2972 33.1209C105.687 42.3551 108.011 53.2377 110.01 64.5091C110.649 68.1117 115.471 71.8931 118.991 74.654C119.531 75.0774 120.044 75.4797 120.514 75.8587C122.368 77.3543 124.543 78.5456 126.646 79.6974L132.726 83.0271C134.396 83.9414 136.117 84.8845 137.936 85.4549C139.975 83.4445 142.46 77.2419 143.534 68.5935C144.286 62.5382 144.888 50.5129 140.474 38.0118C134.455 20.9675 118.262 0.881158 75.3163 1.96986C41.8165 2.82052 26.3904 19.3424 19.3482 33.0529C13.3828 44.6671 11.9892 56.4829 11.8707 64.35C11.7328 73.494 13.2857 80.4362 14.9182 83.5109C23.938 79.3368 29.5929 76.6334 38.6241 68.5332C39.732 55.9369 45.8027 42.0965 53.8026 33.98C54.1423 33.6356 54.6839 33.5959 55.07 33.8868C55.4562 34.178 55.567 34.7095 55.3295 35.131C49.5308 45.4086 46.7082 56.8051 47.1481 68.1336C53.3635 69.8368 59.5359 69.8676 64.6838 68.2235C64.2203 54.2964 66.641 40.8734 71.6975 29.3623C71.8834 28.9397 72.3422 28.7074 72.7931 28.8094C73.2433 28.9112 73.5587 29.3176 73.5444 29.7794C73.3539 36.0645 73.0462 42.5182 72.7484 48.7595C72.4615 54.7764 72.165 60.9904 71.9739 67.0529C76.2017 68.8754 78.9953 69.9021 83.7374 69.9188C83.7922 69.9188 83.8476 69.9191 83.903 69.9191C87.8483 69.9191 92.7382 69.4208 95.2339 68.0376C96.0437 57.1918 95.161 45.4363 92.5374 32.1186C92.4354 31.6008 92.7686 31.0971 93.2852 30.9885C93.8027 30.8799 94.3092 31.2067 94.4247 31.7218C96.7441 42.0937 99.6178 54.9436 100.665 66.7394C100.947 66.7613 101.195 66.7833 101.439 66.805C101.636 66.8222 101.828 66.8395 102.034 66.856C102.616 56.7514 101.119 45.6859 97.5808 33.9482C97.4437 33.4938 97.6578 33.0071 98.0856 32.8011C98.2197 32.7361 98.3624 32.7051 98.5036 32.7051Z" fill="#1F404D"/>
<path d="M49.5494 62.2997C52.6619 60.9373 56.0736 60.3044 59.4815 60.0104C60.0371 59.9624 60.6371 59.933 61.1094 60.2177C61.7187 60.5852 61.9088 61.3481 61.9573 62.0367C62.0228 62.9663 61.9268 63.9064 61.6748 64.8061C61.5928 65.0985 61.4834 65.4031 61.2399 65.5962C61.0323 65.7607 60.7575 65.82 60.4929 65.8691C56.4567 66.6196 52.2218 66.2415 48.2762 67.3485C46.4013 67.8745 44.6311 68.7268 42.7257 69.139C40.4962 69.6211 43.914 66.0583 44.4224 65.5893C45.912 64.2168 47.6726 63.1213 49.5494 62.2997Z" fill="#1F404D"/>
<path d="M101.87 60.6131C98.7211 59.3308 95.293 58.7853 91.878 58.5788C91.3213 58.5451 90.7204 58.5311 90.2567 58.8278C89.6578 59.2109 89.4888 59.9782 89.4595 60.6679C89.4197 61.5989 89.5418 62.5363 89.819 63.4295C89.909 63.7196 90.0272 64.0215 90.2756 64.2083C90.4876 64.3676 90.764 64.4197 91.0298 64.4619C95.0854 65.1088 99.3082 64.6226 103.283 65.6285C105.172 66.1065 106.966 66.9133 108.882 67.2764C111.124 67.7014 107.608 64.2269 107.087 63.7714C105.56 62.4362 103.769 61.3862 101.87 60.6131Z" fill="#1F404D"/>
<path d="M152.877 118.415C151.873 118.415 151.023 118.262 150.285 117.949C149.506 117.619 148.773 117.083 147.98 116.263C145.711 113.917 144.293 110.704 144.089 107.448C144.056 106.916 144.46 106.458 144.992 106.425C145.522 106.389 145.981 106.796 146.014 107.327C146.19 110.133 147.412 112.901 149.366 114.922C149.974 115.55 150.505 115.948 151.037 116.173C151.577 116.402 152.242 116.505 153.073 116.484C155.387 116.43 157.444 115.463 158.577 113.899C158.889 113.467 159.492 113.371 159.923 113.683C160.355 113.995 160.451 114.598 160.139 115.029C158.656 117.08 156.031 118.344 153.118 118.412C153.037 118.414 152.956 118.415 152.877 118.415Z" fill="#1F404D"/>
<path d="M5.23331 118.811C3.08883 118.811 0.877163 117.632 -0.541709 115.614C-0.848025 115.179 -0.743268 114.577 -0.307515 114.271C0.128239 113.964 0.729607 114.069 1.03592 114.505C2.14628 116.084 4.31902 117.352 6.32173 116.718C7.20147 116.441 7.98247 115.821 8.6302 115.251C10.6041 113.515 11.7754 111.737 12.1116 109.966C12.2109 109.442 12.7143 109.097 13.2389 109.198C13.7622 109.297 14.1058 109.802 14.0065 110.325C13.5886 112.529 12.2081 114.674 9.90401 116.699C9.10518 117.402 8.12399 118.172 6.90257 118.558C6.36151 118.729 5.7996 118.811 5.23331 118.811Z" fill="#1F404D"/>
<path d="M77.5516 106.327C74.1772 106.327 70.8025 105.656 67.6883 104.296C67.2699 104.114 67.079 103.627 67.2617 103.208C67.4443 102.79 67.9311 102.598 68.3501 102.781C75.2081 105.775 83.4213 105.189 89.784 101.25C90.172 101.01 90.6813 101.13 90.922 101.518C91.1623 101.906 91.0424 102.415 90.6541 102.655C86.7258 105.087 82.1392 106.327 77.5516 106.327Z" fill="#1F404D"/>
<path d="M67.0698 105.789C66.9691 105.789 66.8668 105.771 66.7673 105.732C66.3425 105.565 66.1336 105.085 66.3008 104.66C66.8907 103.161 67.9832 101.892 69.3777 101.085C69.7732 100.856 70.2788 100.991 70.5073 101.386C70.736 101.782 70.6008 102.287 70.2059 102.516C69.1334 103.137 68.2929 104.113 67.8393 105.266C67.7112 105.591 67.3997 105.789 67.0698 105.789Z" fill="#1F404D"/>
<path d="M91.2659 104.777C90.8288 104.777 90.4635 104.435 90.4413 103.993C90.3796 102.79 89.6194 101.609 88.5496 101.055C88.1441 100.845 87.9859 100.346 88.1959 99.9406C88.406 99.5353 88.9053 99.3771 89.3101 99.5869C90.9083 100.415 92.0003 102.111 92.0925 103.909C92.1158 104.365 91.7653 104.753 91.3092 104.776C91.2947 104.777 91.2802 104.777 91.2659 104.777Z" fill="#1F404D"/>
<path d="M88.7371 158.54C88.4563 158.258 87.8124 158.457 87.236 158.476C86.4495 158.502 85.6624 158.505 84.8754 158.498C83.2999 158.484 81.7253 158.425 80.1498 158.41C77.3239 158.383 74.4922 158.339 71.6862 157.967C71.3753 157.926 71.2398 158.203 71.2922 158.444C71.2853 158.471 71.2801 158.498 71.2779 158.528C71.1062 161.001 70.5887 163.681 71.1855 166.126C71.6544 168.046 72.6836 169.852 74.3896 170.917C76.3328 172.131 79.0864 172.093 81.2797 171.82C82.5266 171.664 83.7779 171.387 84.882 170.787C87.7362 169.236 88.1588 165.849 88.4464 162.923C88.524 162.135 88.6016 161.347 88.679 160.558C88.7228 160.113 89.0769 158.881 88.7371 158.54ZM87.6287 162.498C87.576 163.038 87.533 163.579 87.4767 164.119C87.3454 165.38 87.138 166.654 86.5967 167.801C85.9306 169.212 84.8005 170.204 83.2859 170.593C82.166 170.881 80.9893 171.147 79.8301 171.179C78.3416 171.221 76.6007 171.117 75.2208 170.519C73.6437 169.836 72.5868 167.999 72.1066 166.426C71.7375 165.217 71.7112 164.007 71.7951 162.755C71.8829 161.445 71.9769 160.135 72.0683 158.825C75.2748 159.213 78.5091 159.282 81.7357 159.289C83.3342 159.293 84.933 159.281 86.5315 159.284C86.874 159.285 87.3755 159.192 87.7019 159.289C87.9865 159.374 87.8779 159.234 87.9764 159.485C88.0592 159.699 87.9246 160.068 87.9013 160.292C87.8607 160.679 87.8017 161.072 87.7474 161.465C87.7 161.808 87.6621 162.153 87.6287 162.498Z" fill="#5AE0CD"/>
<path d="M72.4456 166.76C72.3401 166.453 72.113 166.205 71.8769 165.981C71.2239 165.363 70.4745 164.756 69.6515 164.394C70.2573 164.586 70.8639 164.777 71.471 164.97C71.7549 165.06 72.0941 165.142 72.3277 164.956C72.4898 164.827 72.5457 164.598 72.512 164.394C72.4786 164.19 72.3689 164.006 72.2463 163.839C71.629 162.993 70.6576 161.898 69.6134 161.821C70.1341 161.46 70.5861 161.002 70.9428 160.478C71.0929 160.259 71.2275 160.021 71.261 159.758C71.2944 159.495 71.2069 159.202 70.9884 159.054C70.7934 158.921 70.5299 158.925 70.3083 159.007C70.0875 159.088 69.8975 159.236 69.7135 159.383C69.094 159.871 68.4838 160.342 67.8657 160.83C67.1919 160.477 66.5028 160.126 65.8002 159.777L62.4858 167.785C63.7906 167.773 64.884 167.69 65.707 167.567C65.6606 168.367 66.0125 169.331 65.9661 170.131C65.9508 170.416 65.9689 170.766 66.2233 170.895C66.3703 170.969 66.5565 170.937 66.6955 170.847C66.8338 170.756 66.9344 170.618 67.0224 170.477C67.5366 169.652 67.8191 168.486 67.575 167.544C67.7766 168.303 68.104 169.028 68.5411 169.68C68.6708 169.874 68.814 170.064 69.0076 170.196C69.2009 170.326 69.4546 170.386 69.6723 170.302C69.8722 170.223 70.0124 170.034 70.0755 169.829C70.1394 169.624 70.135 169.405 70.1152 169.191C70.0225 168.198 69.8328 166.974 69.2284 166.161C69.7319 166.684 70.3033 167.141 70.9234 167.514C71.129 167.637 71.3424 167.752 71.5774 167.797C71.8105 167.843 72.071 167.808 72.2545 167.654C72.5016 167.446 72.5498 167.066 72.4456 166.76Z" fill="#F6E2D7"/>
<path d="M66.4027 171.746C66.2121 171.746 66.0242 171.704 65.8542 171.617C65.5068 171.44 65.1028 171.031 65.1577 170.085C65.1752 169.779 65.1089 169.395 65.0384 168.988C65.009 168.819 64.9794 168.647 64.9545 168.474C64.2206 168.545 63.3856 168.586 62.4924 168.594C62.4902 168.594 62.4878 168.594 62.4853 168.594C62.2166 168.594 61.9651 168.46 61.8143 168.237C61.6623 168.012 61.6335 167.726 61.7372 167.475L65.0502 159.47C65.136 159.263 65.3038 159.101 65.5139 159.022C65.724 158.944 65.9571 158.955 66.1581 159.055C66.7704 159.36 67.2958 159.625 67.7749 159.872C67.9469 159.737 68.1186 159.603 68.2902 159.469C68.5963 159.23 68.9023 158.991 69.2108 158.748C69.4211 158.582 69.6833 158.375 70.0291 158.248C70.5203 158.067 71.0484 158.117 71.4411 158.384C71.8947 158.692 72.1385 159.271 72.0628 159.861C72.0055 160.308 71.7913 160.669 71.6114 160.933C71.4625 161.152 71.3002 161.36 71.1249 161.556C71.7145 161.949 72.3074 162.552 72.899 163.361C73.0448 163.561 73.2456 163.871 73.3097 164.262C73.3945 164.778 73.2108 165.286 72.8304 165.589C72.7904 165.621 72.7497 165.649 72.7089 165.675C72.9104 165.9 73.0983 166.168 73.2107 166.498C73.4351 167.154 73.2582 167.869 72.7709 168.275C72.4157 168.572 71.9249 168.687 71.4241 168.592C71.2072 168.55 71.0139 168.477 70.8362 168.39C70.8715 168.641 70.8979 168.884 70.9196 169.116C70.9434 169.374 70.9566 169.715 70.8474 170.068C70.7037 170.532 70.382 170.892 69.9652 171.055C69.5168 171.23 68.9895 171.159 68.5543 170.866C68.327 170.713 68.1534 170.522 68.0119 170.335C67.9227 170.532 67.8213 170.723 67.708 170.905C67.5874 171.099 67.413 171.345 67.133 171.526C66.9092 171.672 66.6536 171.746 66.4027 171.746ZM67.5747 166.735C67.9332 166.735 68.2606 166.975 68.3568 167.338C68.5354 168.013 68.8233 168.649 69.2122 169.229C69.2352 169.263 69.273 169.32 69.3164 169.375C69.3145 169.329 69.3109 169.288 69.3087 169.266C69.2338 168.461 69.0767 167.314 68.579 166.645C68.3242 166.302 68.3791 165.821 68.7048 165.544C69.0301 165.268 69.5147 165.293 69.8111 165.6C70.2691 166.075 70.7838 166.486 71.3408 166.821C71.4524 166.888 71.5676 166.953 71.6655 166.985C71.6029 166.848 71.4505 166.693 71.321 166.57C70.5702 165.859 69.9362 165.403 69.3254 165.135C68.9319 164.962 68.7422 164.511 68.8941 164.108C69.046 163.706 69.4856 163.493 69.8958 163.622L71.4389 164.111C70.4912 162.878 69.8555 162.651 69.5533 162.629C69.2113 162.604 68.9226 162.366 68.8321 162.035C68.7416 161.705 68.8694 161.353 69.151 161.157C69.5933 160.85 69.971 160.468 70.274 160.023C70.2888 160.001 70.314 159.964 70.3412 159.92C70.2995 159.952 70.257 159.985 70.2148 160.019C69.9035 160.264 69.5955 160.505 69.2876 160.745C68.9815 160.984 68.6752 161.223 68.367 161.467C68.1164 161.664 67.7728 161.696 67.49 161.548C67.0992 161.343 66.6832 161.129 66.2146 160.893L63.7114 166.941C64.4137 166.906 65.0493 166.848 65.5871 166.768C65.8282 166.731 66.0728 166.806 66.2527 166.97C66.4326 167.135 66.5288 167.372 66.5148 167.615C66.4973 167.921 66.5636 168.305 66.6341 168.712C66.6618 168.872 66.6898 169.033 66.7137 169.195C66.8631 168.686 66.8979 168.158 66.7915 167.748C66.6796 167.315 66.9385 166.875 67.3702 166.762C67.4382 166.744 67.507 166.735 67.5747 166.735Z" fill="#1F404D"/>
<path d="M87.7148 166.228C87.8604 165.938 88.1182 165.722 88.3823 165.532C89.1117 165.006 89.9355 164.504 90.7994 164.255C90.1733 164.365 89.5467 164.473 88.9195 164.584C88.6263 164.635 88.2792 164.671 88.0724 164.455C87.929 164.306 87.904 164.072 87.9644 163.874C88.0247 163.676 88.1577 163.509 88.3014 163.36C89.0259 162.603 90.1341 161.648 91.1794 161.71C90.7113 161.283 90.3244 160.769 90.0405 160.202C89.9213 159.965 89.8193 159.711 89.8212 159.446C89.8228 159.181 89.9487 158.902 90.1851 158.785C90.3959 158.679 90.6568 158.718 90.8652 158.829C91.073 158.939 91.2417 159.111 91.4048 159.281C91.9538 159.846 92.496 160.395 93.0437 160.961C93.7583 160.701 94.4883 160.444 95.2312 160.192L97.4503 168.569C96.1586 168.384 95.0861 168.157 94.2867 167.925C94.2261 168.724 93.7493 169.633 93.6889 170.432C93.6662 170.716 93.6017 171.061 93.3322 171.154C93.1764 171.209 92.9965 171.152 92.8703 171.044C92.7456 170.936 92.6638 170.785 92.5958 170.634C92.1963 169.747 92.0712 168.555 92.4387 167.653C92.1381 168.378 91.7169 169.053 91.197 169.641C91.0426 169.816 90.8756 169.985 90.6658 170.09C90.4568 170.193 90.1974 170.22 89.9928 170.107C89.8053 170.002 89.6915 169.797 89.6561 169.585C89.6204 169.373 89.6536 169.157 89.7016 168.947C89.9259 167.975 90.2767 166.787 90.9839 166.062C90.4154 166.513 89.7882 166.889 89.1238 167.178C88.9036 167.272 88.6768 167.358 88.4379 167.371C88.201 167.385 87.9474 167.316 87.7861 167.139C87.5678 166.9 87.5706 166.517 87.7148 166.228Z" fill="#F6E2D7"/>
<path d="M93.2065 171.984C92.9021 171.984 92.5936 171.871 92.344 171.658C92.0893 171.44 91.9494 171.173 91.8559 170.965C91.7679 170.77 91.6927 170.567 91.631 170.361C91.4662 170.527 91.2691 170.693 91.0228 170.815C90.5519 171.047 90.0202 171.047 89.5995 170.814C89.2079 170.597 88.9373 170.198 88.8566 169.718C88.7952 169.354 88.8536 169.018 88.9118 168.766C88.9639 168.539 89.0228 168.3 89.0911 168.057C88.9038 168.119 88.7025 168.166 88.4823 168.178C87.9722 168.208 87.5022 168.027 87.189 167.686C86.7604 167.217 86.6803 166.486 86.9897 165.865C87.1454 165.553 87.3667 165.313 87.5968 165.116C87.5598 165.086 87.5233 165.052 87.488 165.015C87.1507 164.663 87.0366 164.135 87.1896 163.635C87.305 163.256 87.5456 162.975 87.7164 162.797C88.4105 162.074 89.0782 161.556 89.7144 161.245C89.5672 161.027 89.4339 160.799 89.3152 160.562C89.172 160.276 89.0083 159.89 89.0108 159.439C89.0143 158.845 89.3333 158.302 89.8236 158.059C90.2481 157.847 90.7784 157.867 91.2419 158.112C91.5666 158.283 91.7991 158.523 91.9859 158.716C92.2588 158.998 92.5305 159.276 92.8017 159.553C92.9542 159.709 93.1067 159.865 93.2591 160.021C93.7656 159.84 94.3218 159.647 94.9701 159.427C95.1823 159.354 95.4149 159.373 95.6129 159.479C95.8106 159.585 95.9556 159.769 96.013 159.985L98.2312 168.36C98.3006 168.622 98.234 168.902 98.0533 169.105C97.8728 169.308 97.6032 169.407 97.3337 169.368C96.4498 169.242 95.6274 169.09 94.9097 168.922C94.862 169.09 94.8099 169.256 94.7584 169.42C94.6341 169.814 94.5173 170.185 94.494 170.492C94.4224 171.435 93.9675 171.788 93.5989 171.917C93.4728 171.962 93.34 171.984 93.2065 171.984ZM92.4375 166.843C92.5401 166.843 92.6438 166.862 92.7444 166.903C93.1571 167.073 93.3551 167.544 93.1868 167.958C93.0266 168.351 92.991 168.878 93.0713 169.404C93.1165 169.246 93.1659 169.09 93.2144 168.935C93.3387 168.542 93.4555 168.17 93.4788 167.864C93.4972 167.621 93.6239 167.399 93.8241 167.26C94.0243 167.121 94.2774 167.08 94.5107 167.148C95.0329 167.299 95.6554 167.441 96.347 167.569L94.6712 161.242C94.1743 161.414 93.7336 161.57 93.3198 161.721C93.0192 161.829 92.6835 161.753 92.4617 161.524C92.1883 161.241 91.9165 160.964 91.6453 160.686C91.3719 160.407 91.0982 160.127 90.8232 159.843C90.7859 159.805 90.7483 159.766 90.7112 159.729C90.7321 159.777 90.7516 159.816 90.7631 159.839C91.0009 160.314 91.3335 160.755 91.7251 161.113C91.9782 161.344 92.058 161.71 91.9245 162.025C91.7912 162.341 91.4747 162.54 91.1306 162.518C90.8278 162.503 90.1674 162.641 89.0645 163.736L90.6594 163.457C91.0795 163.383 91.4906 163.653 91.5874 164.072C91.6845 164.491 91.4363 164.913 91.0233 165.032C90.3822 165.217 89.693 165.585 88.8544 166.189C88.7096 166.293 88.538 166.427 88.4576 166.555C88.5613 166.535 88.6874 166.484 88.8015 166.435C89.3977 166.178 89.9623 165.839 90.4801 165.429C90.8147 165.163 91.2978 165.204 91.5839 165.521C91.8699 165.838 91.8603 166.323 91.5619 166.628C90.9797 167.225 90.6712 168.341 90.49 169.129C90.485 169.151 90.476 169.19 90.4677 169.235C90.519 169.186 90.5629 169.136 90.5898 169.106C91.0532 168.582 91.4229 167.989 91.6897 167.344C91.8181 167.031 92.1197 166.843 92.4375 166.843Z" fill="#1F404D"/>
<path d="M112.671 159.82C112.128 162.138 110.869 164.029 109.22 165.561C108.805 165.947 108.365 166.309 107.906 166.651C105.799 168.219 103.279 169.328 100.859 170.075C100.325 170.242 99.7962 170.391 99.2754 170.523C97.8374 170.89 96.4777 171.13 95.312 171.27C94.1059 167.25 93.3479 163.13 93.2319 158.943C93.5018 158.185 93.7203 157.413 93.8928 156.633C94.0736 155.829 94.2033 155.015 94.2948 154.192C94.3055 154.103 94.3138 154.014 94.322 153.925C94.3678 153.463 94.4029 152.999 94.4273 152.535C94.4731 151.561 94.4758 150.582 94.4407 149.602C94.4191 149.02 94.3922 148.434 94.3626 147.852C94.3357 147.312 94.3058 146.772 94.2817 146.23C94.2386 145.364 94.2063 144.495 94.2008 143.624C94.198 143.2 94.2008 142.777 94.2063 142.353C94.209 141.813 94.2142 141.274 94.2063 140.737C94.2008 140.068 94.1767 139.399 94.1119 138.729C95.0238 139.264 95.906 139.838 96.7613 140.443C97.3953 140.888 98.0132 141.352 98.6121 141.832C100.441 143.281 102.122 144.854 103.633 146.446C104.146 146.986 104.639 147.525 105.109 148.065H105.112C106.169 149.271 107.127 150.466 107.977 151.61C108.36 152.122 108.721 152.627 109.061 153.113C109.979 154.435 110.731 155.644 111.309 156.666C111.929 157.758 112.345 158.635 112.542 159.196C112.542 159.196 112.542 159.196 112.544 159.196C112.652 159.504 112.695 159.717 112.671 159.82Z" fill="#F27272"/>
<path d="M94.208 142.354C94.2108 141.814 94.216 141.275 94.208 140.738C95.0606 140.643 95.9104 140.546 96.763 140.443C97.397 140.888 98.0149 141.353 98.6138 141.833C97.1461 142.019 95.6784 142.195 94.208 142.354Z" fill="#F9C5C5"/>
<path d="M109.063 153.113C107.509 153.283 105.957 153.459 104.403 153.613C101.594 153.89 98.7726 154.06 95.9423 154.149C95.3947 154.166 94.847 154.182 94.2964 154.193C94.3071 154.103 94.3153 154.015 94.3235 153.925C94.3693 153.464 94.4044 153 94.4288 152.536C98.5431 152.468 102.631 152.196 106.726 151.748C107.144 151.702 107.56 151.656 107.978 151.61C108.361 152.123 108.723 152.628 109.063 153.113Z" fill="#F9C5C5"/>
<path d="M105.11 148.065C102.547 148.084 99.9807 148.009 97.4177 147.925C96.3979 147.893 95.3807 147.868 94.3636 147.852C94.3367 147.312 94.3068 146.773 94.2827 146.23C95.3267 146.247 96.371 146.273 97.4177 146.306C99.4898 146.373 101.564 146.435 103.634 146.446C104.147 146.986 104.64 147.526 105.11 148.065Z" fill="#F9C5C5"/>
<path d="M112.541 159.197C112.344 158.636 111.929 157.759 111.308 156.666C107.339 154.769 102.988 154.359 98.5413 154.632C98.4659 154.637 98.3902 154.64 98.3148 154.645C97.5349 154.435 96.7418 154.276 95.9405 154.149C95.4036 154.06 94.8614 153.99 94.3217 153.925C94.3135 154.014 94.3056 154.103 94.2946 154.192C94.203 155.015 94.0733 155.83 93.8926 156.634C94.2244 156.604 94.5617 156.574 94.899 156.545C95.7272 157.292 96.4424 158.212 96.863 159.008C97.8719 160.912 98.3551 163.246 98.7193 165.353C99.016 167.064 99.1833 168.791 99.2752 170.523C99.7959 170.39 100.325 170.242 100.859 170.075C100.729 167.865 100.476 165.666 100.001 163.494C99.534 161.347 98.9431 158.913 97.5727 157.143C97.3758 156.89 97.1652 156.631 96.9387 156.375C97.3597 156.339 97.7806 156.31 98.2013 156.283C98.3145 156.315 98.4278 156.35 98.5386 156.385C100.845 157.125 102.801 158.565 104.374 160.386C105.982 162.243 107.094 164.379 107.906 166.651C108.365 166.308 108.804 165.947 109.22 165.561C108.54 163.778 107.671 162.075 106.524 160.51C105.275 158.805 103.754 157.292 101.949 156.186C104.536 156.242 107.094 156.609 109.554 157.632C110.596 158.063 111.594 158.59 112.541 159.197Z" fill="#F9C5C5"/>
<path d="M95.3112 172.191C94.9089 172.191 94.5469 171.927 94.4287 171.534C93.021 166.842 92.3026 162.259 92.293 157.913C92.2921 157.56 92.4931 157.237 92.811 157.083C93.0526 156.965 93.3049 156.846 93.5659 156.727L93.1656 138.731C93.1582 138.397 93.332 138.086 93.62 137.916C93.9079 137.747 94.265 137.746 94.5529 137.915C100.882 141.622 105.667 146.998 108.566 150.855C110.831 153.866 113.88 158.704 113.569 160.03C111.794 167.613 102.683 171.317 95.4206 172.184C95.3841 172.188 95.3476 172.191 95.3112 172.191ZM94.1421 158.491C94.2071 162.251 94.8222 166.199 95.9729 170.246C99.1701 169.748 109.823 167.518 111.747 159.725C111.414 158.265 105.404 147.107 95.0465 140.386L95.3926 155.951C98.1286 154.87 101.421 153.921 104.317 153.768C104.83 153.746 105.26 154.131 105.287 154.64C105.314 155.148 104.924 155.582 104.415 155.609C101.015 155.789 96.9807 157.172 94.1421 158.491Z" fill="#1F404D"/>
<path d="M67.0697 159.05C66.5571 163.733 66.1011 167.95 64.7063 172.494C63.6245 172.278 62.3699 171.986 61.0317 171.612C60.5219 171.469 60.0011 171.315 59.4748 171.145C56.3533 170.157 53.0024 168.73 50.5014 166.785C50.0698 166.448 49.6596 166.094 49.2847 165.724C47.7172 164.189 46.6918 162.376 46.6054 160.253C46.584 159.724 46.8024 158.947 47.2315 157.987C47.4904 157.404 47.8304 156.754 48.2459 156.05C49.1092 154.579 50.2936 152.882 51.7478 151.101C52.1309 150.632 52.5329 150.157 52.9539 149.679C53.7821 148.732 54.6807 147.775 55.6411 146.825C56.116 146.355 56.6069 145.886 57.1115 145.425C58.2932 144.335 59.5533 143.272 60.8806 142.263C61.4688 141.815 62.0704 141.375 62.6855 140.951C64.0345 140.023 65.4402 139.157 66.8944 138.386C66.8297 139.397 66.7784 140.415 66.7326 141.429C66.7082 141.966 66.6868 142.506 66.6679 143.042C66.6273 144.092 66.5897 145.141 66.5519 146.191C66.533 146.731 66.5113 147.27 66.4899 147.81C66.4603 148.592 66.4252 149.372 66.3846 150.152C66.3577 150.648 66.3388 151.144 66.3279 151.641C66.3144 152.183 66.3117 152.723 66.3196 153.26C66.3279 153.813 66.352 154.363 66.3898 154.911C66.4817 156.173 66.6597 157.42 66.9646 158.642C66.9967 158.78 67.0318 158.915 67.0697 159.05Z" fill="#F27272"/>
<path d="M62.6848 140.952C64.0231 141.173 65.3748 141.322 66.7317 141.43C66.7073 141.967 66.6859 142.506 66.667 143.043C64.7218 142.886 62.7847 142.66 60.8799 142.263C61.4681 141.815 62.0697 141.376 62.6848 140.952Z" fill="#F9C5C5"/>
<path d="M66.3266 151.642C66.3132 152.184 66.3105 152.724 66.3184 153.261C64.3382 153.085 62.3604 152.867 60.3909 152.6C57.5499 152.214 54.5876 151.828 51.7466 151.103C52.1297 150.633 52.5317 150.158 52.9527 149.681C53.8483 149.878 54.7522 150.048 55.6506 150.215C58.3243 150.711 61.0194 151.094 63.7228 151.386C64.5891 151.48 65.4579 151.567 66.3266 151.642Z" fill="#F9C5C5"/>
<path d="M57.1116 145.426C60.2304 145.89 63.3898 146.071 66.5517 146.192C66.5328 146.732 66.5111 147.271 66.4897 147.811C66.4222 147.808 66.352 147.805 66.2846 147.803C62.7207 147.662 59.1513 147.436 55.6411 146.826C56.1161 146.357 56.6072 145.887 57.1116 145.426Z" fill="#F9C5C5"/>
<path d="M62.2197 154.774C57.5279 154.701 52.8013 154.965 48.2444 156.05C47.8289 156.754 47.4889 157.405 47.23 157.987C52.6096 156.487 58.1836 156.269 63.7765 156.428C62.325 157.054 60.8976 157.726 59.5029 158.411C55.7122 160.272 52.0836 162.59 49.2831 165.725C49.658 166.095 50.0683 166.448 50.4999 166.786C52.8095 164.204 55.7259 162.215 58.8096 160.578C61.1083 159.358 63.5283 158.195 66.0131 157.221C64.7234 158.616 63.7307 160.408 62.8943 161.948C61.3213 164.84 60.1748 167.938 59.4733 171.146C59.9993 171.316 60.52 171.469 61.0301 171.612C61.5967 168.976 62.4654 166.413 63.6578 163.988C64.3998 162.48 65.2549 161.02 66.2208 159.644C66.4527 159.315 66.6957 158.975 66.9628 158.643C66.6579 157.421 66.4799 156.174 66.388 154.912C64.9988 154.847 63.6092 154.798 62.2197 154.774Z" fill="#F9C5C5"/>
<path d="M64.7079 173.416C64.6479 173.416 64.5873 173.41 64.5267 173.398C60.1946 172.532 46.0336 169.027 45.6864 160.29C45.5342 156.458 54.7744 143.835 66.3039 137.651C66.5946 137.496 66.9456 137.507 67.2253 137.68C67.5053 137.854 67.6712 138.164 67.6608 138.493L67.0594 157.372C67.241 157.469 67.417 157.566 67.5868 157.661C67.9093 157.842 68.0922 158.198 68.0519 158.566L67.9743 159.272C67.4719 163.852 66.9972 168.178 65.5887 172.765C65.4675 173.158 65.105 173.416 64.7079 173.416ZM65.7659 140.069C59.6832 143.659 55.1682 148.456 52.9363 151.111C48.9226 155.884 47.4889 159.229 47.5281 160.217C47.8068 167.23 59.9859 170.513 64.0651 171.416C65.238 167.306 65.6589 163.47 66.1416 159.07L66.152 158.977C63.0198 157.302 58.0696 155.286 56.0033 154.465C55.5302 154.277 55.299 153.741 55.4872 153.268C55.675 152.794 56.2109 152.563 56.6842 152.752C58.8183 153.6 62.3429 155.045 65.2443 156.45L65.7659 140.069Z" fill="#1F404D"/>
</svg>
