<svg width="198" height="285" viewBox="0 0 198 285" fill="none" xmlns="http://www.w3.org/2000/svg">
<path d="M8.86234 132.624C8.55211 141.212 13.3484 149.951 21.0132 154.761C28.6743 159.572 37.918 159.118 45.9598 155.382C46.1558 163.837 51.1645 172.301 58.989 176.555C66.8135 180.808 77.2433 179.157 84.1171 173.985C85.1273 179.452 89.5487 184.122 94.8839 186.479C100.219 188.837 106.331 189.086 112.016 188.069C116.093 187.339 119.408 184.878 121.625 181.585C125.854 187.464 135.676 192.382 147.003 191.924C156.092 191.557 161.873 182.257 161.866 180.668C164.423 183.454 168.034 185.355 171.839 185.919C175.642 186.482 179.609 185.707 182.8 183.777C184.596 182.691 185.441 181.003 186.076 179.06C181.955 179.487 177.766 177.229 175.317 173.967C174.945 173.472 174.608 172.954 174.307 172.424C172.62 169.459 171.987 165.998 172.054 162.65C172.13 158.703 173.101 154.854 174.069 151.037C175.46 145.542 176.851 140.046 178.245 134.551C181.211 122.844 186.805 112.007 185.337 99.9204C184.805 95.5076 183.717 91.083 181.531 87.1112C179.143 82.7741 175.539 79.1313 171.769 75.7756C162.281 67.3343 151.407 60.3122 139.69 55.0604C134.74 52.8447 129.602 50.9295 124.261 49.9538C116.653 48.5664 108.865 49.1247 101.255 50.0548C91.6446 51.228 82.0172 53.0211 73.3315 56.9347C64.6458 60.8484 55.0926 65.873 51.2227 74.2401C43.7373 90.4158 36.2557 106.589 28.7706 122.765C28.4222 123.521 28.0699 124.279 27.7215 125.035C25.8948 128.986 23.6527 133.314 19.3476 134.725C16.2197 135.75 11.7936 134.231 8.86234 132.624Z" fill="#3B6A82"/>
<path d="M45.8081 133.827C46.0482 139.694 41.8875 145.458 36.2429 147.079C40.3668 147.951 44.7618 147.508 48.6299 145.834C50.1718 145.165 50.9612 143.462 51.947 142.1C52.6697 145.137 53.4932 148.183 54.9416 150.949C56.39 153.714 58.5266 156.208 61.3292 157.583C62.9471 158.375 65.4964 158.424 66.7518 157.132C69.1543 160.858 72.8688 163.537 76.6898 165.786C97.7461 178.182 124.91 179.534 147.092 169.295C149.418 168.221 151.721 167.008 153.578 165.245C156.297 168.041 159.02 170.837 161.74 173.633C161.786 169.656 162.392 165.686 163.535 161.873C166.518 165.947 170.175 169.523 174.306 172.424C172.619 169.459 171.987 165.998 172.054 162.65C172.129 158.703 173.1 154.854 174.068 151.037C175.459 145.542 176.85 140.046 178.244 134.551C181.21 122.844 186.804 112.007 185.337 99.9204C184.804 95.5076 183.716 91.083 181.53 87.1112C179.142 82.7741 175.538 79.1313 171.768 75.7757C162.281 67.3344 151.406 60.3122 139.689 55.0604C134.739 52.8447 129.601 50.9295 124.26 49.9538C116.653 48.5664 108.864 49.1247 101.254 50.0548C91.6439 51.228 82.0164 53.0211 73.3307 56.9347C64.6451 60.8484 55.0918 65.8731 51.2219 74.2402C43.7366 90.4158 36.2549 106.589 28.7699 122.765C28.9912 123.757 29.1773 124.751 29.3266 125.754C29.643 127.857 29.8064 130.015 29.3552 132.092C28.9047 134.165 27.7681 136.167 25.959 137.278C32.5786 138.341 39.9026 137.005 45.8081 133.827Z" fill="#2E6175"/>
<path d="M145.482 192.911C134.569 192.911 125.932 188.253 121.653 183.171C119.206 186.291 115.886 188.347 112.184 189.01C107.658 189.82 100.915 190.191 94.4974 187.355C89.0492 184.947 84.959 180.522 83.5161 175.58C75.9582 180.609 65.885 181.389 58.5333 177.394C50.9424 173.268 45.7764 165.301 45.0799 156.815C36.4297 160.419 27.54 159.986 20.5049 155.57C12.5299 150.565 7.58519 141.545 7.90743 132.59C7.91912 132.258 8.10197 131.957 8.39035 131.793C8.67904 131.629 9.0314 131.627 9.32194 131.786C12.0713 133.293 16.2693 134.728 19.051 133.817C22.9191 132.55 25.0276 128.586 26.8561 124.633L50.3567 73.838C54.2596 65.4016 63.5173 60.3095 72.9404 56.0632C82.4229 51.7901 92.9915 50.1001 101.14 49.105C108.541 48.2017 116.486 47.5653 124.433 49.0143C129.151 49.8745 134.123 51.5192 140.082 54.1897C151.932 59.501 162.807 66.5234 172.405 75.062C175.879 78.1526 179.78 81.9462 182.368 86.6502C184.375 90.2964 185.657 94.5994 186.288 99.8051C187.367 108.71 184.667 117.068 182.056 125.151C181.043 128.288 179.995 131.532 179.171 134.787L174.995 151.273C174.056 154.98 173.085 158.814 173.01 162.669C172.952 165.619 173.439 169.873 176.081 173.393C178.473 176.58 182.446 178.472 185.978 178.11C186.301 178.075 186.617 178.209 186.82 178.461C187.023 178.713 187.086 179.051 186.985 179.358C186.378 181.21 185.466 183.28 183.295 184.595C179.932 186.632 175.707 187.46 171.699 186.864C168.219 186.347 164.86 184.75 162.272 182.415C160.55 185.964 154.902 192.562 147.043 192.879C146.518 192.9 145.997 192.911 145.482 192.911ZM121.625 180.628C121.933 180.628 122.222 180.776 122.401 181.026C126.085 186.144 135.34 191.434 146.966 190.969C155.191 190.637 160.786 182.137 160.911 180.659C160.908 180.264 161.15 179.916 161.517 179.772C161.885 179.627 162.303 179.731 162.57 180.022C164.973 182.637 168.403 184.442 171.979 184.973C175.552 185.503 179.315 184.77 182.304 182.96C183.491 182.241 184.189 181.193 184.683 180.061C180.898 179.928 177.046 177.865 174.551 174.541C171.583 170.586 171.034 165.882 171.097 162.632C171.177 158.558 172.175 154.616 173.141 150.803L177.317 134.317C178.157 131.003 179.214 127.729 180.237 124.564C182.901 116.314 185.418 108.523 184.39 100.035C183.789 95.0767 182.579 91 180.693 87.572C178.244 83.122 174.486 79.473 171.134 76.4903C161.681 68.0817 150.971 61.1657 139.299 55.9345C133.485 53.3283 128.652 51.7267 124.089 50.8951C116.393 49.491 108.622 50.1176 101.371 51.0031C93.3568 51.9815 82.9729 53.6388 73.7253 57.8061C64.6398 61.9004 55.731 66.7733 52.0913 74.6406L28.5907 125.436C26.5856 129.77 24.2431 134.128 19.6459 135.634C16.7504 136.582 12.8961 135.599 9.81718 134.175C10.0908 141.95 14.5652 149.586 21.5205 153.951C28.3457 158.235 37.1064 158.441 45.5582 154.516C45.8512 154.381 46.1922 154.401 46.4658 154.571C46.7397 154.742 46.909 155.039 46.9167 155.361C47.1085 163.693 52.0264 171.682 59.4461 175.714C66.5498 179.576 76.4592 178.551 83.5423 173.22C83.807 173.021 84.156 172.973 84.4644 173.093C84.7728 173.213 84.9972 173.484 85.0572 173.81C85.9599 178.702 89.8732 183.222 95.2697 185.606C101.246 188.247 107.583 187.892 111.847 187.128C115.437 186.486 118.628 184.327 120.832 181.051C121.007 180.791 121.297 180.633 121.61 180.628C121.616 180.628 121.621 180.628 121.625 180.628Z" fill="#1F404D"/>
<path d="M101.173 284.013C144.987 284.013 180.506 276.557 180.506 267.359C180.506 258.161 144.987 250.705 101.173 250.705C57.3591 250.705 21.8408 258.161 21.8408 267.359C21.8408 276.557 57.3591 284.013 101.173 284.013Z" fill="#A7A7A7"/>
<path d="M101.048 220.042C101.192 220.03 101.334 220.024 101.478 220.014C101.937 220.804 102.361 221.567 102.745 222.32C104.043 224.858 104.909 227.289 105.239 230.239C105.271 230.534 105.297 230.836 105.319 231.142C105.295 231.157 105.268 231.173 105.243 231.185C101.646 233.303 97.9141 235.198 94.0805 236.855C89.2522 238.943 82.6421 241.682 77.8036 239.612C74.4249 238.167 71.5288 234.293 70.1219 231.04C69.1528 228.8 67.8568 224.946 68.0048 222.627C69.7656 220.963 78.7633 214.201 81.1138 213.574C82.692 213.154 83.6224 223.284 83.6224 223.284C83.6224 223.284 89.4258 221.598 90.5655 221.382C93.9953 220.728 97.4672 220.264 101.048 220.042Z" fill="#F6E2D7"/>
<path d="M82.0805 240.969C79.6835 240.97 77.4288 240.505 75.4071 239.421C69.8001 236.416 66.3521 224.664 66.9821 222.348C67.1354 221.785 67.392 220.842 74.5056 216.439C77.8643 214.361 81.2079 212.474 81.2412 212.455C81.5394 212.287 81.8998 212.273 82.2091 212.417C82.5191 212.562 82.7401 212.847 82.8032 213.182L84.4472 221.936C87.1332 221.175 94.1298 219.371 101.418 218.956C101.817 218.936 102.193 219.136 102.394 219.481C104.614 223.298 106.054 226.569 106.375 231.067C106.403 231.469 106.202 231.851 105.856 232.056C98.4349 236.432 89.5683 240.969 82.0805 240.969ZM69.0164 222.954C68.6957 224.671 71.8224 235.094 76.4086 237.553C83.6634 241.441 94.9857 235.958 104.205 230.568C103.845 227.014 102.663 224.241 100.888 221.113C92.2856 221.706 84.0238 224.269 83.9394 224.295C83.6511 224.386 83.3365 224.349 83.0771 224.193C82.8173 224.037 82.6369 223.777 82.5812 223.48L80.9946 215.035C75.4827 218.201 69.6843 221.904 69.0164 222.954Z" fill="#1F404D"/>
<path d="M91.6265 219.552C93.5147 219.232 102.546 217.509 103.78 217.617C103.822 217.625 103.867 217.633 103.911 217.644C108.209 218.415 112.579 223.483 114.012 226.154C115.459 228.852 116.733 233.014 115.166 234.117C114.659 234.472 114.018 234.416 113.345 234.125C111.37 233.284 109.112 230.48 109.112 230.48C109.112 230.48 100.598 235.666 98.564 236.441C98.1897 230.276 94.8916 222.784 91.6265 219.552Z" fill="#8CC63F"/>
<path d="M103.913 217.645C108.211 218.416 112.581 223.484 114.014 226.155C115.461 228.853 116.735 233.015 115.168 234.117C114.661 234.473 114.02 234.417 113.347 234.126C113.576 232.515 113.388 230.822 112.885 229.264C112.066 226.729 110.497 224.505 108.764 222.481C107.279 220.744 105.653 219.126 103.913 217.645Z" fill="#81B530"/>
<path d="M98.7072 237.768C98.5063 237.768 98.3062 237.711 98.1327 237.599C97.8492 237.416 97.6697 237.109 97.6494 236.773C97.2773 230.636 93.9236 223.442 91.0244 220.573C90.7421 220.294 90.6393 219.879 90.7593 219.501C90.8791 219.121 91.2007 218.842 91.5928 218.775C91.9797 218.71 92.6679 218.585 93.5278 218.429C99.4601 217.354 103.079 216.752 104.016 216.831C104.041 216.833 104.066 216.836 104.09 216.84C109.105 217.643 113.743 223.412 115.089 225.921C116.523 228.593 118.311 233.566 115.919 235.251C113.675 236.831 110.552 233.851 109.029 232.124C106.856 233.434 100.832 237.033 99.0843 237.699C98.9627 237.745 98.8347 237.768 98.7072 237.768ZM93.8008 220.534C96.5941 224.15 98.9572 230.035 99.6167 235.105C102.117 233.801 106.783 231.013 108.704 229.843C109.158 229.566 109.747 229.669 110.08 230.083C111.816 232.235 114.102 233.938 114.698 233.518C115.301 233.094 114.946 230.138 113.222 226.923C111.943 224.54 107.743 219.606 103.802 218.941C102.817 218.914 96.3531 220.071 93.906 220.514C93.8706 220.521 93.8355 220.527 93.8008 220.534Z" fill="#1F404D"/>
<path d="M23.988 141.294C24.2247 140.464 25.6531 140.242 26.3622 140.103C25.8888 138.594 28.4901 138.285 29.1349 138.146C30.559 137.84 31.9636 137.642 33.3618 137.61C34.1765 137.422 34.9856 137.31 35.7446 137.385C35.7406 137.348 35.7391 137.317 35.7351 137.28C34.8896 135.941 33.8395 134.395 34.5095 132.43C35.0423 131.528 36.0656 132.566 36.4882 133.235C38.1791 135.912 39.2157 137.204 40.1559 140.321C42.6538 141.584 45.1714 142.814 47.6752 144.071L45.6983 155.277C42.9496 152.689 40.2597 149.801 37.5993 146.864C36.9853 146.241 36.0432 146.728 35.2654 146.66C32.7266 146.249 30.4546 145.386 27.9158 144.975C27.1377 144.907 25.8054 144.46 24.995 144.657C24.5324 144.77 24.4796 143.115 25.0763 142.321L25.0649 142.323C24.5832 142.441 23.6384 142.511 23.988 141.294Z" fill="#F6E2D7"/>
<path d="M45.4086 156.131C45.1131 156.131 44.818 156.015 44.5967 155.786C42.2831 153.388 39.4129 150.413 36.7719 147.512C36.6414 147.532 36.4333 147.593 36.285 147.636C35.8369 147.766 35.3294 147.914 34.7787 147.816C34.7323 147.808 34.6867 147.797 34.6421 147.783C33.6744 147.485 32.6628 147.24 31.6841 147.004C30.6934 146.764 29.6694 146.517 28.6562 146.208C27.3934 145.985 26.2045 145.775 24.9873 145.803C24.9183 145.804 24.8414 145.799 24.7694 145.786C23.6226 145.584 23.3185 144.252 23.5213 143.099C23.8697 141.127 25.0386 140.656 25.7043 140.551C25.7363 140.546 25.7683 140.542 25.8007 140.54C27.9754 140.386 29.9566 140.452 32.223 140.754C32.8407 140.836 33.2746 141.404 33.1925 142.022C33.1103 142.639 32.5413 143.074 31.9248 142.991C29.8424 142.714 28.0225 142.65 26.0359 142.786C25.9115 142.837 25.8004 143.17 25.7438 143.491C25.7404 143.512 25.737 143.534 25.7342 143.556C26.9022 143.606 28.0216 143.804 29.1111 143.996C29.1573 144.004 29.208 144.016 29.253 144.03C30.2212 144.328 31.2344 144.573 32.2141 144.81C33.1885 145.045 34.1949 145.289 35.1918 145.591C35.2777 145.578 35.5027 145.512 35.6562 145.468C36.3115 145.278 37.4083 144.959 38.2769 145.815C38.292 145.829 38.3065 145.844 38.3206 145.86C40.9718 148.778 43.8824 151.795 46.2208 154.218C46.6535 154.667 46.6409 155.381 46.1925 155.814C45.973 156.026 45.6905 156.131 45.4086 156.131Z" fill="#1F404D"/>
<path d="M47.3548 145.037C47.2015 145.037 47.0458 145.006 46.8965 144.94C46.0557 144.566 45.2296 144.123 44.4313 143.695C43.1509 143.009 41.9411 142.36 40.7026 141.988C40.0064 141.814 39.4983 141.109 39.3213 140.747C39.3133 140.73 39.3056 140.713 39.2985 140.696C38.1176 137.939 36.9952 135.686 35.4452 133.785C35.5117 134.314 35.8462 135.003 36.3827 135.951C36.5602 136.265 36.7286 136.563 36.8705 136.854C36.9062 136.927 36.9342 137.004 36.9533 137.084C37.193 138.079 37.15 139.184 37.1121 140.159C37.0903 140.715 37.0699 141.24 37.106 141.644C37.1614 142.265 36.7034 142.813 36.0826 142.869C35.46 142.929 34.9134 142.466 34.858 141.845C34.8091 141.297 34.8321 140.702 34.8567 140.071C34.8887 139.25 34.9217 138.403 34.7847 137.73C34.681 137.528 34.5523 137.301 34.4178 137.062C33.6241 135.659 32.2954 133.311 34.0131 131.398C34.0313 131.378 34.0498 131.359 34.0692 131.34C34.601 130.827 35.5753 130.678 36.7169 131.801C36.7363 131.821 36.7554 131.841 36.7735 131.861C38.706 134.065 40.0045 136.617 41.3556 139.768C41.3692 139.789 41.3944 139.821 41.4191 139.847C42.8496 140.288 44.1955 141.009 45.4973 141.706C46.2951 142.134 47.0486 142.538 47.8137 142.878C48.3831 143.131 48.6397 143.798 48.3864 144.367C48.1993 144.788 47.7869 145.037 47.3548 145.037Z" fill="#1F404D"/>
<path d="M24.6075 143.512C24.0532 143.512 23.5842 143.332 23.2484 142.982C22.9259 142.646 22.604 142.027 22.9028 140.982C23.3159 139.538 25.0676 139.202 26.0088 139.022C26.127 139 26.2298 138.981 26.307 138.962C28.407 138.446 30.514 138.341 32.5705 138.649C33.1867 138.742 33.6118 139.316 33.5191 139.933C33.4268 140.549 32.85 140.974 32.2357 140.881C30.4719 140.617 28.6578 140.708 26.8453 141.153C26.7385 141.18 26.597 141.208 26.433 141.239C26.2871 141.267 25.995 141.323 25.7122 141.398C25.9294 141.55 26.0944 141.778 26.1621 142.056C26.3092 142.662 25.9374 143.272 25.3317 143.419C25.0784 143.481 24.8359 143.512 24.6075 143.512Z" fill="#1F404D"/>
<path d="M26.3787 141.286C25.9146 141.286 25.4797 140.997 25.3153 140.535C25.0297 139.732 25.2297 139.112 25.4476 138.733C26.1235 137.561 27.7895 137.251 28.6848 137.085C28.7695 137.069 28.8418 137.056 28.8972 137.044C31.4785 136.488 33.6397 136.343 35.6987 136.589C36.3176 136.663 36.7593 137.224 36.6857 137.843C36.6118 138.462 36.0502 138.902 35.4316 138.83C33.6277 138.615 31.7029 138.748 29.3733 139.25C29.3013 139.265 29.2074 139.283 29.0976 139.303C28.0062 139.506 27.6024 139.695 27.4543 139.814C27.639 140.391 27.3328 141.015 26.757 141.22C26.632 141.265 26.5043 141.286 26.3787 141.286Z" fill="#1F404D"/>
<path d="M176.346 169.644C176.472 168.791 175.263 167.999 174.674 167.58C175.728 166.401 173.486 165.046 172.956 164.653C171.785 163.787 170.588 163.027 169.327 162.421C168.663 161.913 167.972 161.477 167.25 161.233C167.269 161.2 167.283 161.173 167.302 161.14C168.625 160.27 170.219 159.295 170.42 157.229C170.307 156.188 168.947 156.711 168.285 157.146C165.64 158.886 164.163 159.635 162.02 162.086C159.224 162.206 156.423 162.287 153.624 162.399L150.799 173.422C154.371 172.199 158.013 170.679 161.649 169.101C162.465 168.787 163.122 169.619 163.859 169.879C166.341 170.552 168.766 170.704 171.248 171.377C171.985 171.636 173.384 171.779 174.04 172.293C174.415 172.586 175.146 171.101 174.931 170.131L174.94 170.139C175.33 170.444 176.162 170.898 176.346 169.644Z" fill="#F6E2D7"/>
<path d="M151.176 174.419C150.727 174.419 150.303 174.15 150.127 173.707C149.897 173.128 150.18 172.472 150.759 172.242C153.892 170.998 157.79 169.451 161.405 167.889C161.425 167.88 161.444 167.872 161.464 167.865C162.607 167.445 163.476 168.187 163.994 168.631C164.112 168.732 164.283 168.879 164.378 168.936C165.407 169.072 166.421 169.265 167.402 169.452C168.392 169.641 169.415 169.836 170.42 169.963C170.467 169.969 170.513 169.978 170.558 169.99C171.632 170.265 172.735 170.548 173.821 170.985C173.827 170.963 173.833 170.942 173.839 170.921C173.92 170.605 173.956 170.256 173.864 170.158C172.11 169.215 170.426 168.522 168.415 167.915C167.819 167.735 167.481 167.105 167.661 166.508C167.841 165.911 168.47 165.573 169.067 165.754C171.256 166.414 173.087 167.172 175.005 168.209C175.033 168.224 175.061 168.241 175.089 168.259C175.651 168.63 176.522 169.541 176.025 171.481C175.735 172.614 174.911 173.704 173.78 173.414C173.709 173.395 173.64 173.37 173.574 173.339C172.476 172.815 171.304 172.511 170.066 172.193C169.015 172.057 167.981 171.86 166.98 171.669C165.991 171.48 164.968 171.286 163.962 171.158C163.916 171.152 163.87 171.143 163.825 171.132C163.283 170.993 162.881 170.649 162.526 170.346C162.409 170.245 162.244 170.104 162.134 170.032C158.535 171.583 154.691 173.109 151.592 174.339C151.456 174.394 151.315 174.419 151.176 174.419Z" fill="#1F404D"/>
<path d="M165.233 166.235C165.045 166.235 164.854 166.188 164.679 166.088C164.136 165.781 163.945 165.093 164.252 164.55C164.451 164.197 164.65 163.71 164.859 163.195C165.227 162.291 165.644 161.267 166.273 160.46C166.323 160.396 166.381 160.337 166.443 160.284C166.693 160.078 166.968 159.876 167.261 159.663C168.14 159.021 168.73 158.531 169.008 158.077C166.812 159.168 164.86 160.758 162.646 162.782C162.632 162.795 162.619 162.807 162.604 162.818C162.293 163.076 161.541 163.508 160.834 163.38C159.551 163.208 158.182 163.3 156.733 163.396C155.829 163.457 154.896 163.519 153.973 163.512C153.35 163.508 152.848 162.999 152.853 162.376C152.857 161.756 153.362 161.256 153.981 161.256C154.029 161.255 154.067 161.256 154.11 161.256C154.909 161.256 155.723 161.202 156.583 161.144C158.057 161.046 159.58 160.945 161.065 161.134C161.098 161.12 161.134 161.101 161.156 161.087C163.687 158.775 165.923 156.987 168.592 155.777C168.617 155.765 168.643 155.755 168.669 155.745C170.172 155.194 170.998 155.732 171.271 156.418C171.281 156.443 171.29 156.468 171.298 156.494C172.073 158.945 169.893 160.536 168.591 161.487C168.37 161.648 168.16 161.802 167.982 161.943C167.579 162.5 167.26 163.286 166.95 164.046C166.712 164.631 166.488 165.183 166.217 165.662C166.009 166.029 165.627 166.235 165.233 166.235Z" fill="#1F404D"/>
<path d="M175.713 171.604C175.238 171.604 174.734 171.408 174.245 171.027C173.754 170.643 173.667 169.934 174.05 169.443C174.227 169.217 174.472 169.077 174.733 169.028C174.505 168.843 174.262 168.671 174.141 168.585C174.005 168.49 173.887 168.406 173.801 168.338C172.334 167.184 170.72 166.353 169.004 165.865C168.404 165.695 168.056 165.071 168.226 164.472C168.396 163.873 169.022 163.525 169.62 163.694C171.62 164.262 173.496 165.228 175.196 166.563C175.258 166.612 175.344 166.672 175.442 166.741C176.225 167.294 177.683 168.322 177.463 169.809C177.305 170.883 176.756 171.314 176.323 171.487C176.128 171.566 175.923 171.604 175.713 171.604Z" fill="#1F404D"/>
<path d="M174.636 168.751C174.354 168.751 174.072 168.646 173.853 168.435C173.413 168.011 173.392 167.316 173.798 166.866C173.712 166.697 173.422 166.358 172.511 165.723C172.42 165.659 172.342 165.605 172.283 165.561C170.368 164.142 168.67 163.226 166.938 162.677C166.344 162.489 166.015 161.855 166.203 161.261C166.391 160.667 167.026 160.337 167.619 160.526C169.597 161.152 171.506 162.176 173.626 163.748C173.672 163.781 173.732 163.823 173.803 163.872C174.549 164.393 175.94 165.362 176.071 166.71C176.114 167.144 176.04 167.792 175.449 168.406C175.227 168.635 174.931 168.751 174.636 168.751Z" fill="#1F404D"/>
<path d="M162.793 172.432C158.663 173.474 154.814 174.573 151.166 175.693C150.512 175.896 149.864 176.099 149.222 176.299C146.863 177.047 144.583 177.801 142.36 178.555C141.688 178.785 141.022 179.012 140.362 179.239C138.158 180.002 136.005 180.759 133.876 181.51C133.207 181.746 132.541 181.983 131.875 182.216C129.504 183.048 127.154 183.869 124.792 184.662C124.126 184.886 123.457 185.11 122.788 185.328C120.357 186.127 117.904 186.897 115.391 187.623C114.725 187.817 114.052 188.008 113.377 188.195C111.058 188.837 108.678 189.44 106.216 189.997C105.538 190.152 104.85 190.303 104.157 190.448C101.789 190.948 99.3393 191.405 96.7839 191.811C90.6614 189.697 77.7924 187.096 75.5882 186.966C72.9752 185.04 70.3681 182.933 67.6972 180.598C67.2128 180.178 66.7284 179.747 66.2378 179.308C63.7306 177.062 61.1598 174.615 58.468 171.929C58.0257 171.49 57.5838 171.042 57.1388 170.591C55.5491 168.983 53.9139 167.293 52.2273 165.513C51.8094 165.071 51.3856 164.625 50.9584 164.172C49.393 162.506 47.776 160.762 46.1045 158.939C45.6988 158.497 45.2871 158.046 44.8753 157.592C43.4432 156.023 41.9714 154.397 40.4513 152.708C40.0485 152.259 39.6428 151.805 39.231 151.348C38.0562 150.037 36.8541 148.687 35.6187 147.3C39.7942 143.73 44.7026 139.73 45.6108 138.216C46.3649 138.567 47.8606 139.318 49.9258 140.344C50.4739 140.617 51.0612 140.908 51.6881 141.216C53.5806 142.149 55.8092 143.236 58.2859 144.411C58.8854 144.696 59.5003 144.986 60.13 145.28C61.9831 146.149 63.9544 147.054 66.0072 147.975C66.616 148.245 67.2306 148.517 67.8514 148.792C69.9559 149.716 72.1359 150.649 74.3556 151.566C75.0127 151.833 75.6759 152.102 76.3389 152.372C85.1806 155.92 94.4793 159.057 102.167 160.262C104.614 160.647 110.364 160.574 117.471 160.375C118.058 160.359 118.658 160.341 119.266 160.326C121.607 160.254 124.072 160.175 126.594 160.096C127.191 160.078 127.784 160.06 128.387 160.042H128.39C130.427 159.978 132.496 159.917 134.558 159.863C135.167 159.848 135.772 159.833 136.378 159.817C138.857 159.76 141.316 159.717 143.696 159.696C144.311 159.69 144.92 159.685 145.522 159.685C147.493 159.676 149.395 159.688 151.197 159.724C151.808 159.733 152.411 159.748 152.998 159.766C154.782 159.821 156.444 159.903 157.949 160.018L162.793 172.432Z" fill="#F27272"/>
<path d="M51.6871 141.218C47.5722 144.663 43.8084 148.515 40.4503 152.709C40.0475 152.261 39.6418 151.806 39.23 151.349C42.4579 147.358 46.0339 143.676 49.9248 140.346C50.4726 140.618 51.0602 140.909 51.6871 141.218Z" fill="#F9C5C5"/>
<path d="M84.0522 158.107C76.5791 163.921 70.8989 171.733 67.6953 180.599C67.2108 180.178 66.7264 179.748 66.2358 179.309C69.5666 170.48 75.2893 162.64 82.7685 156.824C83.6795 156.115 84.9727 157.393 84.0522 158.107Z" fill="#F9C5C5"/>
<path d="M67.8496 148.793C61.8997 153.614 56.6402 159.246 52.2255 165.513C51.8075 165.071 51.3837 164.626 50.9565 164.172C55.2503 158.137 60.3101 152.696 66.0054 147.976C66.6142 148.245 67.2288 148.518 67.8496 148.793Z" fill="#F9C5C5"/>
<path d="M60.1307 145.281C54.9044 149.23 50.1899 153.817 46.1052 158.94C45.6995 158.498 45.2878 158.047 44.876 157.593C48.8155 152.684 53.3179 148.264 58.2866 144.412C58.8861 144.697 59.5007 144.987 60.1307 145.281Z" fill="#F9C5C5"/>
<path d="M76.3381 152.372C76.311 152.396 76.2836 152.417 76.2531 152.439C68.9195 157.522 62.8576 164.208 58.4669 171.93C58.0246 171.49 57.5827 171.042 57.1377 170.591C61.4585 163.121 67.3388 156.635 74.3545 151.566C74.6786 151.33 75.0054 151.097 75.3357 150.87C76.2685 150.222 77.1494 151.682 76.3381 152.372Z" fill="#F9C5C5"/>
<path d="M117.942 176.399C117.176 180.153 116.292 183.893 115.39 187.623C114.724 187.817 114.052 188.008 113.376 188.195C114.27 184.495 115.151 180.792 115.947 177.071C117.119 171.59 117.961 165.973 117.47 160.374C118.058 160.359 118.657 160.341 119.266 160.326C119.705 165.716 119.026 171.091 117.942 176.399Z" fill="#F9C5C5"/>
<path d="M112.268 162.725C111.145 172.005 109.125 181.135 106.212 189.998C105.534 190.152 104.847 190.304 104.153 190.449C107.187 181.45 109.31 172.16 110.451 162.725C110.591 161.577 112.411 161.565 112.268 162.725Z" fill="#F9C5C5"/>
<path d="M128.384 160.042C128.327 161.644 128.127 163.249 127.96 164.826C127.597 168.299 127.134 171.76 126.576 175.206C126.065 178.373 125.468 181.528 124.79 184.662C124.124 184.886 123.455 185.11 122.786 185.328C123.488 182.194 124.106 179.042 124.636 175.875C125.235 172.305 125.729 168.717 126.113 165.117C126.289 163.476 126.525 161.78 126.592 160.096C127.188 160.078 127.782 160.06 128.384 160.042Z" fill="#F9C5C5"/>
<path d="M136.377 159.817C136.156 167.109 135.32 174.367 133.876 181.51C133.207 181.746 132.541 181.982 131.875 182.215C133.425 174.86 134.324 167.384 134.557 159.863C135.166 159.848 135.772 159.832 136.377 159.817Z" fill="#F9C5C5"/>
<path d="M145.523 159.685C144.82 166.022 143.688 172.305 142.362 178.555C141.689 178.785 141.023 179.012 140.363 179.239C141.759 172.768 142.964 166.264 143.697 159.697C144.311 159.691 144.92 159.685 145.523 159.685Z" fill="#F9C5C5"/>
<path d="M152.997 159.766C152.951 162.624 152.661 165.489 152.276 168.332C151.943 170.791 151.571 173.244 151.165 175.693C150.511 175.896 149.863 176.099 149.221 176.299C149.633 173.861 150.017 171.418 150.365 168.971C150.801 165.913 151.15 162.815 151.195 159.724C151.807 159.733 152.409 159.748 152.997 159.766Z" fill="#F9C5C5"/>
<path d="M96.784 192.87C96.6667 192.87 96.5497 192.851 96.4383 192.812C90.4651 190.751 77.6466 188.148 75.5261 188.024C75.3214 188.012 75.1244 187.941 74.9594 187.819C63.4583 179.344 51.9817 167.288 34.8271 148.004C34.6378 147.791 34.5424 147.511 34.5615 147.227C34.5809 146.943 34.7138 146.679 34.9302 146.494C35.6568 145.872 36.4054 145.239 37.1514 144.606C40.3815 141.871 44.0419 138.771 44.7024 137.67C44.9818 137.205 45.5675 137.025 46.0593 137.255C46.6364 137.524 47.6135 138.01 48.9656 138.683C57.7962 143.077 84.6685 156.447 102.332 159.216C105.442 159.703 114.242 159.425 124.432 159.103C136.21 158.73 149.559 158.308 158.029 158.96C158.435 158.991 158.787 159.252 158.936 159.631L163.78 172.046C163.891 172.329 163.874 172.646 163.735 172.916C163.596 173.186 163.347 173.384 163.053 173.458C151.939 176.266 142.916 179.446 134.19 182.521C122.435 186.663 111.331 190.576 96.9495 192.857C96.8947 192.866 96.8391 192.87 96.784 192.87ZM75.9782 185.936C78.91 186.248 90.7978 188.672 96.8769 190.723C110.942 188.467 121.895 184.607 133.486 180.522C141.951 177.539 150.695 174.458 161.371 171.701L157.205 161.025C148.82 160.452 135.918 160.861 124.5 161.222C114.204 161.547 105.312 161.828 102.004 161.31C84.0175 158.491 57.8667 145.479 48.022 140.581C47.1713 140.158 46.4705 139.809 45.9307 139.545C44.7211 140.942 42.198 143.11 38.5216 146.224C38.0572 146.617 37.5915 147.012 37.1308 147.403C53.6727 165.975 64.8667 177.7 75.9782 185.936Z" fill="#1F404D"/>
<path d="M117.713 223.377C117.854 223.408 117.991 223.445 118.132 223.479C118.334 224.37 118.51 225.224 118.651 226.058C119.129 228.867 119.228 231.447 118.66 234.36C118.602 234.651 118.537 234.947 118.466 235.246C118.438 235.253 118.408 235.26 118.381 235.264C114.315 236.208 110.187 236.899 106.033 237.332C100.801 237.879 93.6742 238.514 89.6769 235.091C86.8857 232.7 85.2819 228.137 84.9131 224.612C84.6592 222.184 84.5761 218.119 85.4117 215.951C87.5898 214.891 98.1991 211.132 100.629 211.238C102.261 211.308 100.116 221.253 100.116 221.253C100.116 221.253 106.158 221.381 107.31 221.517C110.779 221.92 114.231 222.516 117.713 223.377Z" fill="#F6E2D7"/>
<path d="M101.397 238.737C95.7974 238.737 90.7548 237.57 87.4471 234.191C82.9964 229.645 83.2245 217.401 84.5193 215.379C84.8339 214.888 85.3608 214.065 93.4666 211.994C97.2934 211.016 101.049 210.216 101.086 210.208C101.422 210.138 101.769 210.232 102.021 210.462C102.273 210.692 102.399 211.031 102.359 211.37L101.307 220.214C104.098 220.292 111.313 220.665 118.391 222.451C118.778 222.548 119.077 222.855 119.165 223.244C120.141 227.552 120.537 231.102 119.495 235.491C119.402 235.882 119.096 236.187 118.705 236.278C113.164 237.569 107.002 238.737 101.397 238.737ZM86.2789 216.567C85.459 218.108 85.3217 228.99 88.9617 232.709C94.7202 238.591 107.165 236.748 117.574 234.364C118.295 230.865 117.997 227.865 117.239 224.35C108.855 222.341 100.204 222.313 100.116 222.313C99.8129 222.313 99.5245 222.183 99.3235 221.957C99.1226 221.73 99.0278 221.429 99.0638 221.128L100.078 212.595C93.8716 213.967 87.2302 215.765 86.2789 216.567Z" fill="#1F404D"/>
<path d="M108.869 220.09C110.766 220.35 119.899 221.41 121.045 221.882C121.082 221.903 121.123 221.923 121.162 221.946C125.032 223.968 127.684 230.113 128.252 233.091C128.825 236.098 128.795 240.45 126.969 241.033C126.379 241.221 125.785 240.975 125.23 240.497C123.597 239.102 122.282 235.751 122.282 235.751C122.282 235.751 112.606 238.151 110.433 238.281C111.921 232.287 111.017 224.151 108.869 220.09Z" fill="#8CC63F"/>
<path d="M121.164 221.946C125.034 223.968 127.686 230.113 128.254 233.09C128.827 236.098 128.797 240.45 126.971 241.033C126.381 241.221 125.787 240.975 125.232 240.497C125.933 239.028 126.26 237.356 126.246 235.719C126.224 233.055 125.392 230.463 124.344 228.013C123.448 225.911 122.38 223.881 121.164 221.946Z" fill="#81B530"/>
<path d="M126.601 242.458C124.337 242.458 122.555 239.193 121.71 237.292C119.245 237.892 112.419 239.523 110.552 239.636C110.21 239.651 109.889 239.514 109.674 239.255C109.458 238.996 109.379 238.649 109.46 238.322C110.942 232.356 109.895 224.488 107.988 220.882C107.802 220.531 107.828 220.105 108.056 219.779C108.284 219.453 108.675 219.284 109.069 219.337C109.458 219.39 110.152 219.477 111.02 219.586C117.002 220.336 120.635 220.841 121.504 221.201C121.527 221.211 121.55 221.221 121.572 221.232C126.116 223.499 128.815 230.392 129.348 233.189C129.917 236.168 130.134 241.447 127.347 242.339C127.093 242.42 126.844 242.458 126.601 242.458ZM122.337 234.987C122.764 234.987 123.161 235.247 123.323 235.66C124.336 238.234 126.012 240.535 126.701 240.32C127.403 240.096 127.95 237.169 127.266 233.586C126.759 230.929 124.23 224.964 120.668 223.15C119.736 222.815 113.224 221.999 110.757 221.689C110.721 221.685 110.685 221.68 110.649 221.676C112.232 225.962 112.724 232.285 111.836 237.32C114.612 236.824 119.898 235.56 122.082 235.018C122.167 234.997 122.253 234.987 122.337 234.987Z" fill="#1F404D"/>
<path d="M64.2065 222.866C62.8523 220.346 69.7474 182.041 84.4106 160.172C84.5959 159.896 85.4712 159.939 86.7198 160.176C87.5305 160.329 78.2601 179.3 79.2991 179.582C81.2083 180.101 92.5539 185.022 94.4046 185.648C95.5212 186.025 102.857 168.014 103.638 168.307C104.42 168.598 105.437 169.392 105.379 169.625C103.377 177.695 99.1803 189.65 99.0667 193.891C98.9285 199.06 113.965 215.616 119.131 215.384C104.729 240.946 68.3455 230.567 64.2065 222.866Z" fill="#C5FFF9"/>
<path d="M93.5481 191.048C90.8806 190.277 88.2024 189.536 85.549 188.719C83.0432 187.946 80.5702 187.047 78.2926 185.732C77.9409 185.529 77.6131 185.845 77.6147 186.155C77.5509 186.204 77.4971 186.272 77.4638 186.364C76.6987 188.465 75.9194 190.654 76.0733 192.927C76.2195 195.084 77.2641 196.953 78.9836 198.257C82.1992 200.693 86.8337 200.394 89.7135 197.568C91.3509 195.961 92.0731 193.723 93.4674 191.94C93.9087 191.913 94.0522 191.193 93.5481 191.048ZM85.3745 198.883C81.7305 199.641 77.6079 197.274 77.0376 193.464C76.6932 191.163 77.5054 188.895 78.2819 186.763C80.4606 187.96 82.8049 188.819 85.1751 189.554C87.6126 190.31 90.073 190.996 92.5265 191.7C91.5518 193.071 90.8787 194.629 89.8818 195.988C88.7902 197.475 87.1811 198.507 85.3745 198.883Z" fill="#5AE0CD"/>
<path d="M89.2577 232.682C89.1084 232.682 88.9616 232.681 88.8163 232.68C76.6476 232.559 65.5881 227.675 63.273 223.368C62.1743 221.324 64.4967 208.868 67.2787 198.5C69.731 189.36 75.1035 172.151 83.5303 159.582C84.0698 158.777 85.2271 158.814 86.9177 159.135C87.2501 159.198 87.5326 159.407 87.6917 159.708C88.0733 160.43 87.8939 161.073 84.3336 169.249C82.9394 172.45 80.9223 177.083 80.4027 178.831C81.9672 179.393 84.9775 180.638 88.8579 182.253C91.0378 183.16 93.1181 184.026 94.1983 184.443C95.1223 183.114 97.2564 178.552 98.7161 175.431C99.6659 173.4 100.563 171.483 101.281 170.061C102.28 168.085 102.882 166.893 104.01 167.314C104.037 167.324 106.772 168.417 106.408 169.88C105.667 172.866 104.624 176.397 103.614 179.811C101.933 185.496 100.195 191.374 100.127 193.919C100.062 196.342 104.514 202.738 110.052 208.177C114.684 212.725 117.757 214.326 119.021 214.326C119.043 214.326 119.064 214.326 119.084 214.325C119.478 214.307 119.833 214.501 120.035 214.828C120.237 215.157 120.244 215.568 120.055 215.904C111.875 230.423 97.4367 232.682 89.2577 232.682ZM65.1581 222.398C67.0014 225.737 76.86 230.441 88.8379 230.56C96.233 230.638 109.53 228.82 117.443 216.153C114.464 215.154 110.745 211.829 108.566 209.69C104.265 205.465 97.9033 197.764 98.0076 193.863C98.0834 191.04 99.7823 185.294 101.581 179.211C102.528 176.007 103.506 172.7 104.227 169.865C104.134 169.793 104.023 169.713 103.904 169.635C103.194 170.86 101.797 173.848 100.636 176.329C99.5111 178.734 98.3477 181.222 97.3752 183.112C95.9545 185.871 95.2109 187.04 94.066 186.652C93.2544 186.378 90.8396 185.373 88.0438 184.21C84.4881 182.73 80.063 180.888 79.0215 180.605C78.7008 180.518 78.433 180.293 78.2868 179.989C77.8867 179.155 78.2169 177.987 82.3906 168.402C83.542 165.758 84.9193 162.596 85.4705 161.061C85.3086 161.046 85.1849 161.033 85.1055 161.042C77.0542 173.183 71.8534 189.727 69.4611 198.549C65.9279 211.577 64.7716 221.088 65.1581 222.398Z" fill="#1F404D"/>
<path d="M84.7167 147.668C81.8377 158.323 82.6663 175.313 88.8968 176.997C95.1271 178.68 104.4 164.419 107.279 153.764C110.158 143.109 105.553 140.095 99.3226 138.411C93.0924 136.728 87.5959 137.013 84.7167 147.668Z" fill="#F9DDD2"/>
<path d="M89.9132 178.212C89.4722 178.212 89.0385 178.157 88.6128 178.042C85.3067 177.149 83.0695 172.806 82.3133 165.813C81.6747 159.908 82.1948 152.848 83.6703 147.386C86.8489 135.622 93.5092 135.72 99.6034 137.367C105.698 139.014 111.501 142.283 108.322 154.047C105.526 164.396 96.8802 178.212 89.9132 178.212ZM94.4962 138.71C90.9559 138.71 87.7403 140.623 85.7604 147.951C84.3501 153.17 83.854 159.925 84.4656 165.581C85.1002 171.449 86.8616 175.326 89.1779 175.952C89.4349 176.022 89.7017 176.055 89.9765 176.055C95.2293 176.056 103.463 163.732 106.233 153.482C109.04 143.092 104.218 140.856 99.0386 139.457C97.5124 139.044 95.976 138.71 94.4962 138.71Z" fill="#1F404D"/>
<path d="M59.1708 97.3266C57.4116 94.0026 53.9642 91.16 49.9037 89.6852C45.8433 88.2103 41.232 88.1257 37.5079 89.4577C31.9117 91.4595 28.7911 96.3315 27.8635 101.383C26.7426 107.486 28.4187 114.168 32.509 119.903C36.5993 125.637 43.0715 130.38 50.4473 133.046C55.9158 133.474 60.4401 131.138 62.9536 127.451C65.4672 123.765 65.9159 119.21 65.5269 114.756C65.028 109.047 62.0574 102.781 59.1708 97.3266Z" fill="#F6E2D7"/>
<path d="M51.7095 134.178C51.2642 134.178 50.8151 134.16 50.362 134.125C50.2654 134.117 50.1697 134.097 50.0789 134.063C42.544 131.34 35.8186 126.407 31.6273 120.531C27.3915 114.593 25.6316 107.542 26.7983 101.188C27.9121 95.1229 31.7793 90.3567 37.1429 88.438C41.0861 87.0272 45.9945 87.1127 50.2731 88.6673C54.5669 90.2271 58.2506 93.2747 60.127 96.8196C63.0407 102.324 66.0883 108.749 66.6048 114.661C67.0923 120.241 66.1905 124.624 63.8475 128.06C61.1963 131.948 56.7274 134.178 51.7095 134.178ZM50.6754 131.977C55.3941 132.302 59.6399 130.389 62.0584 126.841C64.1084 123.834 64.8899 119.912 64.4479 114.85C63.965 109.323 61.0251 103.146 58.2133 97.8325C56.5815 94.7492 53.3367 92.0836 49.5332 90.702C45.7144 89.3151 41.3551 89.2305 37.8714 90.4764C33.1741 92.1568 29.9142 96.2034 28.9269 101.579C27.8654 107.36 29.4917 113.81 33.3893 119.274C37.306 124.765 43.6009 129.389 50.6754 131.977Z" fill="#1F404D"/>
<path d="M67.1206 125.457C67.5662 125.465 68.0088 125.387 68.4111 125.215C69.753 124.641 70.134 123.226 69.262 122.054C62.7582 113.318 52.9458 106.202 41.6315 102.018C40.116 101.457 38.4719 101.957 37.9625 103.135C37.4522 104.313 38.2687 105.722 39.7854 106.283C49.8656 110.011 58.6079 116.35 64.4033 124.135C65.0142 124.955 66.0766 125.439 67.1206 125.457Z" fill="#1F404D"/>
<path d="M162.079 125.056C165.262 123.109 169.665 122.415 173.914 123.191C178.164 123.967 182.194 126.201 184.749 129.196C188.588 133.696 188.851 139.399 187.128 144.159C185.046 149.91 180.255 154.754 173.851 157.586C167.446 160.417 159.477 161.214 151.764 159.794C146.82 157.424 144.076 153.175 143.745 148.783C143.414 144.392 145.303 140.294 147.867 136.701C151.153 132.095 156.855 128.251 162.079 125.056Z" fill="#F6E2D7"/>
<path d="M159.249 161.557C156.695 161.557 154.113 161.327 151.572 160.859C151.477 160.841 151.386 160.812 151.3 160.77C146.276 158.362 143.049 153.912 142.669 148.865C142.36 144.764 143.773 140.58 146.989 136.072C150.394 131.299 156.244 127.358 161.517 124.133C164.912 122.056 169.621 121.307 174.112 122.126C178.586 122.944 182.872 125.324 185.576 128.493C189.259 132.81 190.221 138.805 188.149 144.528C185.979 150.522 180.928 155.641 174.292 158.576C169.847 160.541 164.612 161.557 159.249 161.557ZM152.107 158.756C159.522 160.093 167.282 159.308 173.416 156.596C179.516 153.9 184.144 149.233 186.113 143.791C187.944 138.735 187.148 133.672 183.929 129.899C181.538 127.096 177.722 124.987 173.723 124.257C169.741 123.529 165.6 124.173 162.646 125.98C157.559 129.091 151.93 132.873 148.751 137.33C145.841 141.408 144.558 145.128 144.827 148.703C145.146 152.925 147.863 156.674 152.107 158.756Z" fill="#1F404D"/>
<path d="M141.134 145.004C140.744 144.788 140.4 144.501 140.138 144.153C139.265 142.994 139.643 141.6 140.983 141.04C150.976 136.862 163.021 135.717 174.898 137.816C176.489 138.097 177.661 139.344 177.513 140.6C177.366 141.857 175.955 142.647 174.362 142.366C163.78 140.496 153.049 141.517 144.145 145.238C143.206 145.63 142.046 145.51 141.134 145.004Z" fill="#1F404D"/>
<path d="M50.1446 69.7845C48.8556 74.483 46.1226 85.8201 45.1962 98.6807C44.07 114.266 45.5954 132.086 55.5429 143.035C75.8627 165.397 106.057 175.237 138.217 165.751C151.146 161.939 161.72 148.16 169.316 134.225C175.08 123.657 179.131 112.999 181.204 106.524C185.753 92.3273 186.07 78.4428 176.513 66.664C172.331 61.5097 167.02 57.4465 161.405 54.0349C140.445 41.2952 115.839 31.7109 91.5859 35.0693C83.276 36.2207 70.7746 37.5068 63.3123 41.635C55.7079 45.841 50.3973 68.8618 50.1446 69.7845Z" fill="#FCE9E0"/>
<path d="M50.1447 69.7849C48.8557 74.4833 46.1227 85.8205 45.1963 98.6811C57.2376 98.77 69.0718 95.3276 80.3991 91.425C82.3356 90.7596 85.3259 90.614 85.5909 88.6406C90.5008 93.4018 96.9806 96.4448 103.672 98.1714C110.363 99.9008 117.305 100.387 124.194 100.618C127.106 100.714 130.038 100.77 132.892 101.384C134.133 92.4068 142.811 85.4644 142.931 76.3854C148.222 86.3966 151.202 97.0785 151.932 108.213C156.055 112.257 160.136 116.392 163.408 121.097C166.189 125.094 168.381 129.548 169.316 134.226C175.079 123.658 179.13 113 181.204 106.525C185.753 92.3283 186.069 78.4438 176.513 66.665C172.331 61.5107 167.02 57.4475 161.405 54.0358C140.445 41.2962 115.838 31.7118 91.5857 35.0703C83.2758 36.2216 70.7744 37.5078 63.3121 41.636C55.708 45.8414 50.3974 68.8622 50.1447 69.7849Z" fill="#F9DDD2"/>
<path d="M113.946 170.458C106.546 170.458 99.2635 169.431 92.1414 167.377C78.0084 163.301 65.0765 155.135 54.7433 143.763C35.7149 122.822 46.7049 78.2308 49.1021 69.5003C49.1215 69.4245 49.1578 69.2464 49.2132 68.9786C52.0927 55.1064 56.8703 45.0884 62.6663 40.7691C69.5274 35.656 89.1596 33.5028 99.9231 33.3465C124.296 32.9895 139.941 39.7245 161.968 53.1108C168.529 57.0983 173.562 61.3089 177.354 65.9833C186.025 76.6714 187.622 90.0407 182.237 106.855C180.534 112.172 164.838 159.029 138.526 166.79C130.237 169.235 122.021 170.458 113.946 170.458ZM51.19 70.0715C50.1325 73.9211 46.6374 87.6619 46.0477 102.856C45.3534 120.75 48.818 134.023 56.3452 142.307C71.7049 159.211 92.3032 168.208 114.168 168.209C121.983 168.21 129.955 167.061 137.914 164.713C163.157 157.268 178.508 111.4 180.175 106.195C185.32 90.1303 183.848 77.423 175.673 67.3468C172.04 62.8684 167.189 58.8169 160.844 54.9602C139.17 41.7884 123.801 35.1624 99.9545 35.5108C88.6857 35.6742 70.0682 37.9523 63.9599 42.5046C58.5892 46.5072 54.1046 56.0654 51.3328 69.4184C51.2522 69.8062 51.2183 69.9681 51.19 70.0715Z" fill="#1F404D"/>
<path d="M152.028 147.316C152.165 140.531 146.516 134.913 139.409 134.77C132.302 134.626 126.43 140.011 126.293 146.796C126.156 153.582 131.806 159.199 138.912 159.343C146.019 159.487 151.891 154.102 152.028 147.316Z" fill="#F9B9B9"/>
<path d="M77.7129 126.303C77.85 119.517 72.2001 113.9 65.0935 113.756C57.987 113.613 52.1148 118.997 51.9777 125.783C51.8406 132.568 57.4905 138.186 64.5971 138.329C71.7036 138.473 77.5758 133.088 77.7129 126.303Z" fill="#F9B9B9"/>
<path d="M102.872 119.373C102.58 120.573 104.468 122.068 107.09 122.71C109.711 123.353 112.073 122.901 112.365 121.701C112.657 120.5 110.768 119.005 108.146 118.363C105.525 117.72 103.164 118.172 102.872 119.373Z" fill="#EFA29A"/>
<path d="M99.8751 108.622C102.127 100.286 97.6665 91.8305 89.9124 89.7358C82.1583 87.641 74.047 92.7002 71.7951 101.036C69.5433 109.372 74.0037 117.827 81.7577 119.922C89.5118 122.017 97.6232 116.957 99.8751 108.622Z" fill="white"/>
<path d="M96.7335 105.427C96.3592 111.555 91.1874 116.272 85.1825 115.961C79.5662 115.67 75.2076 111.083 74.9771 105.477L81.708 104.615L75.0983 103.268C75.9512 97.6515 80.8749 93.4732 86.5373 93.7665C92.5423 94.0773 97.1077 99.2984 96.7335 105.427Z" fill="#1F404D"/>
<path d="M91.1356 107.524C93.6719 107.655 93.4306 111.678 90.8899 111.546C88.3536 111.415 88.5949 107.392 91.1356 107.524Z" fill="white"/>
<path d="M70.9237 104.102C70.8554 104.102 70.7858 104.094 70.7165 104.078C70.2167 103.964 69.9044 103.467 70.0179 102.967C71.0345 98.5077 73.6078 94.4781 77.0776 91.9106C80.7844 89.1681 85.5666 88.0699 89.8696 88.9751C94.4415 89.9365 98.3284 93.118 100.013 97.2782C100.206 97.7531 99.9768 98.2938 99.5019 98.4865C99.0267 98.6785 98.4859 98.4496 98.2936 97.975C96.8594 94.4341 93.4031 91.6139 89.4876 90.7906C85.6956 89.9941 81.4686 90.9698 78.181 93.4021C75.0626 95.7095 72.7466 99.3461 71.827 103.379C71.7291 103.81 71.3469 104.102 70.9237 104.102Z" fill="#1F404D"/>
<path d="M83.446 90.9468C83.1478 90.9468 82.8548 90.803 82.6754 90.5365C81.6154 88.9613 81.3585 87.01 81.1516 85.4423C81.0846 84.9341 81.4422 84.4682 81.95 84.4014C82.4566 84.3309 82.9237 84.6916 82.9908 85.1997C83.182 86.6469 83.398 88.2867 84.2149 89.5009C84.5008 89.9259 84.3882 90.5023 83.9629 90.7883C83.804 90.8957 83.6239 90.9468 83.446 90.9468Z" fill="#1F404D"/>
<path d="M80.0752 92.087C79.9265 92.087 79.7754 92.0513 79.6351 91.9756C78.8552 91.5543 78.1762 90.8402 77.6715 89.9105C77.2532 89.1407 76.9996 88.3346 76.754 87.5551C76.6001 87.0666 76.8716 86.5456 77.3603 86.3914C77.8484 86.2384 78.3701 86.509 78.524 86.998C78.753 87.7256 78.9694 88.4128 79.3021 89.0253C79.5338 89.4522 79.9327 90.0277 80.5172 90.3429C80.9677 90.5866 81.1361 91.1492 80.8926 91.6001C80.7246 91.9107 80.4054 92.087 80.0752 92.087Z" fill="#1F404D"/>
<path d="M69.3101 110.778C68.9084 110.778 68.5384 110.515 68.42 110.111C68.2759 109.619 68.5581 109.104 69.0493 108.96L71.0256 108.382C71.5183 108.237 72.0323 108.52 72.176 109.012C72.3201 109.503 72.0378 110.018 71.546 110.162L69.571 110.74C69.4839 110.766 69.3959 110.778 69.3101 110.778Z" fill="#1F404D"/>
<path d="M71.8702 114.458C71.5003 114.458 71.151 114.235 71.0069 113.87C70.8189 113.394 71.0525 112.855 71.5292 112.667L72.9945 112.088C73.4697 111.901 74.0095 112.134 74.1982 112.61C74.3865 113.087 74.1529 113.626 73.6762 113.814L72.21 114.393C72.0986 114.437 71.9835 114.458 71.8702 114.458Z" fill="#1F404D"/>
<path d="M75.126 117.981C74.8521 117.981 74.5809 117.86 74.3981 117.629C74.0802 117.227 74.1479 116.644 74.5498 116.326C74.9228 116.03 75.2513 115.687 75.5255 115.304C75.8234 114.888 76.4033 114.792 76.82 115.091C77.2364 115.39 77.3315 115.97 77.033 116.386C76.6584 116.908 76.2103 117.377 75.7016 117.78C75.5307 117.915 75.3276 117.981 75.126 117.981Z" fill="#1F404D"/>
<path d="M42.6177 70.9472C40.3075 82.8629 41.1598 92.8947 43.5829 96.0586C46.0247 96.0534 48.4075 95.4803 50.7629 94.9122C53.2836 94.3009 55.8033 93.6928 58.3233 93.0846C61.0284 92.4325 63.7491 91.7717 66.274 90.6597C71.1279 88.521 79.3199 85.5907 81.5211 80.9067C86.7662 69.7527 92.5052 58.4528 102.035 50.4015C95.1714 61.4318 89.7017 73.466 87.2195 86.1758C88.6876 86.4814 89.2456 86.5349 90.7136 86.8409C95.1782 74.4345 101.84 61.681 107.983 49.9887C101.914 62.2907 96.8651 75.4677 94.3512 88.9374C96.8904 91.8409 103.369 94.0402 107.145 95.0445C112.693 96.5218 116.247 96.1304 121.892 95.3031C125.152 81.5896 128.009 67.4567 131.269 53.7435C133.498 68.4883 131.729 84.0567 127.291 98.1924C133.31 102.347 141.058 104.004 148.382 103.847C152.505 91.17 152.763 77.4015 149.434 64.3571C156.045 76.055 157.974 92.9865 155.566 105.933C163.405 118.087 168.918 122.673 178.058 130.327C184.4 124.871 195.031 97.6578 188.672 71.0792C183.908 51.1515 169.59 31.5811 136.748 21.8069C72.1177 2.57171 48.1794 42.2264 42.6177 70.9472Z" fill="#3B6A82"/>
<path d="M43.1993 71.1046C40.8892 83.0203 41.7411 93.0522 44.1645 96.2161C46.6064 96.2108 48.9892 95.6377 51.3446 95.0696C53.8652 94.4583 56.3849 93.8502 58.905 93.242C61.61 92.5899 64.3307 91.9291 66.8557 90.8171C71.7096 88.6784 79.9016 85.7481 82.1027 81.0641C87.3478 69.9101 93.0869 58.6102 102.617 50.5589C95.7534 61.5892 90.2836 73.6234 87.8014 86.3331C89.2695 86.6388 89.8275 86.6923 91.2956 86.9982C95.7601 74.5919 102.422 61.8385 108.565 50.1462C102.496 62.4482 97.4471 75.6251 94.9332 89.0948C97.4723 91.9983 103.951 94.1977 107.727 95.2019C113.275 96.6793 116.829 96.2878 122.474 95.4605C125.734 81.747 128.591 67.6141 131.851 53.901C134.08 68.6458 132.311 84.2142 127.873 98.3499C133.892 102.504 141.64 104.162 148.964 104.005C153.087 91.3274 153.345 77.5589 150.016 64.5145C156.627 76.2124 158.556 93.1439 156.148 106.09C163.987 118.245 169.5 122.83 178.64 130.485C184.982 125.028 195.613 97.8153 189.254 71.2366C189.261 71.6367 189.268 72.0337 189.275 72.4311C189.377 79.1615 189.105 85.9568 187.32 92.4283C185.31 99.7077 181.382 106.45 176 111.852C174.966 110.773 173.793 109.838 172.488 109.084C176.939 95.5765 174.183 80.3282 167.356 67.5372C172.068 79.2329 170.037 92.3784 165.783 104.054C168.247 93.676 166.724 82.5313 162.438 72.5785C158.152 62.6257 151.204 53.8225 143.033 46.4206C144.284 53.3141 145.506 60.2466 145.627 67.2205C145.747 74.1974 144.726 81.2703 141.677 87.5289C140.404 87.2192 139.75 87.4722 138.478 87.1632C138.292 87.1158 138.093 87.0654 137.954 86.9367C137.715 86.709 137.731 86.3433 137.765 86.0263C138.421 79.8207 138.671 73.568 138.512 67.315C138.292 58.6739 137.324 49.7839 140.061 41.6156C127.136 51.2997 118.742 66.3609 117.424 82.2303C116.519 69.0634 119.258 56.3475 125.473 44.7404C116.815 54.2509 110.456 65.7028 107.009 77.9762C107.599 61.7944 113.176 45.6333 122.082 32.0713C118.265 33.2042 114.867 35.297 111.517 37.3683C103.937 42.0514 96.2514 46.825 90.3732 53.3855C85.7674 58.5302 82.4253 64.6029 79.1986 70.6595C80.0305 59.7715 82.65 49.4952 89.2797 40.7603C77.4696 48.4845 68.5146 60.1226 64.2427 73.3057C60.5356 76.1526 56.1049 78.0701 51.3824 78.7416C53.7058 66.704 55.8975 54.7061 62.1896 44.1455C55.3358 51.4585 48.8528 71.4683 48.4561 71.7247C48.1825 71.9023 44.6006 71.5493 43.1993 71.1046Z" fill="#2E6175"/>
<path d="M178.64 131.566C178.393 131.566 178.146 131.482 177.945 131.314L177.794 131.187C168.645 123.526 163.123 118.902 155.238 106.676C155.088 106.444 155.033 106.163 155.084 105.892C156.999 95.6009 156.08 83.6916 152.863 73.8093C154.125 84.1979 153.163 94.5982 149.995 104.34C149.852 104.778 149.449 105.078 148.988 105.088C140.694 105.27 132.974 103.186 127.257 99.2387C126.867 98.9691 126.698 98.4764 126.84 98.0236C130.829 85.3228 132.407 72.3933 131.484 60.2578C130.365 65.1492 129.281 70.0853 128.222 74.9062C126.717 81.7576 125.16 88.8422 123.526 95.7098C123.424 96.141 123.069 96.466 122.63 96.5304C116.984 97.358 113.23 97.7873 107.449 96.2475C104.432 95.4439 97.0957 93.2079 94.1199 89.8086C93.9013 89.559 93.8093 89.2232 93.8703 88.8973C94.7 84.4496 95.8133 79.9401 97.2216 75.3334C95.419 79.3498 93.7429 83.3961 92.3145 87.3646C92.132 87.8718 91.6029 88.1675 91.0757 88.0577C90.3571 87.9081 89.873 87.8222 89.3605 87.7311C88.8548 87.6415 88.3316 87.5486 87.5819 87.3929C87.0017 87.2719 86.6262 86.7072 86.7401 86.1255C88.5778 76.7147 92.1926 67.0085 97.5109 57.1838C91.4961 64.2157 87.2239 72.7152 83.0832 81.5243C80.9842 85.9897 74.2116 88.8619 69.2669 90.9593C68.5683 91.2557 67.9041 91.5374 67.2931 91.8066C64.6722 92.9611 61.8705 93.6385 59.1612 94.2934L51.5992 96.121C49.2152 96.6968 46.7499 97.2927 44.1686 97.2991C44.1677 97.2991 44.1669 97.2991 44.1659 97.2991C43.8292 97.2991 43.5113 97.1425 43.3066 96.8748C40.8091 93.6127 40.0682 84.7867 41.4634 74.9124C42.4479 67.9432 45.3979 54.3673 54.0922 41.7492C61.7588 30.6223 71.9492 22.9585 84.3798 18.9701C99.288 14.1873 117.207 14.8456 137.639 20.9269C153.503 25.6484 166.163 32.99 175.27 42.7483C183.038 51.0711 188.222 61.1183 190.678 72.6109C193.829 87.3501 191.83 100.912 189.599 109.695C187.111 119.484 182.991 128.168 179.346 131.304C179.143 131.479 178.892 131.566 178.64 131.566ZM157.29 105.862C164.703 117.282 170.039 121.867 178.589 129.03C181.258 126.176 184.973 119.109 187.5 109.162C189.675 100.604 191.624 87.3938 188.561 73.0636C184.945 56.1475 173.068 33.7308 137.022 23.0019C90.8067 9.2469 67.3849 26.2729 55.8745 42.9779C47.4323 55.23 44.5645 68.435 43.6067 75.2155C42.238 84.9002 43.1145 92.3477 44.735 95.1226C46.8718 95.0367 49.0137 94.5194 51.0905 94.0174L58.6524 92.1898C61.2697 91.557 63.976 90.903 66.4206 89.8261C67.0399 89.5534 67.713 89.2678 68.4211 88.9675C73.0448 87.0063 79.3763 84.3207 81.1235 80.6043C86.5893 68.9773 92.2923 57.867 101.919 49.7325C102.326 49.3891 102.923 49.3922 103.326 49.7405C103.729 50.0893 103.818 50.679 103.537 51.1311C96.2666 62.8123 91.4054 74.3633 89.0783 85.4822C89.3067 85.5241 89.5196 85.5619 89.7378 85.6007C90.0083 85.6487 90.2838 85.6977 90.5959 85.7565C95.1838 73.2815 102.059 60.2011 107.608 49.6427C107.884 49.1185 108.529 48.9127 109.057 49.1817C109.585 49.4507 109.799 50.0939 109.537 50.6251C102.795 64.2871 98.397 76.7652 96.1001 88.7526C98.4312 91.0129 103.697 93.0082 108.005 94.1562C113.148 95.5261 116.475 95.2316 121.589 94.4947C123.158 87.8684 124.656 81.0469 126.107 74.4421C127.611 67.5945 129.167 60.5142 130.8 53.6505C130.921 53.1461 131.391 52.8038 131.898 52.8195C132.416 52.8411 132.846 53.2267 132.923 53.7392C135.032 67.6917 133.725 82.9434 129.146 97.8969C134.204 101.161 140.842 102.934 148.015 102.934C148.067 102.934 148.119 102.933 148.171 102.933C151.964 90.7876 152.242 77.6137 148.968 64.7811C148.834 64.2554 149.11 63.7116 149.613 63.5094C150.117 63.3078 150.692 63.5088 150.959 63.9812C157.251 75.1177 159.777 91.8904 157.29 105.862Z" fill="#1F404D"/>
<path d="M147.276 95.9104C144.302 93.5231 140.791 91.8386 137.185 90.5226C136.597 90.3081 135.955 90.1003 135.361 90.2708C134.593 90.4906 134.164 91.2615 133.909 91.9934C133.566 92.9814 133.395 94.0281 133.405 95.077C133.408 95.4177 133.437 95.7799 133.644 96.0603C133.821 96.2995 134.102 96.4441 134.374 96.5746C138.527 98.5693 143.226 99.3993 147.177 101.754C149.054 102.873 150.723 104.315 152.667 105.319C154.941 106.494 152.281 101.633 151.868 100.976C150.656 99.0522 149.069 97.3499 147.276 95.9104Z" fill="#1F404D"/>
<path d="M91.0832 78.7655C94.8707 78.2983 98.7449 78.7107 102.505 79.4866C103.118 79.6131 103.773 79.7738 104.189 80.2311C104.726 80.8214 104.684 81.7023 104.514 82.4582C104.284 83.4784 103.878 84.4581 103.316 85.3448C103.133 85.6328 102.917 85.9252 102.593 86.0548C102.317 86.1653 102.002 86.1406 101.702 86.1089C97.1186 85.6227 92.6855 83.8594 88.0843 83.7856C85.8979 83.7505 83.7188 84.0995 81.5361 83.9321C78.9825 83.7363 83.8087 81.0011 84.507 80.6601C86.5519 79.6608 88.7992 79.0474 91.0832 78.7655Z" fill="#1F404D"/>
<path d="M21.0288 126.769C20.2932 126.769 19.5038 126.642 18.6378 126.386C15.5025 125.46 13.0292 123.322 12.0218 120.666C11.8098 120.107 12.0911 119.482 12.65 119.27C13.2089 119.058 13.8337 119.339 14.0457 119.898C14.8149 121.925 16.7609 123.575 19.2514 124.311C20.1455 124.575 20.8977 124.66 21.549 124.571C22.1916 124.482 22.8831 124.206 23.7249 123.704C26.4342 122.086 28.5683 119.445 29.58 116.456C29.7717 115.891 30.3864 115.586 30.9523 115.778C31.5183 115.97 31.8221 116.584 31.6303 117.151C30.4562 120.62 27.979 123.685 24.8348 125.562C23.7351 126.219 22.7847 126.585 21.8441 126.715C21.5791 126.751 21.3076 126.769 21.0288 126.769Z" fill="#1F404D"/>
<path d="M180.569 170.349C179.293 170.349 178.06 170.021 177.011 169.349C175.801 168.574 174.963 167.452 174.303 166.457C172.399 163.587 171.532 160.86 171.724 158.35C171.77 157.754 172.285 157.312 172.886 157.353C173.482 157.399 173.928 157.919 173.883 158.515C173.728 160.533 174.476 162.802 176.107 165.261C176.642 166.068 177.307 166.968 178.178 167.526C180.164 168.798 182.888 168.061 184.554 166.675C185.013 166.292 185.696 166.355 186.078 166.814C186.46 167.274 186.398 167.956 185.938 168.339C184.348 169.662 182.414 170.348 180.569 170.349Z" fill="#1F404D"/>
<path d="M121.549 1.09387C124.633 1.3367 126.814 5.58795 126.421 10.5893C126.027 15.5906 123.207 19.4482 120.123 19.2057C117.039 18.9629 114.858 14.7116 115.251 9.71027C115.645 4.70865 118.465 0.851039 121.549 1.09387Z" fill="#FBB03B"/>
<path d="M120.409 20.2986C120.286 20.2986 120.164 20.294 120.041 20.2842C116.304 19.9899 113.728 15.3078 114.175 9.62476C114.623 3.94143 117.907 -0.280302 121.636 0.0145439C123.516 0.162275 125.156 1.42261 126.254 3.56255C127.265 5.5323 127.708 8.05787 127.501 10.6739C127.296 13.29 126.463 15.715 125.157 17.5022C123.831 19.3171 122.157 20.2986 120.409 20.2986ZM121.273 2.16495C118.901 2.16495 116.664 5.58463 116.333 9.79465C115.992 14.1186 117.768 17.934 120.21 18.1263C121.314 18.2128 122.45 17.5379 123.409 16.2249C124.482 14.7575 125.169 12.7256 125.344 10.5044C125.519 8.28257 125.158 6.16848 124.328 4.55113C123.586 3.10429 122.569 2.25975 121.466 2.17295C121.402 2.16772 121.337 2.16495 121.273 2.16495Z" fill="#1F404D"/>
<path d="M43.8271 52.5437L57.6988 54.5572L59.9594 54.8856L66.8501 55.8849L90.1525 56.4383L92.4057 56.4919L113.549 56.9917L115.706 57.0412L140.716 57.6355L142.879 57.6869L153.734 57.9445L169.988 62.2641L172.235 62.8618L191.76 68.0496C193.114 63.0394 190.112 53.4523 183.102 43.4441C181.717 41.467 180.176 39.4729 178.48 37.4967C178.48 37.4967 178.484 37.4946 178.481 37.4936C170.796 28.5202 159.946 19.8641 146.183 14.5018C144.948 14.0207 143.691 13.5652 142.406 13.1427C138.973 12.0017 135.368 11.0652 131.598 10.3792C131.548 10.3687 131.496 10.361 131.446 10.3505C130.644 10.2062 129.847 10.0689 129.058 9.94704C126.867 9.59341 124.726 9.31274 122.626 9.09668C121.921 9.02528 121.22 8.95849 120.528 8.8997C118.72 8.75013 116.948 8.64763 115.206 8.59407C114.388 8.56761 113.577 8.55224 112.773 8.54516C109.106 8.52054 105.594 8.70396 102.237 9.07944C100.905 9.22471 99.5968 9.40108 98.3119 9.60606C76.7216 13.047 61.8596 24.3816 52.6677 36.646C52.6338 36.69 52.6036 36.7322 52.5697 36.7762C48.6386 42.0502 45.7541 47.4907 43.8271 52.5437Z" fill="#F9EEC0"/>
<path d="M142.408 13.1426C144.399 15.5278 146.267 18.0275 148.112 20.5082C154.877 29.5878 161.057 39.2057 165.533 49.6398C167.244 53.6277 168.843 57.8894 169.989 62.2637L172.236 62.8614C169.616 51.9755 164.616 41.6916 158.723 32.2297C155.605 27.2186 152.194 22.3952 148.628 17.6927C147.821 16.6278 147.009 15.5583 146.184 14.5011C144.95 14.0207 143.693 13.5652 142.408 13.1426Z" fill="#FBB03B"/>
<path d="M129.058 9.94727C130.759 13.4713 132.31 17.0645 133.682 20.7285C138.096 32.5415 140.643 45.0921 140.716 57.636L142.879 57.6874C142.802 41.3253 138.513 25.2081 131.598 10.3797C131.548 10.3692 131.496 10.3615 131.446 10.3511C130.644 10.2064 129.847 10.0695 129.058 9.94727Z" fill="#FBB03B"/>
<path d="M120.531 8.89941C120.243 12.8552 119.888 16.8055 119.462 20.749C118.148 32.9272 116.17 45.0301 113.553 56.9914L115.71 57.041C119.136 41.2491 121.446 25.2148 122.63 9.09609C121.924 9.025 121.224 8.9582 120.531 8.89941Z" fill="#FBB03B"/>
<path d="M57.7007 54.5569L59.9613 54.8853C65.7757 44.8355 72.9204 35.8634 81.2463 27.6744C87.9022 21.1266 94.9587 14.9536 102.239 9.0791C100.907 9.22437 99.5987 9.40074 98.3138 9.60572C96.441 11.151 94.5876 12.717 92.7483 14.2999C82.8867 22.7981 73.3263 31.7952 65.5535 42.2912C62.6506 46.2088 60.0718 50.3204 57.7007 54.5569Z" fill="#FBB03B"/>
<path d="M90.1533 56.438L92.4065 56.4916C98.9978 40.0618 106.214 23.848 115.207 8.59384C114.389 8.56737 113.578 8.552 112.773 8.54492C110.866 11.8092 109.036 15.1223 107.277 18.4737C100.819 30.7806 95.3107 43.5384 90.1533 56.438Z" fill="#FBB03B"/>
<g opacity="0.2">
<path d="M43.8271 52.5429L57.6988 54.5564L59.9594 54.8848L66.8501 55.8841L90.1525 56.4374L92.4057 56.491L113.549 56.9908L115.706 57.0404L140.716 57.6347L142.879 57.6861L153.734 57.9437L169.988 62.2633L172.235 62.861L191.76 68.0488C193.114 63.0386 190.112 53.4514 183.102 43.4433C181.717 41.4662 180.176 39.4721 178.48 37.4959C179.037 40.344 179.215 43.2494 178.639 46.0766C171.532 47.8291 164.618 50.2955 157.813 52.9925C156.614 47.9574 154.11 43.7711 150.972 39.6549C152.867 43.4633 153.328 47.9663 152.242 52.0797C146.886 50.9963 141.529 49.913 136.173 48.8324C135.45 48.6844 134.697 48.5246 134.127 48.0568C133.616 47.6367 133.316 47.0162 133.044 46.4093C131.91 43.8883 130.979 41.272 130.268 38.5986C129.825 41.4431 129.386 44.2884 128.944 47.1329C118.705 47.4622 108.152 48.1864 97.9798 49.3615C93.7513 49.8499 89.381 50.4005 85.3131 49.1571C86.4211 46.8094 87.5263 44.4605 88.6343 42.1128C85.6634 44.5876 83.0334 47.4717 80.8381 50.6516C81.1526 49.0931 81.2797 47.4963 81.22 45.9058C78.6751 46.7112 76.445 48.464 75.0606 50.7436C78.7914 41.3477 84.1762 32.6091 90.8887 25.0508C81.5829 30.0641 75.6417 39.4804 70.1166 48.4951C67.1653 47.1363 65.5806 43.703 65.587 40.4523C65.5935 37.2013 66.9147 34.099 68.4425 31.2309C65.3817 35.1181 62.3237 39.0061 59.2629 42.8933C59.0253 43.1928 58.7702 43.5098 58.407 43.6344C57.6314 43.9046 56.8845 43.198 56.3828 42.548C54.9689 40.7232 53.6934 38.7916 52.5697 36.7754C48.6386 42.0494 45.7541 47.4899 43.8271 52.5429Z" fill="#FBB03B"/>
</g>
<path d="M191.759 69.1325C191.667 69.1325 191.573 69.1208 191.48 69.0961L153.578 59.0246L66.8213 56.9656C66.7779 56.9646 66.7348 56.961 66.6914 56.9545L43.67 53.6142C43.345 53.5672 43.0591 53.3751 42.8925 53.0916C42.726 52.8085 42.6972 52.465 42.8138 52.1581C47.9194 38.7488 58.0443 26.5508 70.5925 18.6922C78.3822 13.8134 87.1549 10.4802 96.6679 8.78405C107.408 6.86939 119.173 7.03806 131.636 9.28542C143.771 11.4734 155.028 16.3082 165.093 23.6557C175.628 31.3454 182.202 39.8534 185.863 45.6371C191.514 54.5655 194.173 63.262 192.803 68.3322C192.673 68.8145 192.236 69.1325 191.759 69.1325ZM66.938 54.8031L153.758 56.8637C153.843 56.8659 153.928 56.8775 154.01 56.8994L190.919 66.7072C191.503 62.0971 188.895 54.4769 184.033 46.7949C179.699 39.9467 163.083 17.1555 131.252 11.4161C83.313 2.77263 55.1887 27.4188 45.3329 51.6688L66.938 54.8031Z" fill="#1F404D"/>
<path d="M1.14802 93.5605C0.847938 98.6295 1.53796 103.888 4.07186 108.289C8.47947 115.948 22.4828 121.479 30.8336 118.594C29.5373 116.531 28.533 114.259 27.8959 111.904C26.9249 108.335 26.7928 104.564 27.7663 101.007C29.3846 95.099 34.4751 90.0038 40.513 88.9817C39.5716 77.5141 42.0073 64.8548 47.843 54.9359C51.7431 55.9521 55.765 56.1701 59.807 56.0577C62.0079 56.0032 64.2174 55.8475 66.414 55.6693C66.4278 55.6293 66.442 55.589 66.4552 55.5518C56.1279 46.8523 39.6457 34.9525 25.1915 43.7434C13.2668 50.9973 19.0948 65.2971 21.1034 68.7755C11.0358 72.5451 1.7888 82.8309 1.14802 93.5605Z" fill="#FFDE83"/>
<path d="M154.696 58.1033C154.694 58.1436 154.693 58.1839 154.688 58.2264C160.295 59.9016 165.894 61.8504 170.987 64.3274C180.682 69.0486 188.516 75.6943 190.98 86.0303C193.305 95.7891 188.549 113.602 181.992 126.259C186.232 130.183 189.062 137.24 187.555 142.817C187.321 143.682 187.034 144.502 186.706 145.273C183.587 152.582 176.562 155.85 172.694 158.176C174.09 161.427 177.835 164.013 181.293 164.762C184.751 165.512 188.485 164.645 191.378 162.61C193.311 161.25 194.907 159.36 195.714 157.138C196.522 154.916 196.493 152.362 195.441 150.243C203.429 152.94 212.76 151.083 218.936 145.349C225.112 139.613 227.884 130.491 226.061 122.264C224.242 114.035 217.942 106.972 210.015 104.109C225.97 92.3482 217.998 67.2971 203.634 57.7706C181.611 43.1627 163.984 53.4116 162.058 54.4814C159.673 55.8064 157.203 56.9959 154.696 58.1033Z" fill="#FFDE83"/>
<path d="M176.335 63.4694C174.53 63.6467 172.75 63.9437 170.987 64.3269C180.683 69.0481 188.517 75.6938 190.981 86.0298C193.306 95.7886 188.549 113.602 181.993 126.258C186.233 130.183 189.063 137.239 187.556 142.817C187.322 143.682 187.035 144.501 186.707 145.272C188.975 143.555 191.166 141.772 192.731 139.416C194.695 136.453 195.468 132.826 195.522 129.271C195.577 125.716 194.956 122.186 194.336 118.685C199.806 109.517 202.757 97.5047 202.556 86.8272C202.454 81.3421 201.46 75.6286 198.144 71.2542C193.273 64.8217 184.364 62.6812 176.335 63.4694Z" fill="#F9D373"/>
<path d="M22.1635 90.6166C21.3316 94.4034 21.1128 98.3937 22.1241 102.139C23.133 105.881 25.2505 109.072 27.8949 111.903C26.9238 108.335 26.7918 104.564 27.7652 101.007C29.3835 95.0986 34.4741 90.0034 40.512 88.9813C39.5705 77.5137 42.0062 64.8544 47.8419 54.9355C51.742 55.9518 55.7639 56.1697 59.8059 56.0573C57.0652 53.5478 54.3224 51.0345 50.8169 49.9742C45.9427 48.5003 40.2267 50.4784 37.3103 54.6555C34.3944 58.8298 34.4984 64.8766 37.5577 68.9466C29.4497 72.891 24.0981 81.8081 22.1635 90.6166Z" fill="#F9D373"/>
<path d="M66.7387 55.6409C67.4756 55.5806 68.2117 55.5188 68.9458 55.4572C83.4206 54.2443 97.9275 53.4096 112.446 52.9547C122.92 52.6266 133.556 52.5137 143.688 55.187C147.164 56.1041 150.777 57.0656 154.392 58.1385C154.391 58.1631 154.39 58.1874 154.387 58.2121C154.387 58.2139 154.387 58.213 154.387 58.2145C154.386 58.2232 154.384 58.2318 154.383 58.2407C154.383 58.2416 154.383 58.2422 154.383 58.2432C152.755 58.9572 151.115 59.6377 149.474 60.2966C140.792 63.7822 131.75 66.4244 122.507 67.9075C111.335 69.7 99.8539 69.7656 88.7368 67.5493C84.7133 66.7472 80.7064 65.6383 77.1073 63.6686C73.3343 61.6037 70.1304 58.6633 66.8483 55.8835C66.7978 55.8407 66.7464 55.7976 66.6953 55.7542C66.7098 55.7163 66.724 55.6788 66.7387 55.6409Z" fill="#F9EEC0"/>
<path d="M183.788 166.106C182.867 166.106 181.953 166.012 181.063 165.819C176.995 164.937 173.144 161.97 171.699 158.602C171.486 158.105 171.672 157.527 172.135 157.248C172.614 156.96 173.141 156.658 173.701 156.335C177.981 153.877 184.449 150.161 186.51 142.534C187.818 137.691 185.56 131.035 181.257 127.053C180.899 126.722 180.807 126.193 181.031 125.761C187.108 114.029 192.292 96.2051 189.927 86.281C187.948 77.9769 182.187 71.4124 172.315 66.212C166.872 63.3448 160.647 61.1418 154.606 59.3281C152.913 60.0686 151.308 60.7266 149.878 61.3006C140.762 64.9603 131.611 67.5425 122.679 68.9758C110.797 70.8818 99.3065 70.7593 88.5262 68.6102C83.4775 67.6038 79.7959 66.3724 76.5892 64.6178C73.2573 62.7939 70.3568 60.3089 67.5518 57.9055C67.1086 57.5254 66.6657 57.146 66.2213 56.7693C60.2884 57.2435 54.2259 57.5427 48.3727 56.1817C43.1122 65.494 40.6438 77.3632 41.5908 88.8924C41.6367 89.4525 41.2471 89.9545 40.6928 90.0484C35.2569 90.9696 30.371 95.5929 28.8115 101.291C27.3751 106.541 28.4736 112.794 31.7493 118.018C31.9247 118.298 31.9628 118.642 31.8529 118.953C31.7434 119.265 31.4975 119.508 31.186 119.616C26.9867 121.067 21.2998 120.625 15.5813 118.404C9.98664 116.23 5.33339 112.651 3.13405 108.83C0.742343 104.675 -0.288698 99.5155 0.0692414 93.4952C0.67186 83.3611 8.97099 72.698 19.5793 68.2178C16.7847 62.5458 13.4303 49.6305 24.6289 42.8188C39.2152 33.9451 55.637 45.0634 66.9351 54.5394C67.3949 54.5016 67.854 54.4628 68.3117 54.4243L68.8568 54.3785C83.2824 53.1692 97.937 52.3262 112.413 51.8726C123.228 51.5343 133.779 51.4528 143.966 54.1406C147.241 55.0045 150.807 55.9456 154.462 57.0262C156.755 56.0063 159.184 54.8401 161.531 53.5349L161.623 53.4841C166.836 50.5698 172.055 49.5098 175.514 49.1337C185.238 48.0765 194.9 50.679 204.232 56.8687C213.176 62.8007 219.61 74.5089 219.877 85.3404C220.01 90.7141 218.724 98.1154 212.134 103.801C219.581 107.153 225.369 114.126 227.118 122.029C229.036 130.695 226.113 140.16 219.672 146.142C213.744 151.647 205.1 153.79 197.144 151.862C197.54 153.679 197.405 155.648 196.73 157.507C195.892 159.813 194.213 161.94 192 163.495C189.582 165.195 186.652 166.106 183.788 166.106ZM174.121 158.592C175.544 160.972 178.502 163.049 181.522 163.704C184.593 164.369 188.045 163.629 190.755 161.724C192.609 160.421 194.008 158.661 194.696 156.767C195.43 154.745 195.347 152.487 194.472 150.725C194.278 150.332 194.339 149.862 194.627 149.531C194.915 149.202 195.373 149.077 195.788 149.218C203.535 151.835 212.332 150.003 218.199 144.555C224.089 139.086 226.76 130.427 225.005 122.497C223.277 114.691 217.248 107.872 209.646 105.127C209.27 104.991 209 104.659 208.942 104.264C208.884 103.869 209.049 103.474 209.371 103.237C216.501 97.9825 217.843 90.6338 217.714 85.394C217.462 75.2261 211.426 64.238 203.036 58.6725C183.406 45.6528 167.183 52.8556 162.679 55.3738L162.584 55.427C160.928 56.3476 159.237 57.1989 157.582 57.9791C162.978 59.6829 168.438 61.7238 173.324 64.2971C183.781 69.8056 189.901 76.8326 192.033 85.7799C194.47 96.0087 189.415 113.96 183.319 126.042C187.174 130 190.23 137.066 188.6 143.1C186.305 151.593 179.37 155.577 174.78 158.213C174.555 158.342 174.335 158.468 174.121 158.592ZM36.1584 41.7573C32.6255 41.7573 29.1206 42.6197 25.7535 44.6676C21.0212 47.5462 18.7495 51.9067 19.0025 57.6273C19.2044 62.1987 21.0061 66.4459 22.0387 68.235C22.1978 68.5108 22.2276 68.8422 22.1199 69.1417C22.0125 69.4412 21.7786 69.6784 21.4807 69.7899C11.0826 73.6829 2.80626 83.9289 2.23011 93.6232C1.89772 99.2145 2.83303 103.967 5.00991 107.75C8.96294 114.618 21.3231 119.671 29.1858 117.933C26.1207 112.416 25.2201 106.216 26.7236 100.72C28.4056 94.5742 33.5207 89.5227 39.3623 88.1131C38.5707 76.1614 41.3013 63.9216 46.9083 54.3877C47.1532 53.971 47.6435 53.7682 48.1135 53.8888C53.1717 55.2036 58.5202 55.1387 63.824 54.7773C55.9731 48.3966 45.9594 41.7573 36.1584 41.7573ZM69.2591 56.5169C71.8871 58.7676 74.609 61.0658 77.6289 62.7185C80.6346 64.3632 84.1263 65.5257 88.9501 66.4869C99.4777 68.5859 110.71 68.7041 122.337 66.838C131.111 65.4303 140.106 62.8912 149.072 59.2911C149.783 59.0058 150.538 58.6996 151.325 58.3721C148.579 57.5959 145.911 56.8914 143.414 56.2328C133.508 53.6192 123.13 53.7026 112.481 54.0356C98.1165 54.4862 83.5757 55.3209 69.2591 56.5169Z" fill="#1F404D"/>
<path d="M96.0489 129.164C95.887 129.764 95.7574 130.359 95.6574 130.95C94.61 137.044 96.7217 142.52 100.77 143.614C104.824 144.709 109.413 141.031 111.574 135.226C111.783 134.673 111.966 134.099 112.126 133.509C112.147 133.43 112.165 133.353 112.186 133.274L96.1151 128.932C96.0938 129.01 96.0704 129.086 96.0489 129.164Z" fill="#F25851"/>
<path d="M96.0482 129.164C95.8863 129.764 95.7568 130.359 95.6567 130.95C95.7466 131.093 95.8411 131.232 95.9399 131.365C96.4871 132.103 97.171 132.73 97.9007 133.291C100.527 135.305 103.842 136.467 107.149 136.301C108.673 136.223 110.186 135.857 111.574 135.226C111.783 134.673 111.966 134.099 112.126 133.509C112.147 133.43 112.164 133.353 112.186 133.274L96.1147 128.932C96.0932 129.01 96.0698 129.086 96.0482 129.164Z" fill="white"/>
<path d="M102.201 144.71C101.64 144.71 101.083 144.638 100.533 144.49C95.6167 143.161 93.2115 136.18 95.1714 128.927C95.1855 128.874 95.2009 128.822 95.2163 128.769L95.2412 128.685C95.3766 128.206 95.8734 127.926 96.3523 128.055L112.422 132.397C112.902 132.527 113.189 133.019 113.065 133.501L113.044 133.584C113.031 133.638 113.017 133.693 113.003 133.747C111.262 140.187 106.654 144.71 102.201 144.71ZM96.7626 130.048C95.3554 136.093 97.1938 141.705 101.007 142.736C104.821 143.766 109.235 139.842 111.064 133.912L96.7626 130.048Z" fill="#1F404D"/>
<path d="M134.434 120.562C134.158 120.562 133.885 120.439 133.703 120.205C130.518 116.129 125.53 113.632 120.359 113.525C119.903 113.515 119.521 113.175 119.459 112.723C119.397 112.271 119.673 111.84 120.11 111.709C126.992 109.635 135.147 112.28 139.502 117.997C139.813 118.404 139.734 118.986 139.326 119.297C138.919 119.607 138.337 119.529 138.026 119.121C135.4 115.674 131.232 113.474 126.908 112.968C130.131 114.216 133.017 116.315 135.164 119.062C135.479 119.466 135.408 120.049 135.004 120.364C134.835 120.497 134.634 120.561 134.434 120.562Z" fill="#1F404D"/>
<path d="M137.035 117.38C136.592 117.38 136.199 117.061 136.122 116.609C136.035 116.104 136.375 115.624 136.879 115.537C137.807 115.378 138.67 114.911 139.31 114.221C139.659 113.846 140.245 113.824 140.621 114.172C140.996 114.521 141.018 115.108 140.67 115.484C139.754 116.47 138.519 117.138 137.193 117.366C137.14 117.375 137.087 117.38 137.035 117.38Z" fill="#1F404D"/>
<path d="M134.676 115.584C134.356 115.584 134.046 115.419 133.874 115.124C133.615 114.681 133.765 114.113 134.208 113.855C135.142 113.31 135.97 112.558 136.603 111.68C136.903 111.265 137.482 111.17 137.898 111.47C138.314 111.77 138.408 112.35 138.108 112.765C137.324 113.852 136.299 114.783 135.143 115.458C134.995 115.544 134.835 115.584 134.676 115.584Z" fill="#1F404D"/>
</svg>
