<svg width="430" height="932" viewBox="0 0 430 932" fill="none" xmlns="http://www.w3.org/2000/svg">
<rect x="-4" width="434" height="658" fill="#60D8F2"/>
<g filter="url(#filter0_f_433_479)">
<circle cx="184.464" cy="89.6966" r="66.135" fill="#FFA800"/>
</g>
<g filter="url(#filter1_i_433_479)">
<circle cx="184.615" cy="89.6151" r="68.6151" fill="#FFE600"/>
<circle cx="184.615" cy="89.6151" r="68.6151" fill="url(#paint0_linear_433_479)"/>
</g>
<rect x="-147" y="327" width="724" height="724" rx="362" fill="#44D52C"/>
<circle cx="84" cy="689" r="156" fill="#7FFF6A"/>
<circle cx="396" cy="689" r="156" fill="#5DDE48"/>
<path d="M203.101 339.057C219.645 333.476 230.081 314.637 225.749 298.173C221.416 281.708 202.95 270.027 185.673 272.822C195.557 265.614 200.08 252.176 196.487 240.697C194.808 235.333 191.409 230.57 187.006 226.951C189.527 222.204 190.952 216.82 190.952 211.113C190.952 191.993 174.975 176.493 155.267 176.493C142.528 176.493 131.35 182.97 125.036 192.714C120.275 186.14 112.405 181.84 103.495 181.84C89.3661 181.84 77.8416 192.643 77.2113 206.199C75.6771 205.934 74.1007 205.788 72.488 205.788C61.0329 205.788 51.2646 212.78 47.4609 222.604C37.1274 220.382 25.3666 224.905 19.8476 233.762C13.6127 243.768 16.1239 258.05 25.4254 265.486C13.4418 269.21 4.12939 280.007 2.46339 292.107C0.797387 304.207 6.86275 316.996 17.4184 323.641C6.03868 333.325 3.97601 351.692 12.9397 363.526C21.9034 375.36 40.5874 378.938 53.5134 371.294C53.7702 384.329 64.5262 396.441 77.7755 398.616C91.0248 400.791 105.29 392.788 109.953 380.561C113.412 391.633 125.614 399.457 137.468 398.204C149.323 396.951 159.502 386.762 160.422 375.227C169.261 382.752 181.079 387.47 192.768 386.214C204.456 384.957 215.579 376.972 218.514 365.925C221.448 354.877 214.532 341.738 203.101 339.057Z" fill="#A2E25E"/>
<mask id="mask0_433_479" style="mask-type:luminance" maskUnits="userSpaceOnUse" x="-63" y="172" width="357" height="357">
<path d="M-63 172H294V529H-63V172Z" fill="white"/>
</mask>
<g mask="url(#mask0_433_479)">
<path d="M79.5208 270.473C79.5208 270.473 79.178 299.666 102.576 306.142" stroke="#905F36" stroke-width="14" stroke-linecap="round" stroke-linejoin="round"/>
<path d="M85.7676 254.003C86.3103 252.724 86.8579 251.446 87.4279 250.18C87.8462 249.272 88.2773 248.372 88.7042 247.469C88.7036 247.466 88.7013 247.463 88.7007 247.46L87.6505 241.393C87.5216 240.615 87.4103 239.833 87.2875 239.054C85.3418 240.91 83.7076 243.111 82.4565 245.535C82.8423 246.496 83.2391 247.453 83.6166 248.417L85.7676 254.003Z" fill="#367629"/>
<path d="M87.867 238.518C88.052 239.429 88.2482 240.339 88.4248 241.253L89.3316 246.138C90.1152 244.5 90.9097 242.868 91.7216 241.245C92.8402 238.992 94.0143 236.768 95.2208 234.56C94.989 234.449 94.7298 234.404 94.4332 234.453C92.0061 235.402 89.7977 236.797 87.867 238.518Z" fill="#367629"/>
<path d="M83.5763 259.316C84.1386 257.907 84.7137 256.503 85.299 255.103C85.2823 255.084 85.2616 255.068 85.2485 255.045C85.2381 255.026 85.2284 255.004 85.2209 254.985L82.8873 248.693C82.6028 247.912 82.3349 247.125 82.0557 246.342C80.6256 249.374 79.7868 252.719 79.6721 256.152C79.8542 256.48 80.0433 256.803 80.2234 257.132C81.066 258.634 81.874 260.154 82.695 261.668C82.9886 260.884 83.2678 260.094 83.5763 259.316Z" fill="#367629"/>
<path d="M88.6577 259.829L83.133 262.535C82.9182 263.089 82.7018 263.643 82.4992 264.202C82.2698 264.777 82.0584 265.358 81.8454 265.939C86.5771 264.725 89.7149 261.731 91.9186 258.16C90.8321 258.717 89.7495 259.283 88.6577 259.829Z" fill="#367629"/>
<path d="M88.2113 250.533C87.7326 251.585 87.2688 252.644 86.8029 253.702L90.7034 251.588C92.3117 250.725 93.9318 249.885 95.556 249.051C95.9547 247.266 96.2857 245.279 96.4846 243.356C94.1851 244.816 91.8602 246.233 89.5288 247.64C89.0875 248.604 88.6427 249.566 88.2113 250.533Z" fill="#367629"/>
<path d="M82.3194 262.673C82.2701 262.636 82.2262 262.592 82.1959 262.535C81.3546 260.922 80.4934 259.319 79.668 257.697C79.7485 260.336 80.2708 263.003 81.282 265.602C81.6169 264.622 81.964 263.646 82.3194 262.673Z" fill="#367629"/>
<path d="M92.3781 241.571C91.6206 243.135 90.8782 244.706 90.147 246.282C92.2712 245.026 94.4026 243.783 96.5575 242.579C96.8493 239.155 96.6818 236.072 95.6793 234.918C94.5671 237.129 93.4677 239.349 92.3781 241.571Z" fill="#367629"/>
<path d="M91.0849 252.282L86.2325 254.987C85.5681 256.518 84.9175 258.055 84.2844 259.599C84.0505 260.191 83.815 260.782 83.5804 261.374L88.2993 259.098C89.6937 258.441 91.0972 257.803 92.5001 257.163C93.2124 255.883 93.8219 254.549 94.3509 253.209C94.71 252.299 95.0628 251.12 95.3823 249.801C93.9547 250.637 92.5258 251.47 91.0849 252.282Z" fill="#367629"/>
<path d="M67.0668 257.144C65.8874 255.965 64.7036 254.791 63.4998 253.638C62.6261 252.817 61.7414 252.009 60.8604 251.196C60.8595 251.192 60.861 251.189 60.8602 251.185L59.2989 243.963C59.0919 243.039 58.8636 242.119 58.6499 241.197C61.6497 242.388 64.4574 244.1 66.9402 246.234C66.9431 247.477 66.9327 248.72 66.9466 249.962L67.0668 257.144Z" fill="#367629"/>
<path d="M57.7664 240.862C57.9712 241.96 58.1624 243.061 58.3769 244.157L59.5654 249.999C57.957 248.529 56.3388 247.071 54.7055 245.631C52.4474 243.628 50.1411 241.682 47.8054 239.769C48.0132 239.541 48.2811 239.374 48.6336 239.296C51.7606 239.259 54.8442 239.816 57.7664 240.862Z" fill="#367629"/>
<path d="M71.8966 262.07C70.6369 260.756 69.3652 259.453 68.0845 258.159C68.0939 258.129 68.1099 258.103 68.114 258.071C68.1174 258.045 68.1184 258.017 68.118 257.992L67.8835 249.942C67.8487 248.946 67.7927 247.949 67.751 246.953C70.7059 249.683 73.1444 253.026 74.8162 256.794C74.7609 257.24 74.6961 257.686 74.6436 258.132C74.3819 260.182 74.1674 262.237 73.935 264.29C73.2557 263.55 72.5898 262.797 71.8966 262.07Z" fill="#367629"/>
<path d="M66.4766 264.927L73.8397 265.451C74.3281 265.971 74.8176 266.489 75.2946 267.02C75.8084 267.557 76.3057 268.108 76.8039 268.659C70.9935 269.436 66.1556 267.517 62.0978 264.536C63.5572 264.667 65.0161 264.81 66.4766 264.927Z" fill="#367629"/>
<path d="M62.787 254.386C63.7931 255.341 64.7857 256.31 65.7797 257.277L60.4896 256.681C58.3123 256.445 56.1316 256.238 53.9496 256.041C52.7027 254.235 51.4406 252.173 50.3541 250.123C53.5691 250.713 56.7935 251.244 60.02 251.76C60.9442 252.633 61.8718 253.503 62.787 254.386Z" fill="#367629"/>
<path d="M74.8073 265.239C74.8453 265.176 74.8741 265.107 74.8822 265.03C75.0925 262.857 75.3294 260.686 75.5181 258.511C76.6153 261.482 77.2347 264.684 77.2791 268.031C76.4656 267.091 75.6403 266.161 74.8073 265.239Z" fill="#367629"/>
<path d="M54.1178 246.289C55.6642 247.688 57.1972 249.102 58.7197 250.527C55.7918 250.086 52.8611 249.661 49.9222 249.292C48.0569 245.613 46.8567 242.11 47.4529 240.375C49.6851 242.334 51.9061 244.307 54.1178 246.289Z" fill="#367629"/>
<path d="M60.3772 257.623L66.9927 258.45C68.4205 259.854 69.8357 261.272 71.2346 262.704C71.761 263.257 72.2893 263.809 72.8162 264.362L66.5423 263.953C64.6957 263.849 62.8474 263.771 60.9991 263.691C59.6307 262.587 58.3523 261.377 57.1611 260.124C56.3524 259.274 55.4291 258.121 54.4803 256.797C56.4444 257.084 58.4091 257.369 60.3772 257.623Z" fill="#367629"/>
</g>
<mask id="mask1_433_479" style="mask-type:luminance" maskUnits="userSpaceOnUse" x="-63" y="172" width="357" height="357">
<path d="M-63 172H294V529H-63V172Z" fill="white"/>
</mask>
<g mask="url(#mask1_433_479)">
<path d="M118.336 365.046C118.336 365.046 146.903 365.633 163.767 345.433" stroke="#905F36" stroke-width="20" stroke-linecap="round" stroke-linejoin="round"/>
<path d="M185.679 349.966C187.425 350.261 189.172 350.551 190.923 350.809C192.185 350.982 193.448 351.138 194.71 351.3C194.713 351.303 194.715 351.307 194.717 351.31L200.51 356.604C201.257 357.276 202.02 357.932 202.772 358.599C199.443 359.413 195.959 359.657 192.496 359.335C191.73 358.261 190.975 357.178 190.199 356.111L185.679 349.966Z" fill="#367629"/>
<path d="M203.747 358.345C202.894 357.52 202.052 356.685 201.193 355.868L196.571 351.54C198.867 351.823 201.165 352.091 203.465 352.334C206.652 352.68 209.846 352.947 213.045 353.168C213.005 353.493 212.876 353.802 212.619 354.086C209.933 356.041 206.92 357.454 203.747 358.345Z" fill="#367629"/>
<path d="M178.47 348.669C180.369 349.033 182.272 349.38 184.176 349.712C184.186 349.744 184.188 349.776 184.205 349.807C184.218 349.831 184.234 349.856 184.25 349.878L189.403 356.704C190.046 357.546 190.707 358.374 191.355 359.211C187.118 358.664 182.951 357.268 179.186 355.033C178.96 354.613 178.742 354.188 178.513 353.769C177.479 351.833 176.402 349.921 175.341 348.001C176.384 348.224 177.423 348.466 178.47 348.669Z" fill="#367629"/>
<path d="M181.407 342.864L174.709 346.938C173.966 346.788 173.223 346.64 172.484 346.473C171.709 346.325 170.94 346.153 170.17 345.982C174.723 341.736 180.092 340.424 185.439 340.51C184.094 341.294 182.744 342.068 181.407 342.864Z" fill="#367629"/>
<path d="M191.083 349.722C189.625 349.514 188.17 349.285 186.714 349.058L191.662 346.323C193.692 345.188 195.708 344.026 197.718 342.855C199.909 343.653 202.269 344.662 204.47 345.769C201.323 347.235 198.205 348.758 195.094 350.295C193.757 350.107 192.419 349.923 191.083 349.722Z" fill="#367629"/>
<path d="M174.003 347.714C174.009 347.792 174.027 347.87 174.067 347.942C175.221 349.953 176.351 351.978 177.525 353.977C174.748 352.079 172.242 349.687 170.146 346.816C171.429 347.13 172.715 347.427 174.003 347.714Z" fill="#367629"/>
<path d="M203.567 351.404C201.368 351.143 199.172 350.862 196.977 350.564C199.784 349.146 202.582 347.711 205.354 346.225C209.231 348.263 212.425 350.559 212.976 352.428C209.838 352.104 206.701 351.76 203.567 351.404Z" fill="#367629"/>
<path d="M191.18 345.439L184.943 348.791C182.843 348.453 180.746 348.095 178.654 347.715C177.858 347.56 177.061 347.407 176.265 347.252L181.949 343.749C183.612 342.703 185.261 341.634 186.911 340.567C188.774 340.682 190.625 340.943 192.427 341.296C193.65 341.535 195.159 341.966 196.794 342.529C194.917 343.487 193.041 344.449 191.18 345.439Z" fill="#367629"/>
<path d="M176.149 328.208C177.112 327.206 178.079 326.208 179.063 325.227C179.777 324.529 180.501 323.841 181.221 323.149C181.222 323.146 181.221 323.143 181.222 323.139L182.402 317.096C182.559 316.323 182.734 315.554 182.897 314.782C180.418 315.823 178.106 317.296 176.073 319.116C176.092 320.151 176.121 321.187 176.13 322.222L176.149 328.208Z" fill="#367629"/>
<path d="M183.627 314.488C183.475 315.406 183.334 316.327 183.173 317.243L182.28 322.13C183.595 320.879 184.919 319.638 186.256 318.411C188.104 316.704 189.994 315.045 191.908 313.412C191.731 313.225 191.505 313.09 191.21 313.031C188.604 313.053 186.044 313.568 183.627 314.488Z" fill="#367629"/>
<path d="M172.208 332.392C173.235 331.276 174.273 330.169 175.319 329.07C175.31 329.046 175.296 329.024 175.292 328.997C175.289 328.976 175.288 328.953 175.288 328.932L175.35 322.221C175.362 321.39 175.392 320.559 175.41 319.728C172.994 322.051 171.018 324.878 169.687 328.045C169.741 328.416 169.802 328.786 169.854 329.157C170.106 330.86 170.319 332.569 170.546 334.276C171.1 333.648 171.642 333.009 172.208 332.392Z" fill="#367629"/>
<path d="M176.775 334.682L170.648 335.24C170.25 335.682 169.851 336.122 169.462 336.572C169.043 337.028 168.638 337.496 168.232 337.962C173.086 338.514 177.085 336.834 180.416 334.284C179.202 334.417 177.989 334.56 176.775 334.682Z" fill="#367629"/>
<path d="M179.67 325.839C178.848 326.652 178.037 327.475 177.225 328.298L181.623 327.713C183.433 327.48 185.246 327.271 187.061 327.071C188.07 325.545 189.087 323.807 189.958 322.081C187.29 322.626 184.612 323.121 181.932 323.605C181.177 324.348 180.418 325.089 179.67 325.839Z" fill="#367629"/>
<path d="M169.839 335.08C169.806 335.028 169.781 334.971 169.773 334.907C169.562 333.1 169.328 331.296 169.135 329.486C168.27 331.98 167.807 334.659 167.826 337.448C168.488 336.651 169.16 335.863 169.839 335.08Z" fill="#367629"/>
<path d="M186.759 318.949C185.493 320.14 184.24 321.344 182.995 322.556C185.427 322.14 187.862 321.738 190.304 321.381C191.797 318.285 192.739 315.346 192.214 313.91C190.387 315.58 188.569 317.261 186.759 318.949Z" fill="#367629"/>
<path d="M181.73 328.495L176.232 329.294C175.066 330.487 173.91 331.692 172.769 332.909C172.339 333.378 171.908 333.846 171.478 334.316L176.699 333.871C178.236 333.753 179.774 333.658 181.313 333.56C182.435 332.618 183.48 331.588 184.452 330.525C185.111 329.803 185.861 328.827 186.63 327.708C184.998 327.98 183.366 328.25 181.73 328.495Z" fill="#367629"/>
<path d="M150.875 330.903C150.043 330.132 149.209 329.365 148.361 328.613C147.746 328.078 147.123 327.552 146.504 327.022C146.503 327.02 146.504 327.017 146.503 327.014L145.255 322.147C145.09 321.525 144.912 320.906 144.743 320.285C146.812 321.016 148.764 322.107 150.506 323.493C150.541 324.337 150.566 325.182 150.607 326.026L150.875 330.903Z" fill="#367629"/>
<path d="M144.131 320.081C144.299 320.821 144.457 321.564 144.631 322.303L145.59 326.242C144.459 325.285 143.322 324.337 142.175 323.4C140.589 322.098 138.971 320.835 137.334 319.595C137.469 319.435 137.647 319.315 137.884 319.252C140.008 319.147 142.119 319.445 144.131 320.081Z" fill="#367629"/>
<path d="M154.282 334.124C153.392 333.264 152.495 332.411 151.591 331.565C151.596 331.545 151.606 331.527 151.608 331.505C151.61 331.487 151.61 331.468 151.609 331.451L151.241 325.987C151.191 325.31 151.128 324.635 151.074 323.959C153.152 325.737 154.896 327.946 156.13 330.463C156.104 330.768 156.071 331.072 156.047 331.377C155.922 332.777 155.829 334.178 155.725 335.58C155.244 335.094 154.772 334.6 154.282 334.124Z" fill="#367629"/>
<path d="M150.675 336.207L155.692 336.372C156.037 336.713 156.384 337.052 156.722 337.401C157.085 337.752 157.437 338.113 157.789 338.475C153.861 339.154 150.525 337.975 147.69 336.055C148.685 336.106 149.68 336.165 150.675 336.207Z" fill="#367629"/>
<path d="M147.895 329.138C148.603 329.761 149.303 330.393 150.003 331.025L146.393 330.757C144.908 330.653 143.42 330.569 141.932 330.492C141.038 329.297 140.128 327.928 139.336 326.563C141.536 326.881 143.741 327.158 145.947 327.426C146.597 327.995 147.25 328.562 147.895 329.138Z" fill="#367629"/>
<path d="M156.344 336.202C156.368 336.158 156.386 336.111 156.389 336.058C156.475 334.576 156.58 333.095 156.652 331.612C157.475 333.603 157.979 335.762 158.096 338.035C157.519 337.417 156.934 336.807 156.344 336.202Z" fill="#367629"/>
<path d="M141.795 323.862C142.883 324.773 143.961 325.694 145.032 326.623C143.031 326.399 141.029 326.186 139.022 326.011C137.66 323.56 136.753 321.21 137.113 320.016C138.681 321.289 140.241 322.573 141.795 323.862Z" fill="#367629"/>
<path d="M146.34 331.402L150.857 331.792C151.863 332.71 152.862 333.636 153.849 334.573C154.221 334.935 154.595 335.297 154.967 335.659L150.693 335.543C149.436 335.521 148.178 335.516 146.92 335.509C145.962 334.794 145.061 334.005 144.219 333.185C143.648 332.628 142.991 331.868 142.312 330.993C143.654 331.138 144.996 331.28 146.34 331.402Z" fill="#367629"/>
</g>
<mask id="mask2_433_479" style="mask-type:luminance" maskUnits="userSpaceOnUse" x="-63" y="172" width="357" height="357">
<path d="M-63 172H294V529H-63V172Z" fill="white"/>
</mask>
<g mask="url(#mask2_433_479)">
<path d="M182.578 291.087C182.578 291.087 139.904 299.649 115.799 325.481" stroke="#905F36" stroke-width="15" stroke-linecap="round" stroke-linejoin="round"/>
<path d="M189.472 270.44C190.421 268.774 191.376 267.112 192.361 265.467C193.08 264.291 193.815 263.126 194.545 261.957C194.545 261.953 194.542 261.949 194.542 261.944L194.076 253.461C194.025 252.374 193.998 251.286 193.954 250.198C190.99 252.43 188.397 255.183 186.294 258.304C186.668 259.683 187.059 261.059 187.421 262.44L189.472 270.44Z" fill="#367629"/>
<path d="M194.833 249.557C194.94 250.836 195.063 252.115 195.158 253.395L195.617 260.234C196.954 258.116 198.305 256.007 199.678 253.913C201.572 251.005 203.538 248.146 205.546 245.314C205.246 245.124 204.898 245.021 204.484 245.041C201.005 245.952 197.755 247.508 194.833 249.557Z" fill="#367629"/>
<path d="M185.619 277.37C186.616 275.529 187.63 273.697 188.656 271.873C188.637 271.843 188.611 271.819 188.597 271.785C188.585 271.757 188.575 271.726 188.568 271.698L186.38 262.701C186.115 261.585 185.874 260.464 185.617 259.346C183.171 263.272 181.485 267.721 180.777 272.408C180.973 272.886 181.181 273.359 181.375 273.838C182.289 276.032 183.152 278.245 184.034 280.451C184.562 279.424 185.072 278.386 185.619 277.37Z" fill="#367629"/>
<path d="M192.497 278.889L184.492 281.71C184.108 282.435 183.723 283.16 183.356 283.893C182.949 284.644 182.566 285.407 182.181 286.169C188.86 285.264 193.641 281.664 197.233 277.124C195.655 277.714 194.081 278.315 192.497 278.889Z" fill="#367629"/>
<path d="M193.381 266.079C192.556 267.444 191.75 268.82 190.942 270.195L196.627 267.925C198.969 267 201.325 266.108 203.684 265.226C204.517 262.844 205.29 260.174 205.871 257.571C202.485 259.203 199.071 260.772 195.651 262.326C194.892 263.575 194.128 264.822 193.381 266.079Z" fill="#367629"/>
<path d="M183.354 281.769C183.293 281.711 183.24 281.643 183.208 281.56C182.314 279.214 181.391 276.88 180.52 274.525C180.207 278.154 180.494 281.893 181.463 285.617C182.079 284.327 182.711 283.045 183.354 281.769Z" fill="#367629"/>
<path d="M200.53 254.463C199.241 256.485 197.971 258.519 196.716 260.562C199.829 259.182 202.949 257.82 206.095 256.516C207.045 251.871 207.31 247.62 206.121 245.878C204.242 248.729 202.38 251.593 200.53 254.463Z" fill="#367629"/>
<path d="M197.039 268.935L189.955 271.864C188.799 273.855 187.66 275.858 186.545 277.872C186.13 278.645 185.712 279.417 185.296 280.191L192.128 277.829C194.144 277.152 196.17 276.504 198.195 275.852C199.376 274.212 200.426 272.481 201.366 270.73C202.004 269.541 202.677 267.982 203.326 266.225C201.236 267.141 199.144 268.054 197.039 268.935Z" fill="#367629"/>
<path d="M195.872 294.429C197.004 294.626 198.135 294.827 199.262 295.048C200.071 295.214 200.878 295.392 201.685 295.566C201.688 295.565 201.689 295.562 201.692 295.561L206.38 293.576C206.983 293.326 207.591 293.09 208.195 292.844C206.335 291.626 204.256 290.724 202.068 290.172C201.367 290.663 200.671 291.162 199.966 291.648L195.872 294.429Z" fill="#367629"/>
<path d="M208.734 293.21C208.034 293.53 207.338 293.858 206.636 294.172L202.873 295.821C204.339 296.144 205.802 296.477 207.262 296.826C209.286 297.303 211.297 297.831 213.302 298.387C213.348 298.18 213.336 297.963 213.24 297.733C212.02 295.957 210.482 294.441 208.734 293.21Z" fill="#367629"/>
<path d="M191.182 293.663C192.423 293.851 193.661 294.05 194.898 294.259C194.911 294.242 194.92 294.222 194.936 294.207C194.949 294.195 194.965 294.183 194.979 294.174L199.607 291.112C200.182 290.736 200.766 290.373 201.344 290.001C198.633 289.419 195.782 289.372 192.996 289.925C192.767 290.133 192.542 290.346 192.311 290.553C191.26 291.514 190.187 292.45 189.123 293.395C189.809 293.485 190.498 293.561 191.182 293.663Z" fill="#367629"/>
<path d="M191.721 297.849L188.505 293.909C188.018 293.84 187.531 293.77 187.043 293.712C186.537 293.635 186.029 293.574 185.521 293.512C187.388 297.094 190.389 299.058 193.678 300.162C193.025 299.391 192.366 298.626 191.721 297.849Z" fill="#367629"/>
<path d="M199.125 295.746C198.187 295.558 197.248 295.383 196.308 295.207L198.743 297.951C199.74 299.083 200.721 300.23 201.698 301.381C203.21 301.367 204.872 301.261 206.459 301.059C204.851 299.482 203.272 297.876 201.702 296.263C200.843 296.089 199.985 295.911 199.125 295.746Z" fill="#367629"/>
<path d="M188.242 293.28C188.262 293.234 188.29 293.19 188.33 293.155C189.471 292.174 190.6 291.18 191.75 290.21C189.641 290.771 187.591 291.692 185.688 292.995C186.54 293.08 187.391 293.177 188.242 293.28Z" fill="#367629"/>
<path d="M207.124 297.418C205.722 297.101 204.317 296.798 202.911 296.506C204.321 297.98 205.723 299.463 207.097 300.972C209.909 300.564 212.359 299.85 213.1 298.826C211.111 298.345 209.118 297.877 207.124 297.418Z" fill="#367629"/>
<path d="M198.255 298.387L195.164 294.988C193.806 294.741 192.446 294.505 191.084 294.286C190.564 294.209 190.043 294.13 189.523 294.053L192.243 297.425C193.034 298.424 193.811 299.435 194.589 300.444C195.754 300.777 196.943 301.017 198.122 301.191C198.921 301.31 199.937 301.372 201.06 301.381C200.118 300.389 199.179 299.395 198.255 298.387Z" fill="#367629"/>
<path d="M139.139 290.815C139.308 289.677 139.481 288.539 139.674 287.405C139.821 286.591 139.979 285.78 140.133 284.967C140.132 284.965 140.129 284.963 140.128 284.961L138.024 280.318C137.759 279.721 137.507 279.118 137.247 278.519C136.074 280.411 135.222 282.515 134.724 284.718C135.233 285.407 135.75 286.092 136.254 286.786L139.139 290.815Z" fill="#367629"/>
<path d="M137.599 277.969C137.937 278.662 138.283 279.35 138.615 280.045L140.358 283.771C140.645 282.296 140.943 280.823 141.256 279.353C141.683 277.315 142.161 275.289 142.669 273.268C142.459 273.227 142.243 273.244 142.015 273.346C140.267 274.611 138.788 276.188 137.599 277.969Z" fill="#367629"/>
<path d="M138.489 295.528C138.646 294.282 138.815 293.037 138.993 291.794C138.975 291.781 138.955 291.773 138.94 291.757C138.928 291.744 138.915 291.729 138.905 291.715L135.726 287.158C135.335 286.591 134.957 286.016 134.57 285.447C134.055 288.175 134.079 291.03 134.701 293.805C134.915 294.029 135.134 294.249 135.347 294.475C136.335 295.503 137.299 296.554 138.272 297.596C138.344 296.906 138.403 296.216 138.489 295.528Z" fill="#367629"/>
<path d="M142.666 294.883L138.801 298.2C138.744 298.689 138.686 299.178 138.64 299.668C138.576 300.177 138.527 300.687 138.477 301.196C142.017 299.239 143.909 296.187 144.931 292.867C144.177 293.539 143.427 294.218 142.666 294.883Z" fill="#367629"/>
<path d="M140.377 287.526C140.213 288.469 140.061 289.414 139.908 290.358L142.594 287.853C143.703 286.827 144.826 285.816 145.954 284.81C145.903 283.296 145.754 281.635 145.514 280.052C143.975 281.701 142.407 283.321 140.831 284.933C140.678 285.797 140.522 286.66 140.377 287.526Z" fill="#367629"/>
<path d="M138.182 298.48C138.135 298.461 138.091 298.434 138.054 298.394C137.044 297.277 136.021 296.172 135.022 295.044C135.636 297.141 136.609 299.171 137.96 301.043C138.024 300.187 138.1 299.333 138.182 298.48Z" fill="#367629"/>
<path d="M141.852 279.476C141.57 280.887 141.302 282.3 141.044 283.715C142.485 282.267 143.935 280.827 145.411 279.414C144.933 276.609 144.157 274.175 143.113 273.458C142.682 275.462 142.263 277.468 141.852 279.476Z" fill="#367629"/>
<path d="M143.044 288.329L139.718 291.506C139.505 292.872 139.303 294.239 139.117 295.607C139.053 296.13 138.987 296.653 138.922 297.176L142.23 294.37C143.211 293.554 144.203 292.751 145.194 291.946C145.498 290.772 145.709 289.576 145.854 288.392C145.953 287.589 145.99 286.57 145.972 285.447C145.002 286.413 144.03 287.379 143.044 288.329Z" fill="#367629"/>
</g>
<mask id="mask3_433_479" style="mask-type:luminance" maskUnits="userSpaceOnUse" x="-63" y="172" width="357" height="357">
<path d="M-63 172H294V529H-63V172Z" fill="white"/>
</mask>
<g mask="url(#mask3_433_479)">
<path d="M67.938 311.304C67.938 311.304 73.2388 351.224 108.125 350.7" stroke="#905F36" stroke-width="20" stroke-linecap="round" stroke-linejoin="round"/>
<path d="M67.1113 342.424C66.0431 342.255 64.9754 342.083 63.9112 341.891C63.147 341.747 62.3857 341.591 61.6231 341.439C61.6208 341.441 61.6193 341.443 61.617 341.444L57.2341 343.382C56.6707 343.626 56.1015 343.857 55.5363 344.097C57.3054 345.216 59.2754 346.035 61.3422 346.522C61.995 346.049 62.643 345.569 63.2998 345.102L67.1113 342.424Z" fill="#367629"/>
<path d="M55.0228 343.762C55.6768 343.45 56.327 343.13 56.9834 342.824L60.5005 341.217C59.1161 340.934 57.7342 340.643 56.3552 340.336C54.4426 339.917 52.5416 339.45 50.6467 338.956C50.6064 339.152 50.621 339.356 50.7146 339.571C51.8892 341.224 53.3589 342.629 55.0228 343.762Z" fill="#367629"/>
<path d="M71.5375 343.076C70.3673 342.917 69.1986 342.748 68.0312 342.57C68.0193 342.587 68.0116 342.605 67.9964 342.619C67.9843 342.631 67.9696 342.642 67.9564 342.651L63.6458 345.602C63.1099 345.964 62.5662 346.315 62.0277 346.673C64.5874 347.181 67.2715 347.183 69.8855 346.621C70.0983 346.422 70.3071 346.218 70.5211 346.02C71.4963 345.1 72.4917 344.203 73.4795 343.297C72.8322 343.224 72.1834 343.162 71.5375 343.076Z" fill="#367629"/>
<path d="M70.9666 339.143L74.0521 342.804C74.5112 342.862 74.9706 342.921 75.4308 342.968C75.9085 343.033 76.3871 343.083 76.866 343.134C75.0558 339.79 72.2025 337.986 69.0903 336.996C69.7161 337.711 70.3477 338.422 70.9666 339.143Z" fill="#367629"/>
<path d="M64.0321 341.232C64.9169 341.395 65.8039 341.546 66.6908 341.698L64.3582 339.151C63.4031 338.1 62.4625 337.035 61.5264 335.966C60.1032 336.002 58.54 336.127 57.0502 336.34C58.587 337.801 60.0961 339.289 61.5987 340.783C62.4095 340.935 63.2199 341.089 64.0321 341.232Z" fill="#367629"/>
<path d="M74.3104 343.393C74.292 343.437 74.2665 343.478 74.229 343.512C73.1696 344.452 72.1219 345.404 71.0533 346.334C73.0304 345.775 74.9463 344.877 76.7179 343.623C75.9145 343.555 75.1121 343.477 74.3104 343.393Z" fill="#367629"/>
<path d="M56.4751 339.778C57.7991 340.054 59.1253 340.318 60.4536 340.573C59.1048 339.206 57.7636 337.832 56.4476 336.432C53.8068 336.858 51.5115 337.566 50.8291 338.54C52.7085 338.963 54.5916 339.374 56.4751 339.778Z" fill="#367629"/>
<path d="M64.8087 338.733L67.7679 341.887C69.0493 342.099 70.3328 342.3 71.6183 342.487C72.1092 342.552 72.6004 342.618 73.0912 342.684L70.4815 339.55C69.7222 338.621 68.9758 337.681 68.228 336.743C67.1268 336.447 66.0044 336.238 64.8926 336.092C64.1378 335.993 63.1809 335.949 62.1245 335.956C63.0252 336.877 63.9238 337.798 64.8087 338.733Z" fill="#367629"/>
<path d="M41.6137 315.958C39.7881 316.254 37.9608 316.543 36.1295 316.8C34.8109 316.972 33.4902 317.125 32.1703 317.285C32.1674 317.288 32.1658 317.292 32.1626 317.295L26.0732 322.782C25.2877 323.479 24.4863 324.158 23.6955 324.849C27.1671 325.724 30.8046 326.005 34.4232 325.694C35.2321 324.578 36.029 323.452 36.8474 322.343L41.6137 315.958Z" fill="#367629"/>
<path d="M22.6808 324.578C23.5772 323.723 24.4631 322.857 25.3668 322.009L30.226 317.523C27.8255 317.802 25.4237 318.064 23.0195 318.301C19.6878 318.639 16.3503 318.894 13.0073 319.101C13.0462 319.441 13.1787 319.766 13.4452 320.064C16.2358 322.125 19.3723 323.624 22.6808 324.578Z" fill="#367629"/>
<path d="M49.151 314.657C47.1647 315.024 45.1751 315.372 43.1833 315.705C43.1723 315.738 43.1703 315.772 43.153 315.803C43.1392 315.828 43.1218 315.855 43.105 315.877L37.6725 322.969C36.9947 323.843 36.2981 324.704 35.6143 325.573C40.0443 325.034 44.4076 323.606 48.3563 321.3C48.5961 320.862 48.8261 320.42 49.0681 319.984C50.1624 317.969 51.3024 315.981 52.425 313.982C51.3338 314.207 50.2462 314.453 49.151 314.657Z" fill="#367629"/>
<path d="M46.1265 308.572L53.0926 312.877C53.8698 312.726 54.647 312.577 55.4202 312.408C56.2308 312.259 57.036 312.085 57.8412 311.912C53.1166 307.443 47.518 306.033 41.9326 306.083C43.3312 306.912 44.7362 307.73 46.1265 308.572Z" fill="#367629"/>
<path d="M35.9724 315.664C37.4974 315.457 39.0191 315.229 40.5411 315.004L35.3934 312.109C33.2806 310.909 31.1844 309.68 29.0931 308.442C26.7992 309.259 24.3261 310.296 22.0186 311.436C25.2946 312.991 28.5403 314.604 31.779 316.233C33.1771 316.046 34.5763 315.865 35.9724 315.664Z" fill="#367629"/>
<path d="M53.8272 313.694C53.8208 313.776 53.8014 313.856 53.7585 313.931C52.538 316.023 51.3436 318.13 50.1024 320.21C53.0173 318.248 55.652 315.768 57.8624 312.785C56.5206 313.103 55.1752 313.404 53.8272 313.694Z" fill="#367629"/>
<path d="M22.919 317.327C25.218 317.071 27.515 316.793 29.8091 316.499C26.8881 314.997 23.9754 313.478 21.0908 311.904C17.0263 314.004 13.6732 316.379 13.0842 318.327C16.3638 318.012 19.643 317.676 22.919 317.327Z" fill="#367629"/>
<path d="M35.9014 311.189L42.3917 314.736C44.5874 314.398 46.7802 314.04 48.9685 313.659C49.8011 313.502 50.6345 313.349 51.4671 313.193L45.5556 309.492C43.8264 308.387 42.1126 307.258 40.3972 306.132C38.4498 306.238 36.5142 306.497 34.6295 306.852C33.3501 307.093 31.7714 307.532 30.0587 308.107C32.0128 309.123 33.9653 310.141 35.9014 311.189Z" fill="#367629"/>
<path d="M45.3917 291.875C44.5185 291.298 43.643 290.725 42.7578 290.168C42.1176 289.773 41.4715 289.388 40.8277 288.999C40.8267 288.997 40.8273 288.995 40.8263 288.992L38.9576 284.749C38.7142 284.207 38.4583 283.671 38.2109 283.131C40.2047 283.485 42.1467 284.184 43.9414 285.184C44.0995 285.948 44.2494 286.713 44.4142 287.475L45.3917 291.875Z" fill="#367629"/>
<path d="M37.6257 283.035C37.8898 283.684 38.1459 284.337 38.4156 284.984L39.8814 288.425C38.7077 287.725 37.5295 287.032 36.3441 286.352C34.7037 285.405 33.0409 284.499 31.3645 283.616C31.4636 283.45 31.6076 283.313 31.8142 283.221C33.7321 282.805 35.6975 282.76 37.6257 283.035Z" fill="#367629"/>
<path d="M48.9817 294.295C48.042 293.646 47.0963 293.005 46.1462 292.37C46.1483 292.351 46.155 292.333 46.1535 292.312C46.1523 292.296 46.1492 292.279 46.1457 292.264L44.9885 287.344C44.8419 286.736 44.6821 286.131 44.5312 285.523C46.6912 286.83 48.6108 288.578 50.1127 290.684C50.1349 290.966 50.1511 291.247 50.1749 291.528C50.2722 292.822 50.3986 294.112 50.5141 295.403C50.0034 295.034 49.4992 294.655 48.9817 294.295Z" fill="#367629"/>
<path d="M46.0099 296.733L50.6021 296.128C50.9678 296.387 51.3345 296.644 51.6944 296.91C52.0777 297.176 52.4525 297.452 52.828 297.728C49.3539 298.937 46.1386 298.366 43.2691 297.044C44.1827 296.941 45.0974 296.845 46.0099 296.733Z" fill="#367629"/>
<path d="M42.4138 290.718C43.1525 291.178 43.8844 291.649 44.6173 292.118L41.2903 292.417C39.9221 292.546 38.5557 292.694 37.1894 292.847C36.1956 291.893 35.1604 290.785 34.2344 289.661C36.2852 289.62 38.3339 289.54 40.3826 289.452C41.0607 289.872 41.7402 290.29 42.4138 290.718Z" fill="#367629"/>
<path d="M51.169 295.877C51.1847 295.834 51.1935 295.787 51.1886 295.739C51.0446 294.376 50.9168 293.012 50.7593 291.651C51.8075 293.34 52.5915 295.231 53.0397 297.282C52.4211 296.807 51.797 296.339 51.169 295.877Z" fill="#367629"/>
<path d="M36.0656 286.831C37.1923 287.496 38.3122 288.173 39.4275 288.857C37.572 288.954 35.7173 289.062 33.864 289.204C32.2544 287.178 31.0756 285.175 31.2238 284.033C32.8425 284.957 34.4567 285.891 36.0656 286.831Z" fill="#367629"/>
<path d="M41.3395 293.011L45.5103 292.687C46.5648 293.371 47.6134 294.064 48.6536 294.768C49.0469 295.042 49.4405 295.315 49.8341 295.588L45.9262 296.126C44.7779 296.295 43.6318 296.48 42.4853 296.663C41.5054 296.156 40.567 295.573 39.6771 294.953C39.073 294.532 38.3603 293.939 37.6105 293.245C38.854 293.174 40.0975 293.102 41.3395 293.011Z" fill="#367629"/>
<path d="M67.0779 292.08C66.9624 290.732 66.842 289.384 66.6978 288.038C66.585 287.071 66.4584 286.107 66.3364 285.141C66.3379 285.139 66.3408 285.137 66.3423 285.134L69.1509 279.834C69.5058 279.152 69.8451 278.463 70.1949 277.778C71.4345 280.086 72.2819 282.618 72.7066 285.242C72.0582 286.015 71.4015 286.781 70.7599 287.559L67.0779 292.08Z" fill="#367629"/>
<path d="M69.8229 277.108C69.3758 277.897 68.9184 278.68 68.4783 279.473L66.1602 283.721C65.9301 281.968 65.6885 280.216 65.4278 278.468C65.0739 276.043 64.66 273.628 64.2112 271.219C64.4595 271.186 64.7133 271.222 64.9728 271.358C66.933 272.971 68.556 274.93 69.8229 277.108Z" fill="#367629"/>
<path d="M67.497 297.664C67.4027 296.189 67.2949 294.715 67.1766 293.242C67.1981 293.228 67.2219 293.22 67.2412 293.202C67.2568 293.188 67.2719 293.171 67.2847 293.155L71.3503 288.035C71.8503 287.398 72.3365 286.751 72.832 286.111C73.2383 289.351 73.0029 292.702 72.0698 295.916C71.8021 296.164 71.5289 296.406 71.2626 296.656C70.0279 297.792 68.8193 298.955 67.6013 300.108C67.5664 299.293 67.547 298.477 67.497 297.664Z" fill="#367629"/>
<path d="M62.6413 296.602L66.9382 300.779C66.9692 301.357 67.0023 301.936 67.0205 302.515C67.059 303.117 67.0789 303.719 67.1002 304.321C63.0865 301.765 61.087 298.042 60.1274 294.069C60.9649 294.914 61.796 295.766 62.6413 296.602Z" fill="#367629"/>
<path d="M65.8642 288.129C65.9891 289.248 66.0982 290.369 66.2093 291.489L63.2372 288.352C62.0091 287.066 60.7633 285.797 59.5118 284.533C59.6828 282.759 59.9777 280.82 60.3756 278.979C62.0629 281.027 63.7869 283.043 65.5197 285.052C65.6366 286.077 65.7575 287.102 65.8642 288.129Z" fill="#367629"/>
<path d="M67.6473 301.154C67.7039 301.135 67.7579 301.107 67.8035 301.063C69.0707 299.824 70.353 298.601 71.6081 297.349C70.7349 299.768 69.4445 302.08 67.7216 304.18C67.708 303.171 67.6816 302.162 67.6473 301.154Z" fill="#367629"/>
<path d="M64.7172 278.568C64.9454 280.246 65.1575 281.925 65.3574 283.606C63.7704 281.801 62.1736 280.004 60.5424 278.237C61.3086 274.978 62.3963 272.175 63.6739 271.41C64.0348 273.794 64.381 276.181 64.7172 278.568Z" fill="#367629"/>
<path d="M62.6769 288.878L66.351 292.852C66.503 294.471 66.6398 296.091 66.7588 297.713C66.7964 298.331 66.8357 298.95 66.8736 299.569L63.1932 296.033C62.1009 295.003 60.994 293.987 59.8887 292.971C59.6169 291.57 59.4564 290.149 59.3722 288.748C59.315 287.797 59.3449 286.599 59.4483 285.281C60.5171 286.487 61.5881 287.691 62.6769 288.878Z" fill="#367629"/>
</g>
<path d="M111.473 256.482C112.607 272.705 125.541 457.848 127.469 485.44C127.614 487.507 126.278 489.39 124.277 489.927C118.756 491.409 107.45 493.557 96.8909 490.07C95.0523 489.464 93.8524 487.692 93.9417 485.758L104.501 257.232C104.58 255.515 105.366 253.877 106.74 252.845C107.864 252.001 109.259 251.679 110.495 253.516C111.085 254.394 111.4 255.427 111.473 256.482Z" fill="#905F36"/>
<path d="M106.128 311.055C103.294 317.236 101.88 324.291 102.04 331.458C102.347 345.174 107.668 358.425 113.093 370.823C113.466 371.675 113.841 372.528 114.216 373.382C116.47 378.511 118.758 383.72 120.735 389.026C120.6 387.088 120.464 385.143 120.328 383.194C118.877 379.647 117.34 376.145 115.816 372.679C115.442 371.826 115.067 370.974 114.694 370.122C109.34 357.885 104.087 344.816 103.787 331.419C103.524 319.654 107.646 308.735 114.638 301.746C114.584 300.978 114.531 300.215 114.478 299.46C111.073 302.536 108.236 306.461 106.128 311.055Z" fill="#D7A460"/>
<path d="M102.664 466.732C102.288 467.036 102.229 467.586 102.532 467.961C102.705 468.175 102.958 468.286 103.213 468.286C103.406 468.286 103.599 468.223 103.761 468.093C113.118 460.546 120.159 450.267 124.222 438.932C124.114 437.398 124.006 435.844 123.895 434.266C120.265 446.9 112.883 458.49 102.664 466.732Z" fill="#D7A460"/>
<path d="M115.968 436.706C121.519 424.223 122.183 409.644 117.788 396.708C115.66 390.444 112.398 384.592 109.243 378.933C107.819 376.38 106.347 373.74 105.004 371.105C102.615 366.417 100.904 362.131 99.8413 358.136L99.6079 363.19C100.613 365.952 101.891 368.845 103.447 371.899C104.805 374.562 106.284 377.217 107.716 379.784C110.833 385.375 114.056 391.156 116.133 397.27C120.388 409.795 119.746 423.91 114.371 435.996C110.295 445.162 103.528 453.086 95.1967 458.663L95.0972 460.814C104.191 455.027 111.585 446.562 115.968 436.706Z" fill="#D7A460"/>
<path d="M98.6533 383.818L98.5025 387.08C103.394 396.155 105.912 406.58 105.551 416.835C105.175 427.514 101.672 438.16 95.7298 447.096L95.5791 450.357C102.67 440.711 106.878 428.825 107.298 416.896C107.702 405.405 104.597 393.708 98.6533 383.818Z" fill="#D7A460"/>
<path d="M125.836 462.036C125.789 461.355 125.74 460.661 125.691 459.96C115.335 467.559 108.015 479.197 105.24 491.762C105.831 491.816 106.419 491.859 107.002 491.889C109.641 480.188 116.352 469.338 125.836 462.036Z" fill="#D7A460"/>
<path d="M126.503 471.579C121.091 476.92 117.538 484.016 116.339 491.496C116.962 491.415 117.568 491.327 118.154 491.233C119.285 484.817 122.239 478.726 126.667 473.925C126.615 473.169 126.56 472.384 126.503 471.579Z" fill="#D7A460"/>
<path d="M109.676 336.102C110.161 344.553 113.336 352.693 118.656 359.248C118.582 358.183 118.507 357.12 118.433 356.059C114.296 350.185 111.835 343.212 111.422 336.002C111.026 329.115 112.514 322.23 115.643 316.129C115.568 315.056 115.494 313.991 115.42 312.935C111.242 319.873 109.211 327.986 109.676 336.102Z" fill="#D7A460"/>
<path d="M182.543 292.698C181.075 293.631 180.363 295.076 179.878 296.669C179.336 298.451 178.842 300.241 179.193 302.137C179.267 302.439 179.341 302.741 179.415 303.044C179.482 303.122 179.56 303.119 179.644 303.073C179.804 302.729 180.109 302.494 180.303 302.167C180.806 301.32 181.245 300.439 181.718 299.577C182.923 297.385 183.237 295.067 182.817 292.625L182.543 292.698ZM179.994 301.895C179.866 301.75 179.946 301.629 179.979 301.519C180.628 299.335 181.174 297.125 181.626 294.892C181.681 294.616 181.767 294.345 181.868 294.082C181.927 293.927 182.017 293.73 182.242 293.82C182.456 293.905 182.346 294.088 182.306 294.228C181.656 296.488 181.235 298.815 180.368 301.012C180.253 301.303 180.246 301.645 179.994 301.895Z" fill="#BDD749"/>
<path d="M182.817 292.625C183.237 295.067 182.923 297.385 181.719 299.577C181.245 300.439 180.807 301.32 180.303 302.168C180.109 302.494 179.805 302.729 179.644 303.073C180.186 303.002 180.475 302.543 180.88 302.262C181.202 301.8 181.537 301.345 181.846 300.874C182.815 299.391 183.503 297.8 183.676 296.014C183.794 294.805 183.491 293.671 183.091 292.552L182.817 292.625Z" fill="#A2CC00"/>
<path d="M170.85 308.156C170.835 307.798 170.851 307.441 170.904 307.091C171.051 306.125 171.632 305.331 172.427 304.784C173.761 303.863 175.086 303.411 176.673 303.294C177.495 303.201 178.316 303.107 179.138 303.014C179.231 303.024 179.323 303.034 179.415 303.043C179.482 303.121 179.56 303.119 179.643 303.073C180.186 303.001 180.475 302.543 180.879 302.262C180.994 302.388 181.064 302.268 181.156 302.219C183.514 300.976 185.958 301.545 187.562 303.682C189.326 306.032 189.726 308.687 189.414 311.527C189.192 313.545 188.27 315.128 186.649 316.329C185.793 316.964 184.868 317.312 183.785 317.164C183.137 317.075 182.56 317.25 181.996 317.602C180.752 318.377 179.396 318.626 177.965 318.229C176.279 317.761 174.856 316.868 173.766 315.483C172.627 314.037 171.874 312.592 171.258 310.865C170.971 310.059 170.884 309.031 170.85 308.156ZM173.471 311.644C173.671 312.072 173.903 312.485 174.193 312.86C174.286 312.982 174.412 313.144 174.58 313.041C174.771 312.924 174.685 312.735 174.595 312.582C174.29 312.067 173.946 311.573 173.678 311.04C172.941 309.579 172.892 308.078 173.494 306.557C173.534 306.455 173.572 306.351 173.604 306.246C173.611 306.221 173.591 306.188 173.553 306.049C173.162 306.522 172.957 307.004 172.835 307.522C172.491 308.98 172.858 310.333 173.471 311.644Z" fill="#F41919"/>
<path d="M179.138 303.014C179.23 303.024 179.322 303.034 179.415 303.044C179.34 302.741 179.266 302.439 179.192 302.137C177.791 300.418 176.089 299.075 174.115 298.074C174.059 298.046 174.006 298.011 173.95 297.983C173.756 297.885 173.567 297.886 173.472 298.104C173.381 298.315 173.493 298.457 173.697 298.547C175.494 299.345 176.99 300.554 178.319 301.983C178.617 302.303 178.866 302.669 179.138 303.014Z" fill="#FF7A00"/>
<path d="M179.995 301.895C180.247 301.645 180.254 301.303 180.369 301.012C181.236 298.814 181.657 296.488 182.307 294.228C182.347 294.088 182.457 293.905 182.243 293.82C182.018 293.73 181.928 293.927 181.869 294.082C181.768 294.345 181.682 294.616 181.626 294.892C181.175 297.125 180.629 299.335 179.98 301.518C179.947 301.629 179.867 301.749 179.995 301.895Z" fill="#A1CB00"/>
<path d="M173.553 306.049C173.162 306.523 172.956 307.004 172.834 307.523C172.49 308.98 172.858 310.333 173.47 311.644C173.67 312.072 173.902 312.485 174.192 312.861C174.286 312.982 174.412 313.145 174.58 313.041C174.771 312.924 174.685 312.735 174.594 312.582C174.289 312.067 173.946 311.573 173.677 311.04C172.941 309.58 172.891 308.079 173.493 306.557C173.534 306.455 173.571 306.351 173.603 306.246C173.611 306.222 173.59 306.189 173.553 306.049Z" fill="#FFA7AA"/>
<path d="M172.081 312.017C172.104 312.062 172.13 312.106 172.157 312.148C172.272 312.326 172.303 312.564 172.443 312.725C172.974 312.585 172.833 312.187 172.749 311.849C172.498 310.846 172.229 309.854 172.124 308.814C171.965 307.236 172.849 305.43 174.359 304.917C175.178 304.639 176.017 304.451 176.836 304.186C177.039 304.12 177.298 304.115 177.252 303.789C175.665 303.906 174.144 304.244 172.81 305.165C172.127 305.636 171.584 306.292 171.365 307.101C171.132 307.959 171.198 308.869 171.377 309.73C171.469 310.172 171.592 310.606 171.731 311.035C171.834 311.351 171.922 311.715 172.081 312.017Z" fill="#E00606"/>
<path d="M138.234 317.698C136.766 318.631 136.054 320.076 135.569 321.669C135.027 323.451 134.533 325.241 134.884 327.137C134.958 327.439 135.032 327.741 135.106 328.044C135.174 328.122 135.252 328.119 135.335 328.073C135.496 327.729 135.8 327.494 135.994 327.167C136.498 326.32 136.936 325.439 137.41 324.577C138.614 322.385 138.929 320.067 138.508 317.625L138.234 317.698ZM135.686 326.895C135.557 326.75 135.637 326.629 135.67 326.519C136.32 324.335 136.866 322.125 137.317 319.892C137.373 319.616 137.459 319.345 137.559 319.082C137.618 318.927 137.709 318.73 137.933 318.82C138.147 318.905 138.038 319.088 137.997 319.228C137.347 321.488 136.927 323.815 136.059 326.012C135.945 326.303 135.937 326.645 135.686 326.895Z" fill="#BDD749"/>
<path d="M138.508 317.625C138.929 320.067 138.614 322.385 137.41 324.577C136.936 325.439 136.498 326.32 135.995 327.168C135.801 327.494 135.496 327.729 135.335 328.073C135.877 328.002 136.166 327.543 136.571 327.262C136.894 326.8 137.229 326.345 137.537 325.874C138.507 324.391 139.194 322.8 139.368 321.014C139.485 319.805 139.182 318.671 138.782 317.552L138.508 317.625Z" fill="#A2CC00"/>
<path d="M126.541 333.156C126.527 332.798 126.543 332.441 126.596 332.091C126.743 331.125 127.324 330.331 128.119 329.784C129.453 328.863 130.778 328.411 132.364 328.294C133.186 328.201 134.008 328.107 134.83 328.014C134.922 328.024 135.014 328.034 135.107 328.043C135.174 328.121 135.251 328.119 135.335 328.073C135.877 328.001 136.166 327.543 136.571 327.262C136.685 327.388 136.755 327.268 136.847 327.219C139.205 325.976 141.65 326.545 143.254 328.682C145.017 331.032 145.418 333.687 145.105 336.527C144.883 338.545 143.961 340.128 142.341 341.329C141.484 341.964 140.56 342.312 139.477 342.164C138.828 342.075 138.252 342.25 137.687 342.602C136.444 343.377 135.087 343.626 133.657 343.229C131.97 342.761 130.548 341.868 129.457 340.483C128.319 339.037 127.565 337.592 126.949 335.865C126.662 335.059 126.576 334.031 126.541 333.156ZM129.162 336.644C129.362 337.072 129.594 337.485 129.884 337.86C129.978 337.982 130.104 338.144 130.272 338.041C130.463 337.924 130.377 337.735 130.286 337.582C129.981 337.067 129.638 336.573 129.369 336.04C128.633 334.579 128.583 333.078 129.185 331.557C129.226 331.455 129.263 331.351 129.295 331.246C129.303 331.221 129.282 331.188 129.245 331.049C128.853 331.522 128.648 332.004 128.526 332.522C128.182 333.98 128.55 335.333 129.162 336.644Z" fill="#F41919"/>
<path d="M134.829 328.014C134.921 328.024 135.014 328.034 135.106 328.044C135.032 327.741 134.957 327.439 134.883 327.137C133.482 325.418 131.781 324.075 129.807 323.074C129.751 323.046 129.698 323.011 129.642 322.983C129.447 322.885 129.258 322.886 129.164 323.104C129.073 323.315 129.184 323.457 129.389 323.547C131.186 324.345 132.682 325.554 134.01 326.983C134.309 327.303 134.557 327.669 134.829 328.014Z" fill="#FF7A00"/>
<path d="M135.687 326.895C135.938 326.645 135.945 326.303 136.06 326.012C136.928 323.814 137.348 321.488 137.998 319.228C138.039 319.088 138.148 318.905 137.934 318.82C137.709 318.73 137.619 318.927 137.56 319.082C137.46 319.345 137.373 319.616 137.318 319.892C136.867 322.125 136.321 324.335 135.671 326.518C135.638 326.629 135.558 326.749 135.687 326.895Z" fill="#A1CB00"/>
<path d="M129.244 331.049C128.853 331.523 128.648 332.004 128.525 332.523C128.182 333.98 128.549 335.333 129.162 336.644C129.362 337.072 129.594 337.485 129.884 337.861C129.977 337.982 130.103 338.145 130.271 338.041C130.462 337.924 130.376 337.735 130.285 337.582C129.981 337.067 129.637 336.573 129.369 336.04C128.632 334.58 128.583 333.079 129.185 331.557C129.225 331.455 129.263 331.351 129.295 331.246C129.302 331.222 129.282 331.189 129.244 331.049Z" fill="#FFA7AA"/>
<path d="M127.772 337.017C127.796 337.062 127.821 337.106 127.848 337.148C127.964 337.326 127.994 337.564 128.134 337.725C128.665 337.585 128.524 337.187 128.44 336.849C128.189 335.846 127.92 334.854 127.815 333.814C127.656 332.236 128.541 330.43 130.051 329.917C130.87 329.639 131.709 329.451 132.528 329.186C132.731 329.12 132.989 329.115 132.943 328.789C131.357 328.906 129.835 329.244 128.501 330.165C127.819 330.636 127.276 331.292 127.056 332.101C126.824 332.959 126.89 333.869 127.068 334.73C127.16 335.172 127.283 335.606 127.422 336.035C127.525 336.351 127.613 336.715 127.772 337.017Z" fill="#E00606"/>
<path d="M74.7178 342.698C76.1861 343.631 76.8981 345.076 77.3829 346.669C77.9251 348.451 78.4192 350.241 78.0682 352.137C77.994 352.439 77.9198 352.741 77.8457 353.044C77.7783 353.122 77.7006 353.119 77.6172 353.073C77.4564 352.729 77.1517 352.494 76.9578 352.167C76.4544 351.32 76.0162 350.439 75.5425 349.577C74.338 347.385 74.0236 345.067 74.4438 342.625L74.7178 342.698ZM77.2663 351.895C77.3952 351.75 77.3151 351.629 77.2821 351.519C76.6323 349.335 76.0863 347.125 75.6352 344.892C75.5796 344.616 75.4933 344.345 75.3932 344.082C75.3341 343.927 75.2436 343.73 75.019 343.82C74.8048 343.905 74.9144 344.088 74.9547 344.228C75.6051 346.488 76.0254 348.815 76.8929 351.012C77.0076 351.303 77.015 351.645 77.2663 351.895Z" fill="#BDD749"/>
<path d="M74.4437 342.625C74.0234 345.067 74.3377 347.385 75.5421 349.577C76.0159 350.439 76.4541 351.32 76.9574 352.168C77.1513 352.494 77.456 352.729 77.6169 353.073C77.0747 353.002 76.786 352.543 76.3811 352.262C76.0583 351.8 75.7233 351.345 75.415 350.874C74.4456 349.391 73.758 347.8 73.5845 346.014C73.467 344.805 73.7699 343.671 74.1698 342.552L74.4437 342.625Z" fill="#A2CC00"/>
<path d="M86.4112 358.156C86.4253 357.798 86.4094 357.441 86.3563 357.091C86.2096 356.125 85.6286 355.331 84.8335 354.784C83.4995 353.863 82.1746 353.411 80.5882 353.294C79.7662 353.201 78.9443 353.107 78.1224 353.014C78.03 353.024 77.9378 353.034 77.8456 353.043C77.7784 353.121 77.7007 353.119 77.6173 353.073C77.0749 353.001 76.7862 352.543 76.3814 352.262C76.267 352.388 76.1972 352.268 76.1052 352.219C73.7469 350.976 71.3023 351.545 69.6983 353.682C67.9351 356.032 67.5346 358.687 67.847 361.527C68.0689 363.545 68.9911 365.128 70.6114 366.329C71.468 366.964 72.3925 367.312 73.4755 367.164C74.124 367.075 74.7004 367.25 75.2647 367.602C76.5086 368.377 77.8647 368.626 79.2953 368.229C80.9817 367.761 82.4046 366.868 83.4951 365.483C84.6336 364.037 85.3872 362.592 86.0027 360.865C86.2898 360.059 86.3765 359.031 86.4112 358.156ZM83.7899 361.644C83.5897 362.072 83.3579 362.485 83.0679 362.86C82.9745 362.982 82.8483 363.144 82.6802 363.041C82.4895 362.924 82.5755 362.735 82.6662 362.582C82.971 362.067 83.3143 361.573 83.5829 361.04C84.3196 359.579 84.3688 358.078 83.7668 356.557C83.7263 356.455 83.6889 356.351 83.6568 356.246C83.6494 356.221 83.6701 356.188 83.7075 356.049C84.0987 356.522 84.3039 357.004 84.4262 357.522C84.7699 358.98 84.4023 360.333 83.7899 361.644Z" fill="#F41919"/>
<path d="M78.1231 353.014C78.0308 353.024 77.9384 353.034 77.8462 353.044C77.9205 352.741 77.9948 352.439 78.069 352.137C79.4698 350.418 81.1716 349.075 83.1454 348.074C83.2015 348.046 83.2543 348.011 83.3104 347.983C83.5049 347.885 83.6942 347.886 83.7885 348.104C83.8795 348.315 83.7677 348.457 83.5636 348.547C81.7664 349.345 80.2705 350.554 78.9417 351.983C78.6436 352.303 78.3947 352.669 78.1231 353.014Z" fill="#FF7A00"/>
<path d="M77.2654 351.895C77.014 351.645 77.0067 351.303 76.8919 351.012C76.0245 348.814 75.6042 346.488 74.9537 344.228C74.9134 344.088 74.8039 343.905 75.018 343.82C75.2427 343.73 75.3332 343.927 75.3922 344.082C75.4923 344.345 75.5787 344.616 75.6343 344.892C76.0854 347.125 76.6314 349.335 77.2812 351.518C77.3141 351.629 77.3942 351.749 77.2654 351.895Z" fill="#A1CB00"/>
<path d="M83.708 356.049C84.0992 356.523 84.3045 357.004 84.4267 357.523C84.7704 358.98 84.4028 360.333 83.7904 361.644C83.5903 362.072 83.3584 362.485 83.0685 362.861C82.975 362.982 82.8488 363.145 82.6808 363.041C82.49 362.924 82.5761 362.735 82.6667 362.582C82.9716 362.067 83.3148 361.573 83.5834 361.04C84.32 359.58 84.3693 358.079 83.7673 356.557C83.7268 356.455 83.6893 356.351 83.6574 356.246C83.6499 356.222 83.6706 356.189 83.708 356.049Z" fill="#FFA7AA"/>
<path d="M85.1802 362.017C85.1565 362.062 85.1311 362.106 85.1039 362.148C84.9885 362.326 84.958 362.564 84.8182 362.725C84.287 362.585 84.4277 362.187 84.512 361.849C84.7627 360.846 85.032 359.854 85.1369 358.814C85.2961 357.236 84.4113 355.43 82.9015 354.917C82.0825 354.639 81.2435 354.451 80.4246 354.186C80.2214 354.12 79.963 354.115 80.0091 353.789C81.5954 353.906 83.117 354.244 84.4508 355.165C85.1335 355.636 85.6764 356.292 85.8959 357.101C86.1284 357.959 86.0623 358.869 85.8838 359.73C85.7922 360.172 85.6692 360.606 85.5298 361.035C85.4268 361.351 85.339 361.715 85.1802 362.017Z" fill="#E00606"/>
<path d="M80.9913 294.698C82.4596 295.631 83.1716 297.076 83.6563 298.669C84.1986 300.451 84.6926 302.241 84.3416 304.137C84.2674 304.439 84.1933 304.741 84.1191 305.044C84.0517 305.122 83.9741 305.119 83.8907 305.073C83.7298 304.729 83.4251 304.494 83.2313 304.167C82.7278 303.32 82.2896 302.439 81.816 301.577C80.6114 299.385 80.297 297.067 80.7173 294.625L80.9913 294.698ZM83.5397 303.895C83.6686 303.75 83.5885 303.629 83.5555 303.519C82.9058 301.335 82.3598 299.125 81.9087 296.892C81.8531 296.616 81.7667 296.345 81.6666 296.082C81.6076 295.927 81.5171 295.73 81.2924 295.82C81.0783 295.905 81.1878 296.088 81.2281 296.228C81.8786 298.488 82.2989 300.815 83.1663 303.012C83.2811 303.303 83.2884 303.645 83.5397 303.895Z" fill="#BDD749"/>
<path d="M80.7172 294.625C80.2969 297.067 80.6111 299.385 81.8156 301.577C82.2894 302.439 82.7275 303.32 83.2309 304.168C83.4247 304.494 83.7295 304.729 83.8904 305.073C83.3481 305.002 83.0594 304.543 82.6546 304.262C82.3318 303.8 81.9968 303.345 81.6884 302.874C80.719 301.391 80.0315 299.8 79.8579 298.014C79.7405 296.805 80.0434 295.671 80.4433 294.552L80.7172 294.625Z" fill="#A2CC00"/>
<path d="M92.6846 310.156C92.6987 309.798 92.6828 309.441 92.6297 309.091C92.483 308.125 91.902 307.331 91.1069 306.784C89.7729 305.863 88.4481 305.411 86.8616 305.294C86.0396 305.201 85.2178 305.107 84.3958 305.014C84.3035 305.024 84.2112 305.034 84.119 305.043C84.0518 305.121 83.9742 305.119 83.8907 305.073C83.3484 305.001 83.0597 304.543 82.6548 304.262C82.5405 304.388 82.4707 304.268 82.3787 304.219C80.0203 302.976 77.5758 303.545 75.9717 305.682C74.2086 308.032 73.808 310.687 74.1204 313.527C74.3423 315.545 75.2645 317.128 76.8848 318.329C77.7415 318.964 78.666 319.312 79.749 319.164C80.3974 319.075 80.9738 319.25 81.5381 319.602C82.7821 320.377 84.1381 320.626 85.5687 320.229C87.2552 319.761 88.6781 318.868 89.7685 317.483C90.907 316.037 91.6606 314.592 92.2761 312.865C92.5632 312.059 92.6499 311.031 92.6846 310.156ZM90.0633 313.644C89.8632 314.072 89.6314 314.485 89.3414 314.86C89.2479 314.982 89.1217 315.144 88.9537 315.041C88.7629 314.924 88.849 314.735 88.9396 314.582C89.2445 314.067 89.5878 313.573 89.8564 313.04C90.5931 311.579 90.6422 310.078 90.0403 308.557C89.9998 308.455 89.9623 308.351 89.9303 308.246C89.9228 308.221 89.9435 308.188 89.9809 308.049C90.3721 308.522 90.5774 309.004 90.6996 309.522C91.0433 310.98 90.6757 312.333 90.0633 313.644Z" fill="#F41919"/>
<path d="M84.3966 305.014C84.3042 305.024 84.2118 305.034 84.1196 305.044C84.194 304.741 84.2682 304.439 84.3424 304.137C85.7433 302.418 87.445 301.075 89.4189 300.074C89.4749 300.046 89.5277 300.011 89.5839 299.983C89.7784 299.885 89.9676 299.886 90.062 300.104C90.153 300.315 90.0411 300.457 89.837 300.547C88.0398 301.345 86.544 302.554 85.2151 303.983C84.917 304.303 84.6681 304.669 84.3966 305.014Z" fill="#FF7A00"/>
<path d="M83.5388 303.895C83.2874 303.645 83.2801 303.303 83.1654 303.012C82.2979 300.814 81.8776 298.488 81.2272 296.228C81.1869 296.088 81.0773 295.905 81.2914 295.82C81.5161 295.73 81.6066 295.927 81.6656 296.082C81.7657 296.345 81.8521 296.616 81.9077 296.892C82.3588 299.125 82.9048 301.335 83.5546 303.518C83.5875 303.629 83.6676 303.749 83.5388 303.895Z" fill="#A1CB00"/>
<path d="M89.9814 308.049C90.3727 308.523 90.5779 309.004 90.7001 309.523C91.0438 310.98 90.6763 312.333 90.0638 313.644C89.8637 314.072 89.6319 314.485 89.3419 314.861C89.2484 314.982 89.1223 315.145 88.9542 315.041C88.7634 314.924 88.8495 314.735 88.9401 314.582C89.245 314.067 89.5883 313.573 89.8569 313.04C90.5934 311.58 90.6427 310.079 90.0408 308.557C90.0003 308.455 89.9627 308.351 89.9308 308.246C89.9233 308.222 89.944 308.189 89.9814 308.049Z" fill="#FFA7AA"/>
<path d="M91.4537 314.017C91.4299 314.062 91.4046 314.106 91.3773 314.148C91.2619 314.326 91.2315 314.564 91.0916 314.725C90.5604 314.585 90.7011 314.187 90.7855 313.849C91.0361 312.846 91.3055 311.854 91.4103 310.814C91.5695 309.236 90.6848 307.43 89.175 306.917C88.3559 306.639 87.5169 306.451 86.698 306.186C86.4949 306.12 86.2364 306.115 86.2825 305.789C87.8689 305.906 89.3904 306.244 90.7243 307.165C91.4069 307.636 91.9498 308.292 92.1693 309.101C92.4019 309.959 92.3358 310.869 92.1572 311.73C92.0656 312.172 91.9426 312.606 91.8032 313.035C91.7002 313.351 91.6125 313.715 91.4537 314.017Z" fill="#E00606"/>
<path d="M137.265 366.698C138.733 367.631 139.445 369.076 139.93 370.669C140.472 372.451 140.966 374.241 140.615 376.137C140.541 376.439 140.467 376.741 140.393 377.044C140.325 377.122 140.247 377.119 140.164 377.073C140.003 376.729 139.699 376.494 139.505 376.167C139.001 375.32 138.563 374.439 138.089 373.577C136.885 371.385 136.57 369.067 136.991 366.625L137.265 366.698ZM139.813 375.895C139.942 375.75 139.862 375.629 139.829 375.519C139.179 373.335 138.633 371.125 138.182 368.892C138.127 368.616 138.04 368.345 137.94 368.082C137.881 367.927 137.791 367.73 137.566 367.82C137.352 367.905 137.461 368.088 137.502 368.228C138.152 370.488 138.572 372.815 139.44 375.012C139.555 375.303 139.562 375.645 139.813 375.895Z" fill="#BDD749"/>
<path d="M136.991 366.625C136.57 369.067 136.885 371.385 138.089 373.577C138.563 374.439 139.001 375.32 139.504 376.168C139.698 376.494 140.003 376.729 140.164 377.073C139.622 377.002 139.333 376.543 138.928 376.262C138.605 375.8 138.27 375.345 137.962 374.874C136.992 373.391 136.305 371.8 136.131 370.014C136.014 368.805 136.317 367.671 136.717 366.552L136.991 366.625Z" fill="#A2CC00"/>
<path d="M148.958 382.156C148.972 381.798 148.956 381.441 148.903 381.091C148.756 380.125 148.175 379.331 147.38 378.784C146.046 377.863 144.722 377.411 143.135 377.294C142.313 377.201 141.491 377.107 140.669 377.014C140.577 377.024 140.485 377.034 140.392 377.043C140.325 377.121 140.248 377.119 140.164 377.073C139.622 377.001 139.333 376.543 138.928 376.262C138.814 376.388 138.744 376.268 138.652 376.219C136.294 374.976 133.849 375.545 132.245 377.682C130.482 380.032 130.081 382.687 130.394 385.527C130.616 387.545 131.538 389.128 133.158 390.329C134.015 390.964 134.939 391.312 136.022 391.164C136.671 391.075 137.247 391.25 137.812 391.602C139.056 392.377 140.412 392.626 141.842 392.229C143.529 391.761 144.951 390.868 146.042 389.483C147.18 388.037 147.934 386.592 148.55 384.865C148.837 384.059 148.923 383.031 148.958 382.156ZM146.337 385.644C146.137 386.072 145.905 386.485 145.615 386.86C145.521 386.982 145.395 387.144 145.227 387.041C145.036 386.924 145.122 386.735 145.213 386.582C145.518 386.067 145.861 385.573 146.13 385.04C146.866 383.579 146.916 382.078 146.314 380.557C146.273 380.455 146.236 380.351 146.204 380.246C146.196 380.221 146.217 380.188 146.254 380.049C146.646 380.522 146.851 381.004 146.973 381.522C147.317 382.98 146.949 384.333 146.337 385.644Z" fill="#F41919"/>
<path d="M140.67 377.014C140.578 377.024 140.485 377.034 140.393 377.044C140.467 376.741 140.542 376.439 140.616 376.137C142.017 374.418 143.718 373.075 145.692 372.074C145.748 372.046 145.801 372.011 145.857 371.983C146.052 371.885 146.241 371.886 146.335 372.104C146.426 372.315 146.315 372.457 146.11 372.547C144.313 373.345 142.817 374.554 141.489 375.983C141.19 376.303 140.942 376.669 140.67 377.014Z" fill="#FF7A00"/>
<path d="M139.812 375.895C139.561 375.645 139.554 375.303 139.439 375.012C138.571 372.814 138.151 370.488 137.501 368.228C137.46 368.088 137.351 367.905 137.565 367.82C137.79 367.73 137.88 367.927 137.939 368.082C138.039 368.345 138.126 368.616 138.181 368.892C138.632 371.125 139.178 373.335 139.828 375.518C139.861 375.629 139.941 375.749 139.812 375.895Z" fill="#A1CB00"/>
<path d="M146.255 380.049C146.646 380.523 146.851 381.004 146.974 381.523C147.317 382.98 146.95 384.333 146.337 385.644C146.137 386.072 145.905 386.485 145.615 386.861C145.522 386.982 145.396 387.145 145.228 387.041C145.037 386.924 145.123 386.735 145.214 386.582C145.518 386.067 145.862 385.573 146.13 385.04C146.867 383.58 146.916 382.079 146.314 380.557C146.274 380.455 146.236 380.351 146.204 380.246C146.197 380.222 146.217 380.189 146.255 380.049Z" fill="#FFA7AA"/>
<path d="M147.727 386.017C147.703 386.062 147.678 386.106 147.651 386.148C147.535 386.326 147.505 386.564 147.365 386.725C146.834 386.585 146.975 386.187 147.059 385.849C147.31 384.846 147.579 383.854 147.684 382.814C147.843 381.236 146.958 379.43 145.448 378.917C144.629 378.639 143.79 378.451 142.971 378.186C142.768 378.12 142.51 378.115 142.556 377.789C144.142 377.906 145.664 378.244 146.998 379.165C147.68 379.636 148.223 380.292 148.443 381.101C148.675 381.959 148.609 382.869 148.431 383.73C148.339 384.172 148.216 384.606 148.077 385.035C147.974 385.351 147.886 385.715 147.727 386.017Z" fill="#E00606"/>
<path d="M306.041 553.656C277.655 553.656 254.643 548.042 254.643 541.115C254.643 534.188 277.655 528.574 306.041 528.574C334.427 528.574 357.44 534.188 357.44 541.115C357.44 548.042 334.427 553.656 306.041 553.656Z" fill="#2F758A"/>
<path fill-rule="evenodd" clip-rule="evenodd" d="M351.406 437.194C354.646 436.602 358.005 436.037 361.202 434.329C368.48 430.437 372.066 430.481 372.842 435.962C373.297 439.167 373.573 443.157 363.413 444.598C360.632 444.994 356.418 445.946 351.502 445.617C345.932 445.243 346.305 438.127 351.406 437.194Z" fill="white"/>
<path fill-rule="evenodd" clip-rule="evenodd" d="M359.857 434.979C363.129 432.358 364.776 427.815 367.05 429.33C368.41 430.236 366.136 432.959 364.012 435.572C359.049 441.68 356.585 437.602 359.857 434.979Z" fill="white"/>
<path fill-rule="evenodd" clip-rule="evenodd" d="M319.476 431.126C325.058 432.298 346.885 437.215 359.2 433.714C359.832 437.592 361.216 442.178 361.485 446.222C350.537 448.262 330.726 450.394 317.769 448.342C301.462 445.759 306.084 428.314 319.476 431.126Z" fill="#D859B2"/>
<mask id="mask4_433_479" style="mask-type:luminance" maskUnits="userSpaceOnUse" x="307" y="430" width="55" height="20">
<path fill-rule="evenodd" clip-rule="evenodd" d="M319.476 431.126C325.058 432.298 346.885 437.215 359.2 433.714C359.832 437.592 361.216 442.178 361.485 446.222C350.537 448.262 330.726 450.394 317.769 448.342C301.462 445.759 306.084 428.314 319.476 431.126Z" fill="white"/>
</mask>
<g mask="url(#mask4_433_479)">
<path d="M350.163 437.042C350.027 436.345 349.889 435.643 349.746 434.938C350.846 434.914 351.925 434.861 352.977 434.773C353.061 435.189 353.143 435.607 353.225 436.021C352.202 436.374 351.183 436.714 350.163 437.042Z" fill="#F3C4E2"/>
<path d="M339.262 440.088C338.904 438.199 338.518 436.279 338.105 434.323C339.208 434.447 340.324 434.556 341.442 434.648C341.77 436.225 342.08 437.777 342.372 439.313C341.334 439.584 340.297 439.843 339.262 440.088Z" fill="#F3C4E2"/>
<path d="M329.081 442.108C328.67 441.535 328.256 440.968 327.836 440.408C327.332 437.831 326.777 435.194 326.169 432.491C327.236 432.694 328.381 432.902 329.585 433.107C330.234 436.054 330.82 438.924 331.346 441.727C330.592 441.86 329.836 441.987 329.081 442.108Z" fill="#F3C4E2"/>
</g>
<path fill-rule="evenodd" clip-rule="evenodd" d="M261.019 437.194C257.778 436.602 254.419 436.037 251.223 434.329C243.945 430.437 240.358 430.481 239.582 435.962C239.128 439.167 238.853 443.157 249.012 444.598C251.794 444.994 256.007 445.946 260.922 445.617C266.494 445.243 266.12 438.127 261.019 437.194Z" fill="white"/>
<path fill-rule="evenodd" clip-rule="evenodd" d="M252.568 434.979C249.296 432.358 247.648 427.815 245.374 429.33C244.013 430.236 246.289 432.959 248.413 435.572C253.376 441.68 255.84 437.602 252.568 434.979Z" fill="white"/>
<path fill-rule="evenodd" clip-rule="evenodd" d="M292.949 431.126C287.367 432.298 265.54 437.215 253.224 433.714C252.593 437.592 251.209 442.178 250.94 446.222C261.889 448.262 281.698 450.394 294.655 448.342C310.962 445.759 306.341 428.314 292.949 431.126Z" fill="#D859B2"/>
<mask id="mask5_433_479" style="mask-type:luminance" maskUnits="userSpaceOnUse" x="250" y="430" width="56" height="20">
<path fill-rule="evenodd" clip-rule="evenodd" d="M292.949 431.126C287.367 432.298 265.54 437.215 253.224 433.714C252.593 437.592 251.209 442.178 250.94 446.222C261.889 448.262 281.698 450.394 294.655 448.342C310.962 445.759 306.341 428.314 292.949 431.126Z" fill="white"/>
</mask>
<g mask="url(#mask5_433_479)">
<path d="M262.311 436.786C261.287 436.473 260.262 436.149 259.24 435.817C259.308 435.47 259.377 435.122 259.446 434.773C260.499 434.861 261.578 434.914 262.678 434.938C262.553 435.558 262.43 436.173 262.311 436.786Z" fill="#F3C4E2"/>
<path d="M273.228 439.743C272.191 439.499 271.151 439.243 270.117 438.979C270.39 437.553 270.678 436.11 270.981 434.648C272.101 434.556 273.217 434.447 274.319 434.323C273.931 436.159 273.568 437.966 273.228 439.743Z" fill="#F3C4E2"/>
<path d="M284.294 441.94C283.24 441.771 282.191 441.59 281.14 441.398C281.651 438.698 282.215 435.939 282.839 433.107C284.043 432.902 285.188 432.694 286.255 432.491C285.526 435.731 284.875 438.878 284.294 441.94Z" fill="#F3C4E2"/>
</g>
<path fill-rule="evenodd" clip-rule="evenodd" d="M305.998 422.452C322.973 427.015 341.366 458.892 341.366 478.607C341.366 498.32 326.998 508.568 305.998 508.568C284.998 508.568 270.455 499.56 270.455 479.847C270.455 460.132 292.309 427.748 305.998 422.452Z" fill="white"/>
<path fill-rule="evenodd" clip-rule="evenodd" d="M305.998 422.452C322.973 427.015 344.022 460.132 344.022 479.847L344.018 480.167C319.186 483.983 293.824 483.575 267.98 480.167L267.976 479.847C267.976 460.132 292.309 427.748 305.998 422.452Z" fill="#D859B2"/>
<mask id="mask6_433_479" style="mask-type:luminance" maskUnits="userSpaceOnUse" x="267" y="422" width="78" height="61">
<path fill-rule="evenodd" clip-rule="evenodd" d="M305.998 422.452C322.973 427.015 344.022 460.132 344.022 479.847L344.018 480.167C319.186 483.983 293.824 483.575 267.98 480.167L267.976 479.847C267.976 460.132 292.309 427.748 305.998 422.452Z" fill="white"/>
</mask>
<g mask="url(#mask6_433_479)">
<path d="M310.521 475.08C294.956 475.08 281.65 473.713 269.076 471.825C269.332 470.805 269.63 469.772 269.966 468.724C282.313 470.563 295.314 471.88 310.521 471.88C320.204 471.88 330.782 471.345 342.65 470.067C342.921 471.131 343.156 472.18 343.35 473.209C331.23 474.528 320.42 475.08 310.521 475.08Z" fill="#F3C4E2"/>
<path d="M310.52 441.229C301.737 441.229 293.673 440.794 286.053 440.075C286.864 439.051 287.683 438.052 288.507 437.084C295.399 437.677 302.665 438.029 310.52 438.029C315.325 438.029 320.351 437.898 325.644 437.608C326.456 438.602 327.253 439.626 328.035 440.675C321.865 441.056 316.051 441.229 310.52 441.229Z" fill="#F3C4E2"/>
</g>
<path fill-rule="evenodd" clip-rule="evenodd" d="M259.705 296.36C237.08 309.057 278.978 348.529 286.274 366.892C290.197 376.764 297.073 372.043 298.818 360.028C302.416 335.245 277.763 286.227 259.705 296.36Z" fill="white"/>
<path fill-rule="evenodd" clip-rule="evenodd" d="M265.112 309.622C252.304 317.113 281.535 347.852 287.62 365.049C289.576 370.573 294.088 368.17 293.801 362.406C292.843 343.06 277.658 302.286 265.112 309.622Z" fill="#F7C8E7"/>
<path fill-rule="evenodd" clip-rule="evenodd" d="M353.553 298.377C376.178 311.074 334.281 350.545 326.984 368.909C323.062 378.779 316.185 374.058 314.441 362.043C310.844 337.261 335.494 288.242 353.553 298.377Z" fill="white"/>
<path fill-rule="evenodd" clip-rule="evenodd" d="M348.148 311.637C360.954 319.126 331.724 349.866 325.638 367.064C323.684 372.588 319.17 370.185 319.457 364.421C320.416 345.074 335.602 304.301 348.148 311.637Z" fill="#F7C8E7"/>
<path fill-rule="evenodd" clip-rule="evenodd" d="M305.776 359.774C329.118 359.774 346.005 380.184 348.041 400.182C350.076 420.178 329.118 432.944 305.776 432.944C282.434 432.944 260.895 421.05 263.512 400.182C266.128 379.312 282.434 359.774 305.776 359.774Z" fill="white"/>
<path fill-rule="evenodd" clip-rule="evenodd" d="M311.488 397.972C311.488 401.366 307.988 403.142 305.902 403.142C303.817 403.142 300.065 401.366 300.065 397.972C300.065 394.508 311.488 394.511 311.488 397.972Z" fill="#36404B"/>
<path fill-rule="evenodd" clip-rule="evenodd" d="M325.276 397.094C329.937 398.347 333.145 401.482 332.442 404.095C331.74 406.709 327.392 407.811 322.731 406.558C318.069 405.305 314.861 402.169 315.564 399.557C316.268 396.943 320.614 395.841 325.276 397.094Z" fill="#F7C8E7"/>
<path fill-rule="evenodd" clip-rule="evenodd" d="M286.274 397.094C281.614 398.347 278.406 401.482 279.109 404.095C279.812 406.709 284.16 407.811 288.821 406.558C293.481 405.305 296.69 402.169 295.988 399.557C295.284 396.943 290.937 395.841 286.274 397.094Z" fill="#F7C8E7"/>
<path fill-rule="evenodd" clip-rule="evenodd" d="M319.026 378.297C321.192 378.879 322.682 380.335 322.356 381.549C322.029 382.762 320.324 382.583 318.16 382.001C315.994 381.418 314.19 380.654 314.517 379.441C314.844 378.227 316.862 377.715 319.026 378.297Z" fill="#F7C8E7"/>
<path fill-rule="evenodd" clip-rule="evenodd" d="M292.523 378.297C290.359 378.879 288.87 380.335 289.197 381.549C289.522 382.762 291.227 382.583 293.391 382.001C295.557 381.418 297.361 380.654 297.034 379.441C296.709 378.227 294.689 377.715 292.523 378.297Z" fill="#F7C8E7"/>
<path fill-rule="evenodd" clip-rule="evenodd" d="M286.779 501.387C295.145 507.546 294.638 524.223 289.993 527.89C286.895 530.335 273.964 529.115 271.814 535.516C268.681 544.836 287.85 544.527 294.661 542.439C300.082 540.778 304.013 538.791 303.493 535.724C300.834 519.984 301.106 508.26 307.701 508.39C305.11 499.476 291.533 493.446 286.779 501.387Z" fill="white"/>
<path fill-rule="evenodd" clip-rule="evenodd" d="M325.041 501.387C316.677 507.546 317.183 524.223 321.828 527.89C324.925 530.335 337.856 529.115 340.008 535.516C343.14 544.836 323.971 544.527 317.16 542.439C311.739 540.778 307.808 538.791 308.327 535.724C310.988 519.984 311.179 508.27 304.583 508.398C307.173 499.486 320.289 493.446 325.041 501.387Z" fill="white"/>
<path d="M294.7 407.408C297.513 410.068 301.786 411.344 306.12 411.35C310.414 411.346 314.805 410.088 317.942 407.438C318.28 407.152 318.321 406.648 318.036 406.311C317.75 405.974 317.245 405.932 316.908 406.218C314.161 408.554 310.104 409.754 306.12 409.75C302.097 409.755 298.186 408.526 295.801 406.248C295.481 405.943 294.974 405.956 294.67 406.276C294.366 406.598 294.378 407.103 294.7 407.408Z" fill="#36404B"/>
<path d="M304.976 399.258V410.546C304.976 410.988 305.334 411.346 305.776 411.346C306.218 411.346 306.576 410.988 306.576 410.546V399.258C306.576 398.816 306.218 398.458 305.776 398.458C305.334 398.458 304.976 398.816 304.976 399.258Z" fill="#36404B"/>
<path d="M323.418 390.115C322.353 388.938 320.905 388.287 319.453 388.286C318.02 388.279 316.576 388.948 315.628 390.296C315.373 390.656 315.458 391.156 315.818 391.411C316.178 391.667 316.678 391.582 316.933 391.222C317.601 390.29 318.493 389.892 319.453 389.886C320.422 389.884 321.454 390.327 322.233 391.188C322.529 391.516 323.034 391.542 323.362 391.246C323.69 390.948 323.716 390.443 323.418 390.115Z" fill="#36404B"/>
<path d="M290.136 391.712C290.913 390.794 291.975 390.316 292.975 390.318C293.897 390.323 294.761 390.695 295.433 391.572C295.7 391.924 296.201 391.992 296.553 391.726C296.905 391.459 296.974 390.956 296.707 390.604C295.753 389.338 294.357 388.711 292.975 388.718C291.47 388.719 289.978 389.423 288.914 390.678C288.629 391.015 288.67 391.52 289.007 391.806C289.345 392.091 289.849 392.05 290.136 391.712Z" fill="#36404B"/>
<mask id="mask7_433_479" style="mask-type:luminance" maskUnits="userSpaceOnUse" x="238" y="431" width="6" height="11">
<path d="M241.31 441.971C241.059 441.967 240.813 441.925 240.573 441.844C238.711 441.212 237.986 438.396 238.951 435.555C239.786 433.1 241.611 431.429 243.293 431.429C243.456 431.429 243.618 431.445 243.778 431.477C243.771 431.52 243.765 431.564 243.758 431.607C243.67 431.603 243.584 431.601 243.499 431.601C241.263 431.601 240.005 432.973 239.582 435.961C239.304 437.925 239.093 440.184 241.31 441.971Z" fill="white"/>
</mask>
<g mask="url(#mask7_433_479)">
<path d="M237.986 441.971H243.778V431.429H237.986V441.971Z" fill="#2F758A"/>
</g>
<path d="M241.35 441.973C241.336 441.973 241.323 441.971 241.31 441.971C239.093 440.185 239.304 437.926 239.582 435.962C240.005 432.974 241.263 431.602 243.499 431.602C243.584 431.602 243.67 431.603 243.758 431.607C243.263 434.929 242.355 438.562 241.36 441.973C241.357 441.973 241.353 441.973 241.35 441.973Z" fill="#C2C4C2"/>
<path d="M241.36 441.973C242.355 438.562 243.263 434.929 243.758 431.607C243.765 431.565 243.771 431.521 243.778 431.478C243.876 431.498 243.973 431.523 244.07 431.557C245.93 432.19 246.656 435.005 245.691 437.846C244.858 440.297 243.039 441.965 241.36 441.973Z" fill="#52C2B6"/>
<path fill-rule="evenodd" clip-rule="evenodd" d="M243.725 430.732C245.586 431.364 246.312 434.18 245.347 437.021C244.381 439.862 242.09 441.652 240.228 441.02C238.367 440.386 237.641 437.57 238.607 434.73C239.573 431.889 241.864 430.1 243.725 430.732Z" fill="white"/>
<path d="M368.026 431.667C368.009 431.548 367.991 431.428 367.974 431.31C368.311 431.346 368.651 431.444 368.986 431.602C368.966 431.602 368.946 431.602 368.926 431.602C368.642 431.602 368.342 431.624 368.026 431.667Z" fill="#2F758A"/>
<path d="M370.348 441.733C369.385 438.413 368.513 434.895 368.026 431.667C368.342 431.624 368.642 431.601 368.926 431.601C368.946 431.601 368.966 431.601 368.986 431.601C370.242 432.191 371.418 433.587 372.041 435.42C373.008 438.261 372.281 441.077 370.421 441.709C370.396 441.719 370.372 441.725 370.348 441.733Z" fill="#C2C4C2"/>
<path d="M369.644 441.838C367.961 441.838 366.137 440.167 365.302 437.711C364.337 434.871 365.062 432.055 366.924 431.422C367.176 431.337 367.437 431.295 367.701 431.295C367.792 431.295 367.882 431.301 367.974 431.31C367.992 431.429 368.009 431.549 368.026 431.667C368.513 434.895 369.385 438.414 370.348 441.734C370.117 441.803 369.882 441.838 369.644 441.838Z" fill="#52C2B6"/>
<path fill-rule="evenodd" clip-rule="evenodd" d="M367.269 430.597C365.408 431.229 364.681 434.046 365.646 436.886C366.613 439.727 368.904 441.517 370.765 440.885C372.626 440.251 373.352 437.437 372.386 434.595C371.421 431.754 369.129 429.965 367.269 430.597Z" fill="white"/>
<path d="M365.844 359.583C371.277 363.035 373.912 368.381 375.705 374.275C377.712 380.869 379.54 387.493 378.241 394.507C377.967 395.626 377.692 396.745 377.418 397.863C377.168 398.152 376.881 398.144 376.572 397.972C375.977 396.7 374.85 395.829 374.133 394.621C372.27 391.486 370.648 388.226 368.896 385.036C364.438 376.925 363.275 368.349 364.83 359.312L365.844 359.583ZM375.274 393.612C375.751 393.075 375.454 392.63 375.332 392.221C372.928 384.14 370.908 375.965 369.238 367.7C369.033 366.68 368.713 365.675 368.343 364.703C368.124 364.131 367.79 363.402 366.958 363.733C366.166 364.048 366.571 364.725 366.72 365.243C369.127 373.607 370.682 382.215 373.892 390.346C374.317 391.422 374.344 392.688 375.274 393.612Z" fill="#BDD749"/>
<path d="M364.829 359.311C363.274 368.348 364.436 376.925 368.893 385.036C370.646 388.225 372.268 391.486 374.13 394.621C374.847 395.828 375.975 396.7 376.57 397.972C374.564 397.708 373.496 396.011 371.998 394.971C370.803 393.26 369.564 391.579 368.422 389.833C364.836 384.347 362.291 378.461 361.649 371.851C361.215 367.378 362.335 363.181 363.815 359.039L364.829 359.311Z" fill="#A2CC00"/>
<path d="M409.112 416.782C409.164 415.456 409.106 414.136 408.909 412.842C408.366 409.267 406.216 406.327 403.274 404.302C398.338 400.895 393.436 399.224 387.565 398.791C384.524 398.445 381.483 398.099 378.441 397.754C378.099 397.79 377.758 397.827 377.417 397.862C377.168 398.151 376.881 398.143 376.572 397.972C374.565 397.707 373.497 396.011 371.999 394.97C371.576 395.438 371.318 394.994 370.977 394.814C362.251 390.211 353.205 392.319 347.27 400.228C340.746 408.922 339.263 418.744 340.42 429.257C341.241 436.72 344.653 442.579 350.648 447.024C353.818 449.375 357.239 450.662 361.247 450.113C363.646 449.785 365.779 450.432 367.867 451.734C372.47 454.603 377.488 455.522 382.781 454.054C389.022 452.324 394.287 449.017 398.322 443.892C402.535 438.542 405.323 433.196 407.6 426.804C408.663 423.823 408.984 420.021 409.112 416.782ZM399.412 429.687C398.672 431.271 397.814 432.8 396.741 434.189C396.395 434.637 395.928 435.239 395.307 434.857C394.601 434.423 394.919 433.725 395.255 433.159C396.383 431.255 397.653 429.423 398.647 427.452C401.373 422.048 401.555 416.494 399.327 410.865C399.177 410.486 399.039 410.102 398.92 409.712C398.893 409.622 398.969 409.5 399.108 408.984C400.555 410.737 401.315 412.517 401.767 414.436C403.039 419.831 401.679 424.837 399.412 429.687Z" fill="#F41919"/>
<path d="M378.442 397.754C378.1 397.79 377.758 397.827 377.417 397.863C377.692 396.744 377.967 395.626 378.241 394.507C383.425 388.146 389.722 383.179 397.026 379.474C397.233 379.369 397.428 379.241 397.636 379.137C398.356 378.776 399.056 378.78 399.405 379.587C399.742 380.365 399.328 380.89 398.573 381.226C391.923 384.178 386.388 388.652 381.471 393.937C380.368 395.122 379.447 396.478 378.442 397.754Z" fill="#FF7A00"/>
<path d="M375.272 393.612C374.342 392.688 374.315 391.421 373.89 390.345C370.681 382.214 369.125 373.606 366.718 365.243C366.569 364.724 366.164 364.047 366.956 363.733C367.788 363.402 368.123 364.13 368.341 364.702C368.711 365.674 369.031 366.68 369.237 367.699C370.906 375.964 372.926 384.139 375.331 392.22C375.452 392.629 375.749 393.074 375.272 393.612Z" fill="#A1CB00"/>
<path d="M399.107 408.984C400.555 410.736 401.314 412.517 401.766 414.436C403.038 419.831 401.678 424.836 399.412 429.687C398.671 431.271 397.814 432.8 396.741 434.189C396.395 434.637 395.928 435.239 395.306 434.857C394.6 434.423 394.919 433.725 395.254 433.159C396.382 431.254 397.652 429.423 398.646 427.452C401.372 422.049 401.554 416.494 399.327 410.864C399.177 410.486 399.038 410.102 398.92 409.712C398.892 409.622 398.969 409.5 399.107 408.984Z" fill="#FFA7AA"/>
<path d="M404.556 431.069C404.468 431.236 404.374 431.398 404.273 431.554C403.846 432.215 403.734 433.093 403.216 433.689C401.251 433.172 401.771 431.699 402.083 430.449C403.011 426.737 404.007 423.065 404.395 419.22C404.985 413.38 401.711 406.698 396.124 404.8C393.093 403.77 389.989 403.074 386.959 402.092C386.207 401.849 385.251 401.831 385.421 400.624C391.291 401.057 396.921 402.308 401.857 405.715C404.383 407.458 406.392 409.885 407.204 412.881C408.064 416.055 407.82 419.422 407.159 422.609C406.82 424.242 406.365 425.85 405.849 427.435C405.468 428.606 405.143 429.951 404.556 431.069Z" fill="#E00606"/>
<path d="M248.818 359.583C243.385 363.035 240.75 368.381 238.957 374.275C236.95 380.869 235.122 387.493 236.421 394.507C236.696 395.626 236.97 396.745 237.244 397.863C237.494 398.152 237.781 398.144 238.09 397.972C238.685 396.7 239.812 395.829 240.53 394.621C242.392 391.486 244.014 388.226 245.767 385.036C250.224 376.925 251.387 368.349 249.832 359.312L248.818 359.583ZM239.388 393.612C238.911 393.075 239.208 392.63 239.33 392.221C241.734 384.14 243.754 375.965 245.424 367.7C245.629 366.68 245.949 365.675 246.319 364.703C246.538 364.131 246.873 363.402 247.704 363.733C248.496 364.048 248.091 364.725 247.942 365.243C245.535 373.607 243.98 382.215 240.77 390.346C240.345 391.422 240.318 392.688 239.388 393.612Z" fill="#BDD749"/>
<path d="M249.833 359.311C251.389 368.348 250.226 376.925 245.769 385.036C244.016 388.225 242.395 391.486 240.532 394.621C239.815 395.828 238.687 396.7 238.092 397.972C240.098 397.708 241.167 396.011 242.665 394.971C243.859 393.26 245.099 391.579 246.24 389.833C249.827 384.347 252.371 378.461 253.013 371.851C253.447 367.378 252.327 363.181 250.847 359.039L249.833 359.311Z" fill="#A2CC00"/>
<path d="M205.55 416.782C205.498 415.456 205.557 414.136 205.753 412.842C206.296 409.267 208.446 406.327 211.388 404.302C216.324 400.895 221.226 399.224 227.097 398.791C230.138 398.445 233.179 398.099 236.221 397.754C236.563 397.79 236.904 397.827 237.245 397.862C237.494 398.151 237.781 398.143 238.09 397.972C240.097 397.707 241.165 396.011 242.663 394.97C243.086 395.438 243.344 394.994 243.685 394.814C252.411 390.211 261.457 392.319 267.392 400.228C273.916 408.922 275.399 418.744 274.243 429.257C273.422 436.72 270.009 442.579 264.014 447.024C260.844 449.375 257.423 450.662 253.415 450.113C251.016 449.785 248.883 450.432 246.795 451.734C242.192 454.603 237.174 455.522 231.881 454.054C225.64 452.324 220.375 449.017 216.34 443.892C212.128 438.542 209.339 433.196 207.062 426.804C205.999 423.823 205.678 420.021 205.55 416.782ZM215.25 429.687C215.99 431.271 216.848 432.8 217.921 434.189C218.267 434.637 218.734 435.239 219.356 434.857C220.061 434.423 219.743 433.725 219.408 433.159C218.28 431.255 217.009 429.423 216.015 427.452C213.289 422.048 213.107 416.494 215.335 410.865C215.485 410.486 215.623 410.102 215.742 409.712C215.769 409.622 215.693 409.5 215.554 408.984C214.107 410.737 213.347 412.517 212.895 414.436C211.623 419.831 212.984 424.837 215.25 429.687Z" fill="#F41919"/>
<path d="M236.22 397.754C236.562 397.79 236.904 397.827 237.245 397.863C236.97 396.744 236.695 395.626 236.421 394.507C231.237 388.146 224.94 383.179 217.636 379.474C217.429 379.369 217.234 379.241 217.026 379.137C216.306 378.776 215.606 378.78 215.257 379.587C214.92 380.365 215.334 380.89 216.089 381.226C222.739 384.178 228.274 388.652 233.192 393.937C234.295 395.122 235.215 396.478 236.22 397.754Z" fill="#FF7A00"/>
<path d="M239.39 393.612C240.32 392.688 240.347 391.421 240.772 390.345C243.982 382.214 245.537 373.606 247.944 365.243C248.093 364.724 248.498 364.047 247.706 363.733C246.874 363.402 246.54 364.13 246.321 364.702C245.951 365.674 245.631 366.68 245.426 367.699C243.756 375.964 241.736 384.139 239.332 392.22C239.21 392.629 238.913 393.074 239.39 393.612Z" fill="#A1CB00"/>
<path d="M215.555 408.984C214.107 410.736 213.348 412.517 212.896 414.436C211.624 419.831 212.984 424.836 215.25 429.687C215.991 431.271 216.849 432.8 217.922 434.189C218.267 434.637 218.734 435.239 219.356 434.857C220.062 434.423 219.744 433.725 219.408 433.159C218.28 431.254 217.01 429.423 216.016 427.452C213.291 422.049 213.108 416.494 215.335 410.864C215.485 410.486 215.624 410.102 215.742 409.712C215.77 409.622 215.693 409.5 215.555 408.984Z" fill="#FFA7AA"/>
<path d="M210.106 431.069C210.194 431.236 210.288 431.398 210.389 431.554C210.816 432.215 210.929 433.093 211.446 433.689C213.412 433.172 212.891 431.699 212.579 430.449C211.651 426.737 210.655 423.065 210.267 419.22C209.678 413.38 212.951 406.698 218.538 404.8C221.569 403.77 224.673 403.074 227.704 402.092C228.455 401.849 229.412 401.831 229.241 400.624C223.371 401.057 217.741 402.308 212.805 405.715C210.279 407.458 208.27 409.885 207.458 412.881C206.598 416.055 206.842 419.422 207.503 422.609C207.842 424.242 208.297 425.85 208.813 427.435C209.194 428.606 209.519 429.951 210.106 431.069Z" fill="#E00606"/>
<defs>
<filter id="filter0_f_433_479" x="18.3291" y="-76.4385" width="332.27" height="332.271" filterUnits="userSpaceOnUse" color-interpolation-filters="sRGB">
<feFlood flood-opacity="0" result="BackgroundImageFix"/>
<feBlend mode="normal" in="SourceGraphic" in2="BackgroundImageFix" result="shape"/>
<feGaussianBlur stdDeviation="50" result="effect1_foregroundBlur_433_479"/>
</filter>
<filter id="filter1_i_433_479" x="116" y="21" width="137.23" height="139.597" filterUnits="userSpaceOnUse" color-interpolation-filters="sRGB">
<feFlood flood-opacity="0" result="BackgroundImageFix"/>
<feBlend mode="normal" in="SourceGraphic" in2="BackgroundImageFix" result="shape"/>
<feColorMatrix in="SourceAlpha" type="matrix" values="0 0 0 0 0 0 0 0 0 0 0 0 0 0 0 0 0 0 127 0" result="hardAlpha"/>
<feOffset dy="2.36639"/>
<feGaussianBlur stdDeviation="17.7479"/>
<feComposite in2="hardAlpha" operator="arithmetic" k2="-1" k3="1"/>
<feColorMatrix type="matrix" values="0 0 0 0 1 0 0 0 0 1 0 0 0 0 1 0 0 0 0.77 0"/>
<feBlend mode="normal" in2="shape" result="effect1_innerShadow_433_479"/>
</filter>
<linearGradient id="paint0_linear_433_479" x1="166.318" y1="106.54" x2="215.721" y2="45.244" gradientUnits="userSpaceOnUse">
<stop stop-color="#EE9D3E"/>
<stop offset="1" stop-color="#ECA14A" stop-opacity="0"/>
</linearGradient>
</defs>
</svg>
