<svg width="430" height="932" viewBox="0 0 430 932" fill="none" xmlns="http://www.w3.org/2000/svg">
<rect x="-4" width="434" height="658" fill="#60D8F2"/>
<g filter="url(#filter0_f_433_478)">
<circle cx="272.464" cy="108.697" r="66.135" fill="#FFA800"/>
</g>
<g filter="url(#filter1_i_433_478)">
<circle cx="272.615" cy="108.615" r="68.6151" fill="#FFE600"/>
<circle cx="272.615" cy="108.615" r="68.6151" fill="url(#paint0_linear_433_478)"/>
</g>
<circle cx="215" cy="689" r="362" fill="#44D52C"/>
<circle cx="84" cy="637" r="156" fill="#7FFF6A"/>
<circle cx="340" cy="630" r="156" fill="#5DDE48"/>
<g clip-path="url(#clip0_433_478)">
<mask id="mask0_433_478" style="mask-type:luminance" maskUnits="userSpaceOnUse" x="-149" y="263" width="665" height="157">
<path d="M516 263H-149V420H516V263Z" fill="white"/>
</mask>
<g mask="url(#mask0_433_478)">
<path d="M236.682 340.032H229.175V319.177H236.682V340.032Z" fill="#2F241F"/>
<path d="M236.682 340.032H229.175V319.177H236.682V340.032Z" fill="#2F241F"/>
<path d="M236.682 340.032C236.682 340.032 237.498 362.354 228.521 368.546C228.521 368.546 231.296 351.112 229.174 340.032H236.682Z" fill="white"/>
<path d="M265.733 340.032H258.226V319.177H265.733V340.032Z" fill="#2F241F"/>
<path d="M265.733 340.032H258.226V319.177H265.733V340.032Z" fill="#2F241F"/>
<path d="M265.733 340.032C265.733 340.032 266.549 362.354 257.573 368.546C257.573 368.546 260.347 351.112 258.225 340.032H265.733Z" fill="white"/>
<path d="M294.785 340.032H287.278V319.177H294.785V340.032Z" fill="#2F241F"/>
<path d="M294.785 340.032H287.278V319.177H294.785V340.032Z" fill="#2F241F"/>
<path d="M294.785 340.032H287.278V319.177H294.785V340.032Z" fill="#2F241F"/>
<path d="M294.785 340.032C294.785 340.032 295.601 362.354 286.625 368.546C286.625 368.546 289.399 351.112 287.277 340.032H294.785Z" fill="white"/>
<path d="M323.836 340.032H316.329V319.177H323.836V340.032Z" fill="#2F241F"/>
<path d="M323.836 340.032H316.329V319.177H323.836V340.032Z" fill="#2F241F"/>
<path d="M323.836 340.032C323.836 340.032 324.652 362.354 315.676 368.546C315.676 368.546 318.45 351.112 316.329 340.032H323.836Z" fill="white"/>
<path d="M251.205 351.069H243.697V330.214H251.205V351.069Z" fill="#2F241F"/>
<path d="M251.205 351.069H243.697V330.214H251.205V351.069Z" fill="#2F241F"/>
<path d="M251.205 351.069C251.205 351.069 252.02 373.392 243.044 379.583C243.044 379.583 245.818 362.149 243.697 351.069H251.205Z" fill="white"/>
<path d="M280.256 351.069H272.748V330.214H280.256V351.069Z" fill="#2F241F"/>
<path d="M280.256 351.069C280.256 351.069 281.072 373.392 272.095 379.583C272.095 379.583 274.87 362.149 272.748 351.069H280.256Z" fill="white"/>
<path d="M309.307 351.069H301.799V330.214H309.307V351.069Z" fill="#2F241F"/>
<path d="M309.307 351.069H301.799V330.214H309.307V351.069Z" fill="#2F241F"/>
<path d="M309.307 351.069C309.307 351.069 310.123 373.392 301.146 379.583C301.146 379.583 303.921 362.149 301.799 351.069H309.307Z" fill="white"/>
<path d="M338.359 351.069H330.851V330.214H338.359V351.069Z" fill="#2F241F"/>
<path d="M338.359 351.069H330.851V330.214H338.359V351.069Z" fill="#2F241F"/>
<path d="M338.359 351.069C338.359 351.069 339.175 373.392 330.198 379.583C330.198 379.583 332.973 362.149 330.851 351.069H338.359Z" fill="white"/>
<path d="M349.839 344.7H214.856C214.452 344.7 214.121 344.37 214.116 343.964L214.028 336.879C214.023 336.472 214.346 336.143 214.749 336.143H349.732C350.136 336.143 350.467 336.472 350.472 336.879L350.56 343.964C350.565 344.37 350.242 344.7 349.839 344.7Z" fill="#F47A1F"/>
<path d="M349.839 344.7H214.856C214.452 344.7 214.121 344.37 214.116 343.964L214.028 336.879C214.023 336.472 214.346 336.143 214.749 336.143H349.732C350.136 336.143 350.467 336.472 350.472 336.879L350.56 343.964C350.565 344.37 350.242 344.7 349.839 344.7Z" fill="#F47A1F"/>
<path d="M82.1452 336.114C87.1472 336.114 91.7829 337.782 95.5306 340.596H125.049C127.295 333.987 134.48 320.829 156.2 319.993C167.868 319.544 175.608 323.736 180.672 329.16C179.994 311.262 174.763 270.167 172.574 268.456C170.228 266.623 143.345 265.604 134.075 267.438C124.804 269.271 124.052 273.752 124.052 273.752H130.719L131.225 314.495H120.316C120.269 314.059 120.231 313.63 120.19 313.199C118.507 313.267 116.293 313.363 113.725 313.487C113.123 319.284 112.604 323.725 112.358 324.408C111.577 326.581 107.323 325.699 107.307 324.408C107.303 324.019 107.636 319.69 108.147 313.778C93.2151 314.607 72.4432 316.204 69.3506 318.772C68.7709 319.254 68.2691 320.018 67.8308 320.98C70.1382 321.425 72.1025 326.652 71.4132 329.773C70.8274 332.423 67.9903 334.832 65.3132 334.264C65.1444 336.516 65.0509 338.698 64.9994 340.596H68.8714C72.5491 337.782 77.1434 336.114 82.1452 336.114ZM137.992 273.752L162.545 274.262L165.715 277.419L166.139 311.439L161.934 314.495H138.499L137.992 273.752Z" fill="#FBAE16"/>
<path d="M77 315.942C77.6193 318.481 79.1758 325.566 80.2268 327.417C81.2781 329.268 102.522 328.898 103.893 328.898C105.263 328.898 104.06 314.831 103.347 312.61C102.634 310.389 75.5555 310.019 77 315.942Z" fill="#F47A1F"/>
<path d="M59.7885 359.88H60.2755C60.2427 359.426 60.2188 358.97 60.2131 358.509C60.122 351.184 63.5296 344.682 68.8708 340.596H64.9988H59.5487C56.0777 340.596 53.299 343.433 53.3425 346.933L53.4247 353.543C53.4682 357.043 56.3175 359.88 59.7885 359.88Z" fill="#2F241F"/>
<path d="M156.201 319.993C134.48 320.829 127.296 333.987 125.05 340.596C124.289 342.835 124.094 344.324 124.094 344.324C123.692 348.544 125.995 350.578 128.578 350.821C129.333 336.076 141.339 324.408 156.199 324.408C171.618 324.408 184.28 336.969 184.559 352.495C186.885 353.101 189.393 352.528 189.606 350.353C189.828 348.093 188.231 337.254 180.673 329.159C175.609 323.736 167.869 319.544 156.201 319.993Z" fill="#F47A1F"/>
<path d="M156.199 324.408C141.338 324.408 129.333 336.076 128.578 350.821C128.547 351.428 128.528 352.039 128.535 352.656C128.566 355.153 128.922 357.574 129.554 359.88C132.87 371.98 143.906 380.904 156.901 380.904C172.373 380.904 184.758 368.257 184.564 352.656C184.564 352.602 184.559 352.549 184.558 352.495C184.279 336.969 171.617 324.408 156.199 324.408Z" fill="#584942"/>
<path d="M173.557 354.015C173.447 345.179 166.254 338.017 157.492 338.017C148.729 338.017 141.714 345.179 141.824 354.015C141.934 362.851 149.127 370.014 157.89 370.014C166.652 370.014 173.667 362.851 173.557 354.015Z" fill="#C49A6C"/>
<path d="M164.119 352.656C164.067 348.441 160.635 345.024 156.455 345.024C152.275 345.024 148.929 348.441 148.981 352.656C149.034 356.871 152.465 360.288 156.645 360.288C160.825 360.288 164.171 356.871 164.119 352.656Z" fill="#453830"/>
<path d="M95.5303 340.596C91.7826 337.782 87.1469 336.114 82.1449 336.114C77.1429 336.114 72.5488 337.782 68.8711 340.596C63.5299 344.682 60.1225 351.184 60.2135 358.509C60.2193 358.97 60.2432 359.427 60.276 359.881C61.1252 371.609 70.893 380.904 82.7019 380.904C94.511 380.904 104.048 371.609 104.605 359.881C104.626 359.427 104.639 358.97 104.633 358.509C104.542 351.184 100.973 344.682 95.5303 340.596Z" fill="#584942"/>
<path d="M95.6676 357.829C95.5805 350.824 89.8782 345.146 82.9308 345.146C75.9838 345.146 70.4227 350.824 70.5098 357.829C70.5969 364.834 76.2992 370.513 83.2463 370.513C90.1936 370.513 95.7547 364.834 95.6676 357.829Z" fill="#C49A6C"/>
<path d="M71.413 329.772C72.1023 326.652 70.138 321.424 67.8309 320.98C67.5776 320.931 67.3202 320.937 67.0614 321.013C60.8467 322.832 59.8923 329.365 62.9657 332.828C63.6869 333.64 64.4925 334.09 65.313 334.264C67.9901 334.831 70.8272 332.423 71.413 329.772Z" fill="white"/>
<path d="M111.048 324.079C111.294 323.396 111.813 318.955 112.415 313.159C113.726 300.528 115.43 281.455 115.56 280.757C115.749 279.739 119.002 281.368 120.196 279.942C121.391 278.516 120.964 276.683 120.138 275.257C119.4 273.982 112.848 273.831 111.259 276.072C110.151 277.636 108.018 299.779 106.837 313.448C106.326 319.361 105.993 323.69 105.998 324.079C106.014 325.37 110.267 326.252 111.048 324.079Z" fill="#584942"/>
<path d="M166.138 311.439L165.714 277.42L162.543 274.262L137.992 273.753L138.5 314.495H161.934L166.138 311.439Z" fill="white"/>
<path d="M131.225 314.495L130.718 273.753H124.051C124.051 273.753 118.044 290.626 120.191 313.199C120.232 313.631 120.27 314.06 120.317 314.495H131.225Z" fill="white"/>
<path d="M87.8451 358.962C87.806 355.821 85.2487 353.274 82.1335 353.274C79.018 353.274 76.5244 355.821 76.5635 358.962C76.6026 362.103 79.1597 364.65 82.2752 364.65C85.3904 364.65 87.8843 362.103 87.8451 358.962Z" fill="#453830"/>
<path d="M199.583 356.548H176.408L176.265 345.028H199.44L199.583 356.548Z" fill="#2F241F"/>
<path d="M223.689 352.598H207.043L206.796 332.851H223.443L223.689 352.598Z" fill="#2F241F"/>
<path d="M210.412 361.156L197.34 359.84L197.012 333.509L209.986 326.927L210.412 361.156Z" fill="#F47A1F"/>
</g>
</g>
<g clip-path="url(#clip1_433_478)">
<mask id="mask1_433_478" style="mask-type:luminance" maskUnits="userSpaceOnUse" x="234" y="337" width="159" height="159">
<path d="M234 337H393V496H234V337Z" fill="white"/>
</mask>
<g mask="url(#mask1_433_478)">
<path d="M319.686 418.929L320.875 420.493L356.908 393.095L355.719 391.531L319.686 418.929Z" fill="#57A732"/>
<path d="M341.632 404.269C341.632 404.269 347.785 413.708 358.619 406.023C358.215 405.749 350.279 395.806 341.632 404.269Z" fill="#57A732"/>
<path d="M340.885 403.551C340.885 403.551 350.544 397.749 343.262 386.64C342.973 387.033 332.746 394.599 340.885 403.551Z" fill="#57A732"/>
<path d="M348.89 398.052C348.89 398.052 360.261 400.655 362.803 387.142C362.305 387.228 349.245 385.531 348.89 398.052Z" fill="#57A732"/>
<path d="M330.949 410.397C330.949 410.397 340.657 404.676 333.47 393.506C333.178 393.897 322.886 401.375 330.949 410.397Z" fill="#57A732"/>
<path d="M331.715 412.26C331.715 412.26 338.085 421.554 348.738 413.622C348.328 413.357 340.165 403.6 331.715 412.26Z" fill="#57A732"/>
<path d="M314.154 411.288L316.059 411.769L327.145 367.882L325.24 367.4L314.154 411.288Z" fill="#59A632"/>
<path d="M317.385 403.234C317.385 403.234 326.436 406.759 330.171 395.936C329.75 395.946 319.197 392.962 317.385 403.234Z" fill="#59A632"/>
<path d="M319.552 391.493C319.552 391.493 328.603 395.018 332.338 384.194C331.917 384.204 321.364 381.221 319.552 391.493Z" fill="#59A632"/>
<path d="M316.53 403.094C316.53 403.094 322.145 393.325 310.38 387.162C310.318 387.646 305.063 399.231 316.53 403.094Z" fill="#59A632"/>
<path d="M319.565 391.419C319.565 391.419 324.802 381.442 312.809 375.734C312.766 376.22 307.959 387.998 319.565 391.419Z" fill="#59A632"/>
<path d="M322.9 381.376C322.9 381.376 334.14 376.853 326.196 364.527C325.852 364.885 313.902 371.118 322.9 381.376Z" fill="#59A632"/>
<path d="M339.557 385.045C339.557 385.045 348.014 392.491 356.394 382.185C355.931 382.029 345.622 374.575 339.557 385.045Z" fill="#84BC26"/>
<path d="M333.409 394.727C333.409 394.727 342.766 401.005 349.729 389.694C349.25 389.6 338.056 383.555 333.409 394.727Z" fill="#84BC26"/>
<path d="M332.804 393.417C332.804 393.417 339.574 384.41 328.652 376.851C328.532 377.324 321.897 388.179 332.804 393.417Z" fill="#84BC26"/>
<path d="M338.483 384.454C338.483 384.454 345.721 375.818 335.215 367.691C335.07 368.157 327.869 378.644 338.483 384.454Z" fill="#84BC26"/>
<path d="M343.943 377.453C343.943 377.453 357.044 376.779 355.646 361.378C355.134 361.624 340.482 363.797 343.943 377.453Z" fill="#84BC26"/>
<path d="M320.012 412.071L321.655 413.148L346.484 375.3L344.842 374.223L320.012 412.071Z" fill="#84BC26"/>
<path d="M281.266 474.665C281.638 474.982 286.864 478.31 292.227 470.316C293.964 468.072 326.781 432.471 326.781 432.471C326.781 432.471 336.3 425.348 328.952 417.725C326.23 415.893 315.321 408.41 315.321 408.41C315.321 408.41 307.9 402.663 301.676 411.234L278.511 466.458C278.511 466.458 275.858 470.062 281.266 474.665Z" fill="#EB6F2D"/>
<path d="M281.266 474.665C281.638 474.982 286.864 478.31 292.227 470.316C293.964 468.072 326.781 432.471 326.781 432.471C326.781 432.471 336.3 425.348 328.952 417.725C326.23 415.893 315.321 408.41 315.321 408.41C315.321 408.41 307.9 402.663 301.676 411.234L278.511 466.458C278.511 466.458 275.858 470.062 281.266 474.665Z" stroke="#EA5B0C" stroke-width="4.729" stroke-miterlimit="10"/>
<path d="M294.416 431.081L303.646 437.386C304.054 437.664 304.61 437.56 304.888 437.153L306.594 434.655C306.872 434.248 306.767 433.692 306.36 433.414L297.13 427.108C296.722 426.83 296.166 426.934 295.888 427.342L294.182 429.839C293.904 430.246 294.008 430.802 294.416 431.081Z" fill="#E25426"/>
<path d="M284.491 454.592L293.721 460.898C294.128 461.176 294.684 461.072 294.963 460.664L296.668 458.167C296.947 457.759 296.842 457.204 296.435 456.925L287.204 450.62C286.797 450.341 286.241 450.446 285.963 450.853L284.257 453.351C283.978 453.758 284.083 454.314 284.491 454.592Z" fill="#E25426"/>
<path d="M312.679 430.315L321.909 436.62C322.316 436.899 322.872 436.794 323.151 436.387L324.856 433.89C325.135 433.482 325.03 432.926 324.623 432.648L315.392 426.342C314.985 426.064 314.429 426.168 314.151 426.576L312.445 429.073C312.166 429.481 312.271 430.037 312.679 430.315Z" fill="#E25426"/>
<path d="M297.972 446.81L307.202 453.116C307.609 453.394 308.165 453.29 308.444 452.882L310.149 450.385C310.428 449.977 310.323 449.421 309.916 449.143L300.685 442.837C300.278 442.559 299.722 442.664 299.444 443.071L297.738 445.568C297.459 445.976 297.564 446.532 297.972 446.81Z" fill="#E25426"/>
</g>
</g>
<path fill-rule="evenodd" clip-rule="evenodd" d="M393.842 498.854C376.767 508.186 368.345 465.844 359.574 453.899C354.859 447.478 360.596 444.985 368.928 448.656C386.115 456.229 407.47 491.406 393.842 498.854Z" fill="white"/>
<path fill-rule="evenodd" clip-rule="evenodd" d="M387.562 490.141C377.704 495.303 369.792 464.489 361.281 453.778C358.547 450.337 361.87 448.424 365.421 450.899C377.338 459.207 397.217 485.084 387.562 490.141Z" fill="#FCDBED"/>
<path fill-rule="evenodd" clip-rule="evenodd" d="M417.913 448.506C415.135 467.766 376.206 449.101 361.387 448.951C353.421 448.871 354.869 442.784 362.805 438.321C379.176 429.115 420.131 433.135 417.913 448.506Z" fill="white"/>
<path fill-rule="evenodd" clip-rule="evenodd" d="M407.175 448.303C405.391 459.286 375.991 447.129 362.315 447.512C357.922 447.635 358.385 443.829 362.496 442.473C376.293 437.923 408.922 437.544 407.175 448.303Z" fill="#FCDBED"/>
<path fill-rule="evenodd" clip-rule="evenodd" d="M331.077 483.355C317.896 483.548 298.656 503.34 295.027 517.673C291.398 532.006 299.958 542.102 315.226 545.967C330.494 549.832 342.727 545.96 346.355 531.626C349.984 517.294 340.056 489.725 331.077 483.355Z" fill="white"/>
<path fill-rule="evenodd" clip-rule="evenodd" d="M358.139 508.797C360.505 509.508 362.942 510.278 365.661 510.228C371.85 510.115 374.95 512.768 373.596 516.693C372.804 518.989 370.906 520.346 363.629 517.84C361.635 517.154 358.498 516.351 355.329 514.452C351.737 512.301 354.414 507.678 358.139 508.797Z" fill="white"/>
<path fill-rule="evenodd" clip-rule="evenodd" d="M364.54 510.204C367.62 509.57 370.771 507.104 371.772 508.892C372.371 509.962 369.422 510.999 367.111 512.019C361.71 514.402 361.459 510.838 364.54 510.204Z" fill="white"/>
<path fill-rule="evenodd" clip-rule="evenodd" d="M338.892 493.841C342.219 496.53 355.114 507.267 364.534 509.135C363.631 511.941 362.99 515.475 361.788 518.267C353.78 515.891 339.825 510.55 331.873 504.754C321.866 497.46 330.91 487.389 338.892 493.841Z" fill="#E87AB6"/>
<mask id="mask2_433_478" style="mask-type:luminance" maskUnits="userSpaceOnUse" x="327" y="491" width="38" height="28">
<path d="M338.892 493.841C342.219 496.53 355.114 507.267 364.534 509.135C363.631 511.941 362.99 515.475 361.788 518.267C353.78 515.891 339.825 510.55 331.873 504.754C321.866 497.46 330.91 487.389 338.892 493.841Z" fill="white"/>
</mask>
<g mask="url(#mask2_433_478)">
<path opacity="0.7" d="M344.625 543.819C351.788 529.402 358.364 513.425 363.15 489.421" stroke="white" stroke-width="2.3998" stroke-miterlimit="22.9256"/>
<path opacity="0.7" d="M336.557 541.264C343.721 526.847 350.296 510.869 355.082 486.866" stroke="white" stroke-width="2.3998" stroke-miterlimit="22.9256"/>
<path opacity="0.7" d="M328.489 538.709C335.652 524.293 342.227 508.315 347.014 484.312" stroke="white" stroke-width="2.3998" stroke-miterlimit="22.9256"/>
<path opacity="0.7" d="M320.422 536.155C327.585 521.738 334.16 505.761 338.947 481.757" stroke="white" stroke-width="2.3998" stroke-miterlimit="22.9256"/>
</g>
<path fill-rule="evenodd" clip-rule="evenodd" d="M313.688 459.962C313.513 457.498 313.296 454.952 313.942 452.311C315.41 446.298 313.503 442.692 309.375 443.151C306.962 443.419 305.221 444.973 306.069 452.622C306.301 454.718 306.395 457.955 307.552 461.465C308.864 465.441 313.962 463.841 313.688 459.962Z" fill="white"/>
<path fill-rule="evenodd" clip-rule="evenodd" d="M313.719 453.411C315.013 450.544 318.111 448.012 316.586 446.643C315.673 445.824 314.014 448.473 312.513 450.503C309.002 455.249 312.425 456.277 313.719 453.411Z" fill="white"/>
<path fill-rule="evenodd" clip-rule="evenodd" d="M324.055 482.023C322.162 478.188 314.516 463.25 314.761 453.65C311.826 453.915 308.237 453.765 305.25 454.325C305.81 462.659 307.959 477.446 311.868 486.476C316.787 497.84 328.597 491.227 324.055 482.023Z" fill="#E87AB6"/>
<mask id="mask3_433_478" style="mask-type:luminance" maskUnits="userSpaceOnUse" x="305" y="453" width="21" height="40">
<path d="M324.055 482.023C322.162 478.188 314.516 463.25 314.761 453.65C311.826 453.915 308.237 453.765 305.25 454.325C305.81 462.659 307.959 477.446 311.868 486.476C316.787 497.84 328.597 491.227 324.055 482.023Z" fill="white"/>
</mask>
<g mask="url(#mask3_433_478)">
<path opacity="0.7" d="M276.553 465.463C292.191 461.638 309.222 458.729 333.691 459.327" stroke="white" stroke-width="2.3998" stroke-miterlimit="22.9256"/>
<path opacity="0.7" d="M277.275 473.894C292.913 470.069 309.944 467.16 334.412 467.758" stroke="white" stroke-width="2.3998" stroke-miterlimit="22.9256"/>
<path opacity="0.7" d="M277.997 482.326C293.635 478.501 310.665 475.592 335.134 476.19" stroke="white" stroke-width="2.3998" stroke-miterlimit="22.9256"/>
<path opacity="0.7" d="M278.72 490.758C294.358 486.933 311.388 484.025 335.857 484.622" stroke="white" stroke-width="2.3998" stroke-miterlimit="22.9256"/>
</g>
<path fill-rule="evenodd" clip-rule="evenodd" d="M331.077 483.355C317.896 483.548 296.496 503.753 292.867 518.086C292.847 518.164 292.83 518.242 292.811 518.32C310.163 525.665 328.679 530.036 348.096 532.316C348.116 532.238 348.139 532.161 348.158 532.084C351.787 517.75 340.056 489.725 331.077 483.355Z" fill="#E87AB6"/>
<mask id="mask4_433_478" style="mask-type:luminance" maskUnits="userSpaceOnUse" x="292" y="483" width="57" height="50">
<path d="M331.077 483.355C317.896 483.548 296.496 503.753 292.867 518.086C292.847 518.164 292.83 518.242 292.811 518.32C310.163 525.665 328.679 530.036 348.096 532.316C348.116 532.238 348.139 532.161 348.158 532.084C351.787 517.75 340.056 489.725 331.077 483.355Z" fill="white"/>
</mask>
<g mask="url(#mask4_433_478)">
<path opacity="0.7" d="M350.61 525.016C334.581 523.513 317.536 520.689 294.61 512.117" stroke="white" stroke-width="2.3998" stroke-miterlimit="22.9256"/>
<path opacity="0.7" d="M352.688 516.812C336.659 515.309 319.614 512.485 296.688 503.912" stroke="white" stroke-width="2.3998" stroke-miterlimit="22.9256"/>
<path opacity="0.7" d="M354.763 508.608C338.734 507.105 321.69 504.281 298.764 495.709" stroke="white" stroke-width="2.3998" stroke-miterlimit="22.9256"/>
<path opacity="0.7" d="M356.84 500.404C340.811 498.901 323.767 496.077 300.841 487.505" stroke="white" stroke-width="2.3998" stroke-miterlimit="22.9256"/>
</g>
<path fill-rule="evenodd" clip-rule="evenodd" d="M360.239 445.557C345.681 435.833 323.339 440.421 317.047 453.15C310.755 465.879 314.182 480.786 328.739 490.51C343.296 500.234 359.311 499.836 369.764 488.364C380.217 476.893 374.797 455.281 360.239 445.557Z" fill="white"/>
<path fill-rule="evenodd" clip-rule="evenodd" d="M345.265 460.263C343.851 462.379 345.294 464.946 346.594 465.815C347.895 466.684 350.975 467.138 352.388 465.022C353.831 462.862 346.707 458.105 345.265 460.263Z" fill="#424B54"/>
<path fill-rule="evenodd" clip-rule="evenodd" d="M337.032 453.971C333.603 452.811 330.295 453.43 329.644 455.352C328.994 457.275 331.246 459.774 334.675 460.934C338.104 462.094 341.412 461.476 342.062 459.553C342.714 457.63 340.461 455.131 337.032 453.971Z" fill="#FCDBED"/>
<path fill-rule="evenodd" clip-rule="evenodd" d="M361.354 470.219C363.738 472.942 364.434 476.234 362.906 477.571C361.379 478.908 358.208 477.784 355.823 475.061C353.438 472.337 352.743 469.046 354.27 467.708C355.799 466.371 358.97 467.495 361.354 470.219Z" fill="#FCDBED"/>
<path fill-rule="evenodd" clip-rule="evenodd" d="M348.759 444.852C347.167 444.313 345.631 444.601 345.329 445.494C345.027 446.387 346.165 446.985 347.757 447.524C349.349 448.063 350.793 448.338 351.095 447.445C351.397 446.551 350.351 445.391 348.759 444.852Z" fill="#FCDBED"/>
<path fill-rule="evenodd" clip-rule="evenodd" d="M365.287 455.893C366.394 457.158 366.717 458.687 366.008 459.307C365.299 459.928 364.31 459.105 363.203 457.841C362.096 456.576 361.289 455.348 361.998 454.727C362.707 454.106 364.18 454.628 365.287 455.893Z" fill="#FCDBED"/>
<path d="M351.702 472.551C346.428 473.461 339.473 468.9 337.872 463.312" stroke="#424B54" stroke-width="1.1999" stroke-miterlimit="22.9256" stroke-linecap="round" stroke-linejoin="round"/>
<path d="M348.291 463.444L343.589 470.484" stroke="#424B54" stroke-width="1.1999" stroke-miterlimit="22.9256" stroke-linecap="round" stroke-linejoin="round"/>
<path fill-rule="evenodd" clip-rule="evenodd" d="M306.793 529.09C298.287 532.071 293.522 537.336 289.085 537.245C286.127 537.184 277.766 531.068 274.735 535.123C271.674 539.219 279.914 545.856 284.852 547.894C288.782 549.516 291.651 550.061 292.812 548.037C295.747 539.594 300.011 539.989 307.165 543.246C312.853 539.234 313.585 530.522 306.793 529.09Z" fill="white"/>
<path fill-rule="evenodd" clip-rule="evenodd" d="M337.49 543.986C334.835 552.599 329.754 557.561 330.014 561.992C330.187 564.946 336.617 573.068 332.68 576.251C328.704 579.465 321.758 571.483 319.534 566.627C317.764 562.762 317.111 559.915 319.088 558.678C327.413 555.424 326.856 551.178 323.33 544.153C327.122 538.316 335.8 537.254 337.49 543.986Z" fill="white"/>
<path d="M361.36 465.704C361.094 463.671 359.258 462.256 357.278 462.977" stroke="#424B54" stroke-width="1.1999" stroke-miterlimit="22.9256" stroke-linecap="round" stroke-linejoin="round"/>
<path d="M340.589 451.829C342.569 451.296 344.579 452.45 344.671 454.556" stroke="#424B54" stroke-width="1.1999" stroke-miterlimit="22.9256" stroke-linecap="round" stroke-linejoin="round"/>
<mask id="mask5_433_478" style="mask-type:luminance" maskUnits="userSpaceOnUse" x="-14" y="354" width="223" height="223">
<path d="M80.3418 354.386L208.613 448.341L114.659 576.612L-13.6126 482.658L80.3418 354.386Z" fill="white"/>
</mask>
<g mask="url(#mask5_433_478)">
<path d="M101.056 471.114L101.091 473.079L146.349 472.268L146.314 470.303L101.056 471.114Z" fill="#57A732"/>
<path d="M127.422 472.256C127.422 472.256 126.81 483.507 140.09 483.709C139.927 483.249 139.399 470.538 127.422 472.256Z" fill="#57A732"/>
<path d="M127.245 471.235C127.245 471.235 138.466 472.261 139.156 458.996C138.69 459.143 125.969 459.203 127.245 471.235Z" fill="#57A732"/>
<path d="M136.952 471.528C136.952 471.528 144.587 480.347 154.623 470.948C154.17 470.723 144.637 461.636 136.952 471.528Z" fill="#57A732"/>
<path d="M115.184 470.887C115.184 470.887 126.395 472.008 127.199 458.75C126.732 458.892 114.01 458.844 115.184 470.887Z" fill="#57A732"/>
<path d="M114.7 472.842C114.7 472.842 114.347 484.104 127.629 484C127.455 483.544 126.635 470.849 114.7 472.842Z" fill="#57A732"/>
<path d="M101.108 461.681L102.36 463.195L137.237 434.34L135.985 432.827L101.108 461.681Z" fill="#59A632"/>
<path d="M108.474 457.093C108.474 457.093 113.692 465.286 123.101 458.76C122.756 458.52 116.005 449.877 108.474 457.093Z" fill="#59A632"/>
<path d="M117.16 448.902C117.16 448.902 122.379 457.094 131.787 450.569C131.442 450.329 124.691 441.686 117.16 448.902Z" fill="#59A632"/>
<path d="M107.866 456.474C107.866 456.474 118.169 451.912 112.319 439.987C111.983 440.342 100.898 446.583 107.866 456.474Z" fill="#59A632"/>
<path d="M117.214 448.849C117.214 448.849 127.334 443.895 121.032 432.203C120.71 432.57 109.872 439.232 117.214 448.849Z" fill="#59A632"/>
<path d="M125.838 442.718C125.838 442.718 137.578 445.711 138.454 431.073C137.965 431.159 124.64 429.126 125.838 442.718Z" fill="#59A632"/>
<path d="M137.109 455.521C137.109 455.521 139.532 466.525 152.381 463.163C152.101 462.764 148.188 450.658 137.109 455.521Z" fill="#84BC26"/>
<path d="M126.428 459.699C126.428 459.699 130.266 470.293 142.567 465.282C142.237 464.923 136.778 453.432 126.428 459.699Z" fill="#84BC26"/>
<path d="M126.714 458.285C126.714 458.285 137.498 455.019 133.153 442.468C132.777 442.778 121.01 447.614 126.714 458.285Z" fill="#84BC26"/>
<path d="M136.591 454.409C136.591 454.409 147.533 451.72 143.86 438.955C143.468 439.246 131.461 443.451 136.591 454.409Z" fill="#84BC26"/>
<path d="M145.133 451.988C145.133 451.988 156.1 459.186 164.074 445.936C163.515 445.831 150.411 438.926 145.133 451.988Z" fill="#84BC26"/>
<path d="M105.371 465.775L106.06 467.615L148.455 451.753L147.767 449.913L105.371 465.775Z" fill="#84BC26"/>
<path d="M37.1257 493.377C37.2387 493.852 39.4877 499.625 48.5385 496.345C51.2658 495.561 98.7776 486.232 98.7776 486.232C98.7776 486.232 110.666 486.111 109.243 475.619C108.129 472.532 103.749 460.05 103.749 460.05C103.749 460.05 101.159 451.028 91.0736 454.265L39.7533 485.128C39.7533 485.128 35.4823 486.468 37.1257 493.377Z" fill="#EB6F2D"/>
<path d="M37.1257 493.377C37.2387 493.852 39.4877 499.625 48.5385 496.345C51.2658 495.561 98.7776 486.232 98.7776 486.232C98.7776 486.232 110.666 486.111 109.243 475.619C108.129 472.532 103.749 460.05 103.749 460.05C103.749 460.05 101.159 451.028 91.0736 454.265L39.7533 485.128C39.7533 485.128 35.4823 486.468 37.1257 493.377Z" stroke="#EA5B0C" stroke-width="4.729" stroke-miterlimit="10"/>
<path d="M73.4889 465.986L77.2093 476.527C77.3737 476.992 77.8838 477.237 78.3491 477.072L81.2009 476.066C81.6662 475.901 81.9104 475.391 81.746 474.926L78.0256 464.385C77.8612 463.919 77.3511 463.675 76.8858 463.839L74.0339 464.846C73.5686 465.01 73.3245 465.521 73.4889 465.986Z" fill="#E25426"/>
<path d="M51.5885 479.087L55.3089 489.629C55.4733 490.094 55.9834 490.338 56.4487 490.174L59.3005 489.167C59.7658 489.003 60.01 488.493 59.8456 488.027L56.1252 477.486C55.9608 477.021 55.4507 476.776 54.9854 476.941L52.1336 477.947C51.6682 478.112 51.4241 478.622 51.5885 479.087Z" fill="#E25426"/>
<path d="M88.6744 476.16L92.3948 486.701C92.5592 487.166 93.0693 487.411 93.5346 487.246L96.3865 486.24C96.8518 486.075 97.0959 485.565 96.9315 485.1L93.2111 474.558C93.0467 474.093 92.5366 473.849 92.0713 474.013L89.2195 475.02C88.7542 475.184 88.5101 475.694 88.6744 476.16Z" fill="#E25426"/>
<path d="M67.0621 480.776L70.7825 491.317C70.9469 491.782 71.457 492.027 71.9223 491.862L74.7742 490.856C75.2395 490.691 75.4836 490.181 75.3192 489.716L71.5988 479.175C71.4344 478.709 70.9243 478.465 70.459 478.629L67.6072 479.636C67.1419 479.8 66.8977 480.311 67.0621 480.776Z" fill="#E25426"/>
</g>
<mask id="mask6_433_478" style="mask-type:luminance" maskUnits="userSpaceOnUse" x="-14" y="374" width="223" height="222">
<path d="M80.3418 374.386L208.613 468.341L115.25 595.806L-13.0217 501.851L80.3418 374.386Z" fill="white"/>
</mask>
<g mask="url(#mask6_433_478)">
<path d="M101.36 490.698L101.401 492.654L146.558 491.982L146.517 490.026L101.36 490.698Z" fill="#57A732"/>
<path d="M127.672 491.914C127.672 491.914 127.094 503.117 140.346 503.358C140.182 502.9 139.617 490.24 127.672 491.914Z" fill="#57A732"/>
<path d="M127.492 490.897C127.492 490.897 138.691 491.953 139.34 478.744C138.876 478.889 126.183 478.911 127.492 490.897Z" fill="#57A732"/>
<path d="M137.179 491.219C137.179 491.219 144.823 500.025 154.809 490.694C154.356 490.468 144.817 481.39 137.179 491.219Z" fill="#57A732"/>
<path d="M115.456 490.514C115.456 490.514 126.647 491.664 127.408 478.463C126.943 478.603 114.249 478.517 115.456 490.514Z" fill="#57A732"/>
<path d="M114.98 492.46C114.98 492.46 114.661 503.674 127.913 503.611C127.739 503.156 126.882 490.511 114.98 492.46Z" fill="#57A732"/>
<path d="M101.384 481.303L102.638 482.814L137.352 454.183L136.098 452.671L101.384 481.303Z" fill="#59A632"/>
<path d="M108.72 476.757C108.72 476.757 113.951 484.932 123.32 478.462C122.975 478.221 116.213 469.594 108.72 476.757Z" fill="#59A632"/>
<path d="M117.362 468.626C117.362 468.626 122.594 476.8 131.962 470.33C131.617 470.089 124.855 461.462 117.362 468.626Z" fill="#59A632"/>
<path d="M108.111 476.14C108.111 476.14 118.378 471.627 112.505 459.733C112.171 460.085 101.129 466.267 108.111 476.14Z" fill="#59A632"/>
<path d="M117.416 468.572C117.416 468.572 127.499 463.669 121.176 452.006C120.856 452.37 110.061 458.972 117.416 468.572Z" fill="#59A632"/>
<path d="M126.003 462.493C126.003 462.493 137.726 465.509 138.556 450.933C138.068 451.017 124.767 448.952 126.003 462.493Z" fill="#59A632"/>
<path d="M137.287 475.277C137.287 475.277 139.738 486.243 152.549 482.933C152.268 482.535 148.328 470.467 137.287 475.277Z" fill="#84BC26"/>
<path d="M126.642 479.406C126.642 479.406 130.504 489.968 142.763 485.015C142.432 484.656 136.951 473.196 126.642 479.406Z" fill="#84BC26"/>
<path d="M126.924 477.998C126.924 477.998 137.674 474.778 133.301 462.264C132.927 462.573 121.2 467.354 126.924 477.998Z" fill="#84BC26"/>
<path d="M136.767 474.169C136.767 474.169 147.677 471.523 143.974 458.8C143.583 459.088 131.616 463.24 136.767 474.169Z" fill="#84BC26"/>
<path d="M145.283 471.782C145.283 471.782 156.248 478.984 164.164 465.812C163.606 465.706 150.51 458.79 145.283 471.782Z" fill="#84BC26"/>
<path d="M105.65 485.394L106.343 487.228L148.597 471.558L147.905 469.724L105.65 485.394Z" fill="#84BC26"/>
<path d="M37.6373 512.677C37.7514 513.151 40.0128 518.907 49.0339 515.667C51.7528 514.896 99.1324 505.747 99.1324 505.747C99.1324 505.747 110.994 505.662 109.542 495.209C108.422 492.131 104.015 479.687 104.015 479.687C104.015 479.687 101.403 470.694 91.3494 473.887L40.2343 504.47C40.2343 504.47 35.9767 505.792 37.6373 512.677Z" fill="#EB6F2D"/>
<path d="M37.6373 512.677C37.7514 513.151 40.0128 518.907 49.0339 515.667C51.7528 514.896 99.1324 505.747 99.1324 505.747C99.1324 505.747 110.994 505.662 109.542 495.209C108.422 492.131 104.015 479.687 104.015 479.687C104.015 479.687 101.403 470.694 91.3494 473.887L40.2343 504.47C40.2343 504.47 35.9767 505.792 37.6373 512.677Z" stroke="#EA5B0C" stroke-width="4.729" stroke-miterlimit="10"/>
<path d="M73.8382 485.508L77.5821 496.017C77.7475 496.481 78.2572 496.726 78.721 496.564L81.5635 495.57C82.0273 495.407 82.2694 494.9 82.104 494.436L78.3601 483.927C78.1947 483.463 77.685 483.218 77.2212 483.38L74.3787 484.374C73.9148 484.537 73.6728 485.044 73.8382 485.508Z" fill="#E25426"/>
<path d="M52.0252 498.49L55.7691 508.999C55.9345 509.463 56.4442 509.708 56.908 509.546L59.7505 508.552C60.2143 508.39 60.4564 507.882 60.291 507.418L56.5471 496.909C56.3817 496.445 55.872 496.2 55.4082 496.363L52.5657 497.357C52.1019 497.519 51.8598 498.026 52.0252 498.49Z" fill="#E25426"/>
<path d="M89.0208 495.686L92.7647 506.195C92.9301 506.659 93.4398 506.904 93.9036 506.741L96.7461 505.747C97.21 505.585 97.452 505.078 97.2866 504.614L93.5427 494.105C93.3773 493.641 92.8676 493.396 92.4038 493.558L89.5613 494.552C89.0975 494.714 88.8554 495.222 89.0208 495.686Z" fill="#E25426"/>
<path d="M67.4701 500.219L71.2139 510.728C71.3793 511.192 71.889 511.437 72.3528 511.274L75.1954 510.281C75.6592 510.118 75.9012 509.611 75.7358 509.147L71.992 498.638C71.8265 498.174 71.3169 497.929 70.853 498.091L68.0105 499.085C67.5467 499.247 67.3046 499.755 67.4701 500.219Z" fill="#E25426"/>
</g>
<mask id="mask7_433_478" style="mask-type:luminance" maskUnits="userSpaceOnUse" x="-14" y="394" width="223" height="222">
<path d="M80.3418 394.386L208.613 488.341L115.25 615.806L-13.0217 521.851L80.3418 394.386Z" fill="white"/>
</mask>
<g mask="url(#mask7_433_478)">
<path d="M101.36 510.698L101.401 512.654L146.558 511.982L146.517 510.026L101.36 510.698Z" fill="#57A732"/>
<path d="M127.672 511.914C127.672 511.914 127.094 523.117 140.346 523.358C140.182 522.9 139.617 510.24 127.672 511.914Z" fill="#57A732"/>
<path d="M127.492 510.897C127.492 510.897 138.691 511.953 139.34 498.744C138.876 498.889 126.183 498.911 127.492 510.897Z" fill="#57A732"/>
<path d="M137.179 511.219C137.179 511.219 144.823 520.025 154.809 510.694C154.356 510.468 144.817 501.39 137.179 511.219Z" fill="#57A732"/>
<path d="M115.456 510.514C115.456 510.514 126.647 511.664 127.408 498.463C126.943 498.603 114.249 498.517 115.456 510.514Z" fill="#57A732"/>
<path d="M114.98 512.46C114.98 512.46 114.661 523.674 127.913 523.611C127.739 523.156 126.882 510.511 114.98 512.46Z" fill="#57A732"/>
<path d="M101.384 501.303L102.638 502.814L137.352 474.183L136.098 472.671L101.384 501.303Z" fill="#59A632"/>
<path d="M108.72 496.757C108.72 496.757 113.951 504.932 123.32 498.462C122.975 498.221 116.213 489.594 108.72 496.757Z" fill="#59A632"/>
<path d="M117.362 488.626C117.362 488.626 122.594 496.8 131.962 490.33C131.617 490.089 124.855 481.462 117.362 488.626Z" fill="#59A632"/>
<path d="M108.111 496.14C108.111 496.14 118.378 491.627 112.505 479.733C112.171 480.085 101.129 486.267 108.111 496.14Z" fill="#59A632"/>
<path d="M117.416 488.572C117.416 488.572 127.499 483.669 121.176 472.006C120.856 472.37 110.061 478.972 117.416 488.572Z" fill="#59A632"/>
<path d="M126.003 482.493C126.003 482.493 137.726 485.509 138.556 470.933C138.068 471.017 124.767 468.952 126.003 482.493Z" fill="#59A632"/>
<path d="M137.287 495.277C137.287 495.277 139.738 506.243 152.549 502.933C152.268 502.535 148.328 490.467 137.287 495.277Z" fill="#84BC26"/>
<path d="M126.642 499.406C126.642 499.406 130.504 509.968 142.763 505.015C142.432 504.656 136.951 493.196 126.642 499.406Z" fill="#84BC26"/>
<path d="M126.924 497.998C126.924 497.998 137.674 494.778 133.301 482.264C132.927 482.573 121.2 487.354 126.924 497.998Z" fill="#84BC26"/>
<path d="M136.767 494.169C136.767 494.169 147.677 491.523 143.974 478.8C143.583 479.088 131.616 483.24 136.767 494.169Z" fill="#84BC26"/>
<path d="M145.283 491.782C145.283 491.782 156.248 498.984 164.164 485.812C163.606 485.706 150.51 478.79 145.283 491.782Z" fill="#84BC26"/>
<path d="M105.65 505.394L106.343 507.228L148.597 491.558L147.905 489.724L105.65 505.394Z" fill="#84BC26"/>
<path d="M37.6373 532.677C37.7514 533.151 40.0128 538.907 49.0339 535.667C51.7528 534.896 99.1324 525.747 99.1324 525.747C99.1324 525.747 110.994 525.662 109.542 515.209C108.422 512.131 104.015 499.687 104.015 499.687C104.015 499.687 101.403 490.694 91.3494 493.887L40.2343 524.47C40.2343 524.47 35.9767 525.792 37.6373 532.677Z" fill="#EB6F2D"/>
<path d="M37.6373 532.677C37.7514 533.151 40.0128 538.907 49.0339 535.667C51.7528 534.896 99.1324 525.747 99.1324 525.747C99.1324 525.747 110.994 525.662 109.542 515.209C108.422 512.131 104.015 499.687 104.015 499.687C104.015 499.687 101.403 490.694 91.3494 493.887L40.2343 524.47C40.2343 524.47 35.9767 525.792 37.6373 532.677Z" stroke="#EA5B0C" stroke-width="4.729" stroke-miterlimit="10"/>
<path d="M73.8382 505.508L77.5821 516.017C77.7475 516.481 78.2572 516.726 78.721 516.564L81.5635 515.57C82.0273 515.407 82.2694 514.9 82.104 514.436L78.3601 503.927C78.1947 503.463 77.685 503.218 77.2212 503.38L74.3787 504.374C73.9148 504.537 73.6728 505.044 73.8382 505.508Z" fill="#E25426"/>
<path d="M52.0252 518.49L55.7691 528.999C55.9345 529.463 56.4442 529.708 56.908 529.546L59.7505 528.552C60.2143 528.39 60.4564 527.882 60.291 527.418L56.5471 516.909C56.3817 516.445 55.872 516.2 55.4082 516.363L52.5657 517.357C52.1019 517.519 51.8598 518.026 52.0252 518.49Z" fill="#E25426"/>
<path d="M89.0208 515.686L92.7647 526.195C92.9301 526.659 93.4398 526.904 93.9036 526.741L96.7461 525.747C97.21 525.585 97.452 525.078 97.2866 524.614L93.5427 514.105C93.3773 513.641 92.8676 513.396 92.4038 513.558L89.5613 514.552C89.0975 514.714 88.8554 515.222 89.0208 515.686Z" fill="#E25426"/>
<path d="M67.4701 520.219L71.2139 530.728C71.3793 531.192 71.889 531.437 72.3528 531.274L75.1954 530.281C75.6592 530.118 75.9012 529.611 75.7358 529.147L71.992 518.638C71.8265 518.174 71.3169 517.929 70.853 518.091L68.0105 519.085C67.5467 519.247 67.3046 519.755 67.4701 520.219Z" fill="#E25426"/>
</g>
<mask id="mask8_433_478" style="mask-type:luminance" maskUnits="userSpaceOnUse" x="-14" y="414" width="223" height="222">
<path d="M80.3418 414.386L208.613 508.341L115.25 635.806L-13.0217 541.851L80.3418 414.386Z" fill="white"/>
</mask>
<g mask="url(#mask8_433_478)">
<path d="M101.36 530.698L101.401 532.654L146.558 531.982L146.517 530.026L101.36 530.698Z" fill="#57A732"/>
<path d="M127.672 531.914C127.672 531.914 127.094 543.117 140.346 543.358C140.182 542.9 139.617 530.24 127.672 531.914Z" fill="#57A732"/>
<path d="M127.492 530.897C127.492 530.897 138.691 531.953 139.34 518.744C138.876 518.889 126.183 518.911 127.492 530.897Z" fill="#57A732"/>
<path d="M137.179 531.219C137.179 531.219 144.823 540.025 154.809 530.694C154.356 530.468 144.817 521.39 137.179 531.219Z" fill="#57A732"/>
<path d="M115.456 530.514C115.456 530.514 126.647 531.664 127.408 518.463C126.943 518.603 114.249 518.517 115.456 530.514Z" fill="#57A732"/>
<path d="M114.98 532.46C114.98 532.46 114.661 543.674 127.913 543.611C127.739 543.156 126.882 530.511 114.98 532.46Z" fill="#57A732"/>
<path d="M101.384 521.303L102.638 522.814L137.352 494.183L136.098 492.671L101.384 521.303Z" fill="#59A632"/>
<path d="M108.72 516.757C108.72 516.757 113.951 524.932 123.32 518.462C122.975 518.221 116.213 509.594 108.72 516.757Z" fill="#59A632"/>
<path d="M117.362 508.626C117.362 508.626 122.594 516.8 131.962 510.33C131.617 510.089 124.855 501.462 117.362 508.626Z" fill="#59A632"/>
<path d="M108.111 516.14C108.111 516.14 118.378 511.627 112.505 499.733C112.171 500.085 101.129 506.267 108.111 516.14Z" fill="#59A632"/>
<path d="M117.416 508.572C117.416 508.572 127.499 503.669 121.176 492.006C120.856 492.37 110.061 498.972 117.416 508.572Z" fill="#59A632"/>
<path d="M126.003 502.493C126.003 502.493 137.726 505.509 138.556 490.933C138.068 491.017 124.767 488.952 126.003 502.493Z" fill="#59A632"/>
<path d="M137.287 515.277C137.287 515.277 139.738 526.243 152.549 522.933C152.268 522.535 148.328 510.467 137.287 515.277Z" fill="#84BC26"/>
<path d="M126.642 519.406C126.642 519.406 130.504 529.968 142.763 525.015C142.432 524.656 136.951 513.196 126.642 519.406Z" fill="#84BC26"/>
<path d="M126.924 517.998C126.924 517.998 137.674 514.778 133.301 502.264C132.927 502.573 121.2 507.354 126.924 517.998Z" fill="#84BC26"/>
<path d="M136.767 514.169C136.767 514.169 147.677 511.523 143.974 498.8C143.583 499.088 131.616 503.24 136.767 514.169Z" fill="#84BC26"/>
<path d="M145.283 511.782C145.283 511.782 156.248 518.984 164.164 505.812C163.606 505.706 150.51 498.79 145.283 511.782Z" fill="#84BC26"/>
<path d="M105.65 525.394L106.343 527.228L148.597 511.558L147.905 509.724L105.65 525.394Z" fill="#84BC26"/>
<path d="M37.6373 552.677C37.7514 553.151 40.0128 558.907 49.0339 555.667C51.7528 554.896 99.1324 545.747 99.1324 545.747C99.1324 545.747 110.994 545.662 109.542 535.209C108.422 532.131 104.015 519.687 104.015 519.687C104.015 519.687 101.403 510.694 91.3494 513.887L40.2343 544.47C40.2343 544.47 35.9767 545.792 37.6373 552.677Z" fill="#EB6F2D"/>
<path d="M37.6373 552.677C37.7514 553.151 40.0128 558.907 49.0339 555.667C51.7528 554.896 99.1324 545.747 99.1324 545.747C99.1324 545.747 110.994 545.662 109.542 535.209C108.422 532.131 104.015 519.687 104.015 519.687C104.015 519.687 101.403 510.694 91.3494 513.887L40.2343 544.47C40.2343 544.47 35.9767 545.792 37.6373 552.677Z" stroke="#EA5B0C" stroke-width="4.729" stroke-miterlimit="10"/>
<path d="M73.8382 525.508L77.5821 536.017C77.7475 536.481 78.2572 536.726 78.721 536.564L81.5635 535.57C82.0273 535.407 82.2694 534.9 82.104 534.436L78.3601 523.927C78.1947 523.463 77.685 523.218 77.2212 523.38L74.3787 524.374C73.9148 524.537 73.6728 525.044 73.8382 525.508Z" fill="#E25426"/>
<path d="M52.0252 538.49L55.7691 548.999C55.9345 549.463 56.4442 549.708 56.908 549.546L59.7505 548.552C60.2143 548.39 60.4564 547.882 60.291 547.418L56.5471 536.909C56.3817 536.445 55.872 536.2 55.4082 536.363L52.5657 537.357C52.1019 537.519 51.8598 538.026 52.0252 538.49Z" fill="#E25426"/>
<path d="M89.0208 535.686L92.7647 546.195C92.9301 546.659 93.4398 546.904 93.9036 546.741L96.7461 545.747C97.21 545.585 97.452 545.078 97.2866 544.614L93.5427 534.105C93.3773 533.641 92.8676 533.396 92.4038 533.558L89.5613 534.552C89.0975 534.714 88.8554 535.222 89.0208 535.686Z" fill="#E25426"/>
<path d="M67.4701 540.219L71.2139 550.728C71.3793 551.192 71.889 551.437 72.3528 551.274L75.1954 550.281C75.6592 550.118 75.9012 549.611 75.7358 549.147L71.992 538.638C71.8265 538.174 71.3169 537.929 70.853 538.091L68.0105 539.085C67.5467 539.247 67.3046 539.755 67.4701 540.219Z" fill="#E25426"/>
</g>
<mask id="mask9_433_478" style="mask-type:luminance" maskUnits="userSpaceOnUse" x="-14" y="362" width="223" height="222">
<path d="M80.3418 362.386L208.613 456.341L115.25 583.806L-13.0217 489.851L80.3418 362.386Z" fill="white"/>
</mask>
<g mask="url(#mask9_433_478)">
<path d="M101.36 478.698L101.401 480.654L146.558 479.982L146.517 478.026L101.36 478.698Z" fill="#57A732"/>
<path d="M127.672 479.914C127.672 479.914 127.094 491.117 140.346 491.358C140.182 490.9 139.617 478.24 127.672 479.914Z" fill="#57A732"/>
<path d="M127.492 478.897C127.492 478.897 138.691 479.953 139.34 466.744C138.876 466.889 126.183 466.911 127.492 478.897Z" fill="#57A732"/>
<path d="M137.179 479.219C137.179 479.219 144.823 488.025 154.809 478.694C154.356 478.468 144.817 469.39 137.179 479.219Z" fill="#57A732"/>
<path d="M115.456 478.514C115.456 478.514 126.647 479.664 127.408 466.463C126.943 466.603 114.249 466.517 115.456 478.514Z" fill="#57A732"/>
<path d="M114.98 480.46C114.98 480.46 114.661 491.674 127.913 491.611C127.739 491.156 126.882 478.511 114.98 480.46Z" fill="#57A732"/>
<path d="M101.384 469.303L102.638 470.814L137.352 442.183L136.098 440.671L101.384 469.303Z" fill="#59A632"/>
<path d="M108.72 464.757C108.72 464.757 113.951 472.932 123.32 466.462C122.975 466.221 116.213 457.594 108.72 464.757Z" fill="#59A632"/>
<path d="M117.362 456.626C117.362 456.626 122.594 464.8 131.962 458.33C131.617 458.089 124.855 449.462 117.362 456.626Z" fill="#59A632"/>
<path d="M108.111 464.14C108.111 464.14 118.378 459.627 112.505 447.733C112.171 448.085 101.129 454.267 108.111 464.14Z" fill="#59A632"/>
<path d="M117.416 456.572C117.416 456.572 127.499 451.669 121.176 440.006C120.856 440.37 110.061 446.972 117.416 456.572Z" fill="#59A632"/>
<path d="M126.003 450.493C126.003 450.493 137.726 453.509 138.556 438.933C138.068 439.017 124.767 436.952 126.003 450.493Z" fill="#59A632"/>
<path d="M137.287 463.277C137.287 463.277 139.738 474.243 152.549 470.933C152.268 470.535 148.328 458.467 137.287 463.277Z" fill="#84BC26"/>
<path d="M126.642 467.406C126.642 467.406 130.504 477.968 142.763 473.015C142.432 472.656 136.951 461.196 126.642 467.406Z" fill="#84BC26"/>
<path d="M126.924 465.998C126.924 465.998 137.674 462.778 133.301 450.264C132.927 450.573 121.2 455.354 126.924 465.998Z" fill="#84BC26"/>
<path d="M136.767 462.169C136.767 462.169 147.677 459.523 143.974 446.8C143.583 447.088 131.616 451.24 136.767 462.169Z" fill="#84BC26"/>
<path d="M145.283 459.782C145.283 459.782 156.248 466.984 164.164 453.812C163.606 453.706 150.51 446.79 145.283 459.782Z" fill="#84BC26"/>
<path d="M105.65 473.394L106.343 475.228L148.597 459.558L147.905 457.724L105.65 473.394Z" fill="#84BC26"/>
<path d="M37.6373 500.677C37.7514 501.151 40.0128 506.907 49.0339 503.667C51.7528 502.896 99.1324 493.747 99.1324 493.747C99.1324 493.747 110.994 493.662 109.542 483.209C108.422 480.131 104.015 467.687 104.015 467.687C104.015 467.687 101.403 458.694 91.3494 461.887L40.2343 492.47C40.2343 492.47 35.9767 493.792 37.6373 500.677Z" fill="#EB6F2D"/>
<path d="M37.6373 500.677C37.7514 501.151 40.0128 506.907 49.0339 503.667C51.7528 502.896 99.1324 493.747 99.1324 493.747C99.1324 493.747 110.994 493.662 109.542 483.209C108.422 480.131 104.015 467.687 104.015 467.687C104.015 467.687 101.403 458.694 91.3494 461.887L40.2343 492.47C40.2343 492.47 35.9767 493.792 37.6373 500.677Z" stroke="#EA5B0C" stroke-width="4.729" stroke-miterlimit="10"/>
<path d="M73.8382 473.508L77.5821 484.017C77.7475 484.481 78.2572 484.726 78.721 484.564L81.5635 483.57C82.0273 483.407 82.2694 482.9 82.104 482.436L78.3601 471.927C78.1947 471.463 77.685 471.218 77.2212 471.38L74.3787 472.374C73.9148 472.537 73.6728 473.044 73.8382 473.508Z" fill="#E25426"/>
<path d="M52.0252 486.49L55.7691 496.999C55.9345 497.463 56.4442 497.708 56.908 497.546L59.7505 496.552C60.2143 496.39 60.4564 495.882 60.291 495.418L56.5471 484.909C56.3817 484.445 55.872 484.2 55.4082 484.363L52.5657 485.357C52.1019 485.519 51.8598 486.026 52.0252 486.49Z" fill="#E25426"/>
<path d="M89.0208 483.686L92.7647 494.195C92.9301 494.659 93.4398 494.904 93.9036 494.741L96.7461 493.747C97.21 493.585 97.452 493.078 97.2866 492.614L93.5427 482.105C93.3773 481.641 92.8676 481.396 92.4038 481.558L89.5613 482.552C89.0975 482.714 88.8554 483.222 89.0208 483.686Z" fill="#E25426"/>
<path d="M67.4701 488.219L71.2139 498.728C71.3793 499.192 71.889 499.437 72.3528 499.274L75.1954 498.281C75.6592 498.118 75.9012 497.611 75.7358 497.147L71.992 486.638C71.8265 486.174 71.3169 485.929 70.853 486.091L68.0105 487.085C67.5467 487.247 67.3046 487.755 67.4701 488.219Z" fill="#E25426"/>
</g>
<mask id="mask10_433_478" style="mask-type:luminance" maskUnits="userSpaceOnUse" x="-14" y="379" width="223" height="222">
<path d="M80.3418 379.386L208.613 473.341L115.25 600.806L-13.0217 506.851L80.3418 379.386Z" fill="white"/>
</mask>
<g mask="url(#mask10_433_478)">
<path d="M101.36 495.698L101.401 497.654L146.558 496.982L146.517 495.026L101.36 495.698Z" fill="#57A732"/>
<path d="M127.672 496.914C127.672 496.914 127.094 508.117 140.346 508.358C140.182 507.9 139.617 495.24 127.672 496.914Z" fill="#57A732"/>
<path d="M127.492 495.897C127.492 495.897 138.691 496.953 139.34 483.744C138.876 483.889 126.183 483.911 127.492 495.897Z" fill="#57A732"/>
<path d="M137.179 496.219C137.179 496.219 144.823 505.025 154.809 495.694C154.356 495.468 144.817 486.39 137.179 496.219Z" fill="#57A732"/>
<path d="M115.456 495.514C115.456 495.514 126.647 496.664 127.408 483.463C126.943 483.603 114.249 483.517 115.456 495.514Z" fill="#57A732"/>
<path d="M114.98 497.46C114.98 497.46 114.661 508.674 127.913 508.611C127.739 508.156 126.882 495.511 114.98 497.46Z" fill="#57A732"/>
<path d="M101.384 486.303L102.638 487.814L137.352 459.183L136.098 457.671L101.384 486.303Z" fill="#59A632"/>
<path d="M108.72 481.757C108.72 481.757 113.951 489.932 123.32 483.462C122.975 483.221 116.213 474.594 108.72 481.757Z" fill="#59A632"/>
<path d="M117.362 473.626C117.362 473.626 122.594 481.8 131.962 475.33C131.617 475.089 124.855 466.462 117.362 473.626Z" fill="#59A632"/>
<path d="M108.111 481.14C108.111 481.14 118.378 476.627 112.505 464.733C112.171 465.085 101.129 471.267 108.111 481.14Z" fill="#59A632"/>
<path d="M117.416 473.572C117.416 473.572 127.499 468.669 121.176 457.006C120.856 457.37 110.061 463.972 117.416 473.572Z" fill="#59A632"/>
<path d="M126.003 467.493C126.003 467.493 137.726 470.509 138.556 455.933C138.068 456.017 124.767 453.952 126.003 467.493Z" fill="#59A632"/>
<path d="M137.287 480.277C137.287 480.277 139.738 491.243 152.549 487.933C152.268 487.535 148.328 475.467 137.287 480.277Z" fill="#84BC26"/>
<path d="M126.642 484.406C126.642 484.406 130.504 494.968 142.763 490.015C142.432 489.656 136.951 478.196 126.642 484.406Z" fill="#84BC26"/>
<path d="M126.924 482.998C126.924 482.998 137.674 479.778 133.301 467.264C132.927 467.573 121.2 472.354 126.924 482.998Z" fill="#84BC26"/>
<path d="M136.767 479.169C136.767 479.169 147.677 476.523 143.974 463.8C143.583 464.088 131.616 468.24 136.767 479.169Z" fill="#84BC26"/>
<path d="M145.283 476.782C145.283 476.782 156.248 483.984 164.164 470.812C163.606 470.706 150.51 463.79 145.283 476.782Z" fill="#84BC26"/>
<path d="M105.65 490.394L106.343 492.228L148.597 476.558L147.905 474.724L105.65 490.394Z" fill="#84BC26"/>
<path d="M37.6373 517.677C37.7514 518.151 40.0128 523.907 49.0339 520.667C51.7528 519.896 99.1324 510.747 99.1324 510.747C99.1324 510.747 110.994 510.662 109.542 500.209C108.422 497.131 104.015 484.687 104.015 484.687C104.015 484.687 101.403 475.694 91.3494 478.887L40.2343 509.47C40.2343 509.47 35.9767 510.792 37.6373 517.677Z" fill="#EB6F2D"/>
<path d="M37.6373 517.677C37.7514 518.151 40.0128 523.907 49.0339 520.667C51.7528 519.896 99.1324 510.747 99.1324 510.747C99.1324 510.747 110.994 510.662 109.542 500.209C108.422 497.131 104.015 484.687 104.015 484.687C104.015 484.687 101.403 475.694 91.3494 478.887L40.2343 509.47C40.2343 509.47 35.9767 510.792 37.6373 517.677Z" stroke="#EA5B0C" stroke-width="4.729" stroke-miterlimit="10"/>
<path d="M73.8382 490.508L77.5821 501.017C77.7475 501.481 78.2572 501.726 78.721 501.564L81.5635 500.57C82.0273 500.407 82.2694 499.9 82.104 499.436L78.3601 488.927C78.1947 488.463 77.685 488.218 77.2212 488.38L74.3787 489.374C73.9148 489.537 73.6728 490.044 73.8382 490.508Z" fill="#E25426"/>
<path d="M52.0252 503.49L55.7691 513.999C55.9345 514.463 56.4442 514.708 56.908 514.546L59.7505 513.552C60.2143 513.39 60.4564 512.882 60.291 512.418L56.5471 501.909C56.3817 501.445 55.872 501.2 55.4082 501.363L52.5657 502.357C52.1019 502.519 51.8598 503.026 52.0252 503.49Z" fill="#E25426"/>
<path d="M89.0208 500.686L92.7647 511.195C92.9301 511.659 93.4398 511.904 93.9036 511.741L96.7461 510.747C97.21 510.585 97.452 510.078 97.2866 509.614L93.5427 499.105C93.3773 498.641 92.8676 498.396 92.4038 498.558L89.5613 499.552C89.0975 499.714 88.8554 500.222 89.0208 500.686Z" fill="#E25426"/>
<path d="M67.4701 505.219L71.2139 515.728C71.3793 516.192 71.889 516.437 72.3528 516.274L75.1954 515.281C75.6592 515.118 75.9012 514.611 75.7358 514.147L71.992 503.638C71.8265 503.174 71.3169 502.929 70.853 503.091L68.0105 504.085C67.5467 504.247 67.3046 504.755 67.4701 505.219Z" fill="#E25426"/>
</g>
<mask id="mask11_433_478" style="mask-type:luminance" maskUnits="userSpaceOnUse" x="-14" y="396" width="223" height="222">
<path d="M80.3418 396.386L208.613 490.341L115.25 617.806L-13.0217 523.851L80.3418 396.386Z" fill="white"/>
</mask>
<g mask="url(#mask11_433_478)">
<path d="M101.36 512.698L101.401 514.654L146.558 513.982L146.517 512.026L101.36 512.698Z" fill="#57A732"/>
<path d="M127.672 513.914C127.672 513.914 127.094 525.117 140.346 525.358C140.182 524.9 139.617 512.24 127.672 513.914Z" fill="#57A732"/>
<path d="M127.492 512.897C127.492 512.897 138.691 513.953 139.34 500.744C138.876 500.889 126.183 500.911 127.492 512.897Z" fill="#57A732"/>
<path d="M137.179 513.219C137.179 513.219 144.823 522.025 154.809 512.694C154.356 512.468 144.817 503.39 137.179 513.219Z" fill="#57A732"/>
<path d="M115.456 512.514C115.456 512.514 126.647 513.664 127.408 500.463C126.943 500.603 114.249 500.517 115.456 512.514Z" fill="#57A732"/>
<path d="M114.98 514.46C114.98 514.46 114.661 525.674 127.913 525.611C127.739 525.156 126.882 512.511 114.98 514.46Z" fill="#57A732"/>
<path d="M101.384 503.303L102.638 504.814L137.352 476.183L136.098 474.671L101.384 503.303Z" fill="#59A632"/>
<path d="M108.72 498.757C108.72 498.757 113.951 506.932 123.32 500.462C122.975 500.221 116.213 491.594 108.72 498.757Z" fill="#59A632"/>
<path d="M117.362 490.626C117.362 490.626 122.594 498.8 131.962 492.33C131.617 492.089 124.855 483.462 117.362 490.626Z" fill="#59A632"/>
<path d="M108.111 498.14C108.111 498.14 118.378 493.627 112.505 481.733C112.171 482.085 101.129 488.267 108.111 498.14Z" fill="#59A632"/>
<path d="M117.416 490.572C117.416 490.572 127.499 485.669 121.176 474.006C120.856 474.37 110.061 480.972 117.416 490.572Z" fill="#59A632"/>
<path d="M126.003 484.493C126.003 484.493 137.726 487.509 138.556 472.933C138.068 473.017 124.767 470.952 126.003 484.493Z" fill="#59A632"/>
<path d="M137.287 497.277C137.287 497.277 139.738 508.243 152.549 504.933C152.268 504.535 148.328 492.467 137.287 497.277Z" fill="#84BC26"/>
<path d="M126.642 501.406C126.642 501.406 130.504 511.968 142.763 507.015C142.432 506.656 136.951 495.196 126.642 501.406Z" fill="#84BC26"/>
<path d="M126.924 499.998C126.924 499.998 137.674 496.778 133.301 484.264C132.927 484.573 121.2 489.354 126.924 499.998Z" fill="#84BC26"/>
<path d="M136.767 496.169C136.767 496.169 147.677 493.523 143.974 480.8C143.583 481.088 131.616 485.24 136.767 496.169Z" fill="#84BC26"/>
<path d="M145.283 493.782C145.283 493.782 156.248 500.984 164.164 487.812C163.606 487.706 150.51 480.79 145.283 493.782Z" fill="#84BC26"/>
<path d="M105.65 507.394L106.343 509.228L148.597 493.558L147.905 491.724L105.65 507.394Z" fill="#84BC26"/>
<path d="M37.6373 534.677C37.7514 535.151 40.0128 540.907 49.0339 537.667C51.7528 536.896 99.1324 527.747 99.1324 527.747C99.1324 527.747 110.994 527.662 109.542 517.209C108.422 514.131 104.015 501.687 104.015 501.687C104.015 501.687 101.403 492.694 91.3494 495.887L40.2343 526.47C40.2343 526.47 35.9767 527.792 37.6373 534.677Z" fill="#EB6F2D"/>
<path d="M37.6373 534.677C37.7514 535.151 40.0128 540.907 49.0339 537.667C51.7528 536.896 99.1324 527.747 99.1324 527.747C99.1324 527.747 110.994 527.662 109.542 517.209C108.422 514.131 104.015 501.687 104.015 501.687C104.015 501.687 101.403 492.694 91.3494 495.887L40.2343 526.47C40.2343 526.47 35.9767 527.792 37.6373 534.677Z" stroke="#EA5B0C" stroke-width="4.729" stroke-miterlimit="10"/>
<path d="M73.8382 507.508L77.5821 518.017C77.7475 518.481 78.2572 518.726 78.721 518.564L81.5635 517.57C82.0273 517.407 82.2694 516.9 82.104 516.436L78.3601 505.927C78.1947 505.463 77.685 505.218 77.2212 505.38L74.3787 506.374C73.9148 506.537 73.6728 507.044 73.8382 507.508Z" fill="#E25426"/>
<path d="M52.0252 520.49L55.7691 530.999C55.9345 531.463 56.4442 531.708 56.908 531.546L59.7505 530.552C60.2143 530.39 60.4564 529.882 60.291 529.418L56.5471 518.909C56.3817 518.445 55.872 518.2 55.4082 518.363L52.5657 519.357C52.1019 519.519 51.8598 520.026 52.0252 520.49Z" fill="#E25426"/>
<path d="M89.0208 517.686L92.7647 528.195C92.9301 528.659 93.4398 528.904 93.9036 528.741L96.7461 527.747C97.21 527.585 97.452 527.078 97.2866 526.614L93.5427 516.105C93.3773 515.641 92.8676 515.396 92.4038 515.558L89.5613 516.552C89.0975 516.714 88.8554 517.222 89.0208 517.686Z" fill="#E25426"/>
<path d="M67.4701 522.219L71.2139 532.728C71.3793 533.192 71.889 533.437 72.3528 533.274L75.1954 532.281C75.6592 532.118 75.9012 531.611 75.7358 531.147L71.992 520.638C71.8265 520.174 71.3169 519.929 70.853 520.091L68.0105 521.085C67.5467 521.247 67.3046 521.755 67.4701 522.219Z" fill="#E25426"/>
</g>
<defs>
<filter id="filter0_f_433_478" x="106.329" y="-57.4385" width="332.27" height="332.271" filterUnits="userSpaceOnUse" color-interpolation-filters="sRGB">
<feFlood flood-opacity="0" result="BackgroundImageFix"/>
<feBlend mode="normal" in="SourceGraphic" in2="BackgroundImageFix" result="shape"/>
<feGaussianBlur stdDeviation="50" result="effect1_foregroundBlur_433_478"/>
</filter>
<filter id="filter1_i_433_478" x="204" y="40" width="137.23" height="139.597" filterUnits="userSpaceOnUse" color-interpolation-filters="sRGB">
<feFlood flood-opacity="0" result="BackgroundImageFix"/>
<feBlend mode="normal" in="SourceGraphic" in2="BackgroundImageFix" result="shape"/>
<feColorMatrix in="SourceAlpha" type="matrix" values="0 0 0 0 0 0 0 0 0 0 0 0 0 0 0 0 0 0 127 0" result="hardAlpha"/>
<feOffset dy="2.36639"/>
<feGaussianBlur stdDeviation="17.7479"/>
<feComposite in2="hardAlpha" operator="arithmetic" k2="-1" k3="1"/>
<feColorMatrix type="matrix" values="0 0 0 0 1 0 0 0 0 1 0 0 0 0 1 0 0 0 0.77 0"/>
<feBlend mode="normal" in2="shape" result="effect1_innerShadow_433_478"/>
</filter>
<linearGradient id="paint0_linear_433_478" x1="254.318" y1="125.54" x2="303.721" y2="64.244" gradientUnits="userSpaceOnUse">
<stop stop-color="#EE9D3E"/>
<stop offset="1" stop-color="#ECA14A" stop-opacity="0"/>
</linearGradient>
<clipPath id="clip0_433_478">
<rect width="665" height="157" fill="white" transform="translate(-149 263)"/>
</clipPath>
<clipPath id="clip1_433_478">
<rect width="159" height="159" fill="white" transform="matrix(-1 0 0 1 393 337)"/>
</clipPath>
</defs>
</svg>
