<svg width="128" height="91" viewBox="0 0 128 91" fill="none" xmlns="http://www.w3.org/2000/svg">
<path d="M91.6246 52.9311C101.096 53.955 110.29 51.0539 112.403 51.3525C113.418 51.4962 112.701 52.6332 111.464 53.4649C114.877 52.5044 122.557 52.163 123.026 53.2725C123.495 54.3816 118.802 56.1736 115.687 56.9841C120.253 56.2589 126.316 56.804 127.207 58.0083C128.786 60.1413 112.786 65.3038 96.9148 64.8775C91.7099 61.3789 89.2424 52.6737 91.6246 52.9311Z" fill="#3D4648"/>
<path d="M112.319 53.2561C112.012 53.3221 111.725 53.3921 111.463 53.4657C112.701 52.634 113.418 51.497 112.402 51.3533C112.103 51.3108 111.662 51.3327 111.099 51.3984C111.711 51.7286 111.508 52.1585 111.184 52.4319C108.82 53.9561 106.847 54.5225 103.896 55.0895C106.667 55.327 109.689 54.1781 112.319 53.2561Z" fill="#2E3232"/>
<path d="M118.667 54.2301C115.482 56.3196 111.508 57.316 106.28 58.5469C110.246 58.5528 113.963 57.2761 118.21 56.7161C117.347 56.7682 116.494 56.8564 115.688 56.9845C118.802 56.174 123.495 54.382 123.026 53.2729C122.744 52.606 119.857 52.4634 116.858 52.6644C118.47 52.694 119.363 53.6213 118.667 54.2301Z" fill="#2E3232"/>
<path d="M127.206 58.0083C126.694 57.3166 124.475 56.8428 121.814 56.7018C123.736 57.1006 123.568 58.4018 123.058 58.7419C118.9 61.4674 100.597 64.3376 94.0938 62.2133C94.9086 63.2371 95.8545 64.1651 96.9142 64.8775C112.785 65.3038 128.785 60.1413 127.206 58.0083Z" fill="#2E3232"/>
<path d="M96.9474 64.7736C97.5522 64.7899 98.1713 64.7978 98.7881 64.7978C113.103 64.7978 126.096 60.648 127.143 58.571C127.239 58.3812 127.232 58.2173 127.123 58.0697C126.562 57.3116 123.626 56.7615 120.142 56.7615C118.577 56.7615 117.043 56.874 115.703 57.0866L115.661 56.8833C118.771 56.0737 122.424 54.5986 122.903 53.6262C122.961 53.5091 122.969 53.4066 122.93 53.3127C122.801 53.0084 121.763 52.6836 119.236 52.6836C116.563 52.6836 113.306 53.0542 111.491 53.5648L110.865 53.7407L111.405 53.378C112.271 52.7964 112.859 52.0765 112.773 51.7032C112.743 51.5705 112.613 51.4872 112.387 51.455C112.29 51.4414 112.173 51.4345 112.038 51.4345C111.254 51.4345 109.907 51.6657 108.203 51.958C105.014 52.5051 100.647 53.2546 95.8771 53.2546C94.4007 53.2546 92.9661 53.1806 91.6127 53.0343C91.2647 52.9962 91.0278 53.178 90.9067 53.5754C90.3132 55.5223 92.7348 61.9236 96.9474 64.7736ZM98.7881 65.0059C98.159 65.0059 97.5277 64.9976 96.9116 64.981L96.8814 64.9803L96.8562 64.9634C92.4787 62.0209 90.0822 55.5664 90.7076 53.5147C90.8825 52.9414 91.2474 52.8213 91.5231 52.8213C91.5593 52.8213 91.5965 52.8233 91.635 52.8273C92.981 52.9729 94.408 53.0466 95.8771 53.0466C100.63 53.0466 104.986 52.2988 108.167 51.753C110.195 51.4053 111.718 51.1505 112.416 51.249C112.814 51.3054 112.94 51.5018 112.976 51.6564C113.078 52.1013 112.571 52.7274 111.953 53.2307C113.853 52.7798 116.742 52.4753 119.236 52.4753C120.862 52.4753 122.857 52.6066 123.121 53.2314C123.185 53.3823 123.174 53.5462 123.09 53.7184C122.59 54.7317 119.527 55.9477 117.055 56.7034C118.037 56.6046 119.083 56.5535 120.142 56.5535C123.089 56.5535 126.582 56.9891 127.29 57.946C127.446 58.157 127.46 58.4055 127.329 58.6646C126.125 61.0537 112.287 65.0059 98.7881 65.0059Z" fill="#151514"/>
<path d="M105.695 55.0879C105.72 55.0859 108.247 54.8726 111.418 53.3699L111.508 53.5581C108.299 55.0779 105.695 55.0879 105.695 55.0879Z" fill="#151514"/>
<path d="M109.637 58.3193C109.666 58.313 112.648 57.6807 116.055 56.8253L116.105 57.0271C112.695 57.8834 109.637 58.3193 109.637 58.3193Z" fill="#151514"/>
<path d="M55.4021 69.6568C49.4719 66.841 43.5414 65.9876 40.8533 66.969C38.1656 67.9501 37.2695 71.3634 40 72.7715C42.5172 71.9182 47.893 71.1929 55.7863 71.534C56.1274 71.1073 55.4021 69.6568 55.4021 69.6568Z" fill="#8D9AAA"/>
<path d="M40.5927 67.5984C43.158 66.6618 49.7222 67.2935 55.4713 69.8008C55.4301 69.7105 55.4029 69.6561 55.4029 69.6561C49.4727 66.8403 43.5422 65.987 40.8541 66.9684C39.5585 67.4412 38.681 68.4796 38.4238 69.5858C38.7868 68.7325 39.5389 67.983 40.5927 67.5984Z" fill="#C1CAD7"/>
<path d="M55.4024 69.6568C54.8942 69.4155 54.3862 69.1896 53.8799 68.9769C53.9775 70.4653 49.1259 69.7871 46.7308 69.4746C45.2557 69.2782 43.5925 69.2974 42.0613 69.4746C40.8769 69.612 38.4476 70.2506 38.5375 69.2055C38.0627 70.4955 38.4336 71.9636 40.0003 72.7715C42.5175 71.9182 47.8933 71.1929 55.7866 71.534C56.1277 71.1073 55.4024 69.6568 55.4024 69.6568Z" fill="#6E7C8B"/>
<path d="M43.6127 66.6806C42.5049 66.6806 41.5885 66.8099 40.8888 67.0654C39.5133 67.5677 38.5342 68.7797 38.4519 70.0816C38.3839 71.1599 38.9509 72.0965 40.0086 72.6575C41.2279 72.2504 44.7534 71.3427 51.9131 71.3427C53.1424 71.3427 54.4267 71.3709 55.7309 71.4263C55.8882 71.1154 55.5786 70.2518 55.3248 69.7342C51.2864 67.8219 46.9106 66.6806 43.6127 66.6806ZM39.9913 72.8828L39.9522 72.8626C38.7926 72.2647 38.1702 71.2462 38.2442 70.0687C38.3315 68.6855 39.3656 67.4002 40.8175 66.87C41.5398 66.6062 42.4803 66.4725 43.6127 66.4725C46.9487 66.4725 51.3727 67.6274 55.4466 69.5617L55.4787 69.577L55.495 69.6092C55.5723 69.7638 56.2392 71.1327 55.8673 71.5978L55.8341 71.639L55.7813 71.637C54.4595 71.5799 53.158 71.5507 51.9131 71.5507C44.6999 71.5507 41.2023 72.4724 40.0331 72.8689L39.9913 72.8828Z" fill="#2D3134"/>
<path d="M44.9611 70.6895L44.7677 70.6131C45.4143 68.9689 44.9598 67.2741 43.71 66.6713L43.8002 66.4838C45.1492 67.1345 45.6482 68.9423 44.9611 70.6895Z" fill="#2D3134"/>
<path d="M49.4782 70.9277L49.2947 70.8299C50.0113 69.4822 49.4911 67.8684 48.5469 67.326L48.6504 67.1455C49.7887 67.7994 50.1832 69.6023 49.4782 70.9277Z" fill="#2D3134"/>
<path d="M61.5898 55.8043C60.964 59.1606 54.3082 70.1398 53.0568 70.4809C51.805 70.8223 44.1824 68.888 39.8019 70.2536C35.4218 71.6189 35.4785 77.1367 41.281 76.1695C39.5743 78.3881 41.7929 82.541 48.392 78.2176C54.9907 73.8942 59.7122 75.3335 63.1836 75.2595C66.7542 75.1835 67.8544 72.1003 65.8631 70.4613C63.8721 68.8223 58.8022 69.7413 57.9488 70.1965C60.0536 68.2055 65.2874 63.3702 66.4818 58.933C65.8561 55.6905 61.5898 55.8043 61.5898 55.8043Z" fill="#8D9AAA"/>
<path d="M40.7407 78.0166C41.254 76.3843 46.1056 73.2121 53.1678 72.527C48.3451 71.7928 40.2421 74.8133 40.7407 78.0166Z" fill="#C1CAD7"/>
<path d="M39.6586 71.1155C44.0388 69.7502 52.0778 71.5332 53.306 71.1155C55.799 70.2675 62.0092 59.5129 62.8516 55.9174C62.129 55.7907 61.5895 55.8043 61.5895 55.8043C60.9638 59.1605 54.308 70.1397 53.0565 70.4808C51.8047 70.8222 44.1821 68.8879 39.8016 70.2535C37.742 70.8955 36.6637 72.4556 36.7022 73.8281C36.9825 72.7296 37.9861 71.6367 39.6586 71.1155Z" fill="#C1CAD7"/>
<path d="M52.9626 72.5153C51.1063 71.8706 47.1402 72.2027 44.3271 73.1407C41.8756 73.9578 38.153 75.2896 36.7012 73.8258C36.7426 75.3354 38.1358 76.6177 41.0611 76.202C44.2116 73.074 48.6422 72.6291 52.9626 72.5153Z" fill="#6E7C8B"/>
<path d="M65.8616 70.4615C63.8706 68.8225 58.8007 69.7415 57.9474 70.1967C60.0522 68.2057 65.286 63.3704 66.4804 58.9332C66.1267 57.0998 64.6091 56.3397 63.357 56.0252C63.5793 57.7312 64.2886 60.4577 63.3288 62.0579C61.2187 65.4573 58.2808 68.1317 56.3618 70.8752C57.7685 70.4064 59.8922 71.5049 58.7566 72.7574C57.7881 73.8254 54.122 74.0394 51.7726 74.8463C46.5952 76.6239 46.4562 77.8502 43.7091 78.6315C42.3926 78.9832 41.0137 78.6528 40.7317 77.6939C40.595 79.2957 42.0343 79.9547 42.9052 80.0718C44.1683 80.2416 45.9891 79.7911 48.3905 78.2178C54.9892 73.8944 59.7108 75.3337 63.1822 75.2597C66.7528 75.1837 67.8529 72.1005 65.8616 70.4615Z" fill="#6E7C8B"/>
<path d="M41.5238 76.0229L41.3626 76.2326C40.7913 76.9751 40.6705 77.9599 41.055 78.7409C41.4552 79.5534 42.2972 80.001 43.4262 80.001C44.7686 80.001 46.4657 79.354 48.3339 78.1301C52.5919 75.3401 56.0116 74.9825 58.5152 74.9825C59.3961 74.9825 60.2073 75.0313 60.9919 75.0784C61.7723 75.1255 62.5018 75.1699 63.1806 75.1547C65.2171 75.1115 66.2907 74.0923 66.6165 73.1527C66.9387 72.2237 66.6242 71.2228 65.7961 70.541C64.8807 69.7875 63.3213 69.6292 62.1744 69.6292C60.2424 69.6292 58.4279 70.0579 57.9969 70.2878L57.3151 70.6514L58.0832 69.9252C60.2179 67.909 65.2125 63.1924 66.374 58.9287C65.801 56.0569 62.2281 55.9122 61.6744 55.9072C60.9544 59.3654 54.3617 70.2321 53.083 70.5808C52.661 70.6959 51.5316 70.5622 49.9636 70.3655C48.1803 70.1415 45.9607 69.8628 43.8237 69.8628C42.194 69.8628 40.8885 70.0231 39.8321 70.3522C37.5926 71.0502 36.6271 72.7715 36.8312 74.1112C37.0282 75.4055 38.213 76.1779 40.0003 76.1779C40.3938 76.1779 40.8185 76.1404 41.2631 76.0664L41.5238 76.0229ZM43.4262 80.209C42.2315 80.209 41.2989 79.7073 40.8686 78.8328C40.4834 78.0511 40.5607 77.085 41.055 76.3086C40.6868 76.36 40.3331 76.3862 40.0003 76.3862C37.7638 76.3862 36.7907 75.2273 36.6255 74.1428C36.4081 72.7151 37.4184 70.8863 39.7701 70.1535C40.847 69.818 42.1728 69.6548 43.8237 69.6548C45.9736 69.6548 48.2002 69.9345 49.9895 70.1591C51.1401 70.3034 52.0488 70.4175 52.6142 70.4175C52.7977 70.4175 52.937 70.4049 53.0282 70.3801C54.2187 70.0552 60.8828 59.0223 61.4863 55.7845L61.5019 55.7019L61.6415 55.6989C62.0838 55.6989 65.9802 55.7891 66.583 58.9128L66.5877 58.9364L66.5814 58.9593C65.446 63.1758 60.6316 67.8028 58.3957 69.9162C59.2169 69.6707 60.7049 69.4212 62.1744 69.4212C63.3555 69.4212 64.9653 69.5874 65.9284 70.3804C66.8256 71.1189 67.1646 72.2075 66.813 73.2207C66.4646 74.2267 65.3283 75.3172 63.185 75.363C62.4979 75.377 61.7643 75.3332 60.9793 75.2861C60.198 75.2393 59.3898 75.1905 58.5152 75.1905C56.0405 75.1905 52.66 75.5445 48.448 78.3042C46.546 79.5501 44.8094 80.209 43.4262 80.209Z" fill="#2D3134"/>
<path d="M41.3567 76.2402L41.2041 76.0986C42.9197 74.2462 45.4436 73.2921 47.7444 72.8047C50.6916 72.1803 53.3057 72.5329 53.3057 72.5329C53.2258 72.528 45.203 72.0874 41.3567 76.2402Z" fill="#2D3134"/>
<path d="M43.5667 74.4932L43.3703 74.4248C43.6914 73.5008 43.5916 72.3386 43.1155 71.4647C42.7107 70.7215 42.0677 70.2245 41.2559 70.0271L41.305 69.8247C42.1752 70.0364 42.8647 70.5692 43.2983 71.3652C43.8009 72.2882 43.9064 73.5161 43.5667 74.4932Z" fill="#2D3134"/>
<path d="M48.394 72.8262L48.1975 72.7575C48.2254 72.6772 48.8654 70.7804 47.251 70.02L47.3396 69.8319C49.1245 70.6726 48.4013 72.8046 48.394 72.8262Z" fill="#2D3134"/>
<path d="M46.5618 78.0166C46.5677 78.0037 47.1573 76.7263 46.6643 75.5468C46.359 74.8159 45.7051 74.2692 44.7197 73.9215L44.7891 73.7254C45.8328 74.0937 46.5286 74.6799 46.857 75.4682C47.3849 76.7343 46.5618 78.0166 46.5618 78.0166Z" fill="#2D3134"/>
<path d="M51.8721 75.7031L51.6737 75.6401C51.6771 75.6298 51.9972 74.5913 51.4869 73.7403C51.1595 73.1939 50.5619 72.8369 49.7109 72.679L49.8413 72.5111C50.7547 72.6806 51.3071 73.0343 51.6664 73.6348C52.2245 74.5678 51.8867 75.6573 51.8721 75.7031Z" fill="#2D3134"/>
<path d="M62.3005 72.7578C62.3304 72.6729 62.9402 70.5488 61.0703 69.6593L61.1662 69.4745C63.27 70.5661 62.3005 72.7578 62.3005 72.7578Z" fill="#2D3134"/>
<path d="M28.8213 7.36495C29.5039 2.15969 34.5384 -0.656119 43.5833 0.282481C52.6286 1.22108 65.0012 11.205 72.8518 28.1001C80.702 44.9956 93.2741 58.421 91.3398 60.5825C89.4058 62.7444 86.9026 66.4988 71.0884 63.4268C55.2735 60.3549 48.702 49.0914 45.1612 42.7202C41.6208 36.3488 39.8004 25.9953 29.1057 25.7677C33.0878 22.3547 31.9501 9.10015 28.8213 7.36495Z" fill="#3D4648"/>
<path d="M36.9023 1.59465C42.1211 0.390295 47.4614 1.29572 51.6375 3.06576C48.8101 1.48384 46.0706 0.54026 43.5833 0.282137C34.5384 -0.656464 29.5039 2.15934 28.8213 7.36461C29.0705 7.50263 29.6075 8.9797 29.8299 9.25342C30.8249 4.9549 33.3207 2.33783 36.9023 1.59465Z" fill="#5E6869"/>
<path d="M40.17 17.3913C37.694 16.8136 33.775 16.7858 31.6014 15.4278C31.8658 19.5312 31.1822 23.9877 29.1055 25.7677C36.8214 25.9319 39.9179 31.3671 42.374 36.7744C41.093 31.4288 40.1087 28.4617 38.045 24.2312C36.8728 21.8281 38.8071 19.2373 40.17 17.3913Z" fill="#2E3232"/>
<path d="M72.8519 28.1001C66.4897 14.4079 57.1575 5.25584 49.0332 1.7778C54.7209 4.70143 57.8661 8.54276 60.4062 12.1615C64.6009 18.1381 66.3262 23.7505 69.3739 30.315C71.6011 34.7695 67.3799 39.3928 68.2017 44.7338C68.7488 48.2895 63.0316 48.3084 60.4527 48.5429C59.4782 56.4953 55.3134 55.8036 51.5484 52.2078C55.7182 57.0056 61.813 61.6253 71.0885 63.4268C86.9027 66.4988 89.406 62.7444 91.3399 60.5825C93.2742 58.421 80.7021 44.9956 72.8519 28.1001Z" fill="#2E3232"/>
<path d="M29.3651 25.671C37.7165 25.9789 40.6209 32.5411 43.1865 38.3379C43.8736 39.8897 44.5223 41.3555 45.2522 42.669C48.4134 48.3573 54.9905 60.1935 71.108 63.3241C75.0678 64.0935 78.4751 64.4834 81.2358 64.4834C87.7712 64.4834 89.6481 62.3477 91.019 60.7884C91.1016 60.6941 91.1825 60.6019 91.2625 60.5127C92.1626 59.5067 89.5074 55.5824 85.8326 50.1516C81.9943 44.4791 76.7379 36.7109 72.7572 28.1437C64.4628 10.2921 51.8144 1.24083 43.5727 0.385504C42.4334 0.267391 41.3349 0.207336 40.3087 0.207336C33.6071 0.207336 29.571 2.72885 28.9337 7.30938C30.2284 8.09403 31.2571 10.8226 31.6273 14.4688C32.046 18.5948 31.4997 23.5874 29.3651 25.671ZM81.2358 64.6914C78.4618 64.6914 75.0409 64.3002 71.0685 63.5285C54.8558 60.3793 48.2465 48.4857 45.0704 42.7702C44.3358 41.4484 43.6852 39.9782 42.9964 38.4222C40.4294 32.6234 37.5201 26.0505 29.1035 25.8714L28.8313 25.8657L29.0381 25.6886C31.2742 23.7716 31.8458 18.6827 31.4202 14.4897C31.0567 10.9075 30.0168 8.14645 28.7709 7.45536L28.709 7.42119L28.7182 7.35085C29.3399 2.61007 33.4561 -0.000686638 40.3087 -0.000686638C41.3422 -0.000686638 42.4477 0.059697 43.5943 0.178474C48.2408 0.660879 53.6183 3.48464 58.7356 8.1302C64.3387 13.2164 69.2527 20.1067 72.946 28.0558C76.9197 36.608 82.1708 44.3683 86.0048 50.0348C89.8714 55.7493 92.4257 59.5243 91.4175 60.6513C91.3378 60.7403 91.2575 60.8318 91.1753 60.9257C89.7781 62.5149 87.8654 64.6914 81.2358 64.6914Z" fill="#151514"/>
<path d="M50.6349 9.75892C50.6349 12.9676 48.4309 15.5684 45.712 15.5684C42.9931 15.5684 40.7891 12.9676 40.7891 9.75892C40.7891 6.5503 42.9931 3.94949 45.712 3.94949C48.4309 3.94949 50.6349 6.5503 50.6349 9.75892Z" fill="#100F0D"/>
<path d="M50.5754 9.97192C50.5754 13.0628 48.3976 15.5684 45.7115 15.5684C43.0251 15.5684 40.8477 13.0628 40.8477 9.97192C40.8477 6.88141 43.0251 4.37582 45.7115 4.37582C48.3976 4.37582 50.5754 6.88141 50.5754 9.97192Z" fill="white"/>
<path d="M47.7613 4.89704C48.9839 5.8728 49.7802 7.4597 49.7802 9.25329C49.7802 12.2201 47.6027 14.6254 44.9163 14.6254C43.7916 14.6254 42.7564 14.2024 41.9326 13.4941C42.8244 14.7592 44.1854 15.5684 45.7116 15.5684C48.3976 15.5684 50.5754 13.0628 50.5754 9.97192C50.5754 7.72412 49.4228 5.78687 47.7613 4.89704Z" fill="#C7C8BE"/>
<path d="M45.7122 4.48047C43.0875 4.48047 40.9525 6.94458 40.9525 9.97272C40.9525 13.0012 43.0875 15.465 45.7122 15.465C48.3366 15.465 50.4719 13.0012 50.4719 9.97272C50.4719 6.94458 48.3366 4.48047 45.7122 4.48047ZM45.7122 15.6733C42.9727 15.6733 40.7441 13.116 40.7441 9.97272C40.7441 6.82979 42.9727 4.27244 45.7122 4.27244C48.4513 4.27244 50.6799 6.82979 50.6799 9.97272C50.6799 13.116 48.4513 15.6733 45.7122 15.6733Z" fill="#100F0D"/>
<path d="M42.7032 10.1067C42.6959 12.0559 44.0598 13.6289 45.7492 13.6196C47.4383 13.6106 48.8135 12.0227 48.8205 10.0735C48.8274 8.12434 47.4638 6.55172 45.7744 6.56068C44.0853 6.56997 42.7101 8.15752 42.7032 10.1067Z" fill="#4D1F1A"/>
<path d="M42.7032 10.1067C42.6959 12.0559 44.0598 13.6289 45.7492 13.6196C47.4383 13.6106 48.8135 12.0227 48.8205 10.0735C46.9605 12.7138 44.3959 13.0695 42.7032 10.1067Z" fill="#A53F3E"/>
<path d="M43.7461 10.3689C43.7411 11.6669 44.6495 12.714 45.7743 12.708C46.899 12.702 47.8147 11.6446 47.8194 10.3467C47.824 9.0488 46.9159 8.00171 45.7912 8.00768C44.6665 8.01365 43.7508 9.07103 43.7461 10.3689Z" fill="#100F0D"/>
<path d="M43.9941 8.9702C43.9928 9.33881 44.2506 9.63642 44.5704 9.63476C44.8899 9.6331 45.1501 9.33251 45.1514 8.96391C45.1527 8.59497 44.8946 8.29769 44.5751 8.29935C44.2556 8.30101 43.9955 8.60127 43.9941 8.9702Z" fill="white"/>
<path d="M46.3926 11.8955C46.3919 12.0432 46.4951 12.1623 46.6232 12.1616C46.7512 12.161 46.8554 12.0405 46.8557 11.8929C46.8564 11.7452 46.7532 11.6261 46.6252 11.6268C46.4971 11.6275 46.3929 11.7479 46.3926 11.8955Z" fill="white"/>
<path d="M48.7251 10.0734C48.7181 12.0043 47.4109 13.5232 45.7494 13.5312H45.7355C45.0298 13.5312 44.3483 13.2369 43.8158 12.7027C43.1658 12.0505 42.7952 11.1042 42.7989 10.1059C42.8059 8.22771 44.0769 6.7095 45.693 6.65011C45.7199 6.64911 45.7474 6.64845 45.7746 6.64812H45.7885C46.5705 6.64812 47.3054 6.99947 47.8588 7.63748C48.4205 8.28544 48.7284 9.15039 48.7251 10.0734ZM48.0088 7.52733C47.4189 6.84686 46.6313 6.47228 45.7902 6.47228H45.7746C44.0059 6.48289 42.6147 8.07907 42.6074 10.1066C42.6038 11.147 42.9926 12.1367 43.6751 12.8212C44.2441 13.3925 44.9754 13.707 45.7338 13.707C45.7338 13.707 45.7338 13.707 45.7341 13.707H45.7491C45.7786 13.707 45.8081 13.7064 45.8376 13.7054C47.5569 13.6417 48.9096 12.0461 48.9165 10.0731C48.9199 9.11024 48.5977 8.20615 48.0088 7.52733Z" fill="#201312"/>
<path d="M67.0916 76.1685C61.9291 72.8975 51.5617 74.4336 48.8312 76.7803C46.1003 79.1266 48.7031 81.1674 53.1828 80.5738C56.8947 79.0413 61.3508 77.9747 66.8451 77.7613C67.6463 77.4627 67.0916 76.1685 67.0916 76.1685Z" fill="#8D9AAA"/>
<path d="M48.6161 77.4405C51.1087 75.2985 60.8478 73.5965 66.4535 75.8038C61.1188 73.0222 51.4535 74.5272 48.8311 76.7809C48.1294 77.3838 47.7807 77.966 47.7246 78.4893C47.9051 78.1525 48.1977 77.8002 48.6161 77.4405Z" fill="#C1CAD7"/>
<path d="M67.0921 76.1684C66.4786 75.7799 65.7908 75.4597 65.0516 75.2C64.7729 76.7351 59.3165 76.2145 55.9957 77.3213C54.9407 77.673 52.5864 78.1704 51.0675 78.8827C49.8147 79.2758 48.107 79.4285 47.9163 77.8744C46.9833 79.7128 49.4209 81.0724 53.1833 80.5738C56.8952 79.0413 61.3513 77.9746 66.8455 77.7613C67.6468 77.4627 67.0921 76.1684 67.0921 76.1684Z" fill="#6E7C8B"/>
<path d="M58.9989 74.3995C54.8739 74.3995 50.5323 75.4575 48.8996 76.8606C48.0098 77.625 47.6534 78.4067 47.896 79.0609C48.2367 79.9806 49.7184 80.5748 51.6706 80.5748C52.1454 80.5748 52.645 80.541 53.1566 80.4737C57.2654 78.7793 61.7371 77.8589 66.8246 77.6595C66.9619 77.6044 67.0565 77.5132 67.1136 77.3805C67.2814 76.989 67.0631 76.3795 67.0084 76.2402C64.5871 74.7193 61.3187 74.3995 58.9989 74.3995ZM51.6706 80.7832C49.599 80.7832 48.0781 80.1508 47.7009 79.1333C47.4258 78.3914 47.8034 77.5281 48.7639 76.7027C50.4301 75.271 54.8301 74.1914 58.9989 74.1914C61.3552 74.1914 64.6816 74.5192 67.1481 76.0822L67.1753 76.0995L67.1882 76.129C67.2021 76.1619 67.5296 76.9376 67.305 77.4621C67.2234 77.6522 67.0814 77.7863 66.8823 77.8602L66.8501 77.8669C61.7746 78.0639 57.3175 78.9813 53.2233 80.6714L53.1975 80.6784C52.6722 80.7477 52.1587 80.7832 51.6706 80.7832Z" fill="#2D3134"/>
<path d="M55.0311 79.5L54.8331 79.4363C55.0882 78.6424 55.1061 77.3507 54.5418 76.3912C54.1549 75.7337 53.5497 75.3186 52.7422 75.158L52.783 74.954C53.6509 75.1268 54.3029 75.5747 54.7209 76.2857C55.3178 77.3006 55.3002 78.6633 55.0311 79.5Z" fill="#2D3134"/>
<path d="M60.1112 78.085L59.9085 78.0375C59.9154 78.0073 60.5883 75.0293 58.7383 74.3953L58.806 74.1982C60.8335 74.8936 60.1185 78.0531 60.1112 78.085Z" fill="#2D3134"/>
<path d="M72.2549 61.4646C71.5724 65.4752 66.0261 76.0559 63.978 76.7387C61.93 77.4215 51.2211 77.6773 48.7126 82.2568C46.205 86.834 52.1597 87.4475 54.3783 85.5703C52.5864 89.325 56.6315 92.1422 59.4565 88.5998C61.5321 85.997 62.8546 83.9064 66.4952 82.7117C70.1361 81.5173 72.5654 82.1712 75.014 82.1712C78.0733 82.1712 79.622 79.6401 77.7163 78.0612C75.9267 76.5791 71.231 76.5204 69.0124 77.0801C71.089 74.2072 72.7954 71.1638 74.502 68.9167C76.2087 66.6699 78.7687 64.6218 76.3225 61.4646C73.8763 58.4212 72.2549 61.4646 72.2549 61.4646Z" fill="#8D9AAA"/>
<path d="M54.0323 87.9941C54.5452 86.3618 57.9055 81.0543 65.2451 79.1742C59.6225 79.843 53.467 83.9614 54.0323 87.9941Z" fill="#C1CAD7"/>
<path d="M64.4571 77.2947C66.5048 76.6119 72.237 65.9476 72.9198 61.937C72.9198 61.937 73.8756 59.2616 76.3218 62.305C76.9157 63.0714 77.2136 63.7724 77.3012 64.427C77.42 63.5378 77.1775 62.5694 76.3218 61.4649C73.8756 58.4215 72.2542 61.4649 72.2542 61.4649C71.5718 65.4754 66.0251 76.0565 63.9774 76.739C61.9293 77.4218 51.2205 77.6776 48.7119 82.2571C48.3012 83.0069 48.1187 83.6499 48.1084 84.1934C48.202 83.9283 48.328 83.6463 48.4929 83.3453C51.0015 78.7658 62.409 77.9772 64.4571 77.2947Z" fill="#C1CAD7"/>
<path d="M65.2451 79.173C62.3145 79.0559 59.7794 79.7228 57.0459 81.2486C54.682 82.5681 54.4587 83.6995 52.2202 84.5979C50.833 85.3796 48.4691 85.8205 48.1433 83.8003C47.6466 86.9482 52.4392 87.21 54.3781 85.5694C54.2676 85.8009 54.1817 86.0282 54.1143 86.2512C54.1213 86.2442 54.1282 86.2372 54.1349 86.2306C55.7758 81.4245 61.6307 79.8568 65.2451 79.173Z" fill="#6E7C8B"/>
<path d="M77.7162 78.0615C75.9266 76.5794 71.231 76.5207 69.0124 77.0804C71.089 74.2075 72.7953 71.1641 74.502 68.917C76.2086 66.6702 78.7686 64.6221 76.3224 61.4649C75.5577 60.5137 74.8739 60.1571 74.2949 60.1162C74.9054 61.4304 74.5723 62.8594 74.5321 64.3109C74.4542 67.1463 69.9606 73.68 67.4988 78.0173C68.5538 78.0173 70.3123 77.5572 71.0153 78.378C71.6016 79.081 71.5236 80.5886 70.0385 80.5886C65.6621 81.1523 61.9893 83.1841 58.707 86.9352C57.64 88.2155 54.7602 90.2248 53.9453 87.6336C54.1298 90.1863 57.1865 91.4464 59.4565 88.5997C61.5321 85.9973 62.8546 83.9067 66.4952 82.712C70.1361 81.5176 72.5654 82.1715 75.0139 82.1715C78.0732 82.1715 79.622 79.6401 77.7162 78.0615Z" fill="#6E7C8B"/>
<path d="M54.6812 85.1776L54.4726 85.6146C53.8963 86.8226 53.8963 88.0395 54.4729 88.9539C54.9334 89.6841 55.7194 90.1201 56.5757 90.1201C57.5657 90.1201 58.5601 89.5567 59.3756 88.5342C59.5919 88.2628 59.8002 87.997 60.0036 87.7373C61.774 85.4772 63.1724 83.6922 66.463 82.6123C67.9693 82.1183 69.4155 81.888 71.0147 81.888C71.7625 81.888 72.4645 81.9358 73.1434 81.9816C73.788 82.0254 74.3972 82.0668 75.0143 82.0668C76.8593 82.0668 78.0149 81.1515 78.3417 80.2447C78.6117 79.4952 78.3596 78.7285 77.6502 78.1409C76.6795 77.337 74.6331 76.8569 72.1756 76.8569C70.9964 76.8569 69.8528 76.9747 69.0383 77.1804L68.7609 77.2504L68.9285 77.0185C69.9318 75.6307 70.8418 74.2133 71.7217 72.8424C72.655 71.3889 73.5362 70.0163 74.4194 68.8531C74.6709 68.522 74.9446 68.1906 75.2094 67.8701C76.787 65.9603 78.277 64.1561 76.2405 61.5278C75.5408 60.6575 74.8477 60.2156 74.1812 60.2156C73.1152 60.2156 72.434 61.3589 72.3547 61.4989C71.6636 65.4959 66.1611 76.1201 64.0112 76.8367C63.5254 76.9989 62.5729 77.1353 61.3666 77.3085C57.3786 77.8808 50.7036 78.8386 48.8041 82.3061C48.1525 83.4955 48.038 84.5121 48.4727 85.2463C48.9226 86.0054 49.971 86.4589 51.2772 86.4589C52.4427 86.4589 53.6053 86.0877 54.3116 85.4905L54.6812 85.1776ZM56.5757 90.3281C55.6477 90.3281 54.7957 89.856 54.297 89.065C53.7393 88.1812 53.6833 87.0395 54.1288 85.8859C53.382 86.3796 52.3472 86.667 51.2772 86.667C49.8967 86.667 48.7816 86.1756 48.2938 85.3521C47.8194 84.5515 47.9329 83.4636 48.6216 82.2062C50.5712 78.6475 57.3106 77.6804 61.337 77.1028C62.5328 76.9309 63.4773 76.7956 63.9455 76.6396C65.8393 76.0082 71.4384 65.6428 72.1527 61.4465L72.1636 61.415C72.1942 61.3576 72.9277 60.0072 74.1812 60.0072C74.9137 60.0072 75.6616 60.4754 76.4038 61.3987C78.5434 64.1604 76.93 66.1136 75.3699 68.0028C75.1065 68.3216 74.8341 68.6514 74.5853 68.9792C73.7071 70.1354 72.8275 71.505 71.8969 72.9549C71.0625 74.2541 70.2015 75.5955 69.2586 76.9157C70.0615 76.7455 71.1049 76.6489 72.1756 76.6489C74.6802 76.6489 76.776 77.1466 77.7826 77.9807C78.564 78.6276 78.839 79.4786 78.5374 80.3151C78.1857 81.2905 76.9601 82.2749 75.0143 82.2749C74.3902 82.2749 73.7777 82.2334 73.1291 82.1893C72.4539 82.1435 71.7555 82.096 71.0147 82.096C69.4381 82.096 68.0128 82.323 66.528 82.81C63.2972 83.8704 61.916 85.6335 60.1675 87.8657C59.9638 88.1258 59.7551 88.3922 59.5381 88.6639C58.6825 89.7369 57.6304 90.3281 56.5757 90.3281Z" fill="#2D3134"/>
<path d="M54.4736 85.6123L54.2832 85.528C55.3558 83.11 57.8083 81.5198 60.1192 80.5119C62.7343 79.3709 65.2455 79.1738 65.2455 79.1738C65.1606 79.1871 56.7135 80.5616 54.4736 85.6123Z" fill="#2D3134"/>
<path d="M55.996 82.7266C55.9754 82.5816 55.4502 79.1828 52.3779 79.4303L52.3613 79.2227C54.0733 79.086 55.0179 80.0465 55.5016 80.999C55.9419 81.8656 55.996 82.7266 55.996 82.7266Z" fill="#2D3134"/>
<path d="M60.2323 80.2402C60.2317 80.2177 60.1507 78.008 58.5801 77.7323L58.6159 77.5273C60.3544 77.8325 60.2323 80.2402 60.2323 80.2402Z" fill="#2D3134"/>
<path d="M60.4906 86.2842C60.4872 86.2656 60.1518 84.4196 58.8064 83.5606C58.0739 83.0928 57.1718 82.9976 56.126 83.2776L56.0723 83.0769C57.1774 82.7806 58.1356 82.8848 58.9196 83.3861C60.3426 84.2955 60.4906 86.2842 60.4906 86.2842Z" fill="#2D3134"/>
<path d="M64.2719 83.1396C64.2706 83.0292 64.2092 80.4353 61.5215 80.1805L61.5414 79.9735C64.4172 80.2459 64.2719 83.1396 64.2719 83.1396Z" fill="#2D3134"/>
<path d="M73.6543 80.5879C73.7369 80.5411 75.6622 79.4134 74.3577 76.9529L74.5415 76.8554C75.9426 79.498 73.6543 80.5879 73.6543 80.5879Z" fill="#2D3134"/>
<path d="M63.3757 45.9414C63.3757 45.9414 59.3045 47.9048 59.5971 52.6184C59.9382 58.1166 66.0253 62.8581 71.9983 64.5879C75.1074 65.4884 79.4504 65.1905 78.1422 59.2742C76.8336 53.3579 68.2436 45.8488 68.2436 45.8488L63.3757 45.9414Z" fill="#3D4648"/>
<path d="M60.7772 52.4323C60.5536 48.8345 62.469 46.735 63.3883 45.9423H63.3757C63.3757 45.9423 59.3045 47.9058 59.5971 52.6194C59.8446 56.609 63.1179 60.1998 67.1776 62.5312C63.7251 59.953 60.9965 55.9654 60.7772 52.4323Z" fill="#5E6869"/>
<path d="M78.1425 59.2742C77.4759 56.2606 74.9209 52.835 72.5736 50.1977C72.9478 52.0082 73.8901 53.7763 73.9541 55.5019C74.408 58.0161 74.8366 61.2154 71.8357 61.9656C69.9247 62.4868 67.9851 62.435 66.1865 61.9251C67.9907 63.093 70.0006 64.0093 71.9986 64.5879C75.1077 65.4884 79.4507 65.1905 78.1425 59.2742Z" fill="#2E3232"/>
<path d="M74.4808 65.0723C73.7091 65.0723 72.8594 64.9455 71.9693 64.6877C66.0348 62.9691 59.8435 58.2735 59.4928 52.6246C59.3883 50.9412 59.8338 49.5882 60.4523 48.5427C61.5704 46.6536 63.3756 45.9413 63.3756 45.9413C63.3361 45.9615 59.4158 48.0238 59.7005 52.6117C60.0452 58.1646 66.1625 62.7893 72.027 64.4877C74.2758 65.139 76.2452 64.9399 77.295 63.9555C78.2708 63.0405 78.5216 61.4728 78.0402 59.2963C76.7542 53.4809 68.2607 46.002 68.1751 45.927L68.3121 45.7704C68.3984 45.8457 76.9426 53.3701 78.2435 59.2515C78.7419 61.5047 78.4705 63.1383 77.4373 64.1071C76.7572 64.7451 75.7197 65.0723 74.4808 65.0723Z" fill="#151514"/>
<path d="M87.6422 38.8522C91.5675 42.6637 99.3042 52.5129 95.7771 54.9551C93.3309 54.1548 79.9058 42.7775 87.6422 38.8522Z" fill="#3D4648"/>
<path d="M95.2721 48.7545C95.5412 49.5079 95.7287 50.4625 95.3398 50.7402C94.734 51.0059 93.3664 49.7555 93.0147 49.4038C90.398 46.9652 88.0808 44.9387 85.3135 42.9633C85.989 47.8507 93.9497 54.3569 95.7778 54.9551C97.2963 53.9037 96.7263 51.479 95.2721 48.7545Z" fill="#2E3232"/>
<path d="M87.623 38.9784C86.0139 39.8175 85.2604 41.0544 85.3835 42.6552C85.7534 47.47 93.8206 54.1354 95.7602 54.8388C96.235 54.4914 96.5041 53.9755 96.5595 53.3036C96.8634 49.6292 90.9199 42.1977 87.623 38.9784ZM95.7937 55.0693L95.7446 55.0534C93.8711 54.4406 85.555 47.6023 85.1758 42.6711C85.0444 40.9565 85.8583 39.6403 87.5951 38.7591L87.6612 38.7256L87.7146 38.777C91.0247 41.9913 97.078 49.5572 96.7668 53.3209C96.7044 54.0773 96.3912 54.6556 95.8362 55.0401L95.7937 55.0693Z" fill="#151514"/>
<path d="M84.6275 42.8622C91.2833 48.5794 106.628 62.7443 97.8538 63.4268C89.8327 59.7576 75.5825 45.5074 84.6275 42.8622Z" fill="#3D4648"/>
<path d="M99.1056 57.8479C99.4563 58.6256 99.4507 59.1365 99.1886 59.3283C98.6806 59.6992 97.4497 58.742 96.6753 58.0098C93.769 55.261 92.116 53.2909 89.1854 50.712C86.8574 48.5837 84.4914 46.6066 82.0021 44.823C79.815 49.6367 91.0653 60.3213 97.8541 63.4268C101.25 63.1627 101.033 60.8794 99.1056 57.8479Z" fill="#2E3232"/>
<path d="M84.6023 42.9785C82.871 43.4998 81.9404 44.4878 81.8372 45.9168C81.6713 48.2094 83.6839 51.6857 87.3587 55.4544C90.6207 58.7991 94.7441 61.8843 97.8721 63.3215C99.229 63.211 100.046 62.7608 100.3 61.9835C101.603 57.9985 88.6745 46.4795 84.6023 42.9785ZM97.8346 63.5332L97.81 63.5219C91.4445 60.6102 81.2483 51.1702 81.6295 45.9018C81.741 44.3624 82.7397 43.3063 84.5979 42.7629L84.652 42.7473L84.6948 42.7838C89.8832 47.2406 101.809 58.039 100.498 62.0482C100.214 62.9181 99.3266 63.4171 97.8614 63.5312L97.8346 63.5332Z" fill="#151514"/>
<path d="M85.0258 48.1239C94.526 55.8039 109.942 73.3958 100.613 72.2793C93.2745 68.148 74.1037 52.3906 85.0258 48.1239Z" fill="#3D4648"/>
<path d="M100.85 64.8548C101.221 66.0684 101.24 66.5764 100.599 66.8302C99.3254 67.1235 97.1357 65.0061 95.3006 63.2158C91.0253 59.0447 86.5284 55.1214 81.7429 51.9891C81.4555 58.3533 94.7764 68.9937 100.613 72.2793C104.866 72.7883 103.976 69.4098 100.85 64.8548Z" fill="#2E3232"/>
<path d="M100.646 72.1781C102.129 72.3516 103.027 72.0444 103.302 71.2661C104.592 67.6195 93.1105 54.8072 85.0072 48.2427C83.0278 49.031 81.9661 50.2569 81.8516 51.8872C81.3974 58.3489 95.2707 69.146 100.646 72.1781ZM101.399 72.4336C101.154 72.4336 100.886 72.4163 100.6 72.3825L100.562 72.3696C95.1682 69.3335 81.1828 58.4326 81.6439 51.8726C81.7657 50.1398 82.8908 48.8458 84.9876 48.0267L85.044 48.0048L85.0911 48.0429C93.2419 54.6317 104.819 67.6026 103.499 71.3354C103.241 72.0643 102.534 72.4336 101.399 72.4336Z" fill="#151514"/>
<path d="M82.6946 53.6993C88.2127 58.5914 105.83 72.8061 103.505 75.0565C100.842 77.6344 80.3858 63.0462 78.3828 58.1166C79.7365 55.9746 82.6946 53.6993 82.6946 53.6993Z" fill="#3D4648"/>
<path d="M101.082 70.3798C101.055 70.5274 100.992 70.6535 100.887 70.7547C98.7407 72.832 85.0389 63.7608 78.7521 57.5808C78.62 57.7596 78.4956 57.9384 78.3828 58.1166C80.3858 63.0462 100.842 77.6344 103.505 75.0565C104.202 74.382 103.107 72.6316 101.082 70.3798Z" fill="#2E3232"/>
<path d="M78.4982 58.1265C80.4929 62.8208 97.9258 75.2549 102.54 75.2549C102.944 75.2549 103.244 75.163 103.431 74.9815C103.557 74.8591 103.616 74.6952 103.609 74.4805C103.523 71.6819 92.7255 62.4462 86.2744 56.9281C84.8468 55.7068 83.6093 54.6485 82.6889 53.8339C82.2443 54.185 79.7245 56.2164 78.4982 58.1265ZM102.54 75.4629C99.8624 75.4629 93.7176 71.7241 89.2687 68.5224C84.8541 65.3453 79.3283 60.7236 78.2849 58.1553L78.2646 58.1059L78.2932 58.0605C79.6412 55.9278 82.6 53.6392 82.6295 53.6163L82.6979 53.5639L82.7619 53.6209C83.6876 54.4414 84.949 55.5204 86.4098 56.7698C93.3061 62.6689 103.728 71.5834 103.817 74.4739C103.826 74.7469 103.744 74.9679 103.576 75.1308C103.348 75.3514 102.999 75.4629 102.54 75.4629Z" fill="#151514"/>
<path d="M67.2207 13.7648C76.7208 15.569 87.0172 34.3294 88.8091 37.5722C90.6011 40.8147 91.4544 45.451 87.131 43.9719C89.7583 47.4645 90.5158 52.2063 87.7853 51.9502C90.4733 56.1312 88.8519 59.7151 85.2674 58.1169C86.1639 60.9098 84.5853 63.427 80.3617 61.2084C75.8346 58.8306 58.4604 38.9358 56.4123 29.5608C54.0799 18.8848 61.1269 12.6076 67.2207 13.7648Z" fill="#3D4648"/>
<path d="M57.7773 30.5693C55.2833 19.9298 62.3229 13.6993 69.0816 15.3181C71.4283 15.8801 73.8061 17.409 76.0808 19.4368C73.2391 16.5503 70.1911 14.3284 67.2207 13.7644C61.1269 12.6071 54.0799 18.8844 56.4123 29.5603C58.3705 38.5246 74.34 57.1049 79.6935 60.7949C73.4982 55.7851 60.1531 40.7048 57.7773 30.5693Z" fill="#5E6869"/>
<path d="M75.0986 49.2716C76.1583 50.6976 78.1616 51.039 79.1526 49.9743C80.1436 48.91 80.1327 46.6702 79.294 45.1755C82.4883 46.8974 84.3347 45.2906 83.4555 41.3637C84.1154 41.3514 87.6242 40.874 85.181 36.6495C86.1618 39.7894 83.9883 41.16 81.9316 38.7257C84.2322 43.4738 80.8228 46.3165 78.0236 42.7469C80.0013 47.8012 78.0491 51.1913 75.0986 49.2716Z" fill="#2E3232"/>
<path d="M88.8077 37.5722C87.7636 35.6824 83.8303 28.5227 78.85 22.5198C83.3377 28.5585 89.3014 39.537 88.5001 41.7838C87.8751 42.747 86.9567 42.4872 84.7882 41.0609C86.5466 43.9812 88.1876 46.7267 87.6601 48.0163C86.7517 49.5401 84.2444 46.6321 83.0719 45.3428C85.4033 48.5485 87.102 52.4764 85.9823 53.5646C84.8857 54.3854 81.9774 50.8016 79.9771 48.9433C80.6804 50.2329 82.7368 56.2076 80.9784 56.8864C76.6019 58.9182 64.8656 44.3342 64.0879 43.6096C70.0217 51.7521 77.5923 59.7546 80.3603 61.2084C84.5838 63.427 86.1624 60.9098 85.266 58.1169C88.8505 59.7151 90.4719 56.1312 87.7838 51.9502C90.5144 52.2063 89.7569 47.4645 87.1295 43.9719C91.4529 45.451 90.5996 40.8147 88.8077 37.5722Z" fill="#2E3232"/>
<path d="M65.7606 13.7328C63.1174 13.7328 60.5517 15.037 58.7213 17.3103C56.2459 20.3849 55.4616 24.7279 56.5127 29.539C57.4008 33.6046 61.419 40.3129 67.5373 47.9441C72.5999 54.2588 78.1337 59.9219 80.4087 61.117C81.4664 61.6724 82.4023 61.9541 83.1903 61.9541C83.96 61.9541 84.5692 61.6764 84.9527 61.1509C85.4646 60.4485 85.5449 59.3264 85.167 58.1493L85.096 57.9276L85.3087 58.0225C85.8734 58.2743 86.4029 58.4021 86.8823 58.4017C87.6786 58.4017 88.3169 58.0361 88.6792 57.3722C89.3779 56.0926 89.0014 54.0365 87.6965 52.007L87.581 51.8272L87.794 51.8471C87.8614 51.8534 87.9267 51.8567 87.9898 51.8567C87.9901 51.8567 87.9901 51.8567 87.9901 51.8567C88.5375 51.8564 88.932 51.6215 89.1633 51.1584C89.8763 49.7297 88.9267 46.534 87.0469 44.0351L86.8432 43.7643L87.1637 43.8738C88.5326 44.3423 89.4672 44.2136 89.8929 43.4923C90.6261 42.2485 89.7973 39.578 88.717 37.6228L88.6729 37.5428C84.1554 29.3658 75.3587 15.4169 67.2002 13.8675C66.7294 13.7782 66.245 13.7328 65.7606 13.7328ZM83.1903 62.1621C82.3681 62.1621 81.3997 61.8725 80.3121 61.3011C75.8613 58.9634 58.4065 39.1835 56.3093 29.5835C55.2446 24.7093 56.0435 20.3043 58.5591 17.18C60.4293 14.8572 63.054 13.5248 65.7606 13.5248C66.258 13.5248 66.7553 13.5712 67.2391 13.6631C75.4811 15.2284 84.32 29.2335 88.8551 37.4423L88.8992 37.5223C90.0073 39.5275 90.8471 42.284 90.072 43.5978C89.6264 44.3536 88.722 44.553 87.4022 44.1678C89.1978 46.6833 90.0694 49.809 89.3494 51.2513C89.084 51.7834 88.6142 52.0648 87.9901 52.0648C87.9871 52.0648 87.9828 52.0648 87.9788 52.0648C89.2373 54.1032 89.577 56.1619 88.862 57.4718C88.4612 58.2057 87.7582 58.6098 86.8823 58.6101C86.4331 58.6101 85.945 58.5056 85.4294 58.2992C85.7576 59.4754 85.6484 60.5497 85.1206 61.2736C84.6966 61.8549 84.0294 62.1621 83.1903 62.1621Z" fill="#151514"/>
<path d="M87.2095 44.2231C86.1322 42.8363 84.6071 41.0998 84.5918 41.0825L84.7481 40.9452C84.7637 40.9624 86.2925 42.7036 87.3741 44.0954L87.2095 44.2231Z" fill="#151514"/>
<path d="M87.7818 52.1406C85.9311 49.0355 82.5321 44.7615 82.9226 45.3614L83.0855 45.2317C82.695 44.6318 86.1026 48.9167 87.9606 52.0341L87.7818 52.1406Z" fill="#151514"/>
<path d="M85.1667 58.1465C84.2132 54.9803 79.6685 48.8733 79.623 48.8126L79.7896 48.6875C79.8354 48.7485 84.402 54.8861 85.3658 58.0868L85.1667 58.1465Z" fill="#151514"/>
<path d="M77.6739 50.7402C76.3269 50.7402 75.0986 49.2721 75.0986 49.2721C76.4364 50.5233 77.8086 50.8666 78.7688 50.1918C79.7233 49.5203 80.2787 47.7011 79.2412 45.2934L79.1301 45.035L79.3825 45.1587C80.9111 45.9079 82.1114 45.9447 82.8533 45.2659C83.771 44.4265 83.8191 42.6229 83.3357 41.3642L83.2846 41.2315L83.4266 41.2232C84.6296 41.1522 85.4156 40.756 85.7626 40.046C86.3134 38.9196 85.6087 37.2717 85.181 36.6499C85.181 36.6499 86.7102 38.4827 85.9498 40.1376C85.5812 40.8914 84.7836 41.323 83.5779 41.4209C84.0291 42.7192 83.9803 44.5171 82.9936 45.4195C82.4518 45.9155 81.4164 46.3103 79.5348 45.4603C80.3417 47.5276 80.0886 49.518 78.8882 50.3617C78.5272 50.6158 78.1158 50.7402 77.6739 50.7402Z" fill="#151514"/>
<path d="M83.4014 41.5493C82.8012 39.9107 81.6503 38.3098 81.6387 38.2939C81.6387 38.2939 82.9864 39.8115 83.5968 41.4777L83.4014 41.5493Z" fill="#151514"/>
<path d="M79.3891 45.6602C78.6937 44.0325 77.7342 42.3188 77.7246 42.3016C77.7246 42.3016 78.8809 43.9405 79.5806 45.5785L79.3891 45.6602Z" fill="#151514"/>
<path d="M30.3576 15.4714C24.2138 17.4342 12.4809 28.783 13.0356 29.5511C13.2607 29.8626 16.2743 28.4287 22.8059 27.1616C27.755 26.2018 31.8535 26.4768 32.4515 26.2263C34.4963 25.3697 36.544 19.4391 38.9474 17.5762C37.4683 17.0643 30.3576 15.4714 30.3576 15.4714Z" fill="#8D9AAA"/>
<path d="M30.8438 15.5809C30.0833 19.3542 29.7246 23.5549 25.5316 24.6882C21.1007 25.9662 17.0418 27.6789 13.0391 29.5538C13.2864 29.85 16.301 28.4231 22.8055 27.1613C27.7546 26.2015 31.8531 26.4765 32.4511 26.226C34.4959 25.3694 36.5436 19.4388 38.947 17.5759C37.7028 17.1453 32.4724 15.9495 30.8438 15.5809Z" fill="#6E7C8B"/>
<path d="M13.1226 29.4871C13.1296 29.4871 13.146 29.4897 13.1736 29.4897H13.1737C13.4064 29.4897 13.9745 29.3175 14.8345 29.0568C16.3944 28.584 19.005 27.7927 22.7858 27.0595C26.0046 26.4351 28.9043 26.3302 30.6368 26.2678C31.555 26.2347 32.2184 26.2108 32.411 26.1301C33.4425 25.6978 34.4926 23.9039 35.6044 22.0045C36.5971 20.3084 37.6223 18.557 38.7334 17.6154C37.0138 17.0759 30.8302 15.6841 30.3621 15.5789C24.6169 17.4342 14.1661 27.3309 13.1861 29.2877C13.1218 29.4161 13.1191 29.4708 13.1206 29.4874C13.1211 29.4871 13.1218 29.4871 13.1226 29.4871ZM13.1737 29.6978C13.1736 29.6978 13.1736 29.6978 13.1736 29.6978C13.134 29.6978 13.0133 29.6978 12.9509 29.6115C12.9037 29.5461 12.8997 29.4576 12.9383 29.3401C13.463 27.7466 24.2883 17.3005 30.3255 15.3722L30.3525 15.3636L30.38 15.3696C30.6706 15.4346 37.5135 16.9694 38.9812 17.4777L39.1627 17.5404L39.0108 17.6582C37.8738 18.5397 36.8114 20.3546 35.7839 22.1097C34.6542 24.0399 33.5872 25.8631 32.4915 26.3219C32.2639 26.4171 31.6542 26.4394 30.6443 26.4759C28.9179 26.5379 26.0283 26.6424 22.8254 27.2635C19.0551 27.9947 16.4509 28.7844 14.8949 29.2558C13.9859 29.5315 13.4373 29.6978 13.1737 29.6978Z" fill="#2D3134"/>
<path d="M13.0356 29.5509C13.0384 29.5549 13.0438 29.5572 13.0475 29.5605C18.6136 24.7557 30.9718 19.2117 38.6047 17.4672C36.6021 16.87 30.3576 15.4713 30.3576 15.4713C24.2138 17.4341 12.4809 28.7829 13.0356 29.5509Z" fill="#751D22"/>
<path d="M24.8127 18.7649C22.699 20.2808 21.6502 22.3896 21.2852 24.231C26.2617 21.6063 32.0325 19.2622 36.6439 17.969C32.1633 15.975 27.9187 16.537 24.8127 18.7649Z" fill="#F3B5C1"/>
<path d="M36.6443 17.969C33.6111 16.6193 30.687 16.4418 28.1503 17.1581C27.6612 19.6916 25.3661 21.586 23.0703 22.4606C22.6224 22.6398 22.1486 22.7884 21.66 22.9062C21.495 23.3551 21.3705 23.8003 21.2852 24.231C26.2617 21.6063 32.0325 19.2622 36.6443 17.969Z" fill="#DC879B"/>
<path d="M31.1787 16.847C28.8797 16.847 26.6993 17.5394 24.8733 18.8493C22.5563 20.5111 21.7278 22.7311 21.4328 24.0356C26.2502 21.5121 31.781 19.2534 36.3353 17.9482C34.6091 17.2173 32.8755 16.847 31.1787 16.847ZM21.1406 24.4248L21.1831 24.2108C21.4393 22.9172 22.2438 20.479 24.752 18.6801C26.6136 17.3447 28.8359 16.639 31.1787 16.639C32.9922 16.639 34.8453 17.0544 36.6863 17.8738L36.9501 17.991L36.6721 18.0689C32.0175 19.3741 26.2835 21.7119 21.3337 24.3229L21.1406 24.4248Z" fill="#B74658"/>
<path d="M30.3621 15.5789C24.6169 17.4342 14.1661 27.3308 13.1861 29.2876C13.1808 29.2979 13.1759 29.3082 13.1714 29.3178C18.808 24.5658 30.8095 19.2338 38.1919 17.4571C35.9856 16.8443 30.7895 15.6748 30.3621 15.5789ZM13.045 29.6997L12.951 29.6115C12.9037 29.5461 12.8997 29.4575 12.9383 29.3401C13.4629 27.7465 24.2883 17.3005 30.3255 15.3722L30.3524 15.3636L30.38 15.3695C30.4425 15.3835 36.6508 16.776 38.6342 17.3675L39.0131 17.4807L38.6276 17.5686C31.2256 19.2603 18.7423 24.7818 13.1151 29.6393L13.045 29.6997Z" fill="#2D3134"/>
<path d="M29.7307 4.57385C16.0914 1.60577 0.550563 12.1689 0.107573 15.4711C-0.0630852 16.7431 5.14414 14.6722 16.7612 15.4711C26.6879 16.1539 34.8797 20.463 40.1702 17.3911C36.4155 16.481 34.7304 13.8909 33.3721 11.8305C31.7224 9.32724 31.3811 4.93284 29.7307 4.57385Z" fill="#8D9AAA"/>
<path d="M30.8264 5.61875C30.5219 5.05771 30.1743 4.67019 29.7323 4.57431C16.0931 1.60622 0.552215 12.1694 0.109225 15.4716C0.104326 15.5081 0.104404 15.5416 0.108383 15.5728C2.53382 11.6548 18.3425 2.48245 30.8264 5.61875Z" fill="#C1CAD7"/>
<path d="M33.3721 11.8305C32.7112 10.8275 32.2603 9.52133 31.851 8.2921C32.0961 13.1122 27.9553 13.6689 25.9625 13.786C20.8046 14.0206 16.0081 13.4373 10.644 13.8447C3.69838 14.3723 0.943578 15.4711 0.190583 15.148C0.14924 15.2621 0.12113 15.3702 0.107573 15.4711C-0.0630852 16.7431 5.14414 14.6722 16.7612 15.4711C26.688 16.1539 34.8797 20.463 40.1702 17.3911C36.4155 16.481 34.7304 13.8909 33.3721 11.8305Z" fill="#6E7C8B"/>
<path d="M11.3665 15.1784C13.1237 15.1784 14.9414 15.2424 16.7688 15.3678C20.4758 15.6229 23.9943 16.394 27.0987 17.0745C30.1625 17.746 33.0563 18.3804 35.5255 18.3804C37.256 18.3804 38.6877 18.0685 39.8917 17.4278C36.2995 16.4617 34.6469 13.9541 33.3132 11.9299L33.2856 11.8881C32.5816 10.8198 32.1062 9.3895 31.6869 8.12741C31.1061 6.37994 30.6046 4.87068 29.709 4.67592C28.131 4.33253 26.4561 4.15835 24.7307 4.15835C12.3396 4.15835 0.572526 12.7925 0.211223 15.4856C0.198833 15.5778 0.225751 15.6206 0.247084 15.6452C0.333553 15.744 0.573548 15.7921 0.980689 15.7921C1.48252 15.7921 2.22667 15.7192 3.16865 15.6266C4.98729 15.4481 7.73564 15.1784 11.3665 15.1784ZM35.5255 18.5884C33.0338 18.5884 30.1293 17.9517 27.0542 17.2779C23.9569 16.5987 20.4462 15.8293 16.7545 15.5755C14.9318 15.4501 13.119 15.3867 11.3665 15.3867C7.74579 15.3867 5.00355 15.6558 3.18897 15.8336C2.24129 15.9269 1.49277 16.0002 0.980689 16.0002C0.490434 16.0002 0.224118 15.9348 0.090409 15.7822C0.0162385 15.6973 -0.01252 15.5881 0.00496318 15.4581C0.425402 12.3241 12.8221 3.95033 24.7307 3.95033C26.4709 3.95033 28.1608 4.12584 29.7534 4.47255C30.7647 4.69285 31.2835 6.25386 31.8843 8.06172C32.2997 9.31153 32.7704 10.7282 33.4595 11.7737L33.487 11.8151C34.8321 13.8562 36.5055 16.396 40.1953 17.2905L40.4471 17.3515L40.2228 17.4816C38.9405 18.2264 37.4037 18.5884 35.5255 18.5884Z" fill="#2D3134"/>
<path d="M28.6042 7.94581C28.5505 8.45144 27.4368 8.74705 26.1169 8.60671C24.797 8.46637 23.7705 7.94282 23.8243 7.43719C23.8781 6.93189 24.9917 6.63595 26.3117 6.77662C27.6316 6.91697 28.658 7.44051 28.6042 7.94581Z" fill="#4B596B"/>
<path d="M26.3107 6.77665C25.3781 6.67712 24.5506 6.79656 24.125 7.05302C24.1455 7.5414 25.1427 8.03342 26.4163 8.16879C27.3488 8.26799 28.1763 8.14889 28.6019 7.89242C28.5814 7.40404 27.5842 6.91201 26.3107 6.77665Z" fill="#2C3845"/>
<path d="M25.2274 6.86363C24.48 6.92833 23.9575 7.16323 23.9272 7.44822C23.8864 7.83209 24.7799 8.35962 26.1274 8.50295C26.5016 8.54276 26.8626 8.54807 27.2 8.51887C27.9474 8.45417 28.4699 8.21961 28.5002 7.93461C28.521 7.73886 28.3115 7.51392 27.9253 7.31684C27.5033 7.10152 26.9262 6.94624 26.3 6.87956C25.9257 6.83974 25.5649 6.83444 25.2274 6.86363ZM27.218 8.72623C26.8672 8.75675 26.4929 8.75112 26.1053 8.70998C24.7072 8.56101 23.6596 7.99732 23.7203 7.426C23.7634 7.02123 24.3202 6.73358 25.2094 6.65627C25.5602 6.62608 25.9345 6.63139 26.3221 6.67286C26.9728 6.74187 27.5758 6.90477 28.0199 7.13138C28.4939 7.37324 28.7381 7.66621 28.7071 7.95684C28.6641 8.36161 28.1074 8.64926 27.218 8.72623Z" fill="#2D3134"/>
</svg>
