<svg width="93" height="150" viewBox="0 0 93 150" fill="none" xmlns="http://www.w3.org/2000/svg">
<g clip-path="url(#clip0_365_655)">
<path d="M32.4649 127.504C58.0505 125.449 91.5321 128.868 92.9297 136.307C94.5711 145.044 66.9354 145.829 66.9354 145.829C63.5767 152.197 6.73845 151.94 14.2189 140.372C0.545818 139.305 6.03439 129.627 32.4649 127.504Z" fill="#86CA26"/>
<path d="M80.1735 134.588C69.8933 126.971 11.2183 129.43 19.5738 138.809C27.9298 148.187 93.0285 144.112 80.1735 134.588Z" fill="#70AD2D"/>
<path d="M76.686 129.225C78.1109 129.792 80.1101 127.717 80.1101 127.717C78.3566 126.677 76.5273 127.228 76.3091 128.855C76.651 126.029 74.4696 124.942 73.4514 124.787C72.4781 126.778 74.2005 128.922 75.8604 128.993" fill="#86CA26"/>
<path d="M37.4996 127.512C36.0034 127.851 34.3511 125.492 34.3511 125.492C36.2451 124.735 37.9666 125.563 37.9292 127.203C38.0306 124.36 40.3547 123.622 41.385 123.626C42.0369 125.744 40.0019 127.596 38.3511 127.409" fill="#86CA26"/>
<path d="M32.4788 143.397C36.5423 142.84 33.3687 136.955 31.4772 142.943C30.1034 137.274 25.7895 139.759 29.1305 142.943" fill="#86CA26"/>
<path d="M33.2099 149.014C26.3111 145.039 32.3246 141.873 32.9134 147.753C31.8765 141.04 37.8049 142.552 34.2898 147.824C38.8669 145.701 37.9468 150.137 33.8033 149.114" fill="#A2D728"/>
<path d="M65.2718 23.8232C65.3801 19.2901 70.9941 14.3245 74.6277 16.2137C78.2614 18.1024 74.3104 23.6613 71.6042 24.5253C76.651 24.3093 74.148 31.5414 67.7615 27.6803" fill="#AFDB2E"/>
<path d="M66.7722 21.0713C70.2877 17.1131 74.8707 16.892 75.0505 19.8479C76.6742 15.0625 70.1484 15.0983 66.7722 21.0713Z" fill="#F36379"/>
<path d="M66.7718 24.6726C65.4717 23.6928 71.0205 17.3884 73.3543 19.0923C75.6882 20.7961 69.5623 26.7753 66.7718 24.6726Z" fill="#F36379"/>
<path d="M64.9339 23.3389C62.3681 17.2648 58.1416 15.4287 57.4898 18.0614C56.6076 21.6233 60.3126 24.6037 62.6962 24.7191C59.8141 25.1909 63.1487 30.8677 66.1709 27.5631" fill="#95D221"/>
<path d="M63.3262 21.0713C60.1485 16.142 57.226 16.6919 57.695 19.9607C58.3445 17.6528 61.236 19.1999 63.3262 21.0713Z" fill="#F14357"/>
<path d="M64.43 24.1777C64.8121 23.7687 60.3507 18.0857 59.2201 20.2849C58.1534 22.3594 62.9278 25.7866 64.43 24.1777Z" fill="#F14357"/>
<path d="M65.7852 24.3887C65.3127 25.8367 61.7634 25.2878 62.6956 26.8355C63.4691 28.1196 65.5763 27.8761 65.7852 24.3887Z" fill="#F14357"/>
<path d="M64.691 23.2205C66.5535 23.9506 69.1993 29.1843 68.1636 29.2782C66.5944 29.4207 63.8109 26.1401 64.3867 23.2639" fill="#EAA81B"/>
<path d="M65.2596 20.839C63.2617 19.826 59.9386 22.7078 63.3748 24.6879C66.5529 26.5184 67.9643 22.2095 65.2596 20.839Z" fill="#FBD039"/>
<path d="M64.8896 20.9269C63.6473 20.2182 61.0954 22.3061 63.0257 23.7184C64.9561 25.1302 66.9794 22.1197 64.8896 20.9269Z" fill="#F9F151"/>
<path d="M63.2102 22.6904C62.9799 22.6965 62.4422 23.2888 62.9784 23.4685C63.5704 23.6677 63.5422 22.6827 63.2102 22.6904Z" fill="#482014"/>
<path d="M65.0599 23.1993C64.8815 23.254 64.3325 23.8861 64.9745 23.9836C65.6159 24.0796 65.3912 23.1013 65.0599 23.1993Z" fill="#482014"/>
<path d="M64.0585 24.7349C63.8573 24.7619 63.6524 24.7201 63.4881 24.6476C63.1615 24.5046 62.9558 24.2427 62.9636 23.9792C62.965 23.9317 63.0054 23.8934 63.0517 23.896C63.0997 23.8975 63.1372 23.9368 63.1353 23.9848C63.1297 24.1747 63.2993 24.3775 63.557 24.4903C63.8033 24.5985 64.1536 24.6282 64.3987 24.3892C64.4323 24.356 64.4871 24.356 64.5207 24.3907C64.5537 24.4244 64.5528 24.4786 64.5192 24.5118C64.382 24.645 64.2211 24.7129 64.0585 24.7349Z" fill="#D8303D"/>
<path d="M63.1356 23.1602C63.0193 23.1761 62.9169 23.3247 63.075 23.3497C63.2329 23.3742 63.2012 23.1521 63.1356 23.1602Z" fill="white"/>
<path d="M64.9542 23.6807C64.8382 23.6965 64.7361 23.8446 64.8938 23.8696C65.052 23.8946 65.0205 23.672 64.9542 23.6807Z" fill="white"/>
<path d="M64.3786 21.7002C64.4661 21.7002 64.5485 21.6471 64.5812 21.5603C64.7628 21.0793 64.9038 20.1817 64.8099 19.259C64.7331 18.5049 64.4743 17.4831 63.6775 16.9016C63.1803 16.5385 62.6403 16.4977 62.1964 16.7892C61.7576 17.0772 61.5191 17.6338 61.6293 18.1122C61.7233 18.5212 62.0099 18.8081 62.3959 18.8786C62.7213 18.9378 63.0523 18.825 63.2005 18.6034C63.3193 18.4257 63.3114 18.2072 63.1789 18.004C63.1138 17.9039 62.9797 17.8753 62.8794 17.9401C62.7792 18.005 62.7507 18.1388 62.8158 18.2388C62.8691 18.3205 62.8481 18.3522 62.8402 18.3639C62.7952 18.4313 62.6424 18.4849 62.474 18.4538C62.3485 18.4308 62.1267 18.3435 62.0512 18.0157C61.9812 17.7114 62.146 17.3392 62.4344 17.1497C62.7231 16.9603 63.0737 16.996 63.4217 17.2503C64.6006 18.1107 64.5384 20.4482 64.176 21.4081C64.1339 21.5199 64.1904 21.644 64.3023 21.6864C64.3275 21.6956 64.3532 21.7002 64.3786 21.7002Z" fill="#744428"/>
<path d="M64.9783 21.9097C65.0645 21.9097 65.1459 21.8581 65.1796 21.7733C65.5407 20.8634 66.988 19.2474 68.4674 19.4031C68.8967 19.4486 69.1804 19.6574 69.2663 19.9913C69.3521 20.3248 69.2232 20.7103 68.9666 20.8885C68.6894 21.081 68.4661 20.9972 68.3576 20.9298C68.2123 20.84 68.1352 20.698 68.1472 20.6178C68.1493 20.6041 68.155 20.5668 68.2496 20.5418C68.3652 20.5111 68.4342 20.3932 68.4037 20.2778C68.3732 20.1624 68.255 20.094 68.1391 20.1241C67.9039 20.1859 67.7508 20.3426 67.719 20.554C67.6795 20.8175 67.8481 21.1228 68.1293 21.2969C68.4627 21.5032 68.8682 21.4828 69.214 21.2428C69.6177 20.963 69.8162 20.3916 69.6858 19.8841C69.5536 19.3704 69.1261 19.0386 68.5129 18.9742C66.7951 18.7925 65.1918 20.5693 64.777 21.6145C64.733 21.7253 64.7875 21.8504 64.8986 21.8943C64.9248 21.9051 64.9517 21.9097 64.9783 21.9097Z" fill="#744428"/>
<path d="M65.7479 26.4681C66.5383 25.911 68.206 28.6453 67.5658 28.8168C66.9254 28.9884 65.0332 26.9715 65.7479 26.4681Z" fill="#FBD039"/>
<path d="M67.1918 25.426C68.5914 26.6116 72.5619 24.4952 72.8851 26.6116C73.1435 28.3032 69.2125 28.6132 67.1918 25.426Z" fill="#F36379"/>
<path d="M47.1737 37.2175C43.9157 34.7284 43.2688 28.0053 46.5822 26.3673C49.8956 24.7288 51.8607 30.5578 51.0537 32.9852C53.5789 29.2001 57.5376 34.8652 51.318 37.4575" fill="#DD4EAF"/>
<path d="M48.5914 36.5776C47.1836 37.0019 45.523 29.6151 48.0102 28.8237C50.497 28.0322 51.6131 35.6662 48.5914 36.5776Z" fill="#FBD039"/>
<path d="M46.639 37.2052C40.8325 35.8419 37.2425 37.9395 38.8217 39.8129C40.9579 42.3485 45.1072 41.239 46.4587 39.5662C45.2716 41.9135 51.1963 42.5063 50.3865 38.5517" fill="#CC33A1"/>
<path d="M46.9847 38.0175C46.8885 37.5223 40.3605 37.7454 41.3677 39.7367C42.3177 41.6157 47.3627 39.9655 46.9847 38.0175Z" fill="#EAA81B"/>
<path d="M47.8594 37.144C48.6671 38.2576 46.3787 40.5471 48.0061 40.6921C49.3564 40.8121 50.2988 39.1501 47.8594 37.144Z" fill="#EAA81B"/>
<path d="M46.4233 37.3192C47.9476 36.3532 53.1821 37.2115 52.7002 38.0147C51.97 39.2319 48.0909 39.5117 46.2932 37.5638" fill="#7AAE2B"/>
<path d="M40.9238 38.0366C41.2966 38.0366 41.6033 37.8482 41.7462 37.5301C41.868 37.258 41.8392 36.9444 41.676 36.7678C41.5449 36.6258 41.3514 36.586 41.144 36.658C41.0421 36.6937 40.9883 36.8051 41.0242 36.9067C41.06 37.0083 41.1712 37.0614 41.273 37.0262C41.357 36.997 41.3796 37.0221 41.3883 37.0313C41.4379 37.0854 41.4523 37.2304 41.3893 37.3708C41.3422 37.476 41.2188 37.6486 40.9136 37.647C40.6309 37.643 40.3386 37.4198 40.2341 37.1272C40.1286 36.8342 40.2351 36.5355 40.5331 36.2853C41.5419 35.4377 43.5839 35.9917 44.3504 36.514C44.4396 36.5748 44.561 36.5518 44.622 36.463C44.6828 36.3741 44.6599 36.2526 44.5708 36.1918C44.1869 35.9304 43.4274 35.6154 42.5961 35.5005C41.9163 35.406 40.9627 35.4147 40.2812 35.9871C39.8557 36.3445 39.7041 36.8076 39.866 37.2585C40.0257 37.7032 40.464 38.0305 40.9085 38.0366C40.9136 38.0366 40.9187 38.0366 40.9238 38.0366Z" fill="#744428"/>
<path d="M44.7729 36.0674C44.834 36.0674 44.8945 36.0388 44.9325 35.9847C44.9948 35.8968 44.9739 35.7753 44.8859 35.713C44.1629 35.2034 43.0511 33.5925 43.5041 32.3323C43.6355 31.9668 43.8797 31.763 44.1919 31.7595C44.1948 31.7595 44.1978 31.7595 44.2008 31.7595C44.5094 31.7595 44.816 31.953 44.9167 32.2129C45.0268 32.4962 44.9053 32.6739 44.823 32.7541C44.7129 32.8623 44.5716 32.8991 44.5037 32.8715C44.4918 32.8669 44.4603 32.8542 44.4585 32.7658C44.4564 32.6581 44.3679 32.5733 44.2593 32.5749C44.1514 32.5769 44.0657 32.6658 44.0678 32.7735C44.0721 32.9926 44.177 33.1595 44.356 33.2325C44.5791 33.3234 44.8839 33.2412 45.0968 33.0324C45.3495 32.7847 45.4185 32.4258 45.2812 32.0724C45.1212 31.6594 44.66 31.3627 44.187 31.3699C43.7069 31.3755 43.3239 31.6788 43.1362 32.2006C42.6101 33.6645 43.8296 35.4455 44.6602 36.0316C44.6945 36.0556 44.7338 36.0674 44.7729 36.0674Z" fill="#744428"/>
<path d="M44.3386 36.0695C43.2931 37.7147 45.7396 40.668 47.5472 37.9914C49.334 35.346 45.5857 34.1078 44.3386 36.0695Z" fill="#8DC525"/>
<path d="M44.4901 36.1589C43.632 37.0612 44.8784 39.6463 46.4757 38.308C48.0723 36.9687 45.9334 34.6404 44.4901 36.1589Z" fill="#AFDB35"/>
<path d="M45.2195 37.6546C45.1754 37.8578 45.5816 38.4542 45.8537 38.0237C46.1555 37.5484 45.2837 37.363 45.2195 37.6546Z" fill="#482014"/>
<path d="M46.062 36.1464C46.0714 36.3144 46.5106 36.9292 46.7336 36.3884C46.9548 35.8482 46.0462 35.8355 46.062 36.1464Z" fill="#482014"/>
<path d="M47.1983 37.3497C47.179 37.5315 47.0982 37.7015 46.9997 37.8297C46.8044 38.0855 46.5301 38.2091 46.2997 38.1457C46.2583 38.1345 46.2334 38.0911 46.2454 38.0513C46.2572 38.0094 46.2998 37.9849 46.3412 37.9972C46.5073 38.0421 46.7218 37.9374 46.876 37.7362C47.0237 37.5438 47.1248 37.244 46.9667 36.9785C46.945 36.9423 46.9566 36.8943 46.9939 36.8723C47.0307 36.8504 47.0784 36.8626 47.1003 36.8994C47.188 37.048 47.2134 37.2032 47.1983 37.3497Z" fill="#D8303D"/>
<path d="M45.6161 37.8204C45.605 37.9251 45.714 38.0461 45.7697 37.9133C45.8251 37.7806 45.6226 37.7612 45.6161 37.8204Z" fill="white"/>
<path d="M46.4629 36.3414C46.452 36.4461 46.5603 36.5671 46.616 36.4343C46.6719 36.3016 46.4694 36.2816 46.4629 36.3414Z" fill="white"/>
<path d="M48.7804 38.193C48.793 37.322 52.26 37.6467 52.0451 38.2038C51.83 38.7608 48.7689 38.9804 48.7804 38.193Z" fill="#99CD33"/>
<path d="M49.366 36.6731C50.9774 36.2856 51.5402 32.2728 53.2603 33.1627C54.6346 33.8745 52.7713 36.8983 49.366 36.6731Z" fill="#FBD039"/>
<path d="M47.3932 26.7158C46.7785 27.0599 47.2476 28.5739 48.265 28.0617C49.2824 27.5496 48.2872 26.2154 47.3932 26.7158Z" fill="#FBD039"/>
<path d="M39.4754 38.8848C38.9337 39.1881 39.3469 40.5213 40.243 40.0704C41.139 39.619 40.2624 38.4441 39.4754 38.8848Z" fill="#EAA81B"/>
<path d="M81.3178 50.1617C82.2698 46.319 87.9948 43.1471 90.7328 45.4412C93.4705 47.7364 89.0498 51.7277 86.5804 51.9534C90.9215 52.7209 87.4175 58.411 82.7076 53.9172" fill="#F14687"/>
<path d="M82.4349 51.1677C81.5131 50.0873 87.4364 45.762 89.102 47.6543C90.7672 49.546 84.4138 53.4853 82.4349 51.1677Z" fill="#AFDB35"/>
<path d="M81.1217 49.6844C80.0874 44.0254 76.8344 41.6639 75.7799 43.7839C74.3525 46.653 76.9442 49.8912 78.9536 50.4385C76.4083 50.2971 78.1729 55.7631 81.3748 53.5175" fill="#F03884"/>
<path d="M80.534 50.3047C80.937 50.0279 78.2133 44.3445 76.8331 46.0049C75.5307 47.5714 78.949 51.3923 80.534 50.3047Z" fill="#A4D221"/>
<path d="M81.6484 50.7398C80.9712 51.8846 78.0511 50.7475 78.5519 52.242C78.9673 53.4818 80.809 53.6722 81.6484 50.7398Z" fill="#A4D221"/>
<path d="M80.9367 49.5377C82.3851 50.5109 83.6469 55.4694 82.7468 55.3545C81.3824 55.1799 79.633 51.8594 80.6693 49.5173" fill="#EAA81B"/>
<path d="M81.0373 47.6177C81.1262 47.6177 81.2055 47.5549 81.2227 47.4645C81.3838 46.6195 81.1875 44.3049 79.7454 43.5941C79.2633 43.3562 78.7929 43.4017 78.4549 43.7187C78.121 44.0322 77.9997 44.5459 78.1666 44.9411C78.3088 45.2791 78.5982 45.4823 78.9406 45.4854C79.2294 45.488 79.497 45.3414 79.5912 45.1285C79.6667 44.958 79.6272 44.7711 79.4827 44.6164C79.4117 44.5398 79.2921 44.5357 79.2156 44.6062C79.1391 44.6771 79.1347 44.7961 79.2057 44.8727C79.2638 44.935 79.2505 44.9651 79.2455 44.9763C79.2172 45.0407 79.0958 45.1086 78.9483 45.1086C78.9469 45.1086 78.9455 45.1086 78.944 45.1086C78.8327 45.1076 78.6288 45.0657 78.5149 44.7951C78.4088 44.5439 78.4943 44.1992 78.7138 43.9934C78.9335 43.7872 79.2404 43.7657 79.578 43.9322C80.7214 44.4959 81.019 46.5148 80.8514 47.394C80.832 47.4967 80.8993 47.5952 81.0018 47.6146C81.0137 47.6167 81.0256 47.6177 81.0373 47.6177Z" fill="#744428"/>
<path d="M81.585 47.708C81.6727 47.708 81.7513 47.6467 81.7699 47.5579C81.9435 46.7215 82.9452 45.1157 84.2403 45.0289C84.616 45.0028 84.8915 45.1407 85.0156 45.4149C85.1395 45.6886 85.0868 46.0394 84.8929 46.2308C84.6835 46.4381 84.4788 46.3993 84.3754 46.3575C84.2369 46.3018 84.1494 46.1915 84.1476 46.1211C84.1473 46.1083 84.1465 46.0756 84.2241 46.0399C84.3189 45.9965 84.3605 45.8847 84.3169 45.7902C84.2733 45.6952 84.1611 45.6539 84.0663 45.6978C83.8734 45.7861 83.7654 45.9434 83.7698 46.1297C83.7754 46.3621 83.9664 46.5995 84.2342 46.7072C84.552 46.8349 84.8976 46.7568 85.1588 46.4989C85.4639 46.1976 85.5487 45.6763 85.3601 45.2597C85.1691 44.8379 84.7518 44.6173 84.2149 44.6526C82.7107 44.7537 81.5993 46.5209 81.3997 47.4813C81.3786 47.5834 81.4443 47.683 81.5465 47.7039C81.5594 47.707 81.5723 47.708 81.585 47.708Z" fill="#744428"/>
<path d="M81.2409 47.2118C79.3743 46.9243 77.6958 50.2289 80.7739 50.7911C83.8166 51.3472 83.4669 47.5549 81.2409 47.2118Z" fill="#FBD039"/>
<path d="M81.2201 47.3803C80.0862 46.9713 78.2707 49.0729 80.0783 49.9665C81.8859 50.86 83.1281 48.0686 81.2201 47.3803Z" fill="#F9F151"/>
<path d="M80.1731 48.6036C79.9757 48.6434 79.6026 49.2327 80.0906 49.3067C80.6295 49.3899 80.4573 48.5475 80.1731 48.6036Z" fill="#482014"/>
<path d="M81.8401 48.7647C81.6945 48.8382 81.3179 49.4642 81.8846 49.452C82.4504 49.4387 82.1102 48.6309 81.8401 48.7647Z" fill="#482014"/>
<path d="M81.2093 50.2347C81.0404 50.2883 80.858 50.2822 80.7059 50.2449C80.4035 50.1714 80.1874 49.9764 80.1542 49.7486C80.1485 49.7078 80.1774 49.669 80.2176 49.6639C80.2591 49.6583 80.2973 49.6863 80.3026 49.7277C80.3267 49.8921 80.5028 50.0407 80.7413 50.0994C80.9695 50.1556 81.2753 50.129 81.4499 49.8865C81.4737 49.8533 81.5208 49.8451 81.5548 49.8696C81.5884 49.8936 81.5959 49.9406 81.5718 49.9738C81.4739 50.1086 81.3458 50.1913 81.2093 50.2347Z" fill="#D8303D"/>
<path d="M80.1793 49.0188C80.0818 49.0495 80.0161 49.1925 80.1558 49.1904C80.2954 49.1879 80.2344 49.0015 80.1793 49.0188Z" fill="white"/>
<path d="M81.8218 49.1946C81.7243 49.2258 81.6588 49.3682 81.798 49.3662C81.9378 49.3641 81.8773 49.1773 81.8218 49.1946Z" fill="white"/>
<path d="M81.0726 51.959C81.8517 51.6332 82.9038 54.8229 82.3257 54.8484C81.7475 54.874 80.3682 52.2536 81.0726 51.959Z" fill="#FBD039"/>
<path d="M82.6497 51.8889C83.6174 53.1633 87.4019 52.1084 87.276 53.9726C87.1753 55.4626 83.767 54.9857 82.6497 51.8889Z" fill="#AFDB35"/>
<path d="M90.7363 46.2941C90.1926 45.8836 89.0287 46.8838 89.8775 47.5849C90.7263 48.286 91.5269 46.8905 90.7363 46.2941Z" fill="#AFDB35"/>
<path d="M76.858 44.003C76.3792 43.6415 75.3537 44.5223 76.1014 45.1401C76.8491 45.7575 77.5543 44.5284 76.858 44.003Z" fill="#A4D221"/>
<path d="M50.1549 9.28721C49.4332 2.54371 52.1901 -0.939598 55.4265 0.219975C58.7068 1.39487 56.7228 7.38625 55.3321 8.55246C60.1428 4.96294 61.2379 13.3715 54.4067 12.3462" fill="#55C5A9"/>
<path d="M47.3035 6.71924C47.3223 6.71924 47.3414 6.71668 47.3603 6.71106C47.4636 6.67991 47.5219 6.57065 47.4905 6.46802C47.3075 5.86653 46.7722 4.88924 45.9889 4.06105C45.352 3.38808 44.3427 2.59053 43.1442 2.61912C42.4123 2.63597 41.8748 2.98419 41.6693 3.57547C41.466 4.16113 41.6432 4.85402 42.0914 5.22318C42.471 5.53567 42.9402 5.59847 43.3467 5.39065C43.6867 5.21705 43.9099 4.88516 43.8897 4.5839C43.8739 4.35005 43.7183 4.1642 43.4628 4.07433C43.361 4.03859 43.2495 4.09168 43.2134 4.19329C43.1775 4.29439 43.2308 4.40571 43.3326 4.44196C43.4923 4.49813 43.4979 4.58237 43.4998 4.60994C43.5083 4.73555 43.3866 4.93213 43.1684 5.04395C43.0114 5.12412 42.6951 5.21501 42.3402 4.92243C42.0187 4.65794 41.889 4.13356 42.0387 3.70261C42.1897 3.26809 42.5856 3.02147 43.1532 3.0087C45.0008 2.96632 46.7408 5.34623 47.1166 6.58086C47.1422 6.66511 47.2197 6.71924 47.3035 6.71924Z" fill="#744428"/>
<path d="M48.1331 6.72852C48.2061 6.72852 48.2761 6.68767 48.3095 6.61721C48.581 6.04993 48.8467 4.96848 48.8282 3.83035C48.8132 2.90514 48.6058 1.63733 47.7029 0.853044C47.151 0.37308 46.5183 0.268918 45.9671 0.567108C45.4205 0.863256 45.083 1.49436 45.1644 2.06776C45.2334 2.55386 45.5377 2.91587 45.9782 3.03535C46.3469 3.13594 46.736 3.04096 46.9246 2.80506C47.0711 2.62176 47.0818 2.38025 46.954 2.1418C46.9031 2.04683 46.7847 2.01108 46.6895 2.06163C46.5944 2.11269 46.5585 2.23065 46.6094 2.32562C46.6892 2.4742 46.6364 2.54057 46.6191 2.56202C46.5404 2.66056 46.3177 2.72388 46.081 2.65954C45.9109 2.61359 45.6158 2.46807 45.5513 2.01312C45.4929 1.60158 45.7517 1.12723 46.1534 0.909719C46.5589 0.690161 47.0181 0.774412 47.4461 1.14664C48.8392 2.35727 48.5143 5.28505 47.9569 6.44973C47.9104 6.54674 47.9517 6.66316 48.0491 6.70912C48.0763 6.72239 48.1049 6.72852 48.1331 6.72852Z" fill="#744428"/>
<path d="M49.5791 9.28126C46.7647 6.03385 42.5355 6.18295 41.8059 7.98894C40.8207 10.4276 46.1513 12.9663 49.0663 11.9435C45.8912 13.4197 51.204 17.7537 52.8008 13.5244" fill="#55C5A9"/>
<path d="M44.7305 9.36364C44.9501 7.76495 48.8759 9.64498 49.0723 10.5375C49.2687 11.4311 44.4194 11.6266 44.7305 9.36364Z" fill="#568DD1"/>
<path d="M49.5524 8.97653C51.7105 9.06588 56.2622 13.4734 55.239 13.9339C53.6889 14.6314 49.6879 12.2648 49.2569 9.12817" fill="#EAA81B"/>
<path d="M48.3511 9.90916C45.0078 10.504 45.1522 6.38755 47.653 5.86571C50.5341 5.26423 52.7571 9.12488 48.3511 9.90916Z" fill="#FBD039"/>
<path d="M48.1647 9.38543C45.4724 9.86437 45.5886 6.54956 47.6024 6.12934C49.9225 5.64478 51.7128 8.75382 48.1647 9.38543Z" fill="#F9F151"/>
<path d="M52.2072 9.39507C50.9504 9.01723 51.0563 3.08252 53.9076 3.45832C57.0462 3.87242 53.469 9.77445 52.2072 9.39507Z" fill="#568DD1"/>
<path d="M54.1538 10.8729C53.5024 9.84864 56.7802 7.95124 57.2424 9.84352C57.7049 11.7363 54.5891 11.5576 54.1538 10.8729Z" fill="#568DD1"/>
<path d="M54.7729 0.82372C55.9124 1.04124 56.1842 3.1684 54.4938 2.92842C52.8032 2.68895 53.9127 0.660328 54.7729 0.82372Z" fill="#568DD1"/>
<path d="M52.2 2.0668C52.7561 2.18935 52.7895 2.99968 52.1554 2.90317C51.5209 2.80667 51.6439 1.94375 52.2 2.0668Z" fill="#568DD1"/>
<path d="M44.913 7.42968C45.4011 7.53742 45.4304 8.24817 44.8739 8.16341C44.3174 8.07865 44.4253 7.32143 44.913 7.42968Z" fill="#568DD1"/>
<path d="M42.3691 8.6453C42.629 7.71397 44.353 7.92076 44.1971 9.17939C44.0411 10.438 41.9631 10.099 42.3691 8.6453Z" fill="#568DD1"/>
<path d="M50.3352 10.4951C51.078 9.97482 54.7289 13.3295 54.3406 13.6848C53.5585 14.4002 49.48 11.0946 50.3352 10.4951Z" fill="#FBD039"/>
<path d="M46.7353 7.65016C46.945 7.59195 47.3256 8.3742 46.7865 8.49623C46.2471 8.61775 46.3955 7.74513 46.7353 7.65016Z" fill="#311E17"/>
<path d="M48.3719 7.11712C48.1779 7.21618 48.4322 8.04795 48.9106 7.77171C49.389 7.49548 48.6853 6.95628 48.3719 7.11712Z" fill="#311E17"/>
<path d="M48.0194 9.34033C48.1739 9.34033 48.3232 9.30255 48.4504 9.23413C48.7974 9.04776 48.9248 8.68319 48.775 8.30535L48.5933 8.37683C48.728 8.71689 48.56 8.95381 48.3578 9.06256C48.0716 9.21625 47.6418 9.17234 47.374 8.79144L47.214 8.90326C47.4302 9.21064 47.7338 9.34033 48.0194 9.34033Z" fill="#99253F"/>
<path d="M48.6234 7.53233C48.7551 7.53642 48.7881 7.66508 48.645 7.69929C48.5018 7.7335 48.4673 7.52723 48.6234 7.53233Z" fill="white"/>
<path d="M46.8645 8.11785C46.9963 8.12245 47.0294 8.25112 46.8863 8.28533C46.7429 8.31903 46.7083 8.11325 46.8645 8.11785Z" fill="white"/>
<path d="M50.7924 12.6197C50.289 12.2975 48.3404 13.2733 49.6076 14.2899C50.6731 15.1446 51.6401 13.163 50.7924 12.6197Z" fill="#568DD1"/>
<path d="M12.7863 27.8404C12.8887 23.6045 10.1544 18.3157 7.47282 18.8278C4.51681 19.393 6.86605 25.4579 10.9276 29.0342" fill="#EA431E"/>
<path d="M13.3411 26.4105C11.2965 27.1233 8.2171 32.6761 9.33335 32.8206C11.0246 33.0397 14.1721 29.6054 13.6688 26.4703" fill="#7AAE2B"/>
<path d="M13.218 27.5366C12.3413 27.2916 10.0971 31.8563 10.5835 32.0626C11.562 32.4787 14.2272 27.818 13.218 27.5366Z" fill="#99CD33"/>
<path d="M11.3601 27.9066C11.1041 26.6812 7.51418 19.6395 3.86896 21.7345C0.377353 23.7411 3.7645 28.9569 3.7645 28.9569C3.7645 28.9569 -0.944736 29.2525 0.171514 32.5837C1.28725 35.9154 7.78454 33.2117 9.19726 32.0246C10.8261 30.5689 11.6013 29.0667 11.3601 27.9066Z" fill="#F2531B"/>
<path d="M9.42386 30.401C10.9789 28.3786 7.31886 23.7862 5.15087 25.4196C2.9834 27.053 7.86828 32.4235 9.42386 30.401Z" fill="#F9AD22"/>
<path d="M8.06056 31.3054C6.91154 29.9794 3.13678 30.4221 3.75891 32.4976C4.38104 34.5743 9.16965 32.5845 8.06056 31.3054Z" fill="#F9AD22"/>
<path d="M4.01826 22.9787C4.88975 22.3466 6.36238 24.5024 5.13451 25.0793C4.19594 25.5205 2.97677 23.7339 4.01826 22.9787Z" fill="#F9AD22"/>
<path d="M6.80802 23.4728C7.17823 23.2961 7.94834 24.2341 7.32774 24.567C6.70766 24.9004 6.4752 23.6311 6.80802 23.4728Z" fill="#F9AD22"/>
<path d="M5.15012 27.3051C5.38822 26.9481 6.19469 27.2366 5.92382 27.6109C5.65244 27.9847 4.8219 27.7963 5.15012 27.3051Z" fill="#F9AD22"/>
<path d="M13.3812 23.1835C15.4012 23.2887 16.6987 27.0354 13.1169 27.04C9.80404 27.0441 10.6469 23.04 13.3812 23.1835Z" fill="#8DC525"/>
<path d="M13.6319 23.4192C14.9238 23.4222 15.9761 26.2014 13.8286 26.4389C11.6806 26.6758 11.4588 23.413 13.6319 23.4192Z" fill="#AFDB35"/>
<path d="M14.5755 25.0734C14.7762 25.1286 15.1045 25.8296 14.5955 25.87C14.0338 25.9154 14.2872 24.9943 14.5755 25.0734Z" fill="#482014"/>
<path d="M12.8108 25.0603C12.9562 25.1471 13.3182 25.9411 12.7345 25.887C12.1513 25.8313 12.543 24.9021 12.8108 25.0603Z" fill="#482014"/>
<path d="M13.3728 26.7442C13.5433 26.8121 13.7317 26.8198 13.892 26.7922C14.2089 26.7381 14.4465 26.5532 14.4972 26.3209C14.5064 26.279 14.4793 26.2367 14.4378 26.229C14.3964 26.2198 14.3549 26.2464 14.3457 26.2877C14.3088 26.4557 14.1163 26.5966 13.8659 26.6395C13.6268 26.6804 13.3134 26.6298 13.1511 26.3674C13.1291 26.3311 13.0809 26.3194 13.0435 26.3424C13.0072 26.3648 12.9964 26.4123 13.0184 26.4491C13.1091 26.5951 13.235 26.6896 13.3728 26.7442Z" fill="#D8303D"/>
<path d="M14.5255 25.5662C14.6238 25.605 14.6812 25.7572 14.5373 25.7449C14.3934 25.7321 14.4702 25.5442 14.5255 25.5662Z" fill="white"/>
<path d="M12.8183 25.6263C12.9166 25.6651 12.974 25.8172 12.8296 25.805C12.6857 25.7922 12.7625 25.6043 12.8183 25.6263Z" fill="white"/>
<path d="M13.7305 23.5889C13.8094 23.5889 13.8842 23.5409 13.9133 23.4628C14.368 22.2542 16.258 19.9907 18.0993 20.151C18.6646 20.2005 19.0435 20.4722 19.1664 20.9154C19.2882 21.3545 19.1249 21.8697 18.7869 22.1138C18.4137 22.3823 18.1044 22.2715 17.9528 22.1817C17.7424 22.0566 17.6333 21.8523 17.6497 21.7272C17.6538 21.6996 17.6646 21.6159 17.8274 21.57C17.9313 21.5403 17.9917 21.4326 17.9626 21.3295C17.9329 21.2258 17.8248 21.1656 17.7214 21.1947C17.4603 21.2682 17.2933 21.4438 17.2626 21.6762C17.2227 21.9754 17.4244 22.321 17.7526 22.5161C18.1448 22.7494 18.6175 22.7168 19.0158 22.4293C19.4869 22.0897 19.7086 21.4096 19.5432 20.8112C19.3763 20.2087 18.8622 19.8268 18.1331 19.7629C16.9405 19.6588 15.8801 20.3889 15.2011 21.02C14.3665 21.7962 13.7689 22.7372 13.5477 23.3259C13.5093 23.4265 13.5605 23.5388 13.6619 23.5766C13.6845 23.5853 13.7075 23.5889 13.7305 23.5889Z" fill="#703A20"/>
<path d="M12.9016 23.5449C12.9257 23.5449 12.9502 23.5403 12.9738 23.5306C13.0742 23.4908 13.1228 23.3769 13.0829 23.2774C12.6015 22.0795 12.4653 19.1369 13.9339 18.0177C14.3855 17.674 14.8489 17.6194 15.2396 17.8645C15.6262 18.107 15.854 18.5972 15.769 19.0042C15.6758 19.454 15.3717 19.5801 15.1991 19.6153C14.959 19.6644 14.7403 19.5867 14.6681 19.4836C14.6523 19.4606 14.6041 19.3917 14.6932 19.2482C14.7501 19.1568 14.7219 19.0363 14.6302 18.9796C14.5386 18.923 14.4183 18.9511 14.3609 19.043C14.2186 19.2722 14.2134 19.5143 14.3476 19.7062C14.5207 19.9539 14.9032 20.0739 15.2775 19.9973C15.725 19.9059 16.0517 19.5643 16.152 19.0833C16.2698 18.516 15.9738 17.8645 15.4475 17.5347C14.9165 17.2017 14.2785 17.2651 13.6968 17.7083C12.7449 18.4333 12.4566 19.6853 12.3819 20.608C12.2902 21.7425 12.4853 22.8388 12.7198 23.4224C12.7505 23.4985 12.8238 23.5449 12.9016 23.5449Z" fill="#703A20"/>
<path d="M3.70605 30.1109C-0.445576 30.6337 0.0434237 33.9164 3.15817 33.9307C1.08031 33.1561 1.72292 30.9105 3.70605 30.1109Z" fill="#F9AD22"/>
<path d="M35.384 33.1367C35.4204 33.1367 35.4568 33.1357 35.4936 33.1326C36.0733 33.0877 36.6181 32.6225 36.7896 32.0262C36.9622 31.4252 36.7235 30.8319 36.1342 30.3984C35.1705 29.6892 33.8843 29.7617 32.9749 29.947C31.8566 30.1752 30.855 30.668 30.3589 31.055C30.2739 31.1214 30.2585 31.2439 30.3251 31.3287C30.3916 31.4134 30.5145 31.4283 30.5995 31.3619C31.619 30.5674 34.4148 29.6172 35.9022 30.7119C36.359 31.0479 36.5407 31.4768 36.4138 31.9189C36.2878 32.357 35.8792 32.7119 35.4634 32.7441C35.0036 32.7793 34.7983 32.524 34.7158 32.3683C34.6016 32.1523 34.616 31.9215 34.6953 31.8235C34.7128 31.802 34.766 31.7361 34.9288 31.7816C35.0333 31.8107 35.1408 31.7504 35.17 31.6468C35.1992 31.5431 35.1383 31.4354 35.0343 31.4063C34.7732 31.3338 34.5387 31.3961 34.3912 31.5784C34.2007 31.8132 34.1925 32.213 34.3702 32.55C34.5668 32.9228 34.9406 33.1367 35.384 33.1367Z" fill="#744428"/>
<path d="M24.7164 30.4691C24.8941 26.3547 27.889 21.9513 31.2403 23.8119C34.5916 25.672 30.953 31.7083 25.4476 31.4883" fill="#39AF8D"/>
<path d="M29.7945 30.9346C29.8882 30.9346 29.9707 30.8672 29.9871 30.7722C30.2026 29.4998 31.6251 26.9182 33.4628 26.7262C34.0281 26.6675 34.4521 26.862 34.6574 27.2741C34.8602 27.682 34.7987 28.2187 34.5135 28.522C34.1986 28.8569 33.8735 28.8069 33.7076 28.7472C33.4766 28.6644 33.3312 28.4847 33.3235 28.3591C33.322 28.331 33.3169 28.2468 33.4679 28.1707C33.5642 28.1222 33.6031 28.0053 33.5545 27.9093C33.5058 27.8133 33.3886 27.7745 33.2918 27.823C33.0501 27.9445 32.919 28.1487 32.9334 28.3826C32.9518 28.6838 33.2155 28.9846 33.5749 29.1138C34.0045 29.2685 34.4618 29.147 34.7987 28.7885C35.1961 28.3657 35.2836 27.656 35.0071 27.101C34.7281 26.5403 34.1505 26.2626 33.4224 26.3387C32.2313 26.4632 31.3307 27.3813 30.7843 28.1298C30.113 29.0505 29.7065 30.0875 29.6015 30.7074C29.5836 30.8136 29.6553 30.9141 29.7618 30.932C29.7725 30.9335 29.7838 30.9346 29.7945 30.9346Z" fill="#744428"/>
<path d="M27.3199 31.5722C25.5452 30.4346 19.4268 31.4073 19.9849 32.3483C20.8303 33.7739 25.3598 34.1232 27.4705 31.8587" fill="#EAA81B"/>
<path d="M20.1598 32.1553C11.6656 29.8311 16.3799 23.1187 20.0789 28.6097C19.0902 27.0029 19.4507 20.266 23.7841 21.1933C27.8983 22.0735 28.6223 26.1915 25.2265 31.1939C24.4917 31.8832 21.6965 32.5755 20.1598 32.1553Z" fill="#55C5A9"/>
<path d="M30.3923 30.8123C31.0702 32.7127 28.0994 35.3459 26.7199 32.05C25.4434 29.0012 29.4747 28.2399 30.3923 30.8123Z" fill="#FBD039"/>
<path d="M30.2699 31.1333C30.763 32.3235 28.5945 34.3603 27.5495 32.4741C26.5049 30.588 29.4409 29.1302 30.2699 31.1333Z" fill="#F9F151"/>
<path d="M29.5877 32.4694C29.6138 32.6752 29.091 33.2466 28.858 32.7937C28.6 32.2938 29.5503 32.1733 29.5877 32.4694Z" fill="#482014"/>
<path d="M28.9224 30.8408C28.8979 31.0072 28.3013 31.646 28.1277 31.0874C27.9552 30.5293 28.9665 30.5334 28.9224 30.8408Z" fill="#482014"/>
<path d="M27.579 32.0035C27.5816 32.1868 27.6471 32.363 27.7336 32.4993C27.9057 32.7709 28.1684 32.9185 28.4029 32.8761C28.4454 32.8685 28.474 32.8276 28.4648 32.7863C28.4582 32.7439 28.4167 32.7163 28.3747 32.724C28.2057 32.7541 28.0014 32.631 27.8652 32.4171C27.7357 32.2123 27.6614 31.9044 27.8422 31.6543C27.8678 31.62 27.8601 31.571 27.8248 31.546C27.79 31.521 27.7418 31.5292 27.7162 31.5634C27.6153 31.7033 27.5769 31.8554 27.579 32.0035Z" fill="#D8303D"/>
<path d="M29.112 32.6124C29.1141 32.7176 28.9953 32.8294 28.9513 32.6921C28.9082 32.5547 29.1115 32.5527 29.112 32.6124Z" fill="white"/>
<path d="M28.4013 31.0635C28.4034 31.1692 28.2846 31.2805 28.2406 31.1431C28.197 31.0058 28.4008 31.0043 28.4013 31.0635Z" fill="white"/>
<path d="M26.091 32.3652C25.794 31.536 21.4652 32.3871 21.114 32.6547C21.3321 33.6606 26.4325 33.3195 26.091 32.3652Z" fill="#FBD039"/>
<path d="M24.0317 25.0965C26.9396 25.6786 24.5868 31.8675 22.7501 31.5775C20.5109 31.2242 19.7613 24.2428 24.0317 25.0965Z" fill="#568DD1"/>
<path d="M26.5999 26.2637C27.0034 20.1002 20.2009 20.1605 20.2629 25.5213C21.9675 22.356 25.8575 22.9162 26.5999 26.2637Z" fill="#568DD1"/>
<path d="M21.9385 31.6634C20.3788 31.089 18.7142 27.2284 17.4315 28.174C16.0587 29.186 18.7203 32.196 21.9385 31.6634Z" fill="#568DD1"/>
<path d="M66.7201 93.295C64.6195 90.0011 66.7253 87.5298 68.615 86.4948C68.5018 87.2173 68.615 88.043 68.615 88.043C69.5008 86.288 70.9059 86.1359 72.5917 84.024C73.9082 85.9291 74.6344 88.7129 74.1367 90.8227C74.7012 90.1165 75.044 89.587 74.9533 88.2467C76.8609 92.0067 74.9692 97.8587 68.7883 96.714" fill="#EF6119"/>
<path d="M69.6732 96.1829C71.844 97.0601 75.7701 95.4078 75.1515 89.9485C74.7893 91.3383 73.2177 92.3212 73.2177 92.3212C74.277 89.7963 74.2273 88.2992 73.2177 85.9796C73.2397 89.3802 71.9048 91.8515 70.5829 92.4198C71.0684 92.8339 72.4444 92.0067 72.4444 92.0067C72.6204 92.8865 70.9149 94.6353 68.6948 94.4785" fill="#FCE79D"/>
<path d="M49.6634 55.0332C50.4552 51.1741 49.5256 47.3589 58.5165 45.2956C67.5055 43.2404 72.8779 38.2916 67.6078 28.7102C66.3688 26.3354 62.0298 27.1626 63.3713 30.2553C64.7143 33.3424 67.4021 38.307 60.2717 41.1847C61.6173 38.8048 61.6173 34.5832 59.8595 33.036C58.6975 32.0123 56.3985 32.672 57.105 35.0968C57.8095 37.5217 57.2769 42.0017 53.8649 43.0305C54.588 40.763 51.621 37.223 50.1453 37.7775C47.6668 38.6996 50.6453 41.1321 50.5589 43.0305C50.4552 45.2899 45.8522 49.1102 46.2421 54.1585" fill="#753419"/>
<path d="M31.6303 55.0332C30.8387 51.1741 31.7685 47.3589 22.7771 45.2956C13.7897 43.2404 8.41585 38.2916 13.6848 28.7102C14.9249 26.3354 19.2655 27.1626 17.9224 30.2553C16.5783 33.3424 13.056 38.5495 22.519 41.4247C21.1759 39.0448 20.4657 34.8599 22.8477 33.2153C24.1217 32.3365 26.3076 32.8512 25.6 35.2766C24.8964 37.7009 24.0193 42.0017 27.4279 43.0305C26.7055 40.763 29.6717 37.223 31.15 37.7775C33.6288 38.6996 30.6497 41.1321 30.7347 43.0305C30.8387 45.2899 35.4419 49.1102 35.0517 54.1585" fill="#753419"/>
<path d="M54.4959 130.754C52.8727 131.193 51.7163 134.693 53.5023 135.775C53.9955 135.888 54.6927 134.437 54.6927 134.437C54.6927 134.437 54.2216 136.16 54.5348 136.315C56.1493 137.114 62.5215 134.828 59.7552 129.946" fill="#761E19"/>
<path d="M53.6306 109.733C53.6869 111.357 58.605 114.85 58.5016 116.913C58.4002 118.975 55.3035 129.403 54.3343 130.693C53.3629 131.982 58.8483 132.411 60.1463 130.693C61.449 128.973 60.2514 128.649 60.5794 126.499C60.9067 124.349 62.5781 118.657 63.7637 117.473C64.949 116.289 64.949 113.925 63.1175 111.99C61.2839 110.055 60.8529 105.538 60.8529 105.538" fill="#EF6119"/>
<path d="M28.869 133.22C27.2003 133.434 25.5828 136.746 27.208 138.064C27.6821 138.236 28.57 136.896 28.57 136.896C28.57 136.896 27.7697 138.536 28.1614 138.734C30.0022 139.667 36.2747 138.331 34.1902 133.12" fill="#761E19"/>
<path d="M43.3255 107.099C44.0425 109.1 41.098 117.158 39.2649 118.651C37.4307 120.138 39.1599 121.024 37.9807 122.49C36.8025 123.959 35.4788 130.496 35.7548 131.675C36.0313 132.858 32.807 136.953 28.9928 134.209C28.2027 133.644 29.3067 132.707 30.7747 129.109C32.2422 125.511 33.3498 122.951 33.2177 121.521C33.0856 120.091 33.5382 119.177 34.3523 117.986C35.1665 116.792 33.4435 112.658 34.7246 107.227" fill="#EF6119"/>
<path d="M36.468 104.11C34.62 105.282 34.0061 113.326 34.9846 117.809C35.4961 119.905 36.4132 118.703 37.5453 117.15C38.8961 115.296 42.9037 107.103 40.5259 104.954" fill="#F68A2E"/>
<path d="M66.9984 105.538C60.745 103.713 56.0042 114.462 43.7153 112.96C32.9422 111.634 31.4296 103.283 32.6134 97.0497C33.6222 91.7472 34.7691 84.6917 32.9365 79.745H45.3331C43.068 81.2502 41.2367 93.8299 46.3035 94.9032C51.3684 95.9759 57.5353 85.8957 66.7793 91.74C70.5759 94.1352 70.9125 97.7651 70.3924 101.196C69.7596 105.376 66.9984 105.538 66.9984 105.538Z" fill="#EF6119"/>
<path d="M42.1127 89.6127C42.3012 93.9027 44.5631 97.2369 48.9214 95.2369C53.2796 93.2369 58.6925 88.9188 64.1829 90.8932C69.6733 92.8672 63.1909 99.3769 54.8231 102.926C46.455 106.477 39.6967 104.75 38.8477 98.0319C37.9982 91.314 42.1127 89.6127 42.1127 89.6127Z" fill="#F68A2E"/>
<path d="M41.4128 80.0566C39.5556 87.1677 37.767 104.61 43.2989 107.57C49.1774 110.712 56.5025 104.011 61.1264 104.011C65.7492 104.011 62.6824 106.607 60.0561 107.523C57.4293 108.442 51.3016 114.758 41.8974 112.853C32.4956 110.952 32.2047 104.729 32.3409 97.9868C32.4546 92.3579 35.0778 85.7227 32.6507 78.8209" fill="#E8C670"/>
<path d="M42.1479 137.166C40.5926 137.807 39.8794 141.421 41.7867 142.274C42.2908 142.326 42.8017 140.795 42.8017 140.795C42.8017 140.795 42.3436 142.573 42.8819 142.68C45.5756 143.217 50.6202 140.21 47.2642 135.707" fill="#761E19"/>
<path d="M51.3705 106.287C52.4167 108.141 50.8886 117.819 49.3353 119.599C47.7838 121.372 49.6359 121.953 48.725 123.6C47.8135 125.244 47.8372 132.846 48.4059 133.917C48.9757 134.984 46.9128 139.766 42.5228 138.098C41.6099 137.747 42.439 136.561 42.932 132.707C43.4234 128.853 44.2385 124.835 43.8656 123.45C43.4944 122.065 43.7819 121.086 44.3815 119.777C44.9803 118.465 40.9489 110.403 43.9183 105.093" fill="#EF6119"/>
<path d="M53.9453 58.534C55.2561 62.2159 55.2021 68.0694 56.2729 71.4843C58.2971 77.9378 52.4258 82.3969 46.2062 83.7438C43.0183 84.4347 40.6879 85.4937 38.7841 85.4937C36.6837 85.4937 34.1676 84.2008 30.87 83.2154C25.2447 81.5365 20.5806 77.152 22.6221 71.4843C24.2893 66.8496 23.2718 63.7972 25.3205 58.534C29.8772 46.8326 49.5972 46.3383 53.9453 58.534Z" fill="#EF6119"/>
<path d="M39.8334 50.7103C48.7357 50.7236 51.4064 55.9613 52.4445 61.5095C53.4831 67.0572 51.3741 70.5844 53.2454 72.9699C56.1534 76.6769 50.3599 83.1778 39.1253 83.2513C27.8911 83.3254 21.8823 76.6769 25.2208 72.5257C27.868 69.2349 25.846 63.5151 28.0242 58.0435C29.9305 53.2521 33.5799 50.7006 39.8334 50.7103Z" fill="#F68A2E"/>
<path d="M34.1126 84.8893C29.2231 82.7641 29.3194 75.7944 39.1009 75.7944C48.8812 75.7944 48.4011 82.7641 43.5114 84.8893C40.3314 86.2745 37.3523 86.3006 34.1126 84.8893Z" fill="#FAD483"/>
<path d="M41.1016 76.2656C43.7007 76.6363 46.1074 80.5322 42.3711 82.595C38.635 84.6574 33.9985 83.4411 33.0774 80.593C32.1557 77.7459 35.7896 75.5084 41.1016 76.2656Z" fill="#FCE79D"/>
<path d="M36.2846 51.9238C35.0756 46.1948 41.7521 45.0266 44.1284 45.383C42.9401 45.383 41.7522 47.1604 41.7522 47.1604C44.3646 46.0922 47.6926 46.4011 49.1175 48.321C45.5527 47.5117 43.5743 48.321 43.5743 48.321C47.2139 48.9046 49.5926 51.6536 49.1175 53.6123C48.0474 52.2536 43.7709 51.4239 41.988 52.0177" fill="#EF6119"/>
<path d="M41.7407 75.3675C43.4304 76.3938 41.4371 78.0742 39.0254 78.0742C36.6136 78.0742 34.3991 76.4143 36.0417 75.3675C37.352 74.5317 40.2942 74.4929 41.7407 75.3675Z" fill="#761E19"/>
<path d="M67.8588 133.728C66.2782 134.303 65.4167 137.885 67.2851 138.818C67.7879 138.886 68.3643 137.383 68.3643 137.383C68.3643 137.383 67.927 139.103 68.3643 139.263C69.7361 139.766 76.1968 137.121 73.0356 132.487" fill="#761E19"/>
<path d="M58.5088 102.543C58.5011 112.788 63.2514 113.603 65.8376 116.337C68.4228 119.071 68.1825 129.322 67.3197 134.371C68.0735 135.552 71.4144 134.694 72.1712 133.832C72.9243 132.976 73.7883 131.686 72.7094 129.75C71.6312 127.816 71.0931 117.58 71.8456 115.32C72.6027 113.064 70.8243 112.369 69.368 110.338C68.3989 108.979 71.4144 103.391 70.4747 98.2593" fill="#EF6119"/>
<path d="M59.1417 104.538C59.3097 107.422 60.1896 111.917 63.8632 114.445C66.0779 115.969 67.7097 114.225 66.632 113.21C64.3657 111.074 72.4996 96.453 65.9565 92.19C61.9402 89.5742 58.7411 97.6591 59.1417 104.538Z" fill="#F68A2E"/>
<path d="M57.7596 91.4829C59.9984 90.6812 59.8788 91.7601 57.7135 93.1061C55.5488 94.4551 55.5224 92.2865 57.7596 91.4829Z" fill="#FCE79D"/>
<path d="M51.4492 95.6536C52.925 94.9291 54.9759 96.369 51.8776 97.621C48.7776 98.8694 48.72 97.0026 51.4492 95.6536Z" fill="#FCE79D"/>
<path d="M57.0865 95.8166C58.3743 95.1385 59.259 96.2435 57.5926 97.2519C55.9294 98.2624 54.0927 97.401 57.0865 95.8166Z" fill="#FCE79D"/>
<path d="M61.8927 91.6819C63.4601 90.964 64.3228 92.1588 62.1999 93.2367C60.0744 94.3156 59.8862 92.6005 61.8927 91.6819Z" fill="#FCE79D"/>
<path d="M47.0976 95.7827C48.1294 95.2348 49.0186 96.3556 47.4036 97.0418C45.79 97.7281 45.3161 96.7252 47.0976 95.7827Z" fill="#FCE79D"/>
<path d="M52.0636 99.087C52.796 98.846 53.9816 99.3494 52.3891 100.113C50.7925 100.877 50.8383 99.4796 52.0636 99.087Z" fill="#FCE79D"/>
<path d="M34.3724 74.5743C35.6868 73.1252 35.8947 63.3089 32.6268 61.0674C29.3595 58.8269 23.9641 65.3299 24.4091 70.0693C24.854 74.8092 31.6335 77.5965 34.3724 74.5743Z" fill="#FCE79D"/>
<path d="M33.456 74.1104C34.2363 73.0269 34.1528 66.6709 31.6812 66.1292C27.3002 65.1672 26.1604 70.3922 26.4302 71.5109C27.1302 74.4229 32.8538 74.9462 33.456 74.1104Z" fill="#F9A7B6"/>
<path d="M33.3326 73.9556C34.0213 72.9998 34.0387 67.2999 31.9567 66.8261C28.2112 65.9734 26.8604 70.5499 27.0975 71.5379C27.7165 74.1088 32.8006 74.6939 33.3326 73.9556Z" fill="white"/>
<path d="M32.8291 71.5153C33.3017 71.4392 33.5598 72.4017 32.9407 72.4262C32.3212 72.4513 32.4676 71.573 32.8291 71.5153Z" fill="white"/>
<path d="M27.3425 67.8983C26.2995 70.0693 25.6646 72.7862 30.252 74.1465C26.1981 73.544 25.4915 70.5462 26.7107 67.6399" fill="#83371B"/>
<path d="M30.5984 66.0632C27.7258 65.8354 27.0622 71.0875 30.5052 72.146C33.6942 73.1273 33.9435 70.4809 33.472 68.8592C32.7648 66.4313 30.5984 66.0632 30.5984 66.0632Z" fill="#41ADC1"/>
<path d="M30.5977 66.0649C27.8731 66.2395 29.3314 70.6317 31.8737 69.9429C34.7401 69.1663 32.6474 65.9336 30.5977 66.0649Z" fill="#1A3E51"/>
<path d="M33.0033 69.3674C32.4733 69.2821 32.1845 70.3605 32.8778 70.3886C33.5716 70.4162 33.4078 69.4322 33.0033 69.3674Z" fill="white"/>
<path d="M33.8184 70.2163C33.0134 66.4241 30.5833 64.8882 27.3262 67.8982C25.7307 67.9518 25.4291 65.7675 25.4291 65.7675C25.9345 67.1313 26.8956 66.709 26.8956 66.709C29.2771 64.3659 33.3058 64.8509 33.8184 70.2163Z" fill="#512214"/>
<path d="M27.7942 71.4065C27.4404 70.6861 29.1736 69.2421 29.4839 69.938C29.7932 70.6335 28.1491 72.127 27.7942 71.4065Z" fill="white"/>
<path d="M44.0243 74.5743C42.7102 73.1252 42.5023 63.3089 45.7701 61.0674C49.0381 58.8269 54.4329 65.3299 53.988 70.0693C53.5433 74.8092 46.7637 77.5965 44.0243 74.5743Z" fill="#FCE79D"/>
<path d="M44.9408 74.1104C44.1604 73.0269 44.2436 66.6709 46.7151 66.1292C51.0966 65.1672 52.2361 70.3922 51.9668 71.5109C51.2662 74.4229 45.5431 74.9462 44.9408 74.1104Z" fill="#F9A7B6"/>
<path d="M45.065 73.9556C44.3761 72.9998 44.359 67.2999 46.441 66.8261C50.187 65.9734 51.5376 70.5499 51.2998 71.5379C50.6812 74.1088 45.5969 74.6939 45.065 73.9556Z" fill="white"/>
<path d="M51.0537 67.8983C52.0969 70.0693 52.7318 72.7862 48.144 74.1465C52.1982 73.544 52.9045 70.5462 51.6852 67.6399" fill="#83371B"/>
<path d="M47.916 66.013C50.5108 65.697 51.3447 71.0818 47.8968 72.1142C44.7036 73.0705 44.457 70.4537 44.9283 68.8392C45.6332 66.4236 47.916 66.013 47.916 66.013Z" fill="#41ADC1"/>
<path d="M47.5415 66.0169C49.9247 65.7274 49.529 70.0093 46.9079 69.8362C44.2969 69.6636 44.7569 66.3544 47.5415 66.0169Z" fill="#1A3E51"/>
<path d="M45.3937 69.3674C45.9232 69.2821 46.2121 70.3605 45.5185 70.3886C44.8249 70.4162 44.9887 69.4322 45.3937 69.3674Z" fill="white"/>
<path d="M44.5787 70.2163C45.3836 66.4241 47.8137 64.8882 51.0709 67.8982C52.6667 67.9518 52.968 65.7675 52.968 65.7675C52.4624 67.1313 51.5015 66.709 51.5015 66.709C49.1203 64.3659 45.0913 64.8509 44.5787 70.2163Z" fill="#512214"/>
<path d="M50.6019 71.4065C50.9561 70.6861 49.2228 69.2421 48.9127 69.938C48.6031 70.6335 50.2471 72.127 50.6019 71.4065Z" fill="white"/>
<path d="M36.9238 52.4126C35.255 49.5839 38.0364 46.4769 40.9295 46.3104C38.7594 46.9206 38.6749 50.5035 38.6749 50.5035C40.6514 48.1966 43.9855 48.6066 46.9082 51.0646C43.4332 49.7498 41.5972 51.0815 40.9853 52.4126" fill="#F68A2E"/>
<path d="M45.3427 104.11C43.6884 105.542 43.5712 116.236 45.2032 120.526C46.0193 122.523 47.6115 118.805 48.2525 116.604C48.8937 114.404 51.4255 105.886 48.7549 104.11" fill="#F68A2E"/>
<path d="M45.7702 119.891C47.5108 120.129 47.5437 123.182 45.9611 123.182C44.3784 123.182 43.4358 119.573 45.7702 119.891Z" fill="#F68A2E"/>
<path d="M45.3423 125.34C46.6697 125.076 46.1584 134.069 45.3423 137.471C43.7862 138.415 42.5978 136.953 42.5978 136.953C42.6021 134.764 44.6006 125.488 45.3423 125.34Z" fill="#F68A2E"/>
<path d="M35.7343 117.881C37.424 118.362 36.9335 121.587 35.3682 121.354C33.8024 121.121 33.4875 117.241 35.7343 117.881Z" fill="#F68A2E"/>
<path d="M34.5114 122.294C35.8632 122.229 34.026 131.047 32.7146 134.292C31.0361 134.996 29.565 133.554 29.565 133.554C30.4371 131.258 33.7561 122.332 34.5114 122.294Z" fill="#F68A2E"/>
<path d="M59.3886 118.417C60.87 118.429 59.678 125.393 57.7306 131.395C56.5068 131.572 55.2013 131.447 54.8935 130.851C56.1729 127.966 58.5986 118.411 59.3886 118.417Z" fill="#F68A2E"/>
<path d="M68.1159 119.274C69.5022 118.754 70.9608 127.252 71.3057 133.55C70.3759 134.491 68.0417 134.697 67.7105 134.043C68.8923 128.151 67.3763 119.552 68.1159 119.274Z" fill="#F68A2E"/>
<path d="M39.4795 89.0283C38.7324 92.3319 38.9224 99.6815 40.161 103.603C40.3832 107.228 34.5956 109.288 33.3027 106.161C32.2751 103.674 31.2924 100.194 33.5331 91.4644C34.6607 90.1302 39.4795 89.0283 39.4795 89.0283Z" fill="#FCE79D"/>
<path d="M67.0777 90.8518C65.6708 90.598 66.1389 88.0813 67.8877 87.081C68.0235 88.4106 68.3074 91.0729 67.0777 90.8518Z" fill="#F68A2E"/>
<path d="M68.2456 91.4644C67.1885 90.3528 68.4125 88.2476 70.1372 87.0809C71.862 85.9142 72.5293 84.6933 72.5293 84.6933C73.1938 86.8113 72.6572 93.0748 68.5598 91.4644" fill="#F68A2E"/>
<path d="M37.888 75.2361C38.7099 75.042 38.9167 75.8738 38.0821 76.0683C37.248 76.2619 36.1046 75.6563 37.888 75.2361Z" fill="#EA5939"/>
<path d="M15.5041 27.94C17.4027 28.2106 16.2276 30.7697 14.7252 33.1548C13.2229 35.5408 14.1134 37.5934 14.3914 38.5921C14.6694 39.5904 13.5496 40.4226 12.3012 37.7042C11.0534 34.9858 13.0534 27.5913 15.5041 27.94Z" fill="#AD511E"/>
<path d="M64.2928 28.2733C66.3473 26.9284 68.0233 31.6525 68.3012 34.3454C68.5795 37.0383 66.2858 39.7705 65.2969 38.9801C64.3082 38.1892 67.0774 36.7054 66.0204 34.0426C64.9632 31.3793 62.3428 29.5488 64.2928 28.2733Z" fill="#AD511E"/>
<path d="M23.8703 33.3342C25.1309 33.494 24.0925 38.4938 22.9798 38.5489C21.8672 38.6046 20.8103 32.9456 23.8703 33.3342Z" fill="#AD511E"/>
<path d="M59.0527 33.5779C60.3452 33.1807 62.0698 37.0383 60.0112 37.7597C57.9528 38.4807 57.3151 34.112 59.0527 33.5779Z" fill="#AD511E"/>
<path d="M25.4287 60.6088C23.7303 54.6419 18.5095 53.0177 13.2903 54.2529C12.0424 54.6251 10.8581 54.3928 10.2979 54.788C9.73669 55.1791 11.8996 69.2829 24.61 65.336" fill="#EF6119"/>
<path d="M22.9014 62.8644C21.4748 57.6889 16.9612 56.4569 12.2699 56.6162C13.4757 61.0175 17.0615 66.6224 22.9014 62.8644Z" fill="#F1475D"/>
<path d="M13.2859 54.8301C17.6546 52.8969 24.1565 54.7499 22.7024 59.3994C18.9988 55.5066 13.2859 54.8301 13.2859 54.8301Z" fill="#F68A2E"/>
<path d="M12.7753 57.3477C12.8716 58.3474 15.5624 64.5216 19.8215 62.5037C19.9838 59.9237 17.0253 56.4603 12.7753 57.3477Z" fill="#F4697F"/>
<path d="M53.564 60.6088C55.2624 54.6419 60.4835 53.0177 65.7025 54.2529C66.9502 54.6251 68.1344 54.3928 68.6948 54.788C69.256 55.1791 67.0933 69.2829 54.3829 65.336" fill="#EF6119"/>
<path d="M56.0926 62.8644C57.519 57.6889 62.0328 56.4569 66.7239 56.6162C65.5181 61.0175 61.9326 66.6224 56.0926 62.8644Z" fill="#F1475D"/>
<path d="M65.7073 54.8301C61.3389 52.8969 54.8366 54.7499 56.2907 59.3994C59.9943 55.5066 65.7073 54.8301 65.7073 54.8301Z" fill="#F68A2E"/>
<path d="M66.2178 57.3477C66.1211 58.3474 63.4306 64.5216 59.1716 62.5037C59.009 59.9237 61.9678 56.4603 66.2178 57.3477Z" fill="#F4697F"/>
<path d="M29.4131 134.984C30.8883 135.592 30.9953 138.041 30.3865 138.616C29.2995 138.999 28.4904 138.487 28.301 138.217C28.0004 137.789 28.7741 136.417 28.7741 136.417C28.7741 136.417 27.4858 137.707 27.1335 137.615C26.7777 137.367 26.5841 136.581 26.7121 136.064C26.8406 135.548 27.6466 134.256 29.4131 134.984Z" fill="#954026"/>
<path d="M43.2635 138.694C44.8318 138.987 45.4409 141.361 44.9632 142.049C43.9782 142.647 43.0808 142.312 42.8399 142.086C42.4579 141.728 42.9329 140.227 42.9329 140.227C42.9329 140.227 41.9376 141.752 41.573 141.735C41.1747 141.566 40.8229 140.835 40.8419 140.305C40.8613 139.772 41.3841 138.343 43.2635 138.694Z" fill="#954026"/>
<path d="M68.9025 135.274C70.4707 135.567 71.0795 137.942 70.6019 138.63C69.617 139.226 68.7195 138.892 68.4785 138.666C68.0966 138.308 68.5714 136.808 68.5714 136.808C68.5714 136.808 67.5762 138.333 67.212 138.315C66.8132 138.146 66.4615 137.415 66.4808 136.884C66.5002 136.353 67.0232 134.924 68.9025 135.274Z" fill="#954026"/>
<path d="M55.1748 132.301C56.743 132.594 57.352 134.97 56.8744 135.657C55.8893 136.254 54.9921 135.919 54.751 135.693C54.3689 135.336 54.8439 133.835 54.8439 133.835C54.8439 133.835 53.8487 135.36 53.4846 135.342C53.0856 135.173 52.734 134.443 52.7532 133.912C52.7726 133.38 53.2958 131.95 55.1748 132.301Z" fill="#954026"/>
<path d="M45.181 61.5914C47.1514 60.3603 50.6835 62.0182 51.4297 63.3994C49.4793 59.6695 47.1457 59.2477 45.181 61.5914Z" fill="#512214"/>
<path d="M33.0996 61.5914C31.1298 60.3603 27.5972 62.0182 26.8517 63.3994C28.8021 59.6695 31.1354 59.2477 33.0996 61.5914Z" fill="#512214"/>
<path d="M42.9284 78.7108C41.9503 79.7382 36.5783 80.0925 34.6392 78.7108C34.27 79.0565 35.7938 79.7473 36.1164 79.8852C36.44 80.0236 36.7621 82.9248 38.5179 82.9754C40.3474 83.0285 40.841 80.1099 41.543 79.8852C42.739 79.5033 43.0235 78.8992 42.9284 78.7108Z" fill="#761E19"/>
<path d="M40.375 80.9884C39.8118 80.6611 38.9331 80.9884 38.6914 81.2228C38.098 80.8251 37.2823 80.6811 36.971 81.0369C37.2976 83.3673 39.7646 83.3295 40.375 80.9884Z" fill="#DF3351"/>
<path d="M68.8217 141.199C72.0042 138.981 80.0856 137.187 80.0035 143.409C78.9411 141.156 69.0653 142.048 69.0653 142.048C73.819 142.819 79.1301 143.809 77.0209 149.475C74.2155 149.64 70.2455 143.2 68.3859 142.176" fill="#B4DD2A"/>
<path d="M66.7088 141.507C63.7102 141.606 62.4257 144.483 63.2777 145.044C64.5763 145.899 65.9985 142.44 67.3992 142.241C65.8867 143.455 65.5855 146.449 67.8454 146.062C70.1048 145.675 68.401 142.214 68.401 142.214C69.5497 142.906 70.8875 145.184 72.5102 144.307C73.8771 143.569 73.1867 141.569 68.5671 141.54C70.599 140.789 74.6206 141.397 73.983 140.046C73.3458 138.693 70.4533 138.799 68.173 141.039C68.6785 138.599 65.6617 138.654 64.8235 140.023C64.4124 140.695 66.5466 141.085 66.7088 141.507Z" fill="#F7F67E"/>
<path d="M67.5428 141.131C68.2771 140.795 68.8647 141.537 67.8748 141.978C66.8847 142.418 66.7938 141.474 67.5428 141.131Z" fill="#F3691F"/>
<path d="M64.3435 136.263C65.0496 136.263 65.0496 137.254 64.3435 137.254C63.6375 137.254 63.6375 136.263 64.3435 136.263Z" fill="#F7F67E"/>
<path d="M62.7917 139.769C64.1658 139.769 64.1658 141.701 62.7917 141.701C61.4178 141.701 61.4178 139.769 62.7917 139.769Z" fill="#F7F67E"/>
<path d="M81.8484 134.346C83.2224 134.346 83.2224 136.278 81.8484 136.278C80.4745 136.278 80.4745 134.346 81.8484 134.346Z" fill="#F7F67E"/>
<path d="M23.0824 129.365C20.7618 129.043 19.4116 131.374 19.9984 131.979C20.8893 132.902 22.4551 129.825 23.5581 129.842C22.2416 130.695 21.6343 133.263 23.4219 133.234C25.2089 133.207 24.3323 129.956 24.3323 129.956C25.3989 130.754 26.3031 132.564 27.4562 132.137C28.6099 131.71 27.9796 130.177 24.5448 129.391C26.2023 129.015 29.2207 130.095 28.9002 128.829C28.5792 127.563 26.3405 127.26 24.3041 128.9C24.7563 127.565 22.3573 128.099 21.9564 128.628C21.556 129.158 23.0102 128.974 23.0824 129.365Z" fill="#F7F67E"/>
<path d="M23.768 128.962C23.0614 129.08 22.9857 130.023 23.9314 129.853C24.8776 129.683 24.488 128.842 23.768 128.962Z" fill="#F3691F"/>
<path d="M24.4833 125.579C23.471 125.43 23.2846 127.043 24.2969 127.192C25.3102 127.342 25.4966 125.728 24.4833 125.579Z" fill="#F7F67E"/>
<path d="M21.9887 127.069C21.5831 127.009 21.5089 127.656 21.9139 127.715C22.3195 127.775 22.3937 127.129 21.9887 127.069Z" fill="#F7F67E"/>
<path d="M53.7434 143.914C51.423 143.591 50.0726 145.922 50.6592 146.528C51.5502 147.451 53.1163 144.374 54.219 144.391C52.9025 145.244 52.2952 147.812 54.0829 147.783C55.8699 147.756 54.9934 144.505 54.9934 144.505C56.0599 145.303 56.9639 147.113 58.1172 146.686C59.2706 146.259 58.6404 144.726 55.2055 143.94C56.8634 143.564 59.8818 144.644 59.5613 143.378C59.2402 142.112 57.0015 141.809 54.9652 143.449C55.4172 142.114 53.0183 142.647 52.6171 143.177C52.2168 143.707 53.6711 143.524 53.7434 143.914Z" fill="#F7F67E"/>
<path d="M54.4294 143.511C53.7231 143.628 53.6469 144.571 54.5929 144.402C55.5388 144.232 55.1495 143.39 54.4294 143.511Z" fill="#F3691F"/>
<path d="M55.1442 140.128C54.1321 139.978 53.9456 141.592 54.9578 141.741C55.9711 141.891 56.1575 140.277 55.1442 140.128Z" fill="#F7F67E"/>
<path d="M52.6499 141.618C52.2446 141.558 52.17 142.204 52.5752 142.264C52.9807 142.323 53.0553 141.678 52.6499 141.618Z" fill="#F7F67E"/>
<path d="M17.6426 143.246C17.721 140.273 13.6815 135.67 11.3 137.122C16.2069 133.148 19.6027 139.032 19.1491 143.024C18.8874 140.142 21.2295 135.054 25.1348 136.836C29.0396 138.619 20.5802 140.958 20.189 143.594C22.9878 142.277 28.1937 141.265 28.9746 146.136C27.8676 145.345 21.7205 145.702 19.4727 143.497" fill="#B4DD2A"/>
<path d="M20.1889 143.594C23.8008 143.62 25.4573 147.04 24.4511 147.741C22.9226 148.811 21.068 144.34 19.3757 144.143C21.2416 145.559 21.7173 149.15 18.9835 148.754C16.2508 148.361 18.1694 144.143 18.1694 144.143C16.3941 145.008 14.689 147.273 12.9978 146.466C11.306 145.66 12.5431 143.714 17.9446 143.336C15.4714 142.498 10.6557 143.355 11.3705 141.709C12.0868 140.061 15.5702 140.098 18.3993 142.722C17.943 140.827 21.5238 142.026 22.0445 142.822C22.5642 143.619 20.3686 143.08 20.1889 143.594Z" fill="#F7F67E"/>
<path d="M19.2093 142.912C20.2703 143.212 20.2206 144.501 18.8012 144.083C17.3824 143.664 18.1274 142.605 19.2093 142.912Z" fill="#F3691F"/>
<path d="M18.1853 138.128C19.7624 138.128 19.7624 140.346 18.1853 140.346C16.6062 140.346 16.6062 138.128 18.1853 138.128Z" fill="#F7F67E"/>
<path d="M20.9351 134.135C21.8823 134.135 21.8823 135.465 20.9351 135.465C19.9898 135.465 19.9898 134.135 20.9351 134.135Z" fill="#F7F67E"/>
<path d="M23.8939 140.92C24.5253 140.92 24.5253 141.808 23.8939 141.808C23.2626 141.808 23.2626 140.92 23.8939 140.92Z" fill="#F7F67E"/>
<path d="M84.2611 137.684C84.8925 137.684 84.8925 138.573 84.2611 138.573C83.6294 138.573 83.6294 137.684 84.2611 137.684Z" fill="#F7F67E"/>
<path d="M78.6146 138.748C79.7764 139.394 78.5794 140.645 77.6631 140.259C76.7468 139.872 77.0992 137.904 78.6146 138.748Z" fill="#F7F67E"/>
</g>
<defs>
<clipPath id="clip0_365_655">
<rect width="93" height="150" fill="white" transform="matrix(-1 0 0 1 93 0)"/>
</clipPath>
</defs>
</svg>
