<svg width="135" height="138" viewBox="0 0 135 138" fill="none" xmlns="http://www.w3.org/2000/svg">
<path d="M86.3326 25.8509C86.6256 23.8561 86.8236 21.5006 85.0205 20.1309C84.3422 19.6157 83.1858 19.4936 82.7424 20.4018C82.3445 21.2169 83.224 21.883 83.8932 22.1159C84.2561 22.2422 84.8412 22.3321 85.2408 22.2235C85.2953 22.3607 85.3348 22.5018 85.3594 22.647C85.4101 22.907 85.4225 23.1813 85.4346 23.4452C85.4825 24.4938 85.3532 25.5516 85.1168 26.5722C85.042 26.8952 84.7072 27.5604 84.7754 27.8682C84.8717 28.3013 85.3822 28.1343 85.6136 27.9414C86.1821 27.4679 86.2336 26.5256 86.3326 25.8509Z" fill="#56424F"/>
<path d="M99.0698 26.5975C98.5228 25.1612 96.9054 25.2905 95.8156 25.9897C94.6303 26.7502 93.8385 27.9718 93.1596 29.1731C92.8819 29.6648 92.4687 30.2599 92.5088 30.8534C92.5728 31.8005 93.4467 30.9312 93.686 30.5685C94.49 29.3488 94.9374 27.9823 96.182 27.0876C96.3965 27.5412 97.6571 28.0113 98.1351 27.9603C98.9353 27.8752 99.3876 27.4319 99.0698 26.5975Z" fill="#56424F"/>
<path d="M117.906 76.6629C117.482 73.7602 115.51 71.4497 113.551 69.4014C111.076 66.8123 108.663 64.1791 106.283 61.5018C103.776 58.6809 101.218 55.9114 98.5595 53.2318C96.1375 50.7909 93.6923 48.2938 91.0583 46.079C90.0677 45.246 88.6564 44.2595 87.3062 44.8352C86.5901 45.1405 86.0682 45.8567 85.8492 46.588C85.7034 47.0748 85.5843 57.0371 86.64 60.7951C87.7611 64.7871 89.2829 68.6947 90.871 72.5214C91.6881 74.49 92.6141 76.4027 93.5404 78.3212C94.4262 80.1564 95.1931 82.0952 96.5956 83.6122C99.2068 86.436 103.471 88.1502 107.253 88.5069C108.203 88.5964 109.237 88.594 110.087 88.0976C110.961 87.5872 111.391 86.6216 111.508 85.6501C111.742 83.7003 110.821 81.927 110.192 80.1438C111.929 80.48 113.754 80.6436 115.498 80.2648C117.343 79.8646 118.177 78.5173 117.906 76.6629Z" fill="#B1E5E2"/>
<path d="M74.4338 38.3784C73.7017 37.9905 67.2144 34.6753 66.1621 34.1372C61.9621 31.9902 57.578 30.1781 53.1821 28.4753C48.8137 26.7833 44.3753 25.2555 39.9166 23.82C38.1859 23.2629 35.9884 22.7809 34.6777 24.4123C33.6017 25.7518 33.1288 27.7756 33.1274 29.4631C33.1235 33.9472 36.6067 37.4602 40.3067 39.4894C37.7159 39.469 35.0954 39.7072 32.6066 40.4586C31.4933 40.7947 30.2903 41.2129 29.3435 41.9069C28.3212 42.6563 28.0001 43.7914 28.0858 45.0161C28.3658 49.0178 31.294 52.0056 34.8654 53.4645C38.9756 55.1436 43.4112 54.8933 47.6091 53.6785C52.6882 52.2089 57.403 49.7637 62.1329 47.4499C64.9183 46.0872 73.8024 43.0943 74.416 42.8324C75.394 42.4153 77.2669 39.8792 74.4338 38.3784Z" fill="#B1E5E2"/>
<path d="M94.9673 40.84C95.5692 38.0031 95.5626 34.9062 94.3098 32.2383C92.9666 29.3784 90.1188 27.0834 86.8485 27.1989C85.2174 27.2567 83.7754 27.2789 82.3222 28.1469C80.8344 29.0356 79.6083 30.359 78.4935 31.6673C76.0316 34.5572 73.905 37.842 71.9837 41.1096C70.0683 44.3671 68.3438 47.8285 67.0754 51.3922C66.4972 53.0165 65.9328 54.7356 65.9703 56.4801C65.9778 56.8229 66.054 57.1606 66.0659 57.4999C66.0802 57.902 65.9287 58.1369 65.7131 58.4987C65.2302 59.3085 64.6612 60.0608 64.1366 60.843C61.9744 64.0672 60.1897 67.5597 58.2933 70.9428C56.3572 74.3966 54.3527 77.7991 52.2166 81.1332C48.1181 87.53 43.922 93.8962 39.0156 99.7113C37.8432 101.101 36.6499 102.476 35.3256 103.724C34.0836 104.894 32.7415 106.074 32.7457 107.92C32.7524 110.97 35.9222 112.134 38.465 111.301C41.1457 110.424 43.2257 108.229 45.0437 106.177C47.5824 103.313 50.1622 100.484 52.5106 97.459C54.8359 94.4638 57.0154 91.337 58.9493 88.0742C60.9669 84.6707 62.6802 81.0956 64.7492 77.7219C66.7511 74.4577 68.9865 71.3424 70.9318 68.0423C71.4275 67.201 71.9057 66.349 72.3571 65.4829C72.5201 65.1703 72.6408 64.7405 72.8542 64.4672C73.0426 64.2263 73.0144 64.2708 73.3439 64.2266C73.6315 64.188 73.9174 64.1368 74.2013 64.0766C75.9272 63.71 77.5599 62.9751 79.0725 62.0791C82.1207 60.2731 84.7998 57.8012 87.1389 55.1575C89.593 52.3839 91.7793 49.3173 93.293 45.9257C94.0212 44.2931 94.596 42.5894 94.9673 40.84Z" fill="#987B8B"/>
<path d="M82.8645 45.0879C81.8082 44.5367 80.1283 42.7254 80.1283 42.7254C80.1283 42.7254 80.9752 45.3964 82.4242 46.1007C84.2246 46.9756 86.5032 45.5309 86.5032 45.5309C86.5032 45.5309 84.526 45.7844 82.8645 45.0879Z" fill="#56424F"/>
<path d="M92.5004 56.6248C92.2316 55.3638 91.2771 54.4806 90.8565 53.3011C90.6755 52.7932 90.6163 52.2452 90.3932 51.7513C90.2587 51.4533 89.5558 50.7809 89.3163 51.4169C89.3271 51.4541 89.3432 51.439 89.3643 51.371C89.2041 51.6984 89.2477 51.926 89.3606 52.2665C89.5093 52.7152 89.6241 53.1766 89.7784 53.6228C90.0807 54.4965 90.7409 55.1635 91.133 55.9897C91.7253 57.238 91.8923 59.3872 90.4588 60.1411C89.1526 60.8284 87.2944 60.278 86.0933 59.6253C84.5262 58.7739 83.407 57.2755 82.9415 55.5625C82.8725 55.3086 82.6156 54.591 82.7249 54.3327C82.7545 54.2628 82.996 54.1302 83.0594 54.0477C83.1713 53.902 83.2534 53.7235 83.3142 53.5511C83.5458 52.8951 83.4877 52.0112 83.0766 51.4352C82.6869 50.889 81.9129 50.6354 81.3265 51.0273C80.6651 51.4695 80.7048 52.3023 81.0876 52.9085C81.1849 53.0628 81.5915 53.6246 81.5967 53.9058C81.6039 54.2985 81.6419 54.6906 81.7072 55.0776C81.8382 55.8526 82.0819 56.6077 82.4284 57.3134C83.1204 58.7222 84.2291 59.9294 85.6305 60.6518C87.1162 61.4177 89.1068 61.9423 90.7192 61.277C92.5547 60.5197 92.8714 58.3657 92.5004 56.6248Z" fill="#56424F"/>
<path d="M82.8588 64.7403C82.0306 63.3777 81.0568 61.8898 81.6553 60.241C81.7749 59.9116 81.9961 59.5741 81.9928 59.2129C81.9873 58.6092 81.7315 58.8481 81.4912 59.1844C80.9471 59.9466 80.5419 60.6774 80.563 61.6399C80.6012 63.3845 81.6346 64.5988 82.3627 66.0886C83.0977 67.5925 82.7425 69.4068 81.1045 70.1291C80.3964 70.4413 79.5825 70.4665 78.8803 70.1285C78.083 69.7448 77.5181 69.0293 76.802 68.5288C76.0291 67.9886 74.7211 67.3525 73.7771 67.7871C73.2527 68.0285 72.9344 68.6638 73.1041 69.2268C73.3205 69.9442 74.094 70.1475 74.7576 70.1648C75.1815 70.1758 75.6024 70.1141 76.0247 70.0894C76.1993 70.0792 76.3726 70.0793 76.5458 70.0559C76.8209 70.0188 76.7302 69.9029 77.0087 70.1376C77.6659 70.6917 78.3439 71.2215 79.2035 71.4042C80.8097 71.7458 82.5381 70.935 83.363 69.5292C84.2856 67.9573 83.7414 66.1927 82.8588 64.7403Z" fill="#56424F"/>
<path d="M66.1588 34.8872C65.1392 34.5405 64.2179 33.9698 63.2633 33.4822C62.3112 32.996 61.3158 32.6053 60.3237 32.2105C58.23 31.3773 56.1302 30.5599 54.0465 29.7014C49.9512 28.014 45.8973 26.2788 41.6938 24.8764C40.3296 24.4212 38.8565 23.7308 37.3902 23.9537C37.1303 23.9932 36.6347 24.0676 36.4461 24.2715C36.1165 24.6278 36.9594 24.5998 37.2157 24.6372C38.3085 24.797 39.33 25.0792 40.3641 25.4713C44.5248 27.0488 48.7047 28.5743 52.8628 30.161C55.2508 31.0724 57.6443 31.968 60.0463 32.8405C61.1444 33.2395 62.2304 33.6573 63.3035 34.1201C63.8208 34.3431 64.3455 34.5546 64.8886 34.7059C65.1256 34.772 65.3655 34.8274 65.6075 34.8704C65.6881 34.8848 66.2203 34.9081 66.1588 34.8872Z" fill="#E9FFFD"/>
<path d="M59.2832 39.6459C57.3689 39.3688 55.4329 39.3494 53.5026 39.3942C51.4516 39.4418 49.399 39.4557 47.3503 39.5721C45.2819 39.6899 43.2184 39.8796 41.1542 40.0525C39.1975 40.2162 37.3229 40.4638 35.4165 40.9493C34.4312 41.2002 33.4482 41.4597 32.4599 41.6992C31.695 41.8845 30.8581 42.0765 30.2769 42.647C29.9965 42.9225 29.9446 43.2794 30.4177 43.0497C30.8291 42.8498 31.226 42.6674 31.6673 42.5392C32.5783 42.2744 33.5245 42.1243 34.4485 41.9106C36.3457 41.4716 38.1926 41.0516 40.1387 40.8984C42.2207 40.7345 44.3007 40.5486 46.3849 40.4117C48.6605 40.2623 50.943 40.2533 53.218 40.0939C54.3246 40.0163 55.428 39.8981 56.535 39.8263C57.0552 39.7926 57.5764 39.7684 58.0977 39.7638C58.3903 39.7613 58.6831 39.7648 58.9756 39.7759C59.0176 39.7774 59.2387 39.814 59.268 39.7892C59.2879 39.7722 59.4133 39.6646 59.2832 39.6459Z" fill="#E9FFFD"/>
<path d="M109.569 83.0717C109.503 80.8021 108.112 78.5471 107.057 76.6066C105.867 74.419 104.634 72.2524 103.384 70.099C102.131 67.9424 100.867 65.7898 99.5531 63.6701C98.2401 61.5511 96.7796 59.5803 95.2818 57.5923C94.5955 56.6812 94 55.6918 93.2373 54.8405C93.0941 54.6809 92.3696 53.7983 92.1287 53.9008C91.9249 53.9876 92.7253 55.0339 92.8283 55.1991C94.1256 57.2777 95.5069 59.2875 96.8384 61.3439C99.5405 65.5173 102.016 69.8633 104.451 74.1966C105.791 76.5813 107.338 79.0375 108.188 81.6505C108.527 82.6929 108.918 83.9244 108.706 85.0284C108.675 85.1857 108.49 85.5371 108.741 85.5332C108.895 85.5307 109.14 84.9459 109.202 84.815C109.463 84.2698 109.586 83.6752 109.569 83.0717Z" fill="#E9FFFD"/>
<path d="M116.78 75.842C116.26 73.6318 114.446 71.7012 113.023 70.0116C111.419 68.1068 109.777 66.2313 108.12 64.3722C106.461 62.5103 104.791 60.655 103.079 58.8413C101.368 57.0284 99.542 55.3905 97.6759 53.743C96.8208 52.9879 96.0392 52.1379 95.1213 51.4569C94.9491 51.3291 94.0622 50.6098 93.8468 50.7585C93.6646 50.8845 94.6585 51.7492 94.7924 51.8903C96.4801 53.6666 98.2361 55.3587 99.9528 57.1063C103.437 60.6534 106.732 64.4151 109.987 68.1724C111.778 70.2403 113.786 72.3364 115.142 74.7259C115.684 75.6791 116.313 76.8074 116.326 77.9315C116.328 78.0916 116.217 78.4731 116.462 78.4189C116.612 78.3857 116.735 77.7635 116.77 77.6228C116.916 77.0369 116.918 76.4296 116.78 75.842Z" fill="#E9FFFD"/>
<path d="M74.8705 61.9943C70.428 61.575 69.9541 59.7814 69.0512 57.3474C67.8744 54.1752 69.2759 50.5727 70.7476 47.7505C71.583 46.1486 72.5582 44.6304 73.4737 43.0748C73.6789 42.7258 73.8802 42.3743 74.0717 42.0175C74.2419 41.7004 74.7186 41.0662 74.7163 40.7055C74.711 39.8865 73.5755 39.5912 73.1779 40.1375C71.8836 41.9164 71.5009 43.0542 70.7228 44.4165C69.7796 46.0679 69.0321 47.7322 68.2513 49.4671C66.7463 52.8107 66.6011 57.9956 66.3205 58.447C65.7749 59.3242 63.9734 62.5547 63.3943 63.4264C62.2212 65.1922 61.2233 67.0775 60.1552 68.9075C57.9654 72.6592 55.67 76.3487 53.4205 80.0648C51.213 83.7114 49.2036 87.5636 46.656 90.9855C45.403 92.6687 44.292 94.4912 42.9753 96.1213C41.6381 97.7766 39.0859 100.96 37.5031 102.377C35.5228 104.15 32.5602 107.618 34.304 109.566C34.7329 110.003 35.5033 110.604 36.137 110.674C37.1331 110.784 36.6374 109.732 36.4307 109.298C36.0125 108.42 35.9179 107.58 36.3664 106.69C36.8062 105.818 37.4348 105.035 38.0592 104.289C39.4027 102.685 40.7662 101.123 42.0046 99.4328C43.2353 97.7534 44.4834 96.0927 45.7171 94.4166C46.9718 92.7121 48.0934 90.9182 49.3426 89.2107C50.5938 87.5 51.8297 85.7777 53.0432 84.0399C55.5164 80.4982 57.898 76.8911 60.13 73.1923C61.2191 71.3872 62.2952 69.5747 63.3901 67.773C64.4404 66.0444 66.6817 62.4664 67.591 60.66C67.8736 60.0986 70.5513 62.9137 72.8373 63.181C73.7344 63.2858 74.6932 63.3063 75.5476 62.9711C75.8626 62.8475 76.375 62.6421 76.4329 62.2606C76.4937 61.8552 75.7781 62.0279 74.8705 61.9943Z" fill="#725767"/>
<path d="M34.582 44.6922C32.9816 43.2578 30.8163 45.873 32.5624 47.1175C34.077 48.197 35.9866 45.9512 34.582 44.6922Z" fill="#987B8B"/>
<path d="M38.9194 28.8558C39.3472 27.1164 36.7553 26.3859 36.2746 28.1481C36.0652 28.915 36.4594 29.8897 37.3186 30.0276C38.0462 30.1444 38.7517 29.5377 38.9194 28.8558Z" fill="#987B8B"/>
<path d="M106.467 84.0155C105.522 82.6609 103.285 84.4019 104.528 85.5749C105.54 86.5298 107.322 85.2407 106.467 84.0155Z" fill="#987B8B"/>
<path d="M114.885 77.0873C114.672 75.6476 112.545 76.0369 112.524 77.3866C112.498 79.052 115.112 78.6242 114.885 77.0873Z" fill="#987B8B"/>
<path d="M73.3117 46.5507C72.393 45.635 70.9122 46.1888 69.872 46.5396C68.7017 46.9343 67.5431 47.0843 66.3083 46.9991C64.2273 46.8558 61.1485 46.2627 60.2935 44.0393C59.94 43.12 60.1347 42.0358 60.6015 41.1895C61.1174 40.2542 61.9679 39.8944 63.0124 40.0728C64.0785 40.2549 65.0269 40.8496 65.9915 41.3036C67.1721 41.8596 68.397 42.3274 69.6363 42.7357C70.0931 42.886 70.5743 43.0212 71.0601 42.994C71.6202 42.9625 71.903 42.5239 71.366 42.1661C70.8443 41.8186 70.1771 41.7214 69.5866 41.5473C68.8486 41.3297 68.1274 41.0339 67.4209 40.7312C65.4753 39.8973 62.915 38.0515 60.7829 39.3715C59.0801 40.4256 58.5211 43.1417 59.4164 44.8748C60.1632 46.3201 61.7399 47.1261 63.2351 47.579C65.0625 48.1325 67.1938 48.3706 69.064 47.9025C69.4655 47.802 70.4742 47.2983 70.7988 47.4586C71.0672 47.5911 71.2911 48.0441 71.5074 48.2526C71.737 48.4741 71.9967 48.6825 72.3152 48.7531C73.6721 49.0541 74.1746 47.4107 73.3117 46.5507Z" fill="#56424F"/>
<path d="M92.4333 47.8153C96.4899 49.8337 101.409 48.1933 103.42 44.1513C105.431 40.1094 103.773 35.1965 99.7162 33.1781C95.6596 31.1597 90.7408 32.8001 88.7296 36.842C86.7185 40.884 88.3767 45.7969 92.4333 47.8153Z" fill="#EFBFA6"/>
<path d="M90.4609 34.4603C90.4609 34.4603 91.6236 32.876 94.5242 31.8956C95.8892 31.4343 97.4143 31.56 98.8042 31.9588C101.549 32.7462 103.349 34.5351 104.305 37.231C105.449 40.4537 103.468 44.0855 103.468 44.0855C103.468 44.0855 102.586 41.0565 102.181 40.3812C101.393 39.0659 100.423 37.8863 99.1926 36.9734C97.7844 35.9284 96.1214 35.1227 94.4441 34.6118C93.7058 34.3868 92.9299 34.244 92.1533 34.3353C91.8453 34.3715 91.4616 34.5571 91.1645 34.4087C90.9235 34.2881 90.4609 34.4603 90.4609 34.4603Z" fill="#D09084"/>
<path d="M97.0992 34.7051C97.5273 34.9015 98.6274 34.7121 99.5156 33.8361C100.084 33.2757 101.432 30.8707 101.432 30.8707C101.432 30.8707 101.113 34.5297 98.6755 35.5021C98.6693 35.5045 98.6719 35.5083 98.678 35.5111C99.2747 35.7983 100.088 36.4734 100.169 36.7059C100.387 36.7776 102.58 37.3106 103.833 36.2776C104.94 35.3647 106.012 33.3034 106.012 33.3034C106.012 33.3034 105.734 35.4663 104.537 36.6594C103.633 37.5604 102.526 37.9793 101.461 38.0036C101.589 38.1496 101.715 38.3712 101.87 38.4902C102.138 38.6958 103.198 39.5806 105.397 38.806C107.487 37.9609 108.674 35.7608 108.674 35.7608C108.674 35.7608 108.261 37.847 106.719 39.1698C105.693 40.0498 104.269 40.2388 102.932 40.0085C103.315 40.6448 103.468 44.0847 103.468 44.0847C103.468 44.0847 103.27 43.6328 103.203 43.415C102.947 42.5854 102.546 41.0927 102.112 40.3404C101.182 38.7239 100.318 37.8471 98.7809 36.7852C97.1013 35.6246 94.777 34.6359 92.7035 34.6292C91.5866 34.5002 90.4779 34.4397 90.4779 34.4397C90.4779 34.4397 93.647 33.1231 97.0992 34.7051Z" fill="#56424F"/>
<path d="M96.0533 42.163C97.1097 42.6886 98.3921 42.2583 98.9178 41.2019C99.4434 40.1456 99.0131 38.8631 97.9567 38.3375C96.9003 37.8118 95.6178 38.2421 95.0922 39.2985C94.5666 40.3549 94.9969 41.6374 96.0533 42.163Z" fill="#56424F"/>
<path d="M97.6647 41.2721C97.9583 41.4182 98.3148 41.2986 98.4608 41.005C98.6069 40.7114 98.4873 40.3549 98.1937 40.2089C97.9001 40.0628 97.5437 40.1824 97.3976 40.476C97.2515 40.7696 97.3711 41.126 97.6647 41.2721Z" fill="#FFE5DC"/>
<path d="M99.7772 46.5819C97.1383 47.7171 94.909 48.0484 94.909 48.0484C94.909 48.0484 98.0749 48.2574 100.13 47.1767C102.491 45.9352 102.977 43.4948 102.977 43.4948C102.977 43.4948 102.16 45.557 99.7772 46.5819Z" fill="#FFE5DC"/>
<path d="M74.0183 40.6073C78.0749 42.6257 82.9937 40.9853 85.0049 36.9433C87.016 32.9014 85.3578 27.9885 81.3012 25.9701C77.2446 23.9517 72.3257 25.5921 70.3146 29.634C68.3035 33.676 69.9617 38.5888 74.0183 40.6073Z" fill="#EFBFA6"/>
<path d="M85.8327 34.1622C85.8327 34.1622 86.4153 32.2854 85.479 29.3702C85.0383 27.9982 84.0303 26.8469 82.8834 25.9665C80.6186 24.2282 78.11 23.8447 75.3735 24.6785C72.1024 25.6752 70.3599 29.4269 70.3599 29.4269C70.3599 29.4269 73.3199 28.3354 74.1036 28.259C75.6295 28.1103 77.1549 28.1894 78.6205 28.6358C80.2981 29.1466 81.9347 30.0047 83.3426 31.0495C83.9622 31.5094 84.5385 32.0484 84.927 32.7272C85.0811 32.9963 85.16 33.4152 85.4559 33.5657C85.6958 33.6878 85.8327 34.1622 85.8327 34.1622Z" fill="#D09084"/>
<path d="M81.6875 28.9704C81.2752 28.7429 80.7732 27.7457 80.9494 26.5109C81.0621 25.721 82.1938 23.2064 82.1938 23.2064C82.1938 23.2064 79.4418 25.639 80.1093 28.1769C80.1109 28.1832 80.1063 28.1834 80.1006 28.1804C79.5147 27.8714 78.4864 27.6593 78.2535 27.6922C78.066 27.5591 76.3334 26.1127 76.4194 24.4917C76.4954 23.0591 77.5152 20.9714 77.5152 20.9714C77.5152 20.9714 75.9414 22.4808 75.6938 24.1523C75.5068 25.4149 75.8282 26.5537 76.4421 27.4248C76.2484 27.4084 75.9956 27.4392 75.8076 27.3852C75.4828 27.2918 74.1414 26.9657 73.4566 24.7373C72.8932 22.5542 73.9565 20.2916 73.9565 20.2916C73.9565 20.2916 72.5244 21.8638 72.3777 23.8901C72.2801 25.238 72.975 26.4957 73.9548 27.4333C73.2159 27.5043 70.3591 29.4265 70.3591 29.4265C70.3591 29.4265 70.8398 29.3166 71.0552 29.241C71.8745 28.9538 73.3133 28.3888 74.1756 28.2898C76.0288 28.0769 77.2476 28.2503 79.015 28.8546C80.9469 29.5151 83.1239 30.796 84.3621 32.459C85.1301 33.2802 85.8376 34.1359 85.8376 34.1359C85.8376 34.1359 85.0121 30.8054 81.6875 28.9704Z" fill="#56424F"/>
<path d="M78.7394 30.9116C79.9166 30.9929 80.8049 32.0132 80.7236 33.1902C80.6423 34.3674 79.622 35.2557 78.445 35.1745C77.2678 35.0931 76.3795 34.0728 76.4608 32.8958C76.5421 31.7186 77.5622 30.8303 78.7394 30.9116Z" fill="#56424F"/>
<path d="M79.3744 33.8469C79.642 33.98 79.9669 33.871 80.1 33.6034C80.2332 33.3358 80.1242 33.0109 79.8566 32.8778C79.589 32.7447 79.2641 32.8537 79.131 33.1212C78.9978 33.3888 79.1068 33.7137 79.3744 33.8469Z" fill="#FFE5DC"/>
<path d="M81.3632 39.3758C78.7242 40.5111 76.495 40.8424 76.495 40.8424C76.495 40.8424 79.6609 41.0513 81.716 39.9706C84.0764 38.7292 84.563 36.2887 84.563 36.2887C84.563 36.2887 83.7456 38.3509 81.3632 39.3758Z" fill="#FFE5DC"/>
<path d="M67.3651 50.8058C66.3535 50.832 65.3746 51.1555 64.359 51.1382C63.2949 51.1198 62.2529 50.8147 61.2424 50.5069C59.6363 50.0177 57.1377 48.8654 55.6937 50.328C54.4329 51.605 55.4914 53.6467 56.5884 54.6202C57.3481 55.2945 58.2747 55.7699 58.9917 56.4929C59.0867 56.5887 59.3489 56.8083 59.3273 56.9367C59.3051 57.0696 58.9093 57.3721 58.8294 57.4605C58.5673 57.7511 58.2975 58.0683 58.1856 58.4513C57.9459 59.2708 58.6934 59.7284 59.4433 59.6439C60.3811 59.5384 60.8454 58.7412 60.8025 57.8527C60.7247 56.2393 59.4414 55.3915 58.2429 54.5559C57.2901 53.8915 55.9638 52.8859 56.2296 51.5355C56.4292 50.5215 57.7635 50.7029 58.508 50.8478C59.7287 51.0854 60.876 51.5896 62.0788 51.8962C63.1093 52.1588 64.2012 52.3356 65.2623 52.1684C65.7153 52.0971 66.907 51.7895 67.3087 51.5655C67.4145 51.5065 67.7038 50.797 67.3651 50.8058Z" fill="#56424F"/>
</svg>
