<svg width="73" height="77" viewBox="0 0 73 77" fill="none" xmlns="http://www.w3.org/2000/svg">
<path d="M19.0549 53.8268C8.79366 50.9214 0.626417 40.1646 0.626417 40.1646C0.626417 40.1646 -2.94461 60.4004 15.1681 60.4199C8.46328 64.2144 7.93855 68.315 15.3624 67.1004C19.9343 65.6137 21.1733 59.6911 21.1733 59.6911L21.7368 58.4133L19.0549 53.8268Z" fill="url(#paint0_linear_334_6683)"/>
<path d="M0.402344 45.8975C0.572393 48.5065 1.25746 51.7472 2.91422 54.5068C5.0034 57.8301 8.46268 60.9298 15.1723 60.4197C14.944 60.546 10.2944 64.5883 10.2458 64.6855C10.2409 64.6952 10.2361 64.7098 10.2312 64.7195C9.95913 65.2831 9.90568 65.7835 10.0757 66.1916C10.1437 66.1819 10.3672 66.4491 10.6588 66.833C11.475 67.3334 13.0249 67.4792 15.3667 67.0953C17.4704 66.4103 18.8697 64.7875 19.7637 63.2328C20.1184 55.8624 5.57185 46.5631 0.402344 45.8975Z" fill="#4538F2"/>
<path d="M18.1992 58.379C18.1895 58.379 5.68846 60.6382 0.990234 49.6968C1.38864 51.3244 2.00082 52.9909 2.90937 54.5116C4.99855 57.8349 8.45785 60.9346 15.1675 60.4245C15.1384 60.4439 17.247 59.8657 17.247 59.8657C15.2064 65.6863 11.5187 65.7737 9.97856 65.5259C9.95427 65.7689 9.98342 65.9972 10.0709 66.1964C10.1389 66.1867 10.3624 66.4539 10.6539 66.8378C11.4701 67.3382 13.02 67.4839 15.3618 67.1001C17.4656 66.4151 18.8649 64.7923 19.7588 63.2376C19.8414 61.6731 19.239 60.0163 18.1992 58.379Z" fill="#0033A1"/>
<path d="M5.75195 49.6919C7.399 55.1626 14.3953 58.0049 17.5534 58.5733C8.77396 52.8354 5.75195 49.6919 5.75195 49.6919Z" fill="#0033A1"/>
<path d="M13.2049 60.8374C10.8826 60.8374 7.82167 60.0892 4.65875 57.2129C-1.88086 51.2758 0.368648 40.2226 0.39294 40.1157C0.412375 40.0282 0.475524 39.9554 0.562978 39.9311C0.650432 39.9068 0.742744 39.9311 0.805906 39.9991C0.922511 40.1254 12.7337 52.5439 19.3899 54.0112C19.5211 54.0403 19.6037 54.1715 19.5745 54.3027C19.5454 54.4339 19.419 54.5164 19.283 54.4873C13.0398 53.1075 2.79306 42.7636 0.781619 40.6793C0.44152 42.8122 -0.598203 51.7859 4.97942 56.8534C11.281 62.5768 17.0821 59.5596 17.1404 59.5305C17.257 59.4673 17.4076 59.511 17.4708 59.6276C17.5339 59.7442 17.4902 59.8949 17.3736 59.958C17.3444 59.9775 15.6974 60.8374 13.2049 60.8374Z" fill="#002856"/>
<path d="M13.5935 67.8292C11.7424 67.8292 10.2362 66.9789 9.93984 66.119C9.22563 64.8071 11.5966 62.8492 15.0267 60.2304C15.1336 60.1478 15.2842 60.1672 15.3668 60.2741C15.4494 60.381 15.43 60.5316 15.3231 60.6142C12.8598 62.4945 9.79893 64.8363 10.3868 65.9246C10.6249 66.6048 12.063 67.4405 13.9093 67.3336C15.6146 67.2364 19.7833 66.1335 21.6052 57.9566C21.6344 57.8254 21.7607 57.7428 21.8967 57.772C22.0279 57.8011 22.1105 57.9323 22.0814 58.0635C20.1865 66.5611 15.7555 67.7174 13.9384 67.8195C13.817 67.8292 13.7004 67.8292 13.5935 67.8292Z" fill="#002856"/>
<path d="M52.3945 67.7078C53.3468 72.2457 56.5243 74.6118 57.7244 74.3495C58.9293 74.0871 61.8736 68.2277 62.1116 64.7393C56.7186 66.6147 52.3945 67.7078 52.3945 67.7078Z" fill="#4538F2"/>
<path d="M55.3971 73.1203C54.2262 68.631 60.897 67.0859 61.5238 67.5378C62.1116 64.7393 62.1116 64.7393 62.1116 64.7393C62.1116 64.7393 55.0522 67.7953 52.3945 67.7127C52.9144 70.5695 55.3971 73.1203 55.3971 73.1203Z" fill="#0033A1"/>
<path d="M57.5103 74.6504C57.452 74.6504 57.3986 74.6455 57.3403 74.631C56.0722 74.3152 54.5126 73.5038 52.0687 67.8387C52.0104 67.7075 52.0736 67.5618 52.1999 67.5035C52.3311 67.45 52.4817 67.5083 52.5352 67.6347C54.8867 73.086 56.3103 73.8487 57.4617 74.1354C57.5492 74.1597 57.6852 74.1111 57.8456 73.9994C59.2497 73.0276 61.4458 68.344 61.8587 64.7098C61.8733 64.5689 62.0045 64.4717 62.1405 64.4863C62.2814 64.5009 62.3786 64.6272 62.364 64.7681C61.9268 68.6258 59.6335 73.3775 58.1371 74.4172C57.9136 74.5727 57.7047 74.6504 57.5103 74.6504Z" fill="#002856"/>
<path d="M59.5173 15.5169C63.1757 9.74496 59.1043 0.80522 57.2726 0.649747C55.4409 0.494273 26.3965 -3.03304 16.5385 14.8124C6.68045 32.6579 17.9426 51.9269 19.0552 53.8266C20.1678 55.7312 23.219 64.2871 34.8892 65.9827C46.5595 67.6784 59.4881 70.1028 67.6262 60.2108C69.7737 54.1279 69.7737 51.9367 69.7737 51.9367C69.7737 51.9367 72.4847 51.3682 70.8037 43.3224C71.2166 36.0249 68.1023 16.3915 59.5173 15.5169Z" fill="url(#paint1_linear_334_6683)"/>
<path d="M41.2539 15.4295C51.5394 14.4432 57.292 15.1185 59.5221 15.5169C63.1806 9.74496 59.1091 0.80522 57.2774 0.649747C55.4457 0.494273 26.4013 -3.03304 16.5433 14.8124C7.38976 31.385 16.4461 49.1819 18.6762 53.161C14.4638 35.369 27.5479 16.7413 41.2539 15.4295Z" fill="#14ADFA"/>
<path opacity="0.3" d="M60.9502 61.9164C48.0701 67.46 22.2469 62.0427 18.1074 50.0615C18.122 51.145 18.3455 52.1944 18.671 53.1613C18.8411 53.4674 18.9771 53.6957 19.0548 53.8318C19.4921 54.5848 20.2403 56.3679 21.6882 58.3599C21.7173 58.3939 21.7416 58.4182 21.7416 58.4182L21.761 58.4571C24.0008 61.4937 27.8974 64.9724 34.8889 65.9879C46.5591 67.6835 59.4877 70.1079 67.6258 60.2159C67.9854 59.2005 68.2769 58.3016 68.5295 57.4951C66.5132 59.0353 64.0013 60.5997 60.9502 61.9164Z" fill="#D33B22"/>
<path d="M28.3633 21.7698C30.6517 38.6921 45.3731 48.2003 45.3731 48.2003C45.3731 48.2003 41.7486 27.4494 45.5966 14.9727C45.5966 14.9727 34.4851 15.8666 28.3633 21.7698Z" fill="#4538F2"/>
<path d="M18.1074 42.4771C23.1603 47.0199 33.2078 47.0004 33.2078 47.0004C33.2078 47.0004 23.6316 41.0147 20.6436 32.8086C20.6436 32.8086 18.9528 35.9861 18.1074 42.4771Z" fill="#4538F2"/>
<path d="M43.5471 57.6699C44.9852 58.6611 47.1036 59.0255 47.1036 59.0255C47.1036 59.0255 50.3637 75.3696 45.6314 76.3997C40.9041 77.4297 32.5182 70.1953 35.8949 62.0086C42.8863 58.3113 43.5471 57.6699 43.5471 57.6699Z" fill="#EBB648"/>
<path opacity="0.3" d="M70.7598 39.5525C70.2448 31.2638 67.2131 17.7522 60.6103 15.7504L56.3008 15.1528C63.059 17.1108 68.5881 33.5959 70.4878 38.9598C70.5801 39.2124 70.6675 39.4116 70.7598 39.5525Z" fill="white"/>
<path opacity="0.3" d="M48.3133 59.0255C50.2324 62.1009 50.7572 67.5279 50.7572 67.5279L48.0169 67.6348C48.0169 67.6348 47.6477 61.0758 47.1035 59.0206C48.0412 58.9672 48.3133 59.0255 48.3133 59.0255Z" fill="#D33B22"/>
<path d="M45.6743 14.997C43.8183 10.153 42.594 4.03127 43.8766 0.513672C36.6277 1.13071 26.2692 3.04012 20.3369 9.7595C21.673 13.107 24.5784 18.2037 28.3098 21.7018L28.0232 22.1051C29.986 20.3949 32.3133 18.8499 35.0875 17.5575C38.6488 15.9444 42.7932 15.2108 46.8501 14.9679C46.3108 14.9582 45.8978 14.9679 45.6743 14.997Z" fill="#4538F2"/>
<path d="M18.1067 42.4768L18.2185 42.6275C18.5051 39.552 19.1805 36.0781 20.5846 32.6237L20.5797 32.6285C16.688 30.8017 14.2296 28.3627 12.7866 26.4922C12.1161 32.0115 12.8595 37.2636 14.0401 41.6752C15.2791 42.0153 16.6443 42.3068 18.1067 42.4768Z" fill="#4538F2"/>
<path opacity="0.3" d="M18.1075 50.0611C18.9238 33.9064 33.9124 18.257 46.8556 14.9629C27.6157 15.1475 19.191 31.9581 18.1075 41.2477C17.0241 50.5372 18.1075 50.0611 18.1075 50.0611Z" fill="#D33B22"/>
<path opacity="0.3" d="M60.3909 5.76104C60.3958 5.72703 60.4007 5.69788 60.4055 5.66387C59.701 2.69529 58.2338 0.727577 57.2669 0.644981C56.5721 0.586678 51.9662 0.0425193 45.9805 0.363184C54.4927 0.236862 59.1229 2.85562 60.3909 5.76104Z" fill="white"/>
<path opacity="0.3" d="M16.538 14.8126C15.3088 17.0378 14.4148 19.2873 13.7832 21.5222C20.8135 22.1587 31.9785 16.9018 36.599 13.5931C42.0163 9.72081 45.5581 5.13919 46.2529 0.353516C36.4289 0.839371 22.7181 3.62818 16.538 14.8126Z" fill="url(#paint2_linear_334_6683)"/>
<path opacity="0.3" d="M19.7204 63.3105C19.6378 63.4514 19.5552 63.5875 19.4629 63.7284C19.5503 63.5923 19.6378 63.4514 19.7204 63.3105Z" fill="#D33B22"/>
<path opacity="0.3" d="M19.293 63.981V63.9858C19.3124 63.9567 19.3318 63.9227 19.3561 63.8887C19.3367 63.9227 19.3124 63.9518 19.293 63.981Z" fill="#D33B22"/>
<path opacity="0.3" d="M19.4391 54.4777L19.342 54.3125C19.3857 54.7595 19.5897 57.5629 18.2002 58.3743C19.2351 60.0116 19.8375 61.6635 19.7647 63.2328C20.8141 61.4109 21.1785 59.6909 21.1785 59.6909L21.7421 58.4131C20.7461 57.2908 19.7501 55.1725 19.4391 54.4777Z" fill="#D33B22"/>
<path opacity="0.3" d="M58.9645 52.3455C60.5311 52.2455 61.7069 50.6882 61.5906 48.8672C61.4744 47.0462 60.1102 45.6511 58.5436 45.7511C56.977 45.8511 55.8013 47.4083 55.9175 49.2293C56.0337 51.0503 57.3979 52.4455 58.9645 52.3455Z" fill="#D33B22"/>
<path d="M61.5911 48.8614C61.6931 50.4939 60.6485 51.8932 59.2589 51.9806C57.8645 52.0681 56.6548 50.8194 56.5479 49.1821C56.4459 47.5496 57.4905 46.1504 58.88 46.0629C60.2744 45.9755 61.489 47.229 61.5911 48.8614Z" fill="#002856"/>
<path d="M71.148 45.3535C71.3084 47.8848 71.2792 49.5902 71.1966 49.8088C71.0509 50.2024 70.7642 50.6542 70.4824 51.0429C71.8477 50.9166 72.8583 49.5416 72.7562 47.9334C72.6833 46.7528 72.0323 45.7762 71.148 45.3535Z" fill="#002856"/>
<path d="M59.2689 48.4824C57.7919 49.4007 56.587 48.3367 57.7142 47.1609C58.8414 45.9851 61.3435 47.19 59.2689 48.4824Z" fill="white"/>
<path opacity="0.3" d="M56.9898 18.267C54.5703 15.5462 53.069 19.7974 56.708 23.1741C60.3471 26.5557 61.3965 23.2276 56.9898 18.267Z" fill="white"/>
<path opacity="0.45" d="M57.331 49.624C57.2339 50.6054 58.9829 51.6743 59.7797 51.1496C60.5765 50.6249 61.3442 49.5268 60.7223 48.9632C60.0664 48.3656 59.4056 49.9252 58.6525 49.7649C57.8946 49.5997 57.7829 49.1479 57.331 49.624Z" fill="#25BDEF"/>
<path opacity="0.3" d="M64.9004 49.5269C65.9158 51.65 70.8035 50.2265 70.8035 50.2265L69.7832 52.0193C69.7881 52.0193 66.2511 52.1991 64.9004 49.5269Z" fill="#D33B22"/>
<path d="M46.0488 67.926C31.8521 67.926 21.3819 62.2318 18.3793 52.6701C16.363 45.4163 18.0927 30.5345 28.2082 21.6045C33.4992 16.9355 40.8113 14.5693 49.9357 14.5693C50.0134 14.5693 50.096 14.5693 50.1737 14.5693C50.3098 14.5693 50.4166 14.6811 50.4166 14.8123C50.4166 14.9483 50.3098 15.0552 50.1737 15.0552C50.096 15.0552 50.0134 15.0552 49.9357 15.0552C40.9279 15.0552 33.7275 17.3824 28.5289 21.9689C18.5688 30.7629 16.8586 45.4017 18.8409 52.5292C21.999 62.5767 33.6644 68.2564 49.2846 67.343C57.1652 67.343 62.874 65.4093 66.2701 61.5904C70.1035 57.2809 69.5399 52.0239 69.5351 51.9705C69.5253 51.883 69.5594 51.8004 69.6322 51.747C71.0607 50.6878 70.9586 49.8522 70.9586 49.8473C70.9586 49.687 71.2939 38.2888 68.4225 28.6446C65.5073 18.8449 63.6805 16.7751 60.0074 15.8666C59.2787 15.6868 58.0057 15.5022 56.5044 15.3564C56.3684 15.3418 56.2712 15.2252 56.2858 15.0892C56.3004 14.9532 56.417 14.856 56.553 14.8706C58.0737 15.0163 59.3807 15.2058 60.1289 15.3904C63.8311 16.3038 65.8669 18.3299 68.8937 28.4988C71.7311 38.0362 71.4639 49.2594 71.4493 49.789C71.4688 49.9785 71.4833 50.9308 70.0355 52.0482C70.0986 52.9373 70.2638 57.8299 66.6442 61.9014C63.1509 65.832 57.3158 67.824 49.304 67.824C48.1963 67.892 47.1128 67.926 46.0488 67.926Z" fill="#002856"/>
<path d="M37.0701 61.1631C43.5028 57.7426 47.686 63.1502 48.0407 70.0834C48.3953 77.0165 44.353 79.6402 37.0701 71.813C32.7799 66.9836 36.1615 61.7412 36.1615 61.7412L37.0701 61.1631Z" fill="#4538F2"/>
<path d="M43.989 62.9023C40.2867 64.3793 37.8235 68.8832 38.6834 70.195C39.5483 71.5068 43.989 62.9023 43.989 62.9023Z" fill="#0033A1"/>
<path d="M45.2031 64.0781C42.1568 68.9124 40.9033 72.9547 42.7593 74.1596C44.6104 75.3645 45.2031 64.0781 45.2031 64.0781Z" fill="#0033A1"/>
<path d="M41.3894 62.3242C42.6624 61.2068 36.6572 63.3591 36.973 64.6904C37.2888 66.0167 40.7238 62.9073 41.3894 62.3242Z" fill="#0033A1"/>
<path d="M45.0774 76.6472C41.8659 76.6472 38.2122 74.3637 36.2737 71.0356C33.9173 66.9933 35.0396 63.0773 35.6712 61.9112C35.9287 61.4351 37.0656 60.8569 39.0576 59.8755C40.5006 59.1613 42.1379 58.3547 43.3672 57.5385C43.4789 57.4656 43.6295 57.4948 43.7024 57.6065C43.7753 57.7183 43.7461 57.8689 43.6344 57.9418C42.3809 58.7726 40.729 59.5888 39.2714 60.3079C37.809 61.0318 36.2931 61.7752 36.0988 62.1396C36.0793 62.1784 34.0339 66.2256 36.6915 70.7878C38.7078 74.2471 42.6432 76.5306 45.8499 76.1079C46.122 76.0739 46.3795 75.8893 46.603 75.5637C48.3277 73.1005 47.9536 64.0004 46.8605 59.0738C46.8313 58.9426 46.9139 58.8115 47.0451 58.7823C47.1811 58.7531 47.3074 58.8357 47.3366 58.9669C48.4346 63.9226 48.8622 73.1831 47.0014 75.8407C46.6953 76.2828 46.326 76.5355 45.913 76.5889C45.641 76.6278 45.364 76.6472 45.0774 76.6472Z" fill="#002856"/>
<path d="M47.2683 59.2684C44.9362 59.2684 42.9879 57.9129 42.2202 56.431C42.1571 56.3096 42.2057 56.1638 42.3223 56.1055C42.4437 56.0423 42.5895 56.0909 42.6478 56.2075C43.4543 57.7623 45.699 59.1567 48.2691 58.6902C48.3955 58.666 48.5266 58.7534 48.5509 58.8846C48.5752 59.0158 48.4878 59.1421 48.3566 59.1664C47.9873 59.2344 47.6229 59.2684 47.2683 59.2684Z" fill="#002856"/>
<path d="M69.1651 52.2335C68.1497 52.2335 66.1722 51.908 64.6952 49.6633C64.6224 49.5516 64.6515 49.4009 64.7633 49.3281C64.875 49.2552 65.0256 49.2843 65.0985 49.3961C66.9739 52.2481 69.6073 51.7282 69.719 51.7088C69.8502 51.6796 69.9814 51.7671 70.0056 51.8934C70.0348 52.0246 69.9522 52.1509 69.821 52.18C69.821 52.1849 69.5684 52.2335 69.1651 52.2335Z" fill="#002856"/>
<path d="M18.8646 53.9773C13.1121 46.3737 8.81223 28.1541 16.0903 15.1137C20.5942 7.04368 31.3948 -2.05639 57.3006 0.411751L57.3638 0.416609L57.4172 0.450619C62.0523 3.60868 61.3089 11.4212 59.7542 15.6045L59.2975 15.4344C60.7939 11.4067 61.5421 3.91477 57.1937 0.88789C36.9335 -1.02638 22.868 3.97307 16.5179 15.347C9.33696 28.2124 13.5833 46.1793 19.2581 53.681L18.8646 53.9773Z" fill="#022550"/>
<defs>
<linearGradient id="paint0_linear_334_6683" x1="0.343894" y1="53.7437" x2="21.7429" y2="53.7437" gradientUnits="userSpaceOnUse">
<stop stop-color="#F7E84F"/>
<stop offset="0.9944" stop-color="#EAB044"/>
</linearGradient>
<linearGradient id="paint1_linear_334_6683" x1="64.9239" y1="9.67315" x2="31.6914" y2="49.727" gradientUnits="userSpaceOnUse">
<stop stop-color="#F7E84F"/>
<stop offset="0.9944" stop-color="#EAB044"/>
</linearGradient>
<linearGradient id="paint2_linear_334_6683" x1="13.7835" y1="10.964" x2="46.2562" y2="10.964" gradientUnits="userSpaceOnUse">
<stop offset="0.00558659" stop-color="#FFF3FF"/>
<stop offset="1" stop-color="white"/>
</linearGradient>
</defs>
</svg>
