<svg width="137" height="191" viewBox="0 0 137 191" fill="none" xmlns="http://www.w3.org/2000/svg">
<path d="M72.6107 143.969C69.9392 147.336 49.2184 163.432 39.5942 154.548C34.4412 149.796 33.4323 142.575 32.0055 135.817C32.0074 135.811 32.0049 135.806 32.0025 135.802C31.4885 133.373 30.9635 131.544 30.5271 130.674C28.1488 125.926 23.1081 122.873 19.9805 122.228C19.8831 122.208 19.7785 122.186 19.6765 122.17C18.9089 122.046 18.7771 120.991 19.4829 120.671C26.6579 117.44 36.7325 115.699 43.8257 121.264C44.6672 121.924 45.6058 123.008 46.5191 124.456C50.4531 130.655 53.2977 139.231 55.1905 141.58C57.5182 144.473 61.6212 146.167 66.4965 143.008C71.3766 139.845 75.2821 140.603 72.6107 143.969Z" fill="#FF8D29"/>
<path d="M46.5191 124.455C45.0295 123.324 43.2105 122.627 41.3468 122.492C40.5831 122.435 39.6947 122.536 39.2633 123.167C38.9717 123.597 38.9819 124.174 39.1603 124.661C39.3428 125.145 39.5205 125.488 39.8427 125.893C38.3808 124.688 36.4302 124.095 34.5459 124.289C34.0079 124.346 33.4641 124.464 33.0008 124.745C32.5372 125.025 32.1597 125.487 32.0782 126.024C31.9939 126.556 32.2022 127.095 32.4387 127.583C33.2107 129.196 34.2525 130.605 35.5593 131.812C34.9052 131.33 33.9105 131.364 33.2166 131.827C32.4337 132.346 32.0125 133.3 31.9294 134.241C31.8896 134.719 31.9456 135.275 32.0025 135.801C31.4885 133.373 30.9635 131.544 30.5271 130.673C30.3489 130.319 30.1578 129.972 29.9519 129.64C29.8801 129.513 29.804 129.389 29.7192 129.27L29.6994 129.235C27.113 125.308 22.7811 122.805 19.9805 122.227C19.8763 122.206 19.776 122.182 19.6765 122.169C18.9089 122.046 18.7771 120.991 19.4829 120.671C26.6579 117.439 38.128 115.713 43.8257 121.263C44.5898 122.011 45.6054 123.008 46.5191 124.455Z" fill="#FFDABA"/>
<path d="M32.3116 136.347C32.2476 136.383 32.1769 136.408 32.1008 136.421C31.771 136.473 31.4584 136.258 31.389 135.931C30.8907 133.578 30.3717 131.764 29.966 130.955C29.7894 130.603 29.6048 130.272 29.4187 129.97C29.3444 129.841 29.2798 129.734 29.2075 129.633C29.1956 129.615 29.1838 129.598 29.1736 129.58C26.7656 125.921 22.6618 123.421 19.8532 122.841L19.7726 122.824C19.7127 122.811 19.6555 122.798 19.5976 122.791C18.9595 122.689 18.4892 122.204 18.4057 121.581C18.3222 120.954 18.6506 120.363 19.2237 120.1C25.906 117.091 38.087 114.798 44.2626 120.814C45.0345 121.569 46.0904 122.602 47.0492 124.12C47.2111 124.376 47.1663 124.712 46.9426 124.917C46.7224 125.121 46.3815 125.137 46.1402 124.954C44.745 123.894 43.0268 123.242 41.3011 123.116C40.8588 123.083 40.0748 123.094 39.7808 123.52C39.6038 123.781 39.6479 124.169 39.7486 124.445C39.9199 124.898 40.0731 125.176 40.3326 125.502C40.5324 125.754 40.5097 126.115 40.2811 126.339C40.0531 126.566 39.6902 126.58 39.4435 126.376C38.098 125.268 36.3361 124.734 34.6087 124.911C34.0501 124.971 33.6321 125.09 33.3245 125.281C32.9842 125.486 32.744 125.807 32.6963 126.117C32.6372 126.491 32.8174 126.929 33.0017 127.309C33.7348 128.842 34.7376 130.201 35.9828 131.351C36.2277 131.576 36.2532 131.954 36.0416 132.21C35.832 132.467 35.4541 132.514 35.1864 132.316C34.7668 132.006 34.056 132.018 33.5634 132.348C33.0051 132.719 32.6277 133.446 32.553 134.295C32.5164 134.728 32.5761 135.286 32.6251 135.734C32.6531 135.99 32.5227 136.227 32.3116 136.347ZM30.2474 128.933C30.3372 129.062 30.4188 129.195 30.4961 129.331C30.6897 129.643 30.8931 130.007 31.0868 130.393C31.3427 130.904 31.5955 131.638 31.8296 132.45C32.0954 131.979 32.4489 131.584 32.8695 131.305C33.1633 131.111 33.4905 130.976 33.8297 130.904C33.0546 129.976 32.3998 128.955 31.873 127.853C31.6052 127.302 31.345 126.639 31.4585 125.925C31.5617 125.25 32.0173 124.607 32.6759 124.209C33.1565 123.921 33.7286 123.746 34.4789 123.665C35.8298 123.526 37.1961 123.752 38.4295 124.295C38.3583 123.751 38.4676 123.225 38.7454 122.816C39.0858 122.318 39.8197 121.751 41.3933 121.866C42.3205 121.934 43.2462 122.135 44.1321 122.456C43.8658 122.179 43.614 121.933 43.3878 121.711C37.6615 116.134 26.1085 118.375 19.7407 121.243C19.6665 121.279 19.6381 121.334 19.6495 121.416C19.6646 121.533 19.7491 121.547 19.7767 121.551C19.847 121.559 19.9388 121.578 20.0327 121.598L20.1054 121.613C23.1686 122.245 27.6265 124.948 30.2234 128.891C30.2271 128.897 30.2376 128.916 30.2474 128.933Z" fill="#F5B782"/>
<path d="M61.5822 153.038C57.4443 155.387 52.7355 157.358 48.3571 157.723C44.6071 158.037 41.5181 157.125 39.1742 155.014C34.1804 150.517 32.4108 141.261 31.5602 136.813L31.3905 135.938C31.3905 135.936 31.3896 135.933 31.3895 135.93C30.8909 133.577 30.3725 131.764 29.9667 130.954C29.79 130.602 29.6054 130.271 29.4194 129.97C29.345 129.841 29.2805 129.734 29.2081 129.632C29.1962 129.615 29.1845 129.597 29.1743 129.579C26.6856 125.746 22.599 123.4 19.8558 122.841L19.7736 122.823C19.7137 122.811 19.6565 122.798 19.5986 122.79C18.9605 122.688 18.4902 122.203 18.4066 121.581C18.3231 120.954 18.6516 120.363 19.2247 120.099C25.907 117.09 38.088 114.798 44.2636 120.813C45.0354 121.568 46.0914 122.602 47.0502 124.119C49.1987 127.506 51.0488 131.644 52.5348 134.969C53.7829 137.759 54.8598 140.169 55.6791 141.185C56.6822 142.432 60.3963 146.199 66.1566 142.48C69.3884 140.383 72.5633 139.773 73.7013 141.025C74.1091 141.474 74.5729 142.504 73.1017 144.358C71.9576 145.8 67.3178 149.783 61.5822 153.038ZM32.6208 135.695L32.7915 136.579C33.5515 140.555 35.3325 149.867 40.0134 154.082C42.0895 155.953 44.861 156.758 48.2525 156.474C58.1592 155.647 70.2875 145.891 72.1199 143.579C72.8307 142.683 72.9603 142.075 72.7733 141.868C72.3518 141.405 70.108 141.416 66.8377 143.533C61.5699 146.955 57.1119 144.967 54.702 141.973C53.7809 140.829 52.7259 138.469 51.39 135.481C49.9197 132.193 48.0907 128.101 45.9899 124.79C45.1092 123.395 44.1139 122.422 43.3874 121.71C37.6611 116.133 26.108 118.374 19.7403 121.242C19.666 121.278 19.6376 121.333 19.6491 121.415C19.6642 121.532 19.7486 121.546 19.7762 121.55C19.8466 121.558 19.9383 121.577 20.0322 121.597L20.105 121.612C23.1968 122.243 27.5251 124.738 30.225 128.894C30.229 128.899 30.2386 128.916 30.2481 128.932C30.3378 129.062 30.4192 129.194 30.4966 129.33C30.6902 129.642 30.8936 130.006 31.0873 130.392C31.6748 131.565 32.2424 133.91 32.6158 135.671C32.6175 135.679 32.6189 135.687 32.6208 135.695Z" fill="#B3470E"/>
<path d="M95.0381 128.22C96.0199 130.598 105.607 155.485 105.607 155.485L100.779 159.082L84.0928 140.058L95.0381 128.22Z" fill="#FF8D29"/>
<path d="M101.087 159.627C100.832 159.772 100.505 159.721 100.307 159.495L83.6214 140.471C83.4101 140.23 83.4146 139.868 83.6321 139.632L94.5773 127.795C94.7233 127.638 94.9373 127.566 95.1485 127.603C95.3584 127.641 95.5357 127.783 95.6169 127.98C96.5902 130.338 105.8 154.243 106.192 155.26C106.293 155.522 106.206 155.82 105.982 155.987L101.153 159.584C101.132 159.6 101.11 159.614 101.087 159.627ZM84.9356 140.069L100.869 158.233L104.851 155.267C103.664 152.186 96.668 134.038 94.8244 129.373L84.9356 140.069Z" fill="#B3470E"/>
<path d="M100.779 159.082C98.3984 156.368 108.205 147.528 111.788 147.574C115.372 147.619 115.03 150.259 115.067 150.972C115.104 151.685 100.779 159.082 100.779 159.082Z" fill="#85380D"/>
<path d="M111.226 154.212C109.058 155.443 105.84 157.174 101.066 159.639C100.811 159.771 100.497 159.712 100.308 159.495C99.8386 158.961 99.4467 157.96 100.243 156.23C102.059 152.288 108.754 146.909 111.797 146.947C115.677 146.996 115.687 149.811 115.69 150.737C115.69 150.815 115.69 150.884 115.693 150.94C115.709 151.258 115.729 151.656 111.226 154.212ZM101.055 158.234C107.022 155.141 113.433 151.637 114.436 150.77C114.436 150.76 114.436 150.75 114.436 150.74C114.433 149.803 114.428 148.234 111.781 148.201C109.457 148.171 103.06 153.112 101.382 156.755C101.173 157.209 100.98 157.779 101.055 158.234Z" fill="#612404"/>
<path d="M60.5869 147.775C62.129 149.843 78.6222 170.904 78.6222 170.904L84.1862 168.604L76.3693 144.459L60.5869 147.775Z" fill="#FF8D29"/>
<path d="M84.4965 169.149C84.4742 169.162 84.4505 169.173 84.426 169.184L78.8624 171.483C78.6024 171.591 78.3027 171.511 78.1295 171.29C77.4563 170.431 61.6141 150.2 60.0854 148.15C59.9578 147.978 59.9259 147.753 60.0016 147.553C60.0768 147.354 60.2474 147.206 60.4593 147.162L76.2417 143.846C76.5547 143.78 76.8681 143.961 76.9668 144.266L84.7836 168.412C84.8752 168.697 84.7513 169.005 84.4965 169.149ZM78.8228 170.143L83.4123 168.247L75.9471 145.188L61.6877 148.184C64.7537 152.17 76.7837 167.539 78.8228 170.143Z" fill="#B3470E"/>
<path d="M84.1851 168.604C83.0702 165.159 70.4486 169.04 68.6533 172.145C66.8579 175.249 69.3028 176.315 69.8971 176.714C70.4918 177.112 84.1851 168.604 84.1851 168.604Z" fill="#85380D"/>
<path d="M74.6474 175.078C70.1443 177.634 69.8135 177.412 69.5485 177.234C69.5027 177.203 69.4434 177.168 69.3748 177.127C68.5816 176.648 66.1675 175.191 68.1115 171.831C69.6312 169.204 77.6733 166.215 81.9921 166.674C83.8987 166.876 84.5616 167.73 84.7817 168.41C84.8703 168.685 84.7609 168.984 84.5162 169.136C79.953 171.971 76.8161 173.847 74.6474 175.078ZM70.0477 176.069C71.3081 175.651 77.6034 171.943 83.3169 168.405C82.9617 168.102 82.3642 167.974 81.8605 167.92C77.8694 167.498 70.3567 170.453 69.1968 172.458C67.8691 174.754 69.2177 175.567 70.023 176.053C70.0313 176.059 70.0398 176.064 70.0477 176.069Z" fill="#612404"/>
<path d="M64.0003 92.7813L44.2828 103.973C44.9111 113.565 48.8432 138.592 52.7724 145.514C58.2391 155.145 71.0676 154.828 82.5004 148.338C93.9332 141.849 100.782 130.997 95.3159 121.366C91.3862 114.444 71.9138 98.238 64.0003 92.7813Z" fill="#FF8D29"/>
<path d="M95.3143 121.364C100.781 130.996 93.9344 141.851 82.5044 148.339C81.9265 148.667 81.348 148.981 80.7627 149.27C91.1613 142.704 97.0719 132.46 91.8804 123.313C87.9512 116.391 68.4827 100.185 60.5668 94.7328L64.0007 92.7837C71.9167 98.2361 91.3852 114.442 95.3143 121.364Z" fill="#FFA04D"/>
<path d="M70.0318 103.618C66.3707 99.839 59.5119 93.7399 56.1983 91.4549L47.1438 96.5944C47.3357 99.5246 48.1423 104.788 49.2872 110.259C49.8961 113.17 49.7488 116.234 51.0587 118.903C51.4678 119.737 52.1269 120.647 53.0555 120.613C54.0714 120.574 54.6434 119.458 55.0006 118.507C55.7111 120.79 56.9535 122.907 58.6006 124.641C59.3881 125.471 60.4249 126.264 61.557 126.102C62.4233 125.978 63.1287 125.298 63.5176 124.514C63.9065 123.729 64.0317 122.845 64.1517 121.978C64.8594 123.888 66.2116 125.553 67.9363 126.638C68.8613 127.22 70.1225 127.616 70.9968 126.961C71.6446 126.476 71.827 125.591 71.882 124.783C72.0716 122.009 71.093 119.703 70.1598 117.166C70.7198 117.749 71.3066 118.349 72.0631 118.632C72.8197 118.916 73.7979 118.782 74.2473 118.11C74.5682 117.63 74.5521 117.004 74.4627 116.434C74.2186 114.873 73.505 113.389 72.438 112.224C72.7772 112.721 73.5555 112.776 74.0467 112.428C74.5378 112.08 74.7548 111.437 74.7263 110.836C74.6981 110.235 74.4593 109.664 74.1926 109.124C73.2482 107.214 71.5148 105.149 70.0318 103.618Z" fill="#FFDABA"/>
<path d="M71.1363 127.617C70.2025 128.147 68.9058 127.988 67.6027 127.168C66.3047 126.352 65.2103 125.237 64.4116 123.937C64.3248 124.227 64.217 124.514 64.0793 124.792C63.55 125.858 62.6389 126.58 61.6457 126.721C60.5009 126.885 59.3562 126.346 58.1458 125.073C56.7769 123.632 55.6748 121.931 54.9104 120.093C54.5071 120.676 53.918 121.207 53.0793 121.239C52.3744 121.265 51.3552 120.929 50.496 119.179C49.5839 117.321 49.3434 115.293 49.1105 113.332C48.9946 112.358 48.8747 111.349 48.6738 110.387C47.5645 105.086 46.7184 99.6875 46.5183 96.6348C46.5023 96.3949 46.6253 96.1673 46.8343 96.0487L55.8888 90.9092C56.0982 90.7904 56.3564 90.8016 56.5541 90.9383C60.0024 93.3157 66.9931 99.5803 70.4817 103.182L70.482 103.182C71.6056 104.342 73.655 106.621 74.7545 108.847C75.0309 109.406 75.318 110.075 75.3524 110.806C75.3947 111.68 75.0333 112.497 74.4097 112.94C74.266 113.041 74.1022 113.123 73.9286 113.18C74.5099 114.147 74.9082 115.228 75.0823 116.337C75.1725 116.912 75.2379 117.756 74.7691 118.458C74.1172 119.434 72.8038 119.579 71.8433 119.22C71.7358 119.179 71.632 119.134 71.5304 119.084C72.1687 120.906 72.6504 122.724 72.5071 124.826C72.4521 125.634 72.2748 126.788 71.3723 127.463C71.2962 127.519 71.2179 127.57 71.1363 127.617ZM63.8419 121.433C63.9149 121.391 63.9964 121.364 64.0835 121.355C64.3691 121.324 64.6393 121.491 64.7395 121.76C65.402 123.548 66.6558 125.092 68.2699 126.107C69.0118 126.573 70.0303 126.914 70.6206 126.459C70.9892 126.183 71.1968 125.622 71.2566 124.74C71.4194 122.348 70.6433 120.264 69.8216 118.057L69.5716 117.383C69.4692 117.104 69.5759 116.792 69.8271 116.635C70.0816 116.457 70.4056 116.518 70.6111 116.732C71.0956 117.235 71.6442 117.806 72.2832 118.046C72.7755 118.23 73.4504 118.176 73.7267 117.762C73.898 117.506 73.9347 117.114 73.8435 116.531C73.6312 115.179 73.0293 113.875 72.1398 112.833C72.0573 112.756 71.9834 112.67 71.9198 112.576C71.7353 112.305 71.7915 111.936 72.0494 111.732C72.3097 111.53 72.6784 111.558 72.9007 111.801C72.9432 111.847 72.9852 111.894 73.0268 111.941C73.0894 111.986 73.164 112.005 73.2109 112.014C73.3763 112.044 73.5591 112.006 73.6838 111.917C73.9578 111.723 74.1212 111.31 74.0997 110.866C74.0764 110.366 73.8604 109.867 73.6306 109.402C72.6066 107.329 70.6541 105.161 69.5814 104.054C66.237 100.602 59.6518 94.6844 56.1621 92.1952L47.7971 96.9432C48.036 100 48.8478 105.102 49.8994 110.13C50.1125 111.147 50.235 112.182 50.3548 113.184C50.5851 115.126 50.8029 116.96 51.6203 118.627C51.8746 119.144 52.3961 120.009 53.031 119.986C53.5385 119.966 53.9904 119.411 54.4129 118.286C54.5073 118.034 54.7506 117.872 55.0177 117.879C55.2855 117.887 55.5188 118.064 55.5983 118.32C56.2799 120.511 57.4749 122.547 59.054 124.209C59.9519 125.153 60.7632 125.581 61.4671 125.481C62.1565 125.381 62.6886 124.772 62.9553 124.234C63.3033 123.534 63.4185 122.699 63.5296 121.892C63.5578 121.694 63.6765 121.527 63.8419 121.433Z" fill="#F5B782"/>
<path opacity="0.5" d="M69.959 97.2135C65.6884 102.146 61.4287 106.322 59.3302 107.513C57.3133 108.658 51.5074 110.173 45.0306 111.32C44.6679 108.434 44.4079 105.893 44.2845 103.974L63.9998 92.7836C65.5903 93.8844 67.6468 95.4124 69.959 97.2135Z" fill="#F06A22"/>
<path d="M82.8093 148.883C69.9641 156.174 57.3883 154.916 52.2271 145.823C48.1244 138.595 44.2612 113.236 43.6574 104.014C43.6414 103.774 43.7644 103.547 43.9735 103.428L63.6909 92.2361C63.9002 92.1173 64.1584 92.1285 64.3562 92.2652C71.9654 97.512 91.7587 113.831 95.8602 121.057C101.022 130.149 95.6549 141.592 82.8093 148.883ZM44.9352 104.324C45.6788 114.779 49.6364 138.72 53.317 145.205C58.9449 155.12 71.8736 153.649 82.1905 147.793C92.5075 141.937 100.398 131.591 94.7703 121.675C91.0909 115.193 72.564 99.5209 63.9668 93.5209L44.9352 104.324Z" fill="#B3470E"/>
<path d="M58.6319 44.8593C59.8649 42.0389 60.7156 36.7026 59.2078 33.1416C57.7001 29.5806 44.4732 9.01346 42.7146 9.16339C40.9559 9.31333 32.0061 25.3765 32.91 39.7582C33.4012 47.5768 58.6319 44.8593 58.6319 44.8593Z" fill="#FF8D29"/>
<path d="M58.9403 45.4048C58.867 45.4464 58.7843 45.4736 58.698 45.483C57.9139 45.5671 39.4343 47.4974 33.9092 42.8411C32.9037 41.9937 32.3565 40.9699 32.2823 39.7978C31.3969 25.7 40.2042 8.74025 42.6599 8.53927C43.1698 8.49553 44.2307 8.40558 51.5757 19.4133C55.4109 25.1617 59.0161 31.0847 59.7841 32.8973C61.4905 36.9277 60.3346 42.528 59.2051 45.1109C59.1497 45.2372 59.0562 45.339 58.9403 45.4048ZM42.7087 9.81652C40.9905 10.7918 32.6649 25.8907 33.534 39.7198C33.5861 40.5483 33.9734 41.2552 34.7171 41.8826C39.4355 45.8594 55.551 44.5229 58.1965 44.273C59.2527 41.6094 60.0391 36.7143 58.63 33.3863C56.9045 29.312 44.7328 10.9079 42.7191 9.81102C42.7149 9.813 42.7118 9.81476 42.7087 9.81652Z" fill="#B3470E"/>
<path d="M54.2874 29.3613C57.2127 33.9876 58.0097 40.0603 56.3575 44.5025C53.51 44.4389 50.5618 44.0458 47.6218 43.3447C44.3502 42.5657 41.0726 41.3857 37.9418 39.8024C37.3703 30.9386 39.1939 22.4447 43.0821 15.8111C43.1799 15.6428 43.2774 15.4746 43.3788 15.3119C45.1144 18.2645 46.0165 21.5773 45.8614 24.7805C46.3198 23.3491 47.4817 22.1471 48.7302 21.6731C50.6372 24.5827 51.887 28.2803 51.8855 31.5836C52.3842 30.5867 53.4054 29.8873 54.2874 29.3613Z" fill="#FFDABA"/>
<path d="M56.6667 45.0478C56.5703 45.1026 56.4589 45.1318 56.3433 45.1292C53.4553 45.0641 50.4721 44.6684 47.4757 43.9543C44.072 43.1436 40.7695 41.9348 37.6582 40.3621C37.4599 40.262 37.3295 40.0646 37.3156 39.8428C36.7369 30.8769 38.5928 22.2296 42.5406 15.4944C42.647 15.3109 42.7448 15.1426 42.8464 14.9802C42.9624 14.7942 43.1686 14.6821 43.3861 14.685C43.6053 14.6881 43.8067 14.8051 43.9182 14.9937C45.3407 17.4126 46.1936 19.9905 46.434 22.5568C47.0141 21.9 47.7326 21.3789 48.507 21.0866C48.782 20.982 49.0927 21.0828 49.254 21.3289C50.9618 23.9342 52.0926 27.0428 52.4159 29.925C52.9138 29.4792 53.4696 29.118 53.9653 28.8223C54.2859 28.6469 54.6348 28.7387 54.816 29.0254C57.8161 33.77 58.6713 40.0778 56.9437 44.7205C56.892 44.8627 56.792 44.9767 56.6667 45.0478ZM38.5445 39.4035C41.4748 40.8546 44.5749 41.9747 47.7664 42.735C50.5198 43.3912 53.2593 43.7702 55.9171 43.8626C57.2558 39.7856 56.5331 34.4418 54.0806 30.229C53.4363 30.6561 52.7801 31.1961 52.4452 31.8637C52.3142 32.1241 52.0237 32.2591 51.7403 32.1927C51.4575 32.1259 51.2578 31.8734 51.2582 31.5825C51.2591 28.6692 50.2331 25.3016 48.4951 22.473C47.578 22.9899 46.7893 23.9376 46.4576 24.9717C46.3609 25.2715 46.0574 25.4535 45.7491 25.3971C45.4395 25.3415 45.2197 25.0644 45.2348 24.7504C45.3661 22.0309 44.7205 19.227 43.3617 16.5818C39.7667 22.9603 38.0662 31.0221 38.5445 39.4035Z" fill="#F5B782"/>
<path d="M5.96689 74.7533C2.9132 74.3661 -2.10464 72.3608 -4.38913 69.2407C-6.67361 66.1206 -17.5518 44.2203 -16.5215 42.7872C-15.4912 41.3541 2.88879 41.9046 14.7735 50.0534C21.2346 54.4833 5.96689 74.7533 5.96689 74.7533Z" fill="#FF8D29"/>
<path d="M6.27672 75.2983C6.16078 75.3641 6.02548 75.3923 5.8883 75.3753C3.0914 75.0206 -2.30927 73.1411 -4.89417 69.6105C-6.05715 68.0226 -9.29444 61.8907 -12.264 55.6506C-17.9502 43.7013 -17.3291 42.8365 -17.0298 42.421C-15.5857 40.4219 3.48033 41.5494 15.1281 49.5359C16.0971 50.2 16.6953 51.1949 16.9077 52.4925C18.0732 59.6233 6.94226 74.5003 6.46802 75.1305C6.41578 75.1998 6.35 75.2567 6.27672 75.2983ZM-15.9682 43.1446C-16.0027 45.5341 -6.4891 65.3112 -3.88263 68.8704C-1.74873 71.7857 2.85747 73.6203 5.68631 74.0796C7.25653 71.9361 16.6659 58.782 15.6706 52.6947C15.5135 51.7345 15.1042 51.04 14.4198 50.5704C3.04882 42.7734 -14.0685 42.1477 -15.9682 43.1446Z" fill="#B3470E"/>
<path d="M-5.11147 63.0764C-2.63891 67.9597 2.16652 71.7572 6.82752 72.6159C8.23272 70.1384 9.40664 67.4056 10.3118 64.5219C11.3201 61.3135 11.9873 57.8945 12.2329 54.3947C4.9154 49.36 -3.31235 46.5714 -11.0012 46.509C-11.1958 46.5067 -11.3902 46.5042 -11.5819 46.5079C-9.93659 49.5117 -7.55465 51.9846 -4.72483 53.4935C-6.18894 53.1533 -7.81662 53.5347 -8.86362 54.3636C-7.34307 57.4926 -4.80895 60.4612 -1.97203 62.1533C-3.0836 62.0705 -4.20763 62.5887 -5.11147 63.0764Z" fill="#FFDABA"/>
<path d="M7.13635 73.1615C7.01113 73.2326 6.86183 73.2605 6.71325 73.2328C1.84145 72.3347 -3.13582 68.367 -5.67113 63.3595C-5.82254 63.0604 -5.71117 62.6963 -5.42114 62.5316C-5.41743 62.5295 -5.41371 62.5274 -5.40938 62.525C-4.90159 62.2506 -4.30652 61.9587 -3.66833 61.7599C-5.97726 60.0048 -8.06661 57.4395 -9.42775 54.6374C-9.55616 54.373 -9.48345 54.0546 -9.25264 53.8721C-8.60649 53.359 -7.78982 53.0086 -6.92824 52.8462C-9.00853 51.3239 -10.7846 49.2696 -12.1322 46.809C-12.2372 46.6168 -12.2343 46.3834 -12.1244 46.1938C-12.015 46.005 -11.8142 45.8861 -11.5943 45.8819C-11.4031 45.878 -11.2081 45.8802 -11.0132 45.8828C-3.18966 45.9464 5.18645 48.7861 12.5877 53.8791C12.7709 54.0044 12.8737 54.2179 12.8576 54.4388C12.6139 57.9167 11.9587 61.3719 10.9093 64.7103C9.98655 67.6502 8.79629 70.4148 7.37204 72.9263C7.31504 73.0261 7.23282 73.1067 7.13635 73.1615ZM-4.26125 63.3442C-1.90148 67.6096 2.31612 70.9693 6.50361 71.9099C7.7861 69.5815 8.8651 67.0349 9.71366 64.3338C10.6973 61.2037 11.3252 57.9676 11.5808 54.7081C4.62332 49.9958 -3.178 47.3224 -10.4841 47.1441C-8.90968 49.6665 -6.83335 51.6579 -4.43055 52.9403C-4.15289 53.0881 -4.02799 53.4191 -4.13891 53.7134C-4.24921 54.0074 -4.56014 54.1741 -4.86748 54.1036C-5.91716 53.8598 -7.12722 54.0442 -8.03656 54.5603C-8.04337 54.5642 -8.05048 54.5682 -8.05728 54.5721C-6.51949 57.5147 -4.15486 60.122 -1.65215 61.6143C-1.40245 61.7632 -1.28775 62.064 -1.37538 62.341C-1.46363 62.6184 -1.72864 62.7983 -2.01919 62.7776C-2.76355 62.723 -3.56366 63.0095 -4.26125 63.3442Z" fill="#F5B782"/>
<path d="M89.8325 58.1851C89.0516 57.2833 86.4447 58.268 80.2736 59.5701C82.6056 58.1312 84.5665 53.4459 81.9459 53.5839C79.4435 53.7157 73.4583 52.3879 69.915 49.7653C60.0865 41.7424 48.4553 34.8748 44.5807 34.232C35.0412 32.6491 7.35695 47.0801 3.96197 57.2877C2.7433 60.9486 2.63498 74.0353 4.32875 86.373C5.01069 90.8112 2.96561 97.0682 1.50749 99.2421C0.0456434 101.421 5.07328 102.14 7.5042 100.875L7.50438 100.876C3.2226 105.506 1.0412 107.24 1.41498 108.372C2.24114 110.875 9.76623 110.782 15.4139 110.492C17.9389 110.729 21.691 110.427 25.9371 109.792C37.3387 108.091 52.2453 104.033 56.1043 101.842C60.127 99.5592 71.1694 88.9097 78.4125 80.0345C81.0352 76.8276 83.1562 73.8531 84.2769 71.5875C87.4513 66.8642 91.5944 60.2197 89.8325 58.1851Z" fill="#FF8D29"/>
<path d="M78.453 80.0117C71.2102 88.8867 60.1675 99.5364 56.1449 101.82C52.2858 104.01 37.3792 108.068 25.9776 109.769C26.188 96.6552 35.1575 82.3538 42.6741 78.0873C50.1962 73.8177 67.0736 73.4481 78.4352 79.9932L78.453 80.0117Z" fill="#FFDABA"/>
<path d="M56.4541 102.364C52.3202 104.711 36.9861 108.76 26.0695 110.389C25.8878 110.416 25.703 110.362 25.5646 110.24C25.4262 110.119 25.3478 109.943 25.3509 109.759C25.5599 96.7283 34.5059 82.0029 42.3647 77.5421C50.2282 73.0787 67.4581 72.9464 78.7481 79.4504C78.7964 79.4786 78.8416 79.5135 78.8811 79.5536C79.106 79.7812 79.1411 80.1607 78.9384 80.4086C71.8826 89.0528 60.7461 99.9282 56.4541 102.364ZM26.6259 109.036C38.233 107.228 52.2468 103.311 55.8353 101.274C59.4937 99.1976 70.0652 89.1727 77.4976 80.1872C66.5641 74.2428 50.4098 74.4163 42.9832 78.6317C35.567 82.8416 27.1434 96.6054 26.6259 109.036Z" fill="#F5B782"/>
<path d="M79.7037 58.7466C77.2041 58.8752 71.2172 57.5459 67.6744 54.9229C57.8464 46.9022 46.2152 40.0346 42.3417 39.3937C33.8044 37.9769 10.7435 49.3802 3.55393 59.1109C3.67188 58.3666 3.80502 57.7505 3.96039 57.2874C7.35537 47.0799 35.0396 32.6489 44.5792 34.2318C48.4527 34.8727 60.0839 41.7403 69.915 49.7666C73.4577 52.3896 79.4417 53.7136 81.9469 53.5818C84.3736 53.4513 82.8646 57.4717 80.778 59.2038C80.5874 58.8938 80.2439 58.7209 79.7037 58.7466Z" fill="#FFA04D"/>
<path d="M87.8674 65.8532C88.1109 64.771 88.0641 63.8892 87.5893 63.3443C86.8122 62.4449 84.2059 63.4271 78.035 64.7317C79.7803 63.6543 81.3121 60.7669 80.8829 59.4395C86.6165 58.2029 89.0735 57.3128 89.8296 58.1882C90.9355 59.4631 89.7149 62.556 87.8674 65.8532Z" fill="#FFA04D"/>
<path d="M56.413 102.387C52.2797 104.733 36.9453 108.783 26.0284 110.411C21.4073 111.103 17.8316 111.342 15.4001 111.12C5.93022 111.605 1.56877 110.841 0.819076 108.569C0.4237 107.371 1.51589 106.236 4.15479 103.497C4.58003 103.055 5.03522 102.583 5.52496 102.069C3.77997 102.269 1.865 101.96 1.03482 101.032C0.496619 100.429 0.478679 99.6502 0.986364 98.8931C2.26525 96.9861 4.38523 90.8725 3.70844 86.4687C1.9663 73.7778 2.13051 60.8033 3.36649 57.09C6.82788 46.6833 34.8427 31.9812 44.6825 33.614C48.986 34.3277 60.9618 41.6481 70.3107 49.2801C73.605 51.7175 79.3883 53.0912 81.9124 52.9581C82.8226 52.9104 83.4828 53.3259 83.7236 54.0972C84.0949 55.2858 83.3783 57.0886 82.3118 58.483C83.0047 58.326 83.6427 58.1781 84.2407 58.039C87.9458 57.1775 89.4791 56.8214 90.3052 57.7748C91.8854 59.6002 90.2449 63.826 84.8188 71.9028C83.7348 74.0826 81.7425 76.9517 78.8966 80.4317C71.8415 89.0755 60.7049 99.9509 56.413 102.387ZM21.2041 42.5258C13.2176 47.0591 6.1175 52.7882 4.55583 57.4856C3.36545 61.061 3.28049 74.1377 4.94878 86.2879C5.63093 90.7272 3.67481 97.1345 2.02731 99.5912C1.77074 99.974 1.89035 100.108 1.96969 100.196C2.65722 100.965 5.58913 101.165 7.21466 100.319C7.48478 100.179 7.81665 100.253 8.00183 100.495C8.18639 100.737 8.17055 101.077 7.96388 101.301C6.85005 102.505 5.89744 103.494 5.05749 104.366C3.26631 106.227 1.85084 107.696 2.0094 108.176C2.36158 109.243 4.96695 110.402 15.3808 109.866C15.411 109.865 15.4414 109.865 15.4719 109.868C17.7704 110.084 21.3569 109.843 25.843 109.172C37.5886 107.42 52.129 103.377 55.7939 101.297C59.5302 99.1763 70.4767 88.7656 77.9261 79.638C80.6887 76.2597 82.6906 73.3794 83.7141 71.3091C83.7263 71.2846 83.74 71.2605 83.7557 71.2377C88.5542 64.0984 90.4387 59.8453 89.3577 58.5955C89.0268 58.2135 87.0397 58.6754 84.5244 59.2597C83.3446 59.5341 82.0074 59.8446 80.4018 60.1836C80.1039 60.2464 79.8036 60.0854 79.6903 59.803C79.5775 59.5199 79.684 59.197 79.9439 59.0368C81.502 58.0756 82.8336 55.4548 82.5271 54.4705C82.4914 54.3571 82.438 54.1859 81.9781 54.2098C79.2057 54.3555 73.1328 52.9274 69.5409 50.2689C59.621 42.172 48.1351 35.4567 44.4774 34.8502C39.6905 34.0556 29.9188 37.5793 21.2041 42.5258Z" fill="#B3470E"/>
<path d="M28.3783 96.0529C33.6641 93.0526 35.5169 86.3354 32.5166 81.0496C29.5163 75.7637 22.7991 73.9109 17.5132 76.9112C12.2274 79.9115 10.3746 86.6288 13.3749 91.9146C16.3752 97.2005 23.0925 99.0532 28.3783 96.0529Z" fill="white"/>
<path d="M28.6874 96.5986C23.1095 99.7646 15.9957 97.802 12.8297 92.2241C9.66358 86.6462 11.6257 79.5327 17.2035 76.3666C22.7814 73.2006 29.8955 75.1623 33.0616 80.7402C36.2277 86.3181 34.2653 93.4325 28.6874 96.5986ZM17.8222 77.4565C12.8454 80.2814 11.0945 86.6283 13.9196 91.6054C16.7447 96.5825 23.0915 98.3334 28.0686 95.5083C33.0457 92.6833 34.7963 86.3358 31.9714 81.359C29.1465 76.3822 22.799 74.6316 17.8222 77.4565Z" fill="black"/>
<path d="M29.1924 82.9336C30.3925 85.0479 29.6498 87.7302 27.5355 88.9303C25.4246 90.1284 22.7408 89.391 21.5407 87.2768C20.3426 85.1659 21.0834 82.4802 23.1943 81.282C24.2703 80.6713 25.4943 80.5611 26.593 80.8842C26.2872 82.3808 26.4119 83.6059 26.9255 83.7445C27.3767 83.8689 27.9894 83.1361 28.4758 81.9901C28.7496 82.2651 28.9922 82.5808 29.1924 82.9336Z" fill="black"/>
<path d="M65.433 75.0202C70.7188 72.0199 72.5716 65.3027 69.5713 60.0169C66.571 54.731 59.8538 52.8782 54.5679 55.8785C49.2821 58.8788 47.4293 65.5961 50.4296 70.8819C53.4299 76.1677 60.1471 78.0205 65.433 75.0202Z" fill="white"/>
<path d="M65.7427 75.5655C60.1648 78.7316 53.0504 76.7692 49.8843 71.1913C46.7183 65.6134 48.6809 58.4997 54.2588 55.3336C59.8367 52.1675 66.9502 54.1296 70.1163 59.7075C73.2823 65.2854 71.3206 72.3994 65.7427 75.5655ZM54.8775 56.4235C49.9007 59.2484 48.1495 65.5954 50.9746 70.5725C53.7996 75.5497 60.1471 77.3002 65.1239 74.4753C70.1007 71.6504 71.8513 65.3029 69.0264 60.3261C66.2015 55.3493 59.8543 53.5986 54.8775 56.4235Z" fill="black"/>
<path d="M61.4019 64.6513C62.602 66.7656 61.8593 69.4479 59.7484 70.6461C57.6375 71.8443 54.9537 71.1069 53.7536 68.9926C52.5555 66.8817 53.2963 64.196 55.4072 62.9978C56.4798 62.389 57.7004 62.2808 58.8006 62.5986C58.4967 64.0985 58.6248 65.3217 59.1384 65.4603C59.5862 65.5867 60.1988 64.8539 60.6872 63.7112C60.961 63.9862 61.2017 64.2985 61.4019 64.6513Z" fill="black"/>
<path d="M28.7454 66.3011C29.1681 67.2921 27.8533 68.8029 25.8082 69.6755C23.7631 70.5481 21.7622 70.4521 21.3395 69.4611C20.9168 68.4701 22.2317 66.9593 24.2768 66.0867C26.3221 65.2144 28.3224 65.3103 28.7454 66.3011Z" fill="#D6530C"/>
<path d="M26.9624 69.8038C26.6786 69.9649 26.3755 70.1153 26.0535 70.2523C23.615 71.2939 21.3397 71.0601 20.7625 69.7083C20.1862 68.356 21.5882 66.5492 24.0304 65.5113C26.4695 64.4694 28.7449 64.7039 29.3222 66.0552C29.3216 66.0556 29.3219 66.0562 29.3219 66.0562C29.8224 67.2296 28.8293 68.7441 26.9624 69.8038ZM23.7448 67.0478C22.3704 67.8279 21.7348 68.7925 21.9157 69.2164C22.1275 69.7126 23.6539 69.9141 25.5619 69.0996C27.4683 68.2837 28.3805 67.0452 28.1689 66.5471C27.9562 66.0506 26.4306 65.8491 24.5224 66.6632C24.2415 66.7834 23.9823 66.913 23.7448 67.0478Z" fill="#A33F0A"/>
<path d="M45.8148 56.6117C46.2378 57.6025 44.9226 59.1135 42.8775 59.9861C40.8324 60.8587 38.8316 60.7626 38.4089 59.7716C37.9862 58.7806 39.3011 57.2698 41.3461 56.3972C43.3914 55.5249 45.3921 55.6206 45.8148 56.6117Z" fill="#D6530C"/>
<path d="M44.0319 60.114C43.7481 60.2751 43.445 60.4254 43.123 60.5624C40.6845 61.604 38.4092 61.3702 37.832 60.0184C37.5282 59.3061 37.7574 58.4573 38.4787 57.6293C39.0942 56.9218 40.0242 56.2778 41.0996 55.8216C43.5387 54.7797 45.8141 55.0142 46.3911 56.3657C46.3905 56.3661 46.3908 56.3667 46.3908 56.3667C46.8919 57.5397 45.8985 59.0544 44.0319 60.114ZM40.8344 57.3486C40.2611 57.674 39.7672 58.0578 39.4245 58.4522C39.0532 58.8792 38.8846 59.2901 38.9852 59.5257C39.197 60.0228 40.7229 60.2241 42.6311 59.4099C44.5381 58.5937 45.4497 57.3555 45.2381 56.8574C45.0254 56.3609 43.4998 56.1594 41.5916 56.9735C41.3292 57.0861 41.0749 57.212 40.8344 57.3486Z" fill="#A33F0A"/>
<path d="M49.3056 79.4824C50.1099 80.8995 48.0879 84.7139 47.4542 85.8446C47.3979 85.9485 47.3124 86.0261 47.214 86.0819C47.116 86.1375 47.0052 86.1714 46.8872 86.1664C45.5859 86.134 41.2799 85.9115 40.4755 84.4944C40.2404 84.0801 40.1787 83.654 40.2995 83.2322C40.5862 82.1758 41.914 81.4295 43.5929 80.4765L44.258 80.099C45.9282 79.1436 47.2528 78.3918 48.3123 78.684C48.7361 78.7967 49.0706 79.0684 49.3056 79.4824Z" fill="black"/>
<path d="M48.4463 96.1819C48.3329 96.2463 48.1984 96.276 48.0588 96.2583C47.7155 96.2153 47.4721 95.9017 47.5158 95.558C48.0697 91.1588 50.8394 87.1542 54.7969 85.1164C55.1041 84.9567 55.4827 85.0771 55.6415 85.3843C55.8004 85.6915 55.686 86.0777 55.3736 86.2289C51.8016 88.0859 49.2628 91.7186 48.759 95.715C48.7334 95.9192 48.6124 96.0877 48.4463 96.1819Z" fill="black"/>
<path d="M62.4392 87.3619C62.7315 86.51 55.7115 88.5982 56.6882 89.3119C61.9001 99.0415 71.046 105.909 78.8072 108.527C81.4361 109.413 84.3044 108.136 85.4381 105.604C85.4585 105.558 85.479 105.512 85.4995 105.466C86.9544 102.207 84.9127 98.4301 81.3801 97.9223C73.7268 96.8227 67.2027 93.1124 62.4392 87.3619Z" fill="#FF8D29"/>
<path d="M83.4763 108.66C82.04 109.475 80.2854 109.687 78.6076 109.122C69.7267 106.126 60.9359 98.5092 56.1848 89.6995C55.9405 89.4327 55.8979 89.0529 56.0919 88.7233C56.7237 87.6505 61.7212 86.2198 62.6278 86.6372C62.8453 86.7374 62.9924 86.9115 63.0494 87.115C67.7583 92.7252 74.1236 96.2472 81.4703 97.303C83.3363 97.5712 84.9305 98.6765 85.8454 100.334C86.7701 102.011 86.8528 103.975 86.073 105.723L86.0123 105.858C85.4624 107.086 84.5606 108.045 83.4763 108.66ZM57.3517 89.2216C62.9527 99.5271 72.5006 105.739 79.0085 107.934C81.3364 108.718 83.8559 107.607 84.8671 105.349L84.9272 105.214C85.5461 103.826 85.4805 102.269 84.7473 100.939C84.0247 99.6288 82.7648 98.7561 81.2919 98.5444C73.575 97.435 66.8967 93.715 61.9751 87.7849C61.0744 87.815 58.1947 88.6756 57.3517 89.2216Z" fill="#B3470E"/>
<path d="M56.5871 89.5763C55.2968 89.4264 54.2192 88.9359 53.5682 88.3141C52.9167 87.6921 52.3841 86.9122 52.2072 86.0294C52.0304 85.1466 52.2551 84.1561 52.9133 83.5417C53.5714 82.9273 54.6814 82.7977 55.3851 83.3598C55.014 82.4474 55.1431 81.3353 55.7603 80.568C56.3775 79.8007 57.4744 79.4364 58.4125 79.7372C59.3502 80.0381 60.041 81.0138 59.9588 81.9955C60.2459 81.274 61.0409 80.8114 61.8164 80.8495C62.5919 80.8876 63.3303 81.3769 63.6827 82.0689C64.7535 84.1707 64.2131 85.9995 63.5538 87.0139C62.1279 89.2071 58.6309 89.8135 56.5871 89.5763Z" fill="#85380D"/>
<path d="M62.1703 89.0927C60.3318 90.1362 57.9683 90.3678 56.5138 90.1988C55.1544 90.0415 53.9221 89.5199 53.1342 88.7677C52.31 87.9804 51.7765 87.0764 51.592 86.1522C51.3589 84.991 51.7004 83.8152 52.4845 83.0835C53.0541 82.5521 53.8257 82.3133 54.5505 82.3846C54.5277 81.5853 54.7761 80.7906 55.2712 80.1748C56.0641 79.19 57.4339 78.764 58.6035 79.1406C59.3632 79.3843 59.9781 79.9519 60.3135 80.6466C60.7597 80.3516 61.3011 80.1955 61.8466 80.2232C62.8429 80.2721 63.7826 80.8847 64.2405 81.7837C65.6508 84.5521 64.4733 86.7479 64.0785 87.3546C63.5994 88.0922 62.9297 88.6616 62.1703 89.0927ZM53.5923 83.8157C53.5017 83.8671 53.4166 83.9289 53.3396 84.0008C52.8781 84.4316 52.6748 85.179 52.8208 85.9064C52.9901 86.7543 53.5553 87.4375 54.0001 87.8616C54.5857 88.4209 55.5795 88.8293 56.6588 88.9546C58.5456 89.1738 61.7674 88.6104 63.0279 86.6726C63.3292 86.208 64.2286 84.5242 63.1235 82.354C62.8699 81.8561 62.3315 81.5031 61.7841 81.4757C61.2572 81.4498 60.7207 81.7731 60.5407 82.2273C60.4253 82.5152 60.1176 82.6759 59.8144 82.6056C59.5122 82.5343 59.3072 82.2529 59.3337 81.9431C59.3898 81.2706 58.8901 80.5494 58.2201 80.3349C57.5444 80.1175 56.7156 80.3823 56.2474 80.9612C55.7859 81.5354 55.6719 82.4047 55.9646 83.1249C56.0722 83.3888 55.9874 83.6924 55.7592 83.8629C55.5297 84.0275 55.2158 84.0291 54.9925 83.8504C54.6298 83.56 54.0437 83.5595 53.5923 83.8157Z" fill="#612404"/>
<path d="M42.4152 98.7277C41.5338 98.542 46.9255 93.5851 47.0377 94.7896C52.7196 104.252 53.9278 115.626 52.1961 123.631C51.6093 126.343 49.0426 128.151 46.2872 127.826C46.2377 127.82 46.1877 127.814 46.1377 127.808C42.5936 127.387 40.3973 123.698 41.7722 120.404C44.7512 113.269 44.9102 105.766 42.4152 98.7277Z" fill="#FF8D29"/>
<path d="M49.915 127.709C48.8319 128.324 47.5472 128.606 46.213 128.449L46.0604 128.431C44.1621 128.205 42.5184 127.127 41.5522 125.473C40.5979 123.838 40.4665 121.902 41.193 120.163C44.0527 113.314 44.2919 106.043 41.8891 99.1239C41.7436 98.9706 41.6698 98.7549 41.6953 98.5168C41.8021 97.5245 45.5933 93.9655 46.8371 93.9745C47.2192 93.9771 47.5237 94.2082 47.6276 94.5548C52.7556 103.151 54.7895 114.603 52.8084 123.764C52.4333 125.495 51.3512 126.894 49.915 127.709ZM43.0147 98.5451C45.5833 105.811 45.3536 113.452 42.35 120.646C41.7767 122.02 41.8805 123.548 42.6349 124.841C43.4009 126.152 44.7039 127.007 46.2105 127.186L46.3626 127.205C48.8175 127.493 51.0622 125.901 51.5828 123.499C53.0342 116.787 52.5952 105.405 46.6182 95.3125C45.7158 95.7565 43.5024 97.7875 43.0147 98.5451Z" fill="#B3470E"/>
<path d="M47.3168 94.8362C47.8496 93.6516 47.9809 92.4749 47.7807 91.5972C47.5806 90.7189 47.1841 89.8619 46.5168 89.2574C45.8496 88.653 44.8839 88.3381 44.0186 88.5884C43.1537 88.8386 42.4734 89.7251 42.5952 90.6175C42.0021 89.8311 40.9811 89.3719 40.0059 89.5085C39.0307 89.645 38.1556 90.4001 37.9329 91.3596C37.7105 92.319 38.1942 93.4124 39.0791 93.8451C38.3125 93.7217 37.5077 94.1671 37.1429 94.8525C36.7781 95.5379 36.8196 96.4227 37.2332 97.08C38.4888 99.0769 40.336 99.5504 41.545 99.5044C44.1593 99.4043 46.4727 96.7127 47.3168 94.8362Z" fill="#85380D"/>
<path d="M44.0389 99.3825C43.2792 99.8137 42.4469 100.097 41.5685 100.13C40.8452 100.158 38.3563 100.044 36.7023 97.4134C36.1655 96.5591 36.121 95.4385 36.5897 94.558C36.8494 94.0684 37.2562 93.6854 37.7351 93.4524C37.3136 92.8091 37.1429 91.9927 37.3231 91.2175C37.5997 90.0209 38.6656 89.0618 39.9193 88.8873C40.702 88.7783 41.5117 88.9724 42.1861 89.4015C42.4968 88.7424 43.099 88.2023 43.8453 87.9859C44.8752 87.6879 46.06 87.997 46.9382 88.7928C47.6362 89.4248 48.139 90.3466 48.3922 91.4575C48.6341 92.5197 48.4501 93.8448 47.8883 95.0929C47.2879 96.4284 45.877 98.3392 44.0389 99.3825ZM38.2178 94.6183C38.0017 94.7409 37.8149 94.9238 37.6966 95.1455C37.439 95.6294 37.4665 96.2728 37.764 96.7458C39.0608 98.8072 40.9677 98.8981 41.521 98.8776C43.8315 98.7881 45.9661 96.3108 46.7455 94.579C47.191 93.5886 47.3502 92.5257 47.17 91.7359C47.034 91.1369 46.737 90.301 46.0969 89.7213C45.5466 89.2229 44.8003 89.0145 44.1939 89.1899C43.5887 89.3646 43.1416 89.9785 43.2172 90.5316C43.2562 90.8149 43.092 91.0847 42.8349 91.1963C42.5715 91.3049 42.2674 91.222 42.096 90.9943C41.6279 90.3741 40.823 90.0264 40.0932 90.1279C39.3558 90.2325 38.7042 90.8088 38.5445 91.4996C38.3847 92.1855 38.7489 92.9841 39.3546 93.2805C39.6337 93.4164 39.7706 93.7369 39.6767 94.033C39.5823 94.3278 39.287 94.5118 38.9801 94.4624C38.7272 94.4223 38.455 94.4836 38.2178 94.6183Z" fill="#612404"/>
</svg>
