<svg width="70" height="130" viewBox="0 0 70 130" fill="none" xmlns="http://www.w3.org/2000/svg">
<path d="M44.7287 117.628C40.4756 114.945 47.9138 106.109 53.7698 110.028C58.1193 112.939 66.2468 120.304 66.2468 120.304L69.1112 122.822L66.6427 127.75C66.6427 127.75 64.9788 127.111 62.5264 126.116C57.3677 124.025 49.1725 120.432 44.7287 117.628Z" fill="#F49004"/>
<path d="M50.5965 109.469C49.4442 109.469 48.4506 109.844 47.8073 110.168C45.6682 111.244 43.9902 113.412 43.9031 115.211C43.8597 116.107 44.2148 116.799 44.9571 117.268C49.0936 119.878 56.8284 123.345 62.687 125.72C64.4511 126.436 65.8174 126.971 66.4353 127.212L68.5834 122.924L65.9659 120.624C65.8804 120.546 57.8069 113.243 53.5335 110.383C52.5181 109.703 51.5078 109.469 50.5965 109.469ZM66.6429 128.176C66.5918 128.176 66.5401 128.166 66.49 128.148C66.4733 128.141 64.7946 127.496 62.3663 126.511C56.4734 124.122 48.6862 120.629 44.5014 117.989C43.5088 117.363 42.9934 116.362 43.0513 115.17C43.1531 113.054 44.9924 110.63 47.4236 109.406C49.6993 108.26 52.0374 108.355 54.0071 109.674C58.3326 112.568 66.4524 119.914 66.5337 119.988L69.3929 122.501C69.5384 122.629 69.5796 122.838 69.4928 123.012L67.0237 127.94C66.9504 128.088 66.8004 128.176 66.6429 128.176Z" fill="#C75314"/>
<path d="M66.2468 120.304L69.1111 122.822L66.6427 127.75C66.6427 127.75 64.9788 127.111 62.5264 126.116L66.2468 120.304Z" fill="#9E3F10"/>
<path d="M63.1622 125.913C64.695 126.531 65.8737 126.993 66.4347 127.211L68.5828 122.924L66.3383 120.952L63.1622 125.913ZM66.6423 128.176C66.5912 128.176 66.5395 128.166 66.4893 128.148C66.4726 128.141 64.794 127.496 62.3657 126.511C62.2484 126.463 62.1581 126.366 62.1195 126.245C62.0813 126.124 62.0986 125.993 62.1671 125.886L65.8872 120.075C65.9543 119.97 66.0639 119.9 66.1869 119.882C66.31 119.865 66.4344 119.902 66.5276 119.984L69.3919 122.501C69.5375 122.629 69.5786 122.838 69.4919 123.012L67.0227 127.94C66.9498 128.088 66.7997 128.176 66.6423 128.176Z" fill="#6B240A"/>
<path d="M30.8378 117.628C35.0907 114.945 27.6528 106.109 21.7965 110.028C17.4469 112.939 9.31943 120.304 9.31943 120.304L6.45508 122.822L8.9242 127.75C8.9242 127.75 10.5877 127.111 13.0398 126.116C18.1992 124.025 26.3941 120.432 30.8378 117.628Z" fill="#F49004"/>
<path d="M6.98332 122.924L9.13079 127.211C9.74904 126.971 11.1153 126.436 12.8788 125.72C18.738 123.345 26.4725 119.878 30.6094 117.268C31.3516 116.799 31.7061 116.107 31.663 115.211C31.5766 113.412 29.8976 111.244 27.7591 110.168C26.6075 109.588 24.3324 108.844 22.0333 110.383C17.7602 113.243 9.68669 120.547 9.60572 120.62L6.98332 122.924ZM8.92353 128.176C8.7664 128.176 8.61633 128.088 8.5421 127.941L6.07329 123.012C5.98686 122.839 6.02767 122.629 6.17291 122.501L9.03728 119.984C9.11408 119.915 17.2335 112.569 21.559 109.674C23.5291 108.356 25.8668 108.261 28.1422 109.406C30.5737 110.63 32.4127 113.054 32.5149 115.17C32.5724 116.362 32.0576 117.364 31.0644 117.99C26.88 120.63 19.0921 124.122 13.1992 126.511C10.7712 127.496 9.09288 128.142 9.07585 128.148C9.02636 128.166 8.97462 128.176 8.92353 128.176Z" fill="#C75314"/>
<path d="M9.31945 120.304L6.45508 122.822L8.92389 127.75C8.92389 127.75 10.5877 127.111 13.0398 126.116L9.31945 120.304Z" fill="#9E3F10"/>
<path d="M6.98332 122.924L9.13079 127.211C9.69184 126.993 10.8705 126.531 12.4036 125.913L9.22784 120.952L6.98332 122.924ZM8.92353 128.176C8.7664 128.176 8.61633 128.088 8.5421 127.941L6.07329 123.012C5.98686 122.839 6.02767 122.629 6.17291 122.501L9.03728 119.984C9.13079 119.903 9.25676 119.865 9.37854 119.883C9.50129 119.9 9.61086 119.97 9.67802 120.075L13.3984 125.886C13.4665 125.993 13.4842 126.124 13.446 126.245C13.4074 126.366 13.3171 126.463 13.1995 126.511C10.7715 127.496 9.09288 128.142 9.07585 128.148C9.02636 128.166 8.97462 128.176 8.92353 128.176Z" fill="#6B240A"/>
<path d="M54.9151 109.685C55.0982 119.078 47.0604 123.621 37.7809 123.621C28.5824 123.621 20.4646 119.123 20.6516 109.685C20.8293 100.63 26.1859 92.9842 28.3141 88.0478C30.5124 83.0116 30.6679 74.8597 30.6679 69.2935H44.8981C44.8981 74.5968 45.0501 82.4219 46.9659 87.3657C48.8978 92.3078 54.73 100.265 54.9151 109.685Z" fill="#FFBF4D"/>
<path d="M37.78 117.779C45.2205 117.779 47.9213 112.27 47.2195 108.343C46.0913 102.028 42.5933 92.3007 37.7823 92.302C32.9523 92.302 29.2435 103.596 28.3406 108.343C27.5954 112.261 30.3402 117.779 37.78 117.779Z" fill="#FFD894"/>
<path d="M37.7825 92.7281C33.5143 92.7265 29.8003 102.949 28.7595 108.422C28.3771 110.435 28.9745 112.634 30.3584 114.306C31.5088 115.695 33.7302 117.352 37.78 117.352C41.7947 117.352 44.0045 115.719 45.1517 114.349C46.5488 112.68 47.1652 110.463 46.7998 108.417C45.7159 102.351 42.3088 92.7275 37.7828 92.7275L37.7825 92.7281ZM37.78 118.205C33.3986 118.205 30.9683 116.38 29.7016 114.85C28.1573 112.984 27.4925 110.522 27.9221 108.263C28.5799 104.801 32.1817 91.8753 37.7771 91.8753H37.779C42.8657 91.8753 46.4624 101.678 47.6398 108.268C48.0485 110.559 47.3631 113.036 45.8059 114.897C44.5421 116.406 42.1244 118.205 37.78 118.205Z" fill="#F49004"/>
<path d="M45.5295 81.3273C44.5659 81.3698 43.5765 81.0924 42.8605 80.4485C41.5553 79.2676 41.5126 77.1012 42.4213 75.5919C43.0096 74.607 43.9177 73.8647 44.9412 73.3232C45.0093 75.8393 45.1632 78.6622 45.5295 81.3273Z" fill="#F49004"/>
<path d="M44.5364 74.0545C43.7748 74.55 43.1877 75.139 42.7864 75.8103C42.021 77.0827 41.9461 79.0467 43.1456 80.1328C43.6321 80.5698 44.3063 80.8372 45.0415 80.8937C44.7892 78.9092 44.6228 76.6602 44.5364 74.0545ZM45.3378 81.7578C44.2799 81.7578 43.2822 81.4021 42.5743 80.7662C41.0483 79.3844 41.1122 76.9385 42.0547 75.3713C42.6373 74.3974 43.5409 73.5805 44.741 72.9462C44.8712 72.8771 45.0277 72.8803 45.1556 72.9549C45.2828 73.0288 45.3628 73.1638 45.367 73.3109C45.4509 76.4176 45.6421 79.0207 45.9515 81.2684C45.9679 81.3876 45.9335 81.5072 45.8564 81.5997C45.7799 81.6919 45.6675 81.7472 45.5479 81.753C45.4776 81.7565 45.4078 81.7578 45.3378 81.7578Z" fill="#F07800"/>
<path d="M51.8234 97.3481C50.7916 97.2241 49.7935 96.9728 48.8938 96.585C45.9215 95.3057 44.2116 92.666 44.7701 90.2142C45.0307 89.0629 45.7939 87.9797 46.8723 87.1056C46.9022 87.195 46.9324 87.2804 46.9661 87.3656C47.9809 89.9626 50.0323 93.327 51.7935 97.28L51.8234 97.3481Z" fill="#F49004"/>
<path d="M46.6945 87.8309C45.9098 88.5835 45.3815 89.4469 45.1868 90.3084C44.6717 92.5696 46.2658 94.9893 49.0633 96.1933C49.6912 96.4648 50.3779 96.6705 51.1128 96.8087C50.3528 95.1592 49.5405 93.5905 48.8137 92.1882C47.9647 90.5494 47.223 89.1172 46.6945 87.8309ZM51.8236 97.7749L51.7728 97.772C50.6668 97.6393 49.6411 97.3719 48.7256 96.977C45.5441 95.6078 43.7472 92.7881 44.3545 90.1201C44.6305 88.9013 45.4085 87.7442 46.6042 86.775C46.7134 86.6863 46.8583 86.6587 46.9927 86.6966C47.127 86.7361 47.2337 86.839 47.2774 86.972C47.3043 87.0536 47.3313 87.1304 47.3625 87.2082C47.8811 88.535 48.6642 90.0462 49.571 91.7965C50.3949 93.3868 51.3287 95.1891 52.1835 97.1072L52.2191 97.1901C52.2754 97.3295 52.2535 97.4892 52.1616 97.6088C52.081 97.7138 51.956 97.7749 51.8236 97.7749Z" fill="#F07800"/>
<path d="M36.7919 83.8176C36.2633 85.1823 35.2013 86.2992 33.9478 87.0495C32.272 88.0476 30.2331 88.3757 28.3145 88.0476C28.4173 87.8127 28.515 87.5871 28.6001 87.3654C29.6576 84.6659 30.1737 81.0114 30.4295 77.468C30.9539 77.353 31.496 77.2887 32.0371 77.2932C33.7897 77.3012 35.5978 78.0991 36.5104 79.5959C37.2694 80.8455 37.3208 82.457 36.7919 83.8176Z" fill="#F49004"/>
<path d="M28.9261 87.7011C30.6137 87.8714 32.338 87.5122 33.7297 86.6834C34.9842 85.9325 35.9308 84.8599 36.3945 83.6636L36.3948 83.6629C36.8971 82.3705 36.802 80.8972 36.1465 79.8175C35.3746 78.5524 33.7609 77.7285 32.0353 77.7198C31.643 77.7224 31.2413 77.7517 30.831 77.8233C30.5099 82.0183 29.9094 85.1934 28.9974 87.5215C28.9743 87.5809 28.9508 87.6407 28.9261 87.7011ZM29.7487 88.5957C29.2458 88.5957 28.741 88.5536 28.2426 88.4678C28.1131 88.446 28.0016 88.3656 27.939 88.2503C27.8766 88.1349 27.8708 87.9974 27.9232 87.8775C28.0228 87.6484 28.1189 87.4286 28.2018 87.2124C29.0935 84.9344 29.6999 81.6472 30.0035 77.4368C30.0173 77.2485 30.1529 77.092 30.3377 77.0515C30.9164 76.9246 31.4878 76.8709 32.0398 76.8667C34.0845 76.877 35.937 77.8375 36.874 79.3741C37.6767 80.6954 37.7943 82.4142 37.1889 83.9711C36.6571 85.3441 35.5835 86.5668 34.1661 87.4158C32.8698 88.1876 31.3171 88.5957 29.7487 88.5957Z" fill="#F07800"/>
<path d="M27.2528 98.3296C26.31 99.3399 24.89 99.8052 23.5131 99.8091C23.257 99.8091 23.0012 99.7961 22.7451 99.7666C22.7621 99.7152 22.7795 99.6645 22.8007 99.613C23.7306 97.1908 24.8434 94.9562 25.8794 92.9479C26.7235 93.195 27.4829 93.7326 27.8964 94.5083C28.5404 95.7284 28.1907 97.3232 27.2528 98.3296Z" fill="#F49004"/>
<path d="M23.348 99.3806C23.402 99.3818 23.4566 99.3824 23.5122 99.3824C24.8975 99.3783 26.1475 98.8886 26.9405 98.0388C27.8049 97.1113 28.0482 95.7103 27.5193 94.7074C27.2323 94.1702 26.7211 93.7312 26.0887 93.4725C25.1481 95.3051 24.1793 97.2771 23.348 99.3806ZM23.5142 100.235C23.2233 100.235 22.9557 100.22 22.6954 100.19C22.5678 100.175 22.4537 100.103 22.385 99.995C22.3162 99.887 22.2995 99.7536 22.3403 99.6319C22.3606 99.5711 22.3811 99.5107 22.4065 99.45C23.3291 97.0464 24.439 94.8096 25.5003 92.7521C25.5938 92.5709 25.8033 92.4806 25.999 92.5384C27.0009 92.8321 27.8293 93.477 28.2725 94.308C28.9669 95.6232 28.6687 97.4359 27.5642 98.6203C26.6115 99.6418 25.1353 100.23 23.5142 100.235Z" fill="#F07800"/>
<path d="M24.7202 116.193C24.3275 116.832 23.8159 117.387 23.2273 117.843C21.564 115.753 20.5836 113.054 20.6518 109.685C20.673 108.666 20.7536 107.673 20.9034 106.696C22.6003 107.148 24.1013 108.312 24.9287 109.869C25.9608 111.817 25.8799 114.316 24.7202 116.193Z" fill="#F49004"/>
<path d="M21.2546 107.251C21.1531 108.039 21.0949 108.843 21.0772 109.694C21.0178 112.613 21.7639 115.147 23.2951 117.231C23.7157 116.856 24.0711 116.433 24.3552 115.97L24.3565 115.968C25.4426 114.211 25.5187 111.895 24.5509 110.068C23.8658 108.779 22.6556 107.752 21.2546 107.251ZM23.2267 118.269C23.1013 118.269 22.9773 118.214 22.8928 118.108C21.0557 115.801 20.1579 112.964 20.2241 109.676C20.2466 108.624 20.3324 107.6 20.4809 106.631C20.4988 106.512 20.5679 106.405 20.6688 106.339C20.7701 106.273 20.8947 106.253 21.0123 106.284C22.8308 106.768 24.4352 108.034 25.3041 109.669C26.4111 111.759 26.3237 114.407 25.082 116.417C24.672 117.085 24.1357 117.678 23.4876 118.18C23.4101 118.24 23.3179 118.269 23.2267 118.269Z" fill="#F07800"/>
<path d="M37.3418 123.617C34.5745 123.574 31.8283 123.101 29.3807 122.163H29.3762C29.3255 122.141 29.2744 122.124 29.2227 122.099C29.5813 121.617 30.0327 121.207 30.553 120.905C32.2207 119.941 34.4845 120.15 35.943 121.404C36.6168 121.979 37.0947 122.764 37.3418 123.617Z" fill="#F49004"/>
<path d="M29.9406 121.915C31.9932 122.647 34.32 123.078 36.7291 123.173C36.4787 122.606 36.1179 122.113 35.6667 121.727C34.3419 120.588 32.2808 120.398 30.767 121.273C30.4643 121.45 30.1874 121.665 29.9406 121.915ZM37.3418 124.042H37.3354C34.4569 123.999 31.6639 123.49 29.2552 122.571L29.2102 122.555L29.1665 122.538C29.1218 122.521 29.0775 122.502 29.0331 122.48C28.9194 122.425 28.8371 122.321 28.8076 122.198C28.7783 122.075 28.8047 121.945 28.8802 121.844C29.2799 121.306 29.7706 120.866 30.3384 120.535C32.1578 119.484 34.6311 119.713 36.2213 121.08C36.9421 121.695 37.4713 122.532 37.7512 123.497C37.7891 123.627 37.7631 123.767 37.6808 123.875C37.6005 123.981 37.4749 124.042 37.3418 124.042Z" fill="#F07800"/>
<path d="M54.7877 107.681L54.7578 107.676C53.4956 107.438 52.2633 106.725 51.709 105.57C51.1248 104.346 51.4403 102.781 52.3741 101.796C52.6428 101.514 52.9541 101.275 53.2954 101.088C54.0072 103.165 54.5531 105.369 54.7877 107.681Z" fill="#F49004"/>
<path d="M53.0654 101.746C52.9291 101.851 52.8006 101.966 52.682 102.091C51.8495 102.969 51.6011 104.356 52.093 105.387C52.4745 106.181 53.2778 106.808 54.2951 107.123C54.075 105.373 53.6705 103.604 53.0654 101.746ZM54.7871 108.107L54.7061 108.1L54.6782 108.095C53.1419 107.806 51.888 106.93 51.3241 105.754C50.6747 104.395 50.9793 102.647 52.0641 101.503C52.363 101.189 52.7074 100.924 53.0895 100.715C53.1997 100.654 53.3311 100.646 53.4484 100.69C53.566 100.736 53.6573 100.831 53.6981 100.95C54.496 103.276 54.9911 105.464 55.2116 107.638C55.2235 107.758 55.1846 107.877 55.1036 107.967C55.0226 108.056 54.9076 108.107 54.7871 108.107Z" fill="#F07800"/>
<path d="M54.0118 114.964C52.4553 118.857 49.0228 121.331 44.9248 122.597C44.9377 120.32 45.8968 118.034 47.6452 116.572C49.3891 115.118 51.7856 114.585 54.0118 114.964Z" fill="#F49004"/>
<path d="M52.6104 115.272C50.8695 115.272 49.1818 115.846 47.9177 116.899C46.4659 118.114 45.5405 119.989 45.3766 122.001C48.2162 121.026 51.6657 119.097 53.3993 115.311C53.1355 115.285 52.8723 115.272 52.6104 115.272ZM44.9245 123.024C44.8338 123.024 44.7445 122.995 44.6706 122.94C44.5617 122.859 44.4974 122.73 44.4981 122.595C44.5119 120.112 45.5858 117.738 47.3711 116.245C49.1449 114.766 51.6545 114.13 54.0834 114.544C54.21 114.565 54.3206 114.643 54.3836 114.755C54.4465 114.868 54.4555 115.003 54.4073 115.122C52.9183 118.848 49.6821 121.574 45.0501 123.005C45.0087 123.018 44.9662 123.024 44.9245 123.024Z" fill="#F07800"/>
<mask id="mask0_333_5737" style="mask-type:luminance" maskUnits="userSpaceOnUse" x="43" y="81" width="12" height="34">
<path d="M54.0476 114.538C53.6395 114.47 53.2291 114.432 52.8204 114.422C53.01 113.44 53.0897 112.421 53.0691 111.375C53.0415 109.969 52.8882 108.596 52.6404 107.26C53.2156 107.66 53.9116 107.951 54.6777 108.095L54.6992 108.099C54.7445 108.625 54.7728 109.157 54.7834 109.695C54.8172 111.423 54.5765 113.047 54.0476 114.538ZM51.3651 102.528C50.6986 100.615 49.8995 98.8063 49.0862 97.1236C49.9075 97.4385 50.8092 97.656 51.7719 97.7714L51.8226 97.7743C51.8406 97.7743 51.8586 97.7733 51.8763 97.7711C52.2921 98.7274 52.689 99.7167 53.0479 100.737C52.6822 100.943 52.3519 101.2 52.0636 101.502C51.7741 101.808 51.5402 102.156 51.3651 102.528ZM44.9609 88.6256C44.218 86.5382 43.762 83.9942 43.4834 81.3602C44.0409 81.6189 44.6775 81.7574 45.3375 81.7574C45.3777 81.7574 45.4181 81.7568 45.4583 81.7558C45.7006 83.3943 46.0264 84.9457 46.4644 86.3094C46.5091 86.4592 46.5586 86.6121 46.6119 86.7676C46.609 86.7699 46.6061 86.7721 46.6032 86.7744C45.9098 87.3364 45.3568 87.9617 44.9609 88.6256Z" fill="white"/>
</mask>
<g mask="url(#mask0_333_5737)">
<path d="M43.4834 114.538H54.8172V81.3602H43.4834V114.538Z" fill="#FFD486"/>
</g>
<path d="M45.0415 80.894C44.4194 80.8462 43.841 80.6476 43.3831 80.3227C43.2353 78.6486 43.1524 76.958 43.1064 75.3427C43.2212 75.1946 43.3458 75.0516 43.4805 74.9131C43.8439 74.7469 44.1999 74.5625 44.547 74.3601C44.636 76.8369 44.7992 78.9876 45.0415 80.894Z" fill="#F8B455"/>
<path d="M45.338 81.7578C44.678 81.7578 44.0414 81.6193 43.4839 81.3606C43.4476 81.0159 43.4142 80.6695 43.3833 80.3224C43.8412 80.6473 44.4196 80.8459 45.0417 80.8937C44.7995 78.9873 44.6362 76.8366 44.5472 74.3598C44.6449 74.3026 44.7419 74.2441 44.8387 74.184C44.9219 76.6762 45.0973 79.3131 45.4588 81.7562C45.4187 81.7572 45.3782 81.7578 45.338 81.7578ZM43.1067 75.3424C43.1044 75.2547 43.1019 75.1666 43.0996 75.0795C43.2278 75.0262 43.3544 74.9706 43.4807 74.9128C43.3461 75.0513 43.2214 75.1943 43.1067 75.3424Z" fill="#F5A352"/>
<path d="M51.1125 96.8086C50.3776 96.6704 49.6909 96.4648 49.0631 96.1932C48.8677 96.1094 48.6784 96.0194 48.4953 95.9243C47.3034 93.5477 46.1421 91.45 45.3828 89.6907C45.6489 89.0397 46.0975 88.4032 46.6942 87.8309C47.2228 89.1172 47.9644 90.5493 48.8134 92.1881C49.5402 93.5904 50.3526 95.1592 51.1125 96.8086Z" fill="#F8B455"/>
<path d="M51.8237 97.7749L51.7729 97.772C50.8102 97.6567 49.9085 97.4391 49.0872 97.1242C48.8902 96.7168 48.6926 96.3167 48.4956 95.9243C48.6788 96.0195 48.868 96.1094 49.0634 96.1933C49.6913 96.4648 50.378 96.6705 51.1129 96.8087C50.3529 95.1592 49.5406 93.5905 48.8137 92.1882C47.9648 90.5494 47.2231 89.1172 46.6945 87.8309C46.0978 88.4032 45.6492 89.0398 45.3832 89.6908C45.2897 89.4739 45.2023 89.2628 45.1216 89.0565C45.067 88.9151 45.0136 88.7718 44.9619 88.6262C45.3578 87.9623 45.9108 87.337 46.6042 86.775C46.6071 86.7728 46.61 86.7705 46.6129 86.7683C47.5843 89.5902 49.9419 93.3232 51.8773 97.7717C51.8597 97.7739 51.8417 97.7749 51.8237 97.7749Z" fill="#F5A352"/>
<path d="M54.2956 107.124C53.4534 106.862 52.7577 106.388 52.3268 105.782C52.1838 105.185 52.0238 104.597 51.8496 104.018C51.8981 103.317 52.1867 102.614 52.6825 102.091C52.8011 101.966 52.9296 101.851 53.0659 101.746C53.6709 103.604 54.0755 105.374 54.2956 107.124Z" fill="#F8B455"/>
<path d="M54.6994 108.099L54.6779 108.095C53.9118 107.951 53.2158 107.66 52.6406 107.26C52.5484 106.762 52.443 106.268 52.326 105.781C52.7569 106.388 53.4526 106.862 54.2948 107.123C54.0747 105.373 53.6702 103.604 53.0651 101.746C52.9289 101.851 52.8003 101.965 52.6817 102.09C52.1859 102.613 51.8974 103.316 51.8489 104.017C51.6975 103.514 51.5359 103.018 51.3652 102.529C51.5404 102.156 51.7743 101.808 52.0638 101.503C52.3521 101.2 52.6824 100.944 53.0481 100.737C53.8581 103.04 54.4777 105.502 54.6994 108.099Z" fill="#F5A352"/>
<path d="M51.293 118.396C51.8958 117.417 52.3354 116.371 52.6271 115.273C52.8836 115.273 53.1413 115.286 53.3993 115.311C52.8466 116.518 52.1194 117.537 51.293 118.396Z" fill="#F8B455"/>
<path d="M50.3105 119.755C50.6765 119.319 51.0033 118.865 51.2925 118.395C52.119 117.537 52.8462 116.518 53.3989 115.311C53.1408 115.286 52.8831 115.273 52.6267 115.273C52.7009 114.992 52.7655 114.709 52.8208 114.422C53.2295 114.432 53.6399 114.47 54.048 114.538C53.3359 116.546 52.1007 118.31 50.3105 119.755Z" fill="#F5A352"/>
<path d="M30.5931 74.3564C30.5924 74.3561 30.5918 74.3558 30.5908 74.3555C30.6207 73.4786 30.6393 72.6302 30.6509 71.8295C30.6516 71.8295 30.6522 71.8301 30.6525 71.8301C30.6416 72.646 30.6233 73.4924 30.5931 74.3564Z" fill="#EA9253"/>
<path d="M37.7756 76.1133C35.2888 76.1133 32.7836 75.4983 30.5938 74.3562C30.624 73.4922 30.6423 72.6458 30.6532 71.8299C33.6554 73.2129 36.8562 73.7881 39.9086 73.7881C40.986 73.7881 42.0451 73.7161 43.0702 73.5831C43.0727 73.7582 43.0756 73.9346 43.0788 74.1127C42.6691 74.4963 42.3272 74.9166 42.0554 75.3713C42.0329 75.4086 42.0114 75.4462 41.9899 75.4844C40.6341 75.9089 39.2077 76.1133 37.7756 76.1133Z" fill="#EA7D1A"/>
<path d="M41.9893 75.4844C42.0108 75.4461 42.0323 75.4085 42.0548 75.3713C42.3266 74.9166 42.6685 74.4963 43.0782 74.1126C43.084 74.431 43.0911 74.7537 43.0995 75.0795C42.7357 75.2318 42.3652 75.3664 41.9893 75.4844ZM44.8385 74.1839C44.8286 73.8841 44.8199 73.5872 44.8122 73.2919C44.8546 73.2832 44.8967 73.2746 44.9391 73.2656C44.9394 73.2848 44.9401 73.3041 44.9404 73.3231C44.9494 73.5789 44.9532 73.8391 44.9661 74.1033C44.9237 74.1306 44.8813 74.1576 44.8385 74.1839Z" fill="#E56601"/>
<path d="M43.4805 74.9131C43.7832 74.6024 44.1354 74.3154 44.5364 74.0548C44.5396 74.157 44.5431 74.2589 44.547 74.3601C44.1999 74.5625 43.8439 74.747 43.4805 74.9131Z" fill="#E87A1D"/>
<path d="M43.078 74.1128C43.0748 73.9348 43.0719 73.7584 43.0693 73.5832C43.3444 73.5472 43.6169 73.5074 43.8868 73.4627C43.5931 73.6658 43.3235 73.8827 43.078 74.1128Z" fill="#EA842C"/>
<path d="M43.0993 75.0796C43.091 74.7538 43.0839 74.4311 43.0781 74.1127C43.3236 73.8826 43.5932 73.6657 43.8869 73.4626C44.1989 73.4115 44.5077 73.3544 44.812 73.292C44.8198 73.5873 44.8284 73.8842 44.8384 74.184C44.7417 74.2441 44.6446 74.3026 44.5469 74.3598C44.5431 74.2586 44.5396 74.1567 44.5363 74.0545C44.1353 74.3151 43.7831 74.6021 43.4804 74.9128C43.3542 74.9707 43.2276 75.0262 43.0993 75.0796Z" fill="#E7741C"/>
<path d="M29.5028 121.754L29.5333 121.765C31.9697 122.7 34.8218 123.195 37.7813 123.195C38.1039 123.2 40.985 123.226 44.0634 122.403C49.0139 121.075 52.4794 118.183 53.821 114.259C54.2966 112.871 54.5209 111.335 54.4887 109.693C54.4113 105.703 53.2667 102.296 52.8242 101.023C51.7028 97.7717 50.1736 94.8116 48.8137 92.1879C47.5299 89.7101 46.6569 87.9971 46.1871 86.4216C45.744 85.0398 45.3799 83.3432 45.1074 81.3856C44.8189 79.2822 44.6331 76.9046 44.5406 74.118C44.5303 73.9056 44.476 72.4394 44.4725 69.72H31.095C31.0928 70.9143 31.0799 72.5692 31.0179 74.3696C30.9851 75.3533 30.9302 76.4053 30.8553 77.4975C30.5404 81.8548 29.9328 85.1334 28.9974 87.5215C28.4476 88.9556 27.1677 91.383 26.7766 92.1371C25.6044 94.4029 24.2741 96.9597 23.1989 99.7652C22.6488 101.187 21.1681 105.129 21.0781 109.694C21.0119 113.032 21.991 115.856 23.9884 118.087C25.3836 119.64 27.239 120.874 29.5028 121.754ZM37.7813 124.048C34.7296 124.048 31.7827 123.538 29.256 122.572L29.2226 122.561C26.82 121.631 24.8451 120.317 23.3538 118.656C21.2069 116.259 20.1549 113.237 20.225 109.676C20.3185 104.968 21.8361 100.924 22.4033 99.4591C23.4939 96.612 24.8313 94.042 26.0199 91.7445C26.4084 90.9954 27.6648 88.6102 28.2024 87.2127C29.0941 84.9348 29.7004 81.6475 30.0041 77.4371C30.0787 76.3568 30.1326 75.3144 30.1654 74.3407C30.2342 72.3276 30.2419 70.4963 30.2419 69.2935C30.2419 69.058 30.4328 68.8668 30.6683 68.8668H44.8985C45.1338 68.8668 45.3249 69.058 45.3249 69.2935C45.3249 72.6055 45.3899 74.0348 45.3924 74.0833C45.484 76.8465 45.6668 79.1954 45.9515 81.2693C46.217 83.1774 46.5704 84.8258 47.0014 86.169C47.4515 87.6777 48.3063 89.3554 49.5707 91.7956C50.955 94.4671 52.4907 97.4417 53.6295 100.744C54.0874 102.062 55.2603 105.557 55.3416 109.676C55.3753 111.418 55.1353 113.053 54.6279 114.535C53.1912 118.736 49.518 121.822 44.2842 123.226C43.0097 123.568 40.7578 124.048 37.7813 124.048Z" fill="#C75314"/>
<path d="M0.561236 19.9907C0.893173 21.1954 1.77909 22.1738 2.74244 22.9739C3.77746 23.8303 4.91466 24.5199 6.1203 25.0812L6.12641 25.0886C8.44772 26.1866 11.019 26.8193 13.5633 27.2612C15.6208 27.6256 17.7847 27.8701 19.7873 27.3373C20.0103 27.2798 20.222 27.212 20.4396 27.1339L20.23 25.6863C18.7301 21.4139 15.6234 17.7266 11.6697 15.5206C10.1839 14.6919 8.55472 14.0589 6.8568 13.9454C5.15919 13.832 3.38126 14.2803 2.0956 15.395C0.811555 16.5139 0.11169 18.3451 0.561236 19.9907Z" fill="#F49004"/>
<path d="M6.35998 24.7273C8.32269 25.6483 10.6366 26.3205 13.6363 26.8404C15.6195 27.1923 17.723 27.4455 19.677 26.9249C19.7728 26.9002 19.8679 26.8732 19.9665 26.8433L19.8136 25.7893C18.347 21.6425 15.3046 18.0375 11.4615 15.8932C9.79986 14.9665 8.28413 14.4681 6.82785 14.3711C5.11707 14.2589 3.49305 14.7473 2.37513 15.7178C1.1486 16.7856 0.58466 18.4578 0.972188 19.8771C1.2299 20.8122 1.89795 21.718 3.01523 22.646C3.96284 23.4307 5.06405 24.1177 6.28608 24.6881L6.35998 24.7273ZM17.2246 28.0698C15.9364 28.0698 14.6552 27.8873 13.4891 27.6804C10.3866 27.1428 7.98883 26.4413 5.94386 25.4738L5.89631 25.4471C4.61965 24.8491 3.46702 24.1277 2.47025 23.3025C1.21416 22.2588 0.455481 21.2129 0.150214 20.104V20.1033C-0.32311 18.3745 0.346551 16.3534 1.81504 15.0741C3.10231 13.9565 4.95093 13.39 6.88504 13.5198C8.46985 13.6262 10.1032 14.1587 11.8773 15.1487C15.9119 17.3993 19.1028 21.1888 20.632 25.5457L20.6516 25.6258L20.8614 27.0734C20.891 27.2742 20.774 27.4673 20.5835 27.5358C20.3335 27.6251 20.1147 27.6935 19.8936 27.7501C19.024 27.9815 18.1227 28.0698 17.2246 28.0698Z" fill="#F07800"/>
<path d="M4.85504 24.0155C5.23325 24.4249 5.6648 24.7675 6.12013 25.0817L6.12623 25.0891C8.44755 26.1871 11.0189 26.8198 13.5632 27.2616C15.6207 27.626 17.7845 27.8706 19.7871 27.3378C17.7154 24.0265 14.5914 21.3832 10.9787 19.8864C9.68724 19.3514 8.2872 18.9584 6.90289 19.1563C5.83639 19.3074 4.55492 19.9716 3.97652 20.9266C3.37016 21.9233 4.13621 23.2408 4.85504 24.0155Z" fill="#FFBF4D"/>
<path d="M6.35981 24.7273C8.32252 25.6483 10.6364 26.3205 13.6361 26.8404C15.424 27.1572 17.3096 27.3934 19.0965 27.057C17.0769 24.0583 14.1573 21.6647 10.8148 20.2797C9.28235 19.6445 8.05743 19.4215 6.96264 19.5783C6.05327 19.7068 4.86112 20.2875 4.3412 21.147C3.88298 21.8996 4.49993 23.0062 5.16702 23.726L5.16735 23.7264C5.47583 24.0596 5.84857 24.3735 6.3386 24.7141L6.35981 24.7273ZM17.2235 28.0698C15.9349 28.0698 14.6547 27.8873 13.4889 27.6804C10.3864 27.1428 7.98866 26.4413 5.9437 25.4738C5.90931 25.4574 5.87685 25.4365 5.84857 25.4121C5.30841 25.0368 4.89261 24.6843 4.54204 24.3051C3.63074 23.3231 2.90837 21.8613 3.61177 20.7045C4.30007 19.5673 5.76856 18.8858 6.84246 18.7335C8.09502 18.5539 9.46068 18.7955 11.1416 19.4918C14.8314 21.0207 18.0303 23.7267 20.1479 27.111C20.2202 27.225 20.2331 27.3674 20.1833 27.4934C20.1334 27.6193 20.0271 27.7144 19.8963 27.7491C19.0252 27.9808 18.1222 28.0698 17.2235 28.0698Z" fill="#F07800"/>
<path d="M6.35998 24.7273C8.32269 25.6483 10.6366 26.3205 13.6363 26.8404C15.6195 27.1923 17.723 27.4455 19.677 26.9249C19.7728 26.9002 19.8679 26.8732 19.9665 26.8433L19.8136 25.7893C18.347 21.6425 15.3046 18.0375 11.4615 15.8932C9.79986 14.9665 8.28413 14.4681 6.82785 14.3711C5.11707 14.2589 3.49305 14.7473 2.37513 15.7178C1.1486 16.7856 0.58466 18.4578 0.972188 19.8771C1.2299 20.8122 1.89795 21.718 3.01523 22.646C3.96284 23.4307 5.06405 24.1177 6.28608 24.6881L6.35998 24.7273ZM17.2246 28.0698C15.9364 28.0698 14.6552 27.8873 13.4891 27.6804C10.3866 27.1428 7.98883 26.4413 5.94386 25.4738L5.89631 25.4471C4.61965 24.8491 3.46702 24.1277 2.47025 23.3025C1.21416 22.2588 0.455481 21.2129 0.150214 20.104V20.1033C-0.32311 18.3745 0.346551 16.3534 1.81504 15.0741C3.10231 13.9565 4.95093 13.39 6.88504 13.5198C8.46985 13.6262 10.1032 14.1587 11.8773 15.1487C15.9119 17.3993 19.1028 21.1888 20.632 25.5457L20.6516 25.6258L20.8614 27.0734C20.891 27.2742 20.774 27.4673 20.5835 27.5358C20.3335 27.6251 20.1147 27.6935 19.8936 27.7501C19.024 27.9815 18.1227 28.0698 17.2246 28.0698Z" fill="#C75314"/>
<path d="M40.625 18.575C39.8939 18.6923 39.2021 18.1814 39.0771 17.4305C38.4827 13.8527 38.241 10.2033 38.3592 6.5816C38.3843 5.81875 39.0077 5.22749 39.7516 5.25866C40.4955 5.29079 41.0784 5.93507 41.0536 6.69824C40.9408 10.1326 41.17 13.5947 41.7342 16.9877C41.8595 17.7415 41.3663 18.4513 40.6327 18.5738L40.625 18.575Z" fill="#9E3F10"/>
<path d="M39.6961 5.68386C39.4708 5.68386 39.2562 5.76869 39.0881 5.92454C38.9021 6.0971 38.7944 6.33585 38.7861 6.59581C38.6681 10.1893 38.9079 13.8107 39.4981 17.3602C39.5846 17.8778 40.0608 18.2345 40.5582 18.1542L40.5646 18.1529C41.0637 18.0693 41.4011 17.5783 41.3143 17.0578C40.7459 13.6369 40.5145 10.1469 40.6283 6.68418C40.6453 6.15462 40.2443 5.70668 39.734 5.68451L39.6961 5.68386ZM40.4181 19.0186C39.565 19.0186 38.8047 18.3852 38.6572 17.5006C38.0573 13.8955 37.8144 10.2172 37.9339 6.56785C37.9496 6.07846 38.154 5.62795 38.5081 5.29955C38.8532 4.97886 39.2999 4.80534 39.7703 4.83297C40.7459 4.87507 41.5126 5.71792 41.4801 6.71245C41.3686 10.1189 41.5958 13.553 42.1556 16.9177C42.3188 17.9026 41.6671 18.8338 40.7031 18.9945L40.6929 18.9964C40.601 19.0112 40.5094 19.0186 40.4181 19.0186Z" fill="#6B240A"/>
<path d="M42.9376 3.08328C43.4251 4.97593 42.2853 6.9049 40.3923 7.39236C38.5 7.8795 36.5707 6.73973 36.0832 4.84708C35.5961 2.9541 36.7359 1.02482 38.6285 0.537995C40.5218 0.0511748 42.4508 1.19062 42.9376 3.08328Z" fill="#9E3F10"/>
<path d="M39.5105 0.852177C39.2547 0.852177 38.9951 0.884634 38.7354 0.95115C37.0738 1.37884 36.0693 3.07902 36.497 4.74128C36.9247 6.40289 38.6255 7.40738 40.2871 6.97968C41.9491 6.55199 42.9532 4.85181 42.5259 3.18956C42.1647 1.78694 40.897 0.852177 39.5105 0.852177ZM39.5121 7.93115C37.7464 7.93115 36.1307 6.74093 35.6715 4.95367C35.1265 2.83641 36.4058 0.670298 38.5233 0.124995C40.64 -0.418058 42.807 0.860206 43.3514 2.97715C43.8964 5.09442 42.6168 7.26052 40.4995 7.80583C40.1699 7.89034 39.8382 7.93115 39.5121 7.93115Z" fill="#6B240A"/>
<path d="M25.0071 22.5941C25.7037 22.3441 26.063 21.5626 25.8098 20.8447C24.6041 17.4245 23.054 14.1115 21.2022 10.9972C20.8124 10.3413 19.9811 10.1241 19.3439 10.5103C18.7083 10.8975 18.5085 11.7433 18.8989 12.3994C20.655 15.3528 22.1254 18.4955 23.269 21.7393C23.5232 22.4598 24.2979 22.8441 24.9997 22.597L25.0071 22.5941Z" fill="#9E3F10"/>
<path d="M20.0272 10.745C19.8653 10.745 19.7069 10.789 19.5658 10.8745C19.1301 11.1402 18.9951 11.726 19.2657 12.181C21.0369 15.1594 22.5192 18.3275 23.6718 21.598C23.8466 22.0935 24.3749 22.3624 24.8533 22.1963L24.8662 22.1918C25.3392 22.0202 25.5824 21.4804 25.4083 20.9859C24.2123 17.5923 22.6737 14.3047 20.8367 11.2147C20.7033 10.9914 20.4941 10.8343 20.248 10.7726C20.1744 10.754 20.1008 10.745 20.0272 10.745ZM24.5648 23.0977C23.8273 23.0977 23.1307 22.6279 22.8675 21.8814C21.7335 18.6639 20.2753 15.547 18.533 12.617C18.0247 11.7626 18.2888 10.654 19.123 10.146C19.5247 9.9021 19.997 9.83173 20.454 9.94516C20.9228 10.0618 21.3193 10.3581 21.5693 10.779C23.4356 13.9168 24.9973 17.2558 26.2126 20.7031C26.5426 21.6378 26.0673 22.6655 25.1544 22.9945L25.1416 22.9993C24.9513 23.0658 24.7563 23.0977 24.5648 23.0977Z" fill="#6B240A"/>
<path d="M15.5041 10.1419C15.9916 12.0348 17.9209 13.1746 19.8132 12.6872C21.7062 12.2003 22.846 10.271 22.3585 8.37839C21.8714 6.48574 19.9424 5.34597 18.0494 5.83279C16.1565 6.32025 15.017 8.24953 15.5041 10.1419Z" fill="#9E3F10"/>
<path d="M15.9166 10.0359C16.3446 11.6975 18.0461 12.7023 19.7067 12.2746C21.3687 11.8469 22.3729 10.1467 21.9455 8.48416C21.5181 6.82254 19.8195 5.81901 18.1553 6.24574C16.4934 6.67376 15.4892 8.37426 15.9166 10.0359ZM18.932 13.2261C17.1666 13.2261 15.5513 12.0359 15.0914 10.2486C14.5465 8.13133 15.8257 5.9649 17.9433 5.41992C20.0609 4.87718 22.2266 6.15416 22.7713 8.27207C23.3166 10.3897 22.0367 12.5554 19.9195 13.1007C19.5895 13.1853 19.2585 13.2261 18.932 13.2261Z" fill="#6B240A"/>
<path d="M60.3572 4.60386C60.648 5.81882 60.3444 7.10351 59.8871 8.26899C59.3942 9.51897 58.7306 10.6716 57.946 11.7455L57.944 11.7548C56.4411 13.8364 54.4945 15.632 52.4794 17.247C50.8532 18.5594 49.0772 19.818 47.0659 20.3174C46.8426 20.3752 46.6251 20.418 46.3966 20.4546L45.8812 19.0854C45.1328 14.6198 46.0733 9.89076 48.4718 6.0505C49.3728 4.60771 50.4942 3.26679 51.9267 2.34778C53.3589 1.42844 55.1324 0.963472 56.7959 1.31919C58.4604 1.6794 59.9569 2.94545 60.3572 4.60386Z" fill="#F49004"/>
<path d="M46.2951 18.9746L46.6704 19.9713C46.7713 19.9514 46.8667 19.9292 46.9605 19.9048C48.9258 19.4164 50.6456 18.1793 52.2121 16.9154C54.5874 15.0119 56.2898 13.3066 57.5639 11.5537L57.6121 11.4801C58.4074 10.3905 59.0391 9.25743 59.4913 8.11284C60.0208 6.76292 60.1686 5.64757 59.9434 4.70381C59.5983 3.27259 58.2969 2.08077 56.7063 1.7363C55.2593 1.42525 53.6012 1.78065 52.1571 2.70705C50.9284 3.49496 49.8416 4.66269 48.8336 6.27675C46.5026 10.009 45.5779 14.6349 46.2951 18.9746ZM46.3966 20.8813C46.2215 20.8813 46.0611 20.7734 45.9975 20.6056L45.4818 19.2364L45.4606 19.1564C44.6974 14.6018 45.6624 9.74297 48.1096 5.82559C49.1858 4.10196 50.359 2.84683 51.6954 1.98919C53.3274 0.942606 55.2191 0.545437 56.8846 0.903402C58.7895 1.31503 60.3512 2.762 60.7718 4.50427L60.7721 4.50491C61.0398 5.62476 60.8801 6.90688 60.284 8.4255C59.8094 9.62889 59.1487 10.8162 58.32 11.9563L58.2895 12.0042C56.9653 13.8387 55.2037 15.6105 52.7458 17.5803C51.1829 18.8412 49.297 20.2027 47.1681 20.7319C46.9515 20.7872 46.7273 20.8335 46.4647 20.8762L46.3966 20.8813Z" fill="#F07800"/>
<path d="M58.5393 10.2015C58.4053 10.7423 58.1929 11.2506 57.9455 11.7455L57.9435 11.7548C56.4407 13.8364 54.494 15.632 52.4789 17.247C50.8527 18.5594 49.0763 19.818 47.0654 20.3174C47.2817 16.418 48.7415 12.5945 51.183 9.53986C52.0557 8.44829 53.0927 7.42838 54.4002 6.93353C55.4073 6.55114 56.8507 6.51419 57.8176 7.07138C58.8298 7.65171 58.7951 9.17579 58.5393 10.2015Z" fill="#FFBF4D"/>
<path d="M56.0316 7.07607C55.4985 7.07607 54.9696 7.17375 54.5521 7.33217C53.5168 7.72387 52.5522 8.50986 51.5162 9.80644C49.2575 12.6319 47.8559 16.1383 47.5349 19.7392C49.262 19.1723 50.799 18.0547 52.2112 16.9153C54.5865 15.0117 56.2886 13.3067 57.563 11.5535L57.5775 11.5278C57.8413 10.9957 58.0151 10.541 58.125 10.0989L58.1254 10.0979C58.3625 9.1461 58.3683 7.87908 57.6048 7.44111C57.1585 7.18404 56.5923 7.07607 56.0316 7.07607ZM47.0654 20.7446C46.9667 20.7446 46.8707 20.7109 46.7932 20.6466C46.6894 20.5602 46.6319 20.4297 46.6393 20.2944C46.8601 16.3083 48.3555 12.3948 50.8497 9.27399C51.9856 7.85274 53.066 6.98256 54.2491 6.53494C55.262 6.14966 56.8776 6.03784 58.0306 6.70204C59.2044 7.37587 59.2773 9.00439 58.9528 10.3045C58.8284 10.8067 58.6353 11.3151 58.3442 11.9015C58.331 11.9378 58.313 11.9729 58.2896 12.004C56.9654 13.8385 55.2038 15.6104 52.7462 17.5801C51.183 18.8411 49.2971 20.2025 47.1682 20.7318C47.1342 20.7404 47.0994 20.7446 47.0654 20.7446Z" fill="#F07800"/>
<path d="M46.2951 18.9746L46.6704 19.9713C46.7713 19.9514 46.8667 19.9292 46.9605 19.9048C48.9258 19.4164 50.6456 18.1793 52.2121 16.9154C54.5874 15.0119 56.2898 13.3066 57.5639 11.5537L57.6121 11.4801C58.4074 10.3905 59.0391 9.25743 59.4913 8.11284C60.0208 6.76292 60.1686 5.64757 59.9434 4.70381C59.5983 3.27259 58.2969 2.08077 56.7063 1.7363C55.2593 1.42525 53.6012 1.78065 52.1571 2.70705C50.9284 3.49496 49.8416 4.66269 48.8336 6.27675C46.5026 10.009 45.5779 14.6349 46.2951 18.9746ZM46.3966 20.8813C46.2215 20.8813 46.0611 20.7734 45.9975 20.6056L45.4818 19.2364L45.4606 19.1564C44.6974 14.6018 45.6624 9.74297 48.1096 5.82559C49.1858 4.10196 50.359 2.84683 51.6954 1.98919C53.3274 0.942606 55.2191 0.545437 56.8846 0.903402C58.7895 1.31503 60.3512 2.762 60.7718 4.50427L60.7721 4.50491C61.0398 5.62476 60.8801 6.90688 60.284 8.4255C59.8094 9.62889 59.1487 10.8162 58.32 11.9563L58.2895 12.0042C56.9653 13.8387 55.2037 15.6105 52.7458 17.5803C51.1829 18.8412 49.297 20.2027 47.1681 20.7319C46.9515 20.7872 46.7273 20.8335 46.4647 20.8762L46.3966 20.8813Z" fill="#C75314"/>
<path d="M62.2431 51.7921C62.4674 63.2046 54.3817 70.4195 45.8451 72.6158C37.3051 74.8138 26.7441 72.3928 21.4283 62.2943C19.7034 59.0131 18.5312 54.9206 18.1619 49.9075C17.8197 45.2932 17.5527 41.3809 17.4335 38.0433C17.2397 32.5674 17.4454 28.6439 18.3894 25.724C19.9013 21.0415 23.2997 18.9168 29.9754 17.0538C30.4472 16.9188 30.9375 16.7887 31.4455 16.6579C36.8555 15.2659 40.5994 14.8571 43.6838 16.0142C46.1527 16.9333 48.1995 18.8635 50.3377 22.0913C51.6243 24.0277 52.9479 26.4348 54.409 29.3746C55.8174 32.1953 57.3563 35.5073 59.129 39.3662C61.2241 43.9304 62.1743 48.0846 62.2431 51.7921Z" fill="#FFBF4D"/>
<path d="M39.864 31.2106C39.8955 31.8231 40.9463 32.2662 42.2101 32.2C43.4739 32.1341 44.4726 31.584 44.4408 30.9715C44.4086 30.3591 43.3585 29.916 42.0941 29.9822C40.8306 30.048 39.8319 30.5981 39.864 31.2106Z" fill="#E06716"/>
<path d="M40.2897 31.1886C40.2945 31.284 40.4359 31.4386 40.7405 31.5668C41.1203 31.7268 41.6473 31.8049 42.1878 31.7741C42.7286 31.7461 43.2447 31.6156 43.6055 31.4171C43.8954 31.2573 44.0197 31.0896 44.0149 30.9939C44.0021 30.7532 43.2707 30.3448 42.1165 30.4081C40.9616 30.4682 40.2772 30.9479 40.2897 31.1886ZM41.9616 32.6333C41.3864 32.6333 40.8434 32.5359 40.4096 32.3531C39.8077 32.0989 39.4629 31.7014 39.4378 31.2332V31.2329C39.3925 30.3583 40.5246 29.6372 42.0725 29.5562C43.6152 29.4807 44.8205 30.0748 44.8664 30.9489C44.8912 31.4174 44.5895 31.8492 44.0172 32.1645C43.5406 32.4273 42.9066 32.5909 42.2325 32.6262C42.1415 32.6307 42.0509 32.6333 41.9616 32.6333Z" fill="#AD4A07"/>
<path d="M31.8444 33.274C32.1121 33.8258 31.4055 34.721 30.2667 35.2727C29.1278 35.8254 27.9881 35.8258 27.7207 35.2737C27.4531 34.7223 28.1594 33.8267 29.2978 33.275C30.4366 32.7226 31.5767 32.7223 31.8444 33.274Z" fill="#E06716"/>
<path d="M30.9019 33.2876C30.544 33.2876 30.044 33.3863 29.4832 33.6588C28.4424 34.1636 27.9987 34.8712 28.1034 35.0877C28.2085 35.3046 29.0392 35.3946 30.08 34.8898C31.1211 34.385 31.5648 33.6774 31.4598 33.4605C31.4116 33.3602 31.2088 33.2876 30.9019 33.2876ZM28.6786 36.1128C28.043 36.1128 27.5462 35.892 27.3364 35.4602C26.9543 34.6716 27.7175 33.5675 29.1114 32.8914C30.506 32.216 31.8457 32.3005 32.2274 33.0884C32.6098 33.8766 31.8466 34.9807 30.453 35.6568C29.8226 35.9624 29.2034 36.1128 28.6786 36.1128Z" fill="#AD4A07"/>
<path d="M62.2435 51.7922C62.4678 63.2046 54.3821 70.4195 45.8455 72.6158C37.3055 74.8138 26.7445 72.3928 21.4287 62.2943C24.5771 56.7506 31.3563 51.867 39.9378 49.6588C48.52 47.4506 56.8149 48.4557 62.2435 51.7922Z" fill="#FFD894"/>
<path d="M21.9164 62.303C27.513 72.6894 38.226 74.1367 45.7397 72.2029C53.2538 70.2695 61.9375 63.8309 61.8208 52.0341C56.2669 48.7215 48.1503 47.986 40.0441 50.0718C31.9407 52.1572 25.1853 56.7201 21.9164 62.303ZM39.9085 73.7881C33.0654 73.7881 25.4751 70.8971 21.052 62.4932C20.9845 62.365 20.9867 62.2104 21.0581 62.0842C24.3929 56.2121 31.4111 51.413 39.832 49.2459C48.2541 47.0782 56.7161 47.8947 62.4667 51.4294C62.5904 51.5052 62.6672 51.6389 62.6701 51.7838C62.9146 64.2268 53.8174 71.005 45.9521 73.0291C44.0884 73.5085 42.0341 73.7881 39.9085 73.7881Z" fill="#F49004"/>
<path d="M24.4758 31.1022C23.0395 34.1446 20.4958 36.6484 17.4335 38.0439C17.2397 32.5678 17.4454 28.6443 18.3894 25.7243C18.5861 25.599 18.7892 25.4808 18.998 25.3696C20.7201 24.4641 23.0999 24.2658 24.4013 25.7137C25.6731 27.1305 25.2872 29.3785 24.4758 31.1022Z" fill="#F49004"/>
<path d="M18.7494 26.0025C17.9544 28.5568 17.6781 31.9963 17.8394 37.3732C20.5408 35.9802 22.7975 33.6582 24.0909 30.9202C24.4466 30.1641 25.4987 27.5738 24.0848 25.9986C22.9543 24.74 20.7706 24.9193 19.1973 25.7467C19.045 25.8277 18.8949 25.9131 18.7494 26.0025ZM17.4345 38.4702C17.3564 38.4702 17.2783 38.4487 17.2102 38.4066C17.0891 38.3317 17.0129 38.2013 17.0081 38.0589C16.7966 32.0917 17.0887 28.3633 17.9843 25.5928C18.0148 25.4989 18.0765 25.4183 18.1604 25.365C18.3651 25.2335 18.5804 25.1085 18.7992 24.9922C20.608 24.0414 23.231 23.7724 24.7194 25.4286C25.9106 26.7554 25.964 28.944 24.8621 31.283L24.8618 31.2833C23.3927 34.396 20.7494 37.0011 17.6112 38.4317C17.555 38.4574 17.4943 38.4702 17.4345 38.4702Z" fill="#F07800"/>
<path d="M43.6842 16.0143C43.6659 17.5339 43.2684 19.0361 42.4831 20.3301C41.1361 22.5393 38.6146 24.0338 36.0285 23.9592C33.4453 23.8802 30.9398 22.1338 30.1481 19.6736C29.8785 18.8311 29.8309 17.9278 29.9758 17.0541C30.4475 16.9192 30.9379 16.789 31.4459 16.6582C36.8562 15.2659 40.5998 14.8572 43.6842 16.0143Z" fill="#F49004"/>
<path d="M30.3594 17.3889C30.2724 18.1315 30.3389 18.8706 30.5542 19.5431C31.2736 21.779 33.5811 23.4576 36.0413 23.5325C38.422 23.6057 40.8086 22.2565 42.1186 20.108C42.7963 18.992 43.1845 17.6848 43.2491 16.3115C40.5409 15.3915 37.2135 15.6139 31.5522 17.0711C31.1425 17.1762 30.745 17.2816 30.3594 17.3889ZM36.2129 24.3882C36.1473 24.3882 36.0821 24.3875 36.0162 24.3859C33.2071 24.2992 30.5686 22.3725 29.7425 19.8044C29.4603 18.9223 29.3954 17.9471 29.5555 16.984C29.5828 16.8214 29.701 16.689 29.8594 16.6437C30.3344 16.5084 30.8283 16.3764 31.3401 16.2453C36.3854 14.9468 40.4416 14.343 43.8342 15.6151C44.0026 15.6784 44.1132 15.8401 44.1109 16.0191C44.091 17.6553 43.6543 19.2224 42.8481 20.5515C41.4168 22.8988 38.8292 24.3882 36.2129 24.3882Z" fill="#F07800"/>
<path d="M30.3594 17.3889C30.2724 18.1315 30.3389 18.8706 30.5542 19.5431C31.2736 21.779 33.5811 23.4576 36.0413 23.5325C38.422 23.6057 40.8086 22.2565 42.1186 20.108C42.7963 18.992 43.1845 17.6848 43.2491 16.3115C40.5409 15.3915 37.2135 15.6139 31.5522 17.0711C31.1425 17.1762 30.745 17.2816 30.3594 17.3889ZM36.2129 24.3882C36.1473 24.3882 36.0821 24.3875 36.0162 24.3859C33.2071 24.2992 30.5686 22.3725 29.7425 19.8044C29.4603 18.9223 29.3954 17.9471 29.5555 16.984C29.5828 16.8214 29.701 16.689 29.8594 16.6437C30.3344 16.5084 30.8283 16.3764 31.3401 16.2453C36.3854 14.9468 40.4416 14.343 43.8342 15.6151C44.0026 15.6784 44.1132 15.8401 44.1109 16.0191C44.091 17.6553 43.6543 19.2224 42.8481 20.5515C41.4168 22.8988 38.8292 24.3882 36.2129 24.3882Z" fill="#F07800"/>
<path d="M54.41 29.3744C53.1687 29.6675 51.8625 29.6556 50.7038 29.1566C49.1922 28.5023 48.0415 26.8873 48.2652 25.2575C48.4098 24.1772 49.0997 23.2466 49.8844 22.4985C50.0335 22.3591 50.1835 22.2235 50.3387 22.0911C51.625 24.0274 52.9489 26.4349 54.41 29.3744Z" fill="#F49004"/>
<path d="M50.2526 22.7381L50.1758 22.8095C49.2995 23.6449 48.7979 24.4881 48.6873 25.3139C48.5023 26.6626 49.4418 28.1455 50.8727 28.7651C51.7191 29.1298 52.7159 29.2313 53.7779 29.0645C52.4537 26.427 51.3203 24.3933 50.2526 22.7381ZM52.8046 29.9951C51.9919 29.9951 51.2246 29.8457 50.5347 29.5488C48.7349 28.7692 47.6035 26.9402 47.8422 25.1999C47.9788 24.1774 48.5668 23.1649 49.5897 22.1903C49.7465 22.0434 49.901 21.9033 50.0614 21.7667C50.1542 21.6877 50.2757 21.6523 50.3972 21.6687C50.518 21.6858 50.6259 21.7536 50.6934 21.8551C51.927 23.7114 53.2287 26.0408 54.7914 29.1844C54.8489 29.3007 54.8505 29.4373 54.7953 29.5555C54.7403 29.6735 54.6339 29.7593 54.5073 29.7895C53.9257 29.9267 53.3547 29.9951 52.8046 29.9951Z" fill="#F07800"/>
<path d="M50.2526 22.7381L50.1758 22.8095C49.2995 23.6449 48.7979 24.4881 48.6873 25.3139C48.5023 26.6626 49.4418 28.1455 50.8727 28.7651C51.7191 29.1298 52.7159 29.2313 53.7779 29.0645C52.4537 26.427 51.3203 24.3933 50.2526 22.7381ZM52.8046 29.9951C51.9919 29.9951 51.2246 29.8457 50.5347 29.5488C48.7349 28.7692 47.6035 26.9402 47.8422 25.1999C47.9788 24.1774 48.5668 23.1649 49.5897 22.1903C49.7465 22.0434 49.901 21.9033 50.0614 21.7667C50.1542 21.6877 50.2757 21.6523 50.3972 21.6687C50.518 21.6858 50.6259 21.7536 50.6934 21.8551C51.927 23.7114 53.2287 26.0408 54.7914 29.1844C54.8489 29.3007 54.8505 29.4373 54.7953 29.5555C54.7403 29.6735 54.6339 29.7593 54.5073 29.7895C53.9257 29.9267 53.3547 29.9951 52.8046 29.9951Z" fill="#F07800"/>
<path d="M59.6069 40.4473C59.4546 40.0896 59.2952 39.7294 59.1288 39.3666C57.4354 35.6803 55.9553 32.4933 54.5986 29.7568C54.6038 29.7543 54.6086 29.7517 54.6137 29.7488C55.9672 32.4984 57.4411 35.6909 59.1294 39.3666C59.294 39.7252 59.4533 40.0858 59.6069 40.4473Z" fill="white"/>
<path d="M62.2268 51.2847C61.516 50.8628 60.7663 50.4813 59.981 50.1407C59.4511 47.483 58.545 44.8503 57.384 42.3208C55.8204 38.9162 53.5884 33.9989 51.3779 29.8296C51.832 29.9398 52.3095 29.9954 52.8043 29.9954C53.3545 29.9954 53.9255 29.9269 54.5071 29.7897C54.5392 29.782 54.5697 29.7708 54.5987 29.7566C55.9553 32.4931 57.4354 35.6801 59.1288 39.3664C59.2953 39.7292 59.4547 40.0894 59.607 40.4471C61.1115 43.991 62.0732 47.6677 62.2268 51.2847Z" fill="#FFD486"/>
<path d="M59.4082 62.0127C60.6113 58.5012 60.7578 54.8151 60.165 51.1577C60.7385 51.4264 61.2912 51.7188 61.8205 52.0343C61.859 55.9363 60.9345 59.2524 59.4082 62.0127Z" fill="#FFE5B6"/>
<path d="M58.541 64.1318C58.8755 63.4339 59.1638 62.727 59.4083 62.0126C60.9346 59.2524 61.8591 55.9362 61.8205 52.0343C61.2913 51.7187 60.7386 51.4263 60.165 51.1577C60.1101 50.8183 60.0487 50.4793 59.9812 50.1407C60.7666 50.4813 61.5162 50.8627 62.227 51.2846C62.4182 55.7839 61.3594 60.1907 58.541 64.1318Z" fill="#F8B455"/>
<path d="M25.516 18.555C25.5192 18.554 25.5221 18.5527 25.525 18.5514C25.5221 18.5527 25.5189 18.554 25.516 18.555ZM25.542 18.5444C25.5465 18.5425 25.5513 18.5402 25.5558 18.5386C25.5517 18.5402 25.5465 18.5425 25.542 18.5444ZM25.5677 18.5335C25.5742 18.5309 25.5809 18.528 25.5873 18.5254C25.5806 18.528 25.5742 18.5309 25.5677 18.5335ZM25.5954 18.5219C25.6034 18.5187 25.6111 18.5155 25.6191 18.5122C25.6114 18.5155 25.6034 18.5187 25.5954 18.5219ZM25.623 18.5106C25.6323 18.5068 25.6419 18.5029 25.6513 18.4991C25.6416 18.5029 25.6323 18.5068 25.623 18.5106ZM25.6516 18.4987C26.3158 18.2246 27.0291 17.9644 27.7939 17.7128C27.0291 17.9644 26.3161 18.2246 25.6516 18.4987ZM27.7984 17.7112C27.8074 17.7083 27.8171 17.7051 27.8264 17.7022C27.8167 17.7051 27.8077 17.7083 27.7984 17.7112ZM27.8351 17.6993C27.8424 17.6967 27.8495 17.6945 27.8569 17.6919C27.8498 17.6945 27.8421 17.6967 27.8351 17.6993ZM27.873 17.6867C27.8778 17.6851 27.8826 17.6835 27.8874 17.6822C27.8826 17.6835 27.8775 17.6851 27.873 17.6867ZM27.909 17.6752C27.9115 17.6742 27.9138 17.6736 27.9163 17.6726C27.9141 17.6736 27.9115 17.6742 27.909 17.6752Z" fill="white"/>
<path d="M18.6611 24.9634C19.8542 21.9258 21.9792 20.0438 25.494 18.565C25.494 18.5647 25.4946 18.5647 25.4949 18.5643C25.5023 18.5615 25.5097 18.5582 25.5168 18.555C25.5197 18.5541 25.5229 18.5528 25.5258 18.5515C25.5316 18.5489 25.537 18.5467 25.5428 18.5444C25.5473 18.5425 25.5524 18.5402 25.5566 18.5386C25.5608 18.5367 25.5643 18.5354 25.5685 18.5335C25.5749 18.5309 25.5814 18.528 25.5881 18.5255C25.5907 18.5245 25.5936 18.5232 25.5961 18.5219C25.6042 18.5187 25.6122 18.5155 25.6199 18.5123C25.6212 18.5117 25.6225 18.511 25.6238 18.5107C25.6331 18.5068 25.6424 18.503 25.652 18.4991C25.652 18.4988 25.6521 18.4988 25.6524 18.4988C26.3169 18.2247 27.0299 17.9644 27.7947 17.7128C27.7963 17.7122 27.7973 17.7118 27.7992 17.7112C27.8085 17.7083 27.8175 17.7051 27.8272 17.7022C27.8297 17.7012 27.833 17.7003 27.8358 17.6993C27.8429 17.6968 27.8506 17.6945 27.8577 17.6919C27.8628 17.6903 27.8686 17.6884 27.8738 17.6868C27.8782 17.6852 27.8834 17.6836 27.8882 17.6823C27.8953 17.6797 27.9024 17.6775 27.9097 17.6752C27.9123 17.6743 27.9149 17.6736 27.9171 17.6726C28.43 17.5059 28.9669 17.3423 29.5264 17.1817C29.4888 17.4622 29.4701 17.7433 29.4701 18.0223C29.4705 18.5685 29.5431 19.1064 29.6864 19.6164C25.7388 20.6325 21.1955 22.0033 18.6611 24.9634Z" fill="#FFD486"/>
<path d="M50.1003 21.7378C49.7002 21.1501 49.3028 20.6077 48.9043 20.109C48.9091 20.1067 48.9133 20.1048 48.9181 20.1025C49.3201 20.6003 49.7201 21.1411 50.1205 21.7249C50.1135 21.7288 50.1067 21.7333 50.1003 21.7378Z" fill="white"/>
<path d="M48.3398 19.4312C48.1139 19.1725 47.887 18.9267 47.6592 18.6947C47.6592 18.6943 47.6592 18.6934 47.6592 18.6927C47.8909 18.9247 48.12 19.1693 48.3484 19.4273C48.3456 19.4286 48.3427 19.4299 48.3398 19.4312Z" fill="#FFD486"/>
<path d="M48.34 19.4316C48.3397 19.4313 48.34 19.4316 48.3397 19.4313C48.3426 19.43 48.3455 19.4288 48.3484 19.4275V19.4278C48.3458 19.4291 48.3426 19.4304 48.34 19.4316ZM47.6591 18.6948C47.6157 18.6508 47.5727 18.6074 47.5293 18.5644C47.5724 18.6065 47.6164 18.6502 47.6591 18.6929C47.6591 18.6935 47.6591 18.6945 47.6591 18.6948Z" fill="#F5A352"/>
<path d="M48.9044 20.1089C48.7168 19.8733 48.5285 19.6474 48.3398 19.4315C48.3424 19.4302 48.3456 19.4289 48.3482 19.4277C48.5394 19.6436 48.7287 19.8679 48.9182 20.1025C48.9134 20.1047 48.9093 20.1066 48.9044 20.1089Z" fill="#D98A60"/>
<path d="M48.0817 24.2959C46.5383 22.1031 45.0213 20.5813 43.335 19.6215C43.8044 18.5707 44.0682 17.4113 44.1068 16.2111C45.3333 16.7375 46.4535 17.5129 47.529 18.5643C47.5724 18.6073 47.6154 18.6507 47.6588 18.6947C47.8867 18.9267 48.1135 19.1726 48.3394 19.4312C48.3397 19.4316 48.3394 19.4312 48.3397 19.4316C48.5284 19.6475 48.7167 19.8734 48.9043 20.1089C49.3028 20.6076 49.7003 21.15 50.1003 21.7378C50.0868 21.7468 50.074 21.7564 50.0614 21.767C49.9011 21.9036 49.7465 22.0437 49.5897 22.1905C48.8696 22.8766 48.3651 23.5819 48.0817 24.2959Z" fill="#FFD486"/>
<path d="M30.5131 19.4082C30.3859 18.9638 30.3216 18.493 30.3223 18.0133C30.3226 17.8064 30.3348 17.5978 30.3596 17.3889C30.7452 17.2816 31.1426 17.1762 31.5523 17.0711C34.97 16.1913 37.5369 15.7617 39.6307 15.7617C41.0053 15.7617 42.1759 15.9468 43.2492 16.3115C43.2007 17.3395 42.9709 18.3305 42.5744 19.2318C42.3658 19.1364 42.1544 19.049 41.9394 18.9689C40.7084 18.5072 39.372 18.2948 37.8669 18.2948C35.7927 18.2948 33.3971 18.6984 30.5131 19.4082Z" fill="#F8B455"/>
<path d="M43.3349 19.6216C43.0856 19.4796 42.832 19.3497 42.5743 19.2318C42.9709 18.3305 43.2006 17.3395 43.2491 16.3115C42.1759 15.9468 41.0053 15.7617 39.6306 15.7617C37.5368 15.7617 34.97 16.1914 31.5523 17.0712C31.1426 17.1762 30.7451 17.2816 30.3595 17.389C30.3348 17.5978 30.3225 17.8064 30.3222 18.0133C30.3216 18.4931 30.3858 18.9638 30.5131 19.4082C30.2467 19.4738 29.9765 19.5419 29.7014 19.6126C29.6963 19.6139 29.6911 19.6152 29.686 19.6164C29.5427 19.1065 29.47 18.5686 29.4697 18.0223C29.4697 17.7434 29.4884 17.4622 29.526 17.1817C29.6744 17.139 29.8241 17.0965 29.9761 17.0541C33.8273 15.9555 36.8999 15.3434 39.4802 15.3434C41.2157 15.3434 42.7279 15.6197 44.1068 16.2113C44.0682 17.4115 43.8044 18.5708 43.3349 19.6216Z" fill="#F5A352"/>
<path d="M52.8066 29.1426C52.1093 29.1426 51.4553 29.0163 50.8728 28.7653C50.8429 28.7525 50.813 28.739 50.7831 28.7252C50.0736 27.4302 49.3721 26.2336 48.7031 25.212C48.84 24.419 49.3355 23.6108 50.1758 22.8097L50.2526 22.7384C51.3204 24.3936 52.4537 26.4273 53.7779 29.0648C53.447 29.1169 53.1224 29.1426 52.8066 29.1426Z" fill="#F8B455"/>
<path d="M52.805 29.9951C52.3101 29.9951 51.8326 29.9395 51.3786 29.8293C51.18 29.4546 50.9814 29.0861 50.7835 28.7249C50.8134 28.7387 50.8432 28.7522 50.8731 28.7651C51.4557 29.016 52.1096 29.1423 52.8069 29.1423C53.1228 29.1423 53.4473 29.1166 53.7783 29.0645C52.4541 26.427 51.3208 24.3933 50.253 22.7381L50.1762 22.8095C49.3359 23.6105 48.8404 24.4187 48.7035 25.2118C48.6669 25.1558 48.6302 25.1006 48.5939 25.0453C48.4227 24.7873 48.2523 24.5373 48.082 24.2956C48.3654 23.5816 48.8699 22.8763 49.5901 22.1903C49.7469 22.0434 49.9014 21.9033 50.0618 21.7667C50.0804 21.751 50.1 21.7369 50.1209 21.7246C51.554 23.8146 52.9981 26.4656 54.6144 29.7483C54.6093 29.7512 54.6045 29.7538 54.5993 29.7564C54.5704 29.7705 54.5399 29.7818 54.5077 29.7895C53.9261 29.9267 53.3551 29.9951 52.805 29.9951Z" fill="#F5A352"/>
<path d="M39.6303 15.762C37.5365 15.762 34.97 16.1913 31.5523 17.0708C31.0478 17.2 30.5613 17.3298 30.0928 17.4635C23.124 19.4079 20.1687 21.6039 18.7956 25.8551C17.9325 28.5251 17.653 32.1658 17.8603 38.0285C17.9766 41.2942 18.2349 45.1268 18.5874 49.8761C18.9345 54.5817 20.017 58.6935 21.8062 62.0964C27.3717 72.6689 38.1772 74.1502 45.7395 72.2029C53.3027 70.2566 62.0516 63.7455 61.8167 51.8005V51.8002C61.7454 47.9577 60.711 43.8344 58.7422 39.5439C56.8389 35.4003 55.3862 32.2853 54.0283 29.5643C52.4817 26.4521 51.196 24.153 49.9833 22.3266C47.8468 19.1013 45.858 17.2781 43.5354 16.4134C42.3841 15.9818 41.128 15.762 39.6303 15.762ZM39.9082 73.7881C33.0651 73.7881 25.4749 70.8971 21.0517 62.4932C19.2076 58.9855 18.0926 54.7626 17.7369 49.9394C17.3844 45.1804 17.125 41.3382 17.0081 38.059C16.7966 32.0919 17.0887 28.3634 17.9843 25.5929C19.6565 20.413 23.6054 18.3889 29.8614 16.6431C30.3341 16.5082 30.8283 16.3761 31.3402 16.245C36.3854 14.9468 40.4413 14.3427 43.8343 15.6149C46.3358 16.5461 48.4518 18.4709 50.6941 21.8561C51.9274 23.7118 53.2294 26.0408 54.7917 29.1844C56.1545 31.9151 57.6101 35.0366 59.5173 39.1885C61.5352 43.5856 62.5963 47.8237 62.6699 51.7838C62.9144 64.2268 53.8171 71.005 45.9518 73.0294C44.0881 73.5085 42.0338 73.7878 39.9082 73.7881Z" fill="#C75314"/>
<path d="M32.6366 43.2632C33.4987 46.6134 31.4817 50.0283 28.1311 50.8907C24.7806 51.7529 21.3658 49.7355 20.504 46.3853C19.6415 43.0348 21.6585 39.6199 25.0091 38.7578C28.3599 37.8957 31.7747 39.9127 32.6366 43.2632Z" fill="white"/>
<path d="M26.5695 38.9857C26.0891 38.9857 25.602 39.0452 25.1155 39.1702C21.9982 39.9725 20.1149 43.1615 20.9172 46.2784C21.3057 47.7887 22.2591 49.0573 23.6013 49.85C24.9435 50.6434 26.5142 50.8661 28.0255 50.4773C31.1421 49.6755 33.0254 46.4866 32.2237 43.369C31.547 40.7376 29.1688 38.9857 26.5695 38.9857ZM26.5589 51.5171C25.3773 51.5171 24.2125 51.2015 23.1679 50.5846C21.629 49.6755 20.5361 48.2215 20.0908 46.4911C19.1714 42.9185 21.3298 39.264 24.9027 38.3443C28.475 37.4253 32.1302 39.5837 33.0498 43.1566C33.9688 46.7295 31.8101 50.3841 28.2372 51.3034C27.6816 51.4461 27.1183 51.5171 26.5589 51.5171Z" fill="black"/>
<path d="M32.0482 43.4134C32.6093 45.5924 31.297 47.8089 29.1177 48.369C26.9426 48.9291 24.7231 47.6213 24.1624 45.4423C23.6026 43.2665 24.914 41.0471 27.0897 40.487C28.1983 40.2013 29.3185 40.3993 30.2221 40.9536C29.5865 42.2164 29.4014 43.3411 29.8268 43.5888C30.1996 43.8096 30.9242 43.3032 31.6359 42.3967C31.8146 42.7094 31.9547 43.0497 32.0482 43.4134Z" fill="black"/>
<path d="M43.991 40.3411C44.8532 43.6913 48.268 45.7086 51.6189 44.8462C54.9691 43.9843 56.9864 40.5695 56.1239 37.219C55.2621 33.8681 51.8473 31.8514 48.4968 32.7136C45.1459 33.5757 43.1292 36.9908 43.991 40.3411Z" fill="white"/>
<path d="M50.0566 32.9421C49.5765 32.9421 49.0893 33.0016 48.6028 33.1269C45.4859 33.9293 43.6019 37.1182 44.4043 40.2351C44.7928 41.745 45.7459 43.0134 47.0884 43.8067C48.4313 44.5991 50.0016 44.8221 51.5122 44.4333C54.6294 43.6316 56.5128 40.4427 55.7107 37.3254C55.034 34.6947 52.6561 32.9421 50.0566 32.9421ZM50.0456 45.4741C48.8638 45.4741 47.6989 45.1579 46.6549 44.541C45.1164 43.6326 44.0235 42.1785 43.5782 40.4478C42.6585 36.8756 44.8175 33.221 48.3904 32.3007C51.963 31.3824 55.6172 33.5404 56.5369 37.1133C57.4565 40.6859 55.2975 44.3408 51.7252 45.2601C51.1687 45.4028 50.6051 45.4735 50.0456 45.4741Z" fill="black"/>
<path d="M52.4637 38.1599C53.0244 40.3389 51.712 42.5551 49.5363 43.1152C47.3612 43.675 45.1417 42.3672 44.5813 40.1879C44.0216 38.0128 45.3329 35.793 47.5087 35.2329C48.6137 34.9489 49.7307 35.1471 50.6362 35.6972C50.0019 36.9636 49.8204 38.087 50.2458 38.3354C50.6157 38.5565 51.3399 38.0501 52.0523 37.1474C52.2304 37.4591 52.3701 37.7962 52.4637 38.1599Z" fill="black"/>
<path d="M52.8846 53.2057C54.677 55.9608 53.9684 59.6009 51.302 61.3358C48.6356 63.07 45.0209 62.2429 43.2285 59.4875C43.2285 59.4875 45.8522 59.0549 48.519 57.3204C51.1851 55.5852 52.8846 53.2057 52.8846 53.2057Z" fill="white"/>
<path d="M43.9591 59.7654C44.7483 60.7307 45.8202 61.4022 47.033 61.6799C48.4439 62.0031 49.878 61.7535 51.0702 60.9787C53.3677 59.4839 54.0917 56.4431 52.8337 53.9688C52.173 54.7805 50.7293 56.392 48.7521 57.678C46.8189 58.9347 44.9263 59.5237 43.9591 59.7654ZM46.8427 62.5112C45.2091 62.1371 43.7994 61.1461 42.8714 59.7197C42.7933 59.5992 42.7811 59.4472 42.8386 59.3155C42.8968 59.1838 43.0173 59.0906 43.1593 59.0665C43.1847 59.0626 45.7328 58.6234 48.2868 56.963C50.8494 55.2956 52.5213 52.9811 52.538 52.9582C52.62 52.8432 52.7562 52.785 52.8944 52.7796C53.0358 52.7828 53.1656 52.8551 53.2427 52.9734C55.1604 55.9213 54.3944 59.8332 51.5352 61.693C49.5985 62.9533 47.6862 62.7046 46.8427 62.5112Z" fill="black"/>
<path d="M51.9618 63.1797C51.8009 63.1797 51.6466 63.0881 51.5743 62.9319C51.476 62.7179 51.5692 62.4647 51.7829 62.3661C53.0875 61.7642 54.1064 60.582 54.5091 59.2032C54.5746 58.977 54.8117 58.8481 55.0376 58.9133C55.2639 58.9795 55.3937 59.216 55.3278 59.4419C54.8574 61.0544 53.6656 62.4368 52.1405 63.1405C52.0823 63.1675 52.0219 63.1797 51.9618 63.1797Z" fill="black"/>
<path d="M43.8822 52.9296C43.9239 53.5414 44.9814 53.9671 46.244 53.8804C47.5068 53.7936 48.4959 53.2274 48.4541 52.6156C48.412 52.0038 47.3545 51.578 46.092 51.6648C44.8298 51.7515 43.8401 52.3174 43.8822 52.9296Z" fill="#FFBF4D"/>
<path d="M46.4204 52.0795C46.3243 52.0795 46.2251 52.0827 46.1219 52.0898C45.5824 52.127 45.0676 52.2652 44.7106 52.4699C44.4233 52.6344 44.3016 52.8047 44.3083 52.9005C44.3147 52.9962 44.4587 53.1476 44.7652 53.2713C45.147 53.4252 45.6762 53.4927 46.2154 53.4548C47.3693 53.3751 48.0461 52.8851 48.0297 52.6444C48.0146 52.4249 47.4018 52.0795 46.4204 52.0795ZM45.9211 54.3179C45.3761 54.3179 44.8626 54.2295 44.4468 54.0621C43.8411 53.8182 43.4895 53.4265 43.4574 52.9586C43.4256 52.4905 43.7199 52.0541 44.2868 51.7295C44.7591 51.4596 45.3899 51.2851 46.0641 51.2389C47.6142 51.136 48.8208 51.7119 48.8806 52.5856C48.9406 53.4596 47.8198 54.1993 46.2745 54.3057C46.156 54.3134 46.038 54.3179 45.9211 54.3179Z" fill="#F49004"/>
<path d="M39.3716 54.1696C39.6486 54.7169 38.9568 55.6233 37.8276 56.1943C36.6978 56.765 35.558 56.7843 35.2817 56.2371C35.005 55.6898 35.6962 54.7831 36.826 54.2124C37.9548 53.6414 39.0949 53.6224 39.3716 54.1696Z" fill="#FFBF4D"/>
<path d="M38.4619 54.198C38.1017 54.198 37.5911 54.3037 37.0185 54.5932C35.986 55.1151 35.5542 55.8297 35.6624 56.045C35.7058 56.1311 35.8948 56.2182 36.228 56.2092C36.6396 56.2021 37.1528 56.0585 37.6354 55.814C38.6679 55.2921 39.1007 54.5775 38.9918 54.3622C38.9429 54.2661 38.7511 54.198 38.4619 54.198ZM36.1971 57.062C35.5673 57.062 35.1078 56.8384 34.9012 56.429C34.5066 55.6472 35.2508 54.5309 36.6335 53.8313C38.0165 53.1334 39.3575 53.1954 39.7527 53.9769C40.1479 54.759 39.4031 55.876 38.0204 56.5749C37.4179 56.8792 36.7865 57.052 36.2424 57.0614L36.1971 57.062Z" fill="#F49004"/>
<path d="M33.9062 110.128C33.9062 110.128 33.5062 104.292 29.5143 102.587C24.9356 100.63 22.5391 104.123 22.5391 104.123C23.1448 108.948 25.9587 120.13 27.7919 125.397C28.6624 127.902 29.2806 129.577 29.2806 129.577L34.6238 128.18L34.6276 124.36L33.9062 110.128Z" fill="#F49004"/>
<path d="M33.9062 110.128C33.9062 110.128 33.5062 104.292 29.5143 102.587C24.9356 100.63 22.5391 104.123 22.5391 104.123C23.1448 108.948 25.9587 120.13 27.7919 125.397C28.6624 127.902 29.2806 129.577 29.2806 129.577L34.6238 128.18L34.6276 124.36L33.9062 110.128Z" fill="#F49004"/>
<path d="M22.9833 104.241C23.6487 109.28 26.4569 120.266 28.1937 125.257C28.8203 127.059 29.32 128.443 29.5471 129.066L34.1965 127.851L34.2 124.359L33.4793 110.154C33.4671 109.995 33.0111 104.545 29.345 102.978C25.5899 101.374 23.4495 103.66 22.9833 104.241ZM29.2795 130.003C29.1047 130.003 28.9427 129.895 28.8797 129.724C28.8733 129.707 28.2499 128.017 27.3881 125.537C25.6185 120.452 22.7432 109.179 22.1147 104.176C22.1015 104.073 22.1272 103.968 22.186 103.882C22.2121 103.844 24.8354 100.124 29.6802 102.194C33.8643 103.982 34.3132 109.849 34.3302 110.099L34.3308 110.106L35.0519 124.338L35.0487 128.181C35.0484 128.375 34.9176 128.544 34.7302 128.593L29.3874 129.989C29.3518 129.998 29.3155 130.003 29.2795 130.003Z" fill="#C75314"/>
<path d="M34.6267 124.36L34.6229 128.18L29.2798 129.577C29.2798 129.577 28.6615 127.902 27.791 125.397L34.6267 124.36Z" fill="#9E3F10"/>
<path d="M28.3638 125.742C28.9107 127.306 29.3419 128.5 29.5479 129.066L34.1972 127.852L34.2005 124.856L28.3638 125.742ZM29.2802 130.003C29.1054 130.003 28.9434 129.895 28.8805 129.724C28.874 129.707 28.2506 128.017 27.3888 125.537C27.3474 125.418 27.3609 125.285 27.4267 125.177C27.4923 125.068 27.6025 124.994 27.7278 124.976L34.5636 123.938C34.6857 123.919 34.811 123.955 34.9055 124.037C34.9999 124.118 35.0539 124.236 35.0539 124.36L35.0501 128.181C35.0497 128.375 34.9189 128.544 34.7316 128.594L29.3888 129.989C29.3525 129.998 29.3162 130.003 29.2802 130.003Z" fill="#6B240A"/>
<path d="M41.7328 110.128C41.7328 110.128 42.1329 104.292 46.1248 102.587C50.7035 100.63 53.1 104.123 53.1 104.123C52.4939 108.948 49.68 120.13 47.8468 125.397C46.9763 127.902 46.3584 129.577 46.3584 129.577L41.0153 128.18L41.0117 124.36L41.7328 110.128Z" fill="#F49004"/>
<path d="M41.7328 110.128C41.7328 110.128 42.1329 104.292 46.1248 102.587C50.7035 100.63 53.1 104.123 53.1 104.123C52.4939 108.948 49.68 120.13 47.8468 125.397C46.9763 127.902 46.3584 129.577 46.3584 129.577L41.0153 128.18L41.0117 124.36L41.7328 110.128Z" fill="#F49004"/>
<path d="M41.442 127.851L46.0913 129.066C46.3185 128.443 46.8179 127.059 47.4445 125.257C49.1816 120.266 51.9897 109.28 52.6549 104.241C52.1909 103.661 50.0515 101.372 46.2928 102.979C42.6271 104.545 42.1711 109.994 42.1585 110.154L41.4375 124.382L41.442 127.851ZM46.359 130.003C46.323 130.003 46.2867 129.998 46.251 129.989L40.9082 128.593C40.7209 128.544 40.5895 128.375 40.5895 128.181L40.5859 124.36L41.308 110.105L41.3083 110.098C41.3253 109.849 41.7739 103.982 45.958 102.194C50.8031 100.125 53.4264 103.844 53.4525 103.882C53.5109 103.968 53.5366 104.073 53.5235 104.176C52.8949 109.179 50.02 120.451 48.2501 125.537C47.3886 128.017 46.7649 129.707 46.7591 129.724C46.6954 129.895 46.5335 130.003 46.359 130.003Z" fill="#C75314"/>
<path d="M41.0117 124.36L41.0156 128.18L46.3587 129.577C46.3587 129.577 46.9766 127.902 47.8471 125.397L41.0117 124.36Z" fill="#9E3F10"/>
<path d="M41.442 127.851L46.0913 129.066C46.2973 128.499 46.7286 127.306 47.2755 125.741L41.4388 124.855L41.442 127.851ZM46.359 130.003C46.323 130.003 46.2867 129.998 46.251 129.989L40.9082 128.593C40.7209 128.544 40.5895 128.375 40.5895 128.181L40.5859 124.36C40.5856 124.235 40.6399 124.118 40.7341 124.036C40.8282 123.956 40.9542 123.919 41.076 123.938L47.9117 124.975C48.0367 124.994 48.1469 125.068 48.2128 125.177C48.2783 125.285 48.2918 125.417 48.2504 125.537C47.3889 128.016 46.7652 129.707 46.7594 129.724C46.6955 129.895 46.5335 130.003 46.359 130.003Z" fill="#6B240A"/>
</svg>
