<svg width="119" height="133" viewBox="0 0 119 133" fill="none" xmlns="http://www.w3.org/2000/svg">
<path d="M61.3133 132.979C46.7198 132.979 34.8887 130.092 34.8887 126.531C34.8887 122.97 46.7198 120.084 61.3133 120.084C75.9073 120.084 87.7382 122.97 87.7382 126.531C87.7382 130.092 75.9073 132.979 61.3133 132.979Z" fill="url(#paint0_radial_83_1994)"/>
<path fill-rule="evenodd" clip-rule="evenodd" d="M61.2908 65.5253C70.0177 67.871 79.474 84.2596 79.474 94.3953C79.474 104.53 72.0872 109.799 61.2908 109.799C50.4944 109.799 43.0176 105.168 43.0176 95.0328C43.0176 84.8971 54.2529 68.248 61.2908 65.5253Z" fill="white"/>
<path fill-rule="evenodd" clip-rule="evenodd" d="M37.4907 0.698994C25.8585 7.22689 47.3992 27.52 51.1502 36.9606C53.1669 42.0359 56.702 39.6086 57.5993 33.4317C59.4487 20.6905 46.7744 -4.51071 37.4907 0.698994Z" fill="white"/>
<path fill-rule="evenodd" clip-rule="evenodd" d="M40.2701 7.51748C33.6854 11.3686 48.7137 27.1718 51.8419 36.0132C52.8475 38.8531 55.1672 37.6179 55.0198 34.6545C54.527 24.7081 46.7202 3.74593 40.2701 7.51748Z" fill="#F7C8E7"/>
<path fill-rule="evenodd" clip-rule="evenodd" d="M85.7398 1.7361C97.3719 8.264 75.8318 28.5565 72.0801 37.9977C70.0641 43.0724 66.5284 40.645 65.6318 34.4681C63.7823 21.727 76.4556 -3.47428 85.7398 1.7361Z" fill="white"/>
<path fill-rule="evenodd" clip-rule="evenodd" d="M82.9601 8.55361C89.5442 12.404 74.5163 28.2079 71.3877 37.0493C70.3828 39.8893 68.0625 38.654 68.2098 35.6907C68.7027 25.7442 76.5104 4.78205 82.9601 8.55361Z" fill="#F7C8E7"/>
<path fill-rule="evenodd" clip-rule="evenodd" d="M61.1758 33.3013C73.1766 33.3013 81.8583 43.7947 82.905 54.0756C83.9511 64.3559 73.1766 70.9194 61.1758 70.9194C49.1752 70.9194 38.1019 64.8042 39.4471 54.0756C40.7921 43.3464 49.1752 33.3013 61.1758 33.3013Z" fill="white"/>
<path fill-rule="evenodd" clip-rule="evenodd" d="M64.1128 52.9395C64.1128 54.6841 62.3134 55.5972 61.2413 55.5972C60.1692 55.5972 58.2402 54.6841 58.2402 52.9395C58.2402 51.1586 64.1128 51.16 64.1128 52.9395Z" fill="#36404B"/>
<path fill-rule="evenodd" clip-rule="evenodd" d="M71.2019 52.4881C73.5984 53.1325 75.2476 54.7441 74.8864 56.0876C74.5251 57.4312 72.2898 57.9981 69.8933 57.3537C67.4968 56.7094 65.8476 55.0971 66.2088 53.7542C66.5708 52.4107 68.8054 51.8438 71.2019 52.4881Z" fill="#F7C8E7"/>
<path fill-rule="evenodd" clip-rule="evenodd" d="M51.1506 52.4881C48.7546 53.1325 47.1052 54.7441 47.4667 56.0876C47.8279 57.4312 50.0634 57.9981 52.4598 57.3537C54.8556 56.7094 56.5056 55.0971 56.1443 53.7542C55.7824 52.4107 53.5477 51.8438 51.1506 52.4881Z" fill="#F7C8E7"/>
<path fill-rule="evenodd" clip-rule="evenodd" d="M67.9884 42.8236C69.1017 43.1231 69.8681 43.8717 69.7001 44.4955C69.5322 45.1193 68.6554 45.0274 67.5429 44.7279C66.4296 44.4283 65.5022 44.0355 65.6701 43.4117C65.8381 42.7879 66.8759 42.5247 67.9884 42.8236Z" fill="#F7C8E7"/>
<path fill-rule="evenodd" clip-rule="evenodd" d="M54.3633 42.8236C53.2507 43.1231 52.485 43.8717 52.653 44.4955C52.8202 45.1193 53.697 45.0274 54.8095 44.7279C55.9228 44.4283 56.8502 44.0355 56.6823 43.4117C56.515 42.7879 55.4765 42.5247 54.3633 42.8236Z" fill="#F7C8E7"/>
<path fill-rule="evenodd" clip-rule="evenodd" d="M51.4095 106.106C55.7103 109.273 55.4498 117.847 53.0616 119.732C51.4692 120.989 44.8208 120.362 43.7155 123.653C42.1049 128.444 51.96 128.285 55.4614 127.212C58.2486 126.358 60.2695 125.336 60.0021 123.76C58.6353 115.668 58.7751 109.64 62.1655 109.707C60.8336 105.124 53.8533 102.024 51.4095 106.106Z" fill="white"/>
<path fill-rule="evenodd" clip-rule="evenodd" d="M71.0806 106.106C66.7805 109.273 67.0404 117.847 69.4286 119.732C71.021 120.989 77.6688 120.362 78.7752 123.653C80.3854 128.444 70.5302 128.285 67.0287 127.212C64.2415 126.358 62.2207 125.336 62.4873 123.76C63.8556 115.668 63.9536 109.645 60.5625 109.711C61.8944 105.129 68.6375 102.024 71.0806 106.106Z" fill="white"/>
<path d="M55.4817 57.7911C56.9281 59.1586 59.1251 59.8146 61.3529 59.8174C63.5609 59.8153 65.8182 59.1689 67.4312 57.8062C67.6046 57.6595 67.6258 57.4004 67.4791 57.2269C67.3324 57.0535 67.0726 57.0322 66.8992 57.1789C65.4871 58.3799 63.4012 58.9969 61.3529 58.9948C59.2848 58.9975 57.2743 58.3655 56.048 57.1947C55.8834 57.0377 55.623 57.0446 55.4667 57.2091C55.3104 57.3743 55.3165 57.6341 55.4817 57.7911Z" fill="#36404B"/>
<path d="M60.7646 53.6003V59.4036C60.7646 59.6312 60.949 59.8149 61.1759 59.8149C61.4035 59.8149 61.5872 59.6312 61.5872 59.4036V53.6003C61.5872 53.3734 61.4035 53.189 61.1759 53.189C60.949 53.189 60.7646 53.3734 60.7646 53.6003Z" fill="#36404B"/>
<path d="M70.2458 48.8998C69.6981 48.2946 68.9536 47.96 68.2071 47.9594C67.4702 47.9559 66.7278 48.3 66.2405 48.9931C66.1095 49.1782 66.1534 49.4352 66.3385 49.5661C66.5236 49.6978 66.7806 49.6539 66.9116 49.4688C67.255 48.9896 67.7136 48.7854 68.2071 48.7819C68.7055 48.7813 69.236 49.0088 69.6364 49.4517C69.7885 49.6203 70.0483 49.6333 70.217 49.4811C70.3856 49.3283 70.3986 49.0685 70.2458 48.8998Z" fill="#36404B"/>
<path d="M53.1355 49.7208C53.5352 49.2485 54.0815 49.0031 54.5956 49.0037C55.0693 49.0065 55.5135 49.1977 55.859 49.6488C55.9961 49.8298 56.2538 49.8647 56.4348 49.7276C56.6157 49.5905 56.6514 49.3321 56.5143 49.1511C56.0235 48.4999 55.3058 48.1777 54.5956 48.1812C53.8217 48.1818 53.0546 48.5438 52.5076 49.1888C52.3609 49.3623 52.3822 49.6221 52.5556 49.7688C52.729 49.9154 52.9881 49.8942 53.1355 49.7208Z" fill="#36404B"/>
<path fill-rule="evenodd" clip-rule="evenodd" d="M38.1656 73.104C36.4996 72.7997 34.7724 72.509 33.1292 71.6309C29.3874 69.63 27.5435 69.6526 27.1445 72.4706C26.9113 74.1186 26.7696 76.1695 31.9925 76.9105C33.4226 77.1141 35.5886 77.6036 38.1158 77.4343C40.9801 77.2423 40.7878 73.5839 38.1656 73.104Z" fill="white"/>
<path fill-rule="evenodd" clip-rule="evenodd" d="M33.8218 71.9654C32.1397 70.6177 31.2927 68.2823 30.1236 69.061C29.4239 69.5271 30.5938 70.9269 31.6858 72.2704C34.2376 75.4106 35.5042 73.3137 33.8218 71.9654Z" fill="white"/>
<path fill-rule="evenodd" clip-rule="evenodd" d="M54.5808 69.9844C51.7113 70.5869 40.4898 73.115 34.1578 71.3149C33.8333 73.309 33.1215 75.6664 32.9834 77.7455C38.6124 78.7943 48.7964 79.8904 55.4582 78.8354C63.8417 77.5076 61.4658 68.5387 54.5808 69.9844Z" fill="white"/>
<mask id="mask0_83_1994" style="mask-type:luminance" maskUnits="userSpaceOnUse" x="26" y="70" width="4" height="6">
<path d="M28.0319 75.5605C27.9031 75.5585 27.7762 75.5372 27.653 75.4954C26.696 75.1705 26.323 73.7227 26.8192 72.262C27.2484 71 28.1867 70.1411 29.0513 70.1411C29.1354 70.1411 29.2184 70.1493 29.3006 70.1658C29.2974 70.1877 29.2939 70.2103 29.2907 70.2323C29.2454 70.2302 29.201 70.2295 29.1573 70.2295C28.0078 70.2295 27.3612 70.9349 27.1437 72.4711C27.0007 73.4808 26.8923 74.642 28.0319 75.5605Z" fill="white"/>
</mask>
<g mask="url(#mask0_83_1994)">
<path d="M26.3232 75.5605H29.3008V70.1409H26.3232V75.5605Z" fill="#2F758A"/>
</g>
<path d="M28.0534 75.5605C28.0464 75.5605 28.0397 75.5599 28.0327 75.5599C26.8931 74.6413 27.0015 73.4801 27.1445 72.4704C27.362 70.9342 28.0086 70.2288 29.1582 70.2288C29.2018 70.2288 29.2462 70.2295 29.2915 70.2316C29.0368 71.9391 28.5699 73.8071 28.0584 75.5605C28.0568 75.5605 28.0549 75.5605 28.0534 75.5605Z" fill="#C2C4C2"/>
<path d="M28.0586 75.5605C28.57 73.8071 29.037 71.9391 29.2917 70.2316C29.2949 70.2096 29.2984 70.187 29.3016 70.1651C29.3522 70.1754 29.4023 70.1884 29.4518 70.2055C30.4082 70.5311 30.7816 71.9782 30.2851 73.439C29.8572 74.6989 28.9216 75.5564 28.0586 75.5605Z" fill="#52C2B6"/>
<path d="M93.1801 70.2622C93.1711 70.2012 93.1622 70.1395 93.1533 70.0785C93.3267 70.097 93.5016 70.1477 93.6736 70.2286C93.6633 70.2286 93.653 70.2286 93.6428 70.2286C93.4968 70.2286 93.3425 70.2403 93.1801 70.2622Z" fill="#2F758A"/>
<path fill-rule="evenodd" clip-rule="evenodd" d="M84.6357 73.104C86.3014 72.7997 88.0282 72.509 89.672 71.6309C93.4134 69.63 95.2573 69.6526 95.6563 72.4706C95.89 74.1186 96.0319 76.1695 90.8085 76.9105C89.3786 77.1141 87.2124 77.6036 84.6851 77.4343C81.8211 77.2423 82.013 73.5839 84.6357 73.104Z" fill="white"/>
<path fill-rule="evenodd" clip-rule="evenodd" d="M88.9807 71.9654C90.6629 70.6177 91.5094 68.2823 92.6789 69.061C93.3781 69.5271 92.2086 70.9269 91.1167 72.2704C88.5653 75.4106 87.2985 73.3137 88.9807 71.9654Z" fill="white"/>
<path fill-rule="evenodd" clip-rule="evenodd" d="M68.2207 69.9844C71.0908 70.5869 82.3122 73.115 88.6434 71.3149C88.9683 73.309 89.6799 75.6664 89.8183 77.7455C84.1898 78.7943 74.0048 79.8904 67.3433 78.8354C58.9597 77.5076 61.3356 68.5387 68.2207 69.9844Z" fill="white"/>
<path d="M94.3741 75.438C93.8792 73.7311 93.4309 71.9221 93.1807 70.2626C93.3431 70.2406 93.4974 70.229 93.6434 70.229C93.6537 70.229 93.6639 70.229 93.6742 70.229C94.3199 70.532 94.9245 71.2497 95.2447 72.1922C95.7416 73.653 95.3681 75.1007 94.4118 75.4257C94.3988 75.4305 94.3864 75.4339 94.3741 75.438Z" fill="#C2C4C2"/>
<path d="M94.0131 75.4917C93.1481 75.4917 92.2103 74.6328 91.7812 73.3701C91.2849 71.91 91.6578 70.4623 92.6148 70.1367C92.7443 70.0928 92.8787 70.0715 93.0144 70.0715C93.061 70.0715 93.1076 70.0743 93.1549 70.0791C93.1638 70.1401 93.1727 70.2018 93.1816 70.2628C93.4319 71.9224 93.8802 73.7314 94.3751 75.4382C94.2565 75.4739 94.1358 75.4917 94.0131 75.4917Z" fill="#52C2B6"/>
<path fill-rule="evenodd" clip-rule="evenodd" d="M25.0447 63.8664C23.5755 64.1706 21.7295 63.686 21.6293 64.6577C21.5689 65.2402 23.056 65.1373 24.2608 65.1474C27.0765 65.1711 26.5139 63.5615 25.0447 63.8664Z" fill="white"/>
<path fill-rule="evenodd" clip-rule="evenodd" d="M18.4824 49.1186C12.6018 48.095 4.31969 41.361 5.85064 39.2803C7.40385 37.1705 16.9839 43.92 18.4824 49.1186Z" fill="#63CBC7"/>
<path fill-rule="evenodd" clip-rule="evenodd" d="M18.4824 49.1187C14.3176 53.6552 7.26996 52.7887 6.75559 50.2574C6.23381 47.6903 13.0251 47.8545 18.4824 49.1187Z" fill="#63CBC7"/>
<path fill-rule="evenodd" clip-rule="evenodd" d="M18.4824 49.1187C17.3933 43.8451 15.7541 38.7723 18.3367 38.8158C20.9561 38.8597 22.0105 44.3258 18.4824 49.1187Z" fill="#95D669"/>
<path fill-rule="evenodd" clip-rule="evenodd" d="M18.4823 49.1188C12.6017 48.0951 4.31987 41.3608 5.85049 39.2804C8.90261 42.141 13.9647 46.1736 18.4823 49.1188Z" fill="#71CFD0"/>
<path fill-rule="evenodd" clip-rule="evenodd" d="M18.4816 49.119C15.0295 50.2256 10.6784 51.2503 6.75475 50.2577C6.23296 47.6906 13.0243 47.8548 18.4816 49.119Z" fill="#71CFD0"/>
<path fill-rule="evenodd" clip-rule="evenodd" d="M18.4824 49.1187C17.3933 43.8451 15.7541 38.7723 18.3367 38.8158C20.9561 38.8597 22.0105 44.3258 18.4824 49.1187Z" fill="#63CBC7"/>
<path fill-rule="evenodd" clip-rule="evenodd" d="M18.4824 49.1187C16.0273 43.4654 15.7541 38.7723 18.3367 38.8158C17.7083 41.5975 17.6031 44.0259 18.4824 49.1187Z" fill="#71CFD0"/>
<path fill-rule="evenodd" clip-rule="evenodd" d="M55.6301 86.7199C53.92 88.38 38.7238 78.4354 29.0491 70.5469C21.6172 64.4872 15.1153 57.6837 15.6826 52.2574C15.8311 50.8341 16.939 50.199 18.1715 49.0029C18.3708 48.8097 18.5628 48.6164 18.7506 48.4279C19.8252 47.3465 20.7561 46.4088 22.0975 46.3822C27.4611 46.2776 33.9168 52.705 39.6345 60.0437C47.3318 69.9246 57.554 84.8533 55.6301 86.7199Z" fill="#F57C41"/>
<path fill-rule="evenodd" clip-rule="evenodd" d="M26.3472 47.4658C26.0153 48.1978 25.5232 48.9307 24.938 49.6359C23.8967 50.8903 22.552 52.0671 21.3111 52.9829C21.0855 53.1498 20.7674 53.1023 20.6004 52.8766C20.4338 52.6513 20.4817 52.3329 20.707 52.1663C21.8909 51.2927 23.1706 50.1736 24.1568 48.985C24.6863 48.3468 25.1282 47.6925 25.4183 47.0537C25.7262 47.1754 26.0358 47.313 26.3472 47.4658Z" fill="#EF6E2F"/>
<path fill-rule="evenodd" clip-rule="evenodd" d="M30.0924 54.3538C30.1194 54.0745 30.3683 53.8708 30.6479 53.8981C30.9268 53.9254 31.1312 54.1743 31.1036 54.4536C31 55.5245 29.6762 57.3624 28.068 58.9868C26.509 60.5619 24.6566 61.9765 23.381 62.3226C23.1102 62.3971 22.8306 62.2376 22.7557 61.9671C22.6815 61.6966 22.8407 61.4166 23.1112 61.3417C24.2141 61.0422 25.8972 59.7376 27.3465 58.2727C28.8117 56.7927 30.0114 55.1902 30.0924 54.3538Z" fill="#EF6E2F"/>
<path fill-rule="evenodd" clip-rule="evenodd" d="M26.4755 68.3798C26.692 68.2334 26.9082 68.0752 27.1234 67.9073C28.341 66.9568 29.4986 65.7115 30.4069 64.5543C30.5806 64.334 30.9 64.2959 31.1203 64.4696C31.3409 64.643 31.379 64.9624 31.2056 65.1823C30.2528 66.3955 29.0362 67.7039 27.7505 68.7076C27.5916 68.8314 27.4317 68.9508 27.2712 69.0648C27.0037 68.8372 26.7383 68.6088 26.4755 68.3798Z" fill="#EF6E2F"/>
<path fill-rule="evenodd" clip-rule="evenodd" d="M40.5305 61.2087C39.5038 62.4189 38.2052 63.5508 37.0025 64.4379C36.7772 64.6045 36.4588 64.5573 36.2918 64.3317C36.1252 64.1064 36.1731 63.788 36.3984 63.6213C37.5826 62.7474 38.8626 61.628 39.8485 60.4397L39.8974 60.3807C40.1092 60.6559 40.3204 60.9318 40.5305 61.2087Z" fill="#EF6E2F"/>
<path fill-rule="evenodd" clip-rule="evenodd" d="M41.022 67.227C41.049 66.9477 41.2979 66.7433 41.5772 66.771C41.8565 66.7987 42.0612 67.0472 42.0336 67.3265C41.9496 68.193 40.8959 69.6616 39.6182 70.9527C38.3824 72.2013 36.9095 73.3235 35.8888 73.6008C35.6183 73.675 35.3384 73.5158 35.2638 73.2449C35.1896 72.9744 35.3485 72.6948 35.6193 72.6203C36.467 72.3899 37.7699 71.377 38.8971 70.2383C40.0321 69.0912 40.961 67.8581 41.022 67.227Z" fill="#EF6E2F"/>
<path fill-rule="evenodd" clip-rule="evenodd" d="M48.4239 73.1304C47.4815 74.1503 46.3752 75.0954 45.3404 75.8583C45.1148 76.0253 44.7967 75.9777 44.6297 75.7521C44.4631 75.5268 44.5107 75.2087 44.7363 75.0418C45.8065 74.2522 46.9547 73.2619 47.894 72.2011C48.0751 72.5145 48.2519 72.8241 48.4239 73.1304Z" fill="#EF6E2F"/>
<path fill-rule="evenodd" clip-rule="evenodd" d="M46.7853 82.3302C47.3854 81.7194 47.9426 81.0745 48.4286 80.4556C48.6023 80.2353 48.9217 80.1972 49.1423 80.3706C49.3625 80.5443 49.4003 80.8634 49.2273 81.0836C48.7915 81.6388 48.3004 82.2135 47.7732 82.7697C47.4579 82.6372 47.1283 82.4904 46.7853 82.3302Z" fill="#EF6E2F"/>
<path fill-rule="evenodd" clip-rule="evenodd" d="M91.4745 69.7375C92.9096 70.1753 94.7923 69.8621 94.8028 70.839C94.8094 71.4245 93.3381 71.1856 92.1374 71.085C89.3315 70.8501 90.0395 69.299 91.4745 69.7375Z" fill="white"/>
<path fill-rule="evenodd" clip-rule="evenodd" d="M99.3627 55.6545C105.312 55.1751 114.178 49.2299 112.844 47.0174C111.491 44.774 101.332 50.6154 99.3627 55.6545Z" fill="#63CBC7"/>
<path fill-rule="evenodd" clip-rule="evenodd" d="M99.3628 55.6543C103.094 60.554 110.191 60.3382 110.936 57.8648C111.691 55.3564 104.913 54.8965 99.3628 55.6543Z" fill="#63CBC7"/>
<path fill-rule="evenodd" clip-rule="evenodd" d="M99.3628 55.6548C100.931 50.5035 103.029 45.6026 100.454 45.4089C97.8414 45.212 96.2897 50.5583 99.3628 55.6548Z" fill="#95D669"/>
<path fill-rule="evenodd" clip-rule="evenodd" d="M99.3628 55.6547C105.313 55.1752 114.178 49.2297 112.845 47.0176C109.543 49.5858 104.132 53.1367 99.3628 55.6547Z" fill="#71CFD0"/>
<path fill-rule="evenodd" clip-rule="evenodd" d="M99.3622 55.6547C102.698 57.0736 106.937 58.4934 110.935 57.8652C111.69 55.3568 104.913 54.8969 99.3622 55.6547Z" fill="#71CFD0"/>
<path fill-rule="evenodd" clip-rule="evenodd" d="M99.3628 55.6548C100.931 50.5035 103.029 45.6026 100.454 45.4089C97.8414 45.212 96.2897 50.5583 99.3628 55.6548Z" fill="#63CBC7"/>
<path fill-rule="evenodd" clip-rule="evenodd" d="M99.3628 55.6548C102.327 50.2508 103.029 45.6026 100.454 45.4089C100.824 48.2364 100.706 50.6643 99.3628 55.6548Z" fill="#71CFD0"/>
<path fill-rule="evenodd" clip-rule="evenodd" d="M58.9211 89.6853C60.4715 91.4954 76.5165 82.9879 86.8747 76.0209C94.8314 70.6691 101.931 64.4913 101.864 59.0358C101.847 57.6049 100.802 56.8707 99.6842 55.5666C99.5035 55.3558 99.3301 55.1458 99.1603 54.9408C98.1896 53.7653 97.3487 52.7462 96.0154 52.5965C90.6841 51.9999 83.6655 57.8075 77.2982 64.5903C68.7263 73.7228 57.1767 87.65 58.9211 89.6853Z" fill="#F57C41"/>
<path fill-rule="evenodd" clip-rule="evenodd" d="M91.682 53.2865C91.9453 54.0458 92.3681 54.8208 92.886 55.5768C93.8077 56.9215 95.0387 58.2168 96.1903 59.2426C96.3997 59.4296 96.7207 59.4114 96.9077 59.2021C97.0943 58.993 97.0759 58.6715 96.8668 58.4849C95.7681 57.5064 94.5966 56.2745 93.7237 55.0003C93.2549 54.3163 92.875 53.6241 92.6448 52.9614C92.327 53.0543 92.006 53.163 91.682 53.2865Z" fill="#EF6E2F"/>
<path fill-rule="evenodd" clip-rule="evenodd" d="M87.3199 59.8017C87.3187 59.5211 87.0895 59.2954 86.8086 59.2969C86.5283 59.2985 86.3019 59.5276 86.3038 59.8083C86.3086 60.8841 87.4581 62.8358 88.9104 64.601C90.3182 66.3126 92.0328 67.8913 93.2713 68.353C93.5342 68.4521 93.8273 68.3189 93.9266 68.0564C94.0254 67.7938 93.8925 67.5005 93.6301 67.4011C92.5593 67.0016 91.0031 65.5479 89.6944 63.9562C88.3713 62.3479 87.3237 60.6421 87.3199 59.8017Z" fill="#EF6E2F"/>
<path fill-rule="evenodd" clip-rule="evenodd" d="M89.6359 74.1008C89.4338 73.9352 89.233 73.7578 89.0341 73.5708C87.9089 72.5125 86.8706 71.1662 86.0723 69.9305C85.9196 69.6952 85.605 69.6279 85.3698 69.7807C85.1342 69.9331 85.0669 70.2476 85.2193 70.4825C86.0568 71.7781 87.1481 73.1926 88.3363 74.3102C88.4831 74.4481 88.6313 74.5816 88.7808 74.7099C89.068 74.5077 89.3533 74.3047 89.6359 74.1008Z" fill="#EF6E2F"/>
<path fill-rule="evenodd" clip-rule="evenodd" d="M76.2998 65.6689C77.2111 66.9683 78.4003 68.2147 79.5165 69.2084C79.7256 69.395 80.047 69.3772 80.2339 69.1678C80.4205 68.9588 80.4021 68.6373 80.193 68.4507C79.094 67.4718 77.9222 66.2395 77.0496 64.9658L77.0063 64.9025C76.7701 65.1571 76.5345 65.4125 76.2998 65.6689Z" fill="#EF6E2F"/>
<path fill-rule="evenodd" clip-rule="evenodd" d="M75.2556 71.6175C75.2543 71.3369 75.0252 71.1106 74.7446 71.1125C74.464 71.1144 74.2373 71.3431 74.2392 71.6237C74.2433 72.4943 75.1577 74.0534 76.3114 75.4564C77.4274 76.8132 78.7911 78.0658 79.7819 78.4356C80.0445 78.5343 80.3379 78.4015 80.437 78.1387C80.5357 77.8761 80.4032 77.5831 80.1403 77.484C79.3174 77.1768 78.113 76.0486 77.0951 74.8112C76.0702 73.5647 75.2584 72.2515 75.2556 71.6175Z" fill="#EF6E2F"/>
<path fill-rule="evenodd" clip-rule="evenodd" d="M67.3439 76.8163C68.1887 77.9184 69.2035 78.9611 70.1639 79.8158C70.3733 80.0028 70.6944 79.9846 70.8814 79.7753C71.068 79.5662 71.0498 79.2451 70.8404 79.0582C69.8472 78.1737 68.7949 77.0821 67.9569 75.9396C67.7477 76.235 67.5433 76.5271 67.3439 76.8163Z" fill="#EF6E2F"/>
<path fill-rule="evenodd" clip-rule="evenodd" d="M68.1312 86.1263C67.5898 85.463 67.0941 84.7697 66.667 84.1087C66.5142 83.8735 66.1997 83.8062 65.9641 83.9586C65.7288 84.1113 65.6619 84.4256 65.814 84.6608C66.197 85.2536 66.6332 85.871 67.1071 86.4733C67.4333 86.3702 67.7749 86.2544 68.1312 86.1263Z" fill="#EF6E2F"/>
<path fill-rule="evenodd" clip-rule="evenodd" d="M29.3808 70.2758C30.1978 70.5532 30.5165 71.7891 30.0926 73.0361C29.6688 74.283 28.6633 75.0683 27.8464 74.791C27.0297 74.513 26.711 73.2771 27.1348 72.0307C27.5586 70.7838 28.5643 69.9985 29.3808 70.2758Z" fill="white"/>
<path fill-rule="evenodd" clip-rule="evenodd" d="M92.7047 69.8448C91.7366 70.1605 91.3587 71.568 91.8608 72.9868C92.3635 74.4063 93.5549 75.3002 94.523 74.9844C95.4911 74.668 95.8684 73.2619 95.3663 71.8424C94.8642 70.423 93.6721 69.529 92.7047 69.8448Z" fill="white"/>
<defs>
<radialGradient id="paint0_radial_83_1994" cx="0" cy="0" r="1" gradientUnits="userSpaceOnUse" gradientTransform="translate(61.3134 126.531) scale(26.4247 6.44769)">
<stop stop-color="#010A0C"/>
<stop offset="1" stop-color="#EB9F4A" stop-opacity="0.53"/>
</radialGradient>
</defs>
</svg>
