<svg width="101" height="119" viewBox="0 0 101 119" fill="none" xmlns="http://www.w3.org/2000/svg">
<path opacity="0.251" d="M49.7327 119C65.4848 119 78.2544 116.817 78.2544 114.123C78.2544 111.43 65.4848 109.247 49.7327 109.247C33.9805 109.247 21.2109 111.43 21.2109 114.123C21.2109 116.817 33.9805 119 49.7327 119Z" fill="#566E94"/>
<path d="M60.7673 0.099917C61.4312 -1.25837 69.7319 11.6042 64.6626 16.066C61.6907 16.8134 58.4054 15.5549 56.1091 13.2587C56.5337 8.57114 58.7487 4.22944 60.7673 0.099917Z" fill="#565158"/>
<path d="M60.7095 0.0709164C62.0961 -0.8851 63.9951 10.3135 57.6107 12.8259C54.9849 13.8592 52.4785 11.5905 52.4785 9.88437C52.4783 7.12341 55.7917 3.46136 60.7095 0.0709164Z" fill="#68676D"/>
<path d="M61.578 0.858239C62.1009 1.90329 62.2158 3.10508 62.2589 4.25821C62.3103 6.97503 61.6151 10.5614 59.264 12.2274C58.7707 12.5612 58.2061 12.7904 57.6281 12.8541C57.6072 12.8571 57.6017 12.8237 57.6223 12.82C58.1793 12.6918 58.7027 12.4338 59.1516 12.0821C61.6269 10.1067 62.205 5.52346 61.9121 2.54105C61.8501 1.97351 61.7526 1.40421 61.5457 0.871782C61.5369 0.852221 61.57 0.837424 61.578 0.858239Z" fill="#221E29"/>
<path d="M39.275 0.099917C38.6111 -1.25837 30.3104 11.6042 35.3797 16.066C38.3516 16.8134 41.6369 15.5549 43.9332 13.2587C43.5083 8.57114 41.2936 4.22944 39.275 0.099917Z" fill="#565158"/>
<path d="M39.3329 0.0709164C37.9461 -0.8851 36.0473 10.3135 42.4317 12.8259C45.0575 13.8592 47.5639 11.5905 47.5639 9.88437C47.5639 7.12341 44.2507 3.46136 39.3329 0.0709164Z" fill="#68676D"/>
<path d="M38.497 0.870224C37.8706 4.22606 38.1254 9.67375 40.9372 11.9988C41.3691 12.3557 41.8744 12.6283 42.4219 12.8202C42.4417 12.8257 42.4327 12.8593 42.4124 12.8535C41.8461 12.7256 41.3054 12.4846 40.8314 12.1488C38.4622 10.3913 37.9002 7.061 37.9415 4.28349C37.9739 3.12709 38.1203 1.96718 38.4639 0.859438C38.4667 0.85041 38.4765 0.845144 38.4857 0.847903C38.495 0.851414 38.4995 0.860945 38.497 0.870224Z" fill="#221E29"/>
<path d="M42.0919 84.9111C38.411 83.9047 35.0053 82.3666 34.528 76.719C33.7358 67.3447 41.5233 65.4184 42.3078 57.151C43.1143 48.6492 33.8045 43.7452 25.1075 50.2101C14.6169 58.0082 15.4157 69.8298 18.135 76.091C18.202 76.2455 16.4984 75.2371 16.7183 77.1398C17.7493 86.0512 34.599 97.006 42.6832 92.4058C47.0623 89.9141 44.6615 85.6138 42.0919 84.9111Z" fill="#A8999C"/>
<mask id="mask0_334_6734" style="mask-type:luminance" maskUnits="userSpaceOnUse" x="16" y="47" width="30" height="47">
<path d="M42.0923 84.9112C38.4115 83.9048 35.0057 82.3667 34.5285 76.7191C33.7362 67.3448 41.5238 65.4185 42.3082 57.1512C43.1148 48.6493 33.5213 43.2094 24.6177 50.3984C12.4696 60.2071 16.953 73.6194 18.1355 76.0912C18.3863 76.6153 16.3263 73.1662 16.7188 77.14C17.6006 86.0671 34.5994 97.0061 42.6837 92.4059C47.0627 89.9143 44.6619 85.614 42.0923 84.9112Z" fill="white"/>
</mask>
<g mask="url(#mask0_334_6734)">
<path d="M35.4649 96.1486C27.7656 93.7007 31.0603 82.1673 39.4738 78.9805C43.2741 79.6278 45.9337 79.8362 47.0031 83.5399C48.0724 87.2435 46.8486 91.51 43.9785 94.0836C41.1085 96.657 38.7357 97.1887 35.4649 96.1486Z" fill="#565158"/>
</g>
<mask id="mask1_334_6734" style="mask-type:luminance" maskUnits="userSpaceOnUse" x="16" y="47" width="30" height="47">
<path d="M42.0923 84.9112C38.4115 83.9048 35.0057 82.3667 34.5285 76.7191C33.7362 67.3448 41.5238 65.4185 42.3082 57.1512C43.1148 48.6493 33.5213 43.2094 24.6177 50.3984C12.4696 60.2071 16.953 73.6194 18.1355 76.0912C18.3863 76.6153 16.3263 73.1662 16.7188 77.14C17.6006 86.0671 34.5994 97.0061 42.6837 92.4059C47.0627 89.9143 44.6619 85.614 42.0923 84.9112Z" fill="white"/>
</mask>
<g mask="url(#mask1_334_6734)">
<path d="M36.0151 79.6134C31.5324 74.1704 19.5526 83.694 25.2275 89.3691C17.7921 88.8176 14.7866 83.4863 14.1659 77.3806C13.9775 75.5282 17.2027 73.4161 18.1274 75.8793C21.243 67.3221 34.9422 66.7809 37.4719 72.8922C36.5936 74.0445 35.8473 78.4326 36.0151 79.6134Z" fill="#565158"/>
</g>
<mask id="mask2_334_6734" style="mask-type:luminance" maskUnits="userSpaceOnUse" x="16" y="47" width="30" height="47">
<path d="M42.0923 84.9112C38.4115 83.9048 35.0057 82.3667 34.5285 76.7191C33.7362 67.3448 41.5238 65.4185 42.3082 57.1512C43.1148 48.6493 33.5213 43.2094 24.6177 50.3984C12.4696 60.2071 16.953 73.6194 18.1355 76.0912C18.3863 76.6153 16.3263 73.1662 16.7188 77.14C17.6006 86.0671 34.5994 97.0061 42.6837 92.4059C47.0627 89.9143 44.6619 85.614 42.0923 84.9112Z" fill="white"/>
</mask>
<g mask="url(#mask2_334_6734)">
<path d="M39.9413 65.9689C38.2968 61.1763 33.7144 57.5318 28.6745 57.0086C23.6346 56.4855 18.4013 59.1108 15.8074 63.4635C16.9016 58.9352 18.8414 54.5178 22.0413 51.1321C25.2411 47.7464 29.8121 45.4938 34.464 45.7446C39.1159 45.9954 43.6758 49.0498 45.0619 53.4973C46.448 57.9448 44.0324 63.4221 39.9413 65.9689Z" fill="#565158"/>
</g>
<path d="M22.3683 83.2506C22.0777 82.8556 21.4893 82.095 21.2215 81.7153C20.9225 81.2719 20.5391 80.6933 20.2429 80.2534C18.8638 78.0472 17.7051 75.6329 16.9495 73.1342C15.4061 67.8611 15.7703 62.3171 18.4126 57.4548C19.7147 54.9885 21.5716 52.8169 23.701 51.0262C24.5149 50.3646 25.4172 49.7148 26.3115 49.1691C26.8176 48.8604 27.4612 48.5113 27.9921 48.2455C28.0114 48.2344 28.0282 48.2663 28.0084 48.276C22.039 51.4774 17.427 57.4349 16.551 64.2296C15.7665 69.7458 17.4824 75.3191 20.2893 80.0398C20.5752 80.5285 21.0008 81.1721 21.303 81.6609C21.5849 82.0794 22.115 82.82 22.3962 83.2301C22.4097 83.2469 22.3809 83.2689 22.3683 83.2506Z" fill="#221E29"/>
<path d="M36.5052 93.4124C32.9287 93.0068 29.4821 91.6944 26.4242 89.8142C22.4546 87.3124 18.8132 83.8409 17.1183 79.3786C16.9591 78.8908 16.8036 78.3518 16.7246 77.8447L16.6561 77.3978L16.6243 76.9467C16.6042 76.7899 16.6175 76.6472 16.619 76.4957L16.6273 76.2705C16.6293 76.2332 16.6285 76.1955 16.6328 76.1584L16.6483 76.0466L16.71 75.6019C16.7113 75.5924 16.7201 75.5856 16.7296 75.5871C16.7391 75.5884 16.7456 75.5974 16.7444 75.6069C16.6406 76.4127 16.7155 77.2464 16.8986 78.0361C18.4402 83.8136 24.4871 88.7835 29.7251 91.2483C30.7649 91.7378 31.9466 92.2053 33.0446 92.5466C34.1789 92.903 35.337 93.1834 36.5105 93.378C36.5323 93.3805 36.5275 93.4166 36.5052 93.4124Z" fill="#221E29"/>
<path d="M53.244 114.262C53.6344 107.206 53.1928 104.532 53.1386 102.934C53.0611 100.639 57.8889 102.338 57.3135 103.316C56.8985 105.38 58.315 113.775 59.1258 114.843C57.054 114.826 54.6429 114.505 53.244 114.262Z" fill="#68676D"/>
<path d="M64.6173 114.302C64.5684 113.097 64.1085 111.189 63.5369 110.518C62.7806 109.629 56.6718 110.802 55.9676 111.56C55.5758 112.333 55.6701 114.003 56.0298 114.563C58.2525 114.971 64.2941 115.057 64.6173 114.302Z" fill="#68676D"/>
<path d="M61.6632 111.009C62.463 111.861 63.2507 114.076 62.0196 114.853C62.0033 114.865 61.9799 114.848 61.994 114.83C62.6486 114.019 62.2413 112.859 61.9764 111.966C61.8678 111.649 61.751 111.335 61.6311 111.022C61.6243 111.006 61.6476 110.99 61.6594 111.005L61.6632 111.009Z" fill="#221E29"/>
<path d="M59.4686 111.558C60.07 112.354 60.4573 114.091 59.6469 114.85C59.6339 114.864 59.6076 114.855 59.6163 114.834C59.8491 114.328 59.7942 113.745 59.7325 113.205C59.6705 112.654 59.5484 112.111 59.435 111.566C59.431 111.55 59.4548 111.538 59.4649 111.552L59.4686 111.558Z" fill="#221E29"/>
<path d="M57.9895 110.777C57.4812 110.841 56.9771 110.967 56.5106 111.194C56.0363 111.416 55.6175 111.742 55.209 112.07C55.3968 111.884 55.5837 111.697 55.7838 111.522C56.3862 110.979 57.1386 110.615 57.9286 110.434L57.9895 110.777Z" fill="#221E29"/>
<path d="M47.3818 114.319C46.9911 107.264 47.433 104.59 47.4871 102.992C47.5646 100.697 42.7369 102.395 43.3122 103.374C43.7275 105.438 42.3108 113.832 41.5 114.9C43.5715 114.884 45.9829 114.563 47.3818 114.319Z" fill="#68676D"/>
<path d="M36.0088 114.36C36.0574 113.155 36.5176 111.247 37.0892 110.576C37.8456 109.688 43.9541 110.86 44.6586 111.618C45.0503 112.391 44.956 114.061 44.5964 114.621C42.3734 115.029 36.3321 115.115 36.0088 114.36Z" fill="#68676D"/>
<path d="M38.9951 111.08C38.9648 111.764 38.789 112.398 38.6563 113.047C38.5316 113.683 38.3859 114.246 38.632 114.888L38.6345 114.894C38.6415 114.91 38.6177 114.926 38.6064 114.911C37.9082 114.114 38.3077 112.9 38.5948 112.005C38.7052 111.687 38.8301 111.375 38.9628 111.067C38.9693 111.051 38.9966 111.056 38.9951 111.074V111.08Z" fill="#221E29"/>
<path d="M41.1915 111.624C41.3884 112.749 40.9994 113.779 41.0105 114.899C41.012 114.916 40.9869 114.924 40.9794 114.908C40.7158 114.402 40.7717 113.803 40.8249 113.255C40.8996 112.701 41.0147 112.154 41.1574 111.616C41.1612 111.599 41.1875 111.599 41.19 111.617L41.1915 111.624Z" fill="#221E29"/>
<path d="M42.7068 110.508C43.7424 110.806 44.6098 111.44 45.4074 112.137C44.9712 111.854 44.5436 111.55 44.0747 111.326C43.6122 111.098 43.1211 110.943 42.6221 110.845L42.7068 110.508Z" fill="#221E29"/>
<path d="M53.2554 103.397C53.6562 104.939 56.2115 106.094 59.79 105.732C66.1992 105.083 70.7862 96.1288 71.9195 91.1002C73.4912 84.1254 71.3884 78.5875 70.7145 70.1978C60.186 95.5121 51.4984 96.6394 53.2554 103.397Z" fill="#BBA8A5"/>
<path d="M47.3807 103.397C46.766 104.867 44.4246 106.094 40.846 105.732C34.4368 105.083 29.8498 96.1288 28.7165 91.1002C27.1448 84.1254 28.6591 75.0536 29.9216 70.1978C40.45 95.5121 50.3806 96.2239 47.3807 103.397Z" fill="#BBA8A5"/>
<path d="M29.2495 77.6786C32.4365 45.285 30.3482 24.6421 49.8006 24.6421C68.7418 24.6421 68.867 47.7063 71.2803 77.4464C73.6496 106.642 26.3817 106.829 29.2495 77.6786Z" fill="#BBA8A5"/>
<path d="M39.9492 95.416C41.3228 96.6436 42.9291 97.6892 44.6408 98.3678C44.963 98.4935 45.6141 98.7222 45.9436 98.826L46.6075 99.0129L47.2788 99.1673C51.1177 99.9972 55.2257 99.14 58.5165 97.0243L59.0964 96.6354L59.6576 96.2173L60.2059 95.7782C60.2131 95.7714 60.2252 95.7719 60.2314 95.7799C54.7451 101.281 45.1273 101.087 39.9492 95.416Z" fill="#221E29"/>
<path d="M74.8989 21.596C74.8954 21.7946 74.7532 25.2743 74.7392 25.4727C74.7334 25.5574 74.7264 25.6422 74.7184 25.727C74.7171 25.7468 74.7161 25.7664 74.7138 25.7862C74.7091 25.8418 74.7033 25.8975 74.6963 25.9534C74.6905 26.0114 74.6835 26.0696 74.6765 26.1277C74.6742 26.1521 74.6707 26.1754 74.6672 26.1997C74.6567 26.288 74.6439 26.3763 74.6301 26.4646C74.6288 26.4761 74.6266 26.4866 74.6256 26.4982C74.6128 26.5829 74.5988 26.6664 74.5837 26.7512C74.5779 26.7871 74.5709 26.8244 74.5639 26.8616C74.5533 26.922 74.5418 26.9824 74.529 27.0426C74.521 27.089 74.5117 27.1367 74.5012 27.1831C74.4896 27.24 74.4779 27.2969 74.4641 27.3526C74.4548 27.398 74.4443 27.4444 74.4327 27.4908C74.4212 27.542 74.4084 27.5941 74.3956 27.6453C74.3818 27.7022 74.3678 27.7591 74.3527 27.8161C74.3422 27.8544 74.3319 27.8938 74.3214 27.9334C74.3051 27.9926 74.2888 28.0506 74.2727 28.1087C74.2171 28.3016 74.1579 28.4942 74.0939 28.6858C74.0731 28.7485 74.052 28.8112 74.0289 28.8739C74.0126 28.9216 73.9963 28.9702 73.9778 29.0191C73.9372 29.1317 73.8953 29.2433 73.8511 29.3547C73.8185 29.4394 73.7849 29.5242 73.7488 29.609C73.6327 29.8911 73.5061 30.171 73.3704 30.4474C73.3285 30.5344 73.2843 30.6192 73.2404 30.7052C73.2404 30.7074 73.2392 30.7097 73.237 30.7122C73.2008 30.7829 73.1637 30.8539 73.1253 30.9246C73.108 30.9572 73.0895 30.9908 73.0719 31.0232C73.0361 31.0881 73 31.1531 72.9628 31.2183C72.9513 31.2381 72.9398 31.2589 72.928 31.2797C72.8921 31.3424 72.856 31.4039 72.8189 31.4666C72.7968 31.5027 72.776 31.5398 72.7539 31.5757C72.7178 31.6349 72.6819 31.6931 72.6448 31.7522C72.5716 31.8706 72.4961 31.988 72.4174 32.1041C72.3755 32.1691 72.3313 32.233 72.2875 32.297C71.8486 32.9355 71.3575 33.5394 70.8211 34.0966C70.7664 34.1536 70.712 34.2105 70.6563 34.2662C70.3127 34.6123 69.9526 34.9383 69.5754 35.2438C69.5127 35.2949 69.4488 35.3458 69.3838 35.3957C69.219 35.5234 69.0518 35.6478 68.8822 35.7674C68.8265 35.8068 68.7709 35.8464 68.7139 35.8848C68.6605 35.9209 68.6071 35.9568 68.5524 35.9929C68.4817 36.0383 68.4107 36.0847 68.34 36.1298C68.332 36.1343 68.3227 36.1403 68.3132 36.1461C68.2748 36.1694 68.2377 36.1925 68.1993 36.2158C68.1123 36.2692 68.0253 36.3214 67.937 36.3726C67.8627 36.4144 67.7873 36.4573 67.7118 36.498C67.6293 36.5444 67.5458 36.5885 67.461 36.6314C67.3775 36.6755 67.2927 36.7174 67.2079 36.759C67.1232 36.8009 67.0372 36.8415 66.9514 36.8799C66.8711 36.917 66.7899 36.9531 66.7086 36.9878C66.6993 36.9925 66.6888 36.9958 66.6808 36.9993C66.6053 37.0319 66.5298 37.0632 66.4543 37.0921C66.438 37.0991 66.4217 37.1059 66.4066 37.1119C66.3382 37.1385 66.2697 37.1653 66.2012 37.1909C66.1804 37.1989 66.1584 37.2072 66.1363 37.2142C66.0573 37.2443 65.9773 37.2724 65.897 37.299C65.882 37.3048 65.8669 37.3095 65.8529 37.314C65.7774 37.3396 65.7019 37.3639 65.6264 37.3873C65.5557 37.4093 65.4847 37.4314 65.414 37.4512C65.3862 37.4592 65.3594 37.4675 65.3328 37.4745C65.2608 37.4944 65.1901 37.5139 65.1181 37.5327C65.096 37.5385 65.074 37.5443 65.0519 37.549C64.9751 37.5688 64.8974 37.5874 64.8196 37.6047C64.8056 37.6082 64.7928 37.6117 64.78 37.614C64.6431 37.6441 64.5049 37.6732 64.3655 37.6975C64.2132 37.7253 64.0612 37.7497 63.9068 37.7707C63.8268 37.7823 63.7455 37.7928 63.6642 37.8008C63.5747 37.8114 63.4854 37.8206 63.3959 37.8274C63.3076 37.8354 63.2183 37.8425 63.1288 37.8472C63.0997 37.8495 63.0696 37.8507 63.0405 37.8517C62.958 37.8565 62.8745 37.86 62.791 37.8623C62.6934 37.8658 62.5949 37.867 62.4961 37.867C58.5774 37.867 54.4439 33.9216 49.9856 33.8729C45.5328 33.8243 40.7562 37.6348 36.1502 37.6348H36.0852C34.0626 37.6348 31.3458 36.3681 29.1328 34.1317C29.1306 34.1305 29.1283 34.1282 29.1258 34.126C28.7451 33.7405 28.3792 33.3272 28.0356 32.8871C28.0286 32.879 28.0218 32.8698 28.0148 32.8605C26.82 31.3256 24.0495 29.1435 23.6222 27.0176C23.4642 26.2303 23.3094 23.7011 24.8445 21.5553C25.4367 21.4648 26.0185 21.301 26.5722 21.07C25.9952 20.9993 25.4314 21.0046 24.8531 20.9326C24.8531 20.9326 24.9398 19.8356 24.9586 19.5987C33.4068 20.3302 33.9407 15.758 35.6534 13.8944C37.6667 11.7035 42.1564 9.35107 49.3039 9.35107C57.572 9.35107 61.8912 11.3933 64.5001 14.2428C66.4275 16.3489 66.5704 20.1612 74.8122 19.7148C75.231 19.6275 75.2335 20.1993 74.8912 20.9098C74.8077 20.9271 74.7264 20.9424 74.6461 20.9562C74.4964 20.9828 74.3535 21.0038 74.2178 21.0211C74.1829 21.0259 74.1493 21.0304 74.1157 21.0339C74.0821 21.0387 74.0483 21.0422 74.0159 21.0455C73.951 21.0535 73.8883 21.0605 73.8266 21.0663C73.7651 21.0733 73.7057 21.0791 73.6477 21.0848C73.6049 21.0896 73.563 21.0929 73.5223 21.0976C73.3957 21.1104 73.2796 21.1232 73.1727 21.137C73.732 21.3429 74.3101 21.4971 74.8989 21.596Z" fill="#BBA8A5"/>
<path d="M33.9131 35.7909C33.9131 51.1365 49.9735 63.8998 49.9735 63.8998C49.9735 63.8998 65.9115 51.1882 65.9115 35.8423C65.9115 20.4964 33.9131 20.445 33.9131 35.7909Z" fill="#E7E1D5"/>
<path d="M74.8992 21.5957C74.8957 21.7943 74.7535 25.2741 74.7394 25.4724C74.7337 25.5572 74.7266 25.642 74.7186 25.7267C74.7174 25.7466 74.7163 25.7661 74.7141 25.7859C74.7093 25.8416 74.7036 25.8973 74.6966 25.9532C74.6908 26.0111 74.6838 26.0693 74.6767 26.1275C74.6745 26.1518 74.671 26.1752 74.6675 26.1995C74.6569 26.2878 74.6441 26.376 74.6303 26.4643C74.6291 26.4759 74.6268 26.4864 74.6258 26.4979C74.613 26.5827 74.599 26.6662 74.584 26.751C74.5782 26.7868 74.5711 26.8242 74.5641 26.8613C74.5536 26.9218 74.5421 26.9822 74.5293 27.0424C74.5212 27.0888 74.5119 27.1364 74.5014 27.1828C74.4899 27.2398 74.4781 27.2967 74.4643 27.3524C74.455 27.3978 74.4445 27.4442 74.433 27.4906C74.4214 27.5417 74.4086 27.5939 74.3959 27.645C74.3821 27.702 74.368 27.7589 74.353 27.8158C74.3424 27.8542 74.3322 27.8936 74.3216 27.9332C74.3053 27.9924 74.289 28.0503 74.273 28.1085C74.2173 28.3014 74.1581 28.494 74.0942 28.6856C74.0733 28.7483 74.0523 28.811 74.0292 28.8737C74.0129 28.9213 73.9966 28.97 73.978 29.0189C73.9374 29.1315 73.8955 29.2431 73.8514 29.3544C73.8188 29.4392 73.7852 29.524 73.749 29.6087C73.6329 29.8909 73.5063 30.1708 73.3706 30.4471C73.3287 30.5342 73.2846 30.6189 73.2407 30.7049C73.2407 30.7072 73.2395 30.7095 73.2372 30.712C73.2011 30.7827 73.164 30.8537 73.1256 30.9244C73.1083 30.957 73.0897 30.9906 73.0722 31.023C73.0363 31.0879 73.0002 31.1529 72.9631 31.2181C72.9515 31.2379 72.94 31.2587 72.9282 31.2795C72.8924 31.3422 72.8563 31.4037 72.8191 31.4664C72.7971 31.5025 72.7762 31.5396 72.7542 31.5754C72.7181 31.6346 72.6822 31.6928 72.6451 31.752C72.5718 31.8704 72.4964 31.9877 72.4176 32.1039C72.3757 32.1688 72.3316 32.2328 72.2877 32.2967C71.8488 32.9352 71.3578 33.5391 70.8213 34.0964C70.7666 34.1533 70.7122 34.2103 70.6566 34.2659C70.313 34.612 69.9528 34.9381 69.5756 35.2435C69.5129 35.2947 69.449 35.3456 69.384 35.3955C69.2193 35.5231 69.052 35.6475 68.8825 35.7672C68.8268 35.8065 68.7711 35.8462 68.7142 35.8845C68.6608 35.9207 68.6073 35.9565 68.5527 35.9926C68.4819 36.038 68.411 36.0844 68.3403 36.1296C68.3322 36.1341 68.3229 36.1401 68.3134 36.1459C68.275 36.1692 68.2379 36.1923 68.1996 36.2156C68.1125 36.269 68.0255 36.3212 67.9372 36.3723C67.863 36.4142 67.7875 36.4571 67.712 36.4977C67.6295 36.5441 67.546 36.5883 67.4612 36.6311C67.3777 36.6753 67.2929 36.7172 67.2082 36.7588C67.1234 36.8007 67.0374 36.8413 66.9516 36.8797C66.8714 36.9168 66.7901 36.9529 66.7089 36.9875C66.6996 36.9923 66.689 36.9955 66.681 36.9991C66.6055 37.0317 66.53 37.063 66.4545 37.0918C66.4382 37.0989 66.4219 37.1056 66.4069 37.1117C66.3384 37.1382 66.27 37.1651 66.2015 37.1907C66.1807 37.1987 66.1586 37.207 66.1365 37.214C66.0575 37.2441 65.9775 37.2722 65.8973 37.2988C65.8822 37.3045 65.8672 37.3093 65.8531 37.3138C65.7777 37.3394 65.7022 37.3637 65.6267 37.387C65.556 37.4091 65.485 37.4312 65.4143 37.451C65.3864 37.459 65.3596 37.4673 65.333 37.4743C65.261 37.4941 65.1903 37.5137 65.1183 37.5325C65.0963 37.5383 65.0742 37.544 65.0521 37.5488C64.9754 37.5686 64.8976 37.5872 64.8199 37.6045C64.8058 37.608 64.793 37.6115 64.7803 37.6137C64.6433 37.6438 64.5052 37.6729 64.3657 37.6973C64.2135 37.7251 64.0615 37.7494 63.907 37.7705C63.827 37.782 63.7458 37.7926 63.6645 37.8006C63.575 37.8111 63.4857 37.8204 63.3961 37.8272C63.3079 37.8352 63.2186 37.8422 63.1291 37.847C63.1 37.8492 63.0699 37.8505 63.0408 37.8515C62.9583 37.8563 62.8748 37.8598 62.7912 37.862C62.6937 37.8655 62.5951 37.8668 62.4963 37.8668C54.6636 37.8668 45.3658 37.7078 36.1505 37.6346H36.0855C34.0629 37.6346 31.346 36.3678 29.1331 34.1315C29.1308 34.1303 29.1285 34.128 29.126 34.1257C28.7453 33.7403 28.3794 33.327 28.0358 32.8868C28.0288 32.8788 28.0221 32.8695 28.015 32.8603C26.8203 31.3254 24.0498 29.1433 23.6224 27.0173C23.4644 26.2301 23.3955 23.7262 24.8448 21.5551C25.4369 21.4646 26.0476 21.359 26.6016 21.1277C26.0245 21.057 25.4326 20.9918 24.8543 20.9198C24.8543 20.9198 24.8721 20.6254 24.909 20.2304C34.1343 21.0387 34.3162 17.6011 35.8801 15.6111C39.1497 11.4497 49.1963 6.17858 47.2306 21.5315C47.039 23.0315 49.2312 22.7669 49.9858 22.7611C50.7475 22.7566 52.9349 22.9921 52.8037 21.6025C51.3012 5.61104 61.7148 11.8181 64.4527 15.7275C66.0899 18.0671 66.2695 21.4841 75.0946 20.3626C75.0457 20.5682 74.9285 20.8438 74.8857 20.9336C74.7989 20.9517 74.4957 20.9838 74.2178 21.0209C74.1829 21.0257 74.1493 21.0302 74.1157 21.0337C74.0821 21.0385 74.0483 21.042 74.0159 21.0452C73.951 21.0533 73.8883 21.0603 73.8266 21.066C73.7651 21.0731 73.7057 21.0788 73.6477 21.0846C73.6049 21.0894 73.563 21.0926 73.5223 21.0974C73.3957 21.1102 73.2796 21.123 73.1727 21.1368C73.7322 21.3427 74.3103 21.4969 74.8992 21.5957Z" fill="#E7E1D5"/>
<path d="M74.899 21.5958C75.8209 22.9413 78.4318 27.4332 72.4908 32.2336C69.7221 32.4829 66.6926 33.8093 65.0679 33.3441C56.0254 30.755 54.0264 23.7812 53.6158 20.9909C51.6396 7.53521 61.5865 13.4591 63.5128 16.017C65.546 18.7187 64.9252 21.8188 74.6457 20.955C74.0478 21.0596 73.5497 21.0849 73.1723 21.1361C73.732 21.3428 74.3101 21.497 74.899 21.5958Z" fill="#68676D"/>
<path d="M46.33 20.991C45.8457 24.2826 43.1522 33.3959 29.2902 34.2656C29.2403 34.226 29.1882 34.1809 29.1322 34.131C29.13 34.1297 29.1277 34.1274 29.1252 34.1252C28.8222 33.8511 28.44 33.4297 28.035 32.8863C28.028 32.8783 28.0212 32.869 28.0142 32.8597C27.0529 31.5664 24.128 29.2822 23.6216 27.0168C23.4451 26.2273 23.3658 23.4693 24.8104 21.5593C24.8209 21.558 24.8324 21.557 24.844 21.5545C25.4361 21.464 26.0179 21.3002 26.5717 21.0693C25.8278 20.978 28.9722 21.5696 32.3441 20.2263C34.1225 19.5179 35.0594 18.2907 36.4343 16.0173C38.0913 13.2769 48.3075 7.53531 46.33 20.991Z" fill="#68676D"/>
<path d="M63.1373 17.1495C62.5575 15.801 59.4279 12.8131 56.6491 14.0608C55.0292 14.7881 54.2287 17.8954 54.863 20.146L63.1373 17.1495Z" fill="#565158"/>
<path d="M54.8488 20.6162C55.0998 22.1157 55.7825 19.3113 60.2872 18.9888C63.3017 18.7731 65.5187 18.4659 63.1372 17.1495C59.7234 15.263 54.5095 18.5895 54.8488 20.6162Z" fill="#221E29"/>
<path d="M56.4456 20.1663C57.2413 19.6682 58.4512 19.194 60.2877 18.9888C62.7031 18.719 60.9445 16.4011 59.2331 16.7986C55.4833 17.6691 55.2965 20.8855 56.4456 20.1663Z" fill="#3B3445"/>
<path d="M37.0117 17.1495C37.5915 15.801 40.7212 12.8131 43.4999 14.0608C45.1198 14.7881 45.9203 17.8954 45.2861 20.146L37.0117 17.1495Z" fill="#565158"/>
<path d="M45.3106 20.6157C45.0596 22.1152 44.3769 19.3108 39.8722 18.9883C36.8577 18.7726 34.6407 18.4654 37.0222 17.149C40.436 15.2625 45.6497 18.589 45.3106 20.6157Z" fill="#221E29"/>
<path d="M43.7148 20.1658C42.919 19.6677 41.7092 19.1935 39.8727 18.9883C37.4573 18.7185 39.2159 16.4007 40.9273 16.7982C44.6771 17.6687 44.8637 20.8851 43.7148 20.1658Z" fill="#3B3445"/>
<path d="M44.9814 23.8873C44.9814 28.9884 47.2168 33.1237 49.974 33.1237C52.7314 33.1237 54.9665 28.9884 54.9665 23.8873C54.9665 18.7863 44.9814 18.7863 44.9814 23.8873Z" fill="#E7E1D5"/>
<path d="M52.8677 21.6877C53.3236 22.5888 51.3652 24.5309 50.0337 24.5309C48.5418 24.5309 46.6127 22.888 47.1213 21.6877C47.5569 20.6602 52.4498 20.8621 52.8677 21.6877Z" fill="#221E29"/>
<path d="M51.6527 21.5985C51.9338 21.977 50.8206 22.7446 50.0426 22.7231C49.1706 22.6987 48.0162 21.991 48.2941 21.505C48.5319 21.0889 51.3951 21.2517 51.6527 21.5985Z" fill="#3B3445"/>
<path d="M53.4119 26.5489C52.9431 30.3745 51.4306 31.6858 49.8985 31.6881C48.3803 31.6901 46.7461 30.5026 46.7461 26.5489C47.0822 26.9266 47.7628 26.8664 48.2155 26.6417C48.6682 26.417 49.0413 26.0518 49.5 25.8392C49.9585 25.6265 50.5842 25.6175 50.8894 26.0205C51.4517 26.7633 52.583 27.0013 53.4119 26.5489Z" fill="#B46570"/>
<path d="M47.543 30.1379C48.1903 29.3233 48.9381 29.1164 49.8535 29.0875C50.7689 29.0589 51.6903 29.4153 52.3516 30.0345C51.9393 30.9592 50.9525 31.5969 49.94 31.5929C48.9276 31.5892 48.0676 31.0001 47.543 30.1379Z" fill="#CD8F94"/>
<path d="M52.714 26.7211C52.7501 27.2548 52.3468 27.8238 51.5576 27.7255C51.5104 27.7197 51.8806 27.1505 51.0439 26.0249C51.1854 26.3161 52.0155 26.943 52.714 26.7211Z" fill="#FFFAF5"/>
<path d="M47.3509 26.7211C47.3148 27.2548 47.7178 27.8238 48.5073 27.7255C48.5542 27.7197 48.1842 27.1505 49.0209 26.0249C48.8794 26.3161 48.0491 26.943 47.3509 26.7211Z" fill="#FFFAF5"/>
<path d="M45.957 25.6505C46.0824 26.4799 47.4073 26.7239 48.09 26.5895C48.3503 26.5062 48.4739 26.3249 48.7042 26.1077C49.1157 25.6836 49.7788 25.4715 50.3654 25.559C50.7336 25.5971 51.1243 25.8361 51.336 26.0972C51.4827 26.2622 51.5948 26.4004 51.7232 26.4859C52.0031 26.6818 52.3913 26.6632 52.7361 26.6219C53.2987 26.5599 53.9166 26.28 53.9913 25.6505H54.0262C54.034 26.6823 52.683 27.0342 51.8518 26.8709C51.3224 26.745 51.101 26.1584 50.6132 25.9723C50.0399 25.7704 49.3592 25.9274 48.9238 26.3513C48.6986 26.5551 48.4704 26.8082 48.1547 26.8752C47.3755 26.9918 45.9377 26.6091 45.9219 25.6505H45.957Z" fill="#221E29"/>
<path d="M46.7635 26.5496C46.851 27.6707 47.0015 28.82 47.5124 29.8199C48.1296 31.0205 49.3421 31.81 50.6992 31.3663C52.001 30.8843 52.624 29.4839 52.9964 28.2181C53.1682 27.6764 53.2705 27.1129 53.3944 26.5474L53.429 26.5504C53.2648 28.2121 52.9304 30.1409 51.5702 31.259C50.0087 32.4776 48.0142 31.6459 47.2636 29.9368C46.7793 28.8785 46.6908 27.6952 46.7284 26.5481L46.7635 26.5496Z" fill="#221E29"/>
<path d="M47.5303 30.1267C48.2041 28.8612 50.1144 28.6676 51.3295 29.1883C51.7654 29.3749 52.1611 29.6879 52.3811 30.0964L52.356 30.1205C52.05 29.8057 51.6598 29.5813 51.2435 29.4481C50.4096 29.1943 49.4872 29.1996 48.6553 29.4609C48.2413 29.5981 47.8473 29.8205 47.5564 30.1498L47.5303 30.1267Z" fill="#221E29"/>
<path d="M47.555 34.0898C48.7902 34.6303 51.109 34.6238 52.3577 34.1122L52.3795 34.1393C51.3806 34.9172 49.8683 34.9553 48.6781 34.679C48.2645 34.5734 47.855 34.4043 47.5322 34.1159L47.555 34.0898Z" fill="#221E29"/>
<path d="M47.3281 26.6229C47.4297 27.2048 47.9039 27.6374 48.486 27.5531C48.4095 27.5574 48.3315 27.6421 48.3381 27.7214C48.1663 27.1466 48.5678 26.416 49.0533 26.0474C48.8168 26.575 48.5274 27.106 48.6831 27.6815C48.6892 27.7136 48.6862 27.7578 48.6716 27.7904C48.6578 27.8393 48.5783 27.899 48.5272 27.8987C47.8019 28.0171 47.1265 27.3299 47.3281 26.6229Z" fill="#221E29"/>
<path d="M52.7367 26.6227C52.9378 27.3304 52.2629 28.0166 51.5379 27.8987C51.486 27.8982 51.4075 27.84 51.3934 27.7904C51.3789 27.7575 51.3759 27.7136 51.3819 27.6815C51.5376 27.1057 51.2482 26.5753 51.0117 26.0474C51.491 26.4308 51.889 27.0804 51.7287 27.7201L51.7255 27.7349C51.727 27.7307 51.7267 27.7101 51.7262 27.7038C51.725 27.6324 51.648 27.5559 51.5788 27.5529C52.1606 27.6371 52.6348 27.2045 52.7367 26.6227Z" fill="#221E29"/>
<path d="M74.8927 20.9312C74.2863 21.0829 73.6573 21.1386 73.0374 21.2023L73.0697 21.0214C73.6583 21.2617 74.2818 21.3665 74.9141 21.4056C74.9615 21.4082 75.0028 21.435 75.0259 21.4724L75.3271 21.9649C76.0113 23.116 76.388 24.4911 76.3649 25.8321C76.3355 27.3494 75.9042 28.9369 74.8998 30.0961C75.3269 29.4691 75.5944 28.7593 75.783 28.0391C76.2999 26.0603 76.0514 23.9048 75.053 22.1197L74.7771 21.6356L74.889 21.7023C74.2384 21.6361 73.5811 21.4882 72.9933 21.1945C72.9007 21.1596 72.9253 21.0137 73.0256 21.0137C73.5791 21.0016 74.3493 20.9911 74.8927 20.9312Z" fill="#221E29"/>
<path d="M24.853 20.9312C25.3937 20.9906 26.1704 20.9999 26.7204 21.0134C26.8202 21.0157 26.8461 21.1581 26.7528 21.1942C26.1649 21.4879 25.5076 21.6359 24.857 21.7021L24.9689 21.6354L24.693 22.1194C23.6944 23.9048 23.4461 26.0601 23.963 28.0388C24.1513 28.7593 24.4192 29.4688 24.8463 30.0958C23.8418 28.9367 23.4105 27.3489 23.3809 25.8319C23.3578 24.4901 23.7342 23.1165 24.4187 21.9647L24.7199 21.4721C24.7449 21.4312 24.7873 21.4079 24.8317 21.4054C25.4637 21.366 26.0874 21.2614 26.676 21.0212L26.7084 21.202C26.0884 21.1386 25.4597 21.0829 24.853 20.9312Z" fill="#221E29"/>
<path d="M62.5894 1.67517C64.4104 4.158 65.8808 6.9794 66.4172 10.0396C66.7177 11.8989 66.6858 13.9873 65.5287 15.5758L65.5723 15.2916C65.613 15.3912 65.719 15.6583 65.7579 15.7553C65.8068 15.8526 65.9367 16.0999 65.9874 16.1995C66.7804 17.5859 68.1517 18.5196 69.6442 19.057C70.4061 19.3251 71.2089 19.4768 72.0074 19.5924C72.9323 19.7091 73.8693 19.7131 74.8105 19.6958C74.8205 19.6948 74.8295 19.7025 74.8298 19.7128C73.9134 19.8355 72.9308 19.8179 71.9931 19.7575C69.2085 19.5433 66.2307 18.2058 65.2528 15.4032C65.2491 15.3927 65.2511 15.3814 65.2573 15.3731C65.6187 14.8821 65.8602 14.313 66.0132 13.7249C66.4584 11.937 66.1923 10.0526 65.7063 8.29881C65.374 7.12135 64.9183 5.9805 64.3831 4.88003C63.8489 3.7783 63.2302 2.71921 62.5606 1.69448C62.5475 1.67692 62.5776 1.65586 62.5894 1.67517Z" fill="#221E29"/>
<path d="M37.423 1.7793C35.5531 4.80484 33.9077 8.20983 33.8503 11.8225C33.857 12.9729 34.0617 14.1659 34.7443 15.1088C34.8028 15.1893 34.8116 15.2914 34.7767 15.3774L34.6357 15.722L34.5648 15.8941L34.4788 16.0588C34.25 16.5283 33.9283 16.9627 33.5869 17.3534C32.1063 18.9617 29.9126 19.6442 27.7884 19.7645C26.8402 19.7859 25.8485 19.7751 24.9414 19.5952C25.8643 19.6191 26.8354 19.6951 27.7738 19.599C30.5371 19.3786 33.4929 18.0486 34.4564 15.2656L34.4612 15.2959C34.0965 14.8024 33.8573 14.2283 33.7096 13.6357C32.8223 9.7858 35.1734 4.7123 37.423 1.7793Z" fill="#221E29"/>
<path d="M65.9117 37.2929C69.3764 30.0139 76.8326 29.3867 89.0903 17.129C90.5376 15.6817 92.1668 19.0947 91.6597 20.0615C81.3617 39.6987 70.5318 48.3089 70.5318 67.7989C66.7072 63.2906 63.1061 43.1875 65.9117 37.2929Z" fill="#BBA8A5"/>
<path d="M64.9213 45.3247C64.7036 43.0869 64.6208 40.7861 65.2709 38.5944C66.0391 35.8177 67.9416 33.4597 70.2905 31.8396C72.3944 30.3136 74.973 28.4577 77.1105 26.9462C77.5378 26.656 78.772 25.8099 79.1968 25.5285L79.903 25.0713C79.9203 25.058 79.9422 25.0871 79.9234 25.0996C78.1094 26.4123 76.3253 27.7658 74.5344 29.1103L71.8439 31.1216C70.9513 31.795 70.0151 32.4142 69.1745 33.1535C66.572 35.3931 65.1146 38.5523 64.9441 41.9683C64.9087 42.5263 64.9017 43.0861 64.9113 43.6454C64.9198 44.2049 64.9524 44.7636 64.9564 45.3247C64.9564 45.3342 64.9486 45.342 64.9391 45.3422C64.9293 45.3422 64.9213 45.3344 64.9213 45.3247Z" fill="#221E29"/>
<path d="M100.474 11.2966C99.1387 12.3532 98.9594 12.2195 97.7634 13.1658C97.7611 13.1635 97.7995 14.116 94.6596 16.0662C93.6126 17.2135 93.2273 17.908 91.0843 21.1482C90.0185 21.5023 87.9539 19.4042 88.4347 17.8531C89.4414 16.6442 90.2424 15.553 90.5862 14.3212C90.5862 14.3199 90.5862 14.3199 90.5862 14.3189C90.9195 11.8225 89.8118 8.79097 89.1279 8.2001C88.032 7.25161 90.1055 7.2017 90.6304 8.11308C91.1041 8.93618 91.29 9.11975 92.0747 9.65394C92.4311 9.8967 92.7318 10.1392 92.9688 10.3958V10.397C92.9943 10.4319 93.0001 10.4296 92.97 10.3958C92.9713 10.3945 92.9713 10.3945 92.9723 10.3935C94.794 8.56827 97.2079 3.73025 97.7709 3.91584C98.2213 4.06556 98.1669 5.03387 97.8858 5.632C97.1136 7.27494 96.3846 8.57654 95.6786 9.95113C97.6663 8.08073 100.253 5.00728 100.73 5.28942C101.043 5.47275 100.966 6.06035 100.734 6.56194C100.741 6.56419 100.747 6.5677 100.753 6.57121C101.159 6.81498 100.895 7.74968 100.49 8.27108C99.3988 9.67701 98.4189 10.7732 97.4494 11.9354C98.9622 11.0355 100.561 9.97194 100.839 10.1939C101.128 10.4236 100.835 11.011 100.474 11.2966Z" fill="#68676D"/>
<path d="M93.6976 13.9677C93.892 12.6654 94.0063 11.0952 92.7411 10.3155C92.2568 10.0421 91.7352 9.85125 91.3066 9.43268C91.0673 9.20345 90.8687 8.92934 90.7275 8.62989C90.6405 8.45409 90.6044 8.25822 90.5246 8.09546C90.1926 7.59563 89.4171 7.35186 88.8536 7.64278L88.832 7.61544C89.4134 7.16603 90.4928 7.42886 90.81 8.08743C91.0831 8.92457 91.7374 9.47456 92.5304 9.81062C92.8898 9.98517 93.2329 10.2149 93.4882 10.5291C94.0176 11.1564 94.1037 12.0274 93.9966 12.8126C93.9449 13.2088 93.8498 13.5981 93.7307 13.9785L93.6976 13.9677Z" fill="#221E29"/>
<path d="M91.0488 21.1781C91.6103 20.1541 92.219 19.163 92.8616 18.1909C93.3832 17.4258 93.88 16.6292 94.5411 15.9659C95.227 15.4957 95.9511 15.0528 96.5828 14.5151C97.0054 14.1522 97.4723 13.7715 97.6833 13.2511C97.7036 13.1834 97.7432 13.1129 97.7893 13.0635C98.1056 12.7638 98.7263 12.4212 99.0872 12.1694L100.545 11.2124L100.567 11.2395C100.118 11.6079 99.6615 11.9673 99.1973 12.3169C98.803 12.6397 98.3062 12.9108 97.9609 13.2759C97.7698 13.8959 97.2634 14.344 96.796 14.7639C96.1873 15.2835 95.5307 15.746 94.8473 16.1613L94.7648 16.2232C94.127 16.8625 93.6237 17.6281 93.085 18.3512C92.4069 19.2934 91.7428 20.2462 91.0777 21.1982L91.0488 21.1781Z" fill="#221E29"/>
<path d="M97.7314 12.8428C97.3643 12.0335 96.883 11.3594 96.2686 10.7415C95.7743 10.2652 95.2712 9.88325 94.6562 9.53239L94.6638 9.49854C95.846 9.76111 96.8582 10.6246 97.4089 11.691C97.593 12.0491 97.7206 12.4383 97.7658 12.8386L97.7314 12.8428Z" fill="#221E29"/>
<path d="M96.6533 10.9682C97.4957 10.1664 98.3454 9.37668 99.1432 8.53678C99.7323 7.90404 100.327 7.25624 100.731 6.48632C100.858 6.22951 100.963 5.95088 100.956 5.6582C100.978 5.95037 100.886 6.23904 100.77 6.50487C100.402 7.30214 99.8338 7.9868 99.2726 8.6534C98.5127 9.53819 97.6994 10.3731 96.8999 11.2145L96.6533 10.9682Z" fill="#221E29"/>
<path d="M98.5608 7.0274C97.6737 8.11207 96.5555 9.14057 95.5508 10.1181C96.0004 9.29405 96.5015 8.33101 96.9168 7.49412C97.2002 6.93385 97.4758 6.36807 97.7279 5.79376C97.8844 5.40829 98.0697 5.02458 98.1036 4.604C98.1598 5.02859 98.0281 5.45669 97.9125 5.86147C97.6614 6.67378 97.3156 7.44898 96.9416 8.21013C96.7576 8.59158 96.5552 8.9615 96.3516 9.33443L96.0922 9.13103C96.8652 8.44487 97.7575 7.67469 98.5608 7.0274Z" fill="#221E29"/>
<path d="M34.9978 37.2927C31.6137 30.6713 21.0355 26.9506 11.8192 17.1289C10.4186 15.6364 8.74277 19.0946 9.24987 20.0614C19.5479 39.6986 30.3778 47.0944 30.3778 67.7987C34.2023 63.2905 37.969 43.1058 34.9978 37.2927Z" fill="#BBA8A5"/>
<path d="M35.9535 45.3247C35.9094 44.2209 35.9463 43.0578 35.8297 41.9603C35.5405 37.9557 33.7403 34.4978 30.4725 32.1351C27.6155 30.0668 24.439 27.7966 21.6472 25.6263L20.9863 25.0996C22.7634 26.245 24.6938 27.7081 26.5321 28.9467L29.2968 30.8819C30.2122 31.5354 31.1569 32.1594 31.9793 32.9316C35.053 35.7309 36.1763 39.5735 36.0373 43.6381C36.027 44.2006 35.9939 44.7629 35.9884 45.3244C35.9884 45.3339 35.9804 45.3417 35.9709 45.3417C35.9613 45.342 35.9538 45.3342 35.9535 45.3247Z" fill="#221E29"/>
<path d="M26.5481 49.0412C27.8367 51.7959 28.8338 54.7347 29.5032 57.7001C29.8513 59.1398 30.1013 60.7507 30.2819 62.2258C30.4424 63.6569 30.5545 65.0994 30.5282 66.5412C30.5174 66.8374 30.5021 67.1441 30.4412 67.4388C30.3734 67.8019 30.1783 68.7507 30.1018 69.1231C29.1867 73.4696 28.3215 77.8998 28.106 82.3415C28.0757 83.1428 28.0616 84.1043 28.0639 84.9074C28.0644 84.9174 28.0564 84.9259 28.0464 84.9257C28.0371 84.9257 28.0296 84.9184 28.0291 84.9091C27.7469 79.5816 28.7079 74.2568 29.7761 69.0574C29.8897 68.394 30.1304 67.4744 30.1671 66.8138C30.2837 63.0141 29.6399 59.2101 28.7187 55.5335C28.5103 54.8017 28.3245 54.0631 28.0835 53.3411C27.6441 51.8832 27.0903 50.4637 26.5163 49.0545C26.507 49.0352 26.5399 49.0207 26.5481 49.0412Z" fill="#221E29"/>
<path d="M0.483852 11.2966C1.81906 12.3532 1.99838 12.2195 3.1944 13.1658C3.19666 13.1635 3.15828 14.116 6.29818 16.0662C7.34524 17.2135 7.73046 17.908 9.87347 21.1482C10.9393 21.5023 13.0038 19.4042 12.5231 17.8531C11.5164 16.6442 10.7154 15.553 10.3715 14.3212C10.3715 14.3199 10.3715 14.3199 10.3715 14.3189C10.0382 11.8225 11.146 8.79097 11.8299 8.2001C12.9258 7.25161 10.8523 7.2017 10.3274 8.11308C9.85366 8.93618 9.66782 9.11975 8.88309 9.65394C8.52672 9.8967 8.22602 10.1392 7.98902 10.3958V10.397C7.96344 10.4319 7.95767 10.4296 7.98776 10.3958C7.98651 10.3945 7.98652 10.3945 7.98551 10.3935C6.16377 8.56827 3.74989 3.73025 3.18687 3.91584C2.73645 4.06556 2.79087 5.03387 3.072 5.632C3.84419 7.27494 4.57325 8.57654 5.27922 9.95113C3.29145 8.08073 0.70454 5.00728 0.227535 5.28942C-0.0846999 5.47275 -0.00820282 6.06035 0.22403 6.56194C0.217008 6.56419 0.21123 6.5677 0.205462 6.57121C-0.200819 6.81498 0.0625165 7.74968 0.467795 8.27108C1.55924 9.67701 2.53908 10.7732 3.50864 11.9354C1.99587 11.0355 0.397078 9.97194 0.119452 10.1939C-0.169961 10.4236 0.122713 11.011 0.483852 11.2966Z" fill="#68676D"/>
<path d="M7.40147 14.2105C6.74716 12.9292 6.5859 11.0967 7.89127 10.15C8.03823 10.0326 8.21253 9.93453 8.37604 9.84324C9.06446 9.51897 9.63226 9.01237 9.95829 8.32821C9.99515 8.24595 10.0496 8.12407 10.091 8.04406C10.4255 7.49282 11.2699 7.25056 11.8613 7.44894C11.9616 7.48354 12.0511 7.54674 12.1256 7.61546L12.1043 7.64305C11.5854 7.3115 10.7716 7.60091 10.3944 8.03779C10.3049 8.15466 10.2645 8.2926 10.2113 8.43254C9.91615 9.17839 9.30949 9.769 8.59674 10.1211C7.39294 10.6726 7.00572 11.7946 7.18027 13.0488C7.22892 13.4388 7.31997 13.8235 7.43458 14.2002L7.40147 14.2105Z" fill="#221E29"/>
<path d="M9.88027 21.1967C9.18934 20.2487 8.53001 19.2879 7.84535 18.3522C7.31743 17.6685 6.80957 16.9031 6.16403 16.3479C5.43774 15.9005 4.75208 15.4001 4.11457 14.8248C3.65061 14.3829 3.12019 13.856 2.96144 13.2408C2.96395 13.2486 2.97097 13.2579 2.97448 13.2609C2.97122 13.2581 2.96921 13.2546 2.9677 13.2506C2.81823 13.1026 2.64042 12.9961 2.46863 12.8661C1.75363 12.3563 1.04764 11.8264 0.392578 11.2398L0.412906 11.2114C0.888406 11.5495 1.37068 11.8778 1.85897 12.1963C2.21358 12.4358 2.81472 12.7796 3.13749 13.0465C3.19943 13.0929 3.22778 13.1754 3.24609 13.2451C3.45952 13.784 3.91119 14.1946 4.33176 14.5798C4.98608 15.1651 5.71964 15.6429 6.44342 16.1345C7.0857 16.7379 7.57224 17.4792 8.07257 18.1977C8.72412 19.1673 9.32828 20.1672 9.91036 21.1789L9.88027 21.1967Z" fill="#221E29"/>
<path d="M3.42397 12.9548C3.17719 11.2098 4.91266 9.79378 6.52324 9.61572L6.53678 9.64783C5.46892 10.1263 4.40631 10.7934 3.82899 11.844C3.6419 12.1896 3.51551 12.5685 3.45858 12.9593L3.42397 12.9548Z" fill="#221E29"/>
<path d="M4.05796 11.2142C3.00513 10.0415 -0.0820925 7.18453 0.00167172 5.65771C-0.00585202 5.95039 0.0992167 6.22902 0.226869 6.48583C0.630894 7.25601 1.22527 7.90355 1.81463 8.53629C2.61214 9.37619 3.46207 10.1659 4.30423 10.9677L4.05796 11.2142Z" fill="#221E29"/>
<path d="M2.39746 7.0274C3.19999 7.67419 4.09355 8.44537 4.86649 9.13103L4.60718 9.33443C4.40353 8.9615 4.2009 8.59158 4.01707 8.21013C3.64314 7.44898 3.29729 6.67378 3.04625 5.86147C2.93064 5.45694 2.79898 5.02859 2.85516 4.604C2.88901 5.02433 3.0741 5.40829 3.23059 5.79376C3.48264 6.36807 3.75825 6.93385 4.04164 7.49412C4.45595 8.32951 4.95905 9.2958 5.40746 10.1181C4.40179 9.13956 3.28526 8.11282 2.39746 7.0274Z" fill="#221E29"/>
<path d="M55.2225 7.49516C55.1969 7.918 55.7504 8.86824 57.2123 9.21408C58.5796 9.5376 58.7795 8.4913 57.5501 7.63034C56.3044 6.75783 55.2594 6.88524 55.2225 7.49516Z" fill="#221E29"/>
<path d="M45.265 7.43642C45.3066 7.858 44.7895 8.82856 43.3416 9.22933C41.9876 9.60426 41.7484 8.56649 42.9441 7.65938C44.1559 6.74048 45.205 6.82825 45.265 7.43642Z" fill="#221E29"/>
<mask id="mask3_334_6734" style="mask-type:luminance" maskUnits="userSpaceOnUse" x="0" y="0" width="101" height="115">
<path d="M100.474 11.2965C99.1384 12.353 98.9584 12.2196 97.7626 13.1659C97.7604 13.1659 97.7952 14.1179 94.6591 16.0663C93.6118 17.2134 93.2276 17.9076 91.084 21.1483C80.9606 40.0238 70.5319 48.6726 70.5319 67.799L70.5307 67.7977C70.5922 68.5907 70.6538 69.3907 70.7153 70.1975C70.7165 70.2033 70.7165 70.2081 70.7165 70.2138C71.3912 78.5933 73.4915 84.1292 71.9206 91.0992C70.7873 96.1278 66.2 105.082 59.7908 105.731C58.8887 105.823 58.0526 105.817 57.2992 105.735C57.4141 107.241 57.6789 109.113 57.9911 110.777C60.0707 110.259 63.0255 109.918 63.5364 110.518C64.1087 111.19 64.5686 113.097 64.6173 114.302C64.3991 114.811 61.58 114.937 59.0861 114.841H59.0688C57.0113 114.82 54.63 114.503 53.2437 114.262C53.6349 107.206 53.1925 104.532 53.1391 102.934C53.1378 102.911 53.1378 102.888 53.1378 102.866C52.887 101.516 53.0796 100.376 53.6371 99.1772C51.6551 99.4664 49.6315 99.5198 47.639 99.3375C48.051 100.531 48.0337 101.713 47.48 103.151C47.48 103.153 47.48 103.153 47.48 103.153C47.4057 104.77 47.004 107.495 47.3824 114.32C45.996 114.561 43.6148 114.878 41.5573 114.899H41.54C39.0459 114.996 36.227 114.869 36.0085 114.361C36.0572 113.156 36.5171 111.248 37.0894 110.577C37.6003 109.976 40.5551 110.318 42.6347 110.835C42.9517 109.145 43.2198 107.24 43.3301 105.721C42.5883 105.813 41.7569 105.823 40.8465 105.731C34.4376 105.082 29.8501 96.1281 28.7168 91.0995C28.69 90.9821 28.6646 90.865 28.64 90.7476C22.6105 87.5337 17.2837 82.0291 16.7182 77.1399C16.4975 75.2369 18.2009 76.2459 18.1347 76.0914C15.4153 69.8296 14.6165 58.0088 25.1069 50.21C25.6037 49.8408 26.103 49.5075 26.6024 49.2116C22.6233 40.247 16.0518 32.8299 9.63334 20.7874C9.63334 20.7862 9.63207 20.7839 9.63107 20.7829C7.69797 17.8537 7.30324 17.1697 6.29656 16.0668C3.16042 14.1184 3.19528 13.1664 3.19302 13.1664C1.99725 12.2201 1.81817 12.3536 0.482963 11.297C0.121824 11.0113 -0.170845 10.424 0.118318 10.194C0.395943 9.97229 1.99473 11.0356 3.5075 11.9355C2.53794 10.7733 1.5581 9.67711 0.466661 8.27117C0.0613823 7.74978 -0.202189 6.81508 0.204343 6.57131C0.210112 6.5678 0.215873 6.56429 0.222896 6.56203C-0.00933704 6.06045 -0.0860849 5.47284 0.226401 5.28952C0.703656 5.00738 3.29032 8.08082 5.27809 9.95122C4.57211 8.57664 3.84307 7.27503 3.07088 5.6321C2.79 5.03421 2.73533 4.06591 3.18575 3.91593C3.74877 3.7301 6.16263 8.56836 7.98438 10.3936C7.98563 10.3949 7.98563 10.3949 7.98663 10.3959C7.95654 10.4295 7.9623 10.432 7.98789 10.3971V10.3959C8.22488 10.1393 8.52558 9.89655 8.88196 9.65403C9.66693 9.11985 9.85253 8.93652 10.3263 8.11317C10.8512 7.2018 12.9247 7.25171 11.8288 8.2002C11.1448 8.79106 10.0374 11.8226 10.3704 14.319C10.3704 14.3203 10.3704 14.3203 10.3704 14.3213C10.714 15.5531 11.5153 16.6446 12.5219 17.8532C12.5232 17.8577 12.5255 17.8637 12.5267 17.8682C16.2236 21.6602 20.1026 24.5199 23.622 27.0163C23.6185 27.0013 23.6149 26.9862 23.6127 26.9699C23.5906 26.8445 23.5685 26.6833 23.5512 26.4927C23.5442 26.4172 23.5384 26.3347 23.5349 26.2489C23.5337 26.2188 23.5327 26.1874 23.5314 26.1561C23.5199 25.8007 23.5314 25.3794 23.5813 24.923C23.5858 24.8801 23.5919 24.8369 23.5976 24.794C23.731 23.7956 24.0759 22.6275 24.8436 21.5546C25.0781 21.5185 25.3103 21.4711 25.5403 21.4129C25.6704 21.3803 25.7993 21.3432 25.928 21.3038C25.9315 21.3025 25.9338 21.3015 25.9373 21.3003C26.0092 21.2782 26.08 21.2549 26.1509 21.2296C26.2879 21.1819 26.4225 21.131 26.5562 21.0751C26.5607 21.0738 26.5667 21.0716 26.5713 21.0693C26.5121 21.0623 26.4785 21.0588 26.4657 21.0588C25.9257 20.9983 25.3951 20.9983 24.8528 20.9311C24.8528 20.9311 24.9399 19.8339 24.9584 19.5972C31.6972 20.1812 33.4006 17.3899 34.6836 15.2908C31.2781 10.4423 38.1819 -0.464888 39.1943 0.015879C39.2407 0.0216472 39.2871 0.0402057 39.3325 0.0715546C43.9676 3.26688 47.1768 6.70348 47.5309 9.39948C48.1022 9.36688 48.693 9.34957 49.3037 9.34957C50.4428 9.34957 51.5074 9.38794 52.5026 9.46218C52.8138 6.75689 56.038 3.29121 60.708 0.0715546C60.7533 0.0402057 60.7998 0.0216472 60.8461 0.015879C61.8621 -0.465891 68.8135 10.5235 65.3185 15.3442C66.6745 17.4459 67.8718 20.0895 74.8115 19.7133C75.2305 19.6262 75.233 20.1985 74.8904 20.908C74.8069 20.9253 74.7257 20.9406 74.6454 20.9544C74.0476 21.059 73.5495 21.0846 73.172 21.1355C73.7316 21.3422 74.3099 21.4966 74.8985 21.5952C75.536 22.5264 76.9826 24.9623 75.847 27.9648C79.336 25.5893 83.6192 22.545 88.7569 17.4607C88.7582 17.4594 88.7582 17.4594 88.7592 17.4584C89.6114 16.4031 90.2802 15.4172 90.5855 14.3213C90.5855 14.32 90.5855 14.32 90.5855 14.319C90.9188 11.8226 89.811 8.79106 89.1271 8.2002C88.0312 7.25171 90.1047 7.2018 90.6296 8.11317C91.1034 8.93627 91.2892 9.11985 92.0739 9.65403C92.4303 9.8968 92.731 10.1393 92.968 10.3959V10.3971C92.9936 10.432 92.9993 10.4297 92.9692 10.3959C92.9705 10.3946 92.9705 10.3946 92.9715 10.3936C94.7932 8.56836 97.2071 3.73035 97.7701 3.91593C98.2205 4.06566 98.1661 5.03396 97.885 5.6321C97.1128 7.27503 96.3838 8.57664 95.6778 9.95122C97.6656 8.08082 100.252 5.00738 100.73 5.28952C101.042 5.47284 100.965 6.06045 100.733 6.56203C100.74 6.56429 100.746 6.5678 100.752 6.57131C101.158 6.81508 100.894 7.74978 100.489 8.27117C99.398 9.67711 98.4182 10.7733 97.4486 11.9355C98.9614 11.0356 100.56 9.97204 100.838 10.194C101.127 10.4235 100.835 11.0108 100.474 11.2965Z" fill="white"/>
</mask>
<g mask="url(#mask3_334_6734)">
<g opacity="0.251">
<path d="M47.5829 34.364C47.9152 33.9798 48.1846 34.7006 50.1177 34.7006C51.8978 34.7006 52.0452 33.9038 52.4628 34.3114C53.1181 34.9506 52.1847 35.7627 49.9837 35.7627C47.6945 35.7627 46.9968 35.0422 47.5829 34.364Z" fill="url(#paint0_linear_334_6734)"/>
<path d="M35.6149 113.422C38.091 115.179 47.4084 114.505 45.2859 112.048C44.8656 111.562 43.5149 110.713 41.8383 110.455C42.0786 109.297 42.4929 107.82 42.7332 106.662C36.2537 106.24 29.8809 105.561 29.8809 94.6914C33.5359 104.582 43.1367 104.085 39.9373 95.4275C42.5227 98.0129 46.0381 99.3589 49.654 100.002C49.6244 105.135 49.5948 110.268 49.5652 115.401C44.8862 116.418 39.9764 116.355 35.3248 115.22C35.251 114.387 35.5252 114.019 35.6149 113.422Z" fill="url(#paint1_linear_334_6734)"/>
<path d="M64.7668 113.616C62.2908 115.373 52.9734 114.699 55.0958 112.242C55.5161 111.756 56.8669 110.907 58.5434 110.649C58.3032 109.491 57.8889 108.014 57.6486 106.856C64.1281 106.434 70.5009 105.755 70.5009 94.8853C66.8459 104.775 57.2451 104.279 60.4442 95.6213C57.8588 98.2067 54.3434 99.5527 50.7275 100.196C50.7571 105.329 50.7867 110.462 50.8163 115.595C55.4953 116.612 60.4051 116.549 65.0567 115.414C65.131 114.581 64.8569 114.212 64.7668 113.616Z" fill="url(#paint2_linear_334_6734)"/>
<path d="M15.928 68.2614C16.4728 70.4518 17.7009 76.1252 20.8343 77.3629C26.8079 79.7223 30.4526 55.5282 21.2112 52.5019C21.6353 52.1456 25.0869 47.2612 25.511 46.9048C30.1073 56.7872 32.1003 63.2792 28.834 74.1485C27.5058 78.5684 27.6435 87.6122 29.3386 93.254C24.5129 93.899 19.5836 90.6638 16.9611 86.5619C14.3388 82.4602 14.3308 74.2826 15.928 68.2614Z" fill="url(#paint3_linear_334_6734)"/>
<path d="M35.971 45.3246C38.284 34.683 32.391 28.005 26.0956 26.888C24.7198 25.3413 24.6144 23.261 24.8449 21.5539C25.5672 21.4129 26.1094 21.3229 26.8314 21.182C26.2323 20.2789 25.6329 19.3758 25.0337 18.4727C23.6368 20.6814 22.2397 22.8898 20.8428 25.0986C25.2043 27.9924 28.3783 30.4106 31.0866 32.5912C35.2349 35.932 36.1711 39.2118 35.971 45.3246Z" fill="url(#paint4_linear_334_6734)"/>
<path d="M64.9385 45.3247C61.7056 34.7481 66.1065 31.1753 73.8853 27.0042C75.2611 25.4575 75.3664 23.3772 75.136 21.6701C74.4137 21.5291 73.8717 21.4391 73.1494 21.2982C73.7486 20.3951 74.348 19.492 74.9471 18.5889C76.344 20.7976 78.5161 22.8769 79.913 25.0856C74.9461 28.6341 71.652 30.9258 68.9437 33.1064C64.7953 36.447 64.9385 40.808 64.9385 45.3247Z" fill="url(#paint5_linear_334_6734)"/>
<path d="M47.4117 27.0855C47.729 27.2393 48.1047 27.2683 48.4417 27.1648C48.4839 26.8864 48.5629 26.6135 48.676 26.3555C48.5283 26.5611 48.295 26.697 48.0477 26.7515C47.8005 26.8059 47.5404 26.7831 47.2969 26.7141C47.3603 26.8535 47.4243 26.993 47.4117 27.0855Z" fill="url(#paint6_linear_334_6734)"/>
<path d="M51.6409 27.2485C51.9704 27.2859 52.3095 27.2352 52.6095 27.0938C52.6586 27.0015 52.6892 26.8989 52.6985 26.7948C52.2812 26.8054 51.8619 26.7309 51.4736 26.5771C51.5835 26.7858 51.6539 27.0153 51.6409 27.2485Z" fill="url(#paint7_linear_334_6734)"/>
<path d="M48.5466 31.2213C47.8108 30.1113 48.5792 29.3985 49.8728 29.3985C51.9305 29.3985 51.835 30.4405 51.2045 31.2581C51.9208 30.7402 52.4181 29.9643 52.7424 29.142C53.0669 28.3196 53.2321 27.4448 53.3957 26.5761C53.172 26.6192 52.9483 26.6624 52.7246 26.7055C52.7213 26.9949 52.5879 27.2803 52.3679 27.4684C52.148 27.6565 51.8453 27.744 51.5589 27.7022C51.6053 27.2229 51.524 26.549 51.2153 26.1796C50.9066 25.8102 50.3696 25.7558 49.8886 25.7741C49.4073 25.7921 48.9379 26.0662 48.7066 26.4886C48.4899 26.8843 48.4894 27.3621 48.5439 27.81C48.2389 27.8426 47.9214 27.7303 47.7047 27.5131C47.488 27.2959 47.3764 26.9784 47.4098 26.6734C47.2091 26.7888 46.8172 26.5568 46.7582 26.5907C46.6985 26.6248 46.7301 30.2625 48.5466 31.2213Z" fill="url(#paint8_linear_334_6734)"/>
<path d="M57.1562 13.8353C58.7636 13.9281 59.9676 15.4732 60.2232 16.6221C61.2727 16.5802 62.5876 16.6339 63.2402 17.2671C62.4901 15.9768 61.6038 15.0996 60.4715 14.4826C59.3391 13.8657 58.193 13.6249 57.1562 13.8353Z" fill="url(#paint9_linear_334_6734)"/>
<path d="M55.3789 20.9296C57.311 19.708 59.0751 19.5068 61.361 19.5068C63.4105 19.5068 63.9414 18.6659 64.0676 18.2646C63.5113 18.7113 62.7416 18.8011 61.8596 18.8533C60.2322 18.9493 58.9936 19.1507 57.9984 19.4607C57.003 19.7706 56.0292 20.3417 55.3789 20.9296Z" fill="url(#paint10_linear_334_6734)"/>
<path d="M42.9814 13.8353C41.3741 13.9281 40.17 15.4732 39.9145 16.6221C38.8649 16.5802 37.55 16.6339 36.8975 17.2671C37.6476 15.9768 38.5339 15.0996 39.6662 14.4826C40.7985 13.8657 41.9446 13.6249 42.9814 13.8353Z" fill="url(#paint11_linear_334_6734)"/>
<path d="M44.759 20.9296C42.8269 19.708 41.0628 19.5068 38.7768 19.5068C36.7274 19.5068 36.1965 18.6659 36.0703 18.2646C36.6266 18.7113 37.3962 18.8011 38.2783 18.8533C39.9057 18.9493 41.1443 19.1507 42.1395 19.4607C43.1349 19.7706 44.1087 20.3417 44.759 20.9296Z" fill="url(#paint12_linear_334_6734)"/>
<path d="M39.1948 0.0156545C37.9832 1.65809 38.5166 8.32211 40.6564 9.30772C42.7076 10.2524 47.1348 9.66234 46.7762 6.13872C46.7982 6.4319 47.7495 9.11611 47.7482 9.38772C41.729 9.98485 38.4484 11.3023 36.4478 13.1335C35.5671 13.9398 34.3327 15.4323 34.0312 16.5877C33.3734 14.8025 32.7687 12.9841 32.5014 11.1006C32.234 9.21693 32.3178 7.25198 33.0045 5.47763C34.1027 2.64094 36.6229 0.573915 39.3247 -0.823242C39.2953 -0.512512 39.442 -0.319904 39.1948 0.0156545Z" fill="url(#paint13_linear_334_6734)"/>
<path d="M60.7683 0.0156545C61.9799 1.65809 61.4465 8.32211 59.3067 9.30772C57.2552 10.2524 52.8283 9.66234 53.1869 6.13872C53.1649 6.4319 52.2136 9.11611 52.2148 9.38772C58.2341 9.98485 61.5147 11.3023 63.5152 13.1335C64.396 13.9398 65.6304 15.4323 65.9319 16.5877C66.5897 14.8025 67.1944 12.9841 67.4617 11.1006C67.729 9.21718 67.6453 7.25198 66.9586 5.47763C65.8604 2.64094 63.3402 0.573915 60.6382 -0.823242C60.6678 -0.512512 60.5208 -0.319904 60.7683 0.0156545Z" fill="url(#paint14_linear_334_6734)"/>
<path d="M28.3827 77.2028C30.3918 70.3767 33.1422 65.1051 32.4242 60.0384C31.7636 55.3774 27.8746 49.3456 22.4502 41.4487C28.8562 51.6186 29.3698 62.9684 28.3827 77.2028Z" fill="url(#paint15_linear_334_6734)"/>
<path d="M72.0006 79.9809C69.9915 73.1549 67.6948 66.3539 68.4128 61.2872C69.0734 56.6262 71.6854 52.1037 77.1095 44.207C70.7035 54.3769 71.0135 65.7462 72.0006 79.9809Z" fill="url(#paint16_linear_334_6734)"/>
<path d="M18.1397 34.6719C15.5408 29.5786 12.9418 24.4851 10.3429 19.3917C9.53734 17.813 8.81556 15.4029 7.14554 14.81C6.57148 14.6064 4.1363 13.6687 4.41794 12.5537C4.69958 11.4384 5.01508 10.8736 6.29612 9.73502C5.4201 8.55004 4.61179 7.82826 4.01917 6.47925C3.42655 5.13 3.14015 3.59766 3.50706 2.17041C1.75729 2.20677 0.140185 3.27364 -0.885551 4.69161C-1.91129 6.10959 -2.41287 7.84255 -2.68623 9.57126C-2.86404 10.6968 -2.94755 11.881 -2.54678 12.9477C-2.02363 14.3403 -0.776196 15.3016 0.32553 16.3012C3.65829 19.3258 6.03354 23.2439 9.01369 26.6163C11.6467 29.5959 14.736 32.1317 18.1397 34.6719Z" fill="url(#paint17_linear_334_6734)"/>
<path d="M6.88544 9.00342C6.96294 9.44933 7.34891 9.82777 7.30853 10.2787C7.28496 10.5418 7.11868 10.7662 6.98978 10.997C6.69133 11.5309 6.57697 12.1656 6.67052 12.7701C6.76406 13.3747 7.06475 13.945 7.51066 14.3638C7.15504 13.7258 7.24884 12.905 7.60922 12.2695C7.96961 11.634 8.56073 11.16 9.18671 10.7833C9.45857 10.6195 9.75424 10.4568 9.90547 10.1779C10.0319 9.94489 10.0364 9.66827 10.085 9.4077C10.1828 8.8863 10.4753 8.40353 10.8923 8.07549C11.3094 7.74746 11.8471 7.57667 12.377 7.60426C11.6786 7.06907 10.6636 7.05402 9.87839 7.45153C9.09341 7.84878 8.52939 8.60466 8.22718 9.43127C7.84473 9.25095 7.46226 9.07089 6.88544 9.00342Z" fill="url(#paint18_linear_334_6734)"/>
<path d="M83.1045 34.4908C85.7034 29.3975 88.3024 24.3039 90.9011 19.2106C91.7066 17.6319 92.4284 15.2218 94.0984 14.6289C94.6725 14.425 97.1077 13.4875 96.826 12.3725C96.5444 11.2572 96.2289 10.6925 94.9479 9.55387C95.8239 8.36888 96.6322 7.64711 97.2248 6.2981C97.8174 4.94884 98.1038 3.41651 97.7369 1.98926C99.4864 2.02562 101.104 3.09249 102.13 4.51046C103.155 5.92843 103.657 7.66165 103.93 9.3901C104.108 10.5157 104.191 11.6999 103.791 12.7665C103.267 14.1591 102.02 15.1204 100.918 16.1201C97.5854 19.1446 95.2102 23.0627 92.2301 26.4351C89.5972 29.4148 86.508 31.9503 83.1045 34.4908Z" fill="url(#paint19_linear_334_6734)"/>
<path d="M94.5892 8.32687C94.3304 8.99498 93.9364 9.82184 93.9364 10.0972C93.9364 10.1775 94.2714 10.6429 94.4003 10.8734C94.9408 11.84 94.8377 12.8489 93.7139 13.9727C94.1172 11.9807 92.9688 11.0219 92.0296 10.4566C91.7577 10.2928 90.9397 9.8399 90.7882 9.56077C90.649 9.30396 90.4637 8.23082 90.1206 7.98103C89.6917 7.66855 89.3724 7.60109 88.8428 7.62867C89.5412 7.09348 90.5815 6.87254 91.3668 7.27004C92.1517 7.66729 92.7158 8.42318 93.018 9.24979C93.3999 9.06947 93.9186 8.84024 94.5892 8.32687Z" fill="url(#paint20_linear_334_6734)"/>
</g>
</g>
<defs>
<linearGradient id="paint0_linear_334_6734" x1="50.0272" y1="35.5385" x2="50.0272" y2="34.2197" gradientUnits="userSpaceOnUse">
<stop stop-color="#564E82"/>
<stop offset="1" stop-color="#59396E"/>
</linearGradient>
<linearGradient id="paint1_linear_334_6734" x1="39.7676" y1="113.054" x2="39.7676" y2="95.0247" gradientUnits="userSpaceOnUse">
<stop stop-color="#564E82"/>
<stop offset="1" stop-color="#59396E"/>
</linearGradient>
<linearGradient id="paint2_linear_334_6734" x1="60.6142" y1="113.248" x2="60.6142" y2="95.2185" gradientUnits="userSpaceOnUse">
<stop stop-color="#564E82"/>
<stop offset="1" stop-color="#59396E"/>
</linearGradient>
<linearGradient id="paint3_linear_334_6734" x1="22.642" y1="86.6937" x2="22.642" y2="47.6267" gradientUnits="userSpaceOnUse">
<stop stop-color="#564E82"/>
<stop offset="1" stop-color="#59396E"/>
</linearGradient>
<linearGradient id="paint4_linear_334_6734" x1="28.6635" y1="41.4832" x2="28.6635" y2="18.8903" gradientUnits="userSpaceOnUse">
<stop stop-color="#564E82"/>
<stop offset="1" stop-color="#59396E"/>
</linearGradient>
<linearGradient id="paint5_linear_334_6734" x1="71.89" y1="41.4999" x2="71.89" y2="19.0048" gradientUnits="userSpaceOnUse">
<stop stop-color="#564E82"/>
<stop offset="1" stop-color="#59396E"/>
</linearGradient>
<linearGradient id="paint6_linear_334_6734" x1="47.9862" y1="27.1014" x2="47.9862" y2="26.369" gradientUnits="userSpaceOnUse">
<stop stop-color="#564E82"/>
<stop offset="1" stop-color="#59396E"/>
</linearGradient>
<linearGradient id="paint7_linear_334_6734" x1="52.0861" y1="27.1626" x2="52.0861" y2="26.5876" gradientUnits="userSpaceOnUse">
<stop stop-color="#564E82"/>
<stop offset="1" stop-color="#59396E"/>
</linearGradient>
<linearGradient id="paint8_linear_334_6734" x1="50.0695" y1="30.4732" x2="50.0695" y2="25.8565" gradientUnits="userSpaceOnUse">
<stop stop-color="#564E82"/>
<stop offset="1" stop-color="#59396E"/>
</linearGradient>
<linearGradient id="paint9_linear_334_6734" x1="60.1982" y1="16.7656" x2="60.1982" y2="13.8153" gradientUnits="userSpaceOnUse">
<stop stop-color="#564E82"/>
<stop offset="1" stop-color="#59396E"/>
</linearGradient>
<linearGradient id="paint10_linear_334_6734" x1="59.7232" y1="20.5482" x2="59.7232" y2="18.3061" gradientUnits="userSpaceOnUse">
<stop stop-color="#564E82"/>
<stop offset="1" stop-color="#59396E"/>
</linearGradient>
<linearGradient id="paint11_linear_334_6734" x1="39.9395" y1="16.7656" x2="39.9395" y2="13.8153" gradientUnits="userSpaceOnUse">
<stop stop-color="#564E82"/>
<stop offset="1" stop-color="#59396E"/>
</linearGradient>
<linearGradient id="paint12_linear_334_6734" x1="40.4147" y1="20.5482" x2="40.4147" y2="18.3061" gradientUnits="userSpaceOnUse">
<stop stop-color="#564E82"/>
<stop offset="1" stop-color="#59396E"/>
</linearGradient>
<linearGradient id="paint13_linear_334_6734" x1="40.0542" y1="14.097" x2="40.0542" y2="-0.552438" gradientUnits="userSpaceOnUse">
<stop stop-color="#564E82"/>
<stop offset="1" stop-color="#59396E"/>
</linearGradient>
<linearGradient id="paint14_linear_334_6734" x1="59.9088" y1="14.097" x2="59.9088" y2="-0.552438" gradientUnits="userSpaceOnUse">
<stop stop-color="#564E82"/>
<stop offset="1" stop-color="#59396E"/>
</linearGradient>
<linearGradient id="paint15_linear_334_6734" x1="27.4953" y1="72.0878" x2="27.4953" y2="42.0048" gradientUnits="userSpaceOnUse">
<stop stop-color="#564E82"/>
<stop offset="1" stop-color="#59396E"/>
</linearGradient>
<linearGradient id="paint16_linear_334_6734" x1="72.6941" y1="74.8629" x2="72.6941" y2="44.7632" gradientUnits="userSpaceOnUse">
<stop stop-color="#564E82"/>
<stop offset="1" stop-color="#59396E"/>
</linearGradient>
<linearGradient id="paint17_linear_334_6734" x1="7.65292" y1="30.0222" x2="7.65292" y2="2.67568" gradientUnits="userSpaceOnUse">
<stop stop-color="#564E82"/>
<stop offset="1" stop-color="#59396E"/>
</linearGradient>
<linearGradient id="paint18_linear_334_6734" x1="9.50764" y1="13.3354" x2="9.50764" y2="7.28706" gradientUnits="userSpaceOnUse">
<stop stop-color="#564E82"/>
<stop offset="1" stop-color="#59396E"/>
</linearGradient>
<linearGradient id="paint19_linear_334_6734" x1="93.5912" y1="29.841" x2="93.5912" y2="2.49443" gradientUnits="userSpaceOnUse">
<stop stop-color="#564E82"/>
<stop offset="1" stop-color="#59396E"/>
</linearGradient>
<linearGradient id="paint20_linear_334_6734" x1="91.7797" y1="12.9846" x2="91.7797" y2="7.17416" gradientUnits="userSpaceOnUse">
<stop stop-color="#564E82"/>
<stop offset="1" stop-color="#59396E"/>
</linearGradient>
</defs>
</svg>
