<svg width="87" height="165" viewBox="0 0 87 165" fill="none" xmlns="http://www.w3.org/2000/svg">
<path d="M45.4253 116.19L42.6869 103.124C38.0131 107.167 29.2832 118.458 25.7139 124.168C24.0124 126.883 22.9014 128.735 22.9014 128.735L28.2624 132.71L31.5541 129.539L45.4253 116.19Z" fill="#F49004"/>
<path d="M23.5662 128.604L28.22 132.054L44.8772 116.021L42.3745 104.079C37.546 108.567 29.3807 119.248 26.1385 124.434C24.9071 126.398 23.9786 127.923 23.5662 128.604ZM28.2624 133.211C28.1576 133.211 28.0527 133.178 27.9636 133.112L22.603 129.138C22.396 128.984 22.3391 128.698 22.472 128.478C22.4829 128.459 23.6044 126.59 25.2889 123.902C28.7907 118.3 37.5019 106.946 42.359 102.745C42.4935 102.628 42.6797 102.593 42.847 102.649C43.0155 102.706 43.1412 102.847 43.1775 103.021L45.9159 116.087C45.9518 116.256 45.8974 116.431 45.7728 116.551L28.6098 133.07C28.5132 133.164 28.3881 133.211 28.2624 133.211Z" fill="#C75314"/>
<path d="M31.5535 129.539L25.713 124.168C24.0112 126.883 22.9004 128.735 22.9004 128.735L28.2614 132.71L31.5535 129.539Z" fill="#9E3F10"/>
<path d="M23.5662 128.604L28.22 132.054L30.8228 129.547L25.8184 124.946C24.747 126.662 23.9417 127.984 23.5662 128.604ZM28.2624 133.211C28.1576 133.211 28.0527 133.178 27.9636 133.112L22.603 129.138C22.396 128.984 22.3391 128.698 22.472 128.478C22.4829 128.459 23.6044 126.59 25.2889 123.902C25.3683 123.776 25.4995 123.691 25.6473 123.671C25.7928 123.652 25.9438 123.698 26.053 123.799L31.8933 129.169C31.9952 129.263 32.054 129.395 32.0554 129.533C32.0569 129.671 32.0013 129.804 31.9016 129.9L28.6098 133.07C28.5132 133.164 28.3881 133.211 28.2624 133.211Z" fill="#6B240A"/>
<path d="M62.5244 104.336L65.5363 117.567C69.8199 113.553 78.7585 102.867 82.6048 97.3388C84.4378 94.7111 85.6386 92.9162 85.6386 92.9162L80.4798 88.6824L77.0358 91.6871L62.5244 104.336Z" fill="#F49004"/>
<path d="M63.0801 104.517L65.8287 116.591C70.4096 112.097 78.6781 102.104 82.1939 97.0514C83.5208 95.1496 84.5236 93.6735 84.9689 93.0137L80.4904 89.3378L63.0801 104.517ZM65.5363 118.067C65.4872 118.067 65.4378 118.06 65.3894 118.045C65.2175 117.993 65.0872 117.852 65.0476 117.678L62.0361 104.447C61.9949 104.268 62.0561 104.08 62.1951 103.958L80.1504 88.304C80.3351 88.1434 80.6097 88.1389 80.7982 88.2941L85.9566 92.5279C86.1557 92.6919 86.1984 92.9797 86.0552 93.1942C86.0435 93.2124 84.8314 95.0235 83.0165 97.6252C79.3051 102.959 70.328 113.764 65.8789 117.932C65.7852 118.021 65.6617 118.067 65.5363 118.067Z" fill="#C75314"/>
<path d="M77.0361 91.6866L82.6051 97.3384C84.4386 94.7106 85.6389 92.9157 85.6389 92.9157L80.4801 88.6819L77.0361 91.6866Z" fill="#9E3F10"/>
<path d="M77.7669 91.7136L82.5385 96.5563C83.6939 94.8951 84.5623 93.615 84.9684 93.0137L80.4898 89.3378L77.7669 91.7136ZM82.6054 97.8394C82.4717 97.8394 82.3429 97.7861 82.2484 97.6902L76.6794 92.0384C76.582 91.9398 76.5302 91.8057 76.5355 91.6675C76.5404 91.5296 76.6028 91.3997 76.707 91.3087L80.151 88.304C80.3357 88.1434 80.6103 88.1393 80.7988 88.2941L85.9572 92.5279C86.1563 92.6919 86.1989 92.9797 86.0558 93.1942C86.0441 93.2124 84.832 95.0235 83.0171 97.6252C82.9317 97.7472 82.7969 97.8254 82.6481 97.8375L82.6054 97.8394Z" fill="#6B240A"/>
<path d="M47.8154 139.532C47.5325 144.547 45.9276 153.059 44.7681 158.726C44.0674 162.122 43.5295 164.499 43.5295 164.499L37.0169 163.444C37.0169 163.444 36.6087 160.599 36.2002 156.396C35.676 151.002 35.0412 141.257 35.3939 134.535C35.3936 134.535 48.2653 131.506 47.8154 139.532Z" fill="#F49004"/>
<path d="M37.4621 163.008L43.1429 163.929C43.3318 163.079 43.762 161.118 44.2768 158.625C45.5108 152.594 47.0394 144.381 47.3151 139.504C47.4031 137.931 46.9627 136.762 45.969 135.928C43.2759 133.669 37.4002 134.644 35.8753 134.946C35.5573 141.848 36.2378 151.601 36.6987 156.348C37.0181 159.635 37.3407 162.112 37.4621 163.008ZM43.5297 165L43.4489 164.994L36.9358 163.939C36.7194 163.904 36.551 163.732 36.5201 163.515C36.5159 163.487 36.1052 160.61 35.7012 156.444C35.2286 151.581 34.5272 141.488 34.8928 134.508C34.9046 134.286 35.0617 134.098 35.2785 134.047C35.5978 133.971 43.1331 132.241 46.6122 135.159C47.8481 136.195 48.4215 137.676 48.3157 139.56V139.56C48.0373 144.497 46.4997 152.762 45.2589 158.826C44.5654 162.189 44.0237 164.585 44.0185 164.609C43.966 164.841 43.7597 165 43.5297 165Z" fill="#C75314"/>
<path d="M44.7671 158.726C44.0664 162.122 43.5286 164.499 43.5286 164.499L37.0159 163.444C37.0159 163.444 36.6076 160.599 36.1992 156.396L44.7671 158.726Z" fill="#9E3F10"/>
<path d="M37.4626 163.008L43.1434 163.929C43.3205 163.132 43.7096 161.359 44.1817 159.086L36.7706 157.071C37.0654 159.998 37.3499 162.18 37.4626 163.008ZM43.5302 165L43.4493 164.994L36.9363 163.939C36.7198 163.904 36.5515 163.732 36.5205 163.515C36.5164 163.487 36.1056 160.61 35.7016 156.444C35.6854 156.28 35.7511 156.119 35.8768 156.013C36.0029 155.907 36.1731 155.87 36.332 155.912L44.8998 158.242C45.1551 158.311 45.3122 158.567 45.259 158.827C44.5655 162.189 44.0238 164.585 44.0186 164.609C43.9664 164.841 43.7602 165 43.5302 165Z" fill="#6B240A"/>
<path d="M56.5838 139.532C56.8667 144.547 58.4716 153.059 59.6316 158.726C60.3322 162.122 60.8701 164.499 60.8701 164.499L67.3826 163.444C67.3826 163.444 67.7909 160.599 68.1988 156.396C68.7231 151.002 69.3581 141.257 69.0053 134.535C69.0056 134.535 56.1339 131.506 56.5838 139.532Z" fill="#F49004"/>
<path d="M57.0848 139.503C57.3606 144.387 58.8892 152.597 60.1231 158.625C60.6372 161.118 61.0678 163.079 61.2567 163.929L66.9367 163.008C67.058 162.112 67.3805 159.635 67.7005 156.348C68.1616 151.603 68.843 141.851 68.5242 134.946C66.9994 134.644 61.1241 133.668 58.4306 135.928C57.4376 136.761 56.9968 137.931 57.0848 139.503ZM60.8703 165C60.6402 165 60.434 164.841 60.3819 164.609C60.3766 164.586 59.8346 162.189 59.1415 158.827C57.9007 152.766 56.363 144.504 56.0846 139.56V139.56C55.9789 137.676 56.5515 136.196 57.7878 135.159C61.2665 132.242 68.8026 133.972 69.1218 134.047C69.3386 134.099 69.4957 134.287 69.5074 134.509C69.8734 141.492 69.1713 151.583 68.6988 156.445C68.2942 160.611 67.8836 163.487 67.8799 163.515C67.8485 163.732 67.6801 163.904 67.4636 163.939L60.9511 164.994L60.8703 165Z" fill="#C75314"/>
<path d="M59.6318 158.726C60.3325 162.122 60.8704 164.499 60.8704 164.499L67.3829 163.444C67.3829 163.444 67.7912 160.599 68.1991 156.396L59.6318 158.726Z" fill="#9E3F10"/>
<path d="M60.2184 159.086C60.6898 161.359 61.0796 163.131 61.2568 163.928L66.9368 163.008C67.0494 162.179 67.3338 159.996 67.6292 157.07L60.2184 159.086ZM60.87 165C60.64 165 60.4337 164.841 60.3816 164.609C60.3763 164.586 59.8343 162.189 59.1412 158.827C59.088 158.568 59.2451 158.311 59.5004 158.242L68.0677 155.913C68.2267 155.87 68.3971 155.907 68.5229 156.013C68.6486 156.12 68.7144 156.281 68.6981 156.445C68.2936 160.611 67.883 163.487 67.8792 163.515C67.8479 163.732 67.6794 163.904 67.463 163.939L60.9505 164.994L60.87 165Z" fill="#6B240A"/>
<path d="M74.0688 124.466C76.1557 135.253 67.8403 142.175 57.0219 144.046C46.3681 145.892 36.0628 142.312 34.3847 131.344C32.7727 120.821 37.4418 110.89 38.9165 104.746C40.4538 98.4562 38.9883 88.9582 37.8778 82.5522L54.359 79.6955C55.4245 85.8439 57.1711 94.8694 60.3816 100.211C63.6111 105.547 71.9634 113.593 74.0688 124.466Z" fill="#FFBF4D"/>
<path d="M55.8479 137.28C64.4647 135.786 66.4873 128.863 64.8866 124.456C62.3121 117.369 56.3076 106.805 50.7363 107.772L50.7314 107.773C45.1594 108.737 43.1148 122.515 43.0215 128.246C42.9445 132.934 47.2308 138.773 55.8479 137.28Z" fill="#FFD894"/>
<path d="M50.8224 108.266C45.8789 109.121 43.6296 121.706 43.5231 128.254C43.4838 130.661 44.6177 133.088 46.5558 134.747C48.1671 136.126 51.0732 137.598 55.7633 136.786C60.4137 135.98 62.6448 133.645 63.6983 131.829C64.9817 129.614 65.2507 126.923 64.4171 124.628C61.9778 117.916 56.0896 107.346 50.8224 108.266ZM45.9035 135.508C43.7414 133.658 42.4765 130.94 42.5207 128.238C42.5883 124.096 44.1652 108.4 50.6464 107.279C56.5383 106.255 62.6717 116.889 65.3583 124.285C66.2924 126.855 65.9955 129.863 64.5655 132.331C63.4048 134.333 60.9655 136.901 55.9344 137.773C50.83 138.658 47.6549 137.007 45.9035 135.508Z" fill="#F49004"/>
<path d="M57.505 93.5063C56.3972 93.7492 55.1961 93.6268 54.2371 93.0247C52.4886 91.9188 52.0044 89.4183 52.7534 87.4875C53.2373 86.2285 54.1404 85.1868 55.2169 84.354C55.8008 87.2544 56.5453 90.4933 57.505 93.5063Z" fill="#F49004"/>
<path d="M54.8955 85.2828C54.1128 86.0095 53.5512 86.8095 53.2218 87.6673C52.5903 89.2952 52.8981 91.5849 54.5053 92.6014C55.1568 93.01 55.9889 93.1853 56.8539 93.1022C56.1631 90.8563 55.5187 88.2848 54.8955 85.2828ZM56.4433 94.1235C55.5414 94.1235 54.6783 93.8931 53.9708 93.4489C51.9263 92.1557 51.5093 89.3103 52.2866 87.3062C52.7648 86.0613 53.6479 84.9342 54.9102 83.9574C55.0481 83.8513 55.2297 83.8233 55.3922 83.8845C55.555 83.9445 55.6743 84.0851 55.7087 84.255C56.4301 87.8384 57.1742 90.814 57.9833 93.3538C58.026 93.4882 58.0101 93.6344 57.9398 93.7568C57.8692 93.8788 57.751 93.9657 57.6127 93.9955C57.2222 94.0812 56.829 94.1235 56.4433 94.1235Z" fill="#F07800"/>
<path d="M68.0112 110.798C66.7912 110.862 65.5851 110.771 64.4648 110.502C60.7655 109.617 58.2552 106.903 58.4101 103.951C58.4804 102.565 59.147 101.158 60.2209 99.9289C60.2734 100.027 60.3251 100.119 60.3814 100.211C62.0785 103.016 65.1296 106.5 67.9628 110.725L68.0112 110.798Z" fill="#F49004"/>
<path d="M60.1593 100.805C59.402 101.833 58.9631 102.94 58.9106 103.977C58.7679 106.7 61.0999 109.182 64.5816 110.015C65.3639 110.203 66.2009 110.303 67.0791 110.316C65.8673 108.557 64.6111 106.902 63.487 105.423C62.1756 103.697 61.0296 102.188 60.1593 100.805ZM67.263 111.319C66.2383 111.319 65.2607 111.209 64.3478 110.99C60.3886 110.043 57.7409 107.138 57.9089 103.925C57.9837 102.458 58.6526 100.961 59.8436 99.5993C59.9516 99.4754 60.1114 99.4142 60.2772 99.4308C60.4407 99.4493 60.5847 99.5468 60.6625 99.6918C60.7104 99.7809 60.7573 99.8659 60.8094 99.9502C61.6747 101.381 62.8849 102.973 64.2855 104.817C65.5595 106.494 67.0043 108.395 68.3791 110.446L68.4373 110.535C68.5302 110.686 68.537 110.874 68.4551 111.031C68.3727 111.188 68.2141 111.289 68.0377 111.299C67.7763 111.313 67.5183 111.319 67.263 111.319Z" fill="#F07800"/>
<path d="M47.8856 98.1448C47.5471 99.8313 46.5417 101.338 45.2401 102.459C43.4996 103.951 41.2046 104.741 38.916 104.746C38.9874 104.454 39.0558 104.172 39.1098 103.899C39.7927 100.56 39.6567 96.2238 39.2416 92.0682C39.8259 91.8294 40.4405 91.6466 41.0686 91.5427C43.1003 91.2009 45.3545 91.7615 46.7116 93.312C47.8421 94.6064 48.2251 96.4632 47.8856 98.1448Z" fill="#F49004"/>
<path d="M39.7784 92.3989C40.2486 97.322 40.1905 101.12 39.6016 103.999C39.5869 104.073 39.5718 104.147 39.5551 104.222C41.5446 104.083 43.4686 103.319 44.9149 102.08C46.2165 100.958 47.0977 99.5256 47.3946 98.0465C47.7171 96.448 47.3107 94.76 46.3347 93.6416C45.1868 92.3313 43.154 91.7009 41.1525 92.0378C40.6989 92.1126 40.2384 92.2338 39.7784 92.3989ZM38.9161 105.248C38.7623 105.248 38.6169 105.177 38.5221 105.056C38.4273 104.935 38.3929 104.777 38.4292 104.627C38.4991 104.343 38.5659 104.068 38.6192 103.802C39.1948 100.985 39.2364 97.0554 38.7434 92.1183C38.7215 91.8969 38.8473 91.688 39.0528 91.6042C39.6972 91.3413 40.348 91.1547 40.9874 91.049C43.3553 90.6497 45.6964 91.39 47.0898 92.9813C48.2852 94.3509 48.7657 96.3184 48.3778 98.244C48.0371 99.9399 47.0392 101.572 45.568 102.839C43.7886 104.364 41.3651 105.242 38.9176 105.247L38.9161 105.248Z" fill="#F07800"/>
<path d="M39.7502 116.867C38.8615 118.227 37.3101 119.05 35.7159 119.331C35.4193 119.383 35.1205 119.419 34.8184 119.436C34.8278 119.373 34.8372 119.311 34.852 119.247C35.4423 116.255 36.2828 113.444 37.0796 110.91C38.1072 111.027 39.0941 111.496 39.7291 112.312C40.7198 113.595 40.6348 115.513 39.7502 116.867Z" fill="#F49004"/>
<path d="M37.4283 111.475C36.7065 113.787 35.9804 116.266 35.4404 118.868C35.5031 118.858 35.5661 118.848 35.6307 118.837C37.2345 118.554 38.5842 117.735 39.3309 116.592C40.1464 115.344 40.1468 113.673 39.3324 112.618C38.8927 112.052 38.2125 111.648 37.4283 111.475ZM34.8187 119.937C34.6782 119.937 34.5438 119.878 34.4482 119.773C34.347 119.662 34.3008 119.511 34.3228 119.362C34.334 119.288 34.3458 119.213 34.3628 119.137C34.9485 116.169 35.7854 113.355 36.6017 110.759C36.674 110.529 36.9026 110.38 37.1363 110.411C38.3556 110.549 39.445 111.13 40.1248 112.004C41.193 113.387 41.2115 115.547 40.1698 117.14C39.272 118.515 37.6801 119.493 35.8034 119.824C35.4676 119.883 35.1549 119.919 34.8458 119.936L34.8187 119.937Z" fill="#F07800"/>
<path d="M40.4026 138.064C40.0767 138.884 39.5955 139.629 39.0055 140.275C36.6598 138.189 34.9821 135.259 34.3848 131.344C34.2051 130.159 34.0992 128.992 34.0762 127.831C36.1325 128.014 38.105 129.061 39.3756 130.698C40.9617 132.748 41.3692 135.658 40.4026 138.064Z" fill="#F49004"/>
<path d="M34.5966 128.405C34.6366 129.337 34.7307 130.28 34.8811 131.269C35.3984 134.662 36.7711 137.446 38.963 139.553C39.3747 139.034 39.7018 138.472 39.9375 137.879L39.9386 137.878C40.8436 135.625 40.4674 132.928 38.9796 131.005C37.9277 129.65 36.3192 128.704 34.5966 128.405ZM39.006 140.777C38.8871 140.777 38.7681 140.735 38.6725 140.65C36.0813 138.345 34.4727 135.24 33.8899 131.42C33.7014 130.18 33.5983 129.01 33.5753 127.841C33.5721 127.699 33.6304 127.562 33.7342 127.465C33.8384 127.368 33.976 127.318 34.1211 127.332C36.3247 127.529 38.4376 128.672 39.772 130.39C41.4736 132.589 41.9039 135.674 40.8689 138.25C40.5282 139.106 40.0259 139.901 39.3758 140.613C39.2772 140.722 39.1424 140.777 39.006 140.777Z" fill="#F07800"/>
<path d="M56.5121 144.129C53.2981 144.636 50.0226 144.639 46.9994 144.044L46.9945 144.044C46.931 144.03 46.8683 144.021 46.8037 144.001C47.1217 143.371 47.5633 142.806 48.1049 142.351C49.8424 140.9 52.5072 140.688 54.4479 141.847C55.3438 142.378 56.0543 143.191 56.5121 144.129Z" fill="#F49004"/>
<path d="M47.5992 143.644C50.122 144.08 52.9027 144.112 55.7129 143.738C55.3095 143.132 54.7928 142.633 54.1918 142.278C52.4298 141.224 50.0045 141.417 48.426 142.735C48.1163 142.996 47.8364 143.304 47.5992 143.644ZM51.8704 144.999C50.1605 144.999 48.4993 144.847 46.9382 144.542L46.8853 144.533L46.8343 144.523C46.7769 144.511 46.7199 144.499 46.6617 144.482C46.5193 144.44 46.4026 144.337 46.3437 144.2C46.2851 144.063 46.2893 143.908 46.3565 143.775C46.7116 143.073 47.1913 142.465 47.7828 141.967C49.6793 140.384 52.5899 140.153 54.7055 141.417C55.6645 141.986 56.4453 142.848 56.9631 143.91C57.033 144.052 57.0307 144.22 56.9571 144.361C56.8838 144.502 56.7474 144.6 56.5903 144.625C55.0031 144.874 53.4168 144.999 51.8704 144.999Z" fill="#F07800"/>
<path d="M73.5193 122.171L73.4838 122.172C71.9741 122.149 70.4036 121.571 69.5295 120.344C68.6072 119.044 68.6585 117.168 69.5424 115.839C69.7969 115.46 70.1097 115.121 70.467 114.835C71.7089 117.097 72.7835 119.541 73.5193 122.171Z" fill="#F49004"/>
<path d="M70.3327 115.643C70.1956 115.792 70.0702 115.95 69.9584 116.118C69.1697 117.303 69.161 118.959 69.938 120.053C70.5389 120.898 71.5946 121.462 72.8366 121.623C72.2303 119.64 71.4065 117.672 70.3327 115.643ZM73.4828 122.673H73.4749C71.6369 122.645 70.0094 121.883 69.1202 120.635C68.0951 119.191 68.097 117.105 69.1236 115.562C69.4069 115.139 69.7525 114.764 70.1525 114.444C70.2681 114.351 70.42 114.316 70.5639 114.344C70.7093 114.373 70.8339 114.464 70.9057 114.594C72.2957 117.127 73.3083 119.561 74.0007 122.036C74.0384 122.17 74.0184 122.314 73.9455 122.433C73.8726 122.552 73.7533 122.635 73.6165 122.663C73.5795 122.67 73.5259 122.673 73.4828 122.673Z" fill="#F07800"/>
<path d="M74.0818 130.762C73.0605 135.584 69.5814 139.137 65.0892 141.427C64.6469 138.787 65.2993 135.947 67.0307 133.902C68.7587 131.868 71.4273 130.769 74.0818 130.762Z" fill="#F49004"/>
<path d="M73.4413 131.287C71.0716 131.458 68.8533 132.53 67.4119 134.226C65.9743 135.924 65.2786 138.282 65.4931 140.645C68.5858 138.946 72.1941 136.019 73.4413 131.287ZM65.089 141.928C65.0115 141.928 64.9341 141.91 64.8635 141.874C64.7211 141.802 64.6214 141.667 64.5945 141.509C64.1122 138.631 64.8801 135.666 66.6474 133.578C68.4057 131.509 71.1838 130.268 74.0797 130.261C74.2115 130.269 74.3743 130.328 74.4702 130.446C74.5658 130.563 74.6028 130.718 74.5715 130.866C73.5943 135.479 70.394 139.286 65.3164 141.873C65.2453 141.91 65.1664 141.928 65.089 141.928Z" fill="#F07800"/>
<path d="M74.1777 130.275C74.1754 130.275 74.1728 130.274 74.1705 130.274C74.3749 129.12 74.4406 127.903 74.3533 126.624C74.4406 127.876 74.3839 129.096 74.1777 130.275ZM70.2261 114.395C70.1112 114.19 69.9957 113.988 69.8789 113.787C69.8801 113.786 69.8812 113.784 69.8823 113.783C69.9994 113.985 70.1154 114.188 70.2302 114.393C70.2287 114.393 70.2276 114.394 70.2261 114.395ZM59.7785 99.1341C59.7169 99.0159 59.6561 98.8969 59.5957 98.7764C59.6425 98.8689 59.6894 98.9603 59.737 99.0513C59.7506 99.0785 59.7645 99.1065 59.7785 99.1341Z" fill="white"/>
<path d="M69.344 112.886C68.9983 112.319 68.6444 111.761 68.2871 111.217C68.2879 111.217 68.2882 111.216 68.289 111.216C68.6471 111.76 69.001 112.316 69.347 112.883C69.3458 112.884 69.3451 112.885 69.344 112.886Z" fill="#F8B455"/>
<path d="M69.8793 113.787C69.703 113.483 69.5247 113.183 69.3438 112.886C69.3449 112.885 69.3456 112.884 69.3468 112.883C69.5277 113.18 69.7064 113.479 69.8827 113.783C69.8816 113.784 69.8805 113.785 69.8793 113.787Z" fill="#D98A60"/>
<path d="M72.7421 130.352C72.7659 129.171 72.6538 127.969 72.4192 126.756C72.1136 125.178 71.6762 123.66 71.1425 122.2C71.8428 122.494 72.6371 122.66 73.4749 122.673H73.4828C73.5259 122.673 73.5795 122.67 73.6165 122.663C73.629 122.66 73.6419 122.657 73.6543 122.653C73.8099 123.248 73.9482 123.852 74.0672 124.466C74.208 125.194 74.304 125.914 74.3535 126.624C74.4407 127.903 74.375 129.12 74.1707 130.274C74.1397 130.267 74.1087 130.263 74.0796 130.261C73.6298 130.262 73.1829 130.293 72.7421 130.352ZM68.5801 116.691C67.4636 114.699 66.2285 112.845 64.9994 111.126C65.7212 111.254 66.4785 111.319 67.2634 111.319C67.5187 111.319 67.7767 111.313 68.0381 111.299C68.128 111.294 68.2134 111.265 68.2866 111.217C68.644 111.761 68.9979 112.319 69.3435 112.886C69.5244 113.183 69.7027 113.483 69.8791 113.787C69.9958 113.988 70.1114 114.19 70.2262 114.395C70.2001 114.409 70.1756 114.425 70.1525 114.444C69.7525 114.763 69.4069 115.139 69.1237 115.562C68.8887 115.915 68.7074 116.296 68.5801 116.691ZM58.3834 101.896C57.1501 99.6704 56.1439 96.901 55.3145 93.9979C55.6774 94.0814 56.0567 94.1237 56.4434 94.1237C56.8291 94.1237 57.2223 94.0814 57.6128 93.9956C57.6287 93.9922 57.6442 93.9881 57.6597 93.9832C58.2315 95.718 58.8736 97.3497 59.5958 98.7764C59.6563 98.8968 59.7171 99.0158 59.7786 99.1341C59.8395 99.2534 59.9029 99.3739 59.9694 99.4959C59.9226 99.5227 59.8803 99.5575 59.844 99.5994C59.2011 100.334 58.7105 101.108 58.3834 101.896Z" fill="#FFD486"/>
<path d="M56.4357 93.1226C55.9254 93.1226 55.4351 93.0308 54.9978 92.8529C54.4614 90.8476 54.0047 88.8049 53.6123 86.8563C53.6848 86.7324 53.7623 86.61 53.845 86.4892C54.0928 86.3192 54.3356 86.1417 54.5732 85.9558C54.7209 85.9218 54.8682 85.8867 55.0144 85.8504C55.601 88.6108 56.2068 90.9994 56.8538 93.1025C56.7133 93.1157 56.574 93.1226 56.4357 93.1226Z" fill="#F8B455"/>
<path d="M56.4435 94.1235C56.0568 94.1235 55.6775 94.0812 55.3146 93.9978C55.2062 93.6182 55.1004 93.2359 54.998 92.8525C55.4354 93.0304 55.9257 93.1222 56.436 93.1222C56.5742 93.1222 56.7136 93.1154 56.8541 93.1022C56.2071 90.9991 55.6012 88.6104 55.0147 85.8501C55.1782 85.8097 55.3406 85.7678 55.5019 85.7247C56.084 88.4782 56.7914 91.3496 57.6598 93.983C57.6443 93.9879 57.6288 93.9921 57.613 93.9955C57.2224 94.0812 56.8292 94.1235 56.4435 94.1235ZM53.6126 86.856C53.6001 86.7933 53.5877 86.7317 53.5752 86.6694C53.6658 86.6105 53.7561 86.55 53.8453 86.4888C53.7625 86.6097 53.6851 86.7321 53.6126 86.856Z" fill="#F5A352"/>
<path d="M67.08 110.316C66.2018 110.303 65.3648 110.203 64.5826 110.015C64.419 109.976 64.2581 109.933 64.0998 109.887C62.161 107.258 60.3148 104.974 59.0615 103.027C59.2568 102.282 59.6304 101.525 60.1603 100.805C61.0305 102.188 62.1765 103.697 63.4879 105.423C64.612 106.903 65.8683 108.557 67.08 110.316Z" fill="#F8B455"/>
<path d="M67.2638 111.319C66.4789 111.319 65.7216 111.254 64.9998 111.126C64.6988 110.704 64.3981 110.292 64.0997 109.887C64.258 109.933 64.4189 109.976 64.5824 110.015C65.3647 110.203 66.2017 110.303 67.0799 110.316C65.8682 108.557 64.6119 106.902 63.4878 105.423C62.1764 103.697 61.0304 102.188 60.1602 100.805C59.6302 101.524 59.2567 102.282 59.0614 103.027C58.947 102.849 58.8374 102.674 58.7332 102.502C58.6146 102.304 58.4982 102.103 58.3838 101.896C58.7109 101.108 59.2015 100.334 59.8444 99.5993C59.8807 99.5573 59.923 99.5226 59.9698 99.4958C61.6453 102.571 65.1396 106.434 68.2889 111.216C68.2882 111.216 68.2878 111.217 68.2871 111.217C68.2138 111.265 68.1284 111.294 68.0385 111.299C67.7771 111.313 67.5192 111.319 67.2638 111.319Z" fill="#F5A352"/>
<path d="M72.8361 121.623C71.9458 121.507 71.1515 121.184 70.5517 120.7C70.1838 119.827 69.7845 118.977 69.3604 118.148C69.3588 117.44 69.5579 116.718 69.9579 116.118C70.0697 115.95 70.1951 115.791 70.3322 115.643C71.4061 117.672 72.2298 119.64 72.8361 121.623Z" fill="#F8B455"/>
<path d="M73.4828 122.673H73.4749C72.6371 122.66 71.8428 122.495 71.1425 122.2C70.957 121.693 70.7595 121.193 70.5521 120.7C71.1519 121.185 71.9463 121.507 72.8365 121.623C72.2303 119.64 71.4065 117.672 70.3327 115.643C70.1956 115.792 70.0702 115.95 69.9584 116.118C69.5584 116.719 69.3593 117.44 69.3608 118.148C69.1089 117.655 68.8475 117.168 68.5801 116.691C68.7074 116.296 68.8887 115.915 69.1236 115.562C69.4069 115.139 69.7525 114.764 70.1525 114.444C70.1755 114.425 70.2001 114.409 70.2262 114.395C70.2277 114.394 70.2288 114.393 70.2303 114.393C71.6464 116.916 72.8713 119.665 73.6543 122.654C73.6418 122.657 73.629 122.66 73.6165 122.663C73.5795 122.67 73.5259 122.673 73.4828 122.673Z" fill="#F5A352"/>
<path d="M71.9453 134.778C72.3404 133.673 72.5829 132.534 72.6864 131.372C72.9357 131.334 73.1872 131.305 73.4411 131.287C73.0996 132.582 72.5814 133.742 71.9453 134.778Z" fill="#F8B455"/>
<path d="M70.9062 137.015C71.3285 136.288 71.6738 135.541 71.9461 134.778C72.5822 133.742 73.1004 132.582 73.4418 131.287C73.188 131.305 72.9365 131.333 72.6872 131.372C72.7174 131.034 72.7355 130.694 72.7427 130.352C73.1835 130.292 73.6303 130.262 74.0802 130.26C74.1093 130.262 74.1402 130.267 74.1712 130.274C74.1735 130.274 74.1761 130.275 74.1784 130.275C73.7501 132.723 72.6766 134.995 70.9062 137.015Z" fill="#F5A352"/>
<path d="M38.8076 88.4312C38.8069 88.4308 38.8057 88.4304 38.805 88.43C38.6271 87.1454 38.4379 85.9167 38.2539 84.7855C38.2543 84.7855 38.2547 84.7859 38.255 84.7859C38.445 85.9447 38.6343 87.17 38.8076 88.4312Z" fill="#EA9253"/>
<path d="M44.3722 89.2891C42.4817 89.2891 40.5916 89.0001 38.8085 88.4309C38.6351 87.1697 38.4458 85.9444 38.2559 84.7856C41.4853 86.1238 44.8742 86.6877 48.1319 86.6877C49.7206 86.6877 51.2787 86.5537 52.7714 86.3097C52.5799 86.6326 52.4186 86.965 52.2875 87.3061C52.269 87.3533 52.2516 87.4013 52.2343 87.4492C49.8331 88.6851 47.103 89.2891 44.3722 89.2891Z" fill="#EA7D1A"/>
<path d="M52.2334 87.4497C52.2508 87.4017 52.2681 87.3538 52.2867 87.3066C52.4177 86.9655 52.579 86.6331 52.7705 86.3101C53.0085 86.2712 53.2449 86.2297 53.4791 86.1851C53.5108 86.3457 53.5429 86.5077 53.575 86.6697C53.1418 86.953 52.6935 87.2133 52.2334 87.4497Z" fill="#E56601"/>
<path d="M53.8447 86.4888C53.9478 86.3381 54.0593 86.1892 54.1782 86.0434C54.3104 86.0147 54.4419 85.9857 54.573 85.9554C54.3354 86.1413 54.0925 86.3188 53.8447 86.4888Z" fill="#E87A1D"/>
<path d="M53.5754 86.6694C53.5433 86.5074 53.5112 86.3454 53.4795 86.1848C53.7148 86.1403 53.9479 86.093 54.179 86.0436C54.06 86.1893 53.9486 86.3382 53.8455 86.4889C53.7564 86.5501 53.6661 86.6105 53.5754 86.6694Z" fill="#E7741C"/>
<path d="M47.0565 143.545L47.0965 143.552C54.7267 145.061 61.7106 142.457 64.0524 141.375C69.5198 138.844 72.9532 134.798 73.7192 129.984C74.7825 123.334 70.3111 115.583 69.9074 114.855C67.9497 111.302 65.5897 108.192 63.487 105.424C61.4896 102.794 60.1552 101.013 59.2891 99.2756C58.4974 97.7629 57.7355 95.8705 57.0281 93.6602C55.3548 88.4009 54.307 82.3163 53.9505 80.2763L38.4567 82.9618C39.1419 86.9633 39.4837 89.5393 39.7405 92.0175C40.2504 97.1276 40.2051 101.047 39.6012 104C39.2521 105.77 38.2693 108.801 37.9585 109.783C37.053 112.65 36.0263 115.877 35.3435 119.345C34.6345 122.888 34.2398 127.099 34.8802 131.269C36.406 141.24 44.8521 143.1 47.0565 143.545ZM46.9386 144.542L46.8959 144.535C41.0316 143.362 35.1592 139.725 33.8894 131.42C33.2316 127.135 33.6256 122.818 34.3603 119.149C35.0535 115.629 36.0865 112.381 37.0027 109.48C37.359 108.356 38.2716 105.535 38.6191 103.801C39.1947 100.985 39.2363 97.055 38.7434 92.118C38.4763 89.542 38.1179 86.8742 37.384 82.6381C37.3371 82.3654 37.5196 82.1059 37.7923 82.0587L54.2734 79.202C54.4045 79.1794 54.5393 79.2092 54.6477 79.2863C54.7565 79.3626 54.8302 79.4797 54.8528 79.6104C55.2147 81.7018 56.2761 87.9892 57.9833 93.3554C58.673 95.5102 59.4126 97.3493 60.1824 98.8193C61.0114 100.479 62.2983 102.201 64.2858 104.818C66.4245 107.633 68.7991 110.768 70.7855 114.37C73.3226 118.947 75.5368 124.97 74.7096 130.142C73.8892 135.296 70.2541 139.608 64.4739 142.285C62.0249 143.416 54.8389 146.091 46.9386 144.542Z" fill="#C75314"/>
<path d="M0.704356 25.0713C1.14315 26.473 2.22392 27.5866 3.3876 28.4874C4.63803 29.4509 6.00237 30.215 7.44168 30.8258L7.4492 30.8341C10.2204 32.0296 13.267 32.6687 16.274 33.0841C18.7061 33.4286 21.2571 33.6281 23.5885 32.9206C23.848 32.8439 24.0938 32.7559 24.3464 32.6555L24.0413 30.9633C22.1055 26.0051 18.306 21.7992 13.5719 19.3687C11.7929 18.4557 9.85312 17.7781 7.85361 17.7139C5.85438 17.6497 3.78391 18.2487 2.31938 19.6104C0.856919 20.9766 0.109017 23.156 0.704356 25.0713Z" fill="#F49004"/>
<path d="M7.70944 30.4003C10.0508 31.402 12.7963 32.0973 16.3429 32.588C18.6854 32.92 21.1659 33.1315 23.443 32.4411C23.5544 32.4082 23.665 32.3731 23.7793 32.333L23.5572 31.1009C21.6655 26.2896 17.9452 22.1778 13.343 19.8149C11.3532 18.7935 9.55227 18.2704 7.83828 18.2153C5.82915 18.1522 3.93631 18.7928 2.66123 19.978C1.26369 21.283 0.669533 23.2706 1.18284 24.9227C1.52366 26.0109 2.34549 27.0473 3.69478 28.0917C4.8381 28.9733 6.15863 29.7355 7.618 30.3564L7.70944 30.4003ZM20.0229 33.896C18.7065 33.896 17.4046 33.7506 16.2037 33.5806C12.5358 33.0737 9.6907 32.347 7.25075 31.2943L7.19526 31.2664C5.66979 30.6137 4.28585 29.8129 3.08173 28.8845C1.56365 27.7102 0.629548 26.5117 0.225866 25.2214L0.225423 25.2203C-0.39972 23.2086 0.304359 20.8067 1.97795 19.2441C3.44646 17.8798 5.60622 17.1403 7.87073 17.2135C9.73655 17.2732 11.6766 17.8322 13.8015 18.9223C18.6326 21.4035 22.5354 25.7257 24.509 30.7814L24.5354 30.8743L24.8402 32.5661C24.8821 32.8006 24.7541 33.0325 24.5329 33.1205C24.2424 33.2365 23.9873 33.3257 23.7301 33.4012C22.5304 33.7657 21.2701 33.896 20.0229 33.896Z" fill="#F07800"/>
<path d="M5.91268 29.6251C6.37349 30.0904 6.89473 30.4749 7.44215 30.8258L7.44967 30.8341C10.221 32.0296 13.2675 32.6687 16.2744 33.0841C18.7065 33.4286 21.2576 33.6281 23.5891 32.9206C21.0208 29.1152 17.2434 26.1365 12.9381 24.5252C11.3994 23.9492 9.73895 23.5446 8.12041 23.8332C6.87407 24.0542 5.39495 24.887 4.75461 26.0315C4.08315 27.2273 5.03642 28.7439 5.91268 29.6251Z" fill="#FFBF4D"/>
<path d="M7.71002 30.4003C10.0505 31.402 12.7969 32.0973 16.3435 32.588C18.4555 32.8875 20.6799 33.0892 22.7668 32.6193C20.2727 29.1787 16.7449 26.4849 12.7627 24.9948C10.9354 24.3104 9.48765 24.0981 8.20887 24.3266C7.14598 24.5147 5.76926 25.2449 5.19249 26.2764C4.68522 27.1791 5.45526 28.4543 6.26825 29.272L6.26942 29.2724C6.64374 29.6509 7.09314 30.0041 7.68154 30.384L7.71002 30.4003ZM20.0218 33.896C18.7056 33.896 17.4044 33.7506 16.2043 33.5806C12.5364 33.0737 9.69128 32.347 7.25148 31.2943C7.21133 31.2766 7.17371 31.2543 7.13918 31.2278C6.48763 30.8074 5.98467 30.4097 5.55736 29.9787C4.44726 28.8622 3.53867 27.1742 4.31816 25.7865C5.0808 24.4226 6.77888 23.5622 8.03346 23.3401C9.49797 23.076 11.1124 23.3068 13.1144 24.0562C17.512 25.7019 21.3794 28.7504 24.005 32.6405C24.0941 32.7727 24.1153 32.9385 24.0616 33.0888C24.0083 33.2388 23.8868 33.354 23.7345 33.4008C22.5325 33.765 21.2707 33.896 20.0218 33.896Z" fill="#F07800"/>
<path d="M7.70944 30.4003C10.0508 31.402 12.7963 32.0973 16.3429 32.588C18.6854 32.92 21.1659 33.1315 23.443 32.4411C23.5544 32.4082 23.665 32.3731 23.7793 32.333L23.5572 31.1009C21.6655 26.2896 17.9452 22.1778 13.343 19.8149C11.3532 18.7935 9.55227 18.2704 7.83828 18.2153C5.82915 18.1522 3.93631 18.7928 2.66123 19.978C1.26369 21.283 0.669533 23.2706 1.18284 24.9227C1.52366 26.0109 2.34549 27.0473 3.69478 28.0917C4.8381 28.9733 6.15863 29.7355 7.618 30.3564L7.70944 30.4003ZM20.0229 33.896C18.7065 33.896 17.4046 33.7506 16.2037 33.5806C12.5358 33.0737 9.6907 32.347 7.25075 31.2943L7.19526 31.2664C5.66979 30.6137 4.28585 29.8129 3.08173 28.8845C1.56365 27.7102 0.629548 26.5117 0.225866 25.2214L0.225423 25.2203C-0.39972 23.2086 0.304359 20.8067 1.97795 19.2441C3.44646 17.8798 5.60622 17.1403 7.87073 17.2135C9.73655 17.2732 11.6766 17.8322 13.8015 18.9223C18.6326 21.4035 22.5354 25.7257 24.509 30.7814L24.5354 30.8743L24.8402 32.5661C24.8821 32.8006 24.7541 33.0325 24.5329 33.1205C24.2424 33.2365 23.9873 33.3257 23.7301 33.4012C22.5304 33.7657 21.2701 33.896 20.0229 33.896Z" fill="#C75314"/>
<path d="M47.7131 21.7805C46.8594 21.9478 46.0258 21.376 45.8487 20.4989C45.0045 16.3207 44.5724 12.0427 44.5645 7.78397C44.5629 6.88691 45.2708 6.1666 46.1463 6.17264C47.0215 6.1802 47.7323 6.91334 47.7342 7.81079C47.7414 11.8501 48.1512 15.9078 48.952 19.8708C49.1299 20.7512 48.5792 21.6052 47.7221 21.779L47.7131 21.7805Z" fill="#9E3F10"/>
<path d="M46.1339 6.67359C45.8555 6.67359 45.5919 6.78277 45.3924 6.98107C45.1809 7.19146 45.0646 7.47663 45.065 7.7822C45.0729 12.0073 45.5012 16.252 46.339 20.3986C46.4614 21.0029 47.0332 21.4021 47.6157 21.2881L47.6221 21.287C48.2162 21.154 48.5815 20.57 48.4602 19.9691C47.653 15.9748 47.2398 11.8842 47.2319 7.81089C47.2308 7.1888 46.742 6.67813 46.1414 6.67322L46.1339 6.67359ZM47.4166 22.3105C46.4421 22.3105 45.5609 21.6073 45.3562 20.5976C44.5056 16.3861 44.0704 12.0753 44.0625 7.78482C44.0614 7.20918 44.2827 6.67132 44.6857 6.27057C45.0744 5.88379 45.5885 5.6715 46.1343 5.6715H46.1494C47.2976 5.68132 48.2328 6.64035 48.2347 7.80975C48.2427 11.8173 48.6487 15.8414 49.4434 19.7712C49.6753 20.9217 48.9475 22.042 47.8211 22.2701L47.809 22.2724C47.6772 22.2977 47.5462 22.3105 47.4166 22.3105Z" fill="#6B240A"/>
<path d="M49.7998 3.48696C50.4487 5.69092 49.1886 8.00331 46.9847 8.6526C44.7807 9.30189 42.4684 8.04145 41.8191 5.83749C41.1698 3.63391 42.4302 1.32118 44.6342 0.671893C46.8381 0.0229818 49.1509 1.28338 49.7998 3.48696Z" fill="#9E3F10"/>
<path d="M45.8071 1.00382C45.4661 1.00382 45.1189 1.0518 44.7752 1.15303C42.8402 1.72337 41.7293 3.76114 42.2993 5.69654C42.5754 6.63402 43.2002 7.40721 44.0579 7.87444C44.9172 8.34318 45.9057 8.44856 46.8428 8.17207C48.7775 7.60173 49.8879 5.56395 49.3184 3.62893C48.8492 2.03762 47.3879 1.00382 45.8071 1.00382ZM45.8109 9.32373C43.7969 9.32373 41.9352 8.00702 41.3377 5.97946C40.9856 4.7855 41.1205 3.52546 41.7161 2.43198C42.3118 1.33887 43.2976 0.54302 44.4919 0.191369C46.9561 -0.537618 49.5533 0.879932 50.2793 3.34564C51.0056 5.81098 49.5907 8.40703 47.1254 9.13299C46.6883 9.26255 46.2457 9.32373 45.8109 9.32373Z" fill="#6B240A"/>
<path d="M29.5288 27.1363C30.3371 26.8137 30.7273 25.8815 30.4008 25.0483C28.8456 21.0797 26.8897 17.2504 24.588 13.6671C24.1029 12.9124 23.1174 12.691 22.385 13.1707C21.6538 13.6512 21.4536 14.6529 21.9385 15.4079C24.1221 18.8066 25.977 22.4383 27.4521 26.2026C27.78 27.0389 28.7054 27.4581 29.5197 27.1393L29.5288 27.1363Z" fill="#9E3F10"/>
<path d="M29.3425 26.6702C28.7859 26.8885 28.1449 26.5973 27.9183 26.019C26.4305 22.2234 24.5604 18.5618 22.3599 15.1367C22.0238 14.6128 22.1578 13.919 22.6591 13.59C22.8955 13.4359 23.1795 13.3815 23.456 13.4419C23.7484 13.5043 23.9998 13.6799 24.1654 13.9379C26.4497 17.4925 28.39 21.2923 29.9338 25.2308C30.1582 25.8049 29.8934 26.4504 29.3425 26.6702ZM30.8664 24.8647C29.2998 20.8651 27.3287 17.0068 25.0084 13.3955C24.6976 12.9112 24.2206 12.5796 23.6648 12.461C23.123 12.3458 22.5706 12.4485 22.1091 12.7511C21.15 13.3807 20.8837 14.6941 21.5164 15.6784C23.6816 19.0476 25.5209 22.6498 26.9852 26.3847C27.3147 27.2258 28.1132 27.7437 28.9585 27.7437C29.2036 27.7437 29.4534 27.6995 29.6966 27.6077L29.7136 27.6009C30.7749 27.1782 31.2924 25.951 30.8664 24.8647Z" fill="#6B240A"/>
<path d="M17.8592 12.8948C18.508 15.098 20.8208 16.3588 23.0246 15.7099C25.2282 15.0606 26.4887 12.7482 25.8398 10.5443C25.1905 8.34033 22.8782 7.0803 20.6741 7.72922C18.4703 8.37813 17.2098 10.6912 17.8592 12.8948Z" fill="#9E3F10"/>
<path d="M21.8471 8.06083C21.5054 8.06083 21.1587 8.10881 20.8149 8.21004C19.8774 8.48614 19.1043 9.1109 18.6365 9.96869C18.169 10.8269 18.0633 11.8161 18.3394 12.7535C18.9097 14.6886 20.9471 15.7983 22.8824 15.2291C24.8176 14.6587 25.9283 12.621 25.3585 10.6859C24.8893 9.09463 23.4275 8.06083 21.8471 8.06083ZM21.8507 16.3804C19.837 16.3804 17.9751 15.064 17.378 13.0365C16.6516 10.5711 18.0666 7.97434 20.5319 7.24838C21.7248 6.89597 22.986 7.03046 24.0795 7.62687C25.1726 8.22252 25.9683 9.20832 26.3201 10.4027C27.0464 12.868 25.631 15.464 23.1657 16.19C22.7277 16.3196 22.2856 16.3804 21.8507 16.3804Z" fill="#6B240A"/>
<path d="M70.3253 4.5657C70.7162 5.98175 70.4118 7.50317 69.9219 8.89089C69.3934 10.3791 68.661 11.76 67.7829 13.0533L67.781 13.0643C66.1002 15.5711 63.8864 17.7596 61.5846 19.7385C59.7278 21.346 57.6919 22.8969 55.3493 23.5658C55.0898 23.6421 54.8352 23.7014 54.5686 23.7539L53.9076 22.1667C52.8469 16.9505 53.7599 11.357 56.4205 6.74851C57.4207 5.01707 58.6834 3.39631 60.3287 2.25826C61.974 1.12059 64.0386 0.501866 66.0072 0.852384C67.9778 1.20743 69.7878 2.63332 70.3253 4.5657Z" fill="#F49004"/>
<path d="M54.3891 22.0197L54.8703 23.1755C54.9866 23.1472 55.0981 23.1173 55.2076 23.0852C57.4966 22.4318 59.4675 20.9084 61.2563 19.3598C63.969 17.0267 65.8992 14.9553 67.3243 12.8439L67.3824 12.7506C68.2708 11.4381 68.9666 10.0835 69.4493 8.72302C70.017 7.11547 70.1454 5.79879 69.8417 4.69927C69.3775 3.0328 67.8009 1.68549 65.9184 1.34555C64.2047 1.04112 62.2716 1.52384 60.6142 2.67057C59.2031 3.64621 57.9732 5.06224 56.8548 6.99915C54.2675 11.4788 53.3704 16.9504 54.3891 22.0197ZM54.5681 24.2554C54.3691 24.2554 54.1844 24.1364 54.1054 23.9472L53.4444 22.36L53.4161 22.2675C52.3343 16.9485 53.2711 11.2008 55.9861 6.49868C57.1804 4.4307 58.5077 2.90851 60.0435 1.84676C61.9166 0.550826 64.1235 0.008434 66.0948 0.35933C68.3494 0.766127 70.2429 2.4024 70.8079 4.43148V4.43258C71.1683 5.73645 71.0327 7.24959 70.3943 9.05846C69.8855 10.4911 69.1573 11.9136 68.2289 13.2889L68.1964 13.3444C66.7158 15.5529 64.7184 17.7058 61.9113 20.1194C60.1262 21.6646 57.9657 23.3409 55.4867 24.0491C55.2325 24.1236 54.9704 24.1866 54.6648 24.247L54.5681 24.2554Z" fill="#F07800"/>
<path d="M68.4164 11.2155C68.2812 11.8561 68.0519 12.4616 67.7822 13.0534L67.7803 13.0644C66.0995 15.5713 63.8857 17.7597 61.5839 19.7386C59.7271 21.3461 57.6912 22.897 55.3486 23.5659C55.4442 18.9759 57.0038 14.4253 59.7482 10.7376C60.7292 9.41943 61.9054 8.17939 63.4219 7.54446C64.589 7.05456 66.2834 6.95259 67.4419 7.56751C68.6543 8.20849 68.6751 9.99999 68.4164 11.2155Z" fill="#FFBF4D"/>
<path d="M65.5189 7.64254C64.8338 7.64254 64.1459 7.78455 63.6156 8.00664C62.416 8.509 61.315 9.47178 60.1501 11.0366C57.6119 14.4482 56.1078 18.6234 55.8767 22.867C57.8827 22.1312 59.6432 20.7556 61.2564 19.3596C63.9692 17.0264 65.8993 14.9551 67.3244 12.8437L67.3433 12.8085C67.6307 12.1736 67.8162 11.6331 67.9265 11.1118V11.1107C68.1667 9.98245 68.1221 8.49313 67.2077 8.01004C66.7197 7.75168 66.1206 7.64254 65.5189 7.64254ZM55.349 24.0674C55.2395 24.0674 55.1314 24.0315 55.0431 23.9631C54.9165 23.8664 54.8444 23.715 54.8478 23.556C54.9456 18.8636 56.5429 14.2053 59.3463 10.4387C60.6226 8.72353 61.8562 7.6569 63.2285 7.08202C64.4028 6.58948 66.2959 6.39117 67.6764 7.12507C69.0827 7.86765 69.2345 9.77813 68.907 11.3188C68.7816 11.9141 68.5739 12.5199 68.2555 13.224C68.2411 13.2655 68.2218 13.3063 68.1962 13.3434C66.7155 15.5518 64.7182 17.7048 61.911 20.1184C60.1259 21.6636 57.9654 23.3399 55.4865 24.0481C55.4415 24.061 55.3951 24.0674 55.349 24.0674Z" fill="#F07800"/>
<path d="M54.3891 22.0197L54.8703 23.1755C54.9866 23.1472 55.0981 23.1173 55.2076 23.0852C57.4966 22.4318 59.4675 20.9084 61.2563 19.3598C63.969 17.0267 65.8992 14.9553 67.3243 12.8439L67.3824 12.7506C68.2708 11.4381 68.9666 10.0835 69.4493 8.72302C70.017 7.11547 70.1454 5.79879 69.8417 4.69927C69.3775 3.0328 67.8009 1.68549 65.9184 1.34555C64.2047 1.04112 62.2716 1.52384 60.6142 2.67057C59.2031 3.64621 57.9732 5.06224 56.8548 6.99915C54.2675 11.4788 53.3704 16.9504 54.3891 22.0197ZM54.5681 24.2554C54.3691 24.2554 54.1844 24.1364 54.1054 23.9472L53.4444 22.36L53.4161 22.2675C52.3343 16.9485 53.2711 11.2008 55.9861 6.49868C57.1804 4.4307 58.5077 2.90851 60.0435 1.84676C61.9166 0.550826 64.1235 0.008434 66.0948 0.35933C68.3494 0.766127 70.2429 2.4024 70.8079 4.43148V4.43258C71.1683 5.73645 71.0327 7.24959 70.3943 9.05846C69.8855 10.4911 69.1573 11.9136 68.2289 13.2889L68.1964 13.3444C66.7158 15.5529 64.7184 17.7058 61.9113 20.1194C60.1262 21.6646 57.9657 23.3409 55.4867 24.0491C55.2325 24.1236 54.9704 24.1866 54.6648 24.247L54.5681 24.2554Z" fill="#C75314"/>
<path d="M74.4579 59.9235C75.1853 73.3213 65.9793 82.1258 56.0406 85.0531C46.0969 87.9819 33.5919 85.5668 26.9372 73.92C24.7776 70.1353 23.2343 65.375 22.5968 59.5012C22.0075 54.0938 21.5349 49.5096 21.2591 45.593C20.8088 39.1678 20.8913 34.5506 21.8813 31.0817C23.4671 25.5198 27.3732 22.8853 35.1398 20.4249C35.6885 20.2481 36.2592 20.0747 36.8507 19.9006C43.1496 18.0453 47.5307 17.4134 51.2017 18.647C54.1395 19.6264 56.6222 21.8107 59.2655 25.5157C60.8557 27.7385 62.5085 30.5121 64.3442 33.9062C66.1134 37.1632 68.056 40.991 70.2951 45.4521C72.941 50.7295 74.226 55.5711 74.4579 59.9235Z" fill="#FFBF4D"/>
<path d="M46.895 36.7831C46.9573 37.5011 48.2095 37.9789 49.6916 37.8501C51.1738 37.7209 52.3246 37.0346 52.2619 36.3166C52.1996 35.5986 50.9475 35.1207 49.4654 35.2495C47.9832 35.3783 46.8323 36.065 46.895 36.7831Z" fill="#E06716"/>
<path d="M47.3932 36.7398C47.4182 37.0223 48.2914 37.468 49.6471 37.3506C50.2809 37.2954 50.8826 37.1217 51.298 36.8739C51.6319 36.6745 51.7713 36.472 51.7615 36.3598C51.7517 36.2473 51.5794 36.072 51.2161 35.9334C50.7636 35.7604 50.14 35.692 49.5077 35.7483C48.1528 35.8665 47.3687 36.4577 47.3932 36.7398ZM49.2036 38.373C47.6471 38.373 46.4758 37.7502 46.3949 36.8267V36.8263C46.3058 35.8004 47.607 34.9079 49.4212 34.7504C50.2106 34.682 50.9762 34.7689 51.5741 34.9978C52.2918 35.2713 52.7133 35.7245 52.7605 36.2741C52.8085 36.8229 52.4716 37.3419 51.8125 37.7351C51.2633 38.063 50.5252 38.2813 49.7347 38.35C49.553 38.3651 49.3759 38.373 49.2036 38.373Z" fill="#AD4A07"/>
<path d="M37.5565 39.5335C37.8935 40.1711 37.1003 41.251 35.7848 41.946C34.4696 42.641 33.13 42.6878 32.7933 42.0506C32.4563 41.4134 33.2494 40.3332 34.565 39.6382C35.8807 38.9428 37.2195 38.896 37.5565 39.5335Z" fill="#E06716"/>
<path d="M36.5188 39.5857L36.4459 39.5872C35.9617 39.6042 35.3622 39.784 34.7996 40.0812C33.5976 40.7169 33.105 41.5664 33.2373 41.8172C33.2901 41.9165 33.5087 42.0136 33.9054 41.9974C34.3887 41.9808 34.9891 41.8006 35.5514 41.5033C36.1134 41.2061 36.6003 40.8117 36.8867 40.4219C37.1167 40.1088 37.1665 39.8678 37.1137 39.7685V39.7681C37.0644 39.6748 36.8629 39.5857 36.5188 39.5857ZM33.8306 43.001C33.119 43.001 32.5955 42.749 32.3507 42.2848C31.8696 41.3749 32.7207 40.0465 34.3307 39.1951C35.0325 38.8242 35.7714 38.6078 36.4107 38.5851C37.1654 38.5617 37.7421 38.8118 37.9999 39.2994V39.2998C38.2578 39.7866 38.1491 40.3963 37.6949 41.015C37.3165 41.5305 36.7213 42.0185 36.0194 42.3891C35.318 42.76 34.5791 42.9764 33.9405 42.9991C33.903 43.0002 33.8669 43.001 33.8306 43.001Z" fill="#AD4A07"/>
<path d="M74.4581 59.9235C75.1856 73.3213 65.9796 82.1258 56.0408 85.0531C46.0972 87.9819 33.5922 85.5668 26.9375 73.92C30.4111 67.2794 38.1765 61.2666 48.1682 58.3239C58.1598 55.3811 67.9445 56.2249 74.4581 59.9235Z" fill="#FFD894"/>
<path d="M27.5105 73.91C34.5079 85.8846 47.1521 87.1481 55.8988 84.5724C64.6478 81.9957 74.588 74.0795 73.9709 60.2258C67.3121 56.5593 57.7466 56.0249 48.309 58.8048C38.8745 61.5844 31.1237 67.2184 27.5105 73.91ZM48.1311 86.688C40.348 86.688 31.8156 83.4684 26.5023 74.1691C26.4178 74.0206 26.4144 73.8397 26.4938 73.6878C30.1733 66.6545 38.2222 60.7312 48.0265 57.8435C57.8327 54.9544 67.8066 55.5693 74.7059 59.4885C74.8543 59.5727 74.9499 59.7264 74.9586 59.8968C75.7521 74.5045 65.3397 82.8376 56.1821 85.5341C53.7292 86.257 50.9798 86.688 48.1311 86.688Z" fill="#F49004"/>
<path d="M29.25 37.1526C27.6862 40.7851 24.7998 43.8298 21.2592 45.5938C20.8089 39.1685 20.8912 34.5513 21.8812 31.0824C22.107 30.9271 22.3408 30.7798 22.5819 30.6408C24.5679 29.5073 27.3552 29.1776 28.9433 30.8259C30.4953 32.4384 30.1334 35.0948 29.25 37.1526Z" fill="#F49004"/>
<path d="M22.3145 31.3941C21.4845 34.4276 21.2995 38.4793 21.7075 44.7897C24.8248 43.0428 27.3823 40.2232 28.7893 36.954C29.1768 36.0513 30.3077 32.9662 28.5824 31.1728C27.139 29.6748 24.5886 30.0721 22.8307 31.0757C22.6569 31.1758 22.4836 31.2827 22.3145 31.3941ZM21.2588 46.0947C21.1726 46.0947 21.0869 46.0728 21.0102 46.0286C20.8648 45.9455 20.7704 45.7956 20.759 45.6286C20.268 38.6266 20.4596 34.2349 21.3988 30.9443C21.4314 30.8321 21.5012 30.7346 21.5968 30.6689C21.8355 30.505 22.0828 30.349 22.3325 30.2059C24.4186 29.0149 27.489 28.593 29.3044 30.4782C30.7578 31.9887 30.9097 34.5571 29.7101 37.3499V37.3503C28.1107 41.0655 25.112 44.2337 21.4823 46.0422C21.4121 46.0773 21.3352 46.0947 21.2588 46.0947Z" fill="#F07800"/>
<path d="M51.2018 18.6475C51.2418 20.4333 50.8361 22.2143 49.9663 23.7667C48.4736 26.4167 45.5716 28.2747 42.531 28.2924C39.4934 28.3041 36.4789 26.3544 35.4489 23.4966C35.0979 22.518 35.0055 21.4588 35.1402 20.4262C35.6892 20.249 36.2597 20.0756 36.8511 19.9015C43.1497 18.0458 47.5308 17.4139 51.2018 18.6475Z" fill="#F49004"/>
<path d="M35.605 20.8036C35.5337 21.6799 35.6412 22.5456 35.9215 23.3263C36.8543 25.9163 39.6201 27.7905 42.504 27.7905H42.53C45.3304 27.7739 48.0787 26.0972 49.5306 23.5201C50.2811 22.1819 50.6837 20.631 50.7034 19.0144C47.4841 18.0436 43.5846 18.4402 36.9931 20.3817C36.5163 20.5214 36.0534 20.662 35.605 20.8036ZM42.5055 28.793C39.2122 28.793 36.0503 26.6408 34.9784 23.6655C34.6109 22.6419 34.4953 21.4997 34.6442 20.3609C34.669 20.1686 34.8028 20.0077 34.9867 19.9488C35.5395 19.7701 36.1143 19.5949 36.7101 19.42C42.5852 17.6889 47.3247 16.8157 51.3621 18.1717C51.5623 18.2393 51.699 18.4247 51.7039 18.6359C51.747 20.5596 51.2975 22.4183 50.4042 24.0111C48.7786 26.8976 45.69 28.7741 42.535 28.793H42.5055Z" fill="#F07800"/>
<path d="M35.605 20.8036C35.5337 21.6799 35.6412 22.5456 35.9215 23.3263C36.8543 25.9163 39.6201 27.7905 42.504 27.7905H42.53C45.3304 27.7739 48.0787 26.0972 49.5306 23.5201C50.2811 22.1819 50.6837 20.631 50.7034 19.0144C47.4841 18.0436 43.5846 18.4402 36.9931 20.3817C36.5163 20.5214 36.0534 20.662 35.605 20.8036ZM42.5055 28.793C39.2122 28.793 36.0503 26.6408 34.9784 23.6655C34.6109 22.6419 34.4953 21.4997 34.6442 20.3609C34.669 20.1686 34.8028 20.0077 34.9867 19.9488C35.5395 19.7701 36.1143 19.5949 36.7101 19.42C42.5852 17.6889 47.3247 16.8157 51.3621 18.1717C51.5623 18.2393 51.699 18.4247 51.7039 18.6359C51.747 20.5596 51.2975 22.4183 50.4042 24.0111C48.7786 26.8976 45.69 28.7741 42.535 28.793H42.5055Z" fill="#F07800"/>
<path d="M64.3448 33.907C62.8986 34.3018 61.3635 34.341 59.9819 33.8017C58.1798 33.0942 56.7622 31.2442 56.9586 29.3209C57.0844 28.0453 57.8568 26.9243 58.749 26.0136C58.9182 25.8436 59.0893 25.6782 59.2661 25.5165C60.8559 27.7394 62.5091 30.5129 64.3448 33.907Z" fill="#F49004"/>
<path d="M59.1908 26.2808L59.1035 26.3673C58.1079 27.3837 57.5534 28.3948 57.4567 29.3701C57.2943 30.9618 58.458 32.666 60.1641 33.3357C61.1741 33.7293 62.3477 33.8075 63.5896 33.5687C61.9277 30.5251 60.5135 28.1818 59.1908 26.2808ZM62.2197 34.7061C61.3615 34.7061 60.5456 34.5602 59.7989 34.269C57.6535 33.4271 56.2495 31.3244 56.4591 29.27C56.5781 28.0636 57.2278 26.8496 58.3896 25.6632C58.5672 25.4849 58.7436 25.3146 58.926 25.1473C59.0318 25.0506 59.1745 25.0011 59.3165 25.0184C59.4597 25.0332 59.5889 25.1084 59.6724 25.2251C61.1976 27.3569 62.8225 30.0405 64.7847 33.6689C64.8572 33.8033 64.8644 33.9642 64.8043 34.1047C64.7443 34.2452 64.623 34.351 64.4754 34.391C63.7048 34.6014 62.9468 34.7061 62.2197 34.7061Z" fill="#F07800"/>
<path d="M59.1908 26.2808L59.1035 26.3673C58.1079 27.3837 57.5534 28.3948 57.4567 29.3701C57.2943 30.9618 58.458 32.666 60.1641 33.3357C61.1741 33.7293 62.3477 33.8075 63.5896 33.5687C61.9277 30.5251 60.5135 28.1818 59.1908 26.2808ZM62.2197 34.7061C61.3615 34.7061 60.5456 34.5602 59.7989 34.269C57.6535 33.4271 56.2495 31.3244 56.4591 29.27C56.5781 28.0636 57.2278 26.8496 58.3896 25.6632C58.5672 25.4849 58.7436 25.3146 58.926 25.1473C59.0318 25.0506 59.1745 25.0011 59.3165 25.0184C59.4597 25.0332 59.5889 25.1084 59.6724 25.2251C61.1976 27.3569 62.8225 30.0405 64.7847 33.6689C64.8572 33.8033 64.8644 33.9642 64.8043 34.1047C64.7443 34.2452 64.623 34.351 64.4754 34.391C63.7048 34.6014 62.9468 34.7061 62.2197 34.7061Z" fill="#F07800"/>
<path d="M69.4147 43.7002C67.638 40.172 66.05 37.0657 64.583 34.3469C64.5883 34.3442 64.5936 34.3412 64.5989 34.3382C66.0629 37.069 67.6436 40.1788 69.4147 43.7002Z" fill="white"/>
<path d="M74.4183 59.3281C73.5662 58.8609 72.6703 58.4435 71.7339 58.0753C71.0034 54.9746 69.8317 51.9189 68.3655 48.9946C66.3904 45.0589 63.5681 39.3724 60.8018 34.5645C61.2577 34.6585 61.7321 34.7058 62.2201 34.7058C62.9472 34.7058 63.7052 34.6011 64.4758 34.3908C64.5135 34.3802 64.5498 34.3658 64.5834 34.3473C66.0505 37.0661 67.6384 40.1724 69.4151 43.7006C69.7029 44.2732 69.9968 44.8587 70.2952 45.4528C72.5407 49.9306 74.0572 54.6517 74.4183 59.3281Z" fill="#FFD486"/>
<path d="M71.543 72.0469C72.8136 67.872 72.8366 63.5359 71.9913 59.2628C72.6761 59.5551 73.3367 59.8762 73.9713 60.2256C74.1753 64.8084 73.2242 68.7419 71.543 72.0469Z" fill="#FFE5B6"/>
<path d="M70.6094 74.5703C70.9739 73.7371 71.2836 72.8955 71.5419 72.0472C73.2231 68.7422 74.1742 64.8087 73.9703 60.2259C73.3357 59.8765 72.6751 59.5554 71.9903 59.2631C71.9121 58.8669 71.826 58.4707 71.7331 58.0752C72.6694 58.4435 73.5654 58.8608 74.4175 59.3281C74.825 64.6059 73.7603 69.8259 70.6094 74.5703Z" fill="#F8B455"/>
<path d="M22.1689 30.1772C22.2964 29.8165 22.435 29.4694 22.5856 29.1344C22.4354 29.4691 22.297 29.8158 22.17 30.1757C22.1697 30.1761 22.1692 30.1769 22.1689 30.1772ZM22.5943 29.1151C22.5945 29.1148 22.5945 29.1148 22.5946 29.1144L22.5943 29.1151Z" fill="#F8B455"/>
<path d="M22.1699 30.1758C22.297 29.8158 22.4354 29.4691 22.5856 29.1345C22.5884 29.128 22.5914 29.1212 22.5943 29.1152L22.5946 29.1144C24.4654 24.9686 28.1539 22.6952 34.6169 20.594C34.5926 20.841 34.5803 21.088 34.5806 21.3335C34.5812 22.0621 34.6901 22.7779 34.9042 23.448C30.308 24.8017 25.0268 26.5966 22.1699 30.1758Z" fill="#FFD486"/>
<path d="M58.9726 25.1094C58.4793 24.4355 57.9906 23.8157 57.5029 23.2457C57.5075 23.2435 57.5124 23.2409 57.5169 23.2386C58.0094 23.807 58.5005 24.425 58.9945 25.0943C58.987 25.0992 58.9798 25.1041 58.9726 25.1094Z" fill="white"/>
<path d="M56.8101 22.4727C56.534 22.1773 56.2571 21.8978 55.9795 21.6341V21.6338C56.2609 21.897 56.54 22.1746 56.8188 22.4685C56.8158 22.47 56.8131 22.4711 56.8101 22.4727Z" fill="#FFD486"/>
<path d="M56.8105 22.4727H56.8101C56.8131 22.4711 56.8158 22.47 56.8188 22.4685V22.4689C56.8158 22.47 56.8131 22.4715 56.8105 22.4727ZM55.9795 21.6341C55.9738 21.6288 55.9682 21.6236 55.9629 21.6183C55.9682 21.6232 55.9742 21.6288 55.9795 21.6338V21.6341Z" fill="#F5A352"/>
<path d="M57.5031 23.2461C57.2723 22.9772 57.0419 22.7192 56.8115 22.4726C56.8142 22.4714 56.8168 22.4699 56.8198 22.4688C57.0525 22.7139 57.2856 22.9715 57.5171 23.2389C57.5126 23.2412 57.5077 23.2438 57.5031 23.2461Z" fill="#D98A60"/>
<path d="M56.7033 28.1978C54.8011 25.6848 52.9575 23.9587 50.9375 22.8996C51.4436 21.6531 51.7061 20.288 51.7058 18.8837C51.7058 18.8765 51.7058 18.869 51.7054 18.8618C53.2204 19.451 54.6123 20.3587 55.9626 21.618C55.9679 21.6233 55.9735 21.6286 55.9792 21.6338C56.2568 21.8975 56.5337 22.177 56.8098 22.4724H56.8102C57.0406 22.719 57.271 22.977 57.5018 23.2459C57.9894 23.8159 58.4782 24.4357 58.9715 25.1095C58.9556 25.1209 58.9401 25.1333 58.9258 25.1469C58.7433 25.3143 58.5669 25.4846 58.3894 25.6629C57.5713 26.4984 57.0074 27.3475 56.7033 28.1978Z" fill="#FFD486"/>
<path d="M35.8672 23.1694C35.6793 22.5912 35.5839 21.9702 35.583 21.336C35.5829 21.1596 35.5899 20.9817 35.6044 20.8038C36.0528 20.6622 36.5156 20.5216 36.9925 20.3819C41.2962 19.1143 44.4516 18.5054 47.0201 18.5054C48.3855 18.5054 49.5851 18.6777 50.7028 19.0146C50.688 20.2248 50.4588 21.398 50.0297 22.4725C49.78 22.3691 49.5281 22.2746 49.272 22.1893C47.9802 21.7549 46.5997 21.5521 45.0794 21.5521C42.4988 21.5521 39.5145 22.1368 35.8672 23.1694Z" fill="#F8B455"/>
<path d="M34.9046 23.4478C34.6905 22.7777 34.5816 22.0619 34.5811 21.3333C34.5808 21.0878 34.593 20.8408 34.6173 20.5937C34.7898 20.5375 34.9645 20.4815 35.1408 20.4256C39.9367 18.8763 43.7055 18.0185 46.8688 18.0185C48.6482 18.0185 50.235 18.2893 51.7066 18.8615C51.707 18.8687 51.707 18.8763 51.707 18.8834C51.7073 20.2878 51.4448 21.6528 50.9387 22.8993C50.6399 22.7425 50.3374 22.6005 50.0303 22.4725C50.4594 21.3979 50.6886 20.2247 50.7034 19.0145C49.5857 18.6776 48.3861 18.5054 47.0207 18.5054C44.4522 18.5054 41.2968 19.1142 36.9931 20.3818C36.5162 20.5216 36.0534 20.6621 35.605 20.8038C35.5905 20.9817 35.5835 21.1596 35.5836 21.336C35.5845 21.9701 35.6799 22.5911 35.8678 23.1694C35.5573 23.257 35.2419 23.3484 34.9217 23.4428C34.9161 23.4443 34.9102 23.4462 34.9046 23.4478Z" fill="#F5A352"/>
<path d="M62.2203 33.7031C61.4868 33.7031 60.794 33.5804 60.1648 33.3352C60.1293 33.3212 60.0938 33.3069 60.0586 33.2918C59.1718 31.7987 58.2996 30.4219 57.4717 29.2487C57.6005 28.3109 58.1493 27.3413 59.1042 26.3668L59.1914 26.2803C60.5142 28.1813 61.9283 30.5247 63.5903 33.5683C63.1223 33.6582 62.6637 33.7031 62.2203 33.7031Z" fill="#F8B455"/>
<path d="M62.2202 34.7061C61.7322 34.7061 61.2578 34.6588 60.8019 34.5648C60.5534 34.1327 60.3056 33.7081 60.0586 33.2922C60.0937 33.3074 60.1292 33.3217 60.1647 33.3357C60.794 33.5808 61.4867 33.7036 62.2202 33.7036C62.6637 33.7036 63.1222 33.6586 63.5902 33.5687C61.9283 30.5251 60.5141 28.1818 59.1913 26.2808L59.1041 26.3673C58.1492 27.3418 57.6004 28.3113 57.4716 29.2492C57.4263 29.185 57.381 29.1212 57.336 29.0581C57.1245 28.762 56.9141 28.4753 56.7041 28.1981C57.0082 27.3478 57.5721 26.4987 58.3902 25.6632C58.5677 25.4849 58.7441 25.3146 58.9266 25.1473C58.9477 25.1276 58.9704 25.1103 58.9942 25.0948C60.763 27.4921 62.5673 30.5478 64.5994 34.3389C64.5942 34.3419 64.5889 34.345 64.5836 34.3476C64.55 34.3661 64.5137 34.3805 64.4759 34.391C63.7054 34.6014 62.9473 34.7061 62.2202 34.7061Z" fill="#F5A352"/>
<path d="M47.0193 18.5058C44.4508 18.5058 41.295 19.1143 36.9917 20.3816C36.4046 20.5542 35.8376 20.7268 35.2935 20.9024C27.1855 23.4705 23.8023 26.17 22.3628 31.2197C21.4571 34.3917 21.2765 38.6795 21.758 45.558C22.0278 49.3881 22.4871 53.8802 23.0941 59.4469C23.6928 64.9604 25.1318 69.746 27.3718 73.6716C34.3398 85.8672 47.0933 87.1654 55.8982 84.5724C64.7046 81.9787 74.7181 73.9742 73.9567 59.9512V59.95C73.7168 55.4394 72.334 50.6368 69.8464 45.677C67.5129 41.0266 65.6092 37.2865 63.9034 34.1458C61.9612 30.5538 60.3575 27.9045 58.8572 25.8074C56.2162 22.1047 53.8064 20.0435 51.0427 19.1223C49.828 18.7151 48.5245 18.5058 47.0193 18.5058ZM48.1305 86.688C40.3474 86.6884 31.8151 83.4684 26.5017 74.1691C24.193 70.1234 22.7114 65.2067 22.0976 59.5557C21.4895 53.9776 21.0292 49.4746 20.759 45.6287C20.268 38.6266 20.4595 34.235 21.399 30.9443C23.1539 24.7906 27.7106 22.2527 34.9888 19.9476C35.539 19.77 36.1134 19.5948 36.7091 19.4199C42.5842 17.6888 47.3237 16.8156 51.3611 18.1716C54.3379 19.1634 56.9014 21.3387 59.6734 25.2242C61.1983 27.3557 62.8228 30.0389 64.7854 33.6676C66.4972 36.8189 68.4054 40.5681 70.7427 45.2272C73.293 50.3112 74.711 55.2464 74.9587 59.8968C75.7516 74.5037 65.3395 82.8361 56.1819 85.5329C53.7286 86.257 50.9792 86.688 48.1305 86.688Z" fill="#C75314"/>
<path d="M52.1145 47.3417C53.2635 51.2427 57.3571 53.4735 61.2578 52.3245C65.1584 51.1755 67.3896 47.0818 66.2406 43.1812C65.0915 39.2802 60.9979 37.0494 57.0972 38.1984C53.1962 39.3474 50.9655 43.4411 52.1145 47.3417Z" fill="white"/>
<path d="M59.1865 38.3974C58.5354 38.3974 57.8804 38.4911 57.2383 38.6799C55.4804 39.1978 54.0292 40.369 53.1518 41.9789C52.2751 43.5883 52.0768 45.4432 52.5947 47.2015C53.1125 48.9594 54.2838 50.4105 55.8936 51.288C57.5027 52.1646 59.3573 52.3626 61.1163 51.8451C62.8742 51.3273 64.3253 50.156 65.2028 48.5462C66.0794 46.9367 66.2777 45.0818 65.7599 43.3235C65.242 41.5656 64.0708 40.1145 62.4609 39.237C61.4392 38.6803 60.3185 38.3974 59.1865 38.3974ZM59.1809 53.1274C55.7826 53.1274 52.6411 50.905 51.6338 47.484C50.4085 43.3243 52.796 38.9432 56.9558 37.7186C61.1155 36.4926 65.4966 38.8809 66.7212 43.0406C67.9465 47.2004 65.5589 51.5815 61.3992 52.806C60.6608 53.0239 59.9144 53.1274 59.1809 53.1274Z" fill="black"/>
<path d="M61.9783 44.4352C62.7254 46.9719 61.2738 49.6291 58.7412 50.3751C56.2087 51.1211 53.5485 49.6748 52.8013 47.1381C52.0554 44.6055 53.5058 41.9442 56.0383 41.1982C57.3252 40.819 58.6449 41.0067 59.7316 41.6163C59.0381 43.1298 58.8704 44.4571 59.38 44.7313C59.823 44.9761 60.6532 44.3517 61.454 43.2624C61.6761 43.6216 61.8532 44.0118 61.9783 44.4352Z" fill="black"/>
<path d="M52.3315 62.7323C52.3938 63.4503 53.646 63.9281 55.1281 63.7993C56.6103 63.6705 57.7608 62.9839 57.6984 62.2658C57.6361 61.5478 56.384 61.07 54.9019 61.1988C53.4201 61.3272 52.2692 62.0139 52.3315 62.7323Z" fill="#FFBF4D"/>
<path d="M52.8311 62.6894C52.8568 62.9712 53.7304 63.4176 55.0849 63.3002C55.7187 63.245 56.3204 63.0709 56.7359 62.8228C57.0698 62.6241 57.2092 62.4212 57.1994 62.3094C57.1895 62.1969 57.0173 62.0212 56.654 61.8826C56.2022 61.7108 55.5809 61.6428 54.9456 61.6983C53.5907 61.8161 52.8066 62.4069 52.8311 62.6894ZM54.6411 64.3223C53.0846 64.3223 51.9133 63.6994 51.8324 62.7759V62.7755C51.7433 61.7497 53.0445 60.8571 54.8587 60.6996C55.6481 60.629 56.4145 60.7181 57.0116 60.9463C57.7293 61.2197 58.1508 61.6734 58.1984 62.2229C58.2464 62.7717 57.9095 63.2904 57.2504 63.6843C56.7012 64.0118 55.9631 64.2301 55.1726 64.2992C54.9913 64.3143 54.8134 64.3223 54.6411 64.3223Z" fill="#F49004"/>
<path d="M47.0572 64.286C47.3942 64.9232 46.601 66.0035 45.2858 66.6985C43.9706 67.3934 42.6312 67.4403 42.2943 66.8031C41.9574 66.1659 42.7506 65.0856 44.0661 64.3906C45.3809 63.6953 46.7203 63.6484 47.0572 64.286Z" fill="#FFBF4D"/>
<path d="M46.0201 64.3381L45.9469 64.3396C45.4634 64.3563 44.8632 64.5364 44.3008 64.8337C43.7387 65.1309 43.2519 65.5253 42.9656 65.9151C42.7355 66.2282 42.6857 66.4692 42.7386 66.5685C42.7914 66.6682 43.0245 66.7642 43.4067 66.7495C43.8902 66.7328 44.4904 66.5527 45.0528 66.2558C46.2551 65.6205 46.7476 64.7706 46.615 64.5198C46.5656 64.4265 46.3639 64.3381 46.0201 64.3381ZM43.3323 67.7534C42.62 67.7534 42.0968 67.5015 41.8517 67.0369C41.5941 66.5496 41.7025 65.9408 42.1573 65.3217C42.5357 64.8061 43.131 64.3181 43.8328 63.9476C44.5342 63.5767 45.273 63.3602 45.9117 63.3376C46.6781 63.3081 47.2435 63.5642 47.5011 64.0518H47.5015C47.9824 64.9625 47.1306 66.2909 45.5204 67.1415C44.819 67.5124 44.0802 67.7289 43.4415 67.7515C43.4045 67.7527 43.3682 67.7534 43.3323 67.7534Z" fill="#F49004"/>
<path d="M38.8312 73.4029C39.1639 74.5036 39.7475 75.523 40.5781 76.3687C41.8997 77.7005 43.7286 78.4975 45.596 78.6146C46.2638 78.658 46.941 78.6119 47.5975 78.4745C50.5554 77.8535 52.5539 75.2937 54.0919 72.6939C48.8341 74.1115 42.9294 72.8564 38.6975 69.4297C38.4025 70.7582 38.4459 72.1334 38.8312 73.4029Z" fill="#6E0E1F"/>
<path d="M39.0538 70.3352C38.9416 71.3286 39.0277 72.325 39.3106 73.2572V73.2575C39.6313 74.3178 40.1779 75.2458 40.9352 76.0167C42.1473 77.2379 43.8579 78.0031 45.6271 78.1138C46.256 78.155 46.8857 78.1108 47.4946 77.9835C49.9856 77.4603 51.7416 75.4381 53.0333 73.4521C48.2137 74.3824 43.0228 73.2315 39.0538 70.3352ZM46.0857 79.1313C45.9119 79.1313 45.7374 79.1253 45.5633 79.1144C43.5539 78.9886 41.6068 78.1164 40.2224 76.7212C39.3488 75.8316 38.7195 74.7646 38.3516 73.5476C37.9433 72.2018 37.8935 70.7397 38.2081 69.3202C38.2459 69.151 38.3686 69.0128 38.5322 68.9558C38.6957 68.8991 38.8778 68.9305 39.013 69.0396C43.1278 72.371 48.8555 73.5861 53.9621 72.2098C54.1574 72.1573 54.3678 72.2283 54.4913 72.3903C54.6148 72.5527 54.6273 72.7737 54.5238 72.9489C53.0828 75.3856 51.0043 78.2713 47.7012 78.9648C47.1712 79.0758 46.63 79.1313 46.0857 79.1313Z" fill="black"/>
<path d="M38.8311 73.4031C39.1638 74.5037 39.7474 75.5232 40.578 76.3689C41.8996 77.7007 43.7285 78.4977 45.5959 78.6147C45.8172 77.6565 45.6801 76.6151 45.228 75.7449C44.5428 74.4338 43.2027 73.5183 41.7523 73.2338C40.788 73.0427 39.7795 73.1175 38.8311 73.4031Z" fill="#F22A4E"/>
<path d="M39.4813 73.7537C39.8107 74.6092 40.2987 75.3692 40.9355 76.0173C42.0445 77.135 43.5716 77.8704 45.1791 78.0721C45.2531 77.3582 45.1153 76.6145 44.7829 75.9754C44.1956 74.8506 42.9971 73.9879 41.6562 73.725C40.9623 73.5875 40.2205 73.5985 39.4813 73.7537ZM45.5965 79.1157L45.5648 79.1146C43.5538 78.9888 41.6067 78.1167 40.2224 76.7214C39.348 75.8319 38.7195 74.7648 38.3516 73.5475C38.313 73.4202 38.3266 73.2827 38.3897 73.1656C38.4524 73.0481 38.5597 72.9609 38.687 72.9224C39.7453 72.6043 40.8377 72.5413 41.8503 72.7414C43.507 73.0667 44.9362 74.1023 45.6728 75.5123C46.1808 76.4899 46.3308 77.6611 46.0849 78.7271C46.0316 78.9556 45.828 79.1157 45.5965 79.1157Z" fill="black"/>
<path d="M27.8542 58.7764C27.6643 58.7764 27.4821 58.6683 27.398 58.484C25.6525 54.6763 26.29 51.1356 29.1042 49.0132C30.7487 47.7728 32.638 47.4499 34.5655 48.0773C37.0941 48.9026 39.3605 51.3331 40.2055 54.1252C40.2859 54.3904 40.136 54.6703 39.8712 54.7503C39.6061 54.8312 39.3266 54.6808 39.2461 54.416C38.4918 51.9224 36.4858 49.7585 34.2545 49.0306C32.6525 48.5075 31.0792 48.7787 29.7079 49.8132C27.2971 51.6323 26.7745 54.7175 28.3093 58.0663C28.4249 58.3178 28.3142 58.6155 28.0627 58.731C27.9948 58.7616 27.9238 58.7764 27.8542 58.7764Z" fill="black"/>
</svg>
