<svg width="77" height="105" viewBox="0 0 77 105" fill="none" xmlns="http://www.w3.org/2000/svg">
<path d="M49.4309 65.0409L24.8849 64.2178L19.9226 81.9616C19.9226 81.9616 19.3659 87.965 19.3416 88.0859C19.3173 88.2069 11.2805 88.1585 11.2805 88.1585L8.10945 88.7395L5.66458 87.6259L2.7597 86.9723C2.7597 86.9723 0.968428 86.9966 0.895806 86.9966C0.823184 86.9966 0.532695 87.5292 0.532695 87.5292L0.435791 91.4265L2.15444 98.5676L4.16358 102.368L5.15601 103.7L9.77953 103.724L24.8121 102.804L32.5584 102.32C32.5584 102.32 35.8021 102.417 35.8747 102.465C35.9716 102.49 41.1518 102.247 41.2244 102.223C41.2971 102.223 47.8814 102.538 47.8814 102.538C47.8814 102.538 60.2269 103.434 60.4691 103.458C60.7112 103.482 67.3196 103.869 67.3196 103.869L71.3138 103.554L72.161 102.271L73.4439 98.6647C73.4439 98.6647 75.5499 91.9351 75.5742 91.8625C75.5985 91.8141 75.7437 88.1347 75.7195 88.0135C75.7195 87.8926 74.9449 86.9242 74.9449 86.9242L72.7905 87.0211L70.7571 87.6504L68.1427 88.6428C68.1427 88.6428 64.9231 88.1345 64.7778 88.0376C64.6326 87.965 60.6869 87.9407 60.6869 87.9407L56.838 88.0376L56.2813 82.4216L53.1585 67.1469L49.4309 65.0409Z" fill="#BCBECD"/>
<path d="M75.8169 89.6105L74.9211 95.1055L71.7984 102.682L70.7817 103.602C68.2882 104.449 67.6832 102.561 67.562 101.012C67.5137 100.189 67.6103 99.3416 67.8282 98.5185C68.167 97.2839 68.7723 94.9843 68.8206 94.8874C68.8933 94.7664 71.0962 90.3848 71.0719 90.1912C71.0476 89.9977 73.2263 88.1095 74.0737 87.7704C74.9452 87.4316 75.5504 87.5768 75.5504 87.5768L75.8169 89.6105Z" fill="#969AB2"/>
<path d="M0.217773 89.6105L1.11352 95.1055L4.23627 102.682L5.25298 103.602C7.62522 104.425 8.32738 102.755 8.49669 101.254C8.61765 100.31 8.58046 99.4221 8.31426 98.5021C7.95115 97.2432 7.28639 94.9841 7.23783 94.8874C7.16521 94.7664 4.96227 90.3848 4.98655 90.1912C5.01083 89.9977 2.83217 88.1095 1.98476 87.7704C1.1133 87.4316 0.508045 87.5768 0.508045 87.5768L0.217773 89.6105Z" fill="#969AB2"/>
<path d="M38.0781 70.1963C45.7275 70.1963 51.9004 79.1529 51.9004 85.8341C51.9004 92.5153 45.7275 97.9377 38.0781 97.9377C30.4287 97.9377 24.2559 92.5153 24.2559 85.8341C24.2559 79.1529 30.4287 70.1963 38.0781 70.1963Z" fill="#EDEEF2"/>
<path d="M0 89.3935C0 93.557 2.83226 101.255 4.62353 103.651C4.86568 103.942 5.97907 104.039 7.33483 104.039C8.18201 104.039 9.15038 103.99 10.0461 103.942C11.4986 103.869 14.0403 103.724 17.0662 103.53C22.4885 103.192 29.4117 102.756 34.1564 102.514C36.0544 102.77 39.934 102.801 41.9996 102.514C46.7441 102.78 53.6675 103.192 59.0898 103.53C62.1157 103.7 64.6574 103.869 66.1099 103.942C66.9814 103.99 67.9497 104.039 68.8212 104.039C70.1767 104.039 71.3146 103.942 71.5325 103.651C73.3238 101.255 76.156 93.5329 76.156 89.3935C76.156 86.8578 75.0988 86.6585 74.6307 86.6338C72.3311 86.5369 69.7893 87.6989 68.3369 88.4977C66.8118 88.1346 61.5347 87.0453 57.129 87.9894C56.9112 77.8466 52.4812 69.7855 52.4329 69.7129L51.9488 69.9791C51.9972 70.0517 56.4028 78.0642 56.5723 88.1103C56.2335 88.2072 55.8945 88.3039 55.5799 88.4251C55.5799 88.4251 59.5984 88.1346 61.5349 88.1829C64.0283 88.2313 66.352 88.643 67.6109 88.9092C67.3447 89.0787 67.1752 89.1754 67.1509 89.1997C67.1509 89.1997 69.5231 88.2799 71.5808 87.5536C72.6702 87.1662 73.7595 87.0696 74.5826 87.1905C74.6795 87.2148 74.7762 87.2148 74.8731 87.2631C74.3647 87.3115 73.6628 87.481 72.888 87.9894C71.1934 89.0787 68.8938 91.9352 67.6352 99.2698C67.6352 99.2698 69.6202 91.1604 73.1544 88.4492C74.0743 87.7472 74.9217 87.7472 75.3088 87.7713C76.4224 90.434 73.2271 100.311 71.0727 103.24C70.9517 103.288 70.1286 103.554 66.1103 103.336C64.6579 103.264 62.1161 103.119 59.0903 102.925C54.4425 102.635 48.7053 102.271 44.1787 102.029C47.7855 101.085 49.722 99.4391 49.8673 99.2939C49.7463 99.3422 47.737 100.359 44.7111 101.279C41.5171 102.237 35.949 102.63 31.4453 101.279C28.4195 100.383 26.4104 99.3665 26.2892 99.2939C26.4344 99.4391 28.3709 101.109 31.9778 102.029C27.4268 102.295 21.6897 102.635 17.0662 102.925C14.0403 103.095 11.4986 103.264 10.0461 103.336C6.05191 103.579 5.20473 103.288 5.08376 103.24C2.92938 100.31 -0.265987 90.4097 0.847623 87.7713C1.23501 87.747 2.0822 87.747 3.002 88.4492C6.5362 91.1604 8.52128 99.2698 8.52128 99.2698C7.23836 91.935 4.9628 89.1028 3.26843 87.9894C2.49387 87.481 1.79171 87.3115 1.28335 87.2631C1.35598 87.2148 1.47694 87.2148 1.57384 87.1905C2.37268 87.0696 3.46202 87.1662 4.57563 87.5536C6.63332 88.3041 9.00557 89.1997 9.00557 89.1997C8.98129 89.1754 8.81199 89.0787 8.54556 88.9092C9.80441 88.643 12.1283 88.2313 14.6215 88.1829C16.5823 88.1346 20.5765 88.4251 20.5765 88.4251C20.2618 88.3041 19.9229 88.2072 19.5841 88.1103C19.7536 78.0644 24.1593 70.0517 24.2076 69.9791L23.7236 69.7129C23.6752 69.7855 19.221 77.8466 19.0274 87.9894C14.6217 87.0453 9.34462 88.1346 7.81956 88.4977C6.36712 87.6989 3.82534 86.5369 1.52572 86.6338C0.125557 86.7078 0 88.4599 0 89.3935Z" fill="#2D2D39"/>
<path d="M57.6617 81.4536L61.1718 78.2099L62.8664 75.6439C62.8664 75.6439 64.5124 72.5937 63.8589 69.8827C63.2053 67.1714 53.1594 61.6523 52.7236 61.2406C52.2879 60.8292 52.5784 59.9334 51.1743 59.6913C49.7945 59.4251 47.1801 60.9985 45.8245 61.3616C44.469 61.7247 40.0148 63.1772 39.555 63.6855C39.095 64.1696 38.1268 66.8325 38.4899 67.3166C38.853 67.8007 48.6811 66.542 49.0442 66.4209C49.4073 66.2756 48.5601 67.2681 48.5601 67.2681L50.0852 69.7615L43.8156 68.5269L42.6294 72.7873L42.2905 76.3458C42.2905 76.3458 43.0411 84.0678 45.5343 84.0678C47.8098 84.0678 51.6586 83.6078 52.3364 83.5111C52.3848 83.4868 52.4333 83.4868 52.4333 83.4868L57.6617 81.4536Z" fill="#BCBECD"/>
<path d="M18.4458 81.4053L14.9359 78.2099L13.2413 75.6439C13.2413 75.6439 11.5953 72.5937 12.2489 69.8827C12.9025 67.1714 22.9484 61.6523 23.3841 61.2406C23.8199 60.8292 23.5294 59.9334 24.9335 59.6913C26.3133 59.4251 28.9277 60.9985 30.2832 61.3616C31.6388 61.7247 36.093 63.1772 36.5528 63.6855C37.0128 64.1696 37.9809 66.8325 37.6178 67.3166C37.2547 67.8007 27.4267 66.5421 27.0636 66.4209C26.7005 66.2756 27.5476 67.2681 27.5476 67.2681L26.0226 69.7615L32.2921 68.5269L33.4784 72.7873L33.8172 76.3458C33.8172 76.3458 33.0667 84.0678 30.5735 84.0678C28.2979 84.0678 24.4492 83.6078 23.7713 83.5111C23.723 83.4868 23.6744 83.4868 23.6744 83.4868L18.4458 81.4053Z" fill="#BCBECD"/>
<path d="M58.347 0.577148C58.2692 0.580867 58.1913 0.584366 58.1125 0.593335C58.1937 0.584148 58.2716 0.579117 58.347 0.577148Z" fill="#BCBECD"/>
<path d="M18.0871 62.1174C18.0895 62.1174 18.5353 62.5298 18.5353 62.5298C22.2558 65.0232 26.1941 66.7873 30.5474 67.6417C30.5514 67.6457 30.5573 67.6437 30.5619 67.6441C32.8342 68.1822 35.5861 68.3065 38.1163 68.259C40.6465 68.3063 43.3983 68.182 45.6708 67.6441C45.6754 67.6437 45.6813 67.6457 45.6852 67.6417C50.0386 66.7873 53.9768 65.0234 57.6974 62.5298C57.6974 62.5298 58.1432 62.1174 58.1456 62.1174C66.8902 56.5575 67.5282 47.9977 62.5138 41.8782C61.4337 40.0948 60.3559 39.7387 59.7415 37.8566C58.4249 34.7059 58.4918 21.1993 55.3483 19.0828C68.9105 19.515 65.0689 0.278902 58.3857 0.593671C62.8163 0.480581 57.4351 12.953 51.0807 14.9405C46.976 13.7995 43.3694 12.6586 38.124 12.5474V12.547C38.1214 12.547 38.1187 12.5472 38.1161 12.5472C38.1135 12.5472 38.1109 12.547 38.1082 12.547V12.5474C32.8628 12.6583 29.2562 13.7995 25.1515 14.9405C18.7971 12.953 13.4161 0.480581 17.8465 0.593671C11.1633 0.278683 7.32174 19.515 20.8839 19.0828C17.7404 21.1993 17.8073 34.7059 16.4907 37.8566C15.876 39.7387 14.7983 40.095 13.7184 41.8782C8.7044 47.9977 9.34247 56.5575 18.0871 62.1174ZM45.734 67.6295C45.7736 67.6159 45.8123 67.608 45.8501 67.6004C45.8018 67.6126 45.7629 67.6223 45.734 67.6295ZM30.383 67.6006C30.4208 67.6083 30.4595 67.6161 30.4991 67.6297C30.4702 67.6223 30.4313 67.6126 30.383 67.6006Z" fill="#BCBECD"/>
<path d="M18.0424 0.593335C17.9636 0.584366 17.8857 0.580867 17.8079 0.577148C17.8833 0.579117 17.9612 0.584148 18.0424 0.593335Z" fill="#BCBECD"/>
<path d="M25.5706 46.439C26.0142 45.9945 26.4897 45.5612 26.96 45.1777C26.9819 45.1558 26.9819 45.1558 26.9819 45.1558C30.5471 42.1956 33.8842 40.7117 38.0699 40.6997V40.6992C38.0725 40.6992 38.0751 40.6994 38.0777 40.6994C38.0804 40.6994 38.083 40.6992 38.0856 40.6992V40.6997C42.2712 40.7117 45.6083 42.1956 49.1736 45.1558C49.1736 45.1558 49.1736 45.1558 49.1955 45.1777C49.6658 45.5612 50.1413 45.9943 50.5849 46.439H49.8587C49.2606 45.8193 47.5057 44.3863 43.8722 43.9578C44.2471 44.8969 44.5369 45.6148 44.8331 46.439C44.7261 46.4407 38.4424 46.4274 38.0775 46.427C37.7127 46.4274 31.4289 46.4407 31.3219 46.439C31.6181 45.6148 31.9079 44.8969 32.2828 43.9578C28.6493 44.3863 26.8944 45.8193 26.2963 46.439H25.5706Z" fill="#969AB2"/>
<path d="M48.2551 47.7429C51.113 44.2638 55.387 47.4303 52.5958 50.9076C54.1104 46.7001 50.8645 45.6974 48.2551 47.7429Z" fill="#2A2C37"/>
<path d="M51.1636 49.5173C49.8098 50.6196 48.862 49.4401 50.2655 48.3626C51.6258 47.2814 52.5651 48.4315 51.1636 49.5173Z" fill="#2A2C37"/>
<path d="M50.0618 48.534C50.5701 47.969 51.526 47.4237 52.2319 47.9568C51.4517 47.7398 50.732 48.2086 50.0618 48.534Z" fill="#2A2C37"/>
<path d="M49.1953 45.1769C48.1606 44.44 46.0894 43.5779 43.4218 43.3594L43.3792 43.9154C47.049 44.1766 49.4245 45.7736 50.1148 46.738L50.5854 46.4386C50.5851 46.4056 50.1207 45.7808 49.1953 45.1769Z" fill="#2A2C37"/>
<path d="M59.246 53.4525C53.8444 53.4269 53.8439 46.9782 59.2457 46.9521C64.6471 46.9775 64.6473 53.4262 59.246 53.4525Z" fill="#DDA8BE"/>
<path d="M44.492 45.8398L44.385 46.3959C47.4883 47.0814 46.6243 51.6422 45.1548 52.5541C47.6272 51.6689 47.9164 46.5591 44.492 45.8398Z" fill="#2A2C37"/>
<path d="M45.2632 25.7975C44.7596 25.8957 44.4101 26.114 44.3204 26.3944C44.1413 26.9555 45.0532 27.9195 46.6233 28.392C47.3725 28.623 48.0981 28.6794 48.7009 28.5711C49.2045 28.4729 49.554 28.2546 49.6437 27.9742C49.7093 27.6902 49.5459 27.2996 49.1563 26.9496C48.702 26.5412 48.0659 26.2043 47.3167 25.9733C46.8001 25.825 46.2731 25.7485 45.8074 25.7544C45.6123 25.7502 45.4377 25.7739 45.2632 25.7975Z" fill="#ACB0C6"/>
<path d="M46.4752 28.9081C44.6926 28.3805 43.5176 27.2069 43.8039 26.2456C43.9487 25.753 44.4391 25.4082 45.1686 25.2695C45.8467 25.1477 46.6681 25.2181 47.4892 25.4594C48.3104 25.7007 49.0353 26.0997 49.5305 26.5627C50.0907 27.0844 50.3053 27.6291 50.1605 28.1217C50.0157 28.6143 49.5253 28.959 48.7958 29.0977C48.5937 29.1417 48.3712 29.1583 48.152 29.1511C47.6146 29.1467 47.0397 29.0634 46.4752 28.9081ZM45.2633 25.7969C44.7598 25.8951 44.4103 26.1134 44.3206 26.3939C44.1414 26.9549 45.0533 27.9189 46.6235 28.3914C47.3727 28.6224 48.0982 28.6788 48.7011 28.5706C49.2046 28.4724 49.5542 28.254 49.6438 27.9736C49.7095 27.6897 49.5461 27.299 49.1565 26.949C48.7022 26.5406 48.0661 26.2038 47.3169 25.9728C46.8002 25.8245 46.2733 25.7479 45.8076 25.7538C45.6125 25.7497 45.4379 25.7733 45.2633 25.7969Z" fill="#2A2C37"/>
<path d="M31.4719 50.3724C33.0733 50.3713 36.4236 50.3621 38.0696 50.3604C38.072 50.3604 38.0751 50.3604 38.0775 50.3604C38.0799 50.3604 38.083 50.3604 38.0854 50.3604C39.7314 50.3623 43.0816 50.3713 44.683 50.3724C44.6876 50.3719 43.9236 55.0346 38.0854 54.9909V54.9911C38.0827 54.9911 38.0801 54.9909 38.0775 54.9909C38.0749 54.9909 38.0722 54.9911 38.0696 54.9911V54.9909C32.2314 55.0348 31.4676 50.3719 31.4719 50.3724Z" fill="#969AB2"/>
<path d="M24.8441 14.7313C24.9725 14.7943 25.1827 14.8516 25.3327 14.8927C27.7082 14.1722 31.2223 12.9356 38.0698 12.4164V12.415C38.0724 12.4153 38.075 12.4155 38.0777 12.4157C38.0803 12.4155 38.0829 12.4153 38.0855 12.415V12.4164C44.9328 12.9359 48.4469 14.1724 50.8226 14.8927C50.9727 14.8516 51.1829 14.7943 51.3113 14.7313C51.8686 15.1508 52.4669 15.5264 53.0227 15.9455C52.9936 15.9407 52.9645 15.9335 52.9356 15.9287C52.9356 15.9287 52.9356 15.9311 52.9332 15.9287C52.8425 15.9105 52.7517 15.8946 52.6644 15.8779C47.4256 14.9043 42.9468 14.4513 38.0779 14.3723C33.2089 14.4513 28.73 14.9043 23.4914 15.8779C23.4041 15.8948 23.3133 15.9105 23.2225 15.9287C23.2201 15.9311 23.2201 15.9287 23.2201 15.9287C23.191 15.9335 23.1619 15.9407 23.1331 15.9455C23.6882 15.5264 24.2867 15.1511 24.8441 14.7313Z" fill="#DFE1EA"/>
<path d="M38.0696 65.2966V65.2964C38.0723 65.2964 38.0749 65.2964 38.0775 65.2966C38.0801 65.2966 38.0828 65.2966 38.0854 65.2964V65.2966C45.6554 65.4897 54.7576 63.1234 62.9663 57.582C61.5712 59.54 60.5109 60.6682 58.5372 62.0111C58.0048 62.2992 57.2821 62.9169 57.2821 62.9169C53.5611 65.4114 49.9884 66.7716 45.6464 67.6251C45.6425 67.629 45.6365 67.6271 45.632 67.6275C43.3597 68.1656 40.6077 68.2898 38.0775 68.2424C35.5473 68.2896 32.7956 68.1654 30.5231 67.6275C30.5185 67.6271 30.5126 67.629 30.5086 67.6251C26.1666 66.7716 22.5939 65.4114 18.8729 62.9169C18.8729 62.9169 18.1502 62.2992 17.6178 62.0111C15.6441 60.6682 14.5839 59.5402 13.1887 57.582C21.3974 63.1234 30.4997 65.4897 38.0696 65.2966Z" fill="#969AB2"/>
<path d="M38.0698 31.5905V31.5735C38.0746 31.5615 38.077 31.5566 38.077 31.5566C38.0772 31.5573 38.0774 31.5584 38.0776 31.559C38.0779 31.5584 38.0781 31.5573 38.0783 31.5566C38.0783 31.5566 38.0807 31.5615 38.0855 31.5735V31.5905C38.4272 32.9435 44.8763 44.8487 44.8987 48.8114H44.8962C44.8179 49.358 44.6156 49.8832 44.3588 50.3727H44.3564C43.3077 52.3202 41.235 53.5141 38.9244 53.7158C38.922 53.7182 38.9172 53.7182 38.9148 53.7158C38.6481 53.7411 38.3681 53.7525 38.0857 53.7519V53.7521C38.0831 53.7521 38.0805 53.7519 38.0779 53.7519C38.0752 53.7519 38.0726 53.7521 38.07 53.7521V53.7519C37.7876 53.7527 37.5076 53.7411 37.241 53.7158C37.2386 53.7182 37.2337 53.7182 37.2313 53.7158C34.9208 53.5141 32.848 52.3202 31.7993 50.3727H31.7969C31.5401 49.8832 31.3378 49.358 31.2595 48.8114H31.2571C31.2787 44.8487 37.7281 32.9435 38.0698 31.5905Z" fill="white"/>
<path d="M23.5584 50.9075C20.7675 47.4302 25.0412 44.2639 27.8991 47.7428C25.2897 45.6973 22.0438 46.7 23.5584 50.9075Z" fill="#2A2C37"/>
<path d="M25.8899 48.3627C27.2933 49.44 26.3455 50.6197 24.9917 49.5175C23.5903 48.4314 24.5295 47.2813 25.8899 48.3627Z" fill="#2A2C37"/>
<path d="M23.9221 47.9564C24.628 47.4235 25.5905 47.98 26.0988 48.545C25.4286 48.2195 24.7024 47.7394 23.9221 47.9564Z" fill="#2A2C37"/>
<path d="M25.5686 46.4386L26.0391 46.738C26.7295 45.7738 29.1048 44.1766 32.7748 43.9154L32.7322 43.3594C30.0646 43.5779 27.9936 44.44 26.9587 45.1769C26.033 45.7808 25.5686 46.4056 25.5686 46.4386Z" fill="#2A2C37"/>
<path d="M16.9088 46.9512C22.3106 46.9774 22.3102 53.4259 16.9086 53.4515C11.5072 53.4255 11.5074 46.9768 16.9088 46.9512Z" fill="#DDA8BE"/>
<path d="M31.0005 52.5541C29.531 51.6422 28.667 47.0814 31.7703 46.3959L31.6633 45.8398C28.2389 46.5591 28.5281 51.6689 31.0005 52.5541Z" fill="#2A2C37"/>
<path d="M31.259 48.8115C33.1339 50.3716 35.4215 50.9762 38.0776 50.9924C40.7336 50.976 43.0214 50.3716 44.8962 48.8115H44.8987C44.8116 49.3575 44.6187 49.8836 44.3588 50.3729H44.3564C43.3067 52.323 41.2358 53.5186 38.9244 53.7159C38.922 53.7183 38.9172 53.7183 38.9148 53.7159C38.6481 53.7413 38.3681 53.7527 38.0857 53.752V53.7522C38.0831 53.7522 38.0805 53.752 38.0779 53.752C38.0752 53.752 38.0726 53.7522 38.07 53.7522V53.752C37.7876 53.7529 37.5076 53.7413 37.241 53.7159C37.2386 53.7183 37.2337 53.7183 37.2313 53.7159C34.9199 53.5186 32.8491 52.323 31.7993 50.3729H31.7969C31.5371 49.8836 31.3441 49.3575 31.2571 48.8115H31.259Z" fill="#E9ECFF"/>
<path d="M38.0694 54.0296V54.0305C38.072 54.0305 38.0747 54.03 38.0773 54.03C38.0799 54.03 38.0825 54.0305 38.0852 54.0305V54.0296C43.48 53.8183 46.4457 50.0166 44.6102 45.8679C43.1269 41.8518 38.5787 31.9984 38.0788 30.8982C38.0786 30.8973 38.078 30.8936 38.078 30.8936C38.0777 30.894 38.0773 30.8949 38.0773 30.8949C38.0771 30.8944 38.0766 30.8936 38.0766 30.8936C38.0762 30.8938 38.076 30.8973 38.0758 30.8982C37.5759 31.9984 33.0277 41.852 31.5444 45.8679C29.7089 50.0166 32.6746 53.8183 38.0694 54.0296ZM31.8976 46.4393C33.144 43.0114 37.0033 34.4934 38.0561 32.2393C38.0609 32.2489 38.0657 32.26 38.0705 32.2703C38.0703 32.2878 38.0699 32.3007 38.0694 32.302C38.072 32.2961 38.0747 32.2909 38.0773 32.285C38.0799 32.2909 38.0825 32.2961 38.0852 32.302C38.0845 32.3007 38.0843 32.2878 38.0841 32.2703C38.0889 32.2598 38.0937 32.2487 38.0985 32.2393C39.1515 34.4936 43.0108 43.0114 44.2569 46.4393C45.6453 50.1568 42.8345 53.299 38.0773 53.4733C33.3199 53.299 30.5093 50.1568 31.8976 46.4393Z" fill="#2A2C37"/>
<path d="M29.2957 52.6963L29.4166 52.8487C29.4481 52.8923 32.992 57.5884 37.9762 57.8936V57.8984C38.0072 57.8964 38.0383 57.8953 38.0694 57.8923V57.8912C38.072 57.8916 38.0746 57.8914 38.0772 57.8916C38.0799 57.8914 38.0825 57.8914 38.0851 57.8912V57.8923C38.1162 57.8953 38.1472 57.8964 38.1783 57.8984V57.8936C43.1625 57.5886 46.7064 52.8923 46.7379 52.8487L46.8588 52.6963L48.1999 53.0618L47.0815 53.3403C46.578 53.9648 44.622 56.2718 41.7269 57.5716C41.7269 57.5716 38.2444 59.7166 34.4273 57.5716C31.5321 56.2716 29.5763 53.9648 29.0728 53.3403L27.9543 53.0618L29.2957 52.6963Z" fill="#2A2C37"/>
<path d="M30.3467 25.7543C29.881 25.7484 29.3541 25.825 28.8374 25.9733C28.0882 26.2043 27.4521 26.5412 26.9978 26.9495C26.6082 27.2995 26.4448 27.6902 26.5104 27.9741C26.6001 28.2545 26.9497 28.4731 27.4532 28.5711C28.0561 28.6793 28.7816 28.6229 29.5308 28.3919C31.1012 27.9194 32.0131 26.9554 31.8337 26.3944C31.744 26.1139 31.3945 25.8954 30.891 25.7974C30.7164 25.774 30.5418 25.7504 30.3467 25.7543Z" fill="#ACB0C6"/>
<path d="M28.0039 29.1512C27.7847 29.1584 27.5622 29.1417 27.3601 29.0978C26.6306 28.9591 26.1404 28.6144 25.9954 28.1218C25.8504 27.6291 26.065 27.0843 26.6254 26.5628C27.1208 26.0995 27.8457 25.7007 28.6667 25.4595C29.4878 25.218 30.3092 25.1477 30.9873 25.2696C31.7168 25.4083 32.207 25.753 32.352 26.2456C32.6383 27.207 31.4633 28.3803 29.6807 28.9081C29.1162 29.0632 28.5413 29.1466 28.0039 29.1512ZM30.3483 25.7534C29.8826 25.7475 29.3557 25.8241 28.839 25.9724C28.0898 26.2034 27.4537 26.5403 26.9994 26.9486C26.6098 27.2986 26.4464 27.6893 26.5121 27.9732C26.6017 28.2537 26.9513 28.4722 27.4548 28.5702C28.0577 28.6784 28.7832 28.622 29.5324 28.391C31.1028 27.9185 32.0147 26.9546 31.8353 26.3935C31.7457 26.1131 31.3961 25.8945 30.8926 25.7965C30.718 25.7731 30.5435 25.7495 30.3483 25.7534Z" fill="#2A2C37"/>
<path d="M51.1038 15.0653C51.2772 15.1414 51.4885 15.249 51.6478 15.3492L51.9337 15.508C53.8999 16.1756 60.6347 14.5889 61.1193 6.84017C61.1494 3.53237 60.5468 1.0525 57.8436 0.3125C58.4887 3.03539 59.3455 11.4744 51.3492 14.9576L51.1038 15.0653Z" fill="#969AB2"/>
<path d="M60.827 3.21897C60.8379 3.24544 61.2437 5.3051 61.2557 5.36045C61.2625 5.30642 60.9199 8.67087 60.9138 8.73912C60.9326 8.68006 60.2679 10.883 60.2513 10.9414C60.2871 10.9012 57.9678 13.6643 57.9208 13.7214C57.9794 13.6921 55.8176 14.8448 55.7614 14.8763C55.8163 14.8595 52.3744 15.6456 52.3733 15.6454C55.5964 18.2554 60.1224 18.234 60.1224 18.234C60.1224 18.234 68.248 14.6202 66.3449 7.43564C64.4419 0.251091 59.1602 0.486239 59.1602 0.486239C59.1602 0.486239 60.7716 3.06016 60.827 3.21897Z" fill="#DDA8BE"/>
<path d="M50.6848 14.7985C57.1889 12.7432 59.0051 4.78325 57.3851 0.0586652C69.3073 -1.24809 70.9842 19.7139 55.311 19.2821C55.1185 19.0681 54.9474 18.8971 54.7764 18.7475L54.7775 18.6055C57.1989 19.3602 60.4735 18.429 62.8801 16.3741C69.768 10.8566 64.9076 -0.246041 58.112 0.593268C58.6533 2.68203 59.7398 11.7661 51.2693 15.2192C51.1409 15.1551 50.9913 15.0908 50.8202 15.0267L50.6848 14.7985Z" fill="#2A2C37"/>
<path d="M60.9132 6.81546C60.9727 3.68418 60.339 1.06279 57.7699 0.593149L57.7914 0.0371094C60.5703 0.410282 61.6279 3.43941 61.4481 6.85877C61.1635 13.9829 54.7445 15.8383 52.7363 15.9405L52.0608 15.4756C52.082 15.4759 60.6138 14.6632 60.9132 6.81546Z" fill="#2A2C37"/>
<path d="M24.8058 14.9576C16.8095 11.4746 17.6663 3.03561 18.3113 0.3125C15.6079 1.05272 15.0053 3.53259 15.0355 6.84017C15.52 14.5886 22.2548 16.1756 24.2211 15.508L24.507 15.3492C24.666 15.249 24.8775 15.1414 25.051 15.0653L24.8058 14.9576Z" fill="#969AB2"/>
<path d="M16.9953 0.486239C16.9953 0.486239 11.7138 0.251091 9.81056 7.43564C7.9073 14.6202 16.0331 18.234 16.0331 18.234C16.0331 18.234 20.5591 18.2554 23.7822 15.6454C23.7813 15.6456 20.3392 14.8597 20.3941 14.8763C20.3379 14.8448 18.1761 13.6921 18.2347 13.7214C18.1879 13.6643 15.8686 10.9009 15.9043 10.9414C15.8876 10.883 15.2227 8.68006 15.2417 8.73912C15.2356 8.67087 14.893 5.30663 14.8998 5.36045C14.9118 5.3051 15.3174 3.24544 15.3285 3.21897C15.3841 3.06016 16.9953 0.486239 16.9953 0.486239Z" fill="#DDA8BE"/>
<path d="M25.334 15.0267C25.163 15.0908 25.0133 15.1551 24.8849 15.2192C16.4144 11.7661 17.5011 2.68181 18.0423 0.593268C11.2466 -0.246041 6.38622 10.8566 13.2742 16.3741C15.681 18.429 18.9483 19.3687 21.3698 18.614L21.3779 18.7475C21.2068 18.8971 21.0357 19.0681 20.8433 19.2821C5.17002 19.7139 6.84667 -1.24809 18.7692 0.0586652C17.1492 4.78325 18.9654 12.7435 25.4694 14.7985L25.334 15.0267Z" fill="#2A2C37"/>
<path d="M24.0945 15.4756L23.419 15.9405C21.411 15.8383 14.992 13.9827 14.7072 6.85877C14.5272 3.43963 15.585 0.4105 18.3639 0.0371094L18.3853 0.593149C15.8162 1.06279 15.1823 3.68418 15.242 6.81546C15.5413 14.663 24.073 15.4756 24.0945 15.4756Z" fill="#2A2C37"/>
<path d="M22.9192 16.2661C28.473 11.2921 47.4912 11.1171 53.2354 16.2663C45.4517 11.6069 29.8052 12.1441 22.9192 16.2661Z" fill="#2A2C37"/>
<path d="M61.4689 40.1949C57.1982 35.6405 60.6292 20.5997 54.0486 18.2561C59.8839 21.7231 56.7546 35.8748 60.9781 40.4719C68.4201 49.5098 64.6737 56.7864 58.6004 61.5626C58.006 62.0301 53.5667 65.7014 45.6675 67.4107C39.6497 68.7096 30.4014 69.0766 20.3089 63.4348C20.1315 63.3368 19.6691 63.0702 19.647 63.0566C12.4473 58.3762 6.90923 50.5101 15.1759 40.4716C19.3993 35.8746 16.27 21.7229 22.1054 18.2559C15.5248 20.5995 18.9557 35.6403 14.685 40.1947C6.2517 50.5801 11.8327 58.6936 19.3182 63.3561C21.1066 64.482 23.3852 65.6015 25.7571 66.427C32.3808 68.8826 39.2411 69.2973 45.7913 67.8792C49.3502 67.108 54.2839 65.4409 58.9234 61.9236C65.2621 57.118 69.0942 49.5859 61.4689 40.1949Z" fill="#2A2C37"/>
<path d="M31.6163 38.3506C30.0783 34.933 25.413 34.9702 24.0354 38.3226C26.2924 36.2866 29.2487 36.2013 31.6163 38.3506Z" fill="#2A2C37"/>
<path d="M44.5371 38.3506C46.0751 34.933 50.7404 34.9702 52.118 38.3226C49.861 36.2866 46.9048 36.2013 44.5371 38.3506Z" fill="#2A2C37"/>
<path d="M54.9609 67.2809C54.8373 66.521 54.6475 65.809 54.4003 65.1469C52.8122 60.8734 48.8596 58.6229 45.0434 58.5217C45.0139 58.5199 44.9844 58.518 44.9548 58.5199C44.7188 58.5162 44.4808 58.5199 44.2448 58.5328C43.8998 58.5512 43.5569 58.5882 43.2193 58.6415C41.2181 58.9624 39.3717 59.9161 38.0789 61.5243C36.7859 59.9159 34.9396 58.9624 32.9385 58.6415C32.601 58.588 32.258 58.5512 31.9131 58.5328C31.677 58.5199 31.439 58.5162 31.203 58.5199C31.1735 58.5182 31.144 58.5199 31.1144 58.5217C27.2983 58.6232 23.3456 60.8734 21.7576 65.1469C21.5104 65.809 21.3205 66.521 21.1969 67.2809C21.0733 68.0426 21.0162 68.8543 21.0346 69.712C21.2835 80.9927 37.5555 89.337 38.0627 89.5954H38.0645C38.0719 89.5991 38.0756 89.6008 38.0756 89.6008C38.0756 89.6008 38.0774 89.6008 38.0794 89.5991C38.0811 89.6008 38.0831 89.6008 38.0831 89.6008C38.0831 89.6008 38.0868 89.5991 38.0942 89.5954H38.096C38.6032 89.337 54.875 80.9927 55.1241 69.712C55.1416 68.8543 55.0845 68.0426 54.9609 67.2809Z" fill="#F31E64"/>
<path d="M54.9736 67.2051C54.9698 67.2309 54.9644 67.255 54.9607 67.2808C54.7338 68.5755 54.3224 69.8225 53.7451 71.0158C50.7293 77.3201 44.4324 80.5349 38.0782 80.6456C31.724 80.5349 25.4271 77.3201 22.4113 71.0158C21.8341 69.8223 21.4226 68.5755 21.1958 67.2808C21.1921 67.255 21.1866 67.2309 21.1829 67.2051C21.0575 67.989 21.004 68.8172 21.0151 69.7099C21.2678 81.1695 38.0561 89.5987 38.0561 89.5987C38.0561 89.5987 38.0579 89.5987 38.0616 89.595H38.0633C38.0671 89.5932 38.0708 89.5913 38.078 89.5895C38.0854 89.5913 38.0892 89.5932 38.0927 89.595H38.0944C38.0981 89.5987 38.0999 89.5987 38.0999 89.5987C38.0999 89.5987 54.8883 81.1695 55.1409 69.7099C55.1525 68.8172 55.0989 67.989 54.9736 67.2051Z" fill="#B51465"/>
<path d="M44.2439 58.533C41.8527 58.6603 39.5834 59.6582 38.0781 61.5448C34.0143 56.4516 24.4002 57.8568 21.7197 65.2043C25.3688 59.1925 34.1871 58.3978 38.0783 63.3562C42.0246 58.3278 50.8383 59.2778 54.4368 65.2043C52.8188 60.7702 48.5302 58.2987 44.2439 58.533Z" fill="#F24684"/>
<path d="M48.8229 59.9255C47.3768 59.2692 45.79 59.5193 45.2683 60.5051C44.7283 61.493 45.4694 62.8212 46.9174 63.4958C48.3635 64.152 49.9503 63.902 50.472 62.9161C50.9937 61.9302 50.2506 60.5837 48.8229 59.9255Z" fill="#F24684"/>
<path d="M25.6845 62.916C26.2062 63.9017 27.7929 64.1519 29.239 63.4957C30.6871 62.8211 31.4282 61.4929 30.8881 60.5051C30.3664 59.5194 28.7796 59.2692 27.3336 59.9254C25.9058 60.5836 25.1628 61.9302 25.6845 62.916Z" fill="#F24684"/>
<path d="M38.081 89.8599H37.9694L37.939 89.8301C37.8968 89.8091 33.6663 87.6687 29.4632 84.1505C23.8716 79.4697 20.8604 74.4782 20.7554 69.7158C20.7495 69.2383 20.7982 68.5954 20.84 68.14C20.884 67.6642 20.9087 67.3943 20.9417 67.2399L20.9393 67.2394C21.059 66.5036 21.2305 65.785 21.4755 65.1154C22.9557 61.0578 26.736 58.3679 31.1062 58.2629C31.137 58.261 31.1766 58.2594 31.2164 58.2614C31.4267 58.2559 31.6653 58.2603 31.9254 58.2743C32.2749 58.2929 32.6291 58.3305 32.9773 58.3861C35.0193 58.7138 36.8177 59.6808 38.077 61.1217C39.3365 59.6808 41.1348 58.7136 43.1765 58.3861C43.5252 58.3308 43.8794 58.2931 44.2291 58.2743C44.489 58.2599 44.7276 58.2555 44.9591 58.2612C44.9777 58.259 45.0173 58.261 45.0568 58.2632C49.4181 58.3679 53.1984 61.058 54.6788 65.1154L54.7635 65.3475C54.8853 65.7686 55.1207 66.6591 55.215 67.2394L55.2126 67.2399C55.2456 67.3943 55.2703 67.6642 55.3143 68.14C55.356 68.5956 55.4048 69.2383 55.3989 69.7132C55.2939 74.4782 52.2827 79.4697 46.6911 84.1505C42.488 87.6687 38.2575 89.8091 38.2153 89.8301L38.1604 89.8579H38.1039C38.0969 89.8588 38.0902 89.8594 38.0832 89.8597L38.081 89.8599ZM21.4431 67.3683C21.4083 67.627 21.2635 68.9388 21.2731 69.7068C21.5065 80.2948 36.3247 88.3969 38.016 89.287L38.0775 89.2218L38.1387 89.287C39.83 88.3967 54.6482 80.2913 54.8816 69.7044C54.891 68.9373 54.7458 67.6224 54.7114 67.367L54.7042 67.3225C54.6073 66.7269 54.3188 65.7332 54.2241 65.4066C54.2133 65.3701 54.2022 65.3316 54.1939 65.2926L54.1926 65.2931C52.7858 61.4367 49.1917 58.8805 45.0358 58.7803C45.0074 58.779 44.9879 58.7763 44.9689 58.7783C44.7298 58.7731 44.5043 58.7776 44.2576 58.7912C43.9253 58.8089 43.5893 58.8446 43.2586 58.8971C41.2031 59.2269 39.4811 60.1914 38.2792 61.6867L38.0773 61.9378L37.8754 61.6867C36.6736 60.1914 34.9514 59.2269 32.8957 58.8971C32.5654 58.8446 32.2294 58.8089 31.8974 58.7912C31.6504 58.7776 31.4249 58.7739 31.207 58.7785C31.1663 58.7772 31.1473 58.779 31.1281 58.7798C27.1743 58.8752 23.7351 61.1836 22.1927 64.716L21.998 65.2375C21.7528 65.8944 21.5686 66.5959 21.4505 67.3223L21.4431 67.3683Z" fill="#2A2C37"/>
<path d="M56.8022 64.0487L55.9463 63.4931C56.0336 63.4382 56.1755 63.3577 56.4616 63.1689C56.4835 63.1794 56.8696 63.4257 57.3576 63.734L57.1085 63.9899L56.8022 64.0487Z" fill="#2A2C37"/>
<path d="M43.8027 68.5518L42.8102 73.0058L42.3262 76.0075L42.6893 79.2272C42.6893 79.2272 43.8755 82.3742 43.9481 82.4468C43.9864 82.4724 44.6262 84.1342 45.7786 84.0445C46.8152 83.964 52.5659 83.695 52.5659 83.695L58.3859 69.9038L54.9672 70.0547L52.6326 69.9373L49.2255 69.5446L43.8027 68.5518Z" fill="#BCBECD"/>
<path d="M25.0569 69.9223L21.2138 70.0767H18.8457L24.6159 83.778L30.9027 84.0685L32.7154 81.6234L33.7807 77.242L33.6595 73.4656L32.3282 68.5273L25.0569 69.9223Z" fill="#BCBECD"/>
<path d="M43.657 68.1888C48.9554 69.2466 52.2721 69.8902 57.1345 70.0289C52.6422 70.5444 49.96 70.0304 44.0203 68.8424C40.5828 78.6464 44.7466 83.173 45.3033 83.7297C48.1141 83.9821 50.1151 83.7067 50.9676 83.5845C54.8408 82.9551 57.5276 81.3089 59.2465 79.7838C62.3935 77.0242 63.87 73.4174 63.9426 71.2144C64.0153 69.1327 60.6263 66.47 57.2857 64.3396C57.1162 64.2427 56.9709 64.146 56.8016 64.0491C56.9952 63.9522 57.1647 63.8313 57.3583 63.7344C57.5278 63.8313 57.6731 63.928 57.8424 64.0249C61.2073 66.2035 64.5719 68.9632 64.4993 71.2385C64.4267 73.6108 62.8774 77.3145 59.6096 80.1951C57.8183 81.7928 55.0344 83.5114 51.0161 84.1407C47.7449 84.5511 46.1299 84.3376 45.0611 84.2619C44.5591 83.9277 39.8231 79.6907 43.657 68.1888Z" fill="#2A2C37"/>
<path d="M31.0938 84.262C30.5677 84.262 27.131 84.7445 23.4216 83.7805C20.3253 82.9758 18.0671 81.5341 16.5457 80.1962C13.2521 77.3146 11.7279 73.636 11.656 71.2384C11.593 68.6898 15.7443 65.5808 19.4456 63.3565C19.5851 63.2731 19.5396 63.3663 19.6792 63.2852C19.8706 63.3954 19.9913 63.4777 20.1827 63.5835C20.0364 63.669 20.1436 63.6065 19.9972 63.692C16.3545 65.8532 12.1718 68.8676 12.237 71.2631C12.3089 73.4671 13.7859 77.0737 16.9331 79.8338C18.4122 81.1276 20.5546 82.5088 23.5367 83.2825C27.1656 84.2239 30.4736 83.8193 30.8754 83.7781C31.4315 83.2221 35.5965 78.6946 32.1586 68.8904C26.4825 70.0329 23.4667 70.6106 19.7402 70.0294C22.9658 70.1816 30.6237 68.6266 32.5208 68.2372C36.3039 79.3418 31.7498 83.8313 31.0938 84.262Z" fill="#2D2D39"/>
</svg>
