<svg width="71" height="78" viewBox="0 0 71 78" fill="none" xmlns="http://www.w3.org/2000/svg">
<path d="M32.5727 28.8276C32.2479 28.0189 31.6669 27.4101 31.3093 26.6343C30.9114 25.771 30.4423 24.9427 29.9569 24.1261C28.9894 22.4982 27.9911 20.89 27.1055 19.2149C25.3408 15.8774 24.0154 12.3218 22.056 9.08456C20.4025 6.35287 18.383 3.54702 15.7077 1.73497C14.3928 0.844562 12.699 -0.00405654 11.0648 0.34494C9.70551 0.635303 9.35816 1.88032 9.27178 3.11081C9.13733 5.02262 9.19812 6.99536 9.73095 8.84655C10.3024 10.8322 11.8395 12.0348 12.9291 13.7343C12.0053 13.2121 5.83119 8.90255 4.90428 8.41844C4.19423 8.04764 1.90337 7.19472 1.29473 7.90874C0.0348397 9.38681 -0.0130591 11.5991 0.00180588 12.6801C0.0292235 14.6607 0.83937 16.5899 1.94879 18.1728C4.14088 21.3011 7.47164 23.4189 10.8414 25.0866C14.5702 26.932 18.4811 28.5357 22.4958 29.6402C23.6162 29.9484 24.7482 30.2141 25.8905 30.4275C27.0658 30.6472 31.2875 31.7329 32.1376 31.2945C33.0944 30.8012 32.9055 29.6561 32.5727 28.8276Z" fill="#B1E5E2"/>
<path d="M22.8162 13.813C22.4732 12.9761 22.3052 12.0816 21.9889 11.2356C21.6574 10.3495 21.2006 9.50698 20.7546 8.67454C19.9235 7.1233 19.0166 5.61087 17.9034 4.24329C17.3927 3.61582 16.8656 2.97216 16.1805 2.52902C15.4264 2.04129 14.5862 1.63498 13.7393 1.33619C13.0331 1.08679 12.1055 0.817404 11.3639 1.07556C11.0371 1.18936 10.7761 1.43562 10.6933 1.77851C10.6537 1.94285 10.6592 2.11644 10.697 2.28045C10.7039 2.31084 10.8598 2.69749 10.8818 2.63275C11.0027 2.27681 11.1216 1.9843 11.5055 1.85977C11.8639 1.74349 12.2666 1.80757 12.6266 1.87925C13.3821 2.02989 14.0966 2.33875 14.7822 2.68263C15.5299 3.05772 16.1663 3.46188 16.7175 4.09943C17.2229 4.68411 17.701 5.29193 18.1437 5.92567C19.0714 7.25378 19.8513 8.67339 20.5649 10.1257C20.9064 10.8207 21.2429 11.519 21.6208 12.1954C21.8097 12.5335 22.0086 12.866 22.2223 13.189C22.343 13.3714 22.4626 13.5699 22.6063 13.7352C22.5516 13.6722 22.9112 14.0448 22.8162 13.813Z" fill="#E9FFFD"/>
<path d="M18.0346 19.4751C17.0687 18.4641 16.1979 17.36 15.1519 16.4274C14.0243 15.4221 12.7947 14.5174 11.5851 13.6143C10.406 12.734 9.20659 11.8809 7.94934 11.1148C6.78921 10.4079 5.59208 9.62784 4.298 9.19213C2.86865 8.71084 1.28289 9.07107 0.935548 10.7208C0.934887 10.7239 1.31328 10.4862 1.36003 10.4542C1.53428 10.3349 1.71051 10.2182 1.89599 10.1167C2.28281 9.90549 2.68565 9.75503 3.13226 9.77336C3.93332 9.80623 4.739 10.2257 5.43352 10.5939C6.97089 11.4092 8.45888 12.3493 9.88031 13.3515C11.3313 14.3746 12.7174 15.482 14.0967 16.5987C14.7715 17.1452 15.4735 17.6551 16.1731 18.1691C16.5461 18.4429 16.918 18.7181 17.2829 19.0027C17.4644 19.1442 17.6377 19.3038 17.8248 19.4373C17.7371 19.3745 18.195 19.6427 18.0346 19.4751Z" fill="#E9FFFD"/>
<path d="M12.2403 2.94213C11.7488 2.13843 10.481 3.07476 11.1117 3.82677C11.6953 4.52245 12.6848 3.66886 12.2403 2.94213Z" fill="#987B8B"/>
<path d="M3.19149 11.1413C2.69995 10.3376 1.43214 11.274 2.06291 12.026C2.64645 12.7217 3.63612 11.8682 3.19149 11.1413Z" fill="#987B8B"/>
<path d="M70.2901 17.5341C70.059 16.246 69.3718 14.9524 68.2983 14.1748C66.9552 13.2019 65.4056 13.4882 63.9931 14.1571C62.2759 14.9704 60.5922 15.8861 58.9146 16.778C57.2302 17.6735 55.6393 18.6866 54.1117 19.8291C56.5405 17.4745 58.939 15.2026 60.4998 12.152C61.2449 10.6959 61.8146 9.1202 61.9644 7.48257C62.1158 5.82645 61.8408 4.12804 61.3562 2.54574C60.96 1.25232 60.1981 -0.105349 58.6455 0.00646849C57.2778 0.104908 56.0772 1.12944 55.1549 2.05817C54.024 3.19715 53.1052 4.5208 52.1849 5.82925C51.1567 7.29098 50.0884 8.7228 49.0224 10.1569C46.8771 13.0431 44.8313 15.9964 42.8551 19.0006C41.858 20.5165 40.8753 22.042 39.8978 23.5708C39.4178 24.3213 38.2889 28.7846 39.2386 29.1724C40.439 29.6628 41.7551 29.752 43.0379 29.7483C44.8343 29.7434 46.6366 29.5964 48.4319 29.527C50.2456 29.4568 52.0593 29.3169 53.8516 29.0218C55.6281 28.7293 57.3689 28.2584 59.11 27.8073C60.7828 27.3737 62.4741 26.9795 64.0643 26.2884C66.7446 25.1237 69.9307 22.9901 70.3497 19.8525C70.4518 19.0847 70.4268 18.2962 70.2901 17.5341Z" fill="#B1E5E2"/>
<path d="M59.0496 2.86117C56.1699 1.80526 53.7007 5.19909 52.2971 7.19265C51.4168 8.44296 50.4998 9.66636 49.6643 10.9477C49.4419 11.2891 46.9231 14.7056 46.9812 14.7629C47.1982 14.9761 48.7188 13.3101 48.8813 13.123C49.4528 12.4646 49.9927 11.776 50.5308 11.0904C51.5948 9.7349 52.5349 8.29812 53.558 6.91369C54.4768 5.67032 55.6411 4.2555 57.1454 3.71062C58.0167 3.39515 58.6175 3.53025 59.4452 3.7894C59.7033 3.87314 59.872 4.1445 59.9468 3.97967C59.9876 3.88982 59.827 3.57006 59.7839 3.48582C59.6275 3.1796 59.37 2.9786 59.0496 2.86117Z" fill="#E9FFFD"/>
<path d="M67.7417 15.3956C66.1733 14.4251 63.9602 15.1254 62.3944 15.7384C60.557 16.4578 58.8871 17.5074 57.2032 18.5217C55.5068 19.5438 53.7653 20.5051 51.9957 21.3946C51.1178 21.836 47.3169 24.4639 47.325 24.4925C47.4285 24.8565 51.5384 22.6251 51.8935 22.4439C53.5294 21.6092 55.1633 20.7688 56.7398 19.8252C58.2076 18.9464 59.6361 17.9972 61.1662 17.2272C62.6151 16.4981 64.2981 15.8085 65.9482 15.8229C66.7543 15.83 67.525 16.1821 68.148 16.6867C68.2488 16.7683 68.4106 17.0258 68.5218 16.8555C68.5817 16.7635 68.4471 16.4145 68.4199 16.3275C68.2996 15.9431 68.0902 15.6112 67.7417 15.3956Z" fill="#E9FFFD"/>
<path d="M58.9556 4.38035C58.5572 4.22345 57.9601 4.30373 57.7986 4.75034C57.6384 5.19381 57.8174 5.62191 58.2702 5.76875C59.1678 6.05993 59.8954 4.75066 58.9556 4.38035Z" fill="#987B8B"/>
<path d="M67.1626 17.1108C66.7642 16.9539 66.1672 17.0342 66.0056 17.4808C65.8454 17.9243 66.0245 18.3524 66.4772 18.4992C67.3747 18.7904 68.1023 17.4811 67.1626 17.1108Z" fill="#987B8B"/>
<path d="M57.5205 71.6609C56.1944 69.3061 52.9677 71.5781 49.1184 69.5501C38.6326 64.0252 39.0429 48.417 38.951 46.9186C38.8618 45.4627 38.8983 44.0695 39.6233 42.7683C40.2884 41.5743 40.9152 40.4538 41.2754 39.1221C42.0623 36.2142 41.8096 33.2425 41.6784 30.2728C41.5489 27.3388 41.5668 24.4172 41.0579 21.5137C40.6318 19.0821 39.9818 16.5267 38.5976 14.4462C37.3225 12.5298 35.2921 11.1835 32.9162 11.5383C31.7387 11.7142 30.7576 12.2773 29.8294 12.9937C29.0206 13.6181 28.5702 14.5755 28.3127 15.5419C27.6642 17.9763 27.8023 20.6758 27.9481 23.1616C28.1244 26.1621 28.3363 29.1669 28.6086 32.1602C28.8615 34.9409 28.8663 37.9583 29.9272 40.581C30.1756 41.1949 31.7574 43.222 32.1657 43.699C33.0946 44.784 32.8571 46.138 32.8277 47.4627C32.7616 50.4489 33.044 53.5063 33.4997 56.4557C33.9288 59.2326 34.6187 61.9726 35.6437 64.5911C37.3327 68.9053 40.0169 73.079 44.1434 75.4024C46.5545 76.7599 49.3099 77.3121 52.0624 77.1284C53.9866 77.0001 56.3761 76.5292 57.3403 74.6395C57.8834 73.5762 58.1118 72.7105 57.5205 71.6609Z" fill="#987B8B"/>
<path d="M51.8272 31.1629C51.2939 30.5622 50.6293 30.9538 50.4155 31.5955C50.3204 31.8809 50.3688 32.1785 50.2976 32.4563C50.2233 32.7464 49.7147 32.8497 49.4108 32.8816C48.0436 33.025 46.9733 31.7499 46.296 30.7305C45.357 29.3173 44.6261 27.8003 43.6004 26.4377C43.038 25.6904 42.3016 24.6534 41.396 24.2667C41.2665 24.2114 41.0992 24.147 40.9586 24.2036C40.8468 24.2487 40.635 24.4948 40.7926 24.5814C40.8095 24.5906 41.0603 24.5065 41.296 24.6666C41.9187 25.1067 42.3823 25.8568 42.8093 26.4722C43.3124 27.1974 43.7856 27.9448 44.2335 28.7052C44.7295 29.5471 45.1338 30.4388 45.67 31.2579C46.4672 32.476 47.6348 33.701 49.1978 33.6911C49.8953 33.6868 50.589 33.4481 51.14 33.0202C51.6384 32.6329 52.3871 31.7937 51.8272 31.1629Z" fill="#56424F"/>
<path d="M49.2687 39.6406C48.7372 39.4919 47.1286 41.0795 47.0667 41.34C46.1396 40.7626 45.584 39.6029 45.1612 38.6397C44.6239 37.4156 44.2057 36.1164 43.874 34.8225C43.5496 33.5567 43.3376 32.2406 42.8642 31.0182C42.6614 30.4943 42.3925 29.9886 42.019 29.5651C41.8473 29.3704 41.6496 29.1847 41.4155 29.0671C41.3146 29.0164 40.8343 28.8237 40.7585 28.9722C40.7354 29.0174 41.3101 29.5281 41.3737 29.6018C41.5825 29.8432 41.7591 30.1108 41.8976 30.3985C42.2306 31.0897 42.4161 31.8636 42.5829 32.6088C42.7573 33.3877 42.8715 34.1805 43.0667 34.9548C43.2618 35.7293 43.5306 36.4876 43.7855 37.2439C44.2399 38.5921 44.754 39.9613 45.6431 41.0904C46.3925 42.0421 47.6998 42.7736 48.8592 42.055C49.5584 41.6219 50.5664 40.0036 49.2687 39.6406Z" fill="#56424F"/>
<path d="M33.5687 21.5922C32.7997 21.6829 31.9264 21.6068 31.1835 21.8405C30.9738 21.9066 30.5635 22.113 30.711 22.4007C30.7706 22.517 31.2435 22.957 31.4022 23.0839C31.9425 23.5159 32.7273 23.5386 33.2828 23.121C33.5604 22.9123 33.7699 22.609 33.8967 22.2879C33.9983 22.0311 33.9806 21.5437 33.5687 21.5922Z" fill="#56424F"/>
<path d="M32.3957 17.2801C32.4208 16.6843 32.3645 16.0702 32.181 15.5009C32.0895 15.2168 31.9648 14.9391 31.7884 14.697C31.7256 14.611 31.6389 14.4648 31.5449 14.4179C31.5357 14.4133 31.3791 14.3559 31.3844 14.3692C31.3996 14.4081 31.3383 14.4762 31.322 14.5186C31.2704 14.6519 31.3398 14.8794 31.3624 15.0123C31.4406 15.4721 31.5331 15.9252 31.5694 16.3913C31.6437 17.3448 31.4923 18.3006 31.2417 19.2191C31.1943 19.3932 30.787 20.3171 30.8813 20.4367C30.9594 20.5358 31.4315 19.768 31.4954 19.6692C31.9633 18.9443 32.3587 18.1584 32.3957 17.2801Z" fill="#725767"/>
<path d="M55.3437 74.0752C53.8412 73.7784 52.282 74.2587 50.7613 74.1365C49.2153 74.0121 47.6681 73.6301 46.2025 73.1161C44.8326 72.6356 43.4913 71.9997 42.3322 71.0991C41.1836 70.2065 40.2967 69.0466 39.5359 67.7987C37.8625 65.0532 36.7648 61.9679 36.2065 58.7879C35.619 55.4411 35.4808 52.0448 35.2356 48.6601C35.176 47.8367 35.1086 47.014 35.0237 46.193C34.9453 45.4332 34.9431 43.809 34.9223 43.753C35.4312 43.8608 35.6724 43.8521 36.1878 43.8455C36.9894 43.8352 37.8307 43.6705 38.5059 43.1599C38.8137 42.9271 39.1078 42.61 39.2867 42.2412C39.4836 41.8352 36.425 42.3015 35.4606 42.1077C34.573 41.9295 33.7586 41.1176 33.0807 40.4108C31.7891 39.064 31.874 36.7018 31.548 34.8799C31.1085 32.4242 30.6814 19.7739 29.9695 19.1778C29.853 19.0802 28.5504 19.1147 28.4795 21.8129C28.245 22.9858 28.6921 28.2747 28.7638 29.5202C28.8336 30.7359 28.9919 31.9454 29.1516 33.1498C29.5508 36.1599 29.8359 39.8238 31.8407 42.1173C32.2828 42.6231 32.8037 43.0005 33.3684 43.2717C33.3486 43.3234 33.1835 47.2466 33.3313 48.632C33.5083 50.2889 33.6426 51.9513 33.8876 53.5997C34.3705 56.8495 35.0797 60.116 36.1059 63.2319C36.6006 64.7341 37.1869 66.2087 37.8988 67.6164C38.5674 68.9387 39.3346 70.2348 40.4442 71.2147C40.9912 71.6978 41.5733 72.1588 42.1408 72.616C42.7055 73.071 43.3146 73.4656 43.9464 73.8143C45.2885 74.5547 46.7425 75.1354 48.1982 75.5901C49.7031 76.0602 51.2413 76.3174 52.8165 76.2411C53.6833 76.1991 55.8901 76.244 56.077 75.0279C56.1507 74.5483 55.7804 74.1616 55.3437 74.0752Z" fill="#725767"/>
<path d="M25.7068 23.082C28.6968 23.082 31.1206 20.3518 31.1206 16.9839C31.1206 13.616 28.6968 10.8857 25.7068 10.8857C22.7168 10.8857 20.293 13.616 20.293 16.9839C20.293 20.3518 22.7168 23.082 25.7068 23.082Z" fill="#EFBFA6"/>
<path d="M31.1048 16.7367C30.4773 18.6351 20.6127 14.0418 21.8822 12.6069C23.6734 10.5819 25.8113 10.4206 27.7514 11.2172C29.0276 11.7411 31.7326 14.8383 31.1048 16.7367Z" fill="#D09084"/>
<path d="M30.0766 16.8534C29.3055 16.8998 28.839 16.7168 28.0781 16.6194C27.4392 16.5376 26.2937 16.1564 26.2031 16.1186C25.5119 15.8297 24.8546 15.45 24.2446 15.0079C23.9394 14.7867 22.7464 13.9557 22.5041 13.7329C21.9765 13.3486 21.7977 12.7373 21.7977 12.7373C21.7977 12.7373 21.4402 13.2893 22.0482 14.0576C21.2962 14.3361 19.5098 13.7671 19.5098 13.7671C19.5098 13.7671 20.6288 14.4593 20.8836 14.5469C21.1097 14.6245 21.3872 14.6942 21.6254 14.72C22.0061 14.7613 22.2661 14.7139 22.6261 14.6404C22.7903 14.7114 23.0311 14.8329 23.1112 14.9059C23.1816 14.9702 23.5986 15.248 23.6041 15.3317C23.6166 15.5237 23.2673 15.7334 23.1381 15.7924C22.5784 16.0479 21.8256 16.1369 21.246 16.1098C21.0316 16.0998 20.2983 15.9533 20.2983 15.9533C20.2983 15.9533 20.6088 16.3596 21.0866 16.4902C21.9742 16.7329 23.6759 17.0435 24.2198 15.8025C24.8341 16.2392 25.4926 16.6123 26.1891 16.8901C25.8778 17.1762 25.5861 17.4523 25.1998 17.5874C25.0078 17.6545 24.7913 17.6822 24.5939 17.725C24.4745 17.7509 23.9901 17.7896 23.9901 17.7896C23.9901 17.7896 24.6811 18.1141 24.9713 18.0894C25.4227 18.0509 25.6588 18.0139 26.072 17.8078C26.2616 17.7133 26.4454 17.6034 26.6131 17.4688C26.7465 17.3618 26.8693 17.1791 27.012 17.1659C27.1743 17.1511 27.4102 17.2642 27.5732 17.2943C27.7854 17.3336 27.9998 17.363 28.2154 17.381C27.9754 17.852 27.5853 18.3277 27.138 18.5138C26.8532 18.6324 25.9204 18.955 25.9204 18.955C25.9204 18.955 27.5641 19.1803 28.6917 17.91C28.8795 17.6984 28.9181 17.4543 29.0559 17.3929C29.2911 17.2878 29.7316 17.3682 29.9912 17.3205C31.1993 17.0982 31.1109 16.7006 31.1109 16.7006C31.1109 16.7006 30.514 16.8272 30.0766 16.8534Z" fill="#56424F"/>
<path d="M29.7977 19.7641C29.6851 19.9341 28.8746 21.4495 26.2697 22.3112C26.0266 22.3916 27.1844 22.4208 27.357 22.3885C28.771 22.1237 29.3929 21.1738 29.5822 20.8873C29.8539 20.476 29.8998 19.6105 29.7977 19.7641Z" fill="#FCD9CA"/>
<path d="M39.9916 22.706C42.9225 22.1158 44.7595 18.9611 44.0948 15.6597C43.43 12.3584 40.5151 10.1605 37.5842 10.7507C34.6533 11.3409 32.8163 14.4956 33.481 17.797C34.1458 21.0984 37.0607 23.2962 39.9916 22.706Z" fill="#EFBFA6"/>
<path d="M44.0345 15.4221C43.7942 17.4071 33.3447 15.4938 34.1782 13.1942C35.5345 10.8554 37.5984 10.2753 39.6576 10.6731C41.0119 10.9349 44.2748 13.4371 44.0345 15.4221Z" fill="#D09084"/>
<path d="M43.0502 15.7396C42.3034 15.9373 41.81 15.8501 41.0448 15.9047C40.4025 15.9506 39.2042 15.8031 39.1079 15.784C38.3732 15.6373 37.6538 15.3949 36.9686 15.0819C36.6258 14.9253 35.2922 14.3462 35.0106 14.1756C34.4175 13.9029 34.1215 13.3389 34.1215 13.3389C34.1215 13.3389 33.8802 13.9506 34.6279 14.5837C33.9456 15.0052 32.082 14.8001 32.082 14.8001C32.082 14.8001 33.3157 15.2578 33.5827 15.2933C33.8197 15.3247 34.1055 15.3382 34.344 15.3166C34.7254 15.2819 34.9708 15.1841 35.3094 15.0411C35.4843 15.0782 35.7444 15.1499 35.8374 15.2056C35.9192 15.2546 36.3828 15.4447 36.4048 15.5258C36.455 15.7116 36.154 15.986 36.0389 16.0694C35.5408 16.4305 34.8202 16.6663 34.2467 16.7542C34.0346 16.7867 33.2868 16.7879 33.2868 16.7879C33.2868 16.7879 33.6713 17.1248 34.1656 17.1587C35.0836 17.2213 36.8132 17.1899 37.1014 15.8659C37.7899 16.1728 38.509 16.4085 39.2466 16.5433C38.9979 16.885 38.7665 17.2135 38.4145 17.4221C38.2396 17.5258 38.0327 17.5957 37.8478 17.6766C37.736 17.7255 37.2686 17.8591 37.2686 17.8591C37.2686 17.8591 38.0102 18.0408 38.2898 17.9592C38.7247 17.8324 38.9488 17.7495 39.3133 17.4659C39.4805 17.3357 39.6391 17.1919 39.777 17.0269C39.8866 16.8956 39.9709 16.6922 40.1081 16.6513C40.2644 16.6045 40.5179 16.669 40.6837 16.6663C40.8996 16.6628 41.1155 16.6495 41.3304 16.6245C41.1882 17.1336 40.8994 17.677 40.4979 17.9478C40.2421 18.1203 39.3913 18.6207 39.3913 18.6207C39.3913 18.6207 41.0473 18.5172 41.9017 17.0492C42.0441 16.8047 42.0338 16.5576 42.1565 16.4703C42.3665 16.3208 42.8141 16.3127 43.0592 16.2146C44.1995 15.7582 44.0345 15.3858 44.0345 15.3858C44.0345 15.3858 43.4739 15.6274 43.0502 15.7396Z" fill="#56424F"/>
<path d="M43.3515 18.6481C43.2745 18.8369 42.7794 20.4826 40.3958 21.8415C40.1734 21.9683 41.3142 21.7685 41.477 21.7027C42.8109 21.1641 43.2331 20.11 43.3621 19.7918C43.5471 19.3349 43.421 18.4774 43.3515 18.6481Z" fill="#FCD9CA"/>
<path d="M42.4167 9.11213C41.8475 8.68468 41.0835 8.88899 40.4502 9.01947C39.8345 9.14648 39.2645 9.31743 38.9763 8.6376C38.469 7.44113 37.8662 6.1938 36.6109 5.6357C35.2841 5.04573 33.7382 5.25219 32.4801 5.91335C31.8444 6.24748 31.2354 6.68253 30.8266 7.28175C30.6436 7.54998 30.5016 7.84266 30.3696 8.13847C30.2345 8.44106 30.1638 8.74364 29.8402 8.88337C29.4589 9.04805 29.1791 9.00411 28.782 8.99287C28.3594 8.98098 27.9369 9.03649 27.5268 9.13707C26.8884 9.29365 26.1266 9.5452 25.7109 10.0894C24.6583 11.4676 26.8778 12.7372 27.9316 13.0779C29.5091 13.588 31.2594 13.5817 32.8925 13.4268C34.5498 13.2695 36.233 12.9861 37.8596 12.6307C39.1409 12.3505 40.3625 11.881 41.4797 11.1914C42.128 10.7917 43.4143 9.86116 42.4167 9.11213Z" fill="#EFBFA6"/>
<path d="M38.877 8.81678C37.6214 9.27115 36.2803 9.6621 34.9431 9.57588C34.4505 9.54417 33.7269 9.43929 33.2461 9.34829C33.001 9.30187 32.6608 9.02572 32.7579 9.45598C32.3093 9.35457 32.3348 9.70686 32.5782 9.9594C32.7873 10.1763 33.1125 10.2769 33.3963 10.348C33.6956 10.4232 34.0054 10.4926 34.3135 10.4822C35.3983 10.4453 36.7612 10.1966 37.2443 10.1107C37.7681 10.0175 38.2846 9.88508 38.7896 9.71843C39.0711 9.62544 39.7317 9.39833 39.6407 8.99681C39.5852 8.75022 39.1127 8.67606 38.877 8.81678Z" fill="#56424F"/>
<path d="M35.1329 19.2701C35.1226 19.2659 35.1033 19.258 35.0723 19.2451C35.0916 19.255 35.1122 19.2631 35.1329 19.2701Z" fill="#FCD9CA"/>
<path d="M35.1349 19.2701C35.1344 19.2699 35.1336 19.2697 35.1328 19.2695C35.1439 19.2742 35.145 19.2744 35.1349 19.2701Z" fill="#FCD9CA"/>
<path d="M33.2449 8.9557C33.1895 7.84099 32.0634 7.4725 31.1241 7.7627C31.4842 7.06768 31.1568 5.97989 30.2235 6.05983C29.8325 6.09336 29.3707 6.33252 29.252 6.69936C29.123 7.09807 29.0605 7.53526 29.1202 7.97444C28.3817 7.68507 27.6355 8.42436 27.9448 9.17735C28.1909 9.77674 29.0321 9.83505 29.5709 9.6935C29.4949 10.2052 29.4992 11.0677 30.0841 11.2938C30.8423 11.5868 31.4135 10.7846 31.3778 10.114C32.3269 10.5002 33.3 10.0679 33.2449 8.9557Z" fill="#B1E5E2"/>
<path d="M30.9528 8.4822C30.6104 7.54307 29.3714 8.22124 29.7293 9.09547C30.0768 9.94409 31.177 9.26526 30.9528 8.4822Z" fill="#774B62"/>
<path d="M30.4135 8.40633C30.0558 8.01538 29.4881 8.66613 29.9227 9.00621C30.33 9.32498 30.7422 8.7654 30.4135 8.40633Z" fill="#FCD9CA"/>
<path d="M35.9973 18.1261C35.2418 17.1112 33.9849 18.3826 34.7356 19.3132C35.4642 20.2165 36.5528 18.9946 35.9973 18.1261Z" fill="#56424F"/>
<path d="M35.2854 18.3926C34.8306 18.1204 34.4731 18.9064 34.9867 19.1079C35.4684 19.2967 35.7032 18.6425 35.2854 18.3926Z" fill="#FCD9CA"/>
<path d="M22.9045 18.2384C22.1491 17.2235 20.8922 18.4949 21.6428 19.4255C22.3717 20.3288 23.46 19.1069 22.9045 18.2384Z" fill="#56424F"/>
<path d="M22.1936 18.5049C21.7389 18.2327 21.3813 19.0187 21.8949 19.2202C22.3761 19.409 22.6111 18.7548 22.1936 18.5049Z" fill="#FCD9CA"/>
<path d="M16.298 21.3985C16.298 16.9791 14.2597 13.3965 11.7452 13.3965C9.2307 13.3965 7.19238 16.9791 7.19238 21.3985C7.19238 25.3369 8.81119 28.6106 10.9432 29.2768C10.8135 30.8021 10.2498 39.484 11.221 39.5134C12.1281 39.541 12.4914 30.6571 12.5834 29.2647C14.6972 28.5731 16.298 25.3146 16.298 21.3985Z" fill="#987B8B"/>
<path d="M11.4894 29.0484L11.1376 28.8896C11.1376 28.8896 10.8737 39.089 11.1101 39.2923C11.7372 39.8319 11.4894 29.0484 11.4894 29.0484Z" fill="#725767"/>
<path d="M8.39131 21.3569C8.56886 15.3015 11.4888 13.8652 11.2057 13.8652C9.23993 13.8652 7.67383 17.3651 7.67383 21.2739C7.67383 25.1828 9.5123 29.0449 11.4783 29.0449C11.578 29.045 8.23952 26.5305 8.39131 21.3569Z" fill="#725767"/>
<path d="M12.3525 14.3623C12.2529 14.3623 12.1544 14.3725 12.0568 14.3886C10.2294 14.6875 8.79297 17.7292 8.79297 21.44C8.79297 24.7861 9.96119 27.588 11.5306 28.326C11.7945 28.4502 12.0695 28.5177 12.3525 28.5177C14.3183 28.5177 15.912 25.349 15.912 21.44C15.912 17.531 14.3183 14.3623 12.3525 14.3623Z" fill="#EFBFA6"/>
<path d="M28.0519 24.3623C27.4959 25.6638 26.1927 27.28 25.1595 28.2112C24.0297 29.2293 22.8744 30.2343 21.5096 30.9278C20.1475 31.6199 18.6489 32.2224 17.19 32.6753C15.6939 33.1397 13.9078 33.1072 12.3652 32.8395C12.3541 33.0266 12.3135 33.6466 12.3135 33.6466C12.3135 33.6466 12.6136 33.7475 12.9634 33.8101C13.415 33.8911 13.8778 33.9008 14.3364 33.9074C15.2602 33.9208 16.1754 33.8154 17.0665 33.5687C18.693 33.1181 20.3196 32.3859 21.8096 31.5989C23.3154 30.8035 24.5872 29.701 25.7635 28.4806C26.3108 27.9127 27.7466 26.0529 27.8636 25.6934C27.9143 25.5375 28.317 24.5702 28.3003 24.4039C28.2994 24.3973 28.1567 24.1167 28.0519 24.3623Z" fill="#56424F"/>
<path d="M28.4972 27.8498C27.6003 28.909 26.908 30.7919 26.1703 31.955C25.4634 33.0699 24.5515 34.0521 23.4713 34.8136C22.3429 35.6088 21.0664 36.1945 19.7176 36.4953C19.3893 36.5685 19.0578 36.6281 18.7236 36.6671C18.4916 36.6941 17.7738 36.8327 17.6071 36.6745C17.5207 36.5924 17.4614 36.3248 17.3879 36.212C17.2558 36.0092 17.0948 35.8234 16.9141 35.6625C16.6457 35.4235 16.2494 35.153 15.8689 35.2559C15.4618 35.3659 15.2257 35.9066 15.2687 36.2987C15.3594 37.1271 16.5152 37.4011 17.1848 37.4836C19.5789 37.7785 22.0877 36.8615 23.9964 35.4551C25.1432 34.6099 26.0825 33.5527 26.7752 32.3072C27.1422 31.6473 27.4492 30.9563 27.7426 30.2612C27.8943 29.9018 28.3477 28.8514 28.4054 28.6819C28.4158 28.6515 28.6709 27.6447 28.4972 27.8498Z" fill="#56424F"/>
<path d="M10.7636 32.1797C10.7636 32.1797 10.6328 32.0722 10.5301 31.9039C10.9002 32.0515 11.4048 31.6518 11.6395 31.4031C11.9254 31.1002 12.1418 30.6818 12.1196 30.2549C12.0775 29.4393 11.1331 29.2454 10.4977 29.5134C9.77211 29.8196 9.45267 30.656 9.52584 31.4001C9.60545 32.2089 10.0144 32.7845 10.7221 33.1473C10.7294 32.8538 10.7636 32.1797 10.7636 32.1797Z" fill="#56424F"/>
</svg>
