<svg width="102" height="111" viewBox="0 0 102 111" fill="none" xmlns="http://www.w3.org/2000/svg">
<path d="M101.218 72.285C100.262 87.9998 73.8702 104.306 51.6 94.6156L50.0319 90.1126C50.0319 90.1126 51.2628 74.5305 66.4413 71.3089C81.6197 68.0878 87.5789 52.2396 79.8922 46.6491C79.8922 46.6491 79.8981 46.6467 79.9064 46.6509C80.3633 46.693 91.6676 47.8451 90.7081 60.5498C90.826 60.2339 92.8387 54.2695 89.502 48.5385C89.5044 48.5444 89.5121 48.5486 89.5204 48.5521C90.0911 48.9237 102.15 56.9406 101.218 72.285Z" fill="#AAE6F9"/>
<path opacity="0.5" d="M51.0503 93.0369C51.0503 93.0369 60.2128 88.1173 68.4791 83.8235C76.746 79.5297 87.7107 71.6077 90.4346 63.585C90.4346 63.585 89.0626 77.4803 70.3543 85.7176C61.2517 89.7246 51.0503 93.0369 51.0503 93.0369Z" fill="#6AC4D8"/>
<path opacity="0.4" d="M86.4613 57.3293C86.2326 65.6828 79.8823 73.4324 74.642 75.2583C60.3188 80.2491 51.2968 92.8033 51.0497 93.0368L50.0315 90.1126C50.0315 90.1126 51.2624 74.5305 66.4409 71.3089C81.6194 68.0878 87.5785 52.2396 79.8918 46.6491C79.8918 46.6491 79.8977 46.6467 79.906 46.6509C80.2219 46.7694 86.6806 49.1797 86.4613 57.3293Z" fill="#EEFCFF"/>
<path d="M101.218 72.2849C100.262 87.9997 73.8702 104.306 51.6 94.6155L51.05 93.0367C56.8266 93.8747 73.258 95.0979 86.8553 84.7768C103.644 72.03 93.602 52.6698 89.5198 48.5532C90.0911 48.9236 102.15 56.9405 101.218 72.2849Z" fill="#6AC4D8"/>
<path d="M49.0272 90.4433C49.0272 90.4433 49.5766 85.2386 50.9385 85.2623C52.3004 85.2866 51.5252 89.7517 51.5252 89.7517C51.5252 89.7517 52.8972 85.6606 54.0725 86.3587C55.2477 87.0568 52.8433 90.841 52.8433 90.841C52.8433 90.841 55.8961 89.3949 55.998 91.4567C56.0999 93.5186 52.2779 92.3724 52.2779 92.3724C52.2779 92.3724 55.7544 94.2778 55.2892 95.5383C54.8239 96.7995 50.6588 95.1258 50.6588 95.1258L49.0272 90.4433Z" fill="#FFFDCF"/>
<path d="M30.5126 62.6074H39.2573H48.1406C48.1406 62.6074 61.8143 86.2359 55.1363 96.7609C51.8346 101.964 39.2573 101.057 39.2573 101.057C39.2573 101.057 26.68 101.965 23.3783 96.7609C16.7008 86.2359 30.5126 62.6074 30.5126 62.6074Z" fill="#FFFDCF"/>
<path opacity="0.5" d="M43.1458 62.6074H48.1413C48.1413 62.6074 53.4272 71.9447 55.8203 81.5931C48.1976 80.5672 43.4741 71.1268 43.1458 62.6074Z" fill="#D6CF94"/>
<path opacity="0.5" d="M22.8245 81.276C25.2935 71.7414 30.5136 62.6074 30.5136 62.6074H34.7991C33.6298 70.1424 31.6047 83.7314 22.8245 81.276Z" fill="#D6CF94"/>
<path opacity="0.5" d="M31.0794 71.7437C29.3713 70.6698 29.2178 69.2699 27.7712 67.9851C29.3008 64.7302 30.5122 62.6079 30.5122 62.6079H39.2568H48.1401C48.1401 62.6079 49.4795 64.9738 51.1152 68.5534C46.1701 73.9454 37.2862 75.9723 31.0794 71.7437Z" fill="#D6CF94"/>
<path d="M33.9069 84.9254C36.2372 81.8809 39.0778 84.8145 39.0778 84.8145C39.0778 84.8145 41.7898 81.7618 44.2487 84.7037C46.7076 87.6457 39.2502 92.8628 39.2502 92.8628C39.2502 92.8628 31.5766 87.9698 33.9069 84.9254Z" fill="#F9BE8A"/>
<path d="M39.7141 78.3135L38.671 79.4182L37.1699 79.1853L37.8982 80.5182L37.2125 81.8735L38.7054 81.5932L39.7829 82.6642L39.9773 81.1576L41.3291 80.4636L39.9559 79.8129L39.7141 78.3135Z" fill="#F9BE8A"/>
<path d="M32.1883 90.355L31.9044 91.8473L30.514 92.4595L31.8457 93.1908L31.9986 94.7021L33.1051 93.6614L34.5897 93.9838L33.9419 92.6094L34.707 91.2973L33.2005 91.4881L32.1883 90.355Z" fill="#F9BE8A"/>
<path d="M44.3933 89.394L44.1094 90.8863L42.7191 91.4986L44.0508 92.2299L44.2031 93.7412L45.3102 92.7005L46.7948 93.0229L46.147 91.6485L46.9121 90.3364L45.405 90.5272L44.3933 89.394Z" fill="#F9BE8A"/>
<path d="M22.833 24.9092C22.833 24.9092 13.6451 29.7476 13.4258 41.6297C13.2587 50.6873 14.7634 59.2754 11.6899 60.6059C11.6899 60.6059 16.3375 60.8946 17.7095 51.0322C19.1177 40.9108 22.833 24.9092 22.833 24.9092Z" fill="#6AC4D8"/>
<path d="M22.7119 25.4854C22.7119 25.4854 14.8172 34.176 15.1194 43.2294C15.4217 52.2828 15.3541 59.5707 12.44 61.2621C12.44 61.2621 17.2447 61.1483 18.8277 51.0572C20.4112 40.9667 22.7119 25.4854 22.7119 25.4854Z" fill="#AAE6F9"/>
<path d="M57.2613 24.6338C57.2613 24.6338 66.2116 29.9576 65.875 41.8362C65.6184 50.8913 63.7136 59.3882 66.7207 60.8811C66.7207 60.8811 62.0654 60.9208 61.1563 50.9974C60.2234 40.8144 57.2613 24.6338 57.2613 24.6338Z" fill="#6AC4D8"/>
<path d="M57.3562 25.2163C57.3562 25.2163 64.8343 34.3183 64.1089 43.3444C63.3835 52.3706 63.1097 59.6525 65.9414 61.4974C65.9414 61.4974 61.148 61.1264 60.0392 50.9636C58.9297 40.8007 57.3562 25.2163 57.3562 25.2163Z" fill="#AAE6F9"/>
<path d="M16.5356 51.8744C16.5356 66.28 26.7085 68.3952 39.2556 68.3952C51.8027 68.3952 61.9756 66.28 61.9756 51.8744C61.9756 50.6713 61.9341 49.4427 61.8393 48.2017C60.8626 34.6003 54.3546 19.5552 39.2556 19.5552C32.2919 19.5552 27.182 22.6897 23.5876 27.3877C18.5903 33.9294 16.5356 43.4972 16.5356 51.8744Z" fill="#FFFDCF"/>
<path d="M21.6164 32.0686C21.6164 32.0686 8.37416 26.935 12.5174 14.5225C12.5174 14.5225 24.5062 14.9267 24.4902 28.4913L21.6164 32.0686Z" fill="#FFFDCF"/>
<path d="M22.5674 29.5675C21.3424 27.2929 18.6772 20.1159 13.8488 16.749C13.0825 18.6325 14.0652 28.8018 22.5674 29.5675Z" fill="#F9BE8A"/>
<path opacity="0.5" d="M24.8843 40.4261C27.0694 43.9974 32.2445 42.5982 32.2445 42.5982C32.2445 42.5982 33.4938 47.7714 41.9557 49.9495C50.4111 52.134 50.9741 46.7645 50.9741 46.7645C50.9741 46.7645 52.2649 50.7347 56.9902 50.8171C59.4236 50.8615 60.9218 49.5251 61.8398 48.2017C60.8631 34.6003 54.3552 19.5552 39.2562 19.5552C32.2925 19.5552 26.8116 20.1532 24.4902 25.6927C22.3833 30.7184 23.6468 38.4123 24.8843 40.4261Z" fill="#E8E3B1"/>
<path opacity="0.3" d="M39.4291 57.5855C39.4291 57.5855 43.2518 56.6509 47.5621 51.4011C51.8725 46.1514 57.2988 50.2158 57.9697 53.9768C58.5488 57.2228 55.0912 67.3157 39.4291 67.3157C23.7677 67.3157 17.9016 57.7935 19.241 53.7516C20.6657 49.4495 26.0393 47.5447 30.5938 50.6129C35.1478 53.6805 35.1395 57.1866 39.4291 57.5855Z" fill="#FFFEF3"/>
<path d="M56.7222 32.0686C56.7222 32.0686 69.9644 26.935 65.8212 14.5225C65.8212 14.5225 53.8324 14.9267 53.8484 28.4913L56.7222 32.0686Z" fill="#FFFDCF"/>
<path d="M56.3469 29.5675C57.572 27.2929 60.2371 20.1159 65.0655 16.749C65.8318 18.6325 64.8498 28.8018 56.3469 29.5675Z" fill="#F9BE8A"/>
<path d="M22.5244 31.2697C22.5303 31.2821 22.5303 31.2886 22.5303 31.2886C24.0878 36.3161 28.6175 40.4007 31.0598 39.3807L31.4089 40.0392L31.4587 40.115C35.1598 46.0102 50.4556 50.2779 49.035 42.686C51.9758 47.3715 60.9231 48.638 61.8885 42.5971C61.9448 42.2806 61.9697 41.9452 61.9756 41.5836C62.237 22.9292 49.2531 15.1726 38.0691 14.5207C36.6426 14.4448 35.34 14.4952 34.1315 14.6665C33.7765 14.7109 33.4209 14.7743 33.0849 14.8561C32.3684 14.9954 31.6957 15.1856 31.0598 15.4132C25.01 17.5598 22.4491 23.0051 22.0378 26.836C21.8825 28.3254 22.0823 29.839 22.5244 31.2697Z" fill="#FFFC9C"/>
<path d="M34.1315 14.667C34.1375 14.7364 34.1375 14.7998 34.1505 14.8697C34.1629 14.9965 34.1754 15.1169 34.1944 15.2431C34.2939 16.1611 34.4498 17.0797 34.6614 18.0037C37.4528 30.37 49.035 42.6859 49.035 42.6859C51.9758 47.3715 60.9231 48.638 61.8885 42.597C61.9448 42.2806 61.9697 41.9451 61.9756 41.5836C62.237 22.9292 49.2531 15.1726 38.0691 14.5206C36.6426 14.4454 35.3405 14.4964 34.1315 14.667Z" fill="#AAE6F9"/>
<path d="M31.0609 39.3814L31.4099 40.0398L31.4597 40.1157C35.1608 46.0108 50.4567 50.2785 49.0361 42.6866C49.0361 42.6866 42.9673 25.0202 37.0733 17.8206C36.1014 16.6365 35.0672 15.1548 34.1326 14.6671C33.7586 14.4709 31.6962 14.9077 31.0609 15.4144C29.5715 16.5985 28.7371 18.4156 28.3441 20.5367C26.9425 28.0658 31.0609 39.3814 31.0609 39.3814Z" fill="#F9BE8A"/>
<path opacity="0.3" d="M22.5244 31.2696C22.5303 31.282 22.5303 31.2885 22.5303 31.2885C22.5303 31.2885 22.0195 24.8487 28.3437 20.5366C28.8545 20.1822 29.4152 19.8467 30.0197 19.5297C31.5339 18.7379 33.0914 18.2442 34.6614 18.0036C35.465 17.8767 36.2686 17.8199 37.0723 17.8199C43.1162 17.8133 49.1281 21.0747 53.4212 24.6395C58.7611 29.072 61.3901 40.2483 61.8885 42.5976C61.9448 42.2811 61.9697 41.9456 61.9756 41.5841C62.237 22.9297 49.2531 15.1731 38.0691 14.5212C36.6426 14.4453 35.34 14.4957 34.1315 14.6669C33.7765 14.7114 33.4209 14.7748 33.0849 14.8566C32.3749 14.7428 31.6957 14.907 31.0598 15.4137C25.01 17.5603 22.4491 23.0056 22.0378 26.8365C21.8825 28.3253 22.0823 29.8389 22.5244 31.2696Z" fill="#FFFEF3"/>
<path d="M44.7629 32.6701C44.511 33.4648 44.0292 34.1422 43.4484 34.7041C41.0168 37.0717 37.1681 37.0202 34.7862 34.5885C34.2184 34.0113 33.7526 33.3208 33.5197 32.5196C33.3662 31.9921 33.8522 24.3172 34.3369 23.9243L34.3429 23.9184L34.4318 23.8941C34.0359 23.8253 35.2733 14.7293 35.847 13.2553V13.2488C35.8956 13.1226 35.9442 13.0538 35.9798 13.0544C35.962 13.0414 35.9567 13.0159 35.9454 12.9655V12.959C35.754 11.6202 38.2467 -0.017168 39.5256 1.90181e-05C40.7038 0.0160207 42.6554 9.37581 42.7846 12.4742C42.8036 12.8796 42.7888 13.1137 42.7414 13.1451C43.2031 13.151 44.6977 23.6197 44.3196 24.0138C44.3137 24.0197 44.3137 24.0197 44.3078 24.0262C44.8459 24.0333 44.9407 32.1154 44.7629 32.6701Z" fill="#FFFC9C"/>
<path d="M42.7842 12.4742L42.735 13.1451C40.2749 15.3918 38.0228 14.526 36.8476 13.7502C36.3011 13.3946 35.9852 13.055 35.9852 13.055L35.945 12.9655V12.959C35.7642 11.7026 37.9517 1.37203 39.281 0.123304C39.281 0.123304 39.2869 0.11738 39.2869 0.110861C39.3705 0.0361862 39.4481 -0.00115796 39.5252 2.73527e-05C40.7034 0.016029 42.6544 9.37582 42.7842 12.4742Z" fill="#FFFCBB"/>
<path d="M41.4902 11.4755L41.4707 11.8678C40.1585 13.8017 39.0242 11.8352 39.0242 11.8352L39.01 11.7831V11.7795C38.9442 10.9972 39.5582 3.49066 40.0216 3.49659C40.4489 3.50192 41.4517 9.66435 41.4902 11.4755Z" fill="#FFFFFD"/>
<path d="M44.7629 32.6701C44.511 33.4648 44.0292 34.1422 43.4483 34.7041C41.0167 37.0717 37.168 37.0201 34.7861 34.5885C34.2184 34.0112 33.7525 33.3208 33.5196 32.5195C33.3661 31.9921 33.8521 24.3172 34.3369 23.9243L34.3428 23.9183L34.4317 23.894C34.4317 23.894 38.3966 28.1647 44.3018 24.0262C44.847 23.9509 44.9407 32.1153 44.7629 32.6701Z" fill="#FFE69F"/>
<path opacity="0.5" d="M44.7637 32.6701C44.5118 33.4648 44.03 34.1422 43.4492 34.7041C41.0175 37.0717 37.1688 37.0201 34.7869 34.5885C34.2192 34.0112 33.7533 33.3208 33.5204 32.5195C33.3669 31.9921 33.8529 24.3172 34.3377 23.9243L34.3436 23.9183L34.4325 23.894C34.4325 23.894 33.924 31.7544 34.3021 32.6677C35.0187 34.3976 39.7291 37.8333 44.7637 32.6701Z" fill="#F9BE8A"/>
<path opacity="0.5" d="M35.4271 23.3882C35.7987 24.3797 39.2361 25.8329 39.2361 25.8329C39.2361 25.8329 35.8431 25.8258 34.3372 23.9246L34.3431 23.9186L34.432 23.8943C34.0361 23.8256 35.2736 14.7295 35.8473 13.2556V13.2491L35.986 13.0547C35.986 13.0547 37.8742 15.1823 41.4639 14.0586C41.4639 14.0586 39.3066 15.6138 36.2384 14.1416C36.2384 14.1416 35.0549 22.3967 35.4271 23.3882Z" fill="#F9BE8A"/>
<path opacity="0.5" d="M36.4875 12.6684C36.6214 13.3351 36.8478 13.75 36.8478 13.75C36.3014 13.3944 35.9855 13.0548 35.9855 13.0548L35.9452 12.9653V12.9587C35.7644 11.7023 37.9519 1.37177 39.2812 0.123047C38.4924 1.75285 36.3921 11.2809 36.4875 12.6684Z" fill="#F9BE8A"/>
<path d="M40.9752 56.2971C40.9752 56.5858 41.1939 56.8198 41.4642 56.8198C41.7344 56.8198 41.9531 56.5858 41.9531 56.2971C41.9531 56.0085 41.7344 55.7744 41.4642 55.7744C41.1945 55.7744 40.9752 56.0085 40.9752 56.2971Z" fill="#F9BE8A"/>
<path d="M36.9596 56.2971C36.9596 56.5858 37.1783 56.8198 37.4486 56.8198C37.7188 56.8198 37.9375 56.5858 37.9375 56.2971C37.9375 56.0085 37.7188 55.7744 37.4486 55.7744C37.1783 55.7744 36.9596 56.0085 36.9596 56.2971Z" fill="#F9BE8A"/>
<path d="M37.4491 60.6328C37.4491 61.6741 38.2385 62.147 39.2128 62.147C40.1871 62.147 40.9766 61.6741 40.9766 60.6328C40.9766 59.5915 40.1871 58.376 39.2128 58.376C38.2385 58.376 37.4491 59.5915 37.4491 60.6328Z" fill="#E57A5A"/>
<path d="M46.8459 57.1358C47.8 58.7443 49.0511 56.7856 51.3702 55.2132C53.6892 53.6403 56.1973 53.0489 55.2432 51.4404C54.289 49.8319 51.6363 49.8029 49.3172 51.3758C46.9982 52.9487 45.8917 55.5274 46.8459 57.1358Z" fill="#F9BE8A"/>
<path d="M23.969 52.3295C24.6648 50.5764 27.2778 50.0845 29.8054 51.2319C32.3331 52.3793 33.8183 54.7303 33.1225 56.4834C32.4268 58.2365 30.9505 56.2155 28.4228 55.0681C25.8951 53.9214 23.2732 54.0826 23.969 52.3295Z" fill="#F9BE8A"/>
<path d="M28.3286 48.1211C27.7265 49.5002 29.1974 50.199 30.9967 51.0974C32.796 51.9959 34.2415 52.7533 34.8437 51.3742C35.4458 49.9951 34.4756 48.1484 32.6763 47.2505C30.8776 46.352 28.9308 46.742 28.3286 48.1211Z" fill="#473629"/>
<path d="M26.4434 49.2001C26.4434 49.2784 28.7299 49.7057 31.0365 51.1304C32.5756 52.0804 34.8597 55.3311 35.0084 55.3311C35.1572 55.3311 34.0152 52.0674 31.238 50.4536C28.4608 48.8392 26.4434 49.0158 26.4434 49.2001Z" fill="#473629"/>
<path d="M29.7834 48.2536C29.7834 48.7318 30.1461 49.1194 30.5929 49.1194C31.0404 49.1194 31.4031 48.7318 31.4031 48.2536C31.4031 47.7753 31.0404 47.3877 30.5929 47.3877C30.1461 47.3877 29.7834 47.7753 29.7834 48.2536Z" fill="#FFFEF3"/>
<path d="M50.84 48.1211C51.4421 49.5002 49.9711 50.199 48.1718 51.0974C46.3726 51.9959 44.9271 52.7533 44.3249 51.3742C43.7228 49.9951 44.693 48.1484 46.4923 47.2505C48.291 46.352 50.2378 46.742 50.84 48.1211Z" fill="#473629"/>
<path d="M53.03 49.2001C53.03 49.2784 50.7436 49.7057 48.437 51.1304C46.8978 52.0804 44.6137 55.3311 44.465 55.3311C44.3162 55.3311 45.4583 52.0674 48.2355 50.4536C51.0126 48.8392 53.03 49.0158 53.03 49.2001Z" fill="#473629"/>
<path d="M44.8966 49.9499C44.8966 50.4281 45.2593 50.8157 45.7068 50.8157C46.1542 50.8157 46.5164 50.4281 46.5164 49.9499C46.5164 49.4716 46.1536 49.084 45.7068 49.084C45.2587 49.084 44.8966 49.4716 44.8966 49.9499Z" fill="#FFFEF3"/>
<path d="M44.6776 62.1678C43.6381 59.518 52.452 56.153 54.1091 58.4667C56.6836 62.0617 60.2093 67.8051 63.3859 73.1728C66.9928 78.9239 57.4392 84.0788 54.0398 79.3809C52.9949 78.2015 51.9767 76.9243 51.019 75.5405C45.6697 67.8105 44.6776 62.1678 44.6776 62.1678Z" fill="#FFFDCF"/>
<path d="M57.4951 63.5313C53.3827 63.0565 48.8293 64.5512 46.6804 67.9513C45.0695 64.3888 44.6778 62.1676 44.6778 62.1676C43.6383 59.5178 52.4522 56.1521 54.1093 58.4664C55.1174 59.874 56.2737 61.6158 57.4951 63.5313Z" fill="#EAE360"/>
<path opacity="0.2" d="M50.1789 57.9103C50.3934 57.8629 50.6061 57.8232 50.8154 57.7906C51.2338 57.726 51.638 57.6916 52.0143 57.694C52.3912 57.6963 52.7403 57.7343 53.0479 57.8137C53.202 57.8534 53.3454 57.9032 53.477 57.9642C53.7401 58.0863 53.9552 58.2517 54.1093 58.4662C54.3387 58.7868 54.5781 59.1294 54.8217 59.4826C54.8661 59.5472 54.9106 59.6112 54.9556 59.677C57.4252 63.2732 60.5444 68.3706 63.3861 73.1729C64.7741 75.3859 64.2099 77.5082 62.8006 79.0177C61.9336 73.0165 50.4977 58.3607 50.1789 57.9103Z" fill="#FFFEF3"/>
<path d="M33.611 61.7571C34.6541 59.1092 25.8443 55.7322 24.1842 58.0442C21.605 61.6362 18.0722 67.3749 14.889 72.7384C11.275 78.4848 20.8221 83.6521 24.2275 78.9583C25.2741 77.7801 26.2941 76.5047 27.253 75.1221C32.6118 67.3986 33.611 61.7571 33.611 61.7571Z" fill="#FFFDCF"/>
<path d="M20.7919 63.1043C24.9049 62.6349 29.4565 64.1356 31.6013 67.538C33.2169 63.9773 33.611 61.7566 33.611 61.7566C34.6541 59.1087 25.8443 55.7317 24.1842 58.0437C23.1744 59.4506 22.0163 61.1906 20.7919 63.1043Z" fill="#EAE360"/>
<g opacity="0.3">
<path d="M14.6185 77.3992C13.9056 76.0497 13.8315 74.4194 14.8888 72.738C17.7365 67.9399 20.8616 62.8466 23.3359 59.2533C23.3815 59.187 23.4266 59.1224 23.4716 59.0566C23.7152 58.7051 23.9546 58.3632 24.184 58.0437C24.2557 57.9436 24.341 57.8547 24.4382 57.7753C25.118 57.2211 26.3857 57.1625 27.7695 57.4214C27.7648 57.428 27.7601 57.4345 27.7547 57.441C25.4748 58.7662 17.5984 72.3243 14.6185 77.3992Z" fill="#FFFEF3"/>
</g>
<path d="M47.9475 99.5845C47.9475 99.5845 62.2352 108.77 68.5268 110.229C81.1332 113.152 81.273 98.3305 75.6695 95.9752C75.663 95.9687 75.657 95.9687 75.657 95.9687C75.657 95.9687 75.6505 95.9687 75.6381 95.9622C71.9784 94.4361 56.8634 90.409 56.8634 90.409C48.904 88.3389 45.6113 96.8174 47.9475 99.5845Z" fill="#FFFDCF"/>
<path d="M68.1704 93.5592C71.3322 94.4825 74.2771 95.3958 75.6378 95.963C75.6503 95.9695 75.6568 95.9695 75.6568 95.9695C75.6568 95.9695 75.6633 95.9695 75.6692 95.976C81.2734 98.3312 81.1329 113.152 68.5266 110.229C67.4136 109.971 66.0475 109.468 64.5576 108.82C56.3392 105.069 63.2093 92.1457 68.1704 93.5592Z" fill="#EAE360"/>
<path d="M68.5268 110.229C81.1332 113.234 81.273 98.331 75.6695 95.9758C75.663 95.9693 75.657 95.9693 75.657 95.9693C75.657 95.9693 75.6505 95.9693 75.6381 95.9628C75.2517 95.8359 69.1669 93.943 66.2285 101.054C63.1888 108.393 68.5268 110.229 68.5268 110.229Z" fill="#FFFC9C"/>
<path opacity="0.3" d="M49.878 91.7167C51.5019 90.3566 53.8459 89.6247 56.8625 90.4093C56.8625 90.4093 71.9769 94.4364 75.6372 95.9625C75.6496 95.969 75.6561 95.969 75.6561 95.969C75.6561 95.969 75.6626 95.969 75.6686 95.9755C78.604 97.2095 79.9582 101.862 78.7753 105.595C78.1044 101.621 76.7579 99.3584 74.0465 97.8412C69.5737 95.339 56.9739 91.9111 49.878 91.7167Z" fill="#FFFEF3"/>
<path d="M31.2597 99.584C31.2597 99.584 16.972 108.77 10.6804 110.228C-1.92594 113.151 -2.0658 98.33 3.53774 95.9748C3.54426 95.9682 3.5502 95.9682 3.5502 95.9682C3.5502 95.9682 3.55671 95.9682 3.56916 95.9617C7.22939 94.4356 22.3439 90.4085 22.3439 90.4085C30.3038 88.3384 33.5966 96.8169 31.2597 99.584Z" fill="#FFFDCF"/>
<path d="M11.0366 93.5587C7.87482 94.4821 4.92992 95.3953 3.56918 95.9625C3.55674 95.969 3.55022 95.969 3.55022 95.969C3.55022 95.969 3.5437 95.969 3.53778 95.9755C-2.06636 98.3307 -1.9259 113.152 10.6804 110.229C11.7935 109.97 13.1595 109.468 14.6494 108.82C22.8672 105.068 15.9977 92.1452 11.0366 93.5587Z" fill="#EAE360"/>
<path d="M10.6809 110.229C-1.92548 113.233 -2.06535 98.3305 3.5382 95.9753C3.54472 95.9688 3.55064 95.9688 3.55064 95.9688C3.55064 95.9688 3.55716 95.9688 3.5696 95.9623C3.95601 95.8355 10.0408 93.9425 12.9792 101.053C16.0189 108.392 10.6809 110.229 10.6809 110.229Z" fill="#FFFC9C"/>
<path opacity="0.3" d="M29.3291 91.7167C27.7058 90.3566 25.3613 89.6247 22.3447 90.4093C22.3447 90.4093 7.23021 94.4364 3.56997 95.9625C3.55753 95.969 3.55101 95.969 3.55101 95.969C3.55101 95.969 3.54449 95.969 3.53857 95.9755C0.603149 97.2095 -0.751068 101.862 0.43187 105.595C1.10275 101.621 2.44927 99.3584 5.16066 97.8412C9.63342 95.339 22.2333 91.9111 29.3291 91.7167Z" fill="#FFFEF3"/>
</svg>
