<svg width="114" height="81" viewBox="0 0 114 81" fill="none" xmlns="http://www.w3.org/2000/svg">
<path d="M98.8653 45.0119C100.79 44.3063 102.786 43.7459 104.832 43.6106C106.051 43.5295 107.315 43.6097 108.42 44.13C109.526 44.6508 110.449 45.6782 110.582 46.893C110.698 47.948 110.227 48.9731 109.718 49.9046C106.927 55.0106 102.581 59.2539 97.4093 61.9222C99.2622 61.8581 101.122 61.5454 102.96 61.7836C104.799 62.0207 106.693 62.9501 107.443 64.646C108.234 66.4367 107.506 68.6175 106.148 70.0277C104.79 71.4384 102.92 72.2247 101.071 72.869C98.8838 73.6314 96.6458 74.2481 94.3761 74.7095C95.3994 75.3462 95.5734 76.7799 94.8856 77.7699L60.8301 75.1997C61.027 74.7293 61.2219 74.3634 61.4183 73.8932C61.5357 73.6114 61.6635 73.3161 61.906 73.1305C62.1324 72.9574 62.4252 72.9049 62.7042 72.8463C64.8502 72.3943 66.7965 71.2951 68.6865 70.1826C71.6781 68.4216 74.6438 66.5774 77.2478 64.281C79.1989 62.5614 80.9464 60.5764 82.2379 58.3106C83.3281 56.3977 83.6898 54.2062 85.5772 52.9088C87.6373 51.4921 89.5022 49.8415 91.6399 48.5228C93.9228 47.1153 96.3469 45.9353 98.8653 45.0119Z" fill="#EAF3EF"/>
<path d="M13.5819 37.7376C11.9769 36.7656 10.288 35.9271 8.495 35.502C7.42644 35.2483 6.29521 35.1478 5.24152 35.5051C4.18816 35.8629 3.22459 36.748 2.9334 37.9307C2.68053 38.9575 2.9521 40.0391 3.27046 41.033C5.01642 46.4815 8.26264 51.2977 12.4649 54.6735C10.8324 54.3463 9.22941 53.7724 7.56662 53.7461C5.90387 53.7189 4.09345 54.369 3.18817 55.94C2.23208 57.5986 2.56659 59.8597 3.56893 61.4481C4.57111 63.0369 6.11609 64.0809 7.66239 64.9815C9.49166 66.0469 11.3868 66.9756 13.3321 67.7552C12.3349 68.2392 11.9764 69.6328 12.445 70.71L42.9828 73.0148C42.8752 72.5216 42.7548 72.1314 42.6476 71.6383C42.5831 71.3431 42.5122 71.0328 42.3239 70.8147C42.1479 70.6109 41.896 70.5178 41.6575 70.4196C39.8201 69.6675 38.2525 68.3029 36.7363 66.9333C34.3363 64.7655 31.9714 62.5189 29.9912 59.8766C28.5075 57.8977 27.2419 55.6853 26.42 53.2601C25.7264 51.2126 25.7181 48.9932 24.2304 47.441C22.6071 45.7463 21.1897 43.848 19.4833 42.2392C17.661 40.5214 15.6815 39.0095 13.5819 37.7376Z" fill="#EAF3EF"/>
<path d="M35.4728 41.1525C35.2446 42.1261 35.0803 43.1359 35.2364 44.1239C35.4578 45.5272 36.3076 46.758 37.2985 47.7758C38.9597 49.4832 41.0495 50.7181 43.2186 51.7019C49.8964 54.7306 57.5406 55.4993 64.7326 54.0719C66.3964 53.7419 68.0605 53.2884 69.5255 52.434C70.6593 51.7724 71.6479 50.8851 72.5439 49.9256C73.4564 48.95 74.2837 47.8896 74.9488 46.7316C76.2827 44.4082 76.9357 41.699 76.8063 39.0228C76.7722 38.3137 76.6818 37.5982 76.4208 36.9381C76.0893 36.0988 75.5001 35.3921 74.9209 34.7009C73.1057 32.5348 71.2905 30.3686 69.4749 28.2023C68.6918 27.2681 67.5132 26.2353 66.4149 26.7641C66.0803 26.9253 65.8205 27.216 65.4844 27.374C64.7811 27.7037 63.962 27.3834 63.2405 27.0955C57.931 24.9808 50.2897 23.9293 45.283 27.2167C40.423 30.4084 36.8 35.4812 35.4728 41.1525Z" fill="#EAF3EF"/>
<path d="M35.5786 59.7277C36.3336 61.1473 37.3044 62.4386 38.2712 63.7229C39.7611 65.7022 41.2838 67.7144 43.3016 69.1519C45.9214 71.0184 49.1619 71.766 52.3348 72.2956C56.839 73.0474 61.5786 73.4244 65.8742 71.8748C67.7667 71.1923 69.5176 70.1516 71.1076 68.9198C75.6868 65.3729 78.976 60.089 79.7526 54.3497C80.341 50.0008 79.5154 45.5828 78.3607 41.3496C77.9456 39.8288 77.4677 38.2804 76.4929 37.0416C75.6426 35.9614 74.4592 35.1826 73.2109 34.6055C70.3514 33.283 67.1362 32.9535 63.9864 32.8889C56.8719 32.7432 49.7361 33.8757 43.0098 36.1958C41.3092 36.7825 39.6347 37.4444 37.9939 38.1818C36.9502 38.6508 35.7173 39.1015 35.2237 40.2206C34.7624 41.2675 34.6949 42.6302 34.4433 43.7412C34.0656 45.411 33.7839 47.1055 33.6509 48.8134C33.3606 52.5414 33.8041 56.3886 35.5786 59.7277Z" fill="#EAF3EF"/>
<path d="M53.3748 53.3841C52.562 53.9621 51.7767 54.6456 50.8074 54.8796C50.1858 55.0295 49.4021 55.0629 49.1277 55.6405C48.913 56.0924 49.1576 56.6189 49.3972 57.0582C49.8459 57.8795 50.2946 58.7008 50.7433 59.5216C50.9546 59.9087 51.1684 60.2991 51.4562 60.6339C52.0207 61.289 52.8242 61.6802 53.604 62.0534C54.5902 62.5254 55.5951 63.0026 56.6766 63.159C57.261 63.2433 57.8552 63.2314 58.4426 63.1747C61.0129 62.9251 63.5572 61.7234 65.0712 59.6323C65.4601 59.095 65.7829 58.4911 65.8727 57.8343C65.9621 57.178 65.7885 56.4619 65.3078 56.0058C64.8183 55.5422 64.1059 55.412 63.5265 55.0678C62.9992 54.7548 62.5972 54.2746 62.1611 53.8437C61.0959 52.7908 59.4264 51.609 57.8934 51.416C56.4599 51.2362 54.4866 52.5933 53.3748 53.3841Z" fill="#FBD132"/>
<path d="M50.3043 71.6292C50.3629 72.7137 51.1535 73.7966 52.2321 73.9263C52.2981 73.9344 52.3657 73.9395 52.4338 73.9446C52.6841 73.9631 52.9389 73.9824 53.1191 74.1474C53.248 74.2649 53.3107 74.4361 53.3869 74.5935C53.7447 75.3331 54.5028 75.8635 55.3202 75.9462C56.1373 76.0279 56.986 75.66 57.4843 75.0068C58.2213 74.0394 58.1303 72.6973 58.0047 71.488C57.9297 70.7696 57.8552 70.0508 57.7806 69.3325C57.7622 69.1562 57.7328 68.9591 57.5915 68.8519C57.4697 68.7593 57.303 68.7642 57.1501 68.7693C56.2912 68.7988 55.4291 68.7154 54.5916 68.5248C53.7705 68.3376 52.9543 67.7469 52.1983 68.2015C51.0375 68.8995 50.2303 70.2515 50.3043 71.6292Z" fill="#F2547B"/>
<path d="M67.1005 24.6974C66.5485 26.2405 65.9835 27.8076 65.0098 29.1257C64.0358 30.4428 62.5753 31.4979 60.939 31.5886C59.8542 31.6485 58.7918 31.287 57.7858 30.8757C57.0359 30.5687 56.2794 30.2183 55.7165 29.6357C55.3669 29.2739 55.1065 28.8371 54.8269 28.4189C54.1168 27.3583 53.2423 26.3783 52.1342 25.7451C51.0265 25.112 49.6605 24.8573 48.45 25.2609C47.75 25.4947 47.0133 25.9413 46.3301 25.6626C45.8777 25.4777 45.6031 25.0215 45.389 24.5823C45.0346 23.8567 44.7502 23.0571 44.846 22.255C44.9424 21.4525 45.5176 20.6615 46.3176 20.5484C45.5075 18.4616 45.6076 16.0389 46.5876 14.0264C46.7 13.7943 46.8326 13.5589 47.0489 13.4191C47.3084 13.2513 47.6409 13.2527 47.9469 13.2933C49.2901 13.4711 50.524 14.3338 51.1529 15.5336C51.4293 16.0606 51.6509 16.7029 52.2035 16.9235C52.4293 15.5543 53.2559 14.2958 54.4224 13.5446C55.5885 12.7937 57.0762 12.5621 58.4159 12.923C59.2224 13.1395 59.9596 13.5551 60.6789 13.9792C62.4847 15.0429 64.296 16.2416 65.4377 17.9997C65.9281 18.7543 66.2786 19.5897 66.6269 20.42C67.1563 21.6829 67.5736 23.3756 67.1005 24.6974Z" fill="#F2547B"/>
<path d="M55.3476 7.39298C56.362 6.35298 57.6037 5.50096 59.0056 5.12071C60.4075 4.74045 61.9785 4.8693 63.2083 5.64314C63.768 5.99482 64.243 6.46664 64.67 6.97062C66.3158 8.91655 67.2832 11.3787 67.6722 13.8974C68.0616 16.4161 67.8961 18.9949 67.4628 21.5065C67.3195 22.3395 67.1398 23.1849 66.7102 23.9131C66.2805 24.6417 65.5554 25.2434 64.7134 25.3203C63.9889 25.3863 63.2934 25.0687 62.5956 24.8644C61.7706 24.6224 60.8973 24.5328 60.1116 24.1842C59.3297 23.8381 58.68 23.2574 58.0439 22.6862C56.7784 21.5488 55.5133 20.4119 54.2479 19.2745C52.4388 17.6494 51.9119 16.0044 52.2714 13.628C52.6237 11.3008 53.7017 9.08019 55.3476 7.39298Z" fill="#F2547B"/>
<path d="M42.3889 50.3915C42.1484 50.3604 41.896 50.3574 41.6734 50.4519C41.4503 50.5464 41.2635 50.7582 41.2608 51.0003C41.2576 51.3099 41.5298 51.5429 41.7799 51.7245C42.1572 51.9985 42.5491 52.2678 42.996 52.4016C43.4425 52.5355 43.9582 52.5154 44.3361 52.2421C45.2703 51.5658 42.8238 50.4471 42.3889 50.3915Z" fill="#F57AA1"/>
<path d="M72.4799 52.3998C72.7218 52.4051 72.9719 52.4397 73.1783 52.5666C73.3846 52.6939 73.5371 52.9317 73.5033 53.1715C73.4605 53.4777 73.156 53.6671 72.8815 53.8092C72.4674 54.0234 72.0394 54.2308 71.578 54.2957C71.1165 54.3615 70.6091 54.2641 70.277 53.9372C69.4544 53.1284 72.0415 52.39 72.4799 52.3998Z" fill="#F57AA1"/>
<path d="M48.1492 56.8146C48.1106 59.3869 48.1266 62.1496 49.5986 64.2591C50.0631 64.9246 50.6526 65.4904 51.2381 66.052C51.7017 66.4971 52.2024 66.9615 52.833 67.0838C52.2825 65.8938 51.2494 64.9949 50.5914 63.8605C49.7162 62.3519 49.5627 60.5459 49.4297 58.8071C49.3905 58.2948 49.3574 57.7503 49.5991 57.297C51.0599 58.0029 51.41 55.437 50.4669 54.8163C48.9861 53.8415 48.1677 55.6623 48.1492 56.8146Z" fill="#FBD132"/>
<path d="M61.3074 60.5458C60.9011 60.775 60.4817 60.9879 60.0316 61.109C59.4319 61.2701 58.7984 61.2624 58.1823 61.185C57.3357 61.0792 56.5057 60.8435 55.7298 60.4893C55.2816 60.2842 54.8519 60.0408 54.4231 59.7977C52.8336 58.8958 51.244 57.9942 49.6549 57.0926C48.8202 58.4587 49.082 60.2514 49.7753 61.6944C50.4682 63.1369 51.5388 64.3615 52.364 65.7336C52.8877 66.6039 53.3538 67.5789 54.2211 68.1082C54.7794 68.4485 55.4491 68.5631 56.1029 68.5681C58.4167 68.5831 60.6052 67.2668 62.0352 65.448C63.4656 63.6292 64.2152 61.3588 64.6134 59.0797C64.6631 58.7951 64.6953 58.5098 64.5427 58.2574C64.0454 58.3759 63.4706 59.0963 63.0394 59.4178C62.4869 59.8299 61.908 60.2075 61.3074 60.5458Z" fill="#C82652"/>
<path d="M55.3842 62.1683C55.4981 62.4354 55.6125 62.7034 55.7581 62.9549C56.098 63.5404 56.596 64.0157 57.0871 64.4821L57.175 64.5321C57.2326 64.5338 57.2678 64.4702 57.2884 64.4159C57.5973 63.6114 57.8219 62.7748 57.9572 61.9234C57.6138 61.8644 57.3529 61.5888 57.0366 61.4425C56.8102 61.3378 56.559 61.3013 56.3185 61.235C56.0622 61.1646 55.2555 60.6379 55.0472 60.7857C54.7022 61.0311 55.2725 61.9054 55.3842 62.1683Z" fill="#F57AA1"/>
<path d="M64.6769 59.1561C64.5239 60.2946 64.3718 61.4331 64.2188 62.5718C65.1316 61.3904 65.7239 59.964 65.9166 58.4841C65.9688 58.0825 65.9485 56.8942 65.2308 57.2734C64.7134 57.5465 64.7434 58.659 64.6769 59.1561Z" fill="#FBD132"/>
<path d="M33.3814 43.7963C32.9741 43.618 32.5098 43.545 32.0802 43.6592C31.6509 43.7739 31.266 44.095 31.1374 44.5199C30.9915 45.003 31.1816 45.5159 31.369 45.9844C30.327 46.2635 29.5901 47.3946 29.7551 48.4606C29.8635 49.1618 30.3079 49.7771 30.8565 50.2268C31.4053 50.6765 32.0561 50.9818 32.7042 51.2699C32.8998 51.3567 33.1007 51.4443 33.3141 51.4546C33.7444 51.4759 34.1296 51.183 34.4012 50.8485C35.1836 49.8853 35.3284 48.5642 35.3662 47.3239C35.4095 45.8958 34.7817 44.4095 33.3814 43.7963Z" fill="#EAF3EF"/>
<path d="M82.143 47.7773C82.4697 48.1355 82.6022 48.6911 82.3831 49.1235C83.1683 49.1474 83.7293 50.0139 83.6586 50.7969C83.5883 51.5799 83.0546 52.2466 82.4522 52.7511C82.0423 53.094 81.5905 53.3863 81.1097 53.6192C80.5429 53.8939 79.7631 54.0421 79.3639 53.5554C79.1428 53.2852 79.1234 52.9077 79.1216 52.5588C79.1136 51.0584 79.1905 49.4773 79.5108 48.0061C79.7764 46.7862 81.4298 46.9955 82.143 47.7773Z" fill="#EAF3EF"/>
<path d="M32.5125 51.796C32.7776 56.6905 34.8089 60.9398 37.9078 64.7195C40.7994 68.2463 45.3156 72.1395 49.9909 72.7171C50.596 72.7923 50.833 71.7794 50.2187 71.6477C41.7903 69.8338 34.2373 60.3314 33.7992 51.8931C33.7564 51.0747 32.4676 50.9685 32.5125 51.796Z" fill="#602915"/>
<path d="M47.9786 25.1488C40.3362 28.4489 35.6461 35.9604 33.6033 43.7777C33.3951 44.5749 34.6044 45.0172 34.818 44.2137C36.8379 36.6227 41.2161 29.6363 48.4437 26.1024C49.0597 25.8014 48.6044 24.8786 47.9786 25.1488Z" fill="#602915"/>
<path d="M80.4105 46.696C79.2089 38.0771 74.3735 30.3484 66.8009 25.9229C66.162 25.5491 65.526 26.4392 66.1412 26.8787C73.1461 31.8767 77.8805 38.2948 79.0879 46.9557C79.2074 47.8138 80.53 47.5541 80.4105 46.696Z" fill="#602915"/>
<path d="M58.4039 73.4486C70.0621 74.4683 78.2887 65.387 80.2689 54.5904C80.4253 53.7383 79.0802 53.6435 78.9252 54.489C77.0394 64.7713 69.2969 72.716 58.4643 72.6479C57.9525 72.6445 57.8837 73.4027 58.4039 73.4486Z" fill="#602915"/>
<path d="M58.3196 51.032C56.9393 51.0959 55.6599 51.417 54.4789 52.1587C52.9848 53.0959 51.8518 54.3514 50.016 54.5799C49.653 54.6254 49.6808 55.2464 50.0548 55.2326C51.2103 55.1897 52.1449 54.716 53.081 54.0498C54.8001 52.826 56.1775 51.7982 58.3565 51.6563C58.7075 51.6332 58.6754 51.0155 58.3196 51.032Z" fill="#602915"/>
<path d="M58.0574 51.6338C60.1755 52.0977 61.4063 53.3322 62.914 54.7919C63.7415 55.5931 64.5897 56.199 65.7288 56.4156C66.0925 56.4846 66.2207 55.8763 65.8647 55.7761C64.08 55.2738 63.1564 53.8667 61.8162 52.7125C60.7594 51.8024 59.544 51.293 58.1876 51.022C57.8423 50.9531 57.7104 51.557 58.0574 51.6338Z" fill="#602915"/>
<path d="M57.3512 68.4945C57.2603 69.8245 57.7582 71.0892 57.8099 72.4119C57.8548 73.5652 57.4774 74.8089 56.2809 75.2231C55.195 75.5989 54.1247 75.0331 53.7296 73.976C53.5406 73.4707 52.7803 73.8404 52.9734 74.3446C53.6918 76.2192 55.8747 76.8902 57.4944 75.6388C59.7438 73.9001 58.3783 70.7112 57.994 68.4558C57.9324 68.0938 57.3762 68.1283 57.3512 68.4945Z" fill="#602915"/>
<path d="M53.6873 73.0887C53.7269 72.8183 53.8209 72.48 53.7453 72.2135C53.6895 72.0166 53.4999 71.9097 53.3044 71.9941C52.8888 72.1749 52.7862 72.7344 52.912 73.1348C53.0424 73.5515 53.6198 73.544 53.6873 73.0887Z" fill="#602915"/>
<path d="M52.9071 73.3204C52.2238 73.6234 51.4328 73.1609 50.9882 72.6582C50.3665 71.9554 50.5354 71.0509 50.9822 70.3039C51.4923 69.4517 52.3001 68.8142 52.7078 67.9036C52.8605 67.5629 52.4158 67.359 52.167 67.532C50.8628 68.4423 49.1273 70.6302 49.7445 72.3416C50.2178 73.6536 51.9336 74.6658 53.2463 74.0163C53.6941 73.7943 53.3624 73.1177 52.9071 73.3204Z" fill="#602915"/>
<path d="M63.7341 31.1393C68.6672 26.9551 69.2693 17.1707 67.5296 11.4151C66.3009 7.34982 62.2771 1.86091 57.6644 5.20541C57.3565 5.42855 57.6272 5.95427 57.9848 5.86635C69.5817 3.00023 68.6808 25.3831 63.0895 30.3891C62.6148 30.8138 63.2473 31.552 63.7341 31.1393Z" fill="#602915"/>
<path d="M56.0779 6.09091C53.2692 8.71747 51.096 12.9776 52.1199 16.9076C52.2336 17.3445 52.9478 17.3609 52.9567 16.8576C53.0265 12.8394 53.7216 9.71434 56.6201 6.72162C56.9867 6.34327 56.4748 5.72021 56.0779 6.09091Z" fill="#602915"/>
<path d="M52.7865 16.5784C51.5943 14.9972 49.7968 12.3717 47.4828 12.8987C46.885 13.0347 47.0764 13.8585 47.6625 13.8128C49.5552 13.6659 51.0045 15.91 52.0037 17.2513C52.4009 17.7839 53.1857 17.108 52.7865 16.5784Z" fill="#602915"/>
<path d="M47.1913 13.2095C44.3275 14.5571 44.2795 19.2821 46.8208 21.0041C47.3585 21.3689 47.9164 20.6835 47.553 20.1905C46.895 19.2989 46.2909 18.5455 46.1736 17.4044C46.0408 16.1128 46.3632 14.6437 47.5371 13.9184C47.9602 13.657 47.661 12.9888 47.1913 13.2095Z" fill="#602915"/>
<path d="M47.1459 20.4473C45.5766 19.5249 44.1239 20.928 44.0344 22.5292C43.9583 23.8873 45.0333 26.1022 46.6301 25.9656C46.861 25.9459 46.9943 25.6376 46.8884 25.4467C46.4858 24.7192 45.6947 24.3649 45.3515 23.5448C44.9578 22.6056 45.2771 20.6327 46.7301 21.257C47.2031 21.4604 47.595 20.7119 47.1459 20.4473Z" fill="#602915"/>
<path d="M62.3834 31.125C60.9079 31.2417 59.3256 31.4643 57.9414 30.804C56.7632 30.2416 56.238 29.1659 55.3178 28.3184C55.0464 28.0685 54.4976 28.3258 54.7236 28.7086C56.5448 31.7955 59.1322 32.4098 62.5033 31.735C62.9042 31.6539 62.773 31.094 62.3834 31.125Z" fill="#602915"/>
<path d="M54.7024 27.5266C54.6625 27.3269 54.5764 27.1813 54.3934 27.0821C54.0115 26.8758 53.6183 27.4104 54.0014 27.6495L54.0365 27.6575C54.1566 28.0685 54.7897 27.9634 54.7024 27.5266Z" fill="#602915"/>
<path d="M53.5825 26.5008C53.176 25.5718 52.2682 25.0445 51.3025 24.842C50.4625 24.6663 49.057 24.4368 48.3516 25.0208C48.1723 25.1691 48.2399 25.4519 48.4462 25.5323C49.1173 25.7949 49.9115 25.5982 50.6265 25.6696C51.6055 25.7676 52.3812 26.107 53.0123 26.8759C53.2666 27.1853 53.7358 26.8518 53.5825 26.5008Z" fill="#602915"/>
<path d="M57.0469 6.56185C57.8196 6.62017 57.9112 5.41886 57.1375 5.36047C56.3648 5.30215 56.2728 6.50342 57.0469 6.56185Z" fill="#602915"/>
<path d="M64.6907 57.3881C62.1843 60.4052 59.023 62.2516 55.294 60.0201C53.6233 59.0204 50.8561 58.1113 49.7765 56.4903C49.4668 56.025 48.8093 56.597 49.1171 57.0571C50.021 58.4103 51.8492 58.9588 53.2198 59.7401C54.4588 60.4458 55.7177 61.7952 57.1353 62.1544C60.0737 62.8997 63.5871 59.8581 65.2181 57.7523C65.4733 57.4227 64.9508 57.0755 64.6907 57.3881Z" fill="#602915"/>
<path d="M64.648 57.5572C64.2007 62.4471 61.0149 68.1146 55.4809 67.9535C55.1419 67.9436 54.9786 68.4957 55.3487 68.5741C61.2509 69.8275 65.1782 62.5656 65.2678 57.604C65.2749 57.207 64.6849 57.1562 64.648 57.5572Z" fill="#602915"/>
<path d="M49.1027 56.6754C48.3352 60.3105 50.1346 65.2917 53.2114 67.4615C53.5583 67.7064 53.94 67.2456 53.6932 66.926C52.5627 65.4634 51.3651 64.2382 50.6283 62.4837C49.8356 60.5974 49.6435 58.7473 49.7412 56.7236C49.7616 56.2991 49.1855 56.2841 49.1027 56.6754Z" fill="#602915"/>
<path d="M54.035 67.9286C54.2089 68.1005 54.3151 68.1751 54.5666 68.1195C54.6962 68.0903 54.7825 67.9658 54.7585 67.833C54.714 67.5877 54.6137 67.5122 54.3861 67.4182C54.0985 67.2999 53.807 67.7027 54.035 67.9286Z" fill="#602915"/>
<path d="M49.8235 54.6122C49.3651 54.3822 48.1905 54.3633 48.1838 55.0975C48.1823 55.2539 48.2835 55.3823 48.4436 55.3993C48.6653 55.424 48.738 55.3321 48.9278 55.2467C49.1518 55.146 49.3709 55.1585 49.5946 55.2514C50.0074 55.4225 50.203 54.8028 49.8235 54.6122Z" fill="#602915"/>
<path d="M48.0241 55.1577C46.4353 60.9595 49.7503 68.8959 56.5712 68.6996C57.1094 68.6843 57.1869 67.8477 56.6352 67.8519C50.1885 67.8996 47.6784 60.6921 48.5985 55.2798C48.654 54.9526 48.1124 54.8357 48.0241 55.1577Z" fill="#602915"/>
<path d="M65.654 56.5581C65.9534 58.2665 65.0805 60.4358 64.354 61.9506C63.1737 64.4129 61.3356 66.2597 58.9303 67.5337C58.5023 67.7602 58.8211 68.4238 59.2614 68.2123C61.7962 66.9933 63.7126 64.9862 64.9555 62.4712C65.6995 60.9664 67.0407 58.0556 66.1664 56.3862C66.0238 56.1138 65.5999 56.249 65.654 56.5581Z" fill="#602915"/>
<path d="M59.3786 67.4385C56.8163 69.5308 53.6262 68.3473 51.6689 66.067C51.3216 65.6621 50.7268 66.1851 51.0458 66.6032C53.1746 69.3899 56.9979 70.2889 59.7963 67.9241C60.1115 67.6572 59.6978 67.1779 59.3786 67.4385Z" fill="#602915"/>
<path d="M57.4944 62.07C57.4245 62.4863 57.3685 63.5785 57.0562 63.9006C56.9272 64.0339 56.9901 63.9882 56.8356 63.7072C56.6807 63.4254 56.4992 63.1524 56.3325 62.8778C55.7849 61.9757 55.4014 61.1441 55.0336 60.163C54.9026 59.8134 54.4303 59.987 54.3812 60.2881C54.2562 61.0551 54.7126 61.834 55.099 62.4668C55.3704 62.9117 55.6642 63.3439 55.9445 63.7831C56.1557 64.1133 56.3333 64.5503 56.6192 64.8271C57.8271 65.9977 58.1361 62.7037 58.2089 62.1239C58.2671 61.6614 57.5694 61.6213 57.4944 62.07Z" fill="#602915"/>
<path d="M46.9161 44.8859C46.4154 44.5883 45.8508 44.3136 45.2278 44.3444C44.6052 44.3757 43.9442 44.8338 43.9734 45.3775C44.0038 45.9342 44.6615 46.2379 45.2136 46.4875C46.9497 47.2727 48.4071 48.4916 49.3827 49.9747C48.5275 49.509 47.4771 49.3555 46.443 49.3647C46.0873 49.3678 45.7166 49.3921 45.3964 49.5459C45.0763 49.6997 44.8226 50.016 44.88 50.3212C44.9786 50.8402 45.7529 51.3812 46.358 51.3146C47.8762 51.147 49.4463 51.1103 50.7971 51.6505C51.6743 52.002 51.7863 50.5169 51.573 50.0023C51.2829 49.3011 50.8621 48.6317 50.4035 48.0136C49.4896 46.7802 48.3035 45.7105 46.9161 44.8859Z" fill="#602915"/>
<path d="M68.6459 46.4177C69.1856 46.1986 69.7855 46.0118 70.3968 46.1362C71.0076 46.2601 71.5924 46.8122 71.4815 47.3458C71.3679 47.8917 70.6721 48.0932 70.0887 48.2566C68.2545 48.7724 66.6311 49.7592 65.444 51.0786C66.3593 50.7466 67.4209 50.753 68.4419 50.9168C68.7927 50.9732 69.156 51.0534 69.4494 51.2531C69.7428 51.4536 69.9462 51.8043 69.8436 52.0966C69.6682 52.5958 68.8215 53.0144 68.2328 52.8573C66.7573 52.4642 65.2102 52.1919 63.794 52.5236C62.8741 52.739 62.9861 51.2544 63.2739 50.7776C63.6663 50.128 64.1828 49.5293 64.729 48.9865C65.8177 47.9048 67.1509 47.0248 68.6459 46.4177Z" fill="#602915"/>
<path d="M51.9237 40.1782C52.1773 40.3726 52.582 40.4497 52.8236 40.2403C52.9843 40.1009 53.0133 39.8598 52.9808 39.6494C52.8749 38.9613 52.2716 38.4592 51.6549 38.135C50.8635 37.7193 49.9351 37.4825 49.0678 37.7005C48.6051 37.8167 47.3046 38.4828 47.9831 38.8595C48.244 39.0048 48.8808 38.874 49.1957 38.9501C49.6335 39.0565 50.6329 39.1918 51.9237 40.1782Z" fill="#602915"/>
<path d="M63.9542 41.0864C63.6487 41.1818 63.2622 41.2559 63.0547 41.0127C62.9167 40.8507 62.9247 40.608 62.9879 40.4049C63.1959 39.7404 63.8677 39.3346 64.5262 39.1066C65.3714 38.8145 66.3243 38.7196 67.1496 39.0654C67.5891 39.2497 68.7754 40.1034 68.0476 40.374C67.7678 40.4785 67.1593 40.2877 66.8351 40.2816C65.2486 40.2522 64.4758 40.9241 63.9542 41.0864Z" fill="#602915"/>
<path d="M23.6572 46.4895C21.3322 42.8213 18.2766 39.8192 14.5321 37.5964C11.7282 35.9315 7.62254 33.4811 4.43248 35.1899C3.93975 35.4537 4.19885 36.1542 4.73552 36.0928C11.8015 35.2824 18.8274 41.8931 22.7783 47.0679C23.1377 47.5386 23.9825 47.0028 23.6572 46.4895Z" fill="#602915"/>
<path d="M4.08699 35.643C3.55604 35.6749 3.10258 36.0364 2.93119 36.5363C2.70813 37.1871 3.7675 37.5318 3.91657 36.8897C3.96389 36.6863 4.02707 36.5158 4.24442 36.4454C4.74921 36.2814 4.6132 35.6116 4.08699 35.643Z" fill="#602915"/>
<path d="M2.62645 37.2841C2.25241 45.7026 8.45087 51.5542 14.2967 56.713C14.9891 57.3242 15.7933 56.1372 15.1114 55.533C9.6546 50.6971 3.68946 45.2437 3.66994 37.3628C3.66841 36.6983 2.65684 36.6036 2.62645 37.2841Z" fill="#602915"/>
<path d="M15.1652 55.7229C12.2676 53.9504 7.27335 52.8379 4.14438 54.5057C3.38913 54.9081 3.97012 56.1114 4.72885 55.7044C7.42484 54.2582 12.066 55.3666 14.7106 56.6085C15.2246 56.8499 15.6471 56.0178 15.1652 55.7229Z" fill="#602915"/>
<path d="M2.76508 55.8627C-2.13543 62.1547 10.4583 67.5619 14.7153 68.3053C15.4114 68.4267 15.6596 67.2702 14.9756 67.0824C10.4803 65.8468 1.17386 62.5971 3.70119 56.3434C3.93513 55.7641 3.12112 55.4058 2.76508 55.8627Z" fill="#602915"/>
<path d="M14.7904 67.3163C13.9722 67.2129 13.1221 67.5119 12.5367 68.0934C11.9926 68.6331 11.4126 69.6379 11.9492 70.3509C12.1988 70.6824 12.6758 70.5834 12.9027 70.3009C13.0738 70.088 13.0643 69.8511 13.1527 69.6079C13.2228 69.4151 13.3413 69.2483 13.4887 69.1069C13.8211 68.7889 14.2342 68.6687 14.6837 68.7311C15.5866 68.8579 15.6969 67.4304 14.7904 67.3163Z" fill="#602915"/>
<path d="M87.3227 52.7773C92.779 48.0307 101.534 42.9156 109.028 44.802C109.527 44.9273 109.945 44.277 109.463 43.9544C106.289 41.8337 101.654 43.4523 98.3578 44.6049C93.8987 46.1639 89.933 48.5976 86.6314 51.9726C86.1609 52.4531 86.7992 53.2324 87.3227 52.7773Z" fill="#602915"/>
<path d="M109.512 45.2284C109.745 45.3346 109.823 45.4889 109.849 45.7336C109.918 46.3957 110.979 46.2044 110.876 45.5321C110.781 44.915 110.259 44.5438 109.68 44.4362C109.198 44.3466 109.122 45.0509 109.512 45.2284Z" fill="#602915"/>
<path d="M110.047 46.2295C108.757 54.3106 100.979 58.6449 94.5222 62.3645C93.7275 62.8218 94.3468 64.1139 95.1507 63.6532C102.056 59.6944 110.1 55.0035 111.091 46.3082C111.168 45.6326 110.152 45.5729 110.047 46.2295Z" fill="#602915"/>
<path d="M94.737 63.4863C97.9052 62.6616 103.123 62.272 105.947 64.1817C106.658 64.6628 107.416 63.5637 106.704 63.0843C103.471 60.9086 97.9504 61.239 94.4205 62.5428C93.8896 62.7392 94.1883 63.6291 94.737 63.4863Z" fill="#602915"/>
<path d="M106.999 64.9783C108.967 71.7828 97.3473 73.3428 92.8165 73.7954C92.1154 73.8655 92.1789 75.0512 92.8909 75.0437C96.9207 75.0018 112.453 71.8965 107.996 64.6436C107.708 64.1747 106.819 64.3535 106.999 64.9783Z" fill="#602915"/>
<path d="M92.8582 75.4692C93.5373 75.4824 94.2822 75.8576 94.4792 76.5592C94.5849 76.9356 94.485 77.3466 94.9068 77.5644C95.2085 77.7204 95.5659 77.5766 95.7499 77.3004C96.1781 76.6574 95.6655 75.6287 95.2315 75.1283C94.6621 74.4726 93.8308 74.0822 92.965 74.0544C92.0532 74.0249 91.9451 75.4521 92.8582 75.4692Z" fill="#602915"/>
<path d="M39.1962 27.7657C38.5439 26.9473 37.907 26.1136 37.3002 25.2612C36.6998 24.4181 36.2177 23.4472 35.5342 22.6739C35.2648 22.3692 34.8275 22.6939 34.964 23.0489C35.3179 23.9695 36.0186 24.8407 36.588 25.6438C37.2281 26.548 37.9116 27.4094 38.6382 28.2454C38.9501 28.6043 39.4912 28.1354 39.1962 27.7657Z" fill="#602915"/>
<path d="M33.7293 20.5081L33.6314 20.4627C33.4673 20.3864 33.2686 20.5069 33.2098 20.6617L33.1669 20.7733C33.0275 21.1393 33.4339 21.4781 33.7737 21.3168C34.1375 21.1444 34.0581 20.6599 33.7293 20.5081Z" fill="#602915"/>
<path d="M41.8563 24.5575C41.7725 24.2865 41.6741 24.0389 41.4775 23.8296C41.4042 23.752 41.2764 23.6856 41.1659 23.7215C40.6482 23.8922 41.0875 24.3747 41.1904 24.6884C41.3234 25.095 41.9864 24.9783 41.8563 24.5575Z" fill="#602915"/>
<path d="M31.9489 34.2272C31.1277 33.7274 30.3327 33.1916 29.5469 32.6387C28.8353 32.1382 28.1887 31.5614 27.3959 31.1939C27.1839 31.0956 27.0607 31.3761 27.1653 31.5288C28.1629 32.9841 30.0313 33.9688 31.5362 34.8247C31.9377 35.0535 32.3517 34.4717 31.9489 34.2272Z" fill="#602915"/>
<path d="M23.2534 28.8074C23.113 28.8161 23.0388 28.8368 22.9184 28.9069C22.749 29.0059 22.6795 29.1889 22.7576 29.3732C22.8279 29.5391 22.9242 29.6237 23.0596 29.739C23.6961 30.2789 24.3613 28.739 23.2534 28.8074Z" fill="#602915"/>
<path d="M73.8686 27.9182C75.2619 26.4427 76.6895 24.9755 77.9424 23.3763C78.2309 23.0081 77.6655 22.4901 77.3294 22.8247C75.8887 24.2578 74.599 25.8475 73.2978 27.4052C73.0186 27.7391 73.5663 28.2384 73.8686 27.9182Z" fill="#602915"/>
<path d="M79.1027 22.3055C79.1785 22.237 79.2534 22.1688 79.3292 22.1003C79.5332 21.915 79.45 21.4655 79.1252 21.4795C79.0287 21.4838 78.9319 21.4877 78.8354 21.4916C77.8983 21.5313 78.5185 22.8355 79.1027 22.3055Z" fill="#602915"/>
<path d="M80.2924 36.1333C80.9628 35.7877 81.6419 35.4579 82.3186 35.1245C82.8327 34.8713 83.5553 34.717 83.7621 34.1397C83.8216 33.9738 83.7295 33.8009 83.5717 33.7358C83.0065 33.504 82.3811 33.9639 81.8683 34.2006C81.1826 34.5165 80.5156 34.8703 79.8525 35.2312C79.2883 35.5379 79.7145 36.4313 80.2924 36.1333Z" fill="#602915"/>
<path d="M84.9893 33.6238C85.5717 33.6678 85.641 32.7622 85.0576 32.7181C84.4747 32.6741 84.4055 33.5798 84.9893 33.6238Z" fill="#602915"/>
<path d="M88.1064 32.3127L88.2143 32.2506C88.4331 32.1245 88.4539 31.8488 88.2566 31.6908L88.1592 31.6133C87.9133 31.4172 87.5451 31.6264 87.5232 31.9167C87.5013 32.2075 87.8338 32.47 88.1064 32.3127Z" fill="#602915"/>
<path d="M82.8388 44.9099C83.4223 44.8976 84.3732 44.9184 84.8033 44.4635C84.984 44.2728 84.9862 43.8995 84.6833 43.8136C84.3939 43.7319 84.1507 43.7904 83.8588 43.8364C83.5443 43.8855 83.233 43.9041 82.915 43.8993C82.2606 43.8901 82.1921 44.9233 82.8388 44.9099Z" fill="#602915"/>
<path d="M23.8986 48.3339C27.4705 53.0929 29.8479 58.6221 35.7561 61.0476C36.3104 61.2754 36.7798 60.3991 36.2431 60.0991C33.2199 58.4097 30.8199 56.3229 28.759 53.5336C27.3466 51.6213 26.1444 49.5452 24.5615 47.7637C24.1843 47.339 23.563 47.8869 23.8986 48.3339Z" fill="#602915"/>
<path d="M85.7044 53.2326C85.5255 53.3215 85.4318 53.4021 85.3037 53.553C85.1163 53.7727 85.324 54.1018 85.5771 54.125C85.7477 54.1405 85.8245 54.1356 85.9891 54.0818C86.619 53.8767 86.2824 52.9445 85.7044 53.2326Z" fill="#602915"/>
<path d="M84.1107 54.779C82.9126 56.1673 81.715 57.5557 80.5169 58.9441C79.3871 60.2522 78.1531 61.2687 76.8823 62.4177C76.485 62.7769 76.9071 63.4643 77.4058 63.2133C78.7862 62.5203 79.8276 61.3644 80.8032 60.1931C82.1584 58.565 83.4957 56.9205 84.8422 55.2841C85.2089 54.8382 84.4782 54.3533 84.1107 54.779Z" fill="#602915"/>
<path d="M35.3647 45.4613C35.0708 44.2716 33.579 43.0523 32.3101 43.1881C30.7204 43.3579 30.4389 45.1964 31.3009 46.2908C31.4853 46.5252 31.9116 46.3279 31.8331 46.0327C31.7351 45.664 31.4757 45.2483 31.5012 44.8683C31.5529 44.1102 32.3477 43.8241 32.9748 44.0611C33.6613 44.3204 34.4301 44.8702 34.614 45.6081C34.7329 46.0834 35.4832 45.9411 35.3647 45.4613Z" fill="#602915"/>
<path d="M31.3656 45.9012C29.5465 46.0778 28.8415 48.3042 29.5418 49.8246C30.2538 51.3697 32.7618 52.6008 34.3585 51.9442C34.7858 51.7685 34.5271 51.1672 34.1143 51.2161C32.864 51.3645 31.6811 50.8965 30.7323 50.0777C29.6172 49.1153 29.8842 46.7897 31.4909 46.5389C31.9096 46.4735 31.7752 45.8615 31.3656 45.9012Z" fill="#602915"/>
<path d="M79.5957 54.5388C81.6366 54.4438 83.135 53.3294 83.8472 51.4175C84.0784 50.7959 84.4049 49.9298 83.9244 49.3342C83.4035 48.6881 82.471 48.8507 81.8196 49.1507C81.4332 49.329 81.6462 49.9081 82.0518 49.843C82.1763 49.8224 82.5037 49.7023 82.6176 49.7404C83.0441 49.883 83.1934 50.4649 83.1426 50.8125C83.067 51.3273 82.7102 51.955 82.4026 52.3512C81.7024 53.2521 80.6684 53.7107 79.5534 53.8202C79.1507 53.8595 79.1856 54.5575 79.5957 54.5388Z" fill="#602915"/>
<path d="M82.7079 49.5427C83.1564 48.4466 83.0179 47.3312 81.7742 46.9185C81.1535 46.7121 79.0826 46.3465 79.0713 47.4501C79.0695 47.6096 79.1678 47.7051 79.3179 47.737C79.5961 47.796 79.7765 47.6451 80.0471 47.5908C80.3708 47.5258 80.7215 47.5715 81.044 47.629C81.3821 47.6885 81.7482 47.7724 81.9754 48.044C82.2748 48.402 82.1269 48.8872 81.997 49.2874C81.8461 49.7513 82.5238 49.9912 82.7079 49.5427Z" fill="#602915"/>
<path d="M55.876 54.1606C55.9527 54.2348 56.0102 54.2906 56.1039 54.3406C56.3025 54.4463 56.6097 54.3689 56.6128 54.0973C56.6153 53.8694 56.5626 53.7429 56.3641 53.6179C56.0286 53.4071 55.5618 53.8565 55.876 54.1606Z" fill="#602915"/>
<path d="M60.4721 54.1435C60.3993 54.261 60.335 54.3774 60.3718 54.5187C60.3964 54.6127 60.4805 54.7134 60.5884 54.7113C60.7542 54.7072 60.803 54.6524 60.9093 54.5365C61.2089 54.2099 60.6901 53.7911 60.4721 54.1435Z" fill="#602915"/>
<path d="M57.4748 28.4416C57.3957 28.4356 57.3131 28.4222 57.227 28.4014C56.2846 28.1733 55.6681 27.1824 55.0728 26.4972C54.3791 25.699 53.6379 24.8963 52.6469 24.4722C52.0967 24.2371 51.5027 24.1328 50.9038 24.0876C50.7291 24.0744 50.5539 24.0665 50.379 24.0614C49.4924 24.0361 48.6034 24.0902 47.7259 24.2229C47.7744 23.1896 48.7525 22.2922 49.786 22.3322C49.7641 21.9473 49.7432 21.5545 49.8459 21.1831C49.9491 20.8117 50.1993 20.459 50.5653 20.3377C50.6942 20.2946 50.8261 20.2827 50.959 20.2927C51.2436 20.3142 51.5295 20.4364 51.7867 20.5716C52.9274 21.1697 53.9185 22.0498 54.6473 23.1109C54.5827 22.0356 54.6865 20.9501 54.9492 19.9052C55.9806 20.8322 57.0115 21.7587 58.0429 22.6857C58.3913 22.9987 58.744 23.3146 59.1205 23.5934C59.1863 24.9783 59.272 28.5772 57.4748 28.4416Z" fill="#EA2C4A"/>
<path d="M59.1207 23.5937C58.7443 23.3149 58.3916 22.9989 58.0432 22.686C57.0118 21.759 55.9808 20.8325 54.9494 19.9055C55.1129 19.257 55.3368 18.6237 55.62 18.0177C55.7331 17.7754 55.8655 17.5265 56.09 17.3829C56.2465 17.2829 56.4253 17.2481 56.6071 17.2618C56.8877 17.283 57.1743 17.4196 57.3914 17.6063C57.9003 18.0445 58.158 18.7007 58.3614 19.3403C58.779 20.6506 59.0396 22.0149 59.1107 23.3895C59.1137 23.4505 59.117 23.5187 59.1207 23.5937Z" fill="#EA2C4A"/>
<path d="M64.2746 16.6349C64.0141 16.6153 63.743 16.4982 63.522 16.3514C61.9456 15.3051 61.5022 13.1454 60.0992 11.876C59.3215 11.1716 58.3097 10.797 57.3335 10.413C57.1472 10.339 56.9559 10.262 56.8088 10.1252C56.4544 9.79663 56.4602 9.22828 56.6042 8.76606C56.8859 7.85947 57.6123 7.10316 58.5075 6.78437C58.9398 6.63098 59.3729 6.58005 59.7993 6.61223C61.9486 6.77444 63.9165 9.04472 64.6428 10.8502C65.2403 12.3355 65.3678 13.9822 65.1891 15.5736C65.1516 15.911 65.0811 16.2818 64.8123 16.4895C64.6561 16.6101 64.4685 16.6496 64.2746 16.6349Z" fill="#F798B5"/>
<path d="M49.5855 17.9309C48.751 17.868 47.5866 16.8424 47.3441 16.3412C46.8859 15.3966 47.661 14.8023 48.4644 14.8629C48.7841 14.887 49.1085 15.0148 49.361 15.2655C49.7675 15.6687 50.0844 16.1616 50.2827 16.6984C50.3752 16.9482 50.4411 17.2304 50.3376 17.4757C50.1867 17.8337 49.9114 17.9555 49.5855 17.9309Z" fill="#F798B5"/>
<path d="M46.5947 22.651C46.5769 22.6497 46.5596 22.6479 46.5424 22.6453C46.3338 22.613 46.1237 22.5399 45.9731 22.3917C45.8228 22.2435 45.7448 22.0096 45.8235 21.8134C45.9261 21.5565 46.1765 21.4797 46.4446 21.4999C46.7323 21.5216 47.041 21.6549 47.2105 21.7974C47.7403 22.2425 47.0789 22.6876 46.5947 22.651Z" fill="#F798B5"/>
<path d="M56.2235 58.5924C55.9825 58.5743 55.7303 58.4793 55.5168 58.3639C54.7709 57.9614 54.1364 57.356 53.6989 56.6308C53.4803 56.2683 53.3081 55.8662 53.2894 55.4436C53.2565 54.6952 53.7224 53.9899 54.3361 53.5604C54.7611 53.2625 55.6744 52.7734 56.3587 52.825C56.6281 52.8454 56.8622 52.9498 57.0172 53.1824C57.1445 53.3735 57.1992 53.603 57.243 53.8286C57.4967 55.136 57.4541 56.4997 57.1203 57.7887C57.0597 58.0229 56.9812 58.2687 56.7976 58.427C56.6364 58.5656 56.4342 58.6084 56.2235 58.5924ZM56.2036 53.5641C55.904 53.5415 55.6106 53.903 55.8765 54.1601C55.9532 54.2343 56.0107 54.29 56.1044 54.34C56.1521 54.3655 56.206 54.3803 56.2607 54.3845C56.4332 54.3975 56.6107 54.3031 56.6133 54.0967C56.6157 53.8689 56.5631 53.7424 56.3646 53.6174C56.313 53.5849 56.2583 53.5682 56.2036 53.5641Z" fill="#FBE971"/>
<path d="M56.2602 54.3849C56.2055 54.3808 56.1516 54.366 56.1039 54.3405C56.0102 54.2905 55.9527 54.2347 55.876 54.1605C55.6102 53.9035 55.9035 53.542 56.2032 53.5646C56.2579 53.5687 56.3125 53.5854 56.3641 53.6179C56.5626 53.7429 56.6153 53.8693 56.6128 54.0972C56.6102 54.3036 56.4327 54.398 56.2602 54.3849Z" fill="#9B641D"/>
<path d="M52.4577 73.2148C52.2608 73.1999 52.0587 73.1279 51.8793 73.0405C51.2218 72.7231 50.6072 72.1218 50.6261 71.3911C50.6414 70.8026 51.0565 70.3103 51.4491 69.8713C51.7348 69.5517 52.0205 69.232 52.3062 68.9129C52.4361 68.7674 52.5759 68.6157 52.7619 68.5573C52.8612 68.526 52.9665 68.524 53.071 68.5319C53.1074 68.5346 53.1438 68.5387 53.1801 68.5429C53.236 68.5497 53.2917 68.5571 53.347 68.5653C54.1018 68.963 54.9156 69.2051 55.7413 69.2679C56.2104 69.3033 56.6834 69.2803 57.1517 69.195C57.3006 69.4387 57.2162 69.8934 57.1826 70.1246C57.1733 70.1897 57.1608 70.2599 57.1107 70.3017C57.0692 70.3366 57.0138 70.3414 56.9582 70.3372C56.9364 70.3356 56.9148 70.3325 56.8935 70.3292C56.4203 70.2545 55.9412 70.1682 55.4632 70.1321C55.0533 70.1012 54.6446 70.107 54.2418 70.1884C53.3691 70.3645 52.5171 71.0004 52.4022 71.8829C52.3416 72.3475 52.5136 72.8532 52.8932 73.127C52.7595 73.2035 52.6102 73.2263 52.4577 73.2148Z" fill="#EA2C4A"/>
<path d="M55.742 69.2676C54.9164 69.2048 54.1025 68.9628 53.3478 68.565C54.215 68.6932 55.0498 68.995 55.9239 69.0797C55.9274 69.0804 55.9314 69.0807 55.9354 69.081C56.0443 69.0892 56.2013 69.071 56.365 69.0535C56.5291 69.0355 56.7003 69.0184 56.8381 69.0288C56.9133 69.0345 56.9784 69.0483 57.027 69.0743C57.0807 69.103 57.1214 69.1445 57.1525 69.1947C56.6841 69.2801 56.2111 69.303 55.742 69.2676Z" fill="#311713"/>
<path d="M56.2112 74.3076C55.924 74.2859 55.6618 74.0679 55.5353 73.8018C55.3902 73.4966 55.3891 73.1437 55.4216 72.8076C55.4566 72.4446 55.5305 72.0758 55.7199 71.7642C55.865 71.5246 56.0879 71.3193 56.3608 71.2594C56.4621 71.2375 56.5534 71.2306 56.6357 71.2368C57.6103 71.3103 57.3419 73.2249 57.0092 73.7762C56.8569 74.0285 56.6302 74.2653 56.3384 74.3041C56.2955 74.31 56.253 74.3107 56.2112 74.3076Z" fill="#F798B5"/>
<path d="M64.7906 31.4124C64.0503 31.3565 64.5812 30.9883 64.9151 30.6281C65.6843 29.7972 66.3081 28.831 66.7468 27.7878C68.1331 28.8471 69.5356 29.9224 70.6129 31.296C70.0165 31.0574 69.4016 30.8155 68.7662 30.7676C68.6662 30.76 68.5658 30.7574 68.465 30.7601C67.8161 30.7777 67.1993 31.024 66.5709 31.185C66.0151 31.3273 65.3805 31.4533 64.8035 31.4134C64.7991 31.413 64.7951 31.4127 64.7906 31.4124Z" fill="#DAE7E2"/>
<path d="M38.54 37.9399C39.4343 36.4178 40.4519 34.9501 41.4637 33.5178C42.1541 32.5405 42.8747 31.5718 43.7715 30.7801C44.2889 30.3237 44.9637 29.9145 45.6231 29.9642C45.7493 29.9738 45.8748 30.0002 45.9987 30.0462C46.7069 30.3094 47.0623 31.1572 46.9762 31.9073C46.89 32.6583 46.4594 33.322 45.9924 33.9164C45.4735 34.5761 44.8996 35.1834 44.3006 35.7669C43.8685 35.9051 43.4383 36.0484 43.0095 36.1962C41.4976 36.718 40.0059 37.2993 38.54 37.9399Z" fill="#F6FAF9"/>
<path d="M37.8158 42.1089C36.7741 42.0303 37.5749 39.6957 37.882 39.1175C38.0921 38.7211 38.3122 38.3285 38.5405 37.9397C40.0064 37.2992 41.4981 36.7178 43.01 36.196C43.4388 36.0482 43.869 35.9049 44.3011 35.7667C43.5429 36.5059 42.745 37.2067 41.9711 37.9277C41.2794 38.5726 40.5954 39.2288 39.9773 39.9468C39.5475 40.4456 38.832 41.8748 38.1852 42.0612C38.0421 42.1023 37.9199 42.1168 37.8158 42.1089Z" fill="#F6FAF9"/>
<path d="M48.6664 70.7221C48.5446 70.713 48.4194 70.6766 48.3034 70.6383C45.3896 69.674 42.8437 67.8108 40.6545 65.6597C39.948 64.9657 39.2757 64.2343 38.6917 63.4345C36.4936 60.4234 35.3613 57.0706 34.9931 55.6865C34.8681 55.2158 34.7728 54.7376 34.6828 54.2591C34.5399 53.498 34.411 52.7294 34.323 51.9577C34.3345 51.9532 34.3461 51.9483 34.3576 51.9438C34.7346 51.7889 34.5777 51.3026 34.2518 51.2239C34.2469 51.1587 34.2424 51.094 34.238 51.0288C34.2959 50.9715 34.3502 50.9103 34.4009 50.8484C35.1832 49.8852 35.3281 48.5641 35.3658 47.3238C35.3806 46.8317 35.3159 46.3323 35.1674 45.8646C35.3117 45.8021 35.4131 45.6609 35.3638 45.4608C35.3539 45.4203 35.3426 45.3796 35.3296 45.3393C35.4014 45.2942 35.4773 45.2606 35.5585 45.2394C35.6351 45.2197 35.7058 45.2134 35.7698 45.2183C36.623 45.2827 36.3855 47.3865 36.4097 47.9258C36.4752 49.3804 36.7091 50.8308 37.1402 52.2227C37.6223 53.7803 38.3541 55.2642 39.352 56.5571C41.4598 59.29 44.5693 61.027 47.542 62.7808C47.8313 62.952 48.1257 63.1275 48.3486 63.3795C48.5307 63.5852 48.6569 63.8329 48.7871 64.0744C49.4886 65.379 50.3501 66.5967 51.3464 67.692C50.4894 68.3771 49.7857 69.2522 49.3004 70.2365C49.2212 70.3978 49.1388 70.5712 48.9832 70.6606C48.8864 70.7164 48.778 70.7306 48.6664 70.7221ZM38.1628 56.5603C39.0226 58.8369 40.4653 60.89 42.3153 62.4712C43.7981 63.7386 45.5301 64.7019 46.9392 66.0514C47.3946 66.4873 47.8212 66.9733 48.0611 67.5562C48.301 68.1395 48.3307 68.8362 48.0142 69.381C47.8092 69.4604 47.6042 69.5393 47.3989 69.6181C47.4948 69.8346 47.7207 69.9511 47.9599 69.9691C48.0947 69.9793 48.2335 69.9583 48.3559 69.9064C48.6963 69.763 48.9327 69.4513 49.137 69.1433C49.3409 68.8351 49.5383 68.5075 49.8425 68.2979C50.0218 68.1741 50.2584 68.0601 50.2784 67.8433C50.2903 67.7141 50.2158 67.5941 50.1434 67.4863C49.0656 65.8765 47.9016 64.2065 46.2465 63.1967C44.3498 62.0391 42.5562 60.7128 40.8931 59.2395C39.9383 58.3932 39.0265 57.4989 38.1628 56.5603Z" fill="#DAE7E2"/>
<path d="M34.2377 51.0288C34.2011 50.4823 34.1897 49.935 34.2122 49.3872C34.2411 48.6962 34.3353 46.874 34.8671 45.8821C34.8969 45.8911 34.9282 45.897 34.9593 45.8994C35.0304 45.9047 35.1029 45.8923 35.1672 45.8645C35.3156 46.3323 35.3803 46.8317 35.3656 47.3238C35.3279 48.5641 35.183 49.8852 34.4007 50.8484C34.3499 50.9103 34.2957 50.9715 34.2377 51.0288Z" fill="#DAE7E2"/>
<path d="M34.9601 45.8996C34.929 45.8972 34.8977 45.8913 34.868 45.8824C34.9954 45.6447 35.1475 45.455 35.3302 45.3395C35.3432 45.3798 35.3544 45.4205 35.3644 45.461C35.4136 45.6611 35.3122 45.8023 35.168 45.8648C35.1037 45.8925 35.0313 45.905 34.9601 45.8996Z" fill="#311713"/>
<path d="M34.3231 51.9577C34.295 51.7133 34.271 51.4686 34.2519 51.224C34.5778 51.3027 34.7347 51.7889 34.3577 51.9438C34.3462 51.9483 34.3346 51.9532 34.3231 51.9577Z" fill="#311713"/>
<path d="M47.9598 69.9689C47.7206 69.9508 47.4946 69.8344 47.3987 69.6179C47.6041 69.5391 47.809 69.4602 48.014 69.3808C48.3306 68.836 48.3009 68.1392 48.061 67.5559C47.821 66.9731 47.3944 66.4871 46.939 66.0512C45.53 64.7017 43.7979 63.7383 42.3151 62.471C40.4652 60.8898 39.0225 58.8366 38.1627 56.5601C39.0264 57.4986 39.9382 58.3929 40.8929 59.2393C42.5561 60.7126 44.3497 62.0389 46.2463 63.1965C47.9015 64.2063 49.0655 65.8763 50.1433 67.486C50.2156 67.5938 50.2902 67.7138 50.2782 67.8431C50.2583 68.0599 50.0216 68.1739 49.8424 68.2977C49.5381 68.5072 49.3408 68.8348 49.1369 69.1431C48.9325 69.451 48.6962 69.7628 48.3558 69.9062C48.2334 69.958 48.0945 69.979 47.9598 69.9689Z" fill="#C0D3CB"/>
<path d="M59.5183 72.1292C59.2676 71.3802 59.0298 70.6262 58.8057 69.8689C58.7602 69.7141 58.7152 69.5453 58.7766 69.3962C58.8534 69.2075 59.0673 69.1221 59.2575 69.0493C60.6086 68.531 61.8282 67.6746 62.7743 66.5794C63.2476 66.0315 63.6577 65.421 64.2133 64.9562C64.8094 64.4574 65.5402 64.1536 66.2459 63.8259C68.3872 62.8321 70.3931 61.548 72.2005 60.0305C73.787 58.6982 75.2221 57.1851 76.4646 55.5274C76.8028 55.0762 77.6325 53.3668 78.2919 53.3629C78.308 53.3628 78.3236 53.363 78.3383 53.3642C79.1484 53.4253 78.4719 55.2429 78.3402 55.702C77.1525 59.8447 75.0572 63.7893 71.9529 66.8138C68.6419 70.0402 64.141 72.141 59.5183 72.1292ZM73.4218 63.7203C73.3142 63.7122 73.1777 63.7257 73.0083 63.7665C72.5543 63.8753 71.972 64.4981 71.5723 64.7582C71.072 65.0834 70.5608 65.3923 70.0399 65.683C67.9989 66.8226 65.8074 67.6937 63.5388 68.2586C62.7786 68.4484 61.9997 68.6074 61.3036 68.9681C60.6074 69.3282 59.9897 69.9299 59.8223 70.6958C59.7957 70.8173 59.7821 70.9499 59.8386 71.0601C59.9118 71.2038 60.067 71.2576 60.2342 71.2702C60.3275 71.2773 60.4241 71.2717 60.5134 71.2613C65.1234 70.7249 69.5486 68.6964 72.9642 65.5535C73.3799 65.1704 74.2608 63.7837 73.4218 63.7203Z" fill="#DAE7E2"/>
<path d="M60.234 71.2698C60.0668 71.2572 59.9117 71.2034 59.8384 71.0597C59.7819 70.9495 59.7955 70.8169 59.8221 70.6954C59.9895 69.9295 60.6073 69.3278 61.3034 68.9677C61.9995 68.607 62.7784 68.448 63.5386 68.2582C65.8072 67.6933 67.9987 66.8222 70.0397 65.6826C70.5606 65.3919 71.0718 65.083 71.5721 64.7578C71.9718 64.4977 72.5541 63.8749 73.0081 63.7661C73.1775 63.7253 73.314 63.7118 73.4216 63.7199C74.2606 63.7833 73.3797 65.17 72.964 65.5531C69.5484 68.696 65.1232 70.7245 60.5132 71.2609C60.4239 71.2713 60.3273 71.2769 60.234 71.2698Z" fill="#C0D3CB"/>
<path d="M62.7827 58.1881C62.6871 58.1809 62.5971 58.1463 62.5242 58.0764C62.4916 58.0449 62.4637 58.007 62.454 57.9633C62.4413 57.9056 62.4615 57.846 62.4809 57.7905C62.581 57.507 62.7306 56.1344 62.9055 56.0036C62.9515 55.9691 63.0092 55.9569 63.0754 55.9619C63.4387 55.9893 64.0477 56.5285 64.2866 56.6337C64.3679 56.6702 64.4575 56.7096 64.4957 56.7903C64.5467 56.8967 64.481 57.0267 64.387 57.0987C64.2931 57.1703 64.1761 57.203 64.0718 57.2587C63.7867 57.4103 63.619 57.7119 63.3874 57.9368C63.2282 58.0907 62.9912 58.2039 62.7827 58.1881Z" fill="#F9AF15"/>
<path d="M22.4908 58.3501C21.3634 58.2651 20.2999 57.6983 19.2998 57.1041C16.6881 55.5525 14.2066 53.734 11.8965 51.6781C10.7989 50.7009 9.73236 49.6599 8.8367 48.4489C8.56371 48.0805 7.91732 47.5103 8.42706 47.1325C8.52363 47.061 8.62042 47.0353 8.71574 47.0425C9.12062 47.073 9.49871 47.6989 9.72039 47.9486C11.607 50.0733 13.7791 51.936 16.2763 53.0899C17.8367 53.8103 19.496 54.2441 21.0693 54.9293C21.4739 55.1052 21.8827 55.306 22.1868 55.6497C22.7905 56.331 22.8438 57.3953 22.8616 58.3603C22.7374 58.363 22.6136 58.3594 22.4908 58.3501ZM18.4416 55.0549C18.354 55.0483 18.2705 55.0697 18.2365 55.1543C18.2163 55.205 18.2233 55.2632 18.2353 55.317C18.3531 55.8526 18.8542 56.144 19.3048 56.3693C19.7609 56.5977 20.2236 56.8281 20.719 56.9174C20.7507 56.9229 20.781 56.9266 20.81 56.9288C21.4225 56.9754 21.4051 56.2623 20.9774 55.9116C20.4015 55.4393 19.2655 55.3146 18.5773 55.0835C18.5355 55.0695 18.488 55.0584 18.4416 55.0549Z" fill="#DAE7E2"/>
<path d="M33.7473 71.8362C33.7419 71.8358 33.7371 71.8355 33.7317 71.8351C28.5408 71.3968 23.3511 70.9395 18.1632 70.4625C17.7701 70.4266 17.3766 70.3902 16.9825 70.3605C16.0397 70.2893 15.095 70.2556 14.1528 70.349C14.1122 69.9198 14.4755 69.5846 14.8025 69.3464C15.6676 68.7145 16.5603 68.1313 17.476 67.5981C16.8403 66.9844 15.9687 66.7908 15.1432 66.5885C11.7201 65.7489 8.36247 64.3641 5.56635 62.038C5.14711 61.689 4.72906 61.3032 4.49784 60.7801C4.36227 60.4724 4.20207 59.7784 4.44039 59.4741C4.56062 59.3207 4.6586 59.2673 4.74806 59.2741C4.91808 59.2869 5.05722 59.517 5.25901 59.6901C5.95181 60.2842 6.65638 60.7364 7.46634 61.1159C9.43756 62.0381 11.4939 62.7421 13.5957 63.2129C14.3319 63.3774 15.0882 63.5119 15.8442 63.569C17.0659 63.6612 18.2869 63.5516 19.4225 63.0417C19.8853 62.8338 20.3379 62.5586 20.8327 62.506C20.9391 62.4948 21.0439 62.4938 21.1475 62.5016C21.9594 62.5629 22.6882 63.1657 23.4326 63.5787C24.1364 63.9695 24.9118 64.2023 25.7004 64.2618C25.7557 64.266 25.8108 64.2698 25.866 64.272C25.9687 64.2767 26.0721 64.2784 26.1748 64.2861C26.2976 64.2954 26.419 64.3134 26.5356 64.3549C26.8385 64.4626 27.0757 64.7176 27.3086 64.957C29.4457 67.1528 32.1022 68.6433 34.2689 70.8026C34.436 70.9695 34.6147 71.1859 34.5727 71.4344C34.5119 71.7956 34.0785 71.8612 33.7473 71.8362ZM22.1316 65.0836C21.1579 65.0102 20.0653 65.1499 19.4716 65.7194C18.3664 66.7802 21.169 67.2033 21.7075 67.3732C22.6227 67.6623 23.3933 68.3254 24.1634 68.9416C24.9041 69.5346 25.6832 70.1059 26.5689 70.3649C26.7894 70.4294 27.0182 70.4718 27.2486 70.4892C27.9437 70.5416 28.6544 70.3663 29.1983 69.8823C28.7297 69.2179 28.3496 68.4755 28.0731 67.6865C28.0165 67.5257 27.9604 67.3559 27.8441 67.2421C27.7083 67.1092 27.5234 67.0801 27.3372 67.066C27.3073 67.0638 27.2772 67.062 27.2475 67.0601C27.2174 67.0584 27.1877 67.0567 27.1582 67.0544C27.1564 67.0543 27.1547 67.0542 27.1528 67.054C25.818 66.951 24.7613 65.7999 23.4915 65.3489C23.1337 65.2222 22.6495 65.1227 22.1316 65.0836Z" fill="#DAE7E2"/>
<path d="M27.2497 70.4896C27.0192 70.4722 26.7904 70.4298 26.57 70.3653C25.6842 70.1063 24.9051 69.535 24.1644 68.942C23.3943 68.3258 22.6238 67.6628 21.7085 67.3736C21.17 67.2037 18.3674 66.7806 19.4726 65.7198C20.0663 65.1503 21.159 65.0106 22.1326 65.084C22.6505 65.1231 23.1347 65.2226 23.4925 65.3493C24.7624 65.8003 25.8191 66.9514 27.1538 67.0544C27.1557 67.0546 27.1575 67.0547 27.1592 67.0548C27.1887 67.0571 27.2185 67.0588 27.2486 67.0606C27.2783 67.0624 27.3084 67.0642 27.3382 67.0664C27.5244 67.0805 27.7093 67.1096 27.8451 67.2425C27.9614 67.3563 28.0176 67.5261 28.0741 67.6869C28.3506 68.4759 28.7308 69.2183 29.1994 69.8827C28.6554 70.3667 27.9447 70.542 27.2497 70.4896Z" fill="#C0D3CB"/>
<path d="M20.8104 56.9289C20.7814 56.9267 20.7511 56.923 20.7194 56.9174C20.2239 56.8282 19.7613 56.5978 19.3052 56.3693C18.8546 56.1441 18.3535 55.8526 18.2356 55.3171C18.2236 55.2633 18.2167 55.2051 18.2369 55.1544C18.2709 55.0698 18.3544 55.0483 18.442 55.055C18.4883 55.0585 18.5359 55.0696 18.5776 55.0835C19.2658 55.3147 20.4019 55.4394 20.9778 55.9117C21.4055 56.2624 21.4229 56.9755 20.8104 56.9289Z" fill="#C0D3CB"/>
<path d="M16.0178 45.0444C14.4231 44.924 12.952 43.9339 11.6589 42.8642C10.1252 41.5952 8.70049 40.1735 7.27827 38.7533C7.08322 38.5584 6.86937 38.3021 6.93071 38.0143C6.98748 37.7485 7.25367 37.6098 7.49387 37.5537C7.7387 37.4966 7.98577 37.484 8.23223 37.5026C8.71576 37.5391 9.19758 37.6953 9.65811 37.8695C11.1938 38.4505 13.0571 39.2131 14.2485 40.4683C15.3105 41.5877 16.4291 42.4725 16.9893 44.0543C17.0972 44.3581 17.1543 44.7746 16.9072 44.9581C16.8105 45.0304 16.6893 45.0441 16.5741 45.0501C16.387 45.0606 16.2018 45.0582 16.0178 45.0444Z" fill="#F6FAF9"/>
<path d="M86.2761 63.9924C86.1396 63.9821 86.0031 63.9661 85.8666 63.9437C86.0394 62.9931 86.267 61.9505 87.0413 61.3721C87.4312 61.081 87.9144 60.9479 88.3886 60.838C90.2332 60.4111 92.1326 60.246 93.9684 59.7817C96.9065 59.0376 99.5985 57.5425 102.017 55.7427C102.301 55.5312 102.818 54.9728 103.269 55.0069C103.375 55.0149 103.478 55.0558 103.573 55.1416C104.076 55.5954 103.272 56.0561 102.913 56.3773C101.732 57.4316 100.39 58.2913 99.0244 59.0821C96.1496 60.7467 93.1234 62.1496 89.9956 63.2679C88.7975 63.6966 87.5339 64.0874 86.2761 63.9924ZM91.2677 61.3789C91.2161 61.375 91.1617 61.379 91.1134 61.3862C90.3178 61.505 89.0446 61.4478 88.334 61.823C87.8067 62.102 87.6742 62.8034 88.3571 62.855C88.3896 62.8574 88.4235 62.8586 88.4593 62.8578C89.0203 62.8491 89.5672 62.6941 90.1064 62.5413C90.6397 62.3896 91.2389 62.1822 91.4536 61.6712C91.4753 61.6205 91.4921 61.5636 91.4778 61.5102C91.4542 61.4208 91.3655 61.3863 91.2677 61.3789Z" fill="#DAE7E2"/>
<path d="M71.7204 75.5303C71.3505 75.5024 70.8808 75.3689 70.871 75.0015C70.864 74.7497 71.0953 74.5642 71.3065 74.4262C74.0392 72.6363 77.2066 71.5849 79.9127 69.7551C80.2077 69.5556 80.51 69.3413 80.8614 69.2829C80.9973 69.26 81.1344 69.262 81.2722 69.2724C81.3861 69.281 81.4999 69.2954 81.613 69.307C81.6747 69.3134 81.736 69.3189 81.7978 69.3236C82.6773 69.39 83.5694 69.2824 84.4075 69.0091C85.2946 68.7192 86.1943 68.2385 87.1 68.3068C87.2152 68.3155 87.331 68.3332 87.4465 68.3615C87.9839 68.4925 88.4391 68.8358 88.9167 69.1147C90.0885 69.7987 91.4178 70.1012 92.7797 70.2039C93.6232 70.2676 94.4796 70.2543 95.3179 70.2081C97.7116 70.0766 100.092 69.7081 102.413 69.1092C103.367 68.8632 104.216 68.5286 105.074 68.0517C105.325 67.9123 105.514 67.7071 105.704 67.7214C105.804 67.729 105.903 67.7972 106.012 67.9682C106.226 68.3069 105.939 68.9671 105.742 69.2486C105.403 69.7298 104.881 70.0444 104.363 70.3224C100.909 72.1767 96.9848 73.0119 93.0752 73.2976C92.1323 73.3669 91.1401 73.4199 90.3409 73.9253C91.2668 74.597 92.1592 75.3158 93.0131 76.0765C93.3361 76.3643 93.6837 76.7537 93.5708 77.1708C92.5445 76.9283 91.4953 76.8121 90.4429 76.7326C90.0049 76.6996 89.5661 76.6728 89.1285 76.6464C83.3291 76.2941 77.5312 75.9222 71.7347 75.5314C71.7298 75.531 71.7249 75.5306 71.7204 75.5303ZM79.546 71.8349C79.3388 71.8192 79.1301 71.8183 78.9595 71.9279C78.8129 72.0219 78.7244 72.1807 78.6362 72.3309C78.2059 73.0666 77.6686 73.7394 77.0465 74.322C77.57 74.886 78.326 75.1721 79.1015 75.2306C79.3585 75.25 79.6173 75.2444 79.8708 75.2156C80.8887 75.1003 81.8391 74.6599 82.7505 74.1913C83.6976 73.7046 84.6532 73.1714 85.7087 73.032C86.3297 72.9496 89.4887 72.9756 88.4376 71.7529C87.8729 71.0954 86.689 70.7839 85.6033 70.702C85.0262 70.6584 84.4764 70.6794 84.062 70.7485C82.5894 70.9928 81.2405 71.9619 79.7518 71.8518C79.75 71.8516 79.7478 71.8515 79.746 71.8513C79.7131 71.8489 79.6798 71.8458 79.646 71.8429C79.6131 71.8404 79.5793 71.8374 79.546 71.8349Z" fill="#DAE7E2"/>
<path d="M79.1018 75.2311C78.3263 75.1726 77.5703 74.8866 77.0468 74.3225C77.6689 73.7399 78.2062 73.0671 78.6364 72.3314C78.7247 72.1812 78.8131 72.0225 78.9598 71.9284C79.1303 71.8189 79.3391 71.8198 79.5463 71.8354C79.5796 71.8379 79.6134 71.841 79.6463 71.8434C79.6801 71.8463 79.7134 71.8494 79.7463 71.8519C79.748 71.852 79.7503 71.8522 79.752 71.8523C81.2408 71.9624 82.5897 70.9933 84.0623 70.749C84.4766 70.68 85.0264 70.659 85.6036 70.7025C86.6893 70.7845 87.8731 71.096 88.4379 71.7535C89.489 72.9762 86.33 72.9501 85.709 73.0325C84.6535 73.1719 83.6979 73.7052 82.7507 74.1918C81.8394 74.6605 80.889 75.1009 79.8711 75.2162C79.6176 75.2449 79.3587 75.2505 79.1018 75.2311Z" fill="#C0D3CB"/>
<path d="M88.3565 62.8548C87.6735 62.8032 87.806 62.1018 88.3333 61.8228C89.044 61.4476 90.3172 61.5048 91.1127 61.3859C91.1611 61.3788 91.2155 61.3748 91.267 61.3787C91.3649 61.3861 91.4535 61.4206 91.4771 61.51C91.4915 61.5633 91.4746 61.6202 91.4529 61.671C91.2382 62.182 90.639 62.3893 90.1057 62.541C89.5665 62.6939 89.0196 62.8489 88.4586 62.8576C88.4228 62.8584 88.3889 62.8572 88.3565 62.8548Z" fill="#C0D3CB"/>
<path d="M95.5314 51.8741C95.3264 51.8586 95.1214 51.8315 94.917 51.7915C94.7905 51.7668 94.6593 51.7341 94.5638 51.6482C94.3203 51.4268 94.4494 51.0251 94.6166 50.7413C95.4858 49.2673 96.8606 48.5711 98.2097 47.6337C99.7231 46.5822 101.9 46.1254 103.687 45.7952C104.223 45.6957 104.779 45.6179 105.318 45.6586C105.593 45.6793 105.863 45.7306 106.124 45.8263C106.38 45.9198 106.652 46.0986 106.673 46.3712C106.695 46.6648 106.418 46.884 106.171 47.0456C104.377 48.2226 102.58 49.4021 100.686 50.4119C99.0899 51.2636 97.3099 52.0083 95.5314 51.8741Z" fill="#F6FAF9"/>
<path d="M79.135 52.8956C78.9791 52.751 78.8764 52.5478 78.8643 52.3354C78.8509 52.0983 78.9535 51.8588 79.1278 51.6993C79.1222 51.9878 79.1207 52.2743 79.122 52.5583C79.1226 52.6692 79.1252 52.783 79.135 52.8956Z" fill="#DAE7E2"/>
<path d="M79.6815 53.1224C79.5761 53.1145 79.4731 53.0928 79.3756 53.0519C79.2867 53.0148 79.2049 52.9608 79.1343 52.8955C79.1245 52.783 79.1219 52.6692 79.1213 52.5583C79.1199 52.2743 79.1214 51.9877 79.1271 51.6993C79.18 51.6505 79.2394 51.6099 79.3044 51.5781C79.4325 51.5158 79.5757 51.4904 79.7169 51.4688C80.4194 51.3613 81.0628 51.1957 81.7448 51.0285C81.8378 51.0056 81.914 50.9979 81.9758 51.0026C82.5138 51.0432 81.9489 52.0281 81.7035 52.2761C81.3002 52.6834 80.7655 52.9493 80.2053 53.073C80.0343 53.111 79.8549 53.1355 79.6815 53.1224Z" fill="#DAE7E2"/>
<path d="M32.8587 50.8852C32.5457 50.8616 32.2453 50.7159 31.9605 50.5737C31.6216 50.4041 31.2798 50.233 30.9872 49.9927C30.8022 49.8406 30.6344 49.6549 30.5622 49.4267C30.5063 49.2508 30.5106 49.0615 30.5361 48.8788C30.5629 48.6885 30.6325 48.2493 30.9017 48.2696C30.9047 48.2699 30.9074 48.2701 30.9104 48.2703C31.0991 48.2908 31.3764 48.6592 31.5542 48.7616C31.9537 48.9925 32.4141 49.093 32.8385 49.2739C33.2631 49.4549 33.68 49.7546 33.8076 50.1975C33.8242 50.256 33.8356 50.3177 33.8231 50.3767C33.8098 50.441 33.7689 50.4964 33.7245 50.545C33.546 50.7417 33.2903 50.8663 33.025 50.8857C32.9692 50.89 32.9138 50.8894 32.8587 50.8852Z" fill="#DAE7E2"/>
<path d="M32.1988 45.8019C32.146 45.7979 32.0934 45.7797 32.051 45.7492C31.8298 45.5907 31.6965 45.0311 31.962 44.858C32.0189 44.8212 32.0694 44.8071 32.1139 44.8104C32.3341 44.8271 32.4105 45.2701 32.4387 45.4587C32.4516 45.5456 32.4564 45.6403 32.4076 45.7131C32.3626 45.7803 32.2805 45.8081 32.1988 45.8019Z" fill="#DAE7E2"/>
<path d="M33.6364 45.847C33.4265 45.8312 33.162 45.5617 33.1037 45.3744C33.0871 45.3222 33.08 45.2675 33.0788 45.2125C33.0779 45.165 33.0811 45.1174 33.0864 45.0704C33.1007 44.9525 33.1439 44.8181 33.2561 44.7778C33.2846 44.7674 33.3143 44.7647 33.3445 44.767C33.3921 44.7706 33.4401 44.7867 33.4842 44.8057C33.7791 44.9335 33.9756 45.3454 33.8713 45.6617C33.8238 45.8048 33.7364 45.8546 33.6364 45.847Z" fill="#F6FAF9"/>
<path d="M79.2002 50.1796C79.0165 49.7999 79.1302 49.2715 79.3514 48.8696C79.2848 49.3019 79.2357 49.74 79.2002 50.1796Z" fill="#F6FAF9"/>
<path d="M79.9044 50.6321C79.7662 50.6217 79.6305 50.5819 79.5102 50.512C79.365 50.4273 79.2645 50.3124 79.1999 50.1796C79.2353 49.74 79.2845 49.302 79.3511 48.8697C79.421 48.7426 79.5016 48.6284 79.5869 48.5351C79.7682 48.3368 80.0812 48.2603 80.3658 48.2818C80.8522 48.3185 81.258 48.6416 80.7936 49.1368C80.6482 49.2918 80.4635 49.4102 80.3396 49.5828C80.516 49.6565 80.7071 49.7545 80.7668 49.9361C80.8443 50.1714 80.6522 50.4171 80.431 50.5283C80.2692 50.61 80.0845 50.6457 79.9044 50.6321Z" fill="#F6FAF9"/>
</svg>
