<svg width="114" height="106" viewBox="0 0 114 106" fill="none" xmlns="http://www.w3.org/2000/svg">
<path d="M51.9823 93.252C48.4738 94.2534 48.3954 102.817 52.6885 103.752C52.6885 103.752 52.9151 103.752 53.3306 103.739C54.2103 103.724 55.9167 103.673 57.9855 103.525C63.5276 103.136 71.6306 102.077 72.9653 99.1423C75.0199 94.6145 65.0315 81.9023 65.0315 81.9023L53.2744 83.3692C56.3174 86.7147 59.1135 91.3054 59.1184 92.0426C59.1203 92.379 58.2368 92.6285 57.1508 92.8186C55.6753 93.0717 53.8313 93.1909 53.4195 93.2143C53.3627 93.2187 53.3343 93.2211 53.3343 93.2211C52.9379 93.1353 52.57 93.1285 52.2379 93.1878C52.1008 93.2187 52.015 93.2427 51.9823 93.252Z" fill="#E8E3B1"/>
<path d="M51.9817 93.252C51.7478 93.3298 52.688 103.752 52.688 103.752C52.688 103.752 52.9146 103.752 53.3301 103.739C54.2098 103.724 55.9162 103.673 57.985 103.525C57.985 103.525 60.1526 101.954 59.7667 97.865C59.513 95.1109 58.0665 93.5477 57.1509 92.8174C55.6754 93.0705 53.8314 93.1896 53.4196 93.2131C53.3628 93.2174 53.3344 93.2199 53.3344 93.2199C52.938 93.1341 52.5701 93.1273 52.2379 93.1866C52.1003 93.2187 52.0145 93.2427 51.9817 93.252Z" fill="#EAE360"/>
<path d="M52.6885 103.751C52.6885 103.751 52.915 103.751 53.3305 103.739C54.5523 102.999 55.4135 100.878 55.3777 98.3818C55.3493 96.0352 54.5356 94.0374 53.4194 93.2133C53.3626 93.2176 53.3342 93.22 53.3342 93.22C48.5465 92.1804 47.9008 102.712 52.6885 103.751Z" fill="#FFFC9C"/>
<path d="M66.4442 94.9083C62.9358 95.9096 62.8573 104.473 67.1499 105.408C67.1499 105.408 67.3765 105.408 67.792 105.395C68.6711 105.38 70.3781 105.329 72.4469 105.181C77.989 104.792 88.0872 102.986 89.5374 100.106C93.0416 93.1481 79.4935 83.5586 79.4935 83.5586L65.3651 88.8988C68.4075 92.2443 73.5754 92.9611 73.5798 93.6982C73.5816 94.0347 72.6982 94.2841 71.6122 94.4742C70.1367 94.7274 68.2926 94.8465 67.8802 94.87C67.8234 94.8743 67.795 94.8768 67.795 94.8768C67.3987 94.791 67.0307 94.7842 66.698 94.8428C66.5628 94.8749 66.4763 94.899 66.4442 94.9083Z" fill="#FFFDCF"/>
<path d="M66.4447 94.9083C66.2107 94.986 67.1503 105.408 67.1503 105.408C67.1503 105.408 67.3769 105.408 67.7924 105.395C68.6715 105.38 70.3785 105.329 72.4473 105.181C72.4473 105.181 74.6149 103.611 74.229 99.5212C73.9753 96.7671 72.5288 95.204 71.6132 94.4736C70.1377 94.7268 68.2937 94.8459 67.8813 94.8694C67.8245 94.8737 67.7961 94.8762 67.7961 94.8762C67.3997 94.7903 67.0318 94.7836 66.699 94.8422C66.5632 94.8749 66.4768 94.899 66.4447 94.9083Z" fill="#EAE360"/>
<path d="M67.1494 105.408C67.1494 105.408 67.376 105.408 67.7914 105.396C69.0132 104.655 69.8738 102.535 69.8386 100.039C69.8102 97.692 68.9966 95.6943 67.8804 94.8701C67.8236 94.8744 67.7952 94.8769 67.7952 94.8769C63.0075 93.8366 62.3617 104.369 67.1494 105.408Z" fill="#FFFC9C"/>
<path d="M99.5555 91.8904C99.5555 91.8904 98.877 77.8058 106.238 68.6336C106.711 68.0434 107.151 68.4151 106.707 69.0275C104.469 72.1174 100.784 80.9748 101.469 91.8904C101.469 93.1387 99.5555 93.1387 99.5555 91.8904Z" fill="#AAE6F9"/>
<path d="M113.012 67.4867C112.418 63.6942 108.517 64.9166 108.517 64.9166C108.517 64.9166 107.591 60.9346 104.021 62.3471C100.452 63.7596 104.517 71.9144 104.517 71.9144C104.517 71.9144 113.607 71.2792 113.012 67.4867Z" fill="#F9BE8A"/>
<path d="M70.8018 63.4976C70.8018 63.4976 75.9111 73.9509 86.8082 80.6289C94.8334 85.5468 100.529 86.2247 100.529 86.2247C103.236 87.1168 106.11 78.1181 103.705 76.5901C95.0488 71.0912 74.5819 61.1294 74.5819 61.1294L70.8018 63.4976Z" fill="#FFFDCF"/>
<path d="M98.4545 73.4868C99.1577 77.5713 97.9168 82.2065 94.6367 84.5445C98.2878 85.957 100.53 86.2249 100.53 86.2249C103.237 87.117 106.111 78.1183 103.706 76.5903C102.243 75.6606 100.437 74.6018 98.4545 73.4868Z" fill="#EAE360"/>
<path d="M76.0611 58.2282L65.0516 53.5757C65.0516 53.5757 45.8787 80.2052 52.5648 90.7436C55.8708 95.9535 68.4638 95.0448 68.4638 95.0448C68.4638 95.0448 81.0568 95.9535 84.3628 90.7436C91.0489 80.2052 76.0611 58.2282 76.0611 58.2282Z" fill="#FFFDCF"/>
<path d="M63.6003 82.3896C64.0905 82.3896 64.8467 84.9153 64.8467 84.9153C64.8467 84.9153 67.4687 84.8881 67.6341 85.3203C67.7996 85.7524 65.6172 87.286 65.6172 87.286C65.6172 87.286 66.4321 89.7962 66.0932 90.0617C65.7543 90.3277 63.6003 88.751 63.6003 88.751C63.6003 88.751 61.4864 90.3154 61.1074 90.0617C60.7283 89.8079 61.5833 87.286 61.5833 87.286C61.5833 87.286 59.5664 85.7197 59.5664 85.3203C59.5664 84.9208 62.3538 84.9153 62.3538 84.9153C62.3538 84.9153 63.1101 82.3896 63.6003 82.3896Z" fill="#F9BE8A"/>
<path d="M67.4227 79.6641C67.682 79.6641 68.082 81 68.082 81C68.082 81 69.4686 80.9858 69.5563 81.2143C69.644 81.4427 68.4895 82.2545 68.4895 82.2545C68.4895 82.2545 68.9204 83.5819 68.7414 83.7226C68.5623 83.8634 67.4227 83.0293 67.4227 83.0293C67.4227 83.0293 66.3046 83.8566 66.104 83.7226C65.9033 83.588 66.3559 82.2545 66.3559 82.2545C66.3559 82.2545 65.2891 81.426 65.2891 81.2143C65.2891 81.0031 66.7633 81 66.7633 81C66.7633 81 67.1634 79.6641 67.4227 79.6641Z" fill="#F9BE8A"/>
<path d="M92.6131 18.8988C92.6131 18.8988 106.792 13.7586 102.355 1.33105C102.355 1.33105 89.5189 1.73543 89.5362 15.3175L92.6131 18.8988Z" fill="#FFFDCF"/>
<path d="M91.5947 16.3945C92.9066 14.117 95.7595 6.93088 100.93 3.56006C101.75 5.44549 100.698 15.6277 91.5947 16.3945Z" fill="#F9BE8A"/>
<path d="M103.201 47.4892C102.351 46.0538 102.033 43.5387 101.919 41.5903C101.92 41.486 101.927 41.3859 101.927 41.281C101.927 40.4945 101.904 39.6962 101.864 38.8918C101.865 38.8726 101.865 38.848 101.865 38.848L101.862 38.8492C101.167 24.9189 94.4354 8.92236 77.6005 8.92236C59.9611 8.92236 53.2744 26.8556 53.2744 41.281C53.2744 52.3343 66.8139 65.4916 93.56 63.6364C102.007 63.0506 105.333 60.6842 106.568 56.5485C107.802 52.4121 105.255 50.9539 103.201 47.4892Z" fill="#FFFDCF"/>
<path opacity="0.5" d="M57.1377 63.325C57.1377 63.325 57.4859 67.0175 61.3241 65.4784C65.1622 63.9393 67.3946 60.7086 65.2888 51.3315C63.1836 41.9543 62.5242 61.3921 57.1377 63.325Z" fill="#E8E3B1"/>
<path d="M106.072 54.5507C106.072 56.9862 103.89 59.5718 101.199 60.3268C98.507 61.0818 96.3252 59.7193 96.3252 57.2844C96.3252 54.8495 98.507 52.2634 101.199 51.5084C103.89 50.7527 106.072 52.1152 106.072 54.5507Z" fill="#FFFEF3"/>
<path opacity="0.5" d="M67.7455 59.7095L70.339 40.0156C70.339 40.0156 74.9193 44.4057 80.0823 42.1121C85.2459 39.8186 87.7037 35.5316 87.7037 35.5316C87.7037 35.5316 95.0732 40.0724 99.5386 35.5316C104.004 30.9909 94.8627 17.9966 94.8627 17.9966L67.4695 20.463L60.6562 35.5316L67.7455 59.7095Z" fill="#E8E3B1"/>
<path d="M103.362 53.5758C103.362 53.8647 103.127 54.0993 102.838 54.0993C102.549 54.0993 102.314 53.8647 102.314 53.5758C102.314 53.2868 102.549 53.0522 102.838 53.0522C103.127 53.0522 103.362 53.2868 103.362 53.5758Z" fill="#F9BE8A"/>
<path d="M95.7136 51.2254C96.1026 49.3585 94.0838 47.3588 91.2056 46.76C88.3275 46.1611 85.679 47.189 85.29 49.056C84.9017 50.9229 86.9199 52.9225 89.798 53.5214C92.6768 54.1208 95.3247 53.0929 95.7136 51.2254Z" fill="#F9BE8A"/>
<path d="M96.3753 42.1125C96.3753 44.2387 94.6516 45.9617 92.526 45.9617C90.3998 45.9617 88.6768 44.2381 88.6768 42.1125C88.6768 39.9863 90.4004 38.2632 92.526 38.2632C94.6516 38.2632 96.3753 39.9869 96.3753 42.1125Z" fill="#473629"/>
<path d="M95.5799 40.9374C95.5799 41.6387 95.0113 42.2073 94.31 42.2073C93.6086 42.2073 93.04 41.6387 93.04 40.9374C93.04 40.2361 93.6086 39.6675 94.31 39.6675C95.0113 39.6675 95.5799 40.2361 95.5799 40.9374Z" fill="#FFFEF3"/>
<path d="M88.2669 29.0083C88.1249 29.5639 87.9211 30.1072 87.668 30.6196C87.5322 30.8974 87.3778 31.1629 87.2112 31.4284C82.7353 38.5466 68.2333 40.6024 69.9496 29.8418C64.9428 39.6023 67.7456 59.7099 67.7456 59.7099C65.6651 57.1417 64.6217 53.0794 64.1649 50.7396C64.6588 54.2956 65.2206 61.951 61.325 63.8092C56.2009 66.2478 53.2745 62.5313 53.2745 62.5313C58.6456 61.0681 59.8125 57.5245 59.8125 57.5245C57.948 58.6728 55.3798 57.5245 55.3798 57.5245C56.9232 55.7156 56.8491 53.3819 56.3367 51.4063C53.8302 48.6344 51.2681 45.0351 50.2124 41.084C46.7675 28.181 52.509 14.8953 63.492 9.96256C74.4687 5.02981 85.3776 7.91908 88.0755 9.06121C88.4582 9.22172 88.9213 9.42545 89.4399 9.65388C90.298 10.0428 91.3043 10.5182 92.3353 11.0553C95.0085 12.4506 97.8422 14.2594 98.725 16.0128C104.751 28.002 92.0945 35.9784 88.2669 29.0083Z" fill="#AAE6F9"/>
<path d="M89.2608 13.3087C88.2113 16.9203 82.7353 20.4454 77.463 21.6061C70.0731 23.2359 69.9496 29.8418 69.9496 29.8418C64.9428 39.6023 67.7456 59.7099 67.7456 59.7099C65.6651 57.1417 64.6217 53.0794 64.1649 50.7396C64.6588 54.2956 65.2206 61.951 61.325 63.8092C56.2009 66.2478 53.2745 62.5313 53.2745 62.5313C58.6456 61.0681 59.8125 57.5245 59.8125 57.5245C57.948 58.6728 55.3798 57.5245 55.3798 57.5245C56.9232 55.7156 56.8491 53.3819 56.3367 51.4063C53.8302 48.6344 51.2681 45.0351 50.2124 41.084C46.7675 28.181 52.509 14.8953 63.492 9.96256C74.4687 5.02981 85.3776 7.91908 88.0755 9.06121C89.3843 10.3885 89.6806 11.8579 89.2608 13.3087Z" fill="#AAE6F9"/>
<path d="M92.3112 14.7841C92.021 17.5129 91.2678 20.9207 90.2986 24.0878C89.6874 26.1004 88.9898 28.0205 88.2675 29.6071C87.9279 30.3541 87.5822 31.027 87.2365 31.6074C82.9334 38.8305 68.2339 40.6024 69.9502 29.8417C71.6603 22.1925 84.6559 19.1304 88.428 12.7962C88.4341 12.7962 88.4341 12.7962 88.4341 12.7962C89.0083 11.8331 89.3664 10.7959 89.4404 9.65381C90.2986 10.0427 91.3049 10.5181 92.3359 11.0552C92.4902 11.9998 92.4717 13.2901 92.3112 14.7841Z" fill="#F9BE8A"/>
<path d="M95.8108 31.0028L95.8046 31.0089C93.1067 32.7252 89.8903 32.5647 88.2666 29.6075C89.1 27.9591 89.7668 26.0515 90.2977 24.0883C91.2238 20.7174 91.7362 17.2108 92.0202 14.6858C92.2671 12.5065 92.335 11.0557 92.335 11.0557C95.0082 12.4509 97.842 14.2598 98.7248 16.0131C102.188 22.9091 99.4718 28.6753 95.8108 31.0028Z" fill="#FFFC9C"/>
<path opacity="0.5" d="M98.725 16.0126C97.8422 14.2593 95.0085 12.4504 92.3353 11.0552C91.3043 10.5181 90.298 10.0427 89.4399 9.65377C85.9431 7.74919 74.4687 5.02969 63.492 9.96245C52.509 14.8952 46.7675 28.1809 50.2124 41.0839C51.2681 45.035 53.8302 48.6343 56.3367 51.4062C56.8491 53.3818 56.9232 55.7155 55.3798 57.5243C55.3798 57.5243 60.1829 55.4191 58.9235 50.1406C57.664 44.8622 53.1387 39.1577 54.8488 29.1625C56.5589 19.1674 64.8563 12.9135 73.0797 11.4688C81.303 10.0304 88.4274 12.7962 88.4274 12.7962C88.4274 12.7962 91.1314 12.7215 92.0204 14.6853C92.0204 14.6853 97.8737 15.5441 98.6201 20.859C99.2338 25.2287 97.4347 29.1131 95.8111 31.0023C99.4721 28.6748 102.188 22.9086 98.725 16.0126Z" fill="#FFFEF3"/>
<path d="M77.0062 17.5678C77.0062 17.5678 62.8271 12.4276 67.2641 0C67.2641 0 80.7826 0.780348 79.6936 16.6596L77.0062 17.5678Z" fill="#FFFDCF"/>
<path d="M77.269 16.0698C75.9571 13.7923 73.2969 5.87521 68.1271 2.50439C67.306 4.38983 67.885 13.4978 77.269 16.0698Z" fill="#F9BE8A"/>
<path d="M2.00164 83.5756C7.92218 97.738 37.4508 104.288 54.8482 88.2244V83.5756C54.8482 83.5756 48.7177 69.6231 33.7096 71.5246C18.7014 73.4261 8.13208 60.7454 13.4167 53.1333C13.4167 53.1333 13.4106 53.1333 13.4044 53.1395C12.9969 53.3247 2.95855 58.0105 7.916 69.4009C7.7061 69.1478 3.94017 64.3015 5.1749 57.9549C5.1749 57.9611 5.16872 57.9673 5.16255 57.9734C4.75447 58.4982 -3.77753 69.7466 2.00164 83.5756Z" fill="#AAE6F9"/>
<path opacity="0.5" d="M54.848 86.5943C54.848 86.5943 44.8343 85.0027 35.846 83.7001C26.8572 82.3974 14.2215 78.6198 9.14062 72.106C9.14062 72.106 14.8599 84.4595 34.7267 86.0449C44.3935 86.8166 54.848 86.5943 54.848 86.5943Z" fill="#6AC4D8"/>
<path opacity="0.4" d="M10.7923 65.0732C13.6816 72.6915 22.0142 77.7903 27.4242 77.7909C42.2126 77.7927 54.5451 86.4587 54.8476 86.5945V83.5756C54.8476 83.5756 48.7171 69.6231 33.709 71.5246C18.7008 73.4261 8.13148 60.7454 13.4161 53.1333C13.4161 53.1333 13.41 53.1333 13.4038 53.1395C13.1513 53.3494 7.97775 57.6401 10.7923 65.0732Z" fill="#EEFCFF"/>
<path d="M2.00164 83.5748C7.92218 97.7372 37.4508 104.287 54.8482 88.2236V86.5938C49.7981 89.2176 35.0616 95.6135 19.2323 90.4708C-0.31349 84.1181 2.72395 63.0721 5.16255 57.9727C4.75447 58.4974 -3.77753 69.7458 2.00164 83.5748Z" fill="#6AC4D8"/>
<path d="M55.8784 83.5581C55.8784 83.5581 53.7035 78.942 52.4576 79.4007C51.2111 79.8594 53.3571 83.7223 53.3571 83.7223C53.3571 83.7223 50.7821 80.3953 49.9239 81.4152C49.0658 82.4351 52.4928 85.1478 52.4928 85.1478C52.4928 85.1478 49.2189 84.7953 49.7856 86.7264C50.3524 88.6575 53.504 86.3769 53.504 86.3769C53.504 86.3769 50.9142 89.2458 51.747 90.2577C52.5798 91.2696 55.8778 88.3933 55.8778 88.3933L55.8784 83.5581Z" fill="#FFFDCF"/>
</svg>
