<svg width="81" height="117" viewBox="0 0 81 117" fill="none" xmlns="http://www.w3.org/2000/svg">
<path opacity="0.251" d="M50.8424 116.663C35.6021 116.663 23.2474 114.551 23.2474 111.945C23.2474 109.339 35.6021 107.227 50.8424 107.227C66.0828 107.227 78.4375 109.339 78.4375 111.945C78.4375 114.551 66.0828 116.663 50.8424 116.663Z" fill="#566E94"/>
<path d="M41.1194 0.0966707C40.4771 -1.21748 32.4461 11.2272 37.3507 15.544C40.226 16.2671 43.4046 15.0495 45.6262 12.8279C45.2152 8.29291 43.0724 4.09227 41.1194 0.0966707Z" fill="#565158"/>
<path d="M41.1754 0.0685524C39.8338 -0.856403 37.9965 9.97833 44.1735 12.4091C46.7139 13.4088 49.1389 11.2139 49.1389 9.56317C49.1389 6.89216 45.9334 3.34884 41.1754 0.0685524Z" fill="#68676D"/>
<path d="M40.3353 0.830578C39.8294 1.84167 39.7183 3.00442 39.6766 4.12009C39.6268 6.74864 40.2994 10.2184 42.5742 11.8303C43.0515 12.1533 43.5977 12.3748 44.157 12.4364C44.1771 12.4393 44.1824 12.4071 44.1626 12.4034C43.6236 12.2794 43.1172 12.0298 42.6829 11.6896C40.288 9.77828 39.7287 5.34398 40.0121 2.45847C40.0721 1.90937 40.1665 1.35857 40.3664 0.843436C40.3749 0.824753 40.3429 0.810439 40.3353 0.830578Z" fill="#221E29"/>
<path d="M61.9126 0.0966707C62.5549 -1.21748 70.5859 11.2272 65.6814 15.544C62.8061 16.2671 59.6274 15.0495 57.4058 12.8279C57.8166 8.29291 59.9596 4.09227 61.9126 0.0966707Z" fill="#565158"/>
<path d="M61.8569 0.0685524C63.1984 -0.856403 65.0357 9.97833 58.8588 12.4091C56.3183 13.4088 53.8933 11.2139 53.8933 9.56317C53.8933 6.89216 57.0991 3.34884 61.8569 0.0685524Z" fill="#68676D"/>
<path d="M62.6656 0.841399C63.2717 4.08796 63.0252 9.35889 60.3047 11.6084C59.8869 11.9537 59.3979 12.2175 58.8685 12.4033C58.8493 12.4087 58.8581 12.4412 58.8777 12.4356C59.4256 12.3119 59.9487 12.0787 60.4073 11.7538C62.6996 10.0533 63.2433 6.83128 63.2033 4.14401C63.172 3.02519 63.0303 1.90296 62.6979 0.831208C62.6952 0.822472 62.6858 0.817378 62.6768 0.820047C62.6676 0.823201 62.6629 0.832663 62.6656 0.841399Z" fill="#221E29"/>
<path d="M35.8407 86.8662C32.6342 88.6959 29.2517 89.9735 25.0615 86.4362C18.1064 80.5647 22.1161 73.9192 16.9968 67.7267C11.7322 61.3586 1.60113 64.321 0.481085 74.7454C-1.00826 88.6079 7.27315 94.7984 13.4169 97.2214C13.5685 97.2811 11.7128 97.757 13.1652 98.9083C19.967 104.3 38.989 100.267 41.3725 91.5887C42.6636 86.8883 38.0791 85.5889 35.8407 86.8662Z" fill="#BBA8A5"/>
<mask id="mask0_334_7315" style="mask-type:luminance" maskUnits="userSpaceOnUse" x="0" y="64" width="42" height="38">
<path d="M35.8427 86.8672C32.6361 88.6969 29.2537 89.9744 25.0635 86.4372C18.1084 80.5657 22.118 73.9202 16.9988 67.7277C11.7341 61.3596 1.44948 64.2012 0.276304 75.2106C-1.32417 90.2319 10.9189 96.3404 13.4188 97.2224C13.9488 97.4095 10.1803 96.4591 13.1672 98.9093C19.8777 104.414 38.9909 100.268 41.3744 91.5897C42.6655 86.8892 38.081 85.5899 35.8427 86.8672Z" fill="white"/>
</mask>
<g mask="url(#mask0_334_7315)">
<path d="M38.9965 99.0886C32.0545 102.681 26.4182 92.537 29.994 84.6007C33.0367 82.4436 34.9987 80.7667 38.2642 82.5688C41.5297 84.3709 43.6111 88.127 43.4083 91.8513C43.2052 95.5756 41.9459 97.5624 38.9965 99.0886Z" fill="#68676D"/>
</g>
<mask id="mask1_334_7315" style="mask-type:luminance" maskUnits="userSpaceOnUse" x="0" y="64" width="42" height="38">
<path d="M35.8427 86.8672C32.6361 88.6969 29.2537 89.9744 25.0635 86.4372C18.1084 80.5657 22.118 73.9202 16.9988 67.7277C11.7341 61.3596 1.44948 64.2012 0.276304 75.2106C-1.32417 90.2319 10.9189 96.3404 13.4188 97.2224C13.9488 97.4095 10.1803 96.4591 13.1672 98.9093C19.8777 104.414 38.9909 100.268 41.3744 91.5897C42.6655 86.8892 38.081 85.5899 35.8427 86.8672Z" fill="white"/>
</mask>
<g mask="url(#mask1_334_7315)">
<path d="M28.0596 87.4003C21.2692 86.7433 19.5887 101.454 27.3537 101.454C21.8896 106.164 16.1863 104.573 11.5844 100.82C10.1882 99.6822 10.9499 96.0304 13.2676 97.083C9.54471 89.0971 18.5465 79.355 24.4583 81.8052C24.6458 83.1946 27.137 86.7074 28.0596 87.4003Z" fill="#68676D"/>
</g>
<mask id="mask2_334_7315" style="mask-type:luminance" maskUnits="userSpaceOnUse" x="0" y="64" width="42" height="38">
<path d="M35.8427 86.8672C32.6361 88.6969 29.2537 89.9744 25.0635 86.4372C18.1084 80.5657 22.118 73.9202 16.9988 67.7277C11.7341 61.3596 1.44948 64.2012 0.276304 75.2106C-1.32417 90.2319 10.9189 96.3404 13.4188 97.2224C13.9488 97.4095 10.1803 96.4591 13.1672 98.9093C19.8777 104.414 38.9909 100.268 41.3744 91.5897C42.6655 86.8892 38.081 85.5899 35.8427 86.8672Z" fill="white"/>
</mask>
<g mask="url(#mask2_334_7315)">
<path d="M21.4117 75.3794C17.008 73.2257 11.3796 73.8674 7.57377 76.9573C3.76791 80.0473 1.98377 85.4238 3.18703 90.176C0.837763 86.3293 -0.857345 81.9802 -0.98449 77.4748C-1.11163 72.9694 0.474522 68.3012 3.82858 65.2903C7.18263 62.2793 12.3919 61.2493 16.3829 63.3438C20.3737 65.4385 22.4682 70.8383 21.4117 75.3794Z" fill="#68676D"/>
</g>
<path d="M21.215 99.1904C10.7761 97.8432 2.36969 92.0509 0.505462 81.219C-0.0586831 77.9623 0.170124 74.5667 1.13123 71.417C-0.0446148 74.5129 -0.237512 77.9841 0.247046 81.2586C1.61749 90.4975 8.55223 96.8108 17.5208 98.6464C17.8906 98.741 18.3715 98.8031 18.7447 98.8781C19.4561 99.0249 20.4883 99.128 21.2116 99.2239C21.2209 99.2251 21.2294 99.2185 21.2303 99.2093C21.2315 99.1998 21.2245 99.1914 21.215 99.1904Z" fill="#221E29"/>
<path d="M37.8149 96.4772C36.3751 97.4051 34.8316 98.2073 33.2498 98.8668C32.3394 99.2368 31.3572 99.5712 30.4201 99.8509C25.6859 101.228 19.5356 101.731 14.9094 99.7835C14.5387 99.6241 14.1133 99.4202 13.7712 99.2057L13.4094 98.9794L13.0675 98.7243C12.8977 98.6076 12.7361 98.44 12.5793 98.3085C12.4197 98.1677 12.2729 97.9838 12.1346 97.8423C12.1285 97.8343 12.1168 97.8331 12.1096 97.8399C12.1033 97.8457 12.1025 97.8557 12.1076 97.8625C12.5895 98.4902 13.2129 99.0131 13.8813 99.4321C17.1956 101.372 21.2652 101.58 25.0094 101.251C28.1587 100.931 31.2657 100.069 34.1229 98.7059C35.4191 98.0813 36.6662 97.344 37.8348 96.5046C37.8423 96.4993 37.844 96.4886 37.8387 96.4811C37.8329 96.4736 37.8224 96.4719 37.8149 96.4772Z" fill="#221E29"/>
<path d="M48.3972 110.55C48.0194 103.723 48.4467 101.136 48.4991 99.59C48.5741 97.3701 43.9032 99.0133 44.4598 99.9601C44.8617 101.957 43.491 110.079 42.7065 111.112C44.7107 111.096 47.0437 110.785 48.3972 110.55Z" fill="#68676D"/>
<path d="M37.3936 110.589C37.4409 109.423 37.8859 107.577 38.4389 106.928C39.1707 106.068 45.0808 107.203 45.7624 107.936C46.1414 108.684 46.0501 110.299 45.7022 110.842C43.5514 111.236 37.7064 111.32 37.3936 110.589Z" fill="#68676D"/>
<path d="M40.252 107.403C39.4782 108.227 38.716 110.371 39.9072 111.123C39.9229 111.134 39.9455 111.117 39.9319 111.1C39.2986 110.315 39.6927 109.194 39.9489 108.329C40.054 108.023 40.167 107.719 40.283 107.416C40.2896 107.401 40.267 107.385 40.2556 107.399L40.252 107.403Z" fill="#221E29"/>
<path d="M42.3753 107.934C41.7934 108.704 41.4188 110.385 42.2027 111.119C42.2154 111.133 42.2408 111.124 42.2323 111.103C42.0072 110.614 42.0603 110.049 42.12 109.528C42.1799 108.994 42.2981 108.468 42.4078 107.941C42.4116 107.926 42.3886 107.914 42.3789 107.928L42.3753 107.934Z" fill="#221E29"/>
<path d="M43.8049 107.178C44.2968 107.24 44.7845 107.362 45.2358 107.582C45.6946 107.797 46.0999 108.112 46.4951 108.429C46.3134 108.249 46.1326 108.068 45.939 107.899C45.3562 107.373 44.6282 107.022 43.8639 106.847L43.8049 107.178Z" fill="#221E29"/>
<path d="M54.0681 110.606C54.4459 103.78 54.0186 101.193 53.9662 99.6462C53.8912 97.4262 58.5621 99.0694 58.0055 100.016C57.6036 102.013 58.9743 110.135 59.7588 111.168C57.7543 111.152 55.4216 110.841 54.0681 110.606Z" fill="#68676D"/>
<path d="M65.0723 110.645C65.025 109.479 64.5799 107.633 64.027 106.983C63.2952 106.124 57.3849 107.259 56.7035 107.992C56.3245 108.74 56.4157 110.355 56.7637 110.897C58.9142 111.292 64.7595 111.375 65.0723 110.645Z" fill="#68676D"/>
<path d="M62.1825 107.472C62.2118 108.133 62.3819 108.747 62.5103 109.374C62.6309 109.99 62.7719 110.534 62.5338 111.155L62.5314 111.162C62.5246 111.177 62.5477 111.192 62.5586 111.178C63.2341 110.407 62.8476 109.233 62.5697 108.366C62.463 108.059 62.3421 107.757 62.2138 107.459C62.2075 107.443 62.181 107.448 62.1825 107.466V107.472Z" fill="#221E29"/>
<path d="M60.0572 107.998C59.8667 109.086 60.2431 110.083 60.2324 111.167C60.2309 111.183 60.2552 111.19 60.2625 111.175C60.5175 110.685 60.4634 110.106 60.4119 109.575C60.3396 109.039 60.2283 108.511 60.0902 107.99C60.0866 107.974 60.0611 107.974 60.0587 107.991L60.0572 107.998Z" fill="#221E29"/>
<path d="M58.5916 106.917C57.5897 107.205 56.7504 107.818 55.9788 108.493C56.4008 108.22 56.8145 107.926 57.2682 107.709C57.7156 107.488 58.1907 107.338 58.6738 107.244L58.5916 106.917Z" fill="#221E29"/>
<path d="M35.9239 36.0039C31.9268 40.3089 25.0302 41.9334 18.2131 45.2535C15.5363 46.5572 13.2734 48.9096 13.3702 50.6935C13.889 60.2507 33.3111 50.7593 37.9638 46.6423C39.5477 45.2406 40.3613 43.017 40.0556 40.924C39.7501 38.8314 37.5333 36.4967 35.9239 36.0039Z" fill="#A8999C"/>
<path d="M48.3848 100.037C47.9971 101.529 45.5248 102.646 42.0625 102.296C35.8615 101.668 31.4236 93.0051 30.3271 88.1398C28.8065 81.3917 30.841 76.0336 31.493 67.9165C41.6794 92.4084 50.0845 93.4991 48.3848 100.037Z" fill="#BBA8A5"/>
<path d="M54.0689 100.037C54.6636 101.459 56.9289 102.646 60.3912 102.296C66.5922 101.668 71.0303 93.0051 72.1266 88.1398C73.6472 81.3917 72.1822 72.6146 70.9607 67.9165C60.7743 92.4084 51.1664 93.097 54.0689 100.037Z" fill="#BBA8A5"/>
<path d="M71.612 75.1547C68.5285 43.8135 70.549 23.8413 51.7289 23.8413C33.403 23.8413 33.2819 46.1562 30.947 74.93C28.6545 103.177 74.3868 103.358 71.612 75.1547Z" fill="#BBA8A5"/>
<path d="M61.2598 92.3154C56.6122 96.4869 49.2722 97.5196 43.8623 94.226L43.2879 93.8759L42.7303 93.4969C42.4612 93.3001 41.9187 92.8796 41.6613 92.6658C44.0777 95.199 47.9278 96.6563 51.5126 96.5153C55.0697 96.3751 58.9044 94.9052 61.2598 92.3154Z" fill="#221E29"/>
<path d="M66.3826 49.1193C67.6269 53.6237 67.7018 59.2079 66.8625 60.0244C65.9597 60.9025 58.798 63.8315 56.2117 65.5739C55.1387 67.119 56.0906 67.9598 57.5807 68.274C63.8271 68.9879 75.2541 71.02 78.8098 66.2402C86.7578 55.5559 67.8996 41.5981 67.0057 34.4651C65.3523 21.2736 64.9631 43.9806 66.3826 49.1193Z" fill="#BBA8A5"/>
<path d="M55.5638 68.4021C57.5724 68.2276 59.5745 68.5273 61.5692 68.7479C63.8086 69.0204 66.0846 69.3113 68.3693 69.3067C71.6159 69.387 75.2232 69.2657 77.8867 67.17C78.2847 66.8587 78.6401 66.4775 78.948 66.0778C78.9624 66.0618 78.9357 66.0395 78.9223 66.0562C76.1266 69.213 71.4931 69.0519 67.6203 68.9619C66.6138 68.9449 65.6083 68.8673 64.6047 68.7784C62.5966 68.6003 60.5936 68.3507 58.5784 68.2573C57.5719 68.2167 56.5567 68.2039 55.558 68.3689C55.5488 68.3703 55.5427 68.3791 55.5442 68.3883C55.5454 68.3977 55.5544 68.4038 55.5638 68.4021Z" fill="#221E29"/>
<path d="M27.5755 24.0682C27.5789 24.2603 27.5867 24.4535 27.6003 24.6457C27.6058 24.7277 27.6126 24.8097 27.6204 24.8917C27.6216 24.9109 27.6226 24.9298 27.6248 24.949C27.6291 25.0028 27.635 25.0569 27.6417 25.1108C27.6473 25.1669 27.6541 25.2232 27.6609 25.2792C27.6631 25.3027 27.6665 25.3253 27.6699 25.3488C27.6801 25.4343 27.6925 25.5197 27.7058 25.6051C27.707 25.6162 27.7092 25.6264 27.7104 25.6376C27.7228 25.7196 27.7361 25.8004 27.7509 25.8824C27.7565 25.9174 27.7633 25.9533 27.7701 25.9892C27.7803 26.0477 27.7915 26.1061 27.8038 26.1644C27.8116 26.2093 27.8206 26.2554 27.8308 26.3002C27.8419 26.3553 27.8533 26.4104 27.8667 26.4643C27.8757 26.5082 27.8858 26.5531 27.897 26.598C27.9082 26.6475 27.9205 26.6979 27.9329 26.7474C27.9465 26.8025 27.9599 26.8576 27.9744 26.9127C27.9846 26.9498 27.9946 26.9879 28.0048 27.026C28.0205 27.0833 28.0363 27.1395 28.0521 27.1956C28.1059 27.3822 28.1632 27.5685 28.2251 27.7539C28.2452 27.8146 28.2656 27.8752 28.2879 27.9359C28.3037 27.982 28.3195 28.0291 28.3374 28.0764C28.3767 28.1853 28.4172 28.2933 28.4599 28.401C28.4915 28.4831 28.524 28.5651 28.5587 28.6471C28.671 28.9201 28.7936 29.1909 28.9249 29.4582C28.9654 29.5424 29.0081 29.6245 29.0505 29.7077C29.0505 29.7099 29.0517 29.7123 29.0539 29.7145C29.0886 29.7831 29.1248 29.8516 29.1617 29.92C29.1787 29.9515 29.1964 29.9841 29.2133 30.0156C29.248 30.0784 29.283 30.1413 29.3189 30.2044C29.3301 30.2235 29.3415 30.2437 29.3526 30.2638C29.3873 30.3245 29.4223 30.3839 29.4582 30.4446C29.4795 30.4795 29.4997 30.5154 29.521 30.5501C29.5557 30.6074 29.5907 30.6637 29.6266 30.721C29.6974 30.8355 29.7705 30.949 29.8467 31.0614C29.8872 31.1242 29.9299 31.1861 29.9723 31.248C30.397 31.8657 30.8721 32.45 31.3911 32.9892C31.444 33.0443 31.4966 33.0993 31.5505 33.1532C31.8829 33.4881 32.2313 33.8037 32.5963 34.099C32.6569 34.1485 32.7188 34.1978 32.7817 34.2461C32.9411 34.3696 33.1029 34.4899 33.2669 34.6054C33.3208 34.6438 33.3747 34.6819 33.4298 34.719C33.4814 34.7539 33.5331 34.7886 33.586 34.8236C33.6544 34.8675 33.7231 34.9124 33.7915 34.956C33.7993 34.9604 33.8083 34.9662 33.8173 34.9718C33.8544 34.9944 33.8903 35.0167 33.9274 35.0393C34.0116 35.091 34.096 35.1414 34.1812 35.1909C34.253 35.2314 34.3261 35.2729 34.3991 35.3122C34.4789 35.3571 34.5597 35.3998 34.6418 35.4413C34.7226 35.484 34.8046 35.5246 34.8866 35.5648C34.9686 35.6054 35.0516 35.6447 35.1348 35.6816C35.2122 35.7175 35.2908 35.7524 35.3697 35.7861C35.3787 35.7907 35.3889 35.7939 35.3966 35.7973C35.4697 35.8288 35.5427 35.8592 35.6157 35.8871C35.6315 35.8939 35.6473 35.9007 35.6618 35.9062C35.7281 35.932 35.7943 35.9579 35.8608 35.9827C35.8809 35.9904 35.9023 35.9984 35.9236 36.0052C36.0001 36.0344 36.0775 36.0615 36.1551 36.0873C36.1697 36.0928 36.1842 36.0974 36.1978 36.1018C36.2709 36.1266 36.3439 36.1501 36.4169 36.1727C36.4854 36.194 36.554 36.2154 36.6225 36.2345C36.6494 36.2423 36.6753 36.2503 36.7011 36.2571C36.7707 36.2763 36.8394 36.2952 36.909 36.3134C36.9304 36.319 36.9517 36.3246 36.9731 36.3292C37.0471 36.3483 37.1225 36.3663 37.1978 36.383C37.2113 36.3864 37.2235 36.3898 37.2358 36.392C37.3683 36.4211 37.502 36.4493 37.6369 36.4728C37.784 36.4997 37.9313 36.5233 38.0807 36.5437C38.1581 36.5548 38.2368 36.565 38.3156 36.5728C38.4022 36.583 38.4886 36.5919 38.5752 36.5985C38.6607 36.6063 38.747 36.6131 38.8337 36.6177C38.8618 36.6199 38.8909 36.6211 38.9191 36.622C38.9989 36.6266 39.0797 36.6298 39.1605 36.6322C39.2549 36.6356 39.3502 36.6368 39.4458 36.6368C43.2371 36.6368 47.2364 32.8196 51.5498 32.7725C55.858 32.7254 60.4793 36.4122 64.9357 36.4122H64.9986C66.9555 36.4122 69.584 35.1866 71.7251 33.0229C71.7273 33.0217 71.7297 33.0195 71.7319 33.0173C72.1005 32.6444 72.4543 32.2445 72.7867 31.8187C72.7935 31.8109 72.8003 31.8019 72.8068 31.793C73.9628 30.308 74.8705 28.5061 75.2837 26.4492C75.4366 25.6876 75.5218 24.8912 75.5264 24.0633C74.9535 23.9757 74.3906 23.8173 73.8548 23.5938C74.4131 23.5254 74.9545 23.4994 75.514 23.4298V23.4286C75.5072 23.2611 75.496 23.0928 75.4824 22.9231C66.2441 19.5587 67.0732 15.2462 65.4162 13.4431C63.4682 11.3234 59.1242 9.04736 52.2089 9.04736C44.2096 9.04736 40.0306 11.0234 37.5064 13.7801C35.6417 15.8178 35.8157 20.437 27.6143 22.9231C27.5998 23.0826 27.5896 23.2432 27.5828 23.4041C27.6636 23.4208 27.7422 23.4356 27.8199 23.4489C27.9647 23.4747 28.103 23.4951 28.2343 23.5118C28.268 23.5164 28.3005 23.5208 28.333 23.5242C28.3656 23.5288 28.3981 23.5319 28.4296 23.5353C28.4925 23.5431 28.5531 23.5499 28.6128 23.5555C28.6723 23.5623 28.7298 23.5678 28.7858 23.5734C28.8273 23.578 28.8678 23.5814 28.9071 23.5858C29.0297 23.5982 29.142 23.6105 29.2451 23.6239C28.7043 23.8233 28.145 23.9726 27.5755 24.0682Z" fill="#BBA8A5"/>
<path d="M67.1006 36.0258C67.1006 52.74 51.562 66.6412 51.562 66.6412C51.562 66.6412 36.1418 52.796 36.1418 36.0816C36.1418 19.3676 67.1006 19.3116 67.1006 36.0258Z" fill="#E7E1D5"/>
<path d="M27.5755 24.068C27.5789 24.2602 27.5867 24.4533 27.6003 24.6455C27.6058 24.7275 27.6126 24.8095 27.6204 24.8915C27.6216 24.9107 27.6226 24.9296 27.6248 24.9488C27.6291 25.0027 27.635 25.0568 27.6417 25.1107C27.6473 25.1667 27.6541 25.223 27.6609 25.279C27.6631 25.3026 27.6665 25.3251 27.6699 25.3487C27.6801 25.4341 27.6925 25.5195 27.7058 25.6049C27.707 25.6161 27.7092 25.6263 27.7104 25.6374C27.7228 25.7194 27.7361 25.8002 27.7509 25.8823C27.7565 25.9172 27.7633 25.9531 27.7701 25.989C27.7803 26.0475 27.7915 26.106 27.8038 26.1642C27.8116 26.2091 27.8206 26.2552 27.8308 26.3001C27.8419 26.3552 27.8533 26.4102 27.8667 26.4641C27.8757 26.508 27.8858 26.5529 27.897 26.5978C27.9082 26.6473 27.9205 26.6978 27.9329 26.7473C27.9465 26.8024 27.9599 26.8574 27.9744 26.9125C27.9846 26.9496 27.9946 26.9877 28.0048 27.0258C28.0205 27.0831 28.0363 27.1394 28.0521 27.1954C28.1059 27.382 28.1632 27.5684 28.2251 27.7538C28.2452 27.8144 28.2656 27.8751 28.2879 27.9357C28.3037 27.9818 28.3195 28.0289 28.3374 28.0762C28.3767 28.1852 28.4172 28.2932 28.4599 28.4009C28.4915 28.4829 28.524 28.5649 28.5587 28.6469C28.671 28.9199 28.7936 29.1907 28.9249 29.4581C28.9654 29.5423 29.0081 29.6243 29.0505 29.7075C29.0505 29.7097 29.0517 29.7121 29.0539 29.7143C29.0886 29.783 29.1248 29.8514 29.1617 29.9198C29.1787 29.9514 29.1964 29.9839 29.2133 30.0154C29.248 30.0783 29.283 30.1411 29.3189 30.2042C29.3301 30.2234 29.3415 30.2435 29.3526 30.2637C29.3873 30.3243 29.4223 30.3838 29.4582 30.4444C29.4795 30.4794 29.4997 30.5153 29.521 30.55C29.5557 30.6072 29.5907 30.6635 29.6266 30.7208C29.6974 30.8353 29.7705 30.9489 29.8467 31.0612C29.8872 31.1241 29.9299 31.1859 29.9723 31.2478C30.397 31.8656 30.8721 32.4499 31.3911 32.989C31.444 33.0441 31.4966 33.0992 31.5505 33.1531C31.8829 33.4879 32.2313 33.8036 32.5963 34.0989C32.6569 34.1484 32.7188 34.1976 32.7817 34.2459C32.9411 34.3694 33.1029 34.4898 33.2669 34.6053C33.3208 34.6436 33.3747 34.6817 33.4298 34.7188C33.4814 34.7538 33.5331 34.7885 33.586 34.8234C33.6544 34.8673 33.7231 34.9122 33.7915 34.9559C33.7993 34.9603 33.8083 34.9661 33.8173 34.9717C33.8544 34.9942 33.8903 35.0166 33.9274 35.0391C34.0116 35.0908 34.096 35.1413 34.1812 35.1908C34.253 35.2313 34.3261 35.2728 34.3991 35.3121C34.4789 35.357 34.5597 35.3997 34.6418 35.4412C34.7226 35.4839 34.8046 35.5244 34.8866 35.5647C34.9686 35.6052 35.0516 35.6445 35.1348 35.6814C35.2122 35.7173 35.2908 35.7522 35.3697 35.786C35.3787 35.7906 35.3889 35.7937 35.3966 35.7971C35.4697 35.8287 35.5427 35.859 35.6157 35.8869C35.6315 35.8937 35.6473 35.9005 35.6618 35.9061C35.7281 35.9318 35.7943 35.9578 35.8608 35.9825C35.8809 35.9903 35.9023 35.9983 35.9236 36.0051C36.0001 36.0342 36.0775 36.0614 36.1551 36.0871C36.1697 36.0927 36.1842 36.0973 36.1978 36.1016C36.2709 36.1264 36.3439 36.1499 36.4169 36.1725C36.4854 36.1939 36.554 36.2152 36.6225 36.2344C36.6494 36.2421 36.6753 36.2501 36.7011 36.2569C36.7707 36.2761 36.8394 36.295 36.909 36.3132C36.9304 36.3188 36.9517 36.3244 36.9731 36.329C37.0471 36.3482 37.1225 36.3661 37.1978 36.3829C37.2113 36.3863 37.2235 36.3897 37.2358 36.3919C37.3683 36.421 37.502 36.4491 37.6369 36.4727C37.784 36.4996 37.9313 36.5231 38.0807 36.5435C38.1581 36.5547 38.2368 36.5649 38.3156 36.5726C38.4022 36.5828 38.4886 36.5918 38.5752 36.5983C38.6607 36.6061 38.747 36.6129 38.8337 36.6175C38.8618 36.6197 38.8909 36.6209 38.9191 36.6219C38.9989 36.6265 39.0797 36.6296 39.1605 36.6321C39.2549 36.6355 39.3502 36.6367 39.4458 36.6367C47.0241 36.6367 56.0198 36.4828 64.9357 36.412H64.9986C66.9555 36.412 69.584 35.1864 71.7251 33.0228C71.7273 33.0215 71.7297 33.0194 71.7319 33.0172C72.1005 32.6442 72.4543 32.2444 72.7867 31.8185C72.7935 31.8108 72.8003 31.8018 72.8068 31.7928C73.9628 30.3078 74.8705 28.506 75.2837 26.4491C75.4366 25.6874 75.5218 24.8911 75.5264 24.0632C74.9535 23.9756 74.3906 23.8171 73.8548 23.5936C74.4131 23.5252 74.9545 23.4993 75.514 23.4296V23.4284C75.5072 23.261 75.496 23.0926 75.4824 22.923C67.1608 22.5355 66.7102 17.0299 65.1971 15.1045C62.0337 11.0784 52.3134 5.9785 54.2153 20.8326C54.4007 22.2839 52.2797 22.0279 51.5496 22.0223C50.8127 22.0179 48.6964 22.2458 48.8233 20.9013C50.2769 5.4294 40.2017 11.4348 37.5527 15.2171C35.9688 17.4807 36.1529 24.0083 27.6146 22.9232C27.6 23.0826 27.5898 23.2433 27.583 23.4041C27.6638 23.4209 27.7424 23.4357 27.8201 23.449C27.9649 23.4748 28.1033 23.4951 28.2345 23.5119C28.2683 23.5165 28.3008 23.5209 28.3333 23.5243C28.3658 23.5289 28.3983 23.532 28.4298 23.5354C28.4927 23.5432 28.5534 23.55 28.613 23.5556C28.6725 23.5623 28.73 23.5679 28.7861 23.5735C28.8275 23.5781 28.8681 23.5815 28.9074 23.5859C29.0299 23.5983 29.1423 23.6106 29.2454 23.624C28.7043 23.8232 28.145 23.9724 27.5755 24.068Z" fill="#E7E1D5"/>
<path d="M27.5762 24.0681C27.6335 27.3651 29.1478 30.734 31.5517 33.1526C44.9623 32.3114 47.5695 23.4942 48.0381 20.3096C49.9501 7.29103 40.3264 13.0225 38.4627 15.4972C36.4956 18.1112 37.2259 24.284 27.8211 23.4481C28.3995 23.5493 28.8814 23.5741 29.2466 23.6233C28.705 23.8233 28.1457 23.9725 27.5762 24.0681Z" fill="#68676D"/>
<path d="M55.0866 20.3096C55.5551 23.4943 58.1611 32.3114 71.5729 33.1527C71.6212 33.1146 71.6717 33.0707 71.7258 33.0224C71.728 33.0212 71.7304 33.019 71.7326 33.0168C72.0257 32.7518 72.3953 32.3439 72.7874 31.8181C72.7942 31.8104 72.801 31.8014 72.8075 31.7924C73.7376 30.5411 74.7948 28.6402 75.2844 26.4487C75.4552 25.6848 75.5562 24.8861 75.5596 24.0671C75.5494 24.0659 75.5382 24.065 75.5271 24.0625C74.9542 23.9749 74.3912 23.8165 73.8555 23.593C74.4138 23.5246 74.9551 23.4986 75.5147 23.429C75.5237 23.4278 75.5326 23.4268 75.5416 23.4256C75.5326 23.4268 75.5237 23.4278 75.5147 23.4278C65.8876 24.3758 66.6424 18.1302 64.661 15.497C62.7973 13.0225 53.1736 7.29106 55.0866 20.3096Z" fill="#68676D"/>
<path d="M26.3348 46.1203C27.4008 46.7912 35.0539 44.6714 38.3983 43.9678C40.1841 44.5591 40.3229 45.6042 40.3926 46.0203C31.3148 52.8211 27.2156 59.8315 20.5131 58.2643C18.6151 57.8205 16.0283 56.3991 14.1488 53.1744C9.78148 45.6818 25.1689 45.3865 26.3348 46.1203Z" fill="#BBA8A5"/>
<path d="M38.3942 43.9511C35.7705 44.4267 33.1313 45.0612 30.5056 45.5047C29.2133 45.7149 27.8919 45.9512 26.594 45.8585C24.3779 45.4543 22.066 45.4591 19.8606 45.9364C18.9837 46.1426 18.117 46.4117 17.3025 46.7975C17.2828 46.8048 17.2949 46.8373 17.3148 46.8288C20.2464 45.7027 23.4923 45.6202 26.5569 46.1844C27.0055 46.2314 27.4558 46.2183 27.9028 46.188C29.6899 46.0415 31.4447 45.6581 33.1905 45.2672C34.9353 44.8692 36.6666 44.4165 38.4022 43.9838C38.4112 43.9817 38.4167 43.9724 38.4146 43.9635C38.4121 43.9545 38.4029 43.9491 38.3942 43.9511Z" fill="#221E29"/>
<path d="M40.3831 46.0066C38.6538 47.0968 37.1241 48.4719 35.5899 49.813C33.8814 51.3159 32.2031 52.9006 30.4112 54.2985C27.9571 56.3369 25.1939 58.6199 21.8121 58.4115C21.438 58.3926 21.0536 58.338 20.686 58.2671L20.3138 58.1851C20.3044 58.1822 20.2944 58.188 20.2922 58.1977C20.2903 58.2062 20.2954 58.2147 20.3036 58.2174C24.6831 59.5774 28.0507 56.6558 31.217 54.0835C33.5866 52.1516 35.7297 49.9641 38.0273 47.9502C38.7928 47.2798 39.5714 46.622 40.4022 46.0343C40.4197 46.0229 40.4008 45.9938 40.3831 46.0066Z" fill="#221E29"/>
<path d="M44.5931 67.315C42.2366 60.4948 40.2316 61.569 36.5119 50.8029C41.4478 45.8671 56.5236 42.2495 62.6819 42.2495C63.6144 49.3922 65.3 52.0132 67.1931 54.7726C67.7219 55.5432 67.3506 59.028 66.8624 60.0248C50.8873 68.8313 49.5768 67.315 44.5931 67.315Z" fill="#BECBCC"/>
<path d="M37.4667 44.1069C39.2756 43.6196 42.899 43.2702 46.9749 43.9661C47.4592 44.0489 47.7266 44.3182 48.3784 45.184C50.3605 47.6577 52.5055 47.8079 52.7219 48.2905C52.6795 48.8498 51.8586 48.8612 51.7399 48.969C51.1003 49.5494 48.1173 49.5164 45.9811 48.2939C45.3135 48.2939 43.3627 48.3262 42.4555 47.656C41.7394 47.1271 41.7351 45.9371 38.5907 47.4214C36.8997 47.2122 36.0444 44.49 37.4667 44.1069Z" fill="#68676D"/>
<path d="M50.4224 49.3733C51.0248 49.4608 51.7067 49.2366 52.1226 48.7681C52.3667 48.4929 52.2514 48.2207 51.9148 48.1355C51.6152 48.0676 51.2997 48.0906 51.0032 48.0656C49.2659 48.029 48.0527 47.2373 46.9496 45.9459C46.9441 45.9377 46.9312 45.9348 46.9237 45.9425C46.9176 45.9481 46.9166 45.9568 46.9208 45.9634C47.0943 46.2456 47.2828 46.5188 47.4949 46.7741C48.1333 47.5398 49.0182 48.1081 50.0057 48.2899C50.4959 48.3867 50.9964 48.3884 51.4929 48.3828C51.6508 48.3927 51.8559 48.3597 51.9816 48.4604C52.0037 48.4781 51.9925 48.49 51.9838 48.5192C51.8505 48.7693 51.6031 48.9445 51.3607 49.0821C51.0731 49.2386 50.7487 49.3257 50.4211 49.3393C50.3995 49.3398 50.4008 49.374 50.4224 49.3733Z" fill="#221E29"/>
<path d="M51.7975 48.8945C52.1226 48.9258 52.4604 48.8511 52.7069 48.6007C52.9224 48.3661 52.842 48.1525 52.5996 47.9774C51.9729 47.5576 51.3027 47.2669 50.6835 46.8486C49.6814 46.2247 48.8316 45.4599 47.9817 44.6272C47.9688 44.6136 47.9443 44.6328 47.9564 44.6485C48.6278 45.6356 49.4967 46.4873 50.5022 47.1322C51.1261 47.544 51.8237 47.8189 52.4776 48.1695C52.6324 48.261 52.6848 48.3396 52.5645 48.4927C52.383 48.722 52.0833 48.8307 51.7941 48.8608C51.7725 48.8623 51.7764 48.8965 51.7975 48.8945Z" fill="#221E29"/>
<path d="M49.1624 49.2655C48.1931 49.0029 47.2752 48.761 46.4582 48.2131C46.3653 48.1547 46.217 48.0493 46.0758 48.0171C45.7186 47.9613 45.3408 47.9766 44.9854 47.9824C43.9386 48.0445 43.1413 48.0418 42.3578 47.3661C42.302 47.3095 42.1355 47.1477 42.078 47.0941C41.8739 46.8652 41.6752 46.6039 41.4903 46.3574C41.4857 46.3487 41.4729 46.3441 41.4646 46.3511C41.4581 46.3562 41.4564 46.3652 41.4602 46.3722C41.582 46.6037 41.7186 46.8636 41.8725 47.078C41.9504 47.2079 42.1144 47.3879 42.2115 47.5061L42.4121 47.6927C43.1255 48.3456 44.0864 48.3662 44.9975 48.3189C45.3491 48.3165 45.7257 48.2697 46.0671 48.3495C46.382 48.5111 46.6955 48.719 47.0349 48.8411C47.7148 49.107 48.4386 49.2279 49.1595 49.299C49.1688 49.2999 49.177 49.2931 49.1777 49.2839C49.178 49.2745 49.1717 49.2669 49.1624 49.2655Z" fill="#221E29"/>
<path d="M44.5929 67.315C42.2363 60.4948 40.2314 61.569 36.5116 50.8029C53.9664 50.8029 56.5234 42.2495 62.6816 42.2495C63.6141 49.3922 65.7846 52.2775 67.451 54.9972C67.6041 55.2472 67.6017 59.8399 66.6377 60.39C54.1008 67.5433 49.5765 67.315 44.5929 67.315Z" fill="#6AA197"/>
<path d="M61.6561 61.3918C61.2844 58.245 63.0462 52.6448 63.8307 51.2544C63.8307 50.0713 62.3295 48.3233 62.7126 42.4819C62.8958 45.6962 63.7504 48.3937 65.1172 51.3086C63.0406 54.3751 61.8454 58.0307 61.6561 61.3918Z" fill="#8CC2B9"/>
<path d="M36.9532 52.0492C36.8773 51.6335 36.7878 51.2997 36.7781 51.0031C44.3378 51.6891 50.6992 49.6426 56.8665 45.1242C58.8746 43.6528 60.7492 42.6045 62.6814 42.2498C61.6312 42.1501 59.1502 42.8278 57.1804 44.3746C51.3505 48.9533 44.8246 50.8032 36.5111 50.8032C36.6242 51.2502 36.8147 51.6034 36.9532 52.0492Z" fill="#8CC2B9"/>
<path d="M59.3883 54.3516C59.0246 52.3675 56.1415 52.0676 54.402 54.0298C53.2659 55.3112 52.6501 56.0209 50.9399 56.1102C49.0876 56.2071 54.5611 60.5169 56.5054 59.0025C58.8528 57.1742 59.5528 55.2498 59.3883 54.3516Z" fill="#D6AF87"/>
<path d="M58.7051 56.5741C57.6047 58.6359 55.3954 60.0529 53.0648 60.2237C49.2177 60.5054 46.4815 57.3627 48.0363 55.5965C49.7748 53.6219 51.9176 55.605 53.2934 56.6532C55.5922 58.4044 57.8388 57.2989 58.7051 56.5741Z" fill="#E3C9A1"/>
<path d="M49.8635 56.7866C49.7514 56.6478 49.5674 56.6107 49.4529 56.7033C49.3384 56.796 49.3364 56.9836 49.4485 57.1221C49.5606 57.2609 49.7446 57.2981 49.8591 57.2054C49.9736 57.1127 49.9756 56.9251 49.8635 56.7866Z" fill="#D6AF87"/>
<path d="M48.8526 56.4492C48.7405 56.3104 48.5566 56.2732 48.4421 56.3659C48.3276 56.4586 48.3256 56.6462 48.4377 56.7847C48.5498 56.9233 48.7337 56.9607 48.8483 56.868C48.963 56.7753 48.9647 56.588 48.8526 56.4492Z" fill="#D6AF87"/>
<path d="M49.4143 57.8251C49.3022 57.6863 49.1182 57.6492 49.0037 57.7419C48.8892 57.8346 48.8872 58.0222 48.9993 58.1607C49.1114 58.2993 49.2954 58.3366 49.4099 58.2439C49.5244 58.1515 49.5264 57.9639 49.4143 57.8251Z" fill="#D6AF87"/>
<path d="M57.5801 68.2746C54.8205 68.2807 51.5329 68.9501 49.1087 69.9887C48.6571 70.182 48.3055 69.7793 47.507 69.0467C45.1077 66.975 42.971 67.2177 42.6704 66.7829C42.6102 66.2253 43.4155 66.0646 43.5126 65.937C44.0357 65.2498 46.7235 64.6146 49.0466 65.4277C46.7533 63.8913 47.1246 61.9647 47.2476 62.1054C48.9917 64.0983 49.8956 64.3872 50.683 64.2317C52.1822 63.9354 52.9885 64.8441 53.6289 65.2731C54.5191 65.8695 55.0304 66.0311 57.0002 65.0899C56.116 66.0275 56.3962 67.6962 57.5801 68.2746Z" fill="#68676D"/>
<path d="M47.2461 62.1045C46.8811 62.426 47.0134 63.0447 47.1218 63.4567C47.2584 63.9107 47.4826 64.3684 47.8461 64.6869C48.2067 64.9733 48.5655 65.1958 48.954 65.4212C49.3279 65.64 49.7028 65.8494 50.1054 66.0496L50.1279 66.0246C49.8047 65.7322 49.4604 65.4644 49.1096 65.2069C48.6032 64.8075 47.9898 64.5115 47.6593 63.9369C47.4062 63.5011 46.9595 62.5941 47.2718 62.1268C47.2715 62.1263 47.2461 62.1045 47.2461 62.1045Z" fill="#221E29"/>
<path d="M44.7346 65.2993C44.1261 65.3228 43.4967 65.6673 43.1732 66.2038C42.9832 66.5188 43.146 66.7656 43.4925 66.7879C43.7995 66.8 44.1055 66.7199 44.4015 66.6908C46.1165 66.4106 47.4534 66.9682 48.7732 68.0372C48.7802 68.0443 48.7933 68.0448 48.7994 68.036C48.8042 68.0295 48.8037 68.0207 48.7984 68.0149C48.5766 67.7691 48.3413 67.5347 48.0862 67.3224C47.3193 66.6857 46.3455 66.2878 45.3415 66.289C44.8419 66.2832 44.3496 66.3725 43.8623 66.4683C43.7095 66.4863 43.4772 66.5651 43.3533 66.469C43.3533 66.3375 43.4523 66.214 43.5243 66.1068C43.8206 65.7144 44.2637 65.4412 44.7421 65.3325C44.763 65.3284 44.7555 65.2946 44.7346 65.2993Z" fill="#221E29"/>
<path d="M43.4687 66.0207C43.1433 66.0493 42.8247 66.184 42.6279 66.4752C42.4588 66.745 42.5765 66.9406 42.8468 67.0687C43.5395 67.3674 44.2514 67.5312 44.9364 67.8299C46.0354 68.2608 47.0101 68.8584 47.9974 69.5223C48.0124 69.5334 48.033 69.5099 48.0185 69.4966C47.1787 68.6483 46.1693 67.9689 45.0631 67.5176C44.3747 67.2264 43.6388 67.0828 42.9319 66.8573C42.7631 66.7955 42.6973 66.7278 42.7878 66.5555C42.9247 66.2971 43.1993 66.1355 43.4781 66.0532C43.4993 66.0479 43.4891 66.0149 43.4687 66.0207Z" fill="#221E29"/>
<path d="M47.6075 17.5544C47.5168 20.0465 45.496 24.6517 41.0122 24.269C36.8186 23.9111 36.6371 17.5211 40.6325 14.5376C44.6812 11.5138 47.7385 13.9579 47.6075 17.5544Z" fill="#FFFAF5"/>
<path d="M45.8208 17.9927C45.7613 19.5636 44.4709 22.4673 41.6143 22.2293C38.9426 22.0065 38.8309 17.9791 41.3787 16.0957C43.9602 14.1873 45.9064 15.7259 45.8208 17.9927Z" fill="#221E29"/>
<path d="M45.1171 19.0142C45.0331 19.8431 44.0769 21.76 41.8416 21.5994C39.9299 21.462 39.621 18.864 41.4952 17.9245C43.5695 16.8846 45.2382 17.8178 45.1171 19.0142Z" fill="#3B3445"/>
<path d="M46.5901 18.8269C46.1895 19.3425 44.9658 19.9766 43.8531 19.1234C42.8124 18.3254 43.731 16.9316 45.2252 16.9833C46.7395 17.0353 47.1681 18.0827 46.5901 18.8269Z" fill="#FFFAF5"/>
<path d="M40.8449 20.0955C40.5916 20.4153 39.8016 20.796 39.0591 20.237C38.3646 19.7141 38.9424 18.8473 39.9207 18.9051C40.9124 18.9638 41.2106 19.6342 40.8449 20.0955Z" fill="#FFFAF5"/>
<path d="M55.4929 17.5544C55.5837 20.0465 57.6044 24.6517 62.0882 24.269C66.2818 23.9111 66.4633 17.5211 62.4679 14.5376C58.4192 11.5138 55.3617 13.9579 55.4929 17.5544Z" fill="#FFFAF5"/>
<path d="M57.2805 17.9932C57.3399 19.5641 58.6305 22.4678 61.4872 22.2298C64.1589 22.007 64.2705 17.9796 61.7228 16.0962C59.1411 14.1878 57.1946 15.7264 57.2805 17.9932Z" fill="#221E29"/>
<path d="M57.9843 19.0147C58.0682 19.8436 59.0245 21.7605 61.2597 21.5998C63.1715 21.4625 63.4804 18.8645 61.6062 17.925C59.5319 16.8851 57.8632 17.8183 57.9843 19.0147Z" fill="#3B3445"/>
<path d="M56.5104 18.8274C56.911 19.343 58.1346 19.9771 59.2474 19.1239C60.2881 18.3259 59.3694 16.9321 57.8752 16.9838C56.3609 17.0357 55.9324 18.0832 56.5104 18.8274Z" fill="#FFFAF5"/>
<path d="M62.2557 20.0955C62.509 20.4153 63.2991 20.796 64.0416 20.237C64.736 19.7141 64.1583 18.8473 63.1799 18.9051C62.188 18.9638 61.89 19.6342 62.2557 20.0955Z" fill="#FFFAF5"/>
<path d="M56.3926 23.1111C56.3926 28.0465 54.2299 32.0474 51.5623 32.0474C48.8944 32.0474 46.7317 28.0465 46.7317 23.1111C46.7317 18.1757 56.3926 18.176 56.3926 23.1111Z" fill="#E7E1D5"/>
<path d="M48.3047 25.7632C48.3047 28.3258 47.1817 30.4033 45.7965 30.4033C44.4112 30.4033 43.2883 28.3258 43.2883 25.7632C43.2885 23.2007 48.3047 23.2007 48.3047 25.7632Z" fill="#E7E1D5"/>
<path d="M59.8525 25.7632C59.8525 28.3258 58.7296 30.4033 57.3443 30.4033C55.9591 30.4033 54.8361 28.3258 54.8361 25.7632C54.8364 23.2007 59.8525 23.2007 59.8525 25.7632Z" fill="#E7E1D5"/>
<path d="M48.7631 20.9828C48.322 21.8546 50.2168 23.7337 51.505 23.7337C52.9485 23.7337 54.8149 22.1441 54.3228 20.9828C53.9014 19.9887 49.1674 20.1843 48.7631 20.9828Z" fill="#221E29"/>
<path d="M49.9383 20.897C49.6662 21.2631 50.7433 22.0058 51.496 21.985C52.3397 21.9614 53.4566 21.2767 53.1877 20.8064C52.9577 20.4039 50.1874 20.5616 49.9383 20.897Z" fill="#3B3445"/>
<path d="M48.2538 29.4163C49.0295 28.5513 49.1344 27.2167 48.7811 26.1403C48.4999 25.3035 47.9054 24.4996 47.0787 24.1577L47.0588 24.1849C47.4475 24.4722 47.7741 24.8393 48.0257 25.2503C48.5261 26.0739 48.7464 27.0653 48.644 28.0235C48.5911 28.5027 48.4521 28.9739 48.2242 29.4L48.2538 29.4163Z" fill="#221E29"/>
<path d="M54.8754 29.4C54.6303 28.4739 54.6021 27.5639 54.8038 26.6455C55.0103 25.7286 55.4213 24.916 56.0408 24.1849L56.0209 24.1577C54.8261 25.0227 54.2217 26.5793 54.4054 28.0296C54.4646 28.5139 54.6106 28.9887 54.8458 29.4163L54.8754 29.4Z" fill="#221E29"/>
<path d="M54.9531 25.4277C54.6398 26.0482 54.1526 27.1056 53.4048 27.1995C52.8533 27.2534 52.8297 25.5471 51.5978 25.4651C50.6571 25.4078 50.4846 26.407 50.123 27.0013C50.0104 27.1709 49.8559 27.2599 49.655 27.2301C49.5356 27.2213 49.4609 27.1757 49.3636 27.0765C48.9693 26.5846 48.7288 25.9263 48.3187 25.4243L48.2896 25.4411C48.6325 26.0105 48.8072 26.6676 49.1857 27.2172C49.2876 27.3507 49.4385 27.4608 49.6108 27.4819C49.8964 27.5484 50.1949 27.4171 50.3581 27.1781C50.6903 26.7572 50.7549 26.1008 51.2661 25.8472C51.8363 25.6315 52.285 26.128 52.5155 26.598C52.7229 26.9503 52.9212 27.5399 53.4322 27.4637C54.3081 27.314 54.7369 26.1835 54.9854 25.4377L54.9531 25.4277Z" fill="#221E29"/>
<path d="M27.5812 23.4253C28.1706 23.5638 28.7781 23.6116 29.3775 23.6716L29.3518 23.5277C28.7815 23.7638 28.1757 23.8652 27.5625 23.9043C27.4972 23.9089 27.4477 23.9642 27.4487 24.0283C27.3922 26.6522 28.2882 29.2674 29.8329 31.3791C30.7644 32.6268 31.9264 33.7427 33.2578 34.5456C32.0288 33.6165 30.9423 32.4747 30.0663 31.2132C29.2076 29.9543 28.5238 28.5322 28.1351 27.0594L27.959 26.3132L27.8255 25.5579L27.7394 24.7953L27.6974 24.028L27.5839 24.152C27.8978 24.119 28.2118 24.0705 28.5197 23.9909C28.8293 23.9123 29.1326 23.8033 29.4177 23.6631C29.4871 23.6332 29.4622 23.5202 29.3872 23.5214C28.8546 23.5095 28.1031 23.4906 27.5812 23.4253Z" fill="#221E29"/>
<path d="M39.3547 1.62164C37.0656 4.74324 34.7871 9.4134 35.7196 13.3631C35.8751 13.9729 36.127 14.5632 36.5077 15.0728L36.4648 14.7942C35.4173 17.8967 33.4233 20.1693 30.52 21.6773C29.6024 22.1975 28.5592 22.5278 27.5969 22.9279C27.6001 22.9364 27.6093 22.9407 27.6178 22.9383L28.3775 22.7042C28.7203 22.6081 29.1685 22.4305 29.5009 22.3055C32.9841 20.9688 35.5871 18.47 36.779 14.9039C36.7826 14.8935 36.7805 14.8818 36.7744 14.8736C36.4264 14.399 36.1899 13.8494 36.0409 13.2799C35.6102 11.5499 35.8681 9.7264 36.3384 8.0296C36.6601 6.89039 37.101 5.78637 37.619 4.72189C38.1359 3.65596 38.7347 2.63128 39.3828 1.63984C39.3949 1.6231 39.3663 1.6032 39.3547 1.62164Z" fill="#221E29"/>
<path d="M30.9258 72.7148C30.2158 76.6656 29.6223 80.6745 29.8023 84.7014C29.8598 86.0459 29.9909 87.385 30.1568 88.715L30.4293 88.3741C29.8055 88.4209 29.1409 88.2879 28.5302 88.1181C25.3299 87.1771 22.7009 84.6303 21.4661 81.5521C20.9085 80.3205 20.6571 78.9469 20.4108 77.6301C20.4019 77.6315 20.3956 77.6395 20.3965 77.6485C20.4713 78.3243 20.5557 79.0008 20.7132 79.6634C21.411 82.9981 23.5048 86.0539 26.5526 87.6471C27.7564 88.2629 29.0853 88.7703 30.4601 88.7089C30.4793 88.7077 30.4934 88.69 30.4905 88.671C30.3155 87.3477 30.1755 86.0192 30.1085 84.6864C29.8649 80.7082 30.4999 76.5571 30.9258 72.7148Z" fill="#221E29"/>
<path d="M63.5883 1.55573C65.3858 4.52641 67.0557 7.86445 67.1491 11.3956C67.1654 12.5128 66.9601 13.691 66.3035 14.6012C66.2414 14.6827 66.2285 14.7892 66.2606 14.8793C67.4794 18.4745 69.8985 20.5457 73.2739 22.0913C73.4984 22.177 74.138 22.4606 74.3646 22.5443C74.6279 22.6433 75.2112 22.844 75.4759 22.9377C75.4956 22.9457 75.5077 22.9134 75.488 22.9061C75.0578 22.7275 74.4568 22.4946 74.045 22.2976C71.69 21.2302 69.3967 19.7549 67.9387 17.5726C67.6407 17.1448 67.3935 16.6845 67.163 16.2177C66.9395 15.7467 66.7485 15.2612 66.5746 14.7696L66.5699 14.7997C68.5443 11.9542 66.9104 7.37601 65.4654 4.5895C64.9178 3.53182 64.2906 2.51708 63.6163 1.53632C63.6046 1.51836 63.5752 1.5385 63.5883 1.55573Z" fill="#221E29"/>
<path d="M75.5405 23.4253C75.0213 23.4896 74.2647 23.5068 73.7348 23.5211C73.6586 23.5221 73.6358 23.6313 73.7042 23.6626C73.9896 23.8028 74.2926 23.9118 74.6025 23.9904C74.9104 24.07 75.2244 24.1185 75.5383 24.1515L75.4248 24.0275L75.3828 24.7948L75.2967 25.5574L75.1632 26.3127L74.9871 27.0589C74.5983 28.5312 73.9141 29.9548 73.0556 31.2127C72.1794 32.4742 71.0936 33.6156 69.8641 34.5451C71.1955 33.7422 72.3578 32.6266 73.2891 31.3786C74.8335 29.2667 75.7298 26.652 75.6733 24.0278C75.6742 23.9627 75.6235 23.9082 75.5597 23.9038C74.9465 23.8647 74.3407 23.7633 73.7705 23.5272L73.7447 23.6711C74.3436 23.6116 74.9512 23.5638 75.5405 23.4253Z" fill="#221E29"/>
<path d="M61.6979 43.5623C61.144 43.6526 60.6519 43.9505 60.1785 44.2347C58.7709 45.1063 57.4699 46.1433 56.1021 47.0644C54.5193 48.1369 52.9079 49.1679 51.1429 49.9053C47.8813 51.2944 44.2924 51.8017 40.7573 51.9141C40.2585 51.9367 39.6079 51.9456 39.1081 51.9507L37.4552 51.9401C37.4455 51.9396 37.4373 51.9471 37.4373 51.9568C41.7961 52.2989 46.3629 52.0704 50.5072 50.522C53.6288 49.3598 56.2773 47.2888 58.9017 45.295C59.3418 44.9638 59.7835 44.6341 60.2406 44.3276C60.6965 44.0309 61.167 43.7145 61.704 43.5956C61.7244 43.5927 61.719 43.5584 61.6979 43.5623Z" fill="#221E29"/>
<path d="M62.7667 42.9945C62.9076 44.8041 63.2804 46.6006 63.8244 48.3319C64.1556 49.3656 64.5846 50.3922 65.023 51.3737L65.072 51.058C64.7804 51.4011 64.537 51.7663 64.3257 52.1436C63.6999 53.2554 63.2415 54.4705 62.865 55.6866C62.4425 57.1078 62.1145 58.5508 61.9225 60.0198L61.8539 60.6489C61.8524 60.6584 61.8589 60.6674 61.8687 60.6683C61.8774 60.6693 61.8854 60.6633 61.8871 60.6545C62.3357 58.1783 63.0096 55.7277 64.0413 53.4286C64.3902 52.6672 64.7915 51.9213 65.3219 51.2759C65.3304 51.2662 65.3324 51.2526 65.3273 51.2417C65.033 50.581 64.7345 49.9246 64.4717 49.252C63.9413 47.9095 63.5211 46.5245 63.2037 45.1164C63.0401 44.4132 62.9164 43.7015 62.7997 42.9891C62.7982 42.9799 62.7895 42.9739 62.7803 42.9753C62.7715 42.977 62.7655 42.9853 62.7667 42.9945Z" fill="#221E29"/>
<path d="M55.9286 65.5627C57.978 64.8042 60.0788 63.9292 62.0747 63.0457C63.1916 62.5318 64.3223 62.0046 65.3946 61.4023C65.891 61.1182 66.3894 60.8413 66.8322 60.4647C67.004 60.3243 67.1593 60.1314 67.2409 59.9224C67.6813 58.7119 67.6563 57.4232 67.6582 56.1615C67.6286 54.6763 67.4685 53.1944 67.2052 51.7337C67.004 50.7675 66.7781 49.7921 66.3453 48.8999C66.3373 48.88 66.3057 48.8936 66.3142 48.9132C66.6852 49.8222 66.8752 50.7947 67.0298 51.7611C67.3183 53.7013 67.4335 55.6745 67.3202 57.6333C67.2874 58.1225 67.2362 58.6112 67.1406 59.0909C67.0892 59.3294 67.0302 59.5677 66.9354 59.7904C66.8514 60.021 66.6607 60.1753 66.4697 60.3269C65.685 60.9119 64.8006 61.3582 63.9351 61.8131C61.3087 63.1508 58.6076 64.3354 55.9148 65.5321C55.8956 65.5394 55.9089 65.5724 55.9286 65.5627Z" fill="#221E29"/>
<path d="M46.5921 7.14867C46.4317 7.52573 45.5422 8.10953 44.1271 7.7776C42.8037 7.46726 43.0823 6.47509 44.5185 6.26035C45.9738 6.04294 46.8236 6.60442 46.5921 7.14867Z" fill="#221E29"/>
<path d="M55.9644 7.19315C56.135 7.5656 57.0403 8.12514 58.4457 7.75462C59.7601 7.40813 59.4546 6.42421 58.0131 6.24878C56.5524 6.07116 55.7181 6.65545 55.9644 7.19315Z" fill="#221E29"/>
<mask id="mask3_334_7315" style="mask-type:luminance" maskUnits="userSpaceOnUse" x="0" y="0" width="81" height="112">
<path d="M13.4174 97.2211C13.569 97.2805 11.7133 97.7568 13.1658 98.9084C17.8781 102.644 28.4545 101.855 35.3014 98.1334C37.1673 100.353 39.46 102.034 42.0628 102.296C42.9356 102.385 43.7446 102.38 44.4735 102.3C44.3633 103.757 44.1074 105.569 43.805 107.177C41.793 106.676 38.9342 106.346 38.4387 106.927C37.886 107.578 37.44 109.423 37.3929 110.589C37.6043 111.081 40.3316 111.204 42.7456 111.11C44.7407 111.091 47.0526 110.784 48.3973 110.55C48.02 103.723 48.4468 101.136 48.4994 99.5895C48.5007 99.5648 48.5007 99.5412 48.4994 99.5177C48.4994 99.5165 48.4994 99.5165 48.4994 99.5155C48.4994 99.5143 48.4994 99.5143 48.4994 99.5133C48.4994 99.5121 48.4994 99.5121 48.4994 99.5111V99.5043C48.7421 98.2045 48.5557 97.1095 48.0154 95.9545C49.9352 96.2342 51.8943 96.2859 53.8221 96.1095C53.4234 97.2621 53.4389 98.4001 53.9737 99.7885V99.7941C54.0455 101.359 54.4342 103.993 54.0691 110.606C55.4104 110.839 57.7121 111.145 59.7037 111.167H59.7205C62.1345 111.26 64.8609 111.138 65.0722 110.646C65.0251 109.479 64.5801 107.634 64.0274 106.983C63.5319 106.403 60.6731 106.733 58.6611 107.234C58.3544 105.599 58.095 103.756 57.9882 102.286C58.7072 102.375 59.5103 102.385 60.3921 102.297C66.5931 101.669 71.0303 93.0054 72.1266 88.1402C73.514 81.9877 72.4175 74.1467 71.2875 69.2499C74.526 69.0274 77.34 68.2165 78.8094 66.2404C86.2481 56.2426 70.2102 43.3769 67.3885 35.9212C68.8353 35.3753 70.3766 34.3846 71.7257 33.0219C71.7279 33.0207 71.7301 33.0185 71.7325 33.0163C72.1008 32.6433 72.4548 32.2435 72.7873 31.8176C72.7941 31.8099 72.8009 31.8009 72.8074 31.7919C73.9634 30.3069 74.8711 28.5051 75.2843 26.4482C75.4372 25.6865 75.5226 24.8902 75.527 24.0623C74.9541 23.9747 74.3911 23.8162 73.8554 23.5928C74.4137 23.5243 74.955 23.4984 75.5146 23.4287V23.4275C75.5078 23.2601 75.4966 23.0917 75.483 22.9221C68.2273 20.28 67.1815 17.0526 66.2638 14.9161C69.7664 10.2879 62.977 -0.454605 61.9894 0.014909C61.9445 0.0204898 61.8996 0.0384454 61.8557 0.0687758C57.3712 3.16029 54.2654 6.48644 53.9237 9.09485C53.371 9.06331 52.7993 9.04656 52.2094 9.04656C51.1064 9.04656 50.0761 9.08369 49.1136 9.15551C48.8137 6.53812 45.6952 3.18504 41.1748 0.0687758C41.1311 0.0384454 41.086 0.0204898 41.0411 0.014909C40.0547 -0.453635 33.2867 10.253 36.7487 14.8935C35.495 17.1952 34.547 20.8203 27.6147 22.9221C27.6001 23.0815 27.5899 23.2421 27.5831 23.403C27.6639 23.4198 27.7428 23.4346 27.8202 23.4479C27.965 23.4736 28.1034 23.494 28.2346 23.5108C28.2683 23.5154 28.3009 23.5197 28.3334 23.5231C28.3659 23.5277 28.3984 23.5309 28.4299 23.5343C28.4928 23.5421 28.5535 23.5488 28.6131 23.5544C28.6726 23.5612 28.7301 23.5668 28.7862 23.5724C28.8276 23.577 28.8682 23.5804 28.9075 23.5848C29.03 23.5971 29.1424 23.6095 29.2455 23.6229C28.7041 23.8228 28.1446 23.9723 27.5751 24.0676C27.5785 24.2598 27.5863 24.4529 27.5999 24.6451C27.6055 24.7271 27.6123 24.8091 27.62 24.8911C27.6212 24.9103 27.6222 24.9292 27.6244 24.9484C27.629 25.0023 27.6346 25.0564 27.6414 25.1103C27.6469 25.1663 27.6537 25.2226 27.6605 25.2786C27.6627 25.3022 27.6661 25.3248 27.6695 25.3483C27.6797 25.4337 27.6921 25.5191 27.7054 25.6045C27.7066 25.6157 27.7088 25.6259 27.71 25.637C27.7224 25.719 27.7357 25.7998 27.7506 25.8819C27.7561 25.9168 27.7629 25.9527 27.7697 25.9886C27.7799 26.0471 27.7911 26.1056 27.8035 26.1638C27.8112 26.2087 27.8202 26.2548 27.8304 26.2997C27.8416 26.3548 27.8529 26.4099 27.8663 26.4637C27.8753 26.5076 27.8855 26.5525 27.8966 26.5974C27.9078 26.6469 27.9202 26.6974 27.9325 26.7469C27.9461 26.802 27.9595 26.857 27.974 26.9121C27.9842 26.9492 27.9942 26.9873 28.0044 27.0254C28.0201 27.0827 28.0359 27.139 28.0514 27.195C28.1053 27.3816 28.1626 27.568 28.2244 27.7534C28.2446 27.814 28.265 27.8747 28.2873 27.9353C28.3031 27.9814 28.3188 28.0285 28.3368 28.0758C28.3761 28.1848 28.4166 28.2928 28.4593 28.4005C28.4909 28.4825 28.5234 28.5645 28.5581 28.6465C28.6704 28.9195 28.793 29.1903 28.9242 29.4577C28.9647 29.5419 29.0074 29.6239 29.0499 29.7071C29.0499 29.7093 29.0511 29.7117 29.0533 29.7139C29.088 29.7826 29.1241 29.851 29.161 29.9194C29.1778 29.951 29.196 29.9835 29.2127 30.015C29.2474 30.0779 29.2824 30.1407 29.3183 30.2038C29.3294 30.223 29.3408 30.2431 29.352 30.2633C29.3867 30.3239 29.4216 30.3834 29.4576 30.444C29.4789 30.479 29.499 30.5149 29.5204 30.5496C29.5551 30.6068 29.59 30.6631 29.6259 30.7204C29.6968 30.8349 29.7698 30.9485 29.846 31.0608C29.8865 31.1237 29.9292 31.1855 29.972 31.2474C30.3966 31.8652 30.8717 32.4495 31.3907 32.9886C31.4436 33.0437 31.4962 33.0988 31.5501 33.1527C31.8825 33.4875 32.2307 33.8032 32.5959 34.0985C32.6565 34.148 32.7184 34.1972 32.7813 34.2455C32.9407 34.369 33.1025 34.4894 33.2666 34.6049C33.3204 34.6432 33.3745 34.6813 33.4294 34.7184C33.481 34.7534 33.5327 34.7881 33.5856 34.823C33.6541 34.8669 33.7227 34.9118 33.7912 34.9555C33.7989 34.9599 33.8081 34.9657 33.8171 34.9713C33.8542 34.9938 33.8901 35.0162 33.9273 35.0387C34.0115 35.0904 34.0957 35.1409 34.1811 35.1904C34.2529 35.2309 34.3259 35.2724 34.399 35.3117C34.4788 35.3566 34.5596 35.3993 34.6416 35.4408C34.7224 35.4835 34.8044 35.524 34.8864 35.5643C34.9684 35.6048 35.0514 35.6441 35.1347 35.681C35.2123 35.7169 35.2909 35.7518 35.3695 35.7856C35.3785 35.7902 35.3887 35.7933 35.3965 35.7967C35.4695 35.8283 35.5425 35.8586 35.6156 35.8865C35.6314 35.8933 35.6471 35.9001 35.6617 35.9057C35.7279 35.9314 35.7942 35.9574 35.8607 35.9821C35.8808 35.9899 35.9021 35.9979 35.9235 36.0047C35.9943 36.026 36.0674 36.0518 36.1404 36.0811C36.1448 36.0823 36.1494 36.0845 36.1538 36.0855C36.1494 36.0843 36.1448 36.0833 36.1404 36.0821V36.0809C36.0674 36.0573 35.9956 36.0314 35.9235 36.0044C31.9267 40.3092 25.0293 41.9334 18.2128 45.254C15.5459 46.5526 13.2902 48.8914 13.3689 50.6729C13.3689 50.6797 13.3698 50.6875 13.3698 50.6943C13.39 51.0616 13.4373 51.3996 13.5113 51.7122C13.5113 51.7122 13.5113 51.7122 13.5113 51.7134C13.6203 52.1145 13.7954 52.5401 14.0449 52.9928C14.0774 53.0535 14.1111 53.1142 14.147 53.1748C16.0263 56.3988 18.6133 57.8209 20.5118 58.2647C25.0354 59.3229 28.3741 56.4718 32.8575 52.4156C32.3137 57.1864 31.9126 62.3965 31.4914 67.9166C31.4902 67.9178 31.4902 67.92 31.4914 67.921C30.8387 76.0362 28.8056 81.3932 30.3252 88.1402C30.3645 88.3144 30.4073 88.4917 30.4555 88.6749C28.7896 88.6873 27.0124 88.0841 25.0601 86.4361C18.1043 80.5644 22.1147 73.9198 16.9957 67.7269C11.7305 61.3587 2.00687 64.3726 0.480163 74.7455C-1.36028 87.2569 7.27368 94.798 13.4174 97.2211Z" fill="white"/>
</mask>
<g mask="url(#mask3_334_7315)">
<g opacity="0.251">
<path d="M46.5781 21.0296C45.6541 22.6321 43.4031 23.4896 42.2508 23.614C40.2418 23.831 38.6891 23.0526 38.2504 21.2376C37.5392 18.2958 39.5046 15.5874 39.5046 15.5874C39.5046 15.5874 36.0062 19.1715 37.513 22.848C38.0194 24.0835 39.6092 25.0801 40.9432 25.0233C43.3551 24.9204 45.5547 23.3714 46.5781 21.0296Z" fill="url(#paint0_linear_334_7315)"/>
<path d="M56.515 21.0296C57.439 22.6321 59.69 23.4896 60.8423 23.614C62.8514 23.831 64.4041 23.0526 64.8428 21.2376C65.554 18.2958 63.5886 15.5874 63.5886 15.5874C63.5886 15.5874 67.087 19.1715 65.5802 22.848C65.0738 24.0835 63.484 25.0801 62.1499 25.0233C59.7383 24.9204 57.5385 23.3714 56.515 21.0296Z" fill="url(#paint1_linear_334_7315)"/>
<path d="M66.3307 48.9062C66.106 49.2461 65.0231 50.7102 62.7835 42.9918C62.6598 42.9699 63.7645 49.1842 65.0983 50.8706C62.4863 55.2918 61.6717 58.6745 61.6298 63.0396C63.6481 62.2974 65.5482 61.2349 67.2372 59.9037C67.9327 56.348 67.5046 51.5381 66.3307 48.9062Z" fill="url(#paint2_linear_334_7315)"/>
<path d="M61.7012 43.5796C58.1414 46.7267 54.8128 49.8713 50.5855 51.3852C46.3581 52.899 41.7719 53.1919 37.4544 51.9576C44.342 52.2359 48.2313 51.4148 52.2051 49.6095C56.1791 47.804 58.5344 44.7137 61.7012 43.5796Z" fill="url(#paint3_linear_334_7315)"/>
<path d="M57.5801 64.8141C53.4675 63.69 49.3001 62.774 45.1876 61.6498C41.9743 60.7714 40.1365 58.5297 38.1594 55.1089C40.0433 59.9147 42.608 61.9793 43.9183 65.6879C45.3482 65.0893 47.4653 64.7751 49.0485 65.4928C47.7805 64.9573 46.6119 63.0746 47.2474 62.105C48.0042 63.1032 49.5054 64.3793 50.3767 64.2665C52.1665 64.0345 52.1424 64.6076 53.2329 65.5175C53.5124 65.7512 54.9527 66.9817 57.5801 64.8141Z" fill="url(#paint4_linear_334_7315)"/>
<path d="M49.0826 63.8265C48.5119 63.5647 48.1139 63.2622 47.5158 62.6643C47.5158 64.2403 50.0459 65.2909 50.1172 66.037C48.9564 65.6857 47.9557 65.6519 46.7444 65.5906C45.5332 65.5292 44.2625 65.7895 43.3188 66.5517C43.3225 66.4714 43.3263 66.3908 43.33 66.3105C43.0854 66.4648 42.9415 66.7654 42.9747 67.053C42.7641 66.9258 42.668 66.6376 42.7603 66.4095C42.8525 66.1814 43.1216 66.0407 43.3615 66.0955C43.5857 65.8849 43.8097 65.6743 44.0339 65.4637C43.99 65.1499 43.9463 64.8362 43.9024 64.5227C45.0001 64.5659 46.0981 64.6091 47.1958 64.6523C46.8667 63.8709 46.3339 62.5417 47.2482 62.106C47.8492 62.6454 48.4408 63.2597 49.0826 63.8265Z" fill="url(#paint5_linear_334_7315)"/>
<path d="M48.7588 68.0142C48.239 68.1984 47.6184 68.0555 47.2316 67.6622C46.2848 66.6998 44.7811 66.33 43.4961 66.7433C44.3667 66.3453 45.3734 66.2534 46.3018 66.487C47.2301 66.7207 48.0733 67.2783 48.7588 68.0142Z" fill="url(#paint6_linear_334_7315)"/>
<path d="M20.435 77.6918C20.3197 79.1627 21.0302 82.169 21.9471 84.4004C24.2127 89.9139 15.9687 95.5862 8.3914 90.4264C0.212146 84.8565 0.0148673 73.9529 1.25089 71.104C-4.13627 77.5891 -3.10041 84.1708 -0.164433 90.6416C2.77155 97.1122 8.8495 102.067 15.7789 103.639C22.7083 105.21 30.3292 103.363 35.7695 98.792C32.828 95.0873 30.212 90.9088 29.8464 84.9383C25.7649 84.5636 23.091 81.9171 20.435 77.6918Z" fill="url(#paint7_linear_334_7315)"/>
<path d="M41.6491 92.6783C42.9769 94.006 43.5874 95.0872 43.9358 96.1015C44.3769 97.3851 44.266 98.9004 43.452 99.9864C42.6379 101.073 41.0454 101.586 39.8358 100.97C35.1043 98.5616 31.5489 93.9575 30.4152 88.7705C30.5026 95.6851 35.4222 102.271 42.0279 104.316C43.086 104.644 43.523 105.733 43.0691 106.743C44.4745 107.178 44.967 107.023 46.4957 108.429C47.1515 109.032 45.9366 110.069 45.0612 110.236C41.6773 110.881 37.7316 110.447 37.2286 108.914C36.6696 109.871 36.6444 110.323 36.0853 111.28C40.4956 112.282 45.0544 112.629 49.5656 112.305C50.2025 107.022 50.3818 101.684 50.1006 96.3703C47.0106 96.1971 44.0571 94.7876 41.6491 92.6783Z" fill="url(#paint8_linear_334_7315)"/>
<path d="M61.202 92.3982C60.1426 93.7169 58.9687 94.8785 58.539 96.1659C58.1093 97.4534 58.2088 98.9648 59.0229 100.051C59.8369 101.137 61.3379 101.422 62.639 101.035C66.2534 99.9604 70.9259 94.0219 72.0596 88.835C71.9722 95.7496 67.0526 102.336 60.4469 104.381C59.3888 104.709 58.9515 105.798 59.4057 106.808C58.0004 107.243 57.5078 107.087 55.9791 108.493C55.3233 109.097 56.5382 110.133 57.4136 110.3C60.7975 110.946 64.7432 110.511 65.2462 108.978C65.8052 109.935 65.8304 110.387 66.3895 111.344C61.9792 112.347 57.4204 112.693 52.9092 112.37C52.2723 107.087 52.093 101.749 52.3742 96.4353C55.4645 96.2615 58.7943 94.5072 61.202 92.3982Z" fill="url(#paint9_linear_334_7315)"/>
<path d="M72.7768 72.9361C65.2233 71.5698 56.8255 71.7089 46.3654 73.7111C44.8877 73.9941 39.1072 64.5099 36.5117 50.8027C38.5863 57.5645 43.1737 63.1072 43.9271 65.5632C43.5786 65.9817 41.5402 67.055 44.0173 67.3406C47.7509 68.8364 48.4676 69.6806 48.6853 69.5872C50.0972 68.982 52.9056 67.483 56.2072 67.4143C60.445 67.326 65.7169 69.5362 73.092 69.0534C76.785 70.4117 74.7815 72.8051 72.7768 72.9361Z" fill="url(#paint10_linear_334_7315)"/>
<path d="M75.4284 69.2189C78.8686 66.0481 80.4892 61.1447 77.9839 54.8321C75.3632 48.2286 64.6364 37.5516 62.3733 36.4337C65.8697 36.004 69.35 35.7206 72.1256 32.6216C71.987 34.3138 70.6134 35.5673 69.5213 36.9564C73.0049 39.9072 76.4963 42.9397 79.0911 46.6958C81.6859 50.452 83.3298 55.0636 82.6818 59.5829C82.0339 64.1021 78.723 68.3743 75.4284 69.2189Z" fill="url(#paint11_linear_334_7315)"/>
<path d="M53.4727 31.027C53.2114 30.6553 52.9993 31.3526 51.4784 31.3526C50.0779 31.3526 49.9619 30.5818 49.6334 30.976C49.1178 31.5945 49.852 32.3805 51.5837 32.3805C53.3851 32.3802 53.934 31.6829 53.4727 31.027Z" fill="url(#paint12_linear_334_7315)"/>
<path d="M55.4481 5.84417C53.6737 7.95128 59.4306 10.9695 61.4152 6.88293C62.0708 5.53286 62.7619 2.21132 61.5656 -1.16748C64.037 0.886007 66.1426 3.46045 67.2636 6.47189C68.3846 9.48309 68.4467 12.9565 67.0477 15.8491C64.587 11.5941 61.0452 9.5702 52.5905 9.02401C52.8412 7.51914 54.0488 6.14553 55.4481 5.84417Z" fill="url(#paint13_linear_334_7315)"/>
<path d="M47.6317 5.91009C49.4061 8.0172 44.5249 10.1328 42.4558 8.8024C40.4572 7.51736 38.3593 2.70162 41.5141 -1.10156C39.0428 0.951925 36.9372 3.52637 35.8162 6.53781C34.6951 9.54901 34.633 13.0224 36.0321 15.915C38.4928 11.66 42.0346 9.63612 50.4893 9.08993C50.2386 7.58505 49.031 6.21145 47.6317 5.91009Z" fill="url(#paint14_linear_334_7315)"/>
<path d="M47.9697 44.6392C48.6271 45.7412 49.8218 46.8443 49.5724 47.2658C49.2701 47.7765 47.5213 46.6698 47.5213 46.6698C47.5213 46.6698 49.5173 48.6049 47.3614 48.4166C46.931 48.379 46.4578 48.2397 46.0849 48.0214C46.3523 48.4317 48.2204 49.1193 48.2735 49.1009C49.2227 48.7699 51.0336 48.0641 51.8086 47.6353C50.2375 47.045 49.4598 46.1292 47.9697 44.6392Z" fill="url(#paint15_linear_334_7315)"/>
<path d="M42.374 47.5908C41.4493 46.1801 41.1742 46.0345 41.104 45.9971C40.1286 45.4772 38.764 45.9183 37.3634 46.7209C31.8962 50.8959 23.3001 59.6373 18.1468 57.3012C20.4825 59.245 26.4134 60.1022 28.7964 58.2169C31.1794 56.3313 35.5589 51.312 37.833 49.0299C38.6679 48.1918 41.2052 46.2728 42.374 47.5908Z" fill="url(#paint16_linear_334_7315)"/>
<path d="M55.5874 43.1402C55.913 43.1589 56.2387 43.1776 56.5643 43.1963C52.1142 47.9145 44.372 50.8385 40.7403 47.913C39.0438 48.7268 37.2247 49.9886 36.5118 50.8031C48.5491 50.8031 52.0798 47.6422 58.6394 43.477C59.5243 42.915 60.8465 42.4166 62.0361 42.2817C60.1991 42.2817 57.77 42.7085 55.5874 43.1402Z" fill="url(#paint17_linear_334_7315)"/>
<path d="M33.9036 45.0161C34.3699 41.9246 35.6841 38.3896 36.3154 35.604C33.8279 34.9355 31.3951 33.0335 30.41 32.0483C31.5601 34.615 32.907 35.7503 34.3801 36.6455C32.5921 40.1519 30.871 43.8939 29.5467 44.3324C27.2668 45.0875 21.9565 44.9788 20.0727 45.9253C25.4935 45.3129 25.6683 46.1847 27.8564 46.0348C29.3382 45.9333 31.991 45.4663 33.9036 45.0161Z" fill="url(#paint18_linear_334_7315)"/>
</g>
</g>
<defs>
<linearGradient id="paint0_linear_334_7315" x1="41.8571" y1="23.6752" x2="41.8571" y2="15.734" gradientUnits="userSpaceOnUse">
<stop stop-color="#564E82"/>
<stop offset="1" stop-color="#59396E"/>
</linearGradient>
<linearGradient id="paint1_linear_334_7315" x1="61.2362" y1="23.6752" x2="61.2362" y2="15.734" gradientUnits="userSpaceOnUse">
<stop stop-color="#564E82"/>
<stop offset="1" stop-color="#59396E"/>
</linearGradient>
<linearGradient id="paint2_linear_334_7315" x1="64.6009" y1="60.1714" x2="64.6009" y2="43.3034" gradientUnits="userSpaceOnUse">
<stop stop-color="#564E82"/>
<stop offset="1" stop-color="#59396E"/>
</linearGradient>
<linearGradient id="paint3_linear_334_7315" x1="49.5779" y1="51.4186" x2="49.5779" y2="43.7218" gradientUnits="userSpaceOnUse">
<stop stop-color="#564E82"/>
<stop offset="1" stop-color="#59396E"/>
</linearGradient>
<linearGradient id="paint4_linear_334_7315" x1="47.8696" y1="64.5074" x2="47.8696" y2="55.2795" gradientUnits="userSpaceOnUse">
<stop stop-color="#564E82"/>
<stop offset="1" stop-color="#59396E"/>
</linearGradient>
<linearGradient id="paint5_linear_334_7315" x1="46.4212" y1="66.3451" x2="46.4212" y2="62.1825" gradientUnits="userSpaceOnUse">
<stop stop-color="#564E82"/>
<stop offset="1" stop-color="#59396E"/>
</linearGradient>
<linearGradient id="paint6_linear_334_7315" x1="46.1274" y1="67.8459" x2="46.1274" y2="66.3873" gradientUnits="userSpaceOnUse">
<stop stop-color="#564E82"/>
<stop offset="1" stop-color="#59396E"/>
</linearGradient>
<linearGradient id="paint7_linear_334_7315" x1="16.5951" y1="99.4559" x2="16.5951" y2="71.6183" gradientUnits="userSpaceOnUse">
<stop stop-color="#564E82"/>
<stop offset="1" stop-color="#59396E"/>
</linearGradient>
<linearGradient id="paint8_linear_334_7315" x1="40.3223" y1="109.039" x2="40.3223" y2="89.1382" gradientUnits="userSpaceOnUse">
<stop stop-color="#564E82"/>
<stop offset="1" stop-color="#59396E"/>
</linearGradient>
<linearGradient id="paint9_linear_334_7315" x1="62.1527" y1="109.104" x2="62.1527" y2="89.2027" gradientUnits="userSpaceOnUse">
<stop stop-color="#564E82"/>
<stop offset="1" stop-color="#59396E"/>
</linearGradient>
<linearGradient id="paint10_linear_334_7315" x1="55.8329" y1="70.4391" x2="55.8329" y2="51.1589" gradientUnits="userSpaceOnUse">
<stop stop-color="#564E82"/>
<stop offset="1" stop-color="#59396E"/>
</linearGradient>
<linearGradient id="paint11_linear_334_7315" x1="72.5983" y1="63.9831" x2="72.5983" y2="33.1905" gradientUnits="userSpaceOnUse">
<stop stop-color="#564E82"/>
<stop offset="1" stop-color="#59396E"/>
</linearGradient>
<linearGradient id="paint12_linear_334_7315" x1="51.5498" y1="32.1632" x2="51.5498" y2="30.8872" gradientUnits="userSpaceOnUse">
<stop stop-color="#564E82"/>
<stop offset="1" stop-color="#59396E"/>
</linearGradient>
<linearGradient id="paint13_linear_334_7315" x1="60.3459" y1="13.4145" x2="60.3459" y2="-0.902975" gradientUnits="userSpaceOnUse">
<stop stop-color="#564E82"/>
<stop offset="1" stop-color="#59396E"/>
</linearGradient>
<linearGradient id="paint14_linear_334_7315" x1="42.7338" y1="13.4805" x2="42.7338" y2="-0.836985" gradientUnits="userSpaceOnUse">
<stop stop-color="#564E82"/>
<stop offset="1" stop-color="#59396E"/>
</linearGradient>
<linearGradient id="paint15_linear_334_7315" x1="48.9465" y1="48.463" x2="48.9465" y2="44.7086" gradientUnits="userSpaceOnUse">
<stop stop-color="#564E82"/>
<stop offset="1" stop-color="#59396E"/>
</linearGradient>
<linearGradient id="paint16_linear_334_7315" x1="30.2604" y1="57.3384" x2="30.2604" y2="45.9821" gradientUnits="userSpaceOnUse">
<stop stop-color="#564E82"/>
<stop offset="1" stop-color="#59396E"/>
</linearGradient>
<linearGradient id="paint17_linear_334_7315" x1="49.274" y1="49.584" x2="49.274" y2="42.4141" gradientUnits="userSpaceOnUse">
<stop stop-color="#564E82"/>
<stop offset="1" stop-color="#59396E"/>
</linearGradient>
<linearGradient id="paint18_linear_334_7315" x1="28.1941" y1="44.0491" x2="28.1941" y2="32.266" gradientUnits="userSpaceOnUse">
<stop stop-color="#564E82"/>
<stop offset="1" stop-color="#59396E"/>
</linearGradient>
</defs>
</svg>
