<svg width="94" height="115" viewBox="0 0 94 115" fill="none" xmlns="http://www.w3.org/2000/svg">
<path d="M79.5428 93.4604L79.7889 94.0449C81.5697 98.0174 84.2819 100.21 87.04 99.909C89.0892 99.7176 90.7173 98.1639 91.1877 95.95C91.4874 94.5882 91.3317 93.4225 90.7255 92.4859C89.5246 90.7008 87.5489 90.5426 85.9887 90.2354C86.8359 90.0829 89.5583 89.208 91.7405 90.7565C92.8425 91.5279 93.5418 92.7762 93.8188 94.4669C94.3179 97.6004 91.6978 101.514 88.2115 102.842C87.5414 103.093 86.6255 103.33 85.5567 103.33C84.964 103.33 84.3241 103.257 83.6535 103.073C81.4921 102.479 79.4667 100.879 77.6335 98.3176L77.6332 98.3173C77.444 98.0471 77.2481 97.7676 77.0537 97.4344L76.932 97.2213L79.5428 93.4604Z" fill="#2A2C37"/>
<path d="M93.1769 94.5535C93.9917 99.4972 85.1783 108.446 77.747 97.249L79.4248 94.8285C83.4546 103.122 90.6868 101.516 91.8845 96.0663C92.4153 93.5458 91.5668 91.7063 89.7118 90.5928C90.7487 90.8114 92.6271 91.437 93.1769 94.5535Z" fill="#969AB2"/>
<path d="M63.2795 64.4917L60.749 63.2539L10.498 75.0535C10.498 75.0535 12.4783 82.8924 13.0008 84.4875C13.5234 86.1104 12.4508 91.7212 12.4508 91.7212L11.8733 109.847L15.1188 111.69L19.9046 112.542L26.2581 111.58L28.981 113.147C28.981 113.147 33.2168 114.303 33.3268 114.303C33.4369 114.303 38.0577 114.303 38.0577 114.303L42.981 112.377L42.9535 108.004C42.9535 108.004 45.0163 112.542 45.0163 112.817C45.0438 113.065 46.034 113.697 46.034 113.697C46.034 113.697 51.1223 114 51.3149 114.028C51.5073 114.028 63.0319 113.368 63.0319 113.368L67.2402 112.185L72.5486 110.177C72.5486 110.177 75.2166 108.197 75.409 108.197C75.6291 108.197 79.3146 104.291 79.3146 104.291C79.3146 104.291 80.6899 101.706 80.6899 101.623C80.6899 101.541 82.1201 95.6547 82.1201 95.6547L82.3125 91.144L81.6524 86.3308C81.6524 86.3308 80.1396 82.0127 80.0847 81.9026C80.0021 81.7925 77.7468 77.2543 77.7468 77.2543L73.9513 72.4686C73.9513 72.4686 68.3128 67.7654 68.2305 67.6554C68.1753 67.5997 63.2795 64.4917 63.2795 64.4917Z" fill="#BCBECD"/>
<path d="M59.897 69.0844C59.897 69.0844 57.6692 67.2966 56.1015 65.4264L60.7772 63.4736L63.3077 64.7114C63.3077 64.7114 68.2035 67.792 68.2861 67.902C68.3687 67.9846 74.007 72.7153 74.007 72.7153L77.8025 77.501C77.8025 77.501 80.0855 82.0392 80.1404 82.1493C80.223 82.2593 81.7081 86.5774 81.7081 86.5774L82.3682 91.3906L82.1758 95.9014C82.1758 95.9014 80.7455 101.787 80.7455 101.87C80.7455 101.952 79.3702 104.538 79.3702 104.538C79.3702 104.538 75.6845 108.443 75.4646 108.443C75.2445 108.443 72.6042 110.424 72.6042 110.424L67.2959 112.432L63.0876 113.614C63.0876 113.614 56.2115 113.999 52.9935 114.192C53.1584 114.164 53.3511 114.137 53.5435 114.082C68.9185 111.414 80.3879 101.732 77.4726 88.2272C74.5021 74.6955 59.897 69.0844 59.897 69.0844Z" fill="#969AB2"/>
<path d="M56.3491 84.2959C56.3491 84.2959 53.5987 90.2918 54.8914 92.7399C56.1841 95.1878 58.7695 94.8577 58.7695 94.8577L52.856 96.5904C52.856 96.5904 52.0859 95.6827 51.8383 94.1424C51.5908 92.6022 51.8383 90.4293 51.8383 90.4293C51.8383 90.4293 52.581 88.5866 52.5535 88.449C52.5261 88.3115 53.7362 86.8813 53.7362 86.8813C53.7362 86.8539 54.7814 85.6161 54.7814 85.6161C54.7814 85.6161 56.129 84.3511 56.3491 84.2959Z" fill="#969AB2"/>
<path d="M21.4174 99.918C21.4174 99.918 23.3702 107.427 21.5275 112.322H24.5254L26.3682 111.662V103.603L21.4174 99.918Z" fill="#969AB2"/>
<path d="M15.6684 90.7311C15.6684 90.7311 19.1615 87.1829 22.7646 90.4561C26.3677 93.729 26.8354 96.4245 26.8354 99.9175C26.8354 103.438 26.918 103.851 26.918 103.851C26.918 103.851 17.1538 98.24 15.6684 90.7311Z" fill="#EDEEF2"/>
<path d="M43.5586 98.7896C44.3837 98.7896 46.0065 101.348 46.9416 105.776C47.9042 110.341 47.3542 113.394 46.5566 113.559C46.2264 113.614 45.594 113.202 44.8513 111.799C44.1361 110.451 43.5312 108.608 43.091 106.573C42.6784 104.538 42.5135 102.585 42.6233 101.072C42.7333 99.4768 43.1459 98.8442 43.476 98.7891C43.5035 98.7896 43.5309 98.7896 43.5586 98.7896Z" fill="#969AB2"/>
<path d="M9.79608 74.6929L10.5303 74.5706L10.535 74.6093C10.5408 74.6545 11.3007 79.3639 13.355 85.1107H13.3682V85.1474C13.5634 85.6919 13.7693 86.2452 13.9879 86.8054C16.1967 92.4592 20.0993 99.7869 26.2601 103.102C26.3757 98.6549 26.4678 94.2086 26.4678 94.1419L26.5427 94.1377C26.5479 94.1881 27.0912 99.2274 26.9552 103.852C26.8663 107.585 26.7593 110.668 26.6817 111.727C27.0862 112.012 29.0357 113.303 31.9693 113.94C35.5741 114.722 39.1176 114.207 42.5029 112.41V107.004H42.5128C42.4919 106.909 42.4692 106.816 42.449 106.719C42.0165 104.665 41.8405 102.649 41.9533 101.043C42.0936 99.2736 42.5663 98.2908 43.3583 98.1209C43.3935 98.1139 43.4287 98.1136 43.4639 98.1104L43.4629 98.0969L43.4993 98.0927C45.4299 97.8826 48.9856 97.1249 52.1917 96.3865C51.1428 93.8442 51.1134 91.3978 52.1083 89.1091C53.431 86.0667 56.118 84.3862 56.3241 84.2664C56.3254 84.2654 56.3264 84.2649 56.3266 84.2647V84.2649C56.3324 84.2617 56.3356 84.2597 56.3363 84.2597L56.5742 84.1803L56.3698 84.3258C56.3531 84.3378 54.6686 85.5504 53.4223 87.6517C52.3032 89.5381 51.3255 92.5383 52.8964 96.2232C55.7704 95.5534 58.2302 94.9343 58.7628 94.7995L59.0815 94.7197L58.8137 94.8626C58.7895 94.8759 56.3556 96.1656 53.4689 96.8464C51.6444 97.2806 47.482 98.2434 44.674 98.6771C45.8789 99.8665 47.0144 102.731 47.6108 105.631C48.2789 108.794 48.379 112.248 47.4883 113.631C56.7893 114.341 68.9395 113.764 76.0716 107.454C79.8132 104.125 81.8077 99.4977 82.0001 93.701C82.341 83.4015 76.8176 75.9499 72.1239 71.5125C66.9393 66.611 61.6347 64.2147 61.5883 64.1975L61.5501 64.183L61.8591 63.5342L61.9219 63.5649C62.8942 64.0226 67.9924 66.5466 72.9127 71.2857C75.8962 74.1596 78.2418 77.298 79.8844 80.6142C81.9245 84.7329 82.8835 89.146 82.7351 93.7309C82.5427 99.7233 80.4656 104.516 76.5615 107.977C73.8713 110.363 70.2869 112.129 65.9084 113.225C62.298 114.13 58.1192 114.588 53.4876 114.588C51.2863 114.588 48.9819 114.48 46.4434 114.258L46.4062 114.255V114.254C45.6882 114.211 44.969 113.495 44.2682 112.12C43.8999 111.439 43.5518 110.603 43.2386 109.664V112.841L43.0539 112.933C40.5553 114.305 37.9212 115 35.2248 115C30.5114 115 27.0552 112.887 26.1082 112.24C26.0902 112.228 26.0792 112.22 26.07 112.214L26.0096 112.166C24.0089 112.767 22.0491 113.075 20.1797 113.075C15.5901 113.075 12.7132 111.254 11.6892 110.471C11.661 110.449 11.6423 110.435 11.6301 110.426L11.4756 110.303L11.5063 110.118C11.7067 108.144 12.6336 85.2906 12.6338 85.1479L12.634 85.1104H12.648C10.5869 79.3856 9.80656 74.772 9.80132 74.7281L9.79608 74.6929ZM13.3004 86.8461C13.088 92.0594 12.4404 107.635 12.2694 109.995C12.6785 110.306 14.1167 111.3 16.4688 111.894C19.417 112.64 22.6164 112.484 25.9791 111.436C26.0588 110.155 26.1538 107.108 26.2387 103.921C23.4846 102.467 20.9351 100.133 18.6529 96.9737C16.7098 94.2839 14.9549 90.9933 13.4369 87.1935C13.3905 87.0772 13.3458 86.9622 13.3004 86.8461ZM43.2386 107.004V107.051C43.6795 108.945 44.2443 110.576 44.8844 111.782C45.6091 113.152 46.2345 113.573 46.5489 113.524C46.6657 113.499 46.7778 113.406 46.8821 113.247C47.482 112.33 47.6827 109.472 46.9048 105.785C45.9595 101.307 44.3271 98.8304 43.5595 98.8281L43.5243 98.8319L43.5241 98.8279L43.4819 98.8276C43.1709 98.8793 42.7694 99.4989 42.6606 101.076C42.5505 102.589 42.7162 104.539 43.1273 106.566C43.1595 106.715 43.1941 106.859 43.2278 107.004L43.2386 107.004Z" fill="#2A2C37"/>
<path d="M31.8163 78.4206C31.8133 78.4204 31.81 78.4201 31.8071 78.4201C31.8041 78.4199 31.8008 78.4199 31.7978 78.4196V78.4199C22.8422 78.1985 12.2283 74.8619 2.85861 67.8271C4.39064 70.2234 5.57629 71.6192 7.82855 73.3231C8.44047 73.6952 9.25777 74.4679 9.25777 74.4679C13.506 77.6363 17.6464 79.4555 22.7259 80.7218C22.7304 80.7268 22.7374 80.7248 22.7429 80.7255C25.3957 81.4962 28.6397 81.8064 31.6321 81.9007C34.6188 82.1068 37.8775 82.1235 40.5942 81.6229C40.5997 81.6227 40.6067 81.6254 40.6115 81.6209C45.7923 80.8705 50.0944 79.4755 54.6388 76.7493C54.6388 76.7493 55.5295 76.0625 56.1756 75.7536C58.5873 74.2842 59.907 73.0142 61.6716 70.7837C51.6439 76.8434 40.749 79.0984 31.8163 78.4206Z" fill="#969AB2"/>
<path d="M11.7023 0.749023C11.7941 0.758008 11.8859 0.766741 11.9783 0.782214C11.8829 0.766491 11.7914 0.756011 11.7023 0.749023Z" fill="#BCBECD"/>
<path d="M55.6631 75.8347C55.6603 75.8344 55.1088 76.2954 55.1088 76.2954C50.5646 79.0205 45.8068 80.871 40.6125 81.6217C40.6075 81.6262 40.6008 81.6234 40.5953 81.6237C37.8783 82.1243 34.6199 82.1078 31.6332 81.9017C28.6407 81.8073 25.397 81.4971 22.7439 80.7265C22.7384 80.7258 22.7314 80.7278 22.7269 80.7228C17.634 79.4548 13.0858 77.1366 8.8378 73.9695C8.8378 73.9695 8.33544 73.4557 8.3327 73.4557C-1.66908 66.367 -1.91439 56.2157 4.37346 49.283C5.75552 47.2401 7.04997 46.8832 7.88799 44.6961C9.6309 41.0516 10.3539 25.0891 14.1936 22.7752C-1.856 22.4805 3.82544 -0.0193905 11.703 0.749747C6.47499 0.353199 12.092 15.409 19.4819 18.1347C24.3995 17.0304 28.7286 15.8964 34.9326 16.0768V16.0761C34.9358 16.0763 34.9388 16.0766 34.9418 16.0768C34.945 16.0768 34.948 16.0768 34.951 16.0771V16.0778C41.1421 16.5206 45.3354 18.083 50.1174 19.6747C57.7434 17.7037 64.8421 3.287 59.6006 3.15748C67.5156 3.18244 70.912 26.1385 54.9136 24.8223C58.502 27.5098 57.6206 43.4641 58.9892 47.2651C59.6036 49.5253 60.8556 50.0102 62.026 52.1814C67.5874 59.709 66.3252 69.7849 55.6631 75.8347ZM22.6703 80.7056C22.6244 80.6873 22.5789 80.6756 22.5348 80.6644C22.5912 80.6811 22.6363 80.6951 22.6703 80.7056ZM40.8094 81.583C40.7642 81.5897 40.7181 81.5967 40.6704 81.6104C40.7053 81.6032 40.7515 81.5942 40.8094 81.583Z" fill="#BCBECD"/>
<path d="M59.3233 3.1614C59.4169 3.15541 59.509 3.15591 59.6013 3.15616C59.512 3.15416 59.4199 3.15541 59.3233 3.1614Z" fill="#BCBECD"/>
<path d="M47.7058 56.8841C47.2082 56.3326 46.6719 55.7926 46.1391 55.3114C46.1146 55.2845 46.1146 55.2844 46.1146 55.2844C42.078 51.575 38.2231 49.6237 33.2786 49.361V49.3604C33.2754 49.3602 33.2724 49.3605 33.2694 49.3602C33.2661 49.36 33.2632 49.3597 33.2602 49.3594V49.3599C28.3142 49.1256 24.2831 50.6806 19.8946 53.9665C19.8946 53.9665 19.8946 53.9665 19.8676 53.991C19.2892 54.4162 18.7015 54.8996 18.1509 55.3985L19.0089 55.4417C19.7521 54.7449 21.9108 53.156 26.2294 52.8655C25.7308 53.9528 25.3454 54.7838 24.9466 55.7402C25.0729 55.7486 32.4983 56.106 32.9292 56.1272C33.3602 56.1494 40.7841 56.5385 40.9104 56.5427C40.6094 55.5512 40.3094 54.686 39.9223 53.554C44.19 54.276 46.1785 56.0736 46.8481 56.8412L47.7058 56.8841Z" fill="#969AB2"/>
<path d="M20.8259 57.0766C17.6558 52.7964 12.4181 56.2838 15.5094 60.5579C13.9696 55.4967 17.8642 54.5049 20.8259 57.0766Z" fill="#2A2C37"/>
<path d="M17.2852 59.0004C18.8193 60.3832 20.0094 59.0459 18.415 57.6895C16.8719 56.3309 15.6938 57.6339 17.2852 59.0004Z" fill="#2A2C37"/>
<path d="M18.6443 57.9387C18.0965 57.2255 17.0059 56.4941 16.1245 57.0581C17.0648 56.8734 17.8834 57.4935 18.6443 57.9387Z" fill="#2A2C37"/>
<path d="M19.8673 53.9891C21.1335 53.1798 23.6318 52.2844 26.7967 52.1846L26.8142 52.8439C22.4627 52.9345 19.5611 54.6804 18.6884 55.7787L18.1503 55.3971C18.1518 55.3579 18.7378 54.6475 19.8673 53.9891Z" fill="#2A2C37"/>
<path d="M7.50096 63.1699C13.8846 63.4604 14.268 55.8414 7.88728 55.4895C1.50384 55.1991 1.12027 62.8181 7.50096 63.1699Z" fill="#DDA8BE"/>
<path d="M25.3849 55.0518L25.4783 55.7151C21.7708 56.3407 22.5208 61.7808 24.203 62.9455C21.3344 61.7524 21.2959 55.6979 25.3849 55.0518Z" fill="#2A2C37"/>
<path d="M25.8165 31.2137C29.1833 32.0482 24.6052 35.2787 21.2848 34.5086C18.0138 33.6975 22.2186 30.5441 25.8165 31.2137Z" fill="#ACB0C6"/>
<path d="M24.0472 34.9288C26.1844 34.4113 27.6426 33.0946 27.3616 31.9419C27.2196 31.3512 26.6608 30.9147 25.8071 30.7076C25.0133 30.5234 24.0385 30.5576 23.054 30.7942C22.0695 31.0307 21.1893 31.4587 20.5766 31.9766C19.8836 32.5595 19.5979 33.1904 19.7399 33.7811C19.9727 34.7502 21.4491 35.5053 24.0472 34.9288ZM25.6641 31.3252C26.2531 31.4712 26.6534 31.75 26.7425 32.0866C26.9209 32.7602 25.7862 33.845 23.9027 34.3099C22.1094 34.7654 20.5522 34.3671 20.359 33.6369C20.2984 33.2975 20.5147 32.8455 20.9956 32.4552C21.5569 31.9998 22.3283 31.6394 23.2272 31.4111C24.5616 31.0996 25.4203 31.2796 25.6641 31.3252Z" fill="#2A2C37"/>
<path d="M40.4997 61.1801C38.6076 61.0838 34.6499 60.8739 32.7053 60.7741C32.7023 60.7738 32.6988 60.7738 32.6961 60.7736C32.6931 60.7733 32.6896 60.7733 32.6868 60.7731C30.742 60.6775 26.783 60.4893 24.8909 60.3955C24.8857 60.3948 25.5113 65.9492 32.4118 66.2441C32.4151 66.2444 32.4181 66.2444 32.4211 66.2446C32.4243 66.2446 32.427 66.2451 32.4303 66.2454C39.3253 66.6439 40.505 61.1796 40.4997 61.1801Z" fill="#969AB2"/>
<path d="M50.4472 19.4627C50.2919 19.5294 50.0401 19.5848 49.8602 19.6244C47.0964 18.6322 43.0176 16.9624 34.9584 15.942V15.9405C34.9551 15.9405 34.9521 15.9407 34.9491 15.9407C34.9459 15.9402 34.9429 15.94 34.9399 15.9395V15.941C26.8188 16.1481 22.5933 17.4004 19.7438 18.1104C19.5689 18.0527 19.3238 17.9726 19.1761 17.8908C18.4928 18.3534 17.7633 18.7615 17.082 19.2239C17.1167 19.2199 17.1514 19.2132 17.1861 19.2092C17.1861 19.2092 17.1859 19.2119 17.1889 19.2094C17.2972 19.1934 17.4052 19.18 17.5093 19.1652C23.7567 18.3262 29.0755 18.057 34.8331 18.2529C40.5814 18.6354 45.8461 19.4365 51.978 20.8979C52.08 20.9229 52.1863 20.9471 52.2924 20.974C52.2951 20.977 52.2951 20.9743 52.2951 20.9743C52.3291 20.9818 52.363 20.992 52.3972 20.9995C51.7653 20.4709 51.0806 19.9918 50.4472 19.4627Z" fill="#DFE1EA"/>
<path d="M33.8196 38.5966L33.8206 38.5764C33.8156 38.5617 33.8131 38.5559 33.8131 38.5559C33.8129 38.5567 33.8124 38.5579 33.8124 38.5587C33.8121 38.5579 33.8119 38.5567 33.8119 38.5557C33.8119 38.5557 33.8086 38.5612 33.8024 38.5754L33.8014 38.5956C33.3173 40.1738 24.9903 53.857 24.7287 58.5378L24.7315 58.538C24.7914 59.1884 24.9995 59.8212 25.2738 60.4147L25.2765 60.4149C26.4 62.7782 28.7781 64.3118 31.496 64.6874C31.4987 64.6904 31.5045 64.6906 31.5075 64.6878C31.8212 64.7338 32.1511 64.7637 32.485 64.7797C32.4882 64.7799 32.4912 64.78 32.4942 64.7802C32.4975 64.7804 32.5005 64.7807 32.5035 64.7809V64.7807C32.8371 64.7984 33.1685 64.8014 33.4852 64.7874C33.488 64.7904 33.4937 64.7907 33.4967 64.7879C36.2386 64.6869 38.7586 63.3994 40.1135 61.1606L40.1162 61.1609C40.4486 60.5978 40.7189 59.9892 40.8439 59.3481L40.8467 59.3483C41.0558 54.6649 34.1431 40.2152 33.8196 38.5966Z" fill="white"/>
<path d="M49.8162 62.2821C53.3202 58.3393 48.4588 54.3444 44.8754 58.2852C48.0803 56.0232 51.8558 57.4007 49.8162 62.2821Z" fill="#2A2C37"/>
<path d="M47.2142 59.1377C45.492 60.3274 46.5418 61.7773 48.2069 60.5552C49.9273 59.3553 48.8857 57.9406 47.2142 59.1377Z" fill="#2A2C37"/>
<path d="M49.5613 58.7744C48.759 58.1028 47.5843 58.6895 46.9499 59.3269C47.7615 58.9823 48.6524 58.4719 49.5613 58.7744Z" fill="#2A2C37"/>
<path d="M47.7068 56.8819L47.1333 57.2076C46.3749 56.0272 43.6632 53.9993 39.3426 53.4727L39.4262 52.8184C42.5649 53.2349 44.9609 54.3766 46.1396 55.3087C47.1969 56.0771 47.7088 56.8432 47.7068 56.8819Z" fill="#2A2C37"/>
<path d="M57.9086 58.0022C51.5247 57.7122 51.1421 65.3315 57.5228 65.6826C63.9065 65.9726 64.2891 58.3533 57.9086 58.0022Z" fill="#DDA8BE"/>
<path d="M40.9272 63.7851C42.7177 62.7949 44.0092 57.4576 40.3834 56.4631L40.5426 55.8125C44.5462 56.8661 43.9009 62.8862 40.9272 63.7851Z" fill="#2A2C37"/>
<path d="M40.8427 59.3491C38.5351 61.0811 35.7962 61.6593 32.657 61.521C29.5198 61.3438 26.8528 60.4938 24.7303 58.5393L24.7275 58.5391C24.7981 59.1894 24.9946 59.8223 25.2726 60.416L25.2753 60.4162C26.3998 62.7825 28.7756 64.3183 31.4948 64.6887C31.4975 64.6917 31.5033 64.6919 31.5063 64.6892C31.82 64.7351 32.1499 64.765 32.4838 64.781V64.7812C32.487 64.7815 32.49 64.7812 32.493 64.7815C32.4963 64.7817 32.4993 64.782 32.5023 64.7822C32.8359 64.8 33.1673 64.8027 33.484 64.7887C33.4868 64.7917 33.4925 64.792 33.4955 64.7892C36.2384 64.6934 38.7559 63.4037 40.1123 61.1619L40.115 61.1622C40.4512 60.5994 40.7102 59.9895 40.8455 59.3494L40.8427 59.3491Z" fill="#E9ECFF"/>
<path d="M32.4869 65.109V65.11C32.4836 65.1098 32.4806 65.1093 32.4776 65.109C32.4744 65.109 32.4714 65.1093 32.4684 65.109V65.108C26.1069 64.538 22.8287 59.87 25.2437 55.0773C27.2349 50.4203 33.1939 39.0484 33.8497 37.7779C33.8502 37.7769 33.8509 37.7725 33.8509 37.7725C33.8512 37.773 33.8514 37.7737 33.8517 37.7742C33.8519 37.7737 33.8524 37.7727 33.8524 37.7727C33.8529 37.773 33.8529 37.7772 33.8532 37.7782C34.3783 39.1081 39.167 51.0202 40.6811 55.8534C42.6034 60.864 38.8735 65.1799 32.4869 65.109ZM40.2299 56.5078C38.9609 52.3836 34.9071 42.0903 33.7968 39.3644C33.7905 39.3754 33.7843 39.3883 33.7778 39.4003C33.7771 39.421 33.7766 39.4362 33.7773 39.438C33.7746 39.4308 33.7718 39.4245 33.7691 39.4173C33.7656 39.424 33.7621 39.4303 33.7588 39.437C33.7596 39.4355 33.7608 39.4203 33.7621 39.3996C33.7571 39.3868 33.7521 39.3736 33.7469 39.3619C32.3688 41.9628 27.3033 51.7976 25.627 55.7738C23.7661 60.0837 26.9003 63.963 32.5106 64.4517C38.1418 64.528 41.6494 60.9823 40.2299 56.5078Z" fill="#2A2C37"/>
<path d="M43.1764 32.0084C46.6211 32.1379 49.8791 35.3579 46.7097 35.8124C44.0399 36.1545 40.7707 33.9434 41.2249 32.7346C41.4542 32.1239 42.5126 31.9622 43.1764 32.0084Z" fill="#ACB0C6"/>
<path d="M46.6192 36.2888C47.4894 36.1683 48.0891 35.79 48.2895 35.2165C48.4899 34.643 48.2688 33.9867 47.6379 33.3371C47.0801 32.7603 46.2473 32.2462 45.2915 31.9121C42.8451 31.0569 41.218 31.685 40.8906 32.6221C40.4953 33.7409 41.8139 35.197 43.8885 35.9265C44.9107 36.2636 45.9975 36.3917 46.6192 36.2888ZM45.0575 32.508C45.9289 32.8255 46.6604 33.2612 47.1729 33.7708C47.6124 34.2075 47.7824 34.6787 47.6878 35.0104C47.5653 35.3365 47.139 35.5736 46.5383 35.6597C45.8198 35.7518 44.9656 35.642 44.0942 35.3245C42.2669 34.673 41.2467 33.4798 41.4918 32.8277C41.7538 32.1302 43.2736 31.8976 45.0575 32.508Z" fill="#2A2C37"/>
<path d="M19.4001 18.2984C19.1908 18.378 18.9345 18.4926 18.7406 18.6016L18.3932 18.7723C16.0304 19.4444 8.1673 17.1694 8.055 7.9857C8.21572 4.07563 9.07495 1.18151 12.313 0.467773C11.3891 3.64664 9.87553 13.5668 19.1164 18.1569L19.4001 18.2984Z" fill="#969AB2"/>
<path d="M8.61611 3.72374C8.60138 3.75443 7.99995 6.16366 7.98248 6.22854C7.97774 6.16441 8.18262 10.1598 8.18562 10.2407C8.1669 10.1698 8.82149 12.8121 8.83772 12.8822C8.79779 12.8326 11.374 16.2351 11.4259 16.3054C11.3585 16.2675 13.8441 17.7579 13.9087 17.7983C13.8448 17.7753 17.865 18.9083 17.866 18.9083C13.9027 21.8007 8.55646 21.5065 8.55646 21.5065C8.55646 21.5065 -0.829403 16.7541 1.84586 8.37824C4.52112 0.00233144 10.7476 0.594029 10.7476 0.594029C10.7476 0.594029 8.69098 3.53906 8.61611 3.72374Z" fill="#DDA8BE"/>
<path d="M50.4786 19.7342C60.1332 16.0939 59.6221 6.07189 59.0217 2.81641C62.1718 3.85132 62.7366 6.81707 62.5042 10.7234C61.4716 19.8497 53.4201 21.3246 51.1366 20.419L50.8082 20.2143C50.6263 20.0866 50.3827 19.9468 50.1823 19.8465L50.4786 19.7342Z" fill="#969AB2"/>
<path d="M60.5672 3.09863C60.5672 3.09863 66.8216 3.13432 68.6434 11.7363C70.4652 20.3383 60.6501 24.1254 60.6501 24.1254C60.6501 24.1254 55.3013 23.8818 51.648 20.6066C51.649 20.6069 55.7627 19.8826 55.6966 19.8991C55.7647 19.8652 58.3876 18.6316 58.3165 18.6628C58.3751 18.5979 61.2797 15.471 61.235 15.5166C61.2582 15.4485 62.1746 12.8853 62.1487 12.9539C62.1599 12.8736 62.7643 8.91906 62.7531 8.9822C62.7421 8.91607 62.3852 6.45842 62.3738 6.42648C62.3181 6.23506 60.5672 3.09863 60.5672 3.09863Z" fill="#DDA8BE"/>
<path d="M60.9744 50.1197C65.1069 55.7654 66.3497 61.1372 64.6709 66.0879C62.1546 73.5095 53.5371 78.4178 46.3114 80.5363C41.4331 82.0711 36.4247 82.7222 31.4266 82.4708C28.4256 82.3201 25.4317 81.846 22.5276 81.0618C14.9475 79.0147 10.1812 75.4136 9.66262 75.0098L9.62594 74.9814C5.66221 72.204 0.805069 67.5897 0.0878448 61.3406C-0.441971 56.7267 1.42098 52.0166 5.62503 47.3404C7.93669 45.1108 8.62621 40.5235 9.35617 35.6666C10.1076 30.6672 10.8847 25.4993 13.5899 23.0537C8.27783 22.7781 4.30662 20.3996 2.3985 16.347C0.500114 12.3149 0.99324 7.25541 3.62557 3.75711C5.83266 0.824054 9.11909 -0.457427 12.8777 0.145754L12.9386 0.155488L12.9156 0.212881C11.5915 3.52227 11.7547 7.97189 13.3306 11.5486C14.2759 13.6933 16.1773 16.5414 19.869 17.9385C20.0053 17.8833 25.4367 15.4586 34.3856 15.8499C36.7673 15.954 44.1505 16.4933 49.7513 19.4408C53.5643 18.4211 55.742 15.7783 56.8974 13.7389C58.8243 10.3382 59.4327 5.9275 58.4474 2.50182L58.4304 2.44244L58.4921 2.43893C62.2906 2.21408 65.4335 3.81999 67.3354 6.95993C69.6036 10.7045 69.5869 15.788 67.2935 19.6095C64.9891 23.45 60.7987 25.4182 55.4862 25.1599C57.9323 27.8646 58.1871 33.0844 58.4334 38.1339C58.674 43.0387 58.9001 47.6723 60.9744 50.1197ZM6.25941 47.7659C2.1724 52.2494 0.36335 56.7841 0.884682 61.242C1.62662 67.5855 6.82066 72.355 11.0477 75.2392C12.9685 76.5162 17.0405 78.8879 22.7265 80.4197C29.9369 82.3623 41.163 83.3151 53.6956 76.8256C57.8687 74.4014 63.1029 70.2518 64.3372 64.2529C65.2284 59.9206 63.8706 55.2868 60.3014 50.4803C58.1562 47.8956 57.9226 43.178 57.6753 38.1833C57.4267 33.1665 57.1709 28.0039 54.8291 25.1013C54.4318 24.6089 53.4932 23.7442 53.4932 23.7442C53.7824 23.864 54.0589 24.0017 54.3332 24.1759L54.3806 24.1934C57.1457 25.2101 61.0074 24.3496 63.9898 22.0519C68.293 18.9464 68.8635 14.106 67.9633 10.6112C66.9521 6.68591 64.1099 3.7626 60.8541 3.27097C62.5397 4.59063 63.2996 7.30656 62.9422 10.7684C62.621 14.3194 60.9767 17.1698 58.1871 19.0116C55.9301 20.5014 53.478 20.9698 52.2791 21.0198C52.4456 21.153 52.5753 21.2656 52.6657 21.3549C50.3887 20.3799 46.1624 17.0985 34.3641 16.5826C23.8567 16.1232 17.8691 19.2095 16.7805 19.5511C16.8791 19.4715 17.0196 19.3724 17.1985 19.2564C16.0106 19.0864 13.6179 18.3745 11.5216 16.6657C8.93067 14.5537 7.58057 11.5525 7.61725 7.98685C7.60902 4.50727 8.63744 1.88093 10.4467 0.737205C7.15806 0.899917 4.03709 3.52351 2.63708 7.32727C1.39079 10.714 1.47314 15.5874 5.44186 19.1079C8.17975 21.6938 11.9353 22.9376 14.789 22.2032L14.8375 22.1907C15.1249 22.0464 15.4214 21.9339 15.7169 21.845C15.7169 21.845 14.652 22.6451 14.1923 23.122C11.6187 25.7918 10.8525 30.8628 10.1078 35.7918C9.36016 40.7366 8.65466 45.4073 6.25941 47.7659ZM18.8678 18.3615C14.8799 16.3952 12.4317 13.2091 11.5905 8.89051C10.8321 4.99616 11.69 1.61789 11.8774 0.955065C9.60273 1.5278 8.48072 3.7601 8.34945 7.96964C8.30453 11.6863 9.85629 14.5931 12.9613 16.6091C15.3451 18.1566 17.8429 18.61 18.1888 18.6672C18.4174 18.5624 18.6435 18.4603 18.8678 18.3615ZM59.4072 3.34458C59.5273 4.02288 60.0421 7.47002 58.8969 11.2688C57.6271 15.4813 54.8715 18.4056 50.7064 19.9621C50.9195 20.0829 51.1341 20.2072 51.3512 20.3345C51.7011 20.3125 54.2319 20.1119 56.7589 18.8109C60.0506 17.1167 61.8858 14.3798 62.214 10.6766C62.5052 6.47579 61.6133 4.14192 59.4072 3.34458Z" fill="#2A2C37"/>
<path d="M49.5155 47.3989C47.2463 46.3447 44.6029 46.6819 42.1927 46.782C44.2149 43.9532 47.8564 43.0029 50.7927 45.0855C48.93 44.7431 46.8894 44.6405 45.2373 45.608C45.7599 45.6619 46.2535 45.742 46.7719 45.8788C47.7826 46.1229 48.8938 46.5656 49.5155 47.3989Z" fill="#2A2C37"/>
<path d="M20.1846 44.5421C20.7141 44.4583 21.2132 44.4281 21.7386 44.4268C20.1918 43.2986 18.1512 43.196 16.2635 43.35C19.394 41.5721 22.922 42.8831 24.6501 45.9002C22.2621 45.5591 19.666 44.9586 17.3024 45.7797C18.0044 45.0133 19.1546 44.6839 20.1846 44.5421Z" fill="#2A2C37"/>
<path d="M39.7051 66.5632C38.5371 67.8514 35.4289 68.4072 32.3132 68.3475C29.2072 68.0945 26.1703 67.2297 25.1374 65.831C23.5769 63.6853 21.7971 69.7054 25.7725 73.463C25.9213 73.5857 26.0667 73.7085 26.2155 73.8316C27.5134 74.9024 29.3514 75.7269 31.8672 76.0544C31.8867 76.0554 31.9059 76.0556 31.9254 76.0546C31.9446 76.0576 31.964 76.0594 31.9833 76.0604C34.5193 75.9867 36.4306 75.3509 37.8294 74.4155C37.9899 74.3082 38.1468 74.2007 38.3073 74.0933C42.6399 70.753 41.4729 64.5847 39.7051 66.5632Z" fill="#2A2C37"/>
<path d="M26.2309 73.5337C27.5293 74.6043 29.3671 75.4264 31.8821 75.7548C34.4331 75.8554 36.4201 75.3009 37.8523 74.4591C37.4378 74.1274 36.8982 73.7426 36.1857 73.3972C33.9485 72.3126 32.4217 73.5894 32.4042 73.7034C32.4317 73.7411 32.4866 73.8162 32.514 73.8539L33.0643 74.807C33.0643 74.807 31.3818 73.2093 30.9246 72.9375C28.6459 71.5832 26.2558 73.5337 26.2309 73.5337Z" fill="#E65244"/>
<path d="M31.8941 73.556L32.3036 73.9203C32.4643 73.7456 32.7655 73.5263 32.9862 73.3943C34.509 72.4 36.7115 73.4459 37.8525 74.4586C38.0357 74.3541 38.1862 74.2442 38.3367 74.1347C36.6626 72.2712 32.9457 71.9546 31.8941 73.556Z" fill="#2A2C37"/>
<path d="M25.7893 73.0873C25.9366 73.2103 26.084 73.3336 26.2313 73.4566C28.8886 71.6071 31.346 72.7266 33.0547 74.795C31.9427 71.687 28.4516 71.2053 25.7893 73.0873Z" fill="#2A2C37"/>
<path d="M27.3209 73.8041C27.3501 74.0419 27.9683 74.139 28.7147 74.0564C29.4611 73.9735 30.065 73.7352 30.0358 73.4971C30.0067 73.2593 29.3885 73.1622 28.6421 73.2448C27.8906 73.3606 27.2865 73.5987 27.3209 73.8041Z" fill="#F26A64"/>
<path d="M38.4502 74.2848C36.6896 75.7485 32.8536 77.1597 28.7115 75.5783C27.1567 74.9846 26.1216 74.1575 25.6125 73.6394C23.056 71.236 22.8379 67.9673 23.3198 66.3793C23.5676 65.6499 23.9359 65.2069 24.3859 65.1108C24.6247 65.0834 25.014 65.1458 25.4291 65.6776C25.8491 66.25 26.6718 66.7586 27.7891 67.1637C31.7351 68.5939 35.5496 67.968 36.9002 67.6316C38.0691 67.3404 38.9511 66.9139 39.4307 66.3813C39.8972 65.8937 40.2907 65.8707 40.5253 65.9219C40.9633 66.0626 41.2854 66.5403 41.4589 67.2909C41.7796 68.9193 41.2348 72.1498 38.4502 74.2848ZM40.9403 67.4497C40.8065 66.8298 40.5934 66.5453 40.4262 66.5238C40.2278 66.4677 40.0065 66.6775 39.9171 66.8148C39.3581 67.4394 38.3711 67.9241 37.0689 68.2445C32.4284 69.3743 28.4936 68.086 27.5925 67.7678C26.3292 67.3186 25.3956 66.7374 24.902 66.0599C24.8269 65.9144 24.6275 65.6833 24.4246 65.7192C24.2561 65.724 24.0156 65.9855 23.8204 66.5889C23.3907 68.0543 23.5911 71.0221 25.9711 73.2619C26.0909 73.3916 27.1173 74.3582 28.9054 75.0382C33.8386 76.9134 37.6976 74.2568 38.131 73.873C40.7239 71.8836 41.2208 68.951 40.9403 67.4497Z" fill="#2A2C37"/>
</svg>
