<svg width="57" height="68" viewBox="0 0 57 68" fill="none" xmlns="http://www.w3.org/2000/svg">
<path opacity="0.3" d="M26.8227 67.9999C41.3376 67.9999 53.1043 65.9168 53.1043 63.3471C53.1043 60.7774 41.3376 58.6943 26.8227 58.6943C12.3077 58.6943 0.541016 60.7774 0.541016 63.3471C0.541016 65.9168 12.3077 67.9999 26.8227 67.9999Z" fill="#000066"/>
<path d="M56.4579 23.4114C56.4667 26.9448 55.1926 33.8229 46.9153 39.1079C46.6068 39.307 46.2879 39.5026 45.9601 39.6947C44.5415 40.5265 43.0401 41.1927 41.4822 41.672C41.1368 41.7795 40.7896 41.8765 40.4407 41.9645C40.3279 41.9927 40.2169 42.0192 40.1023 42.0456C39.9966 42.0703 39.8873 42.095 39.7798 42.1161C39.6459 42.1461 39.5137 42.1743 39.3798 42.1989C39.2723 42.2201 39.1648 42.2395 39.0573 42.2589H39.0503C38.948 42.2765 38.8476 42.2941 38.7454 42.31C38.5057 42.3487 38.2661 42.3822 38.0264 42.4122C37.9224 42.4245 37.8202 42.4351 37.718 42.4456C37.6404 42.4545 37.5629 42.4633 37.4854 42.4686C37.3444 42.4827 37.2034 42.4932 37.0624 42.5038C36.9831 42.5091 36.9056 42.5144 36.828 42.5179C36.7893 42.5214 36.7505 42.5232 36.7117 42.5249C36.6324 42.5302 36.5514 42.532 36.4738 42.5355C36.2659 42.5443 36.0562 42.5496 35.8482 42.5513C34.4137 42.5601 32.9775 42.4156 31.9342 41.9469L31.9113 41.9222C31.2628 42.5584 30.3341 43.3162 29.312 43.6862C29.312 43.6862 28.2758 42.2482 28.0396 39.9714C28.0396 39.9714 27.6731 41.7019 25.3081 42.6835C25.3081 42.6835 24.6596 40.9072 24.1838 39.4744V39.4691C24.0869 39.1819 23.9988 38.9105 23.9248 38.6673C23.7327 38.0452 23.4666 37.5183 23.1564 37.002C22.27 35.5375 21.0259 34.1612 20.1095 30.9698L11.6242 17.7581C10.9933 16.7783 11.7229 15.4936 12.8877 15.5306L20.4443 15.7773C20.4443 15.7773 20.4443 15.7755 20.4461 15.772C20.4461 15.7685 20.4478 15.765 20.4478 15.7579C20.4708 15.5835 20.6664 14.1807 21.1069 12.4325C21.1069 12.4255 21.1087 12.4202 21.1104 12.4131C21.6215 10.3989 22.4533 7.93168 23.7239 6.36152C23.7239 6.36152 25.4192 7.7449 25.465 9.12827C25.465 9.12827 29.1815 5.06802 32.188 3.50488C32.188 3.50488 33.5414 5.32884 33.8304 8.07974C33.8657 8.07267 34.4402 7.97049 35.3777 7.94051C35.6068 7.93168 35.8571 7.92993 36.1267 7.93348C36.2588 7.93523 36.3981 7.94051 36.539 7.94406C36.858 7.95639 37.1999 7.97931 37.5593 8.01457C37.7144 8.03042 37.873 8.04806 38.0369 8.06919C38.1251 8.07977 38.2167 8.09211 38.3083 8.10617C38.4881 8.13085 38.6714 8.15904 38.8599 8.19254C38.8705 8.19429 38.8793 8.19605 38.8899 8.19781C38.978 8.21366 39.0661 8.23131 39.1542 8.24716C39.4626 8.30706 39.7763 8.37581 40.0988 8.45862C40.1798 8.47978 40.2644 8.50095 40.3472 8.52559C40.4089 8.53968 40.4706 8.55729 40.5323 8.57669C40.6098 8.59606 40.6856 8.61898 40.7613 8.6419C41.112 8.74587 41.468 8.8657 41.8275 9.00138C41.891 9.0243 41.9562 9.05073 42.0214 9.07541C42.2787 9.17587 42.536 9.28512 42.7932 9.40143C42.8796 9.4402 42.9677 9.47897 43.0541 9.52125C43.1263 9.55475 43.2003 9.59177 43.2726 9.62699C43.4752 9.72393 43.6779 9.82967 43.8788 9.94067C43.9828 9.99705 44.0885 10.057 44.1942 10.1169C44.3035 10.1804 44.4128 10.2438 44.522 10.3125C44.6154 10.3671 44.707 10.4253 44.7969 10.4835C44.9238 10.5645 45.0507 10.6474 45.1776 10.7337C47.3575 12.2087 49.4898 14.438 51.1992 17.7845C51.1992 17.7845 56.0296 18.8119 56.3873 22.0686C56.4262 22.4299 56.4562 22.8845 56.4579 23.4114Z" fill="url(#paint0_linear_507_700)"/>
<path d="M45.1784 10.7308V10.7324C41.3984 8.17008 37.4776 7.873 35.3779 7.93952C35.3779 7.93952 35.723 5.7981 39.4364 1.13147C40.1575 0.224769 41.5779 0.387219 42.0683 1.4363C42.9534 3.32552 44.199 6.45413 45.1784 10.7308Z" fill="url(#paint1_linear_507_700)"/>
<path d="M46.8992 61.8118V61.8102C46.8977 61.8025 46.8977 61.7932 46.8946 61.7855C46.893 61.7777 46.8915 61.77 46.89 61.7607C46.8853 61.7282 46.8791 61.6957 46.8729 61.6632C46.8605 61.5983 46.8435 61.5348 46.8219 61.4698C46.811 61.4373 46.8002 61.4064 46.7878 61.3739C46.7848 61.3584 46.7786 61.3445 46.7724 61.329C46.3546 60.2846 45.7094 59.2077 44.7315 58.6259C44.7315 58.6259 44.3013 58.0952 44.1683 57.3324C44.1513 57.2364 44.1389 57.1065 44.1296 56.9533C44.1203 56.8047 44.1157 56.6345 44.1126 56.452C44.1126 56.421 44.111 56.3885 44.111 56.3576C44.1079 56.0806 44.1095 55.7805 44.1141 55.4849C44.1157 55.4416 44.1157 55.3983 44.1172 55.3565C44.1172 55.2884 44.1188 55.2204 44.1203 55.1538C44.1219 55.1213 44.1219 55.0904 44.1234 55.0579C44.125 54.965 44.1265 54.8737 44.1312 54.7871C44.1327 54.6896 44.1358 54.5968 44.1389 54.5101C44.1405 54.4823 44.1405 54.456 44.142 54.4281V54.4219C44.1436 54.3848 44.1451 54.3476 44.1467 54.3121C44.1467 54.2734 44.1482 54.2378 44.1498 54.2038C44.1513 54.1806 44.1513 54.1589 44.1529 54.1372C44.1529 54.114 44.1529 54.0908 44.1544 54.0707C44.156 54.0321 44.1575 53.9965 44.1591 53.964C44.1591 53.9299 44.1606 53.9005 44.1622 53.8742L44.1684 53.752C44.1684 53.752 42.8423 50.6683 42.7758 47.2194C42.7758 47.2194 42.0795 48.3798 41.4157 48.9106C41.4157 48.9106 40.6854 44.049 41.4823 41.6724C41.4823 41.6724 41.4807 41.6724 41.4776 41.6739C39.6596 42.2341 37.7657 42.5389 35.8486 42.5512C34.4143 42.5605 32.9784 42.4151 31.9355 41.9462L31.9123 41.923C31.2625 42.5589 30.3341 43.3171 29.3129 43.6869C29.3129 43.6869 28.2762 42.2479 28.041 39.9719C28.041 39.9719 27.6743 41.7018 25.3085 42.6827C25.3085 42.6827 24.6602 40.908 24.1836 39.4736C24.1836 39.4736 20.0632 42.8436 18.041 44.6338C18.041 44.6338 18.5253 45.245 19.3577 45.7308L19.3345 45.7695C19.3345 45.7695 15.9088 51.2067 15.8531 57.713V57.73C15.8531 57.73 10.614 56.438 9.95172 52.1273C9.28795 47.8166 13.9298 44.7004 13.9298 44.7004C13.9282 44.7004 13.9282 44.7004 13.9267 44.7004C13.7626 44.6602 7.28262 43.1144 3.87396 49.5929C3.87085 49.596 3.86933 49.5975 3.86933 49.5975C3.74866 49.8281 3.63106 50.0695 3.5181 50.3201C3.5181 50.3201 3.02141 47.7346 1.72788 47.0136C1.72788 47.0136 -2.84745 57.8956 5.97208 62.3394C5.97208 62.3394 4.48824 62.7695 3.94978 63.5323C3.94978 63.5323 11.1849 68.7466 17.637 62.7958C17.6757 62.8577 18.9445 64.7206 28.9693 64.9651C29.6749 64.9821 30.4253 64.9914 31.2206 64.9914H38.8936C39.2742 64.9914 39.6332 64.8583 39.9117 64.6278L37.4376 60.0354C35.7015 59.6687 34.3569 60.3031 33.7009 60.7209C33.6669 60.7441 33.6344 60.7658 33.6034 60.7859C33.3806 60.936 33.2599 61.0458 33.2599 61.0458L33.2429 61.0273C34.7144 59.7631 36.3746 57.7439 37.4376 54.6138V60.0354C37.4376 60.0354 41.1975 60.577 40.3496 64.0522L40.3743 64.063H44.9311C46.1689 64.0631 47.0539 62.966 46.8992 61.8118Z" fill="url(#paint2_radial_507_700)"/>
<path d="M48.8209 61.8081H46.91L46.8992 61.8097C46.8976 61.802 46.8976 61.7927 46.8946 61.7849C46.8899 61.7447 46.8822 61.7029 46.8729 61.6627C46.8605 61.5978 46.8435 61.5343 46.8218 61.4693C46.8125 61.4383 46.8017 61.4059 46.7878 61.3734C46.7847 61.3579 46.7785 61.344 46.7723 61.3285C46.3546 60.2841 45.7093 59.2072 44.7315 58.6254C44.7315 58.6254 44.3013 58.0947 44.1683 57.3318C44.1513 57.2359 44.1388 57.106 44.1296 56.9528C44.1203 56.8042 44.1157 56.634 44.1126 56.4514C44.1126 56.4205 44.111 56.388 44.111 56.3571C44.1079 56.0801 44.1094 55.7799 44.1141 55.4844C44.1157 55.4411 44.1157 55.3978 44.1172 55.356C44.1172 55.2879 44.1187 55.2198 44.1203 55.1533C44.1218 55.1208 44.1218 55.0898 44.1234 55.0573C44.125 54.9645 44.1265 54.8732 44.1311 54.7866C44.1327 54.6891 44.1358 54.5963 44.1389 54.5096C44.1404 54.4817 44.1404 54.4554 44.142 54.4276V54.4214C44.1435 54.3843 44.1451 54.3471 44.1466 54.3115C44.1466 54.2729 44.1482 54.2373 44.1497 54.2032C44.1513 54.1801 44.1513 54.1584 44.1528 54.1367C44.1528 54.1135 44.1528 54.0903 44.1544 54.0702C44.156 54.0315 44.1575 53.9959 44.159 53.9635C44.159 53.9294 44.1606 53.9 44.1621 53.8737L44.1683 53.7515C45.3613 53.1372 46.0746 51.5791 46.0746 51.5791C46.1411 52.4255 46.9178 53.0212 46.9178 53.0212C47.0293 52.8726 47.1344 52.7256 47.2335 52.5786V55.1951C47.2335 55.486 47.3201 55.7691 47.4826 56.0121C47.6745 56.2968 47.9638 56.6805 48.3104 56.9884C48.411 57.0781 48.5178 57.1601 48.6276 57.2328C49.1862 57.5996 49.819 58.7646 50.0418 60.0891C50.0604 60.1913 50.0743 60.2965 50.0867 60.4001C50.1748 61.1521 49.5775 61.8081 48.8209 61.8081Z" fill="#86869B"/>
<path d="M48.4955 44.7786C48.5419 44.8962 49.9437 48.571 47.2329 52.58C47.1339 52.727 47.0287 52.874 46.9173 53.0225C46.9173 53.0225 46.1405 52.4268 46.074 51.5805C46.074 51.5805 45.3607 53.1386 44.1677 53.7528C44.1677 53.7528 42.8417 50.6691 42.7752 47.2202C42.7752 47.2202 42.0789 48.3807 41.4151 48.9114C41.4151 48.9114 40.6848 44.0498 41.4816 41.6732C43.0397 41.1936 44.5422 40.5267 45.9595 39.6958C46.2875 39.5039 46.6062 39.3075 46.9157 39.1094L46.9173 39.1109C46.9173 39.1109 47.1339 39.2765 47.4557 39.6215C48.2386 40.4602 49.6451 42.3587 50.0691 45.4966C50.0691 45.4966 49.4053 45.8694 48.4955 44.7786Z" fill="white"/>
<path d="M46.9159 39.1086C46.6064 39.3067 46.2877 39.5032 45.9597 39.6951C44.5423 40.526 43.0399 41.1929 41.4818 41.6725C39.6622 42.2341 37.7668 42.539 35.8481 42.5513C34.4138 42.5606 32.978 42.4152 31.9351 41.9463L31.9118 41.9231C31.262 42.559 30.3336 43.3172 29.3124 43.687C29.3124 43.687 28.2757 42.248 28.0405 39.972C28.0405 39.972 27.6738 41.7019 25.308 42.6828C25.308 42.6828 24.6597 40.9065 24.1832 39.4722V39.4691C24.0872 39.1813 23.9991 38.9105 23.9248 38.6676C23.7329 38.0456 23.4668 37.518 23.1558 37.0028L23.1743 36.879C23.1743 36.879 24.6721 31.1726 30.6399 31.5702C30.6399 31.5702 21.4228 20.928 29.3805 16.4022C29.3805 16.4022 34.2559 13.6682 40.5209 18.1924C40.4481 18.0517 35.5959 10.1961 43.0538 9.52148C43.7578 9.85261 44.4711 10.2533 45.1782 10.733C47.3583 12.2091 49.4905 14.4387 51.1987 17.7855C51.1987 17.7855 53.1591 18.2017 54.6739 19.3467C55.5372 19.9981 56.2567 20.8862 56.3867 22.0683C56.6931 24.8582 56.4255 33.0356 46.9159 39.1086Z" fill="white"/>
<path d="M44.931 64.0631H40.3742L40.3495 64.0523C41.1974 60.5771 37.4375 60.0356 37.4375 60.0356V58.4697C37.8181 58.575 38.2529 58.6523 38.7187 58.7065C41.2779 59.0066 44.7314 58.626 44.7314 58.626C46.0141 59.3718 46.5696 60.6731 46.7831 61.3585C46.7847 61.3647 46.7862 61.3694 46.7877 61.374C46.8434 61.555 46.8744 61.6912 46.8898 61.7608C46.8914 61.7701 46.8929 61.7778 46.8945 61.7856C46.8976 61.8026 46.8991 61.8103 46.8991 61.8103V61.8119C47.0538 62.9661 46.1688 64.0631 44.931 64.0631Z" fill="white"/>
<path d="M48.8207 61.8085H46.9098L46.899 61.8101C46.8773 61.6491 46.8355 61.4882 46.7721 61.3288C46.3544 60.2844 45.7091 59.2075 44.7313 58.6257C44.7313 58.6257 44.3011 58.095 44.1681 57.3322C44.1511 57.2363 44.1387 57.1063 44.1294 56.9531C45.6365 57.1032 47.5272 57.0289 48.3102 56.9887C48.4107 57.0785 48.5175 57.1605 48.6274 57.2332C49.2293 57.6277 49.9178 58.9506 50.0864 60.4004C50.1746 61.1524 49.5774 61.8085 48.8207 61.8085Z" fill="white"/>
<path d="M40.3495 64.0514C40.105 64.6162 39.531 64.9906 38.8935 64.9906H31.2205C30.4252 64.9906 29.6748 64.9813 28.9692 64.9643C30.4159 63.1679 33.2428 61.0265 33.2428 61.0265L33.6033 60.7851L33.7008 60.7201C34.3569 60.3023 35.7015 59.6679 37.4375 60.0347C41.3908 60.6489 40.3495 64.0514 40.3495 64.0514Z" fill="white"/>
<path d="M14.2343 18.5491L17.9622 24.0395C18.3574 24.6216 19.2683 24.3334 19.2545 23.6299C19.2233 22.0428 19.2801 19.9957 19.6565 18.3995C19.7601 17.9603 19.4347 17.5379 18.9835 17.5287L14.8339 17.4445C14.2597 17.4329 13.9117 18.074 14.2343 18.5491Z" fill="white"/>
<path d="M34.4714 21.0363C34.8474 21.1286 34.8633 21.6581 34.4934 21.7724C33.611 22.0451 32.4509 22.5301 31.603 23.3456C30.1639 24.7299 29.7139 19.8688 34.4714 21.0363Z" fill="#86869B"/>
<path d="M43.003 16.2863C43.0879 16.5866 43.5148 16.5844 43.5965 16.2833C43.7913 15.5649 44.1491 14.6168 44.7821 13.9109C45.8564 12.7128 41.9284 12.4875 43.003 16.2863Z" fill="#86869B"/>
<path opacity="0.3" d="M40.5837 1.60593C40.7649 1.19848 41.076 0.910864 41.4365 0.748885C40.8035 0.386698 39.9463 0.491314 39.4369 1.13183C35.7234 5.79842 35.3784 7.93987 35.3784 7.93987C36.1549 7.91527 37.1808 7.94082 38.3562 8.11182C38.6158 6.79172 39.2142 4.68171 40.5837 1.60593Z" fill="#000066"/>
<path opacity="0.3" d="M56.387 22.0683C56.257 20.8862 55.5375 19.9981 54.6741 19.3467C55.3386 25.0357 53.6575 29.2521 50.9722 32.3681C47.2778 36.6551 41.6691 38.7512 36.0362 38.2054C32.6445 37.8768 29.0138 36.7735 26.5291 33.9576C20.5612 27.1945 20.4452 15.7771 20.4452 15.7771L12.8882 15.5311C11.7231 15.4939 10.9944 16.7782 11.6241 17.7576L20.1094 30.9698C21.0254 34.1619 22.271 35.5374 23.156 37.0027C23.467 37.5179 23.7332 38.0455 23.925 38.6675C23.9993 38.9105 24.0875 39.1812 24.1834 39.469V39.4721C24.66 40.9064 25.3083 42.6827 25.3083 42.6827C27.6741 41.7018 28.0408 39.9719 28.0408 39.9719C28.276 42.2479 29.3127 43.6869 29.3127 43.6869C30.3339 43.3171 31.2623 42.5589 31.9121 41.923L31.9353 41.9463C32.9782 42.4151 34.4141 42.5605 35.8484 42.5512C36.0739 42.5498 36.2991 42.5435 36.5239 42.534C36.5972 42.531 36.6703 42.5257 36.7436 42.5218C36.8958 42.5136 37.0478 42.5047 37.1996 42.4929C37.2838 42.4863 37.3678 42.4782 37.452 42.4706C37.5946 42.4576 37.7369 42.4436 37.8791 42.4275C37.9627 42.418 38.0461 42.4077 38.1296 42.3971C38.2762 42.3786 38.4225 42.3582 38.5686 42.3364C38.6437 42.3251 38.7188 42.3139 38.7937 42.3018C38.9601 42.2748 39.126 42.2453 39.2916 42.2141C39.3438 42.2043 39.3962 42.1952 39.4483 42.185C39.8923 42.0978 40.3334 41.9968 40.7702 41.8798L40.7734 41.8767C41.0107 41.8128 41.247 41.745 41.482 41.6724C43.0401 41.1928 44.5425 40.5259 45.9599 39.695C46.2879 39.5032 46.6066 39.3067 46.9161 39.1086C56.4256 33.0355 56.6933 24.8581 56.387 22.0683Z" fill="#000066"/>
<path opacity="0.3" d="M35.3782 7.94034C34.4891 7.96968 33.9279 8.06283 33.8416 8.07774C33.6256 6.19828 32.9922 4.29003 32.1877 3.50586C32.1877 3.50586 31.3051 10.0676 29.438 12.8541C29.1603 13.2684 29.4912 13.8192 29.9879 13.774C31.0852 13.6741 32.5538 13.3835 33.4703 12.5729C33.6313 12.5838 35.3441 11.5471 35.3797 7.94037L35.3782 7.94034Z" fill="#000066"/>
<path opacity="0.3" d="M46.9177 53.0225C46.9177 53.0225 46.141 52.4268 46.0745 51.5805C46.0745 51.5805 45.3612 53.1386 44.1682 53.7528C44.1682 53.7528 42.8422 50.6691 42.7757 47.2202C42.7757 47.2202 42.0794 48.3807 41.4156 48.9114C41.4156 48.9114 40.6853 44.0498 41.4821 41.6732C43.0402 41.1936 44.5427 40.5267 45.96 39.6958C46.288 39.5039 46.6067 39.3075 46.9162 39.1094L46.9177 39.1109C46.9177 39.1109 47.1344 39.2765 47.4562 39.6215C46.7754 40.2315 45.602 41.2377 44.68 41.7898C44.1476 42.1086 43.733 42.5996 43.5364 43.1883C43.4177 43.5439 43.3377 43.9611 43.373 44.4027C43.4083 44.8525 43.5536 45.0191 43.7258 45.0474C44.0955 45.1082 44.383 45.3945 44.3758 45.7691C44.3571 46.7493 44.4114 48.2556 44.8029 49.6419C44.9434 50.1393 45.58 50.3069 45.9398 49.9358C46.0965 49.774 46.227 49.5971 46.2741 49.4251C46.4226 48.8789 48.0426 50.5701 46.9177 53.0225Z" fill="#000066"/>
<path opacity="0.3" d="M30.1099 62.9365C30.1099 62.9365 35.0993 57.0704 35.4652 52.6828C35.558 51.5703 37.1362 51.4438 37.4003 52.5284C37.5245 53.0387 37.5572 53.7161 37.4376 54.6143C37.4376 54.6143 36.1111 59.9856 30.1099 62.9365Z" fill="#000066"/>
<path opacity="0.3" d="M40.6645 63.6893L40.5544 63.2629C40.5108 63.0941 40.3341 62.9983 40.1689 63.0539C40.0815 63.0833 39.9734 63.117 39.843 63.1535C39.6072 63.2193 39.3657 63.0914 39.2728 62.8649C39.046 62.3117 38.6566 62.3246 38.6434 62.3751C38.6308 62.4236 38.7512 62.5596 38.7512 62.5596C38.8681 62.8323 38.9161 63.1099 38.9272 63.3648C37.1853 63.6992 33.7635 64.0359 27.6557 63.5671C17.6857 62.8003 16.7088 54.4318 24.0752 45.0368C24.1389 44.9555 24.2408 44.9114 24.3434 44.9231C24.7449 44.9689 25.8239 45.0026 26.6704 44.2154C26.7911 44.1031 26.9845 44.1139 27.093 44.238C27.6112 44.8305 29.1383 46.1025 31.6141 44.262C31.6642 44.2248 31.725 44.203 31.7874 44.2021C32.4243 44.1933 36.1505 44.0871 39.3275 42.8145C39.662 42.6805 39.5221 42.1751 39.1676 42.2396C38.076 42.4383 36.9662 42.5447 35.8485 42.552C34.4142 42.5613 32.9784 42.4158 31.9355 41.947L31.9123 41.9238C31.3132 42.5099 30.4776 43.1999 29.5507 43.5939C29.4125 43.6527 29.2527 43.6024 29.175 43.4738C28.9404 43.0857 28.4624 42.1871 28.1919 40.9255C28.1359 40.6642 27.7919 40.607 27.6477 40.832C27.3087 41.3609 26.6952 42.0339 25.609 42.55C25.4496 42.6257 25.2586 42.5466 25.1986 42.3806C25.019 41.8837 24.6498 40.8535 24.3213 39.8844C24.2541 39.6864 24.0108 39.6159 23.8492 39.7486C22.8721 40.5509 19.9825 42.9321 18.2677 44.4348C18.1391 44.5475 18.1309 44.744 18.2503 44.8662C18.4675 45.0886 18.8471 45.4336 19.3576 45.7316L19.3344 45.7703C19.3344 45.7703 15.9071 51.2094 15.8531 57.7176C15.8534 57.7265 15.8537 57.7342 15.854 57.7431C15.8669 57.907 16.0205 59.6591 16.7149 60.4168C17.3858 61.149 13.4207 63.2871 10.2263 63.2077C9.94221 63.2006 9.8305 62.8345 10.0595 62.6663L10.6044 62.2659C10.7928 62.1274 10.7581 61.8366 10.5417 61.7478C8.84463 61.051 3.42284 58.4666 3.12555 53.7835C3.10676 53.4873 3.48679 53.3482 3.6652 53.5853L3.84526 53.8247C4.00666 54.0392 4.34597 53.9501 4.38156 53.684C4.63852 51.7628 5.8849 46.7698 11.9223 45.1015C12.259 45.0084 12.185 44.5066 11.8357 44.5141C9.60179 44.5616 6.08623 45.383 3.86946 49.5988C3.74463 49.8362 3.39668 49.8034 3.31826 49.5469C3.10226 48.8404 2.70049 47.8224 2.06156 47.2542C1.90631 47.1161 1.65834 47.1854 1.58766 47.3808C0.906285 49.2645 -1.74527 57.926 5.3945 62.0292C5.60756 62.1516 5.58849 62.467 5.36205 62.5625C4.99622 62.7167 4.53901 62.9485 4.20633 63.2491C4.05774 63.3833 4.074 63.6205 4.24362 63.7269C5.64298 64.6048 11.797 67.9546 17.4249 62.988C17.5362 62.8897 17.7009 62.8846 17.8149 62.9797C18.3991 63.4671 20.7187 64.7646 28.9693 64.9659C29.6749 64.9829 30.4253 64.9921 31.2206 64.9921H38.8936C39.531 64.9921 40.1051 64.6177 40.3495 64.053L40.3743 64.0638C40.5703 64.0638 40.7135 63.8789 40.6645 63.6893Z" fill="#000066"/>
<path opacity="0.3" d="M46.8992 61.8122V61.8107C46.8992 61.8107 46.5533 61.9628 45.9507 62.1133C45.8011 62.1506 45.6444 62.0803 45.5713 61.9446C45.3319 61.5003 44.8963 61.3988 44.8963 61.3988C45.0561 61.6592 45.1175 61.9735 45.1283 62.2802C44.5441 62.3729 43.8385 62.4317 43.0469 62.3944C42.5889 62.3728 42.1873 62.0923 41.9803 61.6831C41.6593 61.0486 40.9606 60.0966 39.5239 59.5657C39.1478 59.4267 38.8514 59.1303 38.7315 58.7477L38.7187 58.7068L37.4375 54.6143V60.0359C37.4375 60.0359 41.1974 60.5775 40.3495 64.0527L40.3742 64.0635H44.931C46.1688 64.0636 47.0539 62.9665 46.8992 61.8122Z" fill="#000066"/>
<path opacity="0.3" d="M48.8215 61.8086H46.9106L46.8997 61.8102C46.8781 61.6493 46.8363 61.4884 46.7729 61.329C46.3551 60.2846 45.7099 59.2077 44.732 58.6259C44.732 58.6259 44.3019 58.0952 44.1688 57.3323C44.1518 57.2364 44.1394 57.1065 44.1301 56.9533C44.076 56.0512 44.1425 54.3445 44.1626 53.8742L44.1688 53.752C44.2961 55.5874 45.0114 56.9327 45.3354 57.4566C45.4229 57.5983 45.5467 57.7126 45.6956 57.7872C46.5986 58.2396 47.29 59.2479 47.6198 59.8044C47.7722 60.0617 48.0387 60.234 48.3372 60.2512C48.9797 60.2884 49.6044 60.189 50.0423 60.0896C50.0608 60.1918 50.0748 60.297 50.0871 60.4006C50.1754 61.1526 49.5781 61.8086 48.8215 61.8086Z" fill="#000066"/>
<path opacity="0.3" d="M47.2336 52.5797V53.7695C46.8603 53.7524 46.5737 53.7048 46.3652 53.6545C46.1102 53.5929 45.8423 53.6766 45.6711 53.8753C45.0869 54.5537 44.1645 54.7797 44.1313 54.7876C44.1298 54.7876 44.1297 54.7876 44.1297 54.7876C43.4822 54.3917 42.5213 52.377 42.0748 51.379C41.9736 51.1527 41.6683 51.1073 41.5098 51.298C41.4774 51.337 41.4441 51.3752 41.4102 51.4125C41.0065 51.857 40.2653 51.6192 40.1813 51.0246C39.0394 42.9439 41.3596 41.7305 41.4777 41.6744C41.4808 41.6729 41.4823 41.6729 41.4823 41.6729C40.6854 44.0495 41.4158 48.911 41.4158 48.911C42.0795 48.3803 42.7758 47.2199 42.7758 47.2199C42.8423 50.6687 44.1684 53.7525 44.1684 53.7525C45.3613 53.1382 46.0746 51.5801 46.0746 51.5801C46.1412 52.4265 46.9179 53.0222 46.9179 53.0222C47.0294 52.8737 47.1346 52.7267 47.2336 52.5797Z" fill="#000066"/>
<path opacity="0.7" d="M42.0679 1.4363C41.5774 0.387219 40.157 0.224769 39.436 1.13147C39.4176 1.15459 39.4006 1.17666 39.3823 1.19965C40.0582 1.04673 40.8094 1.34906 41.1395 2.05518C41.9254 3.73284 42.9953 6.3901 43.911 9.95854C44.3333 10.1906 44.7565 10.4466 45.1779 10.7323V10.7308C44.1985 6.45413 42.953 3.32552 42.0679 1.4363Z" fill="#FFF18D"/>
<path opacity="0.7" d="M25.4641 9.12785C24.3331 8.24589 23.8596 8.64046 23.8596 8.64046C22.5382 10.0578 20.5097 15.6001 20.4463 15.7719C20.4463 15.7688 20.4478 15.7641 20.4478 15.758C20.4834 15.5831 20.7573 14.189 21.107 12.4313C21.107 12.4251 21.1085 12.4189 21.1101 12.4128C21.6207 10.3982 22.4531 7.93183 23.7234 6.36133C23.7234 6.36133 25.4193 7.7446 25.4641 9.12785Z" fill="#FFF18D"/>
<path opacity="0.7" d="M15.8541 57.7419C15.8541 57.7419 12.371 59.5204 9.45325 55.0775C7.10598 51.5031 9.01038 48.2312 10.2765 46.6653C10.5805 46.2893 10.2495 45.7389 9.77484 45.831C6.30704 46.5037 3.98586 49.4472 3.87354 49.5925C7.28219 43.114 13.7622 44.6597 13.9262 44.7C13.9278 44.7 13.9278 44.7 13.9293 44.7C13.9293 44.7 9.28749 47.8162 9.95129 52.1269C10.6135 56.4376 15.8526 57.7296 15.8526 57.7296V57.7126L15.8541 57.7419Z" fill="#FFF18D"/>
<path opacity="0.7" d="M56.4581 23.4113C55.0386 19.9609 51.8102 19.2601 50.6509 19.1187C50.3905 19.0869 50.1656 18.9199 50.0654 18.6773C45.9358 8.68197 33.8306 8.07962 33.8306 8.07962C33.8658 8.07255 34.4403 7.97037 35.3778 7.94039C35.607 7.93157 35.8572 7.92981 36.1268 7.93336C36.259 7.93512 36.3982 7.94039 36.5392 7.94394C36.8581 7.95628 37.2 7.97919 37.5595 8.01445C37.7146 8.0303 37.8732 8.04795 38.0371 8.06907C38.1252 8.07965 38.2168 8.09199 38.3085 8.10605C38.4882 8.13073 38.6715 8.15892 38.8601 8.19242C38.8706 8.19417 38.8795 8.19593 38.89 8.19769C38.9781 8.21354 39.0662 8.23119 39.1543 8.24704C39.4627 8.30694 39.7764 8.37569 40.0989 8.4585C40.18 8.47966 40.2646 8.50083 40.3474 8.52547C40.4091 8.53956 40.4707 8.55717 40.5324 8.57658C40.6099 8.59594 40.6857 8.61886 40.7615 8.64178C41.1122 8.74575 41.4681 8.86558 41.8277 9.00126C41.8911 9.02418 41.9563 9.05061 42.0215 9.07529C42.2788 9.17575 42.5361 9.285 42.7934 9.40131C42.8797 9.44008 42.9678 9.47885 43.0542 9.52114C43.1264 9.55463 43.2005 9.59165 43.2727 9.62687C43.4754 9.72381 43.678 9.82955 43.8789 9.94055C43.9829 9.99693 44.0886 10.0569 44.1944 10.1168C44.3036 10.1802 44.4129 10.2437 44.5222 10.3124C44.6155 10.367 44.7072 10.4252 44.7971 10.4833C44.924 10.5644 45.0508 10.6472 45.1777 10.7336C47.3576 12.2086 49.49 14.4379 51.1994 17.7844C51.1994 17.7844 56.0297 18.8118 56.3874 22.0684C56.4263 22.4297 56.4563 22.8844 56.4581 23.4113Z" fill="#FFF18D"/>
<path d="M35.7194 43.0943C34.0256 43.0943 32.6782 42.875 31.7129 42.4419L32.1562 41.4536C33.004 41.8338 34.2436 42.0198 35.845 42.0108C39.216 41.9881 42.6191 41.0261 45.6866 39.2285C50.0769 36.6558 53.1122 33.37 54.7082 29.4624C56.0916 26.0755 55.9664 23.2051 55.8484 22.1282C55.5387 19.3017 51.131 18.3248 51.0865 18.3152C50.9273 18.281 50.7913 18.1769 50.7172 18.0318C48.2959 13.2875 44.7435 10.2605 40.1587 9.03468C36.7218 8.11567 33.956 8.60803 33.9284 8.61313L33.7301 7.54841C33.8507 7.52562 36.7259 7.00754 40.3898 7.97539C43.7301 8.85806 48.362 11.1972 51.567 17.3171C52.6293 17.5924 56.576 18.8252 56.9251 22.0103C57.0521 23.1693 57.1881 26.2553 55.7109 29.8719C54.0228 34.0047 50.8344 37.4672 46.2342 40.163C43.003 42.0564 39.4131 43.0698 35.8523 43.0937C35.8078 43.0941 35.7634 43.0943 35.7194 43.0943Z" fill="#000066"/>
<path d="M32.9965 40.9806C32.811 41.338 32.5901 41.6602 32.3433 41.9688C32.0969 42.2765 31.8226 42.5617 31.5357 42.8387C31.2485 43.1161 30.9352 43.3713 30.5997 43.6049C30.2627 43.8379 29.8938 44.0376 29.498 44.1971L29.4975 44.1972C29.2701 44.2898 29.015 44.2081 28.8805 44.0145L28.8739 44.0047C28.8081 43.9102 28.7647 43.8411 28.7163 43.761C28.6682 43.6832 28.6253 43.6058 28.5812 43.5278C28.496 43.3717 28.4146 43.2147 28.3406 43.0549C28.1918 42.7359 28.0587 42.4109 27.9487 42.0782C27.8395 41.7455 27.7411 41.4088 27.6703 41.0657C27.5929 40.724 27.5439 40.3767 27.5028 40.0288L28.5712 40.0862C28.5606 40.1333 28.5542 40.1528 28.5462 40.1822C28.5385 40.2112 28.5305 40.2332 28.5225 40.2588C28.5069 40.3095 28.4893 40.3557 28.4716 40.4023C28.4365 40.496 28.3973 40.584 28.3558 40.6715C28.2717 40.8445 28.1793 41.0113 28.0736 41.1673C27.8658 41.4826 27.6201 41.7659 27.3526 42.0224C27.0796 42.2717 26.7886 42.499 26.4782 42.6891C26.3262 42.7907 26.1629 42.8679 26.0054 42.9576C25.844 43.0376 25.6793 43.109 25.516 43.1843C25.2542 43.3051 24.9439 43.1909 24.8231 42.929C24.817 42.9159 24.8115 42.9026 24.8066 42.8892L24.7996 42.8698C24.4319 41.8556 24.0729 40.8434 23.7285 39.8183L23.4757 39.0446L23.4144 38.8492L23.3534 38.6731C23.3113 38.5577 23.2776 38.4396 23.2248 38.3276C23.0395 37.8712 22.7925 37.4338 22.5122 36.9946C21.9473 36.1185 21.2974 35.2085 20.7994 34.2125C20.2896 33.223 19.8911 32.1797 19.5895 31.1205L19.6544 31.2638L12.5192 20.1541L11.6273 18.7653L11.1814 18.071C10.9872 17.7743 10.8542 17.3876 10.8518 17.0089C10.8386 16.2439 11.2918 15.5132 11.9844 15.1847C12.155 15.101 12.3403 15.0456 12.5267 15.0172C12.7064 14.9859 12.924 14.9914 13.0391 14.9956L13.8639 15.0224L20.4622 15.2366L19.9076 15.7083C20.0282 14.8465 20.1883 14.0205 20.3732 13.1853C20.5616 12.3541 20.7708 11.5265 21.0315 10.7097C21.0909 10.5043 21.1643 10.302 21.2329 10.0987C21.3028 9.89559 21.3689 9.69163 21.4501 9.49132L21.6844 8.88825L21.9472 8.29314C22.3164 7.5062 22.7424 6.73304 23.3032 6.02229C23.4863 5.79027 23.8229 5.75059 24.0549 5.93366C24.0581 5.93617 24.0635 5.94069 24.0667 5.94323C24.198 6.05281 24.3 6.14776 24.4105 6.25411C24.5185 6.35828 24.6236 6.46459 24.725 6.57549C24.928 6.79683 25.1233 7.02736 25.2991 7.28161C25.4738 7.53648 25.6395 7.80372 25.7669 8.10767C25.893 8.41124 25.9882 8.74608 26.0058 9.11182L25.0651 8.76356C25.5782 8.21117 26.0961 7.69065 26.6299 7.1726C27.164 6.65787 27.7064 6.15111 28.2699 5.6644C28.8345 5.17883 29.4077 4.70114 30.0148 4.25675C30.6224 3.81317 31.2516 3.3902 31.9366 3.0271L31.9376 3.0266C32.1641 2.89649 32.448 2.95744 32.6028 3.15903L32.622 3.18411C32.7611 3.36472 32.8682 3.5177 32.9737 3.68948C33.0821 3.85582 33.1738 4.02926 33.2691 4.20125C33.4508 4.54903 33.6127 4.90615 33.7499 5.2727C34.0283 6.0039 34.2138 6.77141 34.2986 7.54875L34.3344 7.83942C34.3411 7.93694 34.3462 8.03462 34.3496 8.13231C34.3541 8.32785 34.3689 8.52228 34.3642 8.71725C34.3494 9.10749 34.3323 9.49615 34.2643 9.87936C34.1607 10.6485 33.9113 11.3886 33.5969 12.0796C33.5583 12.1645 33.4582 12.2019 33.3733 12.1633C33.3062 12.1328 33.2687 12.0637 33.2751 11.9942L33.2765 11.9798C33.2939 11.7944 33.3147 11.6117 33.337 11.4308C33.3603 11.2502 33.3904 11.0723 33.394 10.8902L33.4279 10.3517C33.4379 10.263 33.4378 10.1733 33.4353 10.0836L33.4322 9.81571C33.429 9.63761 33.4439 9.46106 33.4226 9.2837C33.4076 9.10668 33.3961 8.93051 33.387 8.75467C33.3736 8.57897 33.3413 8.40452 33.3198 8.23013L33.2865 7.96881L33.2354 7.70989C33.1766 7.36342 33.0806 7.02503 32.9949 6.68539L32.8356 6.18396C32.7801 6.01776 32.7161 5.85433 32.6573 5.68931C32.594 5.52591 32.5223 5.36599 32.4582 5.20287L32.2382 4.7265C32.1606 4.57023 32.0822 4.4141 31.9994 4.26233C31.9598 4.18441 31.9158 4.1116 31.874 4.037C31.8533 3.99904 31.8324 3.96227 31.8112 3.92769L31.7526 3.83007L32.437 3.98762L32.4362 3.98806C31.8249 4.31225 31.2336 4.70767 30.6577 5.12833C30.0813 5.54994 29.5271 6.01175 28.9804 6.4819C28.4341 6.95354 27.9047 7.44823 27.3833 7.95076C26.8648 8.45356 26.3486 8.97306 25.8638 9.49503C25.6597 9.71478 25.3161 9.72749 25.0964 9.52339C24.9898 9.42446 24.9319 9.29266 24.9238 9.1581L24.9231 9.14674C24.912 8.95298 24.8577 8.74311 24.7702 8.53148C24.6823 8.31917 24.5527 8.10861 24.4123 7.90354C24.2708 7.69789 24.1042 7.50103 23.9299 7.31109C23.8431 7.21587 23.7517 7.12352 23.6587 7.03385C23.5684 6.94617 23.465 6.85169 23.3819 6.7824L24.1453 6.70333C23.6651 7.31258 23.2731 8.01566 22.9308 8.74625L22.6851 9.30226L22.4639 9.87233C22.3871 10.0609 22.324 10.2562 22.2574 10.4498C22.192 10.6439 22.1218 10.836 22.0649 11.0338C21.815 11.8158 21.6126 12.6167 21.4301 13.4215C21.2519 14.2242 21.0935 15.0471 20.9817 15.8473L20.9809 15.8527C20.9423 16.1288 20.6993 16.3269 20.427 16.319L13.8286 16.1048L13.0038 16.078C12.9365 16.0759 12.857 16.072 12.8237 16.0766C12.7801 16.0802 12.7345 16.0746 12.6935 16.0873C12.6086 16.1 12.5265 16.1238 12.4511 16.1619C12.1449 16.3031 11.9256 16.6523 11.9347 16.9933C11.9395 17.1665 11.9879 17.3205 12.0925 17.4856L12.5385 18.1799L13.4304 19.5687L20.5655 30.6785L20.5661 30.6793C20.5947 30.7238 20.6164 30.7734 20.6304 30.8218C20.9167 31.8268 21.289 32.7978 21.7623 33.7168C22.2253 34.644 22.8277 35.4873 23.4258 36.413C23.7224 36.8778 24.0079 37.3779 24.2267 37.9165C24.2875 38.048 24.3295 38.1881 24.3788 38.3249L24.4489 38.5292L24.5081 38.7178L24.7553 39.4744C25.0945 40.4839 25.4529 41.4948 25.8169 42.4984L25.1006 42.1839C25.2378 42.1194 25.3779 42.0594 25.5133 41.9926C25.643 41.9172 25.7816 41.8538 25.9048 41.7701C26.1604 41.6142 26.3929 41.4304 26.6101 41.2338C26.8205 41.0311 27.0113 40.8107 27.1685 40.5722C27.2492 40.4541 27.3171 40.3296 27.3781 40.2049C27.4077 40.1427 27.4361 40.0791 27.4589 40.0176C27.4706 39.9866 27.4828 39.9555 27.4913 39.9268L27.5115 39.8606L27.5228 39.8239C27.6104 39.5375 27.9136 39.3763 28.2 39.464C28.4116 39.5287 28.5548 39.7116 28.5799 39.918C28.6169 40.2257 28.6595 40.5333 28.7285 40.8359C28.7908 41.1399 28.8785 41.438 28.9748 41.7326C29.072 42.0271 29.19 42.3142 29.3202 42.5935C29.3848 42.7335 29.4557 42.8696 29.5285 43.0034C29.5658 43.069 29.6028 43.1361 29.6417 43.1987C29.6781 43.2601 29.7239 43.3302 29.7522 43.3714L29.1285 43.1788L29.1289 43.1787C29.4458 43.0654 29.7622 42.9248 30.0753 42.758C30.2287 42.6685 30.3863 42.5845 30.5356 42.4825C30.6901 42.3892 30.8398 42.2856 30.9902 42.1816C31.2882 41.9689 31.5743 41.7354 31.8615 41.498L32.7242 40.7733L32.7307 40.7679C32.8041 40.7062 32.9135 40.7158 32.975 40.7891C33.0218 40.8444 33.0277 40.9202 32.9965 40.9806Z" fill="#000066"/>
<path d="M45.1783 11.275C44.9314 11.275 44.7083 11.105 44.6509 10.8541C43.6795 6.61072 42.4435 3.51606 41.5777 1.66702C41.4257 1.34256 41.1346 1.13244 40.779 1.0905C40.4258 1.04892 40.0822 1.19102 39.8599 1.47026C36.3255 5.91302 35.9161 8.01229 35.9124 8.03291C35.8597 8.32553 35.5806 8.52259 35.288 8.47341C34.995 8.42342 34.7967 8.14925 34.8439 7.85595C34.8589 7.76269 35.2542 5.51987 39.0124 0.795844C39.4694 0.221143 40.1766 -0.0713103 40.9055 0.0148509C41.6308 0.100167 42.2488 0.54598 42.5586 1.20782C43.4468 3.10455 44.7139 6.27581 45.7067 10.6125C45.7734 10.9039 45.5911 11.1944 45.2996 11.2611C45.259 11.2705 45.2183 11.275 45.1783 11.275Z" fill="#000066"/>
<path d="M31.6214 25.9751C31.6629 25.9166 31.6909 25.8809 31.7212 25.8425C31.7518 25.8025 31.7818 25.7657 31.8111 25.7312C31.8715 25.6611 31.932 25.5902 31.9938 25.526C32.1164 25.3924 32.2472 25.2719 32.377 25.1502C32.5108 25.0334 32.648 24.922 32.7859 24.8114C32.9298 24.709 33.0713 24.6037 33.2191 24.5078C33.3684 24.414 33.5178 24.3208 33.6721 24.2363L34.1419 23.9966C34.4682 23.8624 34.7907 23.7261 35.1304 23.6361C35.8033 23.4477 36.4973 23.3398 37.1826 23.3704C37.5238 23.3628 37.862 23.4224 38.1929 23.4704C38.3588 23.4907 38.5209 23.5418 38.6818 23.585C38.8427 23.6291 39.0014 23.677 39.1578 23.7265C39.2759 23.7638 39.3413 23.8897 39.304 24.0078C39.2771 24.0927 39.2044 24.1504 39.1217 24.1622L39.098 24.1655C38.9405 24.1877 38.7853 24.2083 38.6323 24.2252C38.4792 24.2467 38.3282 24.248 38.1785 24.2865C37.8794 24.3446 37.5861 24.388 37.3025 24.4756C36.7318 24.6179 36.1949 24.8346 35.6918 25.0924C35.1865 25.3459 34.7168 25.6564 34.2805 26.0021C34.0633 26.1762 33.8517 26.3559 33.6511 26.5443C33.5513 26.6384 33.4512 26.7324 33.3584 26.8289C33.3086 26.876 33.2652 26.9237 33.2206 26.971C33.1968 26.9946 33.1751 27.0172 33.1561 27.0385C33.1358 27.0605 33.1131 27.085 33.1067 27.0892L32.8576 27.2537C32.4406 27.5289 31.8794 27.4141 31.6041 26.9971C31.393 26.6771 31.4129 26.2706 31.6214 25.9751Z" fill="#000066"/>
<path d="M47.3687 16.0557L47.2942 16.1323C47.2641 16.1624 47.2339 16.1917 47.2041 16.2252C47.1429 16.2879 47.0834 16.3552 47.0239 16.4223C46.9046 16.5572 46.7912 16.6992 46.6814 16.8446C46.4637 17.1368 46.2694 17.45 46.1129 17.7855C45.9536 18.1195 45.8217 18.475 45.7388 18.8515C45.6867 19.0389 45.6635 19.2318 45.6308 19.4289C45.5981 19.6262 45.597 19.8263 45.5679 20.034L45.5648 20.0555C45.5534 20.1369 45.4782 20.1937 45.3968 20.1823C45.3393 20.1743 45.2941 20.1342 45.2765 20.0828C45.2075 19.8794 45.1309 19.6709 45.0873 19.4551C45.0486 19.239 45.0023 19.0182 45 18.7941C44.9652 18.3448 45.0215 17.8868 45.1312 17.441C45.1831 17.216 45.266 17.0014 45.3473 16.7843L45.4951 16.4708C45.5474 16.3678 45.6056 16.2677 45.6641 16.1677C45.7241 16.0687 45.7904 15.9736 45.8547 15.877C45.9245 15.7842 45.9949 15.6918 46.0689 15.6016C46.1463 15.5139 46.2228 15.4256 46.3081 15.3424C46.3491 15.3005 46.3945 15.2593 46.4393 15.2182C46.4615 15.1983 46.4852 15.178 46.5109 15.1571L46.5961 15.0885C46.8612 14.875 47.2492 14.9168 47.4627 15.1819C47.6604 15.4273 47.6392 15.7781 47.4246 15.9983L47.3687 16.0557Z" fill="#000066"/>
<path d="M43.5912 23.4568C44.0927 22.9766 44.7939 22.3507 45.4845 21.886C45.8426 21.645 46.3394 21.757 46.5518 22.1327C46.7706 22.5198 46.918 23.1171 46.6502 23.9687C46.5277 24.358 46.214 24.6633 45.82 24.77C45.3447 24.8987 44.6342 24.9859 43.8596 24.7175C43.3288 24.5335 43.1854 23.8454 43.5912 23.4568Z" fill="#000066"/>
<path d="M50.3505 31.1941C51.2412 30.5995 51.2412 29.0361 50.3506 27.7022C49.46 26.3683 48.016 25.769 47.1254 26.3637C46.2347 26.9584 46.2347 28.5218 47.1253 29.8556C48.0159 31.1895 49.4599 31.7888 50.3505 31.1941Z" fill="#000066"/>
<path d="M24.5268 39.8896C23.4951 40.7363 22.4649 41.5886 21.4409 42.4454C20.4178 43.3025 19.3953 44.1637 18.4002 45.0402L18.4657 44.2984C18.5015 44.3253 18.5604 44.3811 18.6092 44.4248L18.7655 44.5651C18.8696 44.6601 18.9781 44.751 19.0847 44.8443C19.3025 45.025 19.5233 45.2025 19.7565 45.3647C19.9901 45.5265 20.2321 45.6778 20.4901 45.82C20.7476 45.9678 21.0224 46.0906 21.3263 46.2351L21.3293 46.2365C21.378 46.2596 21.3987 46.3179 21.3756 46.3666C21.3642 46.3905 21.3441 46.4078 21.321 46.4163C20.9928 46.5369 20.6365 46.567 20.2861 46.5378C19.9348 46.5079 19.5896 46.4135 19.2659 46.2755C18.9417 46.1377 18.6357 45.9596 18.36 45.7441C18.22 45.639 18.0907 45.5206 17.9667 45.3964C17.9059 45.3329 17.8445 45.2696 17.7884 45.2C17.7287 45.1285 17.6812 45.0671 17.617 44.9713L17.6168 44.9711C17.4366 44.7455 17.4683 44.4184 17.6823 44.2293C18.6946 43.3377 19.7185 42.4755 20.7459 41.6148C21.7737 40.7549 22.8046 39.902 23.8407 39.0517C24.0719 38.8619 24.4131 38.8955 24.6028 39.1267C24.7926 39.3579 24.759 39.6991 24.5278 39.8889L24.5268 39.8896Z" fill="#000066"/>
<path d="M10.6577 66.1848C9.86257 66.1848 9.12234 66.0972 8.46199 65.9673C5.6593 65.416 3.71427 64.0316 3.63291 63.9728C3.39177 63.7992 3.33572 63.4637 3.50723 63.2211C3.79847 62.8088 4.27859 62.4889 4.72745 62.2591C1.57816 60.2749 -0.0505549 57.0982 0.00119585 53.0039C0.0435159 49.6605 1.18038 46.9189 1.22881 46.8037C1.28847 46.6617 1.40584 46.5518 1.55149 46.5016C1.6969 46.4513 1.85716 46.4656 1.99176 46.5405C2.81636 47.0004 3.34583 48.0093 3.66171 48.8583C5.4689 45.7684 7.97494 44.6153 9.8577 44.2029C12.1421 43.7028 13.9849 44.1562 14.0622 44.1759C14.2694 44.2284 14.4265 44.3977 14.463 44.6083C14.4995 44.8189 14.4088 45.0313 14.2313 45.1505C14.1883 45.1795 9.88397 48.1322 10.486 52.0454C10.9511 55.069 13.9763 56.5003 15.3301 56.9952C15.6079 50.7364 18.7383 45.7009 18.8765 45.4817C19.0359 45.2289 19.37 45.1529 19.6231 45.3124C19.8761 45.4717 19.952 45.806 19.7929 46.0591C19.7594 46.1124 16.4419 51.459 16.394 57.7353C16.3928 57.901 16.3157 58.0571 16.1848 58.1588C16.0538 58.2606 15.8835 58.2968 15.7228 58.257C15.4945 58.2005 10.1252 56.8243 9.41544 52.2101C8.90699 48.9053 11.202 46.3091 12.6076 45.0602C10.5506 44.9267 6.34389 45.3578 4.01234 50.5429C3.91546 50.7583 3.69 50.8851 3.45562 50.8587C3.221 50.8313 3.0312 50.655 2.98662 50.4231C2.88677 49.9085 2.5409 48.6774 1.96735 47.9429C1.63701 48.9451 1.10645 50.8831 1.08377 53.048C1.04084 57.1556 2.76745 60.1192 6.21555 61.8563C6.41434 61.9564 6.53163 62.168 6.51124 62.3896C6.49079 62.6113 6.33679 62.7979 6.12296 62.86C5.77761 62.9612 5.23864 63.18 4.83345 63.4494C5.57145 63.8762 6.97362 64.5767 8.70854 64.9117C12.112 65.5691 15.1443 64.576 17.7212 61.9598C17.9311 61.7469 18.2739 61.7441 18.4871 61.9542C18.7002 62.164 18.7027 62.507 18.4928 62.72C15.8332 65.42 13.0063 66.1848 10.6577 66.1848Z" fill="#000066"/>
<path d="M38.8938 65.5339H31.2201C19.2344 65.5339 17.4121 63.4824 17.1685 63.0711L18.1003 62.5192C18.1003 62.5192 18.0953 62.5073 18.0791 62.4868C18.0948 62.5065 19.7748 64.4509 31.2201 64.4509H38.8938C39.3975 64.4509 39.8296 64.1036 39.9213 63.6253C40.1576 62.3917 39.6718 61.5138 38.4361 60.9415C35.6674 59.6594 33.7048 61.3749 33.6225 61.4487L32.8945 60.6467C32.9975 60.553 35.4543 58.3669 38.8913 59.9587C40.5705 60.7365 41.3141 62.111 40.9851 63.829C40.7958 64.817 39.9163 65.5339 38.8938 65.5339Z" fill="#000066"/>
<path d="M30.0833 62.8528C30.2531 62.6436 30.4295 62.4785 30.6078 62.3209C30.6976 62.2447 30.7886 62.1731 30.8789 62.0996C30.9701 62.0284 31.0653 61.9669 31.1581 61.9001C31.5374 61.6484 31.9178 61.3978 32.2675 61.1046C32.9715 60.5274 33.6275 59.8916 34.2035 59.1864C34.348 59.0109 34.4825 58.8267 34.6227 58.6477L34.8305 58.3769L35.0186 58.0914L35.3972 57.522L35.7391 56.9281L35.9109 56.6314L36.0642 56.324L36.3703 55.7076C36.426 55.6069 36.4694 55.5004 36.5133 55.394L36.647 55.0755L36.9246 54.4405L36.9321 54.421C37.0391 54.1418 37.3522 54.0022 37.6313 54.1093C37.8463 54.1917 37.9784 54.3975 37.9789 54.6148V60.038C37.9789 60.3371 37.7364 60.5796 37.4374 60.5796C37.1382 60.5796 36.8958 60.3371 36.8958 60.038V54.6148L37.9501 54.789C37.7942 55.255 37.6482 55.7272 37.464 56.1856L37.1605 56.863L37.0072 57.2015L36.8263 57.5268L36.4629 58.1771C36.3319 58.3883 36.1898 58.5929 36.0504 58.7989L35.8406 59.1075L35.6101 59.4018C35.4533 59.5954 35.3065 59.7971 35.1411 59.9835C34.4796 60.7296 33.7404 61.4092 32.9222 61.9795C32.8196 62.0503 32.7205 62.1255 32.6152 62.1924L32.298 62.3908C32.089 62.5258 31.8689 62.6457 31.6474 62.76C31.5357 62.8158 31.416 62.8582 31.298 62.9013L31.1178 62.9588C31.0551 62.9731 30.9937 62.9895 30.9302 63.0007C30.6802 63.0524 30.416 63.0717 30.1363 63.021C30.0824 63.0112 30.0465 62.9595 30.0563 62.9055C30.0594 62.8886 30.0665 62.8734 30.0766 62.8609L30.0833 62.8528Z" fill="#000066"/>
<path d="M44.9304 64.6057H40.3741C40.075 64.6057 39.8325 64.3632 39.8325 64.0641C39.8325 63.7651 40.075 63.5226 40.3741 63.5226H44.9304C45.4169 63.5226 45.8522 63.2919 46.1246 62.8893C46.3994 62.4835 46.4522 61.9885 46.2694 61.5316C45.7954 60.3469 45.1849 59.5263 44.4549 59.0925C44.4 59.0599 44.3514 59.018 44.3112 58.9684C44.258 58.9029 43.7868 58.3031 43.6344 57.4267C43.5073 56.6957 43.5951 54.4493 43.6214 53.8491C43.4136 53.3372 42.6255 51.2734 42.3374 48.7544C42.1529 48.97 41.9538 49.1754 41.7543 49.335C41.6032 49.4559 41.3987 49.4872 41.2184 49.4164C41.0381 49.3458 40.9093 49.1842 40.8805 48.9927C40.8498 48.7889 40.1397 43.9735 40.9681 41.5015C41.063 41.218 41.3701 41.0648 41.6536 41.1602C41.9372 41.2553 42.0901 41.5621 41.995 41.8458C41.4781 43.388 41.6536 46.1267 41.8123 47.6774C42.0358 47.3787 42.2217 47.0914 42.3109 46.9427C42.4351 46.7357 42.6813 46.6357 42.9148 46.6981C43.1482 46.7603 43.3121 46.9694 43.3168 47.2109C43.3801 50.5061 44.6526 53.5095 44.6655 53.5393C44.6978 53.6147 44.7127 53.6966 44.7089 53.7785C44.6567 54.8876 44.6117 56.7249 44.7014 57.2412C44.7833 57.7119 45.0074 58.0785 45.1052 58.2209C46.0004 58.7895 46.73 59.7672 47.275 61.1292C47.5888 61.9135 47.494 62.7985 47.0215 63.4965C46.5513 64.1911 45.7697 64.6057 44.9304 64.6057Z" fill="#000066"/>
<path d="M44.1686 54.2947C43.9721 54.2947 43.7824 54.1874 43.6864 54.0006C43.5498 53.7345 43.6546 53.4081 43.9206 53.2714C44.9286 52.7533 45.5761 51.3692 45.5825 51.3552C45.6857 51.1316 45.9267 51.0047 46.1698 51.0487C46.4124 51.092 46.5953 51.2933 46.6145 51.5391C46.633 51.7756 46.7386 51.9921 46.8586 52.1668C49.3092 48.4441 48.048 45.122 47.9906 44.9761C47.8931 44.7287 47.9893 44.4463 48.2182 44.3108C48.447 44.1754 48.7399 44.2251 48.91 44.4296C49.1045 44.6632 49.2785 44.8102 49.4238 44.899C48.7197 41.2371 46.6092 39.5568 46.5867 39.5393C46.3512 39.3559 46.3076 39.0162 46.49 38.7801C46.6724 38.544 47.0106 38.4995 47.2474 38.681C47.3589 38.7665 49.9871 40.8299 50.6066 45.4249C50.6363 45.6451 50.5285 45.8609 50.3348 45.9695C50.3085 45.9843 49.9206 46.193 49.3545 46.0382C49.5897 47.6669 49.5241 50.4491 47.3511 53.3484C47.2643 53.4643 47.1347 53.5405 46.9914 53.5601C46.8476 53.5796 46.7025 53.5411 46.5879 53.453C46.5329 53.4108 46.2404 53.1772 45.9767 52.7978C45.6112 53.3073 45.0839 53.8914 44.4156 54.2347C44.3365 54.2754 44.2519 54.2947 44.1686 54.2947Z" fill="#000066"/>
<path d="M48.8207 62.3509H46.9092C46.6102 62.3509 46.3677 62.1084 46.3677 61.8093C46.3677 61.5103 46.6101 61.2678 46.9092 61.2678H48.8207C49.0311 61.2678 49.2321 61.1775 49.3721 61.0202C49.51 60.8654 49.573 60.668 49.5493 60.4647C49.3864 59.067 48.7367 57.9533 48.3303 57.6866C47.7751 57.3223 47.3185 56.7395 47.0332 56.3148C46.8097 55.9826 46.6915 55.5954 46.6915 55.1955V52.5796C46.6915 52.2805 46.934 52.0381 47.233 52.0381C47.5321 52.0381 47.7746 52.2805 47.7746 52.5796V55.1955C47.7746 55.3792 47.8291 55.5573 47.9321 55.7106C48.2569 56.1942 48.6094 56.5741 48.9245 56.7811C49.7184 57.302 50.4494 58.8317 50.6251 60.3392C50.6842 60.8464 50.5224 61.3571 50.1811 61.7405C49.8357 62.1284 49.3399 62.3509 48.8207 62.3509Z" fill="#000066"/>
<path d="M38.197 64.7987C38.2407 64.7437 38.2976 64.6546 38.3424 64.5753C38.39 64.4935 38.4333 64.4083 38.4742 64.3215C38.5549 64.1475 38.6201 63.9656 38.6677 63.7786C38.718 63.5913 38.7391 63.3989 38.7429 63.2039C38.7491 63.0076 38.7132 62.8142 38.6653 62.619L38.6633 62.6106C38.6504 62.558 38.6825 62.505 38.735 62.4921C38.7799 62.4811 38.8252 62.503 38.8454 62.5424C38.9453 62.7361 39.0357 62.9438 39.0808 63.1641C39.1283 63.3828 39.1555 63.6106 39.1489 63.8367C39.145 64.0632 39.1194 64.2899 39.0735 64.5131C39.05 64.6246 39.0229 64.7357 38.9895 64.8459C38.9553 64.9596 38.9228 65.0592 38.8662 65.1869L38.8606 65.1997C38.7732 65.3971 38.5424 65.4863 38.3451 65.399C38.1477 65.3117 38.0585 65.0808 38.1458 64.8835C38.1592 64.8531 38.1774 64.8238 38.197 64.7987Z" fill="#000066"/>
<path d="M44.3625 63.6786C44.4062 63.6236 44.4631 63.5345 44.5079 63.4552C44.5556 63.3734 44.5989 63.2881 44.6398 63.2014C44.7205 63.0274 44.7856 62.8455 44.8333 62.6584C44.8836 62.4711 44.9046 62.2787 44.9085 62.0838C44.9147 61.8875 44.8788 61.694 44.8309 61.4989L44.8288 61.4905C44.8159 61.4379 44.8481 61.3849 44.9006 61.372C44.9454 61.361 44.9907 61.3829 45.011 61.4222C45.1108 61.6161 45.2013 61.8236 45.2463 62.044C45.2939 62.2628 45.3211 62.4905 45.3144 62.7166C45.3105 62.9432 45.2849 63.1698 45.239 63.393C45.2155 63.5045 45.1884 63.6156 45.1551 63.7258C45.1208 63.8395 45.0883 63.9391 45.0318 64.0668L45.0261 64.0797C44.9388 64.2771 44.7079 64.3662 44.5106 64.2789C44.3132 64.1916 44.224 63.9607 44.3114 63.7634C44.3248 63.7329 44.3429 63.7036 44.3625 63.6786Z" fill="#000066"/>
<path d="M48.0925 61.6171C48.1362 61.5621 48.1931 61.473 48.2379 61.3937C48.2855 61.3119 48.3289 61.2266 48.3698 61.1399C48.4505 60.9658 48.5156 60.784 48.5632 60.5969C48.6136 60.4096 48.6346 60.2172 48.6385 60.0223C48.6446 59.826 48.6087 59.6325 48.5609 59.4374L48.5588 59.4289C48.5459 59.3764 48.578 59.3234 48.6306 59.3105C48.6754 59.2994 48.7207 59.3214 48.7409 59.3608C48.8408 59.5545 48.9312 59.7622 48.9763 59.9824C49.0238 60.2012 49.051 60.4289 49.0444 60.6551C49.0405 60.8816 49.0149 61.1083 48.969 61.3315C48.9455 61.443 48.9184 61.554 48.885 61.6643C48.8508 61.7779 48.8182 61.8775 48.7617 62.0053L48.7561 62.0181C48.6687 62.2155 48.4379 62.3047 48.2406 62.2174C48.0432 62.13 47.954 61.8992 48.0413 61.7018C48.0547 61.6715 48.0729 61.6421 48.0925 61.6171Z" fill="#000066"/>
<defs>
<linearGradient id="paint0_linear_507_700" x1="47.6526" y1="-1.24318" x2="23.9788" y2="39.241" gradientUnits="userSpaceOnUse">
<stop stop-color="#86869B"/>
<stop offset="1" stop-color="#60607F"/>
</linearGradient>
<linearGradient id="paint1_linear_507_700" x1="43.7448" y1="1.86062" x2="40.164" y2="9.4202" gradientUnits="userSpaceOnUse">
<stop stop-color="#86869B"/>
<stop offset="1" stop-color="#60607F"/>
</linearGradient>
<radialGradient id="paint2_radial_507_700" cx="0" cy="0" r="1" gradientUnits="userSpaceOnUse" gradientTransform="translate(47.5831 41.7161) scale(41.7084 41.7084)">
<stop stop-color="#86869B"/>
<stop offset="0.3554" stop-color="#838399"/>
<stop offset="0.6444" stop-color="#797991"/>
<stop offset="0.9094" stop-color="#686885"/>
<stop offset="1" stop-color="#60607F"/>
</radialGradient>
</defs>
</svg>
